<svg xmlns="http://www.w3.org/2000/svg" viewBox="0 0 16.15 18.26"><defs><style>.cls-1{fill:#22234a;}</style></defs><g id="Layer_2" data-name="Layer 2"><g id="Layer_1-2" data-name="Layer 1"><path class="cls-1" d="M0,4.7.41,1.3l.4,0L1.88,4.51l-.48,0-.21-.7-.65.07-.06.72ZM1.06,3.42.71,2.24h0L.58,3.47Z"/><path class="cls-1" d="M2,4.5,1.7,1.18l.46-.05.91,1.93h0l-.2-2L3.36,1l.33,3.32-.45,0L2.32,2.45h0l.2,2Z"/><path class="cls-1" d="M4.06,4.3,3.72,1,4.43.9a.86.86,0,0,1,.64.16.9.9,0,0,1,.28.62L5.5,3.23a.92.92,0,0,1-.15.71.89.89,0,0,1-.63.29Zm.18-2.93L4.49,3.8l.22,0A.38.38,0,0,0,5,3.65a.44.44,0,0,0,0-.32l-.16-1.6a.49.49,0,0,0-.11-.3.34.34,0,0,0-.3-.08Z"/><path class="cls-1" d="M6.79,4,6.46.7l.48,0L7.27,4Z"/><path class="cls-1" d="M9.77,1.33l-.47,0V1.27A.5.5,0,0,0,9.18,1,.3.3,0,0,0,8.91.91a.21.21,0,0,0-.15,0,.28.28,0,0,0-.09.1.37.37,0,0,0,0,.15.85.85,0,0,0,0,.16,1.15,1.15,0,0,1,0,.16.37.37,0,0,0,0,.11.26.26,0,0,0,.09.09A.5.5,0,0,0,9,1.78l.37.11A1,1,0,0,1,9.6,2a.91.91,0,0,1,.17.17.92.92,0,0,1,.09.25,1.43,1.43,0,0,1,.05.32,1.34,1.34,0,0,1,0,.4.8.8,0,0,1-.1.32.76.76,0,0,1-.24.23.85.85,0,0,1-.38.11.93.93,0,0,1-.33,0,.87.87,0,0,1-.27-.14.9.9,0,0,1-.2-.23A.75.75,0,0,1,8.3,3.1l0-.17.48-.05V3a.52.52,0,0,0,.1.23.3.3,0,0,0,.27.07.33.33,0,0,0,.19-.05.24.24,0,0,0,.09-.11.41.41,0,0,0,0-.16,1.41,1.41,0,0,0,0-.2c0-.09,0-.16,0-.22a.39.39,0,0,0-.05-.13.39.39,0,0,0-.1-.08l-.15,0-.35-.11a.76.76,0,0,1-.45-.29,1.18,1.18,0,0,1-.15-.51,1.09,1.09,0,0,1,0-.36A.74.74,0,0,1,8.3.76.61.61,0,0,1,8.53.54.72.72,0,0,1,8.88.43a.89.89,0,0,1,.33,0,1.17,1.17,0,0,1,.27.15.72.72,0,0,1,.27.49Z"/><path class="cls-1" d="M10.08,3.69,10.49.3l.4,0L12,3.51l-.47,0-.21-.7-.65.07-.07.73Zm1.06-1.28-.35-1.18h0l-.11,1.23Z"/><path class="cls-1" d="M12.15,3.49,11.81.16l.48,0,.33,3.32Z"/><path class="cls-1" d="M13,3.4,12.69.08l.7-.07A.81.81,0,0,1,14,.17a.92.92,0,0,1,.27.61l.16,1.56a.93.93,0,0,1-.16.71.89.89,0,0,1-.63.28ZM13.21.48l.24,2.42.22,0a.32.32,0,0,0,.27-.13A.5.5,0,0,0,14,2.43L13.84.83a.59.59,0,0,0-.11-.3.34.34,0,0,0-.3-.07Z"/><path class="cls-1" d="M.32,8,.06,5.29l.37,0,.63,1.36h0l.35-1.45.37,0L2,7.78l-.38,0L1.5,6.2h0L1.23,7.38,1,7.4.55,6.29h0L.71,7.91Z"/><path class="cls-1" d="M2.18,7.77l.33-2.72.31,0,.87,2.61-.39,0-.17-.56-.51,0-.06.59Zm.85-1L2.74,5.8h0l-.09,1Z"/><path class="cls-1" d="M4,7.59,3.86,6.46,3.18,5l.4,0L4,6H4l.2-1.08.41,0L4.24,6.42l.11,1.13Z"/><path class="cls-1" d="M5,7.48,4.75,4.82l.55-.05a.66.66,0,0,1,.32,0,.58.58,0,0,1,.23.13.72.72,0,0,1,.14.2,1,1,0,0,1,.06.25v.28a.57.57,0,0,1,0,.14.48.48,0,0,1-.18.2.41.41,0,0,1,.22.16.86.86,0,0,1,.1.33v.15a.76.76,0,0,1-.11.56.68.68,0,0,1-.53.24Zm.15-2.34.08.73h.17a.35.35,0,0,0,.25-.12.63.63,0,0,0,0-.29.37.37,0,0,0-.1-.26.28.28,0,0,0-.27-.06Zm.11,1.07.09.85h.16A.56.56,0,0,0,5.7,7a.31.31,0,0,0,.09-.11.22.22,0,0,0,0-.14,1.09,1.09,0,0,0,0-.18.9.9,0,0,0,0-.18.67.67,0,0,0-.06-.12.26.26,0,0,0-.11-.07H5.44Z"/><path class="cls-1" d="M6.55,7.33,6.29,4.67l1.13-.12,0,.36L6.7,5l.08.78.66-.07,0,.36-.66.07.08.78.75-.08,0,.39Z"/><path class="cls-1" d="M7.88,7.2,7.62,4.53l1.13-.11,0,.36L8,4.86l.08.78.66-.07,0,.36L8.15,6l.08.78L9,6.7l0,.38Z"/><path class="cls-1" d="M9.21,7.06,9,4.4l1.13-.11,0,.36-.75.07.07.78.66-.06,0,.36-.66.06.08.78.75-.07,0,.38Z"/><path class="cls-1" d="M10.54,6.93l-.26-2.66,1.13-.12,0,.36-.75.08.07.78.66-.07,0,.36-.66.07.08.78.75-.08,0,.39Z"/><path class="cls-1" d="M11.88,6.8l-.27-2.66L12.75,4l0,.36L12,4.46l.07.78.66-.07,0,.36-.66.07.08.78L13,6.3l0,.38Z"/><path class="cls-1" d="M13.21,6.66,12.94,4l1.14-.11,0,.36-.75.07.08.78L14.09,5l0,.36-.66.06.08.78.75-.07,0,.38Z"/><path class="cls-1" d="M14.54,6.81l-.07-.66.39,0,0,.38Z"/><path class="cls-1" d="M1.32,11.69l-.14-1.32L.38,8.62l.48,0,.49,1.21h0L1.6,8.49l.48,0-.44,1.87.13,1.33Z"/><path class="cls-1" d="M2.3,9.17a.64.64,0,0,1,0-.34.74.74,0,0,1,.15-.26.87.87,0,0,1,.23-.16A.7.7,0,0,1,3,8.33a.86.86,0,0,1,.28,0,.72.72,0,0,1,.27.12.69.69,0,0,1,.19.22.68.68,0,0,1,.1.33L4,10.68A.9.9,0,0,1,4,11a.93.93,0,0,1-.15.26,1,1,0,0,1-.24.17A.86.86,0,0,1,3,11.5a.68.68,0,0,1-.26-.12.71.71,0,0,1-.2-.22.8.8,0,0,1-.1-.33Zm.62,1.62A.34.34,0,0,0,3,11a.36.36,0,0,0,.23.05.35.35,0,0,0,.21-.1.31.31,0,0,0,.06-.25L3.37,9.07a.31.31,0,0,0-.12-.24A.33.33,0,0,0,3,8.78a.32.32,0,0,0-.21.1.29.29,0,0,0-.07.25Z"/><path class="cls-1" d="M5.56,8.1l.25,2.43a.68.68,0,0,1,0,.29.75.75,0,0,1-.13.25,1,1,0,0,1-.23.18.62.62,0,0,1-.28.09.72.72,0,0,1-.29,0,.89.89,0,0,1-.25-.14A.91.91,0,0,1,4.42,11a.66.66,0,0,1-.09-.28L4.09,8.25l.46-.05.23,2.39a.39.39,0,0,0,.11.24.26.26,0,0,0,.21.06.27.27,0,0,0,.19-.1.34.34,0,0,0,.06-.26L5.11,8.14Z"/><path class="cls-1" d="M6,8.84,5.9,8.06l.46,0,0,.45Z"/><path class="cls-1" d="M7,11.12,6.7,8l.67-.06A.77.77,0,0,1,8,8.07a.86.86,0,0,1,.27.58l.14,1.47a.88.88,0,0,1-.15.67.89.89,0,0,1-.6.27ZM7.2,8.36l.23,2.3.21,0a.32.32,0,0,0,.26-.12.45.45,0,0,0,0-.3L7.8,8.69a.48.48,0,0,0-.1-.27.33.33,0,0,0-.29-.08Z"/><path class="cls-1" d="M9.62,10.86,9.31,7.72l.46,0L10,10.37l.91-.09,0,.45Z"/><path class="cls-1" d="M11.23,10.7l-.32-3.14.46,0,.31,3.14Z"/><path class="cls-1" d="M12.06,10.62l-.31-3.14.46-.05.14,1.44h0l.52-1.5.46,0-.5,1.32.93,1.81-.49.05-.65-1.34-.2.47.09.94Z"/><path class="cls-1" d="M13.9,10.44,13.59,7.3,15,7.16l0,.42-.9.09.09.93L15,8.52l0,.42L14.22,9l.1.92.9-.09,0,.45Z"/><path class="cls-1" d="M1,15.15l-.3-3,.64-.06a.79.79,0,0,1,.31,0,.55.55,0,0,1,.25.13.68.68,0,0,1,.18.26,1.74,1.74,0,0,1,.08.41,1.34,1.34,0,0,1,0,.34.68.68,0,0,1-.07.27.72.72,0,0,1-.21.25.74.74,0,0,1-.37.11l-.21,0,.11,1.14Zm.17-2.59.1,1,.2,0a.43.43,0,0,0,.19-.06.26.26,0,0,0,.1-.11.78.78,0,0,0,0-.16c0-.06,0-.13,0-.2l0-.2a.43.43,0,0,0-.05-.16.36.36,0,0,0-.11-.1.42.42,0,0,0-.2,0Z"/><path class="cls-1" d="M2.67,15,2.37,12l.42,0,.3,2.94Z"/><path class="cls-1" d="M3.44,14.91,3.14,12l1.26-.12,0,.39-.83.09.08.86.73-.07,0,.4-.73.07.09.86.83-.08,0,.42Z"/><path class="cls-1" d="M5.3,15.21l-.09-.81.48-.05,0,.47Z"/><path class="cls-1" d="M6.33,14.62,6,11.67l.4,0,.7,1.51h0l.38-1.62.41,0,.29,2.95-.42,0-.18-1.79h0L7.33,14l-.21,0-.54-1.23h0l.18,1.79Z"/><path class="cls-1" d="M8.38,14.41l.36-3,.35,0,1,2.87-.43,0-.18-.62-.58.05-.06.65Zm.94-1.13-.31-1H9l-.1,1.09Z"/><path class="cls-1" d="M11.35,12l-.42,0V12a.43.43,0,0,0-.1-.25.26.26,0,0,0-.24-.08.25.25,0,0,0-.13.05.18.18,0,0,0-.08.09.27.27,0,0,0,0,.12.38.38,0,0,0,0,.15.52.52,0,0,0,0,.14.3.3,0,0,0,0,.1.18.18,0,0,0,.08.07l.14.06.33.09a.67.67,0,0,1,.24.11.43.43,0,0,1,.15.15.73.73,0,0,1,.09.22,2.09,2.09,0,0,1,0,.28,1,1,0,0,1,0,.35.66.66,0,0,1-.09.29.58.58,0,0,1-.21.2.8.8,0,0,1-.34.1.93.93,0,0,1-.29,0A.7.7,0,0,1,10.3,14a.68.68,0,0,1-.17-.21.62.62,0,0,1-.09-.27v-.15l.42,0v.13a.4.4,0,0,0,.09.2.26.26,0,0,0,.24.07.38.38,0,0,0,.17,0,.27.27,0,0,0,.08-.1.29.29,0,0,0,0-.14c0-.05,0-.11,0-.18a.92.92,0,0,0,0-.19A.23.23,0,0,0,11,13a.18.18,0,0,0-.08-.07l-.13,0-.32-.09a.69.69,0,0,1-.39-.26,1,1,0,0,1-.14-.46,1.06,1.06,0,0,1,0-.31.67.67,0,0,1,.11-.27.58.58,0,0,1,.21-.2.8.8,0,0,1,.6-.06.7.7,0,0,1,.24.13.65.65,0,0,1,.24.43Z"/><path class="cls-1" d="M11.81,14.07l-.29-2.94.42-.05.13,1.26.52-.05L12.46,11l.42,0,.3,2.94-.42,0-.13-1.31-.52.06L12.24,14Z"/><path class="cls-1" d="M15.49,13.7l-.16-.21a1.13,1.13,0,0,1-.24.21,1,1,0,0,1-.3.1.66.66,0,0,1-.24,0,.72.72,0,0,1-.21-.12.62.62,0,0,1-.15-.2.8.8,0,0,1,0-.71,1.72,1.72,0,0,1,.25-.37,1.54,1.54,0,0,1-.21-.31.8.8,0,0,1-.11-.34.6.6,0,0,1,0-.23.66.66,0,0,1,.09-.19.47.47,0,0,1,.17-.14.61.61,0,0,1,.24-.07.65.65,0,0,1,.25,0,.4.4,0,0,1,.18.1.53.53,0,0,1,.19.36.77.77,0,0,1-.09.41,2.33,2.33,0,0,1-.27.37l.1.12.11.15.24.31.2-.34.28.16-.28.44.37.47Zm-1-.58a.39.39,0,0,0,.12.25.25.25,0,0,0,.23.09.37.37,0,0,0,.18-.08l.12-.13-.47-.61a1.35,1.35,0,0,0-.14.22A.57.57,0,0,0,14.48,13.12Zm0-1.43a.6.6,0,0,0,.07.2,1.2,1.2,0,0,0,.13.21l.08-.09a.75.75,0,0,0,.07-.12.5.5,0,0,0,.05-.13.76.76,0,0,0,0-.15.27.27,0,0,0-.07-.14.17.17,0,0,0-.15-.05.2.2,0,0,0-.15.09A.3.3,0,0,0,14.49,11.69Z"/><path class="cls-1" d="M1,16.29A.9.9,0,0,1,1,16a.74.74,0,0,1,.13-.21.62.62,0,0,1,.19-.14.63.63,0,0,1,.22-.07,1,1,0,0,1,.24,0,.58.58,0,0,1,.21.1.63.63,0,0,1,.17.19.77.77,0,0,1,.08.27v.14l-.37,0,0-.13A.26.26,0,0,0,1.74,16,.26.26,0,0,0,1.55,16a.34.34,0,0,0-.17.08.24.24,0,0,0-.06.21l.14,1.39a.22.22,0,0,0,.1.19.24.24,0,0,0,.18.05.3.3,0,0,0,.18-.08A.28.28,0,0,0,2,17.59l-.05-.49-.3,0,0-.34.68-.06.08.82a.67.67,0,0,1,0,.29.72.72,0,0,1-.12.21.56.56,0,0,1-.2.14.57.57,0,0,1-.22.07.62.62,0,0,1-.23,0,.51.51,0,0,1-.21-.1A.58.58,0,0,1,1.17,18a.77.77,0,0,1-.08-.28Z"/><path class="cls-1" d="M2.69,18.14l-.26-2.62.6-.06c.45-.05.69.19.75.7a1,1,0,0,1,0,.4.52.52,0,0,1-.22.29L4,18l-.4,0L3.18,17,3,17l.11,1.13Zm.15-2.31.08.82.22,0,.15,0a.26.26,0,0,0,.09-.09.51.51,0,0,0,0-.13,1.07,1.07,0,0,0,0-.18c0-.07,0-.12,0-.17a.26.26,0,0,0-.06-.13A.31.31,0,0,0,3,15.81Z"/><path class="cls-1" d="M4,18l.33-2.69.31,0,.85,2.57-.38,0L5,17.34l-.52.06,0,.57Zm.84-1-.28-.94h0L4.5,17Z"/><path class="cls-1" d="M6.54,15.1l-.28,2.69-.33,0-.8-2.57.4,0L6,17H6l.12-1.87Z"/><path class="cls-1" d="M7.33,17.68l-.11-1.11L6.55,15.1l.4,0,.4,1h0L7.56,15,8,15l-.37,1.57.11,1.11Z"/><path class="cls-1" d="M8.71,17.54,8.6,16.43,7.93,15l.4,0,.4,1h0l.2-1.08.4,0L9,16.39l.12,1.12Z"/><path class="cls-1" d="M10.09,17.4,10,16.29l-.67-1.46.4,0,.41,1h0l.2-1.07.4,0-.37,1.57.12,1.11Z"/><path class="cls-1" d="M11.47,17.27l-.11-1.11-.67-1.47.4,0,.41,1h0l.2-1.07.4,0-.36,1.57.11,1.11Z"/><path class="cls-1" d="M12.85,17.13,12.74,16l-.67-1.47.4,0,.41,1h0l.2-1.08.4,0L13.12,16l.11,1.11Z"/><path class="cls-1" d="M14.23,17l-.11-1.11-.67-1.47.4,0,.41,1h0l.19-1.08.4,0-.36,1.57L14.61,17Z"/><path class="cls-1" d="M15,15l0-.22a.56.56,0,0,1,0-.22.5.5,0,0,1,.1-.19.58.58,0,0,1,.17-.14.51.51,0,0,1,.22-.06.52.52,0,0,1,.25,0,.46.46,0,0,1,.2.13l.07.09a.41.41,0,0,1,0,.09,1.2,1.2,0,0,1,.05.26c0,.06,0,.12,0,.16v.12s0,.06,0,.08,0,0,0,.07l-.22.46,0,.09a.38.38,0,0,0,0,.1l0,.3-.38,0,0-.35a.38.38,0,0,1,0-.15.75.75,0,0,1,0-.16l.2-.4a.23.23,0,0,0,0-.11v-.11l0-.2a.24.24,0,0,0-.07-.13.21.21,0,0,0-.14,0l-.12.06a.17.17,0,0,0-.05.15l0,.21Zm.56,1.84,0-.38.38,0,0,.38Z"/></g></g></svg>