<svg xmlns="http://www.w3.org/2000/svg" viewBox="0 0 81.5 48.06"><defs><style>.cls-1{fill:#0a7332;}.cls-2{fill:#9ad4e1;}.cls-3{fill:#f9b91a;}.cls-4{fill:#ee7349;}.cls-5,.cls-7{fill:#22234a;}.cls-6,.cls-9{fill:none;}.cls-6,.cls-7{stroke:#22234a;}.cls-6,.cls-7,.cls-9{stroke-linecap:round;stroke-linejoin:round;stroke-width:0.4px;}.cls-8{fill:#e33b17;}.cls-9{stroke:#f8cde2;}</style></defs><g id="Layer_2" data-name="Layer 2"><g id="Layer_1-2" data-name="Layer 1"><path class="cls-1" d="M28.76,41.29,31.7,45.9a3.27,3.27,0,0,0,2.76,1.51h15.7l2-7.48"/><path class="cls-2" d="M33.76,45.59a18.86,18.86,0,0,0,2.71,0,28.71,28.71,0,0,1,3.08,0,11.94,11.94,0,0,0,1.69,0,4.61,4.61,0,0,1,0-1c0-.51.06-1,.05-1.51s0-1.27-.08-1.9c0-.18,0-.35-.05-.52l-12.39.72,2.82,4.41A8.84,8.84,0,0,1,33.76,45.59Z"/><path class="cls-3" d="M65.07,5.2l12.23-3a1.91,1.91,0,0,1,2.35,2l-1,9.72"/><path class="cls-3" d="M65.07,36.47l12.23,3a1.91,1.91,0,0,0,2.35-2l-1-9.72"/><path class="cls-4" d="M74.5,7.64a38.79,38.79,0,0,0-4.17-2.23,15.08,15.08,0,0,0-2.85-.79l-2.41.58L78.67,14l.31-3.1A43.22,43.22,0,0,0,74.5,7.64Z"/><path class="cls-4" d="M70,36.16A20.57,20.57,0,0,0,73.92,34a30.82,30.82,0,0,0,5-3.67l-.26-2.63-13.6,8.78,2.17.53A20.4,20.4,0,0,0,70,36.16Z"/><path class="cls-3" d="M81.3,20.83c0,11.39-20.93,20.63-46.76,20.63S.2,32.22.2,20.83,8.71.2,34.54.2,81.3,9.44,81.3,20.83Z"/><path class="cls-2" d="M55.05,44.17a.94.94,0,0,1-1,.89c-.54,0-.67-.4-.67-.89s.13-.9.67-.9A.94.94,0,0,1,55.05,44.17Z"/><path class="cls-5" d="M53.42,44s-1.31-3.72.2-3.69-.2,3.69-.2,3.69H51.3"/><path class="cls-5" d="M53.42,44.17s1.66,3.67.2,3.69-.2-3.69-.2-3.69"/><path class="cls-6" d="M81.3,20.83c0,11.39-20.93,20.63-46.76,20.63S.2,32.22.2,20.83,8.71.2,34.54.2,81.3,9.44,81.3,20.83Z"/><path class="cls-6" d="M65.07,5.2l12.23-3a1.91,1.91,0,0,1,2.35,2l-1,9.72"/><path class="cls-6" d="M65.07,36.47l12.23,3a1.91,1.91,0,0,0,2.35-2l-1-9.72"/><path class="cls-6" d="M28.76,41.29,31.7,45.9a3.27,3.27,0,0,0,2.76,1.51h15.7l2-7.48"/><path class="cls-7" d="M55.05,44.17a.94.94,0,0,1-1,.89c-.54,0-.67-.4-.67-.89s.13-.9.67-.9A.94.94,0,0,1,55.05,44.17Z"/><path class="cls-6" d="M53.42,44s-1.31-3.72.2-3.69-.2,3.69-.2,3.69H51.3"/><path class="cls-6" d="M53.42,44.17s1.66,3.67.2,3.69-.2-3.69-.2-3.69"/><polyline class="cls-6" points="41.22 41.25 41.22 45.58 31.59 45.58"/><path class="cls-8" d="M24.43,10.07l-2.38.08a1.46,1.46,0,0,0-1.17.77c-1.21,2.2-2.31,4.39-3.24,6.56a29.85,29.85,0,0,1-1.15-6.4.69.69,0,0,0-.78-.67l-2.36.12a1.77,1.77,0,0,0-1.43,1.1,26.16,26.16,0,0,0,0,17.12,1.76,1.76,0,0,0,1.43,1.11l2.46.12a.73.73,0,0,0,.74-1,34.82,34.82,0,0,1-.85-4.08c.21.43.42.86.64,1.29a1.45,1.45,0,0,0,1.18.78l1.27,0a.88.88,0,0,0,.92-.72c.08-.45.18-.91.28-1.36a41,41,0,0,0,.69,4.21A1.49,1.49,0,0,0,22,30.24l2.46.08a.87.87,0,0,0,.87-1.08,59,59,0,0,1,0-18.09A.87.87,0,0,0,24.43,10.07Z"/><path class="cls-8" d="M36.16,9.88l-2.6,0a1.18,1.18,0,0,0-1.07.82c-.41,1.22-.83,2.44-1.23,3.66-.29-1.21-.55-2.43-.77-3.64a.93.93,0,0,0-.93-.79L27,10a1.34,1.34,0,0,0-1.22,1.5,68.27,68.27,0,0,0,3,10.29c0,2.51.2,5,.47,7.52a1.26,1.26,0,0,0,1.17,1.14l2.46,0a1,1,0,0,0,1-1.11q-.18-3.8-.21-7.57c1.15-3.47,2.42-7,3.57-10.43a1.18,1.18,0,0,0-.13-1A1,1,0,0,0,36.16,9.88Z"/><path class="cls-8" d="M47.86,13.76A5.91,5.91,0,0,0,46.5,11.6a5.46,5.46,0,0,0-2-1.33,6.69,6.69,0,0,0-2.16-.37l-3.68,0a1.09,1.09,0,0,0-1,1.12q0,9.2,0,18.38a1.09,1.09,0,0,0,1,1.13h2.45a1.2,1.2,0,0,0,1.12-1.14q.16-3,.23-6h.21a6,6,0,0,0,2.92-.65,5.07,5.07,0,0,0,1.89-1.79,5.13,5.13,0,0,0,.75-2,12.08,12.08,0,0,0,.08-2.25A10.8,10.8,0,0,0,47.86,13.76Zm-4.23,3.29a2.22,2.22,0,0,1-.06.44c0,.06,0,.11,0,.17a.71.71,0,0,1-.17.77.9.9,0,0,1-.6.25.41.41,0,0,1-.41-.31.43.43,0,0,1,0-.05.19.19,0,0,1,0-.07c-.07-.72-.06-1.45-.06-2.18a2.69,2.69,0,0,1,0-.85v0a.05.05,0,0,1,0,0,.41.41,0,0,1,.28-.52.61.61,0,0,1,.3,0,.47.47,0,0,1,.3.12,1,1,0,0,1,.23.23,1.79,1.79,0,0,1,.23.72,4.17,4.17,0,0,1,.06.71A4.87,4.87,0,0,1,43.63,17.05Z"/><path class="cls-8" d="M51.67,10.09,49.21,10a.9.9,0,0,0-.89,1.09,70,70,0,0,1,0,18.17.89.89,0,0,0,.89,1.08l2.46-.07a1.42,1.42,0,0,0,1.27-1.13,47.48,47.48,0,0,0,0-17.94A1.44,1.44,0,0,0,51.67,10.09Z"/><path class="cls-8" d="M63.26,15a.8.8,0,0,0,.87-1c-.19-.77-.42-1.54-.68-2.31A1.75,1.75,0,0,0,62,10.53c-2.44-.13-4.89-.24-7.33-.33a.8.8,0,0,0-.81,1.05,44.49,44.49,0,0,1,0,17.88.81.81,0,0,0,.81,1.06c2.44-.09,4.89-.2,7.33-.33a1.75,1.75,0,0,0,1.42-1.11c.28-.81.51-1.63.71-2.45a.81.81,0,0,0-.87-1l-4,.1c.16-1,.27-2,.34-3l3.41,0a1.18,1.18,0,0,0,1.18-1.06c0-.77,0-1.55,0-2.32A1.19,1.19,0,0,0,63,17.9l-3.41,0c-.07-1-.19-2-.35-3Z"/><path class="cls-6" d="M24.43,10.07l-2.38.08a1.46,1.46,0,0,0-1.17.77c-1.21,2.2-2.31,4.39-3.24,6.56a29.85,29.85,0,0,1-1.15-6.4.69.69,0,0,0-.78-.67l-2.36.12a1.77,1.77,0,0,0-1.43,1.1,26.16,26.16,0,0,0,0,17.12,1.76,1.76,0,0,0,1.43,1.11l2.46.12a.73.73,0,0,0,.74-1,34.82,34.82,0,0,1-.85-4.08c.21.43.42.86.64,1.29a1.45,1.45,0,0,0,1.18.78l1.27,0a.88.88,0,0,0,.92-.72c.08-.45.18-.91.28-1.36a41,41,0,0,0,.69,4.21A1.49,1.49,0,0,0,22,30.24l2.46.08a.87.87,0,0,0,.87-1.08,59,59,0,0,1,0-18.09A.87.87,0,0,0,24.43,10.07Z"/><path class="cls-6" d="M36.16,9.88l-2.6,0a1.18,1.18,0,0,0-1.07.82c-.41,1.22-.83,2.44-1.23,3.66-.29-1.21-.55-2.43-.77-3.64a.93.93,0,0,0-.93-.79L27,10a1.34,1.34,0,0,0-1.22,1.5,68.27,68.27,0,0,0,3,10.29c0,2.51.2,5,.47,7.52a1.26,1.26,0,0,0,1.17,1.14l2.46,0a1,1,0,0,0,1-1.11q-.18-3.8-.21-7.57c1.15-3.47,2.42-7,3.57-10.43a1.18,1.18,0,0,0-.13-1A1,1,0,0,0,36.16,9.88Z"/><path class="cls-6" d="M46.5,11.6a5.46,5.46,0,0,0-2-1.33,6.69,6.69,0,0,0-2.16-.37l-3.68,0a1.09,1.09,0,0,0-1,1.12q0,9.2,0,18.38a1.09,1.09,0,0,0,1,1.13h2.45a1.2,1.2,0,0,0,1.12-1.14q.16-3,.23-6h.21a6,6,0,0,0,2.92-.65,5.07,5.07,0,0,0,1.89-1.79,5.13,5.13,0,0,0,.75-2,12.08,12.08,0,0,0,.08-2.25,10.8,10.8,0,0,0-.48-2.88A5.91,5.91,0,0,0,46.5,11.6Z"/><path class="cls-6" d="M51.67,10.09,49.21,10a.9.9,0,0,0-.89,1.09,70,70,0,0,1,0,18.17.89.89,0,0,0,.89,1.08l2.46-.07a1.42,1.42,0,0,0,1.27-1.13,47.48,47.48,0,0,0,0-17.94A1.44,1.44,0,0,0,51.67,10.09Z"/><path class="cls-6" d="M63.26,15a.8.8,0,0,0,.87-1c-.19-.77-.42-1.54-.68-2.31A1.75,1.75,0,0,0,62,10.53c-2.44-.13-4.89-.24-7.33-.33a.8.8,0,0,0-.81,1.05,44.49,44.49,0,0,1,0,17.88.81.81,0,0,0,.81,1.06c2.44-.09,4.89-.2,7.33-.33a1.75,1.75,0,0,0,1.42-1.11c.28-.81.51-1.63.71-2.45a.81.81,0,0,0-.87-1l-4,.1c.16-1,.27-2,.34-3l3.41,0a1.18,1.18,0,0,0,1.18-1.06c0-.77,0-1.55,0-2.32A1.19,1.19,0,0,0,63,17.9l-3.41,0c-.07-1-.19-2-.35-3Z"/><path class="cls-4" d="M24.33,29.79l-2.47-.07a.69.69,0,0,1-.6-.53,43.88,43.88,0,0,1-.92-7.86,39.22,39.22,0,0,0-1.21,4.8.4.4,0,0,1-.43.33l-1.28,0a.64.64,0,0,1-.54-.35,50,50,0,0,1-2.1-4.75A32.93,32.93,0,0,0,16,29a.33.33,0,0,1-.34.47l-2.48-.11a.81.81,0,0,1-.65-.52,26.77,26.77,0,0,1,0-17.17.79.79,0,0,1,.66-.51L15.51,11a.34.34,0,0,1,.37.32,30.76,30.76,0,0,0,1.67,8,69.33,69.33,0,0,1,3.82-8.16.66.66,0,0,1,.53-.36l2.41-.07a.41.41,0,0,1,.41.5,56.12,56.12,0,0,0,0,18.06A.41.41,0,0,1,24.33,29.79Zm-2.18-1.08,1.51,0a52.3,52.3,0,0,1,0-17l-1.58,0a66.06,66.06,0,0,0-4,9.14.5.5,0,0,1-.49.33.6.6,0,0,1-.55-.34,31.65,31.65,0,0,1-2.15-8.89l-1.57.06a28.16,28.16,0,0,0,0,16.29l1.52.06a30.22,30.22,0,0,1-1.1-10.09.57.57,0,0,1,.55-.5.56.56,0,0,1,.53.34,44.28,44.28,0,0,0,2.78,7.23h.55a43,43,0,0,1,2.17-7.28.57.57,0,0,1,.51-.36.53.53,0,0,1,.54.51A46.64,46.64,0,0,0,22.15,28.71Z"/><path class="cls-4" d="M32.75,30l-2.47,0a.6.6,0,0,1-.55-.53c-.25-2.54-.39-5.09-.44-7.63a70.65,70.65,0,0,1-3-10.4.59.59,0,0,1,.13-.47.55.55,0,0,1,.43-.22l2.63-.05a.42.42,0,0,1,.43.36c.34,1.87.77,3.75,1.25,5.62.6-1.88,1.23-3.77,1.86-5.65a.52.52,0,0,1,.49-.38l2.63,0a.47.47,0,0,1,.39.22.52.52,0,0,1,.06.47c-1.18,3.51-2.47,7-3.64,10.52q0,3.84.25,7.67A.47.47,0,0,1,32.75,30Zm-2.07-1.06h1.51q-.22-3.62-.27-7.22a.47.47,0,0,1,0-.17c1.09-3.3,2.32-6.6,3.48-9.91H33.84c-.74,2.31-1.49,4.61-2.18,6.92a.54.54,0,0,1-.51.37.59.59,0,0,1-.55-.37c-.63-2.3-1.18-4.59-1.59-6.87l-1.59,0A79,79,0,0,0,30.3,21.5a.55.55,0,0,1,0,.17C30.37,24.08,30.48,26.48,30.68,28.89Z"/><path class="cls-4" d="M41.17,30H38.69a.5.5,0,0,1-.48-.52q.06-9.19,0-18.38a.5.5,0,0,1,.49-.52l3.71,0a6.14,6.14,0,0,1,2,.33,4.93,4.93,0,0,1,1.73,1.16A5.19,5.19,0,0,1,47.31,14a10.72,10.72,0,0,1,.44,2.74,11.78,11.78,0,0,1-.09,2.15A4.47,4.47,0,0,1,47,20.64a4.42,4.42,0,0,1-1.66,1.58,5.51,5.51,0,0,1-2.63.57H41.9c0,2.22-.11,4.43-.21,6.65A.55.55,0,0,1,41.17,30Zm-2-1h1.52q.11-3.32.14-6.65a.52.52,0,0,1,.53-.52h1.34a4.4,4.4,0,0,0,2.12-.44,3.48,3.48,0,0,0,1.26-1.21,3.77,3.77,0,0,0,.52-1.41,10.91,10.91,0,0,0,.08-2,9.21,9.21,0,0,0-.37-2.47,3.78,3.78,0,0,0-.89-1.47,3.45,3.45,0,0,0-1.3-.88,5.28,5.28,0,0,0-1.68-.27l-3.26,0Q39.36,20.26,39.2,28.93Zm3.46-8.61H41.39a.52.52,0,0,1-.52-.52q0-3.12-.09-6.24a.49.49,0,0,1,.49-.52H42.6a3,3,0,0,1,1.41.31,2.22,2.22,0,0,1,.86.91,3.1,3.1,0,0,1,.34,1.21c0,.4.06.81.08,1.25s0,.9,0,1.29A2.72,2.72,0,0,1,45,19.17a2,2,0,0,1-.86.86A3.27,3.27,0,0,1,42.66,20.32Zm-.75-1h.74a2.31,2.31,0,0,0,1-.17,1,1,0,0,0,.42-.42,1.8,1.8,0,0,0,.17-.75c0-.37,0-.78,0-1.23s0-.82-.06-1.2A2.19,2.19,0,0,0,44,14.7a1,1,0,0,0-.41-.44,1.84,1.84,0,0,0-.92-.17h-.83C41.87,15.81,41.9,17.54,41.91,19.28Z"/><path class="cls-6" d="M42.36,18.74h.43a.94.94,0,0,0,.57-.14.66.66,0,0,0,.24-.34,2,2,0,0,0,.1-.61q0-.43,0-1c0-.34,0-.66-.05-1a2.51,2.51,0,0,0-.12-.66.8.8,0,0,0-.25-.36.85.85,0,0,0-.53-.13h-.48C42.32,15.94,42.34,17.34,42.36,18.74Z"/><path class="cls-4" d="M51.77,29.77l-2.47.06a.41.41,0,0,1-.42-.5,66,66,0,0,0,0-18.14.42.42,0,0,1,.42-.51l2.48.07a.65.65,0,0,1,.58.52,49.56,49.56,0,0,1,0,18A.66.66,0,0,1,51.77,29.77Zm-1.83-1,1.52,0a53.56,53.56,0,0,0,0-17l-1.52,0A60,60,0,0,1,49.94,28.8Z"/><path class="cls-4" d="M62.2,29.36c-2.46.12-4.91.23-7.37.31a.37.37,0,0,1-.38-.49,42.74,42.74,0,0,0,0-17.84.38.38,0,0,1,.39-.49c2.46.08,4.92.19,7.39.31a.78.78,0,0,1,.65.51c.25.77.47,1.54.66,2.32a.37.37,0,0,1-.4.47l-4.59-.13A34.78,34.78,0,0,1,59,18.5l4,0a.54.54,0,0,1,.55.49c0,.78,0,1.55,0,2.33a.54.54,0,0,1-.55.49l-4,0A34.75,34.75,0,0,1,58.58,26l4.58-.13a.37.37,0,0,1,.4.47c-.2.82-.43,1.64-.7,2.46A.82.82,0,0,1,62.2,29.36Zm-6.65-.72c2.15-.06,4.31-.15,6.47-.24.15-.5.29-1,.41-1.49l-4.54.14a.4.4,0,0,1-.42-.49A36.57,36.57,0,0,0,58,21.37a.52.52,0,0,1,.53-.5h4q0-.67,0-1.35h-4A.52.52,0,0,1,58,19a36.57,36.57,0,0,0-.55-5.19.39.39,0,0,1,.41-.48l4.54.14q-.16-.68-.36-1.35-3.24-.13-6.49-.24A40,40,0,0,1,55.55,28.64Z"/><path class="cls-9" d="M18.46,25.83l-1.21,0a46.07,46.07,0,0,1-2.93-7.07A31.56,31.56,0,0,0,15.54,29L13,28.85A27.4,27.4,0,0,1,13,11.7c.09,0,2.43-.11,2.43-.11a31.8,31.8,0,0,0,2.15,8.9"/><path class="cls-9" d="M17.48,25.81l1.21,0a45.43,45.43,0,0,1,2.12-7.14,45.45,45.45,0,0,0,.89,10.5l2.52.07a54.2,54.2,0,0,1,0-18c-.07,0-2.42.07-2.42.07a70,70,0,0,0-4.24,9.13"/><path class="cls-9" d="M31.1,17.94c-.65-2.26-1.22-4.52-1.65-6.76l-2.67.05a72.26,72.26,0,0,0,3,10.41q0,3.87.41,7.74l1.25,0"/><path class="cls-9" d="M31.1,17.94c.74-2.26,1.52-4.53,2.3-6.81h2.66c-1.21,3.51-2.52,7-3.69,10.53q0,3.87.28,7.76H31.4"/><path class="cls-9" d="M38.63,11.12c1.54,0,3.08,0,4.62,0,0,0,3.65-.08,4,5.73.15,5.56-3.88,5.44-3.83,5.43h-2c0,2.37-.1,4.75-.21,7.12H38.75Q38.81,20.28,38.63,11.12Z"/><path class="cls-9" d="M41.4,17.14c0-1.19,0-2.38-.08-3.57h1.45c1.26,0,1.86.6,2,2.83,0,.17,0,.34,0,.51,0,2.23-.58,2.82-1.88,2.82h-1.5c0-.87,0-1.75,0-2.63"/><path class="cls-9" d="M49.44,11.24l2.4.06A51,51,0,0,1,52,29.24l-2.55.06A62.45,62.45,0,0,0,49.44,11.24Z"/><path class="cls-9" d="M54.93,11.38c2.47.08,4.93.18,7.4.29.25.77.46,1.54.64,2.31l-4.9-.15A35.19,35.19,0,0,1,58.63,19L63,19q0,1.11,0,2.22l-4.36,0a35.57,35.57,0,0,1-.56,5.23L63,26.37c-.19.83-.42,1.66-.68,2.49q-3.7.16-7.39.29A41.6,41.6,0,0,0,54.93,11.38Z"/></g></g></svg>