<svg xmlns="http://www.w3.org/2000/svg" viewBox="0 0 35.12 23.23"><defs><style>.cls-1{fill:#0071b9;}.cls-1,.cls-2{stroke:#22234a;}.cls-1,.cls-2,.cls-5,.cls-7,.cls-8{stroke-linecap:round;stroke-linejoin:round;}.cls-1,.cls-2,.cls-5,.cls-8{stroke-width:0.4px;}.cls-2,.cls-5,.cls-7,.cls-8{fill:none;}.cls-3{fill:#e33b17;}.cls-4{fill:#ee7349;}.cls-5{stroke:#f8cde2;}.cls-6{fill:#b56f26;}.cls-7{stroke:#f9b91a;}.cls-8{stroke:#fff;}</style></defs><g id="Layer_2" data-name="Layer 2"><g id="Layer_1-2" data-name="Layer 1"><polyline class="cls-1" points="34.44 0.2 34.92 22.96 0.2 23.03 0.27 0.28"/><line class="cls-2" x1="0.27" y1="0.27" x2="34.44" y2="0.2"/><path class="cls-3" d="M18,19.23a.81.81,0,0,1-.31.05l-10.07,0A.67.67,0,0,1,7,18.86L5.7,15.43A1.32,1.32,0,0,1,6.33,14c.52-.34,1.08-.23,1.25.25l1.09,3,9.59,0c.52,0,.82.47.66,1.05A1.46,1.46,0,0,1,18,19.23Z"/><path class="cls-3" d="M27.05,19.22a1.18,1.18,0,0,1-.31.05l-10.08,0c-.53,0-.82-.47-.67-1.05a1.44,1.44,0,0,1,1.24-1.06h9.18l.79-2.44a1.4,1.4,0,0,1,1.27-1c.52,0,.79.53.6,1.11L28,18.27A1.51,1.51,0,0,1,27.05,19.22Z"/><path class="cls-4" d="M18,18.83a.57.57,0,0,1-.18,0l-10.08,0a.4.4,0,0,1-.39-.26L6.07,15.19a.82.82,0,0,1,.38-.88.49.49,0,0,1,.76.15l1.15,3.16,9.78,0c.32,0,.5.28.4.63A.87.87,0,0,1,18,18.83Z"/><path class="cls-4" d="M27,18.82a.63.63,0,0,1-.19,0l-10.08,0c-.31,0-.49-.29-.39-.63a.85.85,0,0,1,.74-.64h9.54l.91-2.84a.86.86,0,0,1,.77-.59c.31,0,.47.31.35.66l-1.1,3.43A.92.92,0,0,1,27,18.82Z"/><polyline class="cls-5" points="6.64 14.83 7.89 18.25 17.97 18.23"/><polyline class="cls-5" points="28.13 14.79 27.02 18.22 16.95 18.23"/><path class="cls-6" d="M29.25,15.55a6.43,6.43,0,0,1-1.73.32A9.09,9.09,0,0,1,23,14.77a6.28,6.28,0,0,1-.58.31,5,5,0,0,1-4.9-.19,4.08,4.08,0,0,1-.33-.25l-.2.14a5.11,5.11,0,0,1-5,.36,6.54,6.54,0,0,1-.65-.35A9.11,9.11,0,0,1,6.7,15.91c-.2,0-4.48-.17-4.47-3.84A3.15,3.15,0,0,1,3.29,9.66a5,5,0,0,1,4.13-.79A8.21,8.21,0,0,1,9.3,6.61a11.71,11.71,0,0,1,7.85-2.52h.64c6.56,0,8.94,3.37,9.65,4.79,2-.42,4.84-.28,5,2.49a3.89,3.89,0,0,1-1,2.82A5,5,0,0,1,29.25,15.55ZM24.54,13a7.87,7.87,0,0,0,3.53.76A3.57,3.57,0,0,0,30.18,13a1.21,1.21,0,0,0,.25-.93c-.1-2-3.67-1-3.71-1a.7.7,0,0,1-.93-.44c-.06-.18-1.54-4.46-8.57-4.45h-.64C10,6.2,8.83,10,8.78,10.11a1.5,1.5,0,0,1-.59.81,1,1,0,0,1-.86.2c-1.3-.37-2.77-.32-3,0a.66.66,0,0,0-.06.36c0,2.21,3.05,2.33,3.09,2.33A7.73,7.73,0,0,0,10,13.34a4.18,4.18,0,0,1-.19-2A4.54,4.54,0,0,1,11.77,8a2,2,0,0,1,2.14-.2,2.58,2.58,0,0,1,.78,2.52,5.23,5.23,0,0,1-1.44,2.86,3.39,3.39,0,0,0,2.81,0,6.59,6.59,0,0,1-.68-2.64,2.7,2.7,0,0,1,.26-1.49,2.18,2.18,0,0,1,1.92-1.24h0a1.56,1.56,0,0,1,1.4.8,2.58,2.58,0,0,1,.25,1.27,7,7,0,0,1-.64,2.87l.29.23a3.16,3.16,0,0,0,2.39.42,4.23,4.23,0,0,1-1.31-4A2.53,2.53,0,0,1,21,7.9a1.94,1.94,0,0,1,2.14,0,3.94,3.94,0,0,1,1.65,2.72A4,4,0,0,1,24.54,13Zm-2.7-3.14a3.26,3.26,0,0,0,1,1.87l0-.15A2.57,2.57,0,0,0,21.84,9.87Zm-9.35-.16-.1,0A1.89,1.89,0,0,0,11.82,11a2.25,2.25,0,0,0,.1,1.13,2.65,2.65,0,0,0,.78-1.31,1.42,1.42,0,0,0-.15-1.1Z"/><path class="cls-7" d="M17.27,8.92a.86.86,0,0,1,.79.45,1.65,1.65,0,0,1,.15.85A4.58,4.58,0,0,1,16.57,14a4.16,4.16,0,0,1-4.05.19A3,3,0,0,1,11.14,13a2.87,2.87,0,0,1-.3-1.89,3.09,3.09,0,0,1,1.24-2.25,1.13,1.13,0,0,1,1.17-.11c.48.29,1.25,2.44-1.38,4.55A7.69,7.69,0,0,1,7,14.86s-3.78-.11-3.76-3.09,4.6-1.67,4.6-1.67,1.34-4.95,9-5h.63c7.7,0,9.24,4.93,9.24,4.93s4.54-1.33,4.68,1.65-3.64,3.1-3.64,3.1a8,8,0,0,1-4.94-1.51c-2.72-2.1-2-4.25-1.57-4.55a1.13,1.13,0,0,1,1.17.12,3.2,3.2,0,0,1,1.34,2.24A2.79,2.79,0,0,1,23.56,13a2.84,2.84,0,0,1-1.34,1.12,4.17,4.17,0,0,1-4-.17,4.78,4.78,0,0,1-1.8-3.74,1.58,1.58,0,0,1,.11-.84.83.83,0,0,1,.79-.46"/><path class="cls-8" d="M17.27,8.92a.86.86,0,0,1,.79.45,1.65,1.65,0,0,1,.15.85A4.58,4.58,0,0,1,16.57,14a4.16,4.16,0,0,1-4.05.19A3,3,0,0,1,11.14,13a2.87,2.87,0,0,1-.3-1.89,3.09,3.09,0,0,1,1.24-2.25,1.13,1.13,0,0,1,1.17-.11c.48.29,1.25,2.44-1.38,4.55A7.69,7.69,0,0,1,7,14.86s-3.78-.11-3.76-3.09,4.6-1.67,4.6-1.67,1.34-4.95,9-5h.63c7.7,0,9.24,4.93,9.24,4.93s4.54-1.33,4.68,1.65-3.64,3.1-3.64,3.1a8,8,0,0,1-4.94-1.51c-2.72-2.1-2-4.25-1.57-4.55a1.13,1.13,0,0,1,1.17.12,3.2,3.2,0,0,1,1.34,2.24A2.79,2.79,0,0,1,23.56,13a2.84,2.84,0,0,1-1.34,1.12,4.17,4.17,0,0,1-4-.17,4.78,4.78,0,0,1-1.8-3.74,1.58,1.58,0,0,1,.11-.84.83.83,0,0,1,.79-.46"/></g></g></svg>