<svg xmlns="http://www.w3.org/2000/svg" viewBox="0 0 78.59 58.9"><defs><style>.cls-1{fill:#e33b17;}.cls-2{fill:#9ad4e1;}.cls-3{fill:#0071b9;}.cls-4{fill:#fff;}.cls-5{fill:none;stroke-linecap:round;stroke-linejoin:round;stroke-width:0.4px;}.cls-5,.cls-7{stroke:#22234a;}.cls-6,.cls-7{fill:#22234a;}.cls-7{stroke-miterlimit:10;stroke-width:0.25px;}</style></defs><g id="Layer_2" data-name="Layer 2"><g id="Layer_1-2" data-name="Layer 1"><path class="cls-1" d="M78.39,9.54c-.08-1-.15-2.09-.23-3.14a9.84,9.84,0,0,0-.52-2.95A4.84,4.84,0,0,0,76,1.2,4.49,4.49,0,0,0,74.64.51a1.12,1.12,0,0,0-.44,0A5.73,5.73,0,0,0,72.14.26a1,1,0,0,0-.47.15C68.27.26,64.86.1,61.46.16c-4.25.06-8.47.2-12.72,0a.91.91,0,0,0-.63.19,47.15,47.15,0,0,0-7.6,2.21L32,5.44,15.08,11.15a1.07,1.07,0,0,0-.36.21A61.43,61.43,0,0,0,6.05,14a11.83,11.83,0,0,0-3.8,1.65A5.88,5.88,0,0,0,.44,19.38a1.15,1.15,0,0,0,.09.69s0,0,0,.05C.35,22.58.2,25.05.24,27.52v0L.3,29.32a2.1,2.1,0,0,0,.06.24A.91.91,0,0,0,.27,30c-.07,1.47.14,3-.05,4.43,0,0,0,.07,0,.1a2.38,2.38,0,0,0,0,.26,1.48,1.48,0,0,0,0,.93,1.17,1.17,0,0,0,.77.7,5,5,0,0,0,.66.09,5,5,0,0,0,.67,0,23.44,23.44,0,0,0,.11,5.23.42.42,0,0,0,0,.12q0,3-.17,6a1,1,0,0,0-.45.27l0,0-.18.22h0v0h0l-.1.25a0,0,0,0,0,0,0h0l0,.28h0v0h0l0,.28h0v0l.06.14c0,.36-.05.72-.06,1.06,0,1.44,0,2.89-.07,4.33a.52.52,0,0,0,.8.43,1.12,1.12,0,0,0,.22.09,2.07,2.07,0,0,0,.7,0c1.1,0,2.2-.1,3.3-.07a1.38,1.38,0,0,1,.5,0c.3.13.47.38.81.46a6.56,6.56,0,0,0,1.77-.05,36.49,36.49,0,0,1,3.77,0,3.43,3.43,0,0,0,2.36-.51,2.76,2.76,0,0,0,1.85.18,3.62,3.62,0,0,1,.76-.12,9.24,9.24,0,0,1,1.05.06,8.39,8.39,0,0,0,1.94,0,6.58,6.58,0,0,0,2.19-.69h0a1.07,1.07,0,0,0,1.05-1,6.86,6.86,0,0,1,3.43-5.95,5.13,5.13,0,0,1,3.82-.56,5.37,5.37,0,0,1,2.58,2.36c-.22.74.3,1.68,1.22,1.35C38.68,49.71,42,49,45.3,48s6.29-2.26,9.56-3a1,1,0,0,0,.68-.48l.54-.17a1.16,1.16,0,0,0,.37.07,1.08,1.08,0,0,0,1.07-1.06,7.88,7.88,0,0,1,.32-2.58,12.69,12.69,0,0,1,1.35-2.34c0-.06,0-.05.14-.11a3.71,3.71,0,0,0,.54-.33,10.37,10.37,0,0,1,1-.76,4.49,4.49,0,0,1,2.22-.53,1.4,1.4,0,0,0,.56-.2,5.47,5.47,0,0,1,.9.26c.15.07.31.14.45.22a3.12,3.12,0,0,0,.49.23,1.31,1.31,0,0,0,.38.06,6.86,6.86,0,0,1,1.59,3.1.55.55,0,0,0,.66.37,36.48,36.48,0,0,1,5.28-1.7A18.2,18.2,0,0,0,76,38.23a4.66,4.66,0,0,0,1.9-1.13.54.54,0,0,0-.37-.91c-.89,0-1.78,0-2.66.1a.5.5,0,0,0-.33.14.9.9,0,0,0-.53-.16l-1.58,0c-.18,0-.35,0-.53,0,0-.07,0-.14,0-.23a13.26,13.26,0,0,1,0-1.41c.05-.94.1-1.89.14-2.83a.69.69,0,0,0,0-.25,1,1,0,0,0,.13-.54Q72,29.22,72,27.34a23.66,23.66,0,0,1,0-3.67,2.79,2.79,0,0,1,1.81-1.91c.49-.24,1-.43,1.5-.63S76.56,21,77,20.62a1.2,1.2,0,0,0,1.19-1.26l.09-4.9c0-.78.1-1.57.08-2.36,0-.62-.1-1.24-.18-1.87A.9.9,0,0,0,78.39,9.54Z"/><path class="cls-2" d="M76.17,7.07s.57-6-6.68-4.28c0,0-.84.18-.85.72s-.12,6.15-.12,6.15,0,.29.35.17l6.86-2.32S76.17,7.36,76.17,7.07Z"/><path class="cls-2" d="M65.38,4.18c1.74-.59,1.71.56,1.71.56L67,9.65a1.31,1.31,0,0,1-1,1.14l-1.57.52-5.93,2c-.94.31-.92-.5-.92-.5l.12-4.89s0-1.14,1.77-1.73l5.76-1.95Z"/><path class="cls-2" d="M54.44,7.89c1.74-.59,1.71.55,1.71.55L56,13.33a1.29,1.29,0,0,1-1,1.12L53.47,15l-5.95,2c-.94.31-.92-.5-.92-.5l.16-4.86s0-1.13,1.78-1.71l5.78-1.94Z"/><path class="cls-2" d="M42.9,11.75c1.75-.58,1.7.55,1.7.55l-.16,4.86a1.3,1.3,0,0,1-1,1.11l-1.59.52-6,1.95c-.94.31-.91-.5-.91-.5l.19-4.82s.05-1.13,1.79-1.7l5.8-1.93Z"/><path class="cls-2" d="M43,31.32c1.76-.56,1.74.46,1.74.46l-.09,4.36s0,.72-1,1l-1.6.5-6,1.89c-1,.3-.94-.43-.94-.43l.11-4.33s0-1,1.79-1.57l5.86-1.86Z"/><path class="cls-2" d="M54.62,27.59c1.76-.57,1.74.45,1.74.45l-.06,4.39a1.2,1.2,0,0,1-1,1l-1.6.51-6,1.9c-1,.3-.94-.42-.94-.42l.08-4.37s0-1,1.78-1.58l5.85-1.87Z"/><path class="cls-2" d="M66.4,23.77c1.75-.57,1.74.45,1.74.45l0,4.42a1.19,1.19,0,0,1-1,1l-1.59.51-6,1.92c-1,.31-.94-.42-.94-.42l.06-4.4s0-1,1.77-1.59l5.82-1.89Z"/><path class="cls-2" d="M31.89,15.39c1.75-.57,1.7.55,1.7.55l-.19,4.83a1.32,1.32,0,0,1-1,1.11l-1.59.51-6,1.93c-.95.3-.91-.49-.91-.49l.22-4.8s.05-1.12,1.8-1.69l5.82-1.91Z"/><rect class="cls-2" x="4.07" y="36.58" width="7.9" height="9.2" rx="1.11"/><rect class="cls-2" x="2.19" y="18.32" width="17.71" height="6.28" rx="1.24"/><path class="cls-2" d="M32.12,34.09a.5.5,0,0,0,0-.21A.38.38,0,0,0,32,33.7a.4.4,0,0,0-.15-.14.55.55,0,0,0-.41-.06.63.63,0,0,0-.24.16l-.07,0-.06.06a1.13,1.13,0,0,0-.55,0,5.41,5.41,0,0,0-1.46.52l-.31.15-.12.05-.65.23c-.21.06-.42.12-.63.16L27,34.9l-.12,0c.06,0,.12,0,0,0a1.34,1.34,0,0,0-1.19.8A1.28,1.28,0,0,0,26,37.1h0a3.94,3.94,0,0,0-.15,1.6.83.83,0,0,0,.57.78,2.74,2.74,0,0,0,1,0c.38,0,.76-.08,1.14-.13l.57.08a2.77,2.77,0,0,0,.5,0,1.45,1.45,0,0,0,.79.12.68.68,0,0,0,.32-.13l.58.14a.54.54,0,0,0,.68-.52c0-.9,0-1.81,0-2.72L32.16,35A2.53,2.53,0,0,0,32.12,34.09Z"/><path class="cls-2" d="M26.92,34.92h0Z"/><path class="cls-2" d="M23.3,36.66a.53.53,0,0,0-.8-.46,2.22,2.22,0,0,1-1.38.36c-.61,0-1.21,0-1.82-.07a15.12,15.12,0,0,0-1.78,0,3.62,3.62,0,0,1-1.67-.15.54.54,0,0,0-.68.52l.06.44a1,1,0,0,0,0,.18c0,.28,0,.55,0,.82,0,.69,0,1.38,0,2.06,0,.5,0,1,0,1.48a1.36,1.36,0,0,0,.23,1,5.35,5.35,0,0,1-.25,1.24c-.18.55.52.85.89.52a14.69,14.69,0,0,1,2.4-1.55,12,12,0,0,0,2.29-1.65l.09-.07a1.29,1.29,0,0,0,.46-.14,8,8,0,0,0,1.29-.78h0a1.34,1.34,0,0,0,.22-.16.83.83,0,0,0,.22-.34.75.75,0,0,0,.09-.41l0-.24c0-.31,0-.63,0-.89Z"/><path class="cls-3" d="M14.53,49.26a.7.7,0,0,0-.39-.33c-.2-.06-.4,0-.6,0a3.69,3.69,0,0,0-1.1-.13c-.44,0-.87.11-1.31.12-.81,0-1.62-.09-2.43,0a1.72,1.72,0,0,0-1.13.31,1.4,1.4,0,0,0-.23.51,2.73,2.73,0,0,0-.07.7,28.67,28.67,0,0,0,0,2.93,2.65,2.65,0,0,0,.25,1.24.63.63,0,0,0,.75.31.57.57,0,0,0,.57.19,14.08,14.08,0,0,1,2.59-.15c.4,0,.79,0,1.19.08a3.68,3.68,0,0,0,1.28.05c.85-.21.74-1.41.78-2.08.06-.83.11-1.67.11-2.5A2.2,2.2,0,0,0,14.53,49.26Z"/><path class="cls-2" d="M15.66,50.28c0-1,.14-2.13-1-2.44a5,5,0,0,0-.86-.07,9,9,0,0,1-.91-.09,7.53,7.53,0,0,0-1.84.1,7.4,7.4,0,0,1-1.88,0,5,5,0,0,0-1.81,0A.46.46,0,0,0,7,48.1a1.48,1.48,0,0,0-.62.83,3.78,3.78,0,0,0,0,.75,6.83,6.83,0,0,1-.11.79,19.87,19.87,0,0,0,0,3.45,3,3,0,0,0,.3,1.36A1.5,1.5,0,0,0,7.78,56c1.08.15,2.15-.09,3.23,0a10.52,10.52,0,0,0,3.12,0,2.33,2.33,0,0,0,1.27-.63,2.88,2.88,0,0,0,.31-1.57C15.76,52.57,15.69,51.42,15.66,50.28Zm-1,3.91c0,.25,0,.41-.24.52a5.1,5.1,0,0,1-2.33.24,14.92,14.92,0,0,0-2.59,0,8.29,8.29,0,0,1-1.22,0,1.78,1.78,0,0,1-.7-.1c-.15-.08-.19-.33-.22-.5a10.19,10.19,0,0,1-.06-1.46c0-.54,0-1.07,0-1.6s.08-.87.13-1.31c0-.23,0-.47,0-.7s.13-.27.29-.38l.06-.06a20.74,20.74,0,0,1,2.48.1,18.12,18.12,0,0,1,2.55-.19c.4,0,.8.09,1.21.1.13,0,.44,0,.54.11s0,.47,0,.6c0,.89,0,1.79.07,2.68,0,.44,0,.87,0,1.31C14.65,53.76,14.64,54,14.62,54.19Z"/><path class="cls-4" d="M34.08,31.12s-.1-3.17-3.81-2l-5.5,1.75c-.7.21-.69.25-.66-.34l.11-2.84s0-.2.32-.31L75.25,10.76s.42-.18.42.26-.06,6.81-.06,6.81a.66.66,0,0,1-.46.59L34.51,31.59S34.06,31.75,34.08,31.12Z"/><polygon class="cls-2" points="75.06 21.24 74.14 21.55 74.19 36.52 75.09 36.45 75.06 21.24"/><path class="cls-3" d="M11.4,56.51a1.56,1.56,0,0,0,.33-.59h-.11a9.39,9.39,0,0,0-1.06,0c-.76,0-1.51.05-2.26.09a2.17,2.17,0,0,1-1.77-.49A7,7,0,0,0,7.7,57.52h0c.26.4.58,1,1.07,1.1a2.4,2.4,0,0,0,2.62-1.74s-.1-.29-.08-.34Z"/><path class="cls-5" d="M11.78,56c-.54,1.64-1.47,2.72-2.53,2.72S7.1,57.42,6.59,55.55"/><path class="cls-5" d="M4.26,55.55c.51,2.1,1.55,3.15,2.46,3.15H9.15"/><path class="cls-6" d="M8.16,58.18l-.05-.13A.52.52,0,0,0,8,58v0H8l0,0H8l0,0s0,0,0,0a.5.5,0,0,0-.15-.14.38.38,0,0,0-.1,0h0l-.17-.16a3.34,3.34,0,0,1-.32-.33.48.48,0,0,0-.11-.09,3.52,3.52,0,0,0-.18-.4,7.65,7.65,0,0,1-.36-1.24H6.47c-.29,0-.59,0-.89,0s-.85,0-1.28,0a.42.42,0,0,1,0,.1c.07.21.15.42.23.62s.17.46.25.68a3.89,3.89,0,0,0,.29.66,2.5,2.5,0,0,0,1,.83,3,3,0,0,0,.64.26,1.4,1.4,0,0,0,.28.06l.2,0h0l.06,0,0,0h0s.06,0,.1.06h0a.5.5,0,0,0,.21,0,.48.48,0,0,0,.2-.07L8,58.7a.36.36,0,0,0,.11-.17.23.23,0,0,0,0-.14A.38.38,0,0,0,8.16,58.18Z"/><path class="cls-3" d="M31.94,51.08a.46.46,0,0,0-.07-.14,9.77,9.77,0,0,0-.78-2.44c-.39-.9-.81-1.52-1.85-1.44a2.78,2.78,0,0,0-2.45,1.88c-.11.46-.13,1-.2,1.35s-.21,1-.3,1.43a7,7,0,0,0-.12,1.37.58.58,0,0,0-.14.37,6.86,6.86,0,0,0,1.58,4.06h0c.26.4.59,1,1.07,1.09a2.39,2.39,0,0,0,2.63-1.73s-.11-.29-.09-.34l.07,0a1.89,1.89,0,0,0,.41-.81c.1-.29.2-.58.28-.87A8.19,8.19,0,0,0,31.94,51.08Z"/><path class="cls-2" d="M30.29,52.43a3.08,3.08,0,0,0-.49-1.62.67.67,0,0,0-.37-.29s0,0-.05,0a.65.65,0,0,0-.51-.08c-.45.13-.54.62-.67,1a3.44,3.44,0,0,0-.21.95,2.73,2.73,0,0,0,.21,1l.35.9a.64.64,0,0,0,.77.44.79.79,0,0,0,.32-.23.49.49,0,0,0,.27-.15.83.83,0,0,0,.2-.47,1.7,1.7,0,0,0,0-.22v-.09A3,3,0,0,0,30.29,52.43Z"/><ellipse class="cls-5" cx="29.17" cy="52.62" rx="1.19" ry="2.35"/><path class="cls-5" d="M30.06,47c1.23.76,2.12,3,2.12,5.7,0,3.29-1.35,6-3,6s-3-2.68-3-6A9,9,0,0,1,27.3,48"/><path class="cls-5" d="M24,54.71c.41,2.66,1.59,4,2.62,4h2.43"/><path class="cls-3" d="M64.81,40.91a.46.46,0,0,0-.07-.14A9.77,9.77,0,0,0,64,38.33a2.2,2.2,0,0,0-2.16-1.54,2.48,2.48,0,0,0-2.14,2c-.11.46-.13,1-.2,1.35s-.21,1-.3,1.43A7,7,0,0,0,59,42.92a.58.58,0,0,0-.14.37,6.86,6.86,0,0,0,1.58,4.06h0c.26.4.65,1,1.13,1.11,1.2.32,2.06-.9,2.43-1.93,0,0,0-.11,0-.16l.07,0a1.89,1.89,0,0,0,.41-.81c.1-.29.2-.58.28-.87A8.19,8.19,0,0,0,64.81,40.91Z"/><path class="cls-2" d="M63.16,42.26a3.08,3.08,0,0,0-.49-1.62.67.67,0,0,0-.37-.29h0a.65.65,0,0,0-.51-.08c-.45.13-.54.62-.67,1a3.44,3.44,0,0,0-.21.95,2.63,2.63,0,0,0,.21,1c.12.31.23.61.35.91a.64.64,0,0,0,.77.44.79.79,0,0,0,.32-.23.49.49,0,0,0,.27-.15.83.83,0,0,0,.2-.47,1.7,1.7,0,0,0,0-.22v-.09A3,3,0,0,0,63.16,42.26Z"/><ellipse class="cls-5" cx="62.04" cy="42.45" rx="1.19" ry="2.35"/><path class="cls-5" d="M62.54,36.68c1.43.47,2.51,2.93,2.51,5.88,0,3.29-1.35,6-3,6s-3-2.67-3-6a8.76,8.76,0,0,1,1.28-4.89"/><path class="cls-5" d="M56.87,44.47c.39,2.71,1.6,4.05,2.63,4.05h2.43"/><path class="cls-5" d="M75.91,38.44c2.35-.74,2.33-2.23,2.33-2.23l-5,1.6c-1.32.41-1.32-.49-1.32-.49l0-13.48c0-1.69,2.2-2.29,2.2-2.29l3.31-1.09c.88-.3.83-.9.83-.9"/><path class="cls-5" d="M78.28,19.56s0-7,.11-12.42c.06-4.82-2.68-6.26-3.24-6.5l-.09,0s-2.91-1.23-8.28.62S44.92,8.64,44.92,8.64L25.71,15s-3.7,1-3.95,6L21.12,35.8s0,.88.73.65l9.78-3.07s.52-.2.5.17v7.08"/><line class="cls-5" x1="13.85" y1="36.45" x2="21.92" y2="36.45"/><path class="cls-5" d="M72.05.2H48.52A11.48,11.48,0,0,0,44.66,1c-5.31,1.84-21.6,7.41-21.6,7.41l-19,6.38s-3.65,1-3.73,6L.2,35.54s0,.94.82.91H2.18"/><path class="cls-5" d="M76.17,7.07s.57-6-6.68-4.28c0,0-.84.18-.85.72s-.12,6.15-.12,6.15,0,.29.35.17l6.86-2.32S76.17,7.36,76.17,7.07Z"/><path class="cls-5" d="M65.38,4.18c1.74-.59,1.71.56,1.71.56L67,9.65a1.31,1.31,0,0,1-1,1.14l-1.57.52-5.93,2c-.94.31-.92-.5-.92-.5l.12-4.89s0-1.14,1.77-1.73l5.76-1.95Z"/><path class="cls-5" d="M54.44,7.89c1.74-.59,1.71.55,1.71.55L56,13.33a1.29,1.29,0,0,1-1,1.12L53.47,15l-5.95,2c-.94.31-.92-.5-.92-.5l.16-4.86s0-1.13,1.78-1.71l5.78-1.94Z"/><path class="cls-5" d="M42.9,11.75c1.75-.58,1.7.55,1.7.55l-.16,4.86a1.3,1.3,0,0,1-1,1.11l-1.59.52-6,1.95c-.94.31-.91-.5-.91-.5l.19-4.82s.05-1.13,1.79-1.7l5.8-1.93Z"/><path class="cls-5" d="M43,31.32c1.76-.56,1.74.46,1.74.46l-.09,4.36s0,.72-1,1l-1.6.5-6,1.89c-1,.3-.94-.43-.94-.43l.11-4.33s0-1,1.79-1.57l5.86-1.86Z"/><path class="cls-5" d="M54.62,27.59c1.76-.57,1.74.45,1.74.45l-.06,4.39a1.2,1.2,0,0,1-1,1l-1.6.51-6,1.9c-1,.3-.94-.42-.94-.42l.08-4.37s0-1,1.78-1.58l5.85-1.87Z"/><path class="cls-5" d="M66.4,23.77c1.75-.57,1.74.45,1.74.45l0,4.42a1.19,1.19,0,0,1-1,1l-1.59.51-6,1.92c-1,.31-.94-.42-.94-.42l.06-4.4s0-1,1.77-1.59l5.82-1.89Z"/><path class="cls-5" d="M31.89,15.39c1.75-.57,1.7.55,1.7.55l-.19,4.83a1.32,1.32,0,0,1-1,1.11l-1.59.51-6,1.93c-.95.3-.91-.49-.91-.49l.22-4.8s.05-1.12,1.8-1.69l5.82-1.91Z"/><path class="cls-5" d="M34.08,31.12s-.1-3.17-3.81-2l-5.5,1.75c-.7.21-.69.25-.66-.34l.11-2.84s0-.2.32-.31L75.25,10.76s.42-.18.42.26-.06,6.81-.06,6.81a.66.66,0,0,1-.46.59L34.51,31.59S34.06,31.75,34.08,31.12Z"/><path class="cls-5" d="M30,46.93a3.92,3.92,0,0,0-1,.19A7.42,7.42,0,0,0,24.32,54v.47l-2.73,1"/><path class="cls-5" d="M34.75,51.21A4.5,4.5,0,0,0,30,46.93"/><path class="cls-5" d="M60.26,37.68a7.63,7.63,0,0,0-3,6v.48"/><path class="cls-5" d="M67.7,40.86A4.46,4.46,0,0,0,62,36.77a5.93,5.93,0,0,0-1.72.91"/><polyline class="cls-5" points="15.29 55.48 21.6 55.48 21.66 47.81 32.17 40.77 24.55 40.77 13.85 47.81 13.85 36.57"/><path class="cls-5" d="M2.18,47.81a1.35,1.35,0,0,0-.9,1.32v6.35H6.72"/><line class="cls-5" x1="24.55" y1="40.77" x2="24.61" y2="35.67"/><line class="cls-5" x1="2.18" y1="36.45" x2="2.19" y2="47.81"/><polyline class="cls-5" points="57.28 44.23 34.75 51.21 32.2 51.96"/><line class="cls-5" x1="58.94" y1="43.72" x2="57.28" y2="44.23"/><line class="cls-5" x1="75.91" y1="38.44" x2="65.15" y2="41.79"/><line class="cls-5" x1="21.66" y1="47.81" x2="2.18" y2="47.81"/><rect class="cls-5" x="6.38" y="47.81" width="9.27" height="8.08" rx="1.28"/><rect class="cls-5" x="7.24" y="48.75" width="7.52" height="6.22" rx="1.01"/><rect class="cls-5" x="4.07" y="36.58" width="7.9" height="9.2" rx="1.11"/><line class="cls-5" x1="4.07" y1="42.06" x2="11.97" y2="42.06"/><rect class="cls-5" x="2.19" y="18.32" width="17.71" height="6.28" rx="1.24"/><path class="cls-5" d="M74.19,21.55v15a1,1,0,0,0,.4.07.77.77,0,0,0,.4-.1V21.27"/><line class="cls-5" x1="74.08" y1="36.21" x2="71.92" y2="36.21"/><line class="cls-5" x1="78.24" y1="36.21" x2="75.15" y2="36.21"/><polyline class="cls-5" points="23.29 36.21 23.29 39.98 15.26 45.12 15.26 36.45"/><path class="cls-5" d="M25.8,35.21v3.58a.83.83,0,0,0,.83.83h5.5"/><path class="cls-6" d="M28.07,58.18,28,58.05a.52.52,0,0,0-.11-.1v0h0l0,0h0v0l0,0a.5.5,0,0,0-.15-.14.38.38,0,0,0-.1,0h0l-.17-.16a3.34,3.34,0,0,1-.32-.33.48.48,0,0,0-.11-.09c-.05-.13-.11-.27-.17-.4a21.65,21.65,0,0,1-.78-3.2.79.79,0,0,0,0-.09v0a8.85,8.85,0,0,1,0-1.26,1.31,1.31,0,0,1,.06-.27.49.49,0,0,0-.05-.39.5.5,0,0,0,0-.27c.06-.14.13-.27.2-.41a.48.48,0,0,0,.07-.2s0,0,0,0l.09-.14a.39.39,0,0,0,.06-.2.38.38,0,0,0,0-.21.66.66,0,0,0-.09-.19c0-.05.21-1,.15-1s-.41.33-.45.32-.17.46-.26.48l-.13.06a.5.5,0,0,0-.19.19l-.09.14a.7.7,0,0,0-.06.19l-.05.06a4.83,4.83,0,0,0-.49,1.17.57.57,0,0,0,0,.29.46.46,0,0,0-.19.2,2.89,2.89,0,0,0-.28,1.33c0,.22,0,.44,0,.67a2,2,0,0,0,0,.42s0,0,0,0a.53.53,0,0,0-.32.49,2.11,2.11,0,0,0,.18.74c.08.21.15.42.23.62s.17.46.26.68a3.19,3.19,0,0,0,.28.66,2.56,2.56,0,0,0,1,.83,3,3,0,0,0,.64.26,1.36,1.36,0,0,0,.29.06l.2,0h0l.06,0,0,0h0l.09.06h0a.5.5,0,0,0,.21,0,.48.48,0,0,0,.2-.07l.11-.08a.62.62,0,0,0,.11-.17.32.32,0,0,0,0-.14A.3.3,0,0,0,28.07,58.18Z"/><path class="cls-6" d="M34.5,50.39A7.79,7.79,0,0,0,34,49.21a4.79,4.79,0,0,0-.84-1.06,2.52,2.52,0,0,0-.89-.59l0,0a.58.58,0,0,0-.19-.19l-.29-.14-.08,0-.23,0-.14,0c-.05,0-.23-.19-.28-.18s-.65,0-.68.05.36.46.33.52.24,0,.24.05a.33.33,0,0,0,0,.14.28.28,0,0,0,0,.13.42.42,0,0,0,.11.18l.07.07.05.07a.29.29,0,0,0,.14.15.28.28,0,0,0,.15.08,5.35,5.35,0,0,1,.2.64h0c.07.53.15,1.06.25,1.59a.41.41,0,0,0,.2.28l0,.23a.54.54,0,0,0,.89.52L33,51.6a.36.36,0,0,0,.23,0,4,4,0,0,1,1-.29.54.54,0,0,0,.39-.52A.61.61,0,0,0,34.5,50.39Z"/><path class="cls-6" d="M60.67,47.85a5.93,5.93,0,0,1-1.12-2.12,12.25,12.25,0,0,0-.65-2.24c0-.11,0-.22,0-.33,0-.8.69-3.85.72-4.65,0-.59-1.57,1.51-1.67,2.11,0,0,0,.09,0,.14h0c0,.1,0,.2,0,.3a1.06,1.06,0,0,0-.31.58.52.52,0,0,0,0,.4,4.75,4.75,0,0,0-.14,2.22.42.42,0,0,0-.16,0,.54.54,0,0,0-.53.53,5.81,5.81,0,0,0,1,2.69,2.44,2.44,0,0,0,1,.93,7.67,7.67,0,0,0,1.35.36A.54.54,0,0,0,60.67,47.85Z"/><path class="cls-6" d="M67.37,39.6c-.16-.38-.32-.76-.5-1.13a2.91,2.91,0,0,0-.66-1,.79.79,0,0,0-.67-.19s0,0-.07,0-.07,0-.1-.08h0a1.5,1.5,0,0,0-.59-.33l-.25-.13a.43.43,0,0,0-.3-.08l0,0a1.08,1.08,0,0,0-.58-.19.54.54,0,0,0-.53.53.55.55,0,0,0,.53.54c-.05,0-.05,0,0,0a.83.83,0,0,0,.15.11l.19.07a5.08,5.08,0,0,1,.68,1.86.49.49,0,0,0,.19.26.45.45,0,0,0,0,.2,7.07,7.07,0,0,1,.06,1.12.54.54,0,0,0,.54.53,2.74,2.74,0,0,0,1.06-.4,2.05,2.05,0,0,1,.55-.16c.24,0,.47-.07.62-.31S67.53,40,67.37,39.6Z"/><path class="cls-6" d="M76.27,36.17h-.13a2.58,2.58,0,0,1-.39,0,1.24,1.24,0,0,1-.47-.06,2.42,2.42,0,0,0-.36.18.67.67,0,0,1-.12.06c.1,0-.08,0-.1,0l-.18,0h-.08l-.21,0h-.06c-.07-.19-.21-.18-.4-.26a1.46,1.46,0,0,0-.68-.19l-.53.07-.26,0-.13,0a.7.7,0,0,0-.23.08c-.11,0,0,.21-.08.33s-.18.28-.11.39a.58.58,0,0,0,.1.12l0,.05a.61.61,0,0,0,.64.76,2.74,2.74,0,0,0,1-.29l.23-.14.12.06a4,4,0,0,0,1,0,2.4,2.4,0,0,0,.8-.32l0,0h0l.18-.05.36-.09a2.51,2.51,0,0,0,.79-.29.58.58,0,0,0,.26-.48A7.38,7.38,0,0,0,76.27,36.17Z"/><path class="cls-7" d="M38.34,28.75a6.54,6.54,0,0,0,0-.81V25.06a5.82,5.82,0,0,0,0-.76l.78-.24,1.17-.38c1.05-.34,1.64,0,1.64.9a2.16,2.16,0,0,1-1.65,2.05l-.84.27v.68c0,.32,0,.57,0,.79Zm1.9-3a.79.79,0,0,0,.59-.77c0-.37-.21-.49-.59-.37l-.8.26V26Z"/><path class="cls-7" d="M43.57,22.61a5.52,5.52,0,0,0,0,.8v2.86a5.06,5.06,0,0,0,0,.77l-1.17.39a5.86,5.86,0,0,0,0-.81V23.77a5.13,5.13,0,0,0,0-.78Z"/><path class="cls-7" d="M47.57,25.78a8,8,0,0,0-.88.25L45,26.58c-.4.13-.55.18-.78.27a5.7,5.7,0,0,0,0-.8v-2.9a5.78,5.78,0,0,0,0-.77c.22-.06.37-.1.78-.24l1.71-.55a8,8,0,0,0,.79-.3v1a7.17,7.17,0,0,0-.79.22L45.33,23v.79l1.15-.38a6.31,6.31,0,0,0,.8-.3v1a6.34,6.34,0,0,0-.8.22l-1.15.38v.89l1.37-.45a6.48,6.48,0,0,0,.87-.32Z"/><path class="cls-7" d="M49.88,25a4.75,4.75,0,0,0,0-.8V21.31a4.6,4.6,0,0,0,0-.77c.25-.07.45-.12.79-.23l1.16-.38c1.06-.35,1.64,0,1.64.9a2.14,2.14,0,0,1-1.64,2l-.84.28v.68a6,6,0,0,0,0,.79Zm1.9-3a.78.78,0,0,0,.59-.76c0-.37-.2-.5-.59-.37l-.79.26v1.13Z"/><path class="cls-7" d="M55.12,18.86a5.52,5.52,0,0,0,0,.8v2.86a5.06,5.06,0,0,0,0,.77L54,23.67a5.61,5.61,0,0,0,0-.8V20a5,5,0,0,0,0-.77Z"/><path class="cls-7" d="M59.12,22a8,8,0,0,0-.88.25l-1.68.54-.78.27a5.45,5.45,0,0,0,0-.79V19.39a5.62,5.62,0,0,0,0-.76c.22-.06.36-.1.78-.24l1.7-.55c.36-.12.54-.19.8-.3v1a5.92,5.92,0,0,0-.8.22l-1.39.45V20L58,19.62a8.32,8.32,0,0,0,.8-.3v1a5.92,5.92,0,0,0-.8.22l-1.16.37v.9l1.38-.45a6.48,6.48,0,0,0,.87-.32Z"/><path class="cls-7" d="M61.43,21.24a6.37,6.37,0,0,0,0-.8V17.56a6.08,6.08,0,0,0,0-.77c.25-.07.44-.12.78-.24l1.17-.38c1.06-.34,1.64,0,1.64.91a2.14,2.14,0,0,1-1.64,2l-.85.28v.68a5.83,5.83,0,0,0,0,.79Zm1.9-3a.79.79,0,0,0,.59-.77c0-.36-.21-.49-.59-.36l-.8.26v1.13Z"/><path class="cls-7" d="M66.66,15.11a5.52,5.52,0,0,0,0,.8v2.86a5.15,5.15,0,0,0,0,.77l-1.17.38a5.7,5.7,0,0,0,0-.8V16.26a4.9,4.9,0,0,0,0-.77Z"/><path class="cls-7" d="M70.66,18.28a8,8,0,0,0-.87.25l-1.68.54c-.41.13-.56.19-.79.27a5.2,5.2,0,0,0,.05-.79V15.64a5.47,5.47,0,0,0-.05-.76l.79-.24,1.7-.55a8,8,0,0,0,.79-.3v1a5.84,5.84,0,0,0-.79.22l-1.39.45v.78l1.15-.37a8.32,8.32,0,0,0,.8-.3v1a6.34,6.34,0,0,0-.8.22l-1.15.37v.9l1.38-.45a7.93,7.93,0,0,0,.86-.32Z"/></g></g></svg>