<svg xmlns="http://www.w3.org/2000/svg" viewBox="0 0 22.85 18.37"><defs><style>.cls-1{fill:#9ad4e1;}.cls-2{fill:#f9b91a;}.cls-3{fill:none;}.cls-3,.cls-4{stroke:#222249;stroke-linecap:round;stroke-linejoin:round;stroke-width:0.4px;}.cls-4{fill:#fff;}.cls-5{fill:#222249;}</style></defs><g id="Layer_2" data-name="Layer 2"><g id="Layer_1-2" data-name="Layer 1"><path class="cls-1" d="M15.1,11.87l.11-.08a.43.43,0,0,1,.25-.07l.13,0a.33.33,0,0,1,.13.07.77.77,0,0,0,.49-.34c.13-.27-1.05-.6-1.39-.67-.92-.17-1.87-.19-2.78-.42a4,4,0,0,1-.61-.2c-.28-.11-.5-.21-.78,0a.45.45,0,0,1-.42.06L9.49,10h0a.52.52,0,0,0-.35-.37,2.46,2.46,0,0,0-.6-.07c-.18,0-1-.48-1.24-.52-.92-.18-3.25-.68-4.2-.75-.39,0,.8.81,1,1.12s.7.45,1.07.56a9.36,9.36,0,0,0,1.26.25c.43.07.84.21,1.27.31a3.62,3.62,0,0,0,.46.06.5.5,0,0,0-.05.44L5,15.92l0,0a4.07,4.07,0,0,0-.56-.75c-.1-.1-.21-.21-.32-.3a1.13,1.13,0,0,0-.63-.28.5.5,0,0,0-.43.75l.15.25a.57.57,0,0,0,.16.15.48.48,0,0,0,.05.23c.14.29.28.59.41.88l.09.22,0,.11c0-.07,0,0,0,0l.18.46a.52.52,0,0,0,.55.36.51.51,0,0,0,.42-.41s.06,0,.08-.08a.89.89,0,0,0,0-.56.44.44,0,0,0,.44-.22l2.78-4.41a28.58,28.58,0,0,0,1,2.86c.18.46.4.89.59,1.35,0,.1.07.2.1.3h0a3,3,0,0,0-1.75.43.5.5,0,0,0,.26.93c.38,0,.76,0,1.15-.05a2.92,2.92,0,0,1,.59,0,2.65,2.65,0,0,0,.49.09.62.62,0,0,0,.52-.9,7.24,7.24,0,0,1-.31-.93c-.12-.36-.31-.69-.46-1.05s-.29-.73-.43-1.09A20.88,20.88,0,0,1,9.41,12a.45.45,0,0,0-.52-.35l.1-.16a.38.38,0,0,0,.06-.3A1.08,1.08,0,0,0,9.29,11a9.21,9.21,0,0,0,.91.2,1.3,1.3,0,0,0,.56,0,.46.46,0,0,0,.16.07l2.18.47a8.13,8.13,0,0,0,2,.2Z"/><path class="cls-2" d="M17.14,2.5h-.07a2.73,2.73,0,0,0-.55.25,2,2,0,0,1-.39.13h-.08a.71.71,0,0,1-.25,0l-.33,0a3.41,3.41,0,0,0-.54-.1h0a3.38,3.38,0,0,0-.52-.35,4.29,4.29,0,0,0-1-.56h0a.43.43,0,0,0-.25-.1s0,0,0,0l-.09,0-.16-.07a3.79,3.79,0,0,0-.42-.18c-.27-.09-.56-.15-.84-.22A8.36,8.36,0,0,0,9.8,1c-.3,0-.61.06-.88.09a4.67,4.67,0,0,0-.76.17,4.28,4.28,0,0,0-.76.41L7,1.86c-.14.07-.19.22-.33.28a.35.35,0,0,0-.18.16s0,0-.06.05a1,1,0,0,0-.13.16l0,.05s0,0,0,0,0,0,0,0l-.11.08A1.18,1.18,0,0,0,6,2.89c-.08.1-.15.21-.22.31s0,0,0,0h0a1,1,0,0,0-.22.23l0,0-.1.07L5,3.78a.57.57,0,0,1-.13.08,1.59,1.59,0,0,0-.6-.75,1.12,1.12,0,0,0-1,.05,1.21,1.21,0,0,0-.4.28,2.21,2.21,0,0,1-.29.32c-.14.1-.28.18-.42.29L2,4.2a1.14,1.14,0,0,1-.22.12l-.06,0a.3.3,0,0,0-.11,0c-.21.13-.44.18-.64.32l-.3.2L.54,5l-.13.08a.27.27,0,0,0-.16.4c.14.19.35.2.56.25a2.57,2.57,0,0,0,.68,0,2.19,2.19,0,0,0,1.06-.35.19.19,0,0,0,0,.08.49.49,0,0,0,.06.17.22.22,0,0,1,0,.14c0,.15,0,.29,0,.44s0,.59,0,.88a1.07,1.07,0,0,0,.25.77.75.75,0,0,0,.38.15A.43.43,0,0,0,3.51,8c.06.15.11.33.26.4a1.45,1.45,0,0,0,.36.08c.16,0,.33.06.49.09A1.91,1.91,0,0,1,5,8.65a.67.67,0,0,0,.24.07,2.66,2.66,0,0,0,.39.07L6.47,9h0a.17.17,0,0,0,.1,0l.17,0a.83.83,0,0,0,.27.07,1.8,1.8,0,0,0,.22.06,2,2,0,0,0,.34,0L8,9.36l.29.06L9,9.55a2.6,2.6,0,0,0,.46.12.58.58,0,0,0,0,.18.59.59,0,0,0,.35.29,1.18,1.18,0,0,0,1-.19,4.21,4.21,0,0,0,1.05.24,9.8,9.8,0,0,1,1.22.27c.4.1.8.18,1.21.26a5.07,5.07,0,0,1,.56.13,1.83,1.83,0,0,0,.56.13c.07,0,.1-.08.13-.13a1.2,1.2,0,0,0,.34-.37c.07-.1.12-.22.18-.32s.13-.24.19-.37.11-.19.16-.3a3.05,3.05,0,0,1,.13-.32.82.82,0,0,0,.1-.37s0-.07.05-.1a1,1,0,0,0,.09-.21.33.33,0,0,0,0-.1,1.32,1.32,0,0,0,.32-.2,2.67,2.67,0,0,0,.41-.48c.09-.12.17-.25.25-.38l.06-.07.05-.07a3.71,3.71,0,0,1,.23-.32.25.25,0,0,0,.13-.06c.08-.09.19-.15.27-.24s.25-.07.36-.1a.72.72,0,0,0,.32-.18.13.13,0,0,0-.09-.22l-.11,0a.23.23,0,0,0-.1-.12h0a.21.21,0,0,0,.05-.15.26.26,0,0,0-.07-.16h0a.1.1,0,0,0,0-.08.23.23,0,0,0,0-.18l.05,0a.09.09,0,0,0,0-.14.45.45,0,0,0-.25-.09,1.31,1.31,0,0,0-.43.08H18.2a1,1,0,0,1-.48-.06A4.19,4.19,0,0,1,17.26,5l-.52-.27a1.39,1.39,0,0,0,.12-.28A.91.91,0,0,1,17,4.16a2.73,2.73,0,0,1,.23-.25,1.64,1.64,0,0,1,.25-.19.16.16,0,0,0,.08-.06.43.43,0,0,0,.14-.2.11.11,0,0,0,0-.11,0,0,0,0,0,0-.06,0,0,0,0,0-.05,0,.14.14,0,0,0-.11,0l0,0a.11.11,0,0,0-.13-.05H17.3a.31.31,0,0,0,.06-.13.16.16,0,0,0-.1-.15l-.05,0a.19.19,0,0,0,0-.18l-.05-.06a.13.13,0,0,0,0-.23"/><path class="cls-3" d="M12.88,11.06l2.37.53a1.12,1.12,0,0,0,1.21-.34L13,10.48"/><path class="cls-3" d="M12.73,11.68l1.64.36a1,1,0,0,0,.89-.36"/><line class="cls-3" x1="10.73" y1="9.97" x2="13.22" y2="10.53"/><path class="cls-3" d="M12.89,11.07l-9-2a1.1,1.1,0,0,1-.95-.82L9.44,9.69"/><path class="cls-3" d="M8.15,10.66,4.41,9.83c-.47-.1-.69-.8-.69-.8"/><line class="cls-3" x1="12.73" y1="11.68" x2="9.3" y2="10.88"/><path class="cls-3" d="M16.3,4.58a6.47,6.47,0,0,0-4.75-3.42"/><path class="cls-3" d="M15.39,11a5.06,5.06,0,0,0,1.35-2.6"/><path class="cls-3" d="M10.05,6.87c-.07.07-.11.15-.18.22s-.21.22-.32.3A2.19,2.19,0,0,1,9,7.74a2.27,2.27,0,0,1-1.31.16c-.2,0-.83-.2-.72-.51,0-.14.17-.17.28-.24a3,3,0,0,1,.49-.28l1-.53a6,6,0,0,0,.89-.7,1.55,1.55,0,0,1,1.16-.52s1.18.19.85,1.65"/><path class="cls-3" d="M9.3,7.61c.32.59-.42,2.84,1,2.55.92-.19,1.5-1.31,1.79-2"/><path class="cls-3" d="M11.91,8.5a.45.45,0,0,0,.31-.12l.12-.13a.88.88,0,0,0,.07-.13"/><path class="cls-3" d="M2.94,5.16a.86.86,0,0,1-.14.13,2.5,2.5,0,0,1-.56.35A2.46,2.46,0,0,1,.93,5.8c-.21,0-.83-.2-.72-.52C.26,5.15.38,5.12.49,5s.32-.19.48-.28c.33-.17.65-.35,1-.53a5.57,5.57,0,0,0,.9-.7A1.57,1.57,0,0,1,4,3a1.14,1.14,0,0,1,.87.83"/><path class="cls-3" d="M2.55,5.51c.31.59-.42,2.83,1,2.55"/><path class="cls-3" d="M12.91,6a3,3,0,0,1,2.85-1.46,3.88,3.88,0,0,1,1,.23c.29.12.54.31.83.41a1.49,1.49,0,0,0,.91,0c.16,0,.42,0,.49.18"/><path class="cls-3" d="M19.19,6.08a.41.41,0,0,1-.32.39,1.51,1.51,0,0,0-.79.45c-.21.23-.34.51-.53.75a3.46,3.46,0,0,1-.78.7,3.58,3.58,0,0,1-2.94.25"/><path class="cls-3" d="M14.9,2.72H15c.31,0,.6.12.91.13a1.41,1.41,0,0,0,.87-.28.51.51,0,0,1,.4-.06"/><path class="cls-3" d="M17.7,3.28a.35.35,0,0,1-.2.43,1.51,1.51,0,0,0-.62.68,3.4,3.4,0,0,0-.12.34"/><path class="cls-3" d="M3.54,5a2.14,2.14,0,0,1,1-1A4,4,0,0,0,6.33,2.47S8,.38,11.56,1.17"/><path class="cls-3" d="M3.33,5.42A3.41,3.41,0,0,1,3.54,5"/><path class="cls-3" d="M3.51,8.06c0-.08-.07-.15-.11-.24"/><path class="cls-3" d="M3.72,8.4c-.05-.08-.13-.2-.21-.34"/><line class="cls-3" x1="8.15" y1="10.66" x2="4.94" y2="16.03"/><path class="cls-3" d="M5.11,16.68a3.89,3.89,0,0,0-.44-1.2c-.3-.48-.91-1.17-1.64-.87,0,0-.22.08-.14.26s1.44,3.06,1.44,3.06.18.4.41.18L9.3,10.88"/><line class="cls-3" x1="8.44" y1="12.32" x2="10.16" y2="16.78"/><path class="cls-3" d="M9.06,11.37l2.48,6.46a.25.25,0,0,1-.27.34H8.37s-.34,0-.32-.45.79-1.06,1.66-1a1.87,1.87,0,0,1,1,.33"/><ellipse class="cls-4" cx="7.18" cy="2.07" rx="0.99" ry="1.07" transform="translate(-0.12 0.5) rotate(-3.93)"/><ellipse class="cls-4" cx="9.23" cy="1.93" rx="0.99" ry="1.07" transform="translate(-0.11 0.64) rotate(-3.93)"/><path class="cls-5" d="M7.18,1.6a.41.41,0,0,0,0,.82A.41.41,0,0,0,7.18,1.6Z"/><path class="cls-5" d="M9.23,1.52a.41.41,0,0,0,0,.82A.41.41,0,0,0,9.23,1.52Z"/><path class="cls-3" d="M10.79,3.11A2.87,2.87,0,0,1,7.48,4.44"/><path class="cls-4" d="M17.5,3.32l2-1.16a.85.85,0,0,0,.06.17.72.72,0,1,0,.65-1.08.71.71,0,0,0,0-.69.72.72,0,0,0-1-.26.73.73,0,0,0-.26,1,.69.69,0,0,0,.16.18l-2,1.16s-.05.24.33.69"/><path class="cls-4" d="M19,6.2l2.27-.43a.55.55,0,0,0,0,.18.73.73,0,1,0,1-.8.72.72,0,0,0-.62-1.23.72.72,0,0,0-.58.85.6.6,0,0,0,.09.22l-2.25.43s-.14.21.07.76"/></g></g></svg>