<svg xmlns="http://www.w3.org/2000/svg" viewBox="0 0 12.77 16.8"><defs><style>.cls-1{fill:#b56f26;}.cls-2{fill:#ee7349;}.cls-3{fill:#e33b17;}.cls-4{fill:#fff;}.cls-5{fill:none;stroke:#22234a;stroke-linecap:round;stroke-linejoin:round;stroke-width:0.4px;}.cls-6{fill:#22234a;}</style></defs><g id="Layer_2" data-name="Layer 2"><g id="Layer_1-2" data-name="Layer 1"><path class="cls-1" d="M12.32,8.94a.89.89,0,0,0-.07-.43,1,1,0,0,0,.18-1.06.67.67,0,0,0-.56-.34c0-.43-.21-1-.66-1.07s-.64.21-.74.56H10.4a1.05,1.05,0,0,0-.24.06,2.08,2.08,0,0,0-.45.22,3.15,3.15,0,0,0-.29.22l-.08.07a3.11,3.11,0,0,1-2-1,2.7,2.7,0,0,1-.55-1.35A3.89,3.89,0,0,0,6,3.14a2.52,2.52,0,0,0-3.6.1c-1,.89-.86,2.22-1.25,3.38a.77.77,0,0,0,0,.45,9.58,9.58,0,0,0-.77,2.3,2.62,2.62,0,0,0,.83,2.86,1.13,1.13,0,0,0,.12.18,2.76,2.76,0,0,0,1,.55,6.43,6.43,0,0,0,2,.31h.83c.32.05.62.21,1,.26s.7.05,1,.08a8.44,8.44,0,0,1,.89.17,1,1,0,0,0,.57,0,.6.6,0,0,0,.23,0,3.76,3.76,0,0,0,2.07-1.58,5.44,5.44,0,0,0,.52-1.3,4.2,4.2,0,0,0,.17-.7,2.46,2.46,0,0,0,0-.47l.15,0s0,0,.06,0h0a.43.43,0,0,0,.19,0,.42.42,0,0,0,.16-.11l.08-.1a.55.55,0,0,0,.07-.25l0-.13Z"/><path class="cls-2" d="M4.79,5.12a.53.53,0,0,0-.23-.26l0,0,0,0a.78.78,0,0,0-.3-.18,1.27,1.27,0,0,0-.27,0l0-.06a.74.74,0,0,0-.36-.24.8.8,0,0,0-.57,0,1.53,1.53,0,0,0-.51.36.61.61,0,0,0-.18.57.56.56,0,0,0,.4.4.51.51,0,0,0,.15.07,8,8,0,0,0,1.08.23,1.29,1.29,0,0,0,.39,0,.62.62,0,0,0,.47-.29A.61.61,0,0,0,4.79,5.12Z"/><path class="cls-2" d="M8.21,15.71c-.8-.08-1.59-.11-2.38-.11a.62.62,0,0,0,.09-.27A5.41,5.41,0,0,0,6,14.06a.62.62,0,0,0-.37-.53,1,1,0,0,0-.39,0h0l-.15,0-.13,0-.07,0a.51.51,0,0,0-.74.3,2.15,2.15,0,0,0,0,1,4.68,4.68,0,0,1,0,1c-.66,0-1.31.09-2,.08a.5.5,0,0,0,0,1c1,0,2-.1,3.05-.14a22.36,22.36,0,0,1,3.06.11.51.51,0,0,0,.5-.5A.51.51,0,0,0,8.21,15.71Z"/><path class="cls-3" d="M4.4,6.75c0-.06,0-.11,0-.16a1.26,1.26,0,0,0-.13-.26A.84.84,0,0,0,4,6.06.58.58,0,0,0,3.79,6h0L3.6,6h0a.44.44,0,0,0-.16,0,.74.74,0,0,0-.27.16A.81.81,0,0,0,3,6.27l0,.08-.25.38a.6.6,0,0,0-.06.19.45.45,0,0,0,0,.2.52.52,0,0,0,.23.3.53.53,0,0,0,.39,0l.12,0s0,0,0,0v0a.39.39,0,0,0,.11.17.5.5,0,0,0,.35.14.52.52,0,0,0,.36-.14l.07-.11a.43.43,0,0,0,.07-.25A2.26,2.26,0,0,0,4.4,6.75Z"/><path class="cls-3" d="M5.78,1.73a2.71,2.71,0,0,0-.49-.22A.72.72,0,0,0,5.22,1,.69.69,0,0,0,4.55.71,1.53,1.53,0,0,0,4.44.55a.79.79,0,0,0-1-.06A.7.7,0,0,0,3.13,1a.82.82,0,0,0,0,.27l-.28.12a.5.5,0,0,0-.23.56.52.52,0,0,0,.48.37h.07a.94.94,0,0,0,.22.51.56.56,0,0,0,.69.1.55.55,0,0,0,.27-.48.46.46,0,0,0,.26,0l.1,0h.1l.08,0,.12,0h0l.21.12A.51.51,0,0,0,6,2.41.5.5,0,0,0,5.78,1.73Z"/><path class="cls-4" d="M3.52,3.79a.71.71,0,0,0-.13-.22l-.1-.08A.54.54,0,0,0,3,3.43H2.87l-.19,0a.56.56,0,0,0-.17.09.53.53,0,0,0-.12.14.33.33,0,0,0-.06.19.34.34,0,0,0,0,.2l.06.12a.58.58,0,0,0,.17.18l.12,0a.57.57,0,0,0,.26,0H3a.45.45,0,0,0,.19,0,.42.42,0,0,0,.26-.26.41.41,0,0,0,0-.19Z"/><path class="cls-4" d="M5.3,4.33a.59.59,0,0,0,0-.14V4.14a.69.69,0,0,0,0-.13l0,0-.09-.12,0,0L5,3.74s0,0,0,0h0l-.13,0H4.36l-.13,0h0l-.06,0,0,0A.76.76,0,0,0,4,3.91.43.43,0,0,0,4,4a.59.59,0,0,0,0,.13H4L4,4.3A.43.43,0,0,0,4,4.42a.1.1,0,0,0,0,0,.2.2,0,0,0,.09.09l0,0,.12.05.1,0,0,0a.39.39,0,0,0,.16.1.35.35,0,0,0,.2,0l.13,0a.5.5,0,0,0,.22-.13l.08-.1a.55.55,0,0,0,.07-.25Z"/><path class="cls-5" d="M5.35,8.83s.48,1.94,3.31,2.34c0,0,.95.15.35-1.17S7.84,8.47,7.84,8.47"/><path class="cls-5" d="M3.23,16c-.32,0-.74,0-.74.32,0,0,0,.25.47.25"/><path class="cls-5" d="M5.07,13.48v2.86a.24.24,0,0,1-.26.26H2c-.18,0-.58-.06-.56-.34s.86-.6,2.75-.55a.82.82,0,0,0,.3.07"/><path class="cls-5" d="M11.32,9.37a4.82,4.82,0,0,1,.14,1.2c0,2-1.39,3.63-4.55,3.14L2.27,13s-2.36-.24-2-3.41A6.3,6.3,0,0,1,.87,7.72a4,4,0,0,0,.48-1.91c.1-1,.52-2.66,1.74-3.25"/><path class="cls-5" d="M5,2.44c2.61.68,1.13,4,3.24,4.31h0A3.77,3.77,0,0,1,10.86,8.3"/><path class="cls-5" d="M4,4.4a.75.75,0,0,1,0-.26.72.72,0,0,1,1.42.19A.78.78,0,0,1,4.84,5"/><path class="cls-5" d="M2.43,4.61a.71.71,0,0,1-.22-.7.71.71,0,1,1,1.38.35"/><path class="cls-5" d="M3.85,5.36l-1.1-.11A1.19,1.19,0,0,0,2,5.46,1.4,1.4,0,0,1,3.56,4.29a.86.86,0,0,1,.66.42"/><path class="cls-5" d="M2.2,5.32S2.27,6,3.92,6"/><path class="cls-5" d="M4.22,4.71c.37-.1.59.16.69.51a.64.64,0,0,1-.48.8.69.69,0,0,1-.51,0"/><path class="cls-6" d="M3.05,3.84s0,0,0-.06l0,0-.11,0H2.8l-.09.06h0a.16.16,0,0,0,0,.07.19.19,0,0,0,0,.08.24.24,0,0,0,0,.08l0,.06,0,0a.23.23,0,0,0,.11,0H2.9a.2.2,0,0,0,.09,0l0,0a.21.21,0,0,0,0-.06.17.17,0,0,0,0-.16Z"/><path class="cls-6" d="M4.88,4.12a.21.21,0,0,0,0-.06l0,0a.19.19,0,0,0-.1,0H4.63a.13.13,0,0,0-.09,0l0,0a.08.08,0,0,0,0,.06.17.17,0,0,0,0,.16s0,0,0,.06l0,0a.2.2,0,0,0,.11,0h0a.21.21,0,0,0,.1-.06h0a.25.25,0,0,0,0-.07.19.19,0,0,0,0-.08A.24.24,0,0,0,4.88,4.12Z"/><path class="cls-5" d="M5.33,1.59a.51.51,0,0,0,.06-.25A.59.59,0,0,0,4.54.83.73.73,0,0,0,3.81.2a.74.74,0,0,0-.75.72.61.61,0,0,0,.11.35.58.58,0,0,0-.19,0,.46.46,0,1,0,0,.91.53.53,0,0,0,.26-.07.62.62,0,0,0-.1.34A.63.63,0,0,0,3.78,3a.59.59,0,0,0,.64-.52"/><path class="cls-5" d="M5.06,2.27a.57.57,0,0,1-.48.27l-.16,0"/><path class="cls-5" d="M5.28,1.74a.54.54,0,0,1,.22-.05.56.56,0,0,1,.56.55.53.53,0,0,1-.31.48"/><path class="cls-5" d="M4.18,15.71c0-.05-.14-2.35-.14-2.35"/><path class="cls-5" d="M6.91,16c.32,0,.74,0,.74.32,0,0,0,.25-.46.25"/><path class="cls-5" d="M5.07,13.48v2.86a.25.25,0,0,0,.27.26H8.15c.19,0,.58-.06.56-.34s-.85-.6-2.75-.55a.82.82,0,0,1-.3.07"/><path class="cls-5" d="M6,15.71c0-.05.1-2.1.1-2.1"/><path class="cls-5" d="M9.2,7a2.58,2.58,0,0,0,1.29-.63c.65-.52,1.11-.26,1.28.56a.86.86,0,0,1,.76.62.76.76,0,0,1-.28.88.74.74,0,0,1,.24.76.77.77,0,0,1-1,.6"/><path class="cls-5" d="M3.22,6a5.11,5.11,0,0,0-.41.54c-.19.31-.42.9.13,1a.46.46,0,0,0,.56-.34l0-.21"/><path class="cls-5" d="M4.22,6.09a3.89,3.89,0,0,0,.2.76c.14.34,0,1-.56.87a.42.42,0,0,1-.36-.53l0-.21.08-.37"/></g></g></svg>