<svg xmlns="http://www.w3.org/2000/svg" viewBox="0 0 31.62 29.03"><defs><style>.cls-1,.cls-13{fill:#fff;}.cls-15,.cls-2{fill:#f3a2a7;}.cls-10,.cls-3{fill:#f9b91a;}.cls-12,.cls-4{fill:#9ad4e1;}.cls-5{fill:#0071b9;}.cls-14,.cls-6{fill:#243d7e;}.cls-7{fill:#fce79c;}.cls-8{fill:none;}.cls-10,.cls-12,.cls-13,.cls-14,.cls-15,.cls-8{stroke:#22234a;stroke-linecap:round;stroke-linejoin:round;stroke-width:0.4px;}.cls-9{fill:#e33b17;}.cls-11{fill:#22234a;}.cls-16{fill:#e63a12;}.cls-17{fill:#0493cd;}</style></defs><g id="Layer_2" data-name="Layer 2"><g id="Layer_1-2" data-name="Layer 1"><g id="wedding_Group_" data-name="wedding &lt;Group&gt;"><path class="cls-1" d="M21.87,23.61a.88.88,0,0,0-.32-.48c-.22-1.42-.66-3.62-2.05-4a4,4,0,0,0-.67-1.21c0-.22.05-.45.08-.67a3.12,3.12,0,0,0,.05-1c.38-.25.24-1-.28-.95a1.13,1.13,0,0,1-.26,0,1.09,1.09,0,0,0-.7-.23.48.48,0,0,0-.24.07c-.15-.05-.29-.1-.42-.13a6.87,6.87,0,0,0-1.81-.12l-.92.05a3.53,3.53,0,0,0-.86.08c-.8.24-.32,1.16-.15,1.67a.52.52,0,0,0,1-.27c-.06-.15-.11-.3-.16-.44l.17,0L15,16a11.63,11.63,0,0,1,1.32,0,13.32,13.32,0,0,1,1.57.38.64.64,0,0,1,0,.27,3.07,3.07,0,0,1-.07.6l-.28-.11a1.77,1.77,0,0,0-1.72.47,1.39,1.39,0,0,0-1.2.24.92.92,0,0,0-1.4,0,6.12,6.12,0,0,0-1,3A8.32,8.32,0,0,0,12,24.33a56.79,56.79,0,0,0-.07,5.84,1,1,0,0,0,1.49.88,2.63,2.63,0,0,0,.74.15c.36,0,.71,0,1.07,0s.76.08,1.14.11a16.93,16.93,0,0,0,2.25-.09L20.93,31a.9.9,0,0,0,.16,0,1.07,1.07,0,0,0,1.41-.95A32.4,32.4,0,0,0,21.87,23.61Z" transform="translate(0 -2.36)"/><path class="cls-2" d="M28.55,13l-.08-.11a.58.58,0,0,0-.23-.13,3.59,3.59,0,0,1-.43-.14h0s0,0,0,0a.9.9,0,0,0-.43-.23c-.33-.08-.66.05-1,0a1.82,1.82,0,0,0-.57,0l-.3.06a1.66,1.66,0,0,0-1.36-.18,2.19,2.19,0,0,0-.73.41c-.21.17-.49.42-.47.71,0,0,0,.05,0,.07a.5.5,0,0,0-.34.13A17.28,17.28,0,0,0,21.23,15c-.1.12-.2.22-.31.33l-.08.05-.15.11a1.8,1.8,0,0,0-.44.43s0-.07,0-.11a.48.48,0,0,0-.07-.23.58.58,0,0,0,0-.34,4.18,4.18,0,0,0-2.43-2.46,1.84,1.84,0,0,0,0-.33,5.83,5.83,0,0,1,.85-1.4,5.25,5.25,0,0,0,.66-2.56,3.57,3.57,0,0,0-.51-2.43,1.23,1.23,0,0,0-.95-.54,1.09,1.09,0,0,0-.48.1l-.14-.18a.51.51,0,0,0-.8-.11c-.17.17-.31.09-.51,0a.86.86,0,0,0-.72,0,1.85,1.85,0,0,0-.49.55c-.14.18-.32.31-.47.48-.63.75-.43,1.89-.41,2.84,0,0,0,0,0,0a.53.53,0,0,0,0,.73,3.44,3.44,0,0,1,.7,2.07,1.93,1.93,0,0,1,0,.24l0,0-.46.4a5.24,5.24,0,0,0-.51.54,2.23,2.23,0,0,0-.21.22l-.12,0a.47.47,0,0,0-.15.13l0,.06a.53.53,0,0,0,0,.12h0a.37.37,0,0,0,0,.14s0,0,0,0a.46.46,0,0,0-.41.13l-.24.24a.46.46,0,0,0-.11.55.5.5,0,0,0-.32.33,1.3,1.3,0,0,0,0,.52c0,.11,0,.21,0,.32v.13c0,.06,0,.11,0,.16l-.06.35c0,.23-.09.47-.12.7s0,.29-.05.43,0,.11,0,.16v.14a.49.49,0,0,0,.12.5.53.53,0,0,0,.73,0l.07-.07.06-.05,0,0a.47.47,0,0,0,.31,0,3.75,3.75,0,0,0,.47-.17,1.12,1.12,0,0,0,.54-.33.63.63,0,0,0,0-.73.82.82,0,0,0-.6-.35.9.9,0,0,0-.23,0A.16.16,0,0,0,13,17c0-.13-.05-.25-.07-.38s0-.3-.06-.37a2.88,2.88,0,0,0,0-.35V15.8c0-.1,0-.21,0-.31a.41.41,0,0,0,0-.19l.08,0A7,7,0,0,1,14,14.77c.42-.1.85.1,1.28,0,.19,0,.36-.19.55-.23s.25.08.39.14a.92.92,0,0,0,.59.06l.06,0a.53.53,0,0,0,.16.13l.26.1a5.26,5.26,0,0,0,1.38.25c.22,0,.23.07.35.25a1.07,1.07,0,0,0,.2.22.4.4,0,0,0,0,.15,5.66,5.66,0,0,1-.05.84.82.82,0,0,0,0,.27.52.52,0,0,0-.28.06.5.5,0,0,0-.19.68,3.59,3.59,0,0,1-.12.35,2.27,2.27,0,0,0-.17.5.58.58,0,0,0,.27.56.78.78,0,0,0,.39.12.69.69,0,0,0,.25,0,.47.47,0,0,0,.4.2h0a.5.5,0,0,0,.32,0l.17-.05a.5.5,0,0,0,.37-.56.51.51,0,0,0-.35-.42.89.89,0,0,0-.38-.23,1.09,1.09,0,0,0-.26,0l0,0a1.42,1.42,0,0,0,.08-.4,1.07,1.07,0,0,0,.16.14.5.5,0,0,0,.46.33,1.28,1.28,0,0,0,1.13-.62,5.51,5.51,0,0,0,.44-1,6,6,0,0,0,.59-.72,14.27,14.27,0,0,0,1-1.65.56.56,0,0,0,0-.36.5.5,0,0,0,.33-.27l.06-.07.12-.1a.91.91,0,0,1,.17-.09,3.48,3.48,0,0,0,.72.11,2.08,2.08,0,0,0,.43,0,4.17,4.17,0,0,0,.51-.09,1.35,1.35,0,0,1,.4,0,2.22,2.22,0,0,0,.63,0l.12,0a1.09,1.09,0,0,0,.05.14.59.59,0,0,0,.24.23,2,2,0,0,0,.54.14.54.54,0,0,0,.6-.27l0,0a.31.31,0,0,0,.09-.18l0-.13A.46.46,0,0,0,28.55,13Z" transform="translate(0 -2.36)"/><path class="cls-3" d="M16.72,4.43a.89.89,0,0,0-.6-.55A1.38,1.38,0,0,0,14.77,4a3.77,3.77,0,0,0-.92,1,4.68,4.68,0,0,0-.3.59c0,.09-.09.19-.14.28l0,0a.46.46,0,0,0-.17.24.49.49,0,0,0-.41.25,6,6,0,0,0-.69,3.66.42.42,0,0,0,0,.16.36.36,0,0,1,0,.09.4.4,0,0,0-.11.2v.06a1.37,1.37,0,0,0-.08.35.45.45,0,0,0-.18.27c-.07.34-.29.86-.1,1.19.09.16.24.22.38.33a1.19,1.19,0,0,1,.29.34.64.64,0,0,0,1,.17l1-.82a.51.51,0,0,0,.13-.5c-.21-.67-.43-1.34-.64-2a.54.54,0,0,0-.28-.31l.3-2a.67.67,0,0,0,0-.35V6.93A.34.34,0,0,0,14,6.8a.41.41,0,0,0,.07-.11h0l0-.06a2.85,2.85,0,0,0,.26-.41c.08-.18.16-.36.25-.54s.22-.17.24-.19l.16,0c.05,0-.08-.09,0-.1h.23a1.93,1.93,0,0,1,.34,0,1.56,1.56,0,0,0,.77-.08A.71.71,0,0,0,16.72,4.43Z" transform="translate(0 -2.36)"/><path class="cls-3" d="M21,9.23a2.28,2.28,0,0,0-.38-2.06l-.08,0a.54.54,0,0,0-.15-.36c.07.08,0,0,0,0a.91.91,0,0,1-.07-.14l-.12-.27c-.09-.18-.18-.36-.28-.54-.18-.35-.38-.7-.59-1A1.54,1.54,0,0,0,18.15,4a1,1,0,0,0-.48.11.48.48,0,0,0-.49.36l0,.3h0s0,.08,0,.13a.5.5,0,0,0,.44.51.58.58,0,0,0,.36-.08l.13.07.5.15.12.2c.17.28.33.57.47.86a6,6,0,0,0,.46.87.35.35,0,0,0-.07.15q-.16,1.1-.27,2.19a9.43,9.43,0,0,0-.07,1.06.61.61,0,0,0-.43.25A9.54,9.54,0,0,0,18,12.35a.52.52,0,0,0,.31.75l.1,0h0l.21.11.09.06h0a1.29,1.29,0,0,1,.17.16.6.6,0,0,1,.08.08l0,0,.11.15a1.46,1.46,0,0,0,.43.46.53.53,0,0,0,.76-.31,7.89,7.89,0,0,0,.42-1.33c.05-.05-.08-.22-.07-.29.05-.23.09-.46.14-.69a.62.62,0,0,0,0-.27.5.5,0,0,0,0-.12.53.53,0,0,0-.15-.37h0c0-.2.19-.32.21-.52C20.87,10,20.91,9.58,21,9.23Z" transform="translate(0 -2.36)"/><path class="cls-3" d="M30.89,8.77a7.67,7.67,0,0,1-2.09-1A8.53,8.53,0,0,0,26.67,7a7.62,7.62,0,0,0-2.38.14,4,4,0,0,0-1.07.31c-.38.18-.57.38-1,.31s-.95.64-.4.94a1.1,1.1,0,0,0,.26.14l.09,1.58a.5.5,0,0,0,.49.48A.47.47,0,0,0,23,11c2.13.19,4.32,0,6.37.7a.52.52,0,0,0,.58-.23,3.29,3.29,0,0,0,.41-1,2.17,2.17,0,0,1,.13-.53c.1-.19.05-.17.29-.18C31.31,9.77,31.49,8.85,30.89,8.77Z" transform="translate(0 -2.36)"/><path class="cls-4" d="M30.1,11.68a3.83,3.83,0,0,0-1.12,0l-.17,0-.21-.17c-.57-.34-1.37,0-2,0-.38,0-.89-.21-1.28-.23a11.92,11.92,0,0,0-1.2-.15,3.32,3.32,0,0,1-1.09,0c-.36-.1-1.18-.14-1.54-.26-.62-.21-.22.46.41.67s1.18.75,1.95.66a4.74,4.74,0,0,1,1.19.07,4.79,4.79,0,0,0,1.07,0,6.73,6.73,0,0,1,1.1,0l.59.09c.05,0,.37.14.23,0,.11.09.14.23.27.31a.7.7,0,0,0,.47.07,4.2,4.2,0,0,1,1.06-.06c.28.05.88-.2,1-.49S30.37,11.72,30.1,11.68Z" transform="translate(0 -2.36)"/><path class="cls-4" d="M7.53,18.22l-.06-.73a7.41,7.41,0,0,1,0-1.49.28.28,0,0,0-.12-.25,17,17,0,0,0-.65-2.55.18.18,0,0,0-.09-.1,12.92,12.92,0,0,1-.35-1.64c0-.18-.3-.26-.35,0l-.07.36h0a.37.37,0,0,0-.19.09l-.21.2,0,0a2.55,2.55,0,0,0-.41.51,3.83,3.83,0,0,0-1,1.64.83.83,0,0,0,0,.15.35.35,0,0,0-.16.22l-.3,1.13L3.41,16a.32.32,0,0,0,0,.13l-.06.23a.34.34,0,0,0,0,.2q-.25,1.2-.45,2.4v.06h0l0,0,0,.05a2.18,2.18,0,0,0,.21.22l.19.17,0,0,0,0,.15.09.09.05.09,0a1.09,1.09,0,0,1,.41.22,1.05,1.05,0,0,1,.29.78v.15s0,0,0,.06a.39.39,0,0,1,0,.06h0a1.94,1.94,0,0,1,.41.4,1.83,1.83,0,0,1,.16,1l.06,0s0,.05-.06.06v0H5l.17.06a1.13,1.13,0,0,0,.41.06h.23l.08,0H6l.06.25a.25.25,0,0,0,0,.16c.24,2,.49,4,.73,6,0,.13.1.28.26.26a9,9,0,0,1,1,.09,5.17,5.17,0,0,0,1-.11c.24,0,.24-.29.11-.43a.22.22,0,0,0,0-.09q-.3-3.24-.63-6.48a1.68,1.68,0,0,0,0-.5c0-.21,0-.42,0-.62l-.06-.76h0a.74.74,0,0,0,.39,0c0,1,.09,2.06.2,3.09.05.54.11,1.07.18,1.61l.07.7h0a21.93,21.93,0,0,0,.23,3.33.26.26,0,0,0,.39.15,2.3,2.3,0,0,1,.91-.07,8.09,8.09,0,0,1,1-.08.26.26,0,0,0,.16-.47.38.38,0,0,0,0-.1,15.44,15.44,0,0,1-.19-1.65c0-.55-.07-1.1-.14-1.65a.49.49,0,0,0,0-.12c-.08-.92-.17-1.83-.25-2.75h.07a2.44,2.44,0,0,0,.46-.07l.08,0a2.69,2.69,0,0,1,.06-.68s0-.07,0-.11v0c0-.12,0-.24,0-.37a5.12,5.12,0,0,1,.1-.54c.08-.37.2-.74.3-1.11,0-.14.07-.27.11-.41s0-.3-.05-.45l-.13.1a1,1,0,0,1-.88.07.72.72,0,0,1-.34-.68,5.39,5.39,0,0,1,.43-1.57c.15-.43.25-.87.4-1.3a4.44,4.44,0,0,1,.82-1.55l-.32-.3a8.72,8.72,0,0,0-1-.82l-.2-.14a0,0,0,0,0,0,0,4.54,4.54,0,0,0-.61-.63,3.91,3.91,0,0,1-.56-.6.18.18,0,0,0-.33.14l0,.18a.33.33,0,0,0,0,.14,1,1,0,0,1,0,.25,1.74,1.74,0,0,1-.05.22.28.28,0,0,0,0,.2.53.53,0,0,0,0,.12c-.1.77-.21,1.53-.3,2.29,0,.19,0,.37-.05.56a.92.92,0,0,1,0,.16.37.37,0,0,0-.21.42,17.13,17.13,0,0,1,.24,1.89c0,.29,0,.57.07.86H9.44l-.6,0-.61,0a1.12,1.12,0,0,0-.57.14l-.07.06-.06-.62" transform="translate(0 -2.36)"/><path class="cls-5" d="M12,28.61c-.08-.54-.16-1.09-.19-1.65s-.06-1.1-.14-1.65a.45.45,0,0,0,0-.12c-.07-.83-.15-1.65-.22-2.48a2.41,2.41,0,0,1-.15-.33l-.11,0c-.26.08-.5.21-.76.28a.57.57,0,0,1-.72-.54,14.86,14.86,0,0,0-.22-3.52h0l-.6,0-.61,0a1,1,0,0,0-.57.14h0a14.89,14.89,0,0,0,.2,3.39.56.56,0,0,1-.41.54,5,5,0,0,1-.86.06,1.88,1.88,0,0,0-.58.06.36.36,0,0,1,0,.1.21.21,0,0,0,0,.16l.72,6c0,.13.11.28.26.26a8.59,8.59,0,0,1,1,.09,5.33,5.33,0,0,0,1.05-.1.24.24,0,0,0,.1-.43.14.14,0,0,0,0-.09c-.19-2.17-.41-4.33-.63-6.49a1.4,1.4,0,0,0,0-.5c0-.21,0-.41,0-.62s0-.51-.06-.76h0a.74.74,0,0,0,.39,0c0,1,.1,2.05.2,3.08l.18,1.61.08.7h0a20.63,20.63,0,0,0,.22,3.33.27.27,0,0,0,.39.16,2.14,2.14,0,0,1,.91-.08c.33,0,.66-.1,1-.08a.26.26,0,0,0,.16-.47A.38.38,0,0,0,12,28.61Z" transform="translate(0 -2.36)"/><path class="cls-6" d="M5,22.57Z" transform="translate(0 -2.36)"/><path class="cls-1" d="M9.62,11.21l-.09.09a.3.3,0,0,0-.15,0A2.25,2.25,0,0,1,8,11.72a2.46,2.46,0,0,1-1.31-.27c-.21-.14-.52.15-.36.37l.08.1a.22.22,0,0,0,0,.14,8.83,8.83,0,0,1,.3,1h0a.28.28,0,0,0,0,.09l.34,1.11a.3.3,0,0,0,0,.08c0,.17.08.34.11.51a1.06,1.06,0,0,0,.17.48,1.45,1.45,0,0,0,0,.36l.07.68.08.69a1.7,1.7,0,0,0,.08.51l0,0a.53.53,0,0,0-.07.28.34.34,0,0,0,.21.32.37.37,0,0,0,.39-.07l.07,0,.07,0,.3-.09h.22l0,0A.36.36,0,0,0,9.44,18a1.77,1.77,0,0,0,0-.65c0-.2-.05-.39-.07-.58s0-.59-.05-.89a.14.14,0,0,0,.08-.11,18.1,18.1,0,0,0,.24-2.19,7,7,0,0,1,.31-2.14C10,11.2,9.74,11.11,9.62,11.21Z" transform="translate(0 -2.36)"/><path class="cls-2" d="M11.71,6.58c0-.27-.18-.56-.5-.5a.31.31,0,0,0-.1,0l-.09,0c-.18,0-.29-.38-.36-.51s-.17-.46-.4-.52-.38-.23-.59-.21S9.09,5,8.82,5A26.21,26.21,0,0,0,6,5s-.45-.15-.35.25c0,.11,0,.18,0,.22h0l-.07,0c-.19.08-.16.29,0,.41A1.41,1.41,0,0,1,5,6.44a.24.24,0,0,0-.11.15.52.52,0,0,0-.72-.2.8.8,0,0,0-.22.87.86.86,0,0,0,.48.63l0,0a.11.11,0,0,0,0,.08,1,1,0,0,1,.07.15c0,.11.09.24.15.35a.41.41,0,0,0,.14.15.27.27,0,0,0,.32,0,.24.24,0,0,0,.08-.09,1.3,1.3,0,0,0,.1.15,0,0,0,0,0,0,0,12.48,12.48,0,0,1,.61,1.34c.08.23.16.46.23.7l.06.27a.27.27,0,0,0,.06.12.85.85,0,0,0,.15.3.29.29,0,0,0,.32,0h0a2,2,0,0,0,.28.11,3.88,3.88,0,0,0,.9,0,6.32,6.32,0,0,0,.87,0,1.27,1.27,0,0,0,.38-.11l.24-.18h.05l.12,0a.48.48,0,0,0,.16-.19,1.56,1.56,0,0,0,.11-.41A7.21,7.21,0,0,1,10,9.85a7.59,7.59,0,0,1,.3-.84.22.22,0,0,0,0-.08.38.38,0,0,0,.11-.11l.23-.44a.28.28,0,0,0,.33-.2.09.09,0,0,0,0,0,.19.19,0,0,0,0-.08s0-.08,0-.11h0l.2-.2a2,2,0,0,0,.35-.51A1.4,1.4,0,0,0,11.71,6.58Z" transform="translate(0 -2.36)"/><path class="cls-7" d="M9.22,30.13a2.1,2.1,0,0,0-.09-.5.4.4,0,0,0-.67-.12,2.53,2.53,0,0,1-.34-.07,2.33,2.33,0,0,0-.46-.08,4,4,0,0,0-1,.08c-.3,0-.6.1-.89.16H5.62l-.15,0a1.3,1.3,0,0,0-.65.3.64.64,0,0,0-.39.2.83.83,0,0,0-.09.6c.08.29.36.29.6.28a.32.32,0,0,0,.14,0A5.42,5.42,0,0,0,6,31c.32,0,.63,0,.95,0h.92a4.39,4.39,0,0,1,1,.07.35.35,0,0,0,.45-.34C9.25,30.51,9.24,30.32,9.22,30.13Z" transform="translate(0 -2.36)"/><path class="cls-7" d="M11.88,29.36h-.42c-.21,0-.41,0-.62,0a1.45,1.45,0,0,0-.55,0c-.41.13-.42.6-.33,1a.57.57,0,0,0,0,.39c.14.3.44.27.72.27l1.85,0c.13,0-.75-.06-.62-.06" transform="translate(0 -2.36)"/><path class="cls-8" d="M11,7.62a2.09,2.09,0,0,1-.11.3,7.22,7.22,0,0,0-1,3.14" transform="translate(0 -2.36)"/><path class="cls-8" d="M11.07,5.27a4.86,4.86,0,0,1,.07,1.37,4.58,4.58,0,0,1-.18,1" transform="translate(0 -2.36)"/><path class="cls-8" d="M11.05,5.2l0,.07" transform="translate(0 -2.36)"/><path class="cls-8" d="M5.18,8.55a9.48,9.48,0,0,1,1.12,2.9" transform="translate(0 -2.36)"/><path class="cls-8" d="M4.6,5.7a4.18,4.18,0,0,0,0,.61" transform="translate(0 -2.36)"/><path class="cls-8" d="M4.86,6.57a.57.57,0,0,0-.25-.21.54.54,0,0,0-.43,0s-.43.16-.32.85.67.7.8,1.12l0,.1c0,.05,0,.3.24.26s.18-.06.26-.3" transform="translate(0 -2.36)"/><path class="cls-8" d="M4.5,7.21l.07.07a1.46,1.46,0,0,1,.21.25" transform="translate(0 -2.36)"/><path class="cls-8" d="M11.22,6l.16,0s.43.12.38.82-.62.75-.72,1.18a.77.77,0,0,0,0,.1s0,.3-.23.27a.19.19,0,0,1-.12,0" transform="translate(0 -2.36)"/><path class="cls-8" d="M4.81,6.5C5.47,6.31,5.74,5,5.74,5a24.68,24.68,0,0,0,4.45-.19" transform="translate(0 -2.36)"/><path class="cls-9" d="M8.11,11.71h0Z" transform="translate(0 -2.36)"/><path class="cls-9" d="M8,11.73H8Z" transform="translate(0 -2.36)"/><path class="cls-8" d="M10.79,29.57a2.41,2.41,0,0,1,1-.24" transform="translate(0 -2.36)"/><path class="cls-8" d="M10.07,29.42,10,30.52s-.06.44.3.43H12.7" transform="translate(0 -2.36)"/><line class="cls-8" x1="9.98" y1="28.28" x2="11.95" y2="28.28"/><path class="cls-8" d="M8.37,29.57a3.13,3.13,0,0,0-2-.18c-1.36.21-2,.63-2.1,1.22,0,0-.06.34.27.34" transform="translate(0 -2.36)"/><path class="cls-8" d="M9.09,29.42l.11,1.1s.07.44-.3.43H4.54" transform="translate(0 -2.36)"/><line class="cls-8" x1="9.19" y1="28.28" x2="4.34" y2="28.28"/><polyline class="cls-8" points="12.05 26.85 9.53 26.99 8.76 18.11"/><line class="cls-8" x1="12.06" y1="26.85" x2="11.47" y2="20.23"/><polyline class="cls-8" points="8.02 27.06 9.27 27.02 8.48 18.14"/><line class="cls-8" x1="6.74" y1="26.92" x2="5.99" y2="20.36"/><line class="cls-8" x1="7.29" y1="12.91" x2="6.17" y2="8.86"/><line class="cls-8" x1="7.88" y1="20.33" x2="7.58" y2="15.76"/><path class="cls-8" d="M7.88,22.69c-1.82.1-3-.05-2.9-.29,0,0,0-.83,0-.83" transform="translate(0 -2.36)"/><line class="cls-8" x1="9.36" y1="15.76" x2="7.63" y2="15.91"/><line class="cls-8" x1="9.42" y1="16.38" x2="7.68" y2="16.54"/><path class="cls-10" d="M7.78,18.61A.54.54,0,0,1,8.27,18l.37,0a.53.53,0,0,1,.58.49.53.53,0,0,1-.49.58l-.37,0A.54.54,0,0,1,7.78,18.61Zm.51-.33a.27.27,0,0,0-.25.3.28.28,0,0,0,.3.26l.37,0A.3.3,0,0,0,9,18.5a.28.28,0,0,0-.31-.25Z" transform="translate(0 -2.36)"/><line class="cls-8" x1="8.21" y1="18.16" x2="9" y2="18.09"/><path class="cls-11" d="M9.31,18.17h0c.06,0,.09,0,.1.1a2.16,2.16,0,0,1,0,.36.12.12,0,0,1-.1.1.09.09,0,0,1-.15,0v-.2s0-.15,0-.19S9.26,18.1,9.31,18.17Z" transform="translate(0 -2.36)"/><path class="cls-11" d="M8.2,18.3a2,2,0,0,1,.35,0h0c.13,0,.24,0,.31.11a.37.37,0,0,1,0,.34.09.09,0,0,1-.14,0H8.62a.18.18,0,0,0-.12,0l-.17,0a.32.32,0,0,1-.28-.2A.22.22,0,0,1,8.2,18.3Z" transform="translate(0 -2.36)"/><path class="cls-11" d="M7.63,18.32c0-.11.19,0,.15.07a.37.37,0,0,0,0,.18c0,.06,0,.12,0,.19s-.15.12-.17,0A.86.86,0,0,1,7.63,18.32Z" transform="translate(0 -2.36)"/><path class="cls-12" d="M6.56,19l.09,1c.07.84-.31,1.56-.85,1.6s-1-.59-1.11-1.43l-.05-.55" transform="translate(0 -2.36)"/><polygon class="cls-12" points="6.67 16.48 4.54 17.24 4.48 16.58 6.61 15.81 6.67 16.48"/><path class="cls-12" d="M10.65,18.53l.1,1c.09.84.6,1.47,1.14,1.41" transform="translate(0 -2.36)"/><polyline class="cls-12" points="11.36 15.51 10.44 15.37 10.51 16.04 11.22 16.14"/><polyline class="cls-8" points="6.19 8.44 5.58 10.1 6.12 10.58 5.84 11.01 7.08 12.91"/><polyline class="cls-8" points="9.85 20.33 9.31 13.47 9.91 8.74"/><path class="cls-8" d="M11.73,22.46c-.52.09-1.16.17-1.88.23" transform="translate(0 -2.36)"/><polyline class="cls-8" points="9.89 8.44 10.67 9.88 10.2 10.43 10.54 10.82 9.31 13.47"/><path class="cls-8" d="M6.22,11.39a4.2,4.2,0,0,0,1.92.24A4.29,4.29,0,0,0,10,11" transform="translate(0 -2.36)"/><path class="cls-11" d="M6.24,11.09v0c0,.09-.08.18-.13.09v0A.08.08,0,0,1,6.24,11.09Z" transform="translate(0 -2.36)"/><line class="cls-8" x1="7.82" y1="9.3" x2="6.76" y2="10.73"/><line class="cls-8" x1="8.28" y1="9.26" x2="9.67" y2="10.62"/><path class="cls-8" d="M10.13,11.23l2.69,2.41" transform="translate(0 -2.36)"/><path class="cls-8" d="M5.86,11.58A5.86,5.86,0,0,0,4.59,13" transform="translate(0 -2.36)"/><path class="cls-8" d="M10.19,4.78s.18,1.23.92,1.35" transform="translate(0 -2.36)"/><line class="cls-8" x1="8.15" y1="9.85" x2="8.49" y2="15.6"/><path class="cls-11" d="M11.17,5.84a.28.28,0,0,1,0-.13,2,2,0,0,0-.06-.34A.52.52,0,0,0,11,5.19a.57.57,0,0,0-.13-.08.23.23,0,0,0-.21,0,.18.18,0,0,0,0,.17l.05.18a.17.17,0,0,0,0,.12,1.75,1.75,0,0,0,.2.35.19.19,0,0,0,.22.07A.27.27,0,0,0,11.15,6,.18.18,0,0,0,11.17,5.84Z" transform="translate(0 -2.36)"/><path class="cls-11" d="M5.5,5.52a.18.18,0,0,0-.23,0l0,0h0l-.06,0h0l-.05,0a2.84,2.84,0,0,0-.31.06.25.25,0,0,0-.17.19,1.37,1.37,0,0,0,0,.19,1.15,1.15,0,0,0,0,.19.36.36,0,0,0,0,.09.22.22,0,0,0,.13.1.19.19,0,0,0,.13,0A.17.17,0,0,0,5,6.36a.16.16,0,0,0,.1,0,.61.61,0,0,0,.16-.12l.13-.17a1.49,1.49,0,0,0,.18-.3A.18.18,0,0,0,5.5,5.52Z" transform="translate(0 -2.36)"/><path class="cls-11" d="M5.18,5.59h0S5.17,5.6,5.18,5.59Z" transform="translate(0 -2.36)"/><path class="cls-13" d="M8.76,6a.64.64,0,0,1,.41-.15A.61.61,0,0,1,9.17,7a.62.62,0,0,1-.31-.08" transform="translate(0 -2.36)"/><path class="cls-8" d="M10.13,4.11s-.82-2.31-4-1.29C4,3.49,4.59,6.31,4.59,6.31" transform="translate(0 -2.36)"/><path class="cls-8" d="M10.11,4.06s.94-.15,1.17,2" transform="translate(0 -2.36)"/><path class="cls-11" d="M11.16,4.76s-.05-.12-.08-.17l0,0a1.83,1.83,0,0,0-.13-.16l0,0-.16-.12-.06,0-.19-.07a.38.38,0,0,0-.21,0,.37.37,0,0,0-.17,0s0,0,0,0A2.32,2.32,0,0,0,8.92,3a1.73,1.73,0,0,0-.49-.15,1.05,1.05,0,0,0-1.4,0,3,3,0,0,0-1.44.4,1.84,1.84,0,0,0-.22.17.46.46,0,0,0-.22.13,1.77,1.77,0,0,0-.31.55c-.08.14-.16.3-.23.45a.57.57,0,0,0,0,.54.36.36,0,0,0,0,.1h0a1.55,1.55,0,0,1-.07.23.52.52,0,0,0,1,.4,1.09,1.09,0,0,0,.14-.43c0-.17.09-.34.14-.5a6,6,0,0,0,1,0h.94c.65,0,1.29-.06,1.93-.13a.58.58,0,0,0,.25-.09.41.41,0,0,0,.05.19L10,5a.56.56,0,0,0,.2.11h0l0,0,0,0h0a.54.54,0,0,0,.07.13.44.44,0,0,0,.14.13.36.36,0,0,0,.2.06.35.35,0,0,0,.2,0l.12,0a.58.58,0,0,0,.19-.19l0-.12a.42.42,0,0,0,0-.27A.64.64,0,0,1,11.16,4.76Z" transform="translate(0 -2.36)"/><polyline class="cls-14" points="8.32 9.67 9.19 14.11 8.49 15.37 7.82 14.11 7.96 9.67"/><path class="cls-13" d="M9.73,8.27a23.74,23.74,0,0,1-2.8.11,1.33,1.33,0,0,0,1.45,1.1A1.24,1.24,0,0,0,9.73,8.27Z" transform="translate(0 -2.36)"/><path class="cls-15" d="M8.63,5.77c0,.18.23,2,.23,2L8,7.7" transform="translate(0 -2.36)"/><circle class="cls-13" cx="7.48" cy="4.12" r="0.61"/><path class="cls-11" d="M9.19,6.19a.23.23,0,0,0,0,.45A.23.23,0,0,0,9.19,6.19Z" transform="translate(0 -2.36)"/><path class="cls-11" d="M7.5,6.26a.22.22,0,0,0,0,.44A.22.22,0,0,0,7.5,6.26Z" transform="translate(0 -2.36)"/><circle class="cls-14" cx="8.15" cy="9.74" r="0.44"/><path class="cls-8" d="M13.16,17.12c-.1-.56-.22-1.3-.31-2" transform="translate(0 -2.36)"/><path class="cls-8" d="M20.36,19.42c2.14,3.16,2.18,11.27,2.18,11.27,0,.28-2.36.5-5.27.5S12,31,12,30.69c0,0-1.09-8.61.87-12" transform="translate(0 -2.36)"/><path class="cls-8" d="M19.28,15.1A14,14,0,0,1,19.05,17" transform="translate(0 -2.36)"/><path class="cls-8" d="M12.89,15.44c1.33-1,3.62-.28,3.62-.28a3.71,3.71,0,0,1,2.74.28" transform="translate(0 -2.36)"/><path class="cls-8" d="M9.4,9.1a4.6,4.6,0,0,1-2,.11" transform="translate(0 -2.36)"/><path class="cls-13" d="M18,9.12a24.76,24.76,0,0,1-2.78-.3,1.33,1.33,0,0,0,1.28,1.3A1.22,1.22,0,0,0,18,9.12Z" transform="translate(0 -2.36)"/><path class="cls-8" d="M17.54,9.89a4.64,4.64,0,0,1-2-.18" transform="translate(0 -2.36)"/><path class="cls-8" d="M18.8,18.23a4.6,4.6,0,0,1-1.06.11" transform="translate(0 -2.36)"/><path class="cls-8" d="M13.35,18.11a7.05,7.05,0,0,0,1.05.12" transform="translate(0 -2.36)"/><path class="cls-8" d="M19.05,10.71a4.78,4.78,0,0,0-1.13,2.13" transform="translate(0 -2.36)"/><path class="cls-8" d="M13.66,9.9c.5,1.2.92,1.78.84,2.61" transform="translate(0 -2.36)"/><path class="cls-8" d="M20.32,7.72c-1.47-.17-1.09-1.23-1.7-1.87a1.68,1.68,0,0,0-1.52-.41L17,4.58" transform="translate(0 -2.36)"/><path class="cls-8" d="M13,7.12c1.49.06,1.28-1,2-1.58a1.69,1.69,0,0,1,1.57-.16l.31-.89" transform="translate(0 -2.36)"/><path class="cls-8" d="M17.92,12.84a4.11,4.11,0,0,1,2.41,2.85" transform="translate(0 -2.36)"/><path class="cls-8" d="M20.37,19.32a2.23,2.23,0,0,1-.65.12c-.23,0-.74-.2-.7-.65a.25.25,0,0,1,.31-.2,1.55,1.55,0,0,0,1.11-.14.16.16,0,0,1,.23.09c.08.17.13.36-.05.87a1.8,1.8,0,0,1-.08.21" transform="translate(0 -2.36)"/><path class="cls-8" d="M19.08,19.12s-.49.19-.66-.12c0,0-.2-.27.34-.59,0,0,1.12-.69,1.5.1" transform="translate(0 -2.36)"/><path class="cls-8" d="M19.4,17.75a3.14,3.14,0,0,1-.93.17s-.59,0-.59-.45c0,0,0-.29.63-.36a4,4,0,0,0,.86-.12c.39-.1.51.11.41.45s-.21.69-.21.69" transform="translate(0 -2.36)"/><line class="cls-8" x1="14.89" y1="14.53" x2="12.35" y2="14.93"/><path class="cls-8" d="M15.26,18c-.08,0-3.32.94-3.32.94s-.8.22-.65-.67.47-2.29.47-2.29a5.74,5.74,0,0,1,2.75-3.55" transform="translate(0 -2.36)"/><path class="cls-8" d="M16.87,4.49a1.14,1.14,0,0,0-1-.82c-.86-.08-1.95.78-2.56,2.52l.18.12" transform="translate(0 -2.36)"/><path class="cls-8" d="M13.27,6.19S12.33,6.35,12,8a6.74,6.74,0,0,0,.08,1.87,5.92,5.92,0,0,0-.56,2.43" transform="translate(0 -2.36)"/><path class="cls-8" d="M14,7a17.36,17.36,0,0,1-.68,4" transform="translate(0 -2.36)"/><path class="cls-8" d="M17,4.49a1.27,1.27,0,0,1,1.24-.59c.86.09,1.76,1.14,2,3l-.2.09" transform="translate(0 -2.36)"/><path class="cls-8" d="M20.25,6.86s.9.34.88,2a6.4,6.4,0,0,1-.44,1.83c.27.28.19,3.09-.75,3.74" transform="translate(0 -2.36)"/><path class="cls-8" d="M19.43,7.55a16.7,16.7,0,0,0-.2,4.2" transform="translate(0 -2.36)"/><path class="cls-16" d="M15.15,17c.06.07.14.08.22.13l.13.11a.58.58,0,0,0,.44.21.43.43,0,0,0,.23-.1l.08-.07.13,0a.88.88,0,0,0,.28,0c.39,0,.72-.25.7-.65,0-.05,0-.13,0-.2a.67.67,0,0,0,.11-.65c-.06-.16-.2-.24-.26-.39-.12-.33-.28-.79-.73-.66l-.19.14s-.12-.11-.14-.12c-.2-.09-.38,0-.57.09a.87.87,0,0,0-.61.92C15,16.11,14.86,16.67,15.15,17Z" transform="translate(0 -2.36)"/><path class="cls-8" d="M15.91,16.07a.16.16,0,0,0,0,.09.42.42,0,0,0,.59.21.49.49,0,0,0,.21-.72.61.61,0,0,0-.84-.24.75.75,0,0,0-.26.21" transform="translate(0 -2.36)"/><path class="cls-8" d="M16.37,14.86c-.13-.15-.39-.3-.91,0-.8.44-.38,1-.38,1" transform="translate(0 -2.36)"/><path class="cls-8" d="M15.11,15.81a.94.94,0,0,0-.07.91.78.78,0,0,0,1.2.36" transform="translate(0 -2.36)"/><path class="cls-8" d="M16.32,14.81a.55.55,0,0,1,.8.15.75.75,0,0,1,.11.71" transform="translate(0 -2.36)"/><path class="cls-8" d="M17.26,15.54s.2,0,.27.4-.14.45-.2.49" transform="translate(0 -2.36)"/><path class="cls-8" d="M17.4,16.39a.57.57,0,0,1-.24.72c-.43.27-.81.32-1,0" transform="translate(0 -2.36)"/><path class="cls-8" d="M16.3,17.29a.58.58,0,0,1-.48.14.49.49,0,0,1-.35-.26" transform="translate(0 -2.36)"/><path class="cls-16" d="M14.28,18.9a.73.73,0,0,0,.7.26.77.77,0,0,0,.58.2.55.55,0,0,0,.38-.26l0,0a.52.52,0,0,0,.59-.17.75.75,0,0,0,0-1.05.77.77,0,0,0-.19-.68.48.48,0,0,0-.56-.38l-.1,0a.43.43,0,0,0-.31.12.24.24,0,0,0-.19-.13H15a1,1,0,0,0-.25,0,.9.9,0,0,0-.42.16.54.54,0,0,0-.18.34A5,5,0,0,1,14,18,1,1,0,0,0,14.28,18.9Z" transform="translate(0 -2.36)"/><path class="cls-8" d="M15.1,18.3a.44.44,0,0,0,.58.2.54.54,0,0,0,.16-.85.66.66,0,0,0-.95,0,.61.61,0,0,0-.23.48" transform="translate(0 -2.36)"/><path class="cls-8" d="M14.44,17.74a.34.34,0,0,0-.3.07c-.16.13-.23.35-.1.74s.57.83,1,.66" transform="translate(0 -2.36)"/><path class="cls-8" d="M16.59,17.84a.77.77,0,0,1,.08.93c-.28.42-.57.42-.74.38" transform="translate(0 -2.36)"/><path class="cls-16" d="M18.61,18.36a.59.59,0,0,0,.11-.51c0-.1-.12-.18-.14-.27l0,0,.12-.13a.55.55,0,0,0,0-.51.26.26,0,0,0,0-.23.66.66,0,0,0-.48-.39H18s0,0,0-.07c-.29-.27-.94,0-1.21.21s-.64.45-.52,1a.93.93,0,0,0,.13.34c0,.07.15.12.18.18s0,.37.17.55a.56.56,0,0,0,.45.23,1.23,1.23,0,0,0,.33,0s.28-.09.22-.09.29.11.46.06A1,1,0,0,0,18.61,18.36Z" transform="translate(0 -2.36)"/><path class="cls-8" d="M17.83,17.05c-.28-.46-.61-.28-.74-.18a.66.66,0,0,0,0,1,.77.77,0,0,0,.22.16" transform="translate(0 -2.36)"/><path class="cls-8" d="M16.69,16.6a.71.71,0,0,0-.57.71c0,.49.23.64.49.69" transform="translate(0 -2.36)"/><path class="cls-8" d="M17.83,18.51a.57.57,0,0,1-.62.26.75.75,0,0,1-.69-.76" transform="translate(0 -2.36)"/><path class="cls-8" d="M18.59,17.47a.79.79,0,0,1,.15.71c-.11.42-.73.68-1,.46" transform="translate(0 -2.36)"/><path class="cls-8" d="M18,16.33a.65.65,0,0,1,.71.4c.26.62,0,.84,0,.84" transform="translate(0 -2.36)"/><path class="cls-16" d="M14.36,17.7a.44.44,0,0,0,.39-.15c.06-.06.07-.17.12-.22h0l.14,0a.44.44,0,0,0,.37-.2c.06,0,.09-.18.13-.25s.15-.18.08-.36-.07-.12-.1-.18l0,0s0,0,0-.05c0-.59-.42-.67-.68-.77s-.6-.25-.91.07a.7.7,0,0,0-.17.25,1.91,1.91,0,0,0,0,.21c-.07.12-.24.2-.3.37a.48.48,0,0,0,0,.42.92.92,0,0,0,.17.22s.19.16.16.12.06.25.16.35A.79.79,0,0,0,14.36,17.7Z" transform="translate(0 -2.36)"/><path class="cls-8" d="M14.36,16.8l.08.06a.4.4,0,0,0,.55-.22.51.51,0,0,0-.3-.69c-.12,0-.58-.09-.7.49" transform="translate(0 -2.36)"/><path class="cls-8" d="M13.66,16a.7.7,0,0,1,.3-.57c.36-.3.83,0,.83,0s0,0,.3.17" transform="translate(0 -2.36)"/><path class="cls-8" d="M13.91,17.22a.5.5,0,0,1-.47-.33.64.64,0,0,1,.22-.83" transform="translate(0 -2.36)"/><path class="cls-8" d="M15,17.29a.65.65,0,0,1-.42.42.63.63,0,0,1-.77-.51" transform="translate(0 -2.36)"/><path class="cls-8" d="M15,18.94a.59.59,0,0,0,.52.42c.45.06.59-.19.59-.19" transform="translate(0 -2.36)"/><path class="cls-8" d="M17.34,16.2a.78.78,0,0,1,.66.14" transform="translate(0 -2.36)"/><path class="cls-8" d="M15,17.3s.45,0,.6-.31" transform="translate(0 -2.36)"/><line class="cls-8" x1="30.04" y1="9.38" x2="30.74" y2="7.37"/><line class="cls-8" x1="22.03" y1="8.48" x2="21.97" y2="6.25"/><path class="cls-8" d="M22.17,7.88c0,.26,1.85.71,4.21,1s4.29.31,4.33.05S28.94,7.32,26.59,7,22.2,7.61,22.17,7.88Z" transform="translate(0 -2.36)"/><path class="cls-8" d="M30.64,8.78a.57.57,0,0,1,.27.16.52.52,0,0,1,.32.09c.16.11.24.25.17.32h0l0,0c0,.09-.11.21-.33.27a.76.76,0,0,1-.36,0,.67.67,0,0,1-.37.12.89.89,0,0,1-.35,0,.78.78,0,0,1-.34.07.85.85,0,0,1-.35-.06A.76.76,0,0,1,29,9.8a.82.82,0,0,1-.36-.09.79.79,0,0,1-.37,0,.81.81,0,0,1-.36-.1.8.8,0,0,1-.37,0,.76.76,0,0,1-.34-.1,1,1,0,0,1-.36,0l-.2-.05" transform="translate(0 -2.36)"/><path class="cls-8" d="M22.26,7.77a.49.49,0,0,0-.3.08.48.48,0,0,0-.33,0c-.18.06-.29.18-.24.26h0l0,0c-.06.07.06.23.26.34a.74.74,0,0,0,.34.11.71.71,0,0,0,.34.2.87.87,0,0,0,.34,0A.87.87,0,0,0,23,9a.92.92,0,0,0,.36,0,.78.78,0,0,0,.33.14.76.76,0,0,0,.37,0,.71.71,0,0,0,.35.13.74.74,0,0,0,.37,0,.71.71,0,0,0,.35.13,1,1,0,0,0,.35,0,.76.76,0,0,0,.34.1H26" transform="translate(0 -2.36)"/><path class="cls-8" d="M26.59,9.58a.94.94,0,0,1-.3,0A.71.71,0,0,1,26,9.5" transform="translate(0 -2.36)"/><path class="cls-8" d="M25.51,12.3a1.29,1.29,0,0,0-.85-.31,1.34,1.34,0,0,0-1.48.9l-2.85,2.8-.07.75" transform="translate(0 -2.36)"/><path class="cls-8" d="M26.7,12.19l-1.19.11" transform="translate(0 -2.36)"/><path class="cls-8" d="M25.4,13.25s1.14-.2,1.64-.27" transform="translate(0 -2.36)"/><path class="cls-8" d="M26.7,12.19c.4,0,1.14,0,1.22.35s-.39.37-.39.37L27,13" transform="translate(0 -2.36)"/><path class="cls-8" d="M26.68,12.2h0" transform="translate(0 -2.36)"/><path class="cls-8" d="M27.36,13.36l1,.05s.45,0,.41-.3c0-.13-.14-.22-.31-.29" transform="translate(0 -2.36)"/><path class="cls-8" d="M25.4,13.25l2,.11" transform="translate(0 -2.36)"/><path class="cls-8" d="M27.11,13.73l1,0s.45,0,.4-.3" transform="translate(0 -2.36)"/><path class="cls-8" d="M23.68,13.48l3.43.25" transform="translate(0 -2.36)"/><path class="cls-8" d="M29.65,11.76,29,11.69l-8.15-1a1.79,1.79,0,0,0,1.28.87" transform="translate(0 -2.36)"/><path class="cls-8" d="M30.15,12.47a1.85,1.85,0,0,0,1-.53l-2-.24" transform="translate(0 -2.36)"/><path class="cls-8" d="M23.52,12.2a2.14,2.14,0,0,1-1.32-.63l3.05.37,4.42.54a1.88,1.88,0,0,0,.48,0" transform="translate(0 -2.36)"/><path class="cls-8" d="M23.66,12.22l-.14,0" transform="translate(0 -2.36)"/><path class="cls-8" d="M29.64,12.49a2.23,2.23,0,0,1-1.57.27l-.15,0" transform="translate(0 -2.36)"/><path class="cls-8" d="M23.92,13.56c0,.08-2.34,4-2.34,4s-.55,1.11-1.53.57l-.33-.22" transform="translate(0 -2.36)"/><path class="cls-8" d="M16,6.7a.7.7,0,0,1,0,1.4.66.66,0,0,1-.25,0" transform="translate(0 -2.36)"/><path class="cls-8" d="M15.35,7.72a.66.66,0,0,1-.07-.32.79.79,0,0,1,.1-.37" transform="translate(0 -2.36)"/><path class="cls-8" d="M18.17,7.37a.57.57,0,0,1,0,.22.73.73,0,0,1-.15.44" transform="translate(0 -2.36)"/><path class="cls-8" d="M17.61,8.29h-.1a.7.7,0,0,1,0-1.4.78.78,0,0,1,.21,0" transform="translate(0 -2.36)"/><circle class="cls-15" cx="16.64" cy="5.93" r="0.57"/><path class="cls-8" d="M15.28,7.35a2.87,2.87,0,0,1,1.36.19,2.66,2.66,0,0,1,1.5.18" transform="translate(0 -2.36)"/><path class="cls-17" d="M2.44,16.6a1.18,1.18,0,0,1,.07-.2c-.08-.08-.32,0-.31-.14-.16-.18-.08-.49-.15-.73a.4.4,0,0,1,.51-.46l.07,0,0,0a.41.41,0,0,1,.25.08A1.7,1.7,0,0,0,4,15.57c.35,0,.77-.66,1.13-.66s.38.83.28,1.11h0c0,.58-.07,1.17-.12,1.76a17.62,17.62,0,0,1,0,1.78.33.33,0,0,1-.14.27q0,.34,0,.66s.59.65.59.68-.15.57-.12.74c.06.38-.86-.33-1-.69l-.1-.28a.4.4,0,0,1-.17-.35s0,0,0,0l0-.09a.83.83,0,0,1,0-.15.76.76,0,0,1,0-.21,2.7,2.7,0,0,1-1.48-1.19" transform="translate(0 -2.36)"/><path class="cls-17" d="M2.88,18.92a3.85,3.85,0,0,1-.24-.5,3.37,3.37,0,0,1-.2-1.82" transform="translate(0 -2.36)"/><path class="cls-4" d="M4.73,17a.49.49,0,0,0-.21-.46h0a6,6,0,0,1-1.92.25.66.66,0,0,1-.4-.17.54.54,0,0,1-.16-.4.25.25,0,0,1,0-.14A2.35,2.35,0,0,1,2,15.72a.45.45,0,0,1-.11,0h0l-.09,0c-.07.31-.18.62-.25.92a6.42,6.42,0,0,0-.22,1.16l.1.53c.08.06.23.33.37.37s.42,0,.67,0a5.06,5.06,0,0,0,.68.1,6.36,6.36,0,0,1,1.71.23C4.79,18.35,4.75,17.41,4.73,17Z" transform="translate(0 -2.36)"/><path class="cls-1" d="M5.35,16.88a.47.47,0,0,0-.21-.45l.05.21c-.63.12-.64,2.35.23,2.32C5.41,18.24,5.37,17.31,5.35,16.88Z" transform="translate(0 -2.36)"/><path class="cls-8" d="M2.11,15.09a2.93,2.93,0,0,0,0,.53.86.86,0,0,0,.79,1.05" transform="translate(0 -2.36)"/><path class="cls-8" d="M4.34,20a2.07,2.07,0,0,1-1.46-1.09" transform="translate(0 -2.36)"/><path class="cls-8" d="M5.48,16.59l0-1.05a1.63,1.63,0,0,0-.19-.83" transform="translate(0 -2.36)"/><path class="cls-8" d="M13.05,16.47c0,.06-.16.7-.16.7" transform="translate(0 -2.36)"/><path class="cls-2" d="M5.86,12.72c.33,1.42-.67,2.53-2.14,2.88S.87,15.39.53,14a2.69,2.69,0,0,1,2.06-3.2A2.7,2.7,0,0,1,5.86,12.72Z" transform="translate(0 -2.36)"/><path class="cls-2" d="M.51,13.89S0,14,.29,14.65A.51.51,0,0,0,1,15" transform="translate(0 -2.36)"/><path class="cls-2" d="M5.86,12.64s.53-.1.54.58a.52.52,0,0,1-.47.58" transform="translate(0 -2.36)"/><path class="cls-8" d="M.51,13.89S0,14,.29,14.65A.51.51,0,0,0,1,15" transform="translate(0 -2.36)"/><path class="cls-8" d="M5.86,12.64s.53-.1.54.58a.52.52,0,0,1-.47.58" transform="translate(0 -2.36)"/><path class="cls-8" d="M5.86,12.72c.33,1.42-.67,2.53-2.14,2.88S.87,15.39.53,14a2.69,2.69,0,0,1,2.06-3.2A2.7,2.7,0,0,1,5.86,12.72Z" transform="translate(0 -2.36)"/><path class="cls-8" d="M4.07,13.37a1,1,0,0,1-1.71.44" transform="translate(0 -2.36)"/><path class="cls-8" d="M2.92,10.38a.47.47,0,0,0-.41.35.5.5,0,0,0-.45-.31" transform="translate(0 -2.36)"/><path class="cls-8" d="M2.52,10.06a1.58,1.58,0,0,0,0,.67,1.13,1.13,0,0,0-.33-.58" transform="translate(0 -2.36)"/><circle class="cls-16" cx="1.65" cy="11.71" r="0.42"/><circle class="cls-16" cx="4.93" cy="10.77" r="0.42"/><circle class="cls-13" cx="2.18" cy="10.28" r="0.62"/><circle class="cls-13" cx="3.65" cy="9.9" r="0.62"/><path class="cls-15" d="M2.84,13.32A.46.46,0,0,1,2.63,13,.44.44,0,0,1,3,12.53a.43.43,0,0,1,.51.32.45.45,0,0,1-.06.34" transform="translate(0 -2.36)"/><path class="cls-11" d="M2.18,12.44a.2.2,0,0,0,0,.39A.2.2,0,0,0,2.18,12.44Z" transform="translate(0 -2.36)"/><path class="cls-11" d="M3.64,12.07a.2.2,0,0,0,0,.4A.2.2,0,0,0,3.64,12.07Z" transform="translate(0 -2.36)"/><path class="cls-8" d="M5.09,18.84c0,.13-.1.21-.15.21s-.23-.55-.2-1.22.15-1.2.29-1.19l0,0" transform="translate(0 -2.36)"/><path class="cls-8" d="M4.89,19l-3.15-.33s-.5,0-.44-.72a14.63,14.63,0,0,1,.52-2.24" transform="translate(0 -2.36)"/><line class="cls-8" x1="4.98" y1="14.27" x2="2.1" y2="14.31"/><line class="cls-8" x1="4.93" y1="14.36" x2="5.65" y2="14.28"/><path class="cls-8" d="M5.57,18.83s-.77,0-.77,0" transform="translate(0 -2.36)"/><path class="cls-2" d="M9.06,16.52a.63.63,0,0,0-.64-.47L8.3,16l-.07-.05h0c-.24-.21-.46-.47-.82-.44a1.61,1.61,0,0,0-.87.46,2.74,2.74,0,0,0-.55.63l0,.1a.39.39,0,0,0-.14.08h0a.54.54,0,0,0-.15.37s0,0,0,.05a.52.52,0,0,0-.16.37v0a.24.24,0,0,0,0,.08.66.66,0,0,0,0,.46.6.6,0,0,0,.72.28.74.74,0,0,0,.48-.45,1.05,1.05,0,0,0,.08-.34v-.12l.15,0H7a.53.53,0,0,0,.2.67.52.52,0,0,0,.7-.19l.21-.34h.09a.57.57,0,0,0,.38-.31.54.54,0,0,0,.05-.11A.51.51,0,0,0,9.06,16.52Z" transform="translate(0 -2.36)"/><path class="cls-8" d="M7.33,17.38s-.3.23-.5,0" transform="translate(0 -2.36)"/><path class="cls-8" d="M7,16.46s.61.41,1,.69" transform="translate(0 -2.36)"/><path class="cls-8" d="M7.72,15.57l-.13-.1a.73.73,0,0,0-1,.2" transform="translate(0 -2.36)"/><path class="cls-8" d="M8.28,16l-.56-.43" transform="translate(0 -2.36)"/><path class="cls-8" d="M6.5,15.84c-.29.33-.62.75-.8,1a1.47,1.47,0,0,0-.07.6" transform="translate(0 -2.36)"/><path class="cls-8" d="M6.64,15.67l-.14.17" transform="translate(0 -2.36)"/><path class="cls-8" d="M7.31,17.41a.77.77,0,0,0,.29.32" transform="translate(0 -2.36)"/><path class="cls-8" d="M7.87,15.68,9,16.55s.42.29.08.55a.54.54,0,0,1-.49,0" transform="translate(0 -2.36)"/><path class="cls-8" d="M8,17.15c.34.25.08.5.08.5l-.5.46a.36.36,0,0,1-.2.11s-.46,0,.05-.67" transform="translate(0 -2.36)"/><path class="cls-8" d="M7.9,17.78l.48-.46s.33-.29.09-.48L7.42,16" transform="translate(0 -2.36)"/><path class="cls-8" d="M6.94,17.45a1.09,1.09,0,0,1-1.53.87" transform="translate(0 -2.36)"/><path class="cls-8" d="M5.75,18.5c0,.21-.11.33-.18.33s-.2-.5-.18-1.11.14-1.09.26-1.08l0,0" transform="translate(0 -2.36)"/><path class="cls-8" d="M4.36,20.11A1.87,1.87,0,0,0,5,21.57" transform="translate(0 -2.36)"/><polyline class="cls-8" points="5.38 16.54 5.34 18.16 5.09 18.26"/><path class="cls-8" d="M5.34,20.52s.79.71.5,1.24-.82,0-.82,0" transform="translate(0 -2.36)"/></g></g></g></svg>