<svg xmlns="http://www.w3.org/2000/svg" viewBox="0 0 49.77 18.57"><defs><style>.cls-1{fill:#b56f26;}.cls-2{fill:#fff;}.cls-3{fill:none;stroke:#22234a;stroke-linecap:round;stroke-linejoin:round;stroke-width:0.4px;}.cls-4{fill:#22234a;}</style></defs><g id="Layer_2" data-name="Layer 2"><g id="Layer_1-2" data-name="Layer 1"><g id="cow_Group_" data-name="cow &lt;Group&gt;"><path class="cls-1" d="M.59,18.35A34.17,34.17,0,0,1,5,18.43a.16.16,0,0,0,.1,0,2.55,2.55,0,0,0,.78,0l2-.1a.3.3,0,0,0,.22-.13l.12,0a2.13,2.13,0,0,1,.44,0L9,18.3a.59.59,0,0,0,.43-.05.57.57,0,0,0,.16-.15l2.69.09q4,.12,8,.17,2,0,4,0c.67,0,1.34,0,2,0a1.6,1.6,0,0,0,.73-.16c1.55,0,3.09.06,4.64.07l4.87.06c.79,0,1.58,0,2.36,0a5.94,5.94,0,0,0,2.38-.24A1.43,1.43,0,0,0,42,16.25a4.91,4.91,0,0,0-1.23-1.69,19.13,19.13,0,0,0-1.63-1.35,1.84,1.84,0,0,0-.41-.24l.12-.53a3.85,3.85,0,0,0,.14-1.3.32.32,0,0,0,.09,0A29.62,29.62,0,0,0,42.93,9a3.76,3.76,0,0,1,1.7-.64,2.54,2.54,0,0,0,.48-.13,11.47,11.47,0,0,0,1,.79,1.2,1.2,0,0,0,1.32.13,1.06,1.06,0,0,0,.2-.17,1,1,0,0,0,.29.05h0a.73.73,0,0,0,.54.07.71.71,0,0,0,.51-.47l.11-.08a1.24,1.24,0,0,0,.37-1.31,3.77,3.77,0,0,0-.29-.61l0-.08c-.06-.12-.13-.24-.2-.36-.34-.6-.71-1.17-1.1-1.73a.41.41,0,0,0,0-.34,3.18,3.18,0,0,1-.23-.4l0-.05a.31.31,0,0,0,0-.1.38.38,0,0,0-.06-.23c0-.16.11-.31.12-.48a1.22,1.22,0,0,0-.27-.79l-.43-.68-.45-.7C46.25.41,46.1.19,45.75.2c-.55,0-1.11.07-1.67.11L44,.33c-1.17,0-2.33-.11-3.5-.08a.54.54,0,0,0-.18,0h0l-.57,0a.39.39,0,0,0-.22.08A8.43,8.43,0,0,1,36.93.15a.28.28,0,0,0-.15.54c.17,0,.27.23.39.35a1.79,1.79,0,0,0,.63.42h0a.39.39,0,0,0,.1.08,2.75,2.75,0,0,0,.63.28c-.73,0-1.45,0-2.18,0a21,21,0,0,0-3.17,0l-.16,0a.48.48,0,0,0-.18,0c-1.83,0-3.67.08-5.51.07-.91,0-1.79-.17-2.7-.09a11.45,11.45,0,0,1-2.55,0,.81.81,0,0,0-.22,0H21.8c-1.12.11-2.27.05-3.39.05H15.35a.69.69,0,0,0-.44-.15l-5.08,0a.61.61,0,0,0-.36.11,1.83,1.83,0,0,0-1.39.51,2.51,2.51,0,0,0-.8.82,5.38,5.38,0,0,0-.72,2.63.47.47,0,0,0,.05.26.8.8,0,0,0,0,.15c0,1.37-.07,2.74-.06,4.1a.73.73,0,0,0,.08.33c-.11,2.38-.17,4.76-.16,7.14a.45.45,0,0,0,0,.2l-.74,0a1.4,1.4,0,0,1-.54,0,3.36,3.36,0,0,1-.42-.22A7.51,7.51,0,0,0,4,17.29l-.1-.12a.55.55,0,0,0-.59-.07,2.92,2.92,0,0,0-1.06,0,6.26,6.26,0,0,0-1.81.71A.28.28,0,0,0,.59,18.35Z"/><path class="cls-2" d="M20.09,1.71a3.53,3.53,0,0,0,.4.08,5.06,5.06,0,0,0,1.1-.09,6.12,6.12,0,0,1,1.14,0c.48,0,.93.13,1.41.17a.36.36,0,0,0,.29-.12c.88,0,1.75.06,2.64,0s1.64-.08,2.45,0a16.16,16.16,0,0,0,1.84.06,3.35,3.35,0,0,0,.4-.05,2.89,2.89,0,0,1-.29,1.08,1.88,1.88,0,0,1-1.35.93A2.06,2.06,0,0,0,29.3,4a2.39,2.39,0,0,0-.5.6A3.19,3.19,0,0,1,27.71,5.8a2,2,0,0,1-1.66.08c-.57-.23-.92-.78-1.53-1a2.58,2.58,0,0,0-1.72.26A1.87,1.87,0,0,1,21.1,5a2.5,2.5,0,0,1-1-1.63A4.77,4.77,0,0,1,20,2.28C20.05,2.16,20.09,1.92,20.09,1.71Z"/><path class="cls-2" d="M15.86,9.41a1.23,1.23,0,0,0,1.05,1.12c.29,0,.57,0,.85,0a1.17,1.17,0,0,1,.57.3c.34.36.52.81,1,1a1.35,1.35,0,0,0,1.41-.35A2,2,0,0,0,21.28,10a1.63,1.63,0,0,0-.62-1.32,1.75,1.75,0,0,0-.7-.26.92.92,0,0,1-.51-.2,3.06,3.06,0,0,0-.51-.57,1.52,1.52,0,0,0-.71-.25C16.22,7.27,15.8,8.41,15.86,9.41Z"/><path class="cls-2" d="M7.11,9.6h.11a.74.74,0,0,1,0-.21,5.49,5.49,0,0,0,0-1.46c0-.51-.06-1-.06-1.52a8.94,8.94,0,0,1,.08-1.46,1.78,1.78,0,0,1,.29-.77l-.18,0a2.83,2.83,0,0,0,.11-.31c0-.1.07-.2.11-.31s0,0,0-.06h0a.34.34,0,0,1,.06-.12c.2.06.41.11.61.18a1.68,1.68,0,0,1,1.08.83,1.53,1.53,0,0,1,0,1.32c-.16.33-.57.64-.62,1A1.35,1.35,0,0,0,9,7.31,2.67,2.67,0,0,1,9.17,8a2.26,2.26,0,0,1-.24,1.35,2.11,2.11,0,0,1-1.82,1.1Z"/><path class="cls-2" d="M27.45,12.09c0-.11.05-.23.07-.35a1.58,1.58,0,0,0,.05-.38v-.13a4.13,4.13,0,0,0,.73-.38,2.78,2.78,0,0,1,1.54-.51,1.4,1.4,0,0,1,1.2.79,3.57,3.57,0,0,1,.25,1.49c0,.51.11,1,.64,1.14a4.52,4.52,0,0,1,1.29.46,2.22,2.22,0,0,1,.65,2.3h-.16a6,6,0,0,0-.61-.08,1,1,0,0,0-.38,0,.76.76,0,0,0-.22.11c-.22,0-.44-.05-.66-.08a6.22,6.22,0,0,1-2.1-.86A5.64,5.64,0,0,1,28,14.08a3.32,3.32,0,0,1-.47-2Z"/><path class="cls-2" d="M22.58,18.28c-.33,0-.67,0-1,0l-.9,0-.67,0a1,1,0,0,0,.06-.19.9.9,0,0,0-.22-.59,4,4,0,0,0-.89-.76,1.89,1.89,0,0,0-.49-.25.36.36,0,0,0-.07-.1,1.91,1.91,0,0,0-1.12-.32.34.34,0,0,0-.1,0h.06l-.12,0H17a2.67,2.67,0,0,0-.4,0l-.68.07a24.79,24.79,0,0,0-2.58-.08c-.7,0-1.25-.07-1.94,0a9,9,0,0,0,.93-1,2.55,2.55,0,0,0,.72-1.25,1.77,1.77,0,0,0,1.67.09,3.59,3.59,0,0,1,1.68-.74,2.41,2.41,0,0,1,1.68.6,4.09,4.09,0,0,0,1.45,1.06c.58.18,1.19.21,1.77.42,1.36.48,1.81,1.76,2.07,3.06A3.15,3.15,0,0,0,22.58,18.28Z"/><path class="cls-3" d="M44.71.25H46.2"/><line class="cls-3" x1="9.33" y1="1.67" x2="38.5" y2="1.83"/><path class="cls-3" d="M7.16,17,7.23,5.54A3.77,3.77,0,0,1,8.55,2.36"/><polyline class="cls-3" points="46.2 0.26 47.63 2.64 47.57 3.79"/><line class="cls-3" x1="49.3" y1="6.63" x2="47.57" y2="3.79"/><path class="cls-3" d="M40,5a5,5,0,0,0,.87,1.71c1.32,1.7,3.45,2.26,4.75,1.25"/><path class="cls-3" d="M39,11.18a9.34,9.34,0,0,1-.84,3.87"/><path class="cls-3" d="M36.53,5.15A7.54,7.54,0,0,1,38.81,9.5"/><line class="cls-3" x1="38.95" y1="11.18" x2="43.69" y2="8.43"/><path class="cls-3" d="M38.39,1.8a5.78,5.78,0,0,0,1.66.28"/><path class="cls-3" d="M45,.25,36.36.2a3.34,3.34,0,0,0,2,1.6"/><path class="cls-3" d="M49.3,6.63a1.59,1.59,0,0,1,.27.9,1.62,1.62,0,0,1-1.12,1.52"/><path class="cls-3" d="M47.05,8.69a1.4,1.4,0,0,0,1.38.36"/><path class="cls-3" d="M45.13,8.23s.47.39,1.13.89A.8.8,0,0,0,47.4,9l-.76-.73"/><ellipse class="cls-3" cx="48.38" cy="7.43" rx="0.45" ry="0.22" transform="translate(40.67 55.77) rotate(-89.67)"/><path class="cls-3" d="M11.5,16c1.15-.8,2.29-2.5,2.28-6.07"/><path class="cls-3" d="M.65,18.37a2.53,2.53,0,0,1-.45-.24A5.21,5.21,0,0,1,2.89,17a4,4,0,0,1,2.27.79H6.7"/><path class="cls-3" d="M9.48,1.66c-2.94,0-2.92,3.75-2.92,3.89s-.14,8.88-.22,12.14"/><path class="cls-4" d="M48.53,7.1a.15.15,0,0,0-.3,0v.47a.15.15,0,0,0,.3,0Z"/><path class="cls-3" d="M15.48,18.3l-7.4-.09s-1,.11-.92-1.37"/><path class="cls-3" d="M16.67,16.22s2.41-.06,3.27,1.45c0,0,.29.38.08.6"/><line class="cls-3" x1="10.31" y1="16.09" x2="16.67" y2="16.22"/><path class="cls-3" d="M28.77,9.31s-1,.4-1.22,2.24.41,3.86,4.15,4.88"/><path class="cls-3" d="M29.38,16.37l-.87,0a1.47,1.47,0,0,0-.79.3,10.58,10.58,0,0,0-1.13,1.22s-.37.47,1,.47h8.63c1.75,0,2.7-.14,2.7-1.71s-4.1-4.2-4.1-4.2"/><line class="cls-3" x1="36.97" y1="16.63" x2="31.26" y2="16.43"/><path class="cls-3" d="M29.38,16.37s.87.08.92.72a1,1,0,0,1,1-.66"/><path class="cls-3" d="M16,18.28A.64.64,0,0,1,15.8,18a.88.88,0,0,1-.16.35"/><path class="cls-3" d="M38.88,13c1.2.87,3.21,2.48,3.21,3.59,0,1.57-1,1.76-2.76,1.75H.59"/><line class="cls-3" x1="40.18" y1="16.33" x2="38.84" y2="16.33"/><path class="cls-3" d="M46,3.55A.65.65,0,0,0,44.8,3"/></g></g></g></svg>