<svg xmlns="http://www.w3.org/2000/svg" viewBox="0 0 44.06 27.11"><defs><style>.cls-1{fill:#fff;}.cls-2{fill:#b56f26;}.cls-3{fill:#f3a2a7;}.cls-4{fill:none;stroke:#22234a;stroke-linecap:round;stroke-linejoin:round;stroke-width:0.4px;}</style></defs><g id="Layer_2" data-name="Layer 2"><g id="Layer_1-2" data-name="Layer 1"><path class="cls-1" d="M38.26,24.46a.84.84,0,0,0,.07-.24c.07-2.77,0-5.54-.14-8.3a1,1,0,0,0,.12-.47,31.1,31.1,0,0,0,0-3.74,1.7,1.7,0,0,0-1-1.38c-.51-.25-.8-1.9-1.28-2.22-.82-.56-1.77.21-2.49-.47a6.26,6.26,0,0,1-1.52-2,1,1,0,0,0-.62-1.75c-1.45,0-2.9.08-4.36.1s-2.67-.08-4,0a11.48,11.48,0,0,0-1.66.4,3.75,3.75,0,0,1-1.49-.08,8.31,8.31,0,0,0-3.47-.22.89.89,0,0,0-.4.2c-2-.09-4-.21-5.93-.23a2.21,2.21,0,0,1,.35-.16,3.64,3.64,0,0,0,1.18-.55c.39-.35,0-.93-.49-.84a5,5,0,0,1-1.4,0c-.51,0-1-.1-1.52-.07s-1,.06-1.5,0a8.79,8.79,0,0,0-1.15,0,1.3,1.3,0,0,0,0-.52V2h0l0,.1a.49.49,0,0,1,0-.12,1.14,1.14,0,0,0,.1-.19l0-.13.08-.3a.41.41,0,0,0,0-.19A.6.6,0,0,0,5.75,1,.35.35,0,0,0,5.62.83.56.56,0,0,0,5.45.74l-.13,0a.59.59,0,0,0-.26.07,2.42,2.42,0,0,0-.31.69s-.24.09-.09-.12c0-.19,0-.59-.2-.63A.5.5,0,0,0,3.9,1a2.1,2.1,0,0,0-.22.59.61.61,0,0,0,0,.3,1.21,1.21,0,0,0,0,.5s0,.08,0,.12h0a.9.9,0,0,0-.45.31.55.55,0,0,0-.12.3,1.25,1.25,0,0,0-.19.34h0l-.12.19-.11.15s0,0,0,0l0,.06a2.87,2.87,0,0,0-.53.95,1.74,1.74,0,0,0,0,1,14.77,14.77,0,0,0-.82,1.24.92.92,0,0,0-.12.42,3.88,3.88,0,0,0-.59.84,2.11,2.11,0,0,0-.22.54A1.17,1.17,0,0,0,.6,10a.47.47,0,0,0,.13.11l.17.23a1.24,1.24,0,0,0,.48.31.86.86,0,0,0,.38.1.9.9,0,0,0,.4,0,.83.83,0,0,0,.38-.1l0,0a.85.85,0,0,0,.59-.13,9.32,9.32,0,0,1,1.34-.75l.2.16a1.52,1.52,0,0,0,.54.23,1.84,1.84,0,0,0,.74,0A27.2,27.2,0,0,0,9.58,12.2a1.17,1.17,0,0,0,.33.11c0,.2,0,.4,0,.6a4.6,4.6,0,0,0,.3,1.67c.06.32.13.64.21.95a3.66,3.66,0,0,0,2.23,2.59l.27.24a5.69,5.69,0,0,0,.69,1,2.11,2.11,0,0,0,.67.48,3.27,3.27,0,0,0,.83.33.52.52,0,0,0,.57-.23s0-.08,0-.13c0,.87,0,1.74,0,2.6a20.4,20.4,0,0,0,.09,2.82h0s0,.09,0,.14a.44.44,0,0,0,.08.2s0,0,0,.06a2.27,2.27,0,0,0-1.35.31c-.38.25-.28,1,.25.93l1-.08a1.53,1.53,0,0,0,.54-.13l.8.16c.38.06.8.09.95-.35a3.14,3.14,0,0,0,0-1.22s0-.06,0-.1a.24.24,0,0,0,0-.08c.08-2.13.15-4.25.22-6.38,0,0,0,0,0,0,1.78,0,3.57.16,5.34.28a.86.86,0,0,0,.62-.23l9.49,0a.91.91,0,0,0,.46-.13,4.89,4.89,0,0,0,.4.39,2.84,2.84,0,0,0,1.1.67.51.51,0,0,0,.28.24h0c-.07,1.55-.12,3.11-.16,4.67,0,.19,0,.38,0,.57a.44.44,0,0,0,.15.34v.06a.25.25,0,0,0,0,.07,2,2,0,0,0-1.37.26c-.36.28-.29.95.25.93l1.81-.06A5.11,5.11,0,0,0,38,26.63C38.77,26.36,38.44,25.07,38.26,24.46Z"/><path class="cls-2" d="M32.87,7.53c.6.36,1.34.47,1.92.88s.67,1.2,1.1,1.78a2.32,2.32,0,0,0,2,.94.36.36,0,0,0,.3-.58.32.32,0,0,0,0-.14c-.25-2,.42-4.19-1-5.78a1.57,1.57,0,0,1,.55.19,3.36,3.36,0,0,1,1,1.31,4.91,4.91,0,0,1,.09,1.67A9,9,0,0,0,39,9.17a.34.34,0,0,0,.07.16.28.28,0,0,0-.09.21c0,.9.1,1.78.08,2.68a12.45,12.45,0,0,0,.12,2.11.29.29,0,0,0,0,.27l.09.21a.31.31,0,0,0,.09.11.28.28,0,0,0,0,.13,8.5,8.5,0,0,0,1.72,3.56.36.36,0,0,0,.11.17l.11.08a.36.36,0,0,0-.08.23,2.35,2.35,0,0,0,1.38,2.33h.12l.51.5c.29.27.71-.17.48-.47a1.25,1.25,0,0,1-.26-.63.83.83,0,0,0,0-.22,3.16,3.16,0,0,0-1.33-1.94.48.48,0,0,0-.24-.09.3.3,0,0,0-.07-.19A7.74,7.74,0,0,1,40,15a.36.36,0,0,0-.11-.19.33.33,0,0,0,0-.14,12.31,12.31,0,0,1-.17-2.71c0-.77-.13-1.51-.1-2.29a.33.33,0,0,0-.11-.26.35.35,0,0,0,.13-.29V8.87a.33.33,0,0,0,0-.14c-.12-1.19.15-2.38-.56-3.43a3.42,3.42,0,0,0-1.16-1.2,3.52,3.52,0,0,0-1.55-.2.31.31,0,0,0-.24-.07,33.86,33.86,0,0,1-4.83-.05.34.34,0,0,0-.18,0,1.81,1.81,0,0,1-.23,0C30.54,5.35,31.29,6.57,32.87,7.53Z"/><path class="cls-2" d="M24.87,10.18a5.42,5.42,0,0,1,.3,1.84c-.06.42-.37.82-.39,1.25a1.71,1.71,0,0,0,.22,1c1,1.86,4.33,2.6,5.47.69a3.85,3.85,0,0,1,.65-1,7.25,7.25,0,0,0,.64-.49,2.26,2.26,0,0,0,.53-1.1c.23-1.33-.75-2-1.49-2.88a3.67,3.67,0,0,0-1.52-1.9,3.44,3.44,0,0,0-3.37-.17A2.38,2.38,0,0,0,24.87,10.18Z"/><path class="cls-2" d="M11.88,3.94a1.51,1.51,0,0,0,.08.77,1.74,1.74,0,0,0,.31.47,2.5,2.5,0,0,0,.6.52,2,2,0,0,1,.42,1.55c.2,1.23.44,3,2,3.07a2.89,2.89,0,0,0,1-.2,8.14,8.14,0,0,1,2.91-.1A4.27,4.27,0,0,0,22,9.68a2.36,2.36,0,0,0,1-1.51A36.41,36.41,0,0,1,24.2,3.88L24,3.93a4,4,0,0,1-.6,0h-.12c-3.43.36-7,0-10.5.09V4h0l-.34,0h-.07A.85.85,0,0,1,12,4Z"/><path class="cls-2" d="M20.73,12.21h.06l.16-.07a1.3,1.3,0,0,1,1.1.17c.43.3.28.65.49,1.06s.48.55.43,1a1.19,1.19,0,0,1-.65.94,2.15,2.15,0,0,1-2.59-.92C19,13.38,19.75,12.58,20.73,12.21Z"/><path class="cls-3" d="M30.76,18.88l.13,0c1,.05,2.38-.27,3.34,0a.71.71,0,0,1,.29.14c.2.15.33.36.55.51A3.63,3.63,0,0,0,36,20l.06,0a.34.34,0,0,1,.39.55,7.5,7.5,0,0,1-1.55,1l-.14,0h0a10.14,10.14,0,0,0,0,1.35c0,.22-.33.26-.34.05,0-.41,0-.83,0-1.24h-.08c-.2,0-.4,0-.61-.06a1.93,1.93,0,0,0,0,.34,3.13,3.13,0,0,1,0,.61c0,.22-.35.17-.33,0s0-.45,0-.68a2.42,2.42,0,0,1,0-.47v0h-.12l0,0a.17.17,0,0,1-.16.27,1.52,1.52,0,0,1-.42-.06c0,.41,0,.81,0,1.22,0,.21-.34.17-.34-.05,0-.42,0-.84,0-1.26v0l-.06,0a.15.15,0,0,1-.09-.14.33.33,0,0,1-.28,0c-.95-.28-1.29-1.3-1.71-2.1C30.1,19,30.52,18.71,30.76,18.88Z"/><path class="cls-4" d="M4.57,2.58H3.23"/><line class="cls-4" x1="36.81" y1="3.85" x2="10.16" y2="4"/><path class="cls-4" d="M38.35,17.63l-.06-10.3A3.38,3.38,0,0,0,37.1,4.48"/><polyline class="cls-4" points="3.23 2.58 1.94 4.73 2 5.76"/><line class="cls-4" x1="0.44" y1="8.31" x2="2" y2="5.76"/><path class="cls-4" d="M8.78,6.82A4.24,4.24,0,0,1,8,8.36c-1.19,1.53-3.1,2-4.27,1.13"/><path class="cls-4" d="M9.75,12.41c0,3.21,1.83,6,4.3,6.39"/><path class="cls-4" d="M11.93,7a6.73,6.73,0,0,0-2,3.91"/><line class="cls-4" x1="9.75" y1="12.41" x2="5.48" y2="9.94"/><path class="cls-4" d="M10.26,4a5.15,5.15,0,0,1-1.5.25"/><path class="cls-4" d="M4.34,2.58l7.75-.05A3,3,0,0,1,10.26,4"/><path class="cls-4" d="M.44,8.31a1.51,1.51,0,0,0-.24.81A1.45,1.45,0,1,0,3,8.49"/><path class="cls-4" d="M2.15,10.47a.72.72,0,0,0,1,.08c.6-.44,1-.79,1-.79"/><ellipse class="cls-4" cx="1.27" cy="9.04" rx="0.19" ry="0.4" transform="translate(-0.05 0.01) rotate(-0.33)"/><path class="cls-4" d="M3.58,4.94a.6.6,0,0,0,.84.17.66.66,0,0,0,.27-.86"/><path class="cls-4" d="M4.57,2.52A4,4,0,0,1,5.64.2V2.49"/><path class="cls-4" d="M3.49,2.53A4,4,0,0,1,4.56.21V2.49"/><path class="cls-4" d="M37.68,26.77H35.27a1.74,1.74,0,0,1,1.79-1.46"/><path class="cls-4" d="M37.8,26.77c.51,0,.6-.35.6-.35V24.6l0-3.28,0-4.07"/><line class="cls-4" x1="36.85" y1="20.13" x2="36.86" y2="25.32"/><path class="cls-4" d="M37.1,20.12s-4.19.37-4.16-6.1"/><path class="cls-4" d="M36.64,26.77l-2.42,0A1.76,1.76,0,0,1,36,25.32"/><line class="cls-4" x1="35.8" y1="21.14" x2="35.83" y2="25.26"/><path class="cls-4" d="M17.58,26.89H15.16A1.76,1.76,0,0,1,17,25.43"/><path class="cls-4" d="M18.28,24.75v1.78a.57.57,0,0,1-.6.36"/><line class="cls-4" x1="18.23" y1="15.98" x2="18.27" y2="24.75"/><line class="cls-4" x1="16.76" y1="24.67" x2="16.77" y2="25.37"/><line class="cls-4" x1="16.74" y1="20.34" x2="16.75" y2="24.67"/><path class="cls-4" d="M17,20.24s-2.76.24-3.79-3.14"/><path class="cls-4" d="M16.53,26.89l-2.42,0a1.77,1.77,0,0,1,1.79-1.47"/><line class="cls-4" x1="15.71" y1="24.37" x2="15.72" y2="25.38"/><line class="cls-4" x1="15.69" y1="20.25" x2="15.7" y2="24.37"/><path class="cls-4" d="M15.94,20.25a3.27,3.27,0,0,1-3.1-1.78"/><path class="cls-4" d="M12.82,15.78a6.53,6.53,0,0,1-.25-2.22"/><path class="cls-4" d="M33.23,21.78a3.33,3.33,0,0,1-3-2.89"/><path class="cls-4" d="M34.33,21.75a3.55,3.55,0,0,1-.47.06"/><path class="cls-4" d="M36.85,20.13a5.57,5.57,0,0,1-2,1.49"/><line class="cls-4" x1="18.25" y1="18.88" x2="34.17" y2="18.78"/><path class="cls-4" d="M32.79,21.72v1.1a.25.25,0,0,1-.25.25.26.26,0,0,1-.25-.25V21.55"/><path class="cls-4" d="M33.78,21.46v1.09a.25.25,0,0,1-.25.25.24.24,0,0,1-.25-.24V21.28"/><path class="cls-4" d="M34.33,21.8v1.1a.25.25,0,1,0,.49,0V21.65"/><path class="cls-4" d="M42.38,18.78a2.94,2.94,0,0,0-.7-.39"/><path class="cls-4" d="M43.62,21.19a6.11,6.11,0,0,0-.82-2,2.32,2.32,0,0,0-.42-.41"/><path class="cls-4" d="M41.13,18.61a3.67,3.67,0,0,0,.52,2.1,4.68,4.68,0,0,0,2.21,1.45s-.09-.42-.24-1"/><path class="cls-4" d="M41.65,18.35a8.7,8.7,0,0,1-2-5c-.07-2.92-.17-6-.17-6s0-3.51-2.63-3.49"/><path class="cls-4" d="M37,4.41c1.82.28,1.86,2.92,1.86,2.94s.1,3.1.17,6a9,9,0,0,0,2.09,5.23"/></g></g></svg>