<svg xmlns="http://www.w3.org/2000/svg" viewBox="0 0 40.91 34.51"><defs><style>.cls-1{fill:#0071b9;}.cls-2{fill:#9ad4e1;}.cls-3,.cls-7{fill:none;}.cls-10,.cls-3{stroke:#22234a;}.cls-10,.cls-3,.cls-7{stroke-linecap:round;stroke-linejoin:round;stroke-width:0.4px;}.cls-4{fill:#fff;}.cls-5{fill:#f9b91a;}.cls-6{fill:#ee7349;}.cls-7{stroke:#23224b;}.cls-10,.cls-8{fill:#22234a;}.cls-9{fill:#b56f26;}</style></defs><g id="Layer_2" data-name="Layer 2"><g id="Layer_1-2" data-name="Layer 1"><path class="cls-1" d="M33.32,27.57c-.25-.53-.73-1.06-1.36-.74A2.4,2.4,0,0,0,31,28,5,5,0,0,0,30.56,30,9.3,9.3,0,0,0,30.65,31a2.8,2.8,0,0,0,.22,1h0a2,2,0,0,0,.78,1.1c1.16.75,2-1.27,2.17-2.09A5.66,5.66,0,0,0,33.32,27.57Z"/><path class="cls-1" d="M25.55,28.5a1.88,1.88,0,0,0-1-1,1.21,1.21,0,0,0-1.34.44,4.58,4.58,0,0,0-.66,3,6.06,6.06,0,0,0,.35,1.68,2.6,2.6,0,0,0,.95,1.42.41.41,0,0,0,.23.07.54.54,0,0,0,.31,0,.65.65,0,0,0,.36-.22,1,1,0,0,0,.27-.17,1.86,1.86,0,0,0,.4-.66,6.37,6.37,0,0,0,.47-1.52A5.33,5.33,0,0,0,25.55,28.5Z"/><path class="cls-1" d="M19.4,32.05l0,0a.44.44,0,0,0-.16-.1.31.31,0,0,0-.19,0,.57.57,0,0,0-.3.1,2.11,2.11,0,0,1-.43.12h-.11l0,0a.51.51,0,0,0-.38,0,.5.5,0,0,0-.3.23.5.5,0,0,0-.05.38l.05.12a.39.39,0,0,0,.18.18,1.18,1.18,0,0,0,.9.14,4.75,4.75,0,0,0,.64-.2.5.5,0,0,0,.35-.35.57.57,0,0,0,0-.26A.45.45,0,0,0,19.4,32.05Z"/><path class="cls-1" d="M11.87,32.23a.48.48,0,0,0-.43-.25,5.68,5.68,0,0,1-1.09,0l-.24,0H10l-.23-.05-.08,0h0l-.06,0A.51.51,0,0,0,9,31.9a.48.48,0,0,0-.07.6,9.13,9.13,0,0,1,.53.84l.09.13a.25.25,0,0,1,0,.07h0l.07.11a.47.47,0,0,0,.36.14.48.48,0,0,0,.37.17,1.38,1.38,0,0,0,1-.41,2.61,2.61,0,0,0,.5-.81A.5.5,0,0,0,11.87,32.23Z"/><path class="cls-2" d="M32.9,30.19a2.35,2.35,0,0,0,0-.53,1.38,1.38,0,0,0-.16-.67.5.5,0,0,0-.43-.25.48.48,0,0,0-.43.25.61.61,0,0,0-.08.3h0s0,.08-.05.13a2.13,2.13,0,0,0,0,.25c0,.11,0,.22,0,.33a2.85,2.85,0,0,0,.09.77.51.51,0,0,0,.61.35.5.5,0,0,0,.35-.6A.54.54,0,0,0,32.9,30.19Z"/><path class="cls-2" d="M24.78,30a.45.45,0,0,0-.29-.32.32.32,0,0,0-.19-.05.55.55,0,0,0-.25.07.71.71,0,0,0-.37.5,2.35,2.35,0,0,0,0,.53l0,.54,0,0a.69.69,0,0,0,0,.35.65.65,0,0,0,.18.3.5.5,0,0,0,.85-.33.58.58,0,0,0,.09-.26A5.23,5.23,0,0,0,24.78,30Z"/><path class="cls-3" d="M12,32.22c-.32,1.08-.91,1.8-1.57,1.79s-1.34-.92-1.57-2.18"/><path class="cls-3" d="M7.45,31.6C7.65,33,8.28,34,9.05,34l1.42,0"/><path class="cls-3" d="M19.7,32.14c-.33.62-.77,1-1.25,1a1.44,1.44,0,0,1-1.16-.94"/><path class="cls-3" d="M15.91,32.23A1.4,1.4,0,0,0,17,33.1l1.42,0"/><path class="cls-4" d="M23.12,10.77c-.38-.31-.76-.64-1.16-.91a5.15,5.15,0,0,0-.61-.33A.75.75,0,0,1,21,9.06a.5.5,0,0,0-.43-.24,7.85,7.85,0,0,1-1.08-.08c-.38,0-.77,0-1.15,0s-.69,0-.88.31a.59.59,0,0,0-.07.26,2.64,2.64,0,0,0-.46.13l-.26.13h0c-.26.13-.51.27-.75.41a.63.63,0,0,0-.17.2c-.33,0-.67.21-.53.6.08.23.16.45.23.69a.5.5,0,0,0,1-.14s0,0,0-.05a.38.38,0,0,0,.1,0A.79.79,0,0,0,16.8,11a.46.46,0,0,0,.22-.11,2,2,0,0,1,1.48-.3,9,9,0,0,0,.9,0,1,1,0,0,1,.77.14c.21.14.4.31.62.43a5.35,5.35,0,0,1,.73.34,1.19,1.19,0,0,0,.71.32,1.66,1.66,0,0,0,.78-.27A.5.5,0,0,0,23.12,10.77Z"/><path class="cls-5" d="M40,16.33A1.7,1.7,0,0,0,38.43,16a2.1,2.1,0,0,0-.55-.43,1.61,1.61,0,0,0-1.28-.2l-.15.08c-.46-.36-1-.69-1.43-1a13.87,13.87,0,0,0-1.33-.81c-.5-.26-1-.43-1.51-.7a.48.48,0,0,0-.14-.05l-.1-.06a9.16,9.16,0,0,0-3.73-.66c-1.36.1-2.72.37-4.08.55-2.33.29-4.69.62-7,.76a.42.42,0,0,0-.47-.34c-2.18.14-4.39.11-6.43,1a20.62,20.62,0,0,0-2.87,1.6,12.48,12.48,0,0,0-2.46,1.81.54.54,0,0,0-.25-.09,2.88,2.88,0,0,0-1.26.23,1.46,1.46,0,0,0-.52.32.69.69,0,0,0-.17.3h0l-.24,0a1.33,1.33,0,0,0-.65.16,11.69,11.69,0,0,1-1,.59,1,1,0,0,0-.47.37.62.62,0,0,0,.13.74s0,0,0,0a1.23,1.23,0,0,0,.23,1.06,1.62,1.62,0,0,0,.94.57,4.68,4.68,0,0,0,1.38.26,1,1,0,0,0,.12.16l.13.15a2.44,2.44,0,0,0,.39.33,1.72,1.72,0,0,0,.43.21,1.21,1.21,0,0,0-.07.66A17.6,17.6,0,0,0,4.57,26c.12.38.24.76.33,1.15,0,.2.07.4.12.59v0s0,.06,0,.1,0,.22,0,.34a1.37,1.37,0,0,0,.08.35.8.8,0,0,0,0,.59,5.76,5.76,0,0,1,.19.68v0a2.91,2.91,0,0,0,0,.31,1.37,1.37,0,0,0,.32.56,2,2,0,0,0,.83.45l.25.09h0l.15.08a3.23,3.23,0,0,0,1.23.3h0a7.14,7.14,0,0,0,2.05.28,1,1,0,0,0,.42-.1c.92.13,1.85.21,2.78.27.46,0,.93,0,1.4,0a3.59,3.59,0,0,0,1.12-.14,1.13,1.13,0,0,0,.54.19A13.66,13.66,0,0,0,18.29,32a6.68,6.68,0,0,1,.89,0,1.63,1.63,0,0,0,.73-.12,5.81,5.81,0,0,0,1.38,0c.42-.07.83-.15,1.25-.18h0a3.88,3.88,0,0,1,0-1.4A6.34,6.34,0,0,1,23,28.58a2,2,0,0,1,.47-.78,1.19,1.19,0,0,1,1.12-.28,1.61,1.61,0,0,1,1,.91,4.27,4.27,0,0,1,.41,1.65c0,.14,0,.28,0,.43s0,.06,0,.09a1.63,1.63,0,0,1,0,.49,1.92,1.92,0,0,1-.05.32l.52,0a1.64,1.64,0,0,0,1-.32.88.88,0,0,0,.45.11,13.05,13.05,0,0,0,2.46-.42.29.29,0,0,1,0-.09,6.34,6.34,0,0,1,.16-1.89,4,4,0,0,1,.57-1.47,1.48,1.48,0,0,1,.85-.68,1.19,1.19,0,0,1,1.25.41,2.06,2.06,0,0,1,.25.49.51.51,0,0,1,0,.1c.14.29.28.59.39.89a3.36,3.36,0,0,1,.2.94,1.55,1.55,0,0,0,.92-.69,5.27,5.27,0,0,0,.42-1.29l.37-1.36a.68.68,0,0,0,.12-.22c.27-.88.52-1.75.7-2.64s.35-1.8.6-2.68a1.1,1.1,0,0,0,0-.26,3.27,3.27,0,0,0,.51-.41c.07-.07.15-.19.23-.22a4.42,4.42,0,0,1,.52-.14,3.76,3.76,0,0,1,.46-.2c.19-.06.38-.09.57-.15a1.42,1.42,0,0,0,.91-.78A1.77,1.77,0,0,0,40,16.33Z"/><path class="cls-4" d="M18.8,12,18.7,12l-.15,0a.5.5,0,0,0-.3-.11.54.54,0,0,0-.34.14,1.59,1.59,0,0,0-.58.33,2.32,2.32,0,0,0-.21.25.69.69,0,0,0-.1.19,1.54,1.54,0,0,0-.15.64.47.47,0,0,0,.15.35.49.49,0,0,0,.35.15.51.51,0,0,0,.5-.5v0a.74.74,0,0,1,0-.14l.06-.11.08-.07.1-.06.12,0h.17a.53.53,0,0,0,.36-.15.52.52,0,0,0,.14-.35A.52.52,0,0,0,18.8,12Z"/><path class="cls-4" d="M20.49,13.78a.29.29,0,0,0,0-.1v0s0-.11,0-.15h0l0-.12h0l-.09-.11a.42.42,0,0,0-.16-.11.45.45,0,0,0-.2,0,.43.43,0,0,0-.19,0,.42.42,0,0,0-.16.11l-.08.1s0,.05,0,.08,0,0,0,.05a.45.45,0,0,0-.05.19l0,.14"/><path class="cls-6" d="M15.62,11.94c0-.23-.1-.47-.16-.7a.49.49,0,0,0-.41-.36.53.53,0,0,0-.5.24.43.43,0,0,1-.12.11,11.92,11.92,0,0,0-.35-1.78.41.41,0,0,0-.14-.21.66.66,0,0,0,0-.14.49.49,0,0,0,.31-.3v0a.41.41,0,0,0,0-.19l0,0,.17-.25.34-.48a.5.5,0,0,0-.43-.75,1,1,0,0,0-.5.17l0,0,0-.09a1.92,1.92,0,0,1-.14-.33h0a16.11,16.11,0,0,0-.42-1.59.5.5,0,0,0-.61-.35l0,0a.5.5,0,0,0-.56-.23.51.51,0,0,0-.37.48v0a.47.47,0,0,0-.36.46,1.39,1.39,0,0,0,.21.65.83.83,0,0,0,.06.21c.24.45.47.9.67,1.37,0,0,.05.1.07.16l.05.12c0,.11.09.22.13.32a1.56,1.56,0,0,0,.38.73l.06,0c0,1-.07,1.94-.07,2.9A1.27,1.27,0,0,0,13,13a.67.67,0,0,0,.85.11l.76-.31.31-.14.18-.08s.09,0,0,0A.51.51,0,0,0,15.62,11.94Z"/><path class="cls-6" d="M23.38,12a.51.51,0,0,0-.56-.23,1.72,1.72,0,0,0-.49.29h0a1.26,1.26,0,0,0-.48-.12.41.41,0,0,0-.14-.12,5.15,5.15,0,0,1-.95-.65c-.36-.31-.73-.63-1.22-.37s-.83.64-.7,1.12a1.4,1.4,0,0,0,.38.52,3.21,3.21,0,0,1,.34.48.5.5,0,0,0,.79.1.65.65,0,0,0,.16-.38,3.53,3.53,0,0,0,.39.15,4,4,0,0,0,.69.13.56.56,0,0,0,.47.32h.13a2,2,0,0,1,.42.33c.19.22.32.47.61.56a.59.59,0,0,0,.76-.56A2.49,2.49,0,0,0,23.38,12Z"/><path class="cls-1" d="M21.57,13.13,21.52,13a.58.58,0,0,0-.17-.18l-.12-.05a.65.65,0,0,0-.24,0h-.08a.34.34,0,0,0-.2,0,.42.42,0,0,0-.26.26.34.34,0,0,0,0,.2v.13a.61.61,0,0,0,.13.22l.1.08a.77.77,0,0,0,.26.07H21l.15,0h.08a.56.56,0,0,0,.17-.09.41.41,0,0,0,.12-.14.33.33,0,0,0,.06-.19A.28.28,0,0,0,21.57,13.13Z"/><path class="cls-1" d="M19,10.81a.5.5,0,0,0-.68-.18l-.2.1h0l-.12,0-.44.11a2.77,2.77,0,0,0-.91.56,1.44,1.44,0,0,0-.33.37,2.42,2.42,0,0,0-.19.51,3.6,3.6,0,0,0-.15.87s0,0,0,.06v.16a.5.5,0,1,0,1,0v-.16h0s0,0,0-.05a.45.45,0,0,0,0-.11v0a3.69,3.69,0,0,1,.11-.45l.06-.21a.14.14,0,0,0,0-.07l0,0h0l.08-.08.15-.12.08-.07h0l.16-.11.09,0h0l.2,0a3.19,3.19,0,0,0,.89-.33A.5.5,0,0,0,19,10.81Z"/><path class="cls-1" d="M19.34,13.29a.38.38,0,0,0-.13-.22.7.7,0,0,0-.17-.13l-.19-.08-.22,0h-.09l-.22,0a.52.52,0,0,0-.19.08.66.66,0,0,0-.17.12.53.53,0,0,0-.19.41l0,.13a.28.28,0,0,0,.09.17.2.2,0,0,0,.09.09.26.26,0,0,0,.17.09.53.53,0,0,0,.28,0,.45.45,0,0,0,.19-.11l.06,0a.47.47,0,0,0,.38,0,.31.31,0,0,0,.16-.11.47.47,0,0,0,.15-.35Z"/><path class="cls-3" d="M13.93,9.13s.57,0,.51-.63c0,0-.07-.35.13-.48s.46-.21.41-.55A.63.63,0,0,0,14.19,7a.43.43,0,0,0-.31.19"/><path class="cls-3" d="M13.35,7.11a1.56,1.56,0,0,0-1,.36"/><path class="cls-3" d="M13.6,8a.56.56,0,0,0-.11.39"/><path class="cls-3" d="M13.59,8.71a.58.58,0,0,0-.68-.45"/><path class="cls-3" d="M13.09,7.11c-.11-.41-.42-1.48-.56-2S12,4.67,12,4.67s-.34.13-.18.62.59,1.73.7,2.06"/><path class="cls-3" d="M13.93,7.41l-.63-2.1s-.15-.63-.54-.52-.15.61-.15.61"/><path class="cls-3" d="M11.86,5.52a.33.33,0,0,0-.45-.18c-.35.12,0,.87,0,.87l1.38,3.05"/><path class="cls-7" d="M21.65,13.13c0,.09.05.19.08.29v0"/><path class="cls-7" d="M20.5,13.2a2.81,2.81,0,0,1,.1.31"/><path class="cls-7" d="M17.4,10.75a2.58,2.58,0,0,1,.75-.18,3,3,0,0,1,1.19.15"/><path class="cls-7" d="M17.4,10.75A2.86,2.86,0,0,0,15.89,14"/><path class="cls-7" d="M20.35,12.87a3.31,3.31,0,0,1,.15.33"/><path class="cls-7" d="M18.4,11.68h.18"/><path class="cls-7" d="M17,13.93c-.12-1.27.58-2.18,1.35-2.24h.1"/><path class="cls-7" d="M17.79,13.85c-.05-.68.29-1.06.66-1.09a1.08,1.08,0,0,1,1.09,1"/><path class="cls-7" d="M20.46,12.61a1,1,0,0,0,1.45,0"/><path class="cls-7" d="M20.26,12.67a.3.3,0,0,0,.29-.2"/><path class="cls-7" d="M20.43,13.18a.44.44,0,0,1-.57.06c-.16-.11-.46-.32-.25-.63l.55-.88"/><path class="cls-7" d="M19.52,12.76a.49.49,0,0,1-.36-.14c-.17-.17-.24-.31,0-.62l.48-.72"/><path class="cls-7" d="M19,12.22a.47.47,0,0,1-.26-.12c-.2-.16-.1-.38,0-.58s.54-.68.54-.68.33-.52,1.14,0l2.28,1.45"/><path class="cls-7" d="M20.35,12.66a.71.71,0,0,1-.17.38"/><path class="cls-7" d="M23.16,11.62l.06.06s1.23,1.22.75,2.25c-.37.81-2.58-1-2.58-1"/><path class="cls-3" d="M14.1,13c.5-.07,1.31-.17,1.8-.21"/><path class="cls-3" d="M22.23,13.61l-1.67.12c-5.46.37-10,.51-10,.12,0-.17,1-.43,2.53-.68"/><path class="cls-3" d="M23.75,12.17c3.92-.17,6.73-.1,6.72.2s-2.62.72-6.27,1.07"/><path class="cls-7" d="M22.19,11.87l.23-.1c.63-.26,1.18-.35,1.24-.21s-.06.16-.21.28"/><path class="cls-7" d="M20.81,9.13a5.51,5.51,0,0,1,2.85,2.43"/><line class="cls-7" x1="21.32" y1="10.59" x2="21.49" y2="11.5"/><path class="cls-3" d="M12.76,9.26l.1,3.23s0,.83.63.7a22.93,22.93,0,0,0,2.21-.79"/><line class="cls-3" x1="14.03" y1="9.26" x2="14.38" y2="11.69"/><path class="cls-3" d="M15,10.65c-.22.18-.45.37-.67.58"/><path class="cls-3" d="M16,10.75a11.12,11.12,0,0,0,0,1.56"/><path class="cls-3" d="M14.83,10.74c0-.12,0-.21,0-.22s.09,0,.16.11"/><path class="cls-3" d="M15,10.63a4.66,4.66,0,0,1,.52,1c.1.25.17.49.23.69"/><path class="cls-3" d="M14.86,10.52A9.7,9.7,0,0,1,17.49,9"/><path class="cls-3" d="M20.24,32c-8,.52-14.21-.16-14.78-1.39L3.78,22.72"/><path class="cls-3" d="M34.11,29.47a2.37,2.37,0,0,0,1.14-.86l2.1-8.27"/><path class="cls-3" d="M26.11,31.36c1.06-.15,2.06-.31,3-.49"/><path class="cls-3" d="M20.17,32l.94-.06"/><path class="cls-3" d="M30.55,12.31c4.34,1.54,7.14,3.86,7.12,4.71,0,1.4-7.75,3-17.25,3.65s-17.17,0-17.14-1.4c0-.84,3-3.41,7.4-5.52"/><path class="cls-3" d="M4.65,17.52a2.13,2.13,0,0,0-1,0,2.09,2.09,0,0,0-1.17.68,1.93,1.93,0,0,0-1.33.38c-.7.47-1.07,1.16-.83,1.54l0,0a.52.52,0,0,0-.1.11c-.22.43.29,1.11,1.15,1.5a2.55,2.55,0,0,0,1.41.26,2.26,2.26,0,0,0,1.4.7,3,3,0,0,0,1.39-.09,2.63,2.63,0,0,0,1.33.47,2.81,2.81,0,0,0,1.42-.2,2.57,2.57,0,0,0,1.38.4A2.9,2.9,0,0,0,11.21,23a2.51,2.51,0,0,0,1.42.37A2.93,2.93,0,0,0,14.11,23a2.57,2.57,0,0,0,1.46.32A2.86,2.86,0,0,0,17,23a2.59,2.59,0,0,0,1.4.24,3.51,3.51,0,0,0,.82-.15"/><path class="cls-3" d="M36.38,15.44a2.29,2.29,0,0,1,1-.11,1.73,1.73,0,0,1,1.14.53,1.77,1.77,0,0,1,1.32.21c.68.37,1,1,.77,1.43l0,0,.09.11c.2.4-.34,1.14-1.22,1.65a3,3,0,0,1-1.43.45,2.79,2.79,0,0,1-1.43.88,2.85,2.85,0,0,1-1.39.09,3,3,0,0,1-1.35.64,2.69,2.69,0,0,1-1.42,0,3,3,0,0,1-1.4.58,2.6,2.6,0,0,1-1.47-.12,2.85,2.85,0,0,1-1.44.55,2.61,2.61,0,0,1-1.47-.17,3,3,0,0,1-1.47.51,2.65,2.65,0,0,1-1.39-.19,2.87,2.87,0,0,1-1.41.43,2.66,2.66,0,0,1-.76-.07"/><path class="cls-3" d="M19.3,22.36l-.1.68a2.58,2.58,0,0,0,1.17.16,3.18,3.18,0,0,0,1.25-.33l-.15-.65"/><path class="cls-3" d="M14.11,23a2.12,2.12,0,0,1,.31-.63"/><path class="cls-3" d="M17,23s.15-.63.19-.55"/><path class="cls-3" d="M11.21,23a2.48,2.48,0,0,1,.43-.59"/><path class="cls-3" d="M8.35,22.93s.24-.46.52-.54"/><path class="cls-3" d="M5.6,22.66a5.13,5.13,0,0,1,.91-.73"/><path class="cls-3" d="M2.81,22.05s.49-.54.74-.6"/><path class="cls-3" d="M.35,20.18A5.05,5.05,0,0,1,1.19,20"/><path class="cls-3" d="M2.48,18.22s.4.24.41.43"/><path class="cls-3" d="M26.79,22.18a1.78,1.78,0,0,0-.28-.59"/><path class="cls-3" d="M23.93,22.5s-.12-.61-.16-.53"/><path class="cls-3" d="M29.7,21.8a2.14,2.14,0,0,0-.4-.54"/><path class="cls-3" d="M32.57,21.34s-.22-.43-.49-.47"/><path class="cls-3" d="M35.34,20.71a3.87,3.87,0,0,0-.88-.61"/><path class="cls-3" d="M38.16,19.74s-.46-.49-.71-.51"/><path class="cls-3" d="M40.58,17.54a2.78,2.78,0,0,0-.71,0"/><path class="cls-3" d="M38.66,15.85s-.4.29-.42.49"/><ellipse class="cls-3" cx="24.29" cy="30.81" rx="1.36" ry="0.68" transform="translate(-7.04 54.42) rotate(-88.75)"/><ellipse class="cls-3" cx="24.29" cy="30.87" rx="3.44" ry="1.74" transform="translate(-7.11 54.48) rotate(-88.75)"/><path class="cls-3" d="M24.36,27.44l-1.42,0c-1,0-1.77,1.51-1.81,3.4s.7,3.46,1.66,3.48l1.43,0"/><ellipse class="cls-3" cx="32.27" cy="29.93" rx="1.36" ry="0.68" transform="translate(1.64 61.54) rotate(-88.75)"/><ellipse class="cls-3" cx="32.26" cy="30" rx="3.44" ry="1.74" transform="translate(1.57 61.6) rotate(-88.75)"/><path class="cls-3" d="M32.34,26.56l-1.42,0c-1,0-1.77,1.5-1.81,3.4s.7,3.45,1.66,3.47l1.42,0"/><path class="cls-8" d="M16,12.77a.52.52,0,0,0-.23-.3.51.51,0,0,0-.38-.05.62.62,0,0,0-.3.23.88.88,0,0,0-.12.26,2.22,2.22,0,0,0-.37,0c-.23,0-.45.08-.68.13a.5.5,0,0,0-.3.23s0,0,0,0,0,0,0,0a.52.52,0,0,0-.36-.14h0l-.16,0a1.54,1.54,0,0,0-.3,0l.14,0a3.1,3.1,0,0,1-.68,0,.49.49,0,0,0-.36.15c-.08.08-1,.37-1,.5s.88.11,1,.2l.1.08a.48.48,0,0,0,.26.07,3.3,3.3,0,0,0,.83,0l-.13,0a.66.66,0,0,1,.2,0l.14,0a.53.53,0,0,0,.36-.15.41.41,0,0,0,.08-.13.38.38,0,0,0,.12.1.51.51,0,0,0,.38,0l.63-.12a2.34,2.34,0,0,1,.46,0h0a.51.51,0,0,0,.62-.49v-.06l0-.1.06-.11A.53.53,0,0,0,16,12.77Z"/><path class="cls-8" d="M30.09,12.41C30,12.12,28.74,12,28.47,12a20.37,20.37,0,0,1-2.07.15l-1,0a1.15,1.15,0,0,1-.71-.11.49.49,0,0,0-.73.41.48.48,0,0,0,0,.42l.09.18a.44.44,0,0,0,.64.18l.11.05a.46.46,0,0,0,.62-.12c.31,0,.63,0,.92-.06.81,0,1.62-.07,2.42-.18C29,12.93,30.15,12.64,30.09,12.41Z"/><path class="cls-8" d="M7.83,32.6l0,0h0Z"/><path class="cls-8" d="M7.8,32.58Z"/><path class="cls-8" d="M9.62,33.43a.63.63,0,0,0-.2-.28v0h0l0,0-.1-.1a2.85,2.85,0,0,1-.23-.37l0-.06v0s0,0,0,0A.56.56,0,0,0,9,32.13a.78.78,0,0,0-.31-.29,1.74,1.74,0,0,0-.54-.19.51.51,0,0,0-.38.05.5.5,0,0,0-.18.68l.08.1s.06,0,.08.05l0,0h0l0,0,.1.06h0l0,0,0,0a.58.58,0,0,0,0,.14l0,.13a.53.53,0,0,0,.13.23,5.11,5.11,0,0,0,.92.88.5.5,0,0,0,.74-.56Z"/><path class="cls-8" d="M17.58,32.57a.54.54,0,0,0-.13-.22l0,0-.05,0-.11-.09-.17-.07-.16-.07h-.11l-.14,0h0l0,0a.41.41,0,0,0-.19,0,.37.37,0,0,0-.17.1l-.07.1a.45.45,0,0,0-.07.25l0,.14a.48.48,0,0,0,.12.22l.11.08h0l.13.05h.21l.1,0-.07,0h0a.4.4,0,0,0,.15.1.41.41,0,0,0,.19,0,.45.45,0,0,0,.2,0,.42.42,0,0,0,.16-.11l.07-.1a.45.45,0,0,0,.07-.25Z"/><path class="cls-8" d="M23.45,28.11c.2-.41-.23-1-.68-.69a2.24,2.24,0,0,0-.88.79,4,4,0,0,0-.29.92.52.52,0,0,0-.11.1l-.07.18,0,.08c0,.05,0,.11,0,.16v0a.88.88,0,0,0,0,.16.08.08,0,0,0,0,0h0s0,.09,0,.14a.48.48,0,0,0-.12.32v.3a4,4,0,0,0,.06,1.53.46.46,0,0,0,.07.16v.11a2.44,2.44,0,0,0,.43,1s.05,0,.07.06l.05.06a.58.58,0,0,0,.24.44,4.53,4.53,0,0,0,.46.3c.47.26,1.05-.41.6-.79a3.36,3.36,0,0,1-.51-.56,2.6,2.6,0,0,0-.09-.47,3.68,3.68,0,0,1-.14-.75,8.78,8.78,0,0,0-.1-.88.37.37,0,0,0,.13-.22A14.17,14.17,0,0,1,23.45,28.11Z"/><path class="cls-8" d="M30.64,29.17a5,5,0,0,1,.79-2,.5.5,0,0,0-.57-.73,1.37,1.37,0,0,0-.84.74c-.17.33-.33.7-.48,1.05a1.89,1.89,0,0,0-.11.47h0c-.51.29-.37,1.05-.29,1.53s.14.75.21,1.13v0a2.18,2.18,0,0,0,.11.62.5.5,0,0,0,.16.22.42.42,0,0,0,.08.2,5.2,5.2,0,0,0,.79.9c.49.42,1.27,0,.71-.71a2.85,2.85,0,0,1-.64-1.49.41.41,0,0,0-.09-.2v0l0-.52c0-.19,0-.37,0-.56s0-.23,0-.34A.46.46,0,0,0,30.64,29.17Z"/><path class="cls-9" d="M22.72,5a1.24,1.24,0,0,0-.11-1,2.8,2.8,0,0,0-.15-.3A1.71,1.71,0,0,0,22.1,3V3a.37.37,0,0,0-.29-.34.89.89,0,0,0-.28,0l-.16,0a.63.63,0,0,0-.27,0c-.15,0-.31-.09-.45-.12a2.82,2.82,0,0,0-.57-.09,1,1,0,0,1-.46-.05.34.34,0,0,0-.41.07l-.64-.2-.16,0a.34.34,0,0,0-.38.17l-.12-.12c-.17-.2-.53-.07-.43.21a2.35,2.35,0,0,0,.72,1,4.18,4.18,0,0,0,1.1.72c.42.2.84.39,1.27.56a3.41,3.41,0,0,0,.62.19c0,.11,0,.23-.06.35a1.14,1.14,0,0,1-.13.3.49.49,0,0,0-.18.11,1.32,1.32,0,0,0-.18.22.38.38,0,0,0-.41.19,2.3,2.3,0,0,0-.14.87,1.61,1.61,0,0,0,.12.87,1.59,1.59,0,0,0,.53.71c.32.17.67-.1.88-.31a4.25,4.25,0,0,0,.78-1.63A3.91,3.91,0,0,0,22.72,5Z"/><path class="cls-6" d="M20.82,4.7h-.16a1,1,0,0,0-.22-.09,1.15,1.15,0,0,0-.26,0h-.05a20,20,0,0,0-1.76-1L18,3.27a2.56,2.56,0,0,1-.46-.58c-.14-.25-.27-.54-.6-.51s-.47.4-.58.66a4.12,4.12,0,0,0-.28.86c0,.13-.41.14-.48.12-.08.15-.18.28-.26.43a3.38,3.38,0,0,0-.13.42.81.81,0,0,1-.27.39,1.19,1.19,0,0,0,0,.31h.24c.13,0,.41-.16.53-.21a.29.29,0,0,0,.16,0H16c0,.19-.07.38-.1.57s-.16.48.1.52c0,0,.36.11.37.14a.5.5,0,0,0,0,.16.86.86,0,0,0,.19.29A4.33,4.33,0,0,1,17,7.5c.07.12.14.26.2.39s.12.32.2.46c.22.36.68.32,1.06.36l1.12.11A.54.54,0,0,0,20,8.66l.08,0a.24.24,0,0,0,.27-.4A1.73,1.73,0,0,1,20,7.24a3.28,3.28,0,0,1,.1-1.46v0a.57.57,0,0,0,.29,0,.7.7,0,0,0,.4-.28h0a.42.42,0,0,0,.27-.2A.39.39,0,0,0,20.82,4.7Z"/><path class="cls-4" d="M17.92,3.73a.31.31,0,0,0-.06-.13.52.52,0,0,0-.23-.21l-.05,0-.16,0-.07,0a.86.86,0,0,0-.16,0,.64.64,0,0,0-.47.22.51.51,0,0,0-.09.13s0,0,0,0a.21.21,0,0,0,0,.12,0,0,0,0,0,0,0,.56.56,0,0,0,0,.13.36.36,0,0,0,0,.11s0,0,0,0a.37.37,0,0,0,.18.21.34.34,0,0,0,.28,0,.47.47,0,0,0,.14-.08l0,0a.37.37,0,0,0,.27.09.52.52,0,0,0,.21-.07l0,0,.09-.07A.48.48,0,0,0,17.94,4,.45.45,0,0,0,17.92,3.73Z"/><path class="cls-3" d="M19.76,5.58a.47.47,0,0,0,.34.29.75.75,0,0,0,.8-.36l0,0a2.28,2.28,0,0,0,.17-.41l0-.15"/><path class="cls-3" d="M16.05,3.6a1.15,1.15,0,0,1,.13-.44,2.91,2.91,0,0,1,2.69-2,3.72,3.72,0,0,1,.67,0"/><path class="cls-3" d="M17.54,8.61C17.4,7.72,16.39,7,16.2,6.35"/><path class="cls-3" d="M18.39,5.18C18,6.35,16.05,6.37,15.87,6.27s0-.39,0-.39a1.44,1.44,0,0,0,.1-.58c-.13.1-.9.11-.92-.06s.23-1.48,1.05-1.64"/><path class="cls-3" d="M20.45,4.72a1.5,1.5,0,0,0-.19.25.52.52,0,0,0-.07.15"/><path class="cls-3" d="M20.77,4.82a.32.32,0,0,1-.14,0,.94.94,0,0,1-.12-.09"/><path class="cls-3" d="M20,8.78a12.68,12.68,0,0,1-2.36-.12.2.2,0,1,0-.08.4,10.22,10.22,0,0,0,1.93.18l1,0s.38,0,.36-.2-.08-.22-.23-.24S20.28,8.78,20,8.78Z"/><path class="cls-3" d="M16.15,5.06a.59.59,0,0,1-.23.24"/><path class="cls-3" d="M17.25,4.67h-.07a.71.71,0,0,1,0-1.42.78.78,0,0,1,.22,0,.74.74,0,0,1,.4.33.67.67,0,0,1,.09.34.86.86,0,0,1,0,.24"/><path class="cls-3" d="M17.85,4.2a.76.76,0,0,1-.16.26"/><line class="cls-3" x1="17.75" y1="4.38" x2="16.59" y2="4.31"/><path class="cls-8" d="M17.37,4a.26.26,0,0,0-.12-.12l-.08,0h-.06A.18.18,0,0,0,17,3.9l0,0a.2.2,0,0,0,0,.11h0a.19.19,0,0,0,0,.08.12.12,0,0,0,.05.07.15.15,0,0,0,.06,0,.14.14,0,0,0,.09,0h.06a.24.24,0,0,0,.09-.06l0,0a.23.23,0,0,0,0-.11h0A.11.11,0,0,0,17.37,4Z"/><path class="cls-10" d="M16.75,2.11a2.63,2.63,0,0,1,5.14.5l-7.3-.7"/><path class="cls-3" d="M17.28,2.17s.64,2.1,4.15,2.72"/><path class="cls-3" d="M20.21,6s-.63,2,.53,2.62,3.16-4,1.15-6"/></g></g></svg>