<svg xmlns="http://www.w3.org/2000/svg" viewBox="0 0 92.4 59.97"><defs><style>.cls-1,.cls-16,.cls-5{fill:#22234a;}.cls-1,.cls-13,.cls-16,.cls-17,.cls-2,.cls-3,.cls-4,.cls-6{stroke:#22234a;stroke-linecap:round;stroke-linejoin:round;}.cls-1,.cls-13,.cls-17,.cls-2,.cls-3,.cls-4,.cls-6{stroke-width:0.4px;}.cls-2{fill:none;}.cls-3,.cls-8{fill:#243d7e;}.cls-10,.cls-4{fill:#9ad4e1;}.cls-6{fill:#a4c9de;}.cls-13,.cls-7{fill:#e33b17;}.cls-9{fill:#ee7349;}.cls-11{fill:#fff;}.cls-12{fill:#f9b91a;}.cls-14,.cls-17{fill:#b56f26;}.cls-15{fill:#0a7332;}</style></defs><g id="Layer_2" data-name="Layer 2"><g id="Layer_1-2" data-name="Layer 1"><path class="cls-1" d="M79.17,36.17a3.53,3.53,0,0,1,1.5.11c3.38.82,5.72,5.3,5.25,10-.37,3.68-2.49,6.49-5,7.11"/><line class="cls-2" x1="80.96" y1="53.4" x2="78.02" y2="54.02"/><line class="cls-2" x1="79.17" y1="36.17" x2="75.11" y2="37.1"/><ellipse class="cls-3" cx="76.5" cy="45.59" rx="6.16" ry="8.65" transform="translate(-2.14 3.79) rotate(-2.8)"/><ellipse class="cls-4" cx="76.39" cy="45.66" rx="2.87" ry="3.94" transform="translate(-2.83 5.11) rotate(-3.76)"/><ellipse class="cls-1" cx="76.39" cy="45.66" rx="0.91" ry="1.25" transform="translate(-2.83 5.11) rotate(-3.76)"/><path class="cls-1" d="M50.62,36.17a3.53,3.53,0,0,1,1.5.11c3.37.82,5.72,5.3,5.25,10-.38,3.68-2.5,6.49-5,7.11"/><line class="cls-2" x1="52.41" y1="53.4" x2="49.47" y2="54.02"/><line class="cls-2" x1="50.62" y1="36.17" x2="46.55" y2="37.1"/><ellipse class="cls-3" cx="47.95" cy="45.59" rx="6.16" ry="8.65" transform="translate(-2.17 2.4) rotate(-2.8)"/><ellipse class="cls-4" cx="47.84" cy="45.66" rx="2.87" ry="3.94" transform="translate(-2.89 3.24) rotate(-3.76)"/><ellipse class="cls-1" cx="47.84" cy="45.66" rx="0.91" ry="1.25" transform="translate(-2.89 3.24) rotate(-3.76)"/><path class="cls-1" d="M33.19,36.17a3.53,3.53,0,0,1,1.5.11c3.37.82,5.72,5.3,5.25,10-.37,3.68-2.49,6.49-5,7.11"/><line class="cls-2" x1="34.98" y1="53.4" x2="32.04" y2="54.02"/><line class="cls-2" x1="33.19" y1="36.17" x2="29.13" y2="37.1"/><ellipse class="cls-3" cx="30.52" cy="45.59" rx="6.16" ry="8.65" transform="translate(-2.19 1.55) rotate(-2.8)"/><ellipse class="cls-4" cx="30.41" cy="45.66" rx="2.87" ry="3.94" transform="translate(-2.93 2.09) rotate(-3.76)"/><ellipse class="cls-1" cx="30.41" cy="45.66" rx="0.91" ry="1.25" transform="translate(-2.93 2.09) rotate(-3.76)"/><path class="cls-5" d="M35.46,52.21a.45.45,0,0,0-.2-.25.4.4,0,0,0-.32,0l-.11,0a.54.54,0,0,0-.15.15l0,0a3.54,3.54,0,0,1-.67.67l-.07.05s0,.07-.08.1-.19.24-.26.26-.31.1-.24.31a.43.43,0,0,0,.52.29c.25-.05.5-.11.74-.18l.15,0,.06,0h0l.11,0a.44.44,0,0,0,.19-.25.44.44,0,0,0,0-.28l0,0c.1-.11.21-.23.3-.35A.42.42,0,0,0,35.46,52.21Z"/><path class="cls-5" d="M52.82,52.2a.44.44,0,0,0-.26-.2.4.4,0,0,0-.32,0,.41.41,0,0,0-.2.25l0,.11,0,.05-.09.09-.24.16h0a.61.61,0,0,0-.22.13.52.52,0,0,0-.17.27l0,.11c-.52.42-.7.45-.69.49s.79-.21.86-.16a.39.39,0,0,0,.2.08.32.32,0,0,0,.27-.05c.15-.09.29-.2.44-.3a.28.28,0,0,0,.22-.05.6.6,0,0,0,.21-.21.84.84,0,0,0,.08-.2c0-.1,0-.2,0-.29a.33.33,0,0,0,0-.17A.3.3,0,0,0,52.82,52.2Z"/><path class="cls-5" d="M81.28,52.27a.45.45,0,0,0-.26-.19.39.39,0,0,0-.32,0,.45.45,0,0,0-.2.25v0a1.08,1.08,0,0,1-.11.18l0,.05h0a.42.42,0,0,0-.3.12l-.08.09a.42.42,0,0,0-.11.18v.12s-.25,0-.23,0-.38.34-.36.37.72-.11.75-.09l.1.05a.29.29,0,0,0,.16,0,.58.58,0,0,0,.23,0,.94.94,0,0,0,.15-.06l.06,0,.07-.06h0a.45.45,0,0,0,.19-.11,1.77,1.77,0,0,0,.21-.32,2.09,2.09,0,0,0,.13-.35A.53.53,0,0,0,81.28,52.27Z"/><path class="cls-6" d="M63.67,25.79c0-.53,0-13.66,0-18,0-1.76,0-3.21,0-3.91A3.54,3.54,0,0,0,62.19.72,3.18,3.18,0,0,0,60.56.2H59.48c-.19,0-.35.47-.35,1s.16,1.05.35,1.05h1.08s.94,0,.94,1.63c0,.7,0,2.15,0,3.9,0,2.44,0,15.55,0,18"/><polygon class="cls-7" points="65.2 12.85 84.88 12.85 71.96 17.98 52.53 17.48 65.2 12.85"/><polygon class="cls-7" points="60.81 14.51 60.81 4.75 48.15 9.38 48.15 30.71 59.59 25.29 60.81 14.51"/><rect class="cls-8" x="7.28" y="30.38" width="65.37" height="17.84"/><path class="cls-5" d="M52.53,28.74c-.11-.11-.17.08-.32.13s-.5-.06-.69.08a2.2,2.2,0,0,1-.25.17l-.07,0h0l-.19.05a20.82,20.82,0,0,0-2.2.91c-.2.09.12,0,.24.16s.71.26.92.16l.26-.11a.42.42,0,0,0,.33.17,1,1,0,0,0,.45-.14c-.07,0,0,0,0,0h1.13a.42.42,0,0,0,.42-.42c0-.15,0-.29,0-.43a2.08,2.08,0,0,1,0-.36A.47.47,0,0,0,52.53,28.74Z"/><path class="cls-9" d="M52.54,17.49v27h2.61a8.5,8.5,0,0,1,3.37-3,9.08,9.08,0,0,1,5-1.25,8.83,8.83,0,0,1,4.88,1.37,11.12,11.12,0,0,1,2.08,1.79,6.89,6.89,0,0,1,.72,1.12h6.22v-27Z"/><path class="cls-9" d="M71.87,17.49l13-4.64s6.33,11.59,6.33,11.66V40.08L77,45,71.87,17.49"/><polyline class="cls-9" points="48.15 40.08 48.15 9.3 40.14 9.43 37.01 17.35 0.2 17.76 0.2 33.77 7.28 40.08"/><path class="cls-7" d="M75.05,44.41a7,7,0,0,1-2.92,0,.43.43,0,0,0-.42.71,4,4,0,0,1,.74,1.58,4.79,4.79,0,0,1,.24,2,.41.41,0,0,0,.36.41.38.38,0,0,0,.45.17,3,3,0,0,1,1.4,0,.43.43,0,0,0,.54-.41l-.09-2.08a4.59,4.59,0,0,1,.22-1.88C75.7,44.61,75.33,44.34,75.05,44.41Z"/><polygon class="cls-7" points="40.14 9.43 52.86 4.79 60.47 4.7 48.15 9.38 40.14 9.43"/><polygon class="cls-7" points="38.59 13 12.87 13.1 0.2 17.73 37.01 17.35 38.59 13"/><path class="cls-10" d="M73.73,18.52c0,.15,4,9.59,4,9.59l12.2-4.51-5.06-9.37Z"/><path class="cls-11" d="M84.56,25.49l.66-10.89-.07-.09c-.05-.06-.11-.12-.16-.19a.46.46,0,0,1-.07-.07l0,0,0,0,0,0h0l0,0-.07,0a5.26,5.26,0,0,1-.66.25l-.7,11.54A3.92,3.92,0,0,1,84.56,25.49Z"/><path class="cls-11" d="M79.35,27.61h0a2.1,2.1,0,0,1,.26-.13,3.78,3.78,0,0,1,.63-.19l.16-.05h0l.06,0,.25-.12.35-.17.7-11.52a11.13,11.13,0,0,1-1.62.58A.34.34,0,0,1,80,16l-.71,11.63Z"/><line class="cls-2" x1="91.21" y1="24.51" x2="77.46" y2="29.54"/><line class="cls-2" x1="84.88" y1="12.85" x2="72.22" y2="17.49"/><polyline class="cls-2" points="52.53 17.48 65.2 12.85 84.88 12.85 91.21 24.51 91.21 44.2 77.46 49.23"/><polyline class="cls-2" points="48.15 9.33 60.81 4.69 60.81 14.46"/><line class="cls-2" x1="48.15" y1="30.35" x2="52.44" y2="28.78"/><polygon class="cls-10" points="64.13 28.11 73.22 28.11 70.3 20.15 63.9 20.15 64.13 28.11"/><path class="cls-11" d="M67.29,28a.83.83,0,0,1,.46.13h0c.15,0,.08,0,0,0h0l.06,0h0a.68.68,0,0,1,.46-.14l.49.06-3-8c-.5,0-1,0-1.49,0l3,7.94Z"/><path class="cls-11" d="M69.69,28.18a3.58,3.58,0,0,1,.91-.1L67.66,20.2a5.71,5.71,0,0,1-1-.06l3,8.06Z"/><path class="cls-12" d="M38.87,10.76v.55A1.36,1.36,0,0,0,39,12l.15-.43a9.15,9.15,0,0,1,.72-1.67,2,2,0,0,1,.63-.64,3.11,3.11,0,0,1,1-.31,4.85,4.85,0,0,0,.91-.3c.25-.1.5-.18.76-.26a6.5,6.5,0,0,0-2.11,0c-.4.05-.8.11-1.2.19q-.29.06-.57.15L39,8.77l-.08,0a.41.41,0,0,0-.58.08L38.26,9a.49.49,0,0,0,.15.75,1,1,0,0,0,.39.07s0,.06,0,.1Q38.81,10.33,38.87,10.76Z"/><path class="cls-2" d="M39.27,8.75a6.16,6.16,0,0,1,3.81-.51l.12,0"/><polyline class="cls-2" points="72.71 49.23 77.46 49.23 77.46 29.64 72.28 17.48 52.53 17.48 52.53 44.51 55.11 44.51"/><polyline class="cls-2" points="72.19 20.57 75.77 29.54 75.77 44.48 71.33 44.48"/><polyline class="cls-2" points="69.31 18.52 71.37 18.52 72.19 20.57"/><polyline class="cls-2" points="40.19 9.43 52.86 4.79 60.81 4.69"/><polyline class="cls-2" points="62.48 39.98 61.97 18.52 69.31 18.52"/><path class="cls-2" d="M55.11,44.51a9.55,9.55,0,0,1,8.12-4.43,9.33,9.33,0,0,1,9.48,9.15"/><polyline class="cls-2" points="72.65 48.22 7.28 48.22 7.28 40.08"/><polyline class="cls-2" points="48.15 40.08 48.15 30.38 52.53 30.38 52.53 44.33"/><line class="cls-2" x1="7.28" y1="40.08" x2="48.15" y2="40.08"/><polygon class="cls-2" points="64.13 28.11 73.22 28.11 70.3 20.15 63.9 20.15 64.13 28.11"/><path class="cls-6" d="M51.74,30c0-.53,0-13.65,0-18V8.11a3.56,3.56,0,0,0-1.49-3.2,3.15,3.15,0,0,0-1.63-.52H47.55c-.2,0-.36.47-.36,1.05s.16,1,.36,1h1.07s.94,0,.94,1.63c0,.7,0,2.15,0,3.9,0,2.45,0,15.55,0,18"/><rect class="cls-5" x="65.01" y="29.09" width="3.11" height="1.51" rx="0.74"/><path class="cls-1" d="M65.06,41.7a3.71,3.71,0,0,1,1.5.11c3.37.83,5.72,5.31,5.24,10-.37,3.69-2.49,6.5-5,7.12"/><line class="cls-2" x1="66.85" y1="58.94" x2="63.91" y2="59.56"/><line class="cls-2" x1="65.06" y1="41.7" x2="60.99" y2="42.64"/><ellipse class="cls-3" cx="62.39" cy="51.12" rx="6.16" ry="8.65" transform="translate(-2.42 3.11) rotate(-2.8)"/><ellipse class="cls-4" cx="62.28" cy="51.19" rx="2.87" ry="3.94" transform="translate(-3.22 4.19) rotate(-3.76)"/><ellipse class="cls-1" cx="62.28" cy="51.19" rx="0.91" ry="1.25" transform="translate(-3.22 4.19) rotate(-3.76)"/><path class="cls-1" d="M36.51,41.7a3.71,3.71,0,0,1,1.5.11c3.37.83,5.72,5.31,5.24,10-.37,3.69-2.49,6.5-5,7.12"/><line class="cls-2" x1="38.29" y1="58.94" x2="35.35" y2="59.56"/><line class="cls-2" x1="36.51" y1="41.7" x2="32.44" y2="42.64"/><ellipse class="cls-3" cx="33.83" cy="51.12" rx="6.16" ry="8.65" transform="translate(-2.46 1.71) rotate(-2.8)"/><ellipse class="cls-4" cx="33.73" cy="51.19" rx="2.87" ry="3.94" transform="translate(-3.28 2.32) rotate(-3.76)"/><ellipse class="cls-1" cx="33.73" cy="51.19" rx="0.91" ry="1.25" transform="translate(-3.28 2.32) rotate(-3.76)"/><path class="cls-1" d="M19.08,41.7a3.71,3.71,0,0,1,1.5.11c3.37.83,5.72,5.31,5.24,10-.37,3.69-2.49,6.5-4.95,7.12"/><line class="cls-2" x1="20.87" y1="58.94" x2="17.93" y2="59.56"/><line class="cls-2" x1="19.08" y1="41.7" x2="15.01" y2="42.64"/><ellipse class="cls-3" cx="16.41" cy="51.12" rx="6.16" ry="8.65" transform="translate(-2.48 0.86) rotate(-2.8)"/><ellipse class="cls-4" cx="16.3" cy="51.19" rx="2.87" ry="3.94" transform="translate(-3.32 1.18) rotate(-3.76)"/><ellipse class="cls-1" cx="16.3" cy="51.19" rx="0.91" ry="1.25" transform="translate(-3.32 1.18) rotate(-3.76)"/><path class="cls-12" d="M23,14.72c0,.29,0,.58.07.87s0,.37,0,.55a1.43,1.43,0,0,0,.12.68.42.42,0,0,1,.16,0c1.21-.05,2.42-.14,3.62-.07a23.66,23.66,0,0,0,3.26.07h.07a.5.5,0,0,0,0-.12c0-.06.08.07.09,0s0-.07,0-.08.12-.13.14-.14l.43,0a.49.49,0,0,0,.44-.62c-.11-.32-.3-.33-.56-.46a6.41,6.41,0,0,1-1-.68,8.52,8.52,0,0,0-2.18-1.27,6.32,6.32,0,0,0-2.45-.17c-.4,0-.8.09-1.2.16l-.57.13-.29.09-.08,0a.43.43,0,0,0-.58.07l-.08.09a.49.49,0,0,0,.12.75,1,1,0,0,0,.39.08S23,14.69,23,14.72Z"/><path class="cls-2" d="M28.3,15.71c-.47-.07-1-.17-1.52-.29-2.17-.49-3.87-1.14-3.8-1.46s2.15-1.26,4.32-.77,3.61,2.21,3.54,2.53c0,.15-.44.2-1.08.16"/><path class="cls-2" d="M23.37,13.65a.38.38,0,0,0-.22-.06.41.41,0,0,0-.3.08.4.4,0,0,0-.31,0c-.18.07-.3.2-.26.3h0l0,0c-.07.09,0,.28.19.43a.73.73,0,0,0,.31.15.69.69,0,0,0,.6.32.56.56,0,0,0,.28.2.68.68,0,0,0,.33.05.58.58,0,0,0,.29.18.63.63,0,0,0,.35,0,.67.67,0,0,0,.3.18.7.7,0,0,0,.35,0,.69.69,0,0,0,.32.17.75.75,0,0,0,.33,0,.56.56,0,0,0,.3.14l.19,0"/><path class="cls-2" d="M28.27,16.27a.32.32,0,0,1-.15-.09.6.6,0,0,1-.36,0,.56.56,0,0,1-.3-.13.65.65,0,0,1-.34,0A.85.85,0,0,1,27,16"/><path class="cls-2" d="M30.62,15.27a.66.66,0,0,1,.23,0,.49.49,0,0,1,.24.2.44.44,0,0,1,.28.14c.14.13.19.3.11.38h0l0,0c0,.11-.13.25-.35.31a.68.68,0,0,1-.35,0,.52.52,0,0,1-.36.11.72.72,0,0,1-.32-.07.65.65,0,0,1-.33.06.67.67,0,0,1-.32-.1"/><path class="cls-2" d="M26.4,15.88a.58.58,0,0,0,.25.12.78.78,0,0,0,.3,0"/><path class="cls-12" d="M21.73,14.73c0-.33-.17-.41-.37-.62a7.45,7.45,0,0,1-.67-1,8.11,8.11,0,0,0-1.62-1.93,6,6,0,0,0-2.25-1c-.39-.1-.78-.19-1.18-.26a5.73,5.73,0,0,0-.58-.07h-.38a.43.43,0,0,0-.58-.13L14,9.8a.49.49,0,0,0-.14.76,1.11,1.11,0,0,0,.34.2s0,.05,0,.09c-.09.28-.16.56-.23.84s-.13.34-.2.52a1,1,0,0,0,.09,1.13,5.15,5.15,0,0,0,1.14.89c.47.31,1,.61,1.44.89s.94.51,1.42.74l.71.33a1.72,1.72,0,0,0,.62.23c.47,0,.82-.61,1-1l.2-.34.07-.13,0,0a1.49,1.49,0,0,0,.23.09l.41.12A.48.48,0,0,0,21.73,14.73Z"/><path class="cls-2" d="M16.11,15c-1.58-1-2.68-2-2.63-2.33L14.09,11"/><path class="cls-2" d="M16.1,15c1.6,1,3,1.6,3.26,1.42l1.41-1.37"/><path class="cls-2" d="M21.23,14.46c-.17.28-1.84-.47-3.71-1.66s-3.26-2.38-3.08-2.66,2.44-.45,4.32.74S21.41,14.18,21.23,14.46Z"/><path class="cls-2" d="M14.91,10a.72.72,0,0,0-.19-.14.49.49,0,0,0-.31,0,.41.41,0,0,0-.29-.11c-.19,0-.35.08-.35.19v0h0c-.1.05-.08.26,0,.46a.61.61,0,0,0,.24.24.54.54,0,0,0,.18.34.63.63,0,0,0,.27.17.7.7,0,0,0,.2.28.71.71,0,0,0,.29.16.6.6,0,0,0,.22.27.53.53,0,0,0,.31.14.63.63,0,0,0,.23.27.56.56,0,0,0,.33.13.57.57,0,0,0,.23.27.55.55,0,0,0,.31.12.61.61,0,0,0,.24.24.7.7,0,0,0,.17.09"/><path class="cls-2" d="M21.18,14a.47.47,0,0,1,.2.12.39.39,0,0,1,.15.27.4.4,0,0,1,.23.22c.08.17.07.35,0,.4h0v0c0,.11-.2.19-.43.17a.8.8,0,0,1-.32-.11.58.58,0,0,1-.38,0,.64.64,0,0,1-.28-.17A.52.52,0,0,1,20,14.8a.58.58,0,0,1-.27-.2.67.67,0,0,1-.34-.07.75.75,0,0,1-.26-.23.6.6,0,0,1-.34-.09.68.68,0,0,1-.26-.24.62.62,0,0,1-.34-.1.67.67,0,0,1-.24-.23.68.68,0,0,1-.32-.11.77.77,0,0,1-.13-.12"/><path class="cls-2" d="M17,13.11a.53.53,0,0,0,.2.19.67.67,0,0,0,.28.11"/><path class="cls-12" d="M28.85,6.73c-.06-.33-.25-.37-.5-.53a8,8,0,0,1-.86-.79,8.24,8.24,0,0,0-2-1.53,6.22,6.22,0,0,0-2.41-.49c-.4,0-.81,0-1.21,0l-.59.06-.29,0h-.08a.42.42,0,0,0-.59,0l-.09.07a.5.5,0,0,0,0,.77,1,1,0,0,0,.38.12.54.54,0,0,0,0,.1c0,.29,0,.58-.05.87s0,.37-.08.55a1,1,0,0,0,.33,1.09,5.25,5.25,0,0,0,1.31.62c.53.2,1.06.39,1.6.55s1,.3,1.55.42l.76.17a1.85,1.85,0,0,0,.66.09c.45-.1.67-.78.8-1.15a3.16,3.16,0,0,0,.12-.37l0-.15v0a1.48,1.48,0,0,0,.26,0l.42,0A.48.48,0,0,0,28.85,6.73Z"/><path class="cls-2" d="M23.43,8.25c-1.77-.64-3.05-1.37-3.08-1.7l.22-1.84"/><path class="cls-2" d="M23.41,8.25c1.79.64,3.26.91,3.5.67L28,7.28"/><path class="cls-2" d="M23.9,5.6C22,4.89,20.63,4.12,20.73,3.83s2.29-1,4.38-.22,3.3,2.65,3.19,3-1.43,0-3.13-.52"/><path class="cls-2" d="M22.56,5.67a.56.56,0,0,0,.22,0,.61.61,0,0,0,.29.21.68.68,0,0,0,.33.05.62.62,0,0,0,.28.19l.19,0"/><path class="cls-2" d="M21.16,3.57a.49.49,0,0,0-.22-.09.47.47,0,0,0-.3,0,.41.41,0,0,0-.32,0c-.18,0-.31.16-.29.26h0l0,0c-.08.08,0,.27.14.44a.58.58,0,0,0,.28.19.65.65,0,0,0,.25.29A.61.61,0,0,0,21,4.8a.57.57,0,0,0,.25.23l.06,0"/><path class="cls-2" d="M28.14,6.1a.43.43,0,0,1,.23.07.42.42,0,0,1,.2.22.43.43,0,0,1,.27.17c.12.15.14.33.06.4h0V7c0,.11-.16.23-.39.26a.6.6,0,0,1-.34,0,.51.51,0,0,1-.37.06.55.55,0,0,1-.31-.11.61.61,0,0,1-.34,0,.65.65,0,0,1-.3-.14.68.68,0,0,1-.35,0,.66.66,0,0,1-.3-.17.64.64,0,0,1-.36,0,.67.67,0,0,1-.3-.18.61.61,0,0,1-.35,0,.72.72,0,0,1-.29-.17.8.8,0,0,1-.33,0l-.16-.09"/><path class="cls-2" d="M23.87,6.17a.61.61,0,0,0,.24.14.72.72,0,0,0,.3.05"/><path class="cls-12" d="M25.12,10.83c0-.33-.2-.4-.42-.59A6.53,6.53,0,0,1,24,9.33a8.52,8.52,0,0,0-1.7-1.89,6.37,6.37,0,0,0-2.39-.71c-.4-.07-.8-.13-1.2-.16a5.68,5.68,0,0,0-.59,0h-.37a.43.43,0,0,0-.59-.09l-.1.07a.49.49,0,0,0-.08.76,1.06,1.06,0,0,0,.36.17s0,.06-.05.1c-.06.28-.11.57-.16.85l-.15.53a1,1,0,0,0,.17,1.13,5.4,5.4,0,0,0,1.21.8c.49.27,1,.53,1.51.77s1,.43,1.47.63l.73.27a1.8,1.8,0,0,0,.64.18c.46,0,.77-.68,1-1,.06-.12.12-.23.17-.35l.06-.15,0,0c.06,0,.22.06.24.07l.42.09A.48.48,0,0,0,25.12,10.83Z"/><path class="cls-2" d="M19.54,11.58c-1.66-.87-2.83-1.78-2.81-2.11l.47-1.79"/><path class="cls-2" d="M19.53,11.58c1.68.89,3.1,1.35,3.36,1.15l1.29-1.47"/><path class="cls-2" d="M22.73,7.8c1.36,1.09,2,2.56,1.87,2.8s-1.87-.32-3.84-1.36-3.43-2.12-3.28-2.41,2.13-.6,4,.21"/><path class="cls-2" d="M17.94,6.63a.56.56,0,0,0-.2-.12.47.47,0,0,0-.31,0,.39.39,0,0,0-.3-.08c-.19,0-.34.11-.33.22h0c-.09.06-.06.27.07.46a.69.69,0,0,0,.26.23.53.53,0,0,0,.2.31.65.65,0,0,0,.29.16.64.64,0,0,0,.22.26.6.6,0,0,0,.3.13.71.71,0,0,0,.56.37.68.68,0,0,0,.25.26.72.72,0,0,0,.34.1.66.66,0,0,0,.25.25.74.74,0,0,0,.32.09.65.65,0,0,0,.26.22.47.47,0,0,0,.17.07"/><path class="cls-2" d="M24.51,10.11a.41.41,0,0,1,.21.1.39.39,0,0,1,.17.25.41.41,0,0,1,.24.2c.1.17.1.35,0,.4h0v0c0,.11-.19.2-.42.2a.64.64,0,0,1-.33-.09.53.53,0,0,1-.38,0,.72.72,0,0,1-.29-.15.66.66,0,0,1-.33,0,.63.63,0,0,1-.29-.18.64.64,0,0,1-.34,0,.58.58,0,0,1-.28-.21.55.55,0,0,1-.34-.06.65.65,0,0,1-.28-.22.61.61,0,0,1-.35-.07.72.72,0,0,1-.26-.21.62.62,0,0,1-.32-.08l-.15-.11"/><path class="cls-2" d="M20.27,9.58a.59.59,0,0,0,.22.18.75.75,0,0,0,.28.09"/><path class="cls-12" d="M30.72,12.23c.06-.33-.11-.43-.28-.66a7.94,7.94,0,0,1-.53-1.05,8.7,8.7,0,0,0-1.34-2.13,6.23,6.23,0,0,0-2.09-1.3c-.38-.15-.75-.29-1.14-.41l-.57-.15-.3-.06H24.4a.42.42,0,0,0-.55-.21l-.11,0A.48.48,0,0,0,23.5,7a1,1,0,0,0,.31.25l-.07.08c-.12.27-.24.53-.34.8l-.27.49a1,1,0,0,0-.07,1.14,5.47,5.47,0,0,0,1,1c.42.38.86.74,1.31,1.08s.86.64,1.3.93c.22.15.33.42.55.56a2,2,0,0,0,.7.18c.45.06.89-.5,1.15-.8.08-.1.19-.08.27-.18l.11-.13s0-.14,0-.16a1.29,1.29,0,0,0,.23.12l.39.18A.48.48,0,0,0,30.72,12.23Z"/><path class="cls-2" d="M25.11,11.77c-1.43-1.22-2.38-2.35-2.29-2.67l.85-1.65"/><path class="cls-2" d="M27.82,13.58a.47.47,0,0,0,.32,0l1.58-1.16"/><path class="cls-2" d="M25.1,11.76a16.51,16.51,0,0,0,2,1.47"/><path class="cls-2" d="M24.87,7.9c-.57-.62-.86-1.08-.75-1.22S26.61,6.57,28.3,8s2.17,3.63,2,3.88-1.76-.71-3.45-2.15c-.34-.29-.66-.57-.95-.84"/><path class="cls-2" d="M25.46,9.28a1,1,0,0,0,.14.15.6.6,0,0,0,.29.16.49.49,0,0,0,.2.27.57.57,0,0,0,.16.11"/><path class="cls-2" d="M24.61,6.59a.38.38,0,0,0-.17-.16.39.39,0,0,0-.3-.07.4.4,0,0,0-.28-.15c-.18,0-.35,0-.37.15h0c-.1,0-.11.25,0,.47a.66.66,0,0,0,.2.27.55.55,0,0,0,.14.36.66.66,0,0,0,.24.21.68.68,0,0,0,.16.3.61.61,0,0,0,.27.2,1.21,1.21,0,0,0,0,.14"/><path class="cls-2" d="M30.28,11.39a.5.5,0,0,1,.18.15.45.45,0,0,1,.12.28.46.46,0,0,1,.19.25c.06.18,0,.36-.08.39h0a0,0,0,0,1,0,0c0,.1-.22.15-.45.1a.65.65,0,0,1-.3-.15.59.59,0,0,1-.38-.08.56.56,0,0,1-.24-.21.68.68,0,0,1-.33-.1.63.63,0,0,1-.23-.23.73.73,0,0,1-.33-.13.69.69,0,0,1-.23-.26.68.68,0,0,1-.54-.41.55.55,0,0,1-.33-.14.73.73,0,0,1-.2-.26.77.77,0,0,1-.31-.16.45.45,0,0,1-.11-.13"/><path class="cls-12" d="M26.28,12.51c0-.33-.22-.39-.44-.58a7.24,7.24,0,0,1-.77-.88A8.34,8.34,0,0,0,23.26,9.3a6,6,0,0,0-2.34-.75c-.4-.06-.8-.11-1.2-.13a5.86,5.86,0,0,0-.59,0l-.3,0h-.08a.42.42,0,0,0-.59-.07l-.1.06a.5.5,0,0,0,0,.77,1,1,0,0,0,.36.16.18.18,0,0,0,0,.1c-.06.28-.11.57-.15.86s-.09.35-.14.53A1,1,0,0,0,18.25,12a5.2,5.2,0,0,0,1.23.77c.5.26,1,.5,1.52.73s1,.41,1.5.59l.73.25a1.83,1.83,0,0,0,.65.16c.46,0,.75-.7.93-1.05l.16-.36.05-.14,0,0a1,1,0,0,0,.24.06l.42.09A.5.5,0,0,0,26.28,12.51Z"/><path class="cls-2" d="M18,11.6a.43.43,0,0,1-.11-.23l.43-1.8"/><path class="cls-2" d="M20.72,13.41a17.53,17.53,0,0,1-1.62-.9"/><line class="cls-2" x1="24.95" y1="13.45" x2="25.35" y2="12.96"/><path class="cls-2" d="M20.7,13.4c1.71.85,3.14,1.28,3.4,1.07l.17-.21"/><path class="cls-2" d="M19.61,9.75c-.73-.48-1.16-.87-1.07-1s.54-.28,1.24-.33"/><path class="cls-2" d="M21.17,8.45A6.33,6.33,0,0,1,22.91,9c2,1,3,3,2.84,3.3S23.87,12,21.88,11c-.35-.17-.68-.34-1-.51"/><path class="cls-2" d="M19,8.5a.42.42,0,0,0-.21-.11.38.38,0,0,0-.3,0,.42.42,0,0,0-.31-.08c-.19,0-.33.12-.32.23h0c-.09.07-.05.27.08.46a.64.64,0,0,0,.26.22.64.64,0,0,0,.22.31.73.73,0,0,0,.29.15.56.56,0,0,0,.22.25.67.67,0,0,0,.31.13.69.69,0,0,0,.24.25.71.71,0,0,0,.33.11.61.61,0,0,0,.26.24.68.68,0,0,0,.33.1.65.65,0,0,0,.27.24.58.58,0,0,0,.32.08.58.58,0,0,0,.26.22.64.64,0,0,0,.18.06"/><path class="cls-2" d="M25.64,11.81a.51.51,0,0,1,.22.09.46.46,0,0,1,.18.25.4.4,0,0,1,.24.2c.1.16.11.33,0,.39h0v0c0,.11-.18.2-.41.21a.59.59,0,0,1-.33-.08.53.53,0,0,1-.38,0,.6.6,0,0,1-.29-.14.68.68,0,0,1-.34,0,.72.72,0,0,1-.29-.17.63.63,0,0,1-.34,0,.66.66,0,0,1-.29-.19.68.68,0,0,1-.35-.06.58.58,0,0,1-.28-.21.68.68,0,0,1-.27,0"/><path class="cls-2" d="M21.39,11.39a.58.58,0,0,0,.22.17.53.53,0,0,0,.29.08"/><path class="cls-5" d="M22.37,14.37a.51.51,0,0,0,0-.24l-.07-.1a.41.41,0,0,0-.21-.15l-.11-.05.09.05a.36.36,0,0,0-.18-.07.37.37,0,0,0-.18,0,.33.33,0,0,0-.17.07.29.29,0,0,0-.14.13l-.06.11a.43.43,0,0,0,0,.25l0,.12a.42.42,0,0,0,.16.19l.14.07,0,0,.07,0a.4.4,0,0,0,.19,0,.39.39,0,0,0,.18,0,.3.3,0,0,0,.14-.11.39.39,0,0,0,.1-.16Z"/><path class="cls-12" d="M37.3,16.7a12,12,0,0,0,.49-1.17c.19-.57.35-1.15.54-1.72a.51.51,0,0,1,.33-.34c0-.05,0-.11.05-.16a11.2,11.2,0,0,1,.54-1.1h0a6.06,6.06,0,0,0-2.14,1.21,11.59,11.59,0,0,0-.92.79l-.41.42-.19.24s0,0,0,.06a.42.42,0,0,0-.45.38l0,.11c0,.28.21.63.52.56a1,1,0,0,0,.37-.15,1,1,0,0,0,0,.1c.17.23.34.46.53.68a.5.5,0,0,1,.21,0A1.77,1.77,0,0,0,37.3,16.7Z"/><line class="cls-2" x1="36.37" y1="16.58" x2="36.02" y2="16.04"/><path class="cls-2" d="M37.8,15c-1.25.36-2.15.49-2.23.28s1.1-2.23,3.18-3l.21-.07"/><path class="cls-2" d="M35.72,14.8a.47.47,0,0,0-.22.07.5.5,0,0,0-.21.23.44.44,0,0,0-.26.17c-.12.15-.14.33-.05.4h0s0,0,0,0,.16.22.39.24a.57.57,0,0,0,.33,0,.55.55,0,0,0,.38.06.75.75,0,0,0,.31-.11.71.71,0,0,0,.33,0,.74.74,0,0,0,.31-.14.79.79,0,0,0,.34,0,.83.83,0,0,0,.25-.12"/><path class="cls-12" d="M24,16.77a21.66,21.66,0,0,0,2.79.06l2.77-.23a5,5,0,0,1,1.23,0,.85.85,0,0,0-.47-.16,6.73,6.73,0,0,1-.93-.38,7.17,7.17,0,0,0-2.07-.62,5.43,5.43,0,0,0-2.07.35c-.33.11-.65.24-1,.38a4.66,4.66,0,0,0-.45.22l-.22.13-.06,0a.36.36,0,0,0-.47.18l0,0C23.4,16.75,23.72,16.75,24,16.77Z"/><path class="cls-2" d="M23.62,16.67A5,5,0,0,1,27,15.33a4.72,4.72,0,0,1,3.42,1.31"/><path class="cls-2" d="M23.79,16.49a.44.44,0,0,0-.2,0,.46.46,0,0,0-.23.12.4.4,0,0,0-.26.07.1.1,0,0,0-.05,0"/><path class="cls-2" d="M30.15,16.4a.44.44,0,0,1,.2,0,.42.42,0,0,1,.23.12.36.36,0,0,1,.27.06.41.41,0,0,1,.15.14"/><path class="cls-12" d="M36.49,6c-.23-.24-.41-.16-.7-.16a7.79,7.79,0,0,1-1.16-.19,7.87,7.87,0,0,0-2.51-.18,6,6,0,0,0-2.28.92c-.34.21-.68.43-1,.67-.15.11-.31.24-.46.37l-.22.2s0,0,0,.05a.44.44,0,0,0-.5.32l0,.12a.48.48,0,0,0,.44.62,1,1,0,0,0,.38-.1s0,.07,0,.1c.13.25.28.5.44.75s.15.33.23.5c.2.42.38.69.88.73a5.36,5.36,0,0,0,1.43-.2c.55-.12,1.1-.26,1.64-.42s1-.31,1.53-.5l.72-.27a1.69,1.69,0,0,0,.6-.3c.32-.33.13-1,0-1.4,0-.13-.06-.25-.1-.37l-.05-.15a.06.06,0,0,1,0,0A2.22,2.22,0,0,0,36,7l.38-.21A.48.48,0,0,0,36.49,6Z"/><path class="cls-2" d="M32.8,10.26c-1.83.44-3.3.53-3.51.27l-.82-1.66"/><path class="cls-2" d="M32.78,10.27c1.85-.45,3.23-1,3.3-1.36V7"/><path class="cls-2" d="M31.74,7.79c-2,.44-3.55.56-3.62.26S29.49,6,31.65,5.46s4.22.4,4.3.72-1.18.81-2.9,1.29"/><path class="cls-2" d="M30.66,8.58a.68.68,0,0,0,.19-.11.56.56,0,0,0,.35,0,.74.74,0,0,0,.31-.14.61.61,0,0,0,.33,0A.75.75,0,0,0,32,8.28"/><path class="cls-2" d="M28.33,7.6a.49.49,0,0,0-.23,0,.46.46,0,0,0-.23.2.46.46,0,0,0-.29.14c-.13.14-.18.31-.1.39h0a0,0,0,0,0,0,0c0,.11.13.24.35.3a.65.65,0,0,0,.34,0,.61.61,0,0,0,.37.1.72.72,0,0,0,.32-.07.66.66,0,0,0,.33,0h.07"/><path class="cls-2" d="M35.56,5.87a.44.44,0,0,1,.22-.06.46.46,0,0,1,.3.07.41.41,0,0,1,.31,0c.18.06.3.19.27.29h0l0,0c.07.08,0,.27-.18.42a.77.77,0,0,1-.31.16.58.58,0,0,1-.28.25.57.57,0,0,1-.31.08.7.7,0,0,1-.28.2.58.58,0,0,1-.33,0,.66.66,0,0,1-.29.19.63.63,0,0,1-.35,0,.57.57,0,0,1-.3.18.61.61,0,0,1-.35,0,.65.65,0,0,1-.31.18.75.75,0,0,1-.33,0,.65.65,0,0,1-.3.15.56.56,0,0,1-.18,0"/><path class="cls-2" d="M32,8.28a.71.71,0,0,0,.55-.14"/><path class="cls-12" d="M35.63,11.49c-.2-.27-.39-.23-.67-.26a7.27,7.27,0,0,1-1.12-.35,8.61,8.61,0,0,0-2.46-.65,6.4,6.4,0,0,0-2.39.71c-.37.16-.74.34-1.09.53l-.51.3-.24.17-.07.05a.41.41,0,0,0-.53.25l-.05.1a.49.49,0,0,0,.35.68.93.93,0,0,0,.39,0s0,.07,0,.11c.1.27.21.54.33.8l.17.53c.14.45.27.73.76.84a5,5,0,0,0,1.45,0q.84-.06,1.68-.18c.53-.08,1.06-.17,1.58-.28l.76-.18a1.78,1.78,0,0,0,.63-.2c.37-.28.27-1,.24-1.39,0-.13,0-.25,0-.38l0-.16s0,0,0,0a1.33,1.33,0,0,0,.24-.08l.4-.15A.48.48,0,0,0,35.63,11.49Z"/><path class="cls-2" d="M31.38,15.18c-1.87.18-3.34.07-3.51-.22l-.59-1.76"/><path class="cls-2" d="M31.37,15.19c1.89-.18,3.33-.58,3.45-.89l.26-1.94"/><path class="cls-2" d="M32,10.27c1.73.16,3.07,1,3.1,1.31s-1.74.76-3.95,1-4,.12-4.07-.21,1.45-1.67,3.46-2"/><path class="cls-2" d="M27.32,11.92a.48.48,0,0,0-.23,0,.39.39,0,0,0-.25.16.45.45,0,0,0-.31.1c-.15.11-.22.28-.15.37h0l0,0c0,.1.1.26.31.34A.54.54,0,0,0,27,13a.52.52,0,0,0,.35.16.79.79,0,0,0,.32,0,.67.67,0,0,0,.32.1.63.63,0,0,0,.33-.06.76.76,0,0,0,.68,0,.63.63,0,0,0,.34.08.76.76,0,0,0,.34-.1.61.61,0,0,0,.35.06.61.61,0,0,0,.32-.09.66.66,0,0,0,.33.05l.19,0"/><path class="cls-2" d="M34.72,11.22a.43.43,0,0,1,.23,0,.46.46,0,0,1,.29.11.4.4,0,0,1,.31,0c.17.09.27.23.22.33h0l0,0c.06.09,0,.26-.24.39a.68.68,0,0,1-.33.11.55.55,0,0,1-.31.22.62.62,0,0,1-.32,0,.57.57,0,0,1-.3.16.79.79,0,0,1-.34,0,.56.56,0,0,1-.31.14.57.57,0,0,1-.35,0,.53.53,0,0,1-.32.14.64.64,0,0,1-.35,0A.74.74,0,0,1,32,13a.8.8,0,0,1-.32.11h-.18"/><path class="cls-2" d="M30.89,13.11a.6.6,0,0,0,.28,0,.67.67,0,0,0,.29-.08"/><path class="cls-12" d="M39,12.37a.61.61,0,0,0,0-.12h0a6.58,6.58,0,0,1,.29-.66c.1-.23.14-.36.23-.62.19-.52.43-1,.65-1.53a.34.34,0,0,1,.15-.14c-.32-.16-.62-.52-.92-.69a8.32,8.32,0,0,0-2.29-1,6.37,6.37,0,0,0-2.46.07c-.4.08-.79.17-1.18.28-.19,0-.37.11-.56.18l-.27.12-.08,0a.42.42,0,0,0-.57.13L32,8.45a.49.49,0,0,0,.2.74,1.08,1.08,0,0,0,.39,0s0,.07,0,.1c0,.29.09.58.15.86s0,.37,0,.55c0,.47.11.78.57,1a5.15,5.15,0,0,0,1.41.31q.84.12,1.68.18c.54,0,1.07.06,1.61.07.25,0,.5.16.76.16a.91.91,0,0,0,.21,0Z"/><path class="cls-2" d="M36.14,12.28c-1.87-.23-3.28-.66-3.38-1l-.2-1.85"/><path class="cls-2" d="M36.12,12.27a15.48,15.48,0,0,0,2.48.13"/><path class="cls-2" d="M39.89,9.78a16,16,0,0,1-3.45-.13c-.44-.06-.86-.12-1.25-.19"/><path class="cls-2" d="M33.81,9.17c-.81-.2-1.31-.42-1.29-.6s2-1.46,4.22-1.19a5.92,5.92,0,0,1,3.62,1.87"/><path class="cls-2" d="M35.07,10a.53.53,0,0,0,.19.06.58.58,0,0,0,.33,0,.63.63,0,0,0,.32.12h.19"/><path class="cls-2" d="M32.87,8.22a.53.53,0,0,0-.23,0,.45.45,0,0,0-.28.11.46.46,0,0,0-.32,0c-.17.08-.27.22-.23.32h0l0,0c-.06.09.05.27.23.4a.71.71,0,0,0,.32.12.59.59,0,0,0,.31.22.54.54,0,0,0,.32,0,.66.66,0,0,0,.3.17.64.64,0,0,0,.33,0l.13.09"/><path class="cls-2" d="M39.67,10.38l-.14,0a.62.62,0,0,1-.33-.07.69.69,0,0,1-.68,0,.56.56,0,0,1-.34.07.65.65,0,0,1-.34-.11.61.61,0,0,1-.35.06.63.63,0,0,1-.31-.1.72.72,0,0,1-.34,0,.31.31,0,0,1-.17,0"/><path class="cls-12" d="M37.52,12.26c-.2-.26-.39-.21-.68-.24a9.05,9.05,0,0,1-1.13-.32,8.38,8.38,0,0,0-2.48-.47,6.08,6.08,0,0,0-2.36.66c-.37.17-.73.35-1.08.55a5.29,5.29,0,0,0-.5.32l-.24.18L29,13a.42.42,0,0,0-.53.26l-.05.11a.49.49,0,0,0,.37.67.92.92,0,0,0,.39-.06s0,.07,0,.11c.11.26.23.53.36.79s.12.35.17.53c.16.44.3.72.79.82a5,5,0,0,0,1.45,0c.56-.05,1.12-.13,1.67-.23s1.06-.2,1.58-.32l.75-.19a1.84,1.84,0,0,0,.63-.23c.36-.29.24-1,.19-1.39a2.71,2.71,0,0,0-.06-.38l0-.15a.06.06,0,0,0,0,0c.07,0,.22-.08.24-.08l.4-.17A.48.48,0,0,0,37.52,12.26Z"/><path class="cls-2" d="M30.07,16.07a.49.49,0,0,1-.22-.13l-.63-1.75"/><path class="cls-2" d="M33.37,16.07c-.69.08-1.32.12-1.85.13"/><line class="cls-2" x1="36.92" y1="13.77" x2="36.99" y2="13.14"/><path class="cls-2" d="M33.35,16.07c1.89-.23,3.32-.66,3.43-1l0-.27"/><path class="cls-2" d="M30.43,13.62c-.88,0-1.44-.1-1.46-.28s.3-.54.85-1"/><path class="cls-2" d="M31,11.67a5.94,5.94,0,0,1,1.75-.5C35,10.9,36.92,12,37,12.37s-1.72.8-3.93,1.07c-.38.05-.75.08-1.1.11"/><path class="cls-2" d="M29.23,12.91a.69.69,0,0,0-.24,0,.53.53,0,0,0-.25.17.46.46,0,0,0-.3.11c-.14.12-.21.28-.14.37h0s0,0,0,0,.1.25.32.33A.61.61,0,0,0,29,14a.52.52,0,0,0,.35.14.64.64,0,0,0,.32,0,.76.76,0,0,0,.33.09.65.65,0,0,0,.33-.07.63.63,0,0,0,.34.08.72.72,0,0,0,.33-.09.71.71,0,0,0,.35.06.68.68,0,0,0,.33-.1.72.72,0,0,0,.35,0,.67.67,0,0,0,.32-.1.67.67,0,0,0,.33,0l.19-.05"/><path class="cls-2" d="M36.6,12a.45.45,0,0,1,.23,0,.41.41,0,0,1,.29.11.35.35,0,0,1,.31,0c.18.07.28.22.23.32h0l0,0c.06.09,0,.27-.23.4a.58.58,0,0,1-.32.12.56.56,0,0,1-.31.23.76.76,0,0,1-.32,0,.62.62,0,0,1-.29.17.66.66,0,0,1-.34,0,.56.56,0,0,1-.31.15.65.65,0,0,1-.34,0,.63.63,0,0,1-.32.14.56.56,0,0,1-.35,0,.53.53,0,0,1-.25.12"/><path class="cls-2" d="M32.83,14a.76.76,0,0,0,.28,0,.84.84,0,0,0,.28-.09"/><path class="cls-5" d="M31.19,16.13a.36.36,0,0,0-.14-.16l-.1,0a.5.5,0,0,0-.21,0l-.11,0h.09a.22.22,0,0,0-.16,0,.29.29,0,0,0-.14.08.38.38,0,0,0-.09.13.42.42,0,0,0,0,.15l0,.11a.32.32,0,0,0,.1.19l.08.07a.36.36,0,0,0,.2.06h.24a.44.44,0,0,0,.15-.08.29.29,0,0,0,.11-.11.44.44,0,0,0,0-.15.29.29,0,0,0,0-.16Z"/><path class="cls-12" d="M15.32,16.49a1,1,0,0,0,.39-.06.31.31,0,0,0,0,.1l.12.27c1.33-.12,2.69,0,4,0,.75,0,1.51,0,2.26,0a8.58,8.58,0,0,1,1.24,0c0-.17,0-.34,0-.47s0-.25-.07-.38.1,0,.09,0,0-.08,0-.09.07-.17.09-.17l.4-.17a.48.48,0,0,0,.19-.74c-.2-.26-.39-.2-.68-.23a7.62,7.62,0,0,1-1.13-.32,8.37,8.37,0,0,0-2.48-.46,6.15,6.15,0,0,0-2.36.67,9.86,9.86,0,0,0-1.07.56c-.17.1-.34.2-.5.31a2.23,2.23,0,0,0-.24.19l-.07,0a.42.42,0,0,0-.52.26l-.05.11A.49.49,0,0,0,15.32,16.49Z"/><line class="cls-2" x1="23.41" y1="16.66" x2="23.52" y2="15.58"/><path class="cls-2" d="M21.09,15.66c-.47.08-1,.17-1.53.23-2.2.28-4,.24-4.07-.08s1.6-1.91,3.8-2.19,4.15.86,4.19,1.19c0,.15-.34.33-1,.51"/><path class="cls-2" d="M15.75,15.38a.48.48,0,0,0-.23,0,.4.4,0,0,0-.25.17.45.45,0,0,0-.3.11c-.15.12-.21.28-.14.37h0s0,0,0,0,.1.25.32.33a.61.61,0,0,0,.34,0,.57.57,0,0,0,.35.14.63.63,0,0,0,.32,0,.64.64,0,0,0,.33.09.65.65,0,0,0,.33-.06.78.78,0,0,0,.34.07.68.68,0,0,0,.33-.09.71.71,0,0,0,.35.06.59.59,0,0,0,.33-.11.61.61,0,0,0,.35.06.55.55,0,0,0,.32-.11.59.59,0,0,0,.34,0,.53.53,0,0,0,.18-.05"/><path class="cls-2" d="M21.26,16.19a.54.54,0,0,1-.19,0,.6.6,0,0,1-.32.14.58.58,0,0,1-.33,0,.58.58,0,0,1-.32.12h-.18"/><path class="cls-2" d="M23.13,14.46a.41.41,0,0,1,.23,0,.42.42,0,0,1,.28.1.46.46,0,0,1,.32,0c.17.08.27.23.23.33h0l0,0c.06.09,0,.27-.23.4a.58.58,0,0,1-.32.12.56.56,0,0,1-.31.23.76.76,0,0,1-.32,0,.62.62,0,0,1-.29.17.81.81,0,0,1-.34,0"/><path class="cls-2" d="M19.36,16.46a.48.48,0,0,0,.28,0,.66.66,0,0,0,.28-.09"/><path class="cls-12" d="M5.76,15.69a.92.92,0,0,0,.39.07.43.43,0,0,0,0,.11q0,.44.06.87v.08c2.81,0,5.57.33,8.37.1-.11-.27-.3-.3-.54-.42a7,7,0,0,1-1-.68,8.35,8.35,0,0,0-2.18-1.27,6.12,6.12,0,0,0-2.45-.17,9.45,9.45,0,0,0-1.19.16,3.75,3.75,0,0,0-.58.13,1.61,1.61,0,0,0-.29.09l-.07,0a.42.42,0,0,0-.59.07l-.08.09A.48.48,0,0,0,5.76,15.69Z"/><line class="cls-2" x1="6.12" y1="16.89" x2="6.11" y2="15.99"/><path class="cls-2" d="M11.48,16.86c-.47-.07-1-.17-1.52-.29-2.17-.49-3.87-1.15-3.8-1.46s2.14-1.26,4.31-.77A5.81,5.81,0,0,1,14,16.66"/><path class="cls-2" d="M6.55,14.79a.52.52,0,0,0-.23-.06.42.42,0,0,0-.29.08.44.44,0,0,0-.32,0c-.18.06-.3.19-.26.3h0l0,0c-.07.08,0,.27.19.42a.57.57,0,0,0,.3.15.58.58,0,0,0,.29.26.65.65,0,0,0,.31.07.76.76,0,0,0,.28.19.58.58,0,0,0,.33.05.73.73,0,0,0,.29.19.62.62,0,0,0,.35,0,.65.65,0,0,0,.31.18.6.6,0,0,0,.35,0,.65.65,0,0,0,.31.18.61.61,0,0,0,.33,0l0,0"/><path class="cls-12" d="M18.57,7c-.17-.28-.37-.25-.65-.32a7.71,7.71,0,0,1-1.08-.45,8.21,8.21,0,0,0-2.4-.77A6.12,6.12,0,0,0,12,5.83q-.57.18-1.14.42a5.12,5.12,0,0,0-.53.25l-.26.15-.07,0a.44.44,0,0,0-.56.2l0,.1a.48.48,0,0,0,.28.71.89.89,0,0,0,.4,0,.41.41,0,0,0,0,.11c.08.28.16.55.26.83s.07.36.11.54c.09.46.2.76.68.91a5,5,0,0,0,1.44.15c.56,0,1.12,0,1.69,0s1.07-.07,1.6-.13l.77-.1a1.8,1.8,0,0,0,.65-.14c.39-.25.36-1,.37-1.36,0-.13,0-.26,0-.39l0-.15v0l.25-.06.41-.11A.49.49,0,0,0,18.57,7Z"/><path class="cls-2" d="M14,10.28c-1.88,0-3.33-.26-3.47-.56l-.42-1.81"/><path class="cls-2" d="M14,10.28c1.91,0,3.38-.24,3.52-.54l.46-1.91"/><path class="cls-2" d="M13.53,7.63C11.51,7.6,10,7.34,10,7s1.82-1.7,4-1.69,4,1.38,4,1.7-1.34.52-3.12.57"/><path class="cls-2" d="M12.29,8.15a.4.4,0,0,0,.21-.07.58.58,0,0,0,.35.1.61.61,0,0,0,.32-.06.62.62,0,0,0,.33.08l.19,0"/><path class="cls-2" d="M10.26,6.65a.48.48,0,0,0-.51.13.42.42,0,0,0-.31.06c-.16.1-.24.26-.18.35h0l0,0c-.05.09.07.26.28.37a.64.64,0,0,0,.33.08.58.58,0,0,0,.33.19.73.73,0,0,0,.33,0,.59.59,0,0,0,.31.13h.07"/><path class="cls-2" d="M17.69,6.66a.58.58,0,0,1,.23,0,.42.42,0,0,1,.27.15.41.41,0,0,1,.31.06c.16.1.25.26.19.35h0l0,0c.05.1-.07.26-.27.37a.69.69,0,0,1-.34.08.5.5,0,0,1-.33.18.58.58,0,0,1-.32,0,.63.63,0,0,1-.32.13.69.69,0,0,1-.33,0,.67.67,0,0,1-.33.11.58.58,0,0,1-.34,0,.62.62,0,0,1-.34.11.57.57,0,0,1-.34-.07.57.57,0,0,1-.34.1.62.62,0,0,1-.33-.07.62.62,0,0,1-.33.08.52.52,0,0,1-.18,0"/><path class="cls-2" d="M13.7,8.17a.51.51,0,0,0,.27.06.6.6,0,0,0,.29-.06"/><path class="cls-12" d="M16.45,12.14c-.13-.31-.33-.31-.6-.41a7.53,7.53,0,0,1-1-.61,8.16,8.16,0,0,0-2.23-1.2,6.17,6.17,0,0,0-2.49.13,12,12,0,0,0-1.19.26c-.19,0-.37.1-.56.17l-.28.11-.07,0a.43.43,0,0,0-.58.12l-.07.09a.49.49,0,0,0,.18.74.93.93,0,0,0,.39,0,.33.33,0,0,0,0,.1c0,.29.08.58.13.86s0,.37,0,.55c0,.47.09.78.54,1a4.85,4.85,0,0,0,1.41.34c.56.09,1.11.17,1.67.22s1.07.08,1.61.09h.77a1.67,1.67,0,0,0,.67,0c.42-.19.49-.9.55-1.29,0-.13,0-.26,0-.39v-.15s0,0,0,0l.25,0,.42,0A.49.49,0,0,0,16.45,12.14Z"/><path class="cls-2" d="M11.45,14.74c-1.86-.27-3.26-.73-3.36-1l-.16-1.85"/><path class="cls-2" d="M11.43,14.73c1.89.27,3.38.23,3.56-.05l.72-1.83"/><path class="cls-2" d="M13.17,10.1a4.56,4.56,0,0,1,2.71,2c-.05.32-1.87.33-4.07,0S7.86,11.28,7.91,11,9.7,9.67,11.74,9.81"/><path class="cls-2" d="M8.27,10.62a.52.52,0,0,0-.23,0,.55.55,0,0,0-.29.1.43.43,0,0,0-.31,0c-.18.07-.28.22-.24.32h0l0,0c-.06.09,0,.27.22.41a.67.67,0,0,0,.32.12.49.49,0,0,0,.3.23.66.66,0,0,0,.32,0,.66.66,0,0,0,.3.17.65.65,0,0,0,.33,0,.74.74,0,0,0,.31.16.55.55,0,0,0,.34,0,.64.64,0,0,0,.32.16.56.56,0,0,0,.35,0,.63.63,0,0,0,.33.15.7.7,0,0,0,.33,0,.63.63,0,0,0,.31.12h.19"/><path class="cls-2" d="M15.62,11.66a.53.53,0,0,1,.24,0,.42.42,0,0,1,.24.18.39.39,0,0,1,.3.11c.15.12.21.29.14.37h0l0,0c0,.1-.11.25-.33.32a.61.61,0,0,1-.34,0,.54.54,0,0,1-.35.13.57.57,0,0,1-.33,0,.58.58,0,0,1-.32.08.54.54,0,0,1-.33-.07.57.57,0,0,1-.34.07.59.59,0,0,1-.33-.1.61.61,0,0,1-.35.06.67.67,0,0,1-.33-.11.73.73,0,0,1-.67-.06.71.71,0,0,1-.34,0,.58.58,0,0,1-.17-.06"/><path class="cls-2" d="M11.46,12.61a.71.71,0,0,0,.26.09.56.56,0,0,0,.3,0"/><path class="cls-12" d="M22.19,11.56c-.06-.33-.25-.37-.49-.53a9.26,9.26,0,0,1-.86-.8,8.32,8.32,0,0,0-2-1.56,6.19,6.19,0,0,0-2.4-.51c-.41,0-.81,0-1.21,0a5.63,5.63,0,0,0-.59.05l-.3,0h-.07a.43.43,0,0,0-.59,0l-.09.08a.49.49,0,0,0,0,.77.94.94,0,0,0,.37.12.54.54,0,0,0,0,.1,8.46,8.46,0,0,0-.05.87l-.09.55a1,1,0,0,0,.32,1.09,5.08,5.08,0,0,0,1.3.64q.78.31,1.59.57c.51.16,1,.31,1.55.44.25.06.45.28.7.33a1.9,1.9,0,0,0,.71-.06c.46-.1.68-.77.82-1.15.05-.12.15-.13.19-.26s0-.1.06-.15-.08-.13-.07-.14a1.29,1.29,0,0,0,.25,0l.42,0A.48.48,0,0,0,22.19,11.56Z"/><path class="cls-2" d="M16.75,13c-1.76-.66-3-1.4-3.06-1.73l.24-1.84"/><path class="cls-2" d="M19.92,13.81a.43.43,0,0,0,.3-.08l1.1-1.63"/><path class="cls-2" d="M16.74,13a15.73,15.73,0,0,0,2.38.7"/><path class="cls-2" d="M15.21,9.46c-.73-.39-1.17-.72-1.11-.89s2.3-1,4.38-.17,3.28,2.69,3.16,3-1.89-.08-4-.86c-.41-.16-.8-.31-1.17-.47"/><path class="cls-2" d="M16.24,10.56a.77.77,0,0,0,.18.1.58.58,0,0,0,.33.05.62.62,0,0,0,.28.19.61.61,0,0,0,.18,0"/><path class="cls-2" d="M14.53,8.32a.46.46,0,0,0-.21-.1.5.5,0,0,0-.31,0,.39.39,0,0,0-.31,0c-.19,0-.32.15-.3.26h0l0,0c-.09.07,0,.27.12.44a.66.66,0,0,0,.29.19.53.53,0,0,0,.24.29.76.76,0,0,0,.31.12.67.67,0,0,0,.24.23.57.57,0,0,0,.33.09A.35.35,0,0,0,15,10"/><path class="cls-2" d="M21.49,10.92a.63.63,0,0,1,.22.07.42.42,0,0,1,.2.23.41.41,0,0,1,.27.18c.12.14.14.32.05.39h0s0,0,0,0-.17.22-.39.25a.69.69,0,0,1-.34,0,.62.62,0,0,1-.38.05.59.59,0,0,1-.3-.11.76.76,0,0,1-.65-.13.57.57,0,0,1-.34,0,.64.64,0,0,1-.31-.16.72.72,0,0,1-.35,0,.67.67,0,0,1-.3-.18.74.74,0,0,1-.64-.21.58.58,0,0,1-.33,0,.42.42,0,0,1-.16-.09"/><path class="cls-12" d="M18.1,13.33c-.14-.3-.33-.3-.6-.4a7.44,7.44,0,0,1-1-.57,7.8,7.8,0,0,0-2.3-1,6.13,6.13,0,0,0-2.45.08,11.94,11.94,0,0,0-1.18.29,4.11,4.11,0,0,0-.56.19L9.71,12l-.07,0a.44.44,0,0,0-.58.13l-.07.1A.49.49,0,0,0,9.2,13a1.06,1.06,0,0,0,.39,0s0,.07,0,.11c.05.28.1.57.16.85s0,.37,0,.55c0,.47.11.78.57,1a5.29,5.29,0,0,0,1.42.3c.56.08,1.12.13,1.68.17s1.07.05,1.61.05h.77a1.7,1.7,0,0,0,.67-.06c.41-.2.46-.91.51-1.31a2.56,2.56,0,0,0,0-.39v-.19l.25,0,.42-.06A.49.49,0,0,0,18.1,13.33Z"/><path class="cls-2" d="M10,15.29a.5.5,0,0,1-.18-.18l-.21-1.85"/><path class="cls-2" d="M13.17,16.06a17.3,17.3,0,0,1-1.83-.31"/><line class="cls-2" x1="17.17" y1="14.66" x2="17.38" y2="14.07"/><path class="cls-2" d="M13.16,16.06c1.89.22,3.38.13,3.56-.15l.09-.25"/><path class="cls-2" d="M10.89,13c-.85-.21-1.38-.44-1.36-.61s.42-.46,1.06-.74"/><path class="cls-2" d="M11.92,11.24a5.75,5.75,0,0,1,1.82-.08c2.21.25,3.83,1.82,3.79,2.14s-1.86.38-4.07.13l-1.09-.15"/><path class="cls-2" d="M9.89,12a.59.59,0,0,0-.23,0,.46.46,0,0,0-.29.12.35.35,0,0,0-.31,0c-.18.08-.28.22-.23.32h0l0,0c-.06.09,0,.27.23.39a.61.61,0,0,0,.32.12.6.6,0,0,0,.31.23.78.78,0,0,0,.32,0,.76.76,0,0,0,.3.16.54.54,0,0,0,.33,0,.65.65,0,0,0,.31.16.66.66,0,0,0,.35,0,.63.63,0,0,0,.32.14.65.65,0,0,0,.35,0,.67.67,0,0,0,.33.13.69.69,0,0,0,.33,0,.67.67,0,0,0,.32.11h.19"/><path class="cls-2" d="M17.27,12.88a.47.47,0,0,1,.23,0,.4.4,0,0,1,.25.17.42.42,0,0,1,.3.1c.15.12.22.28.15.37h0l0,0c0,.1-.1.25-.32.33a.74.74,0,0,1-.34.05.57.57,0,0,1-.35.14.63.63,0,0,1-.32,0,.61.61,0,0,1-.33.1.65.65,0,0,1-.33-.07.62.62,0,0,1-.33.08.65.65,0,0,1-.34-.09.69.69,0,0,1-.68,0,.62.62,0,0,1-.27.07"/><path class="cls-2" d="M13.13,13.93a.71.71,0,0,0,.26.09.66.66,0,0,0,.3,0"/><path class="cls-5" d="M14.56,16.74l.07.09a.4.4,0,0,0,.18.1L15,17h.1a.32.32,0,0,0,.16,0,.38.38,0,0,0,.13-.09.22.22,0,0,0,.08-.13.29.29,0,0,0,0-.16l0-.11a.32.32,0,0,0-.1-.18l-.08-.06a.42.42,0,0,0-.21-.06h0a.33.33,0,0,0-.17,0,.3.3,0,0,0-.15.05.32.32,0,0,0-.12.11.31.31,0,0,0-.07.14v.11a.46.46,0,0,0,.05.2"/><line class="cls-2" x1="0.2" y1="17.73" x2="5.63" y2="15.75"/><path class="cls-5" d="M19.68,42.93c-.06-.11-.12-.23-.17-.34l-.08-.23a.28.28,0,0,0,0-.13.48.48,0,0,0-.25-.43.61.61,0,0,0-.44,0l-.17,0a2.57,2.57,0,0,1-.48,0,.37.37,0,0,0-.25.09l-.11,0c-.17.05-1,.33-1,.52s.69,0,.73.1a.45.45,0,0,0,.25.2h0c.24.1.47.21.7.33a3.14,3.14,0,0,1,.31.18l.07,0,.06.06h0a.44.44,0,0,0,.58.16A.43.43,0,0,0,19.68,42.93Z"/><path class="cls-5" d="M21.34,57.75a.37.37,0,0,0-.19-.25.43.43,0,0,0-.33,0l-.1,0a.36.36,0,0,0-.15.15l0,0a4.31,4.31,0,0,1-.68.67l-.06,0a.23.23,0,0,0-.08.09c-.07,0-.2.25-.27.26s-.3.1-.24.31a.44.44,0,0,0,.53.3l.74-.18.14,0,.06,0h0l.1,0a.41.41,0,0,0,.2-.26.5.5,0,0,0,0-.27l0,0c.11-.12.22-.23.31-.35A.43.43,0,0,0,21.34,57.75Z"/><path class="cls-5" d="M36.21,43.23Z"/><path class="cls-5" d="M37.26,43.14a2.18,2.18,0,0,0-.2-.37L37,42.64l0,0h0c0,.06,0,0,0,0v0a.28.28,0,0,1,0-.09v-.19a.6.6,0,0,0-.27-.57.89.89,0,0,0-.58,0l-.33.1c-.12,0-.23.09-.35.12l-.16,0h-.11c-.22,0-.9.23-.89.46s.65.39.89.39a1.24,1.24,0,0,0,.33,0,.31.31,0,0,0,.15.15,4.07,4.07,0,0,1,.53.31l.05,0h0l.12.1.22.22a.44.44,0,0,0,.51.07.61.61,0,0,0,.16-.16A.4.4,0,0,0,37.26,43.14Z"/><path class="cls-5" d="M38.7,57.74a.41.41,0,0,0-.25-.2.47.47,0,0,0-.33,0,.46.46,0,0,0-.19.26s0,.07,0,.11l0,0a.3.3,0,0,1-.08.08l-.24.16h0a.56.56,0,0,0-.22.13.5.5,0,0,0-.16.26l0,.12c-.52.42-.7.45-.69.49s.79-.22.86-.16a.36.36,0,0,0,.2.08.42.42,0,0,0,.27-.05l.43-.3a.46.46,0,0,0,.23,0,.63.63,0,0,0,.21-.22.68.68,0,0,0,.07-.2c0-.09,0-.19,0-.29a.32.32,0,0,0,0-.17A.28.28,0,0,0,38.7,57.74Z"/><path class="cls-5" d="M65.7,43c-.06-.09-.1-.17-.15-.26s0,0,0-.06a1800153294652.47,1800153294652.47,0,0,1-.08-.3v-.06a.63.63,0,0,0-.27-.51c-.26-.17-.56,0-.83,0l-.66.2c-.21.06-1.1.13-1.07.34s1,.48,1.18.49l.18,0a.35.35,0,0,0,.14,0,.3.3,0,0,0,.13.12,3.91,3.91,0,0,1,.44.26l.2.14,0,0,.1.09a.44.44,0,0,0,.56,0A.43.43,0,0,0,65.7,43Z"/><path class="cls-5" d="M67.16,57.81a.45.45,0,0,0-.25-.2.43.43,0,0,0-.33,0,.44.44,0,0,0-.19.25v0a1.18,1.18,0,0,1-.11.19s0,0,0,0h0a.48.48,0,0,0-.3.13l-.08.08a.45.45,0,0,0-.11.19l0,.11c0,.06-.25,0-.22.06s-.39.34-.36.37.72-.11.75-.09l.09.05a.33.33,0,0,0,.17,0,.83.83,0,0,0,.22,0l.16-.06,0,0,.07-.06h0a.4.4,0,0,0,.18-.1,1.36,1.36,0,0,0,.21-.32,1.51,1.51,0,0,0,.14-.35A.47.47,0,0,0,67.16,57.81Z"/><path class="cls-6" d="M77.83,49.92l14.3-5.38a.14.14,0,0,0,.07-.12V40.3A.88.88,0,0,0,91,39.47l-13.19,4.8-1.46.06a.93.93,0,0,0-.93.93v4.66Z"/><line class="cls-6" x1="77.83" y1="49.92" x2="77.83" y2="47.59"/><path class="cls-2" d="M73.73,18.52c0,.15,4,9.59,4,9.59l12.2-4.51-5.06-9.37Z"/><path class="cls-3" d="M89.75,38.18,79.6,41.7V37.35a3.26,3.26,0,0,1,2.19-3.08l5-1.7a2.26,2.26,0,0,1,3,2.14Z"/><ellipse class="cls-6" cx="79.86" cy="32.04" rx="1.28" ry="1.83"/><ellipse class="cls-6" cx="89.23" cy="29.21" rx="1.28" ry="1.83"/><ellipse class="cls-1" cx="50.61" cy="23.71" rx="1.42" ry="0.2"/><ellipse class="cls-1" cx="50.61" cy="29.85" rx="1.42" ry="0.2"/><polyline class="cls-1" points="52.03 23.71 52.03 29.85 49.19 29.85 49.19 23.71"/><polyline class="cls-2" points="23.62 17.5 0.2 17.76 0.2 33.77 7.28 40.08"/><polyline class="cls-2" points="48.15 40.08 48.15 9.3 40.14 9.43 37.01 17.35 23.62 17.5"/><polyline class="cls-2" points="37.28 16.67 4.39 16.99 6.18 16.33"/><polygon class="cls-13" points="16.95 36.16 11.28 36.16 6.01 20.87 11.68 20.87 16.95 36.16"/><polygon class="cls-13" points="27.45 36.16 21.78 36.16 16.52 20.87 22.18 20.87 27.45 36.16"/><polygon class="cls-13" points="38.13 36.16 32.46 36.16 27.2 20.87 32.86 20.87 38.13 36.16"/><ellipse class="cls-5" cx="37.14" cy="16.48" rx="0.18" ry="0.15"/><ellipse class="cls-5" cx="31.46" cy="16.43" rx="0.48" ry="0.29"/><ellipse class="cls-5" cx="14.34" cy="16.41" rx="0.39" ry="0.36"/><path class="cls-5" d="M6.27,16.74c0,.14,0,.25-.3.25s-.75,0-.75-.19.48-.34.75-.34S6.27,16.59,6.27,16.74Z"/><path class="cls-5" d="M36,16a.54.54,0,0,0-.31-.22h0l-.16-.05a.82.82,0,0,0-.31,0,2.41,2.41,0,0,1-.38,0h0a.49.49,0,0,0-.17,0,.6.6,0,0,0-.19.06c-.1.06-2.91.43-2.93.55s-.08.22,0,.33,2.93,0,3,0a2.85,2.85,0,0,0,.41,0l.23,0,.13,0a.5.5,0,0,0,.47-.09.48.48,0,0,0,.18-.26A.48.48,0,0,0,36,16Z"/><path class="cls-14" d="M69.57,27.62a1.49,1.49,0,0,0-.6-.48.27.27,0,0,0-.26.05s0,0,0,0a.26.26,0,0,0-.27.16.24.24,0,0,0,0,.22l-.16.05a.25.25,0,0,0-.11.34.26.26,0,0,0,.33.12h.14a.69.69,0,0,0,.35,0,.33.33,0,0,0,.15-.11l.07.05a.25.25,0,0,0,.33-.38Z"/><path class="cls-14" d="M69.26,18.69a.52.52,0,0,0-.68-.23,12.8,12.8,0,0,0-1.78.88c-.5.31-1,.44-1.53.72a.51.51,0,0,0-.27.55,2.4,2.4,0,0,1,.11.67.56.56,0,0,0-.24.39.53.53,0,0,0-.21.63c.17.5,0,1.1.27,1.55s.62.8.86,1.25a.61.61,0,0,0,.07.14l.07.1a.43.43,0,0,0,.63.09h.12a7.08,7.08,0,0,0,1.13-.08s.13,0,.17,0c.41-.05.77-.16,1.18-.2a.51.51,0,0,0,.4-.6c-.33-1,.57-1.87.63-2.86A8,8,0,0,0,69.26,18.69Z"/><path class="cls-11" d="M69,19.56l0-.06,0,0v0a.58.58,0,0,0-.22-.22.55.55,0,0,0-.29-.09.62.62,0,0,0-.29.07.71.71,0,0,0-.33.31.59.59,0,0,0-.06.14.3.3,0,0,0,.11.34.36.36,0,0,0,.32,0,.32.32,0,0,0,.17,0l.22-.05.17-.06h.06a.23.23,0,0,0,.11,0,.16.16,0,0,0,.08-.06.26.26,0,0,0,0-.09v-.07A.31.31,0,0,0,69,19.56Z"/><path class="cls-15" d="M72,26.14a1.28,1.28,0,0,1-.21-.46l-.17-.07a1.39,1.39,0,0,0-.4-.21.26.26,0,0,0-.26.07l-.08,0h-.1l-.1,0-.05,0a.09.09,0,0,0,0-.05.27.27,0,0,0-.34-.11.44.44,0,0,1-.55-.16.26.26,0,0,0-.34-.11,9.21,9.21,0,0,1-1.28.32.34.34,0,0,0-.1,0,6.82,6.82,0,0,0-.79.07,5.06,5.06,0,0,1-.52.08h-.15a.4.4,0,0,0-.15,0c-.11,0-.22,0-.33,0a.41.41,0,0,0-.34.22.67.67,0,0,1-.44.29.23.23,0,0,0-.2.22c0,.16-.12.24-.24.33a.54.54,0,0,1-.2.1l-.18,0a.25.25,0,0,0-.19-.05.23.23,0,0,0-.24,0l-.09.08a.24.24,0,0,0-.06.11l-.34.42a.21.21,0,0,0,0,.19.08.08,0,0,0,0,0,.2.2,0,0,0-.15.06l0,0,0,0a.28.28,0,0,0-.13.15.3.3,0,0,0,0,.16.25.25,0,0,0,.28.17h0a1.38,1.38,0,0,1,.29,0l.38,0a.34.34,0,0,0,.15-.09h.06a7.72,7.72,0,0,0,.93-.41l1-.34a10.67,10.67,0,0,1,1.68-.35l0,.05a.33.33,0,0,0,.24.05h0a1.75,1.75,0,0,1,.46,0,2.06,2.06,0,0,1,.35.12.31.31,0,0,0,.11.08l.06,0,0,0,.12.09,0,0,0,0,0,.06h0v0c.09.14.24.65.42.61s3-.16,3-.15-.8-1.48-.72-1.49l0,0Z"/><path class="cls-12" d="M69.75,17.5a1.44,1.44,0,0,0-.48-.2.79.79,0,0,0-.26-.08.25.25,0,0,0-.12,0,3.64,3.64,0,0,0-.23-.39,1.72,1.72,0,0,0-.48-.45c-.16-.11-.34-.2-.52-.3a1.94,1.94,0,0,0-.66-.28h-.09l-.32-.34c-.19-.2-.38-.44-.68-.37s-.53.17-.79.26a2.07,2.07,0,0,0-.71.36,2.4,2.4,0,0,0-.65.69c-.13,0-.23.16-.29.28A6.3,6.3,0,0,0,62.78,18a2.44,2.44,0,0,0,0,1.51,7.62,7.62,0,0,0,.16,1.05.36.36,0,0,0,.61.18c1.78-.77,3.55-1.58,5.29-2.42h0a.64.64,0,0,1,.76.4c.06.17.33.13.29-.06h0A.25.25,0,0,0,70,18.5,1.07,1.07,0,0,0,69.75,17.5Z"/><path class="cls-12" d="M64.47,15.7a4,4,0,0,1-.31.27c-.13.11-.28.19-.41.29a1.7,1.7,0,0,0-.45.55,3.6,3.6,0,0,0-.38.76,5.12,5.12,0,0,0-.24.85,4.63,4.63,0,0,0,0,.91A4.46,4.46,0,0,0,63,20.86l0,0,.06-.07c.06-.08.12-.18.19-.26a.29.29,0,0,1,.12-.1A4.61,4.61,0,0,1,65,15.81l-.15-.32A2.5,2.5,0,0,0,64.47,15.7Z"/><path class="cls-12" d="M65.47,15.26h-.18l-.16.08a2,2,0,0,1-.34.13A21.66,21.66,0,0,1,66,18.17l.36-.14A5.29,5.29,0,0,1,65.47,15.26Z"/><path class="cls-12" d="M68.92,17.2l-.27-.38a3.25,3.25,0,0,0-.62-.61,3,3,0,0,0-.72-.36l-.2-.06h-.18l0,.13s.76-.12,1.61,1.35A1.18,1.18,0,0,1,68.92,17.2Z"/><path class="cls-2" d="M70.05,21.6c0,.1,0,.21,0,.32-.28,1.5-.72,2.12-.46,3a6.53,6.53,0,0,1-3.59.51"/><path class="cls-2" d="M69.54,19.24A4.56,4.56,0,0,1,70,20.58a5,5,0,0,1,.08,1"/><path class="cls-2" d="M68.92,18.36a5.37,5.37,0,0,1,.62.88"/><line class="cls-2" x1="68.92" y1="18.36" x2="63.14" y2="21.01"/><path class="cls-2" d="M65.15,20.19s.55,1.11-.4,1.57"/><path class="cls-2" d="M64.71,23.74a.72.72,0,0,1,.58.69"/><path class="cls-2" d="M63.53,25.14a.66.66,0,0,1-.73-.45A.68.68,0,0,1,63,24"/><path class="cls-2" d="M64.69,23.74A.73.73,0,0,0,65,23a.71.71,0,0,0-.37-.5.75.75,0,0,0,.28-.73.11.11,0,0,1,0-.05"/><path class="cls-2" d="M63.19,21a.77.77,0,0,0-.6.9.89.89,0,0,0,.16.4.63.63,0,0,0-.15,1.16h0A.65.65,0,0,0,63,24"/><path class="cls-2" d="M71,21a.65.65,0,0,0,0-.24.69.69,0,0,0-.5-.54.69.69,0,0,0,.19-.63.7.7,0,0,0-.81-.55.76.76,0,0,0-.18.06.6.6,0,0,0,0-.19A.59.59,0,0,0,69,18.4"/><path class="cls-2" d="M63.09,21l0-.06c.21-.84,2.77-3,4.66-3.53s2.76.06,1.93,1.62"/><path class="cls-2" d="M63.14,21c.46-.59,3.21-3.1,5.45-3.39.82-.11,1.38.06,1.4.69"/><path class="cls-2" d="M63.11,21a4.05,4.05,0,0,1,1.66-5.44L66,15a6.14,6.14,0,0,1,2,2.3"/><path class="cls-2" d="M66.06,18.22a13.72,13.72,0,0,0-1.29-2.7"/><path class="cls-2" d="M66.94,15.79c.19,0,1.08.08,2,1.44"/><path class="cls-2" d="M66.9,15.79h0"/><path class="cls-14" d="M69,27.14A2.21,2.21,0,0,0,67.39,27a14,14,0,0,0-1.82.38,8.18,8.18,0,0,0-.82.32,5.41,5.41,0,0,1-.78.34c-.1,0-.11,0-.2-.05a.42.42,0,0,0-.39,0,.9.9,0,0,0-.35.77.42.42,0,0,0,0,.15,2.06,2.06,0,0,0,.24.87c.13.26.25.49.57.53a3.42,3.42,0,0,0,1.86-.47,8.47,8.47,0,0,0,1.57-1.09l.1-.08,0,0a1.36,1.36,0,0,0,.36-.32l.27-.23a2.84,2.84,0,0,1,.81-.37A.21.21,0,0,0,69,27.6.3.3,0,0,0,69,27.14Z"/><path class="cls-2" d="M71.33,24.94a.54.54,0,0,0,.31,0,.57.57,0,0,0,.46-.68.57.57,0,0,0-.43-.45.63.63,0,0,0,.14-.52.59.59,0,0,0-.22-.35.52.52,0,0,0,.29-.56.51.51,0,0,0-.47-.41A.59.59,0,0,0,71,21"/><path class="cls-2" d="M69.54,24.9a.5.5,0,0,0,.54.43.4.4,0,0,0,.36-.22.46.46,0,0,0,.52.3.41.41,0,0,0,.27-.17"/><path class="cls-2" d="M71.73,25a.73.73,0,0,1,.09.22.62.62,0,0,1,0,.36"/><path class="cls-2" d="M64,26.29a.63.63,0,0,0,.19.21"/><path class="cls-2" d="M63.43,25.16a.57.57,0,0,0,0,.29.51.51,0,0,0,.43.41.56.56,0,0,0-.23.58.55.55,0,0,0,.24.37"/><path class="cls-2" d="M64.21,26.5a.52.52,0,0,0,.15.07A.59.59,0,0,0,65.1,26"/><line class="cls-2" x1="64.07" y1="28.08" x2="63.62" y2="28.36"/><path class="cls-2" d="M67.51,27A10.93,10.93,0,0,0,64,28.12"/><path class="cls-2" d="M69.68,27.78A2,2,0,0,0,67.51,27"/><path class="cls-2" d="M63.27,28.05a2,2,0,0,0-.06,1.69c.82,1.88,4.39-1,5.17-1.91"/><path class="cls-2" d="M71,26.29a10.46,10.46,0,0,1,1,1.82"/><path class="cls-2" d="M63.18,28.17c-.12,0-.18-.07-.18-.1a2.48,2.48,0,0,1,1.1,0"/><path class="cls-2" d="M64.16,26.52A7.53,7.53,0,0,0,63,28.07"/><path class="cls-2" d="M71.15,25.32c.62.22,1.2,1.45,1.91,2.51"/><path class="cls-2" d="M65.49,25.36a.26.26,0,0,1,.07.15.4.4,0,0,1-.32.47H65.1"/><circle class="cls-2" cx="65.14" cy="24.97" r="0.51"/><path class="cls-5" d="M64.79,20.29l0,0h0a.35.35,0,0,0-.11,0l-.37.13a2,2,0,0,0-.31.19l-.06,0h0a.28.28,0,0,0-.18.09.48.48,0,0,0-.24.07,1.07,1.07,0,0,1-.27.12l-.15.06a1.13,1.13,0,0,0-.26.23.78.78,0,0,0-.12.22.82.82,0,0,0,0,.31,1.19,1.19,0,0,0,.11.42.71.71,0,0,0-.43.45.63.63,0,0,0,.12.59l.07.06v.07a.93.93,0,0,0,.2.38,1.31,1.31,0,0,0,.25.22.6.6,0,0,0-.16.25.53.53,0,0,0,0,.33.73.73,0,0,0,.4.5,1.09,1.09,0,0,0,.26,0l0,0a.38.38,0,0,0,0,.21.76.76,0,0,0,.13.29,1.37,1.37,0,0,0,.17.17l.11.1a.24.24,0,0,0-.16.15l-.1.34a.26.26,0,0,0,.13.31.25.25,0,0,0,.32-.08.36.36,0,0,1,.07-.1l0,0,0,0v0l.16.05a.87.87,0,0,0,.45-.05.56.56,0,0,0,.34-.3.64.64,0,0,0,0-.2h.05a.4.4,0,0,0,.3-.26.83.83,0,0,0,0-.35l0-.11.06-.07a.14.14,0,0,0,0-.07h0a.26.26,0,0,0,0-.15s0-.06,0-.09a.5.5,0,0,0-.3-.37.6.6,0,0,0,0-.3.88.88,0,0,0-.4-.41A.84.84,0,0,0,65,23a1,1,0,0,0-.35-.56v0l0-.06a.54.54,0,0,0,.07-.13,2,2,0,0,0,.07-.26.88.88,0,0,0,0-.16.28.28,0,0,0,0-.09v-.16a.76.76,0,0,0,.37-.79l0-.06a2.45,2.45,0,0,0,0-.27A.25.25,0,0,0,64.79,20.29Z"/><path class="cls-5" d="M71.77,22.16a.47.47,0,0,0-.25-.11.42.42,0,0,0-.14-.06l.1-.11a.53.53,0,0,0,0-.58.88.88,0,0,0-.46-.34l-.12,0a1.07,1.07,0,0,0,0-.25.58.58,0,0,0-.21-.34.92.92,0,0,0-.21-.13h0l0,0a.67.67,0,0,0,.12-.2.78.78,0,0,0,0-.54.76.76,0,0,0-.39-.38.64.64,0,0,0-.51,0v0a.08.08,0,0,0,0-.1,1.14,1.14,0,0,0-.48-.49.09.09,0,0,0-.1,0,.08.08,0,0,0,0,.1,1.55,1.55,0,0,0,.24.33l.22.29a.24.24,0,0,0,0,.23,1.44,1.44,0,0,0,.22.27h0v0a6.26,6.26,0,0,0,.21.61h0a.48.48,0,0,0,0,.37A1.22,1.22,0,0,1,70,21a.77.77,0,0,1,0,.15v.06c0-.08,0,0,0,0a.45.45,0,0,0,0,.16.19.19,0,0,0,0,.08c0,.06,0,.12,0,.18a1.71,1.71,0,0,1,0,.45l0,.11a.75.75,0,0,0-.1.2l-.09.35-.14.51,0,.09,0,.08h0l0,.11a.34.34,0,0,0,0,.19,1.66,1.66,0,0,0-.1.29,1.91,1.91,0,0,0,0,.63.21.21,0,0,0,.08.17.55.55,0,0,0,.06.22.49.49,0,0,0,.36.28.44.44,0,0,0,.43-.14l.1.08a.71.71,0,0,0,.44.11.49.49,0,0,0,.21-.08l.1.1a.53.53,0,0,0,.1.06h0l0,0a.16.16,0,0,0,.09,0,.25.25,0,0,0,.17,0,.27.27,0,0,0,.13-.28.45.45,0,0,1,0-.11,2.46,2.46,0,0,1,0-.28.86.86,0,0,0,.14-.13v0l0-.09v0a.36.36,0,0,0,0-.1.37.37,0,0,0,0-.11v0a.78.78,0,0,0,0-.14l-.07-.11,0,0-.14-.12-.08,0,0,0a.51.51,0,0,0,.12-.27,1.53,1.53,0,0,0,0-.3.75.75,0,0,0-.09-.29v0l.18-.25A.42.42,0,0,0,71.77,22.16Z"/><path class="cls-2" d="M66,25.44A2.62,2.62,0,0,0,65.14,24"/><path class="cls-5" d="M65.22,24.28a.25.25,0,0,0,.09.49A.25.25,0,0,0,65.22,24.28Z"/><circle class="cls-16" cx="65.53" cy="25.35" r="0.36"/><path class="cls-2" d="M68.84,20.28a.45.45,0,0,1-.21.12.65.65,0,1,1-.42-1.23.66.66,0,0,1,.83.41A.61.61,0,0,1,69,20"/><path class="cls-2" d="M68.4,20.07a1.33,1.33,0,0,1,.66-.15"/><polyline class="cls-2" points="69.09 19.26 69 19.48 69.24 19.54"/><path class="cls-5" d="M68.78,20a.22.22,0,0,1-.08-.13.23.23,0,0,1,.18-.26.21.21,0,0,1,.26.17.14.14,0,0,1,0,.11"/><path class="cls-2" d="M68.85,21.65A1.69,1.69,0,0,1,67,21.49"/><path class="cls-14" d="M68,20a.17.17,0,0,0,.06-.21c-.06-.15-.13-.29-.2-.43a.15.15,0,0,0-.21-.08.16.16,0,0,0-.15,0,.19.19,0,0,0-.06.22c.12.3.23.61.35.91a.17.17,0,0,0,.32-.1L68,20.11A.3.3,0,0,0,68,20Z"/><path class="cls-17" d="M67.76,19.27l1,1.61-.85.12"/><path class="cls-11" d="M67.59,20l0-.05a.19.19,0,0,0-.09,0s0-.08,0-.09-.19-.08-.21-.1l-.09,0h0l-.11,0h-.11a.73.73,0,0,0-.3.16l-.08.09a.36.36,0,0,0-.07.1.54.54,0,0,0-.07.13.37.37,0,0,0,0,.15v0a.23.23,0,0,0,0,.14.25.25,0,0,0,.07.12l.07.06a.29.29,0,0,0,.13.05h.09a.23.23,0,0,0,.14,0l.08-.05h0a.25.25,0,0,0,.12-.08h0l.15,0a1.31,1.31,0,0,0,.28-.09l.06,0,0-.05a.33.33,0,0,0,0-.17A.29.29,0,0,0,67.59,20Z"/><path class="cls-2" d="M66.7,20.88a.65.65,0,0,1-.33-.38.66.66,0,1,1,.83.41l-.1,0"/><path class="cls-2" d="M66.6,20.81a1.93,1.93,0,0,1,1-.4"/><polyline class="cls-2" points="66.05 20.4 66.36 20.47 66.22 20.77"/><path class="cls-5" d="M67.34,20.45a.19.19,0,0,1-.07-.11.23.23,0,1,1,.45-.09.22.22,0,0,1,0,.14"/></g></g></svg>