<svg xmlns="http://www.w3.org/2000/svg" viewBox="0 0 54.77 29.78"><defs><style>.cls-1,.cls-4{fill:#f9b91a;}.cls-2{fill:none;}.cls-2,.cls-4{stroke:#22234a;stroke-linecap:round;stroke-linejoin:round;stroke-width:0.4px;}.cls-3{fill:#fff;}.cls-5{fill:#23214a;}.cls-6{fill:#b56f26;}</style></defs><g id="Layer_2" data-name="Layer 2"><g id="Layer_1-2" data-name="Layer 1"><path class="cls-1" d="M16.58,16.25c-.21,0-.42-.06-.63,0a7.63,7.63,0,0,0-1.25.23c-.84.16-1.67.34-2.51.51q-2.94.6-5.9,1.15a.3.3,0,0,0-.14.06.94.94,0,0,0-.79-.7c-.36-.06-.56-.05-.75-.38a1.19,1.19,0,0,0-.4-.51.75.75,0,0,0-1,.3,1,1,0,0,0,0,1.05l0,0a12.47,12.47,0,0,1-1.81.41c-.28.08-.75.18-.86.5a.34.34,0,0,0,.09.37c.24.22.14.23-.08.4a.56.56,0,0,0-.23.43c0,.6.67.33,1,.53a.59.59,0,0,0-.19.45.31.31,0,0,0,.19.25l.06,0h0c.06.08.13,0,.26,0,1.07-.14,2.12-.15,3.17-.33a1.92,1.92,0,0,0,1.61-1.14h0A44.26,44.26,0,0,0,13,18.55c1.07-.23,2.22-.35,3.26-.64.63-.17.66-.69.67-1.31C16.92,16.42,16.79,16.21,16.58,16.25Z"/><path class="cls-2" d="M6.21,18.49s0-1-.94-1c0,0-.51,0-.66-.3s-.2-.7-.68-.69-.84.39-.84,1,.77.78.77.78"/><path class="cls-2" d="M3.72,18.58A2.32,2.32,0,0,0,4,20.1"/><path class="cls-2" d="M4.5,18.49a1.08,1.08,0,0,0,.57.22"/><path class="cls-2" d="M5.61,19a1.09,1.09,0,0,0-1,1"/><path class="cls-2" d="M3.7,19,1,19.4c-.9.13-.76.74-.76.74s.12.53.84.38l2.89-.59"/><path class="cls-2" d="M3.31,18l-2,.32S.42,18.42.5,19s.83.33.83.33"/><path class="cls-2" d="M1.5,20.43s-.5.19-.45.56.54.38,1.23.29c0,0,1.93-.22,2.53-.33s1.6-.43,1.57-1.5"/><path class="cls-2" d="M6.21,18.12c.07,0,9.42-1.89,9.42-1.89"/><line class="cls-2" x1="6.31" y1="19.95" x2="16.54" y2="17.83"/><path class="cls-1" d="M12.51,13.26s.38-.5.6-.56"/><path class="cls-1" d="M10.07,11.68a4.37,4.37,0,0,1,.75-.16"/><path class="cls-1" d="M11.77,9.85s.38.2.41.37"/><path class="cls-1" d="M46.15,7.83l-.1-.09,0,0c.18-.39-.21-1-.87-1.26A1.62,1.62,0,0,0,44,6.32a1.68,1.68,0,0,0-1.09-.43,1.93,1.93,0,0,0-.86.13A23.29,23.29,0,0,0,27.34,2.59,23.77,23.77,0,0,0,13.62,9.13a2.07,2.07,0,0,0-.88.06,1.65,1.65,0,0,0-1,.66,1.61,1.61,0,0,0-1.16.39c-.58.44-.83,1.08-.57,1.41l0,0a.34.34,0,0,0-.07.11c-.16.4.39,1,1.21,1.3a2.42,2.42,0,0,0,1.3.17,1.86,1.86,0,0,0,.93.49l2.47,7c.64,1.06,6.08,1.43,13,.71l.19,0,.21,0h.06c7.23-.8,12.73-2.38,13.14-3.58l.92-7.48-.39.3a.36.36,0,0,0,0-.11,2.13,2.13,0,0,0,1-.75,2.47,2.47,0,0,0,1.23-.46C46,8.87,46.38,8.19,46.15,7.83Z"/><path class="cls-1" d="M44.14,9.8s-.48-.41-.71-.42"/><path class="cls-1" d="M46.18,7.73a4.68,4.68,0,0,0-.77,0"/><path class="cls-1" d="M44.13,6.31s-.33.27-.33.44"/><path class="cls-1" d="M32.52,28.5a.27.27,0,0,0-.06-.12,1.65,1.65,0,0,0-.7-.38,1.79,1.79,0,0,0-.4-.09h-.08L31,27.84a12.75,12.75,0,0,0-1.4-.18,2.58,2.58,0,0,0-.62,0c.08-.36.16-.72.23-1.09.12-.59.18-1.2.32-1.79s.4-1.09.55-1.66a11,11,0,0,0,.32-1.71.53.53,0,0,0-.65-.52.56.56,0,0,0-.88-.05.61.61,0,0,0-.52-.14h0a.49.49,0,0,0-.32.24,1.73,1.73,0,0,1-1,0,.55.55,0,0,0-.82.47c.07,1,.09,2.1.07,3.16,0,.52,0,1,0,1.56s.09.78.09,1.16c0,.16,0,.32,0,.47a4.16,4.16,0,0,0-1.16-.12,3.92,3.92,0,0,0-1.71.48.58.58,0,0,0-.17.18l-.36.12a.55.55,0,0,0-.38.55.45.45,0,0,0-.17.25.27.27,0,0,0,.26.34L25,29.52l1.19,0a7.88,7.88,0,0,0,1.09-.05.26.26,0,0,0,.13-.06.27.27,0,0,0,.12.09,1.13,1.13,0,0,0,.45,0,.19.19,0,0,0,.1,0c1.58,0,3.15,0,4.73.06a.28.28,0,0,0,.27-.28A1,1,0,0,0,32.52,28.5Z"/><path class="cls-1" d="M52.93,15.26l-.08,0c0-.1.09-.2.13-.31a1,1,0,0,0,.09-.52,1.07,1.07,0,0,0-.65-.74.27.27,0,0,0-.3,0A.28.28,0,0,0,52,14h0v.16h0s0,0,0,0v.06l0,0h0l0,0h0a1.35,1.35,0,0,0-.44-.38l-.18-.09a.25.25,0,0,0-.19-.07h0a1.53,1.53,0,0,0-.36-.07l-.07,0a.5.5,0,0,0-.17,0l-.15.06a.43.43,0,0,0-.11.12.94.94,0,0,0-.18.25,2,2,0,0,0-.2.45l-3.2-.11c-.38,0-.77,0-1.15,0l-.18,0h0l-.37,0a1.18,1.18,0,0,0-.85,0H44c-.19,0-.38-.08-.57-.13a2.42,2.42,0,0,0-.47-.06l-.23,0a.81.81,0,0,0-.88,1.33,1,1,0,0,0,.73.32,1.33,1.33,0,0,0,.4,0h0l.43.11q.36.06.72.09a10.84,10.84,0,0,0,1.14,0,.78.78,0,0,0,.22,0,.27.27,0,0,0,.17.08l2,.15c.32,0,.65.06,1,.05l.42,0a1.62,1.62,0,0,1,.38.09l.06.24a.59.59,0,0,0,.25.35.64.64,0,0,0,.19.08l.15.06a1,1,0,0,0,.34.06,1.27,1.27,0,0,0,.41.39,1.41,1.41,0,0,0,.9.15,1.13,1.13,0,0,0,.48-.11,1,1,0,0,0,.34-.33,1,1,0,0,0,.12-.84,1,1,0,0,0,.45-.67A.51.51,0,0,0,52.93,15.26Z"/><path class="cls-2" d="M29.41,21.44c-7.18.79-12.84.42-13.5-.66l-2.5-7.11"/><path class="cls-2" d="M29.34,21.45c7.27-.8,12.8-2.39,13.21-3.59l.92-7.48"/><path class="cls-2" d="M43.37,7.39c.14,1.25-6.64,3-15.13,4s-15.49.67-15.63-.58,6.24-7.24,14.73-8.17S43.23,6.14,43.37,7.39Z"/><path class="cls-2" d="M13.63,9.14a1.84,1.84,0,0,0-.89,0,1.65,1.65,0,0,0-1,.66,1.61,1.61,0,0,0-1.16.39c-.58.44-.83,1.08-.57,1.41l0,0a.34.34,0,0,0-.07.11c-.16.4.39,1,1.21,1.3a2.42,2.42,0,0,0,1.3.17,2.15,2.15,0,0,0,1.35.57,2.51,2.51,0,0,0,1.24-.13,2.76,2.76,0,0,0,2.52.13,2.37,2.37,0,0,0,1.29.3,2.45,2.45,0,0,0,1.29-.33,2.51,2.51,0,0,0,1.33.27,2.46,2.46,0,0,0,1.29-.39,2.43,2.43,0,0,0,1.35.23,2.51,2.51,0,0,0,1.22-.39,2.4,2.4,0,0,0,1.28.16,2.54,2.54,0,0,0,.72-.16"/><path class="cls-2" d="M42,6a1.9,1.9,0,0,1,.89-.14A1.68,1.68,0,0,1,44,6.32a1.62,1.62,0,0,1,1.21.13c.66.31,1,.87.87,1.26l0,0,.1.09c.23.36-.17,1-.91,1.53A2.47,2.47,0,0,1,44,9.82a2.27,2.27,0,0,1-1.19.84,2.57,2.57,0,0,1-1.24.14,2.51,2.51,0,0,1-1.15.63,2.58,2.58,0,0,1-1.28.05,2.54,2.54,0,0,1-1.2.57A2.41,2.41,0,0,1,36.62,12a2.43,2.43,0,0,1-1.24.55,2.51,2.51,0,0,1-1.35-.1,2.74,2.74,0,0,1-2.53.4,2.48,2.48,0,0,1-1.23.44,2.61,2.61,0,0,1-.69,0"/><path class="cls-2" d="M27.43,12.9l0,.6a2.19,2.19,0,0,0,1.07.1,2.55,2.55,0,0,0,1.1-.34l-.22-.58"/><path class="cls-2" d="M22.82,13.68a2,2,0,0,1,.2-.58"/><path class="cls-2" d="M25.39,13.52s.06-.57.1-.5"/><path class="cls-2" d="M20.2,13.8a2.21,2.21,0,0,1,.32-.55"/><path class="cls-2" d="M17.62,13.83s.16-.42.4-.5"/><path class="cls-2" d="M15.1,13.7a4.19,4.19,0,0,1,.73-.69"/><path class="cls-2" d="M12.51,13.26s.38-.5.6-.56"/><path class="cls-2" d="M10.07,11.68a4.37,4.37,0,0,1,.75-.16"/><path class="cls-2" d="M11.77,9.85s.38.2.41.37"/><path class="cls-2" d="M34.16,12.43a1.86,1.86,0,0,0-.32-.51"/><path class="cls-2" d="M31.62,12.84s-.18-.54-.21-.47"/><path class="cls-2" d="M36.74,12a1.87,1.87,0,0,0-.43-.47"/><path class="cls-2" d="M39.28,11.46s-.26-.38-.5-.4"/><path class="cls-2" d="M41.7,10.79a4,4,0,0,0-.86-.52"/><path class="cls-2" d="M44.14,9.8s-.48-.41-.71-.42"/><path class="cls-2" d="M46.18,7.73a4.68,4.68,0,0,0-.77,0"/><path class="cls-2" d="M44.13,6.31s-.33.27-.33.44"/><path class="cls-2" d="M26.26,21.72v6a1.08,1.08,0,0,0,.34.17"/><path class="cls-2" d="M26.54,29.56c-1.45,0-3.76,0-3.76,0s-.49,0-.42-.41.92-1.66,3.91-1.46"/><path class="cls-2" d="M27.39,29.28s0,.27-.23.27h-.79"/><path class="cls-2" d="M30.47,21.32,29,27.74a1.36,1.36,0,0,1-.4.11"/><path class="cls-2" d="M27.39,29.26s0,.28.22.29l5.14,0s.49,0,.42-.41-1-1.74-4.22-1.43"/><line class="cls-2" x1="28.29" y1="21.59" x2="27.39" y2="29.28"/><path class="cls-3" d="M28.13,3.24A2.33,2.33,0,0,0,25.19.85,2.39,2.39,0,0,0,24,4.74c.15.2.37-.11.49-.3a5.48,5.48,0,0,1,1.69-.67,14.64,14.64,0,0,0,1.89-.12C28.18,3.6,28.11,3.36,28.13,3.24Z"/><path class="cls-3" d="M32.69,1.45l-.07-.06A.49.49,0,0,0,32.35,1L32.25,1,31.6.5c-.11-.08-.24-.23-.34-.21s-.36,0-.54-.06a1.87,1.87,0,0,0-1.34.42c-.68.45-1.62,1.59-1.07,2.4.19.28.71.05.88-.18.5-.13,1-.19,1.49-.34a6.61,6.61,0,0,1,1.5-.44C32.53,2.29,33,1.77,32.69,1.45Z"/><path class="cls-2" d="M24.43,5.12a2.39,2.39,0,1,1,2.15.24"/><path class="cls-2" d="M28.29,3.17a2.34,2.34,0,0,1,0-1.23,2.39,2.39,0,0,1,4.59,0"/><polyline class="cls-4" points="28.13 3.24 35.57 1.33 30.19 6.65"/><path class="cls-2" d="M28.05,3.72A6.42,6.42,0,0,0,24.1,4.85"/><ellipse class="cls-5" cx="25.49" cy="2.78" rx="0.57" ry="0.46" transform="translate(13.94 25.67) rotate(-69.45)"/><path class="cls-5" d="M29.6,2.86a.61.61,0,0,1-.06-.55.54.54,0,0,1,.63-.38.53.53,0,0,1,.24.7"/><path class="cls-3" d="M28.65,7.88a2,2,0,0,1-.78-.13.37.37,0,0,1-.26.07,7,7,0,0,1-2-.49,6.17,6.17,0,0,1-1.73-.94.32.32,0,0,1-.08-.09l-.3-.12c-.06-.06-.09-.06-.12-.14s-.19-.08-.2-.11a2.12,2.12,0,0,1-.47-.64l-.1,0S20.65,8.71,24,10a3.39,3.39,0,0,0,4.74-2.1Z"/><path class="cls-2" d="M22.4,4.72a5.67,5.67,0,0,0,2.94,2.51,7.8,7.8,0,0,0,3.85.56"/><path class="cls-2" d="M28.74,7.92S27.55,11.68,24,10c-3.26-1.52-1.35-4.77-1.35-4.77"/><path class="cls-2" d="M22.22,6.45a5.06,5.06,0,0,0,2.56,2.09A6.19,6.19,0,0,0,28.2,9"/><path class="cls-6" d="M51.39,22.56c.2-1.37.21-2.79.3-4.17a.22.22,0,0,0,0-.16v-.08a.22.22,0,0,0,.05-.14.2.2,0,0,0-.2-.21,2.47,2.47,0,0,1-.38.05h0l-.06-.05a.67.67,0,0,1-.14-.09c-.14-.16-.39,0-.34.2a1.52,1.52,0,0,1,0,.52.22.22,0,0,0,0,.14,28.73,28.73,0,0,0-.27,3.06c0,.51-.25,1.2.49,1.19a.38.38,0,0,0,.16,0A.29.29,0,0,0,51.39,22.56Z"/><path class="cls-6" d="M54.47,11.15c0-1.08.42-2.76-.38-3.65s-1.84-.57-2.48.33c-.09.13-.22.43-.17.53a4.39,4.39,0,0,0-.18,1.25l-.18,1.73a.33.33,0,0,0,.08.27v.06a1.48,1.48,0,0,0,0,.21,0,0,0,0,0,0,0c-.06.44-.15.88-.17,1.32a.22.22,0,0,0-.08.13.38.38,0,0,0,.26.46.25.25,0,0,0,.17,0l.19.11a.73.73,0,0,0,0,.2c.06.17.35.22.39,0a1.9,1.9,0,0,0,0-.41v-.55a3.47,3.47,0,0,0,.15-1.32.35.35,0,0,0,0-.14v0a4.78,4.78,0,0,0,0-.76s0,0,0-.08v-.17a6,6,0,0,0,.2-1.45s0,0,0,0a.37.37,0,0,0,0-.11c0-.24.19-.75.46-.85.57-.2.52.51.57.83A4.78,4.78,0,0,1,53.31,11a.42.42,0,0,0,.4.52h.17A.42.42,0,0,0,54.47,11.15Z"/><path class="cls-2" d="M49.75,14.86c.06-.45.28-1.35,1.09-1.22,1.08.17.94,1.17.75,1.75,0,0-.18.78-.83.6s-.46-.87-.4-1.09a1.67,1.67,0,0,0,.12-.59"/><path class="cls-2" d="M52.08,13.57s1,.14,1,.93a1.25,1.25,0,0,1-1.63,1.17"/><path class="cls-2" d="M50.68,16a.72.72,0,0,0,.62.8c.68.08,2-.25,1.88-1.12a1.09,1.09,0,0,0-.19-.53"/><path class="cls-2" d="M52.61,16.52a.73.73,0,0,1,.13.59c-.06.36-.47.71-1.3.68s-1-.52-.95-.81a.59.59,0,0,1,.31-.43"/><line class="cls-2" x1="49.79" y1="14.59" x2="42.99" y2="14.29"/><line class="cls-2" x1="49.44" y1="16.43" x2="42.79" y2="15.93"/><path class="cls-2" d="M51.74,14.29s.17.06.4-.15"/><path class="cls-2" d="M50.48,17.19a.9.9,0,0,1-1-1"/><path class="cls-2" d="M51.39,22.61c0,.14-.26.23-.56.21s-.53-.15-.52-.29"/><path class="cls-2" d="M54.42,11.36c0,.14-.26.24-.56.21s-.53-.15-.52-.28"/><path class="cls-2" d="M51,13.66l.3-4.12S51.34,6.83,53.06,7s1.51,2.23,1.49,2.59-.13,1.82-.13,1.82"/><line class="cls-2" x1="50.31" y1="22.53" x2="50.67" y2="17.58"/><path class="cls-2" d="M52,14.21l.32-4.45S52.4,8.15,53,8.2s.41,1.47.39,1.75-.09,1.34-.09,1.34"/><line class="cls-2" x1="51.39" y1="22.61" x2="51.73" y2="17.83"/></g></g></svg>