<svg xmlns="http://www.w3.org/2000/svg" viewBox="0 0 24.47 20.73"><defs><style>.cls-1{fill:#9ad4e1;}.cls-2,.cls-6{fill:#f9b91a;}.cls-3{fill:#b56f26;}.cls-4,.cls-5{fill:none;}.cls-4{stroke:#22234a;}.cls-4,.cls-5,.cls-6{stroke-linecap:round;stroke-linejoin:round;stroke-width:0.4px;}.cls-5,.cls-6{stroke:#22244b;}</style></defs><g id="Layer_2" data-name="Layer 2"><g id="Layer_1-2" data-name="Layer 1"><path class="cls-1" d="M24,12.48a4,4,0,0,0-.57-.32.31.31,0,0,0-.15-.15,4.08,4.08,0,0,1-.58-.32l-.14-.09-.06,0h0l-.05,0-.06-.05-.13-.12a.51.51,0,0,0-.55-.07,2.88,2.88,0,0,0-2-.22.94.94,0,0,0-.39.24,26.53,26.53,0,0,1-8.14-.92A10.55,10.55,0,0,1,8,9.21c-.13-.19-.28-.36-.41-.55a1.54,1.54,0,0,0-.75-.59c-.45-.6-1-1.32-1.61-1.5v0c0-.14.06-.3.1-.44a.93.93,0,0,0,.17-.49A.91.91,0,0,0,5.28,5l-.11-.08a1.92,1.92,0,0,0-.4-.69.78.78,0,0,0-.42-.66l-.07,0C4,3.36,3.73,3.12,3.42,3a1.74,1.74,0,0,0-.9-.19,2.18,2.18,0,0,0-.93.31A4.68,4.68,0,0,0,1,3.55a1.88,1.88,0,0,0-.48.67A3.15,3.15,0,0,0,.07,5.83a1,1,0,0,0,.27.65s0,0,0,0a5.8,5.8,0,0,0,1.18,3,9.19,9.19,0,0,0,1.18,1.07L4.24,11.8a.49.49,0,0,0,.57,0,11.48,11.48,0,0,0,.81,1.35,7.84,7.84,0,0,0,1.86,2.38,2.55,2.55,0,0,1-.27.58c-.06.09-.2.34-.3.38.17-.07-.19-.1-.24-.11-.4-.07-1.17-.24-1.43.2-.59,1,1.72,1.81,2.29,2.07a17.78,17.78,0,0,0,3.9,1.2c.68.14,1.35.29,2,.48a2.63,2.63,0,0,0,1.75,0,.47.47,0,0,0,.2-.77,4.54,4.54,0,0,0-1.16-.78l-.08,0a1.29,1.29,0,0,0-.08-.26l-.22-.39s0,0,0-.07a.53.53,0,0,0,0-.13,8.4,8.4,0,0,0,3.46-1.59c.61-.47,1.16-1,1.78-1.48a7.36,7.36,0,0,1,2.3-1.13.91.91,0,0,0,.43-.3.71.71,0,0,0,.78-.08l1.11-.07a.46.46,0,0,0,.44-.33A.49.49,0,0,0,24,12.48ZM3.18,9.35a5.53,5.53,0,0,1-1.46-1.9s0,0,0,0a4.51,4.51,0,0,0,0-.52A2.2,2.2,0,0,1,1.6,6a1.81,1.81,0,0,1,.18-.68,1.35,1.35,0,0,1,.46-.49,0,0,0,0,0,0,0,3.24,3.24,0,0,1,.35-.21A2.67,2.67,0,0,1,3,4.86a2.79,2.79,0,0,0,.33.19h0l.12.06h0l.07,0a1.37,1.37,0,0,0,.23.19,2.43,2.43,0,0,0-.17.52c-.06.23-.11.47-.16.7a3,3,0,0,0,0,1.07,1.7,1.7,0,0,0,.44.81,6.58,6.58,0,0,0,.29,1.7C3.81,9.86,3.49,9.61,3.18,9.35Z"/><path class="cls-2" d="M20.41,9.71a2.09,2.09,0,0,1-.53-.54.9.9,0,0,0-.68-.41,1.37,1.37,0,0,0-.13-.31,17.47,17.47,0,0,0-3.83-4.3.44.44,0,0,0,.11-.29l0-1.65a1,1,0,0,0-.23-.8l-.09-.06a.65.65,0,0,0-.27-.17.81.81,0,0,0-.51.05h0l-.11,0a.34.34,0,0,0-.19.24,5.44,5.44,0,0,0-1.38.65.3.3,0,0,0-.08.08l-.12,0-.12,0h-.06l-.42-.06a1.38,1.38,0,0,0-.45.05,5.42,5.42,0,0,0-1.49-.53,1.41,1.41,0,0,0-.29,0,3,3,0,0,0-.79-.15.42.42,0,0,0-.48-.17c-.52.19-1,.35-1.57.5a4.1,4.1,0,0,1-1,.21.31.31,0,0,1-.1-.05l0,0a.47.47,0,0,0-.33-.14l-.13,0a.85.85,0,0,0-.36-.12A.72.72,0,0,0,4,2c-.24.4,0,.89.25,1.26a.68.68,0,0,0,.13.45,3.58,3.58,0,0,0,.91.87h0a1.38,1.38,0,0,0,0,.2c0,.45,0,.91.07,1.37a2.71,2.71,0,0,0-.55.57,6,6,0,0,0-.4.7,2.48,2.48,0,0,1-.18.31c0,.06-.16.19,0,0l-.16.16a.93.93,0,0,0,.41,1.53,2.86,2.86,0,0,0,1.09,0L6,9.43h.34c.39,0,.79,0,1.18.05a4.5,4.5,0,0,0,2,1.24,15.56,15.56,0,0,0,3.52.69,16.57,16.57,0,0,0,3.52.12c1.23-.06,2.43.05,3.65-.12C21.05,11.26,21,10.1,20.41,9.71Z"/><path class="cls-3" d="M20,9.2a.51.51,0,0,0-.33-.13.64.64,0,0,0-.18.06s0,0,0,0C18.71,8.05,18,7,17.28,5.91a1,1,0,0,0-.46-.37v0l-.24-.19c-.09-.09-.17-.2-.26-.31s-.21-.3-.31-.46a.39.39,0,0,0-.33.22,2,2,0,0,0-.18.75s0,.1,0,.14h0c-.11,0-.26-.21-.32-.27-.38-.4-.9-.75-1.45-.44a1.18,1.18,0,0,0-.45,1.41,4.49,4.49,0,0,0,1,1.31.79.79,0,0,1,.05,1.19c-.22.2-.51.16-.79.19a1.64,1.64,0,0,0-.72.19,1.13,1.13,0,0,0-.39,1.46,1.11,1.11,0,0,1,0,.72c.31,0,.61.1.92.16h0l.15,0,.39.09h0a2.57,2.57,0,0,0,.48,0,5.56,5.56,0,0,0,.7-.08l.22,0,.13,0h.06a11.31,11.31,0,0,1,2.6,0,.78.78,0,0,0,.71-.35l.67,0,.1,0a1.5,1.5,0,0,0,.76,0h0a.53.53,0,0,0,.36-.31.41.41,0,0,0,0-.22.74.74,0,0,0,.1-.35C20.86,9.85,20.33,9.49,20,9.2Z"/><path class="cls-3" d="M11.9,5.63a.05.05,0,0,1,0,0l-.09-.11-.06-.06-.11-.09,0,0,0,0-.14-.06a.37.37,0,0,0-.18,0,.27.27,0,0,0-.17.06h0l-.09.08a.37.37,0,0,0-.12.2l0,.12a.62.62,0,0,0,.07.23.57.57,0,0,0,.12.15l0,0,.12.09.07,0,.18.07.12,0,.12,0,.11,0a.24.24,0,0,0,.13-.11A.41.41,0,0,0,12,5.92a.24.24,0,0,0,0-.12A.34.34,0,0,0,11.9,5.63Z"/><line class="cls-4" x1="5.4" y1="7.6" x2="5.24" y2="4.42"/><path class="cls-4" d="M19.67,9.8c-.09.71-3.4-.35-7.4-2.37S5.11,3.21,5.2,2.51s3.75-2,7.74,0S19.77,9.1,19.67,9.8Z"/><path class="cls-4" d="M5.87,1.94a1,1,0,0,0-.42-.23.53.53,0,0,0-.52.06.68.68,0,0,0-.58-.13.49.49,0,0,0-.44.58v0l0,0c-.12.17.05.64.39,1.05a1.53,1.53,0,0,0,.57.48,1.71,1.71,0,0,0,.55.7,1.24,1.24,0,0,0,.58.3,2,2,0,0,0,.53.57,1.16,1.16,0,0,0,.61.24,1.8,1.8,0,0,0,.55.55,1.08,1.08,0,0,0,.63.2,1.69,1.69,0,0,0,.58.54,1,1,0,0,0,.63.17,1.69,1.69,0,0,0,.59.52,1.07,1.07,0,0,0,.61.16,1.54,1.54,0,0,0,.56.46,1.27,1.27,0,0,0,.35.13"/><path class="cls-4" d="M19.23,8.68a.9.9,0,0,1,.42.19,1.25,1.25,0,0,1,.44.55,1,1,0,0,1,.54.43c.26.36.37.77.24.92h0l0,.08c.06.26-.21.5-.6.55a.94.94,0,0,1-.62-.12.77.77,0,0,1-.65.1,1.43,1.43,0,0,1-.59-.3.87.87,0,0,1-.6,0,1.43,1.43,0,0,1-.59-.35,1,1,0,0,1-.62-.05,1.53,1.53,0,0,1-.6-.42,1,1,0,0,1-.64-.08,1.58,1.58,0,0,1-.6-.45.93.93,0,0,1-.64-.1,1.61,1.61,0,0,1-.57-.43A1,1,0,0,1,13,9.08a1.89,1.89,0,0,1-.31-.22"/><path class="cls-4" d="M11.62,8.35a1.72,1.72,0,0,0,.48.36,1.06,1.06,0,0,0,.55.15"/><path class="cls-4" d="M4.8,6.47a2.28,2.28,0,0,1,0-.58"/><path class="cls-4" d="M23.58,12.83a14.55,14.55,0,0,0-6.74-1.24,16.89,16.89,0,0,1-8.78-1.46,11.1,11.1,0,0,1-1-.62"/><path class="cls-4" d="M13.71,17.94c2.44-.09,3.74-1.7,5-2.7a7.25,7.25,0,0,1,4.92-1.81s.61-.08.67-.49-1-1.27-3.18-2.07"/><path class="cls-4" d="M8.57,16.3a10.71,10.71,0,0,0,2.67,1.27c.28.08.54.15.79.2"/><path class="cls-4" d="M5.17,5.18A1.39,1.39,0,0,0,3.4,6.66,12.15,12.15,0,0,0,7.61,15.6"/><path class="cls-4" d="M4,10.19A6.55,6.55,0,0,1,2.64,8.86a4.69,4.69,0,0,1-1-2.64A2.54,2.54,0,0,1,1.88,5,.84.84,0,0,1,2,4.83c.05-.06.09-.12.14-.14s0,0,.07,0l0,0s.13,0,.18,0A1.38,1.38,0,0,1,3.31,5a3.23,3.23,0,0,1,.38.43"/><path class="cls-4" d="M5.21,4.8a3.51,3.51,0,0,0-.94-1.06A3,3,0,0,0,2.2,2.93,2,2,0,0,0,1.64,3c-.1,0-.19.08-.29.12a2,2,0,0,0-.23.17,1.58,1.58,0,0,0-.37.41,2,2,0,0,0-.25.45A4.21,4.21,0,0,0,.21,6.11,6.45,6.45,0,0,0,1.69,9.64,10.65,10.65,0,0,0,4.77,12"/><path class="cls-4" d="M6.41,16.94c-.06.39,1.67,1.26,3.86,1.93s4,.91,4.09.52A4.64,4.64,0,0,1,14,18"/><path class="cls-4" d="M6.85,16.46c-1-.08-1.71,0-1.77.4-.11.69,2.15,2,5.05,2.87s5.35,1.06,5.46.37c.05-.36-.51-.87-1.46-1.4"/><path class="cls-4" d="M6.42,16.89a2,2,0,0,0,.94-1.37"/><path class="cls-4" d="M8.08,9.47l-3.36,0s-1.18,0-.81-1.08A16,16,0,0,1,5.28,5.8"/><line class="cls-4" x1="6.53" y1="7.39" x2="5.08" y2="7.7"/><path class="cls-4" d="M15.44,4.18V1.94s0-1.18-1.06-.82a12.7,12.7,0,0,0-2,1"/><line class="cls-4" x1="13.58" y1="2.79" x2="13.69" y2="2.28"/><path class="cls-2" d="M9.32,1.57h0a.42.42,0,0,1,0-.12A1.14,1.14,0,0,1,9.51.56a.87.87,0,0,1,.88-.31,1,1,0,0,1,.77.5,1,1,0,0,1,.11.56.14.14,0,0,0-.11,0c-.09,0,.08.28,0,.31l-.51.08c-.21.06-.47-.09-.64,0a.23.23,0,0,0-.07.07l-.27.05A.28.28,0,0,1,9.32,1.57Z"/><path class="cls-2" d="M8.51,2.38a2.4,2.4,0,0,0-.73.53s-.08-.09-.13-.14A.93.93,0,0,1,7.4,2a.35.35,0,0,1,0-.26,1.66,1.66,0,0,1,.25-.34l.08-.05a.49.49,0,0,1,.18-.14.83.83,0,0,1,.69-.05.7.7,0,0,1,.54.33,1.36,1.36,0,0,1,.24.63A3,3,0,0,0,8.51,2.38Z"/><path class="cls-5" d="M9.45,1.87l0,0A1,1,0,1,1,11.08.62a1,1,0,0,1,.19.78"/><polyline class="cls-6" points="9.4 1.91 12.73 1.33 11.83 1.85 9.95 2.96"/><path class="cls-5" d="M7.42,1.71a1.05,1.05,0,0,1,.35-.46,1,1,0,0,1,1.44.22A1,1,0,0,1,8.29,3.1"/><path class="cls-5" d="M7.85,3a1.13,1.13,0,0,1-.3-.28.89.89,0,0,1-.16-.34"/><path class="cls-5" d="M9.34,1.69a3.33,3.33,0,0,0-1.81.92"/><path class="cls-5" d="M11.25,1a2.19,2.19,0,0,0-1.91.69"/><path class="cls-5" d="M7.19,3.7A3.51,3.51,0,0,0,11,3.17"/></g></g></svg>