<svg xmlns="http://www.w3.org/2000/svg" viewBox="0 0 43.04 32.15"><defs><style>.cls-1{fill:#fce79c;}.cls-2{fill:#b56f26;}.cls-3{fill:none;}.cls-10,.cls-11,.cls-3{stroke:#22234a;stroke-linecap:round;stroke-linejoin:round;stroke-width:0.4px;}.cls-10,.cls-4{fill:#fff;}.cls-5{fill:#2ea43d;}.cls-6{fill:#f3a2a7;}.cls-7{fill:#22234a;}.cls-8{fill:#0071b9;}.cls-9{fill:#f9b91a;}.cls-11{fill:#e33b17;}</style></defs><g id="Layer_2" data-name="Layer 2"><g id="Layer_1-2" data-name="Layer 1"><path class="cls-1" d="M42.15,23.7a1.12,1.12,0,0,0-.66-.67c-.82-.31-1.63-.62-2.47-.87s-1.65-.36-2.48-.55c-1.62-.36-3.28-1.06-4.92-.39a1.39,1.39,0,0,0-.21.11A1.48,1.48,0,0,0,31,21a3,3,0,0,0-1.21-.32l-.95-.07-1.13-.08c-.49,0-1.15-.17-1.51.27a1.43,1.43,0,0,0-.14.2l-.42-.14a2.36,2.36,0,0,0-.46-.1,1,1,0,0,0-.59-.49,24.2,24.2,0,0,0-3.33-.93,1,1,0,0,0-.3,0,.73.73,0,0,0-.16-.14,3.17,3.17,0,0,0-.37-.16L20.28,19l-.2-.06-.4-.22a.77.77,0,0,0-.37-.12.78.78,0,0,0-.4,0,.73.73,0,0,0-.31.17L16,18l-4.23-1.29A10.41,10.41,0,0,0,9,16a.78.78,0,0,0-.31-.56l-.21-.15h0l-.18-.11a17.81,17.81,0,0,0-1.55-1.07,1.07,1.07,0,0,0-.33-.3,4.46,4.46,0,0,0-3-.84,4,4,0,0,0-2.58,1.4,4.09,4.09,0,0,0-.54,3,11.39,11.39,0,0,0,.74,3A15.74,15.74,0,0,0,2.59,23a8.39,8.39,0,0,0,2,2.14,9.25,9.25,0,0,0,1.33.68,6.38,6.38,0,0,1,1.14.78,5.3,5.3,0,0,0,2.25.87c1,1.42,2.41,2.38,3.57,3.63a.5.5,0,0,0,.78-.11,2.06,2.06,0,0,0,.12-.26,2.56,2.56,0,0,0,.11.24,1.56,1.56,0,0,0,.48.65,1.8,1.8,0,0,0,.7.26,1.79,1.79,0,0,0,1.51-.25A2.12,2.12,0,0,0,17,31a2.31,2.31,0,0,0,.18-.35A1.88,1.88,0,0,0,19,31.91a1.37,1.37,0,0,0,.85-.29,2.39,2.39,0,0,0,.45-.64c.09-.17.16-.34.24-.52a4.71,4.71,0,0,0,.29.48,4.85,4.85,0,0,0,.5.62,1.16,1.16,0,0,0,.83.34,2.1,2.1,0,0,0,1.59-.49,2.33,2.33,0,0,0,.41-.61,1.53,1.53,0,0,0,.33.63,2,2,0,0,0,1.61.51,1.9,1.9,0,0,0,1.39-.85,1.56,1.56,0,0,0,.16-.28,3.47,3.47,0,0,0,.3.37,2,2,0,0,0,1.16.7,1.34,1.34,0,0,0,1.35-.55c.14-.21.25-.44.37-.65l.09-.19a3.1,3.1,0,0,0,.28.58,1,1,0,0,0,.54.51.72.72,0,0,0,.79-.36c.1-.15.19-.3.3-.44l.16-.23c-.08.1,0,0,0,0l.1-.12c.15-.18.31-.35.48-.52a.4.4,0,0,0,.26-.14,16.65,16.65,0,0,1,2.34-2.18C37,27,38,26.57,38.83,26a5,5,0,0,1,1.41-.5l1.66-.43c.4-.1.83-.3.8-.79A.65.65,0,0,0,42.15,23.7Zm-35.61.22a7,7,0,0,1-3-3.09,7.56,7.56,0,0,1-1-2.1.58.58,0,0,0,.09-.26c.06-.51.05-1,.08-1.53l0-.38s0-.08,0-.1l0-.2,0-.13h0a2,2,0,0,1,.5-.35.86.86,0,0,0,.39,0h0a1.51,1.51,0,0,1,.3,0l.36.08a1.07,1.07,0,0,0,.43.28,1.05,1.05,0,0,0,.58,0c.25.19.5.38.76.55a1,1,0,0,0,.22.09c-.06.13-.12.27-.17.4h0l-.1.24a.78.78,0,0,0,0,.4s0,0,0,0a1.44,1.44,0,0,0-.13.43,8.46,8.46,0,0,0,.77,3.52,26.67,26.67,0,0,0,1,2.92A6.84,6.84,0,0,0,6.54,23.92Z"/><path class="cls-2" d="M18.51,24.59a.49.49,0,0,1,.3,0,23.49,23.49,0,0,0,6.75.18c1.05-.17,2.07-.39,3.14-.5a5.26,5.26,0,0,0,.83-.2.47.47,0,0,0-.47-.55,2.43,2.43,0,0,1-.55-.09.49.49,0,0,0-.27,0,.49.49,0,0,0-.33-.13H27.8a1,1,0,0,1-.34-.09l.09,0a.43.43,0,0,0-.18-.06.44.44,0,0,0-.2,0,.46.46,0,0,0-.17.09.35.35,0,0,0-.13.14.63.63,0,0,0-.06.27l-.42,0c-.43,0-.86.12-1.29.18a.47.47,0,0,0,0-.24.49.49,0,0,0-.17-.41c-.54-1-1.8-1-2.81-1.27-1.44-.37-2.84-.84-4.25-1.32a18.48,18.48,0,0,0-4-1,29.38,29.38,0,0,0-4.3-.08.51.51,0,0,0-.35.86,4.8,4.8,0,0,0,1.34.93.8.8,0,0,0,.37.42,27.47,27.47,0,0,0,7.53,2.79S18.51,24.58,18.51,24.59Z"/><path class="cls-3" d="M41.65,24.21c-4.49-.92-7.22-1.33-11.71-.38s-9.23,1.56-15.23-.23c0,0-6.68-2.21-6.55-6.34"/><path class="cls-3" d="M32.1,31.76c.67-.77,1.27-1.55,1.87-2.22a12.25,12.25,0,0,1,7.85-4.31s1-.29,1-1c0-1-4.62-3.16-12.68-3.53"/><path class="cls-3" d="M30.16,20.7A53.48,53.48,0,0,1,24,19.94c-3.91-.67-12.21-4-15.46-4a2.38,2.38,0,0,0-2.61,3,21.31,21.31,0,0,0,7.2,12.49"/><path class="cls-3" d="M7.82,24.75A12.15,12.15,0,0,1,5.2,22.84a8.13,8.13,0,0,1-2.34-4.21A4.56,4.56,0,0,1,3,16.56a1.21,1.21,0,0,1,.17-.38.66.66,0,0,1,.2-.27s.06-.08.09-.09l.1,0s.2,0,.3-.09a2.28,2.28,0,0,1,1.55.51,5.18,5.18,0,0,1,.76.62"/><path class="cls-3" d="M9.13,16a11.17,11.17,0,0,0-2.47-2.23A5.21,5.21,0,0,0,3,12.91a3.25,3.25,0,0,0-.91.33l-.47.29a2.89,2.89,0,0,0-.35.35,2.68,2.68,0,0,0-.52.77,3.32,3.32,0,0,0-.3.83,7.16,7.16,0,0,0,0,3.32A11.12,11.12,0,0,0,3.8,24.4a18.15,18.15,0,0,0,5.81,3.22"/><path class="cls-3" d="M30.46,23.68c-1.81-.27-3.7-.6-5.28-1-4.41-1.08-12.3-4-16.2-3"/><path class="cls-4" d="M34,9.15c0-.23,0-.46-.07-.69-.08-.5-.18-1-.22-1.51a.28.28,0,0,0-.34-.26,7,7,0,0,1-1.58.11h0l-.09,0h-.07l0,0h0l0,0h-.1l-.05,0h0l0,0h0l0,0h0l0,0h0v0h0a.36.36,0,0,0,0,.1l0,0h0a.37.37,0,0,0,0,.14h0v0a.13.13,0,0,0,.05.09s0,0,0,0a.23.23,0,0,0,0,.11,3,3,0,0,1,.15.31,5.74,5.74,0,0,1,.26.8.14.14,0,0,0,0,.07,5.92,5.92,0,0,1-.73.31c-.29.11-.55.28-.83.41s-.61.2-.91.33a6.24,6.24,0,0,0-.83.49l-.07.06a18.58,18.58,0,0,1-3,.64,5,5,0,0,0-1.37.59,3.31,3.31,0,0,0-1.18.84.1.1,0,0,0,0,.05,6.49,6.49,0,0,0-1.06.74l-.13.09h0c-.18.13-.39.23-.58.35a1.35,1.35,0,0,0-.47.45.36.36,0,0,0-.17.07.37.37,0,0,0-.09.47,7.84,7.84,0,0,0,.95,1.33,1.34,1.34,0,0,1,.07.27.27.27,0,0,0,.23.19.25.25,0,0,0,.27-.13c.08-.12.15-.25.24-.37l0,0,0,0v0l0,0,.14-.15c.1-.1.21-.19.32-.28l.17-.14.08-.07h0l.05,0a.4.4,0,0,0,.13-.16.17.17,0,0,0,.13-.15.18.18,0,0,0-.13-.2l-.13,0-.06,0,0,0-.25-.12,0,0a.76.76,0,0,0,.32-.11l.09,0A.38.38,0,0,0,23.4,14l.14-.09.11-.09h0a1.81,1.81,0,0,1,.33-.2l.25-.15c0,.37.08.75.09,1.12a.35.35,0,0,0-.06.25,16.82,16.82,0,0,0,.3,1.7.24.24,0,0,0,.06.11.3.3,0,0,0,0,.21A.28.28,0,0,0,25,17l.11,0a2,2,0,0,1,.35,0l.18,0a.55.55,0,0,0,.26-.06.32.32,0,0,0,.18.05,13,13,0,0,0,1.75-.26c.27,0,.54-.1.8-.17A1.43,1.43,0,0,0,29,16.4c.08,0,.2-.16.29-.13a.26.26,0,0,0,.3-.12,1,1,0,0,0,.13-.55.2.2,0,0,0,.06-.11,8.4,8.4,0,0,0,.35-3.69h0a3.7,3.7,0,0,1,.55-.31l.31-.14a.64.64,0,0,0,.25-.18.25.25,0,0,0,.16,0c.41-.27.83-.5,1.26-.74a8.25,8.25,0,0,0,1.22-.71A.52.52,0,0,0,34,9.15Z"/><line class="cls-5" x1="27.35" y1="22.69" x2="24.26" y2="22.65"/><path class="cls-6" d="M32.7,6.55A12.16,12.16,0,0,1,32,5.22a5.08,5.08,0,0,0-.33-.66,4.63,4.63,0,0,0-.31-.46.3.3,0,0,0-.05-.16,1.56,1.56,0,0,0-.16-.2h0l-.07-.08a.42.42,0,0,0-.27-.14.46.46,0,0,0-.07-.07l-.06,0A11.82,11.82,0,0,0,29.2,1.87a3,3,0,0,0-.31-.31.37.37,0,0,0-.57.08,3,3,0,0,0-.44.75.56.56,0,0,0,0,.52,1.73,1.73,0,0,0,.41.3.41.41,0,0,0,.24,0s0,0,.05,0a5,5,0,0,0,.62.5h0a.47.47,0,0,0-.3.21.32.32,0,0,0,0,.16.25.25,0,0,0-.21-.07.34.34,0,0,0-.21.16.53.53,0,0,0-.19.13c-.34.14-.69.24-1,.35h0a.25.25,0,0,0-.12,0c-.54.06-1.07,0-1.61,0a5.08,5.08,0,0,1-.78,0c-.28,0-.65-.16-.88.07a2.26,2.26,0,0,0-.23.31,1.42,1.42,0,0,0-.21.36.9.9,0,0,0,.2.86,1.51,1.51,0,0,0,.23.21h0l-.13.06a.8.8,0,0,0-.16.08l-.08.06a.82.82,0,0,0-.2-.12A1,1,0,0,0,23,6.54a.74.74,0,0,0-.39,0,.51.51,0,0,0-.17,0,.49.49,0,0,0-.38.48.51.51,0,0,0,.07.26.87.87,0,0,0,.13.15,2.14,2.14,0,0,0,.3.5,1.94,1.94,0,0,0,.21.29.89.89,0,0,0,.37.23l.06,0a6.35,6.35,0,0,0,1,1.15c.2.16.41.3.61.47a2.65,2.65,0,0,1,.29.29,1.76,1.76,0,0,0,.24.3c.23.17.66.06.92,0s.6-.13.9-.21a6.94,6.94,0,0,0,1.71-.65A.36.36,0,0,0,29,9.34a.33.33,0,0,0,0-.15c0-.13,0-.27,0-.4a.33.33,0,0,0,.07-.13c.1-.64.22-1.28.35-1.91a1.34,1.34,0,0,0,.16-1,1.91,1.91,0,0,0-.21-.65.47.47,0,0,0-.26-.22c-.07-.15-.13-.31-.19-.48a.17.17,0,0,0,.15,0,1.09,1.09,0,0,1,.36,0h0a.21.21,0,0,0,.07.14c.11.1.21.2.31.31s.17.23.27.33a.76.76,0,0,0,.45.19h.12v0l.48,1a.48.48,0,0,0,.19.25.93.93,0,0,0,.33.07l.55.07a.19.19,0,0,0,.15,0l.05,0A.18.18,0,0,0,32.7,6.55Z"/><path class="cls-6" d="M24.69,17.09a.41.41,0,0,0,0-.16.32.32,0,0,0,0-.09.26.26,0,0,0-.09-.16,1,1,0,0,1-.09-.18,3,3,0,0,1-.1-.52,2.15,2.15,0,0,1,0-.62.19.19,0,0,0-.08-.21l-.66-.31h-.05a.15.15,0,0,0-.09-.06.2.2,0,0,0-.18,0l-.27.3-.07,0a1.5,1.5,0,0,0-.37.34s0,0-.07.06a.2.2,0,0,0,0,.21.3.3,0,0,0,.2.1l.08,0h0L23,16l.22.11a3,3,0,0,0,.14.68v0l0,0a.7.7,0,0,0-.38,0,4.11,4.11,0,0,0-.68.21.18.18,0,0,0-.13.22.19.19,0,0,0,.14.12l-.06.06a.18.18,0,0,0,0,.24.17.17,0,0,0,.21.05h0l.07,0h.15a1,1,0,0,0-.14.15.18.18,0,0,0,.17.3c.41-.06.82-.12,1.22-.2a5.61,5.61,0,0,0,.59-.13c.18-.07.17-.24.19-.41s0-.15,0-.23a.22.22,0,0,0,0-.08Z"/><path class="cls-7" d="M33.55,21.88a2.82,2.82,0,0,0-1.18-.14.22.22,0,0,0,0-.14s0,0,0,0,.08-.18.07-.18l-.47,0a10.84,10.84,0,0,1-1.14,0l-.07.15a13,13,0,0,0-1.19,1.64c-.21.28,0,.61.26.56.8-.14,1.74-.19,2.54-.25.37,0,.72-.14,1.08-.19a5.09,5.09,0,0,1,.55,0,1.34,1.34,0,0,0,.53-.07c.36-.2.18-.63,0-.85A2.59,2.59,0,0,0,33.55,21.88Z"/><path class="cls-8" d="M34.52,15.16c-2.28.35-4.86.92-4.86.92s-1.42.86-4.93,1l-.52,6.65c.27,0,.53.1.81.14h.11l.27,0,.28,0h.11a7.32,7.32,0,0,0,1.48,0l.08-4.84,5.07-1-2.31,3.27h.54l0,0,.06,0h0c.33,0,.65.07,1,.06l.49-.06h.21a.45.45,0,0,0,.28,0,.1.1,0,0,1,.13.1,4.29,4.29,0,0,0,.8-.12l.06,0h.09l2.1-5.28S36.58,14.84,34.52,15.16Z"/><path class="cls-8" d="M25.13,17l.35,0h.24a.11.11,0,0,1,.08,0h.07a3.27,3.27,0,0,1,.54,0l2.8-.58s0,0,0,0a2.82,2.82,0,0,1,.39-.29.76.76,0,0,0,.2-.32l-5.15,1.07a2.44,2.44,0,0,0,.1.24C24.88,17.09,25,17,25.13,17Z"/><path class="cls-8" d="M30.15,13.58l-5.87,1.21c0,.17,0,.34,0,.51l5.82-1.2C30.13,13.92,30.14,13.75,30.15,13.58Z"/><path class="cls-8" d="M22.9,15.19l.17-.15-1.95.4.08.12.27.33.88-.18A3.39,3.39,0,0,1,22.9,15.19Z"/><path class="cls-8" d="M30,15.22c0-.18.05-.36.09-.54l-5.67,1.18a5,5,0,0,0,.12.49Z"/><path class="cls-8" d="M21.54,13.13a5.08,5.08,0,0,1-.75.64l-.05.05,9.47-2a.57.57,0,0,1,.4-.32,3.94,3.94,0,0,0,.55-.26c.2-.1.43-.15.63-.26h0Z"/><path class="cls-8" d="M30.21,12.43l-6.05,1.25a.23.23,0,0,1,.1.17c0,.11,0,.22,0,.32L30.21,13A3,3,0,0,0,30.21,12.43Z"/><path class="cls-8" d="M23.1,14.07a3.11,3.11,0,0,1,.41-.2c.08,0,.2-.07.29-.12l-3.32.69.27.46,2.33-.48A.21.21,0,0,1,23.1,14.07Z"/><path class="cls-8" d="M29,9.67a1.87,1.87,0,0,1-.55.42L34,8.94V8.88l0-.45-3.53.73a3.91,3.91,0,0,1-.89.38.22.22,0,0,1-.14,0h0l-.11.06a.21.21,0,0,1-.24,0A.35.35,0,0,1,29,9.67Z"/><path class="cls-8" d="M34.11,9.5,23.62,11.67c-.33.22-.61.5-.95.71L33,10.24a1,1,0,0,1,.34-.29l.46-.26.22-.14,0,0,0,0Z"/><path class="cls-8" d="M31.46,7.34l2.3-.48a1.36,1.36,0,0,0,0-.17,2.48,2.48,0,0,1-.47,0,2.28,2.28,0,0,0-.45,0l-.38,0-.1,0-.13,0a.41.41,0,0,1-.11-.07l-.77.16A2.13,2.13,0,0,0,31.46,7.34Z"/><path class="cls-8" d="M31.82,8.35l2.11-.44c0-.16,0-.33-.07-.5l-2.18.45C31.73,8,31.78,8.19,31.82,8.35Z"/><path class="cls-2" d="M23.94,6.2l-.17-.15-.3-.26.05-.06a5.32,5.32,0,0,0,.42-.67.36.36,0,0,0-.22-.53,3.11,3.11,0,0,0-.44-.07,2.52,2.52,0,0,0-.37,0h0a.89.89,0,0,0-.28,0,.35.35,0,0,0-.36.31.38.38,0,0,0,0,.15l-.08.64a2.58,2.58,0,0,0,0,.29.46.46,0,0,0,.05.2.36.36,0,0,0,0,.1.28.28,0,0,1,0,.09.26.26,0,0,0,.2.26h.14a.21.21,0,0,0,.1-.06H23l0,0,0,0h0l.06.09c.06.09.13.19.25.19s.18-.06.26-.1l.1-.06,0,0h.05l.09,0a.21.21,0,0,0,.12-.19A.41.41,0,0,0,23.94,6.2Z"/><path class="cls-7" d="M28.86,3.65V3.58a.26.26,0,0,0-.05-.09l-.05-.05-.06,0h0a.7.7,0,0,0-.21-.11l-.05,0-.52-.17a.16.16,0,0,0-.16,0,.19.19,0,0,0-.11,0,.29.29,0,0,0-.18.13c-.17.08-.4.08-.57.16s-.22.12-.34.18a1.87,1.87,0,0,1-.4.13c-.26.07-.53.11-.79.18s-.55.2-.83.26a.18.18,0,0,0-.12.1l-.58,0c-.23,0-.23.36,0,.37.64,0,1.28,0,1.91.1a5.18,5.18,0,0,0,1.75-.16A2,2,0,0,0,28.67,4h0l.06-.05h0l0-.06,0,0s0,0,0,0h0s0,0,0-.08Z"/><path class="cls-9" d="M27.61,2.73Q27,3,26.35,3.3a3.77,3.77,0,0,1-.64.23c-.2.05-.41.06-.62.11a12.17,12.17,0,0,1-2.67.48.18.18,0,0,0,0,.36A12.48,12.48,0,0,0,25.19,4c.22-.05.44-.06.66-.12a5.54,5.54,0,0,0,.68-.25c.42-.18.85-.37,1.26-.58C28,2.94,27.82,2.63,27.61,2.73Z"/><path class="cls-4" d="M22.24,4Z"/><path class="cls-4" d="M27.72.4A1.72,1.72,0,0,0,26.58.31a4.31,4.31,0,0,0-1.17.55,4.64,4.64,0,0,0-1,.69,8.06,8.06,0,0,1-1,.81.55.55,0,0,0-.15.19l-.05,0-.13.07L23,2.73h0l-.07,0L22.25,3a.88.88,0,0,0-.36.14.38.38,0,0,0-.06.43.87.87,0,0,0,.14.31.33.33,0,0,0,.19.14l.05,0h0l-.06,0a.26.26,0,0,0,.15.07.28.28,0,0,0,.21.05,12.67,12.67,0,0,0,3.54-.77.44.44,0,0,0,.22-.18,2.36,2.36,0,0,0,.46-.1,2.56,2.56,0,0,0,1-.51,1.88,1.88,0,0,0,.36-1.18A1,1,0,0,0,27.72.4Z"/><path class="cls-3" d="M26.21,7.72l-.67.84a1,1,0,0,0-.29-.39L25.07,8A.07.07,0,0,0,25,8a2.16,2.16,0,0,0-.75.88.08.08,0,0,0,0,.1l.18.15c.19.16.64.39.92.06s.56-.72,1-1.39"/><path class="cls-3" d="M25.25,7s.63,1.37,2.71.62"/><path class="cls-3" d="M29.55,23.26c-.25.58.21.51.21.51l4.7-.58c.3,0,.24-.4.24-.4-.4-1.48-3.13-1-3.13-1"/><path class="cls-3" d="M30.81,21.42a18.06,18.06,0,0,0-1.27,1.86"/><line class="cls-3" x1="32.23" y1="21.74" x2="32.49" y2="21.42"/><path class="cls-3" d="M34.1,9.29s0,.23-.1.32-3.84,2.23-3.84,2.23"/><path class="cls-3" d="M31.67,4.71c.1.16.59,1.08,1.1,2.05"/><line class="cls-3" x1="31.9" y1="8.53" x2="33.18" y2="8.67"/><line class="cls-3" x1="30.66" y1="5.36" x2="31.3" y2="6.67"/><line class="cls-3" x1="29.05" y1="9.76" x2="31.9" y2="8.57"/><path class="cls-3" d="M29.42,6.54c0,.11,0,.22,0,.33a11.25,11.25,0,0,0-.35,2.89"/><path class="cls-3" d="M28.76,4.12a5.05,5.05,0,0,1,.53,1.36,5.1,5.1,0,0,1,.13,1.06"/><path class="cls-3" d="M28.74,4.08l0,0"/><path class="cls-3" d="M23.25,8.46c.84,1.4,1.57,1.44,2.11,2.29"/><path class="cls-3" d="M22.35,4.57a3.46,3.46,0,0,0-.15,1.54,3.35,3.35,0,0,0,.07.44"/><path class="cls-7" d="M26.14,7.79a5.39,5.39,0,0,1-.56.79.1.1,0,0,0-.09,0,1.06,1.06,0,0,0-.18-.33c-.08-.11-.23-.27-.38-.16a1,1,0,0,0-.13.16l-.14.16-.28.32h0l0,0v0a.09.09,0,0,0-.06,0,.15.15,0,0,0,0,.21.44.44,0,0,0,.16.1.13.13,0,0,0,.06.07.68.68,0,0,0,.69.12,1,1,0,0,0,.36-.41,4.92,4.92,0,0,0,.71-1C26.32,7.78,26.19,7.7,26.14,7.79Z"/><path class="cls-3" d="M23.51,8.41a.45.45,0,0,0,.26-.52"/><path class="cls-3" d="M23.41,8.44l.1,0"/><path class="cls-3" d="M22.32,6.62c-.6.35.07,1.35.46,1.66a.82.82,0,0,0,.63.16"/><path class="cls-3" d="M23.44,7a.79.79,0,0,0-1.12-.35"/><path class="cls-3" d="M22.91,7a.52.52,0,0,1,.11.21,1.29,1.29,0,0,0,.27.66"/><path class="cls-3" d="M23.06,7.36a.26.26,0,0,1-.31,0"/><path class="cls-3" d="M23,7.41a.39.39,0,0,1,0,.31"/><path class="cls-3" d="M29.07,4.77c.34,0,.68.83.63,1.45a.85.85,0,0,1-.28.58"/><path class="cls-3" d="M27.87,3s1.6.28.85,1-3.77,1-5.3.4"/><path class="cls-3" d="M27.79,2.61a15,15,0,0,1-5.57,1.5l.08.43A15,15,0,0,0,27.87,3l-.08-.43"/><path class="cls-3" d="M22.22,4.11s-.55-.37-.52-.77.62-.21,1.59-.89S25.93-.14,27.46.25c1.13.29.65,1.65.33,2.36"/><path class="cls-3" d="M23.76,17.38a2.11,2.11,0,0,1-.6-1.54"/><path class="cls-3" d="M23.28,16.77a3.51,3.51,0,0,0-1.13.24s-.18.09-.16.25c0,0,0,.06.41,0"/><path class="cls-3" d="M20.54,14.66a.49.49,0,0,1,.08-.72,37.87,37.87,0,0,1,3.89-2.78,3.18,3.18,0,0,1,.87-.34"/><path class="cls-3" d="M23.12,16.08l-.79-.36"/><path class="cls-3" d="M24.29,15.08a6.9,6.9,0,0,1-.88-.42"/><path class="cls-3" d="M23.62,17.27c-.7.09-1.27.57-1.24.78s.34.13.34.13,1.57-.3,1.79-.36.18-.16.2-.29"/><path class="cls-3" d="M22.61,17.7l-.27,0s-.23,0-.24-.15.48-.44,1.3-.6"/><path class="cls-3" d="M24.18,13.58l-1.32.67"/><path class="cls-3" d="M29.86,10.56a8.21,8.21,0,0,1-.2,5.52"/><line class="cls-3" x1="24.75" y1="17.13" x2="24.22" y2="23.62"/><path class="cls-3" d="M32.42,18.08l-2.31,3.27a12.12,12.12,0,0,0,1.84.07,11.82,11.82,0,0,0,1.83-.07S35.91,16,35.91,16s.33-1.06-.67-.95-5.58,1-5.58,1-1.16.91-4.93,1"/><line class="cls-3" x1="33.05" y1="17.95" x2="26.72" y2="19.24"/><line class="cls-3" x1="27.35" y1="19.11" x2="27.27" y2="23.71"/><path class="cls-3" d="M24.29,12.71A10.4,10.4,0,0,0,24.73,17"/><path class="cls-3" d="M24.05,4.63a4.42,4.42,0,0,1-.54,1.16l.72.71-.84.4"/><path class="cls-3" d="M29.05,9.76s-.81.92-3.67,1.06"/><path class="cls-3" d="M30,3.65a1.06,1.06,0,0,0,.22,1.23c.57.64,1.09.33,1.09.33"/><path class="cls-3" d="M28.8,4.12a.47.47,0,0,1,.54-.36"/><path class="cls-3" d="M29.66,4.69a.6.6,0,0,0-.6-.26.29.29,0,0,1-.1,0"/><path class="cls-3" d="M30.66,5.36s-.4.14-.81-.44a2.59,2.59,0,0,0-.19-.23"/><path class="cls-3" d="M30,3.63l-1.4-1.26s-.61-.44-.2-.89c0,0,.18-.21.5.05.15.13,1.6,1.53,2.24,2.22a3.16,3.16,0,0,1,.54,1"/><path class="cls-3" d="M28.15,1.73l.1.06"/><path class="cls-3" d="M29.82,3.79,28,2.44a.7.7,0,0,1-.12-.08"/><path class="cls-3" d="M27.86,2.5a1,1,0,0,1,.45.15"/><path class="cls-3" d="M29.72,3.93l-.8-.35"/><path class="cls-3" d="M32.69,6.53a2.51,2.51,0,0,1,1,.13,3.16,3.16,0,0,1-1.25.13,2.78,2.78,0,0,1-1.25-.13s0,0,.06,0"/><path class="cls-3" d="M22.55,15.84c-.4.4-.7.62-.74.58s.29-.5.77-1,.9-.86,1-.81,0,0,0,.07"/><line class="cls-3" x1="33.69" y1="6.66" x2="34.1" y2="9.29"/><line class="cls-3" x1="31.19" y1="6.66" x2="31.9" y2="8.57"/><circle class="cls-10" cx="26.11" cy="6.12" r="0.86"/><circle class="cls-7" cx="26.11" cy="6.12" r="0.26"/><polyline class="cls-3" points="28.67 5.61 27.82 5.5 28.44 4.9"/><line class="cls-3" x1="27.82" y1="5.5" x2="28.67" y2="5.22"/><path class="cls-11" d="M26.87,6.9a.8.8,0,0,1-.11-.4.79.79,0,1,1,.78.78l-.18,0"/><path class="cls-3" d="M28.31,2.05A.27.27,0,0,0,28,2"/><path class="cls-7" d="M28.15,1.8a.09.09,0,0,0,0,.18A.09.09,0,1,0,28.15,1.8Z"/><line class="cls-3" x1="21.81" y1="16.42" x2="20.54" y2="14.66"/><line class="cls-3" x1="23.53" y1="14.61" x2="22.37" y2="13.98"/><path class="cls-7" d="M33.36,6.6a.08.08,0,0,0,0,0h-.44a.1.1,0,0,0-.09.09.09.09,0,0,0,.09.09,2,2,0,0,0,.42,0,.1.1,0,0,0,.07-.12Z"/><path class="cls-7" d="M22.43,15.81a.09.09,0,0,0-.07,0,.09.09,0,0,0-.06,0l-.05,0h0l-.09.08-.2.14a.1.1,0,0,0,0,.13.09.09,0,0,0,.12,0l.42-.31a.19.19,0,0,0,0-.07A.11.11,0,0,0,22.43,15.81Z"/><path class="cls-3" d="M34.46,30.23a1.71,1.71,0,0,0,1.41,1.69"/><path class="cls-3" d="M31,30.23a1.72,1.72,0,1,0,3.44,0"/><path class="cls-3" d="M27.58,30.23a1.72,1.72,0,1,0,3.44,0"/><path class="cls-3" d="M24.13,30.23a1.73,1.73,0,0,0,3.45,0"/><path class="cls-3" d="M20.63,30.23a1.73,1.73,0,0,0,3.45,0"/><path class="cls-3" d="M17.19,30.23a1.72,1.72,0,0,0,3.44,0"/><path class="cls-3" d="M13.75,30.23a1.72,1.72,0,1,0,3.44,0"/><path class="cls-3" d="M10.31,30.23a1.72,1.72,0,0,0,3.44,0"/><path class="cls-3" d="M8.59,32a1.72,1.72,0,0,0,1.72-1.72"/><path class="cls-3" d="M23.54,23.44a11.32,11.32,0,0,0,4.14.34"/></g></g></svg>