<svg xmlns="http://www.w3.org/2000/svg" viewBox="0 0 15.65 20.72"><defs><style>.cls-1{fill:#fff;}.cls-2,.cls-4{fill:none;stroke-linecap:round;stroke-linejoin:round;stroke-width:0.4px;}.cls-2{stroke:#22234a;}.cls-3{fill:#22234a;}.cls-4{stroke:#e33b17;}</style></defs><g id="Layer_2" data-name="Layer 2"><g id="Layer_1-2" data-name="Layer 1"><polygon class="cls-1" points="11.79 20.52 0.2 18.23 3.5 1.5 6.52 0.2 15.45 1.96 11.79 20.52"/><polyline class="cls-1" points="3.5 1.5 6.08 2.5 6.52 0.2"/><polygon class="cls-2" points="11.79 20.52 0.2 18.23 3.5 1.5 6.52 0.2 15.45 1.96 11.79 20.52"/><polyline class="cls-2" points="3.5 1.5 6.08 2.5 6.52 0.2"/><path class="cls-3" d="M3.78,6.26l.39-1.94.28.06L4.11,6l.55.11,0,.28Z"/><path class="cls-3" d="M4.75,6.46l.39-1.94L6,4.69l0,.26-.55-.11-.12.57.48.09-.05.26L5.2,5.67l-.12.57.55.11,0,.27Z"/><path class="cls-3" d="M5.9,6.69,6.24,5,5.92,5l0-.26.92.19,0,.26-.32-.07L6.18,6.75Z"/><path class="cls-3" d="M6.86,5.37,7,4.89,7.24,5l-.06.27Z"/><path class="cls-3" d="M8.23,5.73,8,5.67V5.61a.25.25,0,0,0,0-.17.14.14,0,0,0-.13-.1h-.1l-.07,0a.56.56,0,0,0-.05.08.24.24,0,0,0,0,.09.51.51,0,0,0,0,.09.22.22,0,0,0,0,.08.21.21,0,0,0,0,.06.22.22,0,0,0,.07.06l.2.13A.47.47,0,0,1,8,6.08a.54.54,0,0,1,.07.13.76.76,0,0,1,0,.15,1.62,1.62,0,0,1,0,.2A1.42,1.42,0,0,1,8,6.78a.48.48,0,0,1-.12.16A.39.39,0,0,1,7.7,7a.45.45,0,0,1-.23,0A.49.49,0,0,1,7.29,7a.3.3,0,0,1-.13-.12.41.41,0,0,1-.07-.17.31.31,0,0,1,0-.19l0-.1.27,0v.09a.26.26,0,0,0,0,.15.2.2,0,0,0,.14.09h.12l.07,0a.36.36,0,0,0,0-.09l0-.12a.74.74,0,0,0,0-.12.26.26,0,0,0,0-.09l0-.06-.08-.05L7.5,6.05a.41.41,0,0,1-.2-.24.58.58,0,0,1,0-.32.68.68,0,0,1,.07-.2.47.47,0,0,1,.13-.15.4.4,0,0,1,.16-.08.41.41,0,0,1,.22,0,.37.37,0,0,1,.18.08.33.33,0,0,1,.13.13.41.41,0,0,1,.07.32Z"/><path class="cls-3" d="M8.58,7.24,9,5.3l.27.06.14,1.09h0l.56-1,.27.06L9.84,7.49l-.28,0L9.8,6.26h0L9.35,7,9.21,7l-.1-.89h0L8.86,7.29Z"/><path class="cls-3" d="M9.93,7.51l.83-1.85.23,0,0,2-.28-.06V7.25l-.38-.08-.17.4ZM10.76,7V6.25h0l-.28.68Z"/><path class="cls-3" d="M11.13,7.76l.39-1.94.28.06-.18.88h0l.58-.8.28.06L12,6.71,12.16,8l-.29-.06L11.73,7l-.21.25-.11.58Z"/><path class="cls-3" d="M12.25,8l.39-1.93.83.17-.05.26-.55-.11-.12.56.48.1-.05.26L12.7,7.2l-.12.56.55.12-.05.27Z"/><path class="cls-3" d="M2.6,11.94,3.66,6.78,4.77,7a1.6,1.6,0,0,1,.52.19,1,1,0,0,1,.36.36,1.13,1.13,0,0,1,.16.53,3.19,3.19,0,0,1-.07.75,3.56,3.56,0,0,1-.16.58,1.26,1.26,0,0,1-.27.42,1,1,0,0,1-.48.31,1.48,1.48,0,0,1-.7,0l-.38-.08-.41,2ZM4.25,7.63,3.9,9.38l.35.07a.64.64,0,0,0,.36,0,.42.42,0,0,0,.22-.14A.63.63,0,0,0,5,9.06C5,9,5,8.84,5,8.71l.06-.35a.6.6,0,0,0,0-.3A.38.38,0,0,0,5,7.84a.74.74,0,0,0-.32-.13Z"/><path class="cls-3" d="M5.48,12.53l1-5.16.74.15-1,5.16Z"/><path class="cls-3" d="M6.83,12.81l1-5.17,2.21.45-.14.7-1.47-.3L8.17,10l1.28.26-.14.7L8,10.7l-.31,1.52,1.47.29L9,13.25Z"/><path class="cls-3" d="M12.56,10.14,11.82,10l0-.17a.89.89,0,0,0,0-.46.47.47,0,0,0-.37-.27.51.51,0,0,0-.25,0,.51.51,0,0,0-.31.31,1.82,1.82,0,0,0-.07.25,1.51,1.51,0,0,0,0,.26.59.59,0,0,0,0,.19.54.54,0,0,0,.1.16,1,1,0,0,0,.21.16l.52.34a1.35,1.35,0,0,1,.35.31.8.8,0,0,1,.18.34,1.44,1.44,0,0,1,0,.42c0,.15,0,.32-.07.51a3.4,3.4,0,0,1-.19.59,1.29,1.29,0,0,1-.31.43,1.07,1.07,0,0,1-.46.24,1.5,1.5,0,0,1-.63,0,1.27,1.27,0,0,1-.48-.19,1.3,1.3,0,0,1-.35-.35,1.32,1.32,0,0,1-.18-.44,1.06,1.06,0,0,1,0-.5l.05-.28.74.15,0,.24a.59.59,0,0,0,0,.39.49.49,0,0,0,.37.24.66.66,0,0,0,.31,0,.39.39,0,0,0,.19-.12.71.71,0,0,0,.12-.23,2.55,2.55,0,0,0,.07-.32,3,3,0,0,0,.06-.33.55.55,0,0,0,0-.23.4.4,0,0,0-.1-.15l-.2-.16L10.61,11a1.18,1.18,0,0,1-.53-.65,1.7,1.7,0,0,1,0-.84A1.82,1.82,0,0,1,10.27,9a1.31,1.31,0,0,1,.33-.4,1.18,1.18,0,0,1,.45-.22,1.41,1.41,0,0,1,.58,0,1.28,1.28,0,0,1,.49.21,1.22,1.22,0,0,1,.34.34,1.18,1.18,0,0,1,.17.87Z"/><path class="cls-3" d="M2.38,13a.38.38,0,0,1,.08-.17.46.46,0,0,1,.12-.12.44.44,0,0,1,.15-.05h.16l.15.06a.6.6,0,0,1,.12.11.52.52,0,0,1,.07.15.46.46,0,0,1,0,.2v.08l-.25,0v-.08A.15.15,0,0,0,3,13a.21.21,0,0,0-.11-.07.19.19,0,0,0-.13,0s-.06.07-.08.13L2.45,14a.13.13,0,0,0,0,.14.16.16,0,0,0,.11.07.15.15,0,0,0,.13,0,.18.18,0,0,0,.08-.12l.06-.33-.2,0,.05-.22.45.09L3,14.12A.49.49,0,0,1,3,14.3a.31.31,0,0,1-.12.11l-.15.06H2.53l-.15-.06a.35.35,0,0,1-.11-.1.55.55,0,0,1-.08-.15.46.46,0,0,1,0-.2Z"/><path class="cls-3" d="M3.14,14.57l.36-1.75.4.08c.29.06.41.27.34.61a.64.64,0,0,1-.11.25.33.33,0,0,1-.2.14l.11.85-.27-.05-.08-.79-.15,0-.15.74Zm.56-1.46-.11.54.14,0h.11l.07,0a.56.56,0,0,0,0-.08l0-.12a.49.49,0,0,0,0-.12.28.28,0,0,0,0-.09.2.2,0,0,0-.16-.11Z"/><path class="cls-3" d="M4.15,14.78,4.51,13l.75.15,0,.24-.5-.11-.1.52.43.09,0,.23-.43-.09-.11.52.5.1,0,.25Z"/><path class="cls-3" d="M4.91,14.93l.75-1.67.21,0,0,1.84-.25-.06v-.39l-.35-.07L5.16,15Zm.75-.48v-.66h0l-.25.61Z"/><path class="cls-3" d="M6,15.16l.31-1.52L6,13.59l0-.24.83.17,0,.24-.29-.06-.31,1.51Z"/><path class="cls-3" d="M7,15.35l.75-1.67.21,0,0,1.83-.25-.05v-.39L7.35,15l-.15.36Zm.74-.49V14.2h0l-.25.61Z"/><path class="cls-3" d="M8.29,14.23a.48.48,0,0,1,.07-.18.49.49,0,0,1,.13-.12l.15,0a.38.38,0,0,1,.15,0,.44.44,0,0,1,.15,0,.43.43,0,0,1,.12.11.69.69,0,0,1,.07.15.67.67,0,0,1,0,.2l0,.09-.25-.05,0-.09a.19.19,0,0,0,0-.15.17.17,0,0,0-.11-.06.15.15,0,0,0-.13,0,.18.18,0,0,0-.07.12l-.19.92a.19.19,0,0,0,0,.15.17.17,0,0,0,.11.06.19.19,0,0,0,.13,0,.2.2,0,0,0,.08-.13l.06-.33-.19,0,0-.22.45.09-.11.55a.47.47,0,0,1-.08.19.43.43,0,0,1-.12.11l-.15.05H8.43a.35.35,0,0,1-.14-.06.43.43,0,0,1-.12-.11.26.26,0,0,1-.07-.15.34.34,0,0,1,0-.2Z"/><path class="cls-3" d="M8.93,15.75l.75-1.67.2,0,0,1.83-.25,0v-.39l-.34-.07-.15.36Zm.74-.48v-.66h0l-.25.6Z"/><path class="cls-3" d="M10,16l.36-1.75.25,0L10.27,16Z"/><path class="cls-3" d="M10.46,16.06l.36-1.75.24,0,.17,1.13h0l.22-1.06.25.05-.36,1.75-.24,0-.17-1.13h0l-.21,1.06Z"/><line class="cls-4" x1="13.27" y1="5.11" x2="4.95" y2="3.41"/><line class="cls-4" x1="10.71" y1="17.65" x2="2.39" y2="15.96"/></g></g></svg>