<svg xmlns="http://www.w3.org/2000/svg" viewBox="0 0 43.98 30.69"><defs><style>.cls-1,.cls-14{fill:#bfe1f1;}.cls-2{fill:#fff;}.cls-3{fill:#e33b17;}.cls-13,.cls-4{fill:#243d7e;}.cls-5{fill:#ee7349;}.cls-6{fill:#f9b91a;}.cls-7{fill:#915f4a;}.cls-8{fill:#b56f26;}.cls-9{fill:#0071b9;}.cls-10{fill:#0a7332;}.cls-11,.cls-15{fill:#22234a;}.cls-12,.cls-16{fill:none;stroke-width:0.4px;}.cls-12,.cls-13,.cls-14,.cls-15,.cls-16{stroke:#22234a;stroke-linecap:round;stroke-linejoin:round;}.cls-16{stroke-dasharray:2;}</style></defs><g id="Layer_2" data-name="Layer 2"><g id="Layer_1-2" data-name="Layer 1"><path class="cls-1" d="M29.3,28.07c.1-.27.18-.54.24-.76a5.39,5.39,0,0,0,.15-2.26,6.36,6.36,0,0,0-2.21-3.66.33.33,0,0,1-.11-.41c-.82-.28-2.81-1-2.81-1h-.75s-2.57,1.71-2.63,1.78-.41,2.92-.39,3S22,27.48,22,27.48l3.18,2.14,3.36-.41Z"/><path class="cls-1" d="M3.81,19.94s-2.58,1.71-2.63,1.78-.42,2.92-.39,3S2,27.48,2,27.48l3.18,2.14,3.36-.41,1.75-2.63-.6-3.15s-1.89-2.37-2-2.35-3.16-1.14-3.16-1.14Z"/><polygon class="cls-2" points="0.48 25.09 5.59 24.69 2.88 28.18 0.48 25.09"/><path class="cls-2" d="M8.75,21.53,5.53,24.71l4.41.23-.41-2.06A6.24,6.24,0,0,0,8.75,21.53Z"/><polygon class="cls-2" points="21.11 28.26 24.74 24.65 24.93 29.07 21.11 28.26"/><polygon class="cls-2" points="25.17 19.61 24.72 24.71 28.23 22.04 25.17 19.61"/><path class="cls-3" d="M10.19,1.86a3.84,3.84,0,0,0-.45-.66A2.61,2.61,0,0,0,9.47.89L9.35.77S9.22.68,9.21.64A.2.2,0,0,0,9,.49H9A.23.23,0,0,0,8.86.4c-.21,0-.38-.16-.59-.2A1.52,1.52,0,0,0,7.6.26L6.93.43c-.21,0-.44,0-.66.11a2.56,2.56,0,0,0-.58.33c-.17.12-.41.26-.41.49v0a.3.3,0,0,0-.08.08.22.22,0,0,0,0,.21.45.45,0,0,0,.19.14l.15.1h0l0,0L5.65,2l0,0,0,.06a2.7,2.7,0,0,1,.22.33L6,2.6a.36.36,0,0,1,0,.09l0,.05h0v0a0,0,0,0,0,0,0,.21.21,0,0,0,.3.2,2.19,2.19,0,0,1,.94-.21,3.69,3.69,0,0,0,.85-.18c.3-.07.59-.16.88-.25A3,3,0,0,1,10,2.16.2.2,0,0,0,10.19,1.86Z"/><path class="cls-4" d="M10.17,23.6a.16.16,0,0,0,0-.07c-.11-.38-.26-.78-.52-.91a.21.21,0,0,0-.06-.1c-.24-.29-.39-.64-.64-.92a5.25,5.25,0,0,0-.82-.75.25.25,0,0,0-.16-.06,3.43,3.43,0,0,0-1-.64h0a.71.71,0,0,0-.14-.1c-.28-.11-.56-.21-.84-.29a2.45,2.45,0,0,0-.55-.13A.32.32,0,0,0,5,19.57a.57.57,0,0,0-.22,0,.41.41,0,0,0-.16,0,4.34,4.34,0,0,0-2.08.39,2.68,2.68,0,0,0-1.27,1,2.83,2.83,0,0,0-.88,1.53.17.17,0,0,0,0,.1.43.43,0,0,0-.09.23,5.65,5.65,0,0,0,0,2.13h0a.43.43,0,0,0,0,.16,8.23,8.23,0,0,0,.76,1.78.3.3,0,0,0,.07.11s0,0,0,.06a2.8,2.8,0,0,0,.65.92c.28.29.59.54.86.85a.28.28,0,0,0,.22.1l0,.05a3.58,3.58,0,0,0,.56.4c.18.1.34.23.51.33a.39.39,0,0,0,.23,0,.92.92,0,0,0,.31.16c.11,0,.24.05.35.1a1.39,1.39,0,0,0,.21.11.5.5,0,0,0,.27,0h0a1.94,1.94,0,0,0,.59.12.37.37,0,0,0,.18,0,6.16,6.16,0,0,0,1,0c.43,0,.77-.26,1.18-.32a.32.32,0,0,0,.22-.14.34.34,0,0,0,.21-.06,6.44,6.44,0,0,0,1-.93l.06-.09a.47.47,0,0,0,.1-.1,4.82,4.82,0,0,0,.75-2.29.2.2,0,0,0,0-.11A4.52,4.52,0,0,0,10.17,23.6Zm-.5,2.67a.33.33,0,0,0-.05.12,6.64,6.64,0,0,1-.3,1.08.4.4,0,0,0-.1.12A2.4,2.4,0,0,1,9,27.9a.36.36,0,0,0-.08.15h0c-.12.13-.29.22-.42.34s-.27.22-.42.32L8,28.81a.34.34,0,0,0-.14,0c-.23.05-.48.26-.73.26a.36.36,0,0,0-.23.09.3.3,0,0,0-.16,0c-.43.12-.89-.13-1.32-.08A.38.38,0,0,0,5.12,29c-.25,0-.43-.22-.69-.23H4.35a.43.43,0,0,0-.12-.11c-.36-.19-.71-.4-1.05-.62h0c-.08-.25-.39-.46-.58-.64a.3.3,0,0,0-.08-.16A3.86,3.86,0,0,0,2,26.66l0-.09-.26-.42-.05-.07a.21.21,0,0,1,0-.06.33.33,0,0,0,0-.22c-.11-.36-.25-.72-.38-1.08a.4.4,0,0,0,0-.22c0-.2-.06-.4-.1-.6a.32.32,0,0,0,.07-.2,4.19,4.19,0,0,1,.21-1.12c.08-.2.18-.39.27-.58a.5.5,0,0,0,.17-.15c.13-.18.28-.35.42-.53a.31.31,0,0,0,.24-.12,2.09,2.09,0,0,1,1.1-.52c.31-.09.63-.1.94-.16a.26.26,0,0,0,.17.05,3.82,3.82,0,0,1,.9.09l.4.1c.14.07.29.14.42.22a.37.37,0,0,0,.21,0,.35.35,0,0,0,.08.1c.42.34.86.65,1.27,1l.12.17a5.6,5.6,0,0,0,.54.55.43.43,0,0,0,0,.19,5.27,5.27,0,0,1,.43.72c.11.32.2.63.33.95l.06.09a5.35,5.35,0,0,0,.07.56.46.46,0,0,0,0,.14,3.38,3.38,0,0,1,0,.62A.53.53,0,0,0,9.67,26.27Z"/><path class="cls-5" d="M10.39,8a.33.33,0,0,0-.14-.55,2.23,2.23,0,0,1-.63-.21,2.25,2.25,0,0,1-.52-.4,3.68,3.68,0,0,1-.86-1.06,6,6,0,0,1-.41-1.26,3.11,3.11,0,0,1-.1-1.32.33.33,0,0,0-.41-.39L6.05,3.1a.38.38,0,0,0-.15,0l-.18,0a.33.33,0,0,0-.13.07H5.52A2.33,2.33,0,0,0,5,3.33a1.13,1.13,0,0,1-.44.1.25.25,0,0,0-.24.2,8,8,0,0,0-.12,1.1,1.89,1.89,0,0,0,.19.88h0a1.26,1.26,0,0,0-.42.12.52.52,0,0,0-.23.47.85.85,0,0,0,.08.56A.44.44,0,0,0,4.18,7L4.3,7a.73.73,0,0,0,.48-.09l.12-.08A.75.75,0,0,0,5,7V7a.09.09,0,0,0,0,0s0,0,0,0l0,0h.06a.4.4,0,0,0,.29.1h.09a.41.41,0,0,0,.3,0l.64-.31.16-.08a3.88,3.88,0,0,1-.12.51c-.08.27-.32.43-.45.68H5.92a.26.26,0,0,0-.28.39c.3.47.65,1.15,1.29,1.19a2.16,2.16,0,0,0,.82-.18,1,1,0,0,0,.36-.23s0,0,0,0l.2.13s.22,0,.24,0l.06,0,.05,0c.05.15.37.14.52.08a.86.86,0,0,0,.29-.13c.13-.1.43-.22.55-.33a.49.49,0,0,0,.16-.22l0,0s.07-.1.06-.08a.34.34,0,0,1,.12,0A2.42,2.42,0,0,0,10.39,8Z"/><path class="cls-5" d="M10.12,4.42a.62.62,0,0,0-.6-.58.54.54,0,0,0-.43.07C9,4,9,4.22,9.05,4.36l0,.08s0,.08,0,.12,0,.29,0,.44Q9,5.48,9,6a.2.2,0,0,0,.39,0,1.39,1.39,0,0,1,.36-.75A1.81,1.81,0,0,0,10,4.86.75.75,0,0,0,10.12,4.42Z"/><path class="cls-5" d="M7.57,13.1a1.22,1.22,0,0,1-.6,0,3.65,3.65,0,0,0-.66,0,4.43,4.43,0,0,0-1.26,0l-.08,0a.2.2,0,0,0-.18,0,1.37,1.37,0,0,0-.32.62.14.14,0,0,0,0,.11c-.05.12-.1.24-.14.36a.38.38,0,0,0,.41.52.12.12,0,0,0,.09,0,.56.56,0,0,0,.15.27.6.6,0,0,0,.43.12l.17,0v0a.13.13,0,0,0,0,.06l0,.07h0l0,0,.06.05.07,0H5.9a.12.12,0,0,0,.1.07.17.17,0,0,0,.14,0h0l.14,0h.06a.15.15,0,0,0,.07,0,.07.07,0,0,0,0-.1.06.06,0,0,0-.08,0h-.1a.83.83,0,0,0,0-.22.53.53,0,0,0,0-.13.5.5,0,0,0,0-.21,1.4,1.4,0,0,0,.81-.06.86.86,0,0,0,.3-.27.77.77,0,0,0,.1-.18.25.25,0,0,0,0-.1H7.6A.2.2,0,0,0,7.78,14a1.68,1.68,0,0,1,0-.67A.2.2,0,0,0,7.57,13.1Z"/><path class="cls-4" d="M21.72,20.6l-.18-.08h0a.31.31,0,0,0-.05-.12.35.35,0,0,0-.35-.12.82.82,0,0,0-.34.26.2.2,0,0,0-.08,0,.18.18,0,0,0-.07.05h0l0,0a.65.65,0,0,0-.11.12,3.19,3.19,0,0,0-.3.42l-.07,0a.34.34,0,0,0-.12.12h0l0,.09h0a.09.09,0,0,0,0,0,2.41,2.41,0,0,0-.42.79.3.3,0,0,0,0,.21.57.57,0,0,0-.1.31.35.35,0,0,0,.35.37h.05a.23.23,0,0,0,.14,0l0,0a.34.34,0,0,0,.37-.15l0-.06s0,0,.05-.06a2.09,2.09,0,0,0,.08-.23v0a2.09,2.09,0,0,1,.16-.29l.31-.5a2.17,2.17,0,0,1,.68-.7A.33.33,0,0,0,21.72,20.6Z"/><path class="cls-4" d="M29.83,25.37c-.06-.34-.13-.68-.22-1a4.57,4.57,0,0,0-.33-.94,4.81,4.81,0,0,0-.48-.78.3.3,0,0,0-.1-.2,2.9,2.9,0,0,1-.43-.55,4.88,4.88,0,0,0-.52-.59c-.19-.18-.38-.35-.58-.51a2.22,2.22,0,0,0-.61-.4l-.06,0a7.11,7.11,0,0,0-2.14-.76,5.41,5.41,0,0,0-1.13-.07,3.12,3.12,0,0,0-1.18.21l-.06.05a.33.33,0,0,0-.27.56.49.49,0,0,1,.13.28.33.33,0,0,0,.48.19,1.65,1.65,0,0,1,.41-.18l.56-.12a.34.34,0,0,0,.17,0,4.34,4.34,0,0,1,2,.32A7.42,7.42,0,0,1,27.15,22a.4.4,0,0,0,.09.15,5.15,5.15,0,0,1,1.17,1.78,4.88,4.88,0,0,1,.4,2.26.28.28,0,0,0,0,.09.5.5,0,0,0-.08.2,2.35,2.35,0,0,1,0,.37A4.32,4.32,0,0,1,28,28.19h0a.41.41,0,0,0-.11.07l-.2.19-.1.09,0,0,0,0a1.38,1.38,0,0,1-.42.21,6.72,6.72,0,0,0-1.09.39.25.25,0,0,0-.12,0,3.42,3.42,0,0,1-.64,0,1.53,1.53,0,0,0-.6-.05.28.28,0,0,0-.18-.06.9.9,0,0,1-.38-.1l-.51-.25-.49-.23-.2-.08h0a5,5,0,0,0-.48-.44l-.16-.12,0,0-.06-.05a2.09,2.09,0,0,1-.22-.2l-.08-.1,0,0,0,0c-.07-.08-.13-.17-.2-.26a2.13,2.13,0,0,0-.34-.33c-.12-.27-.24-.53-.35-.8a.34.34,0,0,0-.2-.15.36.36,0,0,0-.25,0l0,0h0a.35.35,0,0,0-.4-.05.43.43,0,0,0-.11.12.32.32,0,0,0,0,.25,2.64,2.64,0,0,0,.2.37l.22.31.48.64a.35.35,0,0,0,.14.13.61.61,0,0,1,.07.1,4.1,4.1,0,0,0,.49.53.42.42,0,0,0,.15.22l.64.47.06,0a1.26,1.26,0,0,0,.37.27c.21.11.42.21.62.33A4.12,4.12,0,0,0,24,30a1.53,1.53,0,0,0,.78.14h0a2.07,2.07,0,0,0,.85.16.28.28,0,0,0,.18-.06h.08a4.11,4.11,0,0,0,1-.05,3.93,3.93,0,0,0,1.65-.93.45.45,0,0,0,.15-.19h0a.64.64,0,0,0,.23-.26l0-.05a.24.24,0,0,0,.08-.09,4,4,0,0,0,.57-1.09,7.86,7.86,0,0,0,.25-1.17v-.14A1.7,1.7,0,0,0,29.83,25.37Z"/><path class="cls-2" d="M6.08,5.09a3.34,3.34,0,0,0-.25-.4.89.89,0,0,0-.43-.22.52.52,0,0,0-.3,0,1.09,1.09,0,0,0-.17.13.75.75,0,0,0-.2.37.81.81,0,0,0,0,.41l0,0a.17.17,0,0,0,.09.11.18.18,0,0,0,.25-.06l.2,0,.11,0h.07a3.27,3.27,0,0,1,.44,0A.2.2,0,0,0,6.08,5.09Z"/><path class="cls-2" d="M7,6.49a.13.13,0,0,0-.23-.08,2.08,2.08,0,0,1-.32.27H6.35l-.07,0a.39.39,0,0,0-.08.1l-.13,0A2.28,2.28,0,0,1,5.71,7a1.17,1.17,0,0,0-.31.12.13.13,0,0,0-.21.12l.33.83a.14.14,0,0,0,.2.08,3.46,3.46,0,0,0,.9-.67A1.48,1.48,0,0,0,7,6.49Z"/><path class="cls-5" d="M5.91,24.07h0l.1,0A.24.24,0,0,0,6.11,24l0,0a.31.31,0,0,0,0-.13v-.07a.1.1,0,0,1,0-.14,3.21,3.21,0,0,1,.2-.62c.07-.2.11-.4.17-.6A8.79,8.79,0,0,0,7,21.16a.14.14,0,0,0,0-.09L7,20.92a.21.21,0,0,0,0-.15c0-.1.07-.19.1-.29l.06-.23,0,0h0A.46.46,0,0,0,7.34,20V20a1.09,1.09,0,0,0,0-.26.12.12,0,0,0,.05-.07c.11-.31.21-.62.31-.94l.06,0s0,0,.06,0l.51.58a.23.23,0,0,0,.19.08l0,0a10.41,10.41,0,0,0,.78.71.24.24,0,0,0,.1.05l.28.26a.22.22,0,0,0,.05.08l4,3.74c.25.22.62-.14.37-.37l-3.66-3.41h0l-.17-.18q-.4-.4-.84-.78a8.31,8.31,0,0,0-1.09-1h0l0,0h0l-.21-.23a.16.16,0,0,0-.08-.06v0A.19.19,0,0,0,8,18.05h0l0,0a.07.07,0,0,0,0-.06,10.59,10.59,0,0,0,.43-1.35.43.43,0,0,0,.17.06.15.15,0,0,0,.14-.06,8.84,8.84,0,0,0,1.54.08,5,5,0,0,1,.86-.06,5,5,0,0,0,.86,0c.13,0,.27-.16.17-.29s-.11-.25-.27-.29a2,2,0,0,0-.55,0c-.4,0-.81,0-1.22,0s-.79,0-1.19,0a2.08,2.08,0,0,0-.25,0h0c0-.13,0-.26,0-.39a5,5,0,0,1,0-.77.13.13,0,0,0-.17-.13,1.06,1.06,0,0,1-.31,0c-.06,0-.13.06-.13.13s0,.31,0,.46a.11.11,0,0,0,0,.08l0,.34h0l0,.14a1.11,1.11,0,0,0-.07.26.11.11,0,0,0,0,.11.1.1,0,0,0,.1.05h.13A9.82,9.82,0,0,1,7.66,18a.13.13,0,0,0,0,.15l-.09.15a.39.39,0,0,0,0,.09.24.24,0,0,0,0,.12l0,0-.29.89a.24.24,0,0,0-.28.05.93.93,0,0,0-.18.39l-.09.38a2.53,2.53,0,0,1-.12.36h0l0,0s0,.09,0,.13,0,.13-.08.19a.28.28,0,0,0,0,.09,2.92,2.92,0,0,0-.19.49.25.25,0,0,0,0,.17c-.06.16-.13.32-.18.49s-.11.39-.18.59-.06.18-.1.27a.29.29,0,0,0-.07.12c0,.05,0,.06,0,.1a.3.3,0,0,0,0,.18l-.05.06a.28.28,0,0,0,0,.13.25.25,0,0,0,.09.2"/><path class="cls-6" d="M5.62,23.9a.8.8,0,0,0-.78.18.61.61,0,0,0-.07.78.59.59,0,0,0,.3.46.84.84,0,0,0,.31.08.67.67,0,0,0,.73-.1.57.57,0,0,0,.15-.49.14.14,0,0,0,0-.09v-.13a.28.28,0,0,0-.16-.25,1.35,1.35,0,0,0-.2-.27"/><path class="cls-1" d="M8.64,12.33a.62.62,0,0,0-.06-.26.24.24,0,0,0-.25-.13H8.27l0,0H8.14l-.48,0-.51,0a.19.19,0,0,0-.19.19v.15a.19.19,0,0,0,.2.19l.89,0a.17.17,0,0,0,0,.15.2.2,0,0,0,.23,0,.26.26,0,0,0,.17,0,.19.19,0,0,0,.14-.19A1,1,0,0,0,8.64,12.33Z"/><path class="cls-3" d="M6.09,2.67c-.24-.22-.44-.48-.66-.71a1.08,1.08,0,0,0-.95-.36.74.74,0,0,0-.58.72,2.74,2.74,0,0,0,.07.5,2.7,2.7,0,0,0,.14.4.56.56,0,0,0,0,.12.27.27,0,0,0,.35.1l0,0a.19.19,0,0,0,.18,0,3.91,3.91,0,0,1,1.19-.29A.28.28,0,0,0,6.09,2.67Z"/><path class="cls-7" d="M6.63,4.34a1.57,1.57,0,0,1-.15-.43.78.78,0,0,1,0-.21.46.46,0,0,1,0-.23.71.71,0,0,0,0-.21.31.31,0,0,0,0-.19c0-.06-.1,0-.15,0l-.05,0a.14.14,0,0,0-.09,0l0,0h0c-.06,0-.13,0-.09.1a2.7,2.7,0,0,1,.19.63,1.35,1.35,0,0,0,.31.59C6.58,4.49,6.66,4.41,6.63,4.34Z"/><path class="cls-7" d="M15.84,2.37l-.13,0a.37.37,0,0,1-.14,0,.1.1,0,0,0-.13,0L15,2.22h0a8.67,8.67,0,0,1-1-.49,3.53,3.53,0,0,0-1.42-.41,1.82,1.82,0,0,0-1.29.27,1.32,1.32,0,0,0-.47.74l-.25-.06a.27.27,0,0,0-.23,0,.21.21,0,0,0-.19-.15.41.41,0,0,0-.16,0,4.54,4.54,0,0,0-.53.12,2.77,2.77,0,0,1-.68.15.21.21,0,0,0-.16.1H8.39a2.07,2.07,0,0,0-.88.21c-.16.09-.14.22-.1.38l0,.21a.27.27,0,0,0-.06.26.61.61,0,0,0,0,.12,3.11,3.11,0,0,1,.11.41s0,.07,0,.1a.28.28,0,0,0,.09.19h0a3.58,3.58,0,0,0,.23.77A3.7,3.7,0,0,0,8.36,6c.2.25.38.52.58.77a5.07,5.07,0,0,0,.67.64c.21.18.53.44.83.36l.07,0s0,0,0,0l.15-.24a1.15,1.15,0,0,1,.14-.17A.58.58,0,0,1,11,7.21v0a4.43,4.43,0,0,0,.2-1,6.83,6.83,0,0,0-.12-1.86A1.61,1.61,0,0,0,11,4a.35.35,0,0,0-.07-.12l0-.14a.25.25,0,0,0,0-.12v0a.42.42,0,0,0,0-.12l.09-.1A1,1,0,0,0,11.15,3a1.93,1.93,0,0,0,1-.09,3.62,3.62,0,0,1,1.11-.32l.8,0a2.88,2.88,0,0,0,.59.07,3,3,0,0,0,.6,0,.17.17,0,0,0,.14,0l.33,0,.19,0A.14.14,0,0,0,15.84,2.37ZM9.59,5.47a1.08,1.08,0,0,0-.18.44c0,.09-.1.24-.2.28h0a3.22,3.22,0,0,0,0-.62c0-.24-.05-.49-.06-.73s0-.64,0-.95a.15.15,0,0,0,.09,0,.82.82,0,0,1,.41,0,.4.4,0,0,1,.3.22.92.92,0,0,1,.22.8C10,5.12,9.77,5.27,9.59,5.47Z"/><polygon class="cls-8" points="7.21 19.47 1.58 19.47 0.31 16.35 8.21 16.36 7.21 19.47"/><path class="cls-7" d="M4.16,19c-.22-.62-.5-1.22-.71-1.85,0,0,0,0,0-.06a1.09,1.09,0,0,1-.08-.15,3.88,3.88,0,0,1-.23-.56H.31l1.27,3.12H4.33C4.27,19.3,4.22,19.13,4.16,19Z"/><path class="cls-2" d="M20.84,8a1.9,1.9,0,0,0-.46-.38l-.54-.36a10.25,10.25,0,0,0-2.23-1,10.13,10.13,0,0,0-2.49-.52A6.82,6.82,0,0,0,12.66,6a3.14,3.14,0,0,0-2,1.13.11.11,0,0,1,0,.08,2.72,2.72,0,0,0-.13.37.25.25,0,0,1-.1.15,2.74,2.74,0,0,1-.08.64.39.39,0,0,1,.07.34v0a.2.2,0,0,0-.23,0l0,.06,0,0h0l0,0,0,0-.06,0a2.61,2.61,0,0,0-.3.2l-.13.11-.06,0h0l0,0-.06,0-.05,0h0l-.07,0H9.21a.21.21,0,0,0-.2.21.19.19,0,0,0,.2.2.75.75,0,0,0,.39-.12l-.19.17.4.19a.49.49,0,0,0,.17.06h.2a.23.23,0,0,1,.14,0,.2.2,0,0,0-.12.17l0,1.49v.48l-.63.09H9.15a1.24,1.24,0,0,0-.38.09.13.13,0,0,0-.09.17.12.12,0,0,0,.16.1,1,1,0,0,1,.34-.09h.39c.23,0,.46-.09.69-.1a.26.26,0,0,0,.28,0v.09a2.57,2.57,0,0,0-.48,0l-.6,0a.38.38,0,0,0-.16.06l-1.21.06c-.13,0-.29.12-.27.27a4.86,4.86,0,0,1,0,1.32.28.28,0,0,0,.19.34h.07a.31.31,0,0,0,.21,0,9.05,9.05,0,0,1,1.88-.1c.32,0,.63-.08.95-.1s.59,0,.82-.18a1.24,1.24,0,0,0,.29-.75c.06-.32.11-.64.16-1s.08-.63.1-.95c0-.11,0-.21,0-.32h0a1.3,1.3,0,0,0,.07-.33,1.49,1.49,0,0,0,0-.21l0,0a5.91,5.91,0,0,0,1,.23,7.89,7.89,0,0,1,1,.23c.52.14,1.05.22,1.57.37h.52a.23.23,0,0,0,.12-.06A5.39,5.39,0,0,0,20,10.1h.09c.23-.06.42-.32.33-.5s.07-.14.14-.24,0-.08,0-.12l.1-.16a.27.27,0,0,0,0-.19l.11-.31A.61.61,0,0,0,20.84,8Z"/><path class="cls-9" d="M22.41,10a5.69,5.69,0,0,0-.47-.83c-.16-.23-.29-.58-.55-.71l-.06,0h0l-.2-.32A.14.14,0,0,0,21,8.09a.14.14,0,0,0-.07.16v.07s0,.06,0,.09v.13a.19.19,0,0,0-.05.09c0,.12-.06.24-.1.36l-.07.18,0,.09,0,0c0-.06,0,0,0,0v0l-.05.06a2.26,2.26,0,0,1-.16.26l0,0,0,0-.11.12c-.14.15-.29.29-.44.43s-.31.27-.48.4h0l-.07,0-.12.09-.15.08-.06,0,0,0a.49.49,0,0,0-.19.15c-.1,0-.19.1-.28.14l-.2.09h0a.33.33,0,0,0-.17,0l-.07.06h0c-.33.09-.68.16-1,.23a1.76,1.76,0,0,0-.49.16,3,3,0,0,0-.45.35l-.85.67-.1,0a3.27,3.27,0,0,0-.58.39c-.16.13-.3.28-.45.41s-.07,0,0,0l0,0-.12.08-.26.16a1.53,1.53,0,0,0-.41.35.21.21,0,0,0-.15,0,2.16,2.16,0,0,0-.61.63,1.61,1.61,0,0,0-.37.82,2,2,0,0,0,0,.48,1.82,1.82,0,0,0,.1.45,7.54,7.54,0,0,0,.56.83h0a1.22,1.22,0,0,0-.29.55,2,2,0,0,0-.1.64c0,.45.13.88.17,1.33a.17.17,0,0,0,.07.14c.08.59.17,1.18.26,1.76a1.08,1.08,0,0,0,.29.73l.66.59a.82.82,0,0,0,.22.16v0a.09.09,0,0,0,.08.05.07.07,0,0,0,.06-.07v0c.1,0,.16-.13.22-.22a7,7,0,0,1,.5-.71,1.1,1.1,0,0,1,.25-.23A.33.33,0,0,0,15.2,22c0-.31,0-.62,0-.93a.2.2,0,0,0,0-.14.13.13,0,0,0,.09,0,13.74,13.74,0,0,1,1.42-.29.08.08,0,0,0,.08-.07,2.11,2.11,0,0,0,.56,0c.11,0,.12-.16.06-.23l-.12-.14a.14.14,0,0,0,0-.09.8.8,0,0,0-.08-.16.61.61,0,0,0-.07-.1A1.22,1.22,0,0,1,17,19.7l0-.05a.18.18,0,0,0-.16-.14,6,6,0,0,1-.38-.71c-.16-.29-.33-.58-.51-.86-.33-.53-.67-1.05-1-1.6l.07,0,.21-.09.1,0,.08-.08A4.34,4.34,0,0,1,16,16c.45,0,.89,0,1.33,0a.73.73,0,0,0,.51-.08.84.84,0,0,0,.15-.18c.06-.06.14-.1.2-.16a.27.27,0,0,0,0-.42l-.08,0,.11-.05h0l.08,0,.15,0,.34-.05a.35.35,0,0,0,.2-.16h0a6.42,6.42,0,0,0,.86-.23A6.62,6.62,0,0,0,21.13,14a2.71,2.71,0,0,0,.55-.41c.15-.14.32-.27.49-.41a1.17,1.17,0,0,0,.4-1.09.3.3,0,0,0,.12-.22A3.64,3.64,0,0,0,22.41,10Z"/><path class="cls-9" d="M14.4,25.76a1.63,1.63,0,0,1-.24-.38,1.18,1.18,0,0,1,0-.42,1.62,1.62,0,0,0,0-.22A.3.3,0,0,0,14,24.6a.8.8,0,0,1-.22-.32.14.14,0,0,0-.13-.1s-.07-.07-.08-.09L13.47,24a2.75,2.75,0,0,1-.22-.26c-.09-.11-.27,0-.23.13a5.55,5.55,0,0,1,.22,1c0,.32.06.66.13,1h0v.07a.11.11,0,0,0,0,.08.16.16,0,0,0,.08.1.21.21,0,0,0,.25,0l0-.05h.16l.22,0h0l.06,0C14.33,26,14.48,25.89,14.4,25.76Z"/><polygon class="cls-1" points="17.53 23.32 17.52 23.33 17.53 23.32 17.53 23.32"/><path class="cls-1" d="M17.9,23.21a.12.12,0,0,0-.17,0h0a.33.33,0,0,0-.1.06l-.08,0h0l0,0a.53.53,0,0,0-.33.21,0,0,0,0,0,0,0,.21.21,0,0,0-.13.07l-.18.18-.14.18,0,0a.26.26,0,0,0-.08.13h-.22l-.11,0-.09.07,0,0a.45.45,0,0,0-.11.19v0a.43.43,0,0,0,0,.12.57.57,0,0,0,0,.18.32.32,0,0,0,.08.14.29.29,0,0,0,.11.11.42.42,0,0,0,.25,0h.2a.37.37,0,0,0,.2-.12.46.46,0,0,0,.13-.33.24.24,0,0,0,0-.12,0,0,0,0,0,0,0s0,0,0-.05l.06,0,.11-.13.11-.13.13-.13a.37.37,0,0,0,.07-.12,0,0,0,0,0,0,0c.14-.17.29-.34.44-.5h0l0,0A.14.14,0,0,0,17.9,23.21Z"/><path class="cls-1" d="M15.11,26.59a.17.17,0,0,1-.13-.1.14.14,0,0,0-.23,0c-.22.39-.58.67-.81,1.05v0l-.06,0a.13.13,0,0,0-.1.15.12.12,0,0,0,.13.11h.23a.29.29,0,0,0,.22-.06,1.65,1.65,0,0,0,.29-.3c.18-.22.33-.46.52-.66A.14.14,0,0,0,15.11,26.59Z"/><path class="cls-10" d="M14.65,26.16c-.1,0-.13-.16-.25-.19s-.23,0-.34,0a.21.21,0,0,0-.25.25.58.58,0,0,1,0,.14,3.08,3.08,0,0,0-1,0,1.68,1.68,0,0,0-.55.1l-.22.13a1.22,1.22,0,0,1-.27.09,1.53,1.53,0,0,0-.8.59c-.1.12-.25.28-.22.45a.29.29,0,0,0,.39.19.81.81,0,0,0,.31,0h.37a2.17,2.17,0,0,0,.36,0,2.07,2.07,0,0,1,.35,0h.38a1.54,1.54,0,0,0,.43,0,.2.2,0,0,0,.08,0h0a.33.33,0,0,0,.33-.15,1.65,1.65,0,0,0,.22-.24,5.66,5.66,0,0,1,.34-.47c.15-.17.3-.33.43-.51A.21.21,0,0,0,14.65,26.16Z"/><path class="cls-10" d="M15.56,27.31l-.09-.2a.65.65,0,0,1,0-.18.14.14,0,0,0-.08-.16.14.14,0,0,0-.17.05,5.72,5.72,0,0,1-.32.48,1.24,1.24,0,0,1-.18.22h0l0,0a.57.57,0,0,0-.16.11.13.13,0,0,0,0,.19.14.14,0,0,0,.19,0h.42a.68.68,0,0,0,.45-.09C15.66,27.65,15.61,27.44,15.56,27.31Z"/><path class="cls-10" d="M18.45,21.9a2.28,2.28,0,0,0-.58-.58,3.54,3.54,0,0,0-.33-.19c-.14-.06-.17-.13-.24-.26s-.3-.34-.56-.25a2,2,0,0,1-.89.17c-.22,0-.26.28-.11.38l.44.32a1.3,1.3,0,0,0,.22.19h0a4.24,4.24,0,0,0-1.77,1,2.84,2.84,0,0,0-.57.92c-.11.31-.29.85.11,1a.17.17,0,0,0,.12,0,.18.18,0,0,0,.14,0,15.28,15.28,0,0,0,2.08-1.28c.64-.45,1.46-.59,1.94-1.25A.18.18,0,0,0,18.45,21.9Z"/><path class="cls-11" d="M13.8,26.05s0,0,0,0h-.15s0,0,0,0,0,0,0,0v0l0,0h.15l0,0v-.05Z"/><path class="cls-5" d="M32.9,24.13v-.07a.08.08,0,0,0,0-.07v-.28a.35.35,0,0,0-.06-.14,7,7,0,0,0-.13-.78c-.06-.24-.15-.48-.2-.72,0-.08,0-.16,0-.23a.14.14,0,0,0,0-.09,8,8,0,0,0-5.05-4.93,10.83,10.83,0,0,0-2-.49.21.21,0,0,0-.14-.07l-.59,0a2.74,2.74,0,0,0-.94-.1.21.21,0,0,0-.13.05l-.68,0a4.68,4.68,0,0,0-.53,0,3.51,3.51,0,0,1-.56,0,11.83,11.83,0,0,0-1.19,0h-.07a.19.19,0,0,0-.08,0,2.67,2.67,0,0,0-.69,0,4.85,4.85,0,0,1-.66,0,.24.24,0,0,0-.19.08l-.08,0a.29.29,0,0,0,0-.13,1.18,1.18,0,0,1,0-.2,1.9,1.9,0,0,1,0-.34l0-.13a.24.24,0,0,0,0-.2.3.3,0,0,0-.15-.12.27.27,0,0,0-.32.18,1.09,1.09,0,0,0-.06.47l0,.26,0,.15-.92,0-2,0a1.43,1.43,0,0,1-.28.13l-.13,0a.56.56,0,0,1,0,.12l.06.11,0,0a.47.47,0,0,1,.06.09l1.82,0h1.32s0,0,0,0a6,6,0,0,1-.37.91s0,0,0,0c-.1.18-.18.37-.27.56l-.27.61a.22.22,0,0,0-.13.12,5.85,5.85,0,0,0-.3.68l-.05.12a.19.19,0,0,1,.06.07,2.51,2.51,0,0,0,.24.46l.07.06h0a.24.24,0,0,0,.07-.12.17.17,0,0,0,0-.07.28.28,0,0,0,.14-.16,14.32,14.32,0,0,1,.67-1.63q.16-.37.36-.72a2.79,2.79,0,0,0,.25-.66,1.73,1.73,0,0,0,.3.41s0,0,0,0a.57.57,0,0,0,.08.13l.17.25a.24.24,0,0,0,0,.16q.53.76,1.11,1.5a.18.18,0,0,0,.09.06l.17.29c.37.62.81,1.2,1.22,1.78l0,0a.11.11,0,0,0,0,.07c.38.55.78,1.1,1.19,1.64l-.2,0h0c-.7-.11-1.4-.21-2.11-.29a5.39,5.39,0,0,0-2-.08c-.59.14-1.17.37-1.76.53-.33.09-.68.15-1,.24s-.56.29-.84.44a4.64,4.64,0,0,1-1,.55.33.33,0,0,1-.14,0,2.13,2.13,0,0,0,2.12,2.28c1.73-.15,3.44-.36,5.17-.6a.37.37,0,0,0,.14-.07h.06a14.87,14.87,0,0,0,2.11-.16,4.24,4.24,0,0,0,1.64-.32,1.22,1.22,0,0,0,.35-1.94.49.49,0,0,0-.15-.13l-.17-.1c-.09-.05-.19-.12-.27-.11a6.28,6.28,0,0,0-1.24-.17.31.31,0,0,0-.06-.13c-.47-.6-.92-1.21-1.34-1.84l0,0,0-.07c-.39-.55-.8-1.09-1.15-1.65-.17-.28-.32-.57-.49-.85a6.23,6.23,0,0,0-.57-.78,7.43,7.43,0,0,1-.6-.76,5.39,5.39,0,0,1-.32-.58h.4a1.61,1.61,0,0,1,.31,0h.15s.07,0,0,0h.1a.29.29,0,0,0,.29-.09,9,9,0,0,1,1.16,0,3.51,3.51,0,0,0,.56,0,3.49,3.49,0,0,1,.56,0l1.69.08h.07l.46,0a.12.12,0,0,0,.08,0,8.57,8.57,0,0,1,6,3.44,6.44,6.44,0,0,1,.73,1.4.27.27,0,0,0,.06.17h0l0,.13h0s0,.09,0,.12a1.36,1.36,0,0,0,.06.29c.06.23.13.45.18.68a7.37,7.37,0,0,1,.13.82.31.31,0,0,0,0,.1l0,.26H30.87v3.38H43.79V24.13Z"/><rect class="cls-11" x="32.4" y="23.81" width="0.51" height="0.28"/><polygon class="cls-11" points="19.29 16.65 18.99 16.15 19.46 16.14 19.75 16.61 19.29 16.65"/><path class="cls-1" d="M17.88,23.23a.14.14,0,0,0-.19,0,.4.4,0,0,1-.27.14.2.2,0,0,0-.23.09l0,0v0h0l-.1.17,0,0v0l-.08.09-.16.14a1.14,1.14,0,0,0-.15.16h0l0,0,0,0h0l-.13,0a.28.28,0,0,0-.12,0h0l-.08.07a.39.39,0,0,0-.08.1.6.6,0,0,0-.06.11c0,.05,0,.1,0,.14v0a.43.43,0,0,0,0,.05.13.13,0,0,0,0,.06.5.5,0,0,0,.05.13.28.28,0,0,0,.09.1.24.24,0,0,0,.11.06h.05l.07,0h0l.09,0,.11,0h0l.1,0,0,0a.35.35,0,0,0,.1-.08l.06-.08v0a.36.36,0,0,0,0-.09.65.65,0,0,0,0-.11.57.57,0,0,0,0-.13l0-.08.92-1.06A.13.13,0,0,0,17.88,23.23Z"/><path class="cls-12" d="M19,16.12h4.46c.17,0,4.36-.08,7.13,2.57a7.84,7.84,0,0,1,2.34,5.44"/><path class="cls-12" d="M32.42,24.13A7.37,7.37,0,0,0,30.24,19c-2.63-2.51-6.74-2.44-6.78-2.44H19.33"/><rect class="cls-12" x="30.94" y="24.13" width="12.84" height="3.38"/><circle class="cls-13" cx="39.32" cy="27.48" r="2.71"/><ellipse class="cls-1" cx="39.32" cy="27.48" rx="1.85" ry="1.86"/><path class="cls-12" d="M16.34,26.92a2.2,2.2,0,0,1-2.24-2.21"/><path class="cls-12" d="M25,23.42a1.26,1.26,0,0,1,0,2.51"/><line class="cls-12" x1="25" y1="23.43" x2="19.14" y2="22.76"/><line class="cls-12" x1="16.34" y1="26.92" x2="25" y2="25.93"/><polygon class="cls-12" points="7.21 19.47 1.58 19.47 0.31 16.35 8.21 16.36 7.21 19.47"/><line class="cls-12" x1="4.31" y1="19.47" x2="3.11" y2="16.36"/><line class="cls-12" x1="5.34" y1="19.47" x2="4.31" y2="19.47"/><path class="cls-12" d="M7.3,20.33A6.82,6.82,0,0,1,10.7,26a4.12,4.12,0,0,1-5.25,4.13A6.85,6.85,0,0,1,.2,23.74a4.12,4.12,0,0,1,5.25-4.13,5.81,5.81,0,0,1,1.22.4"/><path class="cls-12" d="M7,21.26a5.48,5.48,0,0,1,2.69,4.5,3.32,3.32,0,0,1-4.23,3.31A5.49,5.49,0,0,1,1.23,24a3.31,3.31,0,0,1,4.22-3.31,4.11,4.11,0,0,1,.92.29"/><path class="cls-12" d="M5.91,24.07a1,1,0,0,1,.42.79.64.64,0,0,1-.84.63,1.07,1.07,0,0,1-.84-1,.66.66,0,0,1,.84-.64l.07,0"/><path class="cls-14" d="M5.52,24.28a.52.52,0,0,1,.36.47.3.3,0,0,1-.39.3.51.51,0,0,1-.38-.47.29.29,0,0,1,.38-.3h0"/><path class="cls-12" d="M20.54,22.88a3.11,3.11,0,0,1,1.14-1.67"/><path class="cls-12" d="M22.25,20.86a3.72,3.72,0,0,1,2.36-.21,5.49,5.49,0,0,1,4.23,5.11,3.31,3.31,0,0,1-4.23,3.31,5.48,5.48,0,0,1-3.52-2.65"/><path class="cls-12" d="M19.46,22.76A4,4,0,0,1,21,20.27"/><path class="cls-12" d="M21.62,19.91a4.59,4.59,0,0,1,3-.3A6.83,6.83,0,0,1,29.87,26a4.12,4.12,0,0,1-5.26,4.13,6.88,6.88,0,0,1-4.54-3.58"/><path class="cls-12" d="M8.66,16.06a.27.27,0,0,0-.12.14"/><path class="cls-12" d="M8.43,16.66a.26.26,0,0,1,0-.13"/><path class="cls-12" d="M8.05,15.86a.78.78,0,0,1,.16.08"/><path class="cls-12" d="M18.81,17a.39.39,0,0,0,0-.16"/><path class="cls-12" d="M8.05,14.79v1.07l-.15.47m.15-3.72v.14m.6,0v-.56m3.27,3.91H8.66V14.77m15.23,8.49L19,16.19h0l0,0,0,0,0,0h0l-.05,0v-.8h-.54v.8H15.69M6,24.14l1.74-5.43c.89.8,4.13,3.79,6.1,5.61m-7-4.83-1.4,4.36m9.72-7.19h3.07l-1.34,3m-2.9,4C9.48,19.45,8.31,18.37,8,18.09l.46-1.43H12m5.27,3.61,1.5-3.3,4.29,6.22"/><path class="cls-12" d="M19.73,14.69a1,1,0,0,1-.83.57h-.83"/><path class="cls-12" d="M18.82,16.06a.48.48,0,0,1-.13,0"/><path class="cls-12" d="M18.28,16.66a.51.51,0,0,0,.17.1"/><path class="cls-12" d="M4.34,5.6A.73.73,0,1,0,4.4,7.06a.72.72,0,0,0,.52-.25v.38a4.63,4.63,0,0,0,2-.85s.41,1.12-1.46,1.87a2.72,2.72,0,0,1,.41.59c0,.09.87,1.83,2.7-.1"/><line class="cls-12" x1="5.14" y1="7.16" x2="5.6" y2="8.15"/><path class="cls-12" d="M7,6.76a3.18,3.18,0,0,1-1.52.89"/><path class="cls-12" d="M10.06,7.8A6.24,6.24,0,0,1,7.62,4.54a8.66,8.66,0,0,1-.24-1.76"/><path class="cls-12" d="M11.14,6.66a7.92,7.92,0,0,0-.85-4.56"/><path class="cls-12" d="M10.42,2.23a.58.58,0,0,1,.68.38.59.59,0,0,1-.24.78"/><path class="cls-12" d="M10.84,2.25c0-.2.26-.92,1.45-1,1.4-.08,2.38,1.07,3.89,1.15,0,0-.42.55-2,.22-1.86-.39-1.62.64-3,.36"/><path class="cls-12" d="M4.39,5.61C4,5.2,4.31,3.49,4.31,3.49"/><path class="cls-12" d="M7.8,14.26l-.29,0"/><path class="cls-12" d="M12.82,9.43l-.71,4.64a.46.46,0,0,1-.49.49"/><path class="cls-12" d="M10.39,8.57a2.18,2.18,0,0,1,1.23-2.2"/><line class="cls-12" x1="10.57" y1="12.59" x2="10.39" y2="8.57"/><path class="cls-12" d="M12.09,16.66a2.74,2.74,0,0,0,.33.63"/><path class="cls-12" d="M12.78,14.56a2,2,0,0,0-.69,2.1"/><line class="cls-12" x1="10.11" y1="7.82" x2="10.44" y2="7.82"/><line class="cls-12" x1="8.07" y1="9.18" x2="9.01" y2="9.51"/><path class="cls-12" d="M10.42,9.18a5.22,5.22,0,0,1-1.12.64s-.22,0-.29-.12,0-.18,0-.19a4.55,4.55,0,0,0,1.38-.89"/><path class="cls-12" d="M15.71,16l-.78.25"/><path class="cls-12" d="M18.07,15.25c-.88.31-1.75.59-2.36.79"/><path class="cls-12" d="M11.62,6.37a7.92,7.92,0,0,1,6.74.1c4.8,2,4.32,5.22,4.3,5.49s-.12,1.46-2,2.3c-.59.27-1.6.64-2.62,1"/><path class="cls-12" d="M16.49,11.78c-1.08.77-2.64,1.9-3.71,2.78"/><path class="cls-12" d="M12.63,10.85l3.86.93"/><path class="cls-12" d="M16.83,21.68a3.11,3.11,0,0,0-1.84.76c-.75.58-1.25,1.68-1.06,2.09,0,0,.16.29.53.07l3.83-2.25a.37.37,0,0,0,.1-.59,3.73,3.73,0,0,0-1-.69"/><path class="cls-12" d="M14.4,26.6a2.81,2.81,0,0,0-1.82-.24c-.87.13-1.77.8-1.81,1.23,0,0,0,.32.39.32l4.11-.05a.35.35,0,0,0,.35-.45,3.17,3.17,0,0,0-.25-.66"/><line class="cls-12" x1="17.14" y1="20.63" x2="17.42" y2="21.07"/><path class="cls-12" d="M12.29,19a1.75,1.75,0,0,1,.35-1.28"/><line class="cls-12" x1="13.89" y1="26.37" x2="13.81" y2="26"/><rect class="cls-15" x="11.79" y="27.91" width="3.58" height="0.77" rx="0.26"/><path class="cls-12" d="M18.42,22.26l.36-.11a.25.25,0,0,1,.29.16l.08.29a.23.23,0,0,1-.16.29l-3,.87h-.09"/><path class="cls-12" d="M6.23,14.91a.31.31,0,0,0,.21-.3"/><path class="cls-12" d="M6.55,15.43a.45.45,0,0,1-.51.19c-.19,0-.56-.15-.48-.53S5.79,14,5.79,14"/><path class="cls-12" d="M5.53,15.27a.51.51,0,0,1-.41,0c-.23-.1-.34-.22-.25-.6l.21-.88"/><path class="cls-12" d="M4.67,13.39a.91.91,0,0,1,.68-.29H7.83"/><path class="cls-12" d="M4.81,14.93a.44.44,0,0,1-.29,0c-.26-.08-.25-.33-.19-.57a8,8,0,0,1,.26-.81.65.65,0,0,1,.08-.13"/><path class="cls-12" d="M6.31,14.87a1.31,1.31,0,0,1,0,.56"/><path class="cls-12" d="M4.88,13.23A.7.7,0,0,1,5,13a2.53,2.53,0,0,1,1.53-.47H8.05a.3.3,0,0,0,.19-.2"/><path class="cls-12" d="M6.33,15.39c.31.06.58.1.76.12h0a.3.3,0,0,0,.3-.26.3.3,0,0,0-.26-.34,7,7,0,0,1-.73-.12"/><path class="cls-12" d="M8.65,12.15A.17.17,0,0,0,8.49,12H6.57a3,3,0,0,0-2,.63,1.45,1.45,0,0,0-.44,1.07,1.23,1.23,0,0,0,.15.61"/><path class="cls-12" d="M7.51,14.27s0,.78-1.12.52"/><path class="cls-12" d="M5.69,5.81a.71.71,0,0,1-.48.05.71.71,0,1,1,.86-.52A.78.78,0,0,1,6,5.48"/><path class="cls-12" d="M4.87,5.66a1.5,1.5,0,0,1,1.18-.25"/><circle class="cls-11" cx="4.86" cy="5.12" r="0.19"/><line class="cls-12" x1="15.19" y1="21.07" x2="15.24" y2="22.24"/><path class="cls-12" d="M17.28,16.68,16,18.11"/><path class="cls-12" d="M18.26,15.57l-.41.47"/><path class="cls-12" d="M15.61,20.87l.69-.15a3.29,3.29,0,0,1,1.19-.09s-.08.07-.23.12"/><path class="cls-12" d="M15.71,21.05c-.36,0-.55,0-.56,0s.17-.11.46-.18"/><path class="cls-12" d="M13.89,26l.56,0"/><path class="cls-12" d="M13.81,26.16c-.24,0-.39,0-.4-.07s.19-.09.48-.12"/><line class="cls-12" x1="15.15" y1="21.05" x2="12.42" y2="17.29"/><polyline class="cls-12" points="17.49 20.63 14.93 16.29 14.14 15.93"/><line class="cls-12" x1="18.46" y1="21.87" x2="14" y2="24.51"/><line class="cls-12" x1="12.85" y1="22.53" x2="12.29" y2="18.97"/><line class="cls-12" x1="13.41" y1="26.09" x2="13.02" y2="23.55"/><line class="cls-12" x1="14.61" y1="27.57" x2="15.63" y2="27.56"/><line class="cls-12" x1="10.77" y1="27.59" x2="13.85" y2="27.58"/><path class="cls-12" d="M15.57,20.88l.77.87"/><path class="cls-11" d="M15.59,21a.05.05,0,0,0,0,0l-.19,0,0,0a.06.06,0,0,0,0,.09h0l.19,0a.05.05,0,0,0,0,0s0,0,0,0A0,0,0,0,0,15.59,21Z"/><path class="cls-11" d="M17.38,20.61v0l0,0h0s0,0,0,0h0l0,0h-.07s0,0,0,0v0l0,0h.05l.06,0,.05,0a0,0,0,0,0,0,0,0,0,0,0,0,0,0Z"/><path class="cls-12" d="M7.9,14.77a2.65,2.65,0,0,1-.1-1,2.61,2.61,0,0,1,.1-1"/><path class="cls-12" d="M7.9,12.8l2.67-.21a1.55,1.55,0,0,1,.67.46"/><line class="cls-12" x1="7.9" y1="14.77" x2="11.57" y2="14.56"/><path class="cls-12" d="M20.91,8s.25,2.87-4.42,3.79"/><path class="cls-12" d="M10.29,2.1C10.21,1.71,9.25,0,7.68.23L6.16.58A1.52,1.52,0,0,0,5.1,1.67"/><path class="cls-12" d="M6.21,3c-.16-.51-.94-1.66-1.76-1.42-1,.3-.51,1.36-.21,1.91"/><line class="cls-12" x1="4.24" y1="3.51" x2="10.29" y2="2.1"/><path class="cls-2" d="M39.21,27.72a.19.19,0,0,1-.09,0h0a.41.41,0,0,1,0-.09l-1.49.57,0,0v0h0l0,0,.06.1.14.18h0l0,0,.09.09.15.17.17.15,0,0h0l.09.06a.82.82,0,0,0,.2.12l0,0,.58-1.5S39.21,27.73,39.21,27.72Z"/><path class="cls-2" d="M41.09,26.86a4,4,0,0,0-.21-.41l-.13-.16-.17-.18-.34-.31-.8,1.45.05,0h0a.21.21,0,0,1,.07.12h0L41.14,27A1.21,1.21,0,0,0,41.09,26.86Z"/><path class="cls-12" d="M9.12,3.9a.87.87,0,0,1,.41-.06.65.65,0,0,1,.58.69c0,.66-.65.81-.7,1.23a.77.77,0,0,0,0,.1.23.23,0,0,1-.14.28"/><path class="cls-12" d="M9.48,4.55c0,.12-.06.06-.2.21a.79.79,0,0,0-.12.15"/><line class="cls-12" x1="9.08" y1="3.73" x2="9.23" y2="6.27"/><path class="cls-12" d="M6.45,3a1.79,1.79,0,0,1,.06.59,1.61,1.61,0,0,0,0,.54,1.25,1.25,0,0,0,.3.46,0,0,0,0,1,0,0h0a1.41,1.41,0,0,1-.46-.42,2,2,0,0,1-.2-.6A1.05,1.05,0,0,0,6,3.19l0,0"/><path class="cls-12" d="M16.57,24.19a.4.4,0,0,1,.21.09"/><path class="cls-12" d="M16.94,24.46a.4.4,0,0,1,0,.22.49.49,0,1,1-.49-.49h.07"/><line class="cls-12" x1="13.69" y1="27.85" x2="14.83" y2="26.41"/><line class="cls-12" x1="15.26" y1="26.71" x2="14.36" y2="27.85"/><line class="cls-12" x1="18.08" y1="23.16" x2="16.97" y2="24.53"/><line class="cls-12" x1="16.6" y1="24.19" x2="17.21" y2="23.42"/><circle class="cls-12" cx="16.5" cy="24.68" r="0.15"/><line class="cls-12" x1="6.95" y1="11.96" x2="6.95" y2="12.56"/><path class="cls-11" d="M7.34,15.06a.48.48,0,0,0-.23-.1,3.86,3.86,0,0,1-.49-.1.7.7,0,0,0-.14,0,.17.17,0,0,0-.14.14.91.91,0,0,0,0,.17.11.11,0,0,0-.06.11.12.12,0,0,0,.09.12h0a.1.1,0,0,0,.07,0,3.25,3.25,0,0,0,.43.08c.17,0,.38,0,.47-.15A.24.24,0,0,0,7.34,15.06Z"/><path class="cls-11" d="M6.9,12.08A.12.12,0,0,0,6.74,12h-.1a.18.18,0,0,0-.11,0,1.83,1.83,0,0,0-.66.06c-.1,0-.19.07-.29.09a1.07,1.07,0,0,0-.31.06c-.34.14-.76.38-.85.75l-.14.21a.58.58,0,0,0-.13.34.23.23,0,0,0,.06.12.14.14,0,0,0-.07.11,1.53,1.53,0,0,0,0,.3.13.13,0,0,0,.25,0c.06-.15.11-.3.16-.45a.87.87,0,0,1,.07-.17.36.36,0,0,1,0-.09s0,0,0-.06a.11.11,0,0,0,.11,0,2.9,2.9,0,0,1,.36-.34,1.41,1.41,0,0,1,.49-.2,2.6,2.6,0,0,1,1.07-.12.13.13,0,0,0,.17-.12A1,1,0,0,0,6.9,12.08Z"/><path class="cls-11" d="M19.14,22.57l-.09-.18,0-.07h0l-.06-.1a.13.13,0,0,0-.21,0,.42.42,0,0,1-.12,0,.48.48,0,0,0-.17.05c-.05,0-.13,0-.16.06-.6.32-1.16.7-1.75,1a.06.06,0,0,0,0,.09h-.09l-.15.06a.07.07,0,0,0,0,.13c.59-.16,1.17-.38,1.76-.56L18.5,23l.35-.09a.41.41,0,0,0,.19,0A.21.21,0,0,0,19.14,22.57Z"/><path class="cls-12" d="M9.3,9.82a8,8,0,0,0,1.14.41"/><polyline class="cls-12" points="10.17 10.15 10.14 12.22 10.42 12.36"/><line class="cls-12" x1="10.14" y1="12.22" x2="8.72" y2="12.47"/><path class="cls-11" d="M19.55,14.71l-.45.2-.26.12-.21.05s0,0,0,0h-.14a.07.07,0,0,0,0,.14,2.42,2.42,0,0,0,.66,0,.54.54,0,0,0,.25-.15l.27-.23C19.7,14.77,19.61,14.69,19.55,14.71Z"/><line class="cls-16" x1="16" y1="20.12" x2="13.65" y2="16.29"/><path class="cls-16" d="M14.56,15.25l5.1-2.57a1.16,1.16,0,0,0,.58-1.75"/><line class="cls-16" x1="13.72" y1="19.08" x2="14.26" y2="23.28"/><path class="cls-12" d="M16.74,23.54a1.07,1.07,0,0,1,.27.09"/><path class="cls-12" d="M15.39,24.28a1.56,1.56,0,0,1,.18-.34"/><path class="cls-12" d="M17.46,24a1.2,1.2,0,1,1-2.16.72s0-.08,0-.13"/><path class="cls-12" d="M25.29,24.4a.63.63,0,1,1-1.2.28.88.88,0,0,1,0-.17"/><path class="cls-12" d="M24.33,24.18a.65.65,0,0,1,.39-.13.63.63,0,0,1,.4.14"/><circle class="cls-14" cx="24.72" cy="24.68" r="0.28"/><ellipse class="cls-12" cx="39.32" cy="27.48" rx="1.85" ry="1.86"/><path class="cls-12" d="M39.62,27.48a.3.3,0,0,1-.59,0,.3.3,0,1,1,.59,0Z"/></g></g></svg>