<svg xmlns="http://www.w3.org/2000/svg" viewBox="0 0 20.11 22.3"><defs><style>.cls-1{fill:#0071b9;}.cls-2{fill:#bfe1f1;}.cls-10,.cls-3{fill:#b56f26;}.cls-4{fill:#fff;}.cls-5{fill:#0a7332;}.cls-6{fill:#1a3f7b;}.cls-7,.cls-8{fill:#fce79c;}.cls-10,.cls-8,.cls-9{stroke:#22234a;stroke-linecap:round;stroke-linejoin:round;stroke-width:0.4px;}.cls-9{fill:none;}.cls-11{fill:#212547;}</style></defs><g id="Layer_2" data-name="Layer 2"><g id="Layer_1-2" data-name="Layer 1"><path class="cls-1" d="M17.84,15.21a.6.6,0,0,0,.13-.74.59.59,0,0,0-.8-.21l-.08,0-.13,0c-.54-.18-1.42-.1-1.85-.63a3.1,3.1,0,0,1-.47-1.8.58.58,0,0,0-.74-.56c-.29.09-.59,0-.86.1s-.6.82-.81,1.16a.52.52,0,0,0-.08.26.64.64,0,0,0-.1.13L12,13s-.05.05,0,0a2.23,2.23,0,0,0-.24.19.83.83,0,0,0-.18.3c0,.06-.06.3,0,.14a.6.6,0,0,0,.16.58,50.11,50.11,0,0,0,.48,5.18.6.6,0,0,0,.74.56,10.11,10.11,0,0,1,2,.18,16,16,0,0,0,2.19,0,.6.6,0,0,0,.59-.58c0-1.16-.07-2.31,0-3.47C17.74,15.86,17.82,15.53,17.84,15.21Z"/><path class="cls-2" d="M13.2,8.51a22.49,22.49,0,0,0-.5-3.43v0A.59.59,0,0,0,12,4.24l-.07,0,0,0s0,0,0,0a.77.77,0,0,0-1.05-.21.76.76,0,0,0-.55,0,1.57,1.57,0,0,1-.45.12,2.45,2.45,0,0,0-1.61.21,7.49,7.49,0,0,1-2.53.45c-1.19,0-1.92.33-1.34,1.61v0a.64.64,0,0,0,0,.07,8.68,8.68,0,0,0,.36,3.54.89.89,0,0,0,.22.41,5.1,5.1,0,0,0,2.72,3.35,2.83,2.83,0,0,0,2.15.43,12,12,0,0,0,2-1.22C13.31,12.28,13.45,10,13.2,8.51Z"/><path class="cls-3" d="M12.4,2.46a.6.6,0,0,0-.65-.27v0A2.71,2.71,0,0,0,9.6.5l-.15,0A4.82,4.82,0,0,0,6.92.46,4,4,0,0,0,4.15,4a.32.32,0,0,0,0,.14.61.61,0,0,0,.71.74c.68-.09,1.35,0,2-.11s1.42-.43,2.17-.49a8.15,8.15,0,0,0,1.21,0A2,2,0,0,0,11,3.91a.53.53,0,0,0,.21.21h.27a.58.58,0,0,0,.84,0,.63.63,0,0,0,.19-.48.36.36,0,0,0,0-.11A1,1,0,0,0,12.4,2.46Z"/><path class="cls-4" d="M7.88,3a29,29,0,0,0-3.47.51c-.47.17-.26.92.21.75a28.73,28.73,0,0,1,3.47-.51C8.58,3.66,8.37,2.91,7.88,3Z"/><path class="cls-3" d="M18.38,12.65c-.23-.23-.53-.08-.78,0a7.85,7.85,0,0,1-.82.15,1.48,1.48,0,0,0-.09-.77,8.08,8.08,0,0,0-.54-.65,2,2,0,0,0-.37-.53.75.75,0,0,0-1,.31,1.18,1.18,0,0,0,0,1.15.49.49,0,0,0,0,.36c.19.52.37,1.61,1,1.76.35.09.56-.12.88-.18s.69,0,1-.09c.34.31.78-.13.56-.5a.33.33,0,0,0,.16-.15A.79.79,0,0,0,18.38,12.65Z"/><path class="cls-5" d="M17.08,6,17,5.9a1.85,1.85,0,0,0-.3-.55,1.56,1.56,0,0,0-.28-.23.59.59,0,0,0-.23-.69c-.46-.33-.71-.88-1.18-1.22s-1-.47-1.42-.89a.48.48,0,0,0-.54-.16,1.24,1.24,0,0,0-.17-.23c-.36-.34-.91.21-.55.55a.69.69,0,0,1,.13.2.29.29,0,0,0,.15.14v.07c0,.27.19.79,0,1.06a.54.54,0,0,0,0,.52.67.67,0,0,0,0,.32c.14,1,.25,1.94.36,2.92a.63.63,0,0,0,.31.47c-.05.56-.09,1.11-.14,1.66a.34.34,0,0,0,.1.28.07.07,0,0,1,0,.05h0l-.2.42c-.13.28.09.69.44.57s1,0,1.39-.35S15.6,10,16,9.61s-.1-.78-.47-.61l-.18.07A3.09,3.09,0,0,1,14.76,8a.24.24,0,0,0-.07-.12A3.29,3.29,0,0,1,15.87,5.5a.72.72,0,0,0,.27,0q.3.34.57.72a.27.27,0,0,0,.08.07l.07.08a.2.2,0,0,0,.33-.09v0A.2.2,0,0,0,17.08,6Z"/><path class="cls-6" d="M17.73,11.51a.39.39,0,0,0-.47.27.44.44,0,0,1-.08.11.34.34,0,0,0-.39.27h0a.39.39,0,0,0,.61.47,1.86,1.86,0,0,0,.35-.22A1.34,1.34,0,0,0,18,12,.4.4,0,0,0,17.73,11.51Z"/><path class="cls-3" d="M17.54,21.07a.7.7,0,0,0-.19-.29c0-.36-.3-.73-.71-.56S15.42,20,15,20a5.52,5.52,0,0,0-1.67.28l-.54-.05a.59.59,0,0,0-.44-.07c-.26.05-.52,0-.78.08l0,0a9.39,9.39,0,0,0-1.14.15.49.49,0,0,0-.37.3h-.2c-.75,0-1.19,1-.44,1a8.38,8.38,0,0,0,1.94,0c.11,0,.05.1.16,0,.08.19.36.08.62.08,1.1,0,2.16-.16,3.26-.16.32,0,.59.22.63,0h.28l0,0a1,1,0,0,0,.81.12A.6.6,0,0,0,17.54,21.07Z"/><path class="cls-7" d="M19.6,8.3a5.31,5.31,0,0,0-1.43-1c-.62-.42-1.24-.81-1.88-1.2l0,0h0l-.17-.11a.58.58,0,0,0-.85.35l0,.06a2.93,2.93,0,0,0-.29,2.14c.1.63.95.7,1.33.31.05.28-.12.52-.15.85h0l-.23.14a.59.59,0,0,0-.12.92l.87.93a.53.53,0,0,0,.84-.07.27.27,0,0,0,.15,0l.39,0a.62.62,0,0,0,.59-.59c0-.12.52-.6.61-.73a4.57,4.57,0,0,0,.44-.85A1,1,0,0,0,19.6,8.3Z"/><path class="cls-3" d="M1.47,9.38c.14,0,.22,0,.33.1h.1c.06,0,.09,0,.14,0a1,1,0,0,1,.3.08.33.33,0,0,1,.08.34.21.21,0,0,1-.2.2.17.17,0,0,1-.15-.05.18.18,0,0,1-.2,0,4.9,4.9,0,0,0-.48-.31A.22.22,0,0,1,1.47,9.38Z"/><path class="cls-3" d="M2,8.58a1.23,1.23,0,0,0-.76,0c-.19.1-.15-.23,0-.41A.82.82,0,0,1,1.55,8l.07-.09c.22-.23.37-.59.74-.52a.42.42,0,0,1,.23.12,2.93,2.93,0,0,1,1.2.44c.24.13.36.21.43.46A4,4,0,0,0,4.77,9.6c.19.3-.23.58-.49.39a.81.81,0,0,1-.93,0A2.92,2.92,0,0,0,1.8,9.4l-.05,0a.22.22,0,0,1-.16,0C1.17,9.1,1.7,8.74,2,8.58Z"/><path class="cls-8" d="M2.18,9.47a1.62,1.62,0,0,1,.68,1L5.39,22.1H6L3.53,10.38a1.68,1.68,0,0,0-.09-.32"/><path class="cls-8" d="M1.48,9.39a1.42,1.42,0,0,0-.54,1.54.39.39,0,0,1-.25.49.39.39,0,0,1-.42-.35A2,2,0,0,1,1.43,8.52a1.18,1.18,0,0,1,.59,0s-.56.14-.63.47.09.38.09.38"/><path class="cls-9" d="M3.33,8.56a1.46,1.46,0,0,0-.87-.09c-.57.08-1.1.3-1.09.65a.32.32,0,0,0,.33.35c.37,0,.54-.13,1,.12s1.13.9,1.77.25"/><path class="cls-9" d="M.91,8.75l1-1.18a.43.43,0,0,1,.43-.15c.28,0,1.81.65,1.81.65"/><path class="cls-9" d="M2.27,9.45a.48.48,0,0,1,.11.59s-.13.21-.41,0l-.71-.47"/><polyline class="cls-9" points="2.23 8.51 2.39 8.34 2.31 8.15"/><line class="cls-9" x1="2.76" y1="8.45" x2="2.39" y2="8.34"/><path class="cls-9" d="M7.67.26A5.67,5.67,0,0,1,8.52.2a3.72,3.72,0,0,1,3.24,1.87"/><path class="cls-9" d="M4.44,3A3.65,3.65,0,0,1,6.84.48,5.69,5.69,0,0,1,7.67.26"/><path class="cls-9" d="M4.32,5.06q0-.34-.06-.72"/><line class="cls-9" x1="7.77" y1="4.47" x2="11.34" y2="3.92"/><line class="cls-9" x1="5.05" y1="4.87" x2="4.38" y2="4.98"/><path class="cls-9" d="M4.32,5.06S3.79,6.6,4.68,10c.8,3,2.31,4.21,4.69,4.46"/><path class="cls-9" d="M8,2.71a1,1,0,0,1,.37.65,1.09,1.09,0,0,1-.06.54"/><path class="cls-9" d="M7.9,4.38a1.3,1.3,0,0,1-.44.17,1,1,0,0,1-.48-2"/><path class="cls-9" d="M5.38,2.8a1,1,0,0,1,0,2.06.85.85,0,0,1-.42,0"/><path class="cls-9" d="M4.41,4.53a1.11,1.11,0,0,1-.3-.59A1,1,0,0,1,4.47,3"/><path class="cls-9" d="M9.37,14.43a5,5,0,0,0,3.77-5.94l-.67-4.4"/><path class="cls-9" d="M11.77,4.29a.7.7,0,0,1-.44-.41"/><path class="cls-9" d="M11.3,2.68a.61.61,0,0,1,.64-.52c.53,0,.7.59.71,1s-.15,1-.64,1.1a.63.63,0,0,1-.24,0"/><path class="cls-9" d="M11.82,2.87V3a4.31,4.31,0,0,1,0,.58"/><path class="cls-9" d="M12.14,3.1a.29.29,0,0,1-.3.12"/><path class="cls-9" d="M12.05,3.18a.31.31,0,0,0,.07.21"/><line class="cls-9" x1="6.67" y1="4.01" x2="8.29" y2="3.76"/><line class="cls-9" x1="4.47" y1="4.34" x2="5.57" y2="4.17"/><path class="cls-9" d="M4.24,3.53l3.92-.6"/><path class="cls-9" d="M13.51,20.18a5.08,5.08,0,0,0-1.93,0c-1.66.26-2.46.78-2.57,1.49,0,0,0,.3.09.42h7.21"/><line class="cls-9" x1="15.01" y1="21.67" x2="9.1" y2="21.67"/><line class="cls-9" x1="12.21" y1="20.07" x2="13.9" y2="20.14"/><line class="cls-9" x1="12.21" y1="20.07" x2="11.55" y2="13.29"/><path class="cls-9" d="M16.41,20.37A3.81,3.81,0,0,0,14,20.15c-1.66.26-2.46.78-2.57,1.49a.4.4,0,0,0,.11.35"/><path class="cls-9" d="M17.28,20.19l.14,1.34s.08.53-.37.53h-.74"/><line class="cls-9" x1="17.4" y1="21.67" x2="11.49" y2="21.67"/><line class="cls-9" x1="17.87" y1="12.52" x2="17.89" y2="11.62"/><polyline class="cls-9" points="14.6 20.07 17.69 20.2 17.83 14.32"/><line class="cls-9" x1="14.6" y1="20.07" x2="13.93" y2="12.23"/><path class="cls-9" d="M11.55,1.73A7.51,7.51,0,0,1,17.4,6.64"/><path class="cls-9" d="M16.43,13.68a2.4,2.4,0,0,0,.1-2"/><path class="cls-9" d="M16.77,12.76a4.44,4.44,0,0,1,1.46-.17s.26,0,.28.22c0,0,0,.08-.46.22"/><path class="cls-9" d="M16.83,12l-.14.11"/><path class="cls-9" d="M15.81,5.73c2.29,1.42,3.76,2.41,3.76,2.41a.76.76,0,0,1,.18,1.12"/><path class="cls-9" d="M16.56,13.48c.88-.18,1.77.15,1.81.41s-.36.29-.36.29-2,.3-2.3.31-.46-.38-.5-.49-.28-.88-.28-.88L14.58,12a.87.87,0,0,1,.23-1c.11-.08.32-.26.56-.47"/><path class="cls-9" d="M18,13.58l.34-.07s.3,0,.23-.27-.75-.32-1.8-.17"/><polyline class="cls-9" points="15.52 8.11 16.59 8.78 17.48 8.9"/><path class="cls-10" d="M7,4.56a.83.83,0,0,1-.68.71.81.81,0,0,1-.93-.68A.81.81,0,0,1,7,4.19"/><line class="cls-9" x1="14.66" y1="12.23" x2="13.21" y2="12.23"/><path class="cls-9" d="M17.09,12c-.1.1-.55-.21-1-.69s-.76-.94-.66-1L16,9.73a3.13,3.13,0,0,0,.7,1c.46.51.87.82,1,.73Z"/><path class="cls-9" d="M16,9.76a.45.45,0,0,1,.06-.5l.51-.48"/><path class="cls-9" d="M17.72,11.43a.48.48,0,0,0,.61,0,17.87,17.87,0,0,0,1.38-2.12"/><path class="cls-9" d="M16.19,8.62a.79.79,0,0,1-.74.39c-.5-.1-.73-1-.54-1.91s.76-1.64,1.25-1.54a.76.76,0,0,1,.49.68"/><path class="cls-11" d="M5,3.27H5a.39.39,0,0,0,0,.78H5A.39.39,0,0,0,5,3.27Z"/><path class="cls-11" d="M7.29,2.91a.39.39,0,0,0,0,.78A.39.39,0,0,0,7.29,2.91Z"/><line class="cls-9" x1="5.63" y1="2.07" x2="7.15" y2="1.85"/><path class="cls-9" d="M14.66,11.12a3.69,3.69,0,0,1-1,.13A4.37,4.37,0,0,1,13,11.2"/><path class="cls-9" d="M8.18,5.27a1.19,1.19,0,0,1-.85.66,1.11,1.11,0,0,1-1-.24.82.82,0,0,1-.65.5.91.91,0,0,1-.77-.26"/></g></g></svg>