<svg xmlns="http://www.w3.org/2000/svg" viewBox="0 0 42.68 23.05"><defs><style>.cls-1,.cls-9{fill:#b56f26;}.cls-11,.cls-2{fill:#fff;}.cls-13,.cls-3{fill:#22234a;}.cls-4{fill:#0071b9;}.cls-5{fill:#243d7e;}.cls-6{fill:#fce79c;}.cls-7{fill:#ee7349;}.cls-8{fill:none;}.cls-11,.cls-12,.cls-13,.cls-8,.cls-9{stroke:#22234a;stroke-linecap:round;stroke-linejoin:round;stroke-width:0.4px;}.cls-10,.cls-12{fill:#f9b91a;}.cls-14{fill:#23214a;}</style></defs><g id="Layer_2" data-name="Layer 2"><g id="Layer_1-2" data-name="Layer 1"><path class="cls-1" d="M11.48,3.81a.72.72,0,0,0-.29-.59.33.33,0,0,0,0-.14,5.43,5.43,0,0,0-1-1.95A.31.31,0,0,0,9.91,1,2.26,2.26,0,0,0,9.29.62a4,4,0,0,0-1-.37A3.26,3.26,0,0,0,7.22.31a5.06,5.06,0,0,0-1,.19,2.4,2.4,0,0,0-.78.55.36.36,0,0,0,.17.59.78.78,0,0,0,.48,0c.09,0,.28-.14.39-.09s.16.24.2.32.08.19.11.29l-.7.8a3.34,3.34,0,0,1-.32.33l0,0-.1.07h0L5.4,3.16A.89.89,0,0,0,5,2.87a.5.5,0,0,0-.34.07.23.23,0,0,0-.15.1l-.09.07a.24.24,0,0,0-.07.16l-.06.07a1,1,0,0,0,0,.94,1.24,1.24,0,0,0,.36.41l.06.11c.1.21,0,.48.12.69h0a.28.28,0,0,0-.18.34,1.74,1.74,0,0,0,.18.33.24.24,0,0,0,.08.22l.07.07h0v0c.12.27.22.55.33.82s.21.57.34.84.57.24.84.17h0l.5.08a.66.66,0,0,0,.44,0c.12,0,.25.1.39.14a.85.85,0,0,0,.5,0h0l.06.14c.09.22.18.45.26.67A.27.27,0,0,0,9,9.48a.27.27,0,0,0,.17-.33v0h0l0-.09a.27.27,0,0,0,.11-.26,1.2,1.2,0,0,1,0-.19h0v0a.29.29,0,0,1,0-.09,1.21,1.21,0,0,1,.05-.18v0l0-.09c.1-.24.23-.48.32-.74a5.74,5.74,0,0,0,1.12-1.55A2.71,2.71,0,0,0,11.13,5a2.17,2.17,0,0,0,0-.26.31.31,0,0,0,.15-.13A1.25,1.25,0,0,0,11.48,3.81Z"/><path class="cls-1" d="M17.42,10.25a1.53,1.53,0,0,0-1.33-.56l-.27,0a.57.57,0,0,0-.29.11h0a.27.27,0,0,0-.26.27v0l-.3.33h0a4.77,4.77,0,0,1-.83.28,3,3,0,0,1-.9,0l-1.42-.17c.26-.16.52-.35.79-.5.51-.28,1.05-.49,1.53-.81a.24.24,0,0,0,.09-.08.72.72,0,0,0,.29,0A1.18,1.18,0,0,0,15.08,9a2.32,2.32,0,0,0,.25-.21.66.66,0,0,0,.2-.24s0,0,0-.07l.35.12a1.49,1.49,0,0,0,.55.14.27.27,0,0,0,.11-.5l0,0h0l-.07-.06A1,1,0,0,0,16.23,8l-.1,0-.06,0-.17-.09a1.72,1.72,0,0,0-.58-.19l-.09,0,.06,0a1,1,0,0,0,.24-.16c.14,0,.27.06.4.09a.29.29,0,0,0,.24,0l.21.06a.29.29,0,0,0,.2,0,.16.16,0,0,0,.07-.07.41.41,0,0,0,.05-.09.31.31,0,0,0,0-.21A.26.26,0,0,0,16.5,7l-.2,0a.33.33,0,0,0-.21-.15,2.62,2.62,0,0,0-.62-.12,1.21,1.21,0,0,0-.61.16h0a.32.32,0,0,0-.06-.18.6.6,0,0,1,.29-.37l.09,0,.19-.08A1.07,1.07,0,0,0,15.64,6a.44.44,0,0,0,.16-.06A.41.41,0,0,0,16,5.71a.31.31,0,0,0-.14-.4.29.29,0,0,0-.24,0l-.08,0-.07,0H15.3a.92.92,0,0,0-.28.09.71.71,0,0,0-.26.23l-.13.07a1.33,1.33,0,0,0-.51.69,6.19,6.19,0,0,1-.72,1.43v0c-.25.18-.56.29-.81.46l-.55.4-.52.31a.28.28,0,0,0-.14.18l-.31.15c-.21.12-.41.26-.62.39a.86.86,0,0,0-.31.26.45.45,0,0,0,0,.28c-1-.18-2-.4-3-.49a.29.29,0,0,0-.31.23.21.21,0,0,0,0,.12,7.58,7.58,0,0,1-.24,1.15.36.36,0,0,0,.54.38h0a10.85,10.85,0,0,1,1.4.1c.52,0,1,0,1.55.07s1,.23,1.49.28a6.36,6.36,0,0,1,1.45.11.28.28,0,0,0,.3-.07,1.59,1.59,0,0,0,1,.37,1.17,1.17,0,0,0,.71-.19.28.28,0,0,0,.09-.1c.09.2.18.38.28.57a.72.72,0,0,0,.2.32.27.27,0,0,0,.41-.33l-.13-.23a.31.31,0,0,0,0-.08l-.09-.48a.71.71,0,0,0-.21-.4l0,0h0l.16,0a4.12,4.12,0,0,0,.67.65.26.26,0,0,0,.35,0,.27.27,0,0,0,.06-.34,6.18,6.18,0,0,0-.48-.83.54.54,0,0,0-.26-.21.73.73,0,0,0-.25,0h-.11a2,2,0,0,0,.18-.25.25.25,0,0,0,0-.19,3.41,3.41,0,0,1,.55.14l.44.13a1,1,0,0,0,.45.06A.27.27,0,0,0,17.42,10.25Z"/><path class="cls-2" d="M8.8,2.64A.8.8,0,0,0,8.44,4.2.8.8,0,0,0,8.8,2.64Z"/><path class="cls-2" d="M10.5,2.74a.71.71,0,0,0-.32,1.38A.71.71,0,0,0,10.5,2.74Z"/><path class="cls-2" d="M7.41,5.94a1.66,1.66,0,0,0,.74.6,1.86,1.86,0,0,0,.41.08L9,6.69a.17.17,0,0,0,.21-.13.18.18,0,0,0-.09-.2h0a.81.81,0,0,0-.36-.25L8.4,5.94a7.46,7.46,0,0,0-.8-.26C7.47,5.64,7.31,5.82,7.41,5.94Z"/><path class="cls-3" d="M7.26,5.3a.27.27,0,0,0,.27.44l0,0s0,0,0,0h0s0,0,0,0A.28.28,0,0,0,8,5.7a.64.64,0,0,0,.18.06l.08,0a.87.87,0,0,0,.41.11.3.3,0,0,0,.27.24H9l.07,0s0,0,0,0,0,0,0,0h0a.25.25,0,0,0,.12.18.27.27,0,0,0,.32,0,.67.67,0,0,0,.09-.74.26.26,0,0,0-.31-.12l-.14-.06a1.61,1.61,0,0,0-.44-.05.43.43,0,0,1-.28,0,.64.64,0,0,1-.2-.2A.69.69,0,0,0,8,4.85a.38.38,0,0,0-.47.08C7.41,5,7.36,5.18,7.26,5.3Z"/><path class="cls-3" d="M4.85,5.85s0,0,0-.08v0s0,0,0,0a.06.06,0,0,1,0,0,.72.72,0,0,0-.09-.2.16.16,0,0,0-.07-.07h0c0-.05,0-.1,0-.15s0,0,0,0a.48.48,0,0,0-.07-.35l-.06-.12h0a.49.49,0,0,0,0-.11.18.18,0,0,0-.2-.12.18.18,0,0,0-.14.19.06.06,0,0,0,0,0h0v0a.25.25,0,0,1,0,.07c0,.1.06.2.09.29a.36.36,0,0,0,0,.1s0,0,0,0a.29.29,0,0,0,0,.09.4.4,0,0,0,0,.15.12.12,0,0,0,0,.08v.07a.27.27,0,0,0,0,.12.58.58,0,0,1,0,.14v0a.19.19,0,0,0,0,.1.16.16,0,0,0,.06.08l0,0a.19.19,0,0,0,.1,0h.07l.1,0,0,0A.25.25,0,0,0,4.84,6,.49.49,0,0,0,4.85,5.85Z"/><path class="cls-3" d="M6.37,4.32V4.27l0-.07c0-.06,0-.11,0-.17s0-.2,0-.3,0-.36-.07-.55a2.44,2.44,0,0,0,.4-.5,1.33,1.33,0,0,0,.11-1,.62.62,0,0,0-.28-.39A.91.91,0,0,0,6,1.19a1.55,1.55,0,0,0-.48,0l-.2,0a.16.16,0,0,0,0-.09A.17.17,0,0,0,5.11,1a.3.3,0,0,0-.18.17.24.24,0,0,0-.09.15,3.38,3.38,0,0,0-.61,1.51.18.18,0,0,0,.3.16.73.73,0,0,1,.52-.12l.23,0,.21.32a.33.33,0,0,0,.14.1v.27a.2.2,0,0,0,0,.13.19.19,0,0,0,.07.08.32.32,0,0,0,0,.09l0,.19a.56.56,0,0,0,0,.22.32.32,0,0,0,.24.29l.18,0a.29.29,0,0,0,.25-.08A.26.26,0,0,0,6.37,4.32Z"/><path class="cls-4" d="M13.5,19.89a.18.18,0,0,0-.05-.12.18.18,0,0,0-.09-.1.24.24,0,0,0-.11-.06c-.38-.51-.69-1.06-1-1.6s-.85-1.26-1.23-1.93h0a.39.39,0,0,0,0-.18v-.06s0-.06,0-.08l.06-.11a2,2,0,0,0,.1-.26.23.23,0,0,0,0-.2.24.24,0,0,0-.16-.12.27.27,0,0,0-.2,0,.23.23,0,0,0-.1.12.13.13,0,0,0-.08,0,.25.25,0,0,0-.11.17l0,.05-.12-.07a1,1,0,0,0-.52-.1,2.15,2.15,0,0,0-.44.09.51.51,0,0,0-.18.09H9.11l-.09,0a.25.25,0,0,0-.09,0,.53.53,0,0,1-.1.06,2,2,0,0,0-.39.19l-.06,0a.31.31,0,0,0-.17,0A6.37,6.37,0,0,1,6,15.56a6.15,6.15,0,0,1-2.07-.8.35.35,0,0,0-.52.33,3.93,3.93,0,0,0,.37,1.58,4,4,0,0,0,.34.56.29.29,0,0,0,0,.19,2,2,0,0,0,.7.61.3.3,0,0,0,.2,0,3.17,3.17,0,0,0,.49.32l-.17.33-.06.13,0,0L5,18.68l-.28-.16-.13-.08-.07-.05h0l-.11-.06a.27.27,0,0,0-.5-.07,2.47,2.47,0,0,0-.43.93,4.19,4.19,0,0,1-.11.51.91.91,0,0,1-.21.37.27.27,0,0,0,.28.44h0a1.73,1.73,0,0,0,.6.39l.06,0,.64.47a2.84,2.84,0,0,0,1.17.68.55.55,0,0,0,.18,0,.35.35,0,0,0,.3-.19A3.58,3.58,0,0,0,7.85,21c.29-.26.55-.56.85-.81a5.62,5.62,0,0,0,.8-.74l0,0,.54.72.54.77c.17.24.35.54.65.59l0,0c0-.06,0,0,0,0l.09.13.17.25a3.28,3.28,0,0,0,.4.52.27.27,0,0,0,.44-.13h0l.08,0a.26.26,0,0,0,.15-.39,2.4,2.4,0,0,1-.27-.46.26.26,0,0,0-.11-.1l.15-.15a.35.35,0,0,0,.07-.12s0,0,0,0l.05,0a5.05,5.05,0,0,0,.76-.7.31.31,0,0,0,.09-.07.28.28,0,0,0,.09-.17v0A.33.33,0,0,0,13.5,19.89Z"/><path class="cls-5" d="M1.41,20.5a.47.47,0,0,0,0-.17.45.45,0,0,0-.1-.14l-.09-.07a.64.64,0,0,0-.24-.05l-.11,0a.39.39,0,0,0-.19.12,1.77,1.77,0,0,0-.21.32.14.14,0,0,0,0,.06h0l-.06.1v0a.36.36,0,0,0,0,.11v0a.33.33,0,0,0,0,.14.29.29,0,0,0,0,.13l.06.07a.42.42,0,0,0,.16.09h0a.17.17,0,0,0,.14,0,.33.33,0,0,0,.13,0l.06-.06H1l.1-.05A.44.44,0,0,0,1.22,21a1.29,1.29,0,0,1,.09-.16.47.47,0,0,0,.07-.12A.47.47,0,0,0,1.41,20.5Z"/><path class="cls-5" d="M15.77,19.09a.34.34,0,0,0,0-.2.21.21,0,0,0-.26-.16.26.26,0,0,0-.11.07.21.21,0,0,0-.11,0,2.37,2.37,0,0,0-1.64,1,3.32,3.32,0,0,0-.43,1,1.12,1.12,0,0,1-.46.72.35.35,0,0,0-.1.49,0,0,0,0,0,0,0,1.92,1.92,0,0,0,.32.53.63.63,0,0,0,.17.19c.1.06.21,0,.32.07a.19.19,0,0,0,.24-.07c.32-.61.75-1.15,1.1-1.74a7.52,7.52,0,0,1,1.07-1.61C16.06,19.26,15.92,19.08,15.77,19.09Z"/><path class="cls-6" d="M11.42,13.46c-.05-.28-.1-.55-.17-.82a1.19,1.19,0,0,0-.34-.69.28.28,0,0,0-.37,0,4.81,4.81,0,0,0-.84-.1.2.2,0,0,0-.14,0h0a1.46,1.46,0,0,0-.51,0,1.1,1.1,0,0,0-.26,0l-.38,0H8.32a2.26,2.26,0,0,0-.73-.06l-.1,0-.1,0h0a.24.24,0,0,0-.17-.07l-.39,0c-.1,0-.21,0-.31,0a4.48,4.48,0,0,1,.09-.82,4,4,0,0,1,.18-.68,1.63,1.63,0,0,0,.11-.31.28.28,0,0,0,0-.09h.18l.42,0a7.6,7.6,0,0,1,.83.16.19.19,0,0,0,.13,0,2.61,2.61,0,0,0,.68.06,3.9,3.9,0,0,1,.76.13c.09,0,.13-.09.08-.15a.64.64,0,0,1-.1-.13h0a.38.38,0,0,0,0-.15.16.16,0,0,0-.07-.09l-.18-.3,0-.1v0s0,0,0-.06,0,0,0-.05v0a.49.49,0,0,1,0-.12c0-.08-.08-.16-.16-.17A.2.2,0,0,0,9.16,9l0,.06v0h0l0,.09A1.42,1.42,0,0,1,9,9.33a1.83,1.83,0,0,1-.18.3l0,0a7.59,7.59,0,0,1-.66-1,.28.28,0,0,0-.31-.12,1.9,1.9,0,0,1-.75,0,3.92,3.92,0,0,0-.76-.08,2.71,2.71,0,0,1-.4,0L5.6,8.24c-.32-.05-.43.28-.55.51a.26.26,0,0,0,.17.39l.08,0a1.15,1.15,0,0,0-.25.12,3,3,0,0,0-.54.39.24.24,0,0,0-.07.12.49.49,0,0,0-.26.21.61.61,0,0,0-.08.3,2.3,2.3,0,0,0,0,.37,1.93,1.93,0,0,0,.06.42.54.54,0,0,0,.14.27,10.2,10.2,0,0,0-.71,1.29.22.22,0,0,0,0,.1L3.44,13a7.19,7.19,0,0,0-.39.9c-.09.26-.27.65,0,.88a.27.27,0,0,0,.14.07.38.38,0,0,0,.15.09c.19.07.39.07.58.15a3.39,3.39,0,0,0,.53.2,11.77,11.77,0,0,0,1.15.36,6.38,6.38,0,0,0,1.22.22,5.42,5.42,0,0,1,.57,0A3.11,3.11,0,0,0,8,16a.26.26,0,0,0,.23-.18l.59-.25.32-.11a.21.21,0,0,0,.11-.07,6.44,6.44,0,0,1,.76,0c.25,0,.4.24.66.12A2.49,2.49,0,0,0,11.3,15C11.7,14.6,11.5,14,11.42,13.46Z"/><path class="cls-7" d="M3.64,18.07A.44.44,0,0,0,3.47,18c-.05,0-.09-.11-.14-.17a.33.33,0,0,0-.58.14,4.25,4.25,0,0,1-.21.49,1.41,1.41,0,0,0,0,.54.29.29,0,0,0,.31.28l0,.07a.29.29,0,0,0,.27.19l0,0a.16.16,0,0,0,.25,0h0a.17.17,0,0,0,0-.14.28.28,0,0,0,0-.31c-.05-.12,0-.16,0-.27s.07-.22.13-.25A.34.34,0,0,0,3.64,18.07Z"/><path class="cls-7" d="M13.11,20.52l-.11.23a.25.25,0,0,0-.19,0,.2.2,0,0,0-.13.14c-.09.11-.21.2-.29.32a.24.24,0,0,0,.41.26c.09-.14.25-.23.35-.37a.26.26,0,0,0,0-.28l.12-.23C13.3,20.51,13.16,20.43,13.11,20.52Z"/><path class="cls-5" d="M2.79,17.43c-.07-.07-.13-.08-.18-.05l0,0a.26.26,0,0,0-.26-.18h0l-.07,0a.23.23,0,0,0-.4.06c-.48,1.22-1,2.41-1.53,3.61a.24.24,0,0,0,.12.32.4.4,0,0,1,.15.17.23.23,0,0,0,.22.1c.93,0,1.65-.94,2-1.76a.31.31,0,0,0,.09-.11.33.33,0,0,0-.16-.44l-.05,0h0l0,0s0,0,0,0l0,0,0-.1v-.07a.41.41,0,0,0,0-.16,1.17,1.17,0,0,1,.08-.35c0-.12,0-.31.12-.4a.39.39,0,0,0,.08-.1C3,17.77,3,17.5,2.79,17.43Z"/><path class="cls-8" d="M13.1,21.64A3.61,3.61,0,0,1,13.56,20a2.45,2.45,0,0,1,2.1-1.28s.37,0,.11.39L13.5,22.66s-.21.35-.47,0-.71-1.3-.71-1.3"/><path class="cls-8" d="M12.69,22.14c-.24.26-.57.54-.78.32-.34-.38.22-1,.47-1.23a12.3,12.3,0,0,0,1.09-1.09"/><line class="cls-8" x1="11.91" y1="22.46" x2="8.39" y2="18.02"/><path class="cls-8" d="M3,20.32a2.93,2.93,0,0,0,.47-1.08c.14-.83.51-1.17.63-1.21l1.11.8"/><path class="cls-8" d="M6.16,22.06a.89.89,0,0,1-.79-.2C4.43,21.2,3,20.32,3,20.32"/><path class="cls-8" d="M3.85,18.24l-1.33-1s-.36-.3-.54.24S.46,21.1.46,21.1a.23.23,0,0,0,.21.36c.36.05,1.54-.13,2.18-2.09"/><line class="cls-8" x1="2.46" y1="19.01" x2="3.32" y2="19.7"/><path class="cls-8" d="M.42,21.18S.11,21.29.23,21l1.58-3.74a.19.19,0,0,1,.31-.08"/><path class="cls-8" d="M15.79,19.09s.32-.06.16.21l-2.17,3.44a.19.19,0,0,1-.32,0"/><path class="cls-8" d="M3,17.6a2.07,2.07,0,0,0-.48,1.45"/><path class="cls-8" d="M12.52,21.72a1.34,1.34,0,0,0,.64-.61"/><path class="cls-8" d="M10.11,10.24a13.12,13.12,0,0,1-.76-1.56"/><path class="cls-8" d="M10.54,15.51a2,2,0,0,0,1-.79,6.76,6.76,0,0,0-.45-2.61"/><path class="cls-8" d="M2.89,14.7a14,14,0,0,0,5,1.25"/><path class="cls-8" d="M5.55,8c-.14.06-.18.12,0,.18a14.46,14.46,0,0,0,2.65.19"/><path class="cls-8" d="M5.42,8.11,5,9.05a11.66,11.66,0,0,0,2.8.31l.36-.95.73,1.22.58-1.17.32,1.11"/><line class="cls-8" x1="6.16" y1="12.22" x2="6.61" y2="12.33"/><path class="cls-8" d="M5.66,9.25A1.47,1.47,0,0,0,4.1,10.49c-.08.78.49,1.38,1.39,1.57"/><line class="cls-8" x1="7.17" y1="9.33" x2="6.5" y2="9.3"/><path class="cls-8" d="M9.44,19.35A8.57,8.57,0,0,1,6.21,22"/><path class="cls-8" d="M11.23,15.09A8.76,8.76,0,0,1,11,16"/><path class="cls-8" d="M5.52,18.45a2.48,2.48,0,0,1-.69.86"/><path class="cls-8" d="M11,16a1.3,1.3,0,0,0-1.41-.7,26.39,26.39,0,0,0-2.81,1.13"/><path class="cls-8" d="M13.52,19.93,11.06,16.2A.81.81,0,0,0,11,16"/><path class="cls-8" d="M3.37,15s-.1,4.61,5.17,3.37"/><path class="cls-8" d="M13.23,11.94a1.23,1.23,0,0,0,1.82.4"/><path class="cls-8" d="M15.78,12.09l.22.73s.08.26-.06.35-.61,0-.74-.53l-.11-.36"/><path class="cls-8" d="M15.78,12.09l-.07-.25a.79.79,0,0,0-.52-.37l-.35.06"/><path class="cls-8" d="M15.5,11.61l.28,0c.2.47.66.83.85.76s.11-.3.11-.3-.18-.45-.41-.89a.69.69,0,0,0-.69-.37l-.45.12"/><line class="cls-8" x1="15.85" y1="11.47" x2="15.78" y2="11.58"/><path class="cls-8" d="M15.69,10.76l.23-.34.59.11c.43.27.86.2,1,0s-.12-.39-.12-.39L17,9.87a1.09,1.09,0,0,0-.37-.17,7.63,7.63,0,0,0-1,0,.77.77,0,0,0-.32.21l-.43.62-1.11.26L7,9.83"/><path class="cls-8" d="M15.74,10.3s.13.13.19.14"/><path class="cls-8" d="M14.15,9c.23.25,1,.19,1.38-.56"/><path class="cls-8" d="M15.89,7.78l.66.39s.24.12.2.29-.46.41-.9.13l-.33-.19"/><path class="cls-8" d="M15.89,7.78l-.23-.13a.51.51,0,0,0-.17,0l-.2,0"/><path class="cls-8" d="M15.17,7.76l.37-.34c.47.2,1.05.14,1.14,0s-.13-.29-.13-.29a8.42,8.42,0,0,0-.91-.37.83.83,0,0,0-.77.12"/><line class="cls-8" x1="15.51" y1="7.29" x2="15.54" y2="7.42"/><path class="cls-8" d="M14.1,6.24l0,0a8.11,8.11,0,0,1,.74-.73,1.16,1.16,0,0,1,.38-.13l.45-.07s.31,0,.36.21-.22.59-.71.68l-.51.33v.83"/><line class="cls-8" x1="10.03" y1="10.03" x2="13.17" y2="7.97"/><path class="cls-8" d="M14.63,6.51s.18,0,.23,0"/><path class="cls-8" d="M7,11.75c-.11.37-.22.6-.3.59s-.12-.72,0-1.55.37-1.48.5-1.46.1.19.1.47"/><line class="cls-8" x1="13.41" y1="12.22" x2="6.56" y2="11.67"/><path class="cls-8" d="M2.89,14.7a7.64,7.64,0,0,1,1.43-3.35"/><line class="cls-8" x1="5.17" y1="9.11" x2="5.11" y2="9.28"/><path class="cls-8" d="M9.27,8.85a4,4,0,0,1,.88-2A9.49,9.49,0,0,0,10.7,6"/><path class="cls-8" d="M10.85,5.7A2.64,2.64,0,0,1,10.7,6l0,.06"/><path class="cls-8" d="M11.14,3.26a4.56,4.56,0,0,1,0,1.43,5.3,5.3,0,0,1-.27,1"/><path class="cls-8" d="M7.92.2a4.72,4.72,0,0,1,.71.11,3.26,3.26,0,0,1,2.51,2.95"/><path class="cls-8" d="M5.24,1.17a3.16,3.16,0,0,1,2-.93,3.56,3.56,0,0,1,.72,0"/><path class="cls-8" d="M5.63,8.23a16.45,16.45,0,0,0-.92-2.08"/><circle class="cls-8" cx="10.35" cy="3.49" r="0.74"/><path class="cls-8" d="M5.66,3.65a.79.79,0,0,0-.28-.58.83.83,0,0,0-.56-.17s-.61,0-.73.78.62,1,.63,1.51a.68.68,0,0,1,0,.12.28.28,0,0,0,.23.37.29.29,0,0,0,.23,0s.18-.07.21-.38"/><path class="cls-8" d="M4.86,3.78A.94.94,0,0,0,5,4a1.3,1.3,0,0,1,.18.35"/><path class="cls-8" d="M4.59,4a.64.64,0,0,0,.44,0"/><path class="cls-8" d="M11.22,3.19a.84.84,0,0,1,.31.75,1,1,0,0,1-.38.79"/><path class="cls-8" d="M5.18,1.19a10.19,10.19,0,0,1,1,0c.62.05.93,1.44-.15,2"/><path class="cls-8" d="M5.48,1a.78.78,0,0,0-.77.43,3.9,3.9,0,0,0-.49,1.9"/><path class="cls-9" d="M9.61,2.43,10.08,5l-1-.45"/><circle class="cls-8" cx="8.63" cy="3.43" r="0.79"/><path class="cls-3" d="M9.09,3.09A.34.34,0,0,0,9,3.77.34.34,0,0,0,9.09,3.09Z"/><path class="cls-3" d="M10.73,3.15a.34.34,0,0,0-.11.68A.34.34,0,0,0,10.73,3.15Z"/><path class="cls-8" d="M6.23,3.19l.22,1.45-.78,0v-1"/><path class="cls-8" d="M4.82,6.41a.81.81,0,0,1-.49-.59A5.78,5.78,0,0,1,4.15,4.2"/><path class="cls-8" d="M4.88,5.67s.06.39-.21.45"/><path class="cls-8" d="M8,4.83H8a.7.7,0,0,1,.33.29c.12.18.16.2.27.25a.5.5,0,0,0,.36,0,.71.71,0,0,1,.44,0,.51.51,0,0,1,.32.35.65.65,0,0,1,0,.42.82.82,0,0,1-.51.42h0a1.67,1.67,0,0,1-.95,0h0l-.07,0H8.1L8,6.52H8a1.8,1.8,0,0,1-.69-.66h0a.86.86,0,0,1,0-.66.65.65,0,0,1,.28-.32A.52.52,0,0,1,8,4.83Z"/><path class="cls-8" d="M7.29,5.72a2,2,0,0,1,1.11.19,2.48,2.48,0,0,1,1,.64"/><path class="cls-8" d="M13.62,8a1.12,1.12,0,0,1,1-.22s.58.1.53.45c0,0,0,.29-.51.3a.67.67,0,0,0-.54.23.54.54,0,0,1-.79,0"/><line class="cls-8" x1="14.31" y1="9.13" x2="11.85" y2="10.53"/><path class="cls-8" d="M14.09,6.29A4.51,4.51,0,0,1,13.19,8"/><path class="cls-10" d="M42.13,7.25a1,1,0,0,0-.5-.45,1.19,1.19,0,0,0-.83,0l-.11,0a5.77,5.77,0,0,1-.58.08,1,1,0,0,0-.7-.43c-.8-.12-1.38-.78-2.14-1a15.45,15.45,0,0,0-2.69-.54,10.78,10.78,0,0,0-2.83.13A11.47,11.47,0,0,0,29,5.52,24.57,24.57,0,0,0,24.69,8c-.47.32-.72.28-.88.82-.21,0-.77.44-1,.43-1.36-.08-1.57,2-.2,2.08.21,0,1,.43,1.24.36a2.61,2.61,0,0,0,.11.67c.28.95,1,1.65,1.09,2.67a1.27,1.27,0,0,0,1.45,1c.51,0,1.33.26,2,.31s1.4-.42,2.11-.45A34.52,34.52,0,0,0,35,15.39,9.07,9.07,0,0,0,37,15c.31-.11.69-.09,1-.21a4.63,4.63,0,0,1,1-.43c1.93-.32,1.77-1.56,1.59-3,0,0,.13-.06.11-.11s.08-.35.1-.55.12-.85.12-.85-.32-.26-.31-.39a5.22,5.22,0,0,0,1.33-.83,1.09,1.09,0,0,0,.4-.7A1.08,1.08,0,0,0,42.13,7.25Z"/><path class="cls-8" d="M33,15.8c-4.13.55-7.4.42-7.8-.19l-1.46-3.85"/><path class="cls-8" d="M32.94,15.8c4.18-.56,7.34-1.56,7.57-2.25l.42-4.34"/><path class="cls-8" d="M30.29,10.21c-4,.41-7.07.29-7.15-.33S26.63,5.61,31.52,5s9.21,1.82,9.31,2.54c.07.53-2,1.27-5.09,1.89"/><path class="cls-8" d="M23.7,8.92a1.16,1.16,0,0,0-.51.05,1,1,0,0,0-.55.39A1,1,0,0,0,22,9.6c-.33.27-.47.64-.31.83h0a.1.1,0,0,0,0,.07c-.09.23.23.55.71.73a1.4,1.4,0,0,0,.76.08,1.26,1.26,0,0,0,.78.31,1.46,1.46,0,0,0,.72-.09,1.63,1.63,0,0,0,1.45,0,1.45,1.45,0,0,0,.75.15,1.36,1.36,0,0,0,.74-.21,1.34,1.34,0,0,0,.77.13,1.35,1.35,0,0,0,.74-.24,1.4,1.4,0,0,0,.78.12,1.56,1.56,0,0,0,.7-.24,1.43,1.43,0,0,0,.74.07,2.24,2.24,0,0,0,.41-.1"/><path class="cls-8" d="M40,6.73a1.16,1.16,0,0,1,.51-.1,1,1,0,0,1,.64.24.93.93,0,0,1,.7.06c.38.17.61.48.51.71,0,0,0,0,0,0l.06,0c.14.2-.09.6-.5.89a1.4,1.4,0,0,1-.71.28,1.28,1.28,0,0,1-.67.51,1.49,1.49,0,0,1-.72.1,1.34,1.34,0,0,1-.65.37,1.38,1.38,0,0,1-.74.05,1.32,1.32,0,0,1-.68.35,1.41,1.41,0,0,1-.77,0,1.43,1.43,0,0,1-.7.33,1.4,1.4,0,0,1-.78,0,1.34,1.34,0,0,1-.73.32,1.32,1.32,0,0,1-.73,0l-.11.08"/><path class="cls-8" d="M31.71,11.25a1.49,1.49,0,0,0,.62,0,1.44,1.44,0,0,0,.63-.22"/><path class="cls-10" d="M37,14.68a.46.46,0,0,0-.67-.28.77.77,0,0,0-.29.43.54.54,0,0,0-.18-.1.41.41,0,0,0-.18-.05.46.46,0,0,0-.46.44h-.11a.47.47,0,0,0-.32.56,5.45,5.45,0,0,1,0,1.51l-.16-.11-.31-.22a.82.82,0,0,0-.35-.2c-.69-.11-.42,1-.38,1.36s.05.45.06.67a.22.22,0,0,0,0,.14l0,.63a.36.36,0,1,0,.72,0c0-.16,0-.33,0-.5h0a.82.82,0,0,0,.18-.66l.14,0,.08,0a.79.79,0,0,0,.58.43,1.38,1.38,0,0,0,1.38-.61,3.11,3.11,0,0,0,.42-1.53A5.83,5.83,0,0,0,37,14.68Z"/><path class="cls-8" d="M35.44,14.67a2,2,0,0,1,.34-1.45c.49-.67.86-.72.81-.17s-.29,2.27-.39,2.72-.42.6-.75,0L34,13.3"/><path class="cls-8" d="M35.52,13.73s-.51-1.49-.67-1.82-.58-1.25-1.42-1-1.17,1.21-1.5,2.91"/><path class="cls-8" d="M34.46,14.07a4.69,4.69,0,0,1-.23.64"/><path class="cls-8" d="M34.65,15.74a4.52,4.52,0,0,1,0,1.65"/><path class="cls-8" d="M34.72,17l-.48-.28c-.11-.06-.44-.2-.63,0s-.22.6-.16,1.18a16.05,16.05,0,0,0,.32,1.83c.19.77.78-.41.74-1.46"/><path class="cls-8" d="M34,17.69l.41.44c.14.14,1,1.16,2,.46.64-.48.88-1.92.7-3.55"/><path class="cls-11" d="M33.42,6a1.66,1.66,0,0,1,1.84-1.86A1.38,1.38,0,0,1,36.49,5.5"/><path class="cls-12" d="M34.25,6s3.27-.65,3.27-.65L34.86,8"/><path class="cls-11" d="M33,7.22a1.39,1.39,0,0,0,0-2.77A1.37,1.37,0,0,0,31.75,5a1.72,1.72,0,0,0-.26.78,1.4,1.4,0,0,0,.31.89A1.36,1.36,0,0,0,33,7.22Z"/><line class="cls-8" x1="33.78" y1="14.95" x2="34.85" y2="14.77"/><path class="cls-13" d="M32,8.25a1.24,1.24,0,0,0-.57.32.62.62,0,0,0-.12.62.82.82,0,0,0,.76.37,2,2,0,0,1,.89.08c.26.11.43.37.69.48a.63.63,0,0,0,.68-.1c.52-.47-.09-1.15-.49-1.43A2.27,2.27,0,0,0,32,8.25Z"/><path class="cls-14" d="M32.35,5.4a.5.5,0,0,0,0,1A.5.5,0,0,0,32.35,5.4Z"/><path class="cls-14" d="M34.67,4.93a.5.5,0,0,0,0,1A.5.5,0,0,0,34.67,4.93Z"/></g></g></svg>