<svg xmlns="http://www.w3.org/2000/svg" viewBox="0 0 34.8 29.65"><defs><style>.cls-1{fill:#fff;}.cls-2{fill:#f9b91a;}.cls-3{fill:none;}.cls-3,.cls-9{stroke:#22234a;stroke-linecap:round;stroke-linejoin:round;stroke-width:0.4px;}.cls-4{fill:#22234a;}.cls-5,.cls-9{fill:#b56f26;}.cls-6{fill:#243d7e;}.cls-7{fill:#f3a2a7;}.cls-8{fill:#ee7349;}</style></defs><g id="Layer_2" data-name="Layer 2"><g id="Layer_1-2" data-name="Layer 1"><path class="cls-1" d="M8.62.37a3.64,3.64,0,0,0-.73.15C7.62.6,7.4.76,7.15.85a1.07,1.07,0,0,1-.7-.1,2.52,2.52,0,0,0-.9-.13A3.64,3.64,0,0,0,4,.92a2.72,2.72,0,0,0-1.09,1.3,2.32,2.32,0,0,0-.37,1.86c.16.37.65.25.84,0a1.28,1.28,0,0,0,.19-.41.5.5,0,0,0,0-.12h.16C5,3.29,6.2,3,7.43,2.87A3.69,3.69,0,0,0,9,2.46a1.36,1.36,0,0,0,.72-1.33A.93.93,0,0,0,8.62.37Z"/><path class="cls-2" d="M34.24,13.21C34,13,33.85,13,33.56,13a7.41,7.41,0,0,1-1.14-.32,8.62,8.62,0,0,0-2.5-.46,6.48,6.48,0,0,0-2.39.67c-.37.18-.73.36-1.08.57a5.29,5.29,0,0,0-.5.32,2.27,2.27,0,0,0-.25.18l-.06,0a.43.43,0,0,0-.53.27l-.05.11a.49.49,0,0,0,.38.67.94.94,0,0,0,.39-.06s0,.07,0,.11c.11.27.23.54.36.8l.18.53c.16.44.3.73.8.82a5.11,5.11,0,0,0,1.46,0c.56-.06,1.13-.14,1.69-.24s1.06-.2,1.58-.33l.76-.2a1.8,1.8,0,0,0,.64-.22c.36-.3.24-1,.19-1.41l-.06-.38c0-.05.09,0,.08,0s0-.08,0-.1.08-.16.1-.17L34,14A.49.49,0,0,0,34.24,13.21Z"/><path class="cls-3" d="M30.07,17.07c-1.88.23-3.37.16-3.54-.12l-.65-1.76"/><path class="cls-3" d="M30.06,17.07c1.9-.24,3.34-.68,3.45-1l.21-2"/><path class="cls-3" d="M31.27,14.18c-.48.09-1,.17-1.55.24-2.22.28-4.06.24-4.1-.09s1.61-1.92,3.83-2.2,4.19.87,4.23,1.19c0,.16-.35.34-1,.53"/><path class="cls-3" d="M25.88,13.9a.62.62,0,0,0-.23,0,.45.45,0,0,0-.25.18.45.45,0,0,0-.31.1c-.15.12-.21.29-.14.38h0a0,0,0,0,0,0,0c0,.11.11.26.32.34a.64.64,0,0,0,.35,0,.52.52,0,0,0,.35.14.68.68,0,0,0,.33,0,.68.68,0,0,0,.33.09.77.77,0,0,0,.33-.07.56.56,0,0,0,.34.07.59.59,0,0,0,.33-.09.61.61,0,0,0,.35.06.6.6,0,0,0,.34-.1.64.64,0,0,0,.36,0A.63.63,0,0,0,29,15a.73.73,0,0,0,.34,0l.19,0"/><path class="cls-3" d="M31.43,14.72a.48.48,0,0,1-.18,0,.67.67,0,0,1-.33.14.74.74,0,0,1-.34,0,.74.74,0,0,1-.31.12h-.19"/><path class="cls-3" d="M33.32,13a.53.53,0,0,1,.23,0,.48.48,0,0,1,.29.11.46.46,0,0,1,.32,0c.17.08.28.22.23.33h0l0,0c.06.09,0,.27-.23.4a.74.74,0,0,1-.32.13.59.59,0,0,1-.31.22.68.68,0,0,1-.33.05.76.76,0,0,1-.3.17.62.62,0,0,1-.33,0"/><path class="cls-3" d="M29.52,15a.48.48,0,0,0,.28,0,.61.61,0,0,0,.28-.09"/><path class="cls-2" d="M24.7,15.49c-.11-.31-.31-.33-.57-.46a7.23,7.23,0,0,1-1-.68A8.11,8.11,0,0,0,21,13.07a6.23,6.23,0,0,0-2.47-.18c-.41,0-.81.09-1.21.16l-.58.13-.29.09-.08,0a.44.44,0,0,0-.59.07l-.08.09a.49.49,0,0,0,.13.76,1,1,0,0,0,.39.08s0,.07,0,.11c0,.29,0,.58.07.87s0,.37,0,.56c0,.47,0,.79.47,1a5.26,5.26,0,0,0,1.39.45c.55.14,1.11.25,1.67.35s1.07.17,1.6.22l.78.07a1.73,1.73,0,0,0,.68,0c.43-.16.56-.86.65-1.26,0-.12.06-.25.08-.38v-.16a.06.06,0,0,0,0,0h.26l.43,0A.49.49,0,0,0,24.7,15.49Z"/><path class="cls-3" d="M19.47,17.71c-1.85-.42-3.23-1-3.3-1.32V14.52"/><path class="cls-3" d="M19.45,17.7c1.87.42,3.38.5,3.58.24l.87-1.78"/><path class="cls-3" d="M24.13,15.41c-.08.32-1.91.18-4.1-.31S16.13,14,16.2,13.63s2.17-1.27,4.36-.78S24.2,15.08,24.13,15.41Z"/><path class="cls-3" d="M16.6,13.31a.52.52,0,0,0-.23-.06.41.41,0,0,0-.3.08.39.39,0,0,0-.32,0c-.18.06-.3.19-.26.3h0l0,0c-.07.09,0,.28.19.43a.68.68,0,0,0,.31.15.55.55,0,0,0,.28.26.84.84,0,0,0,.32.07.78.78,0,0,0,.28.2.9.9,0,0,0,.34.05.58.58,0,0,0,.29.18.73.73,0,0,0,.35,0,.65.65,0,0,0,.31.18.6.6,0,0,0,.35,0,.61.61,0,0,0,.32.17.75.75,0,0,0,.33,0,.69.69,0,0,0,.31.15l.19,0"/><path class="cls-3" d="M23.91,15a.66.66,0,0,1,.23,0,.46.46,0,0,1,.23.2.44.44,0,0,1,.29.14c.14.13.19.3.11.38h0l0,0c0,.11-.13.25-.36.3a.57.57,0,0,1-.34,0,.54.54,0,0,1-.37.11.72.72,0,0,1-.32-.07.65.65,0,0,1-.33.06.72.72,0,0,1-.33-.1.6.6,0,0,1-.34,0,.67.67,0,0,1-.33-.12.64.64,0,0,1-.35,0,.73.73,0,0,1-.33-.14.6.6,0,0,1-.36,0,.74.74,0,0,1-.31-.14.63.63,0,0,1-.34,0l-.16-.07"/><path class="cls-3" d="M19.65,15.57a.58.58,0,0,0,.25.11.66.66,0,0,0,.31,0"/><path class="cls-2" d="M28.72,5.47c-.17-.29-.37-.26-.65-.33A7.41,7.41,0,0,1,27,4.68a8.33,8.33,0,0,0-2.42-.77,6.19,6.19,0,0,0-2.45.36c-.39.13-.77.26-1.15.42l-.54.25-.26.16-.07,0a.43.43,0,0,0-.56.2l-.06.1a.5.5,0,0,0,.29.72,1.31,1.31,0,0,0,.4,0,.34.34,0,0,0,0,.1c.08.29.16.57.26.84s.07.37.11.55c.1.46.2.77.69.92a5,5,0,0,0,1.45.14c.57,0,1.13,0,1.7,0s1.08-.06,1.62-.13l.77-.1a1.81,1.81,0,0,0,.66-.14c.4-.25.37-1,.37-1.37,0-.13,0-.26,0-.39l0-.15v0L28,6.29l.42-.11A.49.49,0,0,0,28.72,5.47Z"/><path class="cls-3" d="M24.09,8.76c-1.89,0-3.36-.26-3.5-.56l-.42-1.83"/><path class="cls-3" d="M24.08,8.76c1.92,0,3.4-.25,3.55-.55l.45-1.92"/><path class="cls-3" d="M23.64,6.09c-2,0-3.62-.3-3.62-.6s1.84-1.71,4.09-1.7,4,1.39,4,1.72S26.8,6,25,6.08"/><path class="cls-3" d="M22.39,6.61a.53.53,0,0,0,.21-.06.73.73,0,0,0,.68,0,.59.59,0,0,0,.33.08l.19,0"/><path class="cls-3" d="M20.34,5.09a.63.63,0,0,0-.24,0,.46.46,0,0,0-.27.14.42.42,0,0,0-.31.07c-.16.1-.25.26-.19.35h0l0,0c0,.1.08.27.28.37a.69.69,0,0,0,.34.09.57.57,0,0,0,.33.18.75.75,0,0,0,.33,0,.63.63,0,0,0,.31.13H21"/><path class="cls-3" d="M27.83,5.11a.48.48,0,0,1,.24,0,.46.46,0,0,1,.27.14.48.48,0,0,1,.31.07c.17.1.25.26.19.36h0l0,0c.05.1-.08.27-.28.37a.72.72,0,0,1-.34.09.57.57,0,0,1-.33.18.61.61,0,0,1-.33,0,.63.63,0,0,1-.32.13.69.69,0,0,1-.33,0,.71.71,0,0,1-.33.11.62.62,0,0,1-.35,0,.62.62,0,0,1-.34.11.61.61,0,0,1-.35-.07.55.55,0,0,1-.34.1.62.62,0,0,1-.33-.07.64.64,0,0,1-.33.08.52.52,0,0,1-.18,0"/><path class="cls-3" d="M23.81,6.63a.51.51,0,0,0,.27.06.61.61,0,0,0,.3-.06"/><path class="cls-2" d="M26.58,10.63c-.13-.31-.33-.31-.6-.41a8.86,8.86,0,0,1-1-.61,8.34,8.34,0,0,0-2.25-1.22,6.46,6.46,0,0,0-2.51.14c-.4.07-.8.15-1.2.26-.19.05-.38.1-.57.17l-.28.12-.07,0a.43.43,0,0,0-.58.12l-.08.09a.49.49,0,0,0,.19.75.93.93,0,0,0,.39,0s0,.07,0,.1c0,.29.08.58.13.87s0,.37,0,.56c0,.47.09.78.55,1a5.28,5.28,0,0,0,1.42.35c.56.09,1.12.16,1.69.21s1.08.09,1.62.1h.78a1.68,1.68,0,0,0,.67-.05c.43-.19.5-.91.56-1.3,0-.13,0-.26,0-.39v-.2a1.72,1.72,0,0,0,.26,0l.42,0A.5.5,0,0,0,26.58,10.63Z"/><path class="cls-3" d="M21.54,13.25c-1.88-.26-3.29-.73-3.39-1L18,10.34"/><path class="cls-3" d="M21.52,13.25c1.9.27,3.41.23,3.6-.05l.72-1.84"/><path class="cls-3" d="M23.28,8.58a4.59,4.59,0,0,1,2.73,2c-.05.33-1.89.34-4.11,0s-4-.84-3.93-1.17,1.81-1.29,3.86-1.16"/><path class="cls-3" d="M18.33,9.1a.52.52,0,0,0-.23,0,.48.48,0,0,0-.29.11.4.4,0,0,0-.32,0c-.17.08-.28.22-.24.32h0l0,0c-.06.09,0,.27.23.4a.6.6,0,0,0,.32.13.54.54,0,0,0,.3.24.66.66,0,0,0,.33,0,.63.63,0,0,0,.29.18.68.68,0,0,0,.34,0,.57.57,0,0,0,.31.16.69.69,0,0,0,.35,0,.53.53,0,0,0,.32.15.58.58,0,0,0,.35,0,.68.68,0,0,0,.33.15A.69.69,0,0,0,21,11a.67.67,0,0,0,.32.12h.19"/><path class="cls-3" d="M25.75,10.16a.41.41,0,0,1,.24,0,.54.54,0,0,1,.25.18.42.42,0,0,1,.29.11c.15.12.21.29.14.38h0s0,0,0,0-.11.26-.33.33a.61.61,0,0,1-.34,0,.63.63,0,0,1-.36.14.62.62,0,0,1-.32-.05.76.76,0,0,1-.33.09.59.59,0,0,1-.33-.08.59.59,0,0,1-.34.07.53.53,0,0,1-.34-.1.61.61,0,0,1-.35.06.62.62,0,0,1-.34-.11.72.72,0,0,1-.35.05.74.74,0,0,1-.32-.11.71.71,0,0,1-.34,0,.43.43,0,0,1-.17-.06"/><path class="cls-3" d="M21.55,11.11a.71.71,0,0,0,.27.09.58.58,0,0,0,.3,0"/><path class="cls-2" d="M32.37,10.05c-.06-.33-.25-.37-.49-.53A7.35,7.35,0,0,1,31,8.71a8.21,8.21,0,0,0-2-1.57,6.08,6.08,0,0,0-2.42-.52c-.41,0-.81,0-1.22,0a5.63,5.63,0,0,0-.59,0l-.3,0H24.4a.42.42,0,0,0-.59,0l-.1.07a.49.49,0,0,0,0,.77.83.83,0,0,0,.37.13.45.45,0,0,0,0,.11c0,.29,0,.58,0,.87l-.09.55a1,1,0,0,0,.32,1.1,5.23,5.23,0,0,0,1.32.65c.52.21,1.06.4,1.6.57s1,.31,1.56.44c.25.06.46.29.71.34a1.79,1.79,0,0,0,.72-.07c.45-.09.68-.77.82-1.15.05-.12.16-.13.19-.26l.07-.16s-.09-.12-.08-.14l.25,0,.43,0A.49.49,0,0,0,32.37,10.05Z"/><path class="cls-3" d="M26.89,11.53c-1.78-.67-3.06-1.42-3.09-1.76l.25-1.85"/><path class="cls-3" d="M30.08,12.32a.44.44,0,0,0,.31-.08l1.1-1.64"/><path class="cls-3" d="M26.87,11.52a15.34,15.34,0,0,0,2.41.71"/><path class="cls-3" d="M25.34,7.93c-.75-.39-1.19-.73-1.12-.89s2.31-1,4.41-.17,3.31,2.71,3.19,3-1.91-.08-4-.87c-.42-.16-.82-.32-1.19-.48"/><path class="cls-3" d="M26.38,9a.59.59,0,0,0,.17.1.72.72,0,0,0,.33.06.73.73,0,0,0,.29.19.58.58,0,0,0,.18,0"/><path class="cls-3" d="M24.65,6.78a.49.49,0,0,0-.22-.09.42.42,0,0,0-.3,0,.41.41,0,0,0-.32,0c-.19,0-.32.15-.3.26h0l0,0c-.08.07,0,.27.13.45a.66.66,0,0,0,.29.19.51.51,0,0,0,.25.29.5.5,0,0,0,.3.12.63.63,0,0,0,.25.23.68.68,0,0,0,.33.1.35.35,0,0,0,.1.12"/><path class="cls-3" d="M31.67,9.41a.51.51,0,0,1,.22.07.46.46,0,0,1,.21.23.44.44,0,0,1,.26.17c.12.15.15.33.06.4h0s0,0,0,0-.16.22-.39.25a.64.64,0,0,1-.35,0,.58.58,0,0,1-.37.06.63.63,0,0,1-.31-.12.63.63,0,0,1-.34,0,.64.64,0,0,1-.31-.15.68.68,0,0,1-.35,0,.7.7,0,0,1-.31-.17.62.62,0,0,1-.35,0A.57.57,0,0,1,29,10a.66.66,0,0,1-.36,0,.63.63,0,0,1-.29-.18.57.57,0,0,1-.33,0l-.16-.09"/><path class="cls-2" d="M28.25,11.83c-.14-.3-.34-.3-.61-.39a8.74,8.74,0,0,1-1-.58,8.5,8.5,0,0,0-2.32-1,6.29,6.29,0,0,0-2.48.09,11.94,11.94,0,0,0-1.18.29c-.19.05-.38.12-.57.19l-.28.12-.07,0a.43.43,0,0,0-.58.13l-.07.1a.49.49,0,0,0,.21.74.89.89,0,0,0,.39,0,.41.41,0,0,0,0,.11,8.15,8.15,0,0,0,.16.86c0,.19,0,.37.05.56,0,.47.11.78.57,1a5.37,5.37,0,0,0,1.43.31c.56.08,1.13.13,1.7.17s1.08.05,1.62.05H26a1.52,1.52,0,0,0,.67-.07c.42-.2.47-.91.52-1.31a2.56,2.56,0,0,0,0-.39v-.2l.25,0,.43-.06A.49.49,0,0,0,28.25,11.83Z"/><path class="cls-3" d="M20,13.81a.38.38,0,0,1-.18-.18l-.21-1.86"/><path class="cls-3" d="M23.28,14.59a17.75,17.75,0,0,1-1.85-.31"/><line class="cls-3" x1="27.31" y1="13.18" x2="27.52" y2="12.58"/><path class="cls-3" d="M23.26,14.59c1.91.22,3.42.13,3.59-.15l.1-.26"/><path class="cls-3" d="M21,11.49c-.86-.21-1.39-.44-1.37-.62s.42-.46,1.06-.74"/><path class="cls-3" d="M22,9.72a6.21,6.21,0,0,1,1.84-.08c2.23.26,3.86,1.84,3.82,2.17s-1.87.38-4.1.12c-.38,0-.76-.09-1.11-.15"/><path class="cls-3" d="M20,10.52a.41.41,0,0,0-.23,0,.48.48,0,0,0-.29.11.43.43,0,0,0-.31,0c-.18.08-.28.23-.23.33h0l0,0c-.06.1,0,.28.23.41a.83.83,0,0,0,.33.12.55.55,0,0,0,.31.22.64.64,0,0,0,.32,0,.71.71,0,0,0,.64.18.56.56,0,0,0,.31.15.58.58,0,0,0,.35,0,.63.63,0,0,0,.33.15.78.78,0,0,0,.35,0,.67.67,0,0,0,.33.13.69.69,0,0,0,.33,0,.67.67,0,0,0,.32.11h.2"/><path class="cls-3" d="M27.41,11.38a.56.56,0,0,1,.49.19.4.4,0,0,1,.3.11c.15.11.22.28.15.37h0s0,0,0,0-.11.26-.32.34a.75.75,0,0,1-.34.05.57.57,0,0,1-.36.14.64.64,0,0,1-.32,0,.76.76,0,0,1-.33.09.61.61,0,0,1-.33-.06.59.59,0,0,1-.34.07.53.53,0,0,1-.34-.09.61.61,0,0,1-.35.07.72.72,0,0,1-.34-.1.63.63,0,0,1-.27.06"/><path class="cls-3" d="M23.23,12.44a.77.77,0,0,0,.27.09.66.66,0,0,0,.3,0"/><path class="cls-4" d="M25.18,14.93a.46.46,0,0,0-.13-.21L25,14.64a.54.54,0,0,0-.25-.06h0a.31.31,0,0,0-.19,0,.41.41,0,0,0-.18.05.33.33,0,0,0-.13.13.32.32,0,0,0-.09.16l0,.13a.55.55,0,0,0,.07.25l.08.1a.45.45,0,0,0,.21.12l.16,0h.12a.41.41,0,0,0,.19,0,.33.33,0,0,0,.15-.11.31.31,0,0,0,.1-.15.41.41,0,0,0,.05-.19Z"/><path class="cls-5" d="M34.35,21.43l0,.06.21-5.61-4.21-.25L10.13,14.34,9.77,20l9.8.64h0l-15-1-.09.53,14.61.93a5.61,5.61,0,0,0-.82,2.15,2.33,2.33,0,0,0-.05.28.49.49,0,0,0,.06.25,2.12,2.12,0,0,0-.05.44.32.32,0,0,0,0,.17.24.24,0,0,0-.06.2s0,.06,0,.1h0a6.56,6.56,0,0,0,1,2.91,4.13,4.13,0,0,0,2.42,1.69,6.4,6.4,0,0,0,1.63.11,4.83,4.83,0,0,0,1.65-.31,4.73,4.73,0,0,0,2.15-1.95,6.67,6.67,0,0,0,.71-3.49.34.34,0,0,0-.1-.25,3.79,3.79,0,0,0-.4-1.48,1.78,1.78,0,0,0-.17-.3l7.42.47.05-.52-.35,0A.33.33,0,0,0,34.35,21.43ZM19,25a.28.28,0,0,0,0-.15h0c.07.41.14.81.25,1.21,0,.1.06.2.1.3A6.61,6.61,0,0,1,19,25Zm6.52-3.29a3.71,3.71,0,0,1,.5.92,2.84,2.84,0,0,1,.21,1c0,.11,0,.22,0,.34-.86,0-1.72,0-2.57.06l.05-.06c.59-.79,1.15-1.6,1.7-2.41Zm-2,5.41c0-.35,0-.71,0-1.07v0l0,0a5.06,5.06,0,0,0,.47.67,5.7,5.7,0,0,1,.42.55,1.42,1.42,0,0,0,.36.41c-.19.17-.37.33-.57.48a1.67,1.67,0,0,1-.71.25,1.94,1.94,0,0,0,0-.24C23.58,27.83,23.53,27.48,23.53,27.13Zm0-5.33a1.7,1.7,0,0,0,0-.39l.81.05,0,0a8.52,8.52,0,0,0-.77,1,.49.49,0,0,1,0-.12A3,3,0,0,1,23.58,21.8Zm2.68,2.93c-.1.38-.23.76-.34,1.15a.3.3,0,0,0,0,.25,3.11,3.11,0,0,0-.4.68s-.05.08-.07.13c-.29-.43-.6-.85-.89-1.27a10.2,10.2,0,0,0-1-1.21c.89,0,1.78-.08,2.68-.07C26.29,24.5,26.28,24.62,26.26,24.73Zm-6.43-1.31a4.34,4.34,0,0,1,.36-1.16.72.72,0,0,0,0-.28l.05-.07c.06-.12.12-.22.18-.32a12.79,12.79,0,0,1,.83,1.05c.35.48.69,1,1.07,1.42a.08.08,0,0,0,0,0c-.88,0-1.75,0-2.62-.07C19.8,23.83,19.8,23.63,19.83,23.42Zm1.59-2.15,1,.07a1.5,1.5,0,0,0,0,.37v.89l-.37-.51C21.85,21.81,21.64,21.54,21.42,21.27Zm1,7.39h-.08a.37.37,0,0,0-.27-.34l-.17-.07a3,3,0,0,1-.58-.33l-.19-.17.09-.11c.15-.22.32-.41.48-.64s.29-.47.44-.71.19-.29.29-.44l-.06.86A15.87,15.87,0,0,0,22.45,28.66Zm.16-4.16a.33.33,0,0,0-.15.24.27.27,0,0,0-.25,0l-.21.08a.4.4,0,0,0-.27.42c-.06.08-.13.16-.19.25s-.27.43-.41.65-.4.64-.62.94c-.08-.16-.16-.31-.23-.46a6.39,6.39,0,0,1-.24-.74,14,14,0,0,1-.3-1.43v0c1,0,1.92.07,2.88.06Zm-1.67-3.79h0l3.85.26h0Zm5.74,5.6a.3.3,0,0,0-.05-.21s0,0,0,0a12,12,0,0,0,.37-1.3s0-.07,0-.1A4.86,4.86,0,0,1,26.68,26.31ZM27,24.25c0-.19,0-.38,0-.57a.35.35,0,0,0,.05.08C27.05,23.92,27.05,24.09,27,24.25ZM25.66,21h0l4.13.27h0Z"/><path class="cls-5" d="M20.19,21.21c-.21-.1-.34.13-.42.28a7.57,7.57,0,0,0-.4,1l-.09.24a.2.2,0,0,0-.09.11,4.35,4.35,0,0,0-.1.52.25.25,0,0,1,0,.08,2.54,2.54,0,0,0,0,.29h0a.43.43,0,0,1,0,0,.16.16,0,0,0,.12.17s0,0,.06,0a2.29,2.29,0,0,0,.37,0l.08,0h0l0,0s0,0,0,0,0,0,0-.05a0,0,0,0,0,0,0h0v-.05l0,0a3.1,3.1,0,0,0,.1-.53A5.36,5.36,0,0,1,20,22.7q.09-.27.21-.54a2.72,2.72,0,0,0,.11-.25.73.73,0,0,0,.11-.29A.51.51,0,0,0,20.19,21.21Z"/><path class="cls-5" d="M22.4,22.8a.5.5,0,0,0-.11-.36,4.43,4.43,0,0,1-.43-.54.09.09,0,0,0,0-.12,1.54,1.54,0,0,1-.17-.19c-.05-.07-.08-.14-.14-.21a.18.18,0,0,0-.1-.07.36.36,0,0,0-.15,0H21c-.08,0-.13.11-.07.16l.18.14h0a1.29,1.29,0,0,0,.19.32l.25.33c.17.24.32.48.47.74a.17.17,0,0,0,.13.09,2,2,0,0,1,.1.21c0,.1.19.09.18,0Z"/><path class="cls-5" d="M23.5,22.16a2.16,2.16,0,0,0,0-.44.13.13,0,0,1,0-.06,0,0,0,0,1,0,0,.25.25,0,0,0,0-.07.11.11,0,0,0,0-.08.19.19,0,0,0-.09-.11l0,0a.17.17,0,0,0-.1,0l-.06,0v0l-.18,0a.19.19,0,0,0-.16.29.42.42,0,0,1,0,.23c0,.12,0,.23,0,.35l0,.69a.16.16,0,0,0,0,.12h0l-.05.16a.09.09,0,0,0,.17.07l.09-.18a.28.28,0,0,0,.11-.08.85.85,0,0,0,.11-.26v0c.05-.07.09-.14.14-.2a.08.08,0,0,0,0-.1l0,0a.17.17,0,0,0,0-.16A.18.18,0,0,0,23.5,22.16Z"/><path class="cls-5" d="M25.08,21.5h0l-.05,0a.23.23,0,0,0-.18.05,3,3,0,0,0-.25.26,5.41,5.41,0,0,0-.46.61c-.26.4-.51.81-.76,1.21a.2.2,0,0,0-.1.24.17.17,0,0,0,.13.16.76.76,0,0,0,.21,0,.22.22,0,0,0,.17-.12l.06-.06a5.29,5.29,0,0,1,.72-1c.13-.16.25-.34.37-.52a2.64,2.64,0,0,1,.38-.5C25.46,21.65,25.26,21.38,25.08,21.5Z"/><path class="cls-5" d="M25.29,26.72,25,26.26l-.69-1-.07-.06a.18.18,0,0,0,0-.09l0,0,0,0h0L24,25c0-.06-.07-.13-.11-.2a1.82,1.82,0,0,0-.15-.23.36.36,0,0,0-.35-.12.17.17,0,0,0-.13.13l0,0a.21.21,0,0,0-.05.13.24.24,0,0,0,.05.14,3.85,3.85,0,0,1,.27.3s0,0,.06,0h0a3.79,3.79,0,0,0,.2.34l.39.59.39.59.18.27a1,1,0,0,1,.15.2.19.19,0,0,0,.34.05,1.13,1.13,0,0,0,.16-.26A.35.35,0,0,0,25.29,26.72Z"/><path class="cls-6" d="M24.1,25.09Z"/><path class="cls-5" d="M23.51,26.19a.5.5,0,0,0,0-.32c-.07-.1-.15-.18-.21-.28a1.61,1.61,0,0,1-.12-.33c-.05-.2-.39-.16-.37,0,.08,1,0,1.9,0,2.85a.33.33,0,0,0,.05.12l0,.07a.19.19,0,0,0,.18.24,2.5,2.5,0,0,0,.38-.06.2.2,0,0,0,.13-.19c0-.57,0-1.14,0-1.72C23.51,26.48,23.51,26.33,23.51,26.19Z"/><path class="cls-5" d="M22.11,25.24a9.46,9.46,0,0,1-.66,1c-.25.36-.47.74-.71,1.1,0,0,0,0,0,0l0,0-.05.05a.14.14,0,0,0,0,.07.17.17,0,0,0,0,.07.15.15,0,0,0,.08.11l.05,0a.17.17,0,0,0,.1,0H21s0,0,0,0l-.32,0a.1.1,0,0,0-.07.18,5.39,5.39,0,0,0,.48.25,1.2,1.2,0,0,0,.24.15l.25.13a.42.42,0,0,0,.29.06h0l.32.13c.11,0,.15-.12.08-.18a1,1,0,0,0-.33-.13,4,4,0,0,1-.7-.45.1.1,0,0,0-.06-.09l-.12,0,.07,0a.2.2,0,0,0,.08-.12,0,0,0,0,0,0,0l0,0c.22-.35.45-.7.68-1,.12-.17.25-.33.37-.49a.52.52,0,0,0,.06-.3,1,1,0,0,1,0-.3A.19.19,0,0,0,22.11,25.24Z"/><path class="cls-5" d="M20.45,26.83s-.05-.09-.07-.13l-.24-.41a.13.13,0,0,0,0-.06c-.07-.25-.14-.5-.19-.76a3.36,3.36,0,0,1-.08-.77.21.21,0,0,0-.19-.19,2.74,2.74,0,0,1-.5,0,.2.2,0,0,0-.19.19,4.72,4.72,0,0,0,.66,2s.05.11.08.16a.35.35,0,0,0,.1.08l0,.17a.3.3,0,0,0,.27.23.19.19,0,0,0,.16-.1l.06-.09v0h0l0,0A.24.24,0,0,0,20.45,26.83Z"/><path class="cls-5" d="M27.52,22.5a.17.17,0,0,0-.06-.1l-.13-.48a.24.24,0,0,0-.08-.13v0a.23.23,0,0,0-.11-.09,2.4,2.4,0,0,0-.46-.05.19.19,0,0,0-.17.12.19.19,0,0,0,0,.2l0,0,0,.06s0,0,0,0a.29.29,0,0,0,0,.18A5,5,0,0,1,27,24.1a7.88,7.88,0,0,1-.2,1.87.22.22,0,0,0,0,.08h0a.28.28,0,0,0-.13.31,4.45,4.45,0,0,1-1.05,1.74.34.34,0,0,0-.06.12,3.09,3.09,0,0,0-.39.33l-.12.11-.37.14a4.92,4.92,0,0,1-.83.41.09.09,0,0,0,0,.18,2.38,2.38,0,0,0,1-.33h.07l.49-.27c.11-.07.24-.13.36-.21a.27.27,0,0,0,.24-.07,5.47,5.47,0,0,0,.84-1.15.17.17,0,0,0,.16-.09s0,0,0,0a.24.24,0,0,0,.06-.11,9.9,9.9,0,0,0,.44-.93.16.16,0,0,0,0-.15,1.12,1.12,0,0,0,.1-.31,5.33,5.33,0,0,0,.16-1.05A5.18,5.18,0,0,0,27.52,22.5Z"/><path class="cls-5" d="M34.32,21.56h0l.16-5.69-4.05-.23-.29,5.67h.32a.46.46,0,0,0-.14.05l-.2,0a.32.32,0,0,0-.14,0,.2.2,0,0,0-.14.14.49.49,0,0,0,0,.17.19.19,0,0,0,.16.19.17.17,0,0,0,.12,0,.12.12,0,0,0,.07-.07h.05a.23.23,0,0,0,.25.14,7.08,7.08,0,0,1,.92,0l.93.12c.64,0,1.28.07,1.92.11C34.65,22.14,34.66,21.61,34.32,21.56Zm-2-.12,1.7.1c-.54,0-1.08-.05-1.62-.1Z"/><path class="cls-7" d="M16.94,10.18a.37.37,0,0,0-.2-.09,3.27,3.27,0,0,0-.54,0A.3.3,0,0,0,16,10a10.28,10.28,0,0,1-1.11,0c-.38,0-.76,0-1.14,0a2.35,2.35,0,0,0-1.07.26c-.33.2-.64.47-.56.88a.09.09,0,0,0,0,0s0,0,0,.06,0,.07,0,.07v0l0,0a.37.37,0,0,1,0,.11,2.85,2.85,0,0,0-.12.31s0,0,0,.06h0a.44.44,0,0,0-.23.17.54.54,0,0,0-.05.21.29.29,0,0,0,0,.13.77.77,0,0,0,.07.16l.08.16.18.34a.28.28,0,0,0,.12.12c.06.19.13.37.18.56a.18.18,0,0,0,.36-.05,5.49,5.49,0,0,1,.07-.91l.15-.92.12.09a1.47,1.47,0,0,0,.28.14.14.14,0,0,0,.14.08h0l.12.05,0,0,0,0a2.75,2.75,0,0,0-.22.26.3.3,0,0,0,0,.1.17.17,0,0,0,0,.07l0,.06a.26.26,0,0,0,.09.05h.05a.17.17,0,0,0,.1,0,.24.24,0,0,0,.09-.08s0,0,0-.05l.11-.13a.09.09,0,0,0,0-.06.14.14,0,0,0,0-.06l.19.13a.47.47,0,0,0,.46,0,.48.48,0,0,0,.16-.19h0a.69.69,0,0,0,.28-.08h0l.09,0h.09a.28.28,0,0,0,.15-.54,1,1,0,0,0-.3,0v0a.62.62,0,0,0,0-.27.82.82,0,0,0-.19-.37l0,0,.09,0,.1,0a.53.53,0,0,0,.18-.05.13.13,0,0,0,.07-.06,5.34,5.34,0,0,0,.8,0,.5.5,0,0,0,.23-.09h.12l.1,0h.34a.27.27,0,0,0,.2-.09.26.26,0,0,0,.08-.19A.28.28,0,0,0,16.94,10.18Z"/><path class="cls-7" d="M10.32,4.68a.4.4,0,0,0-.4-.09s0,0,0,0c-.06-.22-.16-.39-.4-.43-.08,0-.17-.11-.23-.2v0A1.74,1.74,0,0,0,8.13,2.71a.35.35,0,0,0-.25,0,.42.42,0,0,0-.41-.15h0a.33.33,0,0,0-.26.28,5.44,5.44,0,0,0-.57,0,4.89,4.89,0,0,0-1.26.21A1.26,1.26,0,0,0,4.61,4l-.15.61a.34.34,0,0,0-.19.2,3.93,3.93,0,0,0-.61.54c-.12.13-.22.26-.33.4l-.07.11-.12-.07a1.27,1.27,0,0,0-.54-.14c-.44,0-.66.47-.67.85v0a.35.35,0,0,0,0,.25c0,.17.09.34.14.51s.05.16.08.24a2.71,2.71,0,0,0,.13.3.66.66,0,0,0,.63.27L3,8v0h0l.08.11,0,0,0,.07.06.08,0,.05c.1.16.19.32.28.49s.31.58.49.87c0,0,0,0,0,.08a.35.35,0,0,0,.23.34.31.31,0,0,0,.13,0l0,0,.1.12a2.61,2.61,0,0,0,.31.27,5.72,5.72,0,0,0,.67.41c.5.27,1,.81,1.54,1.06.21.1.48-.25.54-.5s.09-.38.13-.58a2.63,2.63,0,0,1,.1-.47A.45.45,0,0,0,8,10.36a3.68,3.68,0,0,1,.44-.8A7.57,7.57,0,0,1,9,8.81,5.45,5.45,0,0,0,9.86,7a.34.34,0,0,0,0-.2,1.28,1.28,0,0,0,.68-.94A1.23,1.23,0,0,0,10.32,4.68Z"/><path class="cls-1" d="M8.94,4.72a.76.76,0,0,0-.64-.44.48.48,0,0,0-.44.22.35.35,0,0,0,0,.33.22.22,0,0,0,0,.13h0a.17.17,0,0,1,0,.07h0v0h0l0,.07h0l.05.06L8,5.29H8l0,.13,0,.16a2,2,0,0,0,.07.23A.3.3,0,0,0,8.53,6a.55.55,0,0,0,.23-.14A.82.82,0,0,0,9,5.54.94.94,0,0,0,8.94,4.72Z"/><path class="cls-1" d="M7.05,5.15a.45.45,0,0,0-.12-.21l0,0,0,0a.52.52,0,0,0-.39-.24.53.53,0,0,0-.33,0A.38.38,0,0,0,6,4.75a.61.61,0,0,0-.29.34,1,1,0,0,0,.11.84A.3.3,0,0,0,6,6.05l0,.09a.47.47,0,0,0,.45.12.38.38,0,0,0,.21-.13h0A.65.65,0,0,0,7,5.52v0s0,0,0,0a.49.49,0,0,0,0-.12A.34.34,0,0,0,7.05,5.15Z"/><path class="cls-7" d="M4.54,19.74a5.83,5.83,0,0,0,0-.72c0-.23-.21-.3-.4-.4s-.4-.18-.6-.27A2.18,2.18,0,0,1,3,18.1C2.78,18,2.52,18,2.31,18a5.2,5.2,0,0,0-.68.06.19.19,0,0,0-.08.31l.09.11a.1.1,0,0,0,.05.06h0a1.18,1.18,0,0,0,0,.46,1,1,0,0,0,.27.41.52.52,0,0,0,.5.18,1.71,1.71,0,0,1,0,.32.26.26,0,0,0,0,.11h0a.19.19,0,0,0-.19.32.71.71,0,0,0,.79,0s0,0,.06-.05a.75.75,0,0,0,.25.09,1.3,1.3,0,0,0,.44-.06.21.21,0,0,0,.11-.08H4l.08,0,.12,0a.28.28,0,0,0,.28,0C4.59,20.21,4.54,19.92,4.54,19.74Z"/><path class="cls-8" d="M12.48,14.21a5.71,5.71,0,0,1-.91-1.83c-.05-.22-.34-.15-.37,0a1.83,1.83,0,0,1-.36.69l-.23.33-.08.09a.28.28,0,0,0-.12,0A7.41,7.41,0,0,0,9.59,12a6.62,6.62,0,0,0-1.29-1.3.28.28,0,0,0-.47.2,2.48,2.48,0,0,1-.15.55,2.56,2.56,0,0,1-.16.49s-.12.13-.15.13C6.51,12,5.78,11.15,5,10.79a.37.37,0,0,0-.18,0,2.73,2.73,0,0,0-.21-.3,1.31,1.31,0,0,0-.5-.4h0v0a.14.14,0,0,0,0-.11.15.15,0,0,0-.06-.09l0-.05a.23.23,0,0,0-.11,0H3.82a.2.2,0,0,0-.11,0l-.06.05a.35.35,0,0,0-.07.12s0,0,0,.06a.53.53,0,0,0,0,.13v.05a1.64,1.64,0,0,0-.7.31,5,5,0,0,0-.48.63,5.67,5.67,0,0,0-.53.66,2.53,2.53,0,0,0-.18.37,1.24,1.24,0,0,0-.11.28c-.18.26-.37.51-.56.76a3.09,3.09,0,0,0-.51.73,2.36,2.36,0,0,0-.07.88c0,.12,0,.24,0,.36h0a3.09,3.09,0,0,0,0,.61s0,0,0,.05c-.05.34,0,.68-.07,1a6.18,6.18,0,0,0-.07,1.05.27.27,0,0,0,0,.15c-.12.1-.07.35.11.33a1.05,1.05,0,0,0,.36-.15A7.51,7.51,0,0,1,2.17,18,.19.19,0,0,0,2.26,18h.05a4.73,4.73,0,0,0,.65,0,.14.14,0,0,0,0,.11.19.19,0,0,0,.14.09l.15.08.28.12a5,5,0,0,1,.48.21,1.42,1.42,0,0,1,.41.28.9.9,0,0,1,.16.36.29.29,0,0,0,.21.47c.23,0,.46,0,.7,0a4.85,4.85,0,0,1,.76,0,.17.17,0,0,0,.12,0,6.23,6.23,0,0,0,.74.09,1.82,1.82,0,0,0,.33,0,.89.89,0,0,0,.58,0l0,0,.59.05a.27.27,0,0,1,0-.09,6.9,6.9,0,0,1,.57-1c.16-.27.26-.57.41-.85a.41.41,0,0,1,.21-.18v-.1a2.15,2.15,0,0,0,0-.62s0,0,0,0c0-.47.09-1,.14-1.43a8.88,8.88,0,0,0,.07-1.15c.33,0,.66,0,1,.07l.6.05a3.74,3.74,0,0,1,.58,0C12.41,14.51,12.58,14.35,12.48,14.21Z"/><path class="cls-2" d="M1.77,19.29v0s0,0,0,0l0,0H1.63a.08.08,0,0,0,0,0v.07l0,.05s0,0,0,0l0,0h.08v0s0,0,0,0v0A.07.07,0,0,0,1.77,19.29Z"/><path class="cls-5" d="M2.32,19.66c-.17,0-.31-.12-.47-.14s-.4,0-.6,0a2.78,2.78,0,0,1-.57-.07.44.44,0,0,0-.23,0,.17.17,0,0,0-.26.16.43.43,0,0,1,0,.11.19.19,0,0,0,.23.23.05.05,0,0,0,0,0,.91.91,0,0,0,.33,0l0,0H.94l.45.06a7.32,7.32,0,0,0,.93.09A.19.19,0,0,0,2.32,19.66Z"/><path class="cls-8" d="M10.81,26.23a.64.64,0,0,0-.05-.17,34,34,0,0,1-1.47-3.12.22.22,0,0,0,0-.08,3.16,3.16,0,0,1-.33-.56c-.05-.09-.1-.22-.13-.29s-.09-.2-.12-.29a4.61,4.61,0,0,0-.52-1.07.18.18,0,0,0-.09-.19l-.14-.05a.39.39,0,0,0-.36,0c-.13,0-.26,0-.39,0a2.83,2.83,0,0,0-.42-.06,2.19,2.19,0,0,1-.36,0,.25.25,0,0,0-.18-.07L5,20.26H4.52l0,0a.1.1,0,0,0,0,0l0,.05a.43.43,0,0,0,0,.05.33.33,0,0,1-.29,0h0a2.2,2.2,0,0,1,.55.66.42.42,0,0,1,0,.16h.12l0,0h0l.05.06.1.12.18.22.05.07a.89.89,0,0,0-.07.19c-.07.23-.14.44-.22.66s-.14.3-.2.45a.26.26,0,0,0,.06.25c-.12.29-.26.57-.38.86S4.15,25,4,25.49a.17.17,0,0,0,0,.12L3.85,26a.19.19,0,0,0,0,.18c-.23.5-.43,1-.63,1.51,0,0,0,0,0,0h0l0,.05h0v.1l0,0s0,0,.05.06l0,0h.05a0,0,0,0,0,0,0h0a.37.37,0,0,0,.29,0,.35.35,0,0,1,.13,0l.48,0c.31,0,.62,0,.94-.06a.31.31,0,0,0,.27-.21l.29-.81a.28.28,0,0,0,0-.18c.21-.45.43-.91.63-1.37.1-.23.19-.46.28-.7a2.15,2.15,0,0,1,.17-.34c.13.16.26.33.4.49a.36.36,0,0,0,.07.24c.64.82,1.16,1.73,1.8,2.54a.28.28,0,0,0,.44-.05,1.83,1.83,0,0,1,.47-.41l.63-.45A.31.31,0,0,0,10.81,26.23Z"/><path class="cls-4" d="M7.41,28.46l-.06-.05A4.41,4.41,0,0,0,6,27.88a2.16,2.16,0,0,0-.76,0,1.89,1.89,0,0,0-.65.2l-.36,0L4,28H3.9l-.16,0a.28.28,0,0,0-.35.27h0l-.1.1c-.11.17-.15.36-.26.52l0,0H3S3,29,3,29a.2.2,0,0,0,0,.15.38.38,0,0,0,.37.37.38.38,0,0,0,.25-.09h0a2.11,2.11,0,0,1,.25,0l.28,0a5.56,5.56,0,0,0,.58,0,7.35,7.35,0,0,1,1.15,0,3.14,3.14,0,0,0,1.06,0c.36.06.8.12.94-.23S7.7,28.58,7.41,28.46Z"/><path class="cls-4" d="M13,25.23a.31.31,0,0,0-.23-.08,2.54,2.54,0,0,0-1.12.44,3.3,3.3,0,0,0-.72.86,3.54,3.54,0,0,0-.54.39c-.09.08-.16.18-.25.26l0,0h0l0,0,0,0h0s-.13,0,0,0a.32.32,0,0,0-.25.14.31.31,0,0,0,0,.28,1.3,1.3,0,0,0,.1.15.4.4,0,0,0,0,.15,4.48,4.48,0,0,0,.43.64,2.4,2.4,0,0,1,.17.32,1.36,1.36,0,0,0,.14.33c.17.22.36.29.55.11a2.77,2.77,0,0,0,.43-.77c.19-.4.48-.83.66-1.24a.28.28,0,0,0,.12-.12c.28-.52.58-1,.91-1.53A.29.29,0,0,0,13,25.23Z"/><path class="cls-3" d="M9.6,7.7A3,3,0,0,1,9.44,8C8.64,9.33,8,9.92,7.86,10.8"/><path class="cls-3" d="M10,5.1a5.58,5.58,0,0,1-.06,1.53A5.56,5.56,0,0,1,9.6,7.7"/><path class="cls-3" d="M8.84,2.68A3.88,3.88,0,0,1,10,5.1"/><path class="cls-3" d="M3.05,8.12c.36.79.88,1.49,1.07,2"/><path class="cls-3" d="M2.71,4.37a4.85,4.85,0,0,0-.18,1.31"/><polygon class="cls-3" points="30.17 21.31 9.77 19.97 10.13 14.34 30.48 15.64 30.17 21.31"/><polyline class="cls-3" points="4.58 19.66 34.59 21.59 34.55 22.11 4.49 20.19"/><polyline class="cls-3" points="2.4 20.05 0.2 19.91 0.24 19.38 1.87 19.49"/><line class="cls-3" x1="29.9" y1="21.31" x2="29.87" y2="21.81"/><polyline class="cls-3" points="30.39 15.63 34.59 15.88 34.39 21.49"/><path class="cls-3" d="M2.5,19.67s-1,.11-.85-1.12"/><path class="cls-3" d="M2.61,19.85a.29.29,0,0,1-.09-.34"/><path class="cls-3" d="M3.3,19.18l-.14,1.05c-.05.37-.41.34-.6.32a.44.44,0,0,1-.41-.42.1.1,0,0,0,0,0"/><path class="cls-3" d="M3.13,20.4a.47.47,0,0,0,.37.12c.24,0,.38-.08.42-.46s.1-.86.1-.86"/><path class="cls-3" d="M4.55,19.1v-.05a.44.44,0,0,0-.3-.4L3,18.12"/><path class="cls-3" d="M3.89,20.33a.58.58,0,0,0,.27.07c.27,0,.33-.23.36-.47a8,8,0,0,0,0-.83"/><path class="cls-3" d="M2.55,19.78a.68.68,0,0,0-.11.41"/><line class="cls-3" x1="10.71" y1="29.31" x2="9.65" y2="27.42"/><path class="cls-3" d="M10.46,27.56a4.81,4.81,0,0,1,.67-1.43c.43-.56,1.24-1.34,2.08-.89,0,0,.25.13.14.34s-2.1,3.62-2.1,3.62-.24.45-.54.11"/><path class="cls-3" d="M3,29.08s-.16.37.37.37H7.43A.44.44,0,0,0,7.88,29c0-.49-1.11-1.12-2.32-1.07a3.24,3.24,0,0,0-1.37.35"/><polyline class="cls-3" points="8.09 20.45 10.91 26.41 9.27 27.72 4.27 20.45"/><path class="cls-3" d="M4.94,28c-.27,0-1.82,0-1.82,0l2.07-6.22"/><line class="cls-3" x1="5.43" y1="27.9" x2="6.86" y2="24.21"/><path class="cls-3" d="M7.87,29.08H3l.4-1"/><line class="cls-3" x1="13.12" y1="25.2" x2="10.77" y2="29.36"/><path class="cls-3" d="M.44,14.25a1,1,0,0,1,.12-.49l1.72-2.59s.84-1.51,2-1a1.16,1.16,0,0,1,.58,1"/><path class="cls-3" d="M1.65,18.55a2.24,2.24,0,0,1-.2-.41"/><line class="cls-3" x1="2.95" y1="18.12" x2="2.94" y2="18.01"/><line class="cls-3" x1="1.6" y1="18.83" x2="1.52" y2="19.43"/><line class="cls-3" x1="3.25" y1="12.28" x2="2.89" y2="14.97"/><path class="cls-3" d="M13.56,10.09S11.9,10,12,11.37l-.52,1"/><path class="cls-3" d="M14.07,10.94a16.7,16.7,0,0,0,2.33-.21c.64-.12.7-.29.67-.46s-.3-.14-.3-.14l-3.21,0"/><path class="cls-3" d="M14.23,11.79s-.29-.26-.58-.47"/><path class="cls-3" d="M14.26,11.91l0-.12a1,1,0,0,1,1.2,0c.12.14,0,.32-.22.36a2.31,2.31,0,0,0-.82.37.28.28,0,0,1-.35,0L13,12.06a1,1,0,0,1-.47-.48.83.83,0,0,1-.07-.3"/><path class="cls-3" d="M14.15,10.76a1.26,1.26,0,0,1-.4.59"/><path class="cls-3" d="M14.77,11l.12.25s.11.29-.1.4"/><path class="cls-3" d="M13.93,11.17l.05.09.45.11"/><path class="cls-3" d="M14,11.26a.43.43,0,0,0-.17.16"/><path class="cls-3" d="M13.86,12.56l-.3.23c-.08.06-.22.12-.28.06s-.1-.26.12-.57"/><path class="cls-3" d="M7.91,10.57a6.61,6.61,0,0,1-.39,1.69l.16.78"/><path class="cls-3" d="M7.91,10.57s1.45.31,2.53,3.06"/><path class="cls-3" d="M3.58,10.09a.77.77,0,0,1,.3-.48"/><path class="cls-3" d="M4.72,10.58a10.55,10.55,0,0,0,2.8,1.68"/><path class="cls-3" d="M3.94,9.91l.26.23"/><path class="cls-3" d="M.44,14.21.3,18.55S.14,18.12,3.07,18l-.18-3a1.23,1.23,0,0,0-.82-.15"/><path class="cls-3" d="M1.6,18.79h0"/><path class="cls-3" d="M.3,18.55s0,.27,1.3.24"/><line class="cls-3" x1="12.83" y1="11.97" x2="12.41" y2="14.11"/><path class="cls-3" d="M11.83,11.75s-.38-.06-.38.39.8,1.52,1.05,2.28"/><path class="cls-3" d="M12.68,12.74a5.32,5.32,0,0,1,.15,1.77"/><path class="cls-3" d="M11.52,11.88l-1.08,1.75v.42"/><path class="cls-4" d="M1.61,18.5a1.07,1.07,0,0,0-.15-.22.38.38,0,0,0-.28-.12,1.49,1.49,0,0,0-.52.05.16.16,0,0,0-.12.12.16.16,0,0,0-.16.12.19.19,0,0,0,.13.23,5.87,5.87,0,0,0,.94.09.17.17,0,0,0,.16-.09A.23.23,0,0,0,1.61,18.5Z"/><path class="cls-3" d="M2.62,4.61c-.05,0-.08,0-.09-.07-.06-.24,1.36-.83,3.18-1.32s3.35-.71,3.42-.47c0,0,0,.08-.07.13"/><path class="cls-3" d="M3.22,6a.79.79,0,0,0-.79-.27c-.58.16-.6.85-.48,1.34s.42,1.11,1,1a.58.58,0,0,0,.47-.47"/><path class="cls-3" d="M2.67,6.28a.82.82,0,0,1,.14.35A4.78,4.78,0,0,0,3,7.3"/><path class="cls-3" d="M2.41,6.74a.34.34,0,0,0,.43.11"/><path class="cls-3" d="M2.61,6.87a.37.37,0,0,1-.12.37"/><path class="cls-3" d="M9.9,4.48H10c.59.13.65.81.57,1.31A1.36,1.36,0,0,1,9.9,6.87"/><path class="cls-3" d="M10.13,5.5a.43.43,0,0,1-.12.11"/><path class="cls-3" d="M10,5.93a.6.6,0,0,0,.08.08"/><polyline class="cls-3" points="7.66 4.52 8.55 6.84 7.52 6.25"/><path class="cls-3" d="M8.27,6h.16a.82.82,0,0,0,.64-1,.81.81,0,0,0-.82-.79.71.71,0,0,0-.53.39"/><ellipse class="cls-3" cx="6.37" cy="5.44" rx="0.74" ry="0.87" transform="matrix(0.99, -0.11, 0.11, 0.99, -0.54, 0.7)"/><path class="cls-4" d="M6.63,5.11a.32.32,0,0,1,.28.58A.32.32,0,0,1,6.63,5.11Z"/><path class="cls-4" d="M8.59,4.85a.32.32,0,0,1,.28.58A.32.32,0,0,1,8.59,4.85Z"/><path class="cls-3" d="M5.92,3.16A4.78,4.78,0,0,1,4.79,5.68a4.87,4.87,0,0,0,0-1.79"/><path class="cls-3" d="M4.79,3.83s-.24,2-1.75,2"/><path class="cls-3" d="M2.59,8.05s.05,1.28.94,1.12"/><path class="cls-3" d="M2.67,4.37a2.05,2.05,0,0,0-.3,1.34"/><path class="cls-3" d="M7.8,2.75A4,4,0,0,0,9.08,4.19a4.58,4.58,0,0,1-.38-1A2.69,2.69,0,0,0,9.8,4.27"/><path class="cls-3" d="M6.63,3a3.25,3.25,0,0,0,.68.72,3.6,3.6,0,0,1-.17-.83"/><path class="cls-3" d="M10.13,6.73c.07,0,.28,2-1.05,1.85"/><path class="cls-4" d="M10.14,6.86A.09.09,0,0,0,10,6.8a.58.58,0,0,0-.21.34c-.05.15-.07.3-.12.45A3.25,3.25,0,0,1,9.5,8a1.39,1.39,0,0,1-.28.39c-.07.07,0,.21.11.15l.07-.05a.09.09,0,0,0,.12,0h0a.08.08,0,0,0,.11,0,1.63,1.63,0,0,1,.17-.11A.38.38,0,0,0,10,8.22a1.49,1.49,0,0,0,.17-.43A1.55,1.55,0,0,0,10.14,6.86Z"/><path class="cls-4" d="M3.52,8.94a.2.2,0,0,0-.08-.12l0-.05,0,0h0l0,0a1.33,1.33,0,0,0-.14-.19l-.12-.2a.48.48,0,0,0-.23-.19.18.18,0,0,0-.12.34l0,0,0,0a.26.26,0,0,0,0,.21l.06.12A.44.44,0,0,0,2.85,9,.18.18,0,0,0,3,9H3a.58.58,0,0,0,.19.16.18.18,0,0,0,.16,0,.15.15,0,0,0,.1,0A.18.18,0,0,0,3.52,8.94Z"/><path class="cls-4" d="M5.87,3.31a.19.19,0,0,0-.22-.11l-.1,0A2.8,2.8,0,0,1,5,3.46l0,0-.13,0a.17.17,0,0,0-.22.11.25.25,0,0,0-.17,0,.44.44,0,0,0-.21.16.37.37,0,0,0-.29,0,.69.69,0,0,0-.13.11l0,0c-.18.07-.36.13-.53.21L3,4.21a.62.62,0,0,0-.17.11.36.36,0,0,0-.08.12h0a.4.4,0,0,0-.12.27s0,.09,0,.13A.28.28,0,0,0,2.52,5a2,2,0,0,1-.06.32.28.28,0,0,0,.33.34h.13v0a.39.39,0,0,0,.49,0l.1-.07h0a.71.71,0,0,0,.52-.32l0,0,0,0a0,0,0,0,0,0,0l.19-.32h0a.32.32,0,0,0,.1-.1l0-.07h0a.13.13,0,0,0,0-.06v0a.22.22,0,0,0,0-.08h0l0-.06a2,2,0,0,0,.22-.57,1.56,1.56,0,0,1,.15.6c0,.17,0,.33,0,.5V5l-.06.13a.3.3,0,0,0,0,.16.18.18,0,0,0,.34.09s0,0,0,0h0l0,0a.24.24,0,0,0,.07-.13.41.41,0,0,0,0-.11c.1-.22.19-.44.28-.66A2.19,2.19,0,0,0,5.7,4a2.21,2.21,0,0,0,0-.25s0-.09,0-.14v0h0A.18.18,0,0,0,5.87,3.31Z"/><path class="cls-4" d="M7.18,3.29v0h0s0,0,0,0l0,0h0v0a1.46,1.46,0,0,1,0-.2.1.1,0,0,0-.14-.05l-.07,0a.1.1,0,0,0-.09-.07.09.09,0,0,0,0,.18.1.1,0,0,0,0,.07h0a.08.08,0,0,0,0,0l.24.26a.08.08,0,0,0,.12,0A.09.09,0,0,0,7.18,3.29Z"/><path class="cls-4" d="M7.16,3.26h0S7.17,3.27,7.16,3.26Z"/><path class="cls-4" d="M9.73,3.86c-.26-.41-.6-.76-.89-1.15a.19.19,0,0,0-.25-.07l-.06.06c-.11-.08-.26-.16-.38,0h0a.16.16,0,0,0-.15,0,.18.18,0,0,0-.07.25l.37.47c.11.15.23.29.33.45a.18.18,0,0,0,.24.07.18.18,0,0,0,.07-.25l-.09-.14-.16-.27.22.16a1.39,1.39,0,0,1,.26.28c.1.12.17.25.28.37S9.84,4,9.73,3.86Z"/><path class="cls-4" d="M11.74,11.85h0a.09.09,0,0,0-.06-.07h0s0,0,0,0a.18.18,0,0,0-.06.09v0h0a.09.09,0,0,0,0,.07v0h0s0,.05,0,.06l0,0h.06a.15.15,0,0,0,.06-.05l0-.08s0,0,0-.05l0,0A.06.06,0,0,0,11.74,11.85Z"/><path class="cls-4" d="M12.85,13.67a.19.19,0,0,0-.08-.15v-.3c0-.05,0-.1-.09-.09a.09.09,0,0,0-.09.09v.3a.16.16,0,0,0-.1.15v.27a.18.18,0,0,0-.12.17.29.29,0,0,0,.07.16l0,0a.05.05,0,0,0,0,0v0a.18.18,0,0,0,.2.13.17.17,0,0,0,.15-.18C12.85,14.1,12.86,13.89,12.85,13.67Z"/><line class="cls-3" x1="23.54" y1="25.99" x2="23.54" y2="28.48"/><line class="cls-3" x1="23.54" y1="21.44" x2="23.54" y2="22.51"/><polyline class="cls-3" points="22.38 25.99 21.19 27.71 20.46 27.71"/><line class="cls-3" x1="25.46" y1="21.55" x2="23.75" y2="24.01"/><line class="cls-3" x1="22.37" y1="22.51" x2="21.54" y2="21.31"/><line class="cls-3" x1="25.43" y1="26.91" x2="23.75" y2="24.5"/><path class="cls-3" d="M26.41,21.61A5.86,5.86,0,0,1,27,24.25c0,2.87-2,5.19-4.41,5.19s-4.42-2.32-4.42-5.19a5.77,5.77,0,0,1,.88-3.1"/><path class="cls-3" d="M27.23,21.67a5.9,5.9,0,0,1,.59,2.58c0,2.87-2,5.19-4.42,5.19"/><path class="cls-3" d="M19.79,24a5,5,0,0,1,.71-2.38"/><path class="cls-3" d="M20.5,26.87a5,5,0,0,1-.71-2.37"/><path class="cls-3" d="M22.37,28.46a3.27,3.27,0,0,1-1.16-.72"/><path class="cls-3" d="M25.47,21.56a5,5,0,0,1,.76,2.69c0,2.27-1.42,4.14-3.23,4.37"/><path class="cls-3" d="M23,28.62a2.56,2.56,0,0,1-.39,0c-2,0-3.62-2-3.62-4.4a4.87,4.87,0,0,1,1-3"/><line class="cls-3" x1="22.41" y1="28.61" x2="22.41" y2="21.37"/><line class="cls-3" x1="22.81" y1="21.4" x2="22.81" y2="28.61"/><line class="cls-3" x1="26.18" y1="24.45" x2="19.03" y2="24.45"/><line class="cls-3" x1="19.05" y1="24.05" x2="26.18" y2="24.05"/><line class="cls-3" x1="20.17" y1="27.44" x2="24.29" y2="21.49"/><line class="cls-3" x1="24.75" y1="21.52" x2="20.46" y2="27.71"/><line class="cls-3" x1="24.78" y1="27.73" x2="20.28" y2="21.23"/><line class="cls-3" x1="20.78" y1="21.26" x2="25.06" y2="27.44"/><ellipse class="cls-9" cx="22.61" cy="24.25" rx="0.69" ry="0.76"/><path class="cls-3" d="M9.13,2.75S10.59.55,9.05.23,5.59,1.92,5,3.46"/><path class="cls-3" d="M2.52,4.37S2,1.61,4.36.76A3.3,3.3,0,0,1,7,.79"/><path class="cls-3" d="M9.2,13.13a5.88,5.88,0,0,1-.88,6.72"/><polyline class="cls-3" points="7.56 12.46 5.2 11.75 4.84 10.74"/><path class="cls-3" d="M7.52,12.32s1-1,1-1l-.07-.5"/><path class="cls-3" d="M5.88,13.48h-2v1.67s0,1.11,1,1.11a1,1,0,0,0,1.13-1A14.39,14.39,0,0,0,5.88,13.48Z"/><path class="cls-3" d="M8,7.51a2.45,2.45,0,0,1-2.15-.45"/></g></g></svg>