<svg xmlns="http://www.w3.org/2000/svg" viewBox="0 0 8.04 15.52"><defs><style>.cls-1{fill:#f9b91a;}.cls-2{fill:#f3a2a7;}.cls-3{fill:#fff;}.cls-4{fill:#0071b9;}.cls-5{fill:none;}.cls-5,.cls-7{stroke:#22234a;stroke-linecap:round;stroke-linejoin:round;stroke-width:0.4px;}.cls-6{fill:#22234a;}.cls-7{fill:#e33b17;}</style></defs><g id="Layer_2" data-name="Layer 2"><g id="Layer_1-2" data-name="Layer 1"><path class="cls-1" d="M6.44,1.89a.25.25,0,0,0-.11-.29c-.2-.12-.25-.53-.32-.73a2.38,2.38,0,0,0-.16-.4A.36.36,0,0,0,5.51.25a.94.94,0,0,0-.44.06c-.12,0-.22.12-.35.17-.3.1-.6.18-.9.3-.47.19-.93.4-1.4.62l-.1,0L2,1.61a7,7,0,0,0-1.42.84.28.28,0,0,0-.28.4L.34,3h0A11.9,11.9,0,0,1,1,4.41a.27.27,0,0,0,.39.16L4,3.44A21.88,21.88,0,0,0,6.41,2.31.26.26,0,0,0,6.44,1.89Z"/><path class="cls-2" d="M7.68,5.87a.29.29,0,0,0,.06-.17,1.81,1.81,0,0,0-.09-.31c-.17-.47-.32-.82-.51-1.25l0,0A.28.28,0,0,1,7,3.94l0-.1,0,.1a.59.59,0,0,1,0-.19s-.06,0-.08.06l-.07-.15a.37.37,0,0,0,0-.27L6.6,3l0-.09h0v0a1.07,1.07,0,0,1-.07-.19.36.36,0,0,0-.39-.25.36.36,0,0,0-.3.22l-.36.17a.42.42,0,0,0-.22,0,3.7,3.7,0,0,0-.72.28l-.74.33L3,3.78c-.21.09-.52.17-.66.38s-.08.41-.14.61a.28.28,0,0,1-.09.13A.5.5,0,0,0,2,5.29a3.58,3.58,0,0,0,.2.71.57.57,0,0,0,0,.14l-.06,0L2,5.85c-.17-.33-.65-.14-.66.18a1,1,0,0,0,.32.78l.1.06a2.8,2.8,0,0,0,.48.56,2.09,2.09,0,0,1,.22.2.56.56,0,0,1,0,.08s0,.06-.06.09a4.58,4.58,0,0,0-.36.78c-.05.11-.37.37-.28.45a6.28,6.28,0,0,0,.86.85,3.25,3.25,0,0,0,.54.12,2,2,0,0,0,.35,0s.1.16.14.16c.13.16.28-.17.44-.32l.5-.46a1.07,1.07,0,0,1,.23-.2.71.71,0,0,1,.25,0A9.93,9.93,0,0,0,6.56,9a1,1,0,0,0,.87-.59A2.54,2.54,0,0,0,7.6,7.9c.2-.21.1-.52.11-.79l0-1A.37.37,0,0,0,7.68,5.87Z"/><path class="cls-3" d="M5,5.16a1.14,1.14,0,0,0-.31-.5.76.76,0,0,0-.61-.2,1.25,1.25,0,0,0-.3.12.55.55,0,0,0-.26.22.91.91,0,0,0,0,.63,1.24,1.24,0,0,0,.1.2.23.23,0,0,0,.08.14.2.2,0,0,0,.22,0,1.49,1.49,0,0,1,.24-.14l.11-.06h0l.06,0a3.07,3.07,0,0,1,.52-.14A.2.2,0,0,0,5,5.16Z"/><path class="cls-3" d="M6.92,4.09a1,1,0,0,0-.69-.38,1,1,0,0,0-.39,0A1,1,0,0,0,5.52,4a.3.3,0,0,0-.1.29,1,1,0,0,0,.09.21c.07.13.15.25.23.38a.2.2,0,0,0,.33,0,.64.64,0,0,0,.26-.1l.12-.07h.11a.69.69,0,0,0,.37-.13A.35.35,0,0,0,6.92,4.09Z"/><path class="cls-2" d="M7.16,13.81c-.1-.29-.35-.51-.43-.81a.27.27,0,0,0-.44-.12L6,13.16l-.12.15c-.15-.05-.3-.14-.44-.2a6.08,6.08,0,0,0-.6-.21,4.59,4.59,0,0,0-1.23-.13,2,2,0,0,0-1.91.9.27.27,0,0,0,.37.36l.07,0c.06,0,.11-.06.2-.09s.32-.2.47-.2.43.44.66.51.36.25.55.36a6.2,6.2,0,0,0,1.77.71c.56.11,1.27.11,1.42-.58A1.59,1.59,0,0,0,7.16,13.81Z"/><path class="cls-3" d="M6.76,12.6a1.28,1.28,0,0,0-.15-.25.75.75,0,0,0-.19-.24A.86.86,0,0,0,6.13,12a.38.38,0,0,0-.18,0h0a0,0,0,0,1,0,0l-.12-.2a2.56,2.56,0,0,0-1.47-1h0l0-.2v-.14a.45.45,0,0,0,0-.11.24.24,0,0,0-.06-.09A.26.26,0,0,0,4,10.06l0,0a.33.33,0,0,1-.4.05l0,0h0l-.07-.05h0c.09,0,0,0-.08,0H3.3l-.22,0a1.55,1.55,0,0,1-.66-.37A2.5,2.5,0,0,1,2,9.27.46.46,0,0,1,1.81,9a.34.34,0,0,1,.06-.2s0-.12,0,0A.37.37,0,0,1,2,8.55v0l0,0a.14.14,0,0,0,0-.06.11.11,0,0,0,0-.06.09.09,0,0,0-.07,0l-.06,0-.06.06a.28.28,0,0,0-.13,0l-.11,0h0l-.1,0h0l-.15,0H1.14a.48.48,0,0,1,0,.27,9.39,9.39,0,0,0,0,2.12A9.94,9.94,0,0,1,1.24,12c.19.21.37.4.38.55a.3.3,0,0,0,.08.17h0a3.18,3.18,0,0,1,0,.36c0,.06,0,.11,0,.17s0,.07.06.08.09,0,.1,0l0-.08a.14.14,0,0,0,.13-.08l.06-.1h.05a.77.77,0,0,0,.31-.19l0-.05h0l.08,0a1.74,1.74,0,0,1,.68-.08.17.17,0,0,0,.14,0h.18a2.19,2.19,0,0,1,.27,0c.13,0,.25,0,.38,0a2,2,0,0,1,.4.12l.41.14.4.15a.6.6,0,0,0,.39.07A.75.75,0,0,0,6.14,13a1,1,0,0,1,.32-.13.19.19,0,0,0,.08,0,.15.15,0,0,0,.16,0A.18.18,0,0,0,6.76,12.6Z"/><polygon class="cls-4" points="2.36 12.91 2.36 12.91 2.36 12.91 2.36 12.91"/><path class="cls-4" d="M4.26,10.22c0-.22-.37-.23-.36,0a4.41,4.41,0,0,1-.16,1.08l-.22,1.11s0,0,0,.05H3.39l0,0a.18.18,0,0,0-.16-.1,1,1,0,0,1-.35-.1c-.14-.06-.28-.13-.42-.18a1.09,1.09,0,0,1-.36-.17,2,2,0,0,0-.35-.24l-.57-.27a3,3,0,0,1,0,.43,8,8,0,0,0,0,1c0,.36,0,.71,0,1.07V14c.24,0,.53-.05.53,0a4,4,0,0,0,.28-.72.19.19,0,0,0,0-.08.17.17,0,0,0,.12,0A1.14,1.14,0,0,0,2.2,13h0l0,0a.2.2,0,0,1,.08,0h0s0,0,0,0h0l.11-.05a.57.57,0,0,0,.13-.08,5.4,5.4,0,0,1,.58-.1.18.18,0,0,0,.12,0h.42a.1.1,0,0,0,.09-.07l0-.06.08-.23a.17.17,0,0,0,0-.12c0-.27.11-.54.16-.81A4.36,4.36,0,0,0,4.26,10.22Z"/><path class="cls-4" d="M6.53,2a1.36,1.36,0,0,0-.37-.61c-.21-.12-.46,0-.67.07-.55.18-1.1.35-1.64.57s-1,.49-1.56.74c-.24.12-.49.24-.72.38A2.34,2.34,0,0,1,1,3.53a.26.26,0,0,0-.19.32L1,4.4a.28.28,0,0,0,.52,0l.13,0A23.31,23.31,0,0,1,4.13,3.33a11.11,11.11,0,0,0,1.18-.46l1.13-.52A.27.27,0,0,0,6.53,2Z"/><path class="cls-5" d="M6.56,12.81a2.44,2.44,0,0,1,.71,1.92c-.51,1.62-4.08-.5-4.49-1.15"/><path class="cls-5" d="M3.26,8.09a4.31,4.31,0,0,1-.56-.8"/><path class="cls-5" d="M6.62,9a3.14,3.14,0,0,1-2.15-.06"/><path class="cls-5" d="M6.62,9l.29-.11c.51-.2,1.22-1.63.73-3.32l-.25-.69A2.57,2.57,0,0,0,7,4.25a3.86,3.86,0,0,0-.28-.94"/><path class="cls-5" d="M2.93,7.68a.23.23,0,0,1-.12.18c-.26.12-.44-.23-.44-.23-.24-.36-.51-.4-.88-1s-.05-.89-.05-.89.39-.15.67.17l.23.28L2,5.18"/><path class="cls-5" d="M2,6.59a1,1,0,0,1,.27.22"/><path class="cls-5" d="M1.66,5.7h0a2.67,2.67,0,0,1-.47-1.06"/><path class="cls-5" d="M7.76,6a.22.22,0,0,0,.08-.13"/><path class="cls-5" d="M7.63,4.59a.26.26,0,0,1-.26,0"/><path class="cls-5" d="M7.52,4.64a.53.53,0,0,0,.08.21"/><path class="cls-5" d="M6.94,3.73a5.76,5.76,0,0,0-.4-1.37"/><path class="cls-5" d="M6.74,3.31a5.71,5.71,0,0,0-.42-.89"/><line class="cls-5" x1="5.35" y1="3.07" x2="6.15" y2="3.01"/><line class="cls-5" x1="3.28" y1="4.11" x2="4.26" y2="3.49"/><path class="cls-5" d="M5.87,5.17a.6.6,0,0,0,.58,0A.75.75,0,0,0,6.8,5"/><path class="cls-5" d="M6.93,4.72a.77.77,0,0,0,0-.52.79.79,0,0,0-1-.46.78.78,0,0,0-.5.61"/><path class="cls-5" d="M6.93,4.66a2.21,2.21,0,0,0-1.13.4"/><circle class="cls-6" cx="6.8" cy="4.48" r="0.17"/><path class="cls-5" d="M4.14,6A.74.74,0,0,0,4.5,6a.8.8,0,0,0,.46-1,.78.78,0,0,0-1-.46.79.79,0,0,0-.46,1,.76.76,0,0,0,.32.38"/><path class="cls-5" d="M5,5.39a2.32,2.32,0,0,0-1.21.46"/><circle class="cls-6" cx="4.77" cy="5.2" r="0.17"/><path class="cls-5" d="M2.39,4.11A1.18,1.18,0,0,1,2,5.18"/><line class="cls-5" x1="2.47" y1="7.77" x2="1.75" y2="9.03"/><path class="cls-5" d="M5,9.09s-1.13,1.14-1.13,1.14"/><path class="cls-5" d="M3.78,10.22C2.6,10.33,1.8,9,1.79,9"/><path class="cls-5" d="M4.09,10a1,1,0,0,1,.17.76C4.17,11.16,4,12,3.8,12.7"/><polyline class="cls-5" points="3.9 10.22 3.47 12.43 1.26 11.47"/><polyline class="cls-5" points="3.65 11.33 2.7 9.94 1.26 10.09"/><line class="cls-5" x1="7.49" y1="1.88" x2="0.69" y2="4.85"/><path class="cls-5" d="M.2,2.71c-.07-.18,1.1-.87,2.63-1.55S5.65.07,5.73.24"/><path class="cls-5" d="M.7,3.82C.62,3.65,1.75,3,3.27,2.28s2.88-1.09,3-.92"/><line class="cls-5" x1="0.2" y1="2.71" x2="1.07" y2="4.64"/><line class="cls-5" x1="5.73" y1="0.24" x2="6.59" y2="2.17"/><polyline class="cls-7" points="2.51 9.86 1.96 9.29 1.6 10.13 2.37 10.19"/><polyline class="cls-7" points="2.92 10.04 3.71 10.04 3.35 10.88 2.78 10.37"/><rect class="cls-7" x="2.41" y="9.84" width="0.43" height="0.55" rx="0.14" transform="translate(4.21 -0.22) rotate(23.28)"/><path class="cls-5" d="M5.17,4S6.63,6.48,6.63,6.48l-1.26,0"/><line class="cls-5" x1="1.81" y1="8.91" x2="1.21" y2="10.03"/><path class="cls-5" d="M1.88,8.74s-.26-.09-.55.24a1.47,1.47,0,0,0-.13.17"/><line class="cls-5" x1="5.03" y1="12.07" x2="4.67" y2="12.81"/><path class="cls-6" d="M6.67,2.69l-.13-.26a.08.08,0,0,0-.12,0,.09.09,0,0,0,0,.12l.12.26a.08.08,0,0,0,.06,0,.09.09,0,0,0,.07,0,.1.1,0,0,0,0-.05A.15.15,0,0,0,6.67,2.69Z"/><path class="cls-6" d="M2.18,5a4.17,4.17,0,0,0,.24-.58.17.17,0,0,0-.21-.22c-.16.07-.26.2-.42.27a2.12,2.12,0,0,1-.45.11.17.17,0,0,0-.12.21c.07.19.14.37.2.56a.14.14,0,0,0,.08.1.2.2,0,0,0,0,.1,1,1,0,0,0,.41.35.17.17,0,0,0,.19,0,.19.19,0,0,0,.07-.18L2,5.13A.31.31,0,0,0,2.18,5Z"/><path class="cls-5" d="M5.85,13.28a1.65,1.65,0,0,1,.73-.54"/><path class="cls-5" d="M6.71,13a.65.65,0,0,0-.17-.75c-.32-.32-.56-.37-.74-.25"/><path class="cls-5" d="M5.44,12.43A3.46,3.46,0,0,0,5,13"/><path class="cls-5" d="M5.88,12a2.85,2.85,0,0,0-1.56-1.4"/><path class="cls-5" d="M1.94,8.63a3.2,3.2,0,0,0-.64.08"/><path class="cls-5" d="M1.69,14s0-1.36,1.87-1.26a6.67,6.67,0,0,1,2.34.59l.84.35"/></g></g></svg>