<svg xmlns="http://www.w3.org/2000/svg" viewBox="0 0 14.28 29.49"><defs><style>.cls-1{fill:#f9b91a;}.cls-2{fill:#9ad4e1;}.cls-11,.cls-3{fill:#ee7349;}.cls-4{fill:#ec760c;}.cls-5{fill:#0a7332;}.cls-6{fill:#243d7e;}.cls-7{fill:#0b6f2b;}.cls-8{fill:#fff;}.cls-9{fill:#22234a;}.cls-10{fill:none;}.cls-10,.cls-11{stroke:#22234a;stroke-linecap:round;stroke-linejoin:round;stroke-width:0.4px;}</style></defs><g id="Layer_2" data-name="Layer 2"><g id="Layer_1-2" data-name="Layer 1"><path class="cls-1" d="M7.78,14.75l0,0Z"/><path class="cls-1" d="M10.73,12.45a10.75,10.75,0,0,1-1.41-.68,5.31,5.31,0,0,0-1.6-.45,32.75,32.75,0,0,0-3.57-.11.49.49,0,0,0-.44.68c-1,.28-2,.36-2.91.66-.43.14-.5.84,0,.94.1,0,.2.06.3.07l.06,0c0,.19.09.49.1.68a5.75,5.75,0,0,0,.17,1.09,1,1,0,0,0,0,.16c-.12,0-.14.24-.27.25-.62.06-.73.79-.1.73a10.28,10.28,0,0,1,1.11,0,1,1,0,0,0,.71,0H3c.72,0,1.45,0,2.17,0a40,40,0,0,1,4.24-.14A.48.48,0,0,0,9.88,16c0-.21.07-.42.1-.62a1.1,1.1,0,0,0,.35-.73c0-.33,0-.66.07-1a.53.53,0,0,1,.33-.23A.49.49,0,0,0,10.73,12.45Z"/><path class="cls-2" d="M8.67,16a.49.49,0,0,0-.6-.34,2.32,2.32,0,0,1-.87,0,3.65,3.65,0,0,0-1,.07,1.39,1.39,0,0,0-.45.19l0,0a.42.42,0,0,0-.41-.22c-1.44,0-2.88,0-4.33,0-.63,0-.72.67-.09.69.12,0,.32.29.44.29h0a2.72,2.72,0,0,0,.7.06l.06,0,.06,0a1.09,1.09,0,0,0,.34.17,3.31,3.31,0,0,0,.77,0h.25s.06,0,.1,0L4,17a.51.51,0,0,0,.26-.09.47.47,0,0,0,.17,0c.37,0,.74.06,1.11.07a.73.73,0,0,0,.58-.2c.11-.1.1-.11.22-.15a2.89,2.89,0,0,1,.94,0,2.2,2.2,0,0,0,1,0A.51.51,0,0,0,8.67,16Z"/><path class="cls-2" d="M10.9,16a.48.48,0,0,0-.12-.22l-.1-.07a.45.45,0,0,0-.25-.07h-.14a.41.41,0,0,0-.19,0,.42.42,0,0,0-.26.26.41.41,0,0,0,0,.19l0,.13a.45.45,0,0,0,.12.21l.1.08a.55.55,0,0,0,.25.07h.14a.41.41,0,0,0,.19-.05.39.39,0,0,0,.16-.1.4.4,0,0,0,.1-.15.43.43,0,0,0,0-.19Z"/><path class="cls-3" d="M5.85,17.08a.21.21,0,0,0-.26.05.21.21,0,0,0,0,.26.36.36,0,0,0,.18.12h0a1.66,1.66,0,0,0,.31.12.79.79,0,0,0,.48,0h0l.19,0h.1a5.57,5.57,0,0,1,.67.12,6.83,6.83,0,0,0,.78.06,2.55,2.55,0,0,0,.78,0,.35.35,0,0,0,.17-.09.35.35,0,0,0,.12,0,2.46,2.46,0,0,0,.37,0,3.61,3.61,0,0,0,.78-.16l.08,0a.49.49,0,0,0,.24,0,5.87,5.87,0,0,0,1.35-.42,4.12,4.12,0,0,0,.67-.32l.3-.2.06,0h0a1.17,1.17,0,0,0,.24-.09.48.48,0,0,0,.23-.49c0-.19.3-.71.31-.79v-.27c0-.17-.18-.33-.13-.49s-.22-.18-.2-.23,0,0,0,0h0v0h0v0c.17-.11,0-.15,0-.35s-.14-.36-.18-.45.2-.27.08-.33a.51.51,0,0,0-.38,0,1.48,1.48,0,0,0-.27.1l-.08,0h0l-.16,0-.14,0-.34,0a.5.5,0,0,0-.43.25.49.49,0,0,0,0,.47,2.16,2.16,0,0,1,0,.44,4.22,4.22,0,0,0-.07.61.46.46,0,0,0,.05.2l-.43.36-.46.4-.1.09-.05,0-.07,0-.08,0a.64.64,0,0,0-.22.14,1,1,0,0,0-.17-.19.73.73,0,0,0-.59-.17l-.23-.23c-.23-.26-.51-.67-.9-.44a.42.42,0,0,0-.19.45,1.92,1.92,0,0,0,.23.48,2.22,2.22,0,0,0,.37.44,2.12,2.12,0,0,1,.3.3l0,0H9.2a2.42,2.42,0,0,1-.76,0l-.79-.1a5.3,5.3,0,0,0-1.05,0,.49.49,0,0,0-.31,0h0a.4.4,0,0,0-.3.29H6a.13.13,0,0,1,0,.06l-.09-.05"/><path class="cls-4" d="M13.75,14.2h0l0,0v0Z"/><path class="cls-5" d="M13.76,12.56c-.28-.44-.54-.89-.79-1.35h0A.26.26,0,0,0,13,11a6.17,6.17,0,0,0-1.06-1.28L10.5,8.57a.3.3,0,0,0-.5.24l-.05,0,0,0h0a.56.56,0,0,0-.31-.06A.52.52,0,0,0,9.24,9h0a3.47,3.47,0,0,1-.9.08c-.15,0-.23.29-.36.24a5.87,5.87,0,0,0-2.44-.48,4.11,4.11,0,0,1-.58.6l-.29.29-.14.16L4.44,10h0a7.13,7.13,0,0,0-.45.67,1.51,1.51,0,0,0-.09.18h0a.14.14,0,0,0,0,.06,1.06,1.06,0,0,0-.06.19s0,.07,0,.09h0a.46.46,0,0,1,0,.14l.12,0a16.1,16.1,0,0,1,3.33.07,3.79,3.79,0,0,1,.66.18,4.4,4.4,0,0,1,1.57.21.3.3,0,0,0,0,.21.4.4,0,0,1,.15,0,1.62,1.62,0,0,1,.73.51l.09.08a.6.6,0,0,1,.11-.06l.13,0a.41.41,0,0,1,.19,0,.39.39,0,0,1,.16.1.54.54,0,0,1,.1.16.41.41,0,0,1,0,.19.68.68,0,0,1,0,.14h0l-.05.11a.45.45,0,0,1-.18.18l-.12.06h0a.51.51,0,0,1-.17.19,13,13,0,0,1-.63,2.07l0,0a.23.23,0,0,0,.1.07l0,0c.32,0,.63,0,.95,0H11l.33-.26a1.75,1.75,0,0,0,.32-.29.63.63,0,0,0,.09-.38c0-.54,0-1.08,0-1.62a1.92,1.92,0,0,0,.63,0l.55-.17A2,2,0,0,1,13.2,13h.23a.29.29,0,0,0,.33-.43Z"/><path class="cls-6" d="M11.21,18a.41.41,0,0,0-.51-.38,3.21,3.21,0,0,1-1.07.13,11.11,11.11,0,0,0-1.15.08,10.55,10.55,0,0,1-1.13.06,3.69,3.69,0,0,1-.58,0,2.08,2.08,0,0,0-.54-.11l-.08,0a.79.79,0,0,0-.31-.17,2.85,2.85,0,0,1-.23-.26,1.3,1.3,0,0,1-.1-.15.39.39,0,0,0-.1-.08.2.2,0,0,0-.13,0,.2.2,0,0,0-.14.19c0,.17,0,.34,0,.51a.28.28,0,0,0,0,.12l0,0s0,0,0,.06a10.72,10.72,0,0,0-.29,3.18,1.21,1.21,0,0,0-.05.18Q4.58,24.18,4.36,27a.39.39,0,0,0,.06.24l-.06.11a.3.3,0,0,0,.26.45A9.19,9.19,0,0,1,7,28.1a.3.3,0,0,0,.37-.29c0-.6.09-1.21.17-1.81s.15-1.68.28-2.26l.22-.94c0,.45,0,.91-.05,1.37l0,.06a.34.34,0,0,0,0,.2v.12H8a.3.3,0,0,0,0,.16H8c0,.22,0,.44,0,.66A.25.25,0,0,0,8,25.6c0,.13,0,.25,0,.38a.19.19,0,0,0,0,.08l-.15,1.5a2.58,2.58,0,0,0,0,.38.23.23,0,0,0,.26.24c.2,0,.42-.12.62,0a7.87,7.87,0,0,0,2.22-.32,4.65,4.65,0,0,1,0-1.39c.21-.5,0-2.53.1-2.73,0,0,.13-.8.13-.8s-.25-1.07-.23-1.14a.35.35,0,0,0,.12-.19l0-.09a.35.35,0,0,0,0-.32Q11.14,19.59,11.21,18Z"/><path class="cls-7" d="M4.47,15.17l0,0h0Z"/><path class="cls-3" d="M11.92,4a.74.74,0,0,0-.51,0L11.3,4A4,4,0,0,0,8.75.28C7.39-.13,5.22.54,4.71,2a.35.35,0,0,0-.15.13,2.63,2.63,0,0,0-.28,1.36,8.22,8.22,0,0,0,.1,1.41.52.52,0,0,0-.55,0,.65.65,0,0,0-.14.87A1.85,1.85,0,0,0,4,6.3s.16.25.23.25c.65,0,.56.19,1,.46A10.41,10.41,0,0,1,6.6,9.16c.29,0,1.24,0,1.4,0,.32,0,.75-.16,1.07-.1.15,0,.3-.19.46-.18A1,1,0,0,0,10,8.79a.23.23,0,0,0,.11-.32.25.25,0,0,0,0-.08,2.5,2.5,0,0,1,.1-.64,5.36,5.36,0,0,1,.25-.65,11.57,11.57,0,0,1,.62-1.34l0,0,.05,0a.61.61,0,0,0,.42,0,1.24,1.24,0,0,0,.48-.51C12.27,4.87,12.39,4.23,11.92,4Z"/><path class="cls-8" d="M7.37,2.24a.93.93,0,0,0-.85-.33.91.91,0,0,0-.73.54.86.86,0,0,0,0,.57A.39.39,0,0,0,6,3.3a.45.45,0,0,0,.36,0h.43a1.09,1.09,0,0,0,.54-.16A.74.74,0,0,0,7.51,3a.37.37,0,0,0,0-.29A1,1,0,0,0,7.37,2.24Z"/><path class="cls-8" d="M9.21,2a1.24,1.24,0,0,0-.34-.22A.93.93,0,0,0,8,1.86a.71.71,0,0,0-.31.43,1.29,1.29,0,0,0,0,.44A.33.33,0,0,0,7.81,3a.3.3,0,0,0,.1.17.28.28,0,0,0,.28.05l.1,0h0l.2,0a2.6,2.6,0,0,1,.4,0h.2a.35.35,0,0,0,.29-.21.86.86,0,0,0,0-.45A.91.91,0,0,0,9.21,2Z"/><path class="cls-9" d="M4.3,3.17h0v0a.11.11,0,0,0,0-.08V3L4.24,3H4.08A.21.21,0,0,0,4,3a.05.05,0,0,0,0,0,.19.19,0,0,0,0,.07.06.06,0,0,0,0,0v.08a.08.08,0,0,0,0,.05c0,.2,0,.39,0,.59s0,.18,0,.27A.35.35,0,0,0,4,4.42s0,0,0,.06v0a.23.23,0,0,0,.17.25.28.28,0,0,0,.27-.1.33.33,0,0,0,.06-.26V4.33h0v0l0-.18a1.08,1.08,0,0,0,0-.4,1.66,1.66,0,0,0-.12-.42A.21.21,0,0,0,4.3,3.17Z"/><path class="cls-9" d="M11.53,3.05l-.15-.38c0-.11-.08-.26-.18-.31a1.62,1.62,0,0,1-.1-.18.08.08,0,0,0-.09,0,.06.06,0,0,0,0,.07.34.34,0,0,0,0,.17.17.17,0,0,0,0,.14v.05h0a.45.45,0,0,0-.06.39.08.08,0,0,0,0,0,2.51,2.51,0,0,0,0,.27,2.17,2.17,0,0,0,.12.36c.05.12.1.24.24.27a.11.11,0,0,0,.1,0,.14.14,0,0,0,.19-.1A1.32,1.32,0,0,0,11.53,3.05Z"/><path class="cls-9" d="M6.59,2.57A.22.22,0,0,0,6.74,3C7,2.89,6.85,2.48,6.59,2.57Z"/><path class="cls-9" d="M8.48,2.39a.21.21,0,0,0,.14.4A.21.21,0,0,0,8.48,2.39Z"/><path class="cls-10" d="M11.16,5.5l0,.1c-.56,1.49-1.08,2.15-1,3.11"/><path class="cls-10" d="M11.33,4V4.3"/><path class="cls-10" d="M7.37.22a4.52,4.52,0,0,1,.74,0A3.27,3.27,0,0,1,11,2.4"/><path class="cls-10" d="M4.34,4.84c0,.11,0,.21.07.31"/><path class="cls-10" d="M7.37.22a5.14,5.14,0,0,0-.72.15A3.21,3.21,0,0,0,4.27,3.14"/><path class="cls-10" d="M6.45,9.11a8.51,8.51,0,0,0,3.71-.4"/><path class="cls-10" d="M11.38,4A.53.53,0,0,1,11.9,4c.29.13.56.48.2,1.26-.26.59-.69.69-1,.52"/><path class="cls-10" d="M11.29,5.06a.41.41,0,0,1,.19-.24.84.84,0,0,0,.17-.13"/><path class="cls-10" d="M6.09,3.49a1,1,0,0,1-.29-.41A.92.92,0,1,1,7,3.64a1,1,0,0,1-.46,0"/><path class="cls-10" d="M8.8,3.47a.9.9,0,1,1,.44-.28"/><line class="cls-10" x1="5.96" y1="3.36" x2="9.32" y2="3.07"/><circle class="cls-11" cx="7.67" cy="3.63" r="0.62"/><path class="cls-10" d="M4,4.8s-.43-1.52.26-2"/><path class="cls-10" d="M4.23,3.15s.19.05.26.5.06,1.08-.22,1.18"/><path class="cls-10" d="M11.65,3.9s0-1.57-.78-1.8"/><path class="cls-10" d="M11.05,2.4s-.21.12-.14.57.18,1,.48,1"/><path class="cls-10" d="M4.83,6.32a.41.41,0,0,1,0,.09c.88,1.33,1.46,1.74,1.57,2.7"/><path class="cls-10" d="M4.29,4.92a.54.54,0,0,0-.52,0c-.25.19-.44.59.08,1.28.39.51.83.52,1.08.29"/><path class="cls-10" d="M4.61,5.92a.49.49,0,0,0-.24-.2L4.2,5.65"/><path class="cls-10" d="M9.14,16.91a17.51,17.51,0,0,1-2.27-.14s-.9-.15-1,.31c-.09.64,1.92.75,2.47.75a9.09,9.09,0,0,0,4.06-.74,3.47,3.47,0,0,0,1.44-1s.68-.67-.44-3.1"/><path class="cls-10" d="M9.42,16.88a1.84,1.84,0,0,1-.28,0"/><path class="cls-10" d="M9.42,16.88a1.35,1.35,0,0,1-.94-.8s-.33-.65.06-.85c0,0,.29-.19.66.27a.83.83,0,0,0,.63.37.67.67,0,0,1,.64.74"/><path class="cls-10" d="M5,29.29H7.14c.13,0,.13-.14.13-.14l-.06-.94"/><path class="cls-10" d="M6.14,29.29H2.43s-.29,0-.29-.19.94-1.16,3.5-1.16V28"/><path class="cls-10" d="M9.14,19.3a4.16,4.16,0,0,1-1.63.05"/><line class="cls-10" x1="8.33" y1="19.51" x2="7.31" y2="28.14"/><path class="cls-10" d="M7.31,28.14l-3-.35s.76-9.11.87-10.73"/><path class="cls-10" d="M10.51,16.3s2.19-1.81,2.19-1.81"/><path class="cls-10" d="M11.57,10.63a19.88,19.88,0,0,1,.19,4.6"/><path class="cls-10" d="M11.86,13.35l.52-.09a3.84,3.84,0,0,0,1.46-.46S12.4,9.25,10.16,8.47"/><path class="cls-10" d="M5.48,17.08c0,.05-.06.93,2.58.74"/><path class="cls-9" d="M7.18,28.32a.46.46,0,0,0-.43-.3,4.86,4.86,0,0,0-.66,0,6.6,6.6,0,0,1-.77,0,.24.24,0,0,0-.15,0,4,4,0,0,0-.49,0,6.54,6.54,0,0,0-.75.13c-.43.08-1,.09-1.28.49l0,0a.3.3,0,0,0-.41.34c.11.39.65.24.94.23l1.28-.07,1.15,0a.42.42,0,0,0,.25,0,2,2,0,0,1,.54,0,.21.21,0,0,0,.15,0,1.87,1.87,0,0,1,.34.08c.19.08.37-.11.38-.28A1.89,1.89,0,0,0,7.18,28.32Z"/><path class="cls-10" d="M10.09,29.29H8a.14.14,0,0,1-.14-.14l.06-.94"/><path class="cls-10" d="M9,29.29H12.7s.28,0,.28-.19-.93-1.16-3.5-1.16"/><line class="cls-10" x1="8.33" y1="19.51" x2="7.82" y2="28.14"/><path class="cls-10" d="M7.82,28.14l3-.35s.44-8.62.33-10.25"/><path class="cls-9" d="M7.94,28.32a.47.47,0,0,1,.44-.3,4.79,4.79,0,0,1,.65,0,6.54,6.54,0,0,0,.77,0,.24.24,0,0,1,.15,0,4,4,0,0,1,.49,0,6.71,6.71,0,0,1,.76.13c.43.08,1,.09,1.28.49,0,0,0,0,0,0,.2-.08.5.07.42.34s-.66.24-.95.23l-1.27-.07-1.16,0a.38.38,0,0,1-.24,0,2,2,0,0,0-.54,0,.19.19,0,0,1-.15,0,2,2,0,0,0-.35.08c-.19.08-.37-.11-.38-.28A2.15,2.15,0,0,1,7.94,28.32Z"/><line class="cls-10" x1="10.11" y1="15.68" x2="10.59" y2="13.44"/><line class="cls-10" x1="1.43" y1="15.8" x2="1.08" y2="13.43"/><path class="cls-10" d="M1.18,12.62c0,.28,2.08.5,4.64.49s4.62-.25,4.62-.53-2.1-1.47-4.65-1.46S1.18,12.33,1.18,12.62Z"/><path class="cls-10" d="M10.35,12.44a.53.53,0,0,1,.31.13.61.61,0,0,1,.36.06c.19.09.28.23.22.31h0l0,0c.06.09-.08.24-.31.34a.81.81,0,0,1-.38.07.75.75,0,0,1-.38.17,1,1,0,0,1-.38,0,1,1,0,0,1-.36.11.91.91,0,0,1-.38,0,.75.75,0,0,1-.38.11.88.88,0,0,1-.39,0,.76.76,0,0,1-.39.1.88.88,0,0,1-.39-.05,1,1,0,0,1-.4.09,1,1,0,0,1-.37-.06,1,1,0,0,1-.38.07.78.78,0,0,1-.22,0"/><path class="cls-10" d="M1.27,12.49a.56.56,0,0,0-.31.13.62.62,0,0,0-.36.06c-.18.09-.28.23-.21.31h0l0,0c-.06.09.09.24.32.34a1,1,0,0,0,.39.07.68.68,0,0,0,.38.16.76.76,0,0,0,.37,0,1,1,0,0,0,.75.09.82.82,0,0,0,.37.1.82.82,0,0,0,.4,0,.88.88,0,0,0,.38.09.91.91,0,0,0,.4-.06.8.8,0,0,0,.39.09,1,1,0,0,0,.38-.06,1,1,0,0,0,.38.07,1.2,1.2,0,0,0,.2,0"/><path class="cls-10" d="M6.13,13.84a.83.83,0,0,1-.31.05,1,1,0,0,1-.34-.05"/><path class="cls-10" d="M8.25,15.77l-8,0a1.93,1.93,0,0,0,1.48.76"/><line class="cls-10" x1="9.7" y1="15.76" x2="9.58" y2="15.76"/><path class="cls-10" d="M10.58,16.35a2,2,0,0,0,.72-.6H9.49"/><path class="cls-10" d="M3.2,17.05a2.24,2.24,0,0,1-1.48-.49l3.3,0H8.7"/><path class="cls-10" d="M3.2,17.05H5.85"/><path class="cls-10" d="M9.89,3.63a2.54,2.54,0,0,1-2.6,1.43"/><path class="cls-3" d="M3.57,12.3l.31.1A.3.3,0,0,0,4,11.83s0,0,0,0L4,11.76l-.07-.06h0a1.57,1.57,0,0,1-.19-.26.21.21,0,0,1,0-.06l0,0-.07-.14a2.17,2.17,0,0,0-.15-.35.45.45,0,0,0-.35-.25.61.61,0,0,0-.41.11.43.43,0,0,0-.19.31H2.38a.68.68,0,0,0-.41.23H1.89a1,1,0,0,0-.53.1l-.06.06a.14.14,0,0,0-.11.06,2,2,0,0,0-.37.7c0,.19,0,.31.2.2s.26,0,.34-.1l.08,0,.07,0a.61.61,0,0,0,.05.18,1.19,1.19,0,0,0,.24.36.86.86,0,0,0,.34.26,1.12,1.12,0,0,0,.32,0,.19.19,0,0,0,.08,0A.25.25,0,0,0,2.79,13a.2.2,0,0,0,0-.28.28.28,0,0,0-.13,0h0a.25.25,0,0,0,.07-.21v0a1,1,0,0,0,.58.29.29.29,0,0,0,.3-.14A.29.29,0,0,0,3.57,12.3Z"/><path class="cls-10" d="M2,13a.56.56,0,0,0,.76,0,.19.19,0,0,0,0-.28,3.36,3.36,0,0,1-.51-1.06c-.13-.44-.37-.62-.74-.52-.17.05-.76.38-.62,1.36"/><path class="cls-10" d="M1.47,12.26a.46.46,0,0,1-.27-.21"/><path class="cls-10" d="M1.5,12.26h0"/><path class="cls-10" d="M1.94,11.22S2,11,2.31,11s.45.25.61.52a3,3,0,0,0,.52.7.33.33,0,0,1,.11.45c-.09.15-.48.16-.82-.13a2,2,0,0,1-.36-.47"/><path class="cls-10" d="M2.47,11s.15-.38.48-.41.45.26.61.52a2.76,2.76,0,0,0,.52.7.34.34,0,0,1,.11.46c-.09.14-.48.16-.82-.13"/><path class="cls-10" d="M1.49,12.14A1.08,1.08,0,0,0,2,13"/><path class="cls-10" d="M6.37,8.71a3.89,3.89,0,0,0-2.68,2.47"/><line class="cls-10" x1="5.14" y1="10.32" x2="5.14" y2="11.12"/></g></g></svg>