<svg xmlns="http://www.w3.org/2000/svg" viewBox="0 0 17.9 32.87"><defs><style>.cls-1{fill:#fce79c;}.cls-2{fill:#e33b17;}.cls-3{fill:#0071b9;}.cls-13,.cls-4{fill:#f2a2a6;}.cls-5{fill:#0b6f2b;}.cls-10,.cls-6,.cls-7{fill:none;}.cls-10,.cls-11,.cls-13,.cls-6{stroke:#22234a;}.cls-10,.cls-11,.cls-13,.cls-6,.cls-7{stroke-linecap:round;stroke-linejoin:round;stroke-width:0.4px;}.cls-7{stroke:#23214a;}.cls-11,.cls-8{fill:#fff;}.cls-9{fill:#22234a;}.cls-10{stroke-dasharray:0.53;}.cls-12{fill:#23214a;}</style></defs><g id="Layer_2" data-name="Layer 2"><g id="Layer_1-2" data-name="Layer 1"><path class="cls-1" d="M6.71,20.49c0-.3.39-.41.64-.36a8.59,8.59,0,0,0,2.09-.06l2.18-.19c.48-.05,1.21-.25,1.42.37a4,4,0,0,1,.08,1.47c.25,1.19.33,2.41.49,3.61.11.88.34,1.72.51,2.58.09.42.15.85.21,1.27a7.56,7.56,0,0,1,.12,1.25c-.08.73-1.1.73-1.66.64C12,31,12,29.83,11.85,29.22L11,25.41a.46.46,0,0,1-.21-.28,9.58,9.58,0,0,1-.18-1.51.48.48,0,0,1,.07-.24,3.8,3.8,0,0,0-.18-.47,1.76,1.76,0,0,1-.16-.67h-.2l-.13,0c0,.45-.07.9-.1,1.32-.06.79-.1,1.57-.14,2.36-.08,1.57-.11,3.13-.07,4.71a.53.53,0,0,1-.39.5,3.1,3.1,0,0,1-1.45-.06.53.53,0,0,1-.19-.89,3.77,3.77,0,0,1-.42-1.78c0-.8-.21-1.58-.33-2.37a29.29,29.29,0,0,1-.16-4.3A3.59,3.59,0,0,1,6.71,20.49Z"/><path class="cls-2" d="M13.46,31.09a14,14,0,0,1,3.7.54.55.55,0,0,1,.37.65.53.53,0,0,1-.65.36,12.87,12.87,0,0,0-2.95-.47.49.49,0,0,1-.32.29.54.54,0,0,1-.64-.37,2,2,0,0,1,0-.48A.55.55,0,0,1,13.46,31.09Z"/><path class="cls-2" d="M5.2,31.62a7.66,7.66,0,0,0,.94-.25,3,3,0,0,1,1-.13c.64,0,1.29-.1,1.93-.17a.52.52,0,0,1,.5.66L9.43,32a.51.51,0,0,1-.91.17c-.45,0-.9.1-1.36.11H6.73a1.21,1.21,0,0,0-.37.11,5.43,5.43,0,0,1-.88.23.54.54,0,0,1-.64-.37A.52.52,0,0,1,5.2,31.62Z"/><path class="cls-3" d="M4.86,15.61a2,2,0,0,1,.33-1.16.49.49,0,0,1,.36-.25s0-.07,0-.11c-.09-.41.22-.78.42-1.12a.54.54,0,0,1,.59-.24.53.53,0,0,1,.39.5.23.23,0,0,0,0,.21l0,.07.08.16.3.62.2.41.08,0,.1.08a.62.62,0,0,1,.14.23l.09.25a.56.56,0,0,1,0,.12l.07,0,.17.07,0,0a.83.83,0,0,1,.15.11.45.45,0,0,1,.1.13.69.69,0,0,1,.05.13v0a.41.41,0,0,1,.22.07l.12.09.1.08a.36.36,0,0,1,.07.1,4.12,4.12,0,0,1,1.83-1,.56.56,0,0,1-.11-.5.52.52,0,0,1,.19-.27l0-.09c0-.34,0-.69,0-1a.55.55,0,0,1,.1-.26l0,0L11,13a0,0,0,0,1,0,0l-.06-.06-.05-.13a.42.42,0,0,1,0-.27l0-.06,0-.12.08-.11.11-.08a.33.33,0,0,1,.19-.06h.14a.2.2,0,0,1,.13,0,.27.27,0,0,1,.12.06.47.47,0,0,1,.13.15l0,0h0a.78.78,0,0,0,.05.14h0s0,0,0,0a1.1,1.1,0,0,1,0,.18.35.35,0,0,1-.05.2s0,.05,0,.07l.05,0a16.06,16.06,0,0,1,2.5,3.08c.17.27.33.54.47.81a1.63,1.63,0,0,1,.33.91c-.05.4-.42.52-.77.58l-1.12.2h-.1l.17.4a.53.53,0,0,1-.31.76,4.86,4.86,0,0,1-1.24.24.51.51,0,0,1-.47-.71.13.13,0,0,1,0-.06.43.43,0,0,1-.29-.34c0-.28-.05-.56-.08-.84l-.06,0-.08,0h0l-.11-.08v0l-.08-.11h0v0l-.67.49a1.09,1.09,0,0,1-.51.89,1.69,1.69,0,0,1-.38.19s0,0,0,0l.08.28a.53.53,0,0,1-.51.66l-1.15-.05c-.35,0-.8,0-1.06-.23s-.18-.77-.17-1.12V18.7l-.11,0a2.44,2.44,0,0,1-.67-.76c-.14-.24-.25-.51-.38-.76a3.07,3.07,0,0,1-.44-.79A.87.87,0,0,1,4.86,15.61Z"/><path class="cls-2" d="M9.34,19.2a.64.64,0,0,1,.1-.13,3,3,0,0,1,.27-.35.51.51,0,0,1,.34-.15s0-.06,0-.09v0h0a.66.66,0,0,1,0-.14.5.5,0,0,1,.24-.31.49.49,0,0,1,.33-.06.43.43,0,0,1,.3.14l.09.1a.64.64,0,0,1,.07.27,4.93,4.93,0,0,1,0,.94.54.54,0,0,1-.21.42.56.56,0,0,1-.17.09.62.62,0,0,1-.27,0h-.18a1.92,1.92,0,0,1-.25.12.63.63,0,0,1-.76-.32A.56.56,0,0,1,9.34,19.2Z"/><path class="cls-4" d="M11.61,15a.53.53,0,0,1,.31-.24.51.51,0,0,1,.4.05l.35.25.17.11.06.05H13l.12,0,.11.09a.34.34,0,0,1,.1.16.25.25,0,0,1,0,.14.33.33,0,0,1,0,.14.22.22,0,0,1,0,.13.42.42,0,0,1-.1.17l-.12.08-.13.06-.15,0h-.08l-.07,0h-.09l-.14,0a1.22,1.22,0,0,1-.24-.1c-.07,0-.14-.1-.21-.15l-.08-.11s0-.06,0-.08l-.06,0a.29.29,0,0,1-.14-.13.4.4,0,0,1-.1-.18.37.37,0,0,1,0-.21A.33.33,0,0,1,11.61,15Z"/><path class="cls-4" d="M5.28,16.22a1.83,1.83,0,0,1,.79-.48,2.65,2.65,0,0,1,1.79-.23.46.46,0,0,1,.22.14l.05,0,.14,0a.48.48,0,0,1,.26.07l0,0a.47.47,0,0,1,.15.13A.31.31,0,0,1,8.8,16a.38.38,0,0,1,0,.21.33.33,0,0,1-.06.19l-.08.11a.53.53,0,0,1-.23.13H8.36a.33.33,0,0,1-.13.07L8,16.79l-.23.12c-.22.1-.43.17-.65.25L7,17.2H7l0,0a1.27,1.27,0,0,0-.23.12l0,0a.25.25,0,0,0-.07.08h0s0,.08-.07.13a.52.52,0,0,1-.52.25.5.5,0,0,1-.43-.38.07.07,0,0,1,0-.05.38.38,0,0,1-.25-.13A.83.83,0,0,1,5.28,16.22Z"/><path class="cls-5" d="M5.89,12.47c.13-.08.29-.06.42-.14s0,0,0,0l.15.17A10.52,10.52,0,0,0,9,12a15.9,15.9,0,0,1,2-.48.29.29,0,0,1,0-.09c.1-.3.27-.58.38-.88A4.76,4.76,0,0,0,11.7,9a.24.24,0,0,0,.2,0,1.4,1.4,0,0,0,.41-1.55A1.62,1.62,0,0,0,12,6.56c-.22-.23-.43-.13-.7-.06A5.07,5.07,0,0,0,9.66,4.73a.25.25,0,0,0,0-.07l.12-1c0-.36.14-.7.2-1.05a10.79,10.79,0,0,1,.38-2A.25.25,0,0,0,10.1.22a1.25,1.25,0,0,0-.43.07s-.2.18-.17.25A.22.22,0,0,0,9.31.6h0a.21.21,0,0,0-.07.14,6.46,6.46,0,0,1-.68,1l-.44.69a16.39,16.39,0,0,1-.34-2A.26.26,0,0,0,7.45.26s-.27,0-.22.08a.24.24,0,0,0-.42.17,4.1,4.1,0,0,1-.19.66,5.9,5.9,0,0,1-.15.73c-.11.38-.25.74-.36,1.12L5.42,1.78A3.32,3.32,0,0,0,5,1.09C4.9.94,4.68,1,4.5,1a.25.25,0,0,0-.25.25c0,.24.06.47.06.71s0,.48,0,.72.05.69.08,1a4.78,4.78,0,0,0-.45-.45,3.66,3.66,0,0,1-.71-.65.21.21,0,0,0-.31-.07,1,1,0,0,0-.33-.06c-.08,0-.16,0-.17.13s.07.26.11.39a1.71,1.71,0,0,0,.13.38s0,0,0,0l.49,1.35c.07.19.13.38.21.58-.3-.14-.62-.2-.9-.36a.14.14,0,0,0-.12,0l-.09,0a1.88,1.88,0,0,0-.87-.38.21.21,0,0,0-.19,0H1.14c-.17,0-.13.25,0,.28a3.48,3.48,0,0,0,.45.55c.19.22.38.44.56.67.32.39.63.79.92,1.2a1.08,1.08,0,0,1-.19,0,3.77,3.77,0,0,1-.67,0,5.26,5.26,0,0,0-.89,0,.15.15,0,0,0-.23-.06L1,7.23H.86a.09.09,0,0,0-.08,0L.66,7.22c-.11,0-.21.12-.1.18a1.89,1.89,0,0,0,.35.13v0c.06.08.14.08.22.11a1.32,1.32,0,0,1,.43.21c.24.15.49.28.73.42a5.85,5.85,0,0,0,.56.3A6.86,6.86,0,0,0,2.11,9a5.23,5.23,0,0,1-.69.5.19.19,0,0,0-.11,0l-.07.06L1,9.71c-.12,0-.07.23.05.19l.06,0a.14.14,0,0,0,.16,0,1.42,1.42,0,0,1,.58,0l.62.06.65.06.17,0a3.08,3.08,0,0,1-.27.24,4.48,4.48,0,0,0-.44.32,7.9,7.9,0,0,1-1,.77c-.11.07,0,.24.1.17l.07,0a.19.19,0,0,0,.11.05,4.78,4.78,0,0,0,.66,0l.21,0,.08,0,.69,0a.17.17,0,0,0,.13-.08h.19a1.14,1.14,0,0,0,.32,0,.24.24,0,0,1,0,.08.12.12,0,0,0-.09,0L3.78,12a.33.33,0,0,0-.12.21l-.24.25c-.07.07-.19.27-.3.29s-.08,0-.09.06l-.06,0A.12.12,0,0,0,3,13,5.09,5.09,0,0,0,4,12.86a5.39,5.39,0,0,1,.95-.27,5.89,5.89,0,0,0,.82-.15A.12.12,0,0,0,5.89,12.47Z"/><path class="cls-4" d="M12.31,7.38A1.62,1.62,0,0,0,12,6.56c-.22-.23-.43-.13-.7-.06A5.07,5.07,0,0,0,9.66,4.73a.14.14,0,0,0,0-.06,1.25,1.25,0,0,1-.12.46c-.16.23-.38.22-.62.25a.31.31,0,0,1-.36-.2l0,0,0-.06-.06,0L8.36,5l0,0A.88.88,0,0,1,8,4.8l0,0a3.35,3.35,0,0,0-.7,0l-.73,0A1.28,1.28,0,0,0,6,4.83a.67.67,0,0,1-.26.2.65.65,0,0,1-.18,0,3,3,0,0,1-.37.25,1.35,1.35,0,0,0-.45.47,5.67,5.67,0,0,0-.51,1.62v0a.34.34,0,0,1,0,.14c0,.08,0,.15,0,.22a.38.38,0,0,1-.44.37.15.15,0,0,0,0,.06,1.32,1.32,0,0,0-.1.3,2,2,0,0,0,0,.7,2.7,2.7,0,0,0,.49,1c.19.29.3.39.63.4a.38.38,0,0,1,.38.37c0,.19.3.33.43.43a4,4,0,0,1,.75.78c.11.13.2.27.3.41l.24.34,0,0,.14.22a3.3,3.3,0,0,1,.27.53l0,.09h.09a4.11,4.11,0,0,1,.92.15l.25.06a.42.42,0,0,1,.26-.11A3,3,0,0,0,11,12.74a1.93,1.93,0,0,1-.06-.41.2.2,0,0,1,0-.11v0h0a3.15,3.15,0,0,1,.09-.81c.1-.3.27-.58.38-.88A4.76,4.76,0,0,0,11.7,9a.24.24,0,0,0,.2,0A1.4,1.4,0,0,0,12.31,7.38Z"/><path class="cls-2" d="M11,14.59a5.48,5.48,0,0,0,0,.7l-.12,0c-.33.17-.67.32-1,.48s-.5.26-.76.38c0,0-.15.07,0,0l-.05,0a.94.94,0,0,0-.51-.47H8.32c0-.06-.05-.12-.08-.17L8,15c-.3-.71-.83-1.31-1.15-2a4.88,4.88,0,0,0,.65.2,3,3,0,0,0,1.3,0c.29-.07.58-.16.87-.25a2.92,2.92,0,0,0,.36-.11.67.67,0,0,0,.3-.22h0a2.77,2.77,0,0,0,.63-.22.39.39,0,0,0,.1-.08l0,1C11,13.75,11,14.17,11,14.59Z"/><path class="cls-6" d="M9.68,4.69a4.4,4.4,0,0,1,2,3.4,4.63,4.63,0,0,1-.05,1.46A20.36,20.36,0,0,0,11,12.33"/><path class="cls-6" d="M4.92,10.58A3.4,3.4,0,0,0,5.2,11c.76.93,1.35,1.44,1.71,2"/><path class="cls-6" d="M5.48,5.16A3.59,3.59,0,0,0,4.24,8"/><path class="cls-6" d="M4.9,8.56A.62.62,0,0,0,4,8.09c-.8.32-.29,1.62.09,2.1a.9.9,0,0,0,1,.31.57.57,0,0,0,.35-.4"/><path class="cls-6" d="M4.48,9.17a2.31,2.31,0,0,0,.06.52"/><path class="cls-6" d="M11.31,6.42l.18,0c.85-.09,1,1.29.91,1.9a.93.93,0,0,1-.61.71"/><line class="cls-6" x1="3.35" y1="5.38" x2="1.58" y2="4.52"/><line class="cls-6" x1="4.38" y1="3.74" x2="3.1" y2="2.49"/><line class="cls-6" x1="6.11" y1="3.08" x2="5.02" y2="0.99"/><polyline class="cls-6" points="8.13 2.42 7.67 0.23 6.98 0.2"/><polyline class="cls-6" points="9.59 0.25 10.38 0.25 9.5 5.32"/><polyline class="cls-6" points="8.71 5.31 9.59 0.25 7.54 3.35 6.88 0.22 5.87 4.15 4.23 0.99 4.49 4.61 2.31 2.49 3.55 5.87 0.79 4.52 3.11 7.25 0.2 7.18 2.82 8.59 0.74 9.85 3.25 10.09 1.38 11.6 4.16 11.55 2.69 13.15 6.4 12.35"/><path class="cls-6" d="M5.48,5.16s2.19-1.23,3.18.28l.83-.12"/><path class="cls-6" d="M6.94,13.07a4.32,4.32,0,0,0,4-.74"/><path class="cls-7" d="M9.17,19.27l.06,1a9.78,9.78,0,0,1-3-.16"/><line class="cls-7" x1="6.91" y1="13.01" x2="8.24" y2="15.57"/><polyline class="cls-6" points="11.05 11.82 11.94 12.46 11.26 13.91 12.06 14.61"/><path class="cls-6" d="M6.5,12.47c-.28.36-1.22,1.33-1.22,1.33l1.31.82-.73,1.05"/><line class="cls-6" x1="11.05" y1="18.19" x2="11.37" y2="20.13"/><line class="cls-6" x1="10.98" y1="12.33" x2="10.93" y2="15.03"/><line class="cls-6" x1="5.02" y1="0.99" x2="4.23" y2="0.99"/><line class="cls-6" x1="3.1" y1="2.49" x2="2.31" y2="2.49"/><line class="cls-6" x1="1.58" y1="4.52" x2="0.79" y2="4.52"/><path class="cls-8" d="M6.73,15.31a.14.14,0,0,0,0,.28A.14.14,0,0,0,6.73,15.31Z"/><path class="cls-8" d="M5.32,17.31h0a.14.14,0,0,0,0,.28h0a.14.14,0,0,0,.14-.14A.15.15,0,0,0,5.32,17.31Z"/><path class="cls-8" d="M5.87,17.31a.14.14,0,0,0-.13.14v0a.14.14,0,0,0,.13.14A.14.14,0,0,0,6,17.47v0A.14.14,0,0,0,5.87,17.31Z"/><path class="cls-9" d="M17.49,32.34a7.19,7.19,0,0,1-2.22.06c-.35,0-.71,0-1.07,0s-.75,0-1.13,0c-.17,0-.17.25,0,.26.38,0,.75,0,1.13,0s.76,0,1.14.06a7.19,7.19,0,0,0,2.22-.07C17.73,32.56,17.66,32.3,17.49,32.34Z"/><path class="cls-9" d="M9.31,32.34a5.82,5.82,0,0,1-1.1,0,2.85,2.85,0,0,0-.5,0,4.36,4.36,0,0,0-.52,0A8.93,8.93,0,0,1,5,32.34c-.17,0-.17.25,0,.26a9.42,9.42,0,0,0,2.25.06,4.36,4.36,0,0,1,.52,0c.17,0,.33,0,.5,0a5.17,5.17,0,0,0,1.11-.06C9.54,32.57,9.47,32.31,9.31,32.34Z"/><path class="cls-6" d="M8.76,31.31a3.06,3.06,0,0,0-2-.18c-1.34.21-2,.63-2.07,1.2,0,0-.06.34.26.34"/><path class="cls-6" d="M9.47,31.16l.11,1.09s.06.43-.3.42H5"/><line class="cls-6" x1="9.56" y1="32.36" x2="4.79" y2="32.36"/><line class="cls-6" x1="9.73" y1="31.15" x2="10.07" y2="22.25"/><line class="cls-6" x1="7.3" y1="31.07" x2="9.73" y2="31.15"/><line class="cls-6" x1="7.58" y1="31.06" x2="6.52" y2="20.31"/><path class="cls-6" d="M13.28,18.82l.18.83a13.17,13.17,0,0,1-2.09.48"/><path class="cls-6" d="M11.52,22a9.83,9.83,0,0,1-2.89.32"/><line class="cls-10" x1="9.3" y1="22.36" x2="9.08" y2="30.2"/><path class="cls-6" d="M13.65,31.31a3.06,3.06,0,0,1,2-.18c1.34.21,2,.63,2.07,1.2,0,0,.06.34-.26.34"/><path class="cls-6" d="M12.94,31.16l-.11,1.09s-.06.43.3.42h4.3"/><line class="cls-6" x1="12.85" y1="32.36" x2="17.62" y2="32.36"/><polyline class="cls-6" points="15.11 31.07 12.28 31.16 10.19 22.23"/><line class="cls-6" x1="14.46" y1="31.09" x2="12.91" y2="19.89"/><path class="cls-6" d="M13,21.78A3.55,3.55,0,0,1,12.13,20"/><line class="cls-10" x1="11.13" y1="22.07" x2="12.91" y2="30.2"/><line class="cls-7" x1="6.19" y1="20.1" x2="6.07" y2="18.82"/><path class="cls-7" d="M11.16,19.89a8.78,8.78,0,0,1-1.93.21"/><path class="cls-11" d="M11,6.79a.88.88,0,0,0-1-.78.88.88,0,0,0-.65,1"/><path class="cls-12" d="M10.42,6.53c.33,0,.41.58.09.62S10.1,6.57,10.42,6.53Z"/><path class="cls-6" d="M12.1,16S10,18.74,8.88,19.32s-1.58.46-2.23-.1a12.85,12.85,0,0,1-1.48-1.61c-.27-.36-1.11-1.42.41-3.62"/><line class="cls-6" x1="7.88" y1="17.62" x2="7.44" y2="17.11"/><path class="cls-6" d="M13.57,16.2s-.71-2.07-2.16-1.31-3.9,2.29-3.9,2.29"/><line class="cls-6" x1="14.04" y1="16.28" x2="11.96" y2="16.14"/><path class="cls-6" d="M10.57,17.82s2.35,1.4,4.18.57-2.88-5.59-2.88-5.59"/><path class="cls-6" d="M7.69,17.07c-.25-.05-.85-.05-1.45.8A.26.26,0,0,1,6,18a.37.37,0,0,1-.16-.49,1.71,1.71,0,0,1,1.63-1.13"/><path class="cls-6" d="M5.84,17.45a.32.32,0,0,1-.36.09c-.23-.07-.15-.44-.05-.61a2,2,0,0,1,1.61-1"/><path class="cls-6" d="M5.33,17.3A.29.29,0,0,1,5,17.16c-.18-.3.1-.79.53-1.19s1.88-1.11,3.59.21"/><path class="cls-6" d="M11.21,15a1.82,1.82,0,0,1,.71,1.15"/><path class="cls-13" d="M9.32,7.13s2.79-.72,2.81-.67S10.38,8,10.38,8"/><path class="cls-13" d="M8,9a2.65,2.65,0,0,0,2.55-.13"/><ellipse class="cls-11" cx="8.51" cy="7.26" rx="0.82" ry="0.93" transform="translate(-1.09 1.51) rotate(-9.54)"/><path class="cls-12" d="M8.92,6.93c.32,0,.41.58.08.62S8.6,7,8.92,6.93Z"/></g></g></svg>