<svg xmlns="http://www.w3.org/2000/svg" viewBox="0 0 11.39 29.47"><defs><style>.cls-1,.cls-11{fill:#b56f26;}.cls-2{fill:#fff;}.cls-3{fill:#f9b91a;}.cls-4{fill:#ee7349;}.cls-5{fill:#0071b9;}.cls-6{fill:#0b6f2b;}.cls-7{fill:#0a7332;}.cls-8{fill:none;}.cls-11,.cls-8{stroke:#22234a;stroke-linecap:round;stroke-linejoin:round;stroke-width:0.4px;}.cls-9{fill:#22234a;}.cls-10{fill:#1d1e1b;}</style></defs><g id="Layer_2" data-name="Layer 2"><g id="Layer_1-2" data-name="Layer 1"><path class="cls-1" d="M11,4.58a.71.71,0,0,0-.81-.26.82.82,0,0,0-.19.09.69.69,0,0,0-.3-.35A1,1,0,0,0,9.24,4a.66.66,0,0,0,0-.11C9,3.07,8.78,2.27,8.6,1.47a.48.48,0,0,0-.47-.35L6,1.34a2.19,2.19,0,0,1-1.57-.22.49.49,0,0,0-.71.29,2.15,2.15,0,0,1-.29.68c-.14.23-.34.42-.48.65a1.73,1.73,0,0,0-.21,1,1.06,1.06,0,0,0-.31,0A.75.75,0,0,0,1.85,4a.88.88,0,0,0,0,1.16,3,3,0,0,0,.33.38l.13.13.05,0a.05.05,0,0,0,0,0h0l0,.1h0V6a1.76,1.76,0,0,0,.09.51A.5.5,0,0,0,3,6.82a10.28,10.28,0,0,1,.77,1.95,1.57,1.57,0,0,0,.45.85,1.66,1.66,0,0,0,1.17.26c.42,0,.83,0,1.24-.09a5.6,5.6,0,0,0,1.15-.24c.39-.16.41-.46.59-.82s.55-.78.74-1.17a.41.41,0,0,0,.05-.21l0,0c.2-.1.42,0,.61-.18s.22-.44.34-.67A2.53,2.53,0,0,1,10.6,6C11,5.61,11.33,5.06,11,4.58Z"/><path class="cls-2" d="M5.08,3.6a.73.73,0,0,0-.16-.23.64.64,0,0,0-.5-.21l-.26,0-.07,0a.69.69,0,0,0-.15.07.52.52,0,0,0-.18.18.3.3,0,0,0,0,.08.74.74,0,0,0-.09.36V4a.27.27,0,0,0,.07.13.35.35,0,0,0,.2.14.38.38,0,0,0,.21,0l.09,0h0l.1,0,.11,0h0l.17,0,.08,0,.16-.07A.37.37,0,0,0,5,4,.4.4,0,0,0,5.08,3.6Z"/><path class="cls-2" d="M6.75,3.71a.75.75,0,0,0-.32-.44L6.29,3.2a.86.86,0,0,0-.17,0l-.18,0H5.87a.61.61,0,0,0-.27.08l0,0a.39.39,0,0,0-.1.08l-.09.1a.08.08,0,0,1,0,0,.77.77,0,0,0-.07.26v0A.55.55,0,0,0,5.34,4a.45.45,0,0,0,.43.2.31.31,0,0,0,.13.06,1.09,1.09,0,0,0,.26,0h0a.24.24,0,0,0,.14,0,.26.26,0,0,0,.15,0,.27.27,0,0,0,.14-.07.36.36,0,0,0,.1-.11l0-.09s0-.05,0-.08A.69.69,0,0,0,6.75,3.71Z"/><path class="cls-3" d="M1.83,16.66a.19.19,0,0,0-.11-.09.25.25,0,0,0-.15,0h0a.18.18,0,0,0-.1-.07.18.18,0,0,0-.14,0,.14.14,0,0,0-.09.11.16.16,0,0,0,0,.15.37.37,0,0,0,.05.11l.06.19a.36.36,0,0,0,.07.1.28.28,0,0,0,.12,0,.19.19,0,0,0,.1,0,.12.12,0,0,0,.05,0l0-.06.11-.3a.11.11,0,0,0,0-.08A.1.1,0,0,0,1.83,16.66Z"/><path class="cls-4" d="M10.56,13.83a8.9,8.9,0,0,0-.47-1.6,13.69,13.69,0,0,0-.63-1.48A4,4,0,0,0,9,10.13a3.08,3.08,0,0,0-.49-.53.35.35,0,0,0-.45-.23L8,9.41H8l-.09.05-.3.07a1.12,1.12,0,0,0-.44.24v0H6.67a10.28,10.28,0,0,1-1.84,0,2,2,0,0,1-.74-.24.62.62,0,0,0-.72,0,4.05,4.05,0,0,0-1.2,1,.33.33,0,0,0-.2.12c-.34.37-.67.74-1,1.13S.25,12.53.22,13a8.31,8.31,0,0,0,.05,1.41,6,6,0,0,0,.3,1.43.47.47,0,0,0,.22.24c0,.11,0,.22,0,.33a.3.3,0,0,0,.25.29.29.29,0,0,0,.32-.21.14.14,0,0,0,0-.06h0a.71.71,0,0,0,.47.21l.76.05a4.51,4.51,0,0,0,1.49-.31A9.19,9.19,0,0,1,5.56,16C6,16,6.41,16,6.82,15.89c0,0,0,0,.07.06l.29.2.06.05h0l.09.07.14.15,0,0h0a.11.11,0,0,0,0,.05,4.64,4.64,0,0,0,.26.55.1.1,0,0,0,.12,0H8A.12.12,0,0,0,8.08,17v0l.11,0a.3.3,0,0,0,.14-.28.44.44,0,0,0,.47,0c.09-.06.16-.13.24-.19l.22-.21a3.31,3.31,0,0,0,.68-.86.25.25,0,0,0,.1-.08,5.91,5.91,0,0,0,.49-.63A1.16,1.16,0,0,0,10.56,13.83Z"/><path class="cls-5" d="M8.52,21.72a1,1,0,0,0,0-.39c0-.08-.06-.15-.08-.22a2,2,0,0,1,0-.54.3.3,0,0,0,0-.21V20.3a6.87,6.87,0,0,0,0-1.2c0-.19,0-.39-.07-.58a1,1,0,0,1,0-.54.3.3,0,0,0,0-.16.28.28,0,0,0,0-.09l0-.07a1.28,1.28,0,0,0,0-.55s0-.06-.08-.07a.11.11,0,0,0-.09.05,3.13,3.13,0,0,0-.22.36h0a.41.41,0,0,0-.31-.17.47.47,0,0,0-.2.06.25.25,0,0,0-.12.11,1.09,1.09,0,0,0-.17.13L7,17.67c-.09-.2-.18-.4-.26-.61s0-.65-.06-1-.37-.33-.57-.23-.5.23-.76.33H5.23a.39.39,0,0,0-.28,0H4.8a1,1,0,0,0-.24.09l-.14.07H4.08a.8.8,0,0,0-.45.14l-.07.06a9.18,9.18,0,0,1-1.39.08A.38.38,0,0,0,1.8,17a1.06,1.06,0,0,1-.22.42.38.38,0,0,0,0,.48.55.55,0,0,0,0,.18c.22.82.46,1.64.71,2.45.12.39.24.78.37,1.17,0,.06,0,.11.05.16a.31.31,0,0,0,0,.19A5.13,5.13,0,0,0,3,23.29c.14.42.27.85.4,1.28.25.84.47,1.69.67,2.54v0a.41.41,0,0,0,.27.48,2.68,2.68,0,0,0,1.16-.09l.09,0h.29a5,5,0,0,1,.55.16,5.08,5.08,0,0,0,2.23-.29c.11-.13-.28-4.67-.25-4.84a.13.13,0,0,0,0-.06l0,0C8.62,22.26,8.56,22,8.52,21.72Z"/><path class="cls-6" d="M7.27,28.32a.81.81,0,0,1-.22-.3.73.73,0,0,0-.16-.33c-.21-.21-.62-.12-.88-.09a4.69,4.69,0,0,1-1,0,4.49,4.49,0,0,0-.9-.07A4.14,4.14,0,0,0,2.28,28a1.06,1.06,0,0,0-.57.57.61.61,0,0,0,.29.69c.28.13.69-.1.57-.44l0-.07a1.05,1.05,0,0,0,.21-.12,1.64,1.64,0,0,1,.48-.18,5.25,5.25,0,0,1,1.12-.1c.34,0,.67.09,1,.09l.55-.05c.12,0,.28-.05.42-.05a.91.91,0,0,0,.09.17,1.48,1.48,0,0,0,.29.37C7.08,29.21,7.63,28.67,7.27,28.32Z"/><path class="cls-7" d="M2,28.32a3.16,3.16,0,0,1,.78-.53,3.49,3.49,0,0,1,2-.13.35.35,0,0,1,.19.1c.34,0,.69-.05,1-.07a.53.53,0,0,1,.6.33c.09.25.14.52.22.78a.39.39,0,0,1-.47.48.48.48,0,0,1-.25-.14,3,3,0,0,1-1.49.07,7.13,7.13,0,0,1-.79.05c-.34,0-.69,0-1,0s-.69.13-.94-.12S1.75,28.53,2,28.32Z"/><path class="cls-3" d="M1.31,16.71a.11.11,0,0,1,0-.12.09.09,0,0,1,.12,0,.33.33,0,0,1,.13.11l0,0,.07,0h.08l.05,0,.07.07,0,.05a.17.17,0,0,1,0,.1.28.28,0,0,1,0,.12.6.6,0,0,1-.06.11l-.07,0-.07,0-.08,0-.07,0,0,0a.17.17,0,0,1,0-.1v-.05h0Z"/><path class="cls-2" d="M10.36,4.05a6.46,6.46,0,0,0-.18-.76A3.29,3.29,0,0,0,9.63,2a4.73,4.73,0,0,0-1.18-.9.17.17,0,0,0-.24.2l.13.41a.26.26,0,0,0,0,.28l.39.87a2,2,0,0,0,.17.32.8.8,0,0,0,.35.28,6.54,6.54,0,0,1-.36,1.24.18.18,0,0,0,.17.22c.21,0,.4.08.6,0a.4.4,0,0,0,.16-.18.69.69,0,0,1,.24-.24C10.22,4.33,10.39,4.29,10.36,4.05Z"/><path class="cls-8" d="M9.27,7.32A9.24,9.24,0,0,0,8.09,9.39"/><path class="cls-8" d="M2.64,3.79A5.9,5.9,0,0,0,3,6.52a12.17,12.17,0,0,1,1,2.93"/><path class="cls-8" d="M2.64,3.79a1,1,0,0,0-.43,0c-.79.13-.49,1.18-.16,1.5a1.49,1.49,0,0,1,.45,1c0,.33.23.65.57.6"/><path class="cls-8" d="M2.54,4.38a1.25,1.25,0,0,0,.06.29"/><path class="cls-8" d="M9.55,5.18s.27-1.1,1.23-.79c.76.26.29,1.25-.08,1.51a1.54,1.54,0,0,0-.61.89c-.08.33-.32.6-.65.5a.3.3,0,0,1-.2-.43"/><path class="cls-8" d="M10.25,5.23a1.86,1.86,0,0,1-.22.35l0,0"/><path class="cls-8" d="M3.94,4.44A.78.78,0,0,1,4.38,3a.79.79,0,0,1,.79.77.78.78,0,0,1-.77.78H4.25"/><path class="cls-8" d="M6.09,4.64H6a.79.79,0,0,1-.78-.77A.76.76,0,0,1,6,3.1a.77.77,0,0,1,.79.76.79.79,0,0,1-.35.66"/><circle class="cls-9" cx="4.4" cy="3.79" r="0.18"/><circle class="cls-9" cx="5.99" cy="3.82" r="0.18"/><path class="cls-8" d="M9.62,5l-.8-.1.4-1.4s-.89-.52-1-2.43c0,0-2.93.78-4.13.06A5.44,5.44,0,0,1,2.77,3.35L3,4.72H2.72"/><path class="cls-8" d="M10.35,4.34s-.09-3-2.11-3.29A2.53,2.53,0,0,0,6,.21a2.41,2.41,0,0,0-1.93.9A2.5,2.5,0,0,0,2.53,3.75"/><line class="cls-8" x1="4.65" y1="2.95" x2="3.68" y2="3.18"/><line class="cls-8" x1="5.91" y1="2.49" x2="6.74" y2="2.62"/><path class="cls-8" d="M3.93,9.45a3,3,0,0,0,2,.43,6.84,6.84,0,0,0,2.15-.49"/><path class="cls-8" d="M6.85,28.82s.18.38-.39.39l-4.34.06a.46.46,0,0,1-.48-.51c0-.52,1.16-1.21,2.46-1.18a3.49,3.49,0,0,1,1.47.35"/><path class="cls-1" d="M6.71,16s0,0,0,0l0,0h.07l0,0h0a.2.2,0,0,1,.24.13l0,.07c.11.15.21.31.31.46h0a.19.19,0,0,1,.1.17l0,0h0a.11.11,0,0,1,0,.14,1.9,1.9,0,0,1-.49.49c-.11.06-.19,0-.23-.11s-.07-.24-.1-.37a6.32,6.32,0,0,1-.11-.76V16.2h0a.43.43,0,0,0,0-.05v-.1A.06.06,0,0,1,6.71,16Z"/><path class="cls-8" d="M7.32,17.93a2.35,2.35,0,0,1-.64-2"/><line class="cls-8" x1="8.18" y1="14.04" x2="8.06" y2="10.42"/><path class="cls-8" d="M6.88,15.8c-1.45,0-3.87,1.27-5.41.79A2.52,2.52,0,0,1,1.42,16a8.73,8.73,0,0,1,1.89-5.89"/><path class="cls-8" d="M7.72,17,7,17.59"/><path class="cls-8" d="M8.19,9.24c1.3.92,2.38,4.43,2.38,4.43a1.28,1.28,0,0,1,0,.94"/><path class="cls-8" d="M8.33,13.93A1.6,1.6,0,0,1,9,14"/><line class="cls-8" x1="6.79" y1="15.91" x2="7.21" y2="15.43"/><line class="cls-8" x1="8.33" y1="13.93" x2="8.16" y2="13.39"/><path class="cls-8" d="M7.56,17.21c.13.13.24.19.29.16s-.08-.44-.37-.85-.6-.67-.69-.61"/><path class="cls-8" d="M8.42,16.73c.08-.07-.13-.43-.46-.8s-.67-.61-.75-.53"/><path class="cls-8" d="M7.85,17.37l.57-.64s.22.19.79-.43,1.38-1.67,1.38-1.67"/><path class="cls-8" d="M7.21,15.4a.56.56,0,0,1,.08-.47c.17-.2,1-1,1-1"/><path class="cls-8" d="M3.89,9.34c-1.56.32-3.4,3-3.4,3a2.42,2.42,0,0,0-.29,1"/><path class="cls-8" d="M1.63,13.44a.56.56,0,0,0-.3-.07"/><path class="cls-8" d="M1.34,16.87c-.17.06-.3.07-.33,0s.13-.25.41-.45"/><path class="cls-8" d="M.74,16.08c0-.09.25-.31.67-.51"/><path class="cls-8" d="M.2,13.39s.06.94.21,1.77.33.92.33.92l.27.81"/><line class="cls-8" x1="4.11" y1="27.58" x2="1.44" y2="17.43"/><path class="cls-8" d="M1.65,28.89c.07,0,5.2-.07,5.2-.07l-.44-1.09"/><path class="cls-7" d="M4,28.29a3.16,3.16,0,0,1,.78-.53,3.49,3.49,0,0,1,2-.13.31.31,0,0,1,.19.1c.35,0,.69-.05,1-.07a.53.53,0,0,1,.6.33c.09.25.14.52.22.78a.39.39,0,0,1-.47.48.48.48,0,0,1-.25-.14,3,3,0,0,1-1.49.07,7.13,7.13,0,0,1-.79.05c-.34,0-.69,0-1,0s-.69.13-.94-.12S3.78,28.5,4,28.29Z"/><path class="cls-8" d="M8.88,28.79s.18.38-.39.39l-4.34.06a.46.46,0,0,1-.48-.51c0-.52,1.17-1.21,2.46-1.18a3.49,3.49,0,0,1,1.47.35"/><path class="cls-8" d="M6.74,27.62c.29,0,2,0,2,0L8.34,16.81"/><line class="cls-8" x1="6.2" y1="27.55" x2="3.92" y2="19.18"/><path class="cls-8" d="M3.68,28.86c.07,0,5.2-.07,5.2-.07L8.44,27.7"/><path class="cls-8" d="M1.91,16.68a1.41,1.41,0,0,1-.45.79"/><path class="cls-8" d="M1.23,16.69s.07.28.18.68"/><line class="cls-8" x1="1.23" y1="16.59" x2="1.57" y2="17.37"/><path class="cls-10" d="M7.63,17.19s0,0,0,0l0,0h.1a.08.08,0,0,1,0,0h0a.08.08,0,0,1,0,0v0l0,0,0,0h0a0,0,0,0,1,0,0h0l0,0v0s0,0,0,0S7.62,17.21,7.63,17.19Z"/><path class="cls-8" d="M2.7,19.2a6.62,6.62,0,0,0,2.18-.32"/><path class="cls-8" d="M6.91,5.23a2,2,0,0,1-2.3.92"/><path class="cls-8" d="M3.83,4.34a7.25,7.25,0,0,1,2.73.09"/><path class="cls-11" d="M5.5,5.41a.65.65,0,0,1-.31.08.7.7,0,1,1,.69-.71v.07"/><path class="cls-9" d="M4,1.32a.26.26,0,0,0-.28,0A1.88,1.88,0,0,0,3.05,2l-.36.71,0,0L2.57,3a.24.24,0,0,0,0,.27c0,.28,0,.57,0,.86a.27.27,0,0,0-.08.07l0,.06a.24.24,0,0,0,0,.12l0,.23a.12.12,0,0,0,0,.08l.06.06.09,0h.09l0,0A.2.2,0,0,0,3,4.62l0-.06a.24.24,0,0,0,0-.12l0-.23a.2.2,0,0,0,0-.08l-.07-.06h0c0-.26,0-.53,0-.79A.21.21,0,0,0,3,3.18c.08-.13.16-.19.23-.32s.12-.1.16-.15A5.51,5.51,0,0,0,4,1.6.26.26,0,0,0,4,1.32Z"/><path class="cls-9" d="M8,.76A2.56,2.56,0,0,0,6.16.27a7.79,7.79,0,0,0-1,.12,6.88,6.88,0,0,0-.82.39.23.23,0,0,0,.11.44.17.17,0,0,0,.13.08h.07a6,6,0,0,0,1.53,0l.15,0h.16a.82.82,0,0,0,.41-.06l.9-.07C8,1.14,8.16.89,8,.76Z"/><path class="cls-9" d="M10.21,3.43a3.24,3.24,0,0,0-1.4-2.22.25.25,0,0,0-.17,0,.22.22,0,0,0-.27-.09.25.25,0,0,0-.14.27c.15.42.25.86.42,1.27a2.84,2.84,0,0,0,.6.86,7.1,7.1,0,0,1-.42,1.08A.22.22,0,0,0,9,4.92c.2,0,.46.15.64,0s.14-.34.3-.45.18-.07.26-.13a.33.33,0,0,0,.11-.25A2.62,2.62,0,0,0,10.21,3.43Z"/><path class="cls-9" d="M1.15,16.7a.1.1,0,0,0,0,.19A.1.1,0,0,0,1.15,16.7Z"/></g></g></svg>