<svg xmlns="http://www.w3.org/2000/svg" viewBox="0 0 16.76 28.69"><defs><style>.cls-1,.cls-10{fill:#f3a2a7;}.cls-2{fill:#bfe1f1;}.cls-3{fill:#0071b9;}.cls-4{fill:#fce79c;}.cls-5{fill:#0b6f2b;}.cls-6,.cls-7{fill:none;}.cls-10,.cls-6,.cls-7{stroke:#22234a;stroke-linecap:round;stroke-linejoin:round;stroke-width:0.4px;}.cls-7{stroke-dasharray:2;}.cls-8{fill:#fff;}.cls-9{fill:#22234a;}</style></defs><g id="Layer_2" data-name="Layer 2"><g id="Layer_1-2" data-name="Layer 1"><path class="cls-1" d="M2,8.53a.1.1,0,0,1,0,0h.06a.37.37,0,0,1,.14.07h0a.18.18,0,0,1,.12,0,.52.52,0,0,0,.11.1h0a.15.15,0,0,1,.12.05.15.15,0,0,1,0,.06,1.88,1.88,0,0,1,.22-.26l.27-.32.32-.37a1.09,1.09,0,0,1-.08-.15s0-.08,0-.12H3.23a1.15,1.15,0,0,1-.32,0,1.52,1.52,0,0,1-.63-.14.26.26,0,0,1,0-.44C2.49,7,2.7,7,2.91,6.9l.24-.09a.27.27,0,0,1,.12-.2l.2-.12a.25.25,0,0,1,.3,0,1.14,1.14,0,0,1,.3.18,4.9,4.9,0,0,1,.57.54c.37.39.68.83,1,1.23a.56.56,0,0,1,.05.08.25.25,0,0,1,.1.46c-.2.11-.46.33-.69.26a.51.51,0,0,1-.26-.2c-.11.1-.22.2-.34.29a2,2,0,0,1-.61.42.59.59,0,0,1-.65-.23.54.54,0,0,1-.09-.26.42.42,0,0,1-.31.06A.41.41,0,0,1,2.55,9a.19.19,0,0,1-.1.05H2.37L2.31,9a.18.18,0,0,1-.07,0,1.14,1.14,0,0,1-.16-.15.17.17,0,0,1,0-.18l0,0H2a.1.1,0,0,1,0,0A.09.09,0,0,1,2,8.53Z"/><path class="cls-1" d="M12.6,16.16a0,0,0,0,1,0,0l0,0h.06l0,0h0a.19.19,0,0,1,.21.12.14.14,0,0,0,0,.06l.26.4h0a.17.17,0,0,1,.08.14l0,0h0a.08.08,0,0,1,0,.12,1.64,1.64,0,0,1-.42.41.12.12,0,0,1-.19-.09A1.67,1.67,0,0,1,12.7,17a4.62,4.62,0,0,1-.09-.65v-.05h0a.06.06,0,0,1,0,0V16.2S12.59,16.17,12.6,16.16Z"/><path class="cls-2" d="M4.93,10.09a.37.37,0,0,1,.12-.21A2.37,2.37,0,0,0,5,9.52a.16.16,0,0,1,.2-.2l.07,0,.09,0,.25-.11c.14-.07.26-.17.41-.23H6V8.86a.28.28,0,0,1,0-.12H6l0,0s0,0,0,0a0,0,0,0,1,0,0,0,0,0,0,0,0,0l.06,0h.06s0,0,.07.06l0,0a.19.19,0,0,1,.11.16c0,.13,0,.27,0,.4.42.18.57.75.66,1.15,0,.23.09.46.15.68s.07.24.11.36v0c.28-.35.56-.68.87-1s.78-1.07,1.25-1.27c0,0,.49-.65.56-.75l0,0a1.89,1.89,0,0,1,.19.3c.06.09,0,.2.09.3a1.25,1.25,0,0,1,.05.58c0,.16.08.31,0,.47v0h0a.34.34,0,0,0-.11.34.33.33,0,0,0,0,.12,1.22,1.22,0,0,0,0,.38.18.18,0,0,0,.35,0,1.29,1.29,0,0,1,.08-.28.79.79,0,0,0,.29-.31l0,0,0,0,.07-.1.08-.1,0,0,0,0,0,0,.17-.21a.76.76,0,0,0,.11-.14l.06-.08h0l0,0,.12-.14,0-.06a4.37,4.37,0,0,0,.52-.12l.37-.08.14,0h.13a1.32,1.32,0,0,0,.62-.12l.08,0a2.23,2.23,0,0,0,.11.71,2.32,2.32,0,0,0,.21.61.57.57,0,0,0,.25.22c.15.17.28.35.42.54a5.92,5.92,0,0,1,.42.68,15.75,15.75,0,0,1,.67,1.59.34.34,0,0,1,0,.1h0a1.66,1.66,0,0,1,.24.58,1.34,1.34,0,0,1,.07.69,1.86,1.86,0,0,1-.33.51c-.13.18-.26.35-.38.54a.39.39,0,0,1-.3.16l-.31.33a.19.19,0,0,1-.07.11l-.28.26a.28.28,0,0,1-.29,0l-.1.08h0a.7.7,0,0,1-.14.21.18.18,0,0,1-.12.05h0a.2.2,0,0,1-.11.11.09.09,0,0,1-.11,0,.09.09,0,0,1,0-.11l.08-.08a.14.14,0,0,1,0-.07s0,0,0,0a.05.05,0,0,1,0,0h0l0,0a.12.12,0,0,1,0-.08v0l0,0a.78.78,0,0,1-.16-.24l-.08-.13h0a.05.05,0,0,0,0,0c-.09,0-.19-.07-.28-.12a.37.37,0,0,1-.15-.2v0h0a1.77,1.77,0,0,1-.4.08c-.27,0-.53.06-.79.08h-.08a.41.41,0,0,1-.11.07,8,8,0,0,1-2.38.42c-.37,0-.9.08-1.19-.19a.82.82,0,0,1-.17-.58,1.14,1.14,0,0,1,.14-.59h0a.29.29,0,0,1,0-.13c.1-.45.24-.9.35-1.34.06-.22.12-.45.16-.67a3.11,3.11,0,0,0,.08-.44l-.09,0a2,2,0,0,1-.42.09h0a3,3,0,0,1-.61.25,1.69,1.69,0,0,1-.45.07.78.78,0,0,1-.48,0,1.07,1.07,0,0,1-.26-.4l-.12-.23,0-.06-.1-.21a.41.41,0,0,1,0-.19c-.18-.41-.35-.84-.5-1.27A1.51,1.51,0,0,1,4.93,10.09Z"/><path class="cls-3" d="M5,26.46a8.67,8.67,0,0,1,1.43.31,5.67,5.67,0,0,1,.61.28,6.44,6.44,0,0,0,.74.25h0a.19.19,0,0,0,.17.07.31.31,0,0,0,.32-.27,3.69,3.69,0,0,0,.08-.46l.15-.92c.11-.64.21-1.28.32-1.91v-.07a.24.24,0,0,0,.13-.18c.08-.52.17-1,.27-1.54s.24-1,.29-1.54a.19.19,0,0,0,0-.13.37.37,0,0,0,.1-.23c0-.12,0-.23,0-.35a.19.19,0,0,0,0-.08.26.26,0,0,0,0-.15c.06-.42.15-.84.25-1.25l.49,0a1,1,0,0,0,.34,0c0,.24,0,.48,0,.72s-.09.64-.13,1a15.4,15.4,0,0,0-.09,2,.42.42,0,0,0,0,.16,1.22,1.22,0,0,0,0,.27.36.36,0,0,0,0,.11c0,.82-.17,1.63-.13,2.45,0,0,0,0,0,.06,0,.35-.06.69-.08,1l-.05,0a1.31,1.31,0,0,1,0,.28.81.81,0,0,1,0,.31.22.22,0,0,0,0,.08.2.2,0,0,0,.09.09.28.28,0,0,0,.13,0,.2.2,0,0,0,.13,0h0l.09,0h.2a7,7,0,0,1,1.12,0c.39,0,.79,0,1.19,0a.34.34,0,0,0,.31-.21.32.32,0,0,0-.07-.36l0,0h0a.33.33,0,0,0,.07-.24c0-.82-.06-1.64-.1-2.46a.6.6,0,0,0,.06-.19,27.33,27.33,0,0,0,0-3,.36.36,0,0,0,0-.11c0-.1,0-.19,0-.29a1.14,1.14,0,0,0,.05-.49v-.49c0-.33,0-.67,0-1,0,0,0-.05,0-.08s0,0,0-.06a.29.29,0,0,0,0-.18.13.13,0,0,0,0-.06,1.13,1.13,0,0,0,0-.18.19.19,0,0,0,0-.08.26.26,0,0,0-.1-.13.18.18,0,0,0-.1,0,.19.19,0,0,0-.1,0l-.11.09-.13.09-.05.06a5.31,5.31,0,0,1-.23-.55,2.71,2.71,0,0,1-.09-.85.16.16,0,0,0-.17-.17,12.14,12.14,0,0,0-2.21.49A5.87,5.87,0,0,1,9,16.68a5.81,5.81,0,0,1-1.18-.08.19.19,0,0,0-.21.21l0,.06a10.94,10.94,0,0,0-.45,1.77.46.46,0,0,0-.07.07,1.52,1.52,0,0,0-.19.58,3.6,3.6,0,0,1-.2.66c-.16.43-.3.85-.42,1.29-.24.93-.51,1.84-.84,2.74a.26.26,0,0,0,0,.21c-.11.31-.2.62-.29.93s-.1.34-.14.51a1.17,1.17,0,0,1-.14.41A.25.25,0,0,0,5,26.46Z"/><path class="cls-4" d="M10.82,27.55a.65.65,0,0,1,.15-.47c.27-.24.58,0,.87,0s.75-.15,1.12-.18a2.76,2.76,0,0,1,1.07.17,3.3,3.3,0,0,1,1,.43c.26.21.52.53.37.87a.27.27,0,0,1-.39.06.25.25,0,0,1-.13,0c-.78,0-1.55,0-2.33,0-.38,0-.76,0-1.14,0s-.64,0-.65-.4A4.55,4.55,0,0,1,10.82,27.55Z"/><path class="cls-4" d="M2.36,26.85a2.32,2.32,0,0,1,2.11-.51,9.58,9.58,0,0,1,1.19.22,5.69,5.69,0,0,1,.69.25.69.69,0,0,1,.43.11.12.12,0,0,1,0,0,.26.26,0,0,1,.12.34l-.07.52a1.29,1.29,0,0,1-.11.47.24.24,0,0,1-.32.09h0c-.65-.25-1.35-.29-2-.48-.34-.1-.67-.24-1-.34a4.68,4.68,0,0,1-1-.31A.27.27,0,0,1,2.36,26.85Z"/><path class="cls-5" d="M.49,7.17a.54.54,0,0,0,.2-.1C.58,6.94.47,6.8.37,6.66a.17.17,0,0,1,0-.2,6.55,6.55,0,0,0,.39-.53,2.08,2.08,0,0,1,.51-.37c.15-.09.32-.24.46,0s.11.18.16.27a1.15,1.15,0,0,1,.14.27v0l0,0,.16-.14.12-.07a.2.2,0,0,1,.18,0c.07,0,.07.13.09.21l0,.08h0l0,0c0,.11.11.23.16.35a.23.23,0,0,1,0,.29.2.2,0,0,1-.13,0,1.17,1.17,0,0,1-.26.1L2.29,7h0l0,0h0v0s0,0,0,.06v0s0,.07,0,0a.54.54,0,0,0,.09.22l0,0,.05,0,0,0,.06,0h0l.07,0h.23l.15,0a.53.53,0,0,1,.37,0,.14.14,0,0,1,.08.14.2.2,0,0,1,0,.11.17.17,0,0,1,0,.13L3,8.33c-.06.06-.13.14-.21.21h0a.18.18,0,0,1-.1.11.2.2,0,0,1-.15,0l0,0-.13-.07L2,8.33l-.05,0-.18-.09L1.45,8l-.17-.13h0A4.68,4.68,0,0,0,.49,7.5.17.17,0,0,1,.49,7.17Z"/><path class="cls-1" d="M8,5a4.26,4.26,0,0,0,.55,1.11,2.59,2.59,0,0,1,.47,1,.51.51,0,0,0,.62.35h0a.43.43,0,0,0,.24-.14v0a.35.35,0,0,1,.05.08l0,0a.66.66,0,0,1,0,.15v0s0,0,0,.07a7.3,7.3,0,0,1,0,.81.34.34,0,0,0,0,.1.38.38,0,0,0,0,.1c.07.14.22.23.27.37a1,1,0,0,1,0,.3v.3A9.07,9.07,0,0,1,10.24,11a.17.17,0,0,0,.32.09,3.83,3.83,0,0,1,.5-.82,8.2,8.2,0,0,0,.58-.74,0,0,0,0,1,0,0l.8-.19.45-.1a1.11,1.11,0,0,0,.47-.14c.12-.09.15-.28.2-.4a2.31,2.31,0,0,1,.18-.35,2.47,2.47,0,0,1,.31-.46.48.48,0,0,0,.82,0,9,9,0,0,1,1-1.38.63.63,0,0,0,.28-.32s0-.09.05-.13a1.83,1.83,0,0,0,.34-.77.6.6,0,0,0-.64-.72.73.73,0,0,0-.26.09,7.19,7.19,0,0,0-.13-2.32C15.3,1.46,14.58,1.06,14,.6a.36.36,0,0,0-.28-.1c-1-.72-2.84-.2-3.59.61A4.3,4.3,0,0,0,9,3.93l0,0a.7.7,0,0,0-.55-.07A.5.5,0,0,0,8,4.4,1.11,1.11,0,0,0,8,5Z"/><path class="cls-6" d="M11.57,27.15A2.94,2.94,0,0,1,13.48,27c1.3.2,1.93.6,2,1.16,0,0,.06.33-.26.33"/><path class="cls-6" d="M10.89,27l-.11,1.06s-.06.41.29.41h4.16"/><line class="cls-6" x1="10.8" y1="28.17" x2="15.43" y2="28.17"/><line class="cls-6" x1="10.25" y1="27" x2="10.66" y2="18.4"/><line class="cls-6" x1="12.99" y1="26.92" x2="10.25" y2="27"/><line class="cls-6" x1="13.48" y1="26.98" x2="13.51" y2="17.33"/><path class="cls-6" d="M6.34,27.06a3,3,0,0,0-1.78-.69c-1.31-.16-2,.06-2.26.57a.27.27,0,0,0,.16.39"/><path class="cls-6" d="M7,27.17l-.17,1s-.06.42-.39.32l-4-1.14"/><line class="cls-6" x1="6.81" y1="28.25" x2="2.36" y2="26.98"/><polyline class="cls-6" points="5.37 26.53 8.19 27.42 9.93 18.31"/><path class="cls-6" d="M13.09,17.8a2,2,0,0,1-.52-1.73"/><line class="cls-6" x1="7.69" y1="16.54" x2="4.71" y2="26.36"/><line class="cls-6" x1="13.87" y1="14.51" x2="13.81" y2="11.44"/><path class="cls-6" d="M7.72,16.56c1.31.43,3.79-.62,5-.57"/><line class="cls-6" x1="8.76" y1="10.63" x2="7.53" y2="15.53"/><path class="cls-6" d="M9,18.11a8.76,8.76,0,0,0,2.71.3"/><path class="cls-6" d="M13.45,17.05l-.59.45"/><path class="cls-6" d="M13.72,10.31c1.1.8,2.18,3.92,2.18,3.92a1.1,1.1,0,0,1,0,.79"/><path class="cls-6" d="M14,14.42a1.43,1.43,0,0,1,.53.07"/><line class="cls-6" x1="12.67" y1="16.08" x2="13.03" y2="15.67"/><line class="cls-6" x1="14" y1="14.42" x2="13.86" y2="13.95"/><line class="cls-7" x1="11.26" y1="18.47" x2="11.26" y2="26.08"/><line class="cls-7" x1="9.4" y1="18.21" x2="7.49" y2="26.08"/><path class="cls-6" d="M13.3,17.19c.12.11.21.17.25.14s-.07-.38-.31-.72-.5-.59-.57-.53"/><path class="cls-6" d="M14,16.79c.07-.06-.1-.36-.38-.68s-.56-.52-.63-.46"/><path class="cls-6" d="M13.55,17.33l.49-.54s.18.17.68-.35S15.91,15,15.91,15"/><path class="cls-6" d="M13,15.65a.49.49,0,0,1,.08-.4c.14-.16.87-.81.87-.81"/><line class="cls-6" x1="4.89" y1="9.3" x2="5.03" y2="9.82"/><path class="cls-6" d="M6,8.6c.15,0,.26,0,.28,0s-.22.3-.6.5-.71.29-.75.21a.09.09,0,0,1,0-.08"/><path class="cls-6" d="M6.44,9.29c0,.08-.26.28-.66.43s-.73.21-.77.13"/><path class="cls-6" d="M6.24,8.59l.2.7s.23-.06.44.62.42,1.79.42,1.79"/><path class="cls-6" d="M5,9.85a.47.47,0,0,0-.11.39c0,.21.95,2.49.95,2.49s.17.74,1.28.35c.44-.15.79-.29,1.07-.4"/><path class="cls-6" d="M7.69,16.54s-.41-.18-.16-1"/><path class="cls-6" d="M4,9.22a2.6,2.6,0,0,0,.44-.59c.11-.25.11-.43,0-.55s-.37.08-.47.19l-.61.6s-.4.33-.11.66.58.34,1,.05A8.39,8.39,0,0,0,5,8.85"/><path class="cls-6" d="M4.12,9.08a.17.17,0,0,1,.07.17"/><path class="cls-6" d="M3.83,8.39s.24-.39.06-.63c0,0-.13-.21-.4,0s-.75.81-.75.81-.34.41-.11.59a.81.81,0,0,0,.51.09"/><path class="cls-6" d="M6.07,8.82,3.81,6.5a.38.38,0,0,0-.52.08A1.26,1.26,0,0,1,2.45,7c-.24,0-.32,0-.32.19s.31.48,1.11.39.83-.41.83-.41"/><path class="cls-6" d="M2.55,9.07A.46.46,0,0,1,2,8.68c0-.15-.07-.26-.1-.34"/><line class="cls-6" x1="4.16" y1="8.09" x2="3.98" y2="8.08"/><line class="cls-6" x1="4.86" y1="9.01" x2="5.01" y2="9.3"/><line class="cls-6" x1="2.98" y1="7.61" x2="3.28" y2="8.03"/><path class="cls-6" d="M2.64,8.78.24,7.29a1.33,1.33,0,0,1,.42-.18A.64.64,0,0,0,1,6.86a6.25,6.25,0,0,0,.24-.6.73.73,0,0,1,.49-.37L2.51,7"/><path class="cls-6" d="M3,6.77,2.48,5.7a1.69,1.69,0,0,1-.56.42"/><line class="cls-6" x1="3.45" y1="7.85" x2="3.34" y2="7.59"/><path class="cls-6" d="M2.14,6l-.38-.61a1.21,1.21,0,0,0-.8.37c-.4.37-.26.61-.76.82l.55.5"/><path class="cls-6" d="M9.47,9.22s-.6.23-2.22,2.22"/><polyline class="cls-6" points="9.96 8.46 10.3 9.22 10.3 11.36"/><polyline class="cls-6" points="10.3 9.22 9.58 10.07 9.48 9.19 10.02 8.37"/><path class="cls-6" d="M13.48,9.09l-1.88.45-1.3,1.82c-.05.07-1.25,5.18-1.25,5.18"/><polyline class="cls-6" points="11.6 9.54 11.83 10.63 13.79 10.3 13.47 8.95"/><path class="cls-8" d="M12.26,4.43l.23,0h0l.33,0c.21,0,.41.06.61.06s.22.13.22.25a.42.42,0,0,1-.06.19.22.22,0,0,1-.2.11.25.25,0,0,1-.17,0l-.11,0H13l-.25,0a1.55,1.55,0,0,1-.31,0,.53.53,0,0,1-.3-.05A.25.25,0,0,1,12,4.62.24.24,0,0,1,12.26,4.43Z"/><path class="cls-8" d="M9.7,4.06a1.14,1.14,0,0,1,.18-.25.65.65,0,0,1,.45-.2h0l.12,0a.72.72,0,0,1,.67.26.91.91,0,0,1,.19.68,1,1,0,0,1-.12.39.44.44,0,0,1-.14.13.69.69,0,0,1-.67.28A.61.61,0,0,1,10,5.15a1.57,1.57,0,0,1-.24-.32A.9.9,0,0,1,9.7,4.06Z"/><path class="cls-6" d="M9.18,2.7A6,6,0,0,0,9,3.9"/><path class="cls-6" d="M12.76.22a4,4,0,0,0-.7,0A3.22,3.22,0,0,0,9.18,2.7"/><path class="cls-6" d="M15.65,4.55a5.56,5.56,0,0,0,0-1.37A3.13,3.13,0,0,0,13.44.37a4.38,4.38,0,0,0-.68-.15"/><path class="cls-6" d="M13.42,9.09a4,4,0,0,1,.73-1.37"/><path class="cls-6" d="M14.16,7.67a.87.87,0,0,0,.07.25.24.24,0,0,0,.1.1c.27.18.57-.12.73-.5a2.28,2.28,0,0,1,.79-1c.39-.3,1.09-1.48.45-1.91-.46-.3-.83,0-1.06.35"/><path class="cls-6" d="M14.16,7.4a.61.61,0,0,0,0,.27"/><path class="cls-6" d="M15.78,5.31A3,3,0,0,1,15.3,6a1.43,1.43,0,0,0-.23.37"/><path class="cls-6" d="M15.48,5.82a.34.34,0,0,0,.31.09"/><path class="cls-6" d="M15.65,5.91a.37.37,0,0,0,0,.22"/><path class="cls-6" d="M9,3.9a.56.56,0,0,0-.65-.09c-.71.3-.25,1.59.07,2A2.24,2.24,0,0,1,9,6.9c.08.4.31.75.62.63a.21.21,0,0,0,.11-.07.57.57,0,0,0,.13-.27"/><path class="cls-6" d="M10,8.54l.06-.5a3.92,3.92,0,0,0-.51-1.56A6.83,6.83,0,0,1,9,3.9"/><path class="cls-6" d="M8.71,4.6A2.77,2.77,0,0,0,9,5.4a1.07,1.07,0,0,1,.15.41"/><path class="cls-6" d="M8.9,5.15a.34.34,0,0,1-.33,0"/><path class="cls-6" d="M8.72,5.21a.37.37,0,0,1-.05.21"/><path class="cls-6" d="M10.91,6.4a2.45,2.45,0,0,0,1.85,0"/><path class="cls-6" d="M12.23,4a.91.91,0,0,0,.49,1.57,1,1,0,0,0,.39,0"/><path class="cls-6" d="M13.48,5.23a.92.92,0,0,0,.19-.49.88.88,0,0,0-.18-.65"/><ellipse class="cls-6" cx="10.5" cy="4.42" rx="0.9" ry="0.87" transform="translate(5.4 14.61) rotate(-86.25)"/><line class="cls-6" x1="12.01" y1="4.35" x2="13.66" y2="4.52"/><line class="cls-6" x1="13.57" y1="5.09" x2="11.97" y2="4.93"/><path class="cls-9" d="M9.64,4.33a.26.26,0,0,1,.07-.11h0l.08,0h.1l.09,0,.08.06,0,.06a.19.19,0,0,1,0,.13V4.5a.25.25,0,0,1-.08.1v0l-.09,0a.16.16,0,0,1-.1,0,.16.16,0,0,1-.09,0,.13.13,0,0,1-.07-.06l0,0a.34.34,0,0,1,0-.14Z"/><path class="cls-9" d="M12,4.52A.16.16,0,0,1,12,4.44a.26.26,0,0,1,.09-.05h.09l.07,0a.23.23,0,0,1,.1.07l0,.06a.31.31,0,0,1,0,.13v0a.16.16,0,0,1,0,.09.16.16,0,0,1-.06.08.12.12,0,0,1-.08,0,.16.16,0,0,1-.1,0l-.06,0A.28.28,0,0,1,12,4.81l0,0a.3.3,0,0,1,0-.13v0A.14.14,0,0,1,12,4.52Z"/><path class="cls-10" d="M12.16,5.6s0-.07,0-.1a.62.62,0,0,0-.55-.7.63.63,0,0,0-.68.57.65.65,0,0,0,.56.7.52.52,0,0,0,.25,0"/><line class="cls-6" x1="12.26" y1="2.5" x2="13.84" y2="2.5"/><path class="cls-6" d="M10.18,2.89s1.15,0,1.15,0"/><path class="cls-9" d="M15.16,4.35a.05.05,0,0,1,0,0h.1l0,0a3296674187958.69,3296674187958.69,0,0,1,0,.06v0l0,0v0h-.11v0s0,0,0,0Z"/><path class="cls-9" d="M15.25,3.87c.1,0,.09.17,0,.16S15.15,3.87,15.25,3.87Z"/><path class="cls-9" d="M15,3.52c.1,0,.09.17,0,.16S14.9,3.51,15,3.52Z"/><path class="cls-9" d="M15,4c.1,0,.09.16,0,.16S14.9,4,15,4Z"/><path class="cls-9" d="M9.32,3.71s0,0,0,0h0l0,0h.06l0,0a0,0,0,0,0,0,0h0a.09.09,0,0,1,0,.05h0a0,0,0,0,1,0,0v0l0,0H9.36l0,0v0h0Z"/><path class="cls-9" d="M9.37,3.26c.1,0,.09.17,0,.16S9.27,3.26,9.37,3.26Z"/><path class="cls-9" d="M9.73,3c.1,0,.09.17,0,.16S9.63,3,9.73,3Z"/><path class="cls-9" d="M9.65,3.44c.1,0,.09.17,0,.16S9.55,3.43,9.65,3.44Z"/></g></g></svg>