<svg xmlns="http://www.w3.org/2000/svg" viewBox="0 0 78.46 34.22"><defs><style>.cls-1{fill:#e33b17;}.cls-2,.cls-4{fill:none;stroke-linecap:round;stroke-linejoin:round;stroke-width:0.4px;}.cls-2{stroke:#22234a;}.cls-3{fill:#ee7349;}.cls-4{stroke:#f8cde2;}</style></defs><g id="Layer_2" data-name="Layer 2"><g id="Layer_1-2" data-name="Layer 1"><path class="cls-1" d="M18.85.2H15.18a1.63,1.63,0,0,0-1.52,1.24l-3.33,11L7,1.44A1.66,1.66,0,0,0,5.44.2H1.81A1.74,1.74,0,0,0,.2,2V32.17A1.74,1.74,0,0,0,1.81,34H5.59A1.74,1.74,0,0,0,7.2,32.17v-7l.63,2.2a1.65,1.65,0,0,0,1.54,1.27h1.89a1.65,1.65,0,0,0,1.53-1.26l.67-2.32v7.11A1.74,1.74,0,0,0,15.07,34h3.78a1.74,1.74,0,0,0,1.61-1.85V2A1.74,1.74,0,0,0,18.85.2Z"/><path class="cls-1" d="M36.88.2h-4a1.68,1.68,0,0,0-1.55,1.33l-1.52,6-1.53-6A1.66,1.66,0,0,0,26.73.2h-4A1.59,1.59,0,0,0,21.42,1a2.07,2.07,0,0,0-.21,1.67l5.1,17.1V32.17A1.74,1.74,0,0,0,27.92,34H31.7a1.74,1.74,0,0,0,1.61-1.85V19.74l5.1-17.1A2,2,0,0,0,38.19,1,1.56,1.56,0,0,0,36.88.2Z"/><path class="cls-1" d="M54.22,6.45A8.78,8.78,0,0,0,52.5,2.9,6.77,6.77,0,0,0,49.7.77,8.83,8.83,0,0,0,46.43.2H40.77A1.74,1.74,0,0,0,39.16,2V32.17A1.74,1.74,0,0,0,40.77,34h3.77a1.75,1.75,0,0,0,1.62-1.85V22.25h.31a7.7,7.7,0,0,0,4.19-1.05,7.61,7.61,0,0,0,2.66-2.95A9.74,9.74,0,0,0,54.41,15a26.47,26.47,0,0,0,.23-3.73A22.06,22.06,0,0,0,54.22,6.45Zm-6.4,5.49a6.13,6.13,0,0,1-.11.73c0,.09,0,.18,0,.27a1,1,0,0,1,.05.25,1.57,1.57,0,0,1-.31,1,1.29,1.29,0,0,1-.87.42c-.29,0-.49-.23-.58-.51,0,0,0-.06,0-.09s0-.07,0-.11a35.6,35.6,0,0,1,0-3.58,4.68,4.68,0,0,1,0-1.4v0s0,0,0-.07A.73.73,0,0,1,46.34,8a.86.86,0,0,1,.45,0,.56.56,0,0,1,.43.2,1.25,1.25,0,0,1,.32.36,3,3,0,0,1,.3,1.18,7.64,7.64,0,0,1,0,1.17C47.88,11.21,47.86,11.58,47.82,11.94Z"/><path class="cls-1" d="M60.73.2H57A1.74,1.74,0,0,0,55.34,2V32.17A1.74,1.74,0,0,0,57,34h3.78a1.74,1.74,0,0,0,1.61-1.85V2A1.74,1.74,0,0,0,60.73.2Z"/><path class="cls-1" d="M76.65,8a1.74,1.74,0,0,0,1.61-1.84V2A1.74,1.74,0,0,0,76.65.2H65.39A1.74,1.74,0,0,0,63.78,2V32.17A1.74,1.74,0,0,0,65.39,34H76.65a1.74,1.74,0,0,0,1.61-1.85V27.86A1.74,1.74,0,0,0,76.65,26H70.78V20.85h4.91A1.73,1.73,0,0,0,77.3,19V15a1.73,1.73,0,0,0-1.61-1.84H70.78V8Z"/><path class="cls-2" d="M18.85.2H15.18a1.63,1.63,0,0,0-1.52,1.24l-3.33,11L7,1.44A1.66,1.66,0,0,0,5.44.2H1.81A1.74,1.74,0,0,0,.2,2V32.17A1.74,1.74,0,0,0,1.81,34H5.59A1.74,1.74,0,0,0,7.2,32.17v-7l.63,2.2a1.65,1.65,0,0,0,1.54,1.27h1.89a1.65,1.65,0,0,0,1.53-1.26l.67-2.32v7.11A1.74,1.74,0,0,0,15.07,34h3.78a1.74,1.74,0,0,0,1.61-1.85V2A1.74,1.74,0,0,0,18.85.2Z"/><path class="cls-2" d="M36.88.2h-4a1.68,1.68,0,0,0-1.55,1.33l-1.52,6-1.53-6A1.66,1.66,0,0,0,26.73.2h-4A1.59,1.59,0,0,0,21.42,1a2.07,2.07,0,0,0-.21,1.67l5.1,17.1V32.17A1.74,1.74,0,0,0,27.92,34H31.7a1.74,1.74,0,0,0,1.61-1.85V19.74l5.1-17.1A2,2,0,0,0,38.19,1,1.56,1.56,0,0,0,36.88.2Z"/><path class="cls-2" d="M52.5,2.9A6.77,6.77,0,0,0,49.7.77,8.83,8.83,0,0,0,46.43.2H40.77A1.74,1.74,0,0,0,39.16,2V32.17A1.74,1.74,0,0,0,40.77,34h3.77a1.75,1.75,0,0,0,1.62-1.85V22.25h.31a7.7,7.7,0,0,0,4.19-1.05,7.61,7.61,0,0,0,2.66-2.95A9.74,9.74,0,0,0,54.41,15a26.47,26.47,0,0,0,.23-3.73,22.06,22.06,0,0,0-.42-4.78A8.78,8.78,0,0,0,52.5,2.9Z"/><path class="cls-2" d="M60.73.2H57A1.74,1.74,0,0,0,55.34,2V32.17A1.74,1.74,0,0,0,57,34h3.78a1.74,1.74,0,0,0,1.61-1.85V2A1.74,1.74,0,0,0,60.73.2Z"/><path class="cls-2" d="M76.65,8a1.74,1.74,0,0,0,1.61-1.84V2A1.74,1.74,0,0,0,76.65.2H65.39A1.74,1.74,0,0,0,63.78,2V32.17A1.74,1.74,0,0,0,65.39,34H76.65a1.74,1.74,0,0,0,1.61-1.85V27.86A1.74,1.74,0,0,0,76.65,26H70.78V20.85h4.91A1.73,1.73,0,0,0,77.3,19V15a1.73,1.73,0,0,0-1.61-1.84H70.78V8Z"/><path class="cls-3" d="M18.85,33.14H15.07a.81.81,0,0,1-.75-.86V19L12,27.18a.76.76,0,0,1-.71.58H9.37a.75.75,0,0,1-.71-.58L6.34,19.07V32.28a.81.81,0,0,1-.75.86H1.81a.81.81,0,0,1-.75-.86V2.15a.81.81,0,0,1,.75-.85H5.44a.77.77,0,0,1,.71.57l4.18,13.75L14.47,1.88a.77.77,0,0,1,.71-.58h3.67a.81.81,0,0,1,.75.85V32.28A.81.81,0,0,1,18.85,33.14Zm-3-1.71H18.1V3H15.72L11.08,18.39a.78.78,0,0,1-.71.58.84.84,0,0,1-.78-.58L4.91,3H2.56V31.43H4.84V14a.82.82,0,0,1,.75-.86.86.86,0,0,1,.79.59L9.91,26.05h.81l3.57-12.36A.76.76,0,0,1,15,13.1a.87.87,0,0,1,.82.86Z"/><path class="cls-3" d="M31.7,33.14H27.92a.81.81,0,0,1-.75-.86V19.69L22,2.43a.94.94,0,0,1,.1-.77.71.71,0,0,1,.61-.36h4a.76.76,0,0,1,.72.62l2.36,9.28,2.35-9.28a.78.78,0,0,1,.72-.62h4a.72.72,0,0,1,.61.36.94.94,0,0,1,.1.77L32.45,19.69V32.28A.81.81,0,0,1,31.7,33.14Zm-3-1.71H31V19.55a.86.86,0,0,1,0-.28L35.84,3H33.45L30.56,14.37a.76.76,0,0,1-.72.61.85.85,0,0,1-.79-.61L26.17,3H23.78l4.85,16.26a1.26,1.26,0,0,1,0,.28Z"/><path class="cls-3" d="M44.54,33.14H40.77a.81.81,0,0,1-.75-.86V2.15a.81.81,0,0,1,.75-.85h5.66a8.18,8.18,0,0,1,3,.51,6,6,0,0,1,2.45,1.88,7.74,7.74,0,0,1,1.51,3.13,21,21,0,0,1,.39,4.52,25.77,25.77,0,0,1-.21,3.57,8.88,8.88,0,0,1-1,2.93,6.66,6.66,0,0,1-2.35,2.6,6.93,6.93,0,0,1-3.77.94H45.29v10.9A.8.8,0,0,1,44.54,33.14Zm-3-1.71H43.8V20.52a.8.8,0,0,1,.74-.85h1.93a5.67,5.67,0,0,0,3-.72,5.14,5.14,0,0,0,1.8-2,6.9,6.9,0,0,0,.77-2.32,23.25,23.25,0,0,0,.2-3.29,18.78,18.78,0,0,0-.35-4.08,5.76,5.76,0,0,0-1.16-2.41,4.5,4.5,0,0,0-1.84-1.42A6.82,6.82,0,0,0,46.43,3H41.52Zm4.84-14.12H44.54a.8.8,0,0,1-.74-.85V6.22a.81.81,0,0,1,.74-.86h2a3.75,3.75,0,0,1,2.07.49,3.19,3.19,0,0,1,1.2,1.49,5.82,5.82,0,0,1,.4,2c0,.65,0,1.33,0,2.05s0,1.49-.06,2.13a5.12,5.12,0,0,1-.44,1.91,3,3,0,0,1-1.23,1.41A4,4,0,0,1,46.36,17.31ZM45.29,15.6h1.07a2.78,2.78,0,0,0,1.43-.28,1.46,1.46,0,0,0,.6-.68,3.38,3.38,0,0,0,.28-1.24c0-.61,0-1.28,0-2s0-1.35,0-2a3.85,3.85,0,0,0-.27-1.35,1.54,1.54,0,0,0-.58-.72,2.48,2.48,0,0,0-1.33-.27H45.29Z"/><path class="cls-2" d="M45.94,14.72h.62a1.24,1.24,0,0,0,.82-.23,1.09,1.09,0,0,0,.35-.55,3.5,3.5,0,0,0,.16-1c0-.49,0-1,0-1.63s0-1.09,0-1.59a4.22,4.22,0,0,0-.15-1.09A1.14,1.14,0,0,0,47.41,8a1.1,1.1,0,0,0-.77-.22h-.7Z"/><path class="cls-3" d="M60.73,33.14H57a.81.81,0,0,1-.75-.86V2.15A.81.81,0,0,1,57,1.3h3.78a.81.81,0,0,1,.75.85V32.28A.81.81,0,0,1,60.73,33.14Zm-3-1.71H60V3H57.7Z"/><path class="cls-3" d="M76.65,33.14H65.39a.81.81,0,0,1-.75-.86V2.15a.81.81,0,0,1,.75-.85H76.65a.81.81,0,0,1,.75.85V6.22a.81.81,0,0,1-.75.85H69.92v7.14h5.77a.81.81,0,0,1,.75.85v4.06a.81.81,0,0,1-.75.86H69.92v7.13h6.73a.82.82,0,0,1,.75.86v4.31A.81.81,0,0,1,76.65,33.14ZM66.14,31.43H75.9V28.82H69.17a.81.81,0,0,1-.75-.85V19.12a.81.81,0,0,1,.75-.85h5.77V15.92H69.17a.82.82,0,0,1-.75-.86V6.22a.82.82,0,0,1,.75-.86H75.9V3H66.14Z"/><path class="cls-4" d="M11,26.69H9.26L5.66,14.58V32.26H1.83v-30c.12,0,3.67,0,3.67,0l4.83,15.37"/><path class="cls-4" d="M9.61,26.69h1.77L15,14.58V32.26h3.83v-30c-.13,0-3.67,0-3.67,0L10.32,17.61"/><polyline class="cls-4" points="29.75 13.4 26.76 2.23 22.73 2.23 27.91 19.5 27.91 32.26 29.81 32.26"/><polyline class="cls-4" points="29.76 13.4 32.74 2.23 36.77 2.23 31.6 19.5 31.6 32.26 29.7 32.26"/><path class="cls-4" d="M40.66,2.23l7,0S53.07,2,53.07,11.6c0,9.21-5.58,9-5.58,9H44.58l0,11.7H40.85Z"/><path class="cls-4" d="M44.58,12.1V6.24h2.16c1.86,0,2.67,1,2.76,4.63v.85c-.09,3.67-.9,4.64-2.76,4.64H44.58V12"/><polygon class="cls-4" points="57.02 2.23 60.64 2.23 60.89 32.26 57.02 32.26 57.02 2.23"/><polygon class="cls-4" points="65.32 2.21 76.53 2.21 76.53 6.24 69.3 6.24 69.3 15.1 75.6 15.1 75.6 18.97 69.34 18.97 69.34 27.91 76.53 27.91 76.53 32.26 65.32 32.26 65.32 2.21"/></g></g></svg>