<svg xmlns="http://www.w3.org/2000/svg" viewBox="0 0 20.05 153.82"><defs><style>.cls-1{fill:#e33b17;}.cls-2,.cls-4{fill:none;stroke-linecap:round;stroke-linejoin:round;stroke-width:0.4px;}.cls-2{stroke:#22234a;}.cls-3{fill:#ee7349;}.cls-4{stroke:#f8cde2;}</style></defs><g id="Layer_2" data-name="Layer 2"><g id="Layer_1-2" data-name="Layer 1"><path class="cls-1" d="M18.28.2H14.73a1.56,1.56,0,0,0-1.48,1.05L10,10.62,6.76,1.25A1.56,1.56,0,0,0,5.28.2H1.76A1.56,1.56,0,0,0,.2,1.76V27.33A1.56,1.56,0,0,0,1.76,28.9H5.43A1.56,1.56,0,0,0,7,27.33V21.39l.61,1.87a1.57,1.57,0,0,0,1.49,1.08h1.83a1.58,1.58,0,0,0,1.49-1.08l.65-2v6a1.56,1.56,0,0,0,1.56,1.57h3.66a1.57,1.57,0,0,0,1.57-1.57V1.76A1.56,1.56,0,0,0,18.28.2Z"/><path class="cls-2" d="M18.28.2H14.73a1.56,1.56,0,0,0-1.48,1.05L10,10.62,6.76,1.25A1.56,1.56,0,0,0,5.28.2H1.76A1.56,1.56,0,0,0,.2,1.76V27.33A1.56,1.56,0,0,0,1.76,28.9H5.43A1.56,1.56,0,0,0,7,27.33V21.39l.61,1.87a1.57,1.57,0,0,0,1.49,1.08h1.83a1.58,1.58,0,0,0,1.49-1.08l.65-2v6a1.56,1.56,0,0,0,1.56,1.57h3.66a1.57,1.57,0,0,0,1.57-1.57V1.76A1.56,1.56,0,0,0,18.28.2Z"/><path class="cls-3" d="M18.28,28.15H14.62a.73.73,0,0,1-.73-.72V16.18l-2.28,6.91a.72.72,0,0,1-.69.5H9.09a.73.73,0,0,1-.69-.5L6.15,16.21V27.43a.72.72,0,0,1-.72.72H1.76A.72.72,0,0,1,1,27.43V1.86a.73.73,0,0,1,.72-.73H5.28A.73.73,0,0,1,6,1.62L10,13.28,14,1.62a.73.73,0,0,1,.69-.49h3.55a.73.73,0,0,1,.73.73V27.43A.73.73,0,0,1,18.28,28.15ZM15.35,26.7h2.21V2.58H15.25l-4.5,13.05a.73.73,0,0,1-.69.49.82.82,0,0,1-.76-.48L4.77,2.58H2.49V26.7H4.7V11.88a.73.73,0,0,1,.73-.73.82.82,0,0,1,.76.5L9.62,22.14h.78l3.46-10.49a.73.73,0,0,1,.69-.5.8.8,0,0,1,.8.73Z"/><path class="cls-4" d="M10.71,22.68H9L5.49,12.41v15H1.78V1.93c.12,0,3.56,0,3.56,0L10,15"/><path class="cls-4" d="M9.32,22.68h1.73l3.49-10.27v15h3.71V1.93c-.12,0-3.55,0-3.55,0L10,15"/><path class="cls-1" d="M16.88,30.66H13a1.57,1.57,0,0,0-1.5,1.12L10,36.88,8.55,31.79A1.58,1.58,0,0,0,7,30.66H3.16a1.57,1.57,0,0,0-1.27.65,1.59,1.59,0,0,0-.21,1.42l5,14.51V57.79a1.56,1.56,0,0,0,1.56,1.56h3.67a1.56,1.56,0,0,0,1.56-1.56V47.24l4.94-14.51a1.56,1.56,0,0,0-.2-1.42A1.58,1.58,0,0,0,16.88,30.66Z"/><path class="cls-2" d="M16.88,30.66H13a1.57,1.57,0,0,0-1.5,1.12L10,36.88,8.55,31.79A1.58,1.58,0,0,0,7,30.66H3.16a1.57,1.57,0,0,0-1.27.65,1.59,1.59,0,0,0-.21,1.42l5,14.51V57.79a1.56,1.56,0,0,0,1.56,1.56h3.67a1.56,1.56,0,0,0,1.56-1.56V47.24l4.94-14.51a1.56,1.56,0,0,0-.2-1.42A1.58,1.58,0,0,0,16.88,30.66Z"/><path class="cls-3" d="M11.85,58.61H8.19a.73.73,0,0,1-.72-.73V47.19l-5-14.64a.72.72,0,0,1,.69-1H7a.72.72,0,0,1,.7.52L10,40l2.29-7.88a.72.72,0,0,1,.69-.52h3.88a.73.73,0,0,1,.69,1l-5,14.64V57.88A.73.73,0,0,1,11.85,58.61ZM8.92,57.16h2.21V47.07a.59.59,0,0,1,0-.23L15.87,33H13.55l-2.79,9.64a.73.73,0,0,1-.7.52.82.82,0,0,1-.77-.52L6.5,33H4.18l4.7,13.8a.85.85,0,0,1,0,.23Z"/><polyline class="cls-4" points="9.97 41.86 7.07 32.38 3.17 32.38 8.18 47.03 8.18 57.86 10.02 57.86"/><polyline class="cls-4" points="9.97 41.86 12.87 32.38 16.78 32.38 11.76 47.03 11.76 57.86 9.92 57.86"/><path class="cls-1" d="M17.12,66.83a7,7,0,0,0-1.66-3A6.7,6.7,0,0,0,12.74,62a9.67,9.67,0,0,0-3.16-.48H4.08a1.56,1.56,0,0,0-1.56,1.57V88.65a1.56,1.56,0,0,0,1.56,1.57H7.74a1.57,1.57,0,0,0,1.57-1.57V80.24h.3a8.33,8.33,0,0,0,4.06-.9,6.9,6.9,0,0,0,2.59-2.5,7.74,7.74,0,0,0,1-2.8,19.05,19.05,0,0,0,.22-3.16A16.44,16.44,0,0,0,17.12,66.83Zm-6.21,4.66a3.23,3.23,0,0,1-.1.61,1.94,1.94,0,0,1,0,.24.46.46,0,0,1,.05.2,1.19,1.19,0,0,1-.3.87,1.28,1.28,0,0,1-.85.35.55.55,0,0,1-.55-.42.31.31,0,0,1,0-.08l0-.1a27.84,27.84,0,0,1,0-3,3.39,3.39,0,0,1,0-1.19v0l0-.05a.61.61,0,0,1,.42-.74.94.94,0,0,1,.44,0,.54.54,0,0,1,.41.17,1,1,0,0,1,.31.3,2.24,2.24,0,0,1,.3,1,8.21,8.21,0,0,1,.05,1C11,70.87,11,71.18,10.91,71.49Z"/><path class="cls-2" d="M15.46,63.82A6.7,6.7,0,0,0,12.74,62a9.67,9.67,0,0,0-3.16-.48H4.08a1.56,1.56,0,0,0-1.56,1.57V88.65a1.56,1.56,0,0,0,1.56,1.57H7.74a1.57,1.57,0,0,0,1.57-1.57V80.24h.3a8.33,8.33,0,0,0,4.06-.9,6.9,6.9,0,0,0,2.59-2.5,7.74,7.74,0,0,0,1-2.8,19.05,19.05,0,0,0,.22-3.16,16.44,16.44,0,0,0-.41-4A7,7,0,0,0,15.46,63.82Z"/><path class="cls-3" d="M7.74,89.47H4.08a.72.72,0,0,1-.72-.72V63.18a.73.73,0,0,1,.72-.73h5.5a8.86,8.86,0,0,1,2.89.44,5.88,5.88,0,0,1,2.38,1.59,6.27,6.27,0,0,1,1.46,2.66A15.72,15.72,0,0,1,16.69,71a19.91,19.91,0,0,1-.2,3,6.88,6.88,0,0,1-.95,2.49,6.09,6.09,0,0,1-2.27,2.21,7.44,7.44,0,0,1-3.66.79H8.47v9.26A.73.73,0,0,1,7.74,89.47ZM4.81,88H7V78.77A.72.72,0,0,1,7.74,78H9.61a6.14,6.14,0,0,0,3-.61,4.62,4.62,0,0,0,1.74-1.69,5.2,5.2,0,0,0,.75-2A16.79,16.79,0,0,0,15.24,71a14.31,14.31,0,0,0-.33-3.46,4.73,4.73,0,0,0-1.13-2A4.36,4.36,0,0,0,12,64.26a7.67,7.67,0,0,0-2.42-.35H4.81ZM9.5,76H7.74A.72.72,0,0,1,7,75.32V66.63a.73.73,0,0,1,.72-.73H9.65a4.09,4.09,0,0,1,2,.42,2.78,2.78,0,0,1,1.16,1.26,4.47,4.47,0,0,1,.39,1.69c0,.55,0,1.13,0,1.74s0,1.27-.06,1.81a3.94,3.94,0,0,1-.43,1.62,2.76,2.76,0,0,1-1.19,1.2A4.51,4.51,0,0,1,9.5,76Zm-1-1.45h1a3,3,0,0,0,1.39-.24,1.32,1.32,0,0,0,.59-.58,2.61,2.61,0,0,0,.26-1c0-.51,0-1.08,0-1.71s0-1.15,0-1.67a3,3,0,0,0-.26-1.15,1.33,1.33,0,0,0-.56-.61,2.71,2.71,0,0,0-1.29-.23H8.47Z"/><path class="cls-2" d="M9.1,73.84h.59a1.35,1.35,0,0,0,.81-.19,1.1,1.1,0,0,0,.34-.47,3.17,3.17,0,0,0,.15-.85c0-.42,0-.88,0-1.39s0-.92,0-1.35a3,3,0,0,0-.15-.92,1.06,1.06,0,0,0-.32-.5A1.25,1.25,0,0,0,9.78,68H9.1Z"/><path class="cls-4" d="M4,63.24h6.78S16,63,16,71.2c0,7.81-5.41,7.6-5.41,7.6H7.78l0,9.93H4.16Z"/><path class="cls-4" d="M7.78,71.62v-5H9.87c1.81,0,2.59.82,2.68,3.94v.72c-.09,3.11-.87,3.93-2.68,3.93H7.78V71.56"/><rect class="cls-1" x="6.63" y="92.39" width="6.79" height="28.7" rx="1.56"/><rect class="cls-2" x="6.63" y="92.39" width="6.79" height="28.7" rx="1.56"/><path class="cls-3" d="M11.86,120.34H8.19a.72.72,0,0,1-.72-.73V94.05a.73.73,0,0,1,.72-.73h3.67a.73.73,0,0,1,.72.73v25.56A.72.72,0,0,1,11.86,120.34Zm-2.94-1.45h2.21V94.77H8.92Z"/><polygon class="cls-4" points="8.26 94.11 11.77 94.11 12.01 119.59 8.26 119.59 8.26 94.11"/><path class="cls-1" d="M15.72,130.54a1.63,1.63,0,0,0,1.63-1.63v-3.6a1.63,1.63,0,0,0-1.63-1.63H4.33a1.63,1.63,0,0,0-1.63,1.63V152a1.64,1.64,0,0,0,1.63,1.64H15.72A1.64,1.64,0,0,0,17.35,152v-3.82a1.63,1.63,0,0,0-1.63-1.63H9.78V142h5a1.64,1.64,0,0,0,1.64-1.63v-3.59a1.64,1.64,0,0,0-1.64-1.63h-5v-4.57Z"/><path class="cls-2" d="M15.72,130.54a1.63,1.63,0,0,0,1.63-1.63v-3.6a1.63,1.63,0,0,0-1.63-1.63H4.33a1.63,1.63,0,0,0-1.63,1.63V152a1.64,1.64,0,0,0,1.63,1.64H15.72A1.64,1.64,0,0,0,17.35,152v-3.82a1.63,1.63,0,0,0-1.63-1.63H9.78V142h5a1.64,1.64,0,0,0,1.64-1.63v-3.59a1.64,1.64,0,0,0-1.64-1.63h-5v-4.57Z"/><path class="cls-3" d="M15.38,152.84H4.47a.74.74,0,0,1-.73-.76V125.52a.74.74,0,0,1,.73-.76H15.38a.75.75,0,0,1,.73.76v3.58a.75.75,0,0,1-.73.76H8.85v6.29h5.6a.73.73,0,0,1,.72.75v3.58a.73.73,0,0,1-.72.75H8.85v6.29h6.53a.75.75,0,0,1,.73.76v3.8A.75.75,0,0,1,15.38,152.84ZM5.19,151.33h9.47V149H8.13a.74.74,0,0,1-.73-.75v-7.8a.75.75,0,0,1,.73-.76h5.59v-2.07H8.13a.74.74,0,0,1-.73-.75v-7.8a.74.74,0,0,1,.73-.75h6.53v-2.08H5.19Z"/><polygon class="cls-4" points="4.26 125.45 15.59 125.45 15.59 129.02 8.29 129.02 8.29 136.87 14.66 136.87 14.66 140.29 8.32 140.29 8.32 148.21 15.59 148.21 15.59 152.06 4.26 152.06 4.26 125.45"/></g></g></svg>