<svg xmlns="http://www.w3.org/2000/svg" viewBox="0 0 42.45 59.35"><defs><style>.cls-1{fill:#0071b9;}.cls-2{fill:#f3a2a7;}.cls-3{fill:#f9b91a;}.cls-4{fill:#ee7349;}.cls-5{fill:none;stroke:#22234a;stroke-linecap:round;stroke-linejoin:round;stroke-width:0.4px;}.cls-6{fill:#22234a;}.cls-7{fill:#fff;}.cls-8{fill:#23214a;}</style></defs><g id="Layer_2" data-name="Layer 2"><g id="Layer_1-2" data-name="Layer 1"><path class="cls-1" d="M41.13,51.38a4.37,4.37,0,0,0-2.65,1.74.66.66,0,0,0-.09-.31l-.14-.22h0a0,0,0,0,0,0,0,3.11,3.11,0,0,0-.62-.82,6.6,6.6,0,0,1-.43-.89c-.12-.3-.23-.61-.35-.92a1.77,1.77,0,0,0-.73-1.07,1,1,0,0,0-.66-.15.86.86,0,0,0-.8-.21l-.15,0a10.93,10.93,0,0,1-1.39-.15c-.5-.07-1-.16-1.51-.25h-.1a13.32,13.32,0,0,0-.33-2.81,12.64,12.64,0,0,0-.43-1.45l-.14-.35a.37.37,0,0,0,.14-.07,5.55,5.55,0,0,0,1.48-1.82c.36-.64.72-1.28,1.11-1.9.84-1.32,1.91-2.88,1.73-4.52a1,1,0,0,0-1.65-.56A16.57,16.57,0,0,0,32.26,36a1.09,1.09,0,0,0-.24.35h0c-.24.33-.47.66-.68,1a1.17,1.17,0,0,0-.13.44,7.18,7.18,0,0,0-.5,1,9.93,9.93,0,0,1-1.83,2.47.78.78,0,0,0-.17.5,8.75,8.75,0,0,1-2.45.16,1.09,1.09,0,0,0-.46.07,4.12,4.12,0,0,1-1.7-.81c-.74-.54-1.45-1.13-2.18-1.7s-1.43-1.21-2.19-1.72a1.5,1.5,0,0,0-2.31.5h0a.51.51,0,0,0-.17.34.53.53,0,0,0,.12.37l0,0a.94.94,0,0,0,.6.67h0l.05.06h0a27.26,27.26,0,0,0,2.88,2.6c.43.34.88.66,1.33,1a1,1,0,0,0,.41.3l.05,0a5.65,5.65,0,0,0,1.43.72,1.1,1.1,0,0,0,.44,0,8.8,8.8,0,0,0,1,5.06c-1.12.52-2.25,1-3.37,1.56a2.15,2.15,0,0,0-.87.68,2,2,0,0,0-.27,1.2l0,.52a.85.85,0,0,0-.13.68,1.74,1.74,0,0,1,.05.22.25.25,0,0,0,0,.08c0,.09,0,.18,0,.26s-.07.31,0,.15a1.21,1.21,0,0,0,.13.88l-.15.24a1,1,0,0,0-.1.88,7.36,7.36,0,0,0-.92-.37h-.06a.46.46,0,0,0-.12-.12,1.66,1.66,0,0,0-.27-.13,1.38,1.38,0,0,0-.29-.08h-.18l-.3,0a.72.72,0,0,0-.2.09l-.65-.06a.52.52,0,0,0-.52.4.5.5,0,0,0,.32.57,18.13,18.13,0,0,1,2.05.66c.33.13.66.27,1,.42l.23.12.13.07a3.82,3.82,0,0,0,.6.25.5.5,0,0,0,.45-.89h0a.54.54,0,0,0-.06-.31,1,1,0,0,0,.57-.39,8.52,8.52,0,0,0,1.05-1.89,5,5,0,0,0,.17-1.76c.58-.22,1.14-.49,1.7-.76a14.63,14.63,0,0,0,1.77-1,1.46,1.46,0,0,0,.32-.28l.19.06a3.5,3.5,0,0,0,1.2-.11c.31-.06.63-.11.94-.18a5.11,5.11,0,0,0,.79-.22.78.78,0,0,0,.51.2,29.15,29.15,0,0,1,3.49.29,4.09,4.09,0,0,0,.88,1.49.72.72,0,0,0,.11.15,3.7,3.7,0,0,0,.69.68,4.07,4.07,0,0,0,.84.48.78.78,0,0,0,.22,0,2.43,2.43,0,0,1,.22.49.51.51,0,0,0,.71.35,5.59,5.59,0,0,0,1.47-1.48,5.26,5.26,0,0,1,1.66-1.26A.5.5,0,0,0,41.13,51.38Z"/><path class="cls-2" d="M19,35.35a.54.54,0,0,0-.12-.38l-.06-.06h0a.56.56,0,0,0-.62-.31.53.53,0,0,0-.21.11,1.72,1.72,0,0,0-.29-.11,1.32,1.32,0,0,0-.34,0l0,0a.38.38,0,0,0,.15,0,2.34,2.34,0,0,0,.45-.07.58.58,0,0,0,.32-.21.52.52,0,0,0,.07-.38.49.49,0,0,0-.21-.32.53.53,0,0,0-.37-.07h0a.56.56,0,0,0-.32-.06,1.19,1.19,0,0,0-.44.14h0a1.59,1.59,0,0,0-.43.06.55.55,0,0,0-.37.47.49.49,0,0,0,.14.4,3.46,3.46,0,0,0,0,1s0,.06,0,.09a2.33,2.33,0,0,0-.15,1.28,1.05,1.05,0,0,0,.24.47.87.87,0,0,0,.23.16h0a1.33,1.33,0,0,0,.5.55.5.5,0,0,0,.76-.55.49.49,0,0,0,.23-.51,3.46,3.46,0,0,0-.45-1.11,2.13,2.13,0,0,0-.16-.25h0c.15.06.29.14.45.19a.35.35,0,0,0,.13.14l.11.06a.46.46,0,0,0,.26,0h0l.14,0h0l.11-.08h0l.09-.09h0l.06-.12s0,0,0-.07,0,0,0-.07a.61.61,0,0,0,0-.14Z"/><path class="cls-2" d="M35.22,32.6c-.1-.2-.26-.4-.37-.58s-.22-.4-.35-.6A.81.81,0,0,0,34,30.6a1.71,1.71,0,0,0-.87-.05l-.16,0-.12,0h0l-.13,0a.5.5,0,0,0,.32.93l.18,0h0l0,0a2,2,0,0,0-.32.25,2.8,2.8,0,0,0-.45.65.51.51,0,0,0,.13.69.52.52,0,0,0,.7-.13c-.05.07.11-.1,0-.05l.07,0c.13,0,.26-.06.4-.1-.06.54-.2,1.19.21,1.6a.6.6,0,0,0,.34.16.48.48,0,0,0,.59,0,1.7,1.7,0,0,0,.47-1.25A1.76,1.76,0,0,0,35.22,32.6Z"/><line class="cls-3" x1="7.68" y1="23.24" x2="3.57" y2="14.12"/><line class="cls-3" x1="39.05" y1="9.76" x2="39.17" y2="7.93"/><line class="cls-3" x1="38.56" y1="17.19" x2="39.05" y2="9.76"/><path class="cls-3" d="M42.07,6.66a.33.33,0,0,0,.07-.13c.15-.47-.52-1.11-1.51-1.42A2.87,2.87,0,0,0,39.1,5a2.58,2.58,0,0,0-1.61-.56,2.94,2.94,0,0,0-1.44.24l-.29-.14.75-.13C35.1,2.68,27.67-.92,19.29.54S5.05,7.94,4.43,10l1.23-.21a1.48,1.48,0,0,0-.25.25A2.85,2.85,0,0,0,4,10.27a2.54,2.54,0,0,0-1.33,1.07,2.83,2.83,0,0,0-1.4.62C.42,12.59,0,13.41.3,13.81a.52.52,0,0,0,.11.1s0,0,0,0c-.19.46.31,1.09,1.1,1.4a1.86,1.86,0,0,0,1.42.06,1.91,1.91,0,0,0,1.3.43l.15-.09,0,.05A7.39,7.39,0,0,1,5,17c.35.89.7,1.79,1,2.69a.82.82,0,0,0,.38.38l1.08,2.74a.76.76,0,0,0,.28.35s-.08.09-.07.12c.11.54,7.11-.37,15.63-2s15.36-3.46,15.25-4c0-.06-.13-.11-.33-.13a1.91,1.91,0,0,0,.38-.8,2.21,2.21,0,0,0,0-.77,1.21,1.21,0,0,0,.06-.34l.33-5.1a1.4,1.4,0,0,0,0-.36l.24.05a1.94,1.94,0,0,0,1-.81,2,2,0,0,0,1.32-.54c.64-.57.89-1.32.57-1.69C42.09,6.68,42.08,6.68,42.07,6.66ZM14.19,21.13a16.66,16.66,0,0,1,1.93-.62A28.06,28.06,0,0,1,19,20C17.26,20.41,15.63,20.78,14.19,21.13Z"/><ellipse class="cls-4" cx="23.12" cy="20.22" rx="15.74" ry="1" transform="translate(-3.45 4.82) rotate(-11.08)"/><path class="cls-5" d="M29.34,48.8c1.7-.33,2-.68,2-.68"/><path class="cls-5" d="M35.33,33.87,35,34.8"/><path class="cls-5" d="M29,41.3l2.19-3.77s1.47-2.92,2.61-3.19"/><path class="cls-4" d="M37.94,55.49a20.41,20.41,0,0,0,1.79-1.81,1.56,1.56,0,0,0,.2-.16,1.37,1.37,0,0,0,.61-.56.66.66,0,0,0,.09-.19c.41-.32.85-.61,1.25-.93l0,0A1.21,1.21,0,0,1,42,52c0,.38-.32.72-.59,1-.7.62-1.3,1.34-2,2C39,55.22,38.22,56,37.94,55.49Z"/><path class="cls-5" d="M38,55.56s.2.46.63,0l3.31-3.19a.53.53,0,0,0-.08-.81c-.46-.42-1.91-.17-2.85.83a3.3,3.3,0,0,0-.8,1.4"/><line class="cls-5" x1="37.47" y1="54.24" x2="37.98" y2="55.56"/><line class="cls-5" x1="38" y1="55.51" x2="41.89" y2="51.75"/><path class="cls-5" d="M30.31,51l4.24.26a5.11,5.11,0,0,0,3,3.17"/><path class="cls-5" d="M31.44,48.11l4,.46a1.27,1.27,0,0,1,1.19.78c.42,1.12,1.75,3.92,1.75,3.92"/><path class="cls-4" d="M22.09,58.73a19.74,19.74,0,0,1-2.34-1l-.25-.08a1.39,1.39,0,0,1-.77-.28l-.16-.15c-.49-.15-1-.25-1.5-.39a.11.11,0,0,1-.06,0A.41.41,0,0,0,17,57c.12.36.56.55.91.67.88.31,1.71.75,2.59,1.07C21,58.9,22,59.27,22.09,58.73Z"/><path class="cls-5" d="M22.08,58.81s0,.51-.57.28l-4.26-1.71a.52.52,0,0,1-.24-.77c.27-.57,1.71-.88,2.95-.31a3.27,3.27,0,0,1,1.28,1"/><line class="cls-5" x1="22.05" y1="57.4" x2="22.08" y2="58.81"/><line class="cls-5" x1="22.04" y1="58.78" x2="17.02" y2="56.76"/><path class="cls-5" d="M27.71,51.52l-4.06,2a5.13,5.13,0,0,1-1.55,4.06"/><path class="cls-5" d="M20.83,56.85s.18-3.09.14-4.29a1.28,1.28,0,0,1,.81-1.17l3.54-2a7.56,7.56,0,0,0,1,0"/><line class="cls-5" x1="7.68" y1="23.24" x2="3.57" y2="14.12"/><line class="cls-5" x1="39.05" y1="9.76" x2="39.17" y2="7.93"/><line class="cls-5" x1="38.56" y1="17.19" x2="39.05" y2="9.76"/><path class="cls-5" d="M3.57,14.12c-.26-1.45,7.51-4,17.34-5.72s18-1.92,18.26-.47"/><path class="cls-5" d="M4.43,10c.62-2,6.39-8,14.86-9.43S35.1,2.68,36.51,4.41"/><path class="cls-5" d="M39.21,9.74a1.94,1.94,0,0,0,1-.81,2,2,0,0,0,1.32-.54c.64-.57.89-1.32.57-1.69,0,0,0,0,0,0a.33.33,0,0,0,.07-.13c.15-.47-.52-1.11-1.51-1.42A2.87,2.87,0,0,0,39.1,5a2.58,2.58,0,0,0-1.61-.56,2.94,2.94,0,0,0-1.44.24,2.85,2.85,0,0,0-1.48-.33,3,3,0,0,0-1.46.36,2.88,2.88,0,0,0-1.53-.25A2.7,2.7,0,0,0,30.1,5a2.76,2.76,0,0,0-1.57-.22,2.84,2.84,0,0,0-1.48.55,2.79,2.79,0,0,0-1.59-.17,2.87,2.87,0,0,0-1.38.54,3,3,0,0,0-1.52-.1,3.76,3.76,0,0,0-.82.25"/><path class="cls-5" d="M4.21,15.84a1.91,1.91,0,0,1-1.3-.43,1.86,1.86,0,0,1-1.42-.06C.7,15,.2,14.41.39,14c0,0,0,0,0,0a.52.52,0,0,1-.11-.1c-.3-.4.12-1.22.94-1.85a2.83,2.83,0,0,1,1.4-.62A2.54,2.54,0,0,1,4,10.27,2.85,2.85,0,0,1,5.41,10,2.83,2.83,0,0,1,6.69,9.2a2.78,2.78,0,0,1,1.49-.15,2.88,2.88,0,0,1,1.36-.76,2.78,2.78,0,0,1,1.56,0,2.84,2.84,0,0,1,1.4-.73,2.78,2.78,0,0,1,1.58,0,2.78,2.78,0,0,1,1.43-.7,2.92,2.92,0,0,1,1.49,0,2.84,2.84,0,0,1,1.4-.6,3.17,3.17,0,0,1,.81,0"/><path class="cls-5" d="M21.72,5.82a2.84,2.84,0,0,0-1.26,0,3,3,0,0,0-1.25.48"/><ellipse class="cls-5" cx="23.12" cy="20.22" rx="15.74" ry="1" transform="translate(-3.45 4.82) rotate(-11.08)"/><path class="cls-5" d="M33.88,32.78a1.64,1.64,0,0,0,0,1.64,2.19,2.19,0,0,1,1,.47"/><path class="cls-5" d="M34.05,30.51l.2,0a.35.35,0,0,1,.24.17s.68,1.71.85,2.12a1.6,1.6,0,0,1,0,1.13"/><path class="cls-5" d="M33.49,31.12a1.52,1.52,0,0,1-.79.31c-.34,0-.52-.05-.53-.2s.2-.25.2-.25l.94-.56a.23.23,0,0,1,.14,0l.6.1"/><path class="cls-5" d="M33.86,31.14a.62.62,0,0,0,.1.33"/><path class="cls-5" d="M33.87,31.26a1.56,1.56,0,0,1-.46-.19"/><path class="cls-5" d="M34.57,32.09l-.88-.2a.5.5,0,0,0-.37.09c-.16.13-1,1-1,1s-.19.16-.09.27.44.21.89-.08a1.82,1.82,0,0,0,.58-.48"/><path class="cls-5" d="M33.54,32.58a.88.88,0,0,0,.58.14"/><path class="cls-5" d="M34.46,31.57l-.79-.15a.47.47,0,0,0-.39.08c-.17.12-1.07.88-1.07.88s-.2.15-.11.27.25.14.51,0"/><path class="cls-5" d="M35.1,34.85c0,.09.21.32-.23,1.48s-1.82,5.29-4.07,7.1"/><path class="cls-5" d="M16.63,37.42l.69.72"/><path class="cls-5" d="M25.26,41.93l-3.45-2.66s-2.46-2.15-3.62-2"/><path class="cls-5" d="M17.57,35.87a1.65,1.65,0,0,1,.6,1.52,2.2,2.2,0,0,0-.77.82"/><path class="cls-5" d="M16.55,33.83a.71.71,0,0,0-.17.11.35.35,0,0,0-.16.25s0,1.83,0,2.28a1.6,1.6,0,0,0,.47,1"/><path class="cls-5" d="M17.3,34.18a1.49,1.49,0,0,0,.85,0c.33-.09.46-.24.41-.38s-.27-.16-.27-.16l-1.09-.17a.23.23,0,0,0-.13,0s-.31.18-.52.32"/><path class="cls-5" d="M17,34.34a.59.59,0,0,1,0,.34"/><path class="cls-5" d="M17,34.46a1.5,1.5,0,0,0,.36-.36"/><path class="cls-5" d="M16.66,35.49,17.4,35a.47.47,0,0,1,.38,0c.2.06,1.28.53,1.28.53s.23.08.18.22-.32.36-.85.26a1.75,1.75,0,0,1-.72-.23"/><path class="cls-5" d="M17.81,35.55a1,1,0,0,1-.5.35"/><path class="cls-5" d="M16.57,35l.68-.44a.47.47,0,0,1,.38-.07c.21,0,1.33.42,1.33.42s.24.06.2.21-.18.21-.46.2"/><path class="cls-5" d="M17.21,38.25c0,.08-.07.37.78,1.27s3.68,4.22,6.45,5a10.14,10.14,0,0,0,.84,4.74"/><path class="cls-5" d="M30.64,43.46A10.35,10.35,0,0,1,31.42,48"/><path class="cls-5" d="M26.84,51.51a7.29,7.29,0,0,0,2.06-.14,10,10,0,0,0,2.44-.85"/><path class="cls-6" d="M16.55,33.77a1.84,1.84,0,0,1,.25-.17l.18-.1a.68.68,0,0,1,.37-.07h0c-4-5.78-6.58-9.48-7.68-11a.18.18,0,0,1-.07.05,4,4,0,0,1-.75.27l-.12,0C9.87,24.3,13.12,29,16.49,33.84Z"/><path class="cls-6" d="M17.85,35.8,19,37.49a.49.49,0,0,1,.17.06c.53.29,1.07.56,1.58.9l.22.19-1.9-2.75"/><path class="cls-6" d="M37.33,17A1.08,1.08,0,0,0,37,17l-.31,0h-.22c-.41,1.8-1.42,6.32-3,13.49h.23l.24.05.27.08-.11,0a.68.68,0,0,1,.31.11c1.34-6,2.66-11.9,3.07-13.72Z"/><path class="cls-6" d="M33.75,33.28a.41.41,0,0,0-.12-.14l-.11,0a.46.46,0,0,0-.26,0l-.12,0a.46.46,0,0,0-.18.16l0,.08-.08,0c-.17.8-.36,1.63-.55,2.5.09-.11.19-.22.28-.34a6,6,0,0,1,.86-.95.46.46,0,0,1,.15-.09c0-.17.08-.33.11-.5l.07-.12a.36.36,0,0,0,.07-.17.41.41,0,0,0,0-.19A.3.3,0,0,0,33.75,33.28Z"/><path class="cls-6" d="M18.63,22.08s-.05,0-.08,0a3.8,3.8,0,0,1-.89.11l6.42,19a4.87,4.87,0,0,1,.76.52l.45.41h0a.24.24,0,0,1,.09,0Z"/><path class="cls-6" d="M30,19.74a2.75,2.75,0,0,1-.5,0l-.29,21.61h0a4.23,4.23,0,0,1,.29-.87,4.38,4.38,0,0,1,.37-.67,2.8,2.8,0,0,1,.32-.38l.27-19.79Z"/><path class="cls-2" d="M30.58,38.06a.57.57,0,0,0-.49.1,2.94,2.94,0,0,1-.31-.92,6.7,6.7,0,0,1,0-1.42.46.46,0,0,0-.05-.2.1.1,0,0,0,0,0v0a.37.37,0,0,0,.05-.11.66.66,0,0,0,0-.28.87.87,0,0,0-.07-.17.61.61,0,0,0-.31-.24c-.18-.17-.36-.34-.55-.49s-.34-.25-.52-.36a.86.86,0,0,0-.65-.09,1.11,1.11,0,0,0-.09-.19A1.29,1.29,0,0,0,27,33a1.16,1.16,0,0,0-1,.05,1,1,0,0,0-.52.72,1.3,1.3,0,0,0,0,.44h0a.42.42,0,0,0-.18.08,1.26,1.26,0,0,0-.24.22l-.09.1-.06,0a.19.19,0,0,1-.07.06l-.09.06a1.36,1.36,0,0,0-.42.47c-.07.13-.11.27-.17.4s-.17.27-.23.41a2.16,2.16,0,0,0-.14.57,3.63,3.63,0,0,0,0,1.14.51.51,0,0,0-.54.21.69.69,0,0,0,.12.76c.07.09.16.17.24.26l.09.1a.17.17,0,0,1,.06.06l0,0,0,0a2.62,2.62,0,0,1,.3.51.37.37,0,0,0,.41.16l0,0,.22.26,0,.06.08.12c.06.09.11.18.16.27a5.66,5.66,0,0,1,.42,1.11.48.48,0,0,0,.46.35l.27,0a1,1,0,0,0,.6.08l.59,0c.39,0,.78-.06,1.17-.11l.13,0a.47.47,0,0,0,.33-.52.56.56,0,0,0,.09-.17.29.29,0,0,1,0-.1c.07-.18.16-.36.25-.54l.26-.55a.39.39,0,0,0,.26,0,.51.51,0,0,0,.29-.23,1.12,1.12,0,0,0,.13-.24.64.64,0,0,0,.05-.24.25.25,0,0,0,.12,0,.49.49,0,0,0,.23-.15.47.47,0,0,0,.13-.24v0l0,0,.07-.1a.45.45,0,0,0,.05-.3A.48.48,0,0,0,30.58,38.06Z"/><path class="cls-7" d="M28.37,36l-.06,0h0l-.18.1a1.16,1.16,0,0,1-.56.05c-.29,0-.58-.07-.88-.08a8.46,8.46,0,0,0-.87.05,1.86,1.86,0,0,1-.78,0,.24.24,0,1,0-.22.42l.09,0a.25.25,0,0,0,.17.25,4.38,4.38,0,0,0,1.76.25,3,3,0,0,0,.89-.17,2.25,2.25,0,0,0,.41-.21l.17-.13a1,1,0,0,0,.26-.15C28.76,36.23,28.64,35.85,28.37,36Z"/><path class="cls-5" d="M29.72,39.77a5.48,5.48,0,0,0-.78,1.93"/><path class="cls-5" d="M27.68,33.86c2,.33,2.79,2.27,2.66,4,0,0,0,.06,0,.17"/><path class="cls-5" d="M25.43,34.17a3.66,3.66,0,0,0-1.67,3.88,4.19,4.19,0,0,0,.38,1.25c.7,1.26,1.25,1.81,1.32,2.65"/><path class="cls-5" d="M24.66,36s.12,3.3,2.17,3.19S28.67,36,28.67,36"/><path class="cls-5" d="M28.89,35.77a6.14,6.14,0,0,1-2.17.37,5.05,5.05,0,0,1-2.34-.21"/><line class="cls-5" x1="27.68" y1="34.44" x2="28.04" y2="34.18"/><line class="cls-5" x1="28.07" y1="35.03" x2="27.57" y2="34.85"/><path class="cls-5" d="M27.66,34.64a2.32,2.32,0,0,1,.59,0"/><line class="cls-5" x1="25.49" y1="34.5" x2="25.39" y2="34.52"/><line class="cls-5" x1="25.54" y1="35.08" x2="25.68" y2="34.98"/><path class="cls-5" d="M25.53,34.72l-.22.05"/><path class="cls-5" d="M25.85,35.16a1.4,1.4,0,0,1-.38-.83,1.12,1.12,0,1,1,2.19-.25,1.41,1.41,0,0,1-.26,1"/><path class="cls-5" d="M29.94,38.35a.58.58,0,0,1,.79-.28c.53.25.14.92-.14,1.09a1.08,1.08,0,0,0-.5.62c-.08.23-.19.44-.5.32"/><path class="cls-5" d="M30.41,38.4a1.5,1.5,0,0,1-.3.49.73.73,0,0,0-.18.45"/><path class="cls-5" d="M30.27,38.76a.36.36,0,0,0,.3-.12"/><path class="cls-5" d="M30.25,38.76a.18.18,0,0,0,.1.19"/><path class="cls-5" d="M23.7,37.76a.55.55,0,0,0-.36.06c-.53.25-.15.92.14,1.1a1.09,1.09,0,0,1,.49.61c.07.2.13.48.48.34"/><path class="cls-5" d="M23.66,38.16a1.41,1.41,0,0,0,.19.36"/><path class="cls-5" d="M23.8,38.52a.34.34,0,0,1-.3-.13"/><path class="cls-5" d="M23.81,38.52a.17.17,0,0,1-.1.19"/><path class="cls-5" d="M25.48,42a6.22,6.22,0,0,0,3.46-.23"/><path class="cls-5" d="M25.42,41.75a.37.37,0,0,0-.3.34c0,.37.88.45,2.29.42"/><path class="cls-5" d="M29.05,41.57s.31,0,.33.31-.83.56-2.24.63"/><path class="cls-5" d="M30.22,39.62a.81.81,0,0,1,.36.43.79.79,0,0,1-.4,1,.76.76,0,0,1-.92-.33"/><path class="cls-8" d="M30.45,39.82c-.07-.13-.29-.17-.35,0a.69.69,0,0,1-.17.34l-.12.06a.17.17,0,0,0-.26,0c-.16.14-.37.4-.22.61a.71.71,0,0,0,.66.31C30.6,41.07,30.68,40.25,30.45,39.82Z"/><path class="cls-5" d="M24.05,39.78a1,1,0,0,0-.17.19.8.8,0,0,0,.2,1.1.77.77,0,0,0,1-.16"/><path class="cls-8" d="M24.81,40.34c0-.05,0-.11-.09-.1s-.15-.16-.21-.25a.14.14,0,0,0-.11-.07.15.15,0,0,0,0-.07v0a.22.22,0,0,1-.32,0l0,0h0l0,0c-.29.39-.35,1.18.23,1.32A.69.69,0,0,0,25,41C25.15,40.77,25,40.51,24.81,40.34Z"/><path class="cls-5" d="M30.13,38.12a6.4,6.4,0,0,1-.36-2.81"/><path class="cls-8" d="M30.21,36.5l-.05-.41a.18.18,0,0,0-.13-.15,1.5,1.5,0,0,1-.06-.29c0-.13-.2-.1-.19,0l.06.31a.18.18,0,0,0-.06.16l.08.6a1,1,0,0,0,.09.43c0,.19,0,.38.05.56a.16.16,0,0,0,.11.14v.07a.1.1,0,0,0,.19,0v0a.16.16,0,0,0,.07-.18,5.67,5.67,0,0,0-.05-.58c0-.15-.05-.28,0-.42A.18.18,0,0,0,30.21,36.5Z"/><path class="cls-5" d="M27.55,33.48a1.69,1.69,0,0,1,1.6.18c.68.42,1.18,1.18.91,1.66a.65.65,0,0,1-.15.18"/><path class="cls-8" d="M29.71,34.16c-.19-.19-.4-.35-.58-.55l0,0h0a4.19,4.19,0,0,0-1.41-.15h-.06a.23.23,0,0,0,0,.14.24.24,0,0,0,.1.22.23.23,0,0,0,.22,0,.36.36,0,0,0,.12.08,2.94,2.94,0,0,1,.91.34,1.87,1.87,0,0,1,.48.49.08.08,0,0,0,0,.08,1.29,1.29,0,0,1,.17.16s0,0,0,0a.46.46,0,0,0,.15.16,1.19,1.19,0,0,0,.13.25c.06.09.17,0,.17-.07v-.22a.08.08,0,0,0,0,0s0,0,0,0a.15.15,0,0,0,.06-.17v0A5.28,5.28,0,0,0,29.71,34.16Z"/><path class="cls-5" d="M30,35.45a1.25,1.25,0,0,1,.54.74,2.48,2.48,0,0,1-.09,1.8"/><path class="cls-8" d="M30.55,36.58a3,3,0,0,0-.15-.38,1.36,1.36,0,0,0-.29-.65.19.19,0,0,0-.32.19,3.23,3.23,0,0,0,.26.57l.06.34,0,.13a.14.14,0,0,0,0,.13c.06.22,0,.45,0,.68a.19.19,0,0,0,.38,0,2.49,2.49,0,0,0,0-.86A.13.13,0,0,0,30.55,36.58Z"/><path class="cls-5" d="M25.55,33.66a1.5,1.5,0,0,0-1.23.38A1.41,1.41,0,0,0,24,35.82"/><path class="cls-8" d="M25.23,33.72a2,2,0,0,0-1.09.51,2.54,2.54,0,0,0-.32,1.21c0,.2.3.31.36.1a.09.09,0,0,0,0,0h0v0a.49.49,0,0,0,0-.12s0-.07,0-.11a.16.16,0,0,0,.16-.08,3.14,3.14,0,0,1,.39-.51c.11-.1.37-.38.53-.38a.19.19,0,0,0,.15-.11.57.57,0,0,0,0-.22A.19.19,0,0,0,25.23,33.72Z"/><path class="cls-5" d="M24,35.66s-.65.48-.43,2"/><path class="cls-8" d="M23.62,36.26a1.85,1.85,0,0,0-.12.93c0,.12.21.1.19,0a1.72,1.72,0,0,1,.11-.84A.1.1,0,0,0,23.62,36.26Z"/><path class="cls-5" d="M28.67,36.29a2.22,2.22,0,0,1-2,.81,2.65,2.65,0,0,1-2-.61"/><path class="cls-6" d="M28.26,36.6c-.13.1-.27.21-.42.31a.37.37,0,0,0-.18,0c-.28.07-.57.14-.86.19l-.18,0h-.11a2.55,2.55,0,0,1-1.11-.29.19.19,0,0,0-.19,0s0,0,0,0l0-.07c-.11-.24-.53,0-.43.2l0,.06h0l0,.06.36.75a2.2,2.2,0,0,0,.4.7l.06.06a.22.22,0,0,0,.07.21,1.23,1.23,0,0,0,.71.37,1.13,1.13,0,0,0,.41,0h.07a.26.26,0,0,0,.23-.09l.09,0a.22.22,0,0,0,.23,0,2,2,0,0,0,.85-.85,6.6,6.6,0,0,0,.4-1.33A.24.24,0,0,0,28.26,36.6Z"/></g></g></svg>