<svg xmlns="http://www.w3.org/2000/svg" viewBox="0 0 43.24 31.23"><defs><style>.cls-1{fill:#0a7332;}.cls-2,.cls-8{fill:#f3a2a7;}.cls-3{fill:#bfe1f1;}.cls-4{fill:#f9b91a;}.cls-5{fill:none;}.cls-5,.cls-7,.cls-8{stroke:#22234a;stroke-linecap:round;stroke-linejoin:round;stroke-width:0.4px;}.cls-6{fill:#22234a;}.cls-7{fill:#fff;}</style></defs><g id="Layer_2" data-name="Layer 2"><g id="Layer_1-2" data-name="Layer 1"><polyline class="cls-1" points="18.27 21.72 16.33 28.03 18.14 29.09 22.05 21.18"/><path class="cls-2" d="M11.71,15.1c-.24-.44-.8-.55-.66-1.15a.8.8,0,0,0-.05-.72c-.17-.25-.41-.46-.6-.69-.42-.49-.82-1-1.19-1.5-.21-.29-.42-.58-.61-.87A5.19,5.19,0,0,0,8,9.36a1.44,1.44,0,0,0-1.79-.21l-.09.1c-.17,0-.35,0-.46,0H4.31a.38.38,0,0,0-.15,0H4.05l-.15,0h0l-.16.07a.35.35,0,0,0-.14.13.39.39,0,0,0-.06.11l-.11,0a.5.5,0,0,0,.27,1,5.34,5.34,0,0,1,1.27-.19.46.46,0,0,0,.36-.19h.51l0,0,.1.08a.45.45,0,0,0,.25.07c.28,0,.56.08.84.1a1,1,0,0,0,.42-.06,17.51,17.51,0,0,1,1.79,3.23A10.22,10.22,0,0,0,10,15.24c.26.41.66,1.06,1.23,1A.76.76,0,0,0,11.71,15.1Z"/><path class="cls-3" d="M9,8.62l.32-.22a2.56,2.56,0,0,1,.6-.29l.08,0,.14,0a.45.45,0,0,0-.6-.45,5,5,0,0,1-1,.08,8.26,8.26,0,0,0-1,.24,13.33,13.33,0,0,1-2,.29,19.54,19.54,0,0,1-4.09.49c-.56-.06-.62.7-.2.94a.64.64,0,0,1,.28-.17.75.75,0,0,1,.51.06c-.17-.07,0,0,0,0l.13,0,.11,0h.06l.2,0h.26l.28,0h0a.67.67,0,0,1,.44-.18H4l.07,0,.07,0a2,2,0,0,1,1-.23.5.5,0,0,1,.32.09l.31,0,.66-.07s0,0,0-.06l.14-.11a.63.63,0,0,1,.33-.09l.18,0a.49.49,0,0,1,.2.11l.51-.09c.32-.08.63-.2.95-.25Z"/><path class="cls-4" d="M9.35,4.61C8.53,4.61,8,4.1,7.18,4a6.43,6.43,0,0,0-2.34.31,10.51,10.51,0,0,0-2.31.46,2.87,2.87,0,0,0-.9.55,1.47,1.47,0,0,0-.35.54c-.16,0-.39.05-.51.08-.57.12-.41,1,.13,1h.2c0,.12.1.34.11.36.08.35.16.7.25,1A.48.48,0,0,0,2,8.64a.42.42,0,0,0,.38.19c1.09-.14,2.1-.6,3.2-.66.52,0,1,0,1.56-.1a9.86,9.86,0,0,1,1.71-.29.5.5,0,0,0,.5-.5c0-.46-.31-1.48.23-1.74S9.83,4.61,9.35,4.61Z"/><path class="cls-2" d="M29.4,17.94c.35-.35.92-.28,1-.9,0-.28,0-.47.26-.66a6.4,6.4,0,0,1,.79-.48c.54-.34,1.07-.7,1.59-1.07l.84-.64a5.28,5.28,0,0,1,.8-.61,1.46,1.46,0,0,1,1.76.35.31.31,0,0,1,.06.13l.45.12,1.3.43a.43.43,0,0,1,.13.09h.1l.14.07,0,0,.13.11a.56.56,0,0,1,.09.17.25.25,0,0,1,0,.12l.1.06c.55.34,0,1.18-.54.84a5.68,5.68,0,0,0-1.16-.57.46.46,0,0,1-.29-.29l-.49-.16,0,0-.12,0a.46.46,0,0,1-.26,0c-.28-.05-.56-.09-.83-.16a1,1,0,0,1-.38-.18,16.88,16.88,0,0,0-2.68,2.53A10.21,10.21,0,0,1,31,18.59c-.37.32-.94.82-1.47.58A.76.76,0,0,1,29.4,17.94Z"/><path class="cls-3" d="M34,12.59l-.24-.31a3,3,0,0,0-.48-.46l-.07-.06-.11-.08a.44.44,0,0,1,.7-.24,5,5,0,0,0,.89.36c.29.14.55.34.83.51a12.37,12.37,0,0,0,1.83.89A19.69,19.69,0,0,0,41,14.91c.56.12.38.86-.09,1a.87.87,0,0,0-.21-.25.71.71,0,0,0-.51-.09c.18,0,0,0,0,0h-.14l-.11,0h-.06l-.2-.05-.24-.07-.26-.1h0a.68.68,0,0,0-.36-.31l-.38-.13-.06,0-.07-.05a1.94,1.94,0,0,0-.86-.51.5.5,0,0,0-.34,0l-.28-.13-.61-.27s0-.05,0-.08l-.1-.14a.64.64,0,0,0-.29-.19l-.17,0a.59.59,0,0,0-.23,0c-.15-.08-.31-.15-.45-.24a7.31,7.31,0,0,0-.84-.52Z"/><path class="cls-4" d="M34.83,8.66c.78.25,1.49-.06,2.27,0a6.67,6.67,0,0,1,2.14,1,11.11,11.11,0,0,1,2.06,1.13,2.8,2.8,0,0,1,.68.81,1.11,1.11,0,0,1,.17.61c.15.09.36.18.47.24.51.28.1,1-.42.89l-.2-.05a2.59,2.59,0,0,1-.21.31c-.18.31-.37.62-.56.93a.47.47,0,0,1-.64.15.43.43,0,0,1-.43.07c-1-.46-1.81-1.21-2.84-1.6a15.22,15.22,0,0,1-1.46-.57,10.23,10.23,0,0,0-1.54-.8.52.52,0,0,1-.33-.63c.11-.44.75-1.31.32-1.72S34.38,8.52,34.83,8.66Z"/><line class="cls-5" x1="40.98" y1="14.89" x2="42.26" y2="13.26"/><line class="cls-5" x1="33.91" y1="11.54" x2="34.56" y2="9.48"/><path class="cls-5" d="M35,8.86c-.12.23,1.48,1.24,3.55,2.24s3.85,1.64,4,1.41-1.12-2-3.2-3S35.08,8.63,35,8.86Z"/><path class="cls-5" d="M42.47,12.37a.5.5,0,0,1,.2.22.54.54,0,0,1,.26.19c.12.15.14.3.06.34h0v0c0,.09-.16.15-.39.14a.77.77,0,0,1-.34-.09.64.64,0,0,1-.38,0,.93.93,0,0,1-.3-.14.74.74,0,0,1-.34-.05.76.76,0,0,1-.3-.17.83.83,0,0,1-.35-.06.91.91,0,0,1-.3-.19.87.87,0,0,1-.35-.08.74.74,0,0,1-.3-.2.79.79,0,0,1-.36-.08A.92.92,0,0,1,39,12a.78.78,0,0,1-.33-.09,1.28,1.28,0,0,1-.17-.1"/><path class="cls-5" d="M35.09,8.79a.53.53,0,0,0-.3,0,.58.58,0,0,0-.32-.09c-.18,0-.32.08-.3.17h0c-.08.05,0,.23.13.4a.85.85,0,0,0,.28.21.59.59,0,0,0,.24.28.87.87,0,0,0,.31.15.77.77,0,0,0,.24.24.9.9,0,0,0,.32.13.8.8,0,0,0,.27.23.89.89,0,0,0,.33.12.86.86,0,0,0,.28.23.82.82,0,0,0,.35.11.76.76,0,0,0,.28.23,1,1,0,0,0,.33.1.84.84,0,0,0,.28.2.58.58,0,0,0,.17.06"/><path class="cls-5" d="M38.49,11.82a.67.67,0,0,1-.27-.08,1,1,0,0,1-.26-.18"/><path class="cls-5" d="M36.65,14a1.51,1.51,0,0,0-2.33-.19l-4,2.66"/><path class="cls-5" d="M37.77,14.26,36.65,14"/><path class="cls-5" d="M36.25,14.82s1.11.17,1.58.27"/><path class="cls-5" d="M37.77,14.26c.38.09,1,.37,1,.7s-.48.22-.48.22l-.48-.09"/><path class="cls-5" d="M37.75,14.25h0"/><path class="cls-5" d="M38,15.54l.88.35s.4.18.46-.14c0-.13-.06-.25-.19-.37"/><path class="cls-5" d="M36.25,14.82l1.76.72"/><path class="cls-5" d="M37.66,15.8l.88.35s.4.18.46-.15"/><path class="cls-5" d="M34.92,14.63l2.74,1.17"/><path class="cls-5" d="M40.62,14.79l-.54-.25L32.9,11.05a1.75,1.75,0,0,0,.91,1.21"/><path class="cls-5" d="M40.86,15.6a1.78,1.78,0,0,0,1.06-.18l-1.78-.86"/><path class="cls-5" d="M34.84,13.26a2.13,2.13,0,0,1-1-1l2.69,1.3,3.9,1.89a1.6,1.6,0,0,0,.44.14"/><path class="cls-5" d="M35,13.33l-.13-.07"/><path class="cls-5" d="M40.38,15.46a2.16,2.16,0,0,1-1.52-.25l-.14-.06"/><path class="cls-5" d="M34.92,14.63l-4.28,4.31A1.21,1.21,0,0,1,29,18.82"/><path class="cls-1" d="M23.51,25.27a.34.34,0,0,1,0-.14c.26-.73.54-1.46.74-2.21a6.68,6.68,0,0,1,.56-1.81.47.47,0,0,1,.1-.1,0,0,0,0,1,0,0L24.77,21a.41.41,0,0,0-.37,0,2.41,2.41,0,0,1-.38,0,3.19,3.19,0,0,0-.42-.05,1.48,1.48,0,0,1-.36,0,.28.28,0,0,0-.18-.06l-1.24,0h-.45l0,0-.06,0,0,0a.09.09,0,0,0,0,.05.32.32,0,0,1-.3,0h0a2.21,2.21,0,0,1,.56.66.45.45,0,0,1,0,.16h.13l.05,0h0l.05.06.11.13.18.22.05.07a.56.56,0,0,0-.07.19c-.07.22-.43.29-.51.5s-.07.43-.13.59-.37,2-.52,2.48a.24.24,0,0,0,0,.12c-.06.12-.11.24-.16.36a.28.28,0,0,0,0,.18c-.22.49-.42,1-.62,1.5a0,0,0,0,0,0,0h0l0,.05h0v.11l0,.05a.12.12,0,0,0,.05.05l0,0h.13a.37.37,0,0,0,.29,0l.14,0a3.88,3.88,0,0,1,.48,0c.31,0,.62,0,.93-.07a.27.27,0,0,0,.27-.2l.29-.82a.2.2,0,0,0,0-.17c.21-.46.42-.91.62-1.38C23.37,25.64,23.44,25.46,23.51,25.27Z"/><path class="cls-6" d="M24.27,29A.18.18,0,0,0,24.2,29a4.34,4.34,0,0,0-1.34-.54,2.1,2.1,0,0,0-.75,0,2.19,2.19,0,0,0-.66.2l-.35,0-.27,0h-.08l-.15,0a.28.28,0,0,0-.35.27h0a.52.52,0,0,0-.1.11c-.1.16-.15.35-.26.51v0h0l0,.06a.32.32,0,0,0,0,.14.4.4,0,0,0,.11.27.44.44,0,0,0,.27.11.43.43,0,0,0,.24-.1h0l.25,0A2.85,2.85,0,0,0,21,30a5.61,5.61,0,0,0,.58,0,11,11,0,0,1,1.15,0,3.09,3.09,0,0,0,1.05,0c.37.06.8.11.95-.23S24.56,29.11,24.27,29Z"/><path class="cls-6" d="M14.06,27.16a.33.33,0,0,1,.22-.11,2.38,2.38,0,0,1,1.17.28,3,3,0,0,1,.84.75,2.55,2.55,0,0,1,.59.31c.1.06.19.15.28.21l0,0h0l0,0h0s.12,0,0,0a.27.27,0,0,1,.26.1.31.31,0,0,1,0,.28l-.07.15a.45.45,0,0,1,0,.16,4.9,4.9,0,0,1-.34.69,2,2,0,0,0-.12.34,1.39,1.39,0,0,1-.09.35c-.14.25-.31.35-.53.19a2.85,2.85,0,0,1-.54-.7c-.24-.37-.59-.75-.82-1.13A.26.26,0,0,1,15,29c-.35-.48-.72-.94-1.12-1.39A.29.29,0,0,1,14.06,27.16Z"/><line class="cls-5" x1="16.95" y1="30.87" x2="17.73" y2="28.84"/><path class="cls-5" d="M16.94,29.11a4.78,4.78,0,0,0-.87-1.33c-.5-.49-1.41-1.15-2.18-.58,0,0-.23.16-.09.36s2.59,3.27,2.59,3.27.31.42.56,0"/><path class="cls-5" d="M19.86,29.62s-.16.36.37.36h4.06a.43.43,0,0,0,.44-.49c0-.48-1.1-1.12-2.31-1.06a3.13,3.13,0,0,0-1.37.34"/><polyline class="cls-5" points="18.27 21.72 16.33 28.03 18.14 29.09 22.05 21.18"/><path class="cls-5" d="M21.8,28.5c-.27,0-1.82,0-1.82,0l1.75-6.28"/><line class="cls-5" x1="22.29" y1="28.43" x2="24.64" y2="22.07"/><path class="cls-5" d="M24.73,29.62c-.07,0-4.87,0-4.87,0l.4-1"/><line class="cls-5" x1="13.97" y1="27.15" x2="16.9" y2="30.93"/><ellipse class="cls-4" cx="21.38" cy="11.8" rx="9.22" ry="10.18" transform="translate(-1.55 3.41) rotate(-8.8)"/><path class="cls-4" d="M31.47,8.66a1.19,1.19,0,0,0-.75-.5,1.2,1.2,0,0,0,0-1.3,1.22,1.22,0,0,0-.75-.5,1.19,1.19,0,0,0-.35-1.61,1.15,1.15,0,0,0-.88-.17,1.18,1.18,0,0,0-.51-1.2,1.16,1.16,0,0,0-.86-.18,1.17,1.17,0,0,0-.89-1.3,1.14,1.14,0,0,0-.89.14,1.18,1.18,0,0,0-.89-.94,1.2,1.2,0,0,0-.88.14,1.19,1.19,0,0,0-1.34-1,1.15,1.15,0,0,0-.76.47A1.21,1.21,0,0,0,20.51.21a1.16,1.16,0,0,0-.83.58,1.21,1.21,0,0,0-1-.3,1.2,1.2,0,0,0-1,.87,1.15,1.15,0,0,0-.87-.21,1.18,1.18,0,0,0-1,1.31,1.17,1.17,0,0,0-1.44,1.3A1.17,1.17,0,0,0,13.1,5.4a1.16,1.16,0,0,0-.77.43,1.21,1.21,0,0,0-.12,1.3,1.14,1.14,0,0,0-.79.44,1.19,1.19,0,0,0,.16,1.64A1.2,1.2,0,0,0,11,9.9a1.22,1.22,0,0,0,.37,1.25,1.25,1.25,0,0,0-.57.7,1.2,1.2,0,0,0,.57,1.39,1.19,1.19,0,0,0-.12,1.49,1.12,1.12,0,0,0,.75.5,1.2,1.2,0,0,0,.78,1.8A1.18,1.18,0,0,0,14,18.82a1.2,1.2,0,0,0,.5,1.2,1.22,1.22,0,0,0,.86.17,1.18,1.18,0,0,0,1.79,1.16,1.18,1.18,0,0,0,.89.94,1.13,1.13,0,0,0,.88-.14,1.18,1.18,0,0,0,1.33,1,1.2,1.2,0,0,0,.77-.47,1.21,1.21,0,0,0,1.18.54,1.18,1.18,0,0,0,.83-.58A1.17,1.17,0,0,0,25,22a1.15,1.15,0,0,0,.87.21,1.18,1.18,0,0,0,1-1.31,1.17,1.17,0,0,0,1.44-1.3A1.17,1.17,0,0,0,29.63,18a1.18,1.18,0,0,0,.77-.43,1.21,1.21,0,0,0,.12-1.3,1.16,1.16,0,0,0,.79-.43,1.19,1.19,0,0,0-.16-1.64,1.2,1.2,0,0,0,.2-1.95,1.22,1.22,0,0,0,.57-.7,1.2,1.2,0,0,0-.57-1.39A1.19,1.19,0,0,0,31.47,8.66Z"/><ellipse class="cls-5" cx="21.38" cy="11.8" rx="9.22" ry="10.18" transform="translate(-1.55 3.41) rotate(-8.8)"/><path class="cls-5" d="M31.47,8.66a1.19,1.19,0,0,0-.75-.5,1.2,1.2,0,0,0,0-1.3,1.22,1.22,0,0,0-.75-.5,1.19,1.19,0,0,0-.35-1.61,1.15,1.15,0,0,0-.88-.17,1.18,1.18,0,0,0-.51-1.2,1.16,1.16,0,0,0-.86-.18,1.17,1.17,0,0,0-.89-1.3,1.14,1.14,0,0,0-.89.14,1.18,1.18,0,0,0-.89-.94,1.2,1.2,0,0,0-.88.14,1.19,1.19,0,0,0-1.34-1,1.15,1.15,0,0,0-.76.47A1.21,1.21,0,0,0,20.51.21a1.16,1.16,0,0,0-.83.58,1.21,1.21,0,0,0-1-.3,1.2,1.2,0,0,0-1,.87,1.15,1.15,0,0,0-.87-.21,1.18,1.18,0,0,0-1,1.31,1.17,1.17,0,0,0-1.44,1.3A1.17,1.17,0,0,0,13.1,5.4a1.16,1.16,0,0,0-.77.43,1.21,1.21,0,0,0-.12,1.3,1.14,1.14,0,0,0-.79.44,1.19,1.19,0,0,0,.16,1.64A1.2,1.2,0,0,0,11,9.9a1.22,1.22,0,0,0,.37,1.25,1.25,1.25,0,0,0-.57.7,1.2,1.2,0,0,0,.57,1.39,1.19,1.19,0,0,0-.12,1.49,1.12,1.12,0,0,0,.75.5,1.2,1.2,0,0,0,.78,1.8A1.18,1.18,0,0,0,14,18.82a1.2,1.2,0,0,0,.5,1.2,1.22,1.22,0,0,0,.86.17,1.18,1.18,0,0,0,1.79,1.16,1.18,1.18,0,0,0,.89.94,1.13,1.13,0,0,0,.88-.14,1.18,1.18,0,0,0,1.33,1,1.2,1.2,0,0,0,.77-.47,1.21,1.21,0,0,0,1.18.54,1.18,1.18,0,0,0,.83-.58A1.17,1.17,0,0,0,25,22a1.15,1.15,0,0,0,.87.21,1.18,1.18,0,0,0,1-1.31,1.17,1.17,0,0,0,1.44-1.3A1.17,1.17,0,0,0,29.63,18a1.18,1.18,0,0,0,.77-.43,1.21,1.21,0,0,0,.12-1.3,1.16,1.16,0,0,0,.79-.43,1.19,1.19,0,0,0-.16-1.64,1.2,1.2,0,0,0,.2-1.95,1.22,1.22,0,0,0,.57-.7,1.2,1.2,0,0,0-.57-1.39A1.19,1.19,0,0,0,31.47,8.66Z"/><line class="cls-5" x1="1.6" y1="8.68" x2="0.88" y2="6.74"/><line class="cls-5" x1="9.36" y1="7.63" x2="9.37" y2="5.47"/><path class="cls-5" d="M9.16,4.76c0,.26-1.78.73-4.07,1.06S.93,6.2.89,6,2.57,4.36,4.85,4,9.13,4.51,9.16,4.76Z"/><path class="cls-5" d="M1,5.82A.51.51,0,0,0,.69,6a.45.45,0,0,0-.31.1c-.15.1-.22.24-.15.3h0l0,0c0,.09.1.21.32.26a.87.87,0,0,0,.35,0,.75.75,0,0,0,.37.1,1,1,0,0,0,.33,0,.8.8,0,0,0,.34.06.78.78,0,0,0,.34-.07.86.86,0,0,0,.35,0A.73.73,0,0,0,3,6.68a.76.76,0,0,0,.36,0,1.14,1.14,0,0,0,.35-.1.8.8,0,0,0,.36,0,.72.72,0,0,0,.33-.1.73.73,0,0,0,.34,0l.2,0"/><path class="cls-5" d="M9.07,4.66a.42.42,0,0,1,.29.07.54.54,0,0,1,.33,0c.17,0,.28.17.23.25h0l0,0c.06.07,0,.22-.24.34a1.06,1.06,0,0,1-.33.11.68.68,0,0,1-.32.2.9.9,0,0,1-.34,0,.92.92,0,0,1-.3.15,1.15,1.15,0,0,1-.35,0A.87.87,0,0,1,7.74,6a.89.89,0,0,1-.36,0,.78.78,0,0,1-.33.13.76.76,0,0,1-.37,0,.64.64,0,0,1-.34.13,1,1,0,0,1-.34,0,.79.79,0,0,1-.33.11H5.49"/><path class="cls-5" d="M4.9,6.51a.7.7,0,0,0,.29,0,.71.71,0,0,0,.3-.09"/><path class="cls-5" d="M6,9.12a1.24,1.24,0,0,1,.81-.31,1.29,1.29,0,0,1,1.46.84l3,3.74"/><path class="cls-5" d="M4.85,9.05,6,9.12"/><path class="cls-5" d="M6.13,10.05,4.54,9.82"/><path class="cls-5" d="M4.85,9.05c-.39,0-1.11,0-1.18.36s.39.36.39.36l.48.05"/><path class="cls-5" d="M4.87,9.05h0"/><path class="cls-5" d="M4.23,10.2l-.94.07s-.44.05-.4-.28c0-.13.13-.22.29-.29"/><path class="cls-5" d="M6.13,10.05l-1.9.15"/><path class="cls-5" d="M4.49,10.55l-1,.07s-.43.05-.39-.28"/><path class="cls-5" d="M7.45,10.27c-.14,0-2.32.23-3,.28"/><path class="cls-5" d="M2,8.7l.58-.09,7.9-1.13a1.74,1.74,0,0,1-1.22.87"/><path class="cls-5" d="M1.5,9.39A1.73,1.73,0,0,1,.55,8.9l2-.28"/><path class="cls-5" d="M7.94,9a2.12,2.12,0,0,0,1.27-.64l-3,.43L2,9.39a1.48,1.48,0,0,1-.47,0"/><path class="cls-5" d="M7.81,9l.13,0"/><path class="cls-5" d="M2,9.4a2.23,2.23,0,0,0,1.53.23l.15,0"/><path class="cls-5" d="M7.45,10.27l2.77,5.41a1.23,1.23,0,0,0,1.64.4"/><ellipse class="cls-2" cx="21.57" cy="10.2" rx="3.69" ry="3.34" transform="translate(11.27 31.72) rotate(-89.7)"/><ellipse class="cls-5" cx="21.57" cy="10.2" rx="3.69" ry="3.34" transform="translate(11.27 31.72) rotate(-89.7)"/><path class="cls-5" d="M23.39,10.76a2.27,2.27,0,0,1-1.89,1,2.24,2.24,0,0,1-1.91-.94"/><circle class="cls-7" cx="20.43" cy="9.47" r="1.05"/><circle class="cls-7" cx="22.54" cy="9.44" r="1.05"/><path class="cls-8" d="M21.49,11a.85.85,0,0,1-.35-.08"/><path class="cls-8" d="M21.14,10.88a.74.74,0,0,1-.41-.66.75.75,0,1,1,1.5,0,.73.73,0,0,1-.29.6"/><circle class="cls-6" cx="20.43" cy="9.5" r="0.28"/><circle class="cls-6" cx="22.56" cy="9.47" r="0.28"/></g></g></svg>