<svg xmlns="http://www.w3.org/2000/svg" viewBox="0 0 10.84 14.19"><defs><style>.cls-1{fill:#22234a;}</style></defs><g id="Layer_2" data-name="Layer 2"><g id="Layer_1-2" data-name="Layer 1"><path class="cls-1" d="M3.63,4.12A2.3,2.3,0,0,1,3.47,5,2.52,2.52,0,0,1,3,5.69a3,3,0,0,1-.68.53,4,4,0,0,1-.84.37V7.71L0,8.19V3.52L1.49,3a3.53,3.53,0,0,1,.84-.18A1.48,1.48,0,0,1,3,3a1,1,0,0,1,.46.4A1.55,1.55,0,0,1,3.63,4.12ZM1.49,5.33l.06,0A.8.8,0,0,0,2,5a.75.75,0,0,0,.13-.43A.43.43,0,0,0,2,4.27a.49.49,0,0,0-.43,0l-.06,0Z"/><path class="cls-1" d="M4,2.23l1.58-.52V6.38L4,6.9Z"/><path class="cls-1" d="M6.05,1.55,8.81.66V1.88l-1.26.41v.52l1.23-.4V3.57L7.55,4v.54l1.3-.42V5.31l-2.8.91Z"/><path class="cls-1" d="M9.24.52,10.84,0,10.6,3.37l-1.12.36ZM9.29,4l1.5-.48V4.68l-1.5.49Z"/><path class="cls-1" d="M3.63,10.12a2.3,2.3,0,0,1-.16.88,2.52,2.52,0,0,1-.46.69,3,3,0,0,1-.68.53,4,4,0,0,1-.84.37v1.12L0,14.19V9.52L1.49,9a3.53,3.53,0,0,1,.84-.18A1.48,1.48,0,0,1,3,9a1,1,0,0,1,.46.4A1.55,1.55,0,0,1,3.63,10.12ZM1.49,11.33l.06,0A.8.8,0,0,0,2,11a.75.75,0,0,0,.13-.43A.43.43,0,0,0,2,10.27a.49.49,0,0,0-.43,0l-.06,0Z"/><path class="cls-1" d="M4,8.23l1.58-.52v4.67L4,12.9Z"/><path class="cls-1" d="M6.05,7.55l2.76-.89V7.88l-1.26.41v.52l1.23-.4V9.57L7.55,10v.54l1.3-.42v1.22l-2.8.91Z"/><path class="cls-1" d="M9.24,6.52,10.84,6,10.6,9.37l-1.12.36Zm0,3.48,1.5-.48v1.16l-1.5.49Z"/></g></g></svg>