<svg xmlns="http://www.w3.org/2000/svg" viewBox="0 0 20.36 10.32"><defs><style>.cls-1{fill:#f3a2a7;}.cls-2{fill:#eb6ea5;}.cls-3{fill:none;stroke:#22234a;stroke-linecap:round;stroke-linejoin:round;stroke-width:0.4px;}.cls-4{fill:#22234a;}</style></defs><g id="Layer_2" data-name="Layer 2"><g id="Layer_1-2" data-name="Layer 1"><path class="cls-1" d="M19,9.67h0l0,0-.07-.07v0a.37.37,0,0,0-.08-.15l-.08-.07a.83.83,0,0,0-.15-.11l-.17-.07h0c-.21-.12-.41-.23-.62-.33a2.25,2.25,0,0,0-.51-.2l-.19,0a2.8,2.8,0,0,0,.18-1.49,2.15,2.15,0,0,0-.5-.88,1.22,1.22,0,0,0-.87-.54h0a4.37,4.37,0,0,0-.43-.93,4.38,4.38,0,0,0-1.48-1.36,3.28,3.28,0,0,0-2-.41,7.7,7.7,0,0,0-.9.12.62.62,0,0,0,0-.19l-.13.1a1,1,0,0,1-.86.18,1.11,1.11,0,0,1-.73-.85A2.66,2.66,0,0,0,8.85,2a1.42,1.42,0,0,0-.62-.26,1.51,1.51,0,0,0,.13-.29l.06-.18a.29.29,0,0,1,0-.09s.06-.13,0,0a.4.4,0,0,0,0-.37A.42.42,0,0,0,8.19.54,2.25,2.25,0,0,0,7.55.45,3,3,0,0,0,6.44.28a.38.38,0,0,0-.22.15.49.49,0,0,0-.1.26V.82h0A.46.46,0,0,0,6,.73L5.86.7l-.07,0A.3.3,0,0,0,5.63.62a.29.29,0,0,0-.16,0h0A2.83,2.83,0,0,0,4.3.61a.44.44,0,0,0-.16,0L3.93.71a.6.6,0,0,0-.21.14A4.49,4.49,0,0,0,3,1.23a2.33,2.33,0,0,0-.55.58h0L2.3,1.65a.38.38,0,0,0-.37-.17,1.07,1.07,0,0,0-.4.23L1.2,2C1,2.12.75,2.31.54,2.5a.62.62,0,0,0-.16.2.38.38,0,0,0,0,.36,1.51,1.51,0,0,0,.69.55,2.37,2.37,0,0,0-.61,1.5,3.09,3.09,0,0,1-.07.35h0a.26.26,0,0,0,0,.08h0v.08h0v0c0,.05,0,0,0,.07a.22.22,0,0,1,0,.14,1.75,1.75,0,0,1-.14.6.24.24,0,0,1,0,.12,2,2,0,0,0-.07.26,1,1,0,0,0,0,.41c0,.11.14.18.23.24a2.59,2.59,0,0,1,.46.3c.06,0,.13,0,.13.12v.13a4.11,4.11,0,0,1,0,.7V9a.45.45,0,0,0,0,.16v.19s0,0,0,0v.11a.49.49,0,0,0,0,.17.59.59,0,0,0,.59.5c.19,0,.37,0,.56,0s.39,0,.59,0a1,1,0,0,0,.47-.08h0c1-.09,2.11.05,3.17,0,.52,0,1-.05,1.56,0l.83,0a2.43,2.43,0,0,0,.66,0,.49.49,0,0,0,.36.07,17.94,17.94,0,0,1,3.11,0c1.07,0,2.13,0,3.2,0a.53.53,0,0,0,.19,0l1.23,0,.13,0,0,0a.26.26,0,0,0,.32,0h.74a.28.28,0,0,0,.25-.19.33.33,0,0,0,0-.14A.29.29,0,0,0,19,9.67Z"/><polygon class="cls-1" points="8.18 2.59 8.18 2.59 8.18 2.59 8.18 2.59"/><path class="cls-2" d="M5.63,3.47a.26.26,0,0,0-.13-.16h0l-.12-.09-.19-.07L5,3.09a.42.42,0,0,0-.31,0,.78.78,0,0,0-.26.22.92.92,0,0,0-.21.34A.3.3,0,0,0,4.3,4c.06.06.1.31.18.28s.14,0,.19,0l.41,0c.12,0,.3-.13.42-.12s.1-.32.13-.43A.38.38,0,0,0,5.63,3.47Z"/><path class="cls-3" d="M1.6,10.12A.56.56,0,0,1,1,9.52,15,15,0,0,1,1,7.87"/><path class="cls-3" d="M8.22,1.71A2.71,2.71,0,0,1,9.94,3.63a3,3,0,0,1,0,1.7"/><path class="cls-3" d="M7.26,1.69l.09,0"/><path class="cls-3" d="M4.1.65a2.37,2.37,0,0,1,2.72.7"/><path class="cls-3" d="M2.05,8a2.2,2.2,0,0,0,.41.12,1.73,1.73,0,0,0,.75,0"/><path class="cls-3" d="M.77,6.76l.06.11"/><path class="cls-3" d="M1,3.65A2.68,2.68,0,0,0,.5,6"/><path class="cls-3" d="M1.88,3.13l-.16.05"/><path class="cls-3" d="M4.1.65c-1.2.32-2,1.17-2,2"/><path class="cls-3" d="M1.72,1.81a1.69,1.69,0,0,0,0,1.33s.14.37,0,.49S.9,3.71.49,3.2c0,0-.32-.35,0-.62l1.08-1a.54.54,0,0,1,.7-.06.7.7,0,0,1,.13.17"/><path class="cls-3" d="M6.7.47s.4.21.65,1.14c0,0,.07.33.27.43s.74-.33.85-1c0,0,.09-.46-.3-.54L6.75.21a.56.56,0,0,0-.64.3.71.71,0,0,0,0,.2"/><path class="cls-3" d="M13.82,3.35A3.87,3.87,0,0,1,16,6.75a3.84,3.84,0,0,1-.46,1.82"/><path class="cls-3" d="M9.89,3.43a4.09,4.09,0,0,1,2-.53,4.62,4.62,0,0,1,1.87.42"/><path class="cls-3" d="M15.56,8.77c.62,0,2.31.21,2.37,1.35"/><path class="cls-3" d="M12,7.71a2.31,2.31,0,0,1,1.87-.33,2.05,2.05,0,0,1,1.72,1.39"/><path class="cls-3" d="M5.66,3.75a1.77,1.77,0,0,1,.43-1.24"/><path class="cls-3" d="M7.84,5.29l-.08,0A1.7,1.7,0,0,1,5.71,4a1.47,1.47,0,0,1,0-.29"/><path class="cls-3" d="M3.52,3.2a1.69,1.69,0,0,1,.92,1.14A1.71,1.71,0,0,1,3.17,6.4"/><line class="cls-3" x1="5.72" y1="4.07" x2="4.45" y2="4.38"/><path class="cls-3" d="M5.66,3.47c-.15-.17-.5-.5-.86-.42"/><path class="cls-3" d="M4.21,3.8c.06-.22.23-.66.58-.74"/><ellipse class="cls-4" cx="3.57" cy="2.52" rx="0.23" ry="0.35" transform="translate(-0.48 0.89) rotate(-13.34)"/><ellipse class="cls-4" cx="5.56" cy="2.04" rx="0.23" ry="0.35" transform="translate(-0.32 1.34) rotate(-13.34)"/><path class="cls-3" d="M15.8,5.65c.74,0,1.34.87,1.35,1.91a2.44,2.44,0,0,1-.2,1s2.16.36,2.17,1.56"/><line class="cls-3" x1="20.16" y1="10.12" x2="0.35" y2="10.12"/><line class="cls-3" x1="2" y1="8.04" x2="2.31" y2="9.11"/><path class="cls-3" d="M.61,7a1.15,1.15,0,0,1,1,0A1,1,0,0,1,2,8"/><path class="cls-3" d="M.74,6.74c.05-.35-.05-.67-.15-.69S.44,6.2.44,6.2.22,7.12.2,7.26s.16.23.2.25L1,7.87a.36.36,0,0,1,.16,0"/><path class="cls-3" d="M.7,6.91a1.36,1.36,0,0,0,0-.17"/><path class="cls-3" d="M16.45,8.87a1.24,1.24,0,0,0-.27,1.24"/><path class="cls-3" d="M17.56,8.71a.58.58,0,0,0-.21.5"/></g></g></svg>