<svg xmlns="http://www.w3.org/2000/svg" viewBox="0 0 33.02 18.23"><defs><style>.cls-1{fill:#e33b17;}.cls-2{fill:#f9b91a;}.cls-3,.cls-5{fill:none;stroke-linecap:round;stroke-linejoin:round;stroke-width:0.4px;}.cls-3{stroke:#22234a;}.cls-4{fill:#fff;}.cls-5{stroke:#22244b;}.cls-6{fill:#22244b;}</style></defs><g id="Layer_2" data-name="Layer 2"><g id="Layer_1-2" data-name="Layer 1"><path class="cls-1" d="M16.73,18c6.46-.18,11.44-1.19,11.9-2.23L29.9,9.53"/><path class="cls-1" d="M16.79,18c-6.54.17-11.63-.57-12.15-1.58L2.92,9.9"/><path class="cls-2" d="M2.64,7.24c0,1.13,6.26,1.87,13.9,1.67S30.36,7.62,30.33,6.5,23.92.83,16.28,1,2.61,6.12,2.64,7.24Z"/><path class="cls-2" d="M29.23,5.18a1.72,1.72,0,0,1,.8-.06,1.46,1.46,0,0,1,.94.47,1.42,1.42,0,0,1,1.07.2c.57.33.87.86.68,1.19l0,0,.07.09c.19.33-.22.92-.91,1.3a2.18,2.18,0,0,1-1.14.31,2,2,0,0,1-1.12.67,2.28,2.28,0,0,1-1.12,0,2.17,2.17,0,0,1-1.07.47,2.12,2.12,0,0,1-1.14-.05,2.23,2.23,0,0,1-1.11.42A2.17,2.17,0,0,1,24,10.11a2.14,2.14,0,0,1-1.15.4,2.21,2.21,0,0,1-1.19-.19,2.16,2.16,0,0,1-1.17.37,2.19,2.19,0,0,1-1.12-.19,2.3,2.3,0,0,1-1.13.3,3.45,3.45,0,0,1-.66-.06"/><path class="cls-2" d="M3.67,5.87a1.64,1.64,0,0,0-.8,0A1.58,1.58,0,0,0,2,6.37a1.43,1.43,0,0,0-1,.26C.35,7,.07,7.53.28,7.85l0,0A.28.28,0,0,0,.24,8c-.17.34.27.9,1,1.25a2.2,2.2,0,0,0,1.15.25,2,2,0,0,0,1.16.61,2.29,2.29,0,0,0,1.12,0,2.19,2.19,0,0,0,1.09.42,2.14,2.14,0,0,0,1.14-.12A2.25,2.25,0,0,0,8,10.72a2.25,2.25,0,0,0,1.18-.21,2.16,2.16,0,0,0,1.16.34,2.24,2.24,0,0,0,1.19-.26,2,2,0,0,0,1.18.31,2.35,2.35,0,0,0,1.12-.25,2.16,2.16,0,0,0,1.13.23,1.89,1.89,0,0,0,.61-.11"/><path class="cls-2" d="M17.54,10.73a2.11,2.11,0,0,1-.94.21,2.26,2.26,0,0,1-1-.17"/><path class="cls-2" d="M4.84,6.26c.66-.13,1.06.28,1.69.36a2.21,2.21,0,0,0,.68-.06c.36-.07.24-.09.59.06.63.25,1.19,0,1.82.06a5.83,5.83,0,0,0,1.67.19,3.11,3.11,0,0,1,1.23-.11,2.16,2.16,0,0,0,1.48,0c.08,0,.15-.1.22-.13l.1,0c.14,0,.33.24.44.28a1.52,1.52,0,0,0,.59.12c.25,0,.44-.18.66-.2s.74.28,1.14.27a2.16,2.16,0,0,0,.76-.22,1.43,1.43,0,0,1,.62,0,11.1,11.1,0,0,0,1.37-.26c.33,0,.64.15,1,.11a5.09,5.09,0,0,0,.79-.21c.53-.14,1,.13,1.57.07.33,0,.64-.21,1-.24a6.73,6.73,0,0,1,.89.05,2.29,2.29,0,0,0,.82-.11c.23-.08.46-.33.71-.36.54-.08,1,.16,1.52-.1a1.9,1.9,0,0,1,1.18-.22,1.72,1.72,0,0,0,.94-.16.94.94,0,0,1-.14.33,12.49,12.49,0,0,1-1.39,1.69,1.11,1.11,0,0,1-1,.32,48.09,48.09,0,0,1-5.36,3.85q-1.48.92-3,1.71c-1,.51-2.07,1.2-3.23.92a15.64,15.64,0,0,1-3-1.39c-1-.51-2.06-1-3.08-1.57A44.07,44.07,0,0,1,4,7.41a1,1,0,0,1-.3-1.14A2.53,2.53,0,0,0,4.84,6.26Z"/><path class="cls-1" d="M4.49,10.1c.66-.13,1.06.27,1.69.35a2.21,2.21,0,0,0,.68,0c.36-.07.23-.09.59,0,.63.25,1.19,0,1.82.07a6.21,6.21,0,0,0,1.67.19,3.11,3.11,0,0,1,1.23-.12,2.1,2.1,0,0,0,1.48.05,2.53,2.53,0,0,0,.22-.13l.1,0c.13,0,.33.24.44.29a1.35,1.35,0,0,0,.59.11c.25,0,.44-.18.66-.2s.74.28,1.14.28a2.17,2.17,0,0,0,.76-.23,1.29,1.29,0,0,1,.62,0,11.1,11.1,0,0,0,1.37-.26c.33,0,.64.14,1,.1a5.77,5.77,0,0,0,.79-.21c.53-.14,1,.14,1.57.08.33,0,.63-.22,1-.25s.59,0,.89,0a2.53,2.53,0,0,0,.82-.1c.23-.09.46-.33.7-.36.55-.08,1,.15,1.53-.1A1.83,1.83,0,0,1,29,9.41a1.82,1.82,0,0,0,.94-.17.81.81,0,0,1-.14.33,11.9,11.9,0,0,1-1.39,1.69,1.11,1.11,0,0,1-1,.33,48.34,48.34,0,0,1-5.35,3.85q-1.48.92-3,1.71c-1,.51-2.07,1.2-3.23.92a16.26,16.26,0,0,1-3-1.39c-1-.51-2.07-1-3.08-1.57a45,45,0,0,1-6.06-3.86,1,1,0,0,1-.3-1.14A2.67,2.67,0,0,0,4.49,10.1Z"/><path class="cls-3" d="M16.73,18c6.46-.18,11.44-1.19,11.9-2.23l1.3-6.45"/><path class="cls-3" d="M16.79,18c-6.54.17-11.63-.57-12.15-1.58L2.92,9.9"/><path class="cls-3" d="M2.64,7.24c0,1.13,6.26,1.87,13.9,1.67S30.36,7.62,30.33,6.5,23.92.83,16.28,1,2.61,6.12,2.64,7.24Z"/><path class="cls-3" d="M29.23,5.18a1.72,1.72,0,0,1,.8-.06,1.46,1.46,0,0,1,.94.47,1.42,1.42,0,0,1,1.07.2c.57.33.87.86.68,1.19l0,0,.07.09c.19.33-.22.92-.91,1.3a2.18,2.18,0,0,1-1.14.31,2,2,0,0,1-1.12.67,2.28,2.28,0,0,1-1.12,0,2.17,2.17,0,0,1-1.07.47,2.12,2.12,0,0,1-1.14-.05,2.23,2.23,0,0,1-1.11.42A2.17,2.17,0,0,1,24,10.11a2.14,2.14,0,0,1-1.15.4,2.21,2.21,0,0,1-1.19-.19,2.16,2.16,0,0,1-1.17.37,2.19,2.19,0,0,1-1.12-.19,2.3,2.3,0,0,1-1.13.3,3.45,3.45,0,0,1-.66-.06"/><path class="cls-3" d="M3.67,5.87a1.64,1.64,0,0,0-.8,0A1.58,1.58,0,0,0,2,6.37a1.43,1.43,0,0,0-1,.26C.35,7,.07,7.53.28,7.85l0,0A.28.28,0,0,0,.24,8c-.17.34.27.9,1,1.25a2.2,2.2,0,0,0,1.15.25,2,2,0,0,0,1.16.61,2.29,2.29,0,0,0,1.12,0,2.19,2.19,0,0,0,1.09.42,2.14,2.14,0,0,0,1.14-.12A2.25,2.25,0,0,0,8,10.72a2.25,2.25,0,0,0,1.18-.21,2.16,2.16,0,0,0,1.16.34,2.24,2.24,0,0,0,1.19-.26,2,2,0,0,0,1.18.31,2.35,2.35,0,0,0,1.12-.25,2.16,2.16,0,0,0,1.13.23,1.89,1.89,0,0,0,.61-.11"/><path class="cls-3" d="M17.54,10.73a2.11,2.11,0,0,1-.94.21,2.26,2.26,0,0,1-1-.17"/><path class="cls-4" d="M20.38,2h0a.42.42,0,0,1,0-.22A2,2,0,0,1,21.47.44a1.56,1.56,0,0,1,1.68.17A1.7,1.7,0,0,1,24,2a1.86,1.86,0,0,1-.24,1,.23.23,0,0,0-.18-.09c-.17,0-.35-.08-.53-.11l-.55-.1a3.07,3.07,0,0,0-1.17,0,.39.39,0,0,0-.16.07l-.48-.13A.5.5,0,0,1,20.38,2Z"/><path class="cls-4" d="M18.44,2.67A4.25,4.25,0,0,0,16.82,3a2,2,0,0,1-.1-.32,1.64,1.64,0,0,1,.2-1.51.61.61,0,0,1,.24-.41,3,3,0,0,1,.68-.36l.17,0a1.79,1.79,0,0,1,.4-.09A1.51,1.51,0,0,1,19.58.7a1.29,1.29,0,0,1,.64,1,2.36,2.36,0,0,1-.08,1.21A5.15,5.15,0,0,0,18.44,2.67Z"/><path class="cls-5" d="M20.36,2.54a.64.64,0,0,1,0-.07A1.87,1.87,0,1,1,24,1.73a1.83,1.83,0,0,1-.29,1.43"/><line class="cls-5" x1="24.3" y1="4.33" x2="20.85" y2="4.64"/><polyline class="cls-5" points="20.25 2.57 26.17 4.16 24.3 4.33"/><path class="cls-5" d="M16.91,3.11a1.75,1.75,0,0,1-.29-.67,1.89,1.89,0,1,1,.9,1.24"/><path class="cls-5" d="M20.13,2.9A4.42,4.42,0,0,0,16.85,3"/><path class="cls-5" d="M23.78,3a4,4,0,0,0-2.58-.18"/><circle class="cls-6" cx="18.93" cy="1.68" r="0.51"/><circle class="cls-6" cx="22.48" cy="1.7" r="0.51"/><path class="cls-5" d="M15.25,3.82a6.38,6.38,0,0,0,6.67,2"/></g></g></svg>