<svg xmlns="http://www.w3.org/2000/svg" viewBox="0 0 17.53 32.3"><defs><style>.cls-1{fill:#f3a2a7;}.cls-2{fill:#0a7332;}.cls-3{fill:#22234a;}.cls-4{fill:#f9b91a;}.cls-10,.cls-5{fill:#fff;}.cls-6{fill:#0071b9;}.cls-7,.cls-9{fill:none;}.cls-7{stroke:#22234a;}.cls-10,.cls-7,.cls-9{stroke-linecap:round;stroke-linejoin:round;stroke-width:0.4px;}.cls-8{fill:#232149;}.cls-10,.cls-9{stroke:#232149;}.cls-11{fill:#e33b17;}</style></defs><g id="Layer_2" data-name="Layer 2"><g id="Layer_1-2" data-name="Layer 1"><path class="cls-1" d="M14.59,6.21a.45.45,0,0,0-.41.28l-.08,0a.74.74,0,0,1-.32-.2,1.28,1.28,0,0,0,.06-.43,2.74,2.74,0,0,0-.36-1.24,2.53,2.53,0,0,0-.55-.67,3.16,3.16,0,0,0-1.12-.62,2.76,2.76,0,0,0-1-.09,3.87,3.87,0,0,0-.67.1,4.35,4.35,0,0,0-.63.25,3,3,0,0,0-.78.54,2.5,2.5,0,0,0-.56.74A3,3,0,0,0,8,5.45c0,.09,0,.16,0,.22-.28,0-.56-.22-.8,0s-.07.56,0,.81A.74.74,0,0,1,7.25,7a1.2,1.2,0,0,0,0,.5.31.31,0,0,0,.41.19,14.33,14.33,0,0,0,.36,1.47,8,8,0,0,1,.27,1.07,3.1,3.1,0,0,0,.08.42c0,.12.14.26.07.39v0c.75.06,1.5.2,2.26.26.38,0,.76.06,1.14.11s.53.07.79.12c0-.13.06-.26.1-.38a2.32,2.32,0,0,1,.48-.87c.22-.27.48-.5.69-.77a1.61,1.61,0,0,0,.37-.89.57.57,0,0,0,.15,0,.29.29,0,0,0,.25-.15.75.75,0,0,0,.06-.29,1.1,1.1,0,0,1,.08-.4,5,5,0,0,0,.3-1.05A.58.58,0,0,0,14.59,6.21Z"/><path class="cls-1" d="M5.76,11.14A.39.39,0,0,0,5.65,11l-.11-.08a.61.61,0,0,0-.26-.08l-.14,0,0,0a.51.51,0,0,0-.27.06,1.55,1.55,0,0,1-.22.12,1.91,1.91,0,0,1-.41.11h0a.5.5,0,0,0-.27.07.55.55,0,0,0-.25.52.47.47,0,0,0,.14.3l.12.12.11.19a.62.62,0,0,0,.18.18.49.49,0,0,0-.35.15.59.59,0,0,0-.15.37v0h-.1a.64.64,0,0,0-.41.29.56.56,0,0,0-.06.36.75.75,0,0,0,.09.25l.1.22a.49.49,0,0,0,.31.24.52.52,0,0,0,.65-.36.27.27,0,0,0,0-.09.4.4,0,0,0,.16-.08,3.57,3.57,0,0,0,.37-.31l.08-.05a1.89,1.89,0,0,1,.34-.09.5.5,0,0,0,.36-.36.53.53,0,0,0-.13-.51A.58.58,0,0,0,5,12.44l-.14,0A.55.55,0,0,0,5,12.23l0-.14S5,12,5,12l.17-.07h.05l.14,0a.53.53,0,0,0,.23-.13l.09-.08a.39.39,0,0,0,.11-.17.52.52,0,0,0,0-.4Z"/><path class="cls-1" d="M15.86,18.09a5,5,0,0,0-.14-.67.66.66,0,0,0,0-.37c-.07-.48-.13-1-.2-1.45a2.08,2.08,0,0,0-.39-1.13l.24-.15a1.29,1.29,0,0,0,.41-.71,1.34,1.34,0,0,0-.15-.92,3.91,3.91,0,0,0-.56-.65.53.53,0,0,0-.75,0,.54.54,0,0,0,0,.74c.12.12.25.25.36.38h0l.06.09h0v0a.4.4,0,0,1,0,.11v.06h0l0,0-.06.06,0,0,0,0a1.87,1.87,0,0,0-.4-.2,2.52,2.52,0,0,0-.78-.16.51.51,0,0,0-.51.45.53.53,0,0,0,.34.57l-.2,0a.52.52,0,0,0-.28,1,3,3,0,0,0,.67.1,2.91,2.91,0,0,0,.59,1.3.46.46,0,0,0,.31.15l.07.91a1.34,1.34,0,0,0,0,.2.47.47,0,0,0-.26.44,1.5,1.5,0,0,0,.42,1.05.76.76,0,0,0,1.19-.13A2,2,0,0,0,15.86,18.09Z"/><path class="cls-2" d="M13.12,19.24c-.47,0-.69.38-.79.8s-.2.75-.32,1.12a16.09,16.09,0,0,1-.81,2.13.54.54,0,0,0,.19.72c.22.13.3,0,.42-.21.29-.64.85-1.28,1.08-1.95.11-.32.21-.63.3-1l.12-.48v0a.53.53,0,0,0,.32-.48v-.16A.53.53,0,0,0,13.12,19.24Z"/><path class="cls-3" d="M14.26,16.82a.49.49,0,0,0-.31-.24.53.53,0,0,0-.65.36,6.63,6.63,0,0,1-.21.88c0,.15-.09.29-.14.43a2.57,2.57,0,0,0-.12.55.54.54,0,0,0,.16.37.51.51,0,0,0,.37.15.53.53,0,0,0,.37-.15.61.61,0,0,0,.15-.36v.06a7.58,7.58,0,0,1,.25-.81,8.45,8.45,0,0,0,.19-.84A.51.51,0,0,0,14.26,16.82Z"/><line class="cls-4" x1="13.01" y1="15.29" x2="9.4" y2="26.81"/><line class="cls-4" x1="13.71" y1="13.06" x2="13.64" y2="13.27"/><line class="cls-4" x1="12.82" y1="27.22" x2="17.33" y2="27.75"/><path class="cls-5" d="M14.49,12.65l-.05-.13a.55.55,0,0,0-.19-.18l-.12-.06h-.05l0,0-.08,0,.2-.61-8.83-.92,0,.12.79.21a.67.67,0,0,0-.23.49v.09H5.41a.34.34,0,0,0-.2,0,.45.45,0,0,0-.17.11.5.5,0,0,0-.11.17.45.45,0,0,0,0,.2l0,.14a.48.48,0,0,0,.13.23l.11.08a.61.61,0,0,0,.26.08h.27a.85.85,0,0,0,.13.5l.12.17,0,0-.11.06c-.18.07-.36.13-.53.21s-.3.18-.45.27L4.57,14a1.5,1.5,0,0,0-.37.28l-.06-.13-.34,1L.2,25.71l10.06,1.2-.1-.21a.61.61,0,0,0,.18-.27c.5-1.77,1-3.55,1.56-5.3a23.7,23.7,0,0,0,.88-2.49A20.89,20.89,0,0,1,13.55,16c.19-.51-.39-1-.75-.78,0-.19-.24-.13-.43-.18s-.27-.17-.25-.38a.58.58,0,0,0,0-.19.93.93,0,0,0,.33,0h.17l.07,0a.32.32,0,0,0,.09,0,.42.42,0,0,0,.17-.1.62.62,0,0,0,.11-.17.45.45,0,0,0,0-.2l0-.14a.56.56,0,0,0-.13-.24l-.11-.08a.38.38,0,0,0-.21,0,2.34,2.34,0,0,0,.63-.22h0l.19-.11.09.08,0,0,.16.07H14l.18,0a.34.34,0,0,0,.18-.09.47.47,0,0,0,.13-.15.33.33,0,0,0,.06-.19A.3.3,0,0,0,14.49,12.65Z"/><line class="cls-4" x1="13.59" y1="16.31" x2="10.31" y2="26.81"/><line class="cls-4" x1="14.61" y1="13.05" x2="14.52" y2="13.34"/><polyline class="cls-4" points="10.89 11.26 15.04 11.69 14.97 11.92"/><line class="cls-4" x1="15.91" y1="11.78" x2="17.33" y2="27.75"/><line class="cls-4" x1="15.69" y1="19.67" x2="16.33" y2="27.54"/><path class="cls-5" d="M16.77,23.56a11.38,11.38,0,0,1,0-3.59s0,0,0-.06a1.12,1.12,0,0,1-.14-.4c-.23-1.77-.26-3.56-.46-5.34v0a.51.51,0,0,0-.63.06l-.13.16a.54.54,0,0,0,0,.74l.08.05c.13.63.26,1.27.37,1.9.06.38.13.77.18,1.15l.09.58a1.36,1.36,0,0,0,0,.21s0,.05,0,.06a.54.54,0,0,0-.28.44,1.53,1.53,0,0,1-.35.32l-.1.06c-.06,0-.07,0,0,0s-.19-.14-.27-.19a.88.88,0,0,0-.22-.1l-.08,0a.52.52,0,0,0-1,0,.34.34,0,0,0,0,.14h0a6.09,6.09,0,0,1-.94,2.6l-.75,1.3a2.1,2.1,0,0,0-.27.54,1.35,1.35,0,0,0,.12.74c.18.47.35.94.52,1.41s.23.85.64,1a4.28,4.28,0,0,0,1.34.05,8.36,8.36,0,0,1,1.49.21.45.45,0,0,0,.33,0l.05.1a.52.52,0,0,0,.65.22.54.54,0,0,0,.31-.62C17.06,25.94,16.91,24.75,16.77,23.56Z"/><path class="cls-6" d="M16.4,27.5c0-2.61-.39-5.19-.63-7.79,0,0,0-.09,0-.14a1.37,1.37,0,0,1-.25.23l-.1.06c-.06,0-.07,0,0,0s-.19-.14-.27-.19a.88.88,0,0,0-.22-.1l-.08,0a.52.52,0,0,0-1,0,.34.34,0,0,0,0,.14h0a6.09,6.09,0,0,1-.94,2.6l-.75,1.3a2.1,2.1,0,0,0-.27.54,1.35,1.35,0,0,0,.12.74c.18.47.35.94.52,1.41s.23.85.64,1a4.28,4.28,0,0,0,1.34.05,8.36,8.36,0,0,1,1.49.21.45.45,0,0,0,.33,0l.05.1a.33.33,0,0,0,.15.16A1.05,1.05,0,0,1,16.4,27.5Z"/><path class="cls-5" d="M16,12.29a.47.47,0,0,1-.43.51c-.24,0-.32-.33-.32-.61s.08-.41.32-.41A.47.47,0,0,1,16,12.29Z"/><path class="cls-2" d="M13.77,30.34h0l0,0h0a0,0,0,0,0,0,0c-.21-.53-.42-1.06-.66-1.58a.19.19,0,0,0,0-.18c-.05-.13-.1-.26-.16-.38a.28.28,0,0,0,0-.13c-.16-.47-.25-.95-.44-1.41l-.39-.91a.25.25,0,0,0,0-.26c-.06-.16-.13-.32-.2-.47s-.16-.46-.23-.69a1,1,0,0,0-.08-.2l.06-.07.18-.23.11-.14.06-.06h0l.05,0h.13a.59.59,0,0,1,0-.17,2.42,2.42,0,0,1,.58-.69h0a.32.32,0,0,1-.3,0,15.72,15.72,0,0,1-1.32,1.83,1.76,1.76,0,0,0-.38.8c-.08.36-.13.72-.23,1.08a.72.72,0,0,1-.61.51,1,1,0,0,1,.09.17c.09.25.18.5.29.74q.32.72.66,1.44a.22.22,0,0,0,0,.18l.3.85a.32.32,0,0,0,.29.22c.33,0,.65.06,1,.07a4.21,4.21,0,0,1,.5,0,.42.42,0,0,1,.14,0,.41.41,0,0,0,.31,0h0a0,0,0,0,0,0,0h.05l0,0,.05-.06,0,0v-.1Z"/><path class="cls-2" d="M9.46,26.76h0l-.1,0-.23-.06-.43-.08-.13,0H7.71a4.31,4.31,0,0,1-.87-.07c-.32.71-.64,1.41-1,2.09a.36.36,0,0,0-.05.19.3.3,0,0,0,.11.38l.66.47A2,2,0,0,1,7,30c.09.14.34.22.46.06.68-.86,1.22-1.81,1.89-2.67a.33.33,0,0,0,.08-.25l.19-.24.07-.08A1.11,1.11,0,0,1,9.46,26.76Z"/><path class="cls-3" d="M9.33,31.07,9.4,31a4.47,4.47,0,0,1,1.4-.56,2.33,2.33,0,0,1,.79,0,2,2,0,0,1,.69.21l.37,0,.28,0H13l.16,0a.29.29,0,0,1,.37.28h0a.52.52,0,0,1,.1.11c.11.17.16.38.28.54v0h0a.14.14,0,0,1,0,.06.28.28,0,0,1,0,.15.38.38,0,0,1-.12.28.35.35,0,0,1-.27.11.35.35,0,0,1-.26-.1h0a2.44,2.44,0,0,0-.27,0l-.29,0a4.28,4.28,0,0,1-.62,0,9.61,9.61,0,0,0-1.2,0,3.38,3.38,0,0,1-1.1,0c-.38.06-.84.12-1-.24S9,31.19,9.33,31.07Z"/><path class="cls-3" d="M3.43,27.67a.41.41,0,0,1,.25-.08,2.54,2.54,0,0,1,1.17.47,3.14,3.14,0,0,1,.76.9,3.22,3.22,0,0,1,.56.41c.09.08.17.18.27.27l0,0h0l0,0,0,0,0,0s.13,0,0,0a.31.31,0,0,1,.26.15.32.32,0,0,1,0,.3,1.3,1.3,0,0,1-.1.15.4.4,0,0,1,0,.15,6,6,0,0,1-.45.67,2.21,2.21,0,0,0-.18.34,1.54,1.54,0,0,1-.15.35c-.18.23-.37.31-.58.11a3,3,0,0,1-.45-.8c-.2-.42-.5-.88-.68-1.3a.24.24,0,0,1-.13-.13,17.36,17.36,0,0,0-1-1.6A.31.31,0,0,1,3.43,27.67Z"/><line class="cls-7" x1="5.87" y1="31.95" x2="6.98" y2="29.97"/><path class="cls-7" d="M6.13,30.12a5.07,5.07,0,0,0-.7-1.5C5,28,4.13,27.21,3.25,27.69c0,0-.27.13-.15.36s2.2,3.78,2.2,3.78.25.48.57.12"/><path class="cls-7" d="M14,31.71s.16.39-.39.39H9.31a.46.46,0,0,1-.47-.51c0-.51,1.16-1.18,2.43-1.12a3.24,3.24,0,0,1,1.43.36"/><path class="cls-7" d="M10.85,25.16l1.77-2.5A10.36,10.36,0,0,0,14,17.92"/><polyline class="cls-7" points="6.75 26.61 5.66 28.91 7.38 30.28 9.63 27.01"/><path class="cls-7" d="M11.92,30.54c.28,0,1.91,0,1.91,0l-2.18-6.52"/><line class="cls-7" x1="11.4" y1="30.47" x2="10.02" y2="26.91"/><path class="cls-7" d="M8.84,31.71c.08,0,5.11,0,5.11,0l-.42-1.07"/><line class="cls-7" x1="3.34" y1="27.64" x2="5.81" y2="32.01"/><path class="cls-7" d="M3.81,14.11A2.06,2.06,0,0,0,4.46,14c.26-.11.79-.51.57-1a.3.3,0,0,0-.42-.12,1.79,1.79,0,0,1-1.32.23.2.2,0,0,0-.24.19c0,.22,0,.45.38,1,.1.14.22.29.34.44"/><path class="cls-7" d="M5.09,13.42s.63,0,.71-.37c0,0,.13-.38-.59-.55,0,0-1.53-.41-1.7.64"/><path class="cls-7" d="M4.66,12a2.47,2.47,0,0,0,.7-.13s.68-.21.51-.72c0,0-.08-.34-.84-.19a4.71,4.71,0,0,1-1,.17c-.48,0-.54.3-.31.66s.48.72.48.72"/><path class="cls-8" d="M14.31,10.77a4.81,4.81,0,0,0,.09-.93c0-.33.16-.63.17-.95s-.21-.28-.29-.08a5.24,5.24,0,0,1-.3.51c-.06,0-.06.07-.1.13a3.54,3.54,0,0,1-.73,1,.18.18,0,0,0-.06.2.41.41,0,0,1-.11.07.21.21,0,0,0,.11.39c.3,0,.6.11.9.1S14.26,10.94,14.31,10.77Z"/><path class="cls-8" d="M14.89,5.4a.61.61,0,0,0,0-.15,1.88,1.88,0,0,0-.57-1.2A2.8,2.8,0,0,0,14,3.59c-.15-.17-.29-.35-.43-.53a.43.43,0,0,0,0-.29l-.26-.57A3.25,3.25,0,0,0,13,1.77a.51.51,0,0,0-.21-.18,5.14,5.14,0,0,0-.37-.54,2.48,2.48,0,0,0-1.7-.83A2.23,2.23,0,0,0,9.12.71.49.49,0,0,0,9,.9a.41.41,0,0,0-.32.24l-.05.12h0c0,.12-.07.24-.1.36l-.06.17A.45.45,0,0,0,8.34,2a2.3,2.3,0,0,0,0,.74,2.56,2.56,0,0,0,0,.39.89.89,0,0,0,.15.44A1.93,1.93,0,0,0,8,4.19a5.6,5.6,0,0,0-.37,1,.34.34,0,0,0,.18.45.13.13,0,0,0,.09,0H8c.13-.12.24-.25.36-.38s.13-.29.2-.42a2,2,0,0,1,.26-.38A1.3,1.3,0,0,1,9,4.28H9c0-.7,1.09-.69,1.59-.45H11a2.54,2.54,0,0,1,.67.11l.05,0,.35-.07c.09,0,.13.13.17.31a1.32,1.32,0,0,1,.31.12.81.81,0,0,1,.29.35l.11,0A.24.24,0,0,0,13,4.7v0A1.85,1.85,0,0,0,13,5s0,.09,0,.14v.06a1.53,1.53,0,0,0,.8,1.15.34.34,0,0,0,.51-.14l.2,0A.4.4,0,0,0,15,5.7C14.94,5.6,14.92,5.5,14.89,5.4Z"/><line class="cls-9" x1="13.01" y1="15.29" x2="9.4" y2="26.81"/><line class="cls-9" x1="13.71" y1="13.06" x2="13.64" y2="13.27"/><line class="cls-9" x1="12.82" y1="27.22" x2="17.33" y2="27.75"/><polyline class="cls-9" points="4.14 14.19 3.8 15.18 0.2 25.71 10.26 26.91"/><polyline class="cls-9" points="13.71 13.06 14.17 11.6 5.33 10.68 5.3 10.8"/><line class="cls-9" x1="13.59" y1="16.31" x2="10.31" y2="26.81"/><line class="cls-9" x1="14.61" y1="13.05" x2="14.52" y2="13.34"/><polyline class="cls-9" points="10.89 11.26 15.04 11.69 14.97 11.92"/><line class="cls-9" x1="15.91" y1="11.78" x2="17.33" y2="27.75"/><line class="cls-9" x1="15.69" y1="19.67" x2="16.33" y2="27.54"/><polyline class="cls-9" points="15.91 11.78 15.04 11.69 15.06 12"/><path class="cls-9" d="M7.64,6.52l0,.34a5.08,5.08,0,0,0,.35,2,6,6,0,0,1,.49,2"/><path class="cls-9" d="M7.77,5.73c-.06.28-.1.55-.13.79"/><path class="cls-9" d="M7.87,5.36c0,.12-.07.25-.1.37"/><path class="cls-9" d="M12.74,11.31a3,3,0,0,1,.55-1.07,5.35,5.35,0,0,0,1-1.53"/><path class="cls-9" d="M14,6.81a.62.62,0,0,1,.67-.61c.63,0,.51.87.3,1.15a1.19,1.19,0,0,0-.25.82c0,.27-.1.53-.37.54s-.26-.2-.28-.36"/><path class="cls-9" d="M14.48,7.11a1.77,1.77,0,0,1-.06.17c-.06.15-.16.18-.13.31"/><path class="cls-9" d="M7.79,5.59a.61.61,0,0,0-.26-.08c-.55-.06-.56.67-.41.94a1,1,0,0,1,.1.74c0,.22,0,.47.26.51a.22.22,0,0,0,.16,0"/><path class="cls-9" d="M7.66,5.8a1.36,1.36,0,0,0,0,.67v0"/><path class="cls-9" d="M12.83,11l1,.19s.37.11.46-.4.29-2.19.29-2.19"/><path class="cls-9" d="M8.81,4.14a5.42,5.42,0,0,1,1.93-.4,2.93,2.93,0,0,1,2.18.9,2,2,0,0,0,1.25,1.79"/><path class="cls-9" d="M14.84,6.22a2.19,2.19,0,0,0,0-1.47c-.35-1-1-1-1.46-2.22l-.18-.42A3,3,0,0,0,10.72.2,2.3,2.3,0,0,0,8.29,2.78a3,3,0,0,0,.25,1"/><path class="cls-9" d="M8.81,4.14a3.55,3.55,0,0,1-1,1.58"/><path class="cls-9" d="M8.55,3.74s-.17,0-.43.39a3.14,3.14,0,0,0-.54,1.38"/><path class="cls-9" d="M12.1,8.2a2.39,2.39,0,0,0-2.42.11"/><ellipse class="cls-10" cx="11.47" cy="5.93" rx="1.06" ry="0.8" transform="translate(4.69 16.92) rotate(-85.69)"/><path class="cls-10" d="M9,5.75c0-.59.44-1,.88-1a1,1,0,0,1,.72,1.12.25.25,0,0,1,0,.08"/><ellipse class="cls-8" cx="11.47" cy="5.93" rx="0.21" ry="0.36"/><ellipse class="cls-8" cx="9.74" cy="5.73" rx="0.21" ry="0.36"/><polyline class="cls-9" points="10.66 5.99 8.55 5.74 10.37 7.35"/><path class="cls-7" d="M14.62,16.81a1.34,1.34,0,0,1-1.18-1.66"/><path class="cls-7" d="M13.38,14.3l-.83.1s-.29,0-.32.21.28.61.84.52l.41-.05"/><path class="cls-7" d="M13.38,14.3l.29,0a.89.89,0,0,1,.59.36l.09.39"/><path class="cls-7" d="M13,13.84c-.14-.09-.24-.2-.24-.29s.26-.23.26-.23a9.23,9.23,0,0,1,1.06,0,.75.75,0,0,1,.67.54l.07.51"/><path class="cls-7" d="M14,14.38l-.09-.29a1.83,1.83,0,0,1-.89-.25"/><line class="cls-7" x1="13.98" y1="13.97" x2="13.9" y2="14.09"/><path class="cls-7" d="M14.76,13.83c.06-.08.25-.38.25-.38l-.66-.93s-.32-.35,0-.62.56.07.8.22a1.47,1.47,0,0,1,.33.3,9.32,9.32,0,0,1,.42,1.06.9.9,0,0,1-.08.41l-.44.7.56,2.89s.74,2.46-.84,2.17c-.29-.06-1-.23-1.09-1.73"/><line class="cls-7" x1="14.3" y1="16.76" x2="14.3" y2="18.21"/><line class="cls-9" x1="4.91" y1="11.93" x2="4.73" y2="12.42"/><path class="cls-9" d="M13.8,19.27a1.88,1.88,0,0,1-1.06,0"/><path class="cls-3" d="M8.4,12.56H8c-.09.17-.17.36-.26.55l-.28.58c-.09.2-.18.39-.26.59l-.25.55a.09.09,0,0,1,0,.06.07.07,0,0,1-.06,0l-.07,0-.08-.05a.44.44,0,0,1-.14-.13s0-.12,0-.21.09-.25.16-.41l.2-.5c.08-.17.16-.34.23-.51l.22-.47H7.24l-.11,0H7A.18.18,0,0,1,7,12.54a.86.86,0,0,1,0-.17,1.16,1.16,0,0,1,0-.17.11.11,0,0,1,0-.09.09.09,0,0,1,.07,0,1.58,1.58,0,0,1,.32,0l.35,0h.65l.09,0a.09.09,0,0,1,0,.06.83.83,0,0,1,0,.15v.16a.22.22,0,0,1,0,.1A.14.14,0,0,1,8.4,12.56Z"/><path class="cls-3" d="M10.12,12.65l-.26.51-.29.62-.3.65L9,15.06s0,.06,0,.07h0a.13.13,0,0,1-.08,0l-.08,0a.38.38,0,0,1-.13-.12.23.23,0,0,1,0-.21c0-.08.07-.18.11-.3l.16-.36-.21,0-.21,0q-.12.24-.21.45c-.07.15-.12.28-.18.4A.13.13,0,0,1,8,15,.1.1,0,0,1,8,15,.41.41,0,0,0,7.84,15a.22.22,0,0,1-.09-.07.16.16,0,0,1,0-.11s0-.08,0-.15L8,14.07l.27-.63.27-.63.24-.56a.18.18,0,0,1,.09-.1s.05,0,.09,0l.13.09.11.11a.21.21,0,0,1,.05.11.24.24,0,0,1,0,.12c-.06.11-.12.25-.2.41s-.16.33-.24.51h.39c.1-.23.2-.44.3-.65s.18-.4.26-.56.06-.1.09-.1a.14.14,0,0,1,.1,0l.11.08.11.11a.21.21,0,0,1,.05.11A.24.24,0,0,1,10.12,12.65Z"/><path class="cls-3" d="M10.34,12.49l.24,0,.26,0,.27,0h.28c.08,0,.12.06.13.15a.56.56,0,0,1,0,.13.62.62,0,0,1,0,.13.17.17,0,0,1,0,.1.13.13,0,0,1-.1,0H11.1l-.33,0-.15.29-.16.31h.3a.15.15,0,0,1,.1,0,.19.19,0,0,1,0,.09.66.66,0,0,1,0,.14.57.57,0,0,1,0,.13.23.23,0,0,1,0,.11.2.2,0,0,1-.1,0l-.32,0-.31,0c0,.07-.07.14-.1.2a1.24,1.24,0,0,1-.1.2l.24,0h.23a.18.18,0,0,1,.11,0,.19.19,0,0,1,0,.09.71.71,0,0,1,0,.14V15a.41.41,0,0,1,0,.1.19.19,0,0,1-.09,0l-.36.06-.34,0a.21.21,0,0,1-.16,0l-.08-.06a.41.41,0,0,1,0-.09.33.33,0,0,1-.05-.12.27.27,0,0,1,0-.13.61.61,0,0,1,0-.17Z"/><path class="cls-3" d="M6.24,15.62l.24,0,.26,0,.27,0h.28c.08,0,.12.05.13.15v.13a.49.49,0,0,1,0,.12.39.39,0,0,1,0,.11.13.13,0,0,1-.1,0H7l-.32,0-.15.28-.16.32h.3a.15.15,0,0,1,.1,0s0,.05,0,.09a.66.66,0,0,1,0,.14s0,.08,0,.13a.27.27,0,0,1,0,.11l-.1,0-.32,0-.31,0-.1.21-.1.2.24,0h.23a.18.18,0,0,1,.11,0,.19.19,0,0,1,0,.09c0,.05,0,.1,0,.14v.14a.41.41,0,0,1,0,.1.19.19,0,0,1-.09,0L6,18.28l-.34,0a.21.21,0,0,1-.16,0,.28.28,0,0,1-.08-.06.41.41,0,0,1,0-.09.33.33,0,0,1,0-.12.5.5,0,0,1,0-.13.59.59,0,0,1,0-.17Z"/><path class="cls-3" d="M8.35,16.53c.12-.26.23-.5.33-.7a.14.14,0,0,1,.08-.1.12.12,0,0,1,.1,0L9,15.8l.1.1a.19.19,0,0,1,0,.12.46.46,0,0,1,0,.13l-.24.52c-.09.2-.19.41-.28.62s-.19.42-.28.63-.18.4-.25.57a.12.12,0,0,1-.18.08l-.11-.05-.1-.07a.3.3,0,0,1-.09-.24,2.62,2.62,0,0,1,0-.27c0-.1,0-.2,0-.32a2.16,2.16,0,0,1,0-.35c0-.12,0-.24,0-.36-.07.14-.13.28-.19.42s-.13.28-.19.41l-.16.36L7,18.41s0,.06,0,.07a.08.08,0,0,1-.09,0l-.11-.05-.09-.09a.14.14,0,0,1,0-.1.41.41,0,0,1,0-.16,2.51,2.51,0,0,1,.1-.26c0-.11.09-.24.15-.38s.13-.29.19-.44l.21-.47.19-.43.17-.36a.18.18,0,0,1,.09-.1.14.14,0,0,1,.11,0l.14.08.14.1a.19.19,0,0,1,.07.11.38.38,0,0,1,0,.18s0,.13,0,.22,0,.2-.05.32,0,.23,0,.35,0,.24-.05.35C8.11,17.06,8.23,16.79,8.35,16.53Z"/><path class="cls-3" d="M9.27,16l.24-.09a1.09,1.09,0,0,1,.26-.05,1.22,1.22,0,0,1,.27,0,.64.64,0,0,1,.24.1.61.61,0,0,1,.19.2,1,1,0,0,1,.1.34,1.31,1.31,0,0,1,0,.39,2,2,0,0,1-.13.44,2.11,2.11,0,0,1-.24.44,2.72,2.72,0,0,1-.34.42,3.61,3.61,0,0,1-.44.33,1.63,1.63,0,0,1-.53.21.22.22,0,0,1-.26-.06.52.52,0,0,1-.1-.11l-.08-.14a.64.64,0,0,1,0-.07.15.15,0,0,1,0-.07.38.38,0,0,1,0-.1s0-.09,0-.15Zm-.36,2.15a1.52,1.52,0,0,0,.41-.24,1.89,1.89,0,0,0,.32-.31,1.5,1.5,0,0,0,.23-.33,1.94,1.94,0,0,0,.14-.3,1,1,0,0,0,.05-.31.23.23,0,0,0-.1-.17.28.28,0,0,0-.26,0c-.13.26-.27.53-.4.81S9.05,17.83,8.91,18.12Z"/><path class="cls-3" d="M6.69,19.06a.23.23,0,0,1,0,.1.3.3,0,0,1,0,.13l-.16.31L6.35,20c-.07.14-.13.28-.2.43l-.2.45c-.06.14-.13.28-.18.41s-.12.26-.17.36,0,.07,0,.08,0,0-.09,0l-.11-.06a.32.32,0,0,1-.09-.08.19.19,0,0,1,0-.1.34.34,0,0,1,0-.15L5.37,21l.16-.41c.06-.14.12-.3.19-.45s.13-.31.2-.46.13-.28.19-.41.11-.24.15-.33a.18.18,0,0,1,.09-.1.14.14,0,0,1,.1,0l.13.09Z"/><path class="cls-3" d="M6,21a.31.31,0,0,1,.19,0,.24.24,0,0,1,.15.09.69.69,0,0,0,.27.27.18.18,0,0,0,.22,0s0-.06,0-.11A.62.62,0,0,0,6.8,21l-.15-.22-.14-.22a.76.76,0,0,1-.07-.38,1,1,0,0,1,.14-.46,1.28,1.28,0,0,1,.14-.21,1.68,1.68,0,0,1,.18-.21,1.12,1.12,0,0,1,.2-.18A.81.81,0,0,1,7.3,19l.08,0,.1,0a.21.21,0,0,1,.11,0l.11,0a.65.65,0,0,1,.16.13.61.61,0,0,1,.13.16.39.39,0,0,1,0,.23,1.18,1.18,0,0,1,0,.2,1.08,1.08,0,0,1-.07.18,1.54,1.54,0,0,1-.08.19c0,.07-.07.13-.1.2a1,1,0,0,1-.09.15.19.19,0,0,1-.07.08s0,0-.09,0a.36.36,0,0,1-.16-.45,2.05,2.05,0,0,1,.08-.19l.08-.2a.3.3,0,0,0,0-.13s0,0-.08,0a1.31,1.31,0,0,0-.16.13.91.91,0,0,0-.18.21,1.34,1.34,0,0,0-.12.24.33.33,0,0,0,0,.24,1,1,0,0,0,.12.23,1.37,1.37,0,0,1,.15.21,1.13,1.13,0,0,1,.12.21.41.41,0,0,1,0,.22.45.45,0,0,1-.07.19l-.11.16a1.07,1.07,0,0,1-.16.14.51.51,0,0,1-.21.1.59.59,0,0,1-.27,0,.67.67,0,0,1-.35-.14A1,1,0,0,1,6,21.29a.39.39,0,0,1,0-.21A.2.2,0,0,1,6,21Z"/><path class="cls-11" d="M4.11,24.27c-.07.13-.13.26-.19.39L3.76,25a.14.14,0,0,1-.06.07.1.1,0,0,1-.09,0L3.5,25A.22.22,0,0,1,3.41,25a.3.3,0,0,1,0-.1.41.41,0,0,1,0-.16l.09-.19a2.85,2.85,0,0,0,.12-.29c0-.11.09-.22.14-.35s.09-.25.14-.37.1-.24.14-.36l.13-.31a2.17,2.17,0,0,1,.1-.21q0-.09.06-.09l.35-.15a1.61,1.61,0,0,1,.36-.1.86.86,0,0,1,.32,0,.28.28,0,0,1,.21.17,1.83,1.83,0,0,1,.08.25,1.25,1.25,0,0,1,0,.34.65.65,0,0,1-.11.34,2.76,2.76,0,0,1-.23.27,2,2,0,0,1-.26.2,2.14,2.14,0,0,1-.3.17,2.33,2.33,0,0,1-.33.14A2.55,2.55,0,0,1,4.11,24.27Zm.29-.63a1.6,1.6,0,0,0,.35-.15A1.34,1.34,0,0,0,5,23.3a.76.76,0,0,0,.17-.2.47.47,0,0,0,.07-.17.07.07,0,0,0,0-.06l-.1,0H5a.64.64,0,0,0-.18.06l-.18.34Z"/><path class="cls-11" d="M6.49,22.61a.21.21,0,0,1,0,.11.24.24,0,0,1,0,.12l-.16.32c-.06.12-.13.25-.19.39S6,23.83,6,24l-.2.44-.19.42-.16.36-.05.07a.1.1,0,0,1-.09,0l-.11-.07-.09-.07A.16.16,0,0,1,5,25a.41.41,0,0,1,0-.15l.12-.31c0-.12.1-.26.16-.4l.19-.46c.07-.16.13-.31.2-.46l.18-.41.16-.33s.06-.09.09-.09.06,0,.1,0l.13.09Z"/><path class="cls-11" d="M6.76,22.63l.23,0,.26,0,.28,0H7.8a.13.13,0,0,1,.13.15.28.28,0,0,1,0,.13v.13a.19.19,0,0,1,0,.1.12.12,0,0,1-.09,0H7.51l-.33,0L7,23.38l-.17.32h.3a.13.13,0,0,1,.1,0,.13.13,0,0,1,0,.09.66.66,0,0,1,0,.14.57.57,0,0,1,0,.13.27.27,0,0,1,0,.11l-.1,0-.31,0-.32.05c0,.07-.07.14-.1.2l-.09.2.23,0h.24a.15.15,0,0,1,.1,0,.13.13,0,0,1,0,.09A.71.71,0,0,1,7,25v.14a.41.41,0,0,1,0,.1s0,0-.09,0l-.36.06-.34,0a.21.21,0,0,1-.16,0l-.08-.06,0-.09a.73.73,0,0,1,0-.12.51.51,0,0,1,0-.13.61.61,0,0,1,0-.17Z"/></g></g></svg>