<svg xmlns="http://www.w3.org/2000/svg" viewBox="0 0 69.37 38.79"><defs><style>.cls-1{fill:#0071b9;}.cls-2{fill:none;}.cls-15,.cls-2,.cls-3{stroke:#22234a;stroke-linecap:round;stroke-linejoin:round;stroke-width:0.4px;}.cls-13,.cls-3{fill:#9ad4e1;}.cls-4{fill:#22234a;}.cls-5{fill:#6bc2b9;}.cls-6{fill:#b56f26;}.cls-15,.cls-7{fill:#fff;}.cls-8{fill:#243d7e;}.cls-9{fill:#ee7349;}.cls-10{fill:#fce79c;}.cls-11{fill:#0a7332;}.cls-12{fill:#f9b91a;}.cls-14{fill:#eb6ea5;}</style></defs><g id="Layer_2" data-name="Layer 2"><g id="Layer_1-2" data-name="Layer 1"><path class="cls-1" d="M66.49,32.65c-2.59,0-5.17.1-7.76.17a.6.6,0,0,0-.34.11.75.75,0,0,0-.57-.24,2.17,2.17,0,0,0-.43.08l-.24,0c-.14,0-.29,0-.43,0a.68.68,0,0,0-.27-.07,5.56,5.56,0,0,0-.91-.05H55.1l-.37,0a.74.74,0,0,0-.33,0,.67.67,0,0,0-.29.19c-3.8-.17-7.59-.06-11.39,0-1.36,0-2.72,0-4.09,0l-.11-.09a.69.69,0,0,0-.34-.09l-.39,0-.18,0a.62.62,0,0,0-.19-.07.5.5,0,0,0-.27,0,.62.62,0,0,0-.25.14h-.4a50.5,50.5,0,0,0-5.22,0l-1.1,0c-.79,0-1-.13-1.34-.83a.56.56,0,0,0-.63-.33s0-.05,0-.08A1.16,1.16,0,0,0,27.14,31h-.09a1.46,1.46,0,0,0-.88-.36c-.65,0-1.31,0-2,0l-1.95.05a1.55,1.55,0,0,0-.31.07,4.6,4.6,0,0,1-.64-.05H21c-.25-.08-.35.1-.62.15s-.35.32-.64.56a14.41,14.41,0,0,0-1.05,1c-.23.27-.58-.1-.81.17a24.53,24.53,0,0,0-3,0l-3.14,0c-2.07,0-4.14,0-6.22.1a.6.6,0,0,0-.39.15l-.32,0A4,4,0,0,0,3.25,33c-.82.26-.47,1.56.36,1.3a3.56,3.56,0,0,1,1.49,0c.53.06,1.06.09,1.59.12A9.94,9.94,0,0,0,10,34.3a24.59,24.59,0,0,0,4.62,0,15.1,15.1,0,0,1,2.33,0,1.58,1.58,0,0,0,1.53-.45.51.51,0,0,0,.34-.17c.36-.41.71-.85,1.1-1.23a5,5,0,0,0,.67,3.7c.21.32.46.61.69.92a2.57,2.57,0,0,0,1,.85,3.84,3.84,0,0,0,2.51.39,4.43,4.43,0,0,0,2-1.16,4.49,4.49,0,0,0,1.3-2,5.21,5.21,0,0,0,.16-1.24,2.17,2.17,0,0,0,0-.36,1.86,1.86,0,0,0,.93.57,5.58,5.58,0,0,0,.59.09l.19.08a4.73,4.73,0,0,0,2.42-.06l.11,0c1.28,0,2.57,0,3.85.07,2.13.07,4.26.08,6.38,0,4.27-.06,8.54-.21,12.8.07h0l0,0a.78.78,0,0,0,.52.07l.13,0a4.44,4.44,0,0,1,1,0,2.72,2.72,0,0,0,.7,0,.86.86,0,0,0,.56-.33.79.79,0,0,0,.23,0l4.85-.11,1.26,0a.44.44,0,0,0-.27.33,1,1,0,0,1,.21.14A.72.72,0,0,1,65,35c0,.31-.07.61-.09.92,0,.15,0,.3,0,.45a2.65,2.65,0,0,1,0,.38,2,2,0,0,1-.14.34l0,0a.73.73,0,0,0,0,.2v0s0,.09,0,.14l0,0,0,.06a.63.63,0,0,0,0,.09l0,.09a1.23,1.23,0,0,0,0,.19.28.28,0,0,0,0,.09.31.31,0,0,0,0,.1l.07.16h0l.1.14h0l.13.11h0l.16.07h0l.18,0h.21l.18,0h0a.46.46,0,0,0,.23-.12.52.52,0,0,0,.18-.18l.06-.17a.46.46,0,0,0,0-.26.34.34,0,0,0,0-.17.18.18,0,0,0,0-.07,1,1,0,0,0,0-.24.47.47,0,0,0,0-.26.74.74,0,0,0-.14-.22h0a.61.61,0,0,0,.14-.38V34.94a1,1,0,0,0-.24-.81.62.62,0,0,0-.19-.12h.28a.59.59,0,0,0,.32.08,5.25,5.25,0,0,1,1.81.08c.51.11,1.1.14,1.31-.47C69.64,32.32,67.18,32.63,66.49,32.65Z"/><path class="cls-1" d="M28.26,33.62a.19.19,0,0,1,0-.08h0c0-.3.06-.59.11-.86a3,3,0,0,0-1.62-1,14.59,14.59,0,0,0-3.1-.14c-.5,0-1-.07-1.49-.1a2.63,2.63,0,0,0-1.5.17,2.25,2.25,0,0,0-.74.83c-.07.13,0,.43-.06.55a4.91,4.91,0,0,0,.73,3.15c.21.32.46.61.69.92a2.57,2.57,0,0,0,1,.85,3.84,3.84,0,0,0,2.51.39,4.43,4.43,0,0,0,2-1.16,4.49,4.49,0,0,0,1.3-2,4,4,0,0,0,.13-.84A5.15,5.15,0,0,1,28.26,33.62Z"/><path class="cls-2" d="M4.32,3.15C6.5,1.28,9.8.2,14.73.2H34.15"/><path class="cls-2" d="M3.11,32.61A39.61,39.61,0,0,1,.2,16.92C.2,11.9.7,7.55,3,4.55"/><path class="cls-2" d="M49.46,1.22a21.28,21.28,0,0,0-7-1H23"/><path class="cls-2" d="M57.24,19.64q.09-1.28.09-2.64c0-4.88-.57-9.15-2.81-12.16"/><path class="cls-2" d="M54.05,32.61a23.09,23.09,0,0,0,1.42-3.51"/><path class="cls-2" d="M63.34,32.61s3.27-6,3.27-15.61S64.43.2,51.71.2H32.3"/><line class="cls-2" x1="29.3" y1="32.67" x2="58.81" y2="32.67"/><path class="cls-2" d="M18.18,34.39h-15a.89.89,0,0,1,0-1.72H18.57"/><line class="cls-2" x1="65.65" y1="34.39" x2="29.5" y2="34.39"/><path class="cls-2" d="M43.74,32.67H54.9a.89.89,0,0,1,0,1.72H43.47"/><path class="cls-2" d="M28.06,32.67a5.48,5.48,0,0,1,0,.7c0,2.89-1.86,5.22-4.16,5.22s-4.17-2.33-4.17-5.22a6.53,6.53,0,0,1,.08-1"/><path class="cls-2" d="M30.79,34.52c-.42,2.33-2.08,4.07-4.07,4.07H23.84"/><path class="cls-2" d="M18.18,34.39l1.66-2.18a2,2,0,0,1,1.7-.73h4.6a2,2,0,0,1,1.7.73l1.66,2.18"/><path class="cls-2" d="M18.57,32.67l1.12-1.24a2.17,2.17,0,0,1,1.81-.71h4.93a2.18,2.18,0,0,1,1.82.71l1.05,1.24"/><ellipse class="cls-3" cx="23.84" cy="33.34" rx="1.28" ry="1.87"/><rect class="cls-2" x="58.56" y="32.67" width="10.61" height="1.58"/><polygon class="cls-2" points="64.3 38.59 66.24 38.59 65.65 36.78 64.88 36.78 64.3 38.59"/><rect class="cls-2" x="64.84" y="34.39" width="0.81" height="2.39"/><path class="cls-4" d="M30,34.37a2.45,2.45,0,0,1-.77-.27s0-.05,0-.08v0a.58.58,0,0,0-.06-.26.49.49,0,0,0-.14-.21.46.46,0,0,0-.22-.14.54.54,0,0,0-.25-.06l-.18,0a.56.56,0,0,0-.3.17l-.1.13a.61.61,0,0,0-.1.34v0a.29.29,0,0,0,0,.1s0,.05,0,.08v.21a.53.53,0,0,0,0,.12h0a13.56,13.56,0,0,1-.43,1.37c0,.11-.08.22-.13.33v.05s-.05.1-.07.16c-.1.22-.21.44-.32.65,0,0,0,0,0,.06h0a.72.72,0,0,0-.23.23l0-.06a.93.93,0,0,1-.14.14,2,2,0,0,0-.34.15c-.3.17-.78.52-.58.82s.82.29,1.16.13c0,0,.22.16.18.17h0c.05,0,.11,0,.05,0h0a.82.82,0,0,0,.35-.13l.6-.18a2.14,2.14,0,0,0,1.1-.84,14.54,14.54,0,0,0,1.46-2.18A.68.68,0,0,0,30,34.37Z"/><path class="cls-5" d="M44.05,5.31c-.76-.28-1.51-.59-2.27-.88a8.14,8.14,0,0,0-2.59-.49c-1.59-.1-3.19,0-4.78-.1s-3.34-.16-5-.15c-3.34,0-6.67.1-10,.13-1.61,0-3.22.08-4.83.11s-3.27-.11-4.91-.14-3.1.07-4.66,0A14.39,14.39,0,0,0,3,4a1.85,1.85,0,0,1-.67-.05A6.69,6.69,0,0,0,5.27,5.28,35.91,35.91,0,0,0,9.8,6.36a.65.65,0,0,1,.61.8,62.39,62.39,0,0,0-.4,8L46.08,15a23.07,23.07,0,0,1,.28-3.8,7.53,7.53,0,0,1,1.23-4.09h0l0-.67A31.1,31.1,0,0,1,44.05,5.31Z"/><path class="cls-1" d="M10,6.41a42,42,0,0,0,0,14.22l37.5-.13s-1.1-8,.19-14.09Z"/><path class="cls-6" d="M32.69,15.78a7.91,7.91,0,0,0,1.53-.19.23.23,0,0,1,.3.23.49.49,0,0,1,0,.12l0,.05a3,3,0,0,1,.09.73c0,.22,0,.44.08.66s.07.45.11.68a2.64,2.64,0,0,1,.11.73s0,.06,0,.08l.11.29a1.39,1.39,0,0,1,.06.19.33.33,0,0,1,.14,0,.24.24,0,0,1,.15,0,.34.34,0,0,1,.17-.11c.17-.05.35-.07.52-.11a1,1,0,0,1,.57,0c.35.13.69.28,1,.42l.56.24a.84.84,0,0,1,.41.28.26.26,0,0,1,0,.32.4.4,0,0,1-.52.06.23.23,0,0,1-.16,0,.67.67,0,0,0-.12-.06.76.76,0,0,0-.2-.06h-.14l-.11,0a.4.4,0,0,1-.24.28.74.74,0,0,1-.39,0,2.27,2.27,0,0,0-.45,0c-.29,0-.58.09-.87.1a2.74,2.74,0,0,1-.9-.15.15.15,0,0,1-.11-.11.6.6,0,0,1-.22-.09,1.16,1.16,0,0,1-.35-.44,2.57,2.57,0,0,1-.2-.77s0,0,0,0a4.78,4.78,0,0,0-.3-.74,6.44,6.44,0,0,1-.25-.74,10,10,0,0,0-.53-1.51A.25.25,0,0,1,32.69,15.78Z"/><path class="cls-6" d="M27.44,15.91a7.72,7.72,0,0,1-1.52-.2.25.25,0,0,0-.31.24.49.49,0,0,0,0,.12l0,.05a2.92,2.92,0,0,0-.09.73c0,.22,0,.43-.08.65s-.07.46-.11.68a2.71,2.71,0,0,0-.11.74s0,0,0,.08-.07.19-.11.28l-.06.2H24.9l-.15,0a.35.35,0,0,0-.17-.1,4.82,4.82,0,0,0-.52-.11.9.9,0,0,0-.56.05c-.36.13-.7.28-1.05.42L21.9,20a.87.87,0,0,0-.42.28.27.27,0,0,0,0,.32.42.42,0,0,0,.52.06.32.32,0,0,0,.16,0l.12-.06.2-.05a.33.33,0,0,0,.14,0l.11,0a.4.4,0,0,0,.25.29.7.7,0,0,0,.38,0l.37,0,0,0a1,1,0,0,1,.44-.12,1.09,1.09,0,0,1,.31,0,2.47,2.47,0,0,1,.29.06h.09a.62.62,0,0,1,.38.06h0l.3-.07a.2.2,0,0,0,.12-.12.6.6,0,0,0,.21-.08,1.07,1.07,0,0,0,.35-.44,2.65,2.65,0,0,0,.2-.77.08.08,0,0,0,0,0,5.33,5.33,0,0,1,.3-.75,5.85,5.85,0,0,0,.25-.74,9.89,9.89,0,0,1,.53-1.5A.25.25,0,0,0,27.44,15.91Z"/><path class="cls-6" d="M32.3,8V7.59a.56.56,0,0,1,.09-.42.75.75,0,0,1,.15-.09L32.72,7a.51.51,0,0,1,.4.07.7.7,0,0,1,.25.72,2,2,0,0,1-.31.71h0c-.06.18-.26.29-.41.39a.25.25,0,0,1-.37-.21C32.29,8.45,32.3,8.21,32.3,8Z"/><path class="cls-6" d="M25.84,8.11h0a2.55,2.55,0,0,1,0-.54,8.07,8.07,0,0,1-.07-1,.51.51,0,0,1,.15-.33,1.22,1.22,0,0,0,.22-.38,1.15,1.15,0,0,0,.06-.37.62.62,0,0,1,.05-.38,1.13,1.13,0,0,1,.29-.24l.39-.26a2.7,2.7,0,0,1,1.75-.4,5,5,0,0,1,1,.24,1.89,1.89,0,0,1,.8.46.21.21,0,0,1,.27.23,1.5,1.5,0,0,0,.14.75,2.49,2.49,0,0,0,.37.68.45.45,0,0,1,.16.3,2.81,2.81,0,0,1,0,.41v.42a1.08,1.08,0,0,1,0,.44.28.28,0,0,1-.34.16h0A1.47,1.47,0,0,0,30,9a.24.24,0,0,1-.27.11A3.3,3.3,0,0,0,27,9a.25.25,0,0,1-.33-.09,1.38,1.38,0,0,0-.24-.3A1.74,1.74,0,0,0,26,8.34l-.09-.08h-.08l0,0a253590322150.64,253590322150.64,0,0,0,0-.06,0,0,0,0,1,0,0Z"/><path class="cls-6" d="M25.41,7.31a.09.09,0,0,1,.12.07c0,.28,0,.55.06.83a.09.09,0,0,1,0,.06l.07.37a.09.09,0,0,1-.14.08.76.76,0,0,1-.2-.32A1.64,1.64,0,0,1,25.16,8,.67.67,0,0,1,25.41,7.31Z"/><path class="cls-7" d="M26.45,6.46a.77.77,0,0,1,.46-.3,1.16,1.16,0,0,1,.66.08.25.25,0,0,1,.17.3l-.19,1a.22.22,0,0,1-.2.17l-.08,0a.63.63,0,0,1-.6-.18.83.83,0,0,1-.31-.47A.82.82,0,0,1,26.45,6.46Z"/><path class="cls-8" d="M32.8,8.82Z"/><path class="cls-9" d="M24.81,11.27a2.16,2.16,0,0,0,.27.69,2.79,2.79,0,0,0,.49.54.41.41,0,0,0,.46.06,2.53,2.53,0,0,1,.27-.18,1.52,1.52,0,0,1,.6-.15h0a3.78,3.78,0,0,0,.5.56.92.92,0,0,0,.85.35l0,0a2.26,2.26,0,0,0,1.58-.58,9.51,9.51,0,0,0,1.31-1.38l.34-.42c0,.23,0,.45,0,.68a.39.39,0,0,0,.2.35h0a1.33,1.33,0,0,1,.24-.11l.07,0h0a1.66,1.66,0,0,1,.32,0,.21.21,0,0,1,.16.08h.2l.09,0,.18.06h0l.09.05.16.1h0a.45.45,0,0,0,.24.28.41.41,0,0,0,.5-.17,2.39,2.39,0,0,0,.48-1.18,1.77,1.77,0,0,0-.09-.61.5.5,0,0,0-.05-.13h0A1,1,0,0,0,34,9.43c-.21-.18-.42-.34-.64-.5h0a.66.66,0,0,0-.06-.2.24.24,0,0,0-.38-.05l-.09.09s0,0,0,0l0,0h0l-.1.06,0,0h0l-.11,0h-.27c0-.4,0-.79,0-1.18V7.19a.92.92,0,0,0,0-.16h0l.23,0h0a.27.27,0,0,0,.24-.09.34.34,0,0,0,.11-.25l0-.16,0-.14-.06-.31a.32.32,0,0,0-.11-.17.37.37,0,0,0,0-.18,4.53,4.53,0,0,0-.87-1.6,2.86,2.86,0,0,0-1.39-.77,2.5,2.5,0,0,0-1.35-.14.19.19,0,0,0-.18-.07,7,7,0,0,0-2.08.68.24.24,0,0,0-.12.24,3.32,3.32,0,0,0-.69.8A.17.17,0,0,0,26,5a.13.13,0,0,0-.09.07,10.66,10.66,0,0,0-.37,1.13.15.15,0,0,0,.11.2.18.18,0,0,0,.2-.12,10.75,10.75,0,0,1,.34-1,.17.17,0,0,0,0-.18s0,0,0,0l.49-.35a.18.18,0,0,0,.07-.08l.06,0a1.33,1.33,0,0,1,.38-.23,2.78,2.78,0,0,1,.5-.11l.5-.08a1.2,1.2,0,0,1,.5,0h0a4.65,4.65,0,0,0,.63.21c.26.1.49.24.75.35l.71.29a3,3,0,0,0,.12.73,1.87,1.87,0,0,0,.61,1,10.45,10.45,0,0,0-.07,1.58c-.54-.18-1.29.35-1.68.8a5,5,0,0,0-.62-.28,2.86,2.86,0,0,0-.41-.15,2.69,2.69,0,0,0-.49,0,3.16,3.16,0,0,0-1,.13,1.41,1.41,0,0,0-.54.43,1.07,1.07,0,0,0-.13-.31,2.22,2.22,0,0,0-.48-.44A.25.25,0,0,0,26,8.4l-.11-.1a.15.15,0,0,0-.11,0s0,0,0,0a15.81,15.81,0,0,1-.12-1.68c0-.1-.17-.1-.16,0a15.81,15.81,0,0,0,.12,1.68.09.09,0,0,0,.06.07.17.17,0,0,0-.07.13l.05.75a.45.45,0,0,0-.25.12,2.71,2.71,0,0,0-.42.54A1.78,1.78,0,0,0,24.81,11.27Z"/><path class="cls-6" d="M30.16,12.28l0,0h0a3.12,3.12,0,0,0,.67-.54l.33-.34a.58.58,0,0,0,.2-.31.16.16,0,0,1,.18-.12.17.17,0,0,1,.14.16v.47a.12.12,0,0,1,0,.1.11.11,0,0,1,0,.07.25.25,0,0,1,0,.17v0a.3.3,0,0,1,0,.08v0l-.08.11-.1.09a1.54,1.54,0,0,1-.19.17.19.19,0,0,1-.11.07.24.24,0,0,1-.12,0,.28.28,0,0,1-.13,0,.17.17,0,0,1-.1-.07l-.18,0-.15,0-.06,0-.08,0a.17.17,0,0,1-.21,0A.16.16,0,0,1,30.16,12.28Z"/><path class="cls-10" d="M35.31,15.87h0A4.08,4.08,0,0,0,35,15l-.19-.44c-.08-.24-.15-.47-.25-.7a5.2,5.2,0,0,0-.56-1,7.3,7.3,0,0,0-.64-.9l-.06-.06a.5.5,0,0,0-.17-.11,1.47,1.47,0,0,0-1.16-.1,1.12,1.12,0,0,0-.58.63h0c-.22.05-.45.09-.67.12h-.11l-.16,0-.35,0a.34.34,0,0,0-.24.11l-.1,0a1.8,1.8,0,0,1-1.47.48,2.21,2.21,0,0,1-.72-.32c-.1-.08-.15-.22-.24-.31a1.4,1.4,0,0,0-.34-.26.3.3,0,0,0-.37,0,.33.33,0,0,0-.14.06,2.5,2.5,0,0,0-1.06,1.45,8.78,8.78,0,0,0-.4,2.09A.17.17,0,0,0,25,16a1.12,1.12,0,0,0,0,.32.83.83,0,0,1,.27,0l.26,0a1.33,1.33,0,0,1,.24.1,1.9,1.9,0,0,1,.33.22,1.8,1.8,0,0,1,.2.19.59.59,0,0,1,.16.4.29.29,0,0,1,0,.16l.14,0a6.91,6.91,0,0,0,.69,1.82,1.13,1.13,0,0,0-.06.32,4,4,0,0,0,.12,1,.26.26,0,0,0-.09.09.06.06,0,0,0,0,0l.65-.08a4.29,4.29,0,0,1,1,.06,12.31,12.31,0,0,0,2.19,0c.74,0,1.48-.06,2.23-.05l.8,0c0-.13-.09-.26-.13-.4s-.12-.42-.2-.63-.17-.41-.24-.62a1.88,1.88,0,0,0-.17-.57c-.07-.18-.14-.37-.2-.55s0-.18-.08-.27a.41.41,0,0,1-.11-.07.58.58,0,0,1,0-.81,1.11,1.11,0,0,1,.75-.22h.07c-.08,0-.07,0,0,0l.17,0,.34-.1a5.41,5.41,0,0,1,.69-.19l.31-.08.08,0h0l.11-.06h0A.38.38,0,0,0,35.31,15.87Z"/><path class="cls-11" d="M33.68,19.59c-.07-.21-.17-.41-.24-.62a1.88,1.88,0,0,0-.17-.57c-.07-.18-.14-.37-.2-.55s0-.18-.08-.27a.41.41,0,0,1-.11-.07.56.56,0,0,1-.11-.64,4.81,4.81,0,0,1-.47-.9,6.17,6.17,0,0,1-.36-1.34c-.07-.52-.23-1.05-.25-1.59a9.21,9.21,0,0,1,.17-1.27,1.2,1.2,0,0,0-.51.58h0l-.17,0c-.05.31-.13.61-.19.92,0,0,0,.09,0,.1a.34.34,0,0,0,0,.1c0,.1,0,.21,0,.31a5.46,5.46,0,0,0,0,.57.59.59,0,0,1-.42.55,2.06,2.06,0,0,1-.82.07L29,15c-.6,0-1.2,0-1.8,0a.54.54,0,0,1-.45-.22.59.59,0,0,1-.1-.5c0,.1,0-.08,0-.08a.49.49,0,0,1,0-.12v-.82a4.39,4.39,0,0,1,.11-1,.29.29,0,0,0-.22.06.33.33,0,0,0-.14.06,2.55,2.55,0,0,0-.61.57.36.36,0,0,1,0,.11c0,.69,0,1.39.05,2.08,0,.27.1.57.14.86a5.06,5.06,0,0,1,.06.53s0,.08,0,.1l0,.1.11.1a.59.59,0,0,1,.16.4.29.29,0,0,1,0,.16l.14,0a6.91,6.91,0,0,0,.69,1.82,1.13,1.13,0,0,0-.06.32,4,4,0,0,0,.12,1,.26.26,0,0,0-.09.09.06.06,0,0,0,0,0l.65-.08a4.29,4.29,0,0,1,1,.06,12.31,12.31,0,0,0,2.19,0c.74,0,1.48-.06,2.23-.05l.8,0c0-.13-.09-.26-.13-.4S33.76,19.8,33.68,19.59Z"/><path class="cls-12" d="M23.07,19a5.66,5.66,0,0,1,.28-1.53,1.85,1.85,0,0,1,.41-.77,2.17,2.17,0,0,1,.29-.24s.08-.09.06-.12,0-.39-.09-.48-.27.07-.33,0-.29-.09-.31-.22a6.49,6.49,0,0,1-.91-.57,6.09,6.09,0,0,0-1.68-.77,7.74,7.74,0,0,0-3.85.12A17.83,17.83,0,0,0,15,15a5.19,5.19,0,0,0-1.33.72,1.1,1.1,0,0,1-.58.19h0c0,.07,0,.13,0,.19a1.34,1.34,0,0,1,.06.12c.16.3.36.46.51.74A3.61,3.61,0,0,1,14,18c.08.39.17.78.26,1.16l.48,0a12.83,12.83,0,0,1,1.76.06,37.64,37.64,0,0,0,3.83,0c.93,0,1.85,0,2.78,0A.33.33,0,0,1,23.07,19Z"/><path class="cls-13" d="M22.08,20.52a.59.59,0,0,1,.09-.32l.1-.13a.67.67,0,0,1,.27-.16l.17,0a.42.42,0,0,1,.15,0,5.47,5.47,0,0,1,.15-.58,1.79,1.79,0,0,1,.13-.32c-1.82,0-3.65.12-5.47,0-1.09-.07-2.16,0-3.25,0a7.54,7.54,0,0,1-1.15,0,4.9,4.9,0,0,1,.2.82,1.55,1.55,0,0,1,.9.15c.13.08.23.24.36.31a1.12,1.12,0,0,0,.52.07c.46,0,.9.16,1.37.18l1.49,0c1,0,2.05.1,3.08.07l.9,0S22.08,20.55,22.08,20.52Z"/><path class="cls-14" d="M31.94,12.61Z"/><path class="cls-2" d="M31.35,12.46a1.15,1.15,0,0,1,1.31-.79,1.77,1.77,0,0,1,1.22,1"/><path class="cls-2" d="M35.58,19.86a1.24,1.24,0,0,1,.85,0,1.31,1.31,0,0,1,.75.49"/><path class="cls-2" d="M36.36,19.23a.48.48,0,0,0-.18-.05,8.78,8.78,0,0,0-1.22.31l-.4.25"/><path class="cls-2" d="M37.82,19.88c-.42-.17-1.46-.65-1.46-.65"/><path class="cls-2" d="M37.33,19.67l.94.4a.62.62,0,0,1,.36.28"/><path class="cls-2" d="M35.74,19.67a.13.13,0,0,0,0,.13"/><path class="cls-2" d="M24.41,19.86a1.32,1.32,0,0,0-.85,0,1.39,1.39,0,0,0-.76.5"/><path class="cls-2" d="M23.63,19.24a.35.35,0,0,1,.18,0A9,9,0,0,1,25,19.5l.41.24"/><path class="cls-2" d="M22.16,19.89l1.47-.65"/><path class="cls-2" d="M22.65,19.68l-.94.4a.62.62,0,0,0-.36.28"/><path class="cls-2" d="M24.24,19.68a.13.13,0,0,1,0,.13"/><path class="cls-2" d="M31.93,14.13c.73,2.54,2.12,6.41,2.12,6.41"/><line class="cls-2" x1="34.63" y1="16.34" x2="35.07" y2="19.46"/><path class="cls-2" d="M32.77,6.08a4.4,4.4,0,0,1,.1.88"/><path class="cls-2" d="M29.13,3.1a5.06,5.06,0,0,1,.76.06,3.48,3.48,0,0,1,2.88,2.92"/><path class="cls-2" d="M29.13,3.1a5.39,5.39,0,0,0-.76.09,3.35,3.35,0,0,0-2.74,2.74,5.7,5.7,0,0,0-.1,1.27"/><path class="cls-2" d="M32.29,7.2A.67.67,0,0,1,33,7c.46.15.46.71.35,1.1s-.36.9-1,.84"/><path class="cls-2" d="M32.73,7.45a.83.83,0,0,0-.12.28,3.62,3.62,0,0,1-.14.55"/><path class="cls-2" d="M32.93,7.84a.28.28,0,0,1-.35.07"/><path class="cls-2" d="M32.77,7.94a.29.29,0,0,0,.08.3"/><path class="cls-2" d="M25.53,7.25l-.12,0c-.39.16-.36.65-.23,1a1,1,0,0,0,.47.61"/><path class="cls-2" d="M25.47,8a.6.6,0,0,0,.11.06"/><path class="cls-2" d="M25.61,8.29a.1.1,0,0,1,0,.05"/><path class="cls-2" d="M30,9.25s-.38-.58-1.79-.57-1.51.57-1.51.57"/><path class="cls-2" d="M27.47,7.65a.72.72,0,0,1-.35.08.82.82,0,0,1-.83-.82.83.83,0,0,1,.83-.83.84.84,0,0,1,.64.31"/><polyline class="cls-2" points="27.83 6.08 27.41 8.15 28.26 8.09"/><path class="cls-2" d="M29.86,9.14s.28-.73,1.6-.86V6.73"/><path class="cls-2" d="M32.52,9l-.05.5s-2.24,3.73-4.21,3.69"/><path class="cls-2" d="M25.53,7.2l.21,2.42s1.05,3.58,2.52,3.58"/><line class="cls-2" x1="31.59" y1="10.78" x2="31.74" y2="11.85"/><line class="cls-2" x1="32.29" y1="6.98" x2="32.29" y2="9.06"/><path class="cls-2" d="M30.78,5a2.44,2.44,0,0,0,.92,1.92"/><path class="cls-2" d="M31,5a1.56,1.56,0,0,1-.62-.23A4.4,4.4,0,0,0,28,4.18c-1,.08-1.36.71-2,1"/><path class="cls-2" d="M26.74,9.11a2,2,0,0,0-.95-.87l-.06-1.79"/><path class="cls-2" d="M26.18,5.08s-.12,1.26-.49,1.37"/><path class="cls-2" d="M33.76,9.25a1.78,1.78,0,0,1,.87,1.52,1.8,1.8,0,0,1-.87,1.54"/><path class="cls-2" d="M33.17,8.44a1.34,1.34,0,0,0,.59.81"/><path class="cls-2" d="M25.7,9.18a2,2,0,0,0-1,1.59,2,2,0,0,0,1.14,1.86"/><path class="cls-2" d="M31.35,12.38a7.22,7.22,0,0,1-1.46.16"/><path class="cls-2" d="M26.92,12.23a1.25,1.25,0,0,0-1.2.75"/><path class="cls-2" d="M26,12.56a12.09,12.09,0,0,0,1.13,6.8s2.07.59,6.25-.65"/><path class="cls-2" d="M27.16,19.36a3,3,0,0,0,.05,1.21"/><path class="cls-2" d="M31.54,20.53A18.87,18.87,0,0,0,33.85,20"/><path class="cls-2" d="M32.69,16.58c.27,0,.61,0,.94-.07,1-.15,1.66-.45,1.64-.56"/><path class="cls-2" d="M35.31,15.86a19.44,19.44,0,0,0-1.43-3.23"/><path class="cls-2" d="M26.15,16.58c-1-.19-1.31-.3-1.3-.4A7.77,7.77,0,0,1,25.7,13"/><line class="cls-2" x1="25.37" y1="6.41" x2="9.98" y2="6.41"/><line class="cls-2" x1="47.7" y1="6.41" x2="33.17" y2="6.41"/><path class="cls-2" d="M30.1,9.73a1.62,1.62,0,0,1-1.84-.19s-.53.51-.85.48"/><circle class="cls-15" cx="29.29" cy="6.91" r="0.81"/><path class="cls-4" d="M29.5,6.83a.29.29,0,0,0,0,.57A.29.29,0,0,0,29.5,6.83Z"/><path class="cls-4" d="M27.32,6.71a.29.29,0,0,0,0,.57A.29.29,0,0,0,27.32,6.71Z"/><path class="cls-2" d="M31.12,12.38a6.86,6.86,0,0,0,0,2.52l-4.38.22a6.11,6.11,0,0,1,0-2.87"/><path class="cls-2" d="M32.61,16.34s-.68-.91-.91-4.41"/><line class="cls-2" x1="23.05" y1="19.02" x2="23.54" y2="16.71"/><line class="cls-2" x1="14.14" y1="19.14" x2="13.77" y2="16.7"/><path class="cls-2" d="M13.89,15.87c0,.29,2.13.52,4.75.51s4.75-.26,4.75-.55-2.15-1.51-4.78-1.5S13.88,15.58,13.89,15.87Z"/><path class="cls-2" d="M23.3,15.69a.6.6,0,0,1,.32.13.61.61,0,0,1,.36.06c.2.09.3.24.23.32h0l0,0c.06.09-.09.24-.33.34a1,1,0,0,1-.39.08.75.75,0,0,1-.39.17.85.85,0,0,1-.39,0,.8.8,0,0,1-.37.12,1,1,0,0,1-.39,0,.75.75,0,0,1-.38.11,1,1,0,0,1-.41,0,.93.93,0,0,1-.4.1.91.91,0,0,1-.4-.06.89.89,0,0,1-.41.09.84.84,0,0,1-.38-.06.84.84,0,0,1-.39.08l-.23,0"/><path class="cls-2" d="M14,15.73a.56.56,0,0,0-.32.14.64.64,0,0,0-.37.06c-.19.09-.29.24-.22.33h0l0,0c-.06.09.09.24.33.34a.87.87,0,0,0,.39.07.79.79,0,0,0,.4.17,1,1,0,0,0,.38,0,.94.94,0,0,0,.37.12.84.84,0,0,0,.4,0,.75.75,0,0,0,.38.11,1,1,0,0,0,.41-.05.92.92,0,0,0,.39.1,1.11,1.11,0,0,0,.41-.06.9.9,0,0,0,.41.08.84.84,0,0,0,.38-.06.85.85,0,0,0,.39.07l.21,0"/><path class="cls-2" d="M19,17.12a.72.72,0,0,1-.33.06,1,1,0,0,1-.34-.05"/><path class="cls-2" d="M22.63,19.1H22l-9.07,0a2,2,0,0,0,1.52.78"/><path class="cls-2" d="M23.28,19.8a2,2,0,0,0,1-.71H22"/><path class="cls-2" d="M21,20.55H16a2.11,2.11,0,0,1-1.53-.63l3.4,0,4.92,0a1.74,1.74,0,0,0,.53-.08"/><path class="cls-2" d="M22.72,19.89a2.2,2.2,0,0,1-1.68.66"/><path class="cls-12" d="M47.19,17.34v0h0a1,1,0,0,1,0-.17s0,0,0-.08c-.1-.84-.14-1.59-.22-2.43a4.49,4.49,0,0,0-.64-.1,7.89,7.89,0,0,0-3.86-.12c-.64.15-1.28.33-1.9.53a5.89,5.89,0,0,0-1.33.72,1.12,1.12,0,0,1-.58.2h0a1.21,1.21,0,0,0,.05.18s0,.1.06.13c.16.3.36.45.5.73a3.38,3.38,0,0,1,.26,1c.08.39.16.77.26,1.16l.48,0a17.15,17.15,0,0,1,1.76.06,37.62,37.62,0,0,0,3.83,0l1.42,0A5.23,5.23,0,0,1,47.19,17.34Z"/><path class="cls-13" d="M47.45,19.57c-.06-.19-.1-.38-.15-.58-1.34,0-2.69.06-4,0-1.09-.06-2.16,0-3.25,0a7.46,7.46,0,0,1-1.15,0,4.46,4.46,0,0,1,.2.82,1.5,1.5,0,0,1,.89.14c.14.08.24.24.37.31a1.26,1.26,0,0,0,.52.08c.46,0,.9.16,1.37.18l1.49,0c1,0,2,.1,3.08.08l.87,0A4,4,0,0,1,47.45,19.57Z"/><path class="cls-14" d="M57.55,12.56h0S57.53,12.6,57.55,12.56Z"/><line class="cls-2" x1="39.76" y1="19.08" x2="39.39" y2="16.65"/><path class="cls-2" d="M46.86,14.66a9.16,9.16,0,0,0-2.63-.38c-2.63,0-4.73,1.25-4.73,1.54s2.13.52,4.75.51c1,0,2,0,2.72-.11"/><path class="cls-2" d="M47,17l-.18,0a.92.92,0,0,1-.39.1A1.11,1.11,0,0,1,46,17a.88.88,0,0,1-.4.09A.86.86,0,0,1,45.2,17a.84.84,0,0,1-.39.08l-.22,0"/><path class="cls-2" d="M39.59,15.68a.6.6,0,0,0-.32.14.64.64,0,0,0-.37.06c-.19.09-.28.24-.22.32h0l0,0c-.06.09.08.24.33.34a1,1,0,0,0,.39.07.71.71,0,0,0,.39.17,1,1,0,0,0,.38,0,1,1,0,0,0,.37.12,1,1,0,0,0,.4,0,.75.75,0,0,0,.38.11,1,1,0,0,0,.41-.05.93.93,0,0,0,.4.1.9.9,0,0,0,.4-.07.78.78,0,0,0,.41.09.84.84,0,0,0,.38-.06,1,1,0,0,0,.39.07l.21,0"/><path class="cls-2" d="M44.58,17.07a.7.7,0,0,1-.32.06,1,1,0,0,1-.35-.05"/><path class="cls-2" d="M47.29,19.05l-8.8,0a2,2,0,0,0,1.52.78"/><path class="cls-2" d="M46.61,20.5h-5A2.14,2.14,0,0,1,40,19.87l3.4,0,3.85,0"/><line class="cls-2" x1="25.53" y1="16.58" x2="25.04" y2="19.41"/><path class="cls-2" d="M26.74,18.28S26,20.57,26,20.57"/><path class="cls-2" d="M31.74,4h8.13A45.55,45.55,0,0,0,47.7,6.41"/><path class="cls-2" d="M2.23,4H26.65"/><polyline class="cls-2" points="31.75 3.96 39.85 3.96 39.85 3.24 30.39 3.24"/><polyline class="cls-2" points="27.95 3.24 2.23 3.24 2.23 3.96 26.56 3.96"/><path class="cls-2" d="M39.85,3.24a56.72,56.72,0,0,0,8,2.53"/><path class="cls-2" d="M2.23,4S6.67,6.41,10,6.41"/><path class="cls-2" d="M47.82,5.77a42.4,42.4,0,0,0-.31,14.73c-12.56,0-24.94.13-37.5.13A47.4,47.4,0,0,1,10,6.41"/></g></g></svg>