<svg xmlns="http://www.w3.org/2000/svg" viewBox="0 0 140.59 56.21"><defs><style>.cls-1{fill:#0a7332;}.cls-2{fill:#ee7349;}.cls-3,.cls-8{fill:#9ad4e1;}.cls-4{fill:#e33b17;}.cls-5{fill:#0071b9;}.cls-6{fill:#6bc2b9;}.cls-13,.cls-7{fill:#22234a;}.cls-13,.cls-14,.cls-8,.cls-9{stroke:#22234a;}.cls-10,.cls-13,.cls-14,.cls-8,.cls-9{stroke-linecap:round;stroke-linejoin:round;stroke-width:0.4px;}.cls-10,.cls-9{fill:none;}.cls-10{stroke:#f8cde2;}.cls-11{fill:#fff;}.cls-12{fill:#915f4a;}.cls-14{fill:#f9b91a;}</style></defs><g id="Layer_2" data-name="Layer 2"><g id="Layer_1-2" data-name="Layer 1"><polygon class="cls-1" points="111.08 48.55 0.68 49.22 0.68 0.27 111.08 0.2 111.08 48.55"/><polygon class="cls-1" points="24.02 48.55 0.92 49.22 0.92 0.27 24.02 0.2 24.02 48.55"/><path class="cls-2" d="M139.57,42.81a13.78,13.78,0,0,0-.58-5.23,9.78,9.78,0,0,0-.61-1.31,1.07,1.07,0,0,0-.21-.56,10.28,10.28,0,0,0-6.64-4,21.41,21.41,0,0,0-.72-2.27l-.14-.15c-.53-1.67-1.11-3.23-1.68-4.88a7.38,7.38,0,0,0-1.94-3.56c-1.22-1-3-.78-4.49-.81,0,0,0,0,0,0a10.17,10.17,0,0,0-.46-1.31,2,2,0,0,0-.9-1.2l0,0a1.06,1.06,0,0,0-.17-.2,2.15,2.15,0,0,0-.46-.33,2.62,2.62,0,0,0-.53-.2.78.78,0,0,0-.4,0,.9.9,0,0,0-.23.08,6.34,6.34,0,0,0-.75-.07c-2.08-.09-4.17-.06-6.24,0a.88.88,0,0,0-.3.07.57.57,0,0,0-.22-.19.44.44,0,0,0-.32,0,.51.51,0,0,0-.37.48c0,.37,0,.74,0,1.12,0,0,0,0,0,.06a1.24,1.24,0,0,0-.1.54,43.93,43.93,0,0,1,.11,5.13c-.08,1.7-.29,3.38-.21,5.08a1.47,1.47,0,0,0,.23.74,2.11,2.11,0,0,0-.08.53c-.07,3-.1,6-.07,9.07s.24,5.88,0,8.79c-.14,1.78,2,2.42,3.21,1.56a1.4,1.4,0,0,0,.74.2,16.69,16.69,0,0,0,4.41-.29c1.53-.43,1.06-2,1.61-3.07,1.07-2.17,2.76-4.27,5.44-3.94,2.43.29,3.43,2.53,4.22,4.55.46,1.21.78,2.41,2.23,2.6a7.48,7.48,0,0,0,3.83-.53,1.45,1.45,0,0,0,1.52.8,1.49,1.49,0,0,0,1.3-1.47C139.58,46.6,139.58,44.7,139.57,42.81Z"/><path class="cls-3" d="M130.07,31.87h-9.64l0-10.08,5.29-.11s.74-.12,1.17,1.05S130.07,31.87,130.07,31.87Z"/><rect class="cls-4" x="111.12" y="19.99" width="3.75" height="28.68"/><path class="cls-5" d="M129.46,47.45c-.32-1.44-1.18-3.89-3-3.85a1.87,1.87,0,0,0-1.58.88,2.24,2.24,0,0,0-.24.67.74.74,0,0,1,0,.14,6,6,0,0,0-1,2.08,12.29,12.29,0,0,0,0,5A1.21,1.21,0,0,0,124,53a5.79,5.79,0,0,0,.27.95c0,.07.08.13.11.2a1.85,1.85,0,0,0-.06.39,1.5,1.5,0,0,0,.44,1.06,1.52,1.52,0,0,0,1.06.44,1.68,1.68,0,0,0,.78-.26l0,0h0l0,0,0,0h.12a1.62,1.62,0,0,0,.81-.34h0a1.69,1.69,0,0,0,.28-.12,1.47,1.47,0,0,0,.54-.54h0a1.07,1.07,0,0,0,.17-.51c.1-.31.2-.61.29-.93s.18-.41.26-.62l0-.1c0-.12.08-.23.11-.34a1.7,1.7,0,0,0,.06-.31c0-.09,0-.19,0-.21l.12-.59a8.26,8.26,0,0,0,.18-1.31A9.31,9.31,0,0,0,129.46,47.45Z"/><path class="cls-5" d="M114.08,50.76a2.26,2.26,0,0,0-1.7,1h0s0,0-.06,0l0,0h0l0,0c-.09,0,0,0,0,0l-.12,0-.07,0h-.28l-.32,0a1.32,1.32,0,0,0-.6-.87,2,2,0,0,0-1.29-.08,1,1,0,0,0-.7,1.23l.31.76a1.43,1.43,0,0,0,.27.43.87.87,0,0,0,0,.48,3.35,3.35,0,0,0,1.26,1.9,2.11,2.11,0,0,0,2.31,0A3.83,3.83,0,0,0,114.31,54a7.06,7.06,0,0,0,.77-2.22A1,1,0,0,0,114.08,50.76Z"/><path class="cls-6" d="M112.28,51.84h0Z"/><polyline class="cls-3" points="131.25 48.69 140.39 48.69 140.39 51.07 131.19 51.07"/><path class="cls-3" d="M119.41,48.69H57.79l-.32-.52c-.08-.12-.16-.24-.23-.36-.17-.34-.35-.67-.5-1h0s0-.09,0-.14a.51.51,0,0,0-.57-.36,3.29,3.29,0,0,0-1.59-.06l-2.65.14c-.81,0-1.61,0-2.43,0s-1.64.1-2.46,0c-.16-.23-.43-.14-.8-.14s-.69,0-.83.27a.5.5,0,0,0-.2.54l0,0a9.28,9.28,0,0,0-.95,1.45,1.24,1.24,0,0,1-.14.18.83.83,0,0,0-.69-.29l-1.48.11c-.32,0-.64,0-1,0l-.08,0a1.13,1.13,0,0,0-1,.21c-.24,0-15.39-.28-15.39,0a16.82,16.82,0,0,0,0,2.13c.09.43,15.46.32,15.87.22a5.29,5.29,0,0,1,1.11-.27,8.83,8.83,0,0,1,1.26,0c.41,0,.82.05,1.23,0a.94.94,0,0,0,.65-.21,1.69,1.69,0,0,0,.3-.54c.34-.74.68-1.48,1-2.22a1.07,1.07,0,0,0,.32.05.89.89,0,0,0,.82-.48c.48,0,1,.06,1.44.07a41.38,41.38,0,0,0,5,.05,11.65,11.65,0,0,0,2.36.08.83.83,0,0,0,.21-.06,6.52,6.52,0,0,0,.38.68c.31.6.65,1.2,1,1.78v1h54.09l0,0-.08.1a.45.45,0,0,0-.07.25l0,.13a.38.38,0,0,0,.13.22.58.58,0,0,0,.12.1l0,0,.11,0,.12,0a1.08,1.08,0,0,0,.19,0h.09l.15,0,.07,0,.14-.06h0a.44.44,0,0,0,.14-.13.56.56,0,0,0,.09-.17.45.45,0,0,0,0-.2.6.6,0,0,0-.06-.19l-.08-.1-.13-.08h6.93Z"/><path class="cls-7" d="M50.85,55.22a2.72,2.72,0,0,1-1-1.37,5.06,5.06,0,0,1-.56-1.64,17.14,17.14,0,0,1,0-3.92.5.5,0,0,0-.48-.63l-1.14.07a1.68,1.68,0,0,0-.8.14.64.64,0,0,0-.21.25.5.5,0,0,0-.88,0,11.41,11.41,0,0,0-.55,1.24.43.43,0,0,0,0,.25l-.06,0h0a.74.74,0,0,0-.38.34c-.12.22-.35.46-.15.62a.93.93,0,0,0,.93,0h.07s.12.07,0,0a1,1,0,0,0,.77.12c.18-.08.09-.28.08-.48s0-.62,0-.93v-.05c0-.06,0,0,0,0s0-.08,0-.09l.06-.22,0,0a4,4,0,0,0,.09.64.66.66,0,0,0,0,.15A7.77,7.77,0,0,0,47,52.55a13.23,13.23,0,0,0,1.18,2.6,1.59,1.59,0,0,0,.92.77A5,5,0,0,0,51,56C51.44,56,51.33,55.49,50.85,55.22Z"/><path class="cls-7" d="M57.07,50c-.18-.38-.37-.75-.55-1.12l0-.07,0,0h0a.14.14,0,0,1,0-.07s0-.06,0,0h0a.41.41,0,0,1,0-.11,1.67,1.67,0,0,0,0-.31.81.81,0,0,0-.31-.4.5.5,0,0,0-.64.74.76.76,0,0,1,0,.15,2,2,0,0,0,.24.68.53.53,0,0,0-.18.51h0c0-.12,0,0,0,0h0a.5.5,0,0,0,.35.6,2.17,2.17,0,0,0,.44,0h0a.48.48,0,0,0,.59.08A.5.5,0,0,0,57.07,50Z"/><path class="cls-7" d="M36.38,55.15a2,2,0,0,1-.57-.68,6.07,6.07,0,0,1-.48-.91,3.19,3.19,0,0,1-.43-1.9.51.51,0,0,0-.48-.64l-1.8,0a.51.51,0,0,0-.49.63,3.49,3.49,0,0,0,.5,1.07h0a2.64,2.64,0,0,0,.28.94c.21.41.48.81.73,1.2.07.12.15.24.23.35a.57.57,0,0,0,.46.24,1.24,1.24,0,0,0,.17.27,1,1,0,0,0,.77.31c.29,0,.95-.06,1.24-.07C37,56,36.81,55.4,36.38,55.15Z"/><path class="cls-5" d="M40.89,51.17A4,4,0,0,0,39.45,51c-.47.09-1.7,0-2.17,0A9.58,9.58,0,0,1,34.83,51c.06.15.34,1.43.4,1.57a1.18,1.18,0,0,0,.07.2c.21.53.23,1.12.49,1.63A2.55,2.55,0,0,0,38,55.86a2.52,2.52,0,0,0,2-1.6c.39-.83.6-1.76.92-2.62,0,0,0,0,0-.06C40.81,51.81,41.19,51.25,40.89,51.17Z"/><path class="cls-6" d="M19.21,51.11l.14,0h.18l0,0a13.5,13.5,0,0,0,3,0c.66,0,1.33-.17,2-.23V48.69H.2v2.44H18.86A.67.67,0,0,1,19.21,51.11Z"/><path class="cls-5" d="M54.28,47.63a6.42,6.42,0,0,1-2.29.11c-.86-.06-2.47-.4-2.69.8a5.88,5.88,0,0,0,0,1.39c0,.42,0,.84.08,1.26A7,7,0,0,0,50,53.57a.13.13,0,0,0,0,.06,3.2,3.2,0,0,0,1.22,1.9,2.39,2.39,0,0,0,.92.51,1.57,1.57,0,0,0,1.41-.48,4.21,4.21,0,0,0,1.08-1.86,13.75,13.75,0,0,0,.57-2.38c.08-.45.14-.91.2-1.36a5.72,5.72,0,0,0,.1-1.37A1,1,0,0,0,54.28,47.63Z"/><path class="cls-3" d="M53.17,48.15a.52.52,0,0,0-.62-.35l-.6.1a.88.88,0,0,0-.58.25,1.08,1.08,0,0,0-.16.68c0,.2,0,.4,0,.59,0,.38,0,.77,0,1.15a1.09,1.09,0,0,0,.36.83,1,1,0,0,0,.24.53.75.75,0,0,0,.87.14c.41-.22.54-.78.63-1.19A5.17,5.17,0,0,0,53.17,48.15Z"/><path class="cls-3" d="M38.53,51.26l-.08-.1a.61.61,0,0,0-.22-.13l-.13,0a.55.55,0,0,0-.22.06h0l.06,0-.09,0h-.05a.49.49,0,0,0-.17,0,.3.3,0,0,0-.18.06.29.29,0,0,0-.14.13.28.28,0,0,0-.09.17l0,.13a.43.43,0,0,0,.07.25l.07.11a.51.51,0,0,0,.23.12l.23,0h.11a1.6,1.6,0,0,0,.23,0l.22-.09a.58.58,0,0,0,.14-.13.56.56,0,0,0,.09-.17.46.46,0,0,0,0-.2A.33.33,0,0,0,38.53,51.26Z"/><ellipse class="cls-8" cx="126.55" cy="49.66" rx="1.24" ry="2.46"/><ellipse class="cls-9" cx="126.54" cy="49.78" rx="3.15" ry="6.23"/><path class="cls-9" d="M126.54,43.55H123.9c-1.75,0-3.16,2.79-3.16,6.23S122.15,56,123.9,56h2.54"/><path class="cls-9" d="M113.07,51.18c-.22.57-.58.94-1,.94s-.75-.37-1-.94"/><path class="cls-9" d="M115.16,51.18C114.84,54,113.59,56,112.09,56S109.34,54,109,51.19"/><path class="cls-9" d="M106.37,51.17c.32,2.78,1.57,4.84,3.07,4.84H112"/><path class="cls-9" d="M119.41,51.07l.16-2.32c.26-3.88,2.74-6.93,5.76-6.93s5.53,3.08,5.77,7l.09,2.26"/><path class="cls-9" d="M53.34,51.19c-.23.57-.58.93-1,.93s-.76-.39-1-1"/><path class="cls-9" d="M53.15,47.77a3.69,3.69,0,0,1,.45,1.89,4.37,4.37,0,0,1-.26,1.53"/><path class="cls-9" d="M51.37,51.13a4.34,4.34,0,0,1-.25-1.47,3.81,3.81,0,0,1,.44-1.88"/><path class="cls-9" d="M55.42,51.24C55.09,54,53.84,56,52.36,56S49.61,54,49.29,51.19"/><path class="cls-9" d="M55.36,47.87a12.86,12.86,0,0,1,.15,1.91,11.56,11.56,0,0,1-.09,1.46"/><path class="cls-9" d="M49.29,51.19a10.67,10.67,0,0,1-.09-1.41,11.62,11.62,0,0,1,.16-1.91"/><path class="cls-9" d="M46.64,51.19C47,54,48.21,56,49.71,56h2.54"/><path class="cls-9" d="M46.64,51.19a12.74,12.74,0,0,1-.08-1.41,11.65,11.65,0,0,1,.15-1.91"/><path class="cls-9" d="M38.89,51.18c-.23.57-.58.94-1,.94s-.75-.37-1-.94"/><path class="cls-9" d="M41,51.18C40.65,54,39.4,56,37.9,56S35.15,54,34.83,51.19"/><path class="cls-9" d="M32.18,51.17C32.5,54,33.76,56,35.26,56H37.8"/><rect class="cls-9" x="0.68" y="0.2" width="23.34" height="48.38"/><rect class="cls-9" x="5.11" y="4.96" width="14.63" height="43.62"/><line class="cls-9" x1="119.41" y1="51.07" x2="57.59" y2="51.07"/><line class="cls-9" x1="120.69" y1="50.76" x2="119.42" y2="50.76"/><line class="cls-9" x1="131.13" y1="50.76" x2="129.74" y2="50.76"/><polyline class="cls-9" points="131.25 48.69 140.39 48.69 140.39 51.07 131.19 51.07"/><line class="cls-9" x1="57.87" y1="48.69" x2="119.42" y2="48.69"/><polyline class="cls-9" points="44.15 51.07 0.2 51.07 0.2 48.69 44.1 48.69"/><path class="cls-9" d="M131.19,48.67h8.43V40.08s.07-7-7.92-8.32L128,22a3.13,3.13,0,0,0-2.93-2H114.86V48.67h4.64"/><line class="cls-9" x1="114.86" y1="19.99" x2="111.48" y2="19.99"/><path class="cls-9" d="M122.67,20s-.53-3.38-3.19-3.38h-8"/><path class="cls-9" d="M130.07,31.87h-9.64l-.06-10.19h5.32s.74-.12,1.17,1.05S130.07,31.87,130.07,31.87Z"/><line class="cls-9" x1="118.57" y1="21.68" x2="118.57" y2="40.79"/><line class="cls-9" x1="24.47" y1="48.69" x2="24.47" y2="51.07"/><polyline class="cls-9" points="57.59 51.07 55.99 47.74 45.9 47.74 44.23 51.07"/><polyline class="cls-9" points="44.11 48.69 45.48 46.3 56.69 46.3 57.87 48.69"/><line class="cls-9" x1="44.41" y1="50.71" x2="46.56" y2="50.71"/><line class="cls-9" x1="55.51" y1="50.71" x2="57.42" y2="50.71"/><polyline class="cls-9" points="24.02 0.2 111.08 0.2 111.08 48.55"/><path class="cls-7" d="M131.32,50.22a.28.28,0,0,0-.09-.17h0l0-.11a.56.56,0,0,0-.09-.17.73.73,0,0,0-.09-.08c0-.38-.11-.79-.14-1a9.74,9.74,0,0,0-1.46-4.58,3.06,3.06,0,0,0-1.25-1,.4.4,0,0,0-.23-.33,8.52,8.52,0,0,0-2.08-.71,3.14,3.14,0,0,0-1.77,0h0l-.28.13a.57.57,0,0,0-.23.34,2.39,2.39,0,0,0-.93.37A5.36,5.36,0,0,0,121,44.53a11.49,11.49,0,0,0-1.37,5.22.41.41,0,0,0-.06.25l0,.21a.5.5,0,0,0,1,0,18.42,18.42,0,0,1,.52-3.46c-.11.66-.21,1.31-.32,2a1.22,1.22,0,0,0,.09.71l0,0a2.91,2.91,0,0,0-.13,1.8,5.87,5.87,0,0,0,.37,1.32c.19.5.4,1,.63,1.45a2.64,2.64,0,0,0,.79,1.16.36.36,0,0,0,.1.15,3.37,3.37,0,0,0,2.08.75.51.51,0,0,0,.57-.23.48.48,0,0,0-.08-.6,6.39,6.39,0,0,1-.54-.5,2.85,2.85,0,0,1-.23-.26l-.05-.07,0,0,0,0-.06-.09a3.7,3.7,0,0,1-.21-.33l-.39-1h0a.76.76,0,0,0,0-.16c-.09-1.09-.2-2.17-.31-3.25a1.31,1.31,0,0,0-.18-.5,5.75,5.75,0,0,1,.33-1.36A9.46,9.46,0,0,1,124,46.3c.43-.89,1-1.73,1.32-2.66a.68.68,0,0,0,0-.2h0a8.26,8.26,0,0,1,2.47.53,3,3,0,0,1,1.32,1.68,9.58,9.58,0,0,1,.58,2.16c.07.38.11.77.15,1.15l0,.15a.42.42,0,0,0-.23.41c0,.36-.14.64.1,1a.67.67,0,0,0,.65.28.43.43,0,0,0,.11.12.56.56,0,0,0,.17.09l.14,0a.41.41,0,0,0,.19,0,.24.24,0,0,0,.11-.06.44.44,0,0,0,.13-.14l0-.12a.61.61,0,0,0,0-.27Z"/><path class="cls-7" d="M110.64,55.2a2.33,2.33,0,0,0-.45-.38s0,0,0-.08l0-.27a1,1,0,0,0-.26-.44l-.21-.26,0-.22a1,1,0,0,0-.13-.51,3.16,3.16,0,0,0-.35-.59l-.16-.2c0-.32,0-.74-.26-1s-.66-.09-1-.1a1.43,1.43,0,0,1-.73-.23.51.51,0,0,0-.74.56A8.81,8.81,0,0,0,108,55.19a.53.53,0,0,0,.49.24v0s.08,0,.12.07a1,1,0,0,0,.59.4c.36.06.73.09,1.09.13a.5.5,0,0,0,.46-.31A.51.51,0,0,0,110.64,55.2Z"/><line class="cls-9" x1="5.11" y1="7.12" x2="19.75" y2="7.12"/><line class="cls-9" x1="5.11" y1="9.48" x2="19.75" y2="9.48"/><line class="cls-9" x1="5.11" y1="11.85" x2="19.75" y2="11.85"/><line class="cls-9" x1="5.11" y1="14.3" x2="19.75" y2="14.3"/><line class="cls-9" x1="5.11" y1="16.67" x2="19.75" y2="16.67"/><line class="cls-9" x1="5.11" y1="19.04" x2="19.75" y2="19.04"/><line class="cls-9" x1="5.11" y1="21.41" x2="19.75" y2="21.41"/><line class="cls-9" x1="5.11" y1="23.86" x2="19.75" y2="23.86"/><line class="cls-9" x1="5.11" y1="26.23" x2="19.75" y2="26.23"/><path class="cls-4" d="M46.07,7.34H42.4a1.64,1.64,0,0,0-1.52,1.25l-3.33,11-3.36-11a1.66,1.66,0,0,0-1.53-1.24H29a1.75,1.75,0,0,0-1.62,1.85V39.32A1.75,1.75,0,0,0,29,41.16h3.77a1.75,1.75,0,0,0,1.62-1.84v-7l.63,2.2a1.63,1.63,0,0,0,1.53,1.27h1.89A1.63,1.63,0,0,0,40,34.52l.67-2.31v7.11a1.74,1.74,0,0,0,1.61,1.84h3.78a1.74,1.74,0,0,0,1.61-1.84V9.19A1.74,1.74,0,0,0,46.07,7.34Z"/><path class="cls-4" d="M64.1,7.34h-4a1.66,1.66,0,0,0-1.55,1.33l-1.53,6-1.52-6A1.67,1.67,0,0,0,54,7.34H50a1.56,1.56,0,0,0-1.31.77,2,2,0,0,0-.22,1.67l5.1,17.1V39.32a1.74,1.74,0,0,0,1.61,1.84h3.78a1.74,1.74,0,0,0,1.61-1.84V26.88l5.1-17.1a2.08,2.08,0,0,0-.21-1.67A1.59,1.59,0,0,0,64.1,7.34Z"/><path class="cls-4" d="M81.44,13.6a8.83,8.83,0,0,0-1.71-3.55,7,7,0,0,0-2.81-2.14,8.77,8.77,0,0,0-3.26-.57H68a1.74,1.74,0,0,0-1.61,1.85V39.32A1.74,1.74,0,0,0,68,41.16h3.78a1.74,1.74,0,0,0,1.61-1.84V29.4h.31a7.17,7.17,0,0,0,6.86-4,9.82,9.82,0,0,0,1.09-3.29,26.43,26.43,0,0,0,.22-3.73A22,22,0,0,0,81.44,13.6ZM75,19.09a6,6,0,0,1-.11.72,2.64,2.64,0,0,1,0,.28.6.6,0,0,1,0,.24,1.56,1.56,0,0,1-.31,1,1.25,1.25,0,0,1-.87.41c-.29,0-.49-.22-.57-.51a.2.2,0,0,1,0-.09.35.35,0,0,1,0-.11,35.43,35.43,0,0,1,0-3.57,4.75,4.75,0,0,1,0-1.41v0l0-.06a.73.73,0,0,1,.43-.87.87.87,0,0,1,.45,0,.64.64,0,0,1,.43.2,1.4,1.4,0,0,1,.32.36,3.17,3.17,0,0,1,.31,1.19,8.93,8.93,0,0,1,0,1.16C75.1,18.36,75.08,18.72,75,19.09Z"/><path class="cls-4" d="M88,7.34H84.17a1.74,1.74,0,0,0-1.61,1.85V39.32a1.74,1.74,0,0,0,1.61,1.84H88a1.74,1.74,0,0,0,1.61-1.84V9.19A1.74,1.74,0,0,0,88,7.34Z"/><path class="cls-4" d="M103.87,15.1a1.75,1.75,0,0,0,1.62-1.85V9.19a1.75,1.75,0,0,0-1.62-1.85H92.61A1.74,1.74,0,0,0,91,9.19V39.32a1.74,1.74,0,0,0,1.61,1.84h11.26a1.75,1.75,0,0,0,1.62-1.84V35a1.75,1.75,0,0,0-1.62-1.84H98V28h4.9a1.74,1.74,0,0,0,1.61-1.84V22.09a1.74,1.74,0,0,0-1.61-1.84H98V15.1Z"/><path class="cls-9" d="M46.07,7.34H42.4a1.64,1.64,0,0,0-1.52,1.25l-3.33,11-3.36-11a1.66,1.66,0,0,0-1.53-1.24H29a1.75,1.75,0,0,0-1.62,1.85V39.32A1.75,1.75,0,0,0,29,41.16h3.77a1.75,1.75,0,0,0,1.62-1.84v-7l.63,2.2a1.63,1.63,0,0,0,1.53,1.27h1.89A1.63,1.63,0,0,0,40,34.52l.67-2.31v7.11a1.74,1.74,0,0,0,1.61,1.84h3.78a1.74,1.74,0,0,0,1.61-1.84V9.19A1.74,1.74,0,0,0,46.07,7.34Z"/><path class="cls-9" d="M64.1,7.34h-4a1.66,1.66,0,0,0-1.55,1.33l-1.53,6-1.52-6A1.67,1.67,0,0,0,54,7.34H50a1.56,1.56,0,0,0-1.31.77,2,2,0,0,0-.22,1.67l5.1,17.1V39.32a1.74,1.74,0,0,0,1.61,1.84h3.78a1.74,1.74,0,0,0,1.61-1.84V26.88l5.1-17.1a2.08,2.08,0,0,0-.21-1.67A1.59,1.59,0,0,0,64.1,7.34Z"/><path class="cls-9" d="M79.73,10.05a7,7,0,0,0-2.81-2.14,8.77,8.77,0,0,0-3.26-.57H68a1.74,1.74,0,0,0-1.61,1.85V39.32A1.74,1.74,0,0,0,68,41.16h3.78a1.74,1.74,0,0,0,1.61-1.84V29.4h.31a7.17,7.17,0,0,0,6.86-4,9.82,9.82,0,0,0,1.09-3.29,26.43,26.43,0,0,0,.22-3.73,22,22,0,0,0-.42-4.77A8.83,8.83,0,0,0,79.73,10.05Z"/><path class="cls-9" d="M88,7.34H84.17a1.74,1.74,0,0,0-1.61,1.85V39.32a1.74,1.74,0,0,0,1.61,1.84H88a1.74,1.74,0,0,0,1.61-1.84V9.19A1.74,1.74,0,0,0,88,7.34Z"/><path class="cls-9" d="M103.87,15.1a1.75,1.75,0,0,0,1.62-1.85V9.19a1.75,1.75,0,0,0-1.62-1.85H92.61A1.74,1.74,0,0,0,91,9.19V39.32a1.74,1.74,0,0,0,1.61,1.84h11.26a1.75,1.75,0,0,0,1.62-1.84V35a1.75,1.75,0,0,0-1.62-1.84H98V28h4.9a1.74,1.74,0,0,0,1.61-1.84V22.09a1.74,1.74,0,0,0-1.61-1.84H98V15.1Z"/><path class="cls-2" d="M46.07,40.28H42.29a.81.81,0,0,1-.75-.85V26.17l-2.35,8.15a.77.77,0,0,1-.71.59H36.59a.77.77,0,0,1-.71-.59l-2.32-8.11V39.43a.8.8,0,0,1-.75.85H29a.8.8,0,0,1-.75-.85V9.3A.81.81,0,0,1,29,8.44h3.62a.76.76,0,0,1,.71.58l4.18,13.74L41.7,9a.76.76,0,0,1,.7-.58h3.67a.82.82,0,0,1,.75.86V39.43A.81.81,0,0,1,46.07,40.28Zm-3-1.71h2.28V10.15H42.94L38.3,25.53a.77.77,0,0,1-.71.58.84.84,0,0,1-.78-.58L32.13,10.15H29.78V38.57h2.28V21.1a.81.81,0,0,1,.75-.85.85.85,0,0,1,.79.59L37.13,33.2h.81l3.57-12.36a.77.77,0,0,1,.71-.59.86.86,0,0,1,.82.85Z"/><path class="cls-2" d="M58.92,40.28H55.14a.81.81,0,0,1-.75-.85V26.83L49.25,9.57a.94.94,0,0,1,.1-.77A.74.74,0,0,1,50,8.44h4a.78.78,0,0,1,.72.62L57,18.34l2.36-9.28a.76.76,0,0,1,.72-.62h4a.73.73,0,0,1,.61.36.94.94,0,0,1,.1.77L59.67,26.83v12.6A.81.81,0,0,1,58.92,40.28Zm-3-1.71h2.28V26.69a.9.9,0,0,1,0-.28l4.85-16.26H60.67L57.79,21.51a.78.78,0,0,1-.72.62.86.86,0,0,1-.8-.62L53.39,10.15H51l4.85,16.26a.9.9,0,0,1,0,.28Z"/><path class="cls-2" d="M71.77,40.28H68a.81.81,0,0,1-.75-.85V9.3A.82.82,0,0,1,68,8.44h5.67a8.12,8.12,0,0,1,3,.52,6,6,0,0,1,2.45,1.87A7.68,7.68,0,0,1,80.6,14a20.94,20.94,0,0,1,.4,4.52,24.15,24.15,0,0,1-.22,3.57,8.58,8.58,0,0,1-1,2.93,6.69,6.69,0,0,1-2.35,2.61,6.93,6.93,0,0,1-3.77.93H72.52V39.43A.81.81,0,0,1,71.77,40.28Zm-3-1.71H71V27.66a.8.8,0,0,1,.75-.85h1.92a5.56,5.56,0,0,0,3-.72,5.08,5.08,0,0,0,1.8-2,6.92,6.92,0,0,0,.78-2.32,24.94,24.94,0,0,0,.19-3.29,18.91,18.91,0,0,0-.35-4.08A5.76,5.76,0,0,0,78,12a4.54,4.54,0,0,0-1.85-1.43,6.94,6.94,0,0,0-2.49-.42H68.74Zm4.84-14.11H71.77A.81.81,0,0,1,71,23.6V13.36a.8.8,0,0,1,.75-.85h2A3.75,3.75,0,0,1,75.8,13,3.11,3.11,0,0,1,77,14.48a5.83,5.83,0,0,1,.4,2c0,.64,0,1.33,0,2s0,1.5-.06,2.14A5.32,5.32,0,0,1,77,22.57,3.08,3.08,0,0,1,75.71,24,4.1,4.1,0,0,1,73.58,24.46Zm-1.06-1.71h1.06A2.72,2.72,0,0,0,75,22.46a1.49,1.49,0,0,0,.61-.68,3.5,3.5,0,0,0,.27-1.24c0-.6,0-1.28,0-2s0-1.35,0-2a3.75,3.75,0,0,0-.27-1.34,1.43,1.43,0,0,0-.57-.72,2.45,2.45,0,0,0-1.34-.27H72.52Z"/><path class="cls-9" d="M73.16,21.86h.62a1.23,1.23,0,0,0,.83-.23,1.19,1.19,0,0,0,.35-.55,3.46,3.46,0,0,0,.15-1c0-.49,0-1,0-1.63s0-1.1,0-1.6A4.28,4.28,0,0,0,75,15.76a1,1,0,0,0-1.11-.8h-.7Z"/><path class="cls-2" d="M88,40.28H84.17a.81.81,0,0,1-.75-.85V9.3a.82.82,0,0,1,.75-.86H88a.82.82,0,0,1,.75.86V39.43A.81.81,0,0,1,88,40.28Zm-3-1.71H87.2V10.15H84.92Z"/><path class="cls-2" d="M103.87,40.28H92.61a.8.8,0,0,1-.74-.85V9.3a.81.81,0,0,1,.74-.86h11.26a.81.81,0,0,1,.75.86v4.06a.81.81,0,0,1-.75.86H97.14v7.13h5.77a.81.81,0,0,1,.75.86v4.06a.81.81,0,0,1-.75.85H97.14v7.14h6.73a.8.8,0,0,1,.75.85v4.32A.8.8,0,0,1,103.87,40.28ZM93.36,38.57h9.76V36H96.39a.81.81,0,0,1-.75-.86V26.27a.81.81,0,0,1,.75-.86h5.77V23.06H96.39a.81.81,0,0,1-.75-.85V13.36a.81.81,0,0,1,.75-.85h6.73V10.15H93.36Z"/><path class="cls-10" d="M38.26,33.83H36.49l-3.61-12.1V39.4H29.05v-30c.13,0,3.67,0,3.67,0l4.83,15.37"/><path class="cls-10" d="M36.83,33.83h1.78l3.6-12.1V39.4H46v-30c-.12,0-3.67,0-3.67,0L37.54,24.75"/><polyline class="cls-10" points="56.97 20.54 53.99 9.37 49.96 9.37 55.13 26.64 55.13 39.4 57.03 39.4"/><polyline class="cls-10" points="56.98 20.54 59.97 9.37 63.99 9.37 58.82 26.64 58.82 39.4 56.92 39.4"/><path class="cls-10" d="M67.89,9.37l7,0s5.42-.22,5.42,9.39c0,9.21-5.57,9-5.57,9H71.81l0,11.69H68.07Z"/><path class="cls-10" d="M71.81,19.24V13.38H74c1.87,0,2.67,1,2.76,4.63v.86c-.09,3.67-.89,4.63-2.76,4.63H71.81V19.17"/><polygon class="cls-10" points="84.24 9.37 87.86 9.37 88.11 39.4 84.24 39.4 84.24 9.37"/><polygon class="cls-10" points="92.54 9.35 103.75 9.35 103.75 13.38 96.53 13.38 96.53 22.25 102.82 22.25 102.82 26.11 96.56 26.11 96.56 35.05 103.75 35.05 103.75 39.4 92.54 39.4 92.54 9.35"/><path class="cls-6" d="M120.41,29.42a3.89,3.89,0,0,1,.3-1.16,2.27,2.27,0,0,1,.58-.83,1.47,1.47,0,0,1,.91-.43.72.72,0,0,1,.38.21,3.61,3.61,0,0,0,.51.36,11.21,11.21,0,0,0,1.11.52s0,0,0,0a2,2,0,0,0,.88,0,.85.85,0,0,1,.83.11,1.74,1.74,0,0,1,.41.71l.46,1.08c.09.22-.18.42-.37.36l0,.11a.2.2,0,0,1,.06.17h0a1.72,1.72,0,0,1,.07.21.29.29,0,0,1-.17.35.28.28,0,0,1-.36-.12l0,0h-.11c-.44,0-.89-.08-1.33-.1a4.51,4.51,0,0,0-1.22.11.44.44,0,0,1-.43-.73l0,0a7,7,0,0,0-1.12,0,3,3,0,0,1-1.22,0C120.26,30.15,120.37,29.75,120.41,29.42Z"/><path class="cls-2" d="M120.62,30.5a.3.3,0,0,1,.43-.18c.2.09.53,0,.73-.06a2.17,2.17,0,0,1,.8.09.29.29,0,0,1,.17.43s.24.27.22.32c.2.22.87-.21,1.15-.15s1.54.1,2,.13a2.46,2.46,0,0,1,.77.4,1,1,0,0,1-.11-.17.75.75,0,0,1,0-.16s0,0,0-.08V31h0a2,2,0,0,1,0-.35.14.14,0,0,1,.18-.14.32.32,0,0,1,.14.08.2.2,0,0,1,0,.08,2.41,2.41,0,0,1,.34.85.15.15,0,0,1,0,.14.14.14,0,0,1-.14,0l-.06,0c.1.09.13.15,0,.14a5.22,5.22,0,0,0-2.88.71l-.06.05a.41.41,0,0,1-.3.3l-.14,0-.14.1a1.9,1.9,0,0,1-1.5.37c-.54-.2-.72-.73-.93-1.21l-.35-.82C120.73,31.09,120.51,30.77,120.62,30.5Z"/><line class="cls-9" x1="120.87" y1="31.8" x2="120.66" y2="31.8"/><path class="cls-9" d="M126.27,28.54l1.22,3.26h-1.37"/><path class="cls-2" d="M124,23.44s0,0,0,0v0Z"/><path class="cls-2" d="M120.82,22s0,0,0,0a1.11,1.11,0,0,0,.07.16l.11.15,0,0a.83.83,0,0,0,.18.13.78.78,0,0,0,.21.09l.08,0h.08a.49.49,0,0,0,0,.27.44.44,0,0,0,.43.32,4.5,4.5,0,0,1,.64,0h.22l.36.05c.19,0,.39,0,.58,0h.13c-.08,0,0,0,0,0a.29.29,0,0,0,0,.09v0l0,.05-.08.12,0,.05-.09.1-.1.1,0,0,0,0h0l-.06,0-.12.07-.13.07h0s0,0,0,0l-.1,0s0,0,0,0h-.14l-.36,0a.51.51,0,0,0-.32.15c-.29,0-.64,0-.62.36,0,.22.24.41.36.59a1.71,1.71,0,0,1,.28.76,3.34,3.34,0,0,0,.06.78c.07.17.29.28.44.38a5.94,5.94,0,0,0,1.38.69,4.52,4.52,0,0,0,.8.22,1.17,1.17,0,0,0,.61.05c.21-.08.29-.31.38-.49a4,4,0,0,0,.32-.66c.14-.48-.22-1-.27-1.5s.14-1.17.75-1.2a.3.3,0,0,0,.21-.5c-.15-.19-.39-.19-.56-.34a1.55,1.55,0,0,1-.37-.58,3.82,3.82,0,0,1-.34-1.76.27.27,0,0,0-.14-.25,5.5,5.5,0,0,0-1-.31l0,0a3.28,3.28,0,0,0-.78-.37.26.26,0,0,0-.21,0,1.86,1.86,0,0,1-.28-.21.29.29,0,0,0-.41,0,.67.67,0,0,0-.13.69.81.81,0,0,1,0,.09v0a1.79,1.79,0,0,1-.12.24l-.19.38-.05-.06c-.06-.06-.12-.1-.18-.15l-.08-.05-.22-.09-.22,0h-.08a.78.78,0,0,0-.21,0,.6.6,0,0,0-.25.13l-.08.06a.71.71,0,0,0-.1.14.54.54,0,0,0-.09.27A.61.61,0,0,0,120.82,22Z"/><path class="cls-11" d="M122.74,21.75l0-.38a2.2,2.2,0,0,1,.06-.37l.29-.12h0a.41.41,0,0,0,.11-.07l0-.05a.08.08,0,0,0,0-.07h.2a.6.6,0,0,1,.45.14.82.82,0,0,1,0,.89,2,2,0,0,1-.24.4,1.25,1.25,0,0,1-.16.17l0,0h0s0,0,0,0l-.1-.09a.87.87,0,0,0-.3-.16c-.11,0-.23,0-.34-.06l-.11,0A.22.22,0,0,0,122.74,21.75Z"/><path class="cls-9" d="M122.46,31.36a5.1,5.1,0,0,1,4.67.36"/><path class="cls-9" d="M121.33,32.74a1.23,1.23,0,0,0,1,.68,1.94,1.94,0,0,0,1.34-.4A4.08,4.08,0,0,1,126,31.8"/><path class="cls-9" d="M123,31.1a2.41,2.41,0,0,1-.18-.71"/><path class="cls-9" d="M121.18,32.44a7,7,0,0,1-.63-2"/><path class="cls-9" d="M121.33,32.74l-.15-.3"/><path class="cls-9" d="M125.81,28s.12.2.46.53"/><path class="cls-12" d="M123.35,19a.55.55,0,0,0,.16-.44l1,.47c.63.29,1.3.5,1.92.81s1.15.72,1.78,1a3.46,3.46,0,0,0,1.47.46v.21l0,.1a.56.56,0,0,0,0,.4c0,.17-.07.34-.11.52a14.57,14.57,0,0,1-.6,1.72,12.31,12.31,0,0,1-.73,1.76c-.13.24-.29.47-.44.7s-.3.33-.44.51c-.3-.05-.76.2-1.06.11a.52.52,0,0,1-.07-.15.35.35,0,0,0-.11-.62c0-.11,0-.21,0-.29a4,4,0,0,1,.15-1.76.3.3,0,0,0,0-.21s0,0,0,0a1.08,1.08,0,0,0,.31,0l.3-.05a.22.22,0,0,0,.15-.12.24.24,0,0,0,0-.12.25.25,0,0,0-.18-.24l-.22-.07a.28.28,0,0,0,0-.12,11.8,11.8,0,0,1-.88-1.44,2.41,2.41,0,0,1-.18-.7l.07-.06s0-.08-.09-.17a.54.54,0,0,0-.15-.3,1.79,1.79,0,0,0-.7-.32,8.58,8.58,0,0,1-.83-.35c-.43-.2-.85-.41-1.28-.6C122.82,19.45,123.08,19.23,123.35,19Z"/><path class="cls-9" d="M122.71,20.27s-.15.27,0,.35"/><path class="cls-9" d="M122.72,20.25a2.58,2.58,0,0,1,.18-.32"/><path class="cls-9" d="M121.59,24.27a1.26,1.26,0,0,0,.09.73c.24.59.72,1,.64,1.95a2,2,0,0,0-1.62,1.2"/><path class="cls-9" d="M121.79,22.67a.41.41,0,0,0-.21.26.27.27,0,0,0,.14.27"/><path class="cls-9" d="M122.65,21.81a2,2,0,0,1,1.13.57"/><path class="cls-13" d="M123,21a.16.16,0,0,0,.12.2.16.16,0,0,0,.19-.12.15.15,0,0,0-.11-.19A.15.15,0,0,0,123,21Z"/><path class="cls-9" d="M126.43,27l-.09.12a2.09,2.09,0,0,0-.53.9"/><path class="cls-9" d="M121.79,22.67a.78.78,0,0,1-.37,0,.81.81,0,0,1-.58-1,.82.82,0,0,1,1-.58,1,1,0,0,1,.53.46l.36-.91"/><path class="cls-9" d="M126.18,24.18a.67.67,0,0,1-.18-.55"/><path class="cls-9" d="M127.22,24a.79.79,0,0,1-.84.32.48.48,0,0,1-.2-.12"/><path class="cls-9" d="M126.55,23.66a.64.64,0,0,1-.1.13"/><path class="cls-9" d="M128.73,19.44a3.93,3.93,0,0,1,.46,4.32"/><path class="cls-9" d="M122.84,21.84a.68.68,0,1,1,.67.28"/><path class="cls-9" d="M121.61,24.25s1.93.43,2.41-.89l-2.3-.16"/><line class="cls-9" x1="121.93" y1="23.32" x2="121.83" y2="23.77"/><path class="cls-9" d="M123.49,24l-1.66-.26"/><path class="cls-9" d="M126.38,24.3s-.92,1.85.26,2.74"/><path class="cls-9" d="M126.21,27.29s1,.76,2.27-1.86c.28-.6.61-1.44.79-1.86"/><path class="cls-9" d="M127.42,24s-1.74-.05-1.85-3.06"/><path class="cls-9" d="M125.68,21l-3-1.22a3.42,3.42,0,0,1,4-1.42"/><path class="cls-14" d="M121.43,18l8.18,4.09s.83-2.82-1.62-4.09a3.86,3.86,0,0,0-4.59.91"/><path class="cls-9" d="M122.32,27s2,1.53,3.49,1.06"/><path class="cls-9" d="M126,29a9.67,9.67,0,0,1,.69,2.46"/><path class="cls-9" d="M120.67,28.23a7.79,7.79,0,0,0-.26,1.19"/><path class="cls-9" d="M122.82,30.31a8.37,8.37,0,0,0-1.15-.07,6.4,6.4,0,0,0-1.29.1"/><path class="cls-9" d="M122.87,30.54c.15,0,.24-.07.24-.11s-.11-.08-.29-.12"/><line class="cls-9" x1="123.09" y1="30" x2="123.05" y2="29.33"/><line class="cls-9" x1="123.11" y1="30.43" x2="123.09" y2="30"/><path class="cls-9" d="M126.45,30.39s.34,0,.5,0"/><path class="cls-7" d="M120.41,31a.2.2,0,0,1,.09-.07.14.14,0,0,1,.11,0,.16.16,0,0,1,.07.09l.08.56a.11.11,0,0,1,0,.11.14.14,0,0,1-.08.07.17.17,0,0,1-.12,0s-.06-.05-.06-.08l-.08-.56A.14.14,0,0,1,120.41,31Z"/><line class="cls-9" x1="120.39" y1="25.44" x2="120.39" y2="31.73"/><rect class="cls-7" x="9.98" y="26.23" width="9.76" height="22.33"/></g></g></svg>