<svg xmlns="http://www.w3.org/2000/svg" viewBox="0 0 31.7 33.5"><defs><style>.cls-1,.cls-8{fill:#f3a2a7;}.cls-2{fill:#bfe1f1;}.cls-3{fill:#0071b9;}.cls-4{fill:#fce79c;}.cls-5{fill:none;}.cls-11,.cls-12,.cls-5,.cls-8{stroke:#22234a;stroke-linecap:round;stroke-linejoin:round;stroke-width:0.4px;}.cls-11,.cls-6{fill:#fff;}.cls-7{fill:#22234a;}.cls-12,.cls-9{fill:#ee7349;}.cls-10{fill:#f9b91a;}</style></defs><g id="Layer_2" data-name="Layer 2"><g id="Layer_1-2" data-name="Layer 1"><path class="cls-1" d="M6.72,12.67s0,0,0-.06h.06a.35.35,0,0,1,.15.07H7a.26.26,0,0,1,.12.05l.11.11h0a.2.2,0,0,1,.13.06l0,.06a1.94,1.94,0,0,1,.23-.27l.28-.33L8.26,12a.8.8,0,0,1-.08-.16s0-.08,0-.12H8a1.22,1.22,0,0,1-.33,0,1.8,1.8,0,0,1-.65-.14.27.27,0,0,1,0-.46A4.83,4.83,0,0,1,7.72,11a1.8,1.8,0,0,0,.24-.1.28.28,0,0,1,.13-.21l.2-.11a.25.25,0,0,1,.31,0,.77.77,0,0,1,.31.19,3.85,3.85,0,0,1,.59.55c.38.41.71.86,1.08,1.27l0,.08a.26.26,0,0,1,.11.48c-.2.11-.47.34-.71.27a.5.5,0,0,1-.27-.21l-.35.31a1.92,1.92,0,0,1-.64.42.59.59,0,0,1-.66-.23.63.63,0,0,1-.1-.27.43.43,0,0,1-.66-.29.19.19,0,0,1-.1.05H7.15l-.06,0a.18.18,0,0,1-.07,0A1.29,1.29,0,0,1,6.85,13a.05.05,0,0,1,0-.05.11.11,0,0,1,0-.07s0,0,0-.07h0a.07.07,0,0,1,0,0A.06.06,0,0,1,6.72,12.67Z"/><path class="cls-1" d="M17.73,20.56l0,0,0,0h0a.05.05,0,0,1,0,0h0a.17.17,0,0,1,.21.12.14.14,0,0,1,0,.06,3.62,3.62,0,0,1,.27.41h0a.18.18,0,0,1,.09.15l0,0h0a.09.09,0,0,1,0,.12,1.5,1.5,0,0,1-.44.43c-.09.05-.16,0-.19-.1a1.87,1.87,0,0,1-.08-.32,4,4,0,0,1-.09-.68v-.05h0a.06.06,0,0,1,0,0v-.09S17.73,20.57,17.73,20.56Z"/><path class="cls-2" d="M9.81,14.27a.28.28,0,0,1,.12-.21l-.09-.37a.17.17,0,0,1,.2-.21l.07,0,.09,0,.26-.11a3.62,3.62,0,0,1,.43-.24h0V13a.15.15,0,0,1,0-.12h0l0,0,0,0v-.06a.07.07,0,0,1,0,0H11l.07.06.05.06a.18.18,0,0,1,.1.16c0,.14,0,.28,0,.42.43.19.59.78.68,1.19.05.23.1.47.16.7s.07.25.11.38v0c.29-.36.59-.7.9-1s.81-1.1,1.29-1.32c0,0,.51-.66.58-.77l0,0a3,3,0,0,1,.19.3c.06.1,0,.21.09.32a1.3,1.3,0,0,1,.06.59c0,.16.07.33.05.49l0,0h0a.36.36,0,0,0-.11.36.24.24,0,0,0,.06.11.9.9,0,0,0,0,.4c0,.18.32.17.35,0a1.4,1.4,0,0,1,.09-.29c.14-.06.21-.2.3-.32v0c-.09.13,0,0,0,0l.07-.11.08-.1,0,0,0,0,0,0,.18-.22.11-.14.06-.08v0l0,0,.12-.15,0-.06.54-.13.37-.09.15,0,.12,0h0a1.41,1.41,0,0,0,.64-.12l.07,0a2.65,2.65,0,0,0,.12.73,2.61,2.61,0,0,0,.22.63.52.52,0,0,0,.26.23c.15.18.29.37.43.56a6.46,6.46,0,0,1,.44.71,14,14,0,0,1,.68,1.65.15.15,0,0,1,0,.09h0a1.86,1.86,0,0,1,.25.6,1.45,1.45,0,0,1,.07.71,1.9,1.9,0,0,1-.34.54c-.14.18-.27.36-.4.55a.35.35,0,0,1-.31.17c-.1.12-.21.23-.32.35a.24.24,0,0,1-.06.11l-.3.26a.28.28,0,0,1-.3,0l-.1.09h0a.78.78,0,0,1-.15.22.18.18,0,0,1-.12.05h0a.23.23,0,0,1-.11.11.09.09,0,0,1-.12,0,.1.1,0,0,1,0-.12l.08-.07a.11.11,0,0,1,0-.08.11.11,0,0,1,0-.05s0,0,0,0h0s0,0,0,0a.15.15,0,0,1,0-.09v0l0,0a1,1,0,0,1-.17-.24.64.64,0,0,0-.08-.14h0l-.05,0a1.85,1.85,0,0,1-.29-.13.4.4,0,0,1-.16-.2v0h0a1.58,1.58,0,0,1-.42.09l-.82.09h-.07l-.13.07a8.21,8.21,0,0,1-2.46.44,1.8,1.8,0,0,1-1.23-.19,1,1,0,0,1-.18-.6,1.28,1.28,0,0,1,.15-.61h0a.71.71,0,0,1,0-.14c.1-.46.24-.92.36-1.38.06-.23.12-.46.16-.69a3.25,3.25,0,0,0,.08-.45l-.09,0a3,3,0,0,1-.43.09h0a3.48,3.48,0,0,1-.63.26,1.84,1.84,0,0,1-.47.07.81.81,0,0,1-.49-.05,1.19,1.19,0,0,1-.28-.42l-.12-.23a.18.18,0,0,1-.05-.07l-.1-.21a.33.33,0,0,1,0-.19q-.27-.66-.51-1.32A1.46,1.46,0,0,1,9.81,14.27Z"/><path class="cls-3" d="M9.82,31.21a8.12,8.12,0,0,1,1.48.32,5.11,5.11,0,0,1,.63.29c.25.1.51.18.76.26h.05a.2.2,0,0,0,.18.07.33.33,0,0,0,.33-.28c0-.16.05-.32.08-.48l.16-.95c.11-.66.21-1.32.32-2a.13.13,0,0,0,0-.06.36.36,0,0,0,.13-.19c.08-.53.18-1.07.28-1.6s.24-1.05.3-1.59a.27.27,0,0,0,0-.13.43.43,0,0,0,.1-.24c0-.12,0-.24.05-.36a.24.24,0,0,1,0-.08.43.43,0,0,0,0-.16c.07-.44.15-.87.26-1.29l.51,0a1,1,0,0,0,.35,0c0,.25,0,.5,0,.74s-.09.67-.14,1a15,15,0,0,0-.08,2.12.41.41,0,0,0,0,.16,2.62,2.62,0,0,0,0,.28.43.43,0,0,0,0,.11c0,.85-.18,1.69-.13,2.54a.2.2,0,0,0,0,.07c0,.35-.06.71-.08,1.07l-.06,0a2.64,2.64,0,0,1,0,.29.7.7,0,0,1-.06.32.41.41,0,0,0,.15.17.2.2,0,0,0,.13,0,.33.33,0,0,0,.14,0h0l.09,0h0l0,0a.37.37,0,0,0,.18,0,7.33,7.33,0,0,1,1.15,0c.41,0,.82,0,1.23,0a.36.36,0,0,0,.32-.22.34.34,0,0,0-.07-.38l0,0h0a.39.39,0,0,0,.08-.25c0-.85-.07-1.7-.11-2.54a.36.36,0,0,0,.06-.2,29.17,29.17,0,0,0,0-3.1.41.41,0,0,0,0-.11c0-.1,0-.2,0-.3a1.43,1.43,0,0,0,0-.51c0-.17,0-.34,0-.51,0-.34,0-.69,0-1a.22.22,0,0,0,0-.08s0,0,0-.06a.58.58,0,0,0,0-.19.13.13,0,0,1,0-.06,1.23,1.23,0,0,0,0-.19.14.14,0,0,0,0-.09.19.19,0,0,0-.1-.12.11.11,0,0,0-.11,0,.18.18,0,0,0-.1,0,.52.52,0,0,1-.11.1l-.13.09A.17.17,0,0,0,18,22c-.07-.19-.18-.37-.23-.56a2.44,2.44,0,0,1-.09-.89.18.18,0,0,0-.18-.17,13,13,0,0,0-2.29.5,5.05,5.05,0,0,1-1.21.22A5.52,5.52,0,0,1,12.79,21a.2.2,0,0,0-.22.21l0,.07a12.93,12.93,0,0,0-.47,1.83l-.07.07a1.62,1.62,0,0,0-.19.6,3.24,3.24,0,0,1-.21.69c-.16.44-.31.87-.43,1.33-.26,1-.53,1.9-.87,2.83a.34.34,0,0,0,0,.22l-.3,1c-.05.18-.09.35-.14.52a1,1,0,0,1-.14.43A.26.26,0,0,0,9.82,31.21Z"/><path class="cls-4" d="M15.89,32.33a.65.65,0,0,1,.16-.48c.28-.25.59,0,.9,0s.77-.15,1.16-.18a2.77,2.77,0,0,1,1.1.18,3.66,3.66,0,0,1,1.06.44c.27.22.53.55.38.9a.26.26,0,0,1-.4.06.29.29,0,0,1-.14,0c-.8,0-1.6,0-2.41,0H16.52c-.32,0-.66,0-.67-.41C15.85,32.7,15.88,32.51,15.89,32.33Z"/><path class="cls-4" d="M7.15,31.61a2.39,2.39,0,0,1,2.18-.53,8.21,8.21,0,0,1,1.22.23c.25.07.48.17.72.26a.77.77,0,0,1,.45.11l0,.05a.28.28,0,0,1,.12.36l-.07.53a1.4,1.4,0,0,1-.11.49.25.25,0,0,1-.34.09h0c-.68-.26-1.4-.29-2.09-.49-.36-.11-.7-.26-1.06-.36a4.88,4.88,0,0,1-1-.32A.27.27,0,0,1,7.15,31.61Z"/><path class="cls-1" d="M13,9a4.54,4.54,0,0,0,.56,1.15,2.55,2.55,0,0,1,.49,1.07.53.53,0,0,0,.65.37h0a.5.5,0,0,0,.25-.15v0l.06.09v0a.47.47,0,0,1,0,.16v.12a4.63,4.63,0,0,1,0,.83.43.43,0,0,0,0,.11.12.12,0,0,0,0,.1c.07.14.23.23.27.38a1.63,1.63,0,0,1,0,.31v.31a8.42,8.42,0,0,1-.1,1.33.18.18,0,0,0,.34.09,3.69,3.69,0,0,1,.51-.85,8.7,8.7,0,0,0,.6-.76s0,0,0,0l.83-.19.46-.1a1.34,1.34,0,0,0,.49-.15c.12-.09.16-.29.21-.41a2.53,2.53,0,0,1,.18-.37,3.88,3.88,0,0,1,.32-.47.5.5,0,0,0,.85,0,9.8,9.8,0,0,1,1-1.43.63.63,0,0,0,.29-.33l.06-.14a1.75,1.75,0,0,0,.35-.79.62.62,0,0,0-.67-.74.58.58,0,0,0-.26.09,7.68,7.68,0,0,0-.13-2.4c-.24-.81-1-1.23-1.62-1.7a.4.4,0,0,0-.29-.1c-1-.74-2.93-.21-3.71.63A4.43,4.43,0,0,0,14,7.91l0,0a.75.75,0,0,0-.57-.07.54.54,0,0,0-.45.58A1.33,1.33,0,0,0,13,9Z"/><path class="cls-5" d="M16.67,31.92a3.08,3.08,0,0,1,2-.18c1.34.21,2,.63,2.08,1.21,0,0,.05.33-.27.34"/><path class="cls-5" d="M16,31.77l-.11,1.09s-.06.43.3.43h4.31"/><line class="cls-5" x1="15.87" y1="32.97" x2="20.66" y2="32.97"/><line class="cls-5" x1="15.3" y1="31.77" x2="15.73" y2="22.87"/><line class="cls-5" x1="18.13" y1="31.68" x2="15.3" y2="31.77"/><line class="cls-5" x1="18.65" y1="31.74" x2="18.68" y2="21.76"/><path class="cls-5" d="M11.26,31.83a3,3,0,0,0-1.84-.72c-1.35-.16-2.09.06-2.33.59,0,0-.15.31.16.4"/><path class="cls-5" d="M12,31.94l-.18,1s-.06.43-.41.33L7.25,32.1"/><line class="cls-5" x1="11.75" y1="33.06" x2="7.15" y2="31.75"/><polyline class="cls-5" points="10.26 31.28 13.17 32.2 14.97 22.78"/><path class="cls-5" d="M18.24,22.25a2.09,2.09,0,0,1-.53-1.79"/><line class="cls-5" x1="12.65" y1="20.95" x2="9.57" y2="31.1"/><line class="cls-5" x1="19.05" y1="18.85" x2="18.98" y2="15.67"/><path class="cls-5" d="M12.69,21c1.35.45,3.92-.63,5.2-.59"/><line class="cls-5" x1="13.76" y1="14.84" x2="12.49" y2="19.9"/><path class="cls-5" d="M14,22.57a8.78,8.78,0,0,0,2.8.31"/><path class="cls-5" d="M18.61,21.48l-.61.46"/><path class="cls-5" d="M18.89,14.51c1.14.82,2.25,4,2.25,4a1.1,1.1,0,0,1,0,.82"/><path class="cls-5" d="M19.18,18.75a1.41,1.41,0,0,1,.55.08"/><line class="cls-5" x1="17.8" y1="20.47" x2="18.18" y2="20.05"/><line class="cls-5" x1="19.18" y1="18.75" x2="19.04" y2="18.27"/><path class="cls-5" d="M18.46,21.62c.12.11.21.17.25.14s-.06-.39-.31-.74-.52-.61-.6-.55"/><path class="cls-5" d="M19.22,21.21c.07-.06-.1-.38-.39-.71s-.58-.54-.65-.48"/><path class="cls-5" d="M18.71,21.76l.51-.55s.19.17.7-.37,1.24-1.44,1.24-1.44"/><path class="cls-5" d="M18.18,20a.47.47,0,0,1,.08-.41c.14-.17.9-.84.9-.84"/><line class="cls-5" x1="9.76" y1="13.46" x2="9.9" y2="14"/><path class="cls-5" d="M10.87,12.73c.15,0,.27-.05.29,0s-.24.32-.62.52-.74.3-.78.22,0-.05,0-.09"/><path class="cls-5" d="M11.36,13.45c0,.09-.27.29-.67.45s-.77.21-.8.13"/><path class="cls-5" d="M11.16,12.72l.2.73s.24-.06.46.64.43,1.85.43,1.85"/><path class="cls-5" d="M9.89,14a.48.48,0,0,0-.12.4c.05.22,1,2.58,1,2.58s.18.76,1.33.36c.45-.16.82-.3,1.1-.42"/><path class="cls-5" d="M12.65,21s-.42-.19-.16-1.05"/><path class="cls-5" d="M8.83,13.37a2.58,2.58,0,0,0,.45-.61c.12-.25.12-.44,0-.56s-.37.08-.49.19L8.17,13s-.41.35-.12.69.6.35,1,.05A9,9,0,0,0,9.9,13"/><path class="cls-5" d="M9,13.23a.17.17,0,0,1,.07.18"/><path class="cls-5" d="M8.66,12.52s.25-.41.07-.66c0,0-.14-.21-.42.06s-.77.84-.77.84-.36.42-.12.61a.86.86,0,0,0,.53.09"/><path class="cls-5" d="M11,13l-2.34-2.4a.4.4,0,0,0-.54.09,1.31,1.31,0,0,1-.86.42c-.25,0-.33,0-.34.2s.33.49,1.16.4.85-.42.85-.42"/><path class="cls-5" d="M7.34,13.23a.48.48,0,0,1-.59-.41,3.48,3.48,0,0,0-.1-.35"/><line class="cls-5" x1="9" y1="12.21" x2="8.82" y2="12.2"/><line class="cls-5" x1="9.72" y1="13.16" x2="9.88" y2="13.46"/><line class="cls-5" x1="7.78" y1="11.71" x2="8.09" y2="12.15"/><path class="cls-5" d="M7.77,10.85l-.5-1.12a1.83,1.83,0,0,1-.58.44"/><line class="cls-5" x1="8.27" y1="11.96" x2="8.15" y2="11.69"/><path class="cls-5" d="M14.5,13.37s-.63.25-2.3,2.3"/><polyline class="cls-5" points="15 12.59 15.36 13.38 15.36 15.59"/><polyline class="cls-5" points="15.36 13.38 14.61 14.25 14.51 13.34 15.06 12.5"/><path class="cls-5" d="M18.64,13.24l-1.94.47-1.34,1.88c-.06.07-1.3,5.36-1.3,5.36"/><polyline class="cls-5" points="16.7 13.71 16.94 14.84 18.96 14.49 18.63 13.09"/><path class="cls-6" d="M17.38,8.42l.24,0h0l.34,0c.22,0,.42.07.64.06a.25.25,0,0,1,.22.26.43.43,0,0,1-.06.2.21.21,0,0,1-.2.11.23.23,0,0,1-.18,0l-.12,0h-.11L17.9,9l-.31,0a.57.57,0,0,1-.31,0,.25.25,0,0,1,.1-.48Z"/><path class="cls-6" d="M14.74,8a.93.93,0,0,1,.18-.26.63.63,0,0,1,.47-.2h0l.12,0a.7.7,0,0,1,.69.26,1,1,0,0,1,.2.71,1.11,1.11,0,0,1-.13.4.47.47,0,0,1-.14.14.74.74,0,0,1-.69.28A.61.61,0,0,1,15,9.17a1.55,1.55,0,0,1-.24-.33A.94.94,0,0,1,14.74,8Z"/><path class="cls-5" d="M14.2,6.63A6.56,6.56,0,0,0,14,7.87"/><path class="cls-5" d="M17.9,4.07a4.3,4.3,0,0,0-.72,0,3.31,3.31,0,0,0-3,2.57"/><path class="cls-5" d="M20.89,8.54a5.4,5.4,0,0,0,.05-1.41,3.21,3.21,0,0,0-2.33-2.91,5,5,0,0,0-.71-.15"/><path class="cls-5" d="M18.58,13.24a3.9,3.9,0,0,1,.76-1.41"/><path class="cls-5" d="M19.34,11.78a1.09,1.09,0,0,0,.08.25.24.24,0,0,0,.1.1c.29.19.59-.12.75-.51a2.38,2.38,0,0,1,.82-1c.41-.32,1.13-1.53.47-2-.47-.32-.85,0-1.09.36"/><path class="cls-5" d="M19.35,11.49a1,1,0,0,0,0,.29"/><path class="cls-5" d="M21,9.34a3.07,3.07,0,0,1-.49.75,1.17,1.17,0,0,0-.24.38"/><path class="cls-5" d="M20.72,9.86A.35.35,0,0,0,21,10"/><path class="cls-5" d="M20.88,10a.45.45,0,0,0,0,.23"/><path class="cls-5" d="M14,7.87a.6.6,0,0,0-.67-.09c-.74.31-.26,1.64.07,2A2.28,2.28,0,0,1,14,11c.09.41.32.78.64.65a.25.25,0,0,0,.12-.08.57.57,0,0,0,.13-.28"/><path class="cls-5" d="M15.06,12.67l.06-.51a4,4,0,0,0-.53-1.61A7.13,7.13,0,0,1,14,7.87"/><path class="cls-5" d="M13.71,8.59a2.86,2.86,0,0,0,.33.83,1.19,1.19,0,0,1,.16.43"/><path class="cls-5" d="M13.9,9.16a.33.33,0,0,1-.33,0"/><path class="cls-5" d="M13.72,9.22a.44.44,0,0,1-.05.23"/><path class="cls-5" d="M16,10.46a2.47,2.47,0,0,0,1.91,0"/><path class="cls-5" d="M17.35,8a.89.89,0,0,0-.3.6.92.92,0,0,0,.8,1,1.1,1.1,0,0,0,.41-.05"/><path class="cls-5" d="M18.64,9.25a.89.89,0,0,0,.2-.5.9.9,0,0,0-.19-.68"/><ellipse class="cls-5" cx="15.56" cy="8.41" rx="0.93" ry="0.9" transform="translate(6.14 23.39) rotate(-86.25)"/><line class="cls-5" x1="17.12" y1="8.34" x2="18.83" y2="8.51"/><line class="cls-5" x1="18.73" y1="9.11" x2="17.08" y2="8.94"/><path class="cls-7" d="M14.67,8.32a.23.23,0,0,1,.08-.11v0A.45.45,0,0,1,15,8.13l.1,0a.13.13,0,0,1,.07.06l0,.06a.2.2,0,0,1,0,.13v.07a.31.31,0,0,1-.08.11l0,0a.19.19,0,0,1-.09,0,.11.11,0,0,1-.1,0l-.09,0a.16.16,0,0,1-.08-.06l0-.06a.31.31,0,0,1,0-.13Z"/><path class="cls-7" d="M17.07,8.51a.27.27,0,0,1,.07-.08.12.12,0,0,1,.08,0,.18.18,0,0,1,.1,0l.07,0a.28.28,0,0,1,.11.08l0,.06a.19.19,0,0,1,0,.13v0a.19.19,0,0,1,0,.1.21.21,0,0,1-.06.08l-.09,0a.11.11,0,0,1-.1,0H17.2a.25.25,0,0,1-.1-.08l0-.06a.3.3,0,0,1,0-.13v0A.17.17,0,0,1,17.07,8.51Z"/><path class="cls-8" d="M17.27,9.63a.36.36,0,0,0,0-.11.64.64,0,1,0-.7.6.83.83,0,0,0,.27,0"/><line class="cls-5" x1="17.38" y1="6.43" x2="19.02" y2="6.43"/><path class="cls-5" d="M15.23,6.83s1.19,0,1.19,0"/><path class="cls-7" d="M20.38,8.34l0,0h.1l0,0v0a0,0,0,0,1,0,0v0a.05.05,0,0,1,0,0h-.1l0,0,0,0s0,0,0,0Z"/><path class="cls-7" d="M20.47,7.85c.1,0,.09.17,0,.16S20.37,7.84,20.47,7.85Z"/><path class="cls-7" d="M20.21,7.48a.09.09,0,0,1,0,.17C20.1,7.64,20.11,7.47,20.21,7.48Z"/><path class="cls-7" d="M20.22,8c.1,0,.09.18,0,.17A.09.09,0,0,1,20.22,8Z"/><path class="cls-7" d="M14.34,7.67v0l0,0h.06s0,0,0,0l0,0h0a.09.09,0,0,1,0,.05h0v0l0,0h-.08l0,0h0A.06.06,0,0,1,14.34,7.67Z"/><path class="cls-7" d="M14.39,7.21c.1,0,.09.18,0,.17A.09.09,0,0,1,14.39,7.21Z"/><path class="cls-7" d="M14.76,7a.08.08,0,1,1,0,.16C14.65,7.15,14.66,7,14.76,7Z"/><path class="cls-7" d="M14.68,7.4c.1,0,.09.17,0,.16S14.58,7.39,14.68,7.4Z"/><path class="cls-9" d="M8.3,17.18l.09-.44a4.62,4.62,0,0,0,.09-.65c0-.28,0-.56,0-.84-1.17.42-2.29,1-3.45,1.39a.63.63,0,0,0-.28.23.87.87,0,0,0-.64-.26,1.17,1.17,0,0,0-.73.33,1.4,1.4,0,0,0-.29,0l-.33,0h0a.45.45,0,0,0-.85.31.87.87,0,0,0,.57.55h0a9.23,9.23,0,0,0-.89.6,5.19,5.19,0,0,0-.77.71c-.24.28-.58.69-.41,1.08a.43.43,0,0,0,.12.17.59.59,0,0,0-.1.55.46.46,0,0,0,.77.15,3.32,3.32,0,0,0,.37-.47.67.67,0,0,0,.06-.12.36.36,0,0,0,0-.09,1.68,1.68,0,0,0,.59,0,5.26,5.26,0,0,0,1-.29A5.84,5.84,0,0,0,5,19a1.28,1.28,0,0,0,.44-.9.61.61,0,0,0,0-.14h.09a.71.71,0,0,0,.28-.09.26.26,0,0,0,.23,0,18.67,18.67,0,0,1,2.17-.66Z"/><line class="cls-5" x1="5.5" y1="17.99" x2="8.18" y2="17.28"/><line class="cls-5" x1="4.79" y1="16.83" x2="8.37" y2="15.3"/><path class="cls-5" d="M4.71,16.88a.82.82,0,0,0-.38-.31,1.36,1.36,0,0,0-1,.3.57.57,0,0,1-.82-.11.5.5,0,0,0-.15-.14c-.24-.14-.41.15-.41.15a.65.65,0,0,0,.22.93,1.34,1.34,0,0,0,.25.12"/><path class="cls-5" d="M.6,20.38a.37.37,0,0,1-.26-.07c-.09-.1-.37-.26.25-1a8.94,8.94,0,0,1,2.23-1.65"/><path class="cls-5" d="M1.34,19.62a12.82,12.82,0,0,1,1.45-1.16"/><path class="cls-5" d="M1.87,20.44l-.1.11c-.89.95-1.13.81-1.33.54s.43-1,.43-1,.14-.16.3-.32"/><path class="cls-5" d="M2.69,18.15a2.49,2.49,0,0,0,.61,1"/><path class="cls-5" d="M1.15,19.81a.36.36,0,0,0,0,.11c0,.38.31.49.86.49A5.5,5.5,0,0,0,4.9,19.18c1.09-.88.37-1.47.37-1.47"/><path class="cls-5" d="M3.48,19.08a4.64,4.64,0,0,1-1.75.46s-.48,0-.58.27"/><path class="cls-5" d="M3.31,18.12a2.22,2.22,0,0,0,1.12-.23"/><path class="cls-9" d="M30.59,23.58a5.23,5.23,0,0,1-.52-.35l-.52-.4-.29-.27c.21.09.43.16.65.24a2.52,2.52,0,0,0,1.37.25.46.46,0,0,0,.29-.57.48.48,0,0,0-.58-.29c.1,0,0,0,0,0l-.07,0-.23-.07L30,21.89l-.1,0-.13-.05-.3-.12a4,4,0,0,1-.41-.21.6.6,0,0,0,.06-.11h.08a.69.69,0,0,0,.25-.1.71.71,0,0,0,.15-.15l.07-.11h0l.05-.06,0-.06,0-.11a.26.26,0,0,0,0-.15.46.46,0,0,0-.49-.44l-.13,0-.1.05h0l-.09.08a.28.28,0,0,0-.08.11v0h0l0,0-.13.05h-.18a.52.52,0,0,0-.28.09,1.17,1.17,0,0,0-.24-.3.86.86,0,0,0-1.19,0l0,.05a1.06,1.06,0,0,0-.17-.2c-.13-.11-.27-.17-.39-.28a6.87,6.87,0,0,1-.68-.75,6.73,6.73,0,0,0-.76-.75c-.15-.13-.32-.24-.46-.38s-.21-.28-.32-.41l-.13.21c-.11.19-.2.38-.29.57l-.06.16h0l-.09.33a2.5,2.5,0,0,0,0,.29,1,1,0,0,0,0,.17v0l.63.56a14.13,14.13,0,0,0,1.79,1.37.76.76,0,0,0,.18.09.89.89,0,0,0,.11.65,1.54,1.54,0,0,0,.45.53,5.43,5.43,0,0,1,.53.42l.1.11a.44.44,0,0,0,.15.32l.77.75.38.37a1.16,1.16,0,0,0,.53.38.46.46,0,0,0,.53-.36A.47.47,0,0,0,29.3,24h0l-.1-.1L29,23.78l-.36-.35-.17-.16a.5.5,0,0,0,.05-.13,10,10,0,0,0,1.64,1.25.46.46,0,0,0,.61-.2A.47.47,0,0,0,30.59,23.58Z"/><path class="cls-5" d="M29,21.43a.73.73,0,0,0,.58-.13.7.7,0,0,0,.09-1.05s-.22-.33-.47-.17c0,0-.05,0-.15.16a.59.59,0,0,1-.89.13c-.51-.33-.83-.3-1-.24a.9.9,0,0,0-.42.35"/><path class="cls-5" d="M28.86,21.34a9.32,9.32,0,0,0,2,.76s.7.14.66.63-.58.4-.79.34a15.16,15.16,0,0,1-1.52-.58"/><path class="cls-5" d="M28.13,22.74S29.22,23.9,29.29,24s.44.6.11.9-.9-.32-1.13-.52-1.68-1.7-2.15-2.17a.75.75,0,0,1-.12-.91"/><path class="cls-5" d="M28.61,21.7a2.67,2.67,0,0,1-.91,1.1"/><path class="cls-5" d="M28,22.6,29.61,24c.2.18.8.64,1.12.25,0,0,.27-.31-.28-.81S28.51,22,28.51,22"/><path class="cls-5" d="M27.44,22.34a1.45,1.45,0,0,0-.27-1.1"/><line class="cls-5" x1="25.83" y1="21.43" x2="23.4" y2="19.34"/><line class="cls-5" x1="26.88" y1="20.34" x2="24.14" y2="17.58"/><ellipse class="cls-10" cx="16.7" cy="11.8" rx="10.18" ry="9.22" transform="translate(2.39 26.41) rotate(-80.84)"/><path class="cls-10" d="M27.27,11.92a1.2,1.2,0,0,0-.57-.71,1.19,1.19,0,0,0-.18-2,1.2,1.2,0,0,0,.17-1.64,1.22,1.22,0,0,0-.79-.44,1.19,1.19,0,0,0-.11-1.29A1.17,1.17,0,0,0,25,5.45,1.18,1.18,0,0,0,23.68,3.8a1.19,1.19,0,0,0-.55-1.17,1.15,1.15,0,0,0-.88-.14,1.18,1.18,0,0,0-1-1.32,1.15,1.15,0,0,0-.87.21A1.18,1.18,0,0,0,18.47.8a1.13,1.13,0,0,0-.83-.58,1.17,1.17,0,0,0-1.18.53A1.16,1.16,0,0,0,15.7.27a1.18,1.18,0,0,0-1.34,1,1.17,1.17,0,0,0-.88-.15,1.2,1.2,0,0,0-.9.94,1.17,1.17,0,0,0-.88-.15,1.19,1.19,0,0,0-.91,1.3,1.11,1.11,0,0,0-.86.17,1.19,1.19,0,0,0-.51,1.19,1.14,1.14,0,0,0-.89.18,1.18,1.18,0,0,0-.35,1.6,1.24,1.24,0,0,0-.76.49,1.22,1.22,0,0,0,0,1.31,1.16,1.16,0,0,0-.76.49,1.19,1.19,0,0,0,.11,1.49,1.2,1.2,0,0,0-.57,1.39,1.17,1.17,0,0,0,.56.7,1.2,1.2,0,0,0,.18,1.95,1.19,1.19,0,0,0-.16,1.64,1.12,1.12,0,0,0,.78.44,1.21,1.21,0,0,0,.11,1.3,1.18,1.18,0,0,0,.77.43,1.2,1.2,0,0,0,.45,1.52,1.22,1.22,0,0,0,.89.13,1.17,1.17,0,0,0,.56,1.17,1.13,1.13,0,0,0,.87.14A1.18,1.18,0,0,0,13,22a1.16,1.16,0,0,0,1.92.58,1.16,1.16,0,0,0,2,.05,1.13,1.13,0,0,0,.76.48,1.18,1.18,0,0,0,1.34-.95,1.17,1.17,0,0,0,.88.15,1.2,1.2,0,0,0,.9-.94,1.14,1.14,0,0,0,.89.15,1.18,1.18,0,0,0,.9-1.29,1.16,1.16,0,0,0,.86-.18A1.19,1.19,0,0,0,24,18.86a1.16,1.16,0,0,0,.88-.17,1.19,1.19,0,0,0,.36-1.61A1.18,1.18,0,0,0,26,15.29a1.2,1.2,0,0,0,.65-2A1.2,1.2,0,0,0,27.27,11.92Z"/><ellipse class="cls-5" cx="16.7" cy="11.8" rx="10.18" ry="9.22" transform="translate(2.39 26.41) rotate(-80.84)"/><ellipse class="cls-9" cx="16.95" cy="10.21" rx="3.69" ry="3.34" transform="translate(4.17 25.33) rotate(-80.84)"/><ellipse class="cls-5" cx="16.95" cy="10.21" rx="3.69" ry="3.34" transform="translate(4.17 25.33) rotate(-80.84)"/><path class="cls-5" d="M27.27,11.92a1.2,1.2,0,0,0-.57-.71,1.19,1.19,0,0,0-.18-2,1.2,1.2,0,0,0,.17-1.64,1.22,1.22,0,0,0-.79-.44,1.19,1.19,0,0,0-.11-1.29A1.17,1.17,0,0,0,25,5.45,1.18,1.18,0,0,0,23.68,3.8a1.19,1.19,0,0,0-.55-1.17,1.15,1.15,0,0,0-.88-.14,1.18,1.18,0,0,0-1-1.32,1.15,1.15,0,0,0-.87.21A1.18,1.18,0,0,0,18.47.8a1.13,1.13,0,0,0-.83-.58,1.17,1.17,0,0,0-1.18.53A1.16,1.16,0,0,0,15.7.27a1.18,1.18,0,0,0-1.34,1,1.17,1.17,0,0,0-.88-.15,1.2,1.2,0,0,0-.9.94,1.17,1.17,0,0,0-.88-.15,1.19,1.19,0,0,0-.91,1.3,1.11,1.11,0,0,0-.86.17,1.19,1.19,0,0,0-.51,1.19,1.14,1.14,0,0,0-.89.18,1.18,1.18,0,0,0-.35,1.6,1.24,1.24,0,0,0-.76.49,1.22,1.22,0,0,0,0,1.31,1.16,1.16,0,0,0-.76.49,1.19,1.19,0,0,0,.11,1.49,1.2,1.2,0,0,0-.57,1.39,1.17,1.17,0,0,0,.56.7,1.2,1.2,0,0,0,.18,1.95,1.19,1.19,0,0,0-.16,1.64,1.12,1.12,0,0,0,.78.44,1.21,1.21,0,0,0,.11,1.3,1.18,1.18,0,0,0,.77.43,1.2,1.2,0,0,0,.45,1.52,1.22,1.22,0,0,0,.89.13,1.17,1.17,0,0,0,.56,1.17,1.13,1.13,0,0,0,.87.14A1.18,1.18,0,0,0,13,22a1.16,1.16,0,0,0,1.92.58,1.16,1.16,0,0,0,2,.05,1.13,1.13,0,0,0,.76.48,1.18,1.18,0,0,0,1.34-.95,1.17,1.17,0,0,0,.88.15,1.2,1.2,0,0,0,.9-.94,1.14,1.14,0,0,0,.89.15,1.18,1.18,0,0,0,.9-1.29,1.16,1.16,0,0,0,.86-.18A1.19,1.19,0,0,0,24,18.86a1.16,1.16,0,0,0,.88-.17,1.19,1.19,0,0,0,.36-1.61A1.18,1.18,0,0,0,26,15.29a1.2,1.2,0,0,0,.65-2A1.2,1.2,0,0,0,27.27,11.92Z"/><path class="cls-5" d="M18.67,11.05a2.36,2.36,0,0,1-3.77-.52"/><circle class="cls-11" cx="15.94" cy="9.32" r="1.05"/><circle class="cls-11" cx="18.02" cy="9.62" r="1.05"/><circle class="cls-12" cx="16.86" cy="10.21" r="0.75"/><circle class="cls-7" cx="15.93" cy="9.35" r="0.28"/><circle class="cls-7" cx="18.04" cy="9.65" r="0.28"/></g></g></svg>