<svg xmlns="http://www.w3.org/2000/svg" viewBox="0 0 17.86 24.19"><defs><style>.cls-1,.cls-9{fill:#b56f26;}.cls-2{fill:#fff;}.cls-3{fill:#5a5ca6;}.cls-4{fill:#f3a2a7;}.cls-5{fill:#0b6f2b;}.cls-6{fill:#a11a16;}.cls-7{fill:none;}.cls-7,.cls-9{stroke:#22234a;stroke-linecap:round;stroke-linejoin:round;stroke-width:0.4px;}.cls-8{fill:#22234a;}</style></defs><g id="Layer_2" data-name="Layer 2"><g id="Layer_1-2" data-name="Layer 1"><path class="cls-1" d="M14.54,10.07l-.09-.32a.53.53,0,0,0-.22-.37.63.63,0,0,0-.45,0l-.32.07a2.43,2.43,0,0,0-.65.19,1.83,1.83,0,0,0-.46.42.83.83,0,0,0-.07.13l-.08.09a3.51,3.51,0,0,0-.27.4.33.33,0,0,0-.21.05.47.47,0,0,0-.19.18l0,.06v0h0a.31.31,0,0,0-.09.26.3.3,0,0,0-.3.23,1.15,1.15,0,0,0,0,.37c0,.09,0,.18.05.27a1.07,1.07,0,0,0,.19.56l0,0,0,.06a3,3,0,0,0,.4.31l.38.28a.33.33,0,0,0,.44-.11.34.34,0,0,0-.12-.45l-.22-.17h0l-.09-.08-.33-.28,0,0v0l0-.2,0-.14h0a1,1,0,0,0,.45.37,10,10,0,0,0,1.06.46.22.22,0,0,0,.16,0l0,0,.05,0h.12l.07,0a.08.08,0,0,0,0,0,.05.05,0,0,0,0,0,.08.08,0,0,0,0-.05.28.28,0,0,0,0-.09v0a.16.16,0,0,0,0-.07.34.34,0,0,0-.06-.06h0a.33.33,0,0,0,.32,0l.06,0,.05,0a.31.31,0,0,0,.05-.1V12.1a.34.34,0,0,0-.16-.34,4.22,4.22,0,0,0-.68-.32,1.57,1.57,0,0,0-.31-.08h0a.39.39,0,0,0,0-.21l0,0h0l.05,0,.22-.07c.15,0,.22-.16.3-.28l.16-.24.06-.09a.42.42,0,0,0,.31.06.33.33,0,0,0,.26-.13A.35.35,0,0,0,14.54,10.07Z"/><path class="cls-1" d="M11.55,8.78l-.33-.06a2.63,2.63,0,0,1,.21-1c.1-.22.25-.39.35-.6a1.66,1.66,0,0,0,.07-.7L11.79,3.2a.44.44,0,0,0-.55-.42,1.8,1.8,0,0,1-1,0,3.19,3.19,0,0,0-1.11,0,8.6,8.6,0,0,1-2.21.08.45.45,0,0,0-.54.54l.06.39A.42.42,0,0,0,6.29,4c0,.78,0,1.55,0,2.33a.41.41,0,0,0,0,.18l.05.07a.33.33,0,0,0,.13.13L6.6,7a1.37,1.37,0,0,1,.08.53c0,.09,0,.19,0,.28l0,0c.1.25.21.5.29.76A.52.52,0,0,1,7,9s0,0,0,.06H7a2.63,2.63,0,0,0,.35.89,3.53,3.53,0,0,0,.79.8A2.19,2.19,0,0,0,10.4,11a3.22,3.22,0,0,0,1.37-1.82A.33.33,0,0,0,11.55,8.78Z"/><path class="cls-2" d="M9,4.1a1,1,0,0,0-.14-.24,1.27,1.27,0,0,0-.21-.25.57.57,0,0,0-.43-.15,1,1,0,0,0-.34,0,.92.92,0,0,0-.47.4.93.93,0,0,0-.11.63.38.38,0,0,0,.15.2.34.34,0,0,0,.26,0,.24.24,0,0,0,.11-.06.28.28,0,0,0,.2,0l0,0,.11,0a3.33,3.33,0,0,0,.63,0A.33.33,0,0,0,9,4.1Z"/><path class="cls-2" d="M10.64,3.82a1.37,1.37,0,0,0-.81-.36h-.2a.6.6,0,0,0-.31.15A.81.81,0,0,0,9.05,4a.46.46,0,0,0,.31.6.37.37,0,0,0,.18,0h0a2.1,2.1,0,0,0,.83.09.58.58,0,0,0,.29-.06.42.42,0,0,0,.2-.35A.65.65,0,0,0,10.64,3.82Z"/><path class="cls-3" d="M13.81,7.14c0-.1-.07-.2-.11-.29s0-.19,0-.32a12.48,12.48,0,0,1-.49-1.61A4.66,4.66,0,0,0,13,4.11a2.85,2.85,0,0,0-.23-.37c0-.32-.08-.64-.14-1a.45.45,0,0,0-.3-.3c.09-.27-.09-.49-.25-.69a7.19,7.19,0,0,0-.51-.59A3,3,0,0,0,10.17.34,3.79,3.79,0,0,0,7.91.48L7.42.64a1.2,1.2,0,0,0-.31.13A1.64,1.64,0,0,0,6.86,1a3.05,3.05,0,0,0-.69.7.5.5,0,0,0,0,.13A.36.36,0,0,0,5.88,2l-.12.2a.46.46,0,0,0,.06.5.27.27,0,0,0-.14.12,18.77,18.77,0,0,0-.79,2.65.25.25,0,0,0,0,.25l0,0A1,1,0,0,0,4.7,6l0,0h0a.31.31,0,0,0-.1.15.36.36,0,0,0,0,.25c0,.07-.13.69,0,.71s2,.46,2,.44a9,9,0,0,0-.29-1.34s0-.09,0-.14a.32.32,0,0,0,0-.14l-.06-.28h0a.35.35,0,0,0,.1-.24A18,18,0,0,1,6.44,3a.22.22,0,0,0-.06-.19,6.61,6.61,0,0,1,1.26-.06,10.91,10.91,0,0,1,1.4,0c.46,0,.93,0,1.4,0s.88.07,1.3,0a.41.41,0,0,0,0,.19c0,.14.05.28.08.43a.29.29,0,0,0-.06.22s0,.08,0,.12h0c0,.15.08.3.11.45s0,.38,0,.57a8.7,8.7,0,0,0,0,1.84.43.43,0,0,0,.05.12c0,.08-.08.17-.13.26s-.11.2-.17.3a2.16,2.16,0,0,0-.17.34.22.22,0,0,0,.21.27.59.59,0,0,0,.23-.05.49.49,0,0,0,.21,0l1.45-.37A.32.32,0,0,0,13.81,7.14Z"/><path class="cls-4" d="M6.23,17.35l.11-.05a4.7,4.7,0,0,1,1.35-.07A8.79,8.79,0,0,0,9,17.11c.47-.06,1-.07,1.42-.13a13.63,13.63,0,0,0,1.42-.26h0A3.23,3.23,0,0,0,12.44,15c0-.33,0-.69,0-1s.11-.39,0-.59a1.19,1.19,0,0,0-.56-.28.19.19,0,0,0-.1-.18l-.51-.25v0a2.77,2.77,0,0,0-.1-.26c-.08-.2-.16-.39-.25-.59a.13.13,0,0,0,0-.07l0-.09a.15.15,0,0,0,.07-.05,8.05,8.05,0,0,0,.84-1.17,2,2,0,0,0,.22-.62,3.38,3.38,0,0,1,.26-.69.22.22,0,0,0-.13-.32c-.17,0-.38,0-.45.16s0,.19,0,.28a1.73,1.73,0,0,1-.14.31,6.42,6.42,0,0,1-.6,1.09.27.27,0,0,0-.14,0,3,3,0,0,1-2,.51.18.18,0,0,0-.15.06h0l0,0-.15-.07s0-.05,0-.06A.39.39,0,0,0,8.08,11a1.92,1.92,0,0,1-.29-.28l-.1-.16,0,0h0l0,0a.14.14,0,0,0-.12-.06l0-.05c-.12-.26-.22-.53-.32-.8v0L7,8.82c0-.11-.52,0-.64,0s.2.59.24.7c.16.41.26.74.45,1.14,0,.05.19.07.21.12a.35.35,0,0,0-.12.24.57.57,0,0,0,0,.34,1.45,1.45,0,0,1,0,.36.56.56,0,0,1-.07.23c-.05.1-.14.16-.18.27a.61.61,0,0,0,0,.42L7,13l0,.22H6.91l-.09,0h0l-.07.06a1.65,1.65,0,0,0-.57.22,2,2,0,0,0-.71.89c-.19.37-.39.72-.61,1.07a9.17,9.17,0,0,0-.66,1.08.33.33,0,0,0,.28.49.58.58,0,0,0,.26,0,.7.7,0,0,0,.34.15c.34.05.68.06,1,.13Z"/><path class="cls-5" d="M12.55,12.41l0,0a.16.16,0,0,0-.09-.09.32.32,0,0,0-.14,0s-.05,0,0,0h0l0,0h0l0,0-.07-.07,0,0a.11.11,0,0,0-.15,0,.1.1,0,0,0,0,.12s0,0,.06,0h0l0,0,.06.06a.38.38,0,0,0,.18.09h.13s0,0,0,0a.16.16,0,0,0,.09.07.12.12,0,0,0,.14-.07A.13.13,0,0,0,12.55,12.41Z"/><polygon class="cls-5" points="12.34 12.48 12.34 12.49 12.34 12.48 12.34 12.48"/><path class="cls-6" d="M17.49,10a.43.43,0,0,0,0-.16.88.88,0,0,0-.27-.5A.38.38,0,0,0,17,9a.94.94,0,0,0-.32-.11l-.61-.19a1,1,0,0,0-.62,0,.19.19,0,0,0-.08,0,8.28,8.28,0,0,0-1.41,0c-.24,0-.47,0-.7,0a1,1,0,0,0-.38.09.2.2,0,0,0-.21-.06.38.38,0,0,0-.23.2,1.83,1.83,0,0,0-.11.26v0l0,.07a.54.54,0,0,1-.05.11l-.12.25a.21.21,0,0,0,.08.29.22.22,0,0,0,.3-.07l.06-.12a.14.14,0,0,0,0-.06l.06-.14a.28.28,0,0,0,.28,0,.67.67,0,0,1,.44-.17c.21,0,.43,0,.64,0l.4,0a.75.75,0,0,0,.13.37.71.71,0,0,1,.06.38.32.32,0,0,0,.32.33,7.6,7.6,0,0,1,1.17.11,2,2,0,0,0,.54,0,.44.44,0,0,0,.2,0l.51-.08A.32.32,0,0,0,17.49,10Z"/><path class="cls-1" d="M5.51,17.3c-.09,0-.11-.12-.2-.11s-.14.09-.18.08l-.77-.17a.33.33,0,0,0-.4.23c0,.1-.07.2-.12.3h0l0,0,0,.07a.83.83,0,0,1-.07.13L3.65,18l0,0,0,.05c-.08.1-.17.2-.24.3a1,1,0,0,0-.09.18,3.86,3.86,0,0,0-.36-.7,2.93,2.93,0,0,0-.39-.48,2.74,2.74,0,0,1-.38-.45c-.13-.2-.48-.07-.4.17l.25.79a.59.59,0,0,0,0,.08l0,.09,0,.08a.61.61,0,0,0,.16.59l.18.22a.28.28,0,0,0,0,.13l.79,1.24a.34.34,0,0,0,.58,0c.1,0,.12-.1.15-.19a2.71,2.71,0,0,1,.42-.67,3.31,3.31,0,0,0,.47-.53c.26-.45.65-.79.88-1.26A.22.22,0,0,0,5.51,17.3Z"/><path class="cls-1" d="M10.36,23.35a55.5,55.5,0,0,0-2-5.74c0-.06-.08-.43-.16-.43l-.7,0a3.63,3.63,0,0,1-1.09,0c-.23-.1-.12.38,0,.57a2,2,0,0,1,.18.26.31.31,0,0,0,0,.24,15.92,15.92,0,0,1,1,2.28c.16.4.52.95.7,1.34a5.35,5.35,0,0,0,.34.73H8.63l-.11,0H8.44l-.07,0h0l0,0-.25-.11a.62.62,0,0,0-.56.08h0a1.8,1.8,0,0,0-1,.14.22.22,0,0,0,0,.4,5.91,5.91,0,0,0,1.74.47c.3,0,.59-.05.89,0s.62.1.94.1A.22.22,0,0,0,10.36,23.35Z"/><line class="cls-7" x1="14.93" y1="10.47" x2="14.05" y2="10.47"/><line class="cls-7" x1="8.74" y1="22.6" x2="6.32" y2="17.42"/><path class="cls-7" d="M10.43,23.63S10.6,24,10,24H5.78s-.5,0-.47-.48,1.16-1.08,2.44-1a3.68,3.68,0,0,1,1.43.33"/><line class="cls-7" x1="8.34" y1="17.16" x2="10.43" y2="23.63"/><line class="cls-7" x1="8.45" y1="17.49" x2="8.47" y2="17.57"/><path class="cls-8" d="M6.33,6.37h.12l0,0a0,0,0,0,1,0,0v0H6.34l0,0a0,0,0,0,1,0,0s0,0,0,0S6.32,6.38,6.33,6.37Z"/><path class="cls-7" d="M11.85,7A4,4,0,0,0,11.13,9"/><path class="cls-7" d="M9,.2a6.59,6.59,0,0,1,.75,0,3.3,3.3,0,0,1,2.71,2.38"/><path class="cls-7" d="M9,.2a5.13,5.13,0,0,0-.74.09A3.23,3.23,0,0,0,5.73,2.6"/><path class="cls-7" d="M6.36,6.77A4.7,4.7,0,0,1,7.17,9"/><line class="cls-7" x1="6.58" y1="10.91" x2="7.04" y2="13.12"/><path class="cls-7" d="M12.53,13.41l-.16,1.9s0,1.49-1,1.5"/><line class="cls-7" x1="12.6" y1="12.45" x2="12.54" y2="12.76"/><path class="cls-7" d="M11.2,8.82l4.89-.14a1.57,1.57,0,0,1,1.57,1.76"/><path class="cls-7" d="M13.09,11.15a1.39,1.39,0,0,0,1.06-1"/><path class="cls-7" d="M11.09,12.11a1.24,1.24,0,0,1-.06-.18.34.34,0,0,1,0-.29L12.42,9.9a1.54,1.54,0,0,1,1-.51c.88-.13,2.92-.25,2.92-.25"/><path class="cls-7" d="M11.88,12.3a1.47,1.47,0,0,1,.65.5c.2.27.21.46.08.54s-.3,0-.3,0l-.94-.52a.2.2,0,0,1-.07-.11l-.21-.56"/><path class="cls-7" d="M11.72,12a.62.62,0,0,0,.22-.25"/><path class="cls-7" d="M11.81,11.9a1.47,1.47,0,0,1,.07.48"/><path class="cls-7" d="M12.16,10.91l.27.83a.45.45,0,0,0,.25.27c.2.07,1.3.35,1.3.35s.23.08.28-.06,0-.47-.5-.71a1.93,1.93,0,0,0-.69-.25"/><path class="cls-7" d="M13.09,11.54a1,1,0,0,0-.18-.56"/><path class="cls-7" d="M11.78,11.26,12,12a.45.45,0,0,0,.26.28l1.26.47s.23.09.28,0,0-.27-.23-.44"/><path class="cls-7" d="M17.66,10.44a4.9,4.9,0,0,1-3.11-.09,1.82,1.82,0,0,0-.28-1"/><path class="cls-1" d="M4.24,10.07a3,3,0,0,1,.09-.32.53.53,0,0,1,.22-.37.63.63,0,0,1,.45,0l.32.07A2.36,2.36,0,0,1,6,9.63a1.54,1.54,0,0,1,.46.42.46.46,0,0,1,.08.13l.07.09a2,2,0,0,1,.27.4.34.34,0,0,1,.22.05.47.47,0,0,1,.19.18.14.14,0,0,1,0,.06l0,0h0a.35.35,0,0,1,.09.26.31.31,0,0,1,.3.23,1.15,1.15,0,0,1,0,.37,2.56,2.56,0,0,0,0,.27,1,1,0,0,1-.2.56l0,0-.05.06a3,3,0,0,1-.39.31l-.38.28a.33.33,0,1,1-.33-.56l.23-.17h0l.09-.08.33-.28,0,0v0L7,12l0-.14H7a.94.94,0,0,1-.46.37,9.16,9.16,0,0,1-1.06.46.22.22,0,0,1-.16,0l0,0,0,0H5.1l-.08,0,0,0,0,0a.07.07,0,0,1,0-.05.14.14,0,0,1,0-.09v0a.16.16,0,0,1,0-.07s0,0,.06-.06H5a.31.31,0,0,1-.31,0l-.07,0,0,0a.21.21,0,0,1-.06-.1V12.1a.34.34,0,0,1,.16-.34,4.12,4.12,0,0,1,.67-.32,2,2,0,0,1,.31-.08h0a.39.39,0,0,1,0-.21l0,0h0l-.06,0L5.38,11c-.15,0-.22-.16-.3-.28l-.15-.24-.06-.09a.42.42,0,0,1-.31.06.33.33,0,0,1-.26-.13A.31.31,0,0,1,4.24,10.07Z"/><path class="cls-6" d="M1.28,10a.92.92,0,0,1,0-.16.88.88,0,0,1,.27-.5A.36.36,0,0,1,1.75,9a.92.92,0,0,1,.33-.11l.61-.19a1,1,0,0,1,.61,0l.08,0a8.43,8.43,0,0,1,1.42,0c.23,0,.46,0,.69,0a1,1,0,0,1,.39.09.2.2,0,0,1,.21-.06.41.41,0,0,1,.23.2c0,.09.07.18.11.26v0l0,.07.06.11a2.72,2.72,0,0,0,.11.25.21.21,0,0,1-.08.29.21.21,0,0,1-.29-.07l-.07-.12s0,0,0-.06l-.06-.14a.28.28,0,0,1-.28,0A.63.63,0,0,0,5.4,9.4c-.22,0-.43,0-.65,0l-.39,0a1,1,0,0,1-.13.37.56.56,0,0,0-.06.38.34.34,0,0,1-.33.33,7.59,7.59,0,0,0-1.16.11,2,2,0,0,1-.54,0,.44.44,0,0,1-.2,0l-.51-.08A.33.33,0,0,1,1.28,10Z"/><line class="cls-7" x1="3.84" y1="10.47" x2="4.72" y2="10.47"/><path class="cls-7" d="M7.11,8.81,2.68,8.68a1.56,1.56,0,0,0-1.56,1.76"/><path class="cls-7" d="M5.69,11.15a1.4,1.4,0,0,1-1.07-1"/><path class="cls-7" d="M7.68,12.11a1.57,1.57,0,0,0,.07-.18.36.36,0,0,0,0-.29L6.36,9.9a1.57,1.57,0,0,0-1-.51c-.88-.13-2.93-.25-2.93-.25"/><path class="cls-7" d="M6.9,12.3a1.47,1.47,0,0,0-.65.5c-.2.27-.21.46-.09.54s.31,0,.31,0l.93-.52a.19.19,0,0,0,.08-.11s.12-.32.2-.56"/><path class="cls-7" d="M7.06,12a.69.69,0,0,1-.23-.25"/><path class="cls-7" d="M7,11.9a1.47,1.47,0,0,0-.07.48"/><path class="cls-7" d="M6.61,10.91l-.26.83a.48.48,0,0,1-.26.27c-.19.07-1.3.35-1.3.35s-.23.08-.27-.06,0-.47.5-.71a1.93,1.93,0,0,1,.69-.25"/><path class="cls-7" d="M5.69,11.54A.87.87,0,0,1,5.87,11"/><path class="cls-7" d="M7,11.26,6.74,12a.49.49,0,0,1-.26.28l-1.26.47s-.23.09-.28,0,0-.27.23-.44"/><path class="cls-7" d="M1.12,10.44a4.86,4.86,0,0,0,3.1-.09,1.87,1.87,0,0,1,.29-1"/><path class="cls-7" d="M10.36,23.41a6.17,6.17,0,0,1-4.09-.69"/><path class="cls-7" d="M3.36,20.86s-.22.35-.55-.14L.3,16.89a.48.48,0,0,1,.14-.7c.45-.24,1.66.4,2.37,1.58a3.87,3.87,0,0,1,.55,1.48"/><path class="cls-7" d="M3.51,20.6a6.33,6.33,0,0,1-1.78-4"/><path class="cls-7" d="M11.81,8.82s-.37,2.33-2.23,2.41S7,9.34,7,8.82"/><path class="cls-7" d="M10.87,9.26a3.93,3.93,0,0,1-1.06.26"/><path class="cls-7" d="M8.78,9.52a4.11,4.11,0,0,1-.87-.15"/><line class="cls-7" x1="11.88" y1="2.78" x2="6.24" y2="2.78"/><path class="cls-7" d="M11.73,2.78c0,.06.15,4.18.15,4.18"/><path class="cls-7" d="M11.35,7.93a6,6,0,0,0,2.55-.5L12.49,2.66"/><path class="cls-7" d="M6.44,2.78c0,.06-.13,4.07-.13,4.07"/><path class="cls-7" d="M5.73,2.6,4.43,7.09a9.63,9.63,0,0,0,2.34.51"/><path class="cls-7" d="M6.9,13.18a1.59,1.59,0,0,1,1.49.34"/><path class="cls-7" d="M3.25,18.49,4.12,17"/><line class="cls-7" x1="11.07" y1="15.26" x2="8.39" y2="13.52"/><line class="cls-7" x1="6.02" y1="17.18" x2="3.36" y2="20.86"/><line class="cls-7" x1="7.27" y1="15.45" x2="6.69" y2="16.25"/><polygon class="cls-8" points="6.02 17.18 6.02 17.19 6.02 17.18 6.02 17.18"/><path class="cls-7" d="M7.17,15.58s.25.35.6.74"/><path class="cls-7" d="M7,13.16a2.23,2.23,0,0,0-1.31.93C5.13,14.88,4,16.87,4,16.87s2,.76,7.42-.06"/><path class="cls-7" d="M6.14,8.82a7.21,7.21,0,0,1,.6,1.56"/><path class="cls-7" d="M12.53,8.78a5.15,5.15,0,0,0-.48,1.53"/><path class="cls-7" d="M7.64,5a.89.89,0,1,1,.51.16"/><circle class="cls-8" cx="7.87" cy="4.44" r="0.28"/><circle class="cls-8" cx="9.75" cy="4.37" r="0.28"/><path class="cls-7" d="M9.92,5.12a.88.88,0,1,1,0-1.76.89.89,0,0,1,.88.88.88.88,0,0,1-.35.7"/><path class="cls-7" d="M11.13,5a1.64,1.64,0,0,1-.94,1.23"/><path class="cls-7" d="M7.5,4.83a5.26,5.26,0,0,1,3.05,0"/><circle class="cls-9" cx="9.04" cy="5.12" r="0.65"/><path class="cls-8" d="M10.4,23.6c-.12-.2-.34-.19-.55-.15a6.36,6.36,0,0,1-.75.08c-.32,0-.64,0-1,0h0a1.11,1.11,0,0,0-.54-.14h0a.44.44,0,0,0-.16-.06H7.25l-.08-.07a1.59,1.59,0,0,0-.29-.15.77.77,0,0,0-.25-.1H6.55a.4.4,0,0,0-.16-.13.51.51,0,0,0-.4,0,1.23,1.23,0,0,0-.51.32.56.56,0,0,0-.16.44.39.39,0,0,0,.45.31A.31.31,0,0,0,6,24l.18,0h.12a1.88,1.88,0,0,1,.34,0,5.62,5.62,0,0,1,.7.05l.11,0a.19.19,0,0,0,.15,0h.1l.14,0c.35,0,.72,0,1.07,0s.41,0,.62,0l.12,0a.23.23,0,0,0,.25.11,1.15,1.15,0,0,0,.33-.1A.22.22,0,0,0,10.4,23.6Z"/><path class="cls-8" d="M3.37,20.53a10.31,10.31,0,0,1-1.31-2,.39.39,0,0,0,0-.18,3.19,3.19,0,0,1-.23-.92c0-.11,0-.23,0-.34a.4.4,0,0,0-.07-.19v0c.06-.22-.09-.38-.25-.51A1.59,1.59,0,0,0,1,16.14a.63.63,0,0,0-.52,0,.55.55,0,0,0-.2.2.44.44,0,0,0,0,.4,2.22,2.22,0,0,0,.39.57.33.33,0,0,0,0,.17.85.85,0,0,0,.17.29l.37.54.09.09.11.29a.22.22,0,0,0,.13.12l0,.09a2.37,2.37,0,0,0,.17.36c.14.24.3.48.45.71l.46.71c.08.13.16.28.33.29a.39.39,0,0,0,.33-.16A.22.22,0,0,0,3.37,20.53Z"/></g></g></svg>