<svg xmlns="http://www.w3.org/2000/svg" viewBox="0 0 31.18 31.37"><defs><style>.cls-1,.cls-8{fill:#f3a2a6;}.cls-2{fill:#ee7349;}.cls-3{fill:#22234a;}.cls-11,.cls-16,.cls-4,.cls-7{fill:none;}.cls-4{stroke:#232249;}.cls-11,.cls-13,.cls-16,.cls-4,.cls-7,.cls-8{stroke-linecap:round;stroke-linejoin:round;stroke-width:0.4px;}.cls-5{fill:#0a72b9;}.cls-6{fill:#c0e1f1;}.cls-13,.cls-7,.cls-8{stroke:#212547;}.cls-9{fill:#212547;}.cls-10{fill:#fff;}.cls-11{stroke:#22244a;}.cls-12{fill:#232249;}.cls-13{fill:#0a7332;}.cls-14{fill:#9ad4e1;}.cls-15{fill:#f9b91a;}.cls-16{stroke:#22234a;}</style></defs><g id="Layer_2" data-name="Layer 2"><g id="Layer_2-2" data-name="Layer 2"><path class="cls-1" d="M18.08,7c-.72-.24-1.5-.52-2.2-.79l-1.66-.67a.31.31,0,0,0-.38.11,7,7,0,0,0-.95,2.86.32.32,0,0,0,.09.26,4.07,4.07,0,0,0,.06,1,6.81,6.81,0,0,1,.29,1.61.41.41,0,0,0,0,.23.29.29,0,0,0,0,.33s0,0,0,0-.05.18-.08.27a.69.69,0,0,1-.13-.11.3.3,0,0,0-.15,0,.17.17,0,0,0-.12,0l-.11.05a.38.38,0,0,0-.09.13.26.26,0,0,0,0,.08s0,.05,0,.08a.41.41,0,0,0,0,.16,1,1,0,0,0-.09.33,1.44,1.44,0,0,0,.14.76,1.52,1.52,0,0,0,1,.88.46.46,0,0,0,.26,0,.9.9,0,0,0,.42.16l.42.07a6.83,6.83,0,0,0,.79.06,1.47,1.47,0,0,0,.76-.23l.05,0a.92.92,0,0,0,.25-.15A1.83,1.83,0,0,0,17,14.2c.1-.13.18-.27.28-.4a.31.31,0,0,0-.3-.49,2,2,0,0,1-.35.07h-.08l.08-.17c0-.05,0-.1.05-.16s.22-.16.28-.29c.23-.54.38-.24.53-.55a1.36,1.36,0,0,0,.12-.46c.09-.63.12-1.26.15-1.89,0,0,0,0,0-.07a.36.36,0,0,0,0-.09,12.63,12.63,0,0,1,.34-1.38.33.33,0,0,0,0-.28,4.85,4.85,0,0,1,.26-.59C18.45,7.26,18.25,7.07,18.08,7Zm-4.33.47a6,6,0,0,1,.5-1.22l.6.25a1.81,1.81,0,0,0-.69.49,1.56,1.56,0,0,0-.28.5Z"/><path class="cls-2" d="M18.46,13.38l-.26.06a.55.55,0,0,0-.18,0h-.23a.4.4,0,0,0-.49.27,2,2,0,0,1-2,1.29A2.61,2.61,0,0,1,14,14.75a7.44,7.44,0,0,1-1.18-.84.39.39,0,0,0-.14-.08s0-.08,0-.12,0-.06,0-.09a.4.4,0,0,0,0-.2,2.29,2.29,0,0,1,0-.37,3.4,3.4,0,0,1,.08-.46,1.07,1.07,0,0,0,.06-.47.51.51,0,0,0-.24-.33.46.46,0,0,0-.24-.38.45.45,0,0,0-.19-.05.27.27,0,0,0-.31.06.46.46,0,0,0-.17.17,6.23,6.23,0,0,0-.71,1.87.5.5,0,0,0,.34.6.46.46,0,0,0,.26,0l.1.08.14.08q-.12.3-.27.6c-.21.4-.38.82-.58,1.23s-.49.84-.74,1.27c-.12.21-.23.42-.34.63a2.22,2.22,0,0,0-.28.58c-.06.42.55.72.86.89s.85.38,1.26.62a10.77,10.77,0,0,0,2.65,1,.48.48,0,0,0,.27,0h0a1.83,1.83,0,0,0,1,.14.39.39,0,0,0,.26.1.4.4,0,0,0,.39-.39c.17-1.54.7-3,1-4.52a.44.44,0,0,0,.1-.22h.21l.15,0a2.35,2.35,0,0,1,.51.16.21.21,0,0,0,.24,0,.21.21,0,0,0,0-.24L18.39,16a.27.27,0,0,0,.08-.19,3.91,3.91,0,0,1,.32-2A.3.3,0,0,0,18.46,13.38Z"/><path class="cls-3" d="M2.2,27.88h0a.31.31,0,0,0,.14-.09l.29-.26a.31.31,0,0,0,.09-.11.2.2,0,0,0,.09-.05c.29-.2.86-.43.78-.86,0-.26-.11-.5-.14-.77a1.84,1.84,0,0,0-.1-.42l-.07.05a.26.26,0,0,0-.21-.12H2.8l-.11,0c0-.11,0-.22,0-.34s-.1-.49-.16-.73-.22-.63-.32-1a.3.3,0,0,1,0-.08A2.93,2.93,0,0,0,.62,21.77h0a.22.22,0,0,0-.19-.06.22.22,0,0,0-.15.11.2.2,0,0,0,0,.23.24.24,0,0,0,.08.19l0,0v.08l0,.07a.67.67,0,0,0,.18.42.47.47,0,0,0,0,.23l.15.48a.2.2,0,0,0,0,.17s0,.09,0,.14a.19.19,0,0,0,0,.08,4.83,4.83,0,0,0,.22.64l0,.11A2.82,2.82,0,0,0,1.25,26a11.14,11.14,0,0,1,.44,1.79A.28.28,0,0,0,2.2,27.88Z"/><path class="cls-4" d="M2,28.07l1.61-1.19"/><path class="cls-4" d="M2,28.06c-.14.1-.22,0-.22,0L.2,21.7s1.77.05,2.42,3.06A2,2,0,0,1,2.47,26"/><path class="cls-4" d="M3.24,25.25s-.48.17-.61-.44"/><path class="cls-5" d="M12.4,23.17l.74-.56a.57.57,0,0,0,.26-.21s0,0,0,0a.28.28,0,0,0,.28,0,8.66,8.66,0,0,0,1.59-1.15,12.12,12.12,0,0,1-4.43-1.46.36.36,0,0,1-.23-.24,2.66,2.66,0,0,1-.56-.27,11.12,11.12,0,0,0-.42,2.15s-1.95,1-3,1.74a8.46,8.46,0,0,1-1.45.78.76.76,0,0,0-.39.29c-.28.17-.58.32-.87.46a2.53,2.53,0,0,0-.75.43c-.28.35.12,1.1.31,1.48a.22.22,0,0,0,0,.27q.12.27.21.54c.06.18.08.38.16.56a.3.3,0,0,0,.57,0,.41.41,0,0,0,.18,0c1-.54,1.86-1.13,2.78-1.74.46-.3.93-.59,1.42-.85a2.07,2.07,0,0,0,.72-.48h0l.38,1.31a.52.52,0,0,0,0,.11l.07.2a.39.39,0,0,0,.12.19c.11.41.2.83.29,1.24a.59.59,0,0,0,0,.13l.12.43a.4.4,0,0,0,.11.19.38.38,0,0,0,0,.15.42.42,0,0,0,.33.24,1.07,1.07,0,0,0,.61-.08h.09l.71,0a.29.29,0,0,0,.17-.07,2.49,2.49,0,0,0,1.31-.12c.21-.11.12-.4,0-.49a.41.41,0,0,1-.11-.07.58.58,0,0,0-.11-.18,8.13,8.13,0,0,1-.84-1.43c-.27-.46-.55-.92-.83-1.38.08-.31.15-.61.23-.92A4.81,4.81,0,0,0,12.4,23.17Z"/><path class="cls-3" d="M14.62,30.38h0a.27.27,0,0,0-.06-.16l-.22-.32a.94.94,0,0,0-.1-.1l0-.09c-.17-.32-.33-.91-.76-.89-.27,0-.45.19-.72.18a2.37,2.37,0,0,0-.46,0s0,0,0,0a.25.25,0,0,0-.14.19c0,.1,0,.19,0,.28s-.1,0-.1,0-.12.08-.24.08l-.75.06a8.52,8.52,0,0,0-1,.2l-.08,0a2.9,2.9,0,0,0-1.54,1.26,2.65,2.65,0,0,0,.63,0h.73l.81,0,.37,0,.26-.06h.11a3.11,3.11,0,0,0,1.39.05,16.19,16.19,0,0,1,2.09,0C15,31.18,14.81,30.52,14.62,30.38Z"/><line class="cls-4" x1="11.9" y1="24.92" x2="12.57" y2="23.01"/><path class="cls-4" d="M9.58,25.14A1.21,1.21,0,0,1,9.53,25"/><path class="cls-4" d="M10.71,29a7.35,7.35,0,0,0,1.69,0,5.09,5.09,0,0,0,1.68-.31"/><path class="cls-4" d="M11.17,20.61l-8,4.46a8,8,0,0,0,.35,1.65,4.89,4.89,0,0,0,.61,1.6l10.42-6.54a8.86,8.86,0,0,0,.76-.58"/><line class="cls-4" x1="10.68" y1="29" x2="9.59" y2="25.19"/><path class="cls-4" d="M14.08,28.69,11.88,25a2.27,2.27,0,0,1-.52,0"/><line class="cls-4" x1="9.96" y1="19.24" x2="9.69" y2="21.43"/><path class="cls-4" d="M12.14,29s.11.5-.52.55c0,0-2.55-.08-3.26,1.6h6.42s.29,0,0-.56l-1-1.75"/><path class="cls-1" d="M22.18,9.55a3.83,3.83,0,0,0-.67.34c-.2.57-.52,1.07-.74,1.62a0,0,0,0,1,0,0,.45.45,0,0,0-.09.1,9.77,9.77,0,0,0-.53.94.64.64,0,0,0-.05.17l-.06.11c-.15.33-.31.66-.48,1l-.34-.07a.43.43,0,0,0-.57.46,11.23,11.23,0,0,1-.14,1.3.42.42,0,0,0,.37.46,5.27,5.27,0,0,1,1.19,0,.43.43,0,0,0,.54-.24c.09-.22.17-.45.24-.67l.05-.09c.11-.24.22-.48.32-.73a.4.4,0,0,0,0-.28c.19-.47.39-.94.59-1.41a.37.37,0,0,0,0-.31c.12-.31.26-.62.41-.92l0-.06,0-.09.24-.55C22.26,10.23,22.36,10,22.18,9.55Z"/><path class="cls-1" d="M11.29,11.19,11,11l0,0c0-.18.07-.36.1-.55v0c0-.54.06-1.07.1-1.61,0-.21,0-.43,0-.64a.78.78,0,0,1-.15-.1.66.66,0,0,1-.19-.46c0-.41,0-.83-.07-1.24a1.38,1.38,0,0,0-.41.07c-.22.12-.48.38-.69.52s.16.87.08.91,0,.62,0,.64c-.08.48-.14.91-.22,1.39-.19.63-.28,1.29-.45,1.92a.39.39,0,0,0,0,.28l0,.14v0a.36.36,0,0,0,.22.37h0a1,1,0,0,0,.73.28,1.86,1.86,0,0,0,.35.22c.06,0,.3.2.36.19s.21-.24.22-.47a1.69,1.69,0,0,1,0-.23c0-.16.09-.33.14-.48a.37.37,0,0,0,0-.18l.05-.07v0a.27.27,0,0,0,.18-.23A.41.41,0,0,0,11.29,11.19Z"/><path class="cls-4" d="M22.47,10.79l-1.75,4.85s-.15.43-.49.39-1.72-.11-1.72-.11"/><path class="cls-4" d="M18.73,13.76l.79.08.3.52"/><line class="cls-4" x1="19.52" y1="13.84" x2="21.62" y2="9.84"/><path class="cls-4" d="M9.94,7.72l-.82,4.36s-.08.45.22.58,1.65.67,1.65.67"/><path class="cls-4" d="M11.66,11.39a3.22,3.22,0,0,0-.6-.27l-.53.3"/><line class="cls-4" x1="11.06" y1="11.12" x2="11.07" y2="7.02"/><path class="cls-4" d="M19.1,13.76c0-.21-.08-.33-.14-.34s-.36.65-.45,1.48,0,1.53.13,1.54.18-.17.27-.48"/><line class="cls-4" x1="18.96" y1="13.42" x2="16.58" y2="13.38"/><line class="cls-4" x1="17.47" y1="15.56" x2="16.07" y2="21.21"/><line class="cls-4" x1="18.64" y1="16.44" x2="17.32" y2="16.18"/><path class="cls-4" d="M11.94,11.24c-.18-.06-.52.51-.76,1.26s-.28,1.41-.09,1.47"/><line class="cls-4" x1="11.94" y1="11.24" x2="13.16" y2="12.29"/><line class="cls-4" x1="11.09" y1="13.97" x2="11.63" y2="14.2"/><path class="cls-4" d="M15.27,21.2a4.9,4.9,0,0,0,.8,0"/><path class="cls-4" d="M11.79,14,9.4,18.74a9.38,9.38,0,0,0,2.82,1.65,9.46,9.46,0,0,0,3,.81"/><path class="cls-4" d="M17.37,13.46s-.46,2.16-3.15,1.35S12.83,12,12.83,12"/><path class="cls-4" d="M13.38,12.8a6.42,6.42,0,0,0,.89.58"/><path class="cls-4" d="M16.25,13.9A9.7,9.7,0,0,1,15,13.68"/><path class="cls-6" d="M15.41,7A.86.86,0,0,0,15,6.6h0a.88.88,0,0,0-.62,0,.86.86,0,0,0-.43.45.91.91,0,0,0,0,.63.86.86,0,0,0,.46.42h0a.83.83,0,0,0,.62,0A.8.8,0,0,0,15.41,7Z"/><path class="cls-6" d="M17.36,7.71a.86.86,0,0,0-.45-.43h0a.88.88,0,0,0-.62,0,.86.86,0,0,0-.43.45.83.83,0,0,0,0,.62.86.86,0,0,0,.45.43h0a.88.88,0,0,0,.62,0,.86.86,0,0,0,.43-.45A.83.83,0,0,0,17.36,7.71Z"/><path class="cls-3" d="M13.29,11.06a8.37,8.37,0,0,1-.41-2.38.17.17,0,0,0-.05-.13l.1-.43c0-.1-.12-.16-.15-.06l-.1.44h0a.17.17,0,0,0-.13.14l-.19.95a1.79,1.79,0,0,0-.08.64.23.23,0,0,0,0,.26,1.39,1.39,0,0,0,.45.59.22.22,0,0,0,.2,0l.15.09C13.14,11.29,13.33,11.21,13.29,11.06Z"/><path class="cls-3" d="M19.33,11.17a.28.28,0,0,0,0-.09A.24.24,0,0,0,19.4,11a8.59,8.59,0,0,0,.5-2.77,2.24,2.24,0,0,0,0-1.51.38.38,0,0,0-.16-.24,3.13,3.13,0,0,0-2.06-1.87l-.07,0h0a3.32,3.32,0,0,0-3.2.39.23.23,0,0,0-.13.19L14,5.2c-.17.06-.1.28.05.31a11,11,0,0,1,2.52.91,4.91,4.91,0,0,0,.8.25l.05,0c.29.09.55.25.83.36l.12,0a12.75,12.75,0,0,0-.69,3.18s0,.07,0,.1a.36.36,0,0,0,0,.11c0,.23,0,.47,0,.71a7,7,0,0,1-.12.78,1,1,0,0,0,0,.18h0l-.07.05-.13.1a.25.25,0,0,0,.07.47,1.44,1.44,0,0,0,.46,0,.24.24,0,0,0,.19,0C18.86,12.68,19.09,11.89,19.33,11.17Z"/><path class="cls-7" d="M17,12.69a7.06,7.06,0,0,0-.42.69"/><path class="cls-7" d="M17.54,12.09a4.87,4.87,0,0,0-.54.6"/><path class="cls-7" d="M17.62,4.54a5.54,5.54,0,0,1,.67.3A3.27,3.27,0,0,1,20,8.35"/><path class="cls-7" d="M13.2,12.29c.36-1.17-.23-1.89-.29-3.33a5.17,5.17,0,0,1,.69-3A4.67,4.67,0,0,1,14,5.48"/><circle class="cls-7" cx="14.64" cy="7.28" r="0.89"/><line class="cls-7" x1="15.52" y1="7.33" x2="15.88" y2="7.47"/><polyline class="cls-8" points="15.7 7.4 14.17 8.51 15.36 8.96"/><circle class="cls-7" cx="16.58" cy="8.02" r="0.89"/><path class="cls-9" d="M16.68,7.89h0a.16.16,0,0,0-.12.3h0A.17.17,0,0,0,16.68,7.89Z"/><path class="cls-9" d="M14.42,7.18v0a.16.16,0,0,0,.3.11h0A.17.17,0,0,0,14.42,7.18Z"/><path class="cls-7" d="M18.54,7.18,13.85,5.4a3.17,3.17,0,0,1,3.9-.81"/><path class="cls-7" d="M18.39,7.12a15.46,15.46,0,0,0-.81,5.08"/><path class="cls-7" d="M17.06,12.67a1.59,1.59,0,0,0,.29.15c.68.26,1.48,0,1.89-1.25A13.56,13.56,0,0,0,20,7.93"/><path class="cls-7" d="M13.28,11.3c0-.07-1-.11-1.07-.9A13.1,13.1,0,0,1,13.14,7"/><path class="cls-10" d="M16.58,9.61a5.74,5.74,0,0,1-.93,0,8.28,8.28,0,0,1-1-.13,5,5,0,0,1-.73-.29.19.19,0,0,1,0,.08A1.62,1.62,0,0,0,15,10.87a.28.28,0,0,1,.22,0h.12l.12,0h0l.06,0h.07a1.83,1.83,0,0,0,.34,0,1.39,1.39,0,0,0,.75-.36,1.37,1.37,0,0,0,.39-.7,1.54,1.54,0,0,0,0-.3A5,5,0,0,1,16.58,9.61Z"/><path class="cls-11" d="M17.15,9.56a1.41,1.41,0,0,1-1.51,1.36,1.53,1.53,0,0,1-1.7-1.76"/><path class="cls-11" d="M17.36,9.43s-.38.28-1.76.16A3.67,3.67,0,0,1,13.65,9"/><path class="cls-11" d="M17,10.16a5.06,5.06,0,0,1-3-.37"/><path class="cls-4" d="M10.75,20.33s.55.24,1.09.42"/><path class="cls-12" d="M19.05,13.62v0l0,0h0s0,0-.05,0h-.07a.05.05,0,0,0,0,0,0,0,0,0,0,0,0v0a0,0,0,0,0,0,.05v0l0,0h0l0,0H19l0,0,0,0a0,0,0,0,0,0,0Z"/><path class="cls-12" d="M18.83,16.11a.09.09,0,0,0-.08-.09h-.07a.1.1,0,0,0,0-.05.11.11,0,0,0-.08,0l-.06,0a.11.11,0,0,0,0,.08l0,.06a0,0,0,0,1,0,0,.08.08,0,0,0,0,.07h0l0,.05s0,0,.05.06a.06.06,0,0,0,.07,0l.08,0,0,0a.14.14,0,0,0,0-.06A.14.14,0,0,0,18.83,16.11Z"/><path class="cls-13" d="M19.34,5.66A10.2,10.2,0,0,1,15.8,4.23l3.64-4Z"/><path class="cls-14" d="M29.29,11A37.77,37.77,0,0,1,25,9.24a42.23,42.23,0,0,1-4.24-2.16c-.37-.23-.8.28-.43.55a25.09,25.09,0,0,0,2.18,1.8A.37.37,0,0,0,23,9.1l.07,0a.4.4,0,0,0,.17.48,9.07,9.07,0,0,0,1.44.59l.09,0a11.85,11.85,0,0,0,1.39.67l.19.07.29.14a.33.33,0,0,0,.12.19,1,1,0,0,0,.7.2.28.28,0,0,0,.24-.11,10.47,10.47,0,0,0,1.38.24C29.49,11.69,29.69,11.11,29.29,11Z"/><path class="cls-15" d="M30.82,8.52a23.46,23.46,0,0,1-1.69-1.89,10.87,10.87,0,0,0-2.26-1.48,6.37,6.37,0,0,0-2.42-.85,5.14,5.14,0,0,0-1.3,0c-.39.06-.92.3-1.25,0s-.76.25-.44.56l.25.22q.15,0,0,.21a2.43,2.43,0,0,1-.16.63,11,11,0,0,1-.42,1.17.34.34,0,0,0,.18.44.45.45,0,0,0,.1.09l.08,0c.12.16.31.15.51.19a11.39,11.39,0,0,0,1.9.8c.92.34,1.9.81,2.79,1.23L28,10.5c.29.14.57.33.86.11a5.38,5.38,0,0,0,.76-1,1.11,1.11,0,0,1,1-.46A.36.36,0,0,0,30.82,8.52Z"/><path class="cls-1" d="M27.19,11.74c0-.22-.06-.28-.25-.38-.43-.24-.6-.69-1-1A3.33,3.33,0,0,0,24.48,10c-.4-.06-.61-.4-.91-.55a2.05,2.05,0,0,1-.66-.4l-1,.55c.1.14.21.29.3.44s.17.31.24.47a3.19,3.19,0,0,1,.13.44l.14,0a3,3,0,0,1,1.42.47c.51.27,1,.53,1.54.77a1.42,1.42,0,0,0,.72.2,1.47,1.47,0,0,0,.54-.24C27.12,12,27.18,12,27.19,11.74Z"/><line class="cls-16" x1="28.83" y1="10.84" x2="30.15" y2="9.05"/><line class="cls-16" x1="21.12" y1="7.43" x2="21.76" y2="5.19"/><path class="cls-16" d="M22.19,4.52c-.12.25,1.62,1.29,3.88,2.31s4.19,1.66,4.31,1.4-1.26-2.14-3.52-3.17S22.3,4.27,22.19,4.52Z"/><path class="cls-16" d="M30.35,8.08a.49.49,0,0,1,.22.24.53.53,0,0,1,.29.2c.13.15.16.31.07.36h0v0c0,.11-.17.18-.41.17A.78.78,0,0,1,30.15,9a.7.7,0,0,1-.41,0,1.13,1.13,0,0,1-.33-.15,1,1,0,0,1-.36,0,.92.92,0,0,1-.33-.18.7.7,0,0,1-.38-.06A.93.93,0,0,1,28,8.37a1,1,0,0,1-.38-.07,1.11,1.11,0,0,1-.33-.21A.89.89,0,0,1,26.92,8a1.11,1.11,0,0,1-.31-.21.7.7,0,0,1-.36-.09l-.19-.1"/><path class="cls-16" d="M22.32,4.44a.54.54,0,0,0-.33,0,.57.57,0,0,0-.34-.09c-.2,0-.34.09-.32.19h0c-.09,0,0,.24.14.42a.81.81,0,0,0,.31.22.72.72,0,0,0,.27.3,1,1,0,0,0,.33.15.88.88,0,0,0,.28.25A.81.81,0,0,0,23,6a.93.93,0,0,0,.29.25.89.89,0,0,0,.37.11.77.77,0,0,0,.3.24.8.8,0,0,0,.38.11.81.81,0,0,0,.31.24,1.16,1.16,0,0,0,.36.1.92.92,0,0,0,.3.21l.19.06"/><path class="cls-16" d="M26.06,7.6a.89.89,0,0,1-.3-.08.8.8,0,0,1-.28-.18"/><path class="cls-16" d="M24.13,10a1.42,1.42,0,0,0-.75-.57,1.39,1.39,0,0,0-1.76.44"/><path class="cls-16" d="M25.35,10.25,24.13,10"/><path class="cls-16" d="M23.73,10.89l1.71.24"/><path class="cls-16" d="M25.35,10.25c.41.08,1.13.37,1.11.72s-.5.25-.5.25l-.52-.09"/><path class="cls-16" d="M25.33,10.24h0"/><path class="cls-16" d="M25.65,11.61l1,.36s.44.18.49-.17c0-.14-.07-.27-.21-.38"/><path class="cls-16" d="M23.73,10.89l1.92.72"/><path class="cls-16" d="M25.28,11.9l.95.36s.44.18.49-.17"/><path class="cls-16" d="M25.28,11.9c-.65-.24-2.68-1.05-2.83-1.1,0,0-.13-.26-.17-.31"/><path class="cls-16" d="M28.43,10.74l-.58-.26L20,6.93A1.83,1.83,0,0,0,21,8.2"/><path class="cls-16" d="M28.71,11.6a1.82,1.82,0,0,0,1.13-.22L27.9,10.5"/><path class="cls-16" d="M22.17,9.25a2.24,2.24,0,0,1-1.11-1L24,9.54l4.25,1.93a1.81,1.81,0,0,0,.48.13"/><path class="cls-16" d="M22.31,9.32l-.14-.07"/><path class="cls-16" d="M28.19,11.46a2.37,2.37,0,0,1-1.65-.22l-.14-.07"/><path class="cls-14" d="M3.52,5.26a38.46,38.46,0,0,0,4.68,0,41.57,41.57,0,0,0,4.73-.44c.44-.08.65.55.2.67a24.81,24.81,0,0,1-2.69.87.36.36,0,0,1-.4-.52H10a.38.38,0,0,1-.33.38,8,8,0,0,1-1.55,0H8a11.28,11.28,0,0,1-1.54.11h-.2l-.32,0a.32.32,0,0,1-.18.14A1.15,1.15,0,0,1,5,6.44a.32.32,0,0,1-.18-.2A9.28,9.28,0,0,1,3.44,6C3.08,5.84,3.1,5.23,3.52,5.26Z"/><path class="cls-15" d="M3,2.41A25.33,25.33,0,0,0,5.28,1.27,10.85,10.85,0,0,1,7.93.73a6.5,6.5,0,0,1,2.56.1,4.84,4.84,0,0,1,1.2.5c.35.19.75.61,1.17.44s.62.5.2.67l-.31.12c-.1,0-.14,0-.11.18a2.75,2.75,0,0,0-.08.65,10.21,10.21,0,0,0,0,1.24.34.34,0,0,1-.33.34l-.12,0L12,5c-.18.1-.35,0-.55,0a13,13,0,0,1-2.07,0c-1,0-2.06,0-3,.11l-1.43.11c-.32,0-.65.08-.84-.22a5,5,0,0,1-.33-1.21,1.16,1.16,0,0,0-.78-.81A.35.35,0,0,1,3,2.41Z"/><path class="cls-1" d="M5.2,6.74c.07-.21.16-.24.37-.27.48-.06.81-.41,1.29-.51a3.47,3.47,0,0,1,1.5.14c.4.09.72-.14,1.05-.17a2.48,2.48,0,0,0,.76-.13l.74.88c-.15.1-.3.19-.44.3a4.36,4.36,0,0,0-.4.35,3.44,3.44,0,0,0-.28.36,1.48,1.48,0,0,0-.13-.08,3.12,3.12,0,0,0-1.49-.08q-.86.1-1.71.15a1.36,1.36,0,0,1-.75-.08,1.68,1.68,0,0,1-.42-.42C5.16,7,5.12,7,5.2,6.74Z"/><line class="cls-16" x1="4.01" y1="5.3" x2="3.43" y2="3.15"/><line class="cls-16" x1="12.43" y1="4.97" x2="12.66" y2="2.65"/><path class="cls-16" d="M12.51,1.87c0,.28-2,.6-4.47.72s-4.5,0-4.51-.29S5.49.77,8,.65,12.5,1.6,12.51,1.87Z"/><path class="cls-16" d="M3.61,2.17a.6.6,0,0,0-.3.14A.51.51,0,0,0,3,2.39c-.18.09-.26.23-.2.31h0l0,0c0,.09.09.23.32.31a.77.77,0,0,0,.38,0,.68.68,0,0,0,.38.15.82.82,0,0,0,.36,0,.77.77,0,0,0,.35.1,1.08,1.08,0,0,0,.38,0,.83.83,0,0,0,.36.08.86.86,0,0,0,.39-.06.9.9,0,0,0,.37.07,1,1,0,0,0,.39-.07.92.92,0,0,0,.38.07,1,1,0,0,0,.36-.08.81.81,0,0,0,.37,0,.78.78,0,0,0,.22,0"/><path class="cls-16" d="M12.42,1.75a.52.52,0,0,1,.31.11.6.6,0,0,1,.34,0c.19.08.29.21.23.3h0l0,0c.06.08-.07.23-.3.33a.66.66,0,0,1-.36.09.75.75,0,0,1-.37.18.9.9,0,0,1-.36,0,.71.71,0,0,1-.34.13,1,1,0,0,1-.38,0,.73.73,0,0,1-.36.11.91.91,0,0,1-.38,0,.81.81,0,0,1-.37.11.77.77,0,0,1-.39,0,.86.86,0,0,1-.38.11,1,1,0,0,1-.36,0,.92.92,0,0,1-.37.08.67.67,0,0,1-.2,0"/><path class="cls-16" d="M7.77,3.31a.71.71,0,0,0,.31,0,.82.82,0,0,0,.32-.06"/><path class="cls-16" d="M8.69,6.22A1.35,1.35,0,0,1,9.59,6c1.34.06,1.48,1,1.48,1"/><path class="cls-16" d="M7.45,6l1.24.19"/><path class="cls-16" d="M8.73,7.23S7.55,6.93,7,6.82"/><path class="cls-16" d="M7.45,6C7,6,6.26,6,6.15,6.29s.38.42.38.42L7,6.82"/><path class="cls-16" d="M7.48,6h0"/><path class="cls-16" d="M6.67,7.19l-1,0s-.48,0-.4-.34c0-.13.16-.22.34-.28"/><path class="cls-16" d="M8.73,7.23l-2.06,0"/><path class="cls-16" d="M6.91,7.59h-1s-.47,0-.39-.35"/><path class="cls-16" d="M6.91,7.59c.7,0,2.88,0,3,0a2.71,2.71,0,0,1,.27-.22"/><path class="cls-16" d="M4.41,5.35l.64,0,8.58-.41a1.86,1.86,0,0,1-1.41.81"/><path class="cls-16" d="M3.83,6.05a1.92,1.92,0,0,1-1-.62L5,5.33"/><path class="cls-16" d="M10.77,6.28a2.25,2.25,0,0,0,1.42-.56L9,5.88,4.33,6.1a1.6,1.6,0,0,1-.5,0"/><path class="cls-16" d="M10.62,6.29h.15"/><path class="cls-16" d="M4.37,6.11A2.35,2.35,0,0,0,6,6.51h.16"/></g></g></svg>