<svg xmlns="http://www.w3.org/2000/svg" viewBox="0 0 11.08 15.74"><defs><style>.cls-1,.cls-7{fill:#f9b91a;}.cls-2{fill:#fff;}.cls-3{fill:#ee7349;}.cls-4{fill:#243d7e;}.cls-5{fill:none;}.cls-5,.cls-7{stroke:#22234a;stroke-linecap:round;stroke-linejoin:round;stroke-width:0.4px;}.cls-6{fill:#22234a;}</style></defs><g id="Layer_2" data-name="Layer 2"><g id="Layer_1-2" data-name="Layer 1"><path class="cls-1" d="M10.53,5.55a.67.67,0,0,0-.94-.07.64.64,0,0,0-.13.19L9.3,5.52A4.91,4.91,0,0,1,8.87,5a.36.36,0,0,1-.07-.1v0a.55.55,0,0,0,.09-.33.62.62,0,0,0-.28-.51c-.09-.45-.23-.89-.79-.86-.27,0-.48.2-.77.21s-.74,0-1.11,0c-.77,0-1.55-.08-2.32-.14-.26,0-.41.22-.44.44a5.41,5.41,0,0,1-.62,1.84.93.93,0,0,0-.86-.2.73.73,0,0,0-.48.9.9.9,0,0,0,.27.42,1.1,1.1,0,0,0,.21.14l.12,0v0a3.8,3.8,0,0,1,.26.49v0h0a.28.28,0,0,0,.05.16h0l0,.06a.32.32,0,0,0,.14.08.26.26,0,0,0,.22,0,.22.22,0,0,0,.09-.07h0l.07,0,.36.76.21.45a1.09,1.09,0,0,0,.27.42,1.28,1.28,0,0,0,.37.14.73.73,0,0,1,.26.2,1.51,1.51,0,0,1,.28.8.44.44,0,0,0,.31.31,14,14,0,0,0,2.05.24L7,12c.06.52.12,1,.22,1.56-.18.07-.35.16-.52.24a3.47,3.47,0,0,1-.67.38,1.38,1.38,0,0,1-.45,0l-.49,0c-.33,0-.65-.08-1-.13s-.65-.11-1-.18l-.24,0s0-.09,0-.14a1.19,1.19,0,0,0,0-.56.44.44,0,0,0-.54-.31c-.16.05-.22,0-.36.05,0-.13-.26-.12-.38-.17a.42.42,0,0,0-.29,0,.46.46,0,0,0-.27.2c-.07.17-.15.34-.21.52a1.42,1.42,0,0,0-.08.4A1.83,1.83,0,0,0,.7,14a1.84,1.84,0,0,0-.4.62c-.18.36,0,.94.5.89l.94-.08c.26,0,.52.16.79.2s.61-.11.92-.1.65,0,1,0c.65,0,1.3.09,2,.07a8.91,8.91,0,0,1,.89-.08,3.93,3.93,0,0,0,1,.06.44.44,0,0,0,.16-.06h.2a.44.44,0,0,0,.15,0h0a.43.43,0,0,0,.6-.5c-.24-.75-.48-1.5-.65-2.27a9.4,9.4,0,0,1-.21-1.18c0-.11,0-.23,0-.34h0a.2.2,0,0,1-.08-.08.21.21,0,0,1-.06-.1.64.64,0,0,1,0-.2v0a.34.34,0,0,1,0-.1v0l0-.09h0l.06-.08h0l.08-.06h0l.06,0,.05,0a.3.3,0,0,1,.13,0h0c.41-.47,1-1,.92-1.65a.82.82,0,0,1,0-.44,2.77,2.77,0,0,0,.15-.49.72.72,0,0,0-.05-.47h0L10,7.09a1.56,1.56,0,0,0,.44-.41A.91.91,0,0,0,10.53,5.55Z"/><path class="cls-2" d="M5.5,5a.86.86,0,0,0-.82-.35,1.2,1.2,0,0,0-.4.18A.78.78,0,0,0,4,5.1a.6.6,0,0,0,0,.58.43.43,0,0,0,.34.19h.08a.27.27,0,0,0,.2,0l.2,0h.17c.12,0,.25,0,.38,0a.41.41,0,0,0,.38-.46A.74.74,0,0,0,5.5,5Z"/><path class="cls-2" d="M7.53,4.87a.48.48,0,0,0-.34-.13l0,0a.82.82,0,0,0-.37-.13.76.76,0,0,0-.42.09.83.83,0,0,0-.27.19.69.69,0,0,0-.2.25.54.54,0,0,0-.08.3A.42.42,0,0,0,6,5.75a.5.5,0,0,0,.37.15l.13,0h0a.46.46,0,0,0,.34,0s.05,0,.08-.06a.37.37,0,0,0,.21.06.47.47,0,0,0,.43-.32l.07-.22A.43.43,0,0,0,7.53,4.87Z"/><polygon class="cls-3" points="6.66 13.83 6.66 13.83 6.66 13.83 6.66 13.83 6.66 13.83"/><path class="cls-3" d="M6.66,13.83s.06,0,0,0Z"/><path class="cls-3" d="M7.21,13a6.74,6.74,0,0,1-.15-.88,5.25,5.25,0,0,1,0-1c0-.32-.3-.47-.56-.43a4.78,4.78,0,0,1-1,0,3.86,3.86,0,0,0-1,0,.51.51,0,0,0,0-.13,2.29,2.29,0,0,0-.28-.86,1,1,0,0,0-1-.42,1.27,1.27,0,0,0-.8.58,4.41,4.41,0,0,0-.42,1A.2.2,0,0,0,2,11l0,.05-.83,1a.29.29,0,0,0,.06.46.35.35,0,0,0,.3,0l.07,0a.52.52,0,0,0,.11.1,1.61,1.61,0,0,0,.86.2H3c-.09.3-.23.7.11.9s.55.06.81.11l.82.21a7.23,7.23,0,0,0,.81.15,1,1,0,0,0,.9-.19l.21-.21h0l.17-.06A.63.63,0,0,0,7.21,13Z"/><path class="cls-3" d="M9.56,11.63a.25.25,0,0,0-.05-.15,1.22,1.22,0,0,0,0-.27,1.84,1.84,0,0,0-.19-.51.62.62,0,0,0,0-.13.47.47,0,0,0-.77-.21.94.94,0,0,0-.09.12.61.61,0,0,0-.07.1.65.65,0,0,0-.07.47,1.17,1.17,0,0,0,.12.31l.1.22.05.06a.45.45,0,0,0,.19.52h0A10.53,10.53,0,0,1,9,13.47a.29.29,0,0,0,.29.3.31.31,0,0,0,.3-.29Z"/><path class="cls-4" d="M3.24,8.64h0Z"/><path class="cls-5" d="M9.4,5.75a.74.74,0,0,1,.88-.45s.51.13.44.85-.72.79-.83,1.24a.54.54,0,0,0,0,.11.33.33,0,0,1,0,.19"/><path class="cls-5" d="M10.17,5.8a.82.82,0,0,1-.26.48,1.09,1.09,0,0,0-.23.28"/><path class="cls-5" d="M10.24,6.38a.55.55,0,0,1-.38,0"/><path class="cls-5" d="M10.06,6.39a.39.39,0,0,0,0,.22"/><path class="cls-5" d="M7.15,15.26a.42.42,0,0,1-.3-.07"/><path class="cls-5" d="M7.28,14.34s.32.62.5,1"/><path class="cls-5" d="M8.29,14l-.07-.15a.67.67,0,0,0-.86-.26"/><path class="cls-5" d="M8.56,14.55,8.29,14"/><path class="cls-5" d="M7.36,13.54c-.6.28-1.27.69-1.52.79"/><path class="cls-5" d="M7.12,15.28a.6.6,0,0,0,0,.22"/><path class="cls-5" d="M8.36,14.1l.54,1.22a.4.4,0,0,1,0,.12"/><path class="cls-5" d="M6.93,15.53l.2-.1"/><path class="cls-5" d="M7.78,15.36a.44.44,0,0,1,0,.15"/><path class="cls-5" d="M8.34,15.48a.16.16,0,0,0,0-.15l-.49-1.15"/><path class="cls-5" d="M9.46,6.88a3.42,3.42,0,0,1-.13.34l0,0"/><path class="cls-5" d="M3.57,9.25a10.73,10.73,0,0,1-1-1.85c0-.07-.08-.18-.13-.33"/><path class="cls-5" d="M5.8,14.33l-3-.59a2,2,0,0,0-.65.66"/><path class="cls-5" d="M7.57,8.83a1,1,0,0,0-.68.3,1.06,1.06,0,0,0-.33.71.75.75,0,0,0,.4.75"/><path class="cls-5" d="M7.6,8c0,.34,0,.79,0,.79"/><path class="cls-5" d="M8.35,8.85s0-.57,0-1"/><path class="cls-5" d="M8.57,8.66v-.6c0-.31.12-.89.41-1s.29.3.29.3,0,1.11,0,1.35a.65.65,0,0,1-.16.38l-.41.4"/><path class="cls-5" d="M7.6,8.06c0-.32.13-.92.43-1s.3.52.31.79"/><line class="cls-5" x1="8.23" y1="8.97" x2="8.57" y2="8.66"/><path class="cls-5" d="M9.3,7.36a.24.24,0,0,1,.13-.07c.29-.06.29.3.29.3s0,1.11,0,1.35a.65.65,0,0,1-.16.38L8.25,10.54"/><path class="cls-5" d="M.5,15.49c-.23,0-.39-.29-.24-.69.41-1,1-2.2,1-2.2"/><path class="cls-5" d="M2.25,10.3c.41-.76,1-1.21,1.59-1s.77,1,.55,1.82"/><line class="cls-5" x1="9.23" y1="13.75" x2="9.17" y2="14.07"/><path class="cls-5" d="M8.73,10.11c.5.1.79.66.81,1.38"/><line class="cls-5" x1="3.02" y1="12.92" x2="2.75" y2="13.74"/><line class="cls-5" x1="9.06" y1="13.73" x2="9.34" y2="14.74"/><path class="cls-5" d="M7.79,10.6a3.68,3.68,0,0,1,.46-.06l.81,3.19"/><line class="cls-5" x1="7.01" y1="10.63" x2="7.2" y2="13.54"/><path class="cls-5" d="M4.52,10.62A8.15,8.15,0,0,0,6,10.74a8.12,8.12,0,0,0,1,0"/><path class="cls-5" d="M3.47,12.82a3.25,3.25,0,0,1-1.35,0C1.48,12.7,1,12.56,1,12.47"/><path class="cls-5" d="M9.08,13.7c.3,0,.53,0,.53,0l-.07-2.16"/><line class="cls-5" x1="0.99" y1="12.47" x2="2.25" y2="10.3"/><line class="cls-5" x1="3.47" y1="12.82" x2="3.84" y2="11.53"/><path class="cls-5" d="M8.59,3.2a4.55,4.55,0,0,1-2.83.71,5.58,5.58,0,0,1-2.82-.57"/><path class="cls-5" d="M8.29,3.56A3.83,3.83,0,0,0,9.47,5.62"/><path class="cls-5" d="M2.58,5.71a.75.75,0,0,0-.88-.45s-.51.11-.46.84.72.8.82,1.25a.54.54,0,0,1,0,.11s0,.31.27.29a.27.27,0,0,0,.22-.12"/><path class="cls-5" d="M1.8,5.75a.87.87,0,0,0,.26.49,1.27,1.27,0,0,1,.22.28"/><path class="cls-5" d="M1.73,6.33a.54.54,0,0,0,.38,0"/><path class="cls-5" d="M1.91,6.35a.54.54,0,0,1,0,.22"/><path class="cls-5" d="M3.4,3.54a4.4,4.4,0,0,1-.89,2"/><path class="cls-5" d="M9.11,2.55S8.79.22,5.78.2A3.11,3.11,0,0,0,2.53,2.63"/><path class="cls-5" d="M1.43,6.67c0,.34,0,.64,0,.89"/><path class="cls-5" d="M2.53,2.63a4.44,4.44,0,0,0-1,2.7"/><path class="cls-5" d="M1.51,8.28s0-.28-.06-.72"/><path class="cls-5" d="M1.44,7.24A1.46,1.46,0,0,0,.75,8.32c-.07.74.34,1.83,1.91,1.4"/><path class="cls-5" d="M10.2,7.07c0,.2,0,.38,0,.54"/><path class="cls-5" d="M9.11,2.55a4.63,4.63,0,0,1,1,2.63"/><path class="cls-5" d="M10.11,8.33s0-.28.07-.72"/><path class="cls-5" d="M10.2,7.28a1.46,1.46,0,0,1,.67,1.09A1.29,1.29,0,0,1,9.14,9.8"/><path class="cls-5" d="M9,15.48c.09,0,.54,0,.36-.74"/><path class="cls-5" d="M6.53,7.79a2.71,2.71,0,0,1-2.47-.21"/><line class="cls-5" x1="4.05" y1="5.86" x2="7.6" y2="5.92"/><path class="cls-6" d="M7.64,5.61a.26.26,0,0,0-.08-.13h0a.18.18,0,0,0-.09-.06.25.25,0,0,0-.24,0,.18.18,0,0,0-.09.06l0,.06a.28.28,0,0,0,0,.15v.08a.37.37,0,0,0,.07.14h0a1,1,0,0,0,.43,0l.05-.06a.29.29,0,0,0,0-.16Z"/><path class="cls-6" d="M5.59,5.52a.18.18,0,0,0-.06-.09l-.1-.07a.2.2,0,0,0-.11,0H5.24a.31.31,0,0,0-.14.07l0,.06a.42.42,0,0,0,0,.16H5a.2.2,0,0,0,0,.11.24.24,0,0,0,.16.16.2.2,0,0,0,.11,0h.08a.29.29,0,0,0,.14-.08l0-.06a.3.3,0,0,0,0-.15h0A.27.27,0,0,0,5.59,5.52Z"/><path class="cls-5" d="M6.91,15.23a1.28,1.28,0,0,1-.94.31"/><path class="cls-5" d="M4.14,6.07a1,1,0,0,1-.24-.64,1,1,0,1,1,.94,1,1,1,0,0,1-.38-.08"/><path class="cls-5" d="M7,6.37a.58.58,0,0,1-.19,0,.95.95,0,1,1,.62-.23"/><path class="cls-7" d="M6.69,6.5a.86.86,0,1,1-.85-.87A.86.86,0,0,1,6.69,6.5Z"/><path class="cls-6" d="M3.29,8.81A1.43,1.43,0,0,1,3,8.4L2.82,8a.46.46,0,0,0-.13-.21.3.3,0,0,0-.39,0h0a.28.28,0,0,0-.18,0L2.07,7.6a1.81,1.81,0,0,0-.2-.5.3.3,0,0,0-.54.22l0,.14h0a.88.88,0,0,0-.58.66A2,2,0,0,0,.76,9a1,1,0,0,0,.55.72,1.45,1.45,0,0,0,.51,0h.53a.47.47,0,0,0,.32-.14,1.14,1.14,0,0,1,.15-.16.89.89,0,0,1,.34-.16A.29.29,0,0,0,3.29,8.81Z"/><path class="cls-6" d="M10.09,4.68a4.28,4.28,0,0,0-1-2.21h0c.06-.43-.36-.93-.63-1.21a3.08,3.08,0,0,0-1-.73A4.23,4.23,0,0,0,4.66.32a2.62,2.62,0,0,0-1.31.88,4.62,4.62,0,0,0-.45.64,1.36,1.36,0,0,0-.26.64,3,3,0,0,0-.59.78,3.07,3.07,0,0,0-.2.5,1,1,0,0,0-.07.56.91.91,0,0,0-.21.37.45.45,0,0,0,.54.55h.06l0,0a.44.44,0,0,0,.53.08A.45.45,0,0,0,3,4.86a.08.08,0,0,1,0,0,.11.11,0,0,1,0-.05l0-.1,0,0,0,0L3.26,4a2.72,2.72,0,0,0,.18-.55,2.44,2.44,0,0,0,.85.23c.2,0,.4,0,.59,0l.15,0a4.68,4.68,0,0,0,1,0l.21,0A1.51,1.51,0,0,0,7,3.77l.26-.08c.1,0,.22,0,.32,0a.72.72,0,0,0,.33-.21l.06,0,.21-.08a.56.56,0,0,0,.16.47l.07.08h0a.43.43,0,0,0,0,.07c.05.09.1.18.14.27A3.39,3.39,0,0,0,9,5.13a.63.63,0,0,0,.35.27.62.62,0,0,0,.38,0A.59.59,0,0,0,10.09,4.68Z"/><path class="cls-6" d="M10.28,7.34a.32.32,0,0,0-.36,0,.3.3,0,0,0-.13.34,2.28,2.28,0,0,1,.06.64.31.31,0,0,0,0,.25v0h0a.17.17,0,0,1,0,.07.81.81,0,0,1,0,.16s0,0,0,0a.24.24,0,0,1,0,.08.74.74,0,0,1,0,.14l0,0,0,0-.08.13-.07.08-.11.11a.29.29,0,0,0,.2.5.68.68,0,0,0,.43-.17,3.88,3.88,0,0,0,.33-.23,1.29,1.29,0,0,0,.39-.7A1.49,1.49,0,0,0,10.28,7.34Z"/></g></g></svg>