<svg xmlns="http://www.w3.org/2000/svg" viewBox="0 0 32.41 41.16"><defs><style>.cls-1{fill:#9ad4e1;}.cls-2{fill:#f9b91a;}.cls-3,.cls-8{fill:#ee7349;}.cls-4{fill:#fff;}.cls-5{fill:#0071b9;}.cls-6{fill:none;}.cls-10,.cls-6,.cls-8,.cls-9{stroke:#22234a;stroke-linecap:round;stroke-linejoin:round;}.cls-6,.cls-8,.cls-9{stroke-width:0.4px;}.cls-10,.cls-7{fill:#22234a;}.cls-9{fill:#bee4f4;}.cls-10{stroke-width:0.4px;}</style></defs><g id="Layer_2" data-name="Layer 2"><g id="Layer_1-2" data-name="Layer 1"><path class="cls-1" d="M10.63,12.61a2.67,2.67,0,0,0-.57.16c-.42.1-.84.15-1.27.23-.62.11-1.22.31-1.83.47a1.33,1.33,0,0,0-.21,0,1.57,1.57,0,0,0-.81.16,3.78,3.78,0,0,0-.57.1,6.86,6.86,0,0,0-.78.2l-1.82.22a.37.37,0,0,0-.26.15l-1.16-.11c-.45-.06-.45.65,0,.7A12.74,12.74,0,0,0,4,15a.36.36,0,0,0,.34-.34.32.32,0,0,0,.17,0l.18-.05.09,0h0a.36.36,0,0,0,.27,0h0c.26,0,.52-.06.77-.11a.83.83,0,0,0,1,0A.31.31,0,0,0,7,14.2H7l.39.09a2.36,2.36,0,0,0,1.12,0,17.9,17.9,0,0,0,1.72-.8,4,4,0,0,0,.57-.16A.35.35,0,0,0,10.63,12.61Z"/><path class="cls-1" d="M31.5,13.08a36.53,36.53,0,0,1-4.68.08,41.78,41.78,0,0,1-4.74-.33c-.44-.07-.64.57-.19.68.94.23,1.76.67,2.72.81a.37.37,0,0,0,.39-.53h.08a.38.38,0,0,0,.34.38,8.13,8.13,0,0,0,1.56,0h.1a11.42,11.42,0,0,0,1.55.08h.52a.28.28,0,0,0,.18.14,1.12,1.12,0,0,0,.72-.09.29.29,0,0,0,.18-.2,9,9,0,0,0,1.36-.32C32,13.66,31.92,13,31.5,13.08Z"/><path class="cls-2" d="M10.43,10.24c.16-.22.09-.63-.25-.61-.57,0-1-.46-1.6-.57A7.38,7.38,0,0,0,6.7,9a13.82,13.82,0,0,0-1.92.25,2.93,2.93,0,0,0-1.44.5,5.57,5.57,0,0,0-1.76.87A1.51,1.51,0,0,0,1,11.4a1.34,1.34,0,0,0-.39-.07.35.35,0,0,0-.1.69,2.09,2.09,0,0,0,.34.08c.4.21.3.91.62,1.25a.35.35,0,0,0,.13.08c0,.14.07.28.09.43a.34.34,0,0,0,.61.11h0a3.09,3.09,0,0,0,1.44-.19l0,0A8.8,8.8,0,0,0,6,13.53a13.49,13.49,0,0,1,3.73-.68.35.35,0,0,0,.35-.35l0-1.21a1.44,1.44,0,0,1,0-.55A2.69,2.69,0,0,1,10.43,10.24Z"/><path class="cls-2" d="M32,10.21a22.86,22.86,0,0,1-2.3-1.08A10.93,10.93,0,0,0,27,8.65a6.44,6.44,0,0,0-2.55.16,5.13,5.13,0,0,0-1.2.52c-.34.2-.73.63-1.15.47s-.61.52-.19.68l.31.11c.11,0,.14.05.11.18a2.31,2.31,0,0,1,.1.64,10.31,10.31,0,0,1,.07,1.24A.79.79,0,0,0,23,13H23c.18.1.35,0,.55,0a11.81,11.81,0,0,0,2.06,0c1,0,2.07,0,3.05.05l1.44.07c.31,0,.65.07.83-.24a5,5,0,0,0,.3-1.22,1.14,1.14,0,0,1,.76-.82A.36.36,0,0,0,32,10.21Z"/><path class="cls-3" d="M11.93,17.81a34.86,34.86,0,0,1-2.71-2.59s-.93-1-.93-1-1.1-.18-1.16-.13a.78.78,0,0,1-.26.07.43.43,0,0,1-.14.16,1.61,1.61,0,0,1-1,.14,8.23,8.23,0,0,0-1.11,0,1.11,1.11,0,0,0-.47.14A1,1,0,0,0,4,14.9a1.31,1.31,0,0,1-.77.47.8.8,0,0,0,.5.79,1.08,1.08,0,0,0,.39.07.41.41,0,0,1,.27-.11c.35,0,.71,0,1.07-.07a7.36,7.36,0,0,0,.91-.19,8,8,0,0,1,1-.15c.24,0,.56-.09.74.13a.52.52,0,0,1,.1.23h0q1.5,2,2.95,4a.46.46,0,0,0,.16.15,3.8,3.8,0,0,0,.18.47c.09.19.33.1.39-.05.12-.31.26-.61.4-.91s.32-.54.43-.83C12.91,18.47,12.22,18,11.93,17.81Z"/><path class="cls-3" d="M20.39,15.4a1.07,1.07,0,0,0-.2-.32C20.08,15,20,15,19.85,15s-.31-.28-.53-.34h0a1.94,1.94,0,0,1-.06-.22c-.08-.24-.11-.5-.18-.74-.13-.46-.61-.66-1-.83a3.63,3.63,0,0,0-2.67-.15,2.91,2.91,0,0,0-1.77,1.71,8.05,8.05,0,0,0-.27.91.67.67,0,0,0-.59.3,1.43,1.43,0,0,0-.05,1,1.23,1.23,0,0,0,.35.72.81.81,0,0,0,.39.2.91.91,0,0,0,.21.43l.31.5c.2.32.4.64.58,1a4.12,4.12,0,0,1,.28,1.15c0,.18.24.25.39.22a2.46,2.46,0,0,1,.75.13,4.46,4.46,0,0,0,.82.06A2.34,2.34,0,0,0,18,20.62a.29.29,0,0,0,.34-.22,12.17,12.17,0,0,1,.76-1.92l.48-.91c.07-.14.14-.28.22-.41a1.39,1.39,0,0,1,.32-.32A1.35,1.35,0,0,0,20.39,15.4Z"/><path class="cls-4" d="M19.23,14.39a5.09,5.09,0,0,1-.14-.56L19,13.77l-.18-.1c-.08,0-.21-.08-.35-.13l-.33-.07-.07.09-.1.08-.12,0-.17,0h-.08a.48.48,0,0,1-.54.21L17,13.86h0c-.36-.2-.82-.47-1.18-.14a1.43,1.43,0,0,0-.44.93.9.9,0,0,0,.07.4.4.4,0,0,0,.17.17,1.21,1.21,0,0,0,.38.14l.45.1a1.4,1.4,0,0,0,.54,0,2.83,2.83,0,0,1,.71,0,1.54,1.54,0,0,0,1.08-.28,1.29,1.29,0,0,0,.51-.7Z"/><path class="cls-3" d="M23.83,17.44a3.43,3.43,0,0,0,.56-.64c.28-.45.49-1,1-1.23a3.14,3.14,0,0,1,1.49-.12c.58.06,1.14.1,1.72.11a1.24,1.24,0,0,0,.74-.09,1.86,1.86,0,0,0,.41-.43.36.36,0,0,0,.09-.45c-.08-.2-.17-.23-.38-.25-.49-.05-.82-.4-1.3-.49a3.49,3.49,0,0,0-1.5.18c-.4.1-.72-.13-1.05-.15a2.28,2.28,0,0,1-.77-.11c-.47.58-1.3,1.65-1.41,1.78q-.4.45-.84.87c-.62.59-1.25,1.16-1.88,1.74a.39.39,0,0,0-.1.16h0a.39.39,0,0,0-.21.06.28.28,0,0,0-.15.23.33.33,0,0,0,.08.27c0-.06,0,0,0,.05l.06.09a2.14,2.14,0,0,1,.13.19c.07.12.13.25.19.38s0,.07,0,.07l0,.09.06.18a3.6,3.6,0,0,1,.12.44.31.31,0,0,0,.12.18.22.22,0,0,0,.4.1l.42-.76a2.36,2.36,0,0,0,.56-.69c.23-.37.47-.74.73-1.1a1.07,1.07,0,0,1,.18-.15A1.54,1.54,0,0,1,23.83,17.44Z"/><path class="cls-4" d="M21.36,21.34A7.71,7.71,0,0,0,20.88,20a5.17,5.17,0,0,1-.54-1.17.33.33,0,0,0-.59-.08,5.43,5.43,0,0,0-.35.57,2.76,2.76,0,0,0-.92.81c-.09.15-.09.34-.23.45a1.44,1.44,0,0,1-.6.21,4.51,4.51,0,0,1-1.36.19A3.9,3.9,0,0,1,15,20.63a.37.37,0,0,0-.17-.05l0-.15c-.05-.26-.33-.41-.52-.57a6.73,6.73,0,0,1-.94-1.06.34.34,0,0,0-.56,0,1.28,1.28,0,0,0-.14.37.29.29,0,0,0-.14.15c-.29.62-.56,1.26-.81,1.9a.41.41,0,0,0,.16.45.34.34,0,0,0,.3.08h0a1.66,1.66,0,0,0,.62.35,2.84,2.84,0,0,1,.56.33c.06,0,0,.15.08.16l.6,4.31a.43.43,0,0,0,.42.43c1.44.08,2.89.07,4.33.05h.11a.45.45,0,0,0,.41-.32v0a.3.3,0,0,0,0-.26c.08-.66.12-1.32.18-2l.09-1.15a8.43,8.43,0,0,0,.06-1,18.31,18.31,0,0,1,1.59-1A.33.33,0,0,0,21.36,21.34Z"/><path class="cls-5" d="M22.58,39.14a.32.32,0,0,0,0-.14,0,0,0,0,1,0,0,.59.59,0,0,0-.14-.27.32.32,0,0,0,0-.13l-.05-.22A9.58,9.58,0,0,1,22,37.09a.24.24,0,0,1,0-.15c-.09-.33-.17-.66-.26-1v0c-.32-.9-.57-1.83-.83-2.74s-.57-1.86-.8-2.81c-.11-.45-.19-.91-.32-1.35a7.19,7.19,0,0,1-.31-1.19h0a.45.45,0,0,0-.64-.47,1.81,1.81,0,0,1-1,.09c-.35,0-.7.05-1,.05-.8,0-1.6-.07-2.39-.11a.43.43,0,0,0-.41.54.83.83,0,0,0,0,.12,8.84,8.84,0,0,1-.4,1.85c-.11.32-.24.63-.34,1a1.55,1.55,0,0,0-.07.23.26.26,0,0,1,0,.23,4.34,4.34,0,0,0-.08.52.39.39,0,0,1-.05.13v0c-.68,2-1,4.16-1.61,6.2a.64.64,0,0,0,0,.52l-.09.08a.48.48,0,0,0-.1.52.5.5,0,0,0,.44.3l.35,0h.27l.66.12a4.92,4.92,0,0,0,1.43.12c.25,0,.37-.23.35-.51s0-.4,0-.44a1.21,1.21,0,0,0,.12-.46.62.62,0,0,0,.09-.25c.07-.36.13-.71.2-1a.71.71,0,0,0,.15-.3c.21-.89.41-1.77.62-2.65a.77.77,0,0,0,0-.37c.16-.69.33-1.38.53-2.07a8.13,8.13,0,0,0,.29-1.18l.15,0a18.13,18.13,0,0,0,.89,3.46.38.38,0,0,0,0,.18c.27,1.52.59,3,.95,4.54A.67.67,0,0,0,19,39a2.8,2.8,0,0,0,.08.57.49.49,0,0,0,.59.34c.41-.1.83-.19,1.25-.27l.3-.05h.23a5.87,5.87,0,0,1,.59-.05s0,.05.06.06l.09,0h.14l.09,0a.32.32,0,0,0,.12-.08l.05-.07a.29.29,0,0,0,.05-.18Z"/><path class="cls-6" d="M19.64,17.52a2.55,2.55,0,0,1-.13.29c-.67,1.33-1.22,1.78-1.22,2.69"/><path class="cls-6" d="M19.79,15.17a4.5,4.5,0,0,1,.05,1.37,4.6,4.6,0,0,1-.2,1"/><path class="cls-6" d="M16.55,12.41a3.37,3.37,0,0,1,.69.07,3.11,3.11,0,0,1,2.55,2.69"/><path class="cls-6" d="M13.52,17.62c0,.08.06.15.07.19.53,1.4,1.2,1.81,1.2,2.72"/><path class="cls-6" d="M16.55,12.41a3.37,3.37,0,0,0-.69.07,3,3,0,0,0-2,1.16"/><line class="cls-6" x1="12.85" y1="18.65" x2="9.06" y2="15.07"/><path class="cls-7" d="M24.1,40.46a1.4,1.4,0,0,1-.41-.13l-.47-.14a6.5,6.5,0,0,0-.87-.12c-.32,0-.63,0-1,0a.78.78,0,0,1-.36-.1,1.06,1.06,0,0,0-.35-.18,2.61,2.61,0,0,0-.92.07h-.25l-.07,0h0a.19.19,0,0,0-.08.07.19.19,0,0,0-.05.09.35.35,0,0,0,0,.2l0,0a.24.24,0,0,0,.08.06v0l0,0a.28.28,0,0,0,0,.38v0a.28.28,0,0,0,.3.12h.09a.24.24,0,0,0,.15,0,5.24,5.24,0,0,1,1,0,5.68,5.68,0,0,0,1.16.1,4.71,4.71,0,0,1,.54,0,4.85,4.85,0,0,1,.53.08,1.92,1.92,0,0,0,1,0A.27.27,0,0,0,24.1,40.46Z"/><path class="cls-6" d="M21.56,41H19.45c-.13,0-.13-.14-.13-.14l.05-.93"/><path class="cls-6" d="M20.45,41h3.73s.29,0,.29-.18-.94-.89-3.52-.89v-.21"/><line class="cls-6" x1="17.05" y1="30.57" x2="19.15" y2="39.9"/><path class="cls-6" d="M19.15,39.9l3.46-.4s-2.74-9.24-3.33-12.17"/><path class="cls-6" d="M16.69,27.46a19.8,19.8,0,0,0,2.59-.13l.34-4.65a1.42,1.42,0,0,1-.31-.63"/><path class="cls-6" d="M17.91,30.39a3.21,3.21,0,0,1-1.06.18"/><path class="cls-7" d="M9.8,40.46a1.4,1.4,0,0,0,.41-.13l.47-.14a6.5,6.5,0,0,1,.87-.12c.32,0,.63,0,.95,0a.78.78,0,0,0,.36-.1,1.16,1.16,0,0,1,.35-.18,2.61,2.61,0,0,1,.92.07h.26l.06,0h0a.23.23,0,0,1,.07.07.19.19,0,0,1,0,.09.35.35,0,0,1,0,.2l0,0a.24.24,0,0,1-.08.06v0l0,0a.28.28,0,0,1,0,.38v0a.28.28,0,0,1-.3.12h-.09a.24.24,0,0,1-.15,0,5.24,5.24,0,0,0-1,0,5.62,5.62,0,0,1-1.16.1,4.71,4.71,0,0,0-.54,0,4.85,4.85,0,0,0-.53.08,1.92,1.92,0,0,1-1,0A.27.27,0,0,1,9.8,40.46Z"/><path class="cls-6" d="M12.34,41h2.11c.13,0,.13-.14.13-.14l-.05-.93"/><path class="cls-6" d="M13.45,41H9.72s-.29,0-.29-.18,1-.89,3.52-.89v-.21"/><line class="cls-6" x1="16.85" y1="30.57" x2="14.75" y2="39.9"/><path class="cls-6" d="M14.75,39.9l-3.45-.4s2.3-9.35,2.82-12.17"/><path class="cls-6" d="M16.72,27.46a19.88,19.88,0,0,1-2.6-.13s-.45-2.15-.71-4.8"/><path class="cls-6" d="M16,30.39a3.21,3.21,0,0,0,1.06.18"/><path class="cls-6" d="M8,15.71s2,3,3.79,5.26"/><line class="cls-6" x1="20.27" y1="18.6" x2="23.93" y2="15.07"/><path class="cls-6" d="M25.13,15.58s-2,3-3.8,5.28"/><path class="cls-8" d="M17.47,16.22a.62.62,0,0,1,.54-.47c.49,0,.59.47.62,1,0,.21,0,1.1-.56,1.14-.29,0-.43-.23-.51-.41"/><ellipse class="cls-6" cx="18.03" cy="16.87" rx="0.13" ry="0.22" transform="translate(-3.2 4.26) rotate(-12.39)"/><path class="cls-6" d="M18,16.39a.63.63,0,0,0-.12.45"/><path class="cls-7" d="M18.12,16.74l0,0,0,0a.06.06,0,0,0-.07,0,.07.07,0,0,0-.06,0v0a.06.06,0,0,0,0,.06L18,17s0,0,0,0l0,0a.11.11,0,0,0,.08,0l.06,0v0a0,0,0,0,0,0-.05Z"/><path class="cls-6" d="M11.75,21.56c-.11,0,.09-.76.46-1.6s.75-1.47.86-1.42"/><line class="cls-6" x1="13.07" y1="18.54" x2="14.77" y2="20.23"/><path class="cls-6" d="M11.75,21.56l1.66,1a3.25,3.25,0,0,0,.26-.61"/><path class="cls-6" d="M21.37,21.56c.11,0-.1-.76-.46-1.6s-.76-1.47-.87-1.42"/><line class="cls-6" x1="20.04" y1="18.54" x2="18.35" y2="20.23"/><line class="cls-6" x1="21.37" y1="21.56" x2="19.66" y2="22.64"/><path class="cls-6" d="M18.48,20.43a3.34,3.34,0,0,1-1.95.54,3.36,3.36,0,0,1-2-.54"/><path class="cls-6" d="M13.81,15.59a.78.78,0,0,0-.74-.27c-.54.15-.57.79-.46,1.25s.37,1,.89,1a.54.54,0,0,0,.45-.43"/><path class="cls-6" d="M13.29,15.84a.85.85,0,0,1,.12.33,4.73,4.73,0,0,0,.13.64"/><path class="cls-6" d="M13,16.27a.33.33,0,0,0,.4.11"/><path class="cls-6" d="M13.22,16.4a.33.33,0,0,1-.11.34"/><path class="cls-6" d="M19.79,14.91a.56.56,0,0,1,.19,0c.54.14.58.78.47,1.24a1.4,1.4,0,0,1-.66,1"/><path class="cls-6" d="M20,15.87a.39.39,0,0,1-.1.08"/><path class="cls-6" d="M19.89,16.27a.17.17,0,0,0,.06.06"/><path class="cls-6" d="M13.17,17.49s-.33,1.4.91,1.35"/><path class="cls-6" d="M20.05,17s.37,1.91-1,1.63"/><path class="cls-6" d="M13.87,13.68a2.42,2.42,0,0,0,.57.53c.38.25.12,1.42-.77,1.25"/><path class="cls-6" d="M14,13.47s-.94.06-1,1.85"/><path class="cls-6" d="M19.74,14.92s-.55-.19-.69-1.42"/><path class="cls-6" d="M18.9,13.34s.72,0,1.05,1.56"/><path class="cls-7" d="M19.9,14.56a8.28,8.28,0,0,0-.46-.89.2.2,0,0,0-.28-.08.22.22,0,0,0-.07.28c.06.1.11.2.16.3a.18.18,0,0,0,0,.22,2.3,2.3,0,0,0,.35.41.2.2,0,0,0,.26,0A.21.21,0,0,0,19.9,14.56Z"/><path class="cls-7" d="M20.05,17.09a.21.21,0,0,0-.24,0,.78.78,0,0,0-.18.32s0,.11,0,.16l0,.08,0,0h0a1.41,1.41,0,0,1-.18.29h0l0,.06,0,.06a1.3,1.3,0,0,0-.1.15.24.24,0,0,0,0,.08.2.2,0,0,0,.17.3.18.18,0,0,0,.11,0,.51.51,0,0,0,.31-.11.83.83,0,0,0,.27-.37,1.43,1.43,0,0,0,.09-.41l0-.23s0-.08,0-.11h0v-.08A.2.2,0,0,0,20.05,17.09Z"/><path class="cls-7" d="M14,18.61v0a.18.18,0,0,0-.11-.13h0l-.06,0h0a.78.78,0,0,0,0-.14l-.18-.56a.2.2,0,0,0-.19-.15.23.23,0,0,0-.2.15,1.13,1.13,0,0,0,0,.32h0a.68.68,0,0,0,.08.31s0,0,.06.05,0,0,.05,0a1.45,1.45,0,0,0,.09.22.41.41,0,0,0,.14.12l0,0,.06.06a.3.3,0,0,0,.16,0A.21.21,0,0,0,14,18.61Z"/><path class="cls-7" d="M14.29,14.13s0,0,0,0h0Z"/><path class="cls-7" d="M14.38,14.19l-.09-.06h0l0,0L14.19,14,14.13,14h0a1.3,1.3,0,0,0-.1-.15.3.3,0,0,0-.47-.06,1.81,1.81,0,0,0-.36.67l-.09.32A1.89,1.89,0,0,0,13,15a.37.37,0,0,0,.17.32.31.31,0,0,0,.23,0h0l0,0a.9.9,0,0,0,.4.08.53.53,0,0,0,.4-.15,1.37,1.37,0,0,0,.19-.3.91.91,0,0,0,.13-.38A.43.43,0,0,0,14.38,14.19Z"/><path class="cls-9" d="M20.81.49,14.51.2a.6.6,0,0,0-.62.56L13.57,7.9a.59.59,0,0,0,.56.61l4.16.19a4.68,4.68,0,0,1-.82,1.93,5.45,5.45,0,0,0,2.62-1.85h.34A.57.57,0,0,0,21,8.24l.33-7.14A.59.59,0,0,0,20.81.49Z"/><path class="cls-10" d="M15.45,3.62h0c0,.07,0,.12-.12.13s0,0-.07,0l0-.2c-.06-.55-.1-1.09-.16-1.63A2.33,2.33,0,0,0,15,1.5v0c0-.08.18-.08.19,0,.06.41.11,1,.16,1.38l0,.33a6.12,6.12,0,0,0,.15-.69.12.12,0,0,1,.1-.08.09.09,0,0,1,.09,0l.28.84c0-.52.16-1.4.22-1.87,0-.07.17-.07.17,0a2.5,2.5,0,0,1-.06.38c-.08.63-.13,1.26-.19,1.89,0,0,0,.06-.09.06h0c-.07,0-.07-.06-.09-.14l-.3-.93C15.59,3.11,15.5,3.34,15.45,3.62Z"/><path class="cls-10" d="M17.55,1.43c.53.09.37,1.36.32,1.75,0,.22-.16.59-.46.58-.53,0-.5-.94-.48-1.29S17,1.4,17.55,1.43Zm-.45,1c-.05.87.09,1.12.31,1.14s.34-.75.35-.93v0c0-.23,0-1.07-.29-1.08s-.34.48-.35.63A2.46,2.46,0,0,0,17.1,2.47Z"/><path class="cls-10" d="M19.19,1.53c.53.09.38,1.35.32,1.75,0,.22-.16.59-.46.57-.53,0-.5-.93-.48-1.28S18.66,1.49,19.19,1.53Zm-.45,1c0,.87.09,1.12.31,1.13s.34-.74.35-.93h0c0-.23,0-1.07-.28-1.09s-.35.48-.36.63A2.65,2.65,0,0,0,18.74,2.57Z"/><path class="cls-10" d="M14.9,6.34l-.05.84c0,.14-.17.08-.17,0s0-.61.05-.71.1-1.44.12-1.66c0,0,.05,0,.09,0s.06,0,.08.06c0,.29-.06.7-.08,1a2.72,2.72,0,0,0,0,.28.07.07,0,0,0,.06,0c.12,0,.23,0,.34,0,.05-.34.09-.92.11-1.3v0s0-.06.08-.06.07,0,.09.07,0,.25,0,.32a12.05,12.05,0,0,1-.18,2.06c-.11,0-.1-.13-.09-.33s0-.54,0-.59Z"/><path class="cls-10" d="M16.8,5c.53.09.38,1.36.33,1.75,0,.22-.17.59-.47.57-.53,0-.5-.93-.48-1.28S16.27,5,16.8,5Zm-.44,1c-.06.87.09,1.12.3,1.13s.34-.74.35-.92v0c0-.23,0-1.07-.29-1.08s-.35.48-.36.63S16.36,5.94,16.36,6Z"/><path class="cls-10" d="M18.44,5.07c.53.1.38,1.36.33,1.76,0,.21-.17.59-.47.57-.52,0-.5-.93-.47-1.28S17.92,5,18.44,5.07Zm-.44,1c-.05.88.09,1.13.3,1.14s.34-.74.36-.93h0c0-.23,0-1.07-.29-1.09S18,5.7,18,5.85,18,6,18,6.11Z"/><path class="cls-10" d="M19.55,7.34a.12.12,0,0,1,.12.15c0,.07-.07.07-.12.07s-.12,0-.11-.14S19.51,7.34,19.55,7.34Zm0-2.2c.05,0,.1,0,.1.06v.31c0,.61,0,1,0,1.6,0,0,0,.09-.06.08s-.09-.12-.09-.19V7c0-.68,0-1.1,0-1.79A.07.07,0,0,1,19.57,5.14Z"/><line class="cls-6" x1="31.02" y1="13.13" x2="31.54" y2="10.96"/><line class="cls-6" x1="22.59" y1="12.99" x2="22.31" y2="10.68"/><path class="cls-6" d="M22.44,9.9c0,.27,2,.55,4.48.61s4.5-.11,4.51-.39-2-1.48-4.48-1.55S22.44,9.62,22.44,9.9Z"/><path class="cls-6" d="M31.34,10a.56.56,0,0,1,.3.14.59.59,0,0,1,.35.06c.17.09.26.23.2.31h0l0,0c.06.08-.08.22-.31.31a.93.93,0,0,1-.38.06.67.67,0,0,1-.37.16,1,1,0,0,1-.36,0,.81.81,0,0,1-.36.1.86.86,0,0,1-.37,0,.83.83,0,0,1-.37.09.85.85,0,0,1-.38-.05.77.77,0,0,1-.38.08.84.84,0,0,1-.38-.06.92.92,0,0,1-.38.07,1,1,0,0,1-.37-.06.87.87,0,0,1-.36.06l-.22,0"/><path class="cls-6" d="M22.52,9.77a.56.56,0,0,0-.3.12.57.57,0,0,0-.35,0c-.18.08-.28.22-.22.3h0a0,0,0,0,0,0,0c-.06.08.07.23.3.33a.78.78,0,0,0,.37.08.64.64,0,0,0,.37.17.89.89,0,0,0,.36,0,.71.71,0,0,0,.34.12.79.79,0,0,0,.38,0,.77.77,0,0,0,.36.11.89.89,0,0,0,.38,0,.87.87,0,0,0,.38.1.85.85,0,0,0,.38-.05.87.87,0,0,0,.38.1.81.81,0,0,0,.37,0,1,1,0,0,0,.36.08l.2,0"/><path class="cls-6" d="M27.21,11.23a1.17,1.17,0,0,1-.31,0,1.22,1.22,0,0,1-.33-.06"/><path class="cls-6" d="M26.36,14.16a1.43,1.43,0,0,0-.92-.23C24.11,14,24,15,24,15"/><path class="cls-6" d="M27.59,13.94l-1.23.22"/><path class="cls-6" d="M26.34,15.16s1.17-.32,1.67-.44"/><path class="cls-6" d="M27.59,13.94c.4-.09,1.18-.1,1.3.23s-.37.43-.37.43l-.51.12"/><path class="cls-6" d="M27.56,13.94h0"/><path class="cls-6" d="M28.39,15.08l1,0s.47,0,.39-.35a.46.46,0,0,0-.35-.27"/><path class="cls-6" d="M26.34,15.16l2.05-.08"/><path class="cls-6" d="M28.16,15.49l1,0s.47,0,.39-.35"/><path class="cls-6" d="M28.16,15.49l-3,.09a3.08,3.08,0,0,0-.28-.22"/><path class="cls-6" d="M30.61,13.19H30L21.39,13a1.84,1.84,0,0,0,1.42.78"/><path class="cls-6" d="M31.21,13.88a1.88,1.88,0,0,0,1-.65L30,13.18"/><path class="cls-6" d="M24.27,14.26a2.22,2.22,0,0,1-1.43-.52l3.21.08,4.66.12a2,2,0,0,0,.5-.06"/><path class="cls-6" d="M24.42,14.27h-.15"/><path class="cls-6" d="M30.67,14a2.37,2.37,0,0,1-1.6.44h-.16"/><line class="cls-6" x1="1.78" y1="14.15" x2="0.94" y2="12.09"/><line class="cls-6" x1="10.09" y1="12.78" x2="10.03" y2="10.45"/><path class="cls-6" d="M9.79,9.7c.05.27-1.9.84-4.34,1.26S1,11.51.93,11.24s1.75-1.77,4.2-2.19S9.74,9.42,9.79,9.7Z"/><path class="cls-6" d="M1,11.1a.47.47,0,0,0-.27.17.58.58,0,0,0-.33.12c-.17.12-.24.27-.16.34h0l0,0c0,.09.12.21.36.26A.82.82,0,0,0,1,12a.65.65,0,0,0,.39.1,1.17,1.17,0,0,0,.36-.06,1.11,1.11,0,0,0,.36,0A.91.91,0,0,0,2.44,12a.8.8,0,0,0,.37,0A1,1,0,0,0,3.18,12a.92.92,0,0,0,.39,0,.94.94,0,0,0,.37-.12.94.94,0,0,0,.39,0,1.09,1.09,0,0,0,.35-.12.91.91,0,0,0,.37,0l.21,0"/><path class="cls-6" d="M9.68,9.59a.48.48,0,0,1,.32.07.52.52,0,0,1,.35,0c.2.05.31.17.26.26h0l0,0c.07.07,0,.24-.25.37a.8.8,0,0,1-.35.13.67.67,0,0,1-.34.23.8.8,0,0,1-.35.06.92.92,0,0,1-.33.17.84.84,0,0,1-.37,0,.77.77,0,0,1-.34.17,1.07,1.07,0,0,1-.39,0,.82.82,0,0,1-.35.15.74.74,0,0,1-.39,0,.75.75,0,0,1-.36.15.94.94,0,0,1-.37,0,.75.75,0,0,1-.35.13h-.2"/><path class="cls-6" d="M5.26,11.71a.8.8,0,0,0,.31,0,1.17,1.17,0,0,0,.32-.11"/><path class="cls-6" d="M6.53,14.49a1.42,1.42,0,0,1,.87-.37A1.4,1.4,0,0,1,9,15"/><path class="cls-6" d="M5.29,14.45l1.24,0"/><path class="cls-6" d="M6.7,15.48s-1.2-.15-1.72-.2"/><path class="cls-6" d="M5.29,14.45c-.42,0-1.19.07-1.26.42s.43.37.43.37l.52,0"/><path class="cls-6" d="M5.31,14.45h0"/><path class="cls-6" d="M4.66,15.7l-1,.11s-.47.06-.44-.29c0-.14.14-.25.3-.32"/><path class="cls-6" d="M6.7,15.48l-2,.22"/><path class="cls-6" d="M4.94,16.07l-1,.11s-.47.06-.43-.29"/><path class="cls-6" d="M4.94,16.07l3-.36a.9.9,0,0,1,.15-.23"/><path class="cls-6" d="M2.19,14.16l.62-.11,8.46-1.47a1.84,1.84,0,0,1-1.29,1"/><path class="cls-6" d="M1.7,14.92a1.93,1.93,0,0,1-1-.5l2.1-.36"/><path class="cls-6" d="M8.61,14.28A2.27,2.27,0,0,0,10,13.56l-3.16.55-4.59.8a1.69,1.69,0,0,1-.5,0"/><path class="cls-6" d="M8.47,14.31a.32.32,0,0,0,.14,0"/><path class="cls-6" d="M2.23,14.91a2.34,2.34,0,0,0,1.65.2l.16,0"/><path class="cls-7" d="M18.35,23.17a1.42,1.42,0,0,1-.14.68,1.1,1.1,0,0,1-.37.45,1.7,1.7,0,0,1-.56.26,3.1,3.1,0,0,1-.69.08v.92H15.35V21.7h1.24a3.1,3.1,0,0,1,.69.08,1.7,1.7,0,0,1,.56.26,1.17,1.17,0,0,1,.37.45A1.42,1.42,0,0,1,18.35,23.17Zm-1.76.43h.05a.49.49,0,0,0,.35-.11.46.46,0,0,0,.1-.32.43.43,0,0,0-.1-.31.45.45,0,0,0-.35-.12h-.05Z"/><path class="cls-8" d="M16.7,15.47a.88.88,0,0,1,0-.16.73.73,0,1,1,1.45,0,.72.72,0,0,1-.72.72.66.66,0,0,1-.28-.05"/><path class="cls-6" d="M16.63,15.36a.87.87,0,0,1-.28.05.92.92,0,1,1,.92-.92"/><path class="cls-6" d="M17.35,14.49a.93.93,0,1,1,.93.92h-.11"/><path class="cls-7" d="M16.35,14.17a.3.3,0,0,0,0,.6A.3.3,0,0,0,16.35,14.17Z"/><path class="cls-7" d="M18.32,14.17a.3.3,0,0,0,0,.6A.3.3,0,0,0,18.32,14.17Z"/></g></g></svg>