<svg xmlns="http://www.w3.org/2000/svg" viewBox="0 0 44.58 43.5"><defs><style>.cls-1{fill:#fff;stroke-width:0.4px;}.cls-1,.cls-2{stroke:#22234a;stroke-linecap:round;stroke-linejoin:round;}.cls-2{fill:#22234a;stroke-width:0.25px;}</style></defs><g id="Layer_2" data-name="Layer 2"><g id="Layer_1-2" data-name="Layer 1"><rect class="cls-1" x="0.2" y="0.2" width="44.18" height="43.1"/><path class="cls-2" d="M4.12,6.16,3.25,2.69H4.43L4.67,4c.07.41.13.77.21,1.2h0c.22-.43.42-.8.66-1.22l.76-1.29H7.56L5.26,6.16l-.39,2H3.73Z"/><path class="cls-2" d="M7.16,5.93A3.08,3.08,0,0,1,9.92,2.59,2,2,0,0,1,12,4.89,3.09,3.09,0,0,1,9.2,8.23,2,2,0,0,1,7.16,5.93Zm3.63-1c0-.87-.32-1.39-.93-1.39-.77,0-1.53,1-1.53,2.28,0,.86.32,1.38.93,1.38C10,7.24,10.79,6.23,10.79,5Z"/><path class="cls-2" d="M13.48,2.69h1.15l-.6,3A3.68,3.68,0,0,0,14,6.3c0,.62.22.94.83.94s.87-.39,1.06-1.4l.64-3.15H17.6L17,5.83c-.33,1.66-1,2.4-2.21,2.4a1.69,1.69,0,0,1-1.94-1.89,5.87,5.87,0,0,1,.11-.88Z"/><path class="cls-2" d="M19.68,6a3.13,3.13,0,0,1,2.9-3.36A1.62,1.62,0,0,1,24,3.45l-.77.61a.87.87,0,0,0-.73-.48c-.93,0-1.67,1.08-1.67,2.3,0,.84.33,1.36,1.14,1.36a1.48,1.48,0,0,0,.92-.41l.48.73a2.47,2.47,0,0,1-1.64.67A2,2,0,0,1,19.68,6Z"/><path class="cls-2" d="M26.3,2.69h1.36l.55,5.44H27l-.14-3c0-.53-.05-1-.06-1.61h0c-.23.56-.44,1.07-.7,1.61l-1.39,3H23.42ZM25.06,5.9h2.49l-.21.86H24.85Z"/><path class="cls-2" d="M29.84,2.69H31l.89,2.83.29,1.2h0a18,18,0,0,1,.22-2l.42-2.06H33.9L32.81,8.13H31.7L30.82,5.3l-.28-1.21h0a16.9,16.9,0,0,1-.24,2l-.41,2.08H28.76Z"/><path class="cls-2" d="M34.78,4.51a1.38,1.38,0,0,0,1-1l.06-.68.24.55A.58.58,0,0,1,35.09,3a.68.68,0,0,1,.7-.69c.37,0,.61.3.61.81A2,2,0,0,1,35,5Z"/><path class="cls-2" d="M38.44,3.65H37l.19-1h4l-.19,1H39.59L38.7,8.13H37.56Z"/><path class="cls-2" d="M5.23,9.45h2.4c3,0,4.81,1.41,4.81,4.28,0,4.29-2.5,6.6-6,6.6H3.05ZM6.4,18.5c2.09,0,3.69-1.46,3.69-4.63a2.29,2.29,0,0,0-2.52-2.58H7.15L5.71,18.5Z"/><path class="cls-2" d="M15.52,9.45H22l-.38,1.92H17.4l-.46,2.36H20.5l-.38,1.92H16.57L16,18.41h4.33L20,20.33H13.34Z"/><path class="cls-2" d="M24.32,9.45h2.21l1.78,5.67.58,2.39H29c.11-1.14.2-2.68.45-3.93l.83-4.13h2.18L30.25,20.33H28l-1.77-5.66-.56-2.41h-.07a38.41,38.41,0,0,1-.48,3.9l-.83,4.17H22.14Z"/><path class="cls-2" d="M35.48,16.39,33.74,9.45h2.37l.46,2.61c.15.83.27,1.54.42,2.4h.06c.46-.85.86-1.6,1.34-2.42L39.9,9.45h2.47l-4.6,6.94L37,20.33H34.7Z"/><path class="cls-2" d="M3.64,24.54,3,22.14h.82L4,23c.05.29.1.54.15.83h0c.16-.29.29-.55.46-.84l.53-.89H6l-1.59,2.4-.28,1.37H3.37Z"/><path class="cls-2" d="M5.75,24.38a2.13,2.13,0,0,1,1.91-2.31,1.4,1.4,0,0,1,1.42,1.59A2.14,2.14,0,0,1,7.16,26,1.39,1.39,0,0,1,5.75,24.38Zm2.52-.67c0-.6-.23-1-.65-1s-1.06.71-1.06,1.58c0,.6.22,1,.64,1S8.27,24.59,8.27,23.71Z"/><path class="cls-2" d="M10.13,22.14h.79l-.41,2.06a2.37,2.37,0,0,0,0,.44c0,.42.15.65.57.65s.6-.27.74-1l.44-2.18H13l-.44,2.17C12.31,25.46,11.82,26,11,26s-1.34-.42-1.34-1.3a4.57,4.57,0,0,1,.07-.61Z"/><path class="cls-2" d="M13.87,22.14h1.18c.74,0,1.29.26,1.29,1,0,1-.81,1.42-1.69,1.42h-.47l-.28,1.39h-.79Zm.84,1.76c.56,0,.84-.27.84-.68s-.22-.46-.63-.46h-.39l-.22,1.14Zm-.13.44.57-.51L16,25.91h-.83Z"/><path class="cls-2" d="M18.46,22.14h.79l-.63,3.1h1.43l-.13.67H17.7Z"/><path class="cls-2" d="M20.39,24.38a2.14,2.14,0,0,1,1.92-2.31,1.39,1.39,0,0,1,1.41,1.59A2.13,2.13,0,0,1,21.81,26,1.4,1.4,0,0,1,20.39,24.38Zm2.52-.67c0-.6-.22-1-.64-1s-1.07.71-1.07,1.58c0,.6.23,1,.65,1S22.91,24.59,22.91,23.71Z"/><path class="cls-2" d="M24.22,22.14h.83L25.14,24c0,.4,0,.81,0,1.21h0c.17-.4.34-.81.52-1.21l.84-1.85h.87L25.5,25.91h-1Z"/><path class="cls-2" d="M27.88,22.14h2.24L30,22.8H28.53l-.15.82h1.23l-.13.67H28.25l-.2.95h1.5l-.13.67H27.13Z"/><path class="cls-2" d="M32.07,22.14h2.24l-.13.66H32.72l-.18.93h1.23l-.12.66H32.42l-.31,1.52h-.79Z"/><path class="cls-2" d="M34.34,24.38a2.13,2.13,0,0,1,1.91-2.31,1.4,1.4,0,0,1,1.42,1.59A2.13,2.13,0,0,1,35.76,26,1.4,1.4,0,0,1,34.34,24.38Zm2.52-.67c0-.6-.23-1-.65-1s-1.06.71-1.06,1.58c0,.6.23,1,.65,1S36.86,24.59,36.86,23.71Z"/><path class="cls-2" d="M38.74,22.14h1.18c.74,0,1.29.26,1.29,1,0,1-.8,1.42-1.68,1.42h-.48l-.27,1.39H38Zm.84,1.76c.56,0,.85-.27.85-.68s-.22-.46-.63-.46h-.4l-.22,1.14Zm-.13.44.57-.51.82,2.08H40Z"/><path class="cls-2" d="M4.91,27.36H9.14c2.62,0,4.59,1,4.59,3.55,0,3.74-2.8,5.19-6.18,5.19H6l-.92,4.65H2.23Zm2.94,6.51c2,0,3.1-.87,3.1-2.54,0-1.21-.82-1.74-2.24-1.74H7.27l-.84,4.28Z"/><path class="cls-2" d="M16.89,27.36h2.82L17,40.75H14.22Z"/><path class="cls-2" d="M22.94,27.36h7.94l-.46,2.36H25.26l-.57,2.91h4.37L28.6,35H24.23l-.7,3.4h5.33l-.46,2.36H20.26Z"/><path class="cls-2" d="M30.6,38.48l2-1.58a3.73,3.73,0,0,0,3,1.7c1.14,0,1.93-.59,1.93-1.55,0-.71-.61-1.07-1.56-1.66l-1.27-.78a3.69,3.69,0,0,1-2-3.34,4.44,4.44,0,0,1,4.71-4.16,5.31,5.31,0,0,1,4.06,2L39.69,30.8a3.31,3.31,0,0,0-2.4-1.26A1.52,1.52,0,0,0,35.58,31c0,.69.63,1,1.68,1.68l1.32.8a3.32,3.32,0,0,1,1.87,3.19c0,2.43-2,4.35-5.07,4.35A5.75,5.75,0,0,1,30.6,38.48Z"/></g></g></svg>