<svg xmlns="http://www.w3.org/2000/svg" viewBox="0 0 13.78 30.94"><defs><style>.cls-1{fill:#0077bf;}.cls-2{fill:#007033;}.cls-3{fill:#fff;}.cls-4,.cls-8{fill:none;stroke-linecap:round;stroke-linejoin:round;stroke-width:0.4px;}.cls-4{stroke:#1c204d;}.cls-5{fill:#ea4827;}.cls-6{fill:#f9b730;}.cls-7{fill:#1c1d4c;}.cls-8{stroke:#1c1d4c;}</style></defs><g id="Layer_2" data-name="Layer 2"><g id="Layer_1-2" data-name="Layer 1"><path class="cls-1" d="M4.33,23.91l0,.05V24c0,.17-.35,4.72-.24,4.84a5,5,0,0,0,2.22.3A3.92,3.92,0,0,1,6.92,29H7a.75.75,0,0,1,.15,0h.09l.09,0a2.51,2.51,0,0,0,1.15.09.39.39,0,0,0,.27-.48v0c.2-.85.42-1.7.67-2.54.13-.43.26-.85.4-1.28a5.17,5.17,0,0,0,.33-1.27.42.42,0,0,0,0-.2c0-.05,0-.1.05-.15.13-.39.25-.78.37-1.18.25-.81.49-1.63.71-2.45a.55.55,0,0,0,0-.18.39.39,0,0,0,0-.48,1,1,0,0,1-.22-.42.38.38,0,0,0-.37-.28,8.22,8.22,0,0,1-1.4-.08L9.14,18a.77.77,0,0,0-.44-.14H8.35l-.13-.08A1.17,1.17,0,0,0,8,17.66H7.85s0,0,0,0a.39.39,0,0,0-.28,0H7.42a7.43,7.43,0,0,1-.77-.33c-.19-.09-.52,0-.56.23a4.76,4.76,0,0,1-.06,1c-.08.21-.17.41-.26.61a.27.27,0,0,1-.07-.08.83.83,0,0,0-.18-.13.29.29,0,0,0-.11-.11.46.46,0,0,0-.2,0,.35.35,0,0,0-.31.16H4.84a2.6,2.6,0,0,0-.21-.36.11.11,0,0,0-.09-.05.13.13,0,0,0-.09.07,1.45,1.45,0,0,0,0,.55l0,.07a.31.31,0,0,0,0,.1.3.3,0,0,0,0,.16,1.1,1.1,0,0,1,0,.54c0,.19,0,.38-.07.57a7,7,0,0,0,0,1.21v.06a.28.28,0,0,0,0,.21,1.88,1.88,0,0,1,0,.53,1.43,1.43,0,0,0-.08.22,1,1,0,0,0,0,.39C4.22,23.42,4.16,23.73,4.33,23.91Z"/><path class="cls-2" d="M5.51,29.78a.84.84,0,0,0,.22-.3.82.82,0,0,1,.15-.33c.22-.21.62-.12.89-.09a4.66,4.66,0,0,0,1,0,4.49,4.49,0,0,1,.9-.07,4.13,4.13,0,0,1,1.83.42c.24.14.5.29.57.57a.59.59,0,0,1-.28.69c-.28.14-.7-.09-.57-.44l0-.06a1.74,1.74,0,0,1-.2-.13,1.72,1.72,0,0,0-.48-.17,4.68,4.68,0,0,0-1.12-.11c-.34,0-.68.1-1,.09a4.89,4.89,0,0,1-.55-.05c-.12,0-.28-.05-.43-.05a.89.89,0,0,1-.08.17,1.48,1.48,0,0,1-.29.37C5.7,30.67,5.15,30.13,5.51,29.78Z"/><path class="cls-3" d="M10.79,29.78a3.16,3.16,0,0,0-.78-.53,3.53,3.53,0,0,0-2-.13.32.32,0,0,0-.18.1c-.35,0-.69,0-1-.07a.55.55,0,0,0-.6.33c-.09.25-.15.52-.22.78a.39.39,0,0,0,.47.48.52.52,0,0,0,.25-.14,2.89,2.89,0,0,0,1.49.07,6.84,6.84,0,0,0,.79,0c.34,0,.68,0,1,0s.69.13.94-.11S11,30,10.79,29.78Z"/><path class="cls-4" d="M5.93,30.28s-.18.38.39.39l4.33.07a.48.48,0,0,0,.49-.52C11.11,29.7,10,29,8.68,29a3.49,3.49,0,0,0-1.47.35"/><line class="cls-4" x1="8.67" y1="29.04" x2="11.33" y2="18.89"/><path class="cls-4" d="M11.13,30.35c-.07,0-5.2-.07-5.2-.07l.44-1.09"/><path class="cls-3" d="M8.76,29.75A3.16,3.16,0,0,0,8,29.22a3.44,3.44,0,0,0-2-.12.26.26,0,0,0-.18.09c-.35,0-.69-.05-1-.07a.55.55,0,0,0-.6.33c-.09.25-.15.52-.22.78a.39.39,0,0,0,.47.48.6.6,0,0,0,.25-.13,3,3,0,0,0,1.49.06,6.84,6.84,0,0,0,.79.05c.34,0,.68,0,1,0s.69.13.94-.11S9,30,8.76,29.75Z"/><path class="cls-4" d="M3.9,30.25s-.18.39.39.39l4.33.07a.48.48,0,0,0,.49-.52c0-.52-1.17-1.21-2.46-1.18a3.49,3.49,0,0,0-1.47.35"/><path class="cls-4" d="M6,29.08c-.3,0-2,0-2,0l.41-10.82"/><line class="cls-4" x1="6.58" y1="29.01" x2="8.86" y2="20.64"/><path class="cls-4" d="M9.1,30.32c-.07,0-5.2-.07-5.2-.07l.44-1.09"/><path class="cls-4" d="M10.08,20.66a6.69,6.69,0,0,1-2.19-.32"/><path class="cls-5" d="M4.69.9a.4.4,0,0,1,.15,0,5.77,5.77,0,0,1,.7-.36A4.47,4.47,0,0,1,8.05.35a3.72,3.72,0,0,1,2.14,1.48A2.34,2.34,0,0,1,10.64,3a1.74,1.74,0,0,1,0,.72,1.39,1.39,0,0,1,0,1.11c0,.07,0,.15-.08.22s0,0,0,0a.89.89,0,0,0,0,.23,1.31,1.31,0,0,1-.22.77,4.94,4.94,0,0,1-1,2.28A3.9,3.9,0,0,1,10,9a1,1,0,0,1,.24.45,4.11,4.11,0,0,1,.51.34,2.32,2.32,0,0,1,.64,1.13,3,3,0,0,1,.14.94l.12.05a2.45,2.45,0,0,1,.72.52,1.85,1.85,0,0,1,.58,1.5,1.15,1.15,0,0,1-.28.66,3.29,3.29,0,0,1,.76,1,1.78,1.78,0,0,1,0,1.34.71.71,0,0,1-.06.24,2.43,2.43,0,0,1-.5.7.59.59,0,0,1-.41.21,2.09,2.09,0,0,1-.11,1.3c.15.13.25.29.4.44a.66.66,0,0,1,.19.38,1.85,1.85,0,0,1,.26.77,3.65,3.65,0,0,1,0,1c0,.29.25.75.09.89a15.31,15.31,0,0,1-1.09,2c-.24.16-1.59.75-1.84.89s-.9.07-1.18.27A7.51,7.51,0,0,1,7.6,26c-.19.16-.54-.15-.77-.17h0a2.55,2.55,0,0,1-.73.06l-.15,0a1.93,1.93,0,0,1-.53.11,2.06,2.06,0,0,1-.94-.25l-.06,0c-.26,0-.51,0-.77,0H3.48a.16.16,0,0,0-.13-.16,5.75,5.75,0,0,1-1.62-.68c-.29-.16-.61-.32-.71-.66C1,24,.67,23.86.59,23.71a4.76,4.76,0,0,1,.08-.66A6.86,6.86,0,0,1,1,21.58a2.14,2.14,0,0,1,.6-.8,4.46,4.46,0,0,1-.4-.75A2.61,2.61,0,0,1,1,19.36a1.86,1.86,0,0,1,.05-.48,2.21,2.21,0,0,1,.05-.63c0-.06,0-.13.08-.18h0a1.74,1.74,0,0,1-.82-.83,1.14,1.14,0,0,1-.09-1.14s0-.07,0-.11a2.86,2.86,0,0,1,.43-1.06.47.47,0,0,1,.13-.15A1.36,1.36,0,0,1,1,14.53a1.53,1.53,0,0,1-.35-.68,1.27,1.27,0,0,1,.07-.8v0a1.24,1.24,0,0,1,.56-1,2.71,2.71,0,0,1,.51-.43l.14-.11s0,0,.05,0a2.85,2.85,0,0,1,.51-2.13A1.81,1.81,0,0,1,4,8.64a8.49,8.49,0,0,1-.31-.89c-.09-.31-.16-.63-.27-.94s-.24-.68-.33-1a.65.65,0,0,1,0-.31h0A3.45,3.45,0,0,1,3,4.08a7,7,0,0,1,.13-.8c0-.11.06-.22.09-.33V2.9a1.67,1.67,0,0,1,.19-.57.47.47,0,0,1,.09-.12A1.94,1.94,0,0,1,4.69.9Z"/><path class="cls-6" d="M5.68,3.7a2.46,2.46,0,0,0,.89.12l1,0c.31,0,.62.06.93.07a4.38,4.38,0,0,1,.81,0A.52.52,0,0,1,10.1,4c.1.16,0,.32,0,.5s-.11.19-.09.3a2.17,2.17,0,0,1-.28,1.14,11.06,11.06,0,0,1-.5,1.11,8.26,8.26,0,0,1-.79,1,4.43,4.43,0,0,1-.61.69c-.31.25-.68,0-.89-.22a3.81,3.81,0,0,1-.24-.32A.36.36,0,0,1,6.55,8c-.08-.14-.17-.28-.26-.41h0a3.5,3.5,0,0,1-.66-1,.3.3,0,0,1,0-.15c-.09-.16-.17-.32-.25-.48a2.83,2.83,0,0,1-.2-1,4.36,4.36,0,0,1,0-.51,4.17,4.17,0,0,1,0-.5A.37.37,0,0,1,5.68,3.7Z"/><path class="cls-3" d="M8.61,3.92a.31.31,0,0,1,.25,0L8.94,4h0a.62.62,0,0,0,.38,0A.23.23,0,0,1,9.5,4a.25.25,0,0,1,.15,0,.18.18,0,0,1,0,.24,0,0,0,0,1,0,0v0a.35.35,0,0,1,0,.13.71.71,0,0,1-.29.28h0a.87.87,0,0,1-.64.1.28.28,0,0,1-.19-.37v0a.41.41,0,0,0,0-.09C8.39,4.18,8.42,4,8.61,3.92Z"/><path class="cls-3" d="M6.2,3.77a4.87,4.87,0,0,0,.55.06c.2,0,.41,0,.62,0s.17.25.06.34l-.09.11a.51.51,0,0,1-.15.29.61.61,0,0,1-.74.11A.9.9,0,0,1,6,4,.2.2,0,0,1,6.2,3.77Z"/><path class="cls-7" d="M5.26,3.29a.28.28,0,0,0,.19.4,5,5,0,0,0,.94.09c.36,0,.72.06,1.08.06.74,0,1.47.08,2.21.09h0a.27.27,0,0,0,.46-.21A1.51,1.51,0,0,0,10,3.15s-.05-.06-.05-.08a1.45,1.45,0,0,0-.68-1,2.69,2.69,0,0,0-1.42-.51A2.62,2.62,0,0,0,6.17,2,3.4,3.4,0,0,0,5.26,3.29Z"/><path class="cls-7" d="M6.6,4a.28.28,0,0,0,.55.13.26.26,0,0,0-.21-.32A.27.27,0,0,0,6.6,4Z"/><path class="cls-7" d="M8.79,4.18A.26.26,0,0,0,9,4.5.26.26,0,1,0,9.13,4,.27.27,0,0,0,8.79,4.18Z"/><path class="cls-8" d="M8.08,1.54s2.59.29,2,3.32A6.12,6.12,0,0,1,7.41,8.93,6,6,0,0,1,5.13,4,2.55,2.55,0,0,1,8.08,1.54Z"/><path class="cls-8" d="M4,8.56A11.7,11.7,0,0,1,3,3.93,3.59,3.59,0,0,1,4.1,1.3,4.3,4.3,0,0,1,9.23.84,3.45,3.45,0,0,1,10.71,4"/><path class="cls-8" d="M10.71,4A10.31,10.31,0,0,1,8.77,9.19"/><line class="cls-8" x1="5.24" y1="3.68" x2="11.79" y2="4.09"/><path class="cls-8" d="M7.57,3.83c-.05.54-.37,1-.86.93S6,4.27,6,3.73"/><path class="cls-8" d="M9.75,4c-.06.52-.38.92-.85.89a.71.71,0,0,1-.31-.09"/><polyline class="cls-8" points="8.42 3.92 8.71 6.21 7.53 5.06"/><path class="cls-8" d="M9.26,8.42a1.82,1.82,0,0,1,1.08,1.49c.13,1.13-1,2.9-5,2.19"/><path class="cls-8" d="M6.62,15.08a10.36,10.36,0,0,1-2-.19"/><path class="cls-8" d="M9.8,14.32a3.51,3.51,0,0,1-1.3.56,7,7,0,0,1-.9.14"/><path class="cls-8" d="M9.94,11.21a1.5,1.5,0,0,1,.88,1.15,2.09,2.09,0,0,1-1,2"/><path class="cls-8" d="M10.41,13.74a1.8,1.8,0,0,1,1,1.52c.17,1.21-1.13,4.15-5.37,3.45"/><path class="cls-8" d="M3,21.66A2.67,2.67,0,0,1,1,19.17a2.39,2.39,0,0,1,.24-1.06"/><path class="cls-8" d="M11.32,16.29a2.24,2.24,0,0,1,1.14,1.86c.09,1.37-.73,4.55-5.79,4.23a19.17,19.17,0,0,1-2-.23"/><path class="cls-8" d="M6.87,15.58a8.85,8.85,0,0,0-1.18,4"/><path class="cls-8" d="M1.65,20.79a2.51,2.51,0,0,0-.94,1.72c-.36,1.65,1.1,2.58,2.64,3,0,0,10.06,2.65,10-3.23a3.49,3.49,0,0,0-1-2.83"/><path class="cls-8" d="M7.41,8.93a2.1,2.1,0,0,1,1.1,1.41,3.44,3.44,0,0,1-.1,1.77A1.24,1.24,0,0,1,9,13.16a3.05,3.05,0,0,1-.36,1.68,1.57,1.57,0,0,1,1.09,1.35,3,3,0,0,1-.29,2.17,1.72,1.72,0,0,1,.85,1.52A5.81,5.81,0,0,1,9.82,22a6.14,6.14,0,0,1,.5,3.64"/><path class="cls-8" d="M6,11A2.05,2.05,0,0,0,4.53,8.7C2.81,8.13,1.63,10.14,2,11.44"/><path class="cls-8" d="M4.45,12a1.63,1.63,0,0,1,.41,1.25,1.77,1.77,0,0,1-.61,1.29"/><path class="cls-8" d="M.93,14.52A1.45,1.45,0,0,1,.66,13a2.23,2.23,0,0,1,1.82-1.62"/><path class="cls-8" d="M4.19,18.34a1.08,1.08,0,0,0,1.54.78"/><path class="cls-8" d="M4.85,15.77a2.39,2.39,0,0,0-.62,1.17c0,.13-.06.26-.08.39"/><path class="cls-8" d="M6.68,15.91a1.41,1.41,0,0,0-.8-.49,1.3,1.3,0,0,0-1,.35"/><path class="cls-8" d="M2.39,15.62a3.15,3.15,0,0,0-.23.41c-.57,1.28,0,3,2.09,2.5"/><path class="cls-8" d="M5.14,15.56a1.27,1.27,0,0,0-.88-.81,1.61,1.61,0,0,0-1,.12"/><path class="cls-8" d="M1.92,13.88A2.76,2.76,0,0,0,.31,15.82C-.16,17.41.93,18.39,2.17,18"/><path class="cls-8" d="M4.26,14.75a1.39,1.39,0,0,0-.38-.66"/><path class="cls-8" d="M3.56,13.87a1.12,1.12,0,0,0-.77-.15"/><path class="cls-8" d="M4.11,11.77a1.38,1.38,0,0,0-.67-.31"/><path class="cls-8" d="M10.19,9.33a2.35,2.35,0,0,1,1.38,2.49"/><path class="cls-8" d="M12.8,14.6a1.4,1.4,0,0,0,.11-1.42,2.11,2.11,0,0,0-1.82-1.43"/><path class="cls-8" d="M12.42,14.4a2.12,2.12,0,0,1,1.11,1.47,1.75,1.75,0,0,1-1,2.2"/><path class="cls-8" d="M11.85,14.2a1,1,0,0,0-.79.07"/><path class="cls-8" d="M11.44,15.74A1,1,0,0,1,12,16.9"/><path class="cls-8" d="M6.76,5.35S6.67,6.48,8.09,6.57"/><polygon class="cls-7" points="7.25 8.84 6.8 9.44 7.31 9.66 7.41 8.92 7.25 8.84"/></g></g></svg>