<svg xmlns="http://www.w3.org/2000/svg" viewBox="0 0 22.07 5.49"><defs><style>.cls-1{fill:#0d9a85;}.cls-2{fill:#1c204d;}.cls-3{fill:none;stroke:#1c204d;stroke-linecap:round;stroke-linejoin:round;stroke-width:0.4px;}.cls-4{fill:#fff;}</style></defs><g id="Layer_2" data-name="Layer 2"><g id="Layer_2-2" data-name="Layer 2"><ellipse class="cls-1" cx="11.03" cy="2.74" rx="10.83" ry="2.54"/></g><g id="Layer_1-2" data-name="Layer 1"><path class="cls-2" d="M5.92,4.87a43.8,43.8,0,0,0,5.37.4,40.43,40.43,0,0,0,5.37-.48A25.19,25.19,0,0,0,21.3,3.64C19.75,2.68,15.81,2,11.17,2S2.69,2.66,1.1,3.6A12.54,12.54,0,0,0,5.92,4.87Z"/><ellipse class="cls-3" cx="11.03" cy="2.74" rx="10.83" ry="2.54"/><circle class="cls-4" cx="9.16" cy="3.63" r="1.07"/><circle class="cls-4" cx="11.79" cy="3.63" r="1.07"/><path class="cls-2" d="M9.16,3.2a.44.44,0,0,0,0,.87A.44.44,0,0,0,9.16,3.2Z"/><path class="cls-2" d="M11.79,3.2a.44.44,0,0,0,0,.87A.44.44,0,0,0,11.79,3.2Z"/></g></g></svg>