<svg xmlns="http://www.w3.org/2000/svg" viewBox="0 0 8.94 11.77"><defs><style>.cls-1{fill:#f59da0;}.cls-2{fill:#f47951;}.cls-3{fill:#ea4827;}.cls-4{fill:none;stroke:#1c204d;stroke-linecap:round;stroke-linejoin:round;stroke-width:0.4px;}</style></defs><g id="Layer_2" data-name="Layer 2"><g id="Layer_1-2" data-name="Layer 1"><path class="cls-1" d="M8.67,4.81a.69.69,0,0,0-1-.44,1,1,0,0,0-.22.2l-.2-.17a3.19,3.19,0,0,1-.72-.53C6.3,3.57,6.18,3,6,2.64a.59.59,0,0,0-1.13-.15l0,0a.59.59,0,0,1,0,.08H4.53A5.4,5.4,0,0,1,4,2.51a4.15,4.15,0,0,0-1.3-.24A1.36,1.36,0,0,0,1.53,3a1.47,1.47,0,0,0-.14.4l-.17-.12a.6.6,0,0,0-.9.52,2.51,2.51,0,0,0,.32,1,3.61,3.61,0,0,1,.23.44.91.91,0,0,0,0,.17v.13a.6.6,0,0,0,.52.59h.12a18.1,18.1,0,0,1,.82,2.65.77.77,0,0,0,.27.51.64.64,0,0,0,.29.16.86.86,0,0,0,.6.34.68.68,0,0,0,.29.18.77.77,0,0,0,1-.2l.08,0a.62.62,0,0,0,.74-.42A1.9,1.9,0,0,1,5.72,9a1.72,1.72,0,0,1,.07-.21V8.75c.11-.22.23-.45.36-.66s.27-.43.42-.64l.09-.13.09-.12L7,7,7,7a.6.6,0,0,0,1-.64v0a1.11,1.11,0,0,1,.07-.16,2.86,2.86,0,0,1,.24-.42C8.5,5.46,8.78,5.21,8.67,4.81Z"/><path class="cls-2" d="M8.1,1.34c-.14-.14-.29-.12-.44-.16S7.34,1,7.16,1L6.58.9A8.82,8.82,0,0,1,5.44.68C5.08.58,4.72.44,4.35.37A8.41,8.41,0,0,0,3.12.24,1.5,1.5,0,0,0,2.2.36.51.51,0,0,0,2,.42a.32.32,0,0,0-.14.24A.5.5,0,0,0,1.75,1c0,.2-.05.41-.07.62a4.68,4.68,0,0,1-.14.71l-.18.45a.24.24,0,0,0,.44.19A2.69,2.69,0,0,0,2,2.41l0,0v0c0-.09.11,0,.13-.07a6,6,0,0,0,.78.4,2,2,0,0,0,1.14,0,6,6,0,0,0,.86-.2,1.77,1.77,0,0,0,.31-.15.24.24,0,0,1,.17-.14.6.6,0,0,0,.08-.08.17.17,0,0,0,0,.07.25.25,0,0,1,.22.24,1.49,1.49,0,0,0,0,.21,2,2,0,0,0,.13.48.22.22,0,0,1,0,.16l0,.06c.32.34.81.53,1.07.92s.94.27.9-.24a4,4,0,0,1,0-1.09,4.77,4.77,0,0,1,.15-.54c0-.17.15-.33.19-.49A.58.58,0,0,0,8.1,1.34Z"/><path class="cls-3" d="M6.4,9.13s0-.05,0-.07l-.54,0a2.94,2.94,0,0,0-1.25.16l-.07.05-.38-.08L2.8,8.89h0l-.52-.14A.43.43,0,0,0,1.71,9c-.11,0-.14.14-.25.19A7.65,7.65,0,0,0,.2,11.28c.08.05.82-.08,1.18,0,.74.15,5.22.09,6,.05.1,0,.11-.47.17-.55C7.1,10.26,6.78,9.68,6.4,9.13Z"/><path class="cls-4" d="M1.26,5.56a2.13,2.13,0,0,0,.09.3c.51,1.4,1,2,.87,2.91a4.22,4.22,0,0,0-2,2.51"/><path class="cls-4" d="M1.38,3.23a4.47,4.47,0,0,0-.21,1.35,5,5,0,0,0,.09,1"/><path class="cls-4" d="M7.33,6.23c-.07.16-.13.27-.16.33C6.49,7.87,5.78,8.14,5.67,9"/><line class="cls-4" x1="1.55" y1="10.4" x2="1.38" y2="11.28"/><path class="cls-4" d="M2.84,4.05a.58.58,0,0,1,.4-.11"/><path class="cls-4" d="M3.45,5.32a.56.56,0,0,1-.29,0,.68.68,0,0,1-.61-.75.83.83,0,0,1,.29-.57"/><path class="cls-4" d="M3.06,6.36a2.23,2.23,0,0,0,.62.1A1.79,1.79,0,0,0,5.55,4.94"/><path class="cls-4" d="M8.34,1.4A10.1,10.1,0,0,1,5,1.1,10.31,10.31,0,0,1,1.8.26a10.45,10.45,0,0,1,3.32.3A10.41,10.41,0,0,1,8.34,1.4Z"/><line class="cls-4" x1="7.76" y1="4.35" x2="8.34" y2="1.4"/><line class="cls-4" x1="1.8" y1="0.26" x2="1.33" y2="3.42"/><path class="cls-4" d="M7.46,4.57s-1.78-.8-1.79-2.22"/><path class="cls-4" d="M6.06,2.23s-.28.2-1-.2"/><path class="cls-4" d="M5.3,2.18S4.1,3.47,2,2.28"/><path class="cls-4" d="M2.14,2.37s-.35.81-.81.86"/><path class="cls-4" d="M7.13,6.64c0,.19,0,.57.32.62S8,7,8,6.68a1.49,1.49,0,0,1,.43-.94c.31-.31.59-1.28-.16-1.44a.76.76,0,0,0-.91.62,2.65,2.65,0,0,0-.08.47"/><path class="cls-4" d="M8,4.89a2,2,0,0,1-.22.66,1.08,1.08,0,0,0-.09.63"/><path class="cls-4" d="M7.83,5.34a.44.44,0,0,0,.44-.1"/><path class="cls-4" d="M8,5.35a.23.23,0,0,0,.19.21"/><path class="cls-4" d="M1.36,6.23c-.29,0-.44-.31-.44-.61a1.39,1.39,0,0,0-.39-1C.24,4.33,0,3.34.78,3.23a.62.62,0,0,1,.55.15"/><path class="cls-4" d="M1.06,3.83a1.52,1.52,0,0,0,.11.49"/><path class="cls-4" d="M1.15,4.29a.47.47,0,0,1-.44-.13"/><path class="cls-4" d="M1,4.29a.22.22,0,0,1-.11.17"/><path class="cls-4" d="M5.72,9a5.28,5.28,0,0,1-3.39-.24"/><line class="cls-4" x1="2.8" y1="4.02" x2="1.63" y2="3.83"/><line class="cls-4" x1="5.19" y1="4.39" x2="3.83" y2="4.17"/><path class="cls-4" d="M4.81,5A.83.83,0,0,1,4.34,5a.77.77,0,0,1,.22-1.52A.74.74,0,0,1,5,3.74"/><path class="cls-4" d="M5.22,4.2a1.28,1.28,0,0,1,0,.19.83.83,0,0,1-.06.21"/><path class="cls-4" d="M2,3.22a.7.7,0,0,1,.41-.06.76.76,0,0,1,.66.71"/><path class="cls-4" d="M1.58,4.08a.76.76,0,0,1,0-.26.79.79,0,0,1,.08-.26"/><path class="cls-4" d="M2.48,4.68a.7.7,0,0,1-.25,0,.82.82,0,0,1-.41-.19"/><path class="cls-4" d="M5.79,8.8s1,.38,1.84,2.77"/><path class="cls-4" d="M6.32,10.32a7.67,7.67,0,0,1,.18,1"/></g></g></svg>