<svg xmlns="http://www.w3.org/2000/svg" viewBox="0 0 9.66 22.24"><defs><style>.cls-1{fill:#ea4827;}.cls-2{fill:#fff;}.cls-3{fill:none;stroke:#1c204d;stroke-linecap:round;stroke-linejoin:round;stroke-width:0.4px;}.cls-4{fill:#1c204d;}</style></defs><g id="Layer_2" data-name="Layer 2"><g id="Layer_1-2" data-name="Layer 1"><path class="cls-1" d="M8.62,3.81a.84.84,0,0,0,.13-.33,2.94,2.94,0,0,0,.39-.67A1.35,1.35,0,0,0,8.59,1,6.55,6.55,0,0,0,5.24.25a10.79,10.79,0,0,0-3.52.5A1.71,1.71,0,0,0,.4,1.85,1.38,1.38,0,0,0,.57,3.08c.06.06.14.24.2.28s.13-.15.14-.12,0,0,0,.06,0,0,0,.06A1.54,1.54,0,0,1,1,3.55c0,.06.05.13.08.19l0,0s0,0,0,0A1.84,1.84,0,0,0,1.32,4c0,.15.05.29.08.43a8.51,8.51,0,0,1,.07,1.24,1.89,1.89,0,0,0,.05.23,1.46,1.46,0,0,0-.16.69c0,3.45,0,6.89.09,10.34a1.44,1.44,0,0,0,.08.46,1.47,1.47,0,0,0-.14.28,1.27,1.27,0,0,0-.13.58c0,.34,0,.68,0,1a1.08,1.08,0,0,0,.08.44.34.34,0,0,0,0,.18v.33l0,.09a1,1,0,0,0,.86,1.51c1.66,0,3.31.08,5,.1a.81.81,0,0,0,.43-.11,1,1,0,0,0,.61-.05,1,1,0,0,0,.62-.92,7.89,7.89,0,0,0-.18-1.1c0-.42,0-.85,0-1.26a1.44,1.44,0,0,0-.13-.74,1.07,1.07,0,0,0-.14-.16,2.15,2.15,0,0,0,0-.72c-.09-.48-.15-1-.2-1.48a1.92,1.92,0,0,0,0-.72c0,.21,0,0,0-.13v-.3c0-.24,0-.47,0-.7,0-.49,0-1,0-1.48,0-1-.06-1.93-.11-2.9A1.19,1.19,0,0,0,8,8.86c0-.11,0-.23,0-.34,0-.62.06-1.24.07-1.86S7.78,4.78,8.34,5c.19.08-.12-.19-.14-.25s-.16-.1-.13-.14Z"/><path class="cls-2" d="M7.42,5.33h0v0s0-.06,0-.09a8.6,8.6,0,0,1-1,0c-.44,0-.88,0-1.32,0s-.88-.07-1.33-.07c-.23,0-.47,0-.7,0,0,.39.05.78.05,1.17,0,.24,0,.47-.06.7a.76.76,0,0,1,0,.15,6.51,6.51,0,0,0,1.25.06l.63,0c.22,0,.42-.06.63-.08.42,0,.85,0,1.27,0h.62a.4.4,0,0,1,0-.15c0-.41.07-.81.07-1.22A4,4,0,0,0,7.42,5.33Z"/><path class="cls-2" d="M9.48,1.77a.08.08,0,0,0,0,0,1.65,1.65,0,0,0-.26-.29h0A10,10,0,0,0,7.7.63s-.07,0-.08-.08L7.43.5a13.77,13.77,0,0,0-2-.28c-.26,0-.5,0-.75,0a.08.08,0,0,0,.08.08C8,.26,9.15,1.6,9.31,1.8l.17.05Z"/><path class="cls-2" d="M3.34.3A5.27,5.27,0,0,0,2,.7,8.34,8.34,0,0,1,4.77.27.09.09,0,0,0,4.86.19,8.64,8.64,0,0,0,3.34.3Z"/><path class="cls-2" d="M8.45,3.92a.64.64,0,0,0,.31-.61h0l-.08,0,0,0a.08.08,0,0,0,0,.07s0,.4-.28.47a.1.1,0,0,0-.05,0Z"/><path class="cls-2" d="M8.36,3.9l-.11,0h0v0a.59.59,0,0,1-.17.43.09.09,0,0,0,0,.11l.06,0a.07.07,0,0,0,.06,0,.72.72,0,0,0,.24-.52Z"/><path class="cls-3" d="M4.79.2c3.58,0,4.67,1.58,4.67,1.58s.06,1.48-.7,1.58c0,0-.36,0-4,0"/><path class="cls-3" d="M9.46,1.78s-.89-.51-4.76-.49"/><path class="cls-3" d="M8.76,3.36s0,.46-.34.55c0,0-.63.07-3.53.08"/><path class="cls-3" d="M5.89,4.54h-1"/><path class="cls-3" d="M6.89,4.51l-1,0"/><path class="cls-3" d="M8.42,3.91a.69.69,0,0,1-.21.5s-.32,0-1.32.1"/><line class="cls-3" x1="8.21" y1="4.41" x2="8.27" y2="17.36"/><path class="cls-3" d="M4.85.2C1.28.22.2,1.83.2,1.83S.15,3.3.91,3.39c0,0,.28,0,3.88,0"/><path class="cls-3" d="M.2,1.83S1.08,1.31,5,1.29"/><path class="cls-3" d="M.91,3.39s0,.47.35.55c0,0,.72.06,3.63.05"/><path class="cls-3" d="M1.26,3.94a.69.69,0,0,0,.21.5s1.06.11,3.42.11"/><line class="cls-3" x1="1.47" y1="4.44" x2="1.53" y2="17.3"/><path class="cls-3" d="M5,17.72c-3.41,0-3.81-.39-3.81-.39l0,4.32A11.78,11.78,0,0,0,4.91,22c3.09,0,3.75-.39,3.75-.39L8.57,17.3s-.12.4-3.53.42"/><path class="cls-3" d="M3,7V5.24a15.51,15.51,0,0,0,2.11.08h.21a15.51,15.51,0,0,0,2.11-.08V7"/><path class="cls-3" d="M3,7.06a14.8,14.8,0,0,0,2.11.07h.21a14.8,14.8,0,0,0,2.11-.07"/><path class="cls-3" d="M1.23,17.33s0,0,.27-.06"/><path class="cls-3" d="M8.57,17.3a.69.69,0,0,0-.3-.07"/><path class="cls-3" d="M3.85,7.06a1,1,0,0,1-.41-.81A1,1,0,0,1,4,5.37"/><path class="cls-3" d="M5,5.41a1,1,0,0,1,.45.84A1,1,0,0,1,5,7.08"/><path class="cls-3" d="M5.45,7.09,5.29,7"/><path class="cls-3" d="M6.48,5.37a1,1,0,0,1,0,1.73"/><path class="cls-3" d="M5.27,5.55a1.05,1.05,0,0,1,.27-.2"/><path class="cls-4" d="M7.44,5.48c-.05-.12.11-.23,0-.3s0,0-.17,0A.53.53,0,0,0,7,5.4a.49.49,0,0,0,0,.39A1.47,1.47,0,0,1,7,6.07a1.36,1.36,0,0,1,0,.35,2.42,2.42,0,0,1-.1.45c-.09.24-.18.24.08.3s.39.06.48-.21A2,2,0,0,0,7.44,5.48Z"/><path class="cls-4" d="M3.31,6.19a5,5,0,0,1,.21-.62c.08-.25.08-.33-.18-.38s-.37-.05-.46.22.06.39,0,.53,0,.42,0,.6c0,.34-.13.32.06.59.07.11-.12-.07,0,0s.18.07.29,0,.31-.15.15-.38l-.08-.16a1.05,1.05,0,0,1,0-.19A1.08,1.08,0,0,1,3.31,6.19Z"/><circle class="cls-4" cx="4.57" cy="6.25" r="0.32"/><circle class="cls-4" cx="6.21" cy="6.23" r="0.32"/></g></g></svg>