<svg xmlns="http://www.w3.org/2000/svg" viewBox="0 0 12.69 14.28"><defs><style>.cls-1{fill:#f47951;}.cls-2{fill:none;}.cls-2,.cls-7{stroke:#1c204d;stroke-linecap:round;stroke-linejoin:round;stroke-width:0.4px;}.cls-3,.cls-7{fill:#f9b730;}.cls-4{fill:#0077bf;}.cls-5{fill:#30ad4d;}.cls-6{fill:#fff;}.cls-8{fill:#1c204d;}</style></defs><g id="Layer_2" data-name="Layer 2"><g id="Layer_1-2" data-name="Layer 1"><path class="cls-1" d="M7.42,2.15,7.34,2a1.64,1.64,0,0,0-.57-.89A.49.49,0,0,0,6.41,1,.56.56,0,0,0,6.18.92.37.37,0,0,0,6,.63,2.93,2.93,0,0,0,4.19.37l-.25,0a.48.48,0,0,0-.45,0A3.59,3.59,0,0,1,3,.57L2.39.7A.52.52,0,0,0,2,1.19H2a.48.48,0,0,0-.31.28.5.5,0,0,0-.48.18,1.75,1.75,0,0,0-.25.67l0,.11v.05c0,.09-.07.18-.11.28a1.59,1.59,0,0,0-.12.72A1,1,0,0,0,1,4.18.51.51,0,0,0,1.79,4a.73.73,0,0,0,.07-.36.6.6,0,0,0-.07-.3A.47.47,0,0,0,2,3.14a.59.59,0,0,0,.09-.37c0-.2,0-.41,0-.61h.1L4,1.92c.3,0,.6-.09.9-.17s.46-.15.69-.19a.06.06,0,0,0,0,0,7.87,7.87,0,0,0,.47.86c.09.13.18.28.29.41a.46.46,0,0,0,.29.39.54.54,0,0,0,.49-.08l.1,0a.6.6,0,0,0,.34-.45A.85.85,0,0,0,7.42,2.15Z"/><path class="cls-1" d="M4.33,3a1,1,0,0,0-.81,1.1l.06.4,1.91-.31-.06-.38A1,1,0,0,0,4.33,3Zm.56.7a.24.24,0,0,1-.08.15.28.28,0,0,1-.17,0h0l-.12,0-.21.06a.25.25,0,0,1-.17,0A.24.24,0,0,1,4,3.75a.25.25,0,0,1,0-.17.29.29,0,0,1,.15-.09h.07l.19-.06h.1a.65.65,0,0,1,.14,0,.29.29,0,0,1,.15.09A.22.22,0,0,1,4.89,3.66Z"/><path class="cls-2" d="M7,9.36a.85.85,0,0,0-.52.28,2.69,2.69,0,0,1-.2.27.45.45,0,0,1-.28.17"/><path class="cls-2" d="M4.76,9.7a.87.87,0,0,1,.58.11,1.71,1.71,0,0,0,.27.2.43.43,0,0,0,.32.08"/><path class="cls-2" d="M4.76,9.7a1.43,1.43,0,0,0-.37.14"/><path class="cls-2" d="M7,9.64a.81.81,0,0,0-.52.28c-.07.09-.12.19-.19.27a.5.5,0,0,1-.29.17"/><path class="cls-2" d="M4.8,10a.8.8,0,0,1,.58.11c.09.06.17.14.27.2a.43.43,0,0,0,.32.08"/><path class="cls-2" d="M4.8,10a1.24,1.24,0,0,0-.37.14l0-.28"/><path class="cls-2" d="M2.13,4.23a.48.48,0,1,1,.94-.15Z"/><path class="cls-2" d="M3.62,4.45l-.06-.4a1,1,0,0,1,1.92-.29l0,.38"/><path class="cls-2" d="M4,3.94a.48.48,0,0,1,.4-.55.47.47,0,0,1,.54.4Z"/><path class="cls-3" d="M12.69,9.72l-.08-.12"/><path class="cls-3" d="M7.92,3a.49.49,0,0,0-.43.19l.1-.17,0,0L7.55,3H7.38l0,.08A.55.55,0,0,1,7,3.32a.57.57,0,0,1-.42-.1,1.2,1.2,0,0,1-.27-.28c0-.08-.11-.15-.16-.22s-.22-.37-.33-.56a2.11,2.11,0,0,0-.3-.37s0-.05,0-.08L5,1.88a6.65,6.65,0,0,1-1,.19,5.18,5.18,0,0,1-1.88.07h0v.24a2.38,2.38,0,0,1,0,.53c-.1.37-.23.74-.35,1.11A.56.56,0,0,1,1,4.33.86.86,0,0,1,.8,4.2a.62.62,0,0,1-.31-.06l0,.06a.58.58,0,0,0-.18.17.92.92,0,0,0,0,.88,3.72,3.72,0,0,0,.42.56c.1.15.2.3.29.45s.2.47.34.68a.36.36,0,0,0,.4.1L1.9,7c.08.11.19.23.28.33s.31.32.49.51.3.48.47.7l.09.12L3.05,9a1.07,1.07,0,0,0-.19.44l0,0a.12.12,0,0,1-.05.05l-.07.06h0a.36.36,0,0,0-.11.14l-1,1.39a.33.33,0,0,0,0,.4l0,0a1.94,1.94,0,0,0-.23.33,1.34,1.34,0,0,0-.22.75A1.38,1.38,0,0,0,2,13.8,3.69,3.69,0,0,0,3.59,14a11.75,11.75,0,0,0,1.77-.23h0a.3.3,0,0,0,.19,0,1.24,1.24,0,0,0,.33-.09l.12,0,.42-.1a.3.3,0,0,0,.14-.06s.18-.12.22-.09a.7.7,0,0,1,.15.24h.22l.67-.16c.34-.07.69-.11,1-.15v0c-.17-.48-.32-1-.49-1.45-.33-1-.55-2-.87-3-.24-.15-.48-.3-.72-.47a1,1,0,0,0,0-.17,2.49,2.49,0,0,1,.12-.81A8.86,8.86,0,0,1,7.49,6a.29.29,0,0,0,.18,0A.34.34,0,0,0,8,5.64a2.69,2.69,0,0,1,.13-.82,9.24,9.24,0,0,0,.29-.89C8.44,3.59,8.33,3.07,7.92,3Z"/><path class="cls-3" d="M10.51,13.69c-.21-.5-.24-1-.41-1.54s-.31-.83-.45-1.24L9.16,11a3,3,0,0,0-1.54.59,1.2,1.2,0,0,0-.18.74c0,.35.06.7.09,1.05a.86.86,0,0,1,0,.16c.22,0,.44.07.66.1a1.22,1.22,0,0,0,.27,0l.08,0a.55.55,0,0,1,.43.06.28.28,0,0,1,.1.09l.32-.08.15-.06s.17-.12.21-.09a.54.54,0,0,1,.15.23h.22l.39-.1Z"/><path class="cls-4" d="M7.2,13.57l0,.08c.21-.05,1.1,0,1.31,0s-.15-.16.11-.19c-.07-.18-.14-.41-.2-.58a13.05,13.05,0,0,0-.52-1.75.05.05,0,0,0,0,0v0a10.14,10.14,0,0,0-.29-1.21C7.47,9.43,7.27,9,7.1,8.62a.17.17,0,0,0-.31.14c.17.39.36.78.51,1.18a7.33,7.33,0,0,1,.24,1c-.9.07-1.8.19-2.69.34-.44.08-.89.15-1.33.26a.44.44,0,0,0-.16.06,26.42,26.42,0,0,1,0-2.67c0-.21-.29-.25-.32,0C2.86,9.93,3.17,11,3,12.11a.16.16,0,0,0,.28.13.19.19,0,0,0,.18,0,.21.21,0,0,0,.14,0,4.91,4.91,0,0,1,1.27,0,5.65,5.65,0,0,1,1.22.2A2.05,2.05,0,0,1,7.2,13.57Z"/><path class="cls-5" d="M2.92,9.4a.17.17,0,0,0-.22.09,5.68,5.68,0,0,1-.55.83,7.83,7.83,0,0,0-.57.81.16.16,0,0,0,0,.32,2.15,2.15,0,0,1,1.06.43.17.17,0,0,0,.26-.12,11,11,0,0,0,0-1.15,2.25,2.25,0,0,1,.08-1A.16.16,0,0,0,2.92,9.4Z"/><path class="cls-5" d="M6.89,8.85c0-.09-.13-.19-.23-.12A4.58,4.58,0,0,1,5.2,9.3a7.6,7.6,0,0,1-.8.1,1.75,1.75,0,0,1-.81-.15.16.16,0,0,0-.22.18,5,5,0,0,1,0,1c0,.28-.19.78-.06,1,.05.09.22,0,.3-.07h0c.32,0,.63-.09.94-.16s.57-.17.86-.23a11.18,11.18,0,0,1,1.43-.12h.37a.18.18,0,0,0,.14-.19C7.24,10.08,7.06,9.47,6.89,8.85Z"/><path class="cls-5" d="M10,11.53A7.81,7.81,0,0,0,8.79,9.79a8.42,8.42,0,0,0-.64-.7C8,9,7.87,8.81,7.74,8.67a1.06,1.06,0,0,1-.87-.32c-.1-.1-.15-.2-.17,0a.51.51,0,0,1,.36.41,15,15,0,0,0,1,2.74c.21.52.39,1,.58,1.58,0,0,.14.14.22.3a1.46,1.46,0,0,1,.22,0v0c0-.3.06-.72.2-.77s.44-.23.67-.33a.53.53,0,0,1,.3,0C10.15,12,10.07,11.74,10,11.53Z"/><path class="cls-6" d="M5.9,5.42a.69.69,0,0,0-.2.13.41.41,0,0,1-.21.1c-.19,0-.37.11-.56.16a4.59,4.59,0,0,1-1.23.11.14.14,0,0,0-.11,0l-.26-.12c-.19-.1-.31.21-.12.3a2.21,2.21,0,0,0,.64.22.05.05,0,0,0,0,0,2.36,2.36,0,0,0,1.26.08c.4-.08.68-.48.95-.78C6.22,5.54,6,5.38,5.9,5.42Z"/><path class="cls-6" d="M6.11,5.39c0,.65-.75.93-1.3,1a2.34,2.34,0,0,1-.95-.06,1.86,1.86,0,0,1-.45-.16,1.22,1.22,0,0,1-.34-.3c-.12-.14-.38,0-.28.17l.1.17a.13.13,0,0,0,0,.17,4.21,4.21,0,0,0,.8.72,1.75,1.75,0,0,0,.95.22A1.79,1.79,0,0,0,5.59,7a1.6,1.6,0,0,0,.33-.31,1.2,1.2,0,0,0,.15-.24.14.14,0,0,0,.14-.09.51.51,0,0,0,.06-.21s0,0,0,0a2.61,2.61,0,0,0,.17-.68C6.45,5.22,6.12,5.18,6.11,5.39Z"/><path class="cls-2" d="M1.34,11.44A25.31,25.31,0,0,1,3,9.14"/><path class="cls-2" d="M1.11,12.5a2.37,2.37,0,0,1,.43-1"/><path class="cls-2" d="M7.15,13.52c-.39-.77-1.5-1.67-4.67-1.11"/><path class="cls-2" d="M6.27,13.67l.4-.11"/><path class="cls-2" d="M1.11,12.5c-.11,1.65,2.08,2,5.16,1.17"/><path class="cls-2" d="M3.38,9.08l0,2.47a13.12,13.12,0,0,1,4.16-.66l-.7-2.25"/><path class="cls-2" d="M6.8,8.41s.27.06.59.93c.26.69,1.1,3.37,1.38,4.31"/><path class="cls-6" d="M4.05,3.71a.83.83,0,0,0-1.22.06A.89.89,0,0,0,3,5.05l0,0A.71.71,0,0,0,4,5,.9.9,0,0,0,4.05,3.71Z"/><path class="cls-6" d="M6.1,3.89a.91.91,0,0,0-.59-.69,1.28,1.28,0,0,0-.55,0,.72.72,0,0,0-.46.2,1,1,0,0,0,0,.93.18.18,0,0,0,.18.14.59.59,0,0,0,.29.38,1,1,0,0,0,.89-.15A.73.73,0,0,0,6.1,3.89Z"/><path class="cls-2" d="M7.49,6.09c-.42,1.22-.79,1.8-.67,2.61"/><path class="cls-2" d="M7.61,5.71v.06c0,.11-.07.22-.11.32"/><path class="cls-2" d="M1.93,7c.81,1,1.38,1.42,1.52,2.22"/><path class="cls-2" d="M1.69,6.7l0,0L1.93,7"/><path class="cls-2" d="M6.66,4.89a4.23,4.23,0,0,1-2.08,1"/><path class="cls-2" d="M2.36,5.64a4.2,4.2,0,0,0,2.28.24"/><path class="cls-2" d="M6.39,5.2a1.85,1.85,0,0,1-3.64.63"/><circle class="cls-2" cx="3.47" cy="4.36" r="0.89"/><circle class="cls-2" cx="5.23" cy="4.05" r="0.89"/><circle class="cls-7" cx="4.49" cy="5.04" r="0.48"/><path class="cls-8" d="M3.48,4.22h0a.18.18,0,0,0,.06.35h0A.18.18,0,0,0,3.48,4.22Z"/><path class="cls-8" d="M5.22,3.92h0a.18.18,0,0,0,.06.35h0A.18.18,0,0,0,5.22,3.92Z"/><path class="cls-2" d="M7,3.81A.74.74,0,0,1,7.77,3c.75,0,.69,1,.46,1.34a1.4,1.4,0,0,0-.22,1c0,.31-.07.64-.39.67H7.54"/><path class="cls-2" d="M7.6,3.81a1.7,1.7,0,0,1-.07.52.71.71,0,0,0,0,.35"/><path class="cls-2" d="M1.56,4.75a.74.74,0,0,0-1-.48c-.71.25-.32,1.16,0,1.42a1.46,1.46,0,0,1,.54.86c.06.31.28.58.59.49L1.9,7"/><path class="cls-2" d="M1,5a1.85,1.85,0,0,0,.24.46.78.78,0,0,1,.13.28"/><path class="cls-2" d="M1.55,4.29a3.06,3.06,0,0,0,.53-2"/><path class="cls-2" d="M6.82,3.4A4.82,4.82,0,0,1,5.56,1.79"/><path class="cls-2" d="M6.23,5.23A1.71,1.71,0,0,1,4.77,6.58a1.79,1.79,0,0,1-1.86-.76"/><path class="cls-2" d="M3.16,8.56A2.08,2.08,0,0,0,3,9.24c-.07.54-.06,3.09-.06,3.09"/><path class="cls-2" d="M1.44,11.58c-.07-.06-.11-.11-.1-.14s.6.09,1.25.41l.32.17"/><line class="cls-2" x1="8.77" y1="11.44" x2="9.05" y2="13.66"/><path class="cls-2" d="M3.45,9.23a4.45,4.45,0,0,0,3.36-.59"/><path class="cls-2" d="M7.88,13.66l-.4-2a9,9,0,0,0-3.76.4v.22"/><path class="cls-2" d="M.67,4.2S.26,2.46,1.4,1.75A2.79,2.79,0,0,1,3.76.24"/><path class="cls-2" d="M7.77,3s-.09-1.7-1.39-2A2.77,2.77,0,0,0,3.69.25"/><path class="cls-2" d="M5.75,1.51a6.5,6.5,0,0,1-1.89.54,6.4,6.4,0,0,1-2,.05"/><path class="cls-2" d="M7.1,8.62s1.61.19,3.06,3.52a2,2,0,0,1-1.22.42"/><path class="cls-2" d="M10,12.27s.25.81.39,1.29"/></g></g></svg>