<svg xmlns="http://www.w3.org/2000/svg" viewBox="0 0 9.9 13.8"><defs><style>.cls-1{fill:#af6e30;}.cls-2{fill:#1c1e4c;}.cls-3{fill:#fff;}.cls-4{fill:#0d773c;}.cls-5{fill:#ee4823;}.cls-6{fill:none;stroke:#1c204d;stroke-linecap:round;stroke-linejoin:round;stroke-width:0.4px;}</style></defs><g id="Layer_2" data-name="Layer 2"><g id="Layer_1-2" data-name="Layer 1"><path class="cls-1" d="M7.23,8.41a.47.47,0,0,0,.06-.15A.72.72,0,0,0,7.45,8c0-.14,0-.28.09-.42a.43.43,0,0,0,0-.16c.15-.22.33-.42.44-.57a10.44,10.44,0,0,0,.76-1.49.44.44,0,0,0,0-.15.9.9,0,0,0,.71-.41,1.71,1.71,0,0,0,0-1.71c-.37-.44-.82-.14-1,.26A1.41,1.41,0,0,1,8,2.62a1,1,0,0,1,0-.86.28.28,0,0,0,0-.15.3.3,0,0,0,.07-.4A2.52,2.52,0,0,0,7.45.72,1.87,1.87,0,0,0,6.64.35H6.55A1.5,1.5,0,0,0,5.71.22l-.07,0A2.29,2.29,0,0,0,3.8.79a.31.31,0,0,0-.22.09c-.07.06-.11.14-.18.19a.23.23,0,0,0-.07.1.22.22,0,0,0-.05.11,2.68,2.68,0,0,0-.39.84.38.38,0,0,0,0,.1c-.16.18-.34.35-.48.54a.19.19,0,0,0-.18,0,.9.9,0,0,0-.55.4,1.56,1.56,0,0,0,0,.83c.08.38.15,1,.61,1.07a.38.38,0,0,0,.19,0l0,0,.06.19a.45.45,0,0,0,.06.14.4.4,0,0,0,.06.16c.35.49.58,1.06.89,1.58A1.8,1.8,0,0,1,3.83,8c0,.21-.08.39.12.55a2.14,2.14,0,0,0,.7.23,2.67,2.67,0,0,0,.89.09,4.91,4.91,0,0,0,.86-.06c.12,0,.23-.09.36-.1a1.5,1.5,0,0,0,.22,0,.33.33,0,0,0,.24-.23Z"/><path class="cls-2" d="M9.19,2.68c0-.12-.06-.25-.1-.39A.25.25,0,0,0,9,2a2.69,2.69,0,0,0-.26-.54.22.22,0,0,0-.16-.19,1,1,0,0,0-.22-.18c-.14-.09-.25.1-.16.2a.39.39,0,0,0,.08.1h0a.58.58,0,0,0-.12.1A2.2,2.2,0,0,0,8,1.78a.16.16,0,0,0,0,.16.62.62,0,0,0-.06.42A2.9,2.9,0,0,0,8.22,3a.23.23,0,0,0,.4,0c.05-.08.07-.14.16-.16A.65.65,0,0,0,9,2.82C9.07,2.88,9.23,2.81,9.19,2.68Z"/><path class="cls-2" d="M3.29,1.14c.12-.08,0-.3-.1-.25l0,0h0a.83.83,0,0,0-.3.29.12.12,0,0,0-.09.08,4.89,4.89,0,0,1-.26.51,6.46,6.46,0,0,1-.33.76c-.08.15.14.27.24.13s.34-.49.5-.75S3,1.3,3.29,1.14Z"/><path class="cls-2" d="M6.86,6.06a2,2,0,0,0-.43-.78,1.9,1.9,0,0,0-.81-.64,1.17,1.17,0,0,0-.54-.19.28.28,0,0,0-.18.06.32.32,0,0,0-.16.09h0l-.07,0c-.17.16-.33.31-.51.45l-.07.09H4l-.12,0h0a.34.34,0,0,0,0-.24.18.18,0,0,0,0-.1l0,0c.21-.21-.12-.53-.33-.32A2.61,2.61,0,0,0,2.74,6a.22.22,0,0,0,.17.28,1.55,1.55,0,0,0,.48,0,4.41,4.41,0,0,0,1.09,0h0a16,16,0,0,0,2.08,0,.5.5,0,0,0,.19,0h0A.12.12,0,0,0,6.86,6.06Z"/><path class="cls-3" d="M4.22,3.53c0-.13,0-.27,0-.41a2.23,2.23,0,0,1,.13-.44.24.24,0,0,0-.33-.27.65.65,0,0,0-.88.17,1.38,1.38,0,0,0-.08,1.28c.16.28.65.57.95.28S4.2,3.73,4.22,3.53Z"/><path class="cls-3" d="M7,3.73a1.25,1.25,0,0,0,0-1,.83.83,0,0,0-.77-.55.69.69,0,0,0-.56.62.25.25,0,0,0,0,.08.58.58,0,0,0-.09.47,2,2,0,0,0,.17.46.79.79,0,0,0,.46.31A.67.67,0,0,0,7,3.73Z"/><path class="cls-4" d="M8.14,12a2.68,2.68,0,0,1-.64-2,2.34,2.34,0,0,1,.08-.53,2.62,2.62,0,0,1,.19-.46.36.36,0,0,0,0-.09h0a.34.34,0,0,1,0-.14.58.58,0,0,1-.08-.44.29.29,0,0,0-.1.25.09.09,0,0,1,0,.07l-.06,0-.2.14.07-.14.06,0a.34.34,0,0,0,.09-.14.12.12,0,0,0,0-.15.35.35,0,0,0-.09-.23.14.14,0,0,0-.23.1.91.91,0,0,1,0,.23,1.4,1.4,0,0,0-.48.29L6.59,9a.15.15,0,0,0-.17,0s0,0,0,.05a.12.12,0,0,0-.15,0c-.22.13-.44.21-.65.36l-.3.26a2,2,0,0,1-.49.27l0,0c-.16-.22-.29-.46-.44-.68s-.66-.8-.52-1.2C3.83,8,3.57,7.88,3.52,8c-.13.38.14.78.34,1.08a12.43,12.43,0,0,0,.86,1.28h0l0,0c-.21-.26-.39-.53-.58-.81a7.62,7.62,0,0,1-.65-1c0-.14,0-.3-.14-.38S3,8.26,3,8.44a.28.28,0,0,0-.15.27.85.85,0,0,1,0,.16.13.13,0,0,0,0,.06.34.34,0,0,0-.1.13,5,5,0,0,1-.69.91c-.06.09-.11.19-.16.28a.19.19,0,0,0-.15.07.37.37,0,0,0-.1.17l0,.13a.21.21,0,0,0,0,.08,2,2,0,0,0-.41.68A2.88,2.88,0,0,1,.93,12a5.2,5.2,0,0,1-.39.64A.32.32,0,0,0,.5,13l0,0c-.11.16-.35.38-.23.58s.29.12.42.09a3.32,3.32,0,0,1,.44-.06.29.29,0,0,0,.23.07,9.43,9.43,0,0,0,1.05-.25l.53,0,.4,0c.25,0,.5,0,.75,0a.32.32,0,0,0,.2-.06h.46c.55,0,1.11,0,1.66.07a7.72,7.72,0,0,0,1.52.1.34.34,0,0,0,.32-.41c0-.07,0-.18,0-.25a3.12,3.12,0,0,0,.05-.44c0-.1,0-.2,0-.3A.53.53,0,0,1,8.14,12Z"/><path class="cls-5" d="M5,10.29l0,0a.12.12,0,0,0,0-.09v0h0a4.51,4.51,0,0,0,.49-.28l.06,0a.19.19,0,0,0,0,.1A4.59,4.59,0,0,0,5,10.29Z"/><path class="cls-5" d="M6.45,9.5a.13.13,0,0,0-.07-.06c.13-.09.27-.16.4-.26l.14-.11A.06.06,0,0,0,7,9.1h.08Z"/><path class="cls-3" d="M6.3,8.76a3.08,3.08,0,0,1-1,.16,2.59,2.59,0,0,1-1.16-.29c-.15-.08-.77-.22-.61-.14a3.6,3.6,0,0,1,.26.58s.08.2.09.21c.17.23.5,1.17.84,1a9.85,9.85,0,0,0,1-.43C6,9.6,7.17,9,7.47,8.79,7.6,8.72,6.45,8.71,6.3,8.76Z"/><path class="cls-3" d="M8.45,9a1.84,1.84,0,0,1-.25-.09c-.19-.1-.79-.08-.6,0a4.2,4.2,0,0,1-.08.95,3.71,3.71,0,0,0,0,.38c.15.38.25,2,.82,1.53.18-.16.66-.47,1.06-.75"/><path class="cls-3" d="M2.79,9a.21.21,0,0,0,.07-.3h0c.11-.12-.07-.31-.19-.18l0,0a.25.25,0,0,0-.28.12,1.09,1.09,0,0,0-.21.26L2.07,9,2,9.1c-.14.12-.32.18-.47.29l-.34.31c-.09.06,0,.19.06.22l.2,0a.25.25,0,0,0,.14.13h0A.24.24,0,0,0,2,10s0-.07,0-.1l.12-.16.34-.41A.93.93,0,0,0,2.79,9Z"/><path class="cls-2" d="M1.26,10.07h0l0,0a.13.13,0,0,0-.18,0,.13.13,0,0,0-.05.18l.07.11a.13.13,0,0,0,.19-.19Z"/><path class="cls-6" d="M3,6.34a4,4,0,0,1,.78,2.05"/><path class="cls-6" d="M2.4,2.75a4.4,4.4,0,0,0-.11,1.53A4,4,0,0,0,2.6,5.56l.18.36"/><path class="cls-6" d="M5.73.2A6.07,6.07,0,0,0,5,.25a3,3,0,0,0-1.76.9"/><path class="cls-6" d="M8.8,5.32a3.73,3.73,0,0,1-.16.35C7.93,7,7.36,7.55,7.34,8.46"/><path class="cls-6" d="M5.73.2a4.55,4.55,0,0,1,.7.08,3,3,0,0,1,1.85,1.1"/><path class="cls-6" d="M5.52,3.16c0,.55.27,1,.77,1s.8-.43.81-1-.3-1-.77-1S5.53,2.61,5.52,3.16Z"/><path class="cls-6" d="M4.4,2.7a.73.73,0,0,0-.64-.42c-.49,0-.8.42-.81,1s.27,1,.77,1a.68.68,0,0,0,.32,0"/><path class="cls-6" d="M8.47,3.47a.55.55,0,0,1,.7-.57c.77.14.55,1.37.3,1.86a.82.82,0,0,1-.84.45.52.52,0,0,1-.39-.28"/><path class="cls-6" d="M8.92,3.79A2.2,2.2,0,0,1,9,4.16"/><path class="cls-6" d="M2.34,2.74a.48.48,0,0,0-.17,0c-.78.07-.67,1.32-.47,1.83a.87.87,0,0,0,.68.52"/><polyline class="cls-6" points="4.53 2.31 3.89 5.24 5.16 4.22"/><path class="cls-6" d="M8.3,1.4a.84.84,0,0,0-.38,1c.18.73.53.88.53.88"/><path class="cls-6" d="M9.24,2.87S9.16,1,8,1"/><path class="cls-6" d="M3.25,1.17A3.85,3.85,0,0,1,2.4,2.75"/><path class="cls-6" d="M3.65.78S2.64.6,2.13,2.69"/><path class="cls-6" d="M4.84,4.47A2,2,0,0,1,7,6.3l-4.22,0S3,4.5,4.06,4.46"/><path class="cls-6" d="M5.94,6.31s-.76,1.09-2.2,0"/><path class="cls-2" d="M3.69,3.4c0,.16-.13.27-.24.26s-.19-.15-.17-.3.12-.27.23-.26S3.7,3.25,3.69,3.4Z"/><path class="cls-2" d="M6.27,3.44c0,.15-.13.27-.24.25s-.19-.14-.17-.3.12-.27.23-.25S6.28,3.28,6.27,3.44Z"/><path class="cls-6" d="M7.33,8.48a4.52,4.52,0,0,1-2.07.4C4,8.84,3.7,8.29,3.7,8.29v.09"/><path class="cls-6" d="M3.7,7.88s-.38.1-.23.62a13.14,13.14,0,0,0,1.19,1.93l2.81-1.6a.41.41,0,0,0,.18-.51.46.46,0,0,0-.19-.18"/><path class="cls-6" d="M.2,13.6c1.1-3.22,2.42-4.32,2.42-4.32"/><path class="cls-6" d="M3.46,8.05A6,6,0,0,0,1,10"/><path class="cls-6" d="M1.16,10.36C1,10.18.92,10,1,10s.4,0,.8.28"/><line class="cls-6" x1="1.38" y1="10.1" x2="0.54" y2="11.38"/><path class="cls-6" d="M2.93,8.3a1.29,1.29,0,0,1-.42,1.09"/><line class="cls-6" x1="8.48" y1="11" x2="8.15" y2="13.56"/><path class="cls-6" d="M7.66,8.52s1.42.32,1.78,3"/><path class="cls-6" d="M7.9,8.79a3,3,0,0,0,.35,3.55"/></g></g></svg>