<svg xmlns="http://www.w3.org/2000/svg" viewBox="0 0 12.2 30.9"><defs><style>.cls-1{fill:#f47951;}.cls-2{fill:#b0dceb;}.cls-3{fill:#fff;}.cls-4{fill:#af6e30;}.cls-5{fill:#9f1d20;}.cls-6{fill:#007033;}.cls-7{fill:#f9e398;}.cls-8{fill:none;}.cls-13,.cls-8{stroke:#1c204d;stroke-linecap:round;stroke-linejoin:round;stroke-width:0.4px;}.cls-9{fill:#f07c24;}.cls-10,.cls-13{fill:#1c204d;}.cls-11{fill:#231f20;}.cls-12{fill:#ea4827;}</style></defs><g id="Layer_2" data-name="Layer 2"><g id="Layer_1-2" data-name="Layer 1"><path class="cls-1" d="M10.18,4.42A.78.78,0,0,0,9.7,4a.34.34,0,0,0,0-.11,7.5,7.5,0,0,1-.71-1.68,2.61,2.61,0,0,0-.55-1.19A3.5,3.5,0,0,0,5.75.21C4.93.3,3.8.5,3.4,1.32c-.21.44-.06.92-.15,1.38a9.1,9.1,0,0,1-.46,1.54.73.73,0,0,0-.92-.06c-.27.27-.18.82-.08,1.14A.41.41,0,0,0,2,5.54a.42.42,0,0,0,.11.13,1.2,1.2,0,0,0,.27.19h0a.79.79,0,0,1,.27.48.36.36,0,0,0,.55.22c.19.42.46.79.65,1.2a6.44,6.44,0,0,0,.49,1.36,2.26,2.26,0,0,0,1.2.47,17.46,17.46,0,0,1,1.74.53A.35.35,0,0,0,7.64,10a.28.28,0,0,0,.2-.25A6,6,0,0,1,8.22,7.9c.21-.43.43-.86.64-1.28a.27.27,0,0,0,.15,0,.32.32,0,0,0,.31-.23,1.55,1.55,0,0,1,0-.21l0-.11V6h0l.16-.1a1.67,1.67,0,0,0,.6-.64A1.21,1.21,0,0,0,10.18,4.42Z"/><path class="cls-2" d="M9.47,5.58a.15.15,0,0,0,0-.11.86.86,0,0,1,0-.16v0a.17.17,0,0,0,0-.07.14.14,0,0,0,0-.06.12.12,0,0,0-.05,0l0,0H9.35a.11.11,0,0,0-.08,0l0,0a.16.16,0,0,0,0,.07,1.23,1.23,0,0,0,0,.19,1.19,1.19,0,0,0-.44.21A2.37,2.37,0,0,0,8.34,6,2.47,2.47,0,0,0,8,6.45a1.62,1.62,0,0,0-1.22-.23,2,2,0,0,0-.63.21A.78.78,0,0,0,6,6.54c-.36-.25-.7-.52-1.07-.76a4.59,4.59,0,0,0-1.22-.54.25.25,0,0,0-.12,0L3.35,3.72a.24.24,0,0,0-.14-.21,2,2,0,0,0,.07-.23h0c.06-.14.14-.28.21-.42.14-.32.12-.68.24-1a.26.26,0,0,0-.1-.27,1.68,1.68,0,0,0,0-.63s0,0,0,0A1.25,1.25,0,0,0,3.82.81a.07.07,0,0,0,0-.09.06.06,0,0,0-.09,0L3.58.76,3.43.8a.18.18,0,0,0-.17,0c0,.06-.09.11-.13.16a.24.24,0,0,0-.1.05c-.08.09-.15.19-.22.28a1.2,1.2,0,0,0-.13.21.56.56,0,0,0-.06.2,1.18,1.18,0,0,0-.11.19.53.53,0,0,0-.09.47h0a1.33,1.33,0,0,0,0,.19,3.31,3.31,0,0,0-.08.55,1.18,1.18,0,0,1-.09.46.26.26,0,0,0,0,.31.32.32,0,0,0,.19.1h.09a.28.28,0,0,0,.36,0l0,.31a.24.24,0,0,1,0,.08c.11.85.21,1.7.31,2.54a1.3,1.3,0,0,0,.52,1A1.67,1.67,0,0,0,4,8.15a.2.2,0,0,0,.12.21l.07,0h0a5.56,5.56,0,0,0,2.07.53,5.93,5.93,0,0,0,1.91-.18A1.88,1.88,0,0,0,9.28,7.27a8.21,8.21,0,0,0,.21-1.1A1.18,1.18,0,0,0,9.47,5.58Z"/><path class="cls-3" d="M6.65,3.73A2.31,2.31,0,0,0,6,3.51a.82.82,0,0,0-.87.62.44.44,0,0,0,0,.2.06.06,0,0,0,0,0v0a.09.09,0,0,0,0,0s0,0,0,0l0,0,0,0h.08l.09,0H6.51c.1,0,.26,0,.29-.09A1.63,1.63,0,0,0,6.65,3.73Z"/><path class="cls-3" d="M8.84,4.11A.47.47,0,0,0,8.75,4a1.14,1.14,0,0,0-.15-.23.36.36,0,0,0-.28-.15h0l-.07,0a1.4,1.4,0,0,0-.61.05.24.24,0,0,0-.13.09.25.25,0,0,0-.06.16v.39a.17.17,0,0,0,0,.12,0,0,0,0,0,0,0v0l0,0h.16a.2.2,0,0,0,.15,0l.09,0h.2a1.89,1.89,0,0,0,.67,0C9,4.49,8.94,4.29,8.84,4.11Z"/><path class="cls-2" d="M9.56,2.47A3.5,3.5,0,0,0,9,1.4s0,0,0,0l-.09-.1a.12.12,0,0,0-.1,0h0c-.06-.06-.11-.13-.19-.13s-.07,0-.07.06a.13.13,0,0,0,.05.09l.08.05,0,.05a.08.08,0,0,0,0,.08l0,0s0,0,0,.06,0,0,0,.06c.1.41.22.81.34,1.21a5.2,5.2,0,0,0,.21.55c.06.12.13.24.2.36a.13.13,0,0,0-.05.07c0,.27,0,.53-.09.79a1.73,1.73,0,0,0,0,.32,3.56,3.56,0,0,0-.06.44.08.08,0,0,0,.16,0,.09.09,0,0,0,.11-.08,7.31,7.31,0,0,1,0-.81v0a2.94,2.94,0,0,0,0-.51c0,.14.26.1.25,0A5.16,5.16,0,0,0,9.56,2.47Z"/><path class="cls-4" d="M11.29,12.64a.63.63,0,0,0-.12-.11c-.24-.43-.5-.86-.75-1.28l-.06-.08a.35.35,0,0,0,0-.14A5.91,5.91,0,0,0,9.26,9.57h0a1.12,1.12,0,0,0-.4-.38c-.18-.12-.4-.18-.59-.31a.33.33,0,0,0-.15,0,.66.66,0,0,0,0-.14l0,0h0L8,8.75H7.93a1.11,1.11,0,0,0,0,.17V9a.31.31,0,0,0,0,.13c0,.52-.1,1-.16,1.56v0a2.92,2.92,0,0,1-.12.49.25.25,0,0,0,0,.12.36.36,0,0,1,0,.1,2,2,0,0,0-.38.27l-.1.08,0,0h0l-.11,0a3.91,3.91,0,0,1-.79-.4.17.17,0,0,0-.19,0,.83.83,0,0,0-.08-.12C5.42,10.56,5,9.92,4.46,9.33a.16.16,0,0,0-.08-.06l-.11-.18a.5.5,0,0,0-.14-.15V8.77a.06.06,0,0,0-.06-.06S4,8.73,4,8.77v.14a.35.35,0,0,0-.21.1.93.93,0,0,0-.13.15.35.35,0,0,1-.05.08h0l0,0,0,0h0l-.09.07a.47.47,0,0,0-.13.15h0a3.72,3.72,0,0,0-.37.3,1.38,1.38,0,0,0-.35.47.38.38,0,0,0-.12.13c-.39.64-.83,1.69-.35,2.39A.33.33,0,0,0,2.2,13c.14.17.28.33.41.5a1.08,1.08,0,0,0,0,.36v.39l0,.77a.09.09,0,0,0,0,.05c0,.38,0,.76,0,1.14a.34.34,0,0,0,0,.12v.06a7.69,7.69,0,0,0,0,1.27.29.29,0,0,0,0,.14l0,.66a1.28,1.28,0,0,0,.09.67.5.5,0,0,0,.53.26v0a2.44,2.44,0,0,0,0,.27,2.46,2.46,0,0,0-.07.29.28.28,0,0,0,.07.25.34.34,0,0,1-.06.12.19.19,0,0,0,.22.28,2.54,2.54,0,0,1,1.1-.06H5.82a.26.26,0,0,0,.3,0,.25.25,0,0,0,.12-.28h0l0-.1,0-.26c0-.08,0-.16,0-.24a1.07,1.07,0,0,0,0-.25l0,0h0l0,0,0,0,.09,0h0l.1,0h0c0,.13,0,.26.06.39a.47.47,0,0,1,0,.35c-.08.16,0,.4.22.38.39,0,.77,0,1.15,0a9.29,9.29,0,0,1,1.18,0,.26.26,0,0,0,.26-.26.25.25,0,0,0,0-.12.43.43,0,0,0,0-.12A7.17,7.17,0,0,1,9.61,19a.6.6,0,0,0,.33,0h.13a.42.42,0,0,0,.17-.1h0l.06-.08h0a.17.17,0,0,0,0-.05.12.12,0,0,0,0-.05v0s0-.05,0-.06h0a.11.11,0,0,1,0-.05s0,0,0-.06h0l0-.05a1,1,0,0,0,0-.17c0-.75,0-1.51,0-2.27a2,2,0,0,0,.34,0,2.34,2.34,0,0,0,.58-.14.88.88,0,0,0,.63-.72.26.26,0,0,0,.07-.2A4.86,4.86,0,0,0,11.29,12.64ZM6.42,14.13c-.22.12-.43.21-.64.34l0,0a1.22,1.22,0,0,0-.64.14.86.86,0,0,0-.31.26s-.12.17-.19.25a.26.26,0,0,0-.21,0l-.12-.12,0-.05,0,0h0a.28.28,0,0,0,0-.09h0s0,0,0,0H4.15a.24.24,0,0,0-.12,0H4l-.08,0s0,0,0,0v-.08a.13.13,0,0,0-.06-.11.78.78,0,0,1-.15-.1.13.13,0,0,1,0-.11.14.14,0,0,0,0-.07s0,0,0,0a1.3,1.3,0,0,1,.29-.43l.2-.21a1.09,1.09,0,0,1,.23-.14,3.65,3.65,0,0,1,.54-.23c.18,0,.37,0,.54-.1h0l.09.06.05,0a.26.26,0,0,0,.15,0H5.8l.08,0a.65.65,0,0,0,.29.11l.35.23a.17.17,0,0,0,.14,0l.2.19s0,0,0,0A2.93,2.93,0,0,1,6.42,14.13ZM7,13.67l0,0a.06.06,0,0,0,0-.06l0-.08a.24.24,0,0,0,.14,0Zm3.3.48H10a.4.4,0,0,0-.43-.08.69.69,0,0,0-.2,0c-.15,0-.23.1-.3.22l0,0,0,0-.09.07,0,0,0,0-.12.1a3.14,3.14,0,0,0-.28-.46L8,13.59a.32.32,0,0,0-.1-.1l0,0,0,0-.09-.05H7.71a.22.22,0,0,0-.13,0l-.18.09h0a.57.57,0,0,0,.13-.14v0a.15.15,0,0,0,.13,0h.07a.22.22,0,0,0,.21-.09l.09,0,.21-.14.1,0a.34.34,0,0,0,.31,0,1.87,1.87,0,0,1,.4-.2.72.72,0,0,1,.5,0,1,1,0,0,1,.4.23,1.36,1.36,0,0,1,.24.35,3.35,3.35,0,0,1,.28.72Z"/><path class="cls-5" d="M7.5,12.8c0-.18,0-.36,0-.54l0-.23V12l0-.25a1.77,1.77,0,0,1,.08-.4.5.5,0,0,1-.05-.13.31.31,0,0,0,0,.1.36.36,0,0,1,0,.1,2,2,0,0,0-.38.27l-.1.08,0,0h0l-.11,0A7.78,7.78,0,0,1,6,11.29a3.63,3.63,0,0,1,.64.82.85.85,0,0,1,.06.17.49.49,0,0,1,.13.12,1.28,1.28,0,0,1,.13.88c0,.1,0,.21,0,.31a.2.2,0,0,0,.11,0L7,13.67l0,0a.06.06,0,0,0,0-.06H7v.16l.2-.13.33-.27,0-.05h0a.28.28,0,0,0,0-.09A1.68,1.68,0,0,1,7.5,12.8Z"/><path class="cls-5" d="M7,17.94v0H7c.31,0,.61,0,.92,0a4.37,4.37,0,0,1-.25-1.5v0c0-.27,0-.53-.08-.8l-.2.2a1.54,1.54,0,0,1-.42.28,4.48,4.48,0,0,1-.07.64,4.56,4.56,0,0,1-.2.59,1.3,1.3,0,0,0,0,.13A.58.58,0,0,1,7,17.94Z"/><path class="cls-6" d="M9.44,22.05a3.2,3.2,0,0,0,0-.54c0-.14,0-.28,0-.42a2.69,2.69,0,0,1,0-.57v-.2a.25.25,0,0,0,0-.12.43.43,0,0,0,0-.12A7.17,7.17,0,0,1,9.61,19h0a2,2,0,0,1,0-.23.32.32,0,0,1,0-.14A2.25,2.25,0,0,1,9,18.46a7.9,7.9,0,0,1-.88-.53,2.1,2.1,0,0,1-.5-.34c-.06-.05-.11-.12-.17-.18h0l0,0,0,0a.6.6,0,0,0-.08.08c-.1.09-.18.2-.28.3a.39.39,0,0,1-.51,0,2.37,2.37,0,0,1-1.11.91A3.77,3.77,0,0,1,3.91,19,2.59,2.59,0,0,0,3.37,19h0v.09a.41.41,0,0,1,0,.11v.09a.27.27,0,0,1,0,.13.22.22,0,0,1,.14.21,4.3,4.3,0,0,1-.1.87l.1.12c-.1,1.28-.6,8.29-.23,8.31a20,20,0,0,0,2.44.14s.49-8.29.58-8.35,0-.29,0-.4h0l0-.1.09-.5a1.07,1.07,0,0,0,0-.25l0,0h0l0,0,0,0,.09,0h0l.1,0h0c0,.13,0,.26.06.39a.47.47,0,0,1,0,.35c-.08.16-.41,8.87-.2,8.86L9,29c.05,0,.1-.16.14-.42a2.41,2.41,0,0,1,0-.72c0-.47,0-.95,0-1.42q0-1,.09-1.92c0-.62,0-1.25.09-1.87a.22.22,0,0,1,.08-.15v-.24A.29.29,0,0,1,9.44,22.05Z"/><path class="cls-7" d="M7.75,8.88l0,0h0a.18.18,0,0,0-.19.19v0l0,.08,0,.06-.06,0-.06.07,0,0a2.88,2.88,0,0,0-.4-.09l-.25,0a.14.14,0,0,0-.1-.06l-1.1-.09a2,2,0,0,1-1-.26c-.12-.08-.27.1-.16.2a2.27,2.27,0,0,1,.32.3.11.11,0,0,0,0,.08L5,10s.05.06.08.07l.65.82a1.12,1.12,0,0,0,.42.36l.66.29a.86.86,0,0,0,.27.09.31.31,0,0,0,.22-.11.71.71,0,0,0,.28-.46c0-.25,0-.49.08-.73h0a.09.09,0,0,0,0-.09v-.13a1.11,1.11,0,0,0,0-.51h0c0-.06,0-.13,0-.19l0,0a.61.61,0,0,0,.07-.14.36.36,0,0,0,0-.15h0V9C7.93,9,7.84,8.84,7.75,8.88Zm-1.68.6A.24.24,0,0,0,6,9.57l-.14,0h0l0-.07a0,0,0,0,0,0,0v0Z"/><path class="cls-7" d="M9.08,13.94,9,13.82a1.37,1.37,0,0,0-.41-.57l0,0,0-.07a.13.13,0,0,0-.18,0L8,13.24a.14.14,0,0,0-.08.16.09.09,0,0,0,.07.08s0,0,0,0v0l0,.05,0,0h0a.1.1,0,0,0,.05,0l0,0,.07,0h0l.17.22a1.74,1.74,0,0,1,.11.18l.06.1,0,.05h0a.13.13,0,0,0,.24.09.8.8,0,0,1,.2-.21A.13.13,0,0,0,9.08,13.94Z"/><path class="cls-8" d="M6,.2a5.1,5.1,0,0,1,.75.09,3.34,3.34,0,0,1,1.81,1"/><path class="cls-8" d="M4.11,8.39a2.83,2.83,0,0,1,0,.45,5.31,5.31,0,0,0,3.78,0"/><path class="cls-8" d="M6,.2a4.93,4.93,0,0,0-.75.06A3.36,3.36,0,0,0,3.62,1"/><path class="cls-9" d="M6.7,13.66l-.06,0,0-.05a.61.61,0,0,0-.34-.17,3,3,0,0,1-.38-.15,1.75,1.75,0,0,0-.91,0,1.83,1.83,0,0,0-.82.36,1,1,0,0,0-.47.72.24.24,0,0,0,.24.25v0A.13.13,0,0,0,4,14.7a.08.08,0,0,0,0,0l.06,0h.06a.17.17,0,0,0,.1,0l.07,0,0,.05h0a.2.2,0,0,0,0,.08c0,.16.09.37.2.26a6.64,6.64,0,0,1,.55-.51l.25-.14.13,0h0a.19.19,0,0,0,.19.08,1.59,1.59,0,0,0,.55-.31l.13-.08h0l.06,0a.77.77,0,0,0,.28-.23C6.82,13.78,6.82,13.7,6.7,13.66Z"/><path class="cls-9" d="M10.46,13.9a2.55,2.55,0,0,0-.62-.83,1,1,0,0,0-.47-.16,2.32,2.32,0,0,1-.53,0,.17.17,0,0,0-.18.25c.16.22.31.46.46.7a.15.15,0,0,0,.15.08l.11,0a6.57,6.57,0,0,1,.89.12A.17.17,0,0,0,10.46,13.9Z"/><path class="cls-10" d="M8.9,4.24a.24.24,0,0,0-.07-.12h0a.16.16,0,0,0-.08-.06.21.21,0,0,0-.11,0,.18.18,0,0,0-.1,0,.16.16,0,0,0-.08.06l0,0a.18.18,0,0,0,0,.14v.07a.29.29,0,0,0,.07.12h0a.14.14,0,0,0,.08,0,.2.2,0,0,0,.11,0l.1,0,.08-.06,0-.06a.28.28,0,0,0,0-.13Z"/><path class="cls-10" d="M6.83,4.24a.24.24,0,0,0-.07-.12h0a.16.16,0,0,0-.08-.06.21.21,0,0,0-.11,0,.18.18,0,0,0-.1,0,.16.16,0,0,0-.08.06l0,0a.35.35,0,0,0,0,.14v.07a.29.29,0,0,0,.07.12h0a.14.14,0,0,0,.08,0,.22.22,0,0,0,.11,0l.1,0,.08-.06,0-.06a.15.15,0,0,0,0-.13Z"/><path class="cls-11" d="M7.49,3.53a.08.08,0,1,0,0,.16A.08.08,0,0,0,7.49,3.53Z"/><path class="cls-8" d="M5.25,16.53c0,.74-.45,1.32-1,1.32s-1-.67-1-1.49v-.54"/><polyline class="cls-8" points="4.25 15.56 3.23 15.83 3.23 15.18 3.81 15.02"/><path class="cls-8" d="M8.37,15.43v.92c0,.83.42,1.5,1,1.5s1-.67,1-1.49v-.43"/><path class="cls-8" d="M9.35,13.86a12.74,12.74,0,0,1-2.73,2.5c-1,.41-1.27.29-1.76-.18s-2.45-2.9-2.45-2.9"/><line class="cls-8" x1="4.89" y1="13.16" x2="4.03" y2="12.14"/><line class="cls-8" x1="6.15" y1="14.97" x2="5.72" y2="14.51"/><path class="cls-8" d="M10.5,14.13S10,12.46,8.86,13a2.51,2.51,0,0,0-.28.13"/><line class="cls-8" x1="10.87" y1="14.22" x2="9.23" y2="14"/><path class="cls-8" d="M8,15.26a4.55,4.55,0,0,0,3.26.5c1.51-.52.11-3-.06-3.25"/><path class="cls-8" d="M5.72,14.51c-.18,0-.6-.07-1.11.57a.21.21,0,0,1-.22.09c-.11,0-.19-.21-.1-.4A1.35,1.35,0,0,1,5.64,14"/><path class="cls-8" d="M4.31,14.73a.26.26,0,0,1-.29.06c-.19-.07-.1-.36,0-.49a1.58,1.58,0,0,1,1.34-.75"/><path class="cls-8" d="M3.91,14.59a.23.23,0,0,1-.24-.13c-.13-.25.12-.62.48-.92a2.06,2.06,0,0,1,2.72.24"/><path class="cls-8" d="M5.5,19.3a4.08,4.08,0,0,0,1.22.14,3.68,3.68,0,0,0,1.2-.2"/><line class="cls-8" x1="9.62" y1="18.57" x2="9.12" y2="29.01"/><path class="cls-8" d="M8.17,8.84a3.06,3.06,0,0,1,1.54,1.33c.85,1.21,1.62,2.5,1.62,2.5"/><path class="cls-8" d="M7.37,3.2c0,.15.23,3,.23,3l-.88-.16"/><path class="cls-8" d="M8.59,5.07a.91.91,0,0,1-1.07,0"/><path class="cls-8" d="M7.43,3.76A.86.86,0,0,1,8,3.51a.88.88,0,0,1,.88.88.93.93,0,0,1-.05.29"/><path class="cls-10" d="M6.67,3.39h0L4.94,3.32a.26.26,0,1,1,0-.51l1.72.07a.26.26,0,0,1,.25.26A.26.26,0,0,1,6.67,3.39Z"/><path class="cls-10" d="M9.1,3.59a.2.2,0,0,0-.2-.19l-1.47,0h0v.09a2.64,2.64,0,0,1,0,.28H8.91A.2.2,0,0,0,9.1,3.59Z"/><line class="cls-8" x1="7.52" y1="4.57" x2="8.9" y2="4.54"/><line class="cls-8" x1="5.15" y1="4.62" x2="6.8" y2="4.58"/><path class="cls-8" d="M3.91,9s-3.25,2.25-1.5,4.32"/><polyline class="cls-8" points="6.99 13.72 6.99 12.53 4.09 8.84"/><path class="cls-8" d="M6.71,17.66A2.15,2.15,0,0,0,7,16.74v-.55"/><path class="cls-8" d="M3.25,19c2.15.21,3.07-.6,3.46-1.29"/><path class="cls-8" d="M3.38,19.34s-.62.21-.66-.54-.13-5.3-.13-5.3"/><polyline class="cls-8" points="4.1 8.47 3.54 9.94 5.13 10.76 5.02 11.49 6.99 12.53"/><path class="cls-8" d="M7.85,17.61a1.91,1.91,0,0,0,1.94,1"/><path class="cls-8" d="M7.58,15.72l0,1a2.23,2.23,0,0,0,.23.85"/><polyline class="cls-8" points="7.92 8.82 7.46 12.41 7.48 13.41"/><path class="cls-8" d="M8.08,8.74s.63,1.06.63,1.06l-.63.62.39.7-1,1.38"/><path class="cls-8" d="M9.65,19s.7.09.72-.53c0-.31,0-2,0-2.45"/><line class="cls-8" x1="6.34" y1="9.19" x2="5.27" y2="10.34"/><line class="cls-8" x1="6.99" y1="9.08" x2="7.8" y2="9.74"/><path class="cls-8" d="M7.33,15.93c0,.5,0,1,0,1.5"/><path class="cls-8" d="M6.82,9.19s.31,1.9.45,4.37"/><path class="cls-8" d="M8,17.81l-.09.1-.58-.46L6.67,18l-.12-.08"/><polyline class="cls-8" points="5.95 11.21 7.13 11.74 7.6 11.32"/><path class="cls-8" d="M7.85,13.33,8.4,13a2.58,2.58,0,0,1,.78,1"/><path class="cls-8" d="M8.77,14.51a4.23,4.23,0,0,0-1-1.23l-2,1.23"/><path class="cls-8" d="M2.88,4.28a.72.72,0,0,0-.31-.23.63.63,0,0,0-.52,0s-.52.17-.39.94.81.78,1,1.25l0,.11s0,.33.3.28a.24.24,0,0,0,.14-.06"/><path class="cls-8" d="M2.2,4.58a.9.9,0,0,0,.31.49,1.3,1.3,0,0,1,.26.28"/><path class="cls-8" d="M2.18,5.21a.52.52,0,0,0,.39-.09"/><path class="cls-8" d="M2.37,5.2a.61.61,0,0,1,0,.24"/><path class="cls-8" d="M9.66,4a.6.6,0,0,1,.24.06s.52.17.39.94c-.09.55-.46.71-.72.92"/><path class="cls-8" d="M9.75,4.58a2.19,2.19,0,0,1-.13.27"/><path class="cls-8" d="M9.77,5.21H9.63"/><path class="cls-8" d="M3.21,3.53A3.19,3.19,0,0,0,3.54.92"/><path class="cls-8" d="M2.2,4S2.09.52,4,.69"/><path class="cls-8" d="M9.44,3.61A7.31,7.31,0,0,1,8.6,1.2"/><path class="cls-8" d="M8.42,1.09s.28-.18.63.31A4.46,4.46,0,0,1,9.82,4"/><path class="cls-12" d="M6.87,9.19h0Z"/><path class="cls-12" d="M6.75,9.21Z"/><path class="cls-13" d="M7.05,9.45l.72.11L7.69,8.9a1.4,1.4,0,0,1-.64.18"/><polyline class="cls-13" points="6.58 9.09 5.76 8.9 5.84 9.77 6.64 9.49"/><path class="cls-13" d="M6.87,9.55s-.27,0-.29-.24V9.26A.27.27,0,0,1,6.81,9h0a.27.27,0,0,1,.29.24v0A.25.25,0,0,1,6.87,9.55Z"/><path class="cls-4" d="M6.52,29.86a1.83,1.83,0,0,1,.09-.52.42.42,0,0,1,.4-.25c.13,0,.25,0,.33,0s.22.05.3,0a3.89,3.89,0,0,1,.47-.09,4.75,4.75,0,0,1,1.06.09c.3,0,.61.1.91.16h.11l.16.05a1.16,1.16,0,0,1,.66.31.62.62,0,0,1,.4.2.86.86,0,0,1,.1.61c-.09.3-.37.3-.62.29a.33.33,0,0,1-.14,0,4.71,4.71,0,0,1-.92,0c-.32,0-.65,0-1,0l-.93,0a4.67,4.67,0,0,0-1,.07.36.36,0,0,1-.45-.35A5.65,5.65,0,0,1,6.52,29.86Z"/><path class="cls-4" d="M.28,30.18a.85.85,0,0,1,.24-.35.63.63,0,0,1,.4-.26s.16-.16.2-.15.12,0,.23,0a2.12,2.12,0,0,1,.85-.2c.1,0,.2-.05.3-.06a7.08,7.08,0,0,1,1.22-.08c.21,0,.42,0,.63,0a1.51,1.51,0,0,1,.56,0c.42.14.32.55.35,1a.68.68,0,0,1,0,.4c-.14.3-.45.27-.74.27l-1.89,0-.94,0c-.31,0-.64,0-.95,0A.43.43,0,0,1,.28,30.18Z"/><path class="cls-8" d="M4.4,29.28a3.18,3.18,0,0,0-2-.18C1,29.31.29,29.75.2,30.34c0,0-.06.35.28.36"/><path class="cls-8" d="M5.14,29.13l.11,1.13s.07.44-.31.44H.48"/><line class="cls-8" x1="5.24" y1="30.08" x2="0.28" y2="30.08"/><path class="cls-8" d="M7.38,29.28a3.2,3.2,0,0,1,2.05-.18c1.39.21,2.06.65,2.15,1.24,0,0,.06.35-.28.36"/><path class="cls-8" d="M6.65,29.13l-.12,1.13s-.06.44.31.44H11.3"/><line class="cls-8" x1="6.55" y1="30.37" x2="11.51" y2="30.37"/><polyline class="cls-8" points="3.11 28.91 5.69 29.06 6.36 19.44"/><line class="cls-8" x1="3.11" y1="28.91" x2="3.44" y2="18.98"/><polyline class="cls-8" points="7.74 29.13 6.46 29.09 6.7 19.48"/><path class="cls-8" d="M7,6.14a2.08,2.08,0,0,0-1.21.51"/><path class="cls-8" d="M7.6,6.24a.71.71,0,0,1,.48.31"/><path class="cls-8" d="M5.22,4.78a.83.83,0,0,1-.12-.44A.88.88,0,1,1,6,5.22a.81.81,0,0,1-.41-.11"/><path class="cls-8" d="M3.3,3.4l.24,1.81A5.35,5.35,0,0,1,5.93,6.5"/><line class="cls-8" x1="2.88" y1="4.12" x2="3.25" y2="7.22"/><path class="cls-8" d="M3.25,7.22s0,1.71,3.66,1.7A2.46,2.46,0,0,0,9.5,6.43L9.65,3.9"/><path class="cls-8" d="M8,6.48A2,2,0,0,1,9.16,5.39l.28-1.78"/><path class="cls-8" d="M7.46,7A1.51,1.51,0,0,1,6.3,6.86"/></g></g></svg>