<svg xmlns="http://www.w3.org/2000/svg" viewBox="0 0 30.23 12.47"><defs><style>.cls-1{fill:#af6e30;}.cls-2{fill:none;stroke:#1c204d;stroke-linecap:round;stroke-linejoin:round;stroke-width:0.4px;}.cls-3{fill:#89d3de;}.cls-4{fill:#f9b730;}</style></defs><g id="Layer_2" data-name="Layer 2"><g id="Layer_1-2" data-name="Layer 1"><polyline class="cls-1" points="22.25 7.18 17.52 7.18 16.1 7.18 10.39 7.18 9.01 7.18 0.2 7.18 0.2 8.6 9.54 8.6 10.9 8.6 15.61 8.6 16.94 8.6 22.25 8.6"/><rect class="cls-1" x="1.11" y="8.6" width="1.12" height="3.67"/><polyline class="cls-1" points="2.23 9.28 9.78 9.28 11.13 9.28 15.4 9.28 16.69 9.28 22.25 9.28"/><polyline class="cls-1" points="22.25 5.09 16.21 5.09 8.75 5.09 1.41 5.09 1.41 6.33 6.34 6.33 17.75 6.33 22.25 6.33"/><polyline class="cls-1" points="22.25 2.99 12.38 2.99 10.44 2.99 1.41 2.99 1.41 4.24 9.46 4.24 11.55 4.24 22.25 4.24"/><polyline class="cls-1" points="22.25 2.23 1.41 2.23 1.41 0.99 22.25 0.99"/><polyline class="cls-1" points="4.47 6.44 4.47 7.18 3.43 7.18 3.43 6.42"/><line class="cls-1" x1="4.47" y1="4.33" x2="4.47" y2="5.02"/><line class="cls-1" x1="4.47" y1="2.33" x2="4.47" y2="2.94"/><polyline class="cls-1" points="3.43 0.91 3.43 0.2 4.47 0.2 4.47 0.91"/><line class="cls-1" x1="3.43" y1="2.94" x2="3.43" y2="2.33"/><line class="cls-1" x1="3.43" y1="5.03" x2="3.43" y2="4.33"/><polyline class="cls-1" points="7.99 7.18 12.71 7.18 14.13 7.18 19.84 7.18 21.23 7.18 30.03 7.18 30.03 8.6 20.69 8.6 19.33 8.6 14.62 8.6 13.29 8.6 7.99 8.6"/><rect class="cls-1" x="28" y="8.6" width="1.12" height="3.67" transform="translate(57.13 20.87) rotate(-180)"/><polyline class="cls-1" points="28 9.28 20.45 9.28 19.1 9.28 14.83 9.28 13.54 9.28 7.99 9.28"/><polyline class="cls-1" points="7.99 5.09 14.02 5.09 21.48 5.09 28.82 5.09 28.82 6.33 23.89 6.33 12.48 6.33 7.99 6.33"/><polyline class="cls-1" points="7.99 2.99 17.85 2.99 19.79 2.99 28.82 2.99 28.82 4.24 20.77 4.24 18.68 4.24 7.99 4.24"/><polyline class="cls-1" points="7.99 2.23 28.82 2.23 28.82 0.99 7.99 0.99"/><polyline class="cls-1" points="25.76 6.44 25.76 7.18 26.8 7.18 26.8 6.42"/><line class="cls-1" x1="25.76" y1="4.33" x2="25.76" y2="5.02"/><line class="cls-1" x1="25.76" y1="2.33" x2="25.76" y2="2.94"/><polyline class="cls-1" points="26.8 0.91 26.8 0.2 25.76 0.2 25.76 0.91"/><line class="cls-1" x1="26.8" y1="2.94" x2="26.8" y2="2.33"/><line class="cls-1" x1="26.8" y1="5.03" x2="26.8" y2="4.33"/><rect class="cls-1" x="2.02" y="7.54" width="26.21" height="1.82"/><rect class="cls-1" x="25.76" y="0.99" width="1.04" height="6.54"/><rect class="cls-1" x="3.43" y="1.38" width="1.04" height="6.51"/><polyline class="cls-2" points="22.25 7.18 17.52 7.18 16.1 7.18 10.39 7.18 9.01 7.18 0.2 7.18 0.2 8.6 9.54 8.6 10.9 8.6 15.61 8.6 16.94 8.6 22.25 8.6"/><rect class="cls-2" x="1.11" y="8.6" width="1.12" height="3.67"/><polyline class="cls-2" points="2.23 9.28 9.78 9.28 11.13 9.28 15.4 9.28 16.69 9.28 22.25 9.28"/><polyline class="cls-2" points="22.25 5.09 16.21 5.09 8.75 5.09 1.41 5.09 1.41 6.33 6.34 6.33 17.75 6.33 22.25 6.33"/><polyline class="cls-2" points="22.25 2.99 12.38 2.99 10.44 2.99 1.41 2.99 1.41 4.24 9.46 4.24 11.55 4.24 22.25 4.24"/><polyline class="cls-2" points="22.25 2.23 1.41 2.23 1.41 0.99 22.25 0.99"/><polyline class="cls-2" points="4.47 6.44 4.47 7.18 3.43 7.18 3.43 6.42"/><line class="cls-2" x1="4.47" y1="4.33" x2="4.47" y2="5.02"/><line class="cls-2" x1="4.47" y1="2.33" x2="4.47" y2="2.94"/><polyline class="cls-2" points="3.43 0.91 3.43 0.2 4.47 0.2 4.47 0.91"/><line class="cls-2" x1="3.43" y1="2.94" x2="3.43" y2="2.33"/><line class="cls-2" x1="3.43" y1="5.03" x2="3.43" y2="4.33"/><polyline class="cls-2" points="7.99 7.18 12.71 7.18 14.13 7.18 19.84 7.18 21.23 7.18 30.03 7.18 30.03 8.6 20.69 8.6 19.33 8.6 14.62 8.6 13.29 8.6 7.99 8.6"/><rect class="cls-2" x="28" y="8.6" width="1.12" height="3.67" transform="translate(57.13 20.87) rotate(-180)"/><polyline class="cls-2" points="28 9.28 20.45 9.28 19.1 9.28 14.83 9.28 13.54 9.28 7.99 9.28"/><polyline class="cls-2" points="7.99 5.09 14.02 5.09 21.48 5.09 28.82 5.09 28.82 6.33 23.89 6.33 12.48 6.33 7.99 6.33"/><polyline class="cls-2" points="7.99 2.99 17.85 2.99 19.79 2.99 28.82 2.99 28.82 4.24 20.77 4.24 18.68 4.24 7.99 4.24"/><polyline class="cls-2" points="7.99 2.23 28.82 2.23 28.82 0.99 7.99 0.99"/><polyline class="cls-2" points="25.76 6.44 25.76 7.18 26.8 7.18 26.8 6.42"/><line class="cls-2" x1="25.76" y1="4.33" x2="25.76" y2="5.02"/><line class="cls-2" x1="25.76" y1="2.33" x2="25.76" y2="2.94"/><polyline class="cls-2" points="26.8 0.91 26.8 0.2 25.76 0.2 25.76 0.91"/><line class="cls-2" x1="26.8" y1="2.94" x2="26.8" y2="2.33"/><line class="cls-2" x1="26.8" y1="5.03" x2="26.8" y2="4.33"/><path class="cls-3" d="M12.35,5.76A15.63,15.63,0,0,0,10,5.94a3.82,3.82,0,0,0-.82,0A17.54,17.54,0,0,0,7.4,6a4,4,0,0,0-1.55.08,7.54,7.54,0,0,0-1.57-.24c-.64-.07-.63.93,0,1a5.08,5.08,0,0,1,1.4.25,1.5,1.5,0,0,0,1,0L7.47,7h.17a7,7,0,0,0,.91.06A.46.46,0,0,0,8.82,7h.25a7.37,7.37,0,0,0,.82,0A2.15,2.15,0,0,0,11,7.1c.23,0,.34-.13.54-.21a3,3,0,0,1,.81-.13A.5.5,0,0,0,12.35,5.76Z"/><path class="cls-4" d="M13.14,3.49s0,0,0,0h0c.06-.07,0-.2-.2-.28a.55.55,0,0,0-.32-.06A.53.53,0,0,0,12.33,3,6.86,6.86,0,0,0,8.25,1.8,7,7,0,0,0,4.13,3a.49.49,0,0,0-.28.12.56.56,0,0,0-.32,0c-.17.08-.25.21-.19.29h0s0,0,0,0,.08.22.29.3A.77.77,0,0,0,4,3.87.56.56,0,0,0,4.17,4a.43.43,0,0,0,0,.37,9.65,9.65,0,0,1,.13,1.08c.06.34.3.47.62.54.75.16,1.47-.09,2.22,0a5.46,5.46,0,0,0,1.07.09,11.07,11.07,0,0,0,1.12-.22,5.24,5.24,0,0,1,1.12,0,7.45,7.45,0,0,1,1.32.23c.22.06.29-.26.41-.44a3.55,3.55,0,0,0,.29-1.38A.57.57,0,0,0,12.37,4a.56.56,0,0,0,.14-.09.83.83,0,0,0,.35-.07C13.07,3.71,13.2,3.57,13.14,3.49Z"/><line class="cls-2" x1="4.37" y1="5.94" x2="3.93" y2="3.92"/><line class="cls-2" x1="12.2" y1="6" x2="12.51" y2="3.86"/><path class="cls-2" d="M12.41,3.13c0,.26-1.87.47-4.18.47s-4.18-.2-4.18-.46S5.94,1.8,8.25,1.8,12.41,2.87,12.41,3.13Z"/><path class="cls-2" d="M4.13,3a.49.49,0,0,0-.28.12.56.56,0,0,0-.32,0c-.17.08-.25.21-.19.29h0s0,0,0,0,.08.22.29.3A.77.77,0,0,0,4,3.87.72.72,0,0,0,4.3,4a1,1,0,0,0,.34,0A.74.74,0,0,0,5,4.13a1.24,1.24,0,0,0,.35,0,.82.82,0,0,0,.34.09.89.89,0,0,0,.35,0,.79.79,0,0,0,.35.08.74.74,0,0,0,.36,0,.83.83,0,0,0,.36.08,1,1,0,0,0,.33,0,1,1,0,0,0,.34.06l.2,0"/><path class="cls-2" d="M12.33,3a.53.53,0,0,1,.28.11.55.55,0,0,1,.32.06c.17.08.26.21.2.28h0s0,0,0,0-.07.22-.28.3a.83.83,0,0,1-.35.07.63.63,0,0,1-.34.15,1,1,0,0,1-.34,0,.79.79,0,0,1-.33.11.9.9,0,0,1-.34,0,.87.87,0,0,1-.34.09.8.8,0,0,1-.36,0,.73.73,0,0,1-.34.09.89.89,0,0,1-.36,0,1,1,0,0,1-.36.08.8.8,0,0,1-.34-.06.78.78,0,0,1-.34.07l-.18,0"/><path class="cls-2" d="M8,4.26a.72.72,0,0,0,.28,0,1.23,1.23,0,0,0,.31,0"/><path class="cls-2" d="M4.74,6h8.57A1.71,1.71,0,0,1,12,6.69"/><path class="cls-2" d="M4.17,6.63A1.72,1.72,0,0,1,3.3,6h2"/><path class="cls-2" d="M4.67,6.71a2.16,2.16,0,0,0,1.47.44h4.47A2.11,2.11,0,0,0,12,6.69H4.63a1.64,1.64,0,0,1-.46-.07"/></g></g></svg>