<svg xmlns="http://www.w3.org/2000/svg" viewBox="0 0 12.61 17.12"><defs><style>.cls-1{fill:#af6e30;}.cls-2{fill:#f47951;}.cls-3{fill:#ea4827;}.cls-4{fill:#fff;}.cls-5{fill:none;stroke:#1c204d;stroke-linecap:round;stroke-linejoin:round;stroke-width:0.4px;}.cls-6{fill:#1c204d;}</style></defs><g id="Layer_2" data-name="Layer 2"><g id="Layer_1-2" data-name="Layer 1"><path class="cls-1" d="M12.29,8.33A.75.75,0,0,0,12.36,8a1.09,1.09,0,0,0-.11-.43,1.18,1.18,0,0,0-.31-.32,1,1,0,0,0-.41-.15,2,2,0,0,0,0-.26.74.74,0,0,0-.68-.57.66.66,0,0,0-.52.26.76.76,0,0,0-.09.18l0,.06,0,0L10,6.84A2.42,2.42,0,0,0,9.49,7a1.54,1.54,0,0,0-.19.17,2.72,2.72,0,0,0-.79-.26C8,6.86,7.88,7,7.41,6.57A3.3,3.3,0,0,1,6.85,5.3c-.33-1.06-.37-2.24-1.6-2.66-2.9-1-4,1.77-3.91,4.13,0,.05-.15.19-.14.23A10.22,10.22,0,0,0,.28,9.73a4,4,0,0,0,1,3.06.81.81,0,0,0,.47.25A4.13,4.13,0,0,0,3,13.35a5.53,5.53,0,0,0,.7.18,3.22,3.22,0,0,0,.62,0c.27.07.53.14.8.19a14.22,14.22,0,0,0,2.16.2.32.32,0,0,0,.14,0l.43.06h.16a.53.53,0,0,0,.57,0l.28-.15a2.17,2.17,0,0,0,1.1-.48,3.41,3.41,0,0,0,.93-1.14,4.27,4.27,0,0,0,.3-1.5,2,2,0,0,0,0-.81l.06,0a.94.94,0,0,0,.41,0,.77.77,0,0,0,.46-.37.82.82,0,0,0,.09-.61.75.75,0,0,0-.14-.3h0A.88.88,0,0,0,12.29,8.33Z"/><path class="cls-2" d="M4.87,5.33a.64.64,0,0,0-.6-.49h0A1,1,0,0,0,4,4.61a1.52,1.52,0,0,0-.58-.22,1,1,0,0,0-.76.16c-.27.19-.54.44-.42.81a1.07,1.07,0,0,0,.16.27l0,0a.52.52,0,0,0,.46.25H3l.09,0,.6.15a1.08,1.08,0,0,0,.79,0A.68.68,0,0,0,4.87,5.33Z"/><path class="cls-3" d="M4.33,7.31a.54.54,0,0,0,0-.11c0-.13,0-.26,0-.4a.86.86,0,0,0,0-.32.48.48,0,0,0-.33-.33H3.8l-.11,0a.73.73,0,0,0-.36,0,.84.84,0,0,0-.48.39,1.25,1.25,0,0,0-.18.41.82.82,0,0,0,0,.38.49.49,0,0,0,.48.36.45.45,0,0,0,.31-.12v0l0,.12a.43.43,0,0,0,.3.3.48.48,0,0,0,.43-.11.59.59,0,0,0,.12-.22A.62.62,0,0,0,4.33,7.31Z"/><path class="cls-3" d="M5.72,1.83a.42.42,0,0,0-.33,0h0l0-.05,0,0A.62.62,0,0,0,5.14,1,.83.83,0,0,0,4.56.79h-.1A.63.63,0,0,0,4.3.56.83.83,0,0,0,4.22.44.67.67,0,0,0,3.39.23a.51.51,0,0,0-.28.41s0,0,0,0A.75.75,0,0,0,3,1.23l-.12,0a.43.43,0,0,0-.31.36.41.41,0,0,0,.2.43,1,1,0,0,0,.54.1.41.41,0,0,0-.1.41A.89.89,0,0,0,3.43,3,.65.65,0,0,0,4,3.11a.7.7,0,0,0,.43-.44s0,0,0-.08a.82.82,0,0,0,.34-.09l0,0a1.12,1.12,0,0,0,.62.25A.52.52,0,0,0,6,2.37.47.47,0,0,0,5.72,1.83Z"/><path class="cls-4" d="M3.57,3.79a1,1,0,0,0-.08-.11L3.38,3.6a.24.24,0,0,0-.1-.05l-.12,0-.09,0a.52.52,0,0,0-.13-.06H2.83l-.14,0a.35.35,0,0,1-.11,0l-.1,0a.34.34,0,0,0-.14.09.24.24,0,0,0-.09.14.33.33,0,0,0,0,.17.38.38,0,0,0,.13.3.39.39,0,0,0,.3.13h.29a.35.35,0,0,0,.15.07.33.33,0,0,0,.17,0,.3.3,0,0,0,.16,0,.4.4,0,0,0,.2-.26l0-.11A.43.43,0,0,0,3.57,3.79Z"/><path class="cls-4" d="M5.44,4.22a.36.36,0,0,0-.08-.15A.32.32,0,0,0,5.24,4a1.83,1.83,0,0,0-.3-.18,1.84,1.84,0,0,0-.25-.09l-.18,0-.19,0a.36.36,0,0,0-.15.08.25.25,0,0,0-.11.12A.31.31,0,0,0,4,4.05a.32.32,0,0,0,0,.17.44.44,0,0,0,.2.26l.11,0H4.5l.06,0,.1.05,0,0c.08.07.2,0,.31,0s0,.12,0,.12h.11a.36.36,0,0,0,.15-.08.2.2,0,0,0,.08-.08.39.39,0,0,0,.08-.14A.88.88,0,0,0,5.44,4.22Z"/><path class="cls-2" d="M8.21,16.18a9.75,9.75,0,0,0-2.35-.1V16a7.06,7.06,0,0,0,0-1.38.79.79,0,0,0-.06-.22h0a.33.33,0,0,0-.16-.55H5.54l-.17-.06A1.74,1.74,0,0,0,5,13.66H4.39a.41.41,0,0,0-.19,0A.34.34,0,0,0,4,14a1.49,1.49,0,0,0,0,.21,4.43,4.43,0,0,0,.06.51.19.19,0,0,0,.07.12.58.58,0,0,0,0,.19l0,.55a2.8,2.8,0,0,0,0,.5c-.75,0-1.49,0-2.24.1-.56,0-.56.89,0,.86A22.34,22.34,0,0,1,5,16.91,21.82,21.82,0,0,1,8,17C8.52,17.13,8.75,16.3,8.21,16.18Z"/><path class="cls-5" d="M3.19,16.34c-.32,0-.73,0-.73.32,0,0,0,.26.46.26"/><path class="cls-5" d="M5,13.74v2.91a.25.25,0,0,1-.27.27H2c-.19,0-.58-.07-.56-.36S2.26,16,4.12,16a.89.89,0,0,0,.3.07"/><path class="cls-5" d="M11.17,9.55a4.49,4.49,0,0,1,.13,1.21c0,2-1.36,3.71-4.48,3.21l-4.58-.73S-.08,13,.23,9.77a6.59,6.59,0,0,1,.63-1.9,4.44,4.44,0,0,0,.48-1.95c.1-1.07.51-2.71,1.71-3.32"/><path class="cls-5" d="M4.89,2.48c2.58.69,1.12,4.07,3.2,4.4h0a3.66,3.66,0,0,1,2.62,1.58"/><path class="cls-5" d="M2.25,9.31A3.39,3.39,0,0,1,4,10c1.23.72,2.34.91,2.9.44A2.7,2.7,0,0,0,7.76,8"/><path class="cls-5" d="M1.52,9.79a2.4,2.4,0,0,1,.88-.47"/><path class="cls-5" d="M2.24,9.32a2,2,0,0,1,1.24-.63A4.65,4.65,0,0,1,6.6,9.2"/><path class="cls-5" d="M4.25,10.12s-1.06.94-1.32,1.15-1.36.71-1.7-.11a2.72,2.72,0,0,1-.17-2.05"/><path class="cls-5" d="M2.3,8.5a2.57,2.57,0,0,0-.11.88"/><path class="cls-5" d="M6.2,8.07h0a2.39,2.39,0,0,1,.61.16c.18.1-.19.31-.65.27"/><path class="cls-5" d="M6.29,8.51a1.39,1.39,0,0,1,.61.23c.28.21-.4.33-.78.22"/><path class="cls-5" d="M4.34,8.59a2.94,2.94,0,0,1,2.26-1,1.07,1.07,0,0,1,.49.09c.12.1-.25.39-.85.4"/><path class="cls-5" d="M3.93,4.48a.75.75,0,0,1,0-.26.71.71,0,0,1,1.4.19.76.76,0,0,1-.26.46"/><path class="cls-5" d="M2.22,4.34a.72.72,0,0,1,0-.36.71.71,0,0,1,1.4.19"/><line class="cls-5" x1="4.04" y1="4.48" x2="5.2" y2="4.64"/><line class="cls-5" x1="2.19" y1="4.23" x2="3.1" y2="4.36"/><line class="cls-5" x1="5.15" y1="3.4" x2="4.11" y2="3.54"/><path class="cls-5" d="M4.24,5.71c-.09-.19-.44-.25-.44-.25L2.72,5.35A1.09,1.09,0,0,0,2,5.56,1.38,1.38,0,0,1,3.52,4.37a.86.86,0,0,1,.65.42"/><path class="cls-5" d="M2.18,5.42s.06.68,1.69.66"/><path class="cls-5" d="M4.17,4.79c.36-.09.58.16.68.52a.69.69,0,0,1-.47.83.74.74,0,0,1-.51-.06"/><path class="cls-6" d="M3.22,3.59a.1.1,0,0,0,0-.07l0,0a.2.2,0,0,0-.11,0H3a.19.19,0,0,0-.09,0l0,0a.1.1,0,0,0,0,.07.11.11,0,0,0,0,.08.13.13,0,0,0,0,.08s0,0,0,.06l0,0a.2.2,0,0,0,.11,0h0a.15.15,0,0,0,.09-.06l0,0a.08.08,0,0,0,0-.06.12.12,0,0,0,0-.08A.11.11,0,0,0,3.22,3.59Z"/><path class="cls-6" d="M5,3.8s0,0,0-.06l0,0a.2.2,0,0,0-.11,0h0a.15.15,0,0,0-.09.06l0,0a.08.08,0,0,0,0,.06.12.12,0,0,0,0,.08.11.11,0,0,0,0,.08.1.1,0,0,0,0,.07l0,0a.2.2,0,0,0,.11,0h0a.19.19,0,0,0,.09,0l0,0A.1.1,0,0,0,5,4a.11.11,0,0,0,0-.08A.13.13,0,0,0,5,3.8Z"/><path class="cls-5" d="M5.26,1.62a.54.54,0,0,0,.06-.25A.58.58,0,0,0,4.74.78a.76.76,0,0,0-.26.06A.73.73,0,0,0,3,.93a.63.63,0,0,0,.1.36.58.58,0,0,0-.19,0,.47.47,0,0,0,0,.93.45.45,0,0,0,.26-.08.6.6,0,0,0-.1.35.64.64,0,0,0,.63.64.59.59,0,0,0,.63-.54"/><path class="cls-5" d="M5,2.31a.54.54,0,0,1-.47.27.41.41,0,0,1-.16,0"/><path class="cls-5" d="M5.21,1.77a.54.54,0,0,1,.22-.05.56.56,0,0,1,.25,1.05"/><path class="cls-5" d="M4.12,16c0-.05-.13-2.4-.13-2.4"/><path class="cls-5" d="M6.82,16.34c.32,0,.73,0,.73.32,0,0,0,.26-.46.26"/><path class="cls-5" d="M5,13.74v2.91a.24.24,0,0,0,.26.27H8c.19,0,.58-.07.56-.36S7.75,16,5.89,16a.89.89,0,0,1-.3.07"/><path class="cls-5" d="M5.89,16c0-.05.09-2.15.09-2.15"/><path class="cls-5" d="M9.08,7.13a2.49,2.49,0,0,0,1.27-.64c.64-.54,1.1-.27,1.27.57a.86.86,0,0,1,.75.63.77.77,0,0,1-.28.89.78.78,0,0,1,.23.78.75.75,0,0,1-1,.61"/><path class="cls-5" d="M3.18,6.08a4.94,4.94,0,0,0-.4.55c-.2.32-.42.92.12,1a.45.45,0,0,0,.55-.35l0-.21"/><path class="cls-5" d="M4.17,6.21A3.68,3.68,0,0,0,4.36,7c.14.34,0,1-.55.88a.44.44,0,0,1-.36-.54l0-.21.08-.37"/></g></g></svg>