<svg xmlns="http://www.w3.org/2000/svg" viewBox="0 0 10.54 30.54"><defs><style>.cls-1{fill:#fff;}.cls-2{fill:#0d773c;}.cls-3,.cls-6{fill:#f47951;}.cls-4{fill:#e64930;}.cls-5{fill:none;}.cls-5,.cls-6{stroke:#1c204d;stroke-linecap:round;stroke-linejoin:round;stroke-width:0.4px;}.cls-7{fill:#1c204d;}</style></defs><g id="Layer_2" data-name="Layer 2"><g id="Layer_1-2" data-name="Layer 1"><path class="cls-1" d="M8.74,11.63a7,7,0,0,0-.52-1.07,2.55,2.55,0,0,0-.78-1,1.22,1.22,0,0,0-.88-.09l-.13,0H6.29a8.16,8.16,0,0,0-1.22.19,6.65,6.65,0,0,1-1,0,1.25,1.25,0,0,0-1.31.58c-.43.61-.85,1.25-1.24,1.89A13.14,13.14,0,0,0,.36,14.49,1.48,1.48,0,0,0,.55,16c.47.5,1.05.31,1.61.13.24-.08-.29.51-.08.54a3.63,3.63,0,0,0,1.07.21c.35,0,2.68.17,3,.17a10.66,10.66,0,0,0,1.28-.14c.53-.07.26-1.5.56-1.9a4.16,4.16,0,0,0,.62-1.11A3.34,3.34,0,0,0,8.74,11.63Z"/><path class="cls-2" d="M6.29,9.51h0Z"/><path class="cls-3" d="M9.05,4.57a.78.78,0,0,0-.75.54.49.49,0,0,0-.34,0,2,2,0,0,0,0-.83,1.73,1.73,0,0,0-.3-.41.77.77,0,0,1-.13-.49,2.72,2.72,0,0,0-.15-1.24,1.21,1.21,0,0,0-.94-.55A1,1,0,0,0,6,1.79,1.86,1.86,0,0,1,5.4,2a5.38,5.38,0,0,1-1.2.2,1.25,1.25,0,0,1-.51,0A2.18,2.18,0,0,0,3.08,2a.75.75,0,0,0-.69.94,1.78,1.78,0,0,1,.06.65,3.51,3.51,0,0,1-.24.61,1.74,1.74,0,0,0-.16.7,2,2,0,0,0,.07.49h0a.46.46,0,0,0-.17.17,1,1,0,0,0-.16-.25A.84.84,0,0,0,.81,5a.75.75,0,0,0-.5.79.8.8,0,0,0,.76.71h0c.16.18.46.42.52.62a.52.52,0,0,0,.82.23.6.6,0,0,0,.09.15,5,5,0,0,1,.63.76c.12.18.45.59.4.81A.5.5,0,0,0,4,9.69c1-.06,2.24.61,3-.28a3.05,3.05,0,0,0,.45-1.32,2.61,2.61,0,0,1,.39-.66A2.07,2.07,0,0,0,8,7.11l0,0a.45.45,0,0,0,.61-.31,2.16,2.16,0,0,1,.26-.47l.05,0c.31-.21.73-.52.81-.91A.69.69,0,0,0,9.05,4.57Z"/><path class="cls-3" d="M2.92,12.82a.53.53,0,0,0-.29-.22l-.13,0a.55.55,0,0,0-.25.07,7.8,7.8,0,0,0-.7.59l-.08.1a.41.41,0,0,0-.05.18.29.29,0,0,0,0,.13.35.35,0,0,0,.05.18.77.77,0,0,0,.18.18.41.41,0,0,0,.18.05.34.34,0,0,0,.2,0l.1,0A.29.29,0,0,0,2.29,14a.4.4,0,0,0,.13-.13.13.13,0,0,0,0-.06c.12-.1.22-.2.34-.29l0,0a.37.37,0,0,0,.13-.12A.56.56,0,0,0,3,13.2.41.41,0,0,0,3,13,.42.42,0,0,0,2.92,12.82Z"/><path class="cls-3" d="M8.62,12.91a1,1,0,0,0-.5-.41,5.88,5.88,0,0,0-.62-.29,1,1,0,0,0-.78.06,4.89,4.89,0,0,0-.51.26l-.08,0L6,12.6H6a.65.65,0,0,0-.28,0,.47.47,0,0,0-.34.53.49.49,0,0,0,.47.43h.07l.13.05a.89.89,0,0,0,.23,0,.31.31,0,0,0,.14.07.5.5,0,0,0,.27,0l.12,0,.07,0h0l.16.08a1.28,1.28,0,0,0,.81.26A.58.58,0,0,0,8.27,14a.9.9,0,0,0,.28-.33A.79.79,0,0,0,8.62,12.91Z"/><path class="cls-2" d="M8.6,28.34a4.06,4.06,0,0,1-.12-1.15c0-.4-.05-.79,0-1.19a14.62,14.62,0,0,0-.17-2.39l-.36-2.54a13.79,13.79,0,0,1-.23-3.84c.12-.55-2.84-.09-3-.12-.34-.06-.88,0-1.22-.09s-1.14-.38-1.4-.12A3.49,3.49,0,0,0,2,18.83c.09.21,0,.59.17.75-.07,1.35,0,2.69,0,4A39.43,39.43,0,0,0,2,27.83a1.19,1.19,0,0,0,.15.46l0,.05-.07.08a.49.49,0,0,0,.48.81l.57-.09a.5.5,0,0,0,.54-.07h.13l.21.06a2,2,0,0,0,.42.11A.58.58,0,0,0,5,28.84a.5.5,0,0,0-.23-.55h0A1,1,0,0,0,4.83,28c0-.55,0-1.09,0-1.63.06.55.13,1.1.18,1.65,0,.17.23-.13.3,0-.14.3-.16,1.17.26,1.15.87,0,1.73-.11,2.59-.2A.5.5,0,0,0,8.6,28.34Z"/><path class="cls-1" d="M4.46,3.58a.72.72,0,0,0-.23-.23A.52.52,0,0,0,4,3.26H4s0,0-.06,0a.59.59,0,0,0-.52,0l-.06.05s-.05,0-.06,0a.58.58,0,0,0-.1.12.69.69,0,0,0-.08.32v.1l0,.22,0,.1a1.76,1.76,0,0,0,.09.2l.09.12a.57.57,0,0,0,.13.1.58.58,0,0,0,.32.1h0a.9.9,0,0,0,.16,0h0l.15-.06,0,0,.12-.09a.61.61,0,0,0,.12-.16A.73.73,0,0,0,4.59,4,.71.71,0,0,0,4.46,3.58Z"/><path class="cls-1" d="M6.6,3.43a.34.34,0,0,0-.06-.12l-.11-.13a.81.81,0,0,0-.14-.12A.52.52,0,0,0,6.09,3L5.91,3a.79.79,0,0,0-.3.08,1,1,0,0,0-.18.13l-.09.09a2.43,2.43,0,0,0-.14.2.86.86,0,0,0-.09.35.67.67,0,0,0,.09.34.41.41,0,0,0,.1.13.53.53,0,0,0,.14.12.59.59,0,0,0,.37.06l0,0a.61.61,0,0,0,.46,0,.64.64,0,0,0,.44-.62A1,1,0,0,0,6.6,3.43Z"/><path class="cls-1" d="M6.88,5.72a.51.51,0,0,0-.69,0s-.05,0,0,0l-.08,0L6,5.85l-.15.07s0,0,0,0L5.75,6l-.31.11-.13,0-.1,0s-.06,0,0,0,0,0,0,0H5c.07,0-.08,0-.08,0L4.58,6l-.35-.1,0,0A.42.42,0,0,0,4,5.78H4l.07,0a.67.67,0,0,1-.14-.09l0,0a.38.38,0,0,0-.13-.09.47.47,0,0,0-.38,0,.54.54,0,0,0-.16.1l-.07.1a.45.45,0,0,0-.07.25l0,.13a.54.54,0,0,0,.07.13s0,0,0,.08h0a.14.14,0,0,0,0,.06s0,0,.06.06l.07.07a1.22,1.22,0,0,0,.36.18L4.22,7l.13,0a.48.48,0,0,0,.38.21,5.61,5.61,0,0,1,.58,0A1.28,1.28,0,0,0,6,7.12a3.72,3.72,0,0,0,.47-.34l.43-.37A.49.49,0,0,0,6.88,5.72Z"/><polygon class="cls-4" points="5.66 10.06 5.66 10.06 5.66 10.06 5.66 10.06"/><path class="cls-5" d="M8.28,6.32s0,0,0,.06c-.55,1.44-1.06,2.07-1,3"/><path class="cls-5" d="M8.45,4.68c0,.12,0,.25,0,.37s0,.09,0,.24"/><path class="cls-5" d="M6.56,1.47a2.94,2.94,0,0,1,.88.67"/><path class="cls-5" d="M2.37,2.31a2.59,2.59,0,0,1,.51-.48"/><path class="cls-5" d="M1.72,5.68A6.07,6.07,0,0,1,1.58,5"/><path class="cls-5" d="M2.3,7.19c0-.06-.07-.12-.1-.19l-.11-.24"/><path class="cls-5" d="M3.63,9.58C3.54,8.7,3,8.42,2.3,7.19"/><path class="cls-5" d="M1.58,5a.77.77,0,0,0-.38-.19.83.83,0,0,0-.59.11A.8.8,0,0,0,.29,6c.25.77,1,.65,1.27,1.11a.61.61,0,0,1,.05.11A.28.28,0,0,0,2,7.43a.32.32,0,0,0,.2-.15.21.21,0,0,0,.05-.11"/><path class="cls-5" d="M.85,5.43a.91.91,0,0,0,.43.45,1.26,1.26,0,0,1,.32.24"/><path class="cls-5" d="M.91,6.08a.72.72,0,0,0,.44-.16"/><path class="cls-5" d="M1.13,6a.5.5,0,0,1,0,.24"/><path class="cls-5" d="M8.53,4.63a.75.75,0,0,1,.27-.16.84.84,0,0,1,.6,0,.8.8,0,0,1,.46,1c-.14.8-.93.8-1.1,1.28a.5.5,0,0,0,0,.12s0,.34-.34.29a.36.36,0,0,1-.23-.12.31.31,0,0,1-.07-.15"/><path class="cls-5" d="M9.23,5a.91.91,0,0,1-.36.5,2,2,0,0,0-.29.28"/><path class="cls-5" d="M9.26,5.68a.65.65,0,0,1-.45-.1"/><path class="cls-5" d="M9,5.67a.47.47,0,0,0,0,.25"/><path class="cls-5" d="M7.24,5s-.37.86-2,1a3.12,3.12,0,0,1-2.5-.77"/><path class="cls-5" d="M7.09,5.2s0,2.06-1.9,2.13a2.34,2.34,0,0,1-2.28-2"/><circle class="cls-5" cx="3.87" cy="4.01" r="0.82"/><circle class="cls-5" cx="5.95" cy="3.8" r="0.82"/><circle class="cls-6" cx="5.01" cy="4.79" r="0.67"/><line class="cls-5" x1="5.09" y1="3.83" x2="4.72" y2="3.87"/><path class="cls-7" d="M3.35,3.65a.22.22,0,0,0,0,.43C3.6,4.1,3.62,3.67,3.35,3.65Z"/><path class="cls-7" d="M5.47,3.5a.22.22,0,0,0,0,.43C5.72,4,5.74,3.52,5.47,3.5Z"/><path class="cls-5" d="M2.32,2.3S2.48,4,1.87,4.65"/><polyline class="cls-5" points="1.91 4.59 2.17 5.45 1.7 5.58"/><path class="cls-5" d="M7.5,2.15s0,1.56.64,2.1"/><polyline class="cls-5" points="8.09 4.25 7.93 5.08 8.4 5.17"/><path class="cls-5" d="M6.62,1.33a3.19,3.19,0,0,1-1.87.78,3.51,3.51,0,0,1-2-.44"/><path class="cls-5" d="M.86,4.8A3.87,3.87,0,0,1,2.1,1.9"/><path class="cls-5" d="M7.66,1.74a2.73,2.73,0,0,1,1.6,2.67"/><path class="cls-5" d="M7.66,1.74A3.17,3.17,0,0,0,4.44.23,2.67,2.67,0,0,0,2.1,1.9"/><path class="cls-5" d="M1.78,7.45S1.67,9.38,3.54,9.23"/><path class="cls-5" d="M8.73,6.88s0,2-1.42,2"/><path class="cls-5" d="M3.47,6.56a5.21,5.21,0,0,0,3.41-.39"/><path class="cls-5" d="M2.56,13.61a13.86,13.86,0,0,0,3.33,2.3c1.09.29,1.42.11,1.87-.48a15.26,15.26,0,0,0,1-1.45"/><line class="cls-5" x1="7.37" y1="12.21" x2="7.56" y2="11.66"/><line class="cls-5" x1="6.44" y1="14.29" x2="6.72" y2="13.78"/><path class="cls-5" d="M1.35,14.08S1.6,12.2,3,12.59s3.72,1.26,3.72,1.26"/><line class="cls-5" x1="0.97" y1="14.23" x2="2.71" y2="13.75"/><path class="cls-5" d="M4.19,14.93S2.43,16.54.73,16.15s.93-4.2.93-4.2,1.21-2,2-2.37"/><path class="cls-5" d="M6.5,13.79c.21-.09.72-.2,1.37.42a.23.23,0,0,0,.25.07c.11,0,.17-.25.05-.45a1.49,1.49,0,0,0-1.58-.67"/><path class="cls-5" d="M8.14,13.79a.27.27,0,0,0,.32,0c.19-.1.06-.4-.06-.53a1.72,1.72,0,0,0-1.55-.6"/><path class="cls-5" d="M8.55,13.57a.24.24,0,0,0,.23-.17c.11-.29-.22-.65-.65-.92a2.34,2.34,0,0,0-3,.81"/><path class="cls-5" d="M7.37,9.4c.75.39,2.41,2.81,1.31,4.66"/><path class="cls-5" d="M3.63,9.58a2.46,2.46,0,0,0,1.68.26A6.55,6.55,0,0,0,7.37,9.4"/><path class="cls-5" d="M3.15,12.64a1.56,1.56,0,0,0-.4,1.1"/><path class="cls-5" d="M7.59,30.34h-2c-.13,0-.13-.14-.13-.14l.06-.88"/><path class="cls-5" d="M2.46,30.34h2c.13,0,.13-.14.13-.14l-.06-.88"/><path class="cls-5" d="M6.54,30.34h3.53s.27,0,.27-.18-.89-.84-3.33-.84v-.2"/><path class="cls-5" d="M4.06,30.34H.53s-.28,0-.28-.18.9-.84,3.34-.84h0"/><path class="cls-5" d="M3.69,19.41a4,4,0,0,0,1.54.05"/><line class="cls-5" x1="4.29" y1="19.57" x2="5.43" y2="29.25"/><path class="cls-5" d="M5.43,29.25l3.27-.39s-.92-9.62-1-11.17"/><polyline class="cls-5" points="1.96 16.13 1.96 19.24 1.98 29.23 3.93 29.23 4.94 29.25 4.63 22.52"/><line class="cls-5" x1="7.68" y1="17.69" x2="7.92" y2="15.25"/><path class="cls-5" d="M7.56,15.7l.18,0"/><line class="cls-5" x1="2.75" y1="11.43" x2="2.65" y2="12.54"/><path class="cls-7" d="M4.15,29.32l-1.7.08a8,8,0,0,0-.84.11,2.68,2.68,0,0,1-.74.09s-.08.13-.1.13c-.59,0-.65.49-.12.58,0,0,.27-.06.31-.06a9.79,9.79,0,0,0,1.49.13c.56,0,1.13-.07,1.7-.09a.5.5,0,0,0,.49-.49A.49.49,0,0,0,4.15,29.32Z"/><path class="cls-7" d="M9.77,29.8c-.57-.05-1-.33-1.6-.38-.28,0-.56,0-.83-.06a2.32,2.32,0,0,1-.62-.23.5.5,0,0,0-.54,0,.62.62,0,0,0-.42.13,1.29,1.29,0,0,1-.16.09.49.49,0,0,0,0,.84.86.86,0,0,0,.59.13,4.4,4.4,0,0,1,.47-.1s.08,0,.13,0a1.12,1.12,0,0,0,.26.08,7.81,7.81,0,0,0,1,.1l1.88.14a.5.5,0,0,0,.49-.49C10.38,29.76,10,29.82,9.77,29.8Z"/><path class="cls-7" d="M3.41,8.65a.44.44,0,0,0-.22-.29h0a3.33,3.33,0,0,1-.25-.28,2.71,2.71,0,0,1-.24-.35.5.5,0,0,0-.3-.23l-.13,0a.41.41,0,0,0-.18,0,.43.43,0,0,0-.24.2.48.48,0,0,0-.05.37l.06.12h0A2.12,2.12,0,0,0,2,8.53a.46.46,0,0,0,.21.18,1,1,0,0,0,.08.11l.22.24.05,0a.52.52,0,0,0,.11.1.6.6,0,0,0,.19.06.67.67,0,0,0,.2,0,.53.53,0,0,0,.23-.13.43.43,0,0,0,.12-.22A.46.46,0,0,0,3.41,8.65Z"/><path class="cls-7" d="M8.7,7.45a.4.4,0,0,0-.13-.13.28.28,0,0,0-.17-.09.48.48,0,0,0-.37,0l-.1.07a.59.59,0,0,0-.12.2l0,0a1.48,1.48,0,0,1-.16.27.26.26,0,0,0-.09.09L7.51,8l0,0a.31.31,0,0,0-.09.14.39.39,0,0,0,0,.38.39.39,0,0,0,.1.16.48.48,0,0,0,.34.14.55.55,0,0,0,.35-.14c.1-.12.2-.25.29-.38a1.68,1.68,0,0,0,.22-.42.34.34,0,0,0,0-.2A.41.41,0,0,0,8.7,7.45Z"/><path class="cls-7" d="M2.75,1.25c-.26,0-1.24,1-1.33,1.27s-.25.67-.37,1a1.47,1.47,0,0,0-.12.58.45.45,0,0,0,0,.11.36.36,0,0,0-.07.17A.56.56,0,0,0,1,4.83.69.69,0,0,0,1.61,5h0c.16.51.39.44.4.43s.05-.7.1-.86a1.13,1.13,0,0,0,0-.18h0v0l0-.08a2.4,2.4,0,0,0,.13-.8c0-.27,0-.53,0-.8S3,1.28,2.75,1.25Z"/><path class="cls-7" d="M6.48.51A4.85,4.85,0,0,0,4.83.23,4,4,0,0,0,3.2.62a.62.62,0,0,0-.28.25.49.49,0,0,0-.2.9A2.41,2.41,0,0,0,3.67,2a7.6,7.6,0,0,0,1,0,3.66,3.66,0,0,0,.94-.1A1.24,1.24,0,0,0,6,1.67l.15-.15h.06A.68.68,0,0,0,6.6,1.4.49.49,0,0,0,6.48.51Z"/><path class="cls-7" d="M9.27,3.53a.43.43,0,0,0-.15-.2.29.29,0,0,0,0-.13,1.28,1.28,0,0,0-.37-.55,3.59,3.59,0,0,1-.32-.35.22.22,0,0,1-.05-.08,8,8,0,0,0-2-1.44c-.2.07,1,1.47,1,1.69A1.86,1.86,0,0,0,7.57,3l.18.39c.07.18.11.37.17.55S8,4.94,8.21,5s.35-.58.47-.63a.47.47,0,0,0,.47-.23s0-.09.07-.14A.59.59,0,0,0,9.27,3.53Z"/><path class="cls-5" d="M7.68,16.89A13.64,13.64,0,0,1,2,16.69"/></g></g></svg>