<svg xmlns="http://www.w3.org/2000/svg" viewBox="0 0 8.44 42.23"><defs><style>.cls-1{fill:#1c204d;}.cls-2{fill:#f9b730;}.cls-3{fill:none;stroke:#1c204d;stroke-linecap:round;stroke-linejoin:round;stroke-width:0.4px;}</style></defs><g id="Layer_2" data-name="Layer 2"><g id="Layer_1-2" data-name="Layer 1"><path class="cls-1" d="M1.65,12.4s0-.14,0-.16h0l0-.07,0-.08v0l-.11-.13a.57.57,0,0,0-.13-.1h0l-.08,0-.07,0h0l-.15,0h0l-.16,0h0a.47.47,0,0,0-.2.1A.4.4,0,0,0,.4,12a.36.36,0,0,0-.07.22.39.39,0,0,0,0,.24h0v0a.61.61,0,0,0,.08.3l.09.12a.61.61,0,0,0,.27.15.86.86,0,0,0,.17,0H1l.09,0h0L1.28,13h0l.06,0,.06-.05h0l.09-.12h0l.06-.14h0v0s0-.12,0-.16h0Z"/><path class="cls-1" d="M8.28,12.1a.39.39,0,0,0-.12-.19L8,11.82a.52.52,0,0,0-.3-.08l-.16,0h0a.55.55,0,0,0-.22-.06l-.16,0a.54.54,0,0,0-.26.16l0,0a.62.62,0,0,0-.12.19.55.55,0,0,0,0,.46.62.62,0,0,0,.12.19l.12.09a.56.56,0,0,0,.3.08h.06A.55.55,0,0,0,7.6,13h0l.18,0h0L8,12.88H8l.12-.09,0,0a.39.39,0,0,0,.12-.19.55.55,0,0,0,0-.46Z"/><path class="cls-1" d="M5.52,10a.59.59,0,0,0-.36-.28,1.16,1.16,0,0,0-.49,0l-.15.05-.24,0L4,9.75l-.53-.06-.09,0h0a1.11,1.11,0,0,0-.3.08l-.12.1a.35.35,0,0,0-.12.19.56.56,0,0,0,0,.38.72.72,0,0,0,.15.27.6.6,0,0,0,.39.16h0l.18,0V11a.37.37,0,0,0,0,.23.36.36,0,0,0,.12.18.31.31,0,0,0-.06.13v0s0,.12,0,.18a.57.57,0,0,0,0,.18.41.41,0,0,0,.1.21.5.5,0,0,0,.17.15.57.57,0,0,0,.22.07.49.49,0,0,0,.24,0l.14-.06a.6.6,0,0,0,.21-.21L4.75,12s0,0,0-.06,0,0,0,0h0l0,.1a.65.65,0,0,0,0-.13.45.45,0,0,0,0-.2l0,.11v.07s0,0,0-.06a.65.65,0,0,0,0-.24.56.56,0,0,0-.11-.2.1.1,0,0,0,0,0A.7.7,0,0,0,4.69,11v0l.19,0,.15,0a.55.55,0,0,0,.55-.43A.59.59,0,0,0,5.52,10Z"/><path class="cls-1" d="M4.75,11.88v0Z"/><path class="cls-1" d="M5.84,40.54l0,0a3.13,3.13,0,0,0,0-.43l-.06-.5-.27-2.07a.51.51,0,0,0,.1-.32v-.05a.63.63,0,0,0-.3-.51v-.29a1.88,1.88,0,0,0-.09-1,.75.75,0,0,0-.24-.23.56.56,0,0,0,0-.23q-.08-3.39,0-6.77a.48.48,0,0,0-.11-.34.56.56,0,0,0,.08-.3c-.11-2.55-.14-5.11-.1-7.66a.52.52,0,0,0-.4-.54.57.57,0,0,0,.39-.55c0-1.1,0-2.19-.07-3.29A.63.63,0,0,0,4.55,15a.55.55,0,0,0,.25-.47c0-.46,0-.93,0-1.4a.61.61,0,0,0-.17-.42.63.63,0,0,0-.42-.17.6.6,0,0,0-.6.59c0,.47,0,.94,0,1.4a.63.63,0,0,0,.17.42l.09.06a.58.58,0,0,0-.26.47c0,1.1,0,2.19.07,3.29a.65.65,0,0,0,.39.56.56.56,0,0,0-.38.53c0,2.55,0,5.11.1,7.66a.61.61,0,0,0,.13.34.67.67,0,0,0-.1.3c-.08,2.17-.09,4.35-.05,6.53,0,0,0,0,0,0v.2a.77.77,0,0,0,.06.23h0a.58.58,0,0,0-.29.51.57.57,0,0,0,.23.45l0,0a.69.69,0,0,0-.17.42c0,.11,0,.23,0,.34s0,0,0,.05a.72.72,0,0,0-.07.38.63.63,0,0,0,.1.25.59.59,0,0,0,0,.23c0,.61-.09,1.21-.15,1.82,0,.3-.06.59-.1.89v.08a.59.59,0,0,0-.23.32l-.11.36a.6.6,0,0,0,.41.73A4.52,4.52,0,0,0,4.45,42L5,41.94h.14c.06,0,.17,0,.07,0a.61.61,0,0,0,.87-.36A1,1,0,0,0,5.84,40.54Z"/><path class="cls-1" d="M4.61.76A.61.61,0,0,0,4.46.5l0,0A.39.39,0,0,0,4.25.36.37.37,0,0,0,4,.31a.37.37,0,0,0-.23,0A.44.44,0,0,0,3.6.48L3.51.6a.61.61,0,0,0-.08.3l0,.16a.61.61,0,0,0,.15.26l0,0a.39.39,0,0,0,.19.12A.37.37,0,0,0,4,1.51a.37.37,0,0,0,.23-.05.39.39,0,0,0,.19-.12l.09-.12a.52.52,0,0,0,.08-.3Z"/><polygon class="cls-1" points="4.12 1.56 0.72 3.87 7.6 3.86 4.12 1.56"/><path class="cls-2" d="M6,3.7a16.14,16.14,0,0,1-3.74.12.59.59,0,0,0-.57.75A13.71,13.71,0,0,1,2.32,9.2.55.55,0,0,0,3,9.76a.48.48,0,0,0,.4.16h.4a1.2,1.2,0,0,0,.53.07,1.87,1.87,0,0,0,.22-.07,6.28,6.28,0,0,1,.75,0,.61.61,0,0,0,.59-.6,29.42,29.42,0,0,1,.84-4.92A.61.61,0,0,0,6,3.7Z"/><polyline class="cls-3" points="4.45 40.47 5.98 40.45 6.21 42.03 2.76 42.03 2.96 40.48 4.49 40.47"/><line class="cls-3" x1="5.79" y1="40.46" x2="5.44" y2="37.34"/><polyline class="cls-3" points="4.42 37.35 5.6 37.34 5.52 36.81 4.45 36.82"/><line class="cls-3" x1="5.15" y1="35.13" x2="4.43" y2="35.13"/><polyline class="cls-3" points="4.44 35.66 5.42 35.65 5.39 35.41"/><polyline class="cls-3" points="4.63 12.7 4.92 34.57 5.28 35.13 5.32 35.41"/><line class="cls-3" x1="5.3" y1="35.65" x2="5.32" y2="36.82"/><line class="cls-3" x1="6.86" y1="12.61" x2="3.51" y2="12.64"/><line class="cls-3" x1="3.51" y1="12.17" x2="6.86" y2="12.14"/><path class="cls-3" d="M6.86,12.14a.71.71,0,1,1,.68.94.71.71,0,0,1-.67-.45"/><polyline class="cls-3" points="4.5 12.16 5.12 11.54 4.21 11.55"/><path class="cls-3" d="M4.82,10.83l1.56-.94c.06,0-2.19,0-2.19,0"/><polyline class="cls-3" points="4.14 3.89 7.6 3.86 4.12 1.56"/><path class="cls-3" d="M5.93,9.88l.78-6"/><path class="cls-3" d="M4.1.2a.67.67,0,0,1,.67.65.66.66,0,0,1-.66.66"/><path class="cls-3" d="M4.81,10.83a.28.28,0,0,1,0,.09.63.63,0,0,1-.62.63"/><path class="cls-3" d="M4.23,10.31a.63.63,0,0,1,.48.26"/><path class="cls-3" d="M4.19,10.31h0"/><line class="cls-3" x1="3.15" y1="40.48" x2="3.44" y2="37.36"/><polyline class="cls-3" points="4.46 37.35 3.28 37.36 3.35 36.83 4.42 36.82"/><polyline class="cls-3" points="4.41 35.66 3.42 35.67 3.49 35.14 4.41 35.13"/><line class="cls-3" x1="3.9" y1="33.73" x2="3.83" y2="12.71"/><line class="cls-3" x1="3.91" y1="34.57" x2="3.9" y2="33.73"/><line class="cls-3" x1="3.49" y1="35.17" x2="3.91" y2="34.57"/><line class="cls-3" x1="3.54" y1="35.67" x2="3.55" y2="36.83"/><line class="cls-3" x1="1.58" y1="12.66" x2="4.93" y2="12.63"/><line class="cls-3" x1="4.93" y1="12.16" x2="1.58" y2="12.19"/><path class="cls-3" d="M1.58,12.19a.72.72,0,0,0-.68-.47.72.72,0,0,0-.7.72.7.7,0,0,0,.72.7.71.71,0,0,0,.66-.46"/><polyline class="cls-3" points="3.9 12.17 3.27 11.56 4.18 11.55"/><path class="cls-3" d="M3.56,10.84,2,9.93c-.07,0,2.18,0,2.18,0"/><polyline class="cls-3" points="4.11 3.89 0.64 3.92 4.08 1.56"/><line class="cls-3" x1="2.43" y1="9.91" x2="1.54" y2="3.91"/><path class="cls-3" d="M4.07.2a.66.66,0,0,0-.65.66.64.64,0,0,0,.66.65"/><path class="cls-3" d="M3.56,10.87v.06a.62.62,0,0,0,.63.62"/><path class="cls-3" d="M3.92,10.36a1,1,0,0,0-.2.15"/><line class="cls-3" x1="4.19" y1="9.91" x2="4.14" y2="3.95"/><line class="cls-3" x1="1.95" y1="6.66" x2="6.35" y2="6.62"/></g></g></svg>