<svg xmlns="http://www.w3.org/2000/svg" viewBox="0 0 12.4 30.78"><defs><style>.cls-1{fill:#f9b730;}.cls-2{fill:#f47951;}.cls-3{fill:#fff;}.cls-4{fill:none;stroke:#1c204d;stroke-linecap:round;stroke-linejoin:round;stroke-width:0.4px;}.cls-5{fill:#1c1e4c;}.cls-6{fill:#1c204d;}.cls-7{fill:#ea4827;}.cls-8{fill:#007033;}.cls-9{fill:#0077bf;}.cls-10{fill:#121617;}</style></defs><g id="Layer_2" data-name="Layer 2"><g id="Layer_1-2" data-name="Layer 1"><path class="cls-1" d="M.42,4.48l0,0a.28.28,0,0,1,.06-.27,1.1,1.1,0,0,0,.11-.35,3,3,0,0,1,.14-.45,3.93,3.93,0,0,1,.41-.82A2.09,2.09,0,0,1,2.7,1.67h0C2.39,1.32,2.2.6,2.81.46a1.29,1.29,0,0,1,.43-.2C3.53.2,4,.31,4.1.61a.74.74,0,0,1-.07.8,3.53,3.53,0,0,0,.46,0,1.86,1.86,0,0,1,.33,0,.27.27,0,0,1,.21,0,.31.31,0,0,1,.21.16h0a.33.33,0,0,1,.34-.08,1.84,1.84,0,0,1,.55.35l.28.16a.32.32,0,0,1,.14.24,4.32,4.32,0,0,1,.82.89.69.69,0,0,1,0,.1l0,0,0,.06.06,0a.24.24,0,0,1-.33.33l-.12,0H7a1.82,1.82,0,0,0-.5.12,6.15,6.15,0,0,1-.86.13c-.56.1-1.13.2-1.68.34a11.85,11.85,0,0,1-1.57.34l-.73.08-.36.07A1.28,1.28,0,0,0,.86,5C.51,5.23.08,4.73.42,4.48Z"/><path class="cls-2" d="M3.06,10.68a3,3,0,0,0,.78.3,6.36,6.36,0,0,0,1,.18c.53,0,1.45.12,1.87-.23.1,0-.11-.76,0-.88a4.62,4.62,0,0,0,.23-.85c.1-.31.19-.62.28-.95a7.2,7.2,0,0,1,.32-1,1.15,1.15,0,0,0,.07-.35,1.16,1.16,0,0,0,.86-1c.06-.46-.06-1.07-.59-1.15H7.78a2.62,2.62,0,0,1,0-.62.35.35,0,0,0-.48-.33c-.13.07-.31,0-.45,0S6.49,4,6.33,4s-.39,0-.58.08a2.19,2.19,0,0,1-.51.1A.31.31,0,0,0,5,4.29c-.52.08-1.06.11-1.58.21-.23,0-.46.08-.69.14s-.36.17-.46.14a.34.34,0,0,0-.44.37c0-.05-.09.14-.11.19a2.56,2.56,0,0,0-.11.24A2.81,2.81,0,0,1,1.31,6,.51.51,0,0,0,.9,5.77a.56.56,0,0,0-.58.55.59.59,0,0,0,0,.14c0,.1,0,.2,0,.29a1.35,1.35,0,0,0,.54,1,1,1,0,0,0,.47.17.08.08,0,0,0,0,0A3.06,3.06,0,0,0,2.28,9.1a1.13,1.13,0,0,1,.38.6,2,2,0,0,0,.14.47l.07.08A.34.34,0,0,0,3.06,10.68Z"/><path class="cls-2" d="M5.87,13.3s-.06,0-.08,0a3.28,3.28,0,0,1,0-.62.34.34,0,0,0-.48-.33c-.13.07-.3,0-.45,0s-.31.11-.47.15-.39,0-.58.08a2.3,2.3,0,0,1-.51.1.33.33,0,0,0-.21.06c-.53.09-1.06.12-1.59.22l-.63.13s0,.05,0,.09a9.06,9.06,0,0,1-.48,1.91,1.56,1.56,0,0,0,.55,1.41c.45.45,1,.79,1.48,1.21s1.09,1,1.66,1.44a.55.55,0,0,1,.18.43,1,1,0,0,0,.52-.19c.1,0-.11-.76,0-.88a4.6,4.6,0,0,0,.22-.85c.11-.31.2-.63.28-1s.2-.64.32-1a.93.93,0,0,0,.08-.35,1.13,1.13,0,0,0,.85-1C6.52,14,6.4,13.38,5.87,13.3Z"/><path class="cls-2" d="M7.39,20.31a.54.54,0,0,1,.69.18.93.93,0,0,0,.13.15l.1.1s.07.06,0,0a1.13,1.13,0,0,0,.18.12h0l.09,0A.76.76,0,0,0,9,21H9.2a.51.51,0,0,1,.89.31,2.9,2.9,0,0,0,0,.51s0,0,0,.06l0,.13s0,.07,0,0l.06.12,0,0,.07.06A.52.52,0,0,1,11,22c.07,0,0,0,.05,0h0l.06-.06a.61.61,0,0,0,.14-.32.49.49,0,0,1,.82-.36l0-.08c0-.15.09-.3.14-.44-.19-.32-.36-.65-.55-1A4.06,4.06,0,0,0,11,19c-.52-.49-1-1.08-.79-1.79h-.06c-.08,0-.58-4.37-.64-4.33-.52.08-.63,4.51-1.15,4.61l-.63.13s0,.05,0,.09a9.72,9.72,0,0,1-.48,1.91,1.17,1.17,0,0,0,.09.78Z"/><path class="cls-3" d="M3.06,6A1,1,0,0,1,3,5.47,1.11,1.11,0,0,1,3.13,5a.55.55,0,0,1,.62-.23,1.05,1.05,0,0,1,.65.88v0A.48.48,0,0,1,4.4,6c-.07.32-.44.73-.79.57l-.09,0-.06,0C3.25,6.44,3.15,6.23,3.06,6Z"/><path class="cls-3" d="M6.37,6.06Z"/><path class="cls-3" d="M5.9,6a2.87,2.87,0,0,0-.18-.4c-.09-.14-.26-.19-.36-.32a.23.23,0,0,1,0-.25.14.14,0,0,1,0-.09.72.72,0,0,1,.24-.49.57.57,0,0,1,.7,0,1.17,1.17,0,0,1,.45,1.09.49.49,0,0,1-.13.27.26.26,0,0,1-.31.25.17.17,0,0,0,.08,0l0,0-.13,0A.28.28,0,0,1,5.9,6Z"/><path class="cls-3" d="M3.56,7.73c.1-.18.48-.16.65-.21h.08l.41-.07c.26,0,.53-.12.79-.18l.81-.19a.5.5,0,0,1,.46,0s.07.08.06.12c-.09.45-.92.53-1.27.59a6.7,6.7,0,0,1-1.89.13A.13.13,0,0,1,3.56,7.73Z"/><path class="cls-3" d="M5.17,6Z"/><path class="cls-4" d="M6.83,10.83a6.85,6.85,0,0,1,.54-3,4.62,4.62,0,0,0,.39-3"/><path class="cls-4" d="M1.36,8a5.58,5.58,0,0,0,.55.73,4.19,4.19,0,0,1,1,2"/><path class="cls-4" d="M3.26,1.48a3.06,3.06,0,0,0-2.8,3.1"/><path class="cls-4" d="M1.42,6.24a.54.54,0,0,0-.74-.47C0,6,.33,7.17.63,7.61a.8.8,0,0,0,.86.33.48.48,0,0,0,.33-.32"/><path class="cls-4" d="M1,6.64C1,6.75,1,6.87,1,7"/><path class="cls-4" d="M7.76,4.82a.59.59,0,0,1,.23,0c.59.11.47,1.19.3,1.62,0,0-.18.44-.55.41"/><path class="cls-4" d="M1.84,4.89a1.2,1.2,0,0,1-.56,1"/><path class="cls-4" d="M.46,4.58a1.75,1.75,0,0,0,0,1.33"/><path class="cls-4" d="M.33,5.12,7.64,3.78a.47.47,0,0,0-.22-.52"/><path class="cls-4" d="M7.76,4.82s-.29,0-.44-.48a1.6,1.6,0,0,0-.16-.42"/><path class="cls-4" d="M7.65,3.81c.06.22.13.54.21,1"/><path class="cls-4" d="M4.9,6.92A.7.7,0,0,0,5.25,7a.81.81,0,0,0,.67-.92.78.78,0,0,0-.84-.77"/><path class="cls-4" d="M6.82,7l-3.38.71s.27,1.3,2,.89A1.51,1.51,0,0,0,6.82,7Z"/><path class="cls-4" d="M4.18,1.35A.73.73,0,0,0,4.26,1a.89.89,0,0,0-1-.77.9.9,0,0,0-.88.89.81.81,0,0,0,.24.5"/><path class="cls-4" d="M.46,4.54l7-1.22A3.59,3.59,0,0,0,3.26,1.48"/><path class="cls-4" d="M3.61,1.43s.87.3,1.16,2.34"/><path class="cls-4" d="M4.09,1.39s1.27.29,1.56,2.19"/><path class="cls-4" d="M4.8,1.43a2.52,2.52,0,0,1,1.75,2"/><path class="cls-4" d="M3.4,1.45A18.93,18.93,0,0,1,4,3.93"/><path class="cls-4" d="M2.91,1.55a9.86,9.86,0,0,0,.16,2.53"/><path class="cls-4" d="M2.56,1.64a3.53,3.53,0,0,0-.22,2.54"/><path class="cls-4" d="M2.17,1.81a2.87,2.87,0,0,0-.72,2.51"/><path class="cls-4" d="M4.39,5.48c.12.51,0,1-.5,1.1S3.07,6.34,3,5.83a.85.85,0,0,1,.5-1.1C3.89,4.63,4.27,5,4.39,5.48Z"/><path class="cls-4" d="M5.3,5.27a.8.8,0,0,1,.52-1c.44-.11.82.23.94.74s0,1-.5,1.1a.62.62,0,0,1-.3,0"/><path class="cls-4" d="M3.57,8a6.21,6.21,0,0,0,3.21-.61"/><path class="cls-5" d="M.36,5.64a1.27,1.27,0,0,1,0-.28.23.23,0,0,1,.18-.27,3.59,3.59,0,0,0,1-.23c.2-.08.45.15.29.34l0,0a.22.22,0,0,1,0,.16.7.7,0,0,1-.42.39.31.31,0,0,1-.26-.08c-.1-.06-.28,0-.37.09A.24.24,0,0,1,.36,5.64Z"/><path class="cls-5" d="M7.42,4.72c0-.07,0-.14-.07-.21h0c0-.14-.08-.29-.11-.43A.23.23,0,0,1,7.7,4c0,.12,0,.24.09.36h0a.48.48,0,0,1,.07.23.22.22,0,0,1-.13.25A.23.23,0,0,1,7.42,4.72Z"/><path class="cls-5" d="M4,8a5.78,5.78,0,0,0,1.1,0,.13.13,0,0,1,.1-.07,1.66,1.66,0,0,0,.37-.09.65.65,0,0,1,.31-.05h0a2,2,0,0,0,.4-.25c.24-.18.55.17.31.35a2.2,2.2,0,0,1-.32.21.18.18,0,0,1-.09.21,2.17,2.17,0,0,1-1.11.35A3.5,3.5,0,0,1,3.88,8.4C3.59,8.32,3.75,7.9,4,8Z"/><circle class="cls-6" cx="6.41" cy="5.16" r="0.29"/><circle class="cls-6" cx="4.05" cy="5.62" r="0.29"/><path class="cls-3" d="M9.39,16.18a8.25,8.25,0,0,1,.15-1.46H9.48a.46.46,0,0,1-.17-.09.35.35,0,0,1-.13-.14v0l-.06-.13s0,0,0,0a.25.25,0,0,0,0-.08s0-.05,0-.08v0h0v-.07s0-.05,0-.07h0l.06-.13v0a.76.76,0,0,1,.08-.11.61.61,0,0,1,.27-.15.33.33,0,0,1,.14,0,2,2,0,0,0,0-.51c-.25-1.24-1.43-1.36-2.18-2.35a.74.74,0,0,0-.57.15,2.16,2.16,0,0,1-.74.25,12.56,12.56,0,0,1-1.84,0H3.85l0,0a1,1,0,0,0-.44-.25l-.29-.07-.09,0H3l-.1,0a.35.35,0,0,0-.44.23,3.08,3.08,0,0,0-.49.53,3.69,3.69,0,0,0-.47.63c-.24.47-.9,1-1.09,1.47-.07.17.34.35.28.53h0a.68.68,0,0,1,.2.07c-.11-.06,0,0,.06,0h.37a1.7,1.7,0,0,1,.71.09l.06,0a.69.69,0,0,1,.32,0,.63.63,0,0,1,.36.28.64.64,0,0,1,.06.47.55.55,0,0,1-.12.19,1.28,1.28,0,0,1,0,.19l0,.14h0a.6.6,0,0,1,.06.22h0l.42.42c.33.33.65.68,1,1,.39.05.79.06,1.17.12a9.3,9.3,0,0,1,1.47.37A4.46,4.46,0,0,0,8.37,18l.76,0a.62.62,0,0,0,.28-.09c0-.21,0-.44,0-.65S9.41,16.53,9.39,16.18Z"/><path class="cls-7" d="M2.53,23.76l.05,0v.05c0,.17-.35,4.72-.24,4.84a5,5,0,0,0,2.22.3,3.92,3.92,0,0,1,.56-.16h0a.75.75,0,0,1,.15,0h.09l.09,0a2.51,2.51,0,0,0,1.15.09.39.39,0,0,0,.27-.48v0c.2-.85.42-1.7.67-2.54.13-.43.26-.85.4-1.28a5.17,5.17,0,0,0,.33-1.27.42.42,0,0,0,0-.2c0-.05,0-.1.05-.15.13-.39.25-.78.37-1.18.25-.81.49-1.63.71-2.45a.55.55,0,0,0,0-.18.39.39,0,0,0,0-.48c-.11-.12.14-.48.1-.64S9,18,8.81,18a8.22,8.22,0,0,1-1.4-.08l-.07-.06a.85.85,0,0,0-.44-.14H6.55l-.13-.08a1.17,1.17,0,0,0-.24-.09H6a.39.39,0,0,0-.28,0H5.62a7.43,7.43,0,0,1-.77-.33c-.19-.09-.52,0-.56.23a4.76,4.76,0,0,1-.06,1c-.08.21-.17.41-.26.61a.27.27,0,0,1-.07-.08.83.83,0,0,0-.18-.13.29.29,0,0,0-.11-.11.46.46,0,0,0-.2,0c-.13,0-.29-.22-.31-.23s-.19.13-.27,0a.11.11,0,0,0-.09-.05.13.13,0,0,0-.09.07,1.45,1.45,0,0,0,0,.55l0,.07a.31.31,0,0,0,0,.1.3.3,0,0,0,0,.16,1.1,1.1,0,0,1,0,.54c0,.19-.05.38-.07.57a7,7,0,0,0,0,1.21v.06a.28.28,0,0,0,0,.21,1.88,1.88,0,0,1,0,.53,1.43,1.43,0,0,0-.08.22,1,1,0,0,0,0,.39C2.42,23.26,2.36,23.57,2.53,23.76Z"/><path class="cls-8" d="M3.71,29.62a.84.84,0,0,0,.22-.3A.82.82,0,0,1,4.08,29c.22-.21.62-.12.89-.09a4.66,4.66,0,0,0,1,0,4.49,4.49,0,0,1,.9-.07,4.13,4.13,0,0,1,1.83.42c.24.14.5.29.57.57a.59.59,0,0,1-.28.69c-.28.14-.7-.09-.57-.44l0-.06a1.74,1.74,0,0,1-.2-.13,1.72,1.72,0,0,0-.48-.17,4.68,4.68,0,0,0-1.12-.11c-.34,0-.68.1-1,.09a4.89,4.89,0,0,1-.55-.05c-.12,0-.28-.05-.43-.05a.89.89,0,0,1-.08.17,1.48,1.48,0,0,1-.29.37C3.9,30.51,3.35,30,3.71,29.62Z"/><path class="cls-9" d="M9,29.62a3.16,3.16,0,0,0-.78-.53,3.53,3.53,0,0,0-2-.13.32.32,0,0,0-.18.1c-.35,0-.69,0-1-.07a.55.55,0,0,0-.6.33c-.09.25-.15.52-.22.78a.39.39,0,0,0,.47.48.6.6,0,0,0,.25-.13,3,3,0,0,0,1.49.06,6.84,6.84,0,0,0,.79,0c.34,0,.68,0,1,0s.69.13.94-.11S9.23,29.83,9,29.62Z"/><path class="cls-4" d="M7.05,10.75a3,3,0,0,1-2,.43,7.07,7.07,0,0,1-2.15-.48"/><path class="cls-4" d="M4.13,30.12s-.18.39.39.39l4.33.07a.48.48,0,0,0,.49-.52c0-.52-1.17-1.21-2.46-1.18a3.49,3.49,0,0,0-1.47.35"/><path class="cls-4" d="M3.66,19.23a2.35,2.35,0,0,0,.64-2"/><line class="cls-4" x1="2.79" y1="15.34" x2="2.92" y2="11.72"/><path class="cls-4" d="M4.09,17.1c1.46,0,3.87,1.27,5.42.79a2.52,2.52,0,0,0,.05-.61,8.74,8.74,0,0,0-1.89-5.89"/><path class="cls-4" d="M.74,14c-.21.57-.33,1-.33,1a1.28,1.28,0,0,0,0,.94"/><path class="cls-4" d="M2.65,15.23a1.83,1.83,0,0,0-.63.08"/><line class="cls-4" x1="4.19" y1="17.21" x2="2.65" y2="15.23"/><line class="cls-4" x1="2.65" y1="15.23" x2="2.82" y2="14.69"/><path class="cls-4" d="M3.9,18.89a22.19,22.19,0,0,1-3.51-3"/><line class="cls-4" x1="6.87" y1="28.88" x2="9.56" y2="18"/><path class="cls-4" d="M9.33,30.19c-.07,0-5.2-.07-5.2-.07L4.57,29"/><path class="cls-9" d="M7,29.59a3.16,3.16,0,0,0-.78-.53,3.44,3.44,0,0,0-2-.12A.26.26,0,0,0,4,29C3.64,29,3.3,29,3,29a.55.55,0,0,0-.6.33c-.09.25-.15.52-.22.78a.39.39,0,0,0,.47.48.6.6,0,0,0,.25-.13,3,3,0,0,0,1.49.06,6.84,6.84,0,0,0,.79.05c.34,0,.68,0,1,0s.69.13.94-.11S7.2,29.8,7,29.59Z"/><path class="cls-4" d="M2.1,30.09s-.18.39.39.39l4.33.07A.48.48,0,0,0,7.31,30c0-.52-1.17-1.21-2.46-1.17a3.41,3.41,0,0,0-1.47.34"/><path class="cls-4" d="M4.24,28.92c-.3,0-2,0-2,0l.41-10.82"/><line class="cls-4" x1="4.78" y1="28.85" x2="7.06" y2="20.48"/><path class="cls-4" d="M7.3,30.16l-5.2-.07L2.54,29"/><path class="cls-10" d="M3.35,18.49l0,0s0,0,0,0h-.1l0,0v0a0,0,0,0,0,0,0s0,0,0,0a.05.05,0,0,0,0,0l0,0h0a0,0,0,0,0,0,0h0s0,0,0,0v0s0,0,0,0Z"/><path class="cls-4" d="M8.28,20.5a6.69,6.69,0,0,1-2.19-.32"/><path class="cls-4" d="M.76,14a7.3,7.3,0,0,1,.79.12c.72.15,1.3.34,1.28.43"/><path class="cls-4" d="M.57,14.18C.33,14.1.19,14,.2,14s.23-.06.56,0"/><path class="cls-4" d="M.2,14s1.29-2.83,2.68-3.48"/><path class="cls-4" d="M6.82,10.43c.1,0,1.36.2,3.11,2.76a3,3,0,0,1-.86.48"/><path class="cls-4" d="M10.29,20.42l-.23.57c-.12.29-.22.87,0,1s.38-.18.38-.18.44-1,.52-1.25a.63.63,0,0,0,0-.41l-.23-.53"/><line class="cls-4" x1="10.17" y1="20.19" x2="10.29" y2="20.42"/><path class="cls-4" d="M11.4,20.81c.16.25.41.5.62.45s.14-.39.14-.39-.68-1.38-.79-1.59"/><path class="cls-4" d="M11.34,19.25c-.3-.37-.62-.63-1.13-1.27l-.57-4.45"/><path class="cls-4" d="M11.23,21.56c0-.21.26-1.28.27-1.37a.61.61,0,0,0-.11-.41L11,19.3"/><path class="cls-4" d="M10.61,21.55a.49.49,0,0,0,.23.4c.29.12.36-.25.36-.25l0-.14"/><path class="cls-4" d="M10.16,19.84a.91.91,0,0,1-.1.63c-.15.22-.5.49-.79.35,0,0-.31-.14-.06-.49,0,0,.32-.39.06-.68,0,0,0,0-.06-.08"/></g></g></svg>