<svg xmlns="http://www.w3.org/2000/svg" viewBox="0 0 12.51 32.13"><defs><style>.cls-1{fill:#af6e30;}.cls-2{fill:#1f4686;}.cls-3{fill:#0077bf;}.cls-4{fill:#007033;}.cls-5{fill:#f59da0;}.cls-6{fill:#fff;}.cls-7{fill:#231f20;}.cls-8{fill:none;stroke:#1c204d;stroke-linecap:round;stroke-linejoin:round;stroke-width:0.4px;}.cls-9{fill:#1c204d;}</style></defs><g id="Layer_2" data-name="Layer 2"><g id="Layer_1-2" data-name="Layer 1"><path class="cls-1" d="M1.32,4.53l0,0,0,0a.67.67,0,0,1,0-.24.35.35,0,0,1,.28-.34h.13a1.55,1.55,0,0,1,.92-.37.39.39,0,0,1-.05-.44.53.53,0,0,1,0-.33A6.11,6.11,0,0,0,2.6.91.42.42,0,0,1,2.91.5,6,6,0,0,1,4.38.35c.26,0,.51-.09.77-.12a6.52,6.52,0,0,1,.76,0c.49,0,1-.06,1.48,0S8.47.32,9,.39a.45.45,0,0,1,.28.12h0a.24.24,0,0,1,.18.07.27.27,0,0,1,.08.19v.87a.27.27,0,0,1,0,.12q0,.54,0,1.08a.35.35,0,0,1,0,.11V3h0a.35.35,0,0,1-.55.42c-.14-.12-.41-.1-.59-.11l-.77,0L6,3.25a11.54,11.54,0,0,0-2.63.21.86.86,0,0,1,.37.13h0a1.83,1.83,0,0,1,.76-.17c.26,0,.52,0,.78,0a.29.29,0,0,1,.18,0,3.47,3.47,0,0,0,.72,0h.69c.47,0,.95,0,1.42.08a8.32,8.32,0,0,1,1.39.27,4.14,4.14,0,0,1,.6.18c.09,0,.18.11.27.13a2.64,2.64,0,0,0,.28,0c.3.07.28.45.12.63l-.06.06a.3.3,0,0,1-.28.1l0,0a.57.57,0,0,1-.22.11h-.13l-.17,0,0,0a.34.34,0,0,1-.12.06.28.28,0,0,1-.18,0,.31.31,0,0,1-.09-.07l0-.06a.27.27,0,0,1,0-.2v0l0,0s0,0,0-.08a11.2,11.2,0,0,0-4.24-.09.37.37,0,0,1-.35-.14l-.09,0a3,3,0,0,1-.73.14,4.87,4.87,0,0,1-.54,0,1.33,1.33,0,0,1-.78.18.27.27,0,0,1-.08.29.37.37,0,0,1-.32.06l-.16,0L1.88,5a1,1,0,0,1-.29-.11.29.29,0,0,1-.11-.11h0a.09.09,0,0,1-.06,0l0,0a.14.14,0,0,1,0-.06A.09.09,0,0,1,1.32,4.53Z"/><path class="cls-2" d="M7.81,3.51c-.62,0-1.24-.13-1.86-.16a7.23,7.23,0,0,0-1.8.07c-.29.05-.57.16-.86.19a4.4,4.4,0,0,0-.73.07V2.39c0-.27,1.55-.5,3.47-.52s3.45.25,3.45.52V3.62A7.74,7.74,0,0,0,7.81,3.51Z"/><path class="cls-1" d="M7.16,22.55A5.4,5.4,0,0,0,7.25,22a.37.37,0,0,1-.06-.21l.09-2.4a.28.28,0,0,1-.11-.27c.09-1.23.14-2.46.12-3.69A11.38,11.38,0,0,1,7.43,12a.3.3,0,0,1,.06-.22h0s0-.07,0-.1a2.25,2.25,0,0,1,0-.22c0-.13.08-.27.13-.41a1,1,0,0,1,.12-.23l.05-.06h0a.13.13,0,0,1,0-.06.15.15,0,0,1,0-.07l0-.06,0,0,.09,0h.05l.07,0,0,.05v0a.08.08,0,0,1,0,.05h0v.06a.57.57,0,0,1,.23.35.53.53,0,0,1,.35.19l.63.78a2.52,2.52,0,0,1,.54.9h0l.12.16c.14.27.28.54.42.83a.74.74,0,0,1,.1.16,3.68,3.68,0,0,1,.23.56,12.32,12.32,0,0,1,.88,2.89h0a1.1,1.1,0,0,0,0,.18.81.81,0,0,1,0,.22,1.65,1.65,0,0,1-.5,1.5,1,1,0,0,1-.38.2,1.35,1.35,0,0,1-.45.22c0,.27,0,.55.05.83s0,.56,0,.84a2.76,2.76,0,0,1,0,.76c-.08.3-.37.33-.63.38a6.88,6.88,0,0,1-.77.13c-.25,0-.5,0-.74,0L7.59,23A.35.35,0,0,1,7.16,22.55Z"/><path class="cls-1" d="M3.64,10.83h0Z"/><path class="cls-1" d="M.31,17.63c0-.26.07-.52.11-.76a10.06,10.06,0,0,1,1.27-3.56A5.69,5.69,0,0,1,2.9,11.76.27.27,0,0,1,3,11.64l.42-.48.19-.23.05-.07,0,0h0l.1-.12a.26.26,0,0,1,.48.13v.07a.57.57,0,0,1,.12.18l0,.05,0,.1a1.86,1.86,0,0,0,.1.2,1.18,1.18,0,0,0,.11.19l0,0h0l.07.08c0,.06.11.1.16.15a.93.93,0,0,1,.18.26,1.24,1.24,0,0,1,.06.54.35.35,0,0,1-.35.35.36.36,0,0,1-.34-.35,1.47,1.47,0,0,0,0-.21h0s0,0,0,0h0v-.05h0l0,0-.07-.07-.16-.16a2.8,2.8,0,0,1-.37-.65l-.22.25a.34.34,0,0,1,0,.34l-.09.18a.31.31,0,0,1-.3.17,4.25,4.25,0,0,0-.46.57,9.8,9.8,0,0,0-.55.87,9.09,9.09,0,0,0-.81,2A8.87,8.87,0,0,0,1,18a1.46,1.46,0,0,0,.16.94,2,2,0,0,0,.77.55L2,19.5l0,0a1,1,0,0,1-.1-.42.68.68,0,0,1,.5-.66.43.43,0,0,1,.53.3.46.46,0,0,1-.13.44,1.4,1.4,0,0,1,.15.3.56.56,0,0,1,0,.49l0,.06a.41.41,0,0,1,.16.23.45.45,0,0,1,0,.34,4.23,4.23,0,0,0-.25.47l-.08.75c.21,0,.43,0,.64.09a2.54,2.54,0,0,0,.95,0,.33.33,0,0,1,.17,0l0-.27h0a.39.39,0,0,1,0-.26.32.32,0,0,1,.2-.16.36.36,0,0,1,.27,0,.34.34,0,0,1,.16.21,5.65,5.65,0,0,1,.06,1.09.35.35,0,0,1-.35.34.55.55,0,0,1-.33-.12,19.1,19.1,0,0,1-2.26-.11.42.42,0,0,1-.43-.43l.1-1a1.45,1.45,0,0,1-.08-.33,1.69,1.69,0,0,1,0-.23v-.53H1.66a1.89,1.89,0,0,1-1.24-.93A1.94,1.94,0,0,1,.31,17.63Z"/><path class="cls-1" d="M.93,16.64a18.21,18.21,0,0,1,1.78-4.19.56.56,0,0,1,.38-.26V12c0-.57.85-.87,1.13-.31l.09.2a.64.64,0,0,1,.06.18A.54.54,0,0,1,5,12.6a34.71,34.71,0,0,1,.07,4.56c-.08,1.52.11,3,0,4.55a.54.54,0,0,1-1,.3.5.5,0,0,1-.26-.08A1.12,1.12,0,0,1,2.2,21.2a9.24,9.24,0,0,1,0-1.82.4.4,0,0,1-.28.16c-.43.06-.66-.06-.76-.28a1.09,1.09,0,0,1-.51-.76A4.57,4.57,0,0,1,.93,16.64Z"/><path class="cls-3" d="M3.31,23a.26.26,0,0,1,.39-.23l0,0a.26.26,0,0,1,.15,0l.24,0h.35l.21-.05a.8.8,0,0,1,.46,0c0-.69,0-1.38,0-2.08,0-.2,0-.39,0-.59a.61.61,0,0,1,0-.14v-.21a9.33,9.33,0,0,1,0-1.18v0h0v0a.25.25,0,0,1-.08-.18c0-.79,0-1.58,0-2.37s0-1.59,0-2.38c0-.21.3-.36.44-.19s.26,0,.31,0h.43l.8-.08a.25.25,0,0,1,.26.26v.22a.25.25,0,0,1-.05.15.19.19,0,0,1,0,.07,5.83,5.83,0,0,1-.07,1.5c0,.55,0,1.1,0,1.65,0,0,0,0,0,.05a7.14,7.14,0,0,1,0,2.26c0,.6,0,1.22-.08,1.83a.43.43,0,0,1,0,.05c0,.53,0,1.07,0,1.6h.13l.21,0,.46,0,.91-.1a.35.35,0,0,1,.3.18.39.39,0,0,1,0,.35h0a.17.17,0,0,1,0,.05s0,0,0,.06,0,.05,0,.06,0,.09,0,.13v0a.37.37,0,0,1,.06.21c0,1,0,1.94.07,2.91,0,.48.05.95.06,1.43V29a1.53,1.53,0,0,0,0,.64.45.45,0,0,1-.42.55c-.17,0-.33.06-.5.07a2.57,2.57,0,0,1-.48,0,2.27,2.27,0,0,0-.9,0,.37.37,0,0,1-.41-.11v0a2,2,0,0,0,0-.43,1,1,0,0,0,0-.17l.08-.05a.61.61,0,0,1-.06-.24c-.07-1.39-.23-2.77-.35-4.16l0,1.09a.53.53,0,0,1,0,.13,19.28,19.28,0,0,0,.1,3,.59.59,0,0,1,0,.33l0,.05a.44.44,0,0,1,0,.48.46.46,0,0,1-.46.15l-.47-.08h0l-.08.05a.31.31,0,0,1-.13,0l-.1,0h0a.5.5,0,0,1-.21,0l-.18,0H4.25a.44.44,0,0,1-.48-.2.42.42,0,0,1,0-.42.76.76,0,0,1,0-.16c0-1.48-.22-3-.19-4.48a.14.14,0,0,1,0-.06,6.38,6.38,0,0,1-.1-1.23s0,0,0,0C3.39,23.45,3.34,23.24,3.31,23Z"/><path class="cls-4" d="M4.41,11s0,0,0-.06a1.74,1.74,0,0,1,.19.1.57.57,0,0,1,.15.16h.08a.25.25,0,0,1,.1.08h0a.2.2,0,0,1,.17.07.75.75,0,0,1,.07.12h0l0,0,0,.06h0a.26.26,0,0,1,.3.12,4.25,4.25,0,0,0,.35.58l0,.07h0s0,0,0,0,.09.11.13.16a1.3,1.3,0,0,1,.14.26,5.64,5.64,0,0,1,.53-1h0a.13.13,0,0,1,.07-.09,4,4,0,0,0,.34-.23h0l0,0,.08-.07.15-.14a.18.18,0,0,1,.23,0,.18.18,0,0,1,0,.23,1.5,1.5,0,0,1-.23.33.45.45,0,0,1,0,.11,6.06,6.06,0,0,0-.15.74.59.59,0,0,1,0,.08l0,.06a1.81,1.81,0,0,1,0,.4.26.26,0,0,1-.33.25H6.9l-.2.05a1.06,1.06,0,0,1-.31,0,.33.33,0,0,1-.14,0H5.89l-.16.05a.38.38,0,0,1-.33,0l0,0-.11,0a.36.36,0,0,1-.18-.3.24.24,0,0,1,.07-.16.18.18,0,0,1,0-.1,1.41,1.41,0,0,0,0-.29.66.66,0,0,0,0-.14v0h0s0,0,0-.08A2.76,2.76,0,0,0,5,12l0,0c-.11-.17-.23-.33-.34-.49a.18.18,0,0,1,0-.14h0l0,0-.08-.08h0a.07.07,0,0,1,0-.05S4.4,11,4.41,11Z"/><path class="cls-5" d="M2,6.24a1.29,1.29,0,0,0,.3.76l.05.06s.13.16,0,.07l.11.15.09.14v0h0a.29.29,0,0,1,0,.09.32.32,0,0,0,.08.14A.26.26,0,0,0,2.85,8a.24.24,0,0,0,.2,0c.07,0,.09-.09.12-.15v0a2.39,2.39,0,0,0,.16.32c.09.19.18.37.25.56.16.39.28.78.4,1.18a6.25,6.25,0,0,1,.16.62.93.93,0,0,0,.33.53,2.46,2.46,0,0,0,.48.37,3.1,3.1,0,0,1,.51.27.37.37,0,0,0,.12.07.2.2,0,0,0,0,.08.5.5,0,0,0,.08.12,1,1,0,0,1,.15.26l0,.06,0,0a1.8,1.8,0,0,0,.08.21.18.18,0,0,0,.18.08.17.17,0,0,0,.14-.12,8.16,8.16,0,0,1,.34-.81h0a1.5,1.5,0,0,0,.53-.34,2.5,2.5,0,0,0,.41-.38c.26-.31.22-.72.31-1.09a9.06,9.06,0,0,1,.88-1.83.25.25,0,0,0,.38-.14,1.06,1.06,0,0,1,.29-.44,3.64,3.64,0,0,0,.4-.48.92.92,0,0,0-.06-1.16.26.26,0,0,0-.36,0l-.08,0a1,1,0,0,1-.33-.36C9,5.13,9,4.89,8.87,4.74s-.51-.16-.77-.17-.53,0-.79-.06a4.36,4.36,0,0,0-.81,0c-.26,0-.53,0-.79.07a5.75,5.75,0,0,1-.83,0,2,2,0,0,0-.8,0,.4.4,0,0,0-.3.33.54.54,0,0,0-.19.18l-.06.09a.91.91,0,0,1-.11.16,2.57,2.57,0,0,1-.28.29L3,5.73H3a.46.46,0,0,0-.51-.22A.71.71,0,0,0,2,6.24Z"/><path class="cls-6" d="M7,5.79a1.28,1.28,0,0,1,.24-.35.58.58,0,0,1,.46-.18.86.86,0,0,1,.48.2.49.49,0,0,1,.2.5,2.73,2.73,0,0,1-.68.64c-.1,0-.52-.41-.6-.46A.26.26,0,0,1,7,5.79Z"/><path class="cls-6" d="M5,5.67a1.26,1.26,0,0,1,.2-.27.66.66,0,0,1,.71-.19.74.74,0,0,1,.31.22.58.58,0,0,1,.17.39c0,.21-.13.65-.35.65s-.19,0-.24,0-.53,0-.66-.06-.23-.38-.23-.52A.44.44,0,0,1,5,5.67Z"/><path class="cls-7" d="M11,4a4.14,4.14,0,0,0-1.08-.46,8.88,8.88,0,0,0-1.25-.15Q7.39,3.3,6.08,3.3L6,3.32a1.94,1.94,0,0,0-.48,0,.07.07,0,0,0-.07,0l-.28,0a.1.1,0,0,0-.09.14H4.77c-.21,0-.43,0-.64,0H3.86a.59.59,0,0,0-.23,0l-.1,0-.17.06a.1.1,0,0,0,0,0l-.12,0a.09.09,0,0,0-.1-.07,4.67,4.67,0,0,0-.82.2H2.22a5.06,5.06,0,0,0-.88.42c-.1.06,0,.22.08.16a5.59,5.59,0,0,1,.86-.4l.05,0h0a.07.07,0,0,0,.09,0,3.38,3.38,0,0,0,.42-.13h0l.45-.06a7.69,7.69,0,0,1,1-.06.1.1,0,0,0,.09-.14h0a.08.08,0,0,0,.08.09A2.51,2.51,0,0,0,5,3.56l0,0h1a.11.11,0,0,0,.09-.06c.8,0,1.6,0,2.4.11.41,0,.83.06,1.23.14a3.92,3.92,0,0,1,1.1.45C11,4.24,11.13,4.09,11,4Z"/><path class="cls-8" d="M9.23,7.23c0,.1-.09.2-.14.3a7.45,7.45,0,0,0-1.21,3.18"/><path class="cls-8" d="M9.49,4.79a4.57,4.57,0,0,1,0,1.43,5.27,5.27,0,0,1-.25,1"/><path class="cls-8" d="M9.48,4.73v.06"/><path class="cls-8" d="M3.19,7.81a12.08,12.08,0,0,1,1,2.9"/><path class="cls-8" d="M2.78,4.82a4.77,4.77,0,0,0-.06.63"/><path class="cls-8" d="M2.73,5.21c-.91-.16-1.45-.39-1.45-.66,0-.53,2.19-1,4.89-1s4.91.38,4.91.91c0,.28-.56.53-1.53.71"/><path class="cls-8" d="M2.69,4.8a20,20,0,0,1,3.49-.32,20,20,0,0,1,3.36.23"/><path class="cls-8" d="M1.28,4.24c0-.53,2.18-1,4.89-1s4.9.38,4.91.91v.31"/><path class="cls-8" d="M3,5.74a.64.64,0,0,0-.25-.24.53.53,0,0,0-.45,0s-.45.13-.38.85.65.77.75,1.22a.56.56,0,0,1,0,.1s0,.31.24.29.19,0,.29-.3"/><path class="cls-8" d="M2.6,6.41a.08.08,0,0,0,0,0,1.85,1.85,0,0,1,.2.27"/><path class="cls-8" d="M9.61,5.57l.15,0s.45.16.34.88-.69.73-.81,1.17l0,.1c0,.05,0,.31-.25.27a.21.21,0,0,1-.12,0"/><path class="cls-8" d="M3.84,4.62s-.21.88-.91,1"/><line class="cls-8" x1="1.28" y1="4.24" x2="1.29" y2="4.6"/><path class="cls-8" d="M8.92,4.69s.06.83.56,1"/><path class="cls-9" d="M9.56,5.39a.51.51,0,0,1,0-.13,1.34,1.34,0,0,0,0-.35.55.55,0,0,0-.11-.2.38.38,0,0,0-.13-.09.23.23,0,0,0-.22,0,.15.15,0,0,0,0,.17L9,5a.2.2,0,0,0,0,.13,2.42,2.42,0,0,0,.18.36.17.17,0,0,0,.22.09.14.14,0,0,0,.1-.07A.16.16,0,0,0,9.56,5.39Z"/><path class="cls-9" d="M3.72,4.69a.18.18,0,0,0-.24,0l0,0h0l-.06,0h0l-.06,0L3,4.81A.26.26,0,0,0,2.78,5a1.32,1.32,0,0,0,0,.39l0,.09a.23.23,0,0,0,.13.11.17.17,0,0,0,.14,0,.18.18,0,0,0,.07,0,.18.18,0,0,0,.1,0,.5.5,0,0,0,.17-.11l.15-.17a1.61,1.61,0,0,0,.21-.3A.2.2,0,0,0,3.72,4.69Z"/><path class="cls-9" d="M3.39,4.74Z"/><path class="cls-8" d="M9.49,3.5,9.56.66C9.56.39,8,.18,6.09.2S2.62.45,2.62.72l0,3"/><path class="cls-8" d="M9.52,2.39c0-.27-1.53-.53-3.45-.52s-3.47.25-3.47.52"/><path class="cls-8" d="M5.47,8.09a1.9,1.9,0,0,0,1.72.69"/><path class="cls-3" d="M6.37,31.08a2.17,2.17,0,0,0-.1-.53.41.41,0,0,0-.41-.26c-.13,0-.26-.05-.33,0s-.23.06-.31,0a4,4,0,0,0-.48-.09,3.91,3.91,0,0,0-1.08.09c-.32,0-.63.1-.94.16H2.61l-.16.05a1.2,1.2,0,0,0-.68.32.62.62,0,0,0-.41.2.86.86,0,0,0-.1.63c.08.3.38.31.63.29A.37.37,0,0,0,2,32,4.93,4.93,0,0,0,3,32c.33,0,.66,0,1,0h.95a4.26,4.26,0,0,1,1,.08.38.38,0,0,0,.47-.36C6.4,31.47,6.39,31.27,6.37,31.08Z"/><path class="cls-3" d="M12.23,31.4a1,1,0,0,0-.24-.35.72.72,0,0,0-.41-.28c-.05,0-.17-.15-.21-.15s-.12,0-.24,0a2.18,2.18,0,0,0-.87-.21l-.3-.07a7.43,7.43,0,0,0-1.25-.07c-.22,0-.43,0-.64,0a1.42,1.42,0,0,0-.58,0c-.43.14-.33.56-.35,1a.64.64,0,0,0,0,.41c.15.31.47.28.76.28l1.93,0,1,0c.32,0,.65.05,1,0A.43.43,0,0,0,12.23,31.4Z"/><path class="cls-8" d="M8,30.48a3.28,3.28,0,0,1,2.09-.19c1.43.22,2.12.67,2.21,1.28,0,0,.06.36-.29.36"/><path class="cls-8" d="M7.26,30.32l-.12,1.16s-.06.46.32.45H12"/><line class="cls-8" x1="7.16" y1="31.6" x2="12.23" y2="31.6"/><path class="cls-8" d="M5.48,30.48a3.26,3.26,0,0,0-2.09-.19c-1.43.22-2.11.67-2.2,1.28,0,0-.07.36.28.36"/><path class="cls-8" d="M6.23,30.32l.12,1.16s.07.46-.32.45H1.47"/><line class="cls-8" x1="6.33" y1="31.6" x2="1.26" y2="31.6"/><polyline class="cls-8" points="9.33 30.11 6.69 30.25 6.11 20.92"/><line class="cls-8" x1="9.33" y1="30.11" x2="9.17" y2="22.85"/><polyline class="cls-8" points="5.11 30.32 6.42 30.29 6.11 20.92"/><line class="cls-8" x1="3.77" y1="30.19" x2="3.33" y2="22.83"/><line class="cls-8" x1="1.84" y1="19.43" x2="1.77" y2="22.33"/><line class="cls-8" x1="1.93" y1="15.71" x2="1.86" y2="18.66"/><polyline class="cls-8" points="5.12 22.83 5.09 12.21 4.08 10.62"/><path class="cls-8" d="M1.77,22.38c0,.26,1.44.44,3.35.45"/><line class="cls-8" x1="5.67" y1="20.92" x2="6.48" y2="20.92"/><path class="cls-8" d="M4,18.89l0,1c0,.89-.42,1.61-1,1.63S2,20.84,2,20l0-.57"/><polygon class="cls-8" points="4.11 18.74 1.84 19.39 1.82 18.7 4.09 18.03 4.11 18.74"/><path class="cls-8" d="M8.28,18.67l.05,1c0,.88.53,1.57,1.1,1.55s1-.76,1-1.64l0-.58"/><polygon class="cls-8" points="8.15 18.53 10.46 19.03 10.43 18.34 8.12 17.83 8.15 18.53"/><line class="cls-8" x1="10.37" y1="19.08" x2="10.51" y2="22.41"/><line class="cls-8" x1="10.19" y1="14.53" x2="10.34" y2="18.28"/><polyline class="cls-8" points="7.17 22.97 7.31 12.06 7.9 10.68"/><path class="cls-8" d="M10.51,22.46c0,.26-1.43.47-3.34.51"/><polyline class="cls-8" points="7.96 10.41 8.82 11.37 7.37 12.01"/><polyline class="cls-8" points="4.11 10.34 3.21 11.31 5.09 12.21"/><path class="cls-8" d="M5.09,13.37a10.85,10.85,0,0,0,2.21,0"/><path class="cls-8" d="M5.1,17.78a2.15,2.15,0,0,0,2.14-.08"/><line class="cls-8" x1="7.28" y1="14.34" x2="5.09" y2="14.31"/><path class="cls-8" d="M7.88,10.62a2,2,0,0,1-1.14,1l-.55,1.12s-.64-1.11-.67-1.11a3.5,3.5,0,0,1-1.36-1"/><line class="cls-8" x1="6.74" y1="11.59" x2="7.28" y2="12.5"/><path class="cls-8" d="M5.57,11.66s-.48.91-.48.91"/><path class="cls-8" d="M8.79,11.34s2.1,1.68,3,6.49a1.63,1.63,0,0,1-1.35,2"/><polyline class="cls-8" points="6.86 5.19 7.14 7.75 6.55 7.71"/><path class="cls-8" d="M5.46,6.61l.16,0a.72.72,0,1,0-.72-.72.71.71,0,0,0,.56.7Z"/><path class="cls-8" d="M8.27,6.31a.78.78,0,0,0,.12-.4A.72.72,0,1,0,7,5.91a.72.72,0,0,0,.72.72l.14,0A.7.7,0,0,0,8.27,6.31Z"/><circle class="cls-9" cx="6.02" cy="5.78" r="0.21"/><circle class="cls-9" cx="8.1" cy="5.7" r="0.21"/><path class="cls-8" d="M10.49,17.51a.85.85,0,0,0-.17.16"/><path class="cls-8" d="M10.3,17.15a1.42,1.42,0,0,0,.21.34.65.65,0,0,1,.3,0"/><path class="cls-8" d="M3.19,11.34S1.1,13,.22,17.83c0,0-.35,2.13,1.63,2.21"/><path class="cls-8" d="M1.73,17.77l.12.1"/><path class="cls-8" d="M1.88,17.51a1.18,1.18,0,0,1-.17.24.65.65,0,0,0-.3,0"/><line class="cls-8" x1="6.19" y1="12.71" x2="6.19" y2="13.39"/></g></g></svg>