<svg xmlns="http://www.w3.org/2000/svg" viewBox="0 0 11.66 29.92"><defs><style>.cls-1{fill:#1f4686;}.cls-2{fill:#fff;}.cls-3,.cls-8{fill:#1c204d;}.cls-4,.cls-9{fill:#f9b730;}.cls-5{fill:#f47951;}.cls-6{fill:#0077bf;}.cls-7{fill:none;}.cls-7,.cls-8,.cls-9{stroke:#1c204d;stroke-linecap:round;stroke-linejoin:round;stroke-width:0.4px;}</style></defs><g id="Layer_2" data-name="Layer 2"><g id="Layer_1-2" data-name="Layer 1"><path class="cls-1" d="M5,28.77c0-.14-.11-.28-.27-.27-.77,0-1.56,0-2.33.12a4.68,4.68,0,0,0-1.94.67c-.29.17,0,.64.27.46l.15-.09a.2.2,0,0,0,.15.06c.44,0,.88-.06,1.33-.08s1,0,1.45,0h.15a5,5,0,0,1,.78.08c.15,0,.36-.07.34-.26Z"/><path class="cls-2" d="M11.27,29.27A6.92,6.92,0,0,0,9,28.59a6.31,6.31,0,0,0-1.15,0,.09.09,0,0,0,0,0,.27.27,0,0,0-.25-.2H7.48a.35.35,0,0,0-.17.06h0l-.06,0h0a1.29,1.29,0,0,1-.28,0,1.41,1.41,0,0,0-.29,0l-.18,0H6.43a.29.29,0,0,0-.3.2.35.35,0,0,0,0,.18v.07c-.06.36-.15.83.3.85s1.06,0,1.59,0,1,.07,1.54.06a12.51,12.51,0,0,1,1.62,0A.27.27,0,0,0,11.27,29.27Z"/><path class="cls-3" d="M4,8A8.43,8.43,0,0,1,2.73,5.86a.17.17,0,0,0-.09-.11L2.58,5.3c0-.1-.18-.1-.16,0l.06.46h0a.16.16,0,0,0-.07.17l.16,1a1.89,1.89,0,0,0,.16.63.27.27,0,0,0,0,.27,1.62,1.62,0,0,0,.65.4.23.23,0,0,0,.2,0l.17,0C3.93,8.25,4.08,8.1,4,8Z"/><path class="cls-4" d="M8.33,7.08C8.19,6.45,8,5.83,7.79,5.22l0-.06a.33.33,0,0,0,0-.1c0-.47-.18-1-.18-1.44a.27.27,0,0,0-.11-.25,3.73,3.73,0,0,1,0-.66c0-.23-.23-.33-.42-.32-.76,0-1.61,0-2.37,0s-1.22,0-1.83,0a.32.32,0,0,0-.32.24A7.08,7.08,0,0,0,2.69,5.7a.3.3,0,0,0,.18.21,3.83,3.83,0,0,0,.43,1,6.74,6.74,0,0,1,.85,1.44.5.5,0,0,0,.13.2A.36.36,0,0,0,4.5,9a4.12,4.12,0,0,0,1.35.15c.31,0,.75-.14,1.05-.19s.63-.19.95-.26.22-.24.23-.4c0-.6.27-.37.31-.72A1.35,1.35,0,0,0,8.33,7.08Z"/><path class="cls-3" d="M9.78,5.9a.24.24,0,0,0,0-.09.51.51,0,0,0,0-.13,9.25,9.25,0,0,0-.53-2.82,2.36,2.36,0,0,0-.58-1.43.51.51,0,0,0-.25-.17,3.18,3.18,0,0,0-2.64-1h-.1A3.45,3.45,0,0,0,2.77,1.76a.25.25,0,0,0,0,.23l-.15.13a.17.17,0,0,0,.16.28,11.86,11.86,0,0,1,2.73,0,6.2,6.2,0,0,0,.86,0h.06c.31,0,.61.05.92.05h.13a12.4,12.4,0,0,0,.5,3.28.36.36,0,0,0,0,.09.44.44,0,0,0,0,.1l.24.69a7.2,7.2,0,0,1,.16.78.69.69,0,0,0,0,.2h0a.18.18,0,0,0-.05.07l-.1.14a.26.26,0,0,0,.25.42A2.15,2.15,0,0,0,9,8a.18.18,0,0,0,.18,0C9.88,7.51,9.81,6.67,9.78,5.9Z"/><path class="cls-4" d="M3.3,12.21a.27.27,0,0,0-.28-.1,1.75,1.75,0,0,0-.94.36,2.05,2.05,0,0,0-.29.47c-.09.17-.17.34-.25.51a.26.26,0,0,0,.07.34.27.27,0,0,0,.35,0H2l.05,0,0,0a.25.25,0,0,0,.25,0l.18-.1h0l0,0,.1,0a.65.65,0,0,0,.23-.06A.4.4,0,0,0,3,13.26c0-.13.07-.26.11-.39a.36.36,0,0,0,0-.09v0l0,0,.1-.2A.25.25,0,0,0,3.3,12.21Z"/><path class="cls-4" d="M9.75,13a1.17,1.17,0,0,0-.61-.92,2.41,2.41,0,0,0-1.06-.27A1.91,1.91,0,0,0,7,12c-.16.09-.29.21-.46.29a1.24,1.24,0,0,0-.42.28.25.25,0,0,0,0,.07.57.57,0,0,0-.25.08.18.18,0,0,0,.05.32l.68.12c0,.05,0,.08.11.1l.42.12a.35.35,0,0,0,.33.07.24.24,0,0,0,.09-.08h.12l.07,0,.19,0,.1,0,.06,0,.15.07a1.43,1.43,0,0,1,.3.16l0,0s0,0,0,0l.06.06,0,0h0A.26.26,0,0,0,9,14a.28.28,0,0,0,.1-.37L9,13.49a.75.75,0,0,0,.2.1.27.27,0,0,0,.34-.26.29.29,0,0,0,0-.09A.27.27,0,0,0,9.75,13Z"/><path class="cls-5" d="M9.09,28.13s-.48-9.22-.65-12h0a.23.23,0,0,0,0-.2c0-.13,0-.24,0-.33l-.11.17c-.12-.08-.25,0-.35.15a.64.64,0,0,1-.1.13.32.32,0,0,0-.22,0c-.4.1-.82-.13-1.23-.13a5.81,5.81,0,0,0-.71.11,5.7,5.7,0,0,1-.72,0c-.89,0-1.89-.34-2.73.08H2.12a.12.12,0,0,0-.08,0l0,0H2v0a.13.13,0,0,0,0,.06v.08a.11.11,0,0,0,0,.05V28.49H4.18l1.13,0L5,21l0-.07h0l0,0,.84,6.94s0,.05,0,.07a.23.23,0,0,0,0,.14.33.33,0,0,0,0,.13l.05.06-.05.27Z"/><path class="cls-6" d="M10.07,12.45a.25.25,0,0,0,0-.14h0a.39.39,0,0,0,.14-.39,5,5,0,0,0-.55-1.72,5.93,5.93,0,0,0-.52-.69C9,9.34,8.82,9.18,8.67,9a.21.21,0,0,0-.06-.1,1,1,0,0,0-.2-.16l-.09,0a.2.2,0,0,0-.26-.07A5.71,5.71,0,0,1,6.92,9a.24.24,0,0,0-.16.1c-.21,0-.43.05-.64.06s-.61,0-.92,0-.62,0-.7-.15a.27.27,0,0,0-.42-.06,11.43,11.43,0,0,0-2.37,2.82,0,0,0,0,1,0,0,1.19,1.19,0,0,0-.28.27,3.15,3.15,0,0,0-.53,1.07A7.35,7.35,0,0,1,.4,14.18a.31.31,0,0,0,0,.26s0,.08,0,.12v0h0l0,.1a1.86,1.86,0,0,0,0,.42l0,.05h0l0,.05,0,.06h0a.17.17,0,0,1,0,.07v.06h0s0,.09,0,.12v0a.14.14,0,0,0,0,.06l0,.07h0a.76.76,0,0,0,.08.11l.07.05.06,0,0,0L.63,16a1.06,1.06,0,0,0,1,.16c.15,0,.29-.1.44-.13h0a.57.57,0,0,0,.13,0h.27a1.69,1.69,0,0,0,.74-.29.44.44,0,0,0,.37.16c1,0,1.9.12,2.86.06a.49.49,0,0,0,.28-.09.46.46,0,0,0,.14.05,1.68,1.68,0,0,0,.55,0,.69.69,0,0,0,.49,0l.34-.15a.49.49,0,0,0,.27-.31,1.79,1.79,0,0,0,.37-.51A.26.26,0,0,0,9,14.86a4.78,4.78,0,0,0,.38-.61,1,1,0,0,0,.13-.32.22.22,0,0,0,0-.08l.05,0,.09,0a.19.19,0,0,0,.06-.25h0v0l0-.06h0a.25.25,0,0,1,0-.07h0a.05.05,0,0,0,0,0,.08.08,0,0,0,.05-.05A1.49,1.49,0,0,0,10,13l0-.15s0,0,0-.06h0l0-.06v0a.11.11,0,0,0,0-.08l0,0Zm-6.68-.19v0a3.45,3.45,0,0,1-.18.51,4.29,4.29,0,0,0-.14.62c-.51.16-1,.31-1.55.45a.24.24,0,0,0,0-.12.2.2,0,0,0,0-.13v0a.08.08,0,0,1,0-.05,4.47,4.47,0,0,1,.39-.93.91.91,0,0,1,.61-.43,2.07,2.07,0,0,1,.85.06h.05Zm6.42.65a1.81,1.81,0,0,1-.09.31h0l0,0H9.6l0,0v.06l0,0v0h0l-.08,0c-.13.07-.28.11-.3.28,0,0,0,0,0,.06h0a.19.19,0,0,1,0,.08A.84.84,0,0,1,9.1,14a.25.25,0,0,1,0,.07l-.09,0a.25.25,0,0,0-.14.06,1.79,1.79,0,0,0-.77-.57,1.47,1.47,0,0,0-1-.06,5.86,5.86,0,0,0-.8-.38c-.23-.09-.47-.15-.7-.22l0,0a3.34,3.34,0,0,1,1.71-1.06,2,2,0,0,1,1.08-.05,2.71,2.71,0,0,1,1,.57h0l.11.22a.27.27,0,0,0,.07.08l.08,0s0,0,0,0l0,0s0,0,.05,0A.44.44,0,0,1,9.81,12.91Z"/><path class="cls-2" d="M6.08,3.71h0c0-.05-.11-.38-.15-.38s-.45-.23-.54-.23-.37.3-.54.27-.1.24-.14.31l0,0,0,0-.09,0s-.39-.46-.41-.44a3.58,3.58,0,0,0-.74.15s.14.35.12.36h0a.16.16,0,0,0-.17.17.27.27,0,0,0,.18.26c.09,0,.13.27.21.25l.23-.06S4.08,4,4.16,4A.17.17,0,0,0,4.29,4h.07l.09,0a.34.34,0,0,1,.1,0l.07,0,.06,0,0,0a.2.2,0,0,0,.11.09A.6.6,0,0,0,5.05,4h0c.12,0,.26.38.37.39A1.79,1.79,0,0,0,6.08,4,.18.18,0,0,0,6.08,3.71Z"/><path class="cls-7" d="M8.11,8.19A1.87,1.87,0,0,0,8,8.65"/><path class="cls-7" d="M8.41,7.42a3.93,3.93,0,0,0-.3.77"/><path class="cls-7" d="M5.76.2a6.58,6.58,0,0,1,.74,0A3.37,3.37,0,0,1,9.36,3"/><path class="cls-7" d="M4.28,8.83C4.14,8,3.44,7.47,2.86,6.12A5.38,5.38,0,0,1,2.45,3a3.32,3.32,0,0,1,.16-.62"/><path class="cls-7" d="M7.59,2.38H2.47S3,.2,5.9.2"/><path class="cls-7" d="M7.42,2.38A16,16,0,0,0,8.48,7.51"/><path class="cls-7" d="M8.16,8.15a1.86,1.86,0,0,0,.34,0c.74,0,1.41-.52,1.34-1.88a13.81,13.81,0,0,0-.6-3.74"/><path class="cls-7" d="M4.06,8.21c0-.06-.95.24-1.34-.47a13.39,13.39,0,0,1-.35-3.6"/><polygon class="cls-8" points="6.19 6.01 5.27 6.24 6.02 7.08 6.19 6.01"/><path class="cls-7" d="M2.83,13.32s2.5,2.23,3.71,2.55,1.58.13,2.09-.52,1.08-1.62,1.08-1.62"/><line class="cls-7" x1="8.19" y1="11.75" x2="8.41" y2="11.14"/><line class="cls-7" x1="7.15" y1="14.07" x2="7.47" y2="13.5"/><path class="cls-7" d="M1.49,13.84s.27-2.1,1.78-1.67,4.15,1.41,4.15,1.41"/><line class="cls-7" x1="1.06" y1="14.01" x2="3" y2="13.46"/><path class="cls-7" d="M4.64,14.78S2.69,16.57.8,16.14s1-4.67,1-4.67,1.56-2.3,2.41-2.7"/><path class="cls-7" d="M7.23,13.51c.23-.1.79-.22,1.52.47a.26.26,0,0,0,.27.08c.13-.05.19-.29.06-.5a1.65,1.65,0,0,0-1.76-.75"/><path class="cls-7" d="M9.05,13.51a.32.32,0,0,0,.36,0c.21-.12.06-.45-.07-.59a1.9,1.9,0,0,0-1.73-.67"/><path class="cls-7" d="M9.51,13.27a.28.28,0,0,0,.26-.19c.12-.32-.25-.73-.73-1a2.61,2.61,0,0,0-3.36.9"/><path class="cls-7" d="M8.06,8.62c1.33.42,2.82,3.13,1.59,5.2"/><path class="cls-7" d="M4.28,8.83s.22.39,1.61.27A6,6,0,0,0,8,8.65"/><path class="cls-7" d="M3.48,12.23A1.75,1.75,0,0,0,3,13.46"/><path class="cls-7" d="M8.39,29.72H6.16c-.14,0-.14-.16-.14-.16l.06-1"/><path class="cls-7" d="M2.67,29.72H4.9c.14,0,.14-.16.14-.16l-.06-1"/><path class="cls-7" d="M7.22,29.72h3.94s.3,0,.3-.2-1-1-3.71-1v-.24"/><path class="cls-7" d="M4.46,29.72H.52s-.31,0-.31-.2,1-1,3.72-1h0"/><path class="cls-7" d="M3.91,19.14a4.39,4.39,0,0,0,1.72.05"/><line class="cls-7" x1="4.77" y1="19.36" x2="5.85" y2="28.51"/><path class="cls-7" d="M5.85,28.51l3.24-.38s-.57-10.8-.68-12.52"/><polyline class="cls-7" points="2 16.2 1.99 17.36 2 28.49 4.18 28.49 5.31 28.51 4.96 21.01"/><path class="cls-7" d="M5.51,16c.43,0,1-.05,1.28-.08"/><path class="cls-7" d="M3,15.84A9.88,9.88,0,0,0,5.51,16"/><line class="cls-7" x1="3.04" y1="10.88" x2="2.93" y2="12.12"/><path class="cls-7" d="M6.63,5.49a3,3,0,0,0-2.1.63"/><path class="cls-7" d="M3.8,4.42a.78.78,0,0,0,.22,0,.7.7,0,0,0,.7-.7A.71.71,0,0,0,4,3a.76.76,0,0,0-.64.4.78.78,0,0,0-.07.31.71.71,0,0,0,.19.48.64.64,0,0,0,.3.19"/><path class="cls-7" d="M5.61,4.43l-.19,0a.7.7,0,0,1-.71-.7A.71.71,0,0,1,5.42,3a.67.67,0,0,1,.34.09.66.66,0,0,1,.36.62A.68.68,0,0,1,6,4.19.66.66,0,0,1,5.61,4.43Z"/><path class="cls-9" d="M5.06,5.19a.75.75,0,0,1-.42.13.7.7,0,0,1-.7-.71.7.7,0,0,1,.7-.7.71.71,0,0,1,.71.66"/><circle class="cls-3" cx="3.59" cy="3.75" r="0.26"/><circle class="cls-3" cx="5.11" cy="3.75" r="0.26"/></g></g></svg>