<svg xmlns="http://www.w3.org/2000/svg" viewBox="0 0 14.29 31.47"><defs><style>.cls-1,.cls-7{fill:#ea4827;}.cls-2{fill:#f59da0;}.cls-3{fill:#0077bf;}.cls-4{fill:#fff;}.cls-5{fill:#1c204d;}.cls-6{fill:none;}.cls-6,.cls-7{stroke:#1c204d;stroke-linecap:round;stroke-linejoin:round;stroke-width:0.4px;}</style></defs><g id="Layer_2" data-name="Layer 2"><g id="Layer_1-2" data-name="Layer 1"><path class="cls-1" d="M12.55,6.83a.53.53,0,0,0-.31-.24.52.52,0,0,0-.4.06.53.53,0,0,0-.23.3,1,1,0,0,1,0,.1,2.43,2.43,0,0,1-.3.52l0,0a.58.58,0,0,0-.15.37c0,.12-.24.6-.15.69s.42,0,.56,0,.38-.26.47-.36a2.73,2.73,0,0,0,.37-.52,3,3,0,0,0,.26-.58A.55.55,0,0,0,12.55,6.83Z"/><path class="cls-1" d="M6.78,6.91c0-.1,0-.2-.06-.3l0-.38a.51.51,0,0,0-.15-.36.49.49,0,0,0-.36-.15.51.51,0,0,0-.37.15.55.55,0,0,0-.15.36,5,5,0,0,0,.12.95A.5.5,0,0,0,6,7.49a.55.55,0,0,0,.4,0,.53.53,0,0,0,.3-.23A.56.56,0,0,0,6.78,6.91Z"/><path class="cls-2" d="M12.57,5.11a1.14,1.14,0,0,0-.22.22h0c-.12-.12-.28-.2-.4-.31a.58.58,0,0,1-.17-.37l0-.46a.52.52,0,0,0-1,0v.09a3.94,3.94,0,0,1-.48-.18,1,1,0,0,0-.59-.52,2.76,2.76,0,0,1-.19-.68.52.52,0,0,0-.86-.22A1.43,1.43,0,0,1,8,3.07a3.73,3.73,0,0,1-.82.05,1.4,1.4,0,0,0-.93.3c-.3.29-.85.6-.84,1,.07,1.39,1,2.7,1.42,4a.48.48,0,0,0,.5.36,1.17,1.17,0,0,0,0,.11.51.51,0,0,0-.42.5c0,.1,0,.2,0,.3l-.26-.27a.52.52,0,0,0-.73,0l0,0a.48.48,0,0,0-.37-.26A.52.52,0,0,0,5,9.56a6.49,6.49,0,0,0-.65,1.87,7.71,7.71,0,0,0,0,1,.94.94,0,0,1-.14.62.51.51,0,0,0,.13.66.53.53,0,0,0,.68,0l.14-.12a.83.83,0,0,0,.29.11c.25,0,.52.08.77.08a.64.64,0,0,0,.57-.4l.12.09a2.11,2.11,0,0,0,.66.15h0l-.13,0,.17.05,0,0,0,0h0a.55.55,0,0,0,.3.11H8a.74.74,0,0,0,.13.12l.12.06h.22l.06.08a.42.42,0,0,0,.17.1.46.46,0,0,0,.2.05.49.49,0,0,0,.2-.05.39.39,0,0,0,.16-.1l.08-.11a.48.48,0,0,0,.07-.26l0-.13a.31.31,0,0,0,0-.1l0-.05h0v-.07a.32.32,0,0,0-.09-.17A.2.2,0,0,0,9.17,13,.31.31,0,0,0,9,12.87a1.34,1.34,0,0,0-.35,0l-.21,0a.58.58,0,0,0,.08-.22,5.18,5.18,0,0,0-.19-1.75.53.53,0,0,0-.22-.29c0-.2,0-.4-.07-.6l0,0a1.32,1.32,0,0,0,1,.16,4.19,4.19,0,0,0,1-.23.94.94,0,0,0,.49-.81,1.54,1.54,0,0,1,.29-.73c.38-.55.93-1,1.29-1.54a.52.52,0,0,0,.06-.16h.08a.71.71,0,0,0,.2,0h0l.2-.08.06,0,0,0a1.11,1.11,0,0,0,.49-1C13.33,5.2,12.9,4.86,12.57,5.11Z"/><path class="cls-1" d="M12.4,1.7a3,3,0,0,0-2-1.43,3.72,3.72,0,0,0-2.3.28,2.64,2.64,0,0,0-.9.69c-.23.26-.4.6-.71.77S5.55,3.41,6,3.53,7.49,3,8,2.81l1.28-.38A8,8,0,0,0,10.14,4a.52.52,0,0,0,.94-.12,1.49,1.49,0,0,1,.17-.36c.05.15.08.3.12.44a2.12,2.12,0,0,0,.48.93.5.5,0,0,0,.73,0,.52.52,0,0,0,.47-.5A5.89,5.89,0,0,0,12.4,1.7Z"/><path class="cls-3" d="M11,17.73Z"/><path class="cls-3" d="M10.92,17.69l0,0s0,0,0,0a1.34,1.34,0,0,0,0-.2,1.7,1.7,0,0,0-.08-.45.91.91,0,0,0-.37-.45c-.07-.05-.16-.07-.2-.14s0-.35,0-.47a.93.93,0,0,0-.19-.6.65.65,0,0,0-.46-.2,2.07,2.07,0,0,0-.3.05s0-.07,0-.1a1.64,1.64,0,0,1,0-.44A.54.54,0,0,0,9,14.07l-.86-.34a3.66,3.66,0,0,0-.85-.27,2.14,2.14,0,0,0-.79.16,7.52,7.52,0,0,1-.91.22.54.54,0,0,0-.38.5c0,.41,0,.83,0,1.24a5.46,5.46,0,0,1,0,.57.76.76,0,0,1,0,.16l0,.12a.48.48,0,0,0-.17.67v0a.52.52,0,0,0,.45.26c.64,0,.76-.78.81-1.28s.06-.91.07-1.36l.4-.09a2.22,2.22,0,0,1,.61-.17,3.13,3.13,0,0,1,.72.27l.34.14a1.94,1.94,0,0,0,.13,1,.65.65,0,0,0,.53.41,1.71,1.71,0,0,0,.32,0,2.13,2.13,0,0,0,0,.44,1.06,1.06,0,0,0,.49.69l.12.05s0,.14,0,.19a1.2,1.2,0,0,0,.28.78.51.51,0,0,0,.73,0A.53.53,0,0,0,10.92,17.69Z"/><path class="cls-3" d="M10.81,9.71a.53.53,0,0,0-.7.19,5.37,5.37,0,0,0-.69,1.57.45.45,0,0,0,0,.23l-.32.08h0a.37.37,0,0,0-.2.05.39.39,0,0,0-.16.1.39.39,0,0,0-.11.17.45.45,0,0,0,0,.2l0,.13a.48.48,0,0,0,.13.23.51.51,0,0,0,.36.15,2.23,2.23,0,0,0,.68-.14.31.31,0,0,0,.18-.09.44.44,0,0,0,.13-.14.35.35,0,0,0,.06-.19.31.31,0,0,0,0-.19c.14-.05.21-.73.29-.93A11.74,11.74,0,0,1,10.82,10C11,9.73,11.05,9.84,10.81,9.71Z"/><path class="cls-3" d="M12,28.91l0,0s0,0,0,0a.24.24,0,0,0,0-.09.11.11,0,0,0,0-.08s0,0,0,0a.11.11,0,0,0,0-.08l-.05-.07-.06,0h0a36.92,36.92,0,0,0-.24-5.26.44.44,0,0,0-.28-.33,2.72,2.72,0,0,0,.11-.38,4.14,4.14,0,0,0-.06-1.11.47.47,0,0,0,.05-.26c-.1-.72-.13-1.46-.17-2.19,0-.35,0-.71-.06-1.06a1.55,1.55,0,0,0-.12-.69.23.23,0,0,0,.06-.2.21.21,0,0,0-.26-.15h0a.13.13,0,0,1-.07,0,.43.43,0,0,1-.09-.1,1.56,1.56,0,0,0-.16-.2l0,0v-.06c0-.34-.05-.67-.06-1a.21.21,0,0,0-.36-.15l-.2.25,0,.07a.24.24,0,0,0-.09.06c-.26.23-.53.45-.8.66a1.5,1.5,0,0,0-.13-.87s0,0,0-.07a1.21,1.21,0,0,0-.55-.8l-.1,0a.52.52,0,0,0-.57-.12.52.52,0,0,0-.17.13l0,0-.07,0h0a1.19,1.19,0,0,0-.62-.12.76.76,0,0,0-.65.66H5.86l-.1.09c-.31,0-.44.25-.46.51s0,.33,0,.5a1,1,0,0,1-.11.42c-.08.1-.18.15-.22.29a.41.41,0,0,0,0,.19.41.41,0,0,0-.05.19c0,.63-.08,1.28-.15,1.91s-.21,1.3-.23,2a.33.33,0,0,0,0,.2c-.13.63-.21,1.28-.29,1.92A11,11,0,0,0,4,25.46a.17.17,0,0,0-.06.12c-.1.61-.2,1.21-.26,1.82s-.06,1.19-.16,1.78a.32.32,0,0,0,.3.4,25.07,25.07,0,0,1,3,.11.32.32,0,0,0,.28-.48l0,0a14.55,14.55,0,0,0,.08-1.87l0-.45a1.23,1.23,0,0,0,0-.19s0-.08,0-.13,0-.08,0,0a2.07,2.07,0,0,0,0-1s0,0,0,0c.13-1,.1-2.1.22-3.16a16,16,0,0,0,.09-2.68,3.25,3.25,0,0,0,.54,0c0,.19,0,.38,0,.58a4.89,4.89,0,0,0,0,.54.57.57,0,0,0,.13.33c0,.17,0,.33,0,.5,0,.37,0,.74,0,1.12,0,.77,0,1.54,0,2.31a.71.71,0,0,0,0,.2,3,3,0,0,0,0,.67v.74a.34.34,0,0,0,0,.18v.05c0,.28,0,.55,0,.82,0,.53,0,1.06,0,1.59a.33.33,0,0,0,.32.32c.29,0,.59,0,.89,0a3,3,0,0,0,.84,0,3.21,3.21,0,0,1,.33-.12,2.29,2.29,0,0,1,.37,0,1.74,1.74,0,0,0,.82-.06A.32.32,0,0,0,12,28.91Z"/><path class="cls-4" d="M4.39,12a.5.5,0,0,0,.05-.58.51.51,0,0,0-.58-.24l-.11,0a.59.59,0,0,0-.32.3,2.7,2.7,0,0,0-.25.34.35.35,0,0,0-.05.08.52.52,0,0,0-.49.12l-.34.35c-.13.14-.34.31-.38.5s0,.09,0,.13,0,0,0,0a2.74,2.74,0,0,0-.41.75.62.62,0,0,0,.14.64,1.22,1.22,0,0,0,.43.24,2.4,2.4,0,0,0,.75.12l.3,0,.12,0,.16.05A.52.52,0,0,0,4,14.42v-.06H4a.61.61,0,0,0,0-.14h0v-.1a2.09,2.09,0,0,0,0-.25,3,3,0,0,1,0-.42,1.34,1.34,0,0,1,0-.2s0-.06,0-.09H4c0-.12,0-.24.07-.35a3.57,3.57,0,0,1,.1-.35l.07-.18v0l0-.06A1.34,1.34,0,0,0,4.39,12Z"/><path class="cls-4" d="M9.93,10.38A.51.51,0,0,0,9.78,10a.53.53,0,0,0-.36-.15l-.14,0-.07,0-.28,0a1.19,1.19,0,0,0-.33,0L8.4,10a.59.59,0,0,0-.27.35.62.62,0,0,0,.06.44.56.56,0,0,0,.05.08l.12.21,0,0a.73.73,0,0,0,.52.58l.13,0,.14,0a.5.5,0,0,0,.27-.18.24.24,0,0,0,.06-.11.24.24,0,0,0,0-.13.33.33,0,0,0,0-.14h0a.61.61,0,0,0,.13-.22l0,0a1.17,1.17,0,0,1,.17-.28l0,.05a.44.44,0,0,0,.1-.15A.36.36,0,0,0,9.93,10.38Z"/><path class="cls-4" d="M13.79,14.13a1.06,1.06,0,0,1-.11-.38,1.46,1.46,0,0,0-.22-.53c-.09-.15-.22-.28-.32-.42a3.14,3.14,0,0,1-.25-.44,5.6,5.6,0,0,0-.69-.93l-.83-1a.52.52,0,0,0-.88.37,4.87,4.87,0,0,1-.35.94,1.65,1.65,0,0,0-.06.76.32.32,0,0,0,0,.09.51.51,0,0,0-.43.14.52.52,0,0,0-.14.4.33.33,0,0,0-.05.22,7,7,0,0,1,0,1.21.52.52,0,0,0,.38.5l.32,0s0,0,0,0c.16.34.37,1.69.62,1.45,0,0,.26-1.36.27-1.37.43.06.85.13,1.28.17a1.88,1.88,0,0,0,1.22-.09A.81.81,0,0,0,13.79,14.13Z"/><path class="cls-4" d="M7.73,3.15a.79.79,0,0,0-.5.07,1,1,0,0,0-.33.3,1.37,1.37,0,0,0-.13.2A.52.52,0,0,0,6.66,4a.29.29,0,0,0,.16.24.16.16,0,0,0,.13,0h.29l.13,0,.19.06h0l.06,0,.13,0a.28.28,0,0,0,.29,0,.55.55,0,0,0,.12-.19,1.22,1.22,0,0,0,.18-.48C8.37,3.4,8,3.2,7.73,3.15Z"/><path class="cls-4" d="M10.44,4.25a1.57,1.57,0,0,0-.39-.46.83.83,0,0,0-.65-.14.9.9,0,0,0-.57.29.69.69,0,0,0-.16.66.2.2,0,0,0,.2.15l.19,0,.1,0,.64.19c.2.07.53.23.68,0A.66.66,0,0,0,10.44,4.25Z"/><path class="cls-5" d="M5.65,29.83c-.1-.29-.38-.31-.64-.26a3.58,3.58,0,0,0-.93.09.28.28,0,0,0-.1.09,4.64,4.64,0,0,0-.87-.28,5.49,5.49,0,0,0-1.46.05.55.55,0,0,0-.49.24.37.37,0,0,0,0,.11,1.66,1.66,0,0,0-.47.26.79.79,0,0,0-.38.73.44.44,0,0,0,.55.35l0,0a.17.17,0,0,0,.12,0,2.78,2.78,0,0,0,.57-.07l.05,0c.46,0,.93,0,1.39.06.69,0,1.4.07,2.09.05.35,0,.43-.22.48-.53l.07-.48A1.09,1.09,0,0,0,5.65,29.83Z"/><path class="cls-5" d="M13.91,30.37a2.34,2.34,0,0,0-2.15-.93c-.44,0-.85.17-1.28.25a4.43,4.43,0,0,1-1.36,0,.32.32,0,0,0-.31.4.9.9,0,0,1,0,.46,1.4,1.4,0,0,0,0,.54.31.31,0,0,0,.5.16c1,0,1.92,0,2.88.07a4.9,4.9,0,0,0,1.38,0A.57.57,0,0,0,13.91,30.37Z"/><path class="cls-6" d="M12.26,6.87a1.1,1.1,0,0,1-.09.14c-.89,1.29-1.54,1.8-1.68,2.74"/><path class="cls-6" d="M6.8,8.88c0-.75-.49-1.43-.79-2.73A5.69,5.69,0,0,1,6,3.79"/><path class="cls-6" d="M10.36,9.84a4.44,4.44,0,0,1-2,.12L8.07,9.9"/><path class="cls-6" d="M10.82,10c.82.54,5.82,5.81,1.44,5.48"/><polyline class="cls-6" points="7.55 19.7 7.13 29.65 3.52 29.51"/><path class="cls-6" d="M8.74,19.67a7.4,7.4,0,0,1-1.55,0,3.64,3.64,0,0,1-1.13-.3"/><polyline class="cls-6" points="3.52 29.44 4.89 16.94 4.92 16.68"/><line class="cls-6" x1="2.88" y1="31.27" x2="3.86" y2="31.27"/><path class="cls-6" d="M10.05,29.85a3.24,3.24,0,0,1,1.5-.4c1.33-.07,2.5.68,2.54,1.25a.5.5,0,0,1-.49.57H9.16c-.5,0-.41-.43-.41-.43l.08-1.2"/><path class="cls-6" d="M4.23,29.85a3.21,3.21,0,0,0-1.49-.4C1.41,29.38.24,30.13.2,30.7a.49.49,0,0,0,.49.57H5.13c.42,0,.39-.25.41-.43l.12-1.2"/><line class="cls-6" x1="11" y1="16.79" x2="12" y2="29.4"/><path class="cls-6" d="M10.49,9.75s-.61.31-1.07,2.23l-.8-.11"/><path class="cls-6" d="M10.78,10a1.27,1.27,0,0,1-.08.23,7.44,7.44,0,0,0-.79,2.31"/><path class="cls-6" d="M10.6,9.37a.63.63,0,0,1,.18.67"/><polyline class="cls-6" points="8.08 19.7 8.32 29.64 10.41 29.64"/><path class="cls-6" d="M12.31,6.82l-.12-.05A.49.49,0,0,1,12,6.63"/><path class="cls-6" d="M12.31,6.82A.72.72,0,0,0,13,6.56c.29-.35.7-1.33.11-1.58a.47.47,0,0,0-.68.34"/><path class="cls-6" d="M5.86,5.68a.63.63,0,0,1-.45-.42c-.17-.43-.26-1.48.38-1.54a.38.38,0,0,1,.15,0s.27-.06.5-.54"/><path class="cls-6" d="M11.37,3.44s-.15,1.5,1.05,1.76"/><path class="cls-6" d="M6.54,2.66l-.32.52s2.33,0,2.94-1"/><path class="cls-6" d="M9.16,2.17s.47,1.72,1.64,2.11a1.15,1.15,0,0,1,.57-.84"/><path class="cls-6" d="M12.69,6.76S12.55,9,10.94,8.66"/><path class="cls-6" d="M5.61,5.57s-.38,2.07.89,2.16"/><path class="cls-6" d="M5.71,3.71a4.85,4.85,0,0,1,.5-1.4A1.72,1.72,0,0,1,6.5,1.9,3.52,3.52,0,0,1,10.22.29c2.47.57,3,2.48,3,4.8"/><path class="cls-6" d="M10.31,15.24l0,1a.59.59,0,0,0,.64.54"/><path class="cls-6" d="M10.89,15.33c0,.82,0,1.4,0,1.4"/><path class="cls-6" d="M10.9,12a5.71,5.71,0,0,0,0,.59"/><path class="cls-6" d="M5.49,13.77l-.25,2.54s0,.37-.32.37"/><line class="cls-6" x1="5.06" y1="13.66" x2="5.01" y2="16.59"/><path class="cls-6" d="M4.89,16.94s.34.13.83.26"/><path class="cls-6" d="M11,17.27a11.41,11.41,0,0,1-2.72.18"/><path class="cls-7" d="M9.6,6.1c.17.22.34.56.09.83s-.76,0-.79-.55"/><path class="cls-6" d="M8,3.29a1,1,0,0,1,.35.31"/><path class="cls-6" d="M6.64,4.44a.92.92,0,0,1,0-.29,1,1,0,0,1,1-1A1,1,0,0,1,8,3.29"/><path class="cls-6" d="M7.72,5.1H7.56A1,1,0,0,1,7,4.92"/><path class="cls-6" d="M10.45,4.15a1,1,0,0,1,.07.35,1,1,0,0,1-.3.7"/><path class="cls-6" d="M9.34,5.45a1,1,0,0,1-.76-1,1,1,0,0,1,1-1,.87.87,0,0,1,.32.06"/><polyline class="cls-6" points="8.48 3.44 7.47 5.8 8.48 5.8"/><path class="cls-6" d="M10,5.8a2.79,2.79,0,0,1-2.54.53"/><line class="cls-6" x1="8.59" y1="4.66" x2="10.35" y2="5.05"/><line class="cls-6" x1="6.6" y1="4.23" x2="7.98" y2="4.53"/><circle class="cls-5" cx="7.06" cy="3.95" r="0.34"/><circle class="cls-5" cx="8.9" cy="4.29" r="0.34"/><path class="cls-6" d="M8.54,11.59c.16.88-.18,1.21-.18,1.21"/><path class="cls-6" d="M6.58,11.77a1.7,1.7,0,0,0-.08,1c.21.61.5.69.86.7l2,.63"/><path class="cls-6" d="M6.14,11.41a4,4,0,0,1,.44.36"/><path class="cls-6" d="M7.32,11.25l-.86-.58"/><path class="cls-6" d="M6.16,11.43c-.28-.19-.72-.67-.58-1s.46-.07.46-.07l.42.28"/><path class="cls-6" d="M8,9.61c-.13-.45-.24-.81-.24-.81s-.1-.39-.39-.24-.24.78-.15,1.11l.23.88"/><path class="cls-6" d="M8.54,11.59c0-.13-.42-1.42-.58-2"/><path class="cls-6" d="M6,9c-.26.25-.13.81.26,1.33l.32.38"/><path class="cls-6" d="M6.94,9.9l-.5-.77S6.22,8.76,6,9"/><path class="cls-6" d="M7.78,11.09c-.08-.12-.5-.67-.84-1.19"/><path class="cls-6" d="M5.89,11.2l-.55,1"/><path class="cls-6" d="M4.59,11.86s.3-.52.54-.89"/><path class="cls-6" d="M5.64,10.34a.42.42,0,0,0-.24.2L5.13,11"/><path class="cls-6" d="M6.48,9.15l0,0s.17-.36.43-.15.13.56,0,.87"/><path class="cls-6" d="M5.87,10.31,6,10"/><path class="cls-6" d="M5.51,9.16c.28.15.33.61.17,1.13"/><path class="cls-6" d="M4.79,10.27l.29-.88s.11-.41.43-.23"/><path class="cls-6" d="M4.29,11.66c0-.13.3-.8.5-1.39"/><path class="cls-6" d="M7,13.45a.77.77,0,0,1-.59.17l-.16,0-.12.06a1.34,1.34,0,0,1-1.15,0"/><path class="cls-6" d="M4.29,11.66a2.86,2.86,0,0,0,.15,1.67"/><path class="cls-6" d="M6.24,11.53a1,1,0,0,0,.18.87"/><path class="cls-6" d="M5.06,12.44s.64.21.8.68"/><line class="cls-6" x1="8.36" y1="12.8" x2="9.39" y2="12.8"/><path class="cls-6" d="M2.16,14.64c-.36,0-.79-.25-.68-1C1.67,12.44,4.19,11,4.67,10.6"/><line class="cls-6" x1="5.06" y1="13.66" x2="4.09" y2="14.04"/><path class="cls-6" d="M9.52,15.16a2.88,2.88,0,0,1-.16-1.29,2.88,2.88,0,0,1,.16-1.29"/><line class="cls-6" x1="9.52" y1="12.58" x2="12.69" y2="12.78"/><line class="cls-6" x1="9.52" y1="15.16" x2="12.26" y2="15.43"/><path class="cls-6" d="M4.44,14c0,.55-.1,1-.19,1s-.2-.51-.2-1.15.09-1.16.2-1.16"/><line class="cls-6" x1="4.25" y1="14.92" x2="2.21" y2="14.64"/><line class="cls-6" x1="4.25" y1="12.61" x2="2.96" y2="12.52"/><path class="cls-5" d="M4.36,14.09A.11.11,0,0,0,4.23,14a.1.1,0,0,0-.07.07.13.13,0,0,0-.07.1,2.9,2.9,0,0,0,0,.51c0,.05,0,.1.09.1a.1.1,0,0,0,.11-.07A1.4,1.4,0,0,0,4.36,14.09Z"/><line class="cls-6" x1="12.69" y1="5.68" x2="12.59" y2="5.87"/></g></g></svg>