<svg xmlns="http://www.w3.org/2000/svg" viewBox="0 0 17.53 14.12"><defs><style>.cls-1{fill:#af6e30;}.cls-2{fill:#f47951;}.cls-3{fill:none;}.cls-3,.cls-7{stroke:#1c204d;stroke-linecap:round;stroke-linejoin:round;stroke-width:0.4px;}.cls-4{fill:#60c5b9;}.cls-5{fill:#fff;}.cls-6,.cls-7{fill:#1c204d;}</style></defs><g id="Layer_2" data-name="Layer 2"><g id="Layer_2-2" data-name="Layer 2"><path class="cls-1" d="M17.22,11.75a.49.49,0,0,0-.87-.11,1.4,1.4,0,0,1-.1.16l-.06,0-1.3-.43A4.48,4.48,0,0,0,13.5,11a3.33,3.33,0,0,0-1.45.35.39.39,0,0,0-.22.41.46.46,0,0,0-.38.45.47.47,0,0,0,.47.47,6.61,6.61,0,0,1,1.09,0,1.58,1.58,0,0,1,.73.39,6.77,6.77,0,0,0,1.69.87c.59.18,1.53.3,1.92-.3S17.36,12.36,17.22,11.75Z"/><path class="cls-1" d="M4.52,10.89a.45.45,0,0,0-.3.12,5.29,5.29,0,0,1-1.08-.62s0,0-.06,0L3,10.25l0,0-.11-.08h0a.3.3,0,0,0-.18-.06.41.41,0,0,0-.19,0,.35.35,0,0,0-.16.08.49.49,0,0,0-.12.13l-.05.12s0,0,0,.06h0L2,10.41a.48.48,0,0,0-.69.54c.06.39.48.44.79.47l.95.11h.05a5.76,5.76,0,0,0,1.39.61.35.35,0,0,0,.11.1c.15.08.28.31.46.42a.8.8,0,0,0,.84,0,.47.47,0,0,0,.22-.53A1.63,1.63,0,0,0,4.52,10.89Z"/><path class="cls-2" d="M16.35,10.71a7.49,7.49,0,0,0-1.14-.55,5.66,5.66,0,0,0-.58-.2l-.44-.09c0-.08,0-.16,0-.23a.48.48,0,0,0-.47-.48A8.82,8.82,0,0,1,10.83,9a.46.46,0,0,0-.55.6,10,10,0,0,0-.78.83c-.23.24-.47.48-.68.74s-.32.6-.4.65h0l-.11.05c-.5.27-.13,1,.37.87l.07,0a.4.4,0,0,0,.32.12,10.68,10.68,0,0,1,2,0,.46.46,0,0,0,.39-.69,2.17,2.17,0,0,1,.54-.73,1.6,1.6,0,0,1,1-.46,7.2,7.2,0,0,1,1.47.17,5.88,5.88,0,0,1,1.43.42A.48.48,0,0,0,16.35,10.71Z"/></g><g id="Layer_1-2" data-name="Layer 1"><line class="cls-3" x1="0.64" y1="8.96" x2="0.69" y2="7"/><line class="cls-3" x1="7.82" y1="10.76" x2="8.58" y2="8.87"/><path class="cls-3" d="M8.65,8.17c-.05.24-1.82,0-3.94-.5S.92,6.55,1,6.31,3,5.51,5.13,6,8.71,7.93,8.65,8.17Z"/><path class="cls-3" d="M1.08,6.22a.6.6,0,0,0-.29,0,.61.61,0,0,0-.31,0c-.17,0-.28.14-.24.22h0c-.06.06,0,.22.2.34A.62.62,0,0,0,.72,7,.68.68,0,0,0,1,7.18a.84.84,0,0,0,.31.07.9.9,0,0,0,.28.17.69.69,0,0,0,.32.06.71.71,0,0,0,.29.16.71.71,0,0,0,.34,0,.76.76,0,0,0,.3.16.7.7,0,0,0,.34,0A.64.64,0,0,0,3.49,8a.75.75,0,0,0,.32,0,.84.84,0,0,0,.3.13l.19,0"/><path class="cls-3" d="M8.61,8a.55.55,0,0,1,.23.17.54.54,0,0,1,.28.13c.14.11.19.24.12.3h0a0,0,0,0,1,0,0c0,.08-.11.18-.33.21a.89.89,0,0,1-.33,0,.63.63,0,0,1-.35.06.88.88,0,0,1-.31-.08.8.8,0,0,1-.63-.07.71.71,0,0,1-.33,0,.6.6,0,0,1-.32-.12.75.75,0,0,1-.34,0A.88.88,0,0,1,6,8.55a.84.84,0,0,1-.35,0,.65.65,0,0,1-.29-.12A.77.77,0,0,1,5,8.4a.85.85,0,0,1-.17-.06"/><path class="cls-3" d="M4.3,8.21a.84.84,0,0,0,.25.11,1,1,0,0,0,.29,0"/><path class="cls-3" d="M4.35,10.89a1.26,1.26,0,0,1,.83,0c1.11.39,1,1.26,1,1.26l.12.56"/><path class="cls-3" d="M3.36,10.42l1,.47"/><path class="cls-3" d="M4.14,11.75s-.92-.54-1.32-.76"/><path class="cls-3" d="M3.36,10.42c-.32-.16-1-.35-1.16-.1s.22.45.22.45l.4.22"/><path class="cls-3" d="M3.38,10.43h0"/><path class="cls-3" d="M2.42,11.21l-.86-.27s-.4-.11-.24-.38c.05-.11.19-.15.35-.15"/><path class="cls-3" d="M4.14,11.75l-1.72-.54"/><path class="cls-3" d="M2.52,11.61l-.85-.27s-.4-.11-.25-.38"/><path class="cls-3" d="M2.52,11.61l2.31.75-.08.36"/><path class="cls-3" d="M1,9.1l.54.13L8.84,11a1.59,1.59,0,0,1-1.38.33"/><line class="cls-3" x1="0.25" y1="8.93" x2="1.46" y2="9.22"/><path class="cls-3" d="M6.1,11.46a1.94,1.94,0,0,0,1.33-.12l-2.74-.67-4-1A2.19,2.19,0,0,1,.3,9.55"/><path class="cls-3" d="M6,11.43l.13,0"/><path class="cls-3" d="M.74,9.73A2.06,2.06,0,0,0,2,10.47l.14,0"/><path class="cls-4" d="M16.05,5.43A1.31,1.31,0,0,0,16,4.32c0-.11-.1-.21-.15-.32a1.94,1.94,0,0,0-.34-.71v0a.4.4,0,0,0-.29-.37.72.72,0,0,0-.29,0l-.17,0a.54.54,0,0,0-.28,0L14,2.69a3.19,3.19,0,0,0-.6-.12,1.1,1.1,0,0,1-.48-.07.34.34,0,0,0-.43,0c-.23-.07-.45-.16-.67-.24a.44.44,0,0,0-.16-.06.37.37,0,0,0-.41.16l-.12-.14c-.16-.22-.55-.1-.46.2a2.58,2.58,0,0,0,.71,1,4.45,4.45,0,0,0,1.12.81c.43.23.87.45,1.31.65a4.75,4.75,0,0,0,.63.23c0,.12,0,.24-.07.36a1.87,1.87,0,0,1-.15.32A.54.54,0,0,0,14,6a1.14,1.14,0,0,0-.2.23.38.38,0,0,0-.43.17,2.18,2.18,0,0,0-.19.91,1.64,1.64,0,0,0,.07.93A1.73,1.73,0,0,0,13.8,9c.32.19.7-.08.93-.29A4.39,4.39,0,0,0,15.64,7,4.26,4.26,0,0,0,16.05,5.43Z"/><path class="cls-1" d="M13.42,8.78a1.8,1.8,0,0,1-.32-1.13,3.67,3.67,0,0,1,.18-1.54h0A.8.8,0,0,0,14,5.82h0a.45.45,0,0,0,.29-.21A.4.4,0,0,0,14.07,5h-.15l0,0a.94.94,0,0,0-.23-.1.82.82,0,0,0-.27,0h-.05a20.5,20.5,0,0,0-1.8-1.09l-.37-.41a2.79,2.79,0,0,1-.45-.63c-.13-.27-.25-.58-.6-.57s-.52.4-.65.66a4.86,4.86,0,0,0-.33.9,1.46,1.46,0,0,0-.07.4A.23.23,0,0,1,9,4.06a1.09,1.09,0,0,0-.17-.13.51.51,0,0,0-.21-.1.78.78,0,0,0-.22,0,1.43,1.43,0,0,0-.16,0l-.12.06h0A.61.61,0,0,0,8,4a.6.6,0,0,0-.09.13l-.05.09s0,.09,0,.13a.77.77,0,0,0,0,.34.29.29,0,0,0,0,.09A.91.91,0,0,0,7.87,5a.61.61,0,0,0,.1.14l0,0,.13.1.1,0,.1,0a.81.81,0,0,0,.41,0,.42.42,0,0,0,.16,0H9c0,.2-.08.4-.13.6s-.19.49.08.55c0,0,.37.13.39.16a.35.35,0,0,0,0,.17.79.79,0,0,0,.18.31,5.52,5.52,0,0,1,.4.66c.07.14.14.28.2.43a4.84,4.84,0,0,0,.18.49c.22.39.7.37,1.09.43l1.18.17A.57.57,0,0,0,13,9.14l.08,0A.26.26,0,0,0,13.42,8.78Z"/><path class="cls-5" d="M11.07,3.85A.35.35,0,0,0,11,3.71a.61.61,0,0,0-.22-.23l-.06,0-.17-.06h-.07l-.17,0a.67.67,0,0,0-.5.21.57.57,0,0,0-.1.13s0,0,0,0a.61.61,0,0,0,0,.12v0a.59.59,0,0,0,0,.13s0,.09,0,.13,0,0,0,0a.4.4,0,0,0,.48.26l.15-.08,0,0a.38.38,0,0,0,.28.11.46.46,0,0,0,.23-.06l0,0,.1-.07a.53.53,0,0,0,.13-.27A.49.49,0,0,0,11.07,3.85Z"/><path class="cls-3" d="M12.91,5.89a.47.47,0,0,0,.34.32.81.81,0,0,0,.87-.34l0,0a1.93,1.93,0,0,0,.2-.43c0-.05,0-.1.05-.15"/><path class="cls-3" d="M9,4a5.69,5.69,0,0,1,.25-.84,3.07,3.07,0,0,1,2.94-2,4,4,0,0,1,.7.05"/><path class="cls-3" d="M10.43,9C10.32,8,9.3,7.16,9.13,6.52"/><path class="cls-3" d="M9,4a.77.77,0,0,0-.51-.22A.8.8,0,1,0,8.9,5.24,2.32,2.32,0,0,1,8.75,6s-.14.29,0,.41,1.44.17,1.76-.37"/><path class="cls-3" d="M10.7,6.34a.83.83,0,0,1-.18-.43.7.7,0,0,1,0-.29"/><path class="cls-3" d="M13.68,5a1.71,1.71,0,0,0-.22.25.71.71,0,0,0-.08.15"/><path class="cls-3" d="M14,5.14a.32.32,0,0,1-.14,0A.45.45,0,0,1,13.74,5"/><path class="cls-3" d="M14,9.64a8.64,8.64,0,0,1-1.55.08,10.9,10.9,0,0,1-2-.28A.22.22,0,0,1,10.55,9,12.53,12.53,0,0,0,13,9.27"/><path class="cls-3" d="M9.16,5a.69.69,0,0,1-.27.29"/><path class="cls-3" d="M10.32,4.8h-.08A.74.74,0,0,1,9.54,4a.75.75,0,0,1,.78-.71l.23,0a.73.73,0,0,1,.4.37A.87.87,0,0,1,11,4.1a.94.94,0,0,1-.06.24"/><path class="cls-3" d="M11,4.34a.68.68,0,0,1-.18.26"/><line class="cls-3" x1="10.86" y1="4.53" x2="9.64" y2="4.4"/><path class="cls-6" d="M10,4.08A.3.3,0,0,0,10,4L9.88,4l-.09,0H9.73a.14.14,0,0,0-.1.05l0,0a.25.25,0,0,0,0,.12h0a.11.11,0,0,0,0,.08.12.12,0,0,0,0,.08.18.18,0,0,0,.07,0,.15.15,0,0,0,.09,0h.06l.1,0,0,0a.36.36,0,0,0,0-.11h0A.29.29,0,0,0,10,4.08Z"/><path class="cls-7" d="M9.92,2.09a2.76,2.76,0,0,1,5.38.78L7.66,1.77"/><path class="cls-3" d="M10.48,2.17s.57,2.25,4.22,3.08"/><path class="cls-3" d="M13.37,6.3s-.76,2,.43,2.78S17.31,5,15.3,2.87"/></g></g></svg>