<svg xmlns="http://www.w3.org/2000/svg" viewBox="0 0 16.45 34.07"><defs><style>.cls-1{fill:#f47951;}.cls-2{fill:#0077bf;}.cls-3{fill:#f9b730;}.cls-10,.cls-4,.cls-5{fill:none;}.cls-4{stroke:#1c1d4c;}.cls-10,.cls-4,.cls-5,.cls-9{stroke-linecap:round;stroke-linejoin:round;stroke-width:0.4px;}.cls-5,.cls-9{stroke:#1c204d;}.cls-6,.cls-9{fill:#fff;}.cls-7{fill:#121617;}.cls-8{fill:#1d1c4c;}.cls-10{stroke:#fff;}.cls-11{fill:#1c204d;}</style></defs><g id="Layer_2" data-name="Layer 2"><g id="Layer_1-2" data-name="Layer 1"><path class="cls-1" d="M16.15,15.86a6.38,6.38,0,0,0-.78-1.7.5.5,0,0,0-.78-.1,8,8,0,0,1-.84.6.58.58,0,0,0-.22.31.62.62,0,0,0-.2,0,5.53,5.53,0,0,0-1.11.36c-.39.13-.77.25-1.15.39a14,14,0,0,0-2.05,1l-.09,0-.16,0a.91.91,0,0,0-.66-.27h0l-.23-.11a3.23,3.23,0,0,1-.94-.65.48.48,0,0,0-.59-.06v-.19A.5.5,0,0,0,6,14.88a.48.48,0,0,0-.56.23,1.4,1.4,0,0,0-.11.4l-.16-.3A.5.5,0,0,0,4.56,15a2,2,0,0,0-.84.42.49.49,0,0,0-.07.6v0a.49.49,0,0,0-.16.5l.07.24a.49.49,0,0,0,.24.3,2.32,2.32,0,0,0,.66,1.31,1,1,0,0,0,.75.24,1.44,1.44,0,0,0,.76-.2.51.51,0,0,0,.19-.28c0,.45.1.89.19,1.34s.55.43.81.24a.81.81,0,0,0,.57,0l.55-.19a9.8,9.8,0,0,0,1.71,0,5.56,5.56,0,0,1,2.66,0,.41.41,0,0,0,.31,0,.49.49,0,0,0,.13.45,1.16,1.16,0,0,1,.32.49.5.5,0,0,0,.91.11l.08-.11c.41,0,.65-.62.83-1A9.33,9.33,0,0,0,16,17.67,4.12,4.12,0,0,0,16.15,15.86Z"/><path class="cls-2" d="M14.76,13.44c-.32-.39-.64-.78-1-1.14a13.65,13.65,0,0,0-1.16-1,.64.64,0,0,0-.29-.13l-.05-.06a12.46,12.46,0,0,0,1.12-2.29,6.33,6.33,0,0,0,.46-1.69,4.16,4.16,0,0,0-.1-1c0-.12-.05-.24-.07-.36a1.06,1.06,0,0,0-.53-1.16.92.92,0,0,0-.4-.11l-.13,0c-.57,0-1.14.06-1.7.06a15.31,15.31,0,0,1-1.79-.07C8.57,4.42,8,4.3,7.47,4.21s-.81.29-.91.78C6.09,7.27,7.06,9.5,8,11.51l0,.05a2.07,2.07,0,0,0-1.22.61,6.09,6.09,0,0,0-1.08,1.75.41.41,0,0,0,0,.08l0,.07-.05.12v.13a.31.31,0,0,0,0,.19.2.2,0,0,0,.06.11.38.38,0,0,0,.09.09.19.19,0,0,0,.11.07s.07,0,.11,0a.83.83,0,0,0,.22.2.57.57,0,0,0,0,.14.51.51,0,0,0,.28.22s0,.05.08.07a10.33,10.33,0,0,0,1.4.63c.41.18.78.43,1.22.25a.44.44,0,0,0,.46.12l3.63-1.51h0l.12-.05a.43.43,0,0,0,.18-.64.42.42,0,0,0,.15,0,.57.57,0,0,0,.29-.08h0a.5.5,0,0,0,.63,0A.51.51,0,0,0,14.76,13.44Z"/><path class="cls-2" d="M14,29.47q-.08-3.15-.29-6.27a1.24,1.24,0,0,0-.15-.47c0-.42,0-.84-.08-1.26-.07-.64-.26-1.6-1-1.74a5.87,5.87,0,0,0-1.11,0,5.55,5.55,0,0,0-1.47,0l-.09,0a22.44,22.44,0,0,1-2.32,0,.5.5,0,0,0-.43.75c0,.08.08.17.12.25a1.23,1.23,0,0,0,0,.47c.57,3.19,1.52,6.31,1.83,9.54a1,1,0,0,0,.73,1,10.36,10.36,0,0,0,3.09.18A1.27,1.27,0,0,0,14,31.05,6,6,0,0,0,14,29.47Z"/><path class="cls-3" d="M4.11,13a2.45,2.45,0,0,0-.32-.57.68.68,0,0,0-.71-.22.66.66,0,0,0-.38.29.56.56,0,0,0-.08.27,1.26,1.26,0,0,0-.33-.16,2.1,2.1,0,0,0-.9,0,1.88,1.88,0,0,0-.7.24.7.7,0,0,0-.25.95.75.75,0,0,0,.32.29l.21.09H1l.05,0H1l0,0,0,.05v0l.09.15s0,0,0,.05v0a.52.52,0,0,0,.74.3l0,0H2l.14,0,.27-.07h.19A2.6,2.6,0,0,0,3,14.58a1.81,1.81,0,0,0,1-.78A.79.79,0,0,0,4.11,13Z"/><path class="cls-1" d="M11.54,32.49a2.3,2.3,0,0,1-.27-.65h0l-.72,0a1.5,1.5,0,0,1-.91-.21h0a13.29,13.29,0,0,0-1.38.24,8.6,8.6,0,0,0-1.28.4,2,2,0,0,0-1.1.74.7.7,0,0,0,0,.76.81.81,0,0,0,.68.25A10,10,0,0,0,8,34c.95-.08,1.9-.09,2.85-.08h.05a.53.53,0,0,0,.83-.56A8.21,8.21,0,0,0,11.54,32.49Z"/><path class="cls-4" d="M11.32,31.87c0,.1.41,1,.45,1.12s.21.49-.2.49l-1.31,0h-4c-.22,0-.53,0-.53-.23s.58-.64.58-.64a4.78,4.78,0,0,1,3.28-.86l1.2.05"/><path class="cls-5" d="M5.91,33.5s-.19,0-.09.37h6a.29.29,0,0,0-.15-.4"/><path class="cls-1" d="M14.06,32.49a2.3,2.3,0,0,1-.27-.65.53.53,0,0,0,0-.17h0a2.92,2.92,0,0,0-.59,0c-.46,0-.91.11-1.37.14l-.8,0-.23,0a8.6,8.6,0,0,0-1.28.4,2,2,0,0,0-1.1.74.7.7,0,0,0,0,.76.81.81,0,0,0,.68.25A10.06,10.06,0,0,0,10.51,34c1-.08,1.9-.09,2.85-.08h.05a.53.53,0,0,0,.83-.56A8.21,8.21,0,0,0,14.06,32.49Z"/><path class="cls-6" d="M13.75,31.67a2.92,2.92,0,0,0-.59,0h0a2.89,2.89,0,0,1-1.18.43,2,2,0,0,0-1.46,1.25.22.22,0,0,0,0,.08,3.43,3.43,0,0,0,.54.06,1.43,1.43,0,0,1,1-.84,3.45,3.45,0,0,0,1.86-.87.54.54,0,0,0-.05-.11Z"/><path class="cls-4" d="M13.8,31.77c0,.1.45,1.1.49,1.22s.2.49-.2.49l-1.31,0h-4c-.22,0-.53,0-.53-.23s.58-.64.58-.64a4.78,4.78,0,0,1,3.28-.86"/><path class="cls-5" d="M8.43,33.5s-.19,0-.09.37h6a.29.29,0,0,0-.15-.4"/><path class="cls-3" d="M12.59,19.91a.05.05,0,0,1,0,0l0,0h.06l.05,0h0A.21.21,0,0,1,13,20l0,.07c.12.14.23.29.34.44h0a.21.21,0,0,1,.1.17l0,0h0a.1.1,0,0,1,0,.13,1.76,1.76,0,0,1-.46.52c-.1.07-.19,0-.23-.09a2.17,2.17,0,0,1-.12-.36,4.89,4.89,0,0,1-.16-.76v-.06h0a.08.08,0,0,1,0-.05V20S12.59,19.92,12.59,19.91Z"/><path class="cls-5" d="M13.32,21.79a2.37,2.37,0,0,1-.76-2"/><path class="cls-5" d="M13.67,20.87l-.65.59"/><path class="cls-5" d="M14.1,16.28a.93.93,0,0,1,.52,0"/><line class="cls-5" x1="12.67" y1="19.8" x2="13.05" y2="19.29"/><path class="cls-5" d="M13.51,21.05c.15.12.26.18.3.14s-.1-.43-.42-.82-.64-.64-.72-.57"/><path class="cls-5" d="M14.34,20.52c.08-.08-.15-.42-.51-.77s-.7-.57-.78-.49"/><path class="cls-5" d="M13.81,21.19l.53-.67s.23.17.77-.48a13.27,13.27,0,0,0,1.11-3.28,1.52,1.52,0,0,0-.13-1,10.22,10.22,0,0,0-3.6-4.59"/><path class="cls-5" d="M13.05,19.26a.56.56,0,0,1,.06-.47c.15-.21,1-2.51,1-2.51"/><path class="cls-7" d="M13.58,21a.08.08,0,0,1,0,0l0,0,0,0h.07l0,0v0l0,0v0a.05.05,0,0,1,0,0l0,0h0s0,0-.05,0h0s0,0,0,0v0l0,0Z"/><line class="cls-5" x1="9.38" y1="31.72" x2="6.84" y2="19.87"/><path class="cls-5" d="M12,31.76c.21,0,1.16,0,1.67,0a.56.56,0,0,0,.32-.55l-.42-10.15"/><line class="cls-5" x1="11.47" y1="31.69" x2="9.45" y2="21.84"/><path class="cls-3" d="M12.84,3.1a6.83,6.83,0,0,1,.07,1.11v.06h0v0a1,1,0,0,1,.13.16h0a3,3,0,0,1-.64-.07,5.12,5.12,0,0,0-.87.08c-.57,0-1.15,0-1.73,0s-1.23,0-1.85,0a7.49,7.49,0,0,0-1,0l-.23,0a6.33,6.33,0,0,1,.86-3.21,1.88,1.88,0,0,1,.6-.68,3,3,0,0,1,1-.33,2.76,2.76,0,0,1,1-.06,4.19,4.19,0,0,1,1,.33l.05,0a.3.3,0,0,1,.22.05,3.17,3.17,0,0,1,1.13,1.52,5.14,5.14,0,0,1,.16.78A.24.24,0,0,1,12.84,3.1Z"/><path class="cls-8" d="M6.89,7.57a4,4,0,0,1,.17-2,1.83,1.83,0,0,1,.52-.81,2.21,2.21,0,0,1,.63-.41.23.23,0,0,0,.2,0l.32,0a1.22,1.22,0,0,0,.71,0,7.48,7.48,0,0,1,1,0,2.78,2.78,0,0,0,.32.26,1.93,1.93,0,0,1,.4.45,3.9,3.9,0,0,1,.54,1.08,3.61,3.61,0,0,1-.14,2.25,6.62,6.62,0,0,1-.48,1,9.11,9.11,0,0,1-.65,1,4.72,4.72,0,0,1-.85.76,5.25,5.25,0,0,1-.49.33,5,5,0,0,0-.43-.35.16.16,0,0,0,0-.07,11.37,11.37,0,0,1-.89-1.29.3.3,0,0,0-.18-.14A6.87,6.87,0,0,1,6.89,7.57Z"/><path class="cls-5" d="M12.94,4.38S13.09.07,9.61.2c-3,.12-2.82,4.28-2.82,4.28"/><path class="cls-5" d="M8.26,4.47c-.7.29-1.57,1-1.38,2.82A5.91,5.91,0,0,0,9.1,11.44a5.84,5.84,0,0,0,2.62-4.55,2.64,2.64,0,0,0-1.51-2.46"/><path class="cls-5" d="M12.94,4.38A3.46,3.46,0,0,1,13.74,7a11.25,11.25,0,0,1-1.25,4.21,4.38,4.38,0,0,1-.91.26"/><path class="cls-5" d="M7.9,11.35c-.69-1.08-2.34-4.13-1.11-6.87"/><circle class="cls-9" cx="8.22" cy="6.57" r="0.96"/><circle class="cls-9" cx="9.99" cy="6.57" r="0.96"/><path class="cls-8" d="M9.93,6.25a.33.33,0,0,1,.13.64A.33.33,0,0,1,9.93,6.25Z"/><path class="cls-8" d="M8.08,6.25a.33.33,0,0,1,.13.64A.33.33,0,0,1,8.08,6.25Z"/><path class="cls-10" d="M8.36,8A.64.64,0,0,0,9,8.47.8.8,0,0,0,9.74,8"/><path class="cls-5" d="M9.12,16.65s-1.81-.79-2.87-1.31"/><path class="cls-5" d="M9.1,16.6c.13,0,4.65-1.79,4.65-1.79"/><path class="cls-5" d="M6.85,20.39c-1.29-1.08-.72-5.81-.35-6.81"/><path class="cls-5" d="M9,11.46c0,2.18,0,5.94.15,7.93"/><line class="cls-5" x1="5.67" y1="4.43" x2="12.95" y2="4.33"/><path class="cls-5" d="M6.61,19.94s1.3-.53,6.14-.38"/><line class="cls-5" x1="4.78" y1="14.67" x2="5.12" y2="15.21"/><path class="cls-5" d="M3.31,15c-.16.1-.25.18-.23.24s.44.05.92-.12.82-.37.78-.47"/><path class="cls-5" d="M3.31,15.38l.21.61c0,.09.45,0,.9-.21s.75-.48.7-.57.26.55.48,1"/><path class="cls-7" d="M3.31,15.09l0,0,0,0v0a.08.08,0,0,1,0,.05v0l-.05,0H3.19l0,0,0,0v0s0,0,0,0v0l.05,0h.09Z"/><path class="cls-5" d="M8.43,21.7a12.28,12.28,0,0,0,1.9,0"/><path class="cls-5" d="M13.54,13.85A20.22,20.22,0,0,1,14,16.29"/><path class="cls-5" d="M1.56,14.74a2,2,0,0,0,.74-.1c1-.29,1-.74.93-.85s-.43-.11-.6-.06l-1,.31s-.6.14-.48.65c0,0,.11.47.81.51"/><path class="cls-5" d="M2.11,13.09s.33-.25.28-.5-.39-.18-.53-.16l-1,.21s-.67.1-.64.54c0,.25.34.47.55.56"/><path class="cls-5" d="M.77,13.46s.35,0,.49-.05"/><path class="cls-5" d="M2.43,13.8s.47-.29.41-.64c0,0,0-.29-.46-.16s-1.23.46-1.23.46S.56,13.7.71,14c.05.12.2.24.49.36"/><path class="cls-5" d="M3.15,12a1.5,1.5,0,0,1,1.12,1.56l.52,1.22"/><path class="cls-5" d="M1.84,14.78l.45.89a.25.25,0,0,0,.34.11l1.69-.85a.24.24,0,0,0,.11-.34L2.37,10.52A.24.24,0,0,0,2,10.41l-1.69.85a.26.26,0,0,0-.11.34l.51,1"/><path class="cls-5" d="M3.51,15.34s.08.29.18.66"/><path class="cls-11" d="M.3,11.58a.28.28,0,0,1,.09-.31,4.18,4.18,0,0,1,1.2-.53.66.66,0,0,0,.22-.12c.13-.09.23-.19.4-.14s.22.21.28.35a3.09,3.09,0,0,1,.14.32.23.23,0,0,1,.07.07,3.39,3.39,0,0,1,.23.47.32.32,0,0,1,0,.17l.07.08a.34.34,0,0,1,.19.2,1.89,1.89,0,0,0,.11.25.36.36,0,0,1,0,.27l.05,0,.09.14,0,0a.81.81,0,0,1,.1.18.23.23,0,0,1,0,.14l.05.06a.48.48,0,0,1,.09.19l.08.13a.08.08,0,0,1,0,0,.46.46,0,0,1,.08.3.42.42,0,0,1,.14.26h0a.23.23,0,0,1,.07.1,1.58,1.58,0,0,0,.15.24.27.27,0,0,1-.18.43h0A.23.23,0,0,1,4,15.1l-.13.06,0,0a.26.26,0,0,1-.25.1l-.09,0a.27.27,0,0,1-.22.15H3.12a.08.08,0,0,0-.07,0s-.1.11-.15.16a.64.64,0,0,1-.22.14.22.22,0,0,1-.27-.07.77.77,0,0,1-.12-.24A2.51,2.51,0,0,0,2,15a.13.13,0,0,1,0-.19.42.42,0,0,1,.29-.06l.09,0a.37.37,0,0,1,.13-.2.78.78,0,0,1,.28-.16L3,14.31l.16-.13L3.33,14a.14.14,0,0,0,0-.06v0s0,0,0,0h0v0l-.06-.13a.15.15,0,0,0,0-.07.23.23,0,0,1-.21,0,.26.26,0,0,1-.11-.33v0h0v0h0v0a.17.17,0,0,0,0-.07h0l0,0L2.82,13h0l0,0,0,0H2.7a.12.12,0,0,1-.1,0,.14.14,0,0,1-.11,0,.23.23,0,0,1,0-.24.26.26,0,0,1-.07-.11.89.89,0,0,1-.08-.17h0a1.8,1.8,0,0,1-.65.1H1.29a1,1,0,0,0-.32.06.29.29,0,0,1-.35-.15A5.68,5.68,0,0,1,.3,11.58Z"/><path class="cls-5" d="M5.36,15.57s.42-3.5,2.47-4.13"/><line class="cls-5" x1="7.9" y1="11.44" x2="8.26" y2="11.51"/><path class="cls-5" d="M3.51,15.94s-.21.2,0,.8c.37,1.23,1,2.55,2.63,1.65"/><line class="cls-5" x1="6.22" y1="14.94" x2="5.67" y2="14.67"/><line class="cls-5" x1="13.75" y1="14.51" x2="15.12" y2="13.91"/><path class="cls-5" d="M9.45,3.36c-.69,0-1.23-.1-1.28-.22L8,2.42"/><path class="cls-5" d="M9.45,3.36a2.32,2.32,0,0,0,1.3-.22l.16-.76"/><path class="cls-5" d="M10.93,2.07c0,.13-.66.24-1.48.24S8,2.2,8,2.07A1.86,1.86,0,0,1,9.45,1.4,1.83,1.83,0,0,1,10.93,2.07Z"/><path class="cls-5" d="M8.07,1.92H8a.17.17,0,0,0-.1.06.13.13,0,0,0-.11,0c-.06,0-.09.1-.07.13h0s0,.1.11.15l.12,0A.2.2,0,0,0,8,2.4a.24.24,0,0,0,.12,0,.23.23,0,0,0,.12.06H8.4a.21.21,0,0,0,.12,0,.18.18,0,0,0,.13,0,.21.21,0,0,0,.12,0,.17.17,0,0,0,.13,0,.25.25,0,0,0,.13,0,.21.21,0,0,0,.12,0,.21.21,0,0,0,.12,0h.07"/><path class="cls-5" d="M10.82,1.92h.09A.17.17,0,0,1,11,2a.13.13,0,0,1,.11,0c.06,0,.09.1.07.13h0s0,.1-.11.15a.3.3,0,0,1-.12,0,.2.2,0,0,1-.12.07.24.24,0,0,1-.12,0,.23.23,0,0,1-.12.06h-.12a.21.21,0,0,1-.12,0,.18.18,0,0,1-.13,0,.21.21,0,0,1-.12,0,.17.17,0,0,1-.13,0,.25.25,0,0,1-.13,0,.21.21,0,0,1-.12,0,.21.21,0,0,1-.12,0H9.55"/><path class="cls-5" d="M9.34,2.52a.18.18,0,0,0,.11,0,.15.15,0,0,0,.1,0"/></g></g></svg>