<svg xmlns="http://www.w3.org/2000/svg" viewBox="0 0 20.51 7.19"><defs><style>.cls-1{fill:#007033;stroke:#1c204d;stroke-linecap:round;stroke-linejoin:round;stroke-width:0.4px;}</style></defs><g id="Layer_2" data-name="Layer 2"><g id="Layer_1-2" data-name="Layer 1"><path class="cls-1" d="M20.31,7a1.64,1.64,0,0,0-1.25-1.41A2.13,2.13,0,0,0,17,3.76a2.5,2.5,0,0,0-.54.07A1.78,1.78,0,0,0,14.64,2.2a1.84,1.84,0,0,0-.41,0,2.8,2.8,0,0,0-5.48.42,2.53,2.53,0,0,0-1-.19A2.46,2.46,0,0,0,5.33,4.94a1.09,1.09,0,0,0,0,.18L5.21,5a2.26,2.26,0,0,0-3.71.79A1.57,1.57,0,0,0,.2,7Z"/></g></g></svg>