<svg xmlns="http://www.w3.org/2000/svg" viewBox="0 0 17.77 19.83"><defs><style>.cls-1{fill:#af6e30;}.cls-2{fill:#1d1c4c;}.cls-3{fill:#fff;}.cls-4{fill:#ea4827;}.cls-5{fill:#0077bf;}.cls-6{fill:#f47951;}.cls-7{fill:#f9b730;}.cls-8{fill:none;stroke:#1c204d;stroke-linecap:round;stroke-linejoin:round;stroke-width:0.4px;}</style></defs><g id="Layer_2" data-name="Layer 2"><g id="Layer_1-2" data-name="Layer 1"><path class="cls-1" d="M6.37,5.7a3.1,3.1,0,0,1,.29-1.47c.22-.46.49-1,1.1-.91.24.05.45.18.69.22a4.65,4.65,0,0,0,.75.08,7,7,0,0,1,1.51.12.54.54,0,0,1,.44.6.59.59,0,0,0,0,.23c0,.13.07.27.1.41a4.41,4.41,0,0,1,.09.73.57.57,0,0,1,0,.26.63.63,0,0,1,0,.22c-.21.46-.44.9-.69,1.33a3.82,3.82,0,0,1-.89,1.17l-.17.11c-.16.11-.29.32-.49.35L9,9.18a3.52,3.52,0,0,1-.41.07,2.07,2.07,0,0,1-.89-.13,1.17,1.17,0,0,1-.55-.55,4.25,4.25,0,0,1-.58-1.45A8.45,8.45,0,0,1,6.37,5.7Z"/><path class="cls-2" d="M17.07,14.18Q17,13.49,17,12.8c0-.17.25-.2.26,0,0,.51.08,1,.14,1.53,0,.17-.23.19-.27,0v-.09A.06.06,0,0,1,17.07,14.18Z"/><path class="cls-3" d="M9.12,5.06a.44.44,0,0,1,.09-.18.48.48,0,0,1,.16-.12.38.38,0,0,1,.21,0h.08a2.22,2.22,0,0,0,.37,0h.11a.35.35,0,0,1,.14.06.16.16,0,0,1,.08.06.38.38,0,0,1,.09.13.5.5,0,0,1,0,.21.36.36,0,0,1-.13.23l0,0,0,0a.2.2,0,0,1,0,.11.43.43,0,0,1-.16.19.27.27,0,0,1-.12.06.28.28,0,0,1-.13,0,.44.44,0,0,1-.25,0,.87.87,0,0,1-.21-.17.83.83,0,0,1-.14-.22.56.56,0,0,1-.07-.18A.36.36,0,0,1,9.12,5.06Z"/><path class="cls-3" d="M6.94,4.79V4.73h0l0-.1H7l0-.09s0,0,0,0l0-.05.11,0,.11,0H7.7a.37.37,0,0,1,.18.08.29.29,0,0,1,.1.12.33.33,0,0,1,0,.15.45.45,0,0,1,0,.2c-.06.12-.11.23-.16.35a.27.27,0,0,1-.09.12.27.27,0,0,1-.12.09.3.3,0,0,1-.16,0,.4.4,0,0,1-.15,0l-.09-.06a.4.4,0,0,1-.12-.16l0-.1a0,0,0,0,1,0,0A.34.34,0,0,1,7,5.07H7L7,5a.42.42,0,0,1,0-.06C6.93,4.85,6.94,4.86,6.94,4.79Z"/><path class="cls-4" d="M7.59,7a.37.37,0,0,1,.21-.2.43.43,0,0,1,.25,0l0,0,.11,0h0a.45.45,0,0,1,.3-.07.39.39,0,0,1,.23.13.45.45,0,0,1,.28,0,.43.43,0,0,1,.2.22.42.42,0,0,1,0,.31l-.06.09A.48.48,0,0,1,9,7.59a.84.84,0,0,1-.64,0l0,0h0a.55.55,0,0,1-.22.06.58.58,0,0,1-.26,0,.53.53,0,0,1-.15-.11.78.78,0,0,1-.1-.15A.37.37,0,0,1,7.59,7Z"/><path class="cls-5" d="M5.31,7.77c.13.07-.79,1.44-.67,1.45s-.09,1.06,0,1c.66-.35.63.82.74.94s.87,1.53.94,1.57,1.88,0,1.89.06a.93.93,0,0,0,.52.51,1,1,0,0,0,.34.06,2,2,0,0,0-.29,1.26.41.41,0,0,0,.44.36,4.39,4.39,0,0,0,1.6-.65l.21-.17.15,0a.42.42,0,0,0,.13-.07s0,0,0,0a1.13,1.13,0,0,0,.24-.29.54.54,0,0,1,.07-.13l0,0a.39.39,0,0,0,.08-.2c.09-.1.18-.19.26-.29a9.16,9.16,0,0,0,1.38-3.24.53.53,0,0,0,.15.08l.25.06.24.11.08.06a.33.33,0,0,0,.16.07.28.28,0,0,0,.18,0,.26.26,0,0,0,.11-.4c-.09-.12-.17-.24-.27-.35a.85.85,0,0,0-.16-.17A.53.53,0,0,0,14,9.21a2.2,2.2,0,0,0,.06-.72c0-.3,0-.6,0-.9,0-.64,0-1.28-.09-1.91a7.43,7.43,0,0,0-1-3.45A7.19,7.19,0,0,0,11.83.88,2.26,2.26,0,0,0,10.36.34,4.24,4.24,0,0,0,8.52.5,3.75,3.75,0,0,0,7.09,1.6.44.44,0,0,0,7,1.8a3.26,3.26,0,0,0-.42.59A4.56,4.56,0,0,0,6.1,3.51v.07L6,3.87a.16.16,0,0,0,0,.07.23.23,0,0,0-.11.11,2.18,2.18,0,0,0-.15.57s0,0,0,0a.37.37,0,0,0,0,.18c0,.14-.06.29-.08.44-.07.41-.12.83-.16,1.25a.27.27,0,0,0,0,.16,1.93,1.93,0,0,0-.26.74A.35.35,0,0,0,5.31,7.77Zm.92-2.08a1.37,1.37,0,0,0,0-.57A.38.38,0,0,0,6.36,5a6.44,6.44,0,0,0,.25-.66,7,7,0,0,1,.44-.81l.18-.27.15,0a13.79,13.79,0,0,1,1.7.17,4.94,4.94,0,0,0,1.7.25l.16-.05a7.45,7.45,0,0,1,.36.93,2.78,2.78,0,0,1-.05,1.25c-.08.46-.17.92-.25,1.38a.53.53,0,0,0-.25.22,4.85,4.85,0,0,1-.88,1.23,2.84,2.84,0,0,1-1.46.67h0l-.12,0a.35.35,0,0,0-.2,0,.53.53,0,0,0-.14-.12H7.86l-.07,0-.14-.08a.31.31,0,0,0-.13,0,.23.23,0,0,0-.07-.16L6.62,8V8c-.06-.51-.27-1-.35-1.5A3.88,3.88,0,0,1,6.23,5.69Z"/><path class="cls-6" d="M7.55,3l0,0h0A5.84,5.84,0,0,1,9.1,1.82h0l.11-.13a.27.27,0,0,1,.46.07,6.28,6.28,0,0,0,1.12,1.64.27.27,0,0,1,0,.35.26.26,0,0,1-.34,0l-.15-.1a.39.39,0,0,1-.46,0c.08,0,0,0-.05,0l-.09,0h0l-.12,0-.45-.1-.43,0h0a1.57,1.57,0,0,1-.53,0,.33.33,0,0,1-.2-.09l0,0C7.68,3.55,7.33,3.19,7.55,3Z"/><path class="cls-7" d="M9.21,15A1.34,1.34,0,0,1,9.9,15a4.9,4.9,0,0,0,1.24-.6,4,4,0,0,0,1-1.18,6.49,6.49,0,0,0,.62-1.4A3.55,3.55,0,0,0,13,11a1.49,1.49,0,0,1,.25-.74.1.1,0,0,1,0-.05.34.34,0,0,1,0-.1.23.23,0,0,1,.11-.17.27.27,0,0,1,.37.05l0,0h0l.06.05h0l0,0,.07,0c.16,0,.32.06.47.11a.58.58,0,0,1,.25.18,12.79,12.79,0,0,1,1.19,1.52,6,6,0,0,1,.16.8s-1.31-.23-1.31,0c0,.51-.44.44-.57.94a.55.55,0,0,1-.22.35l.1.06,0,0,.05,0a7.12,7.12,0,0,0,.67.36,5.72,5.72,0,0,0,.68.28l.32.11h0l.09,0,.19.06a.53.53,0,0,1,.4.74l-.09.24a.78.78,0,0,1-.1.15,2.11,2.11,0,0,1-.11.93,2,2,0,0,1-.59,1,1.6,1.6,0,0,1-1,.38,2.38,2.38,0,0,1-.38,0l.15.66a.39.39,0,0,1-.35.43,5.69,5.69,0,0,0-.83.08l-.4.07-.09,0h-.06l-.21,0a.39.39,0,0,1-.49-.18.4.4,0,0,1,0-.24.34.34,0,0,1,.07-.24c-.23-.61-.44-1.22-.69-1.81a3.86,3.86,0,0,0-.28-.54c-.62-.41-1.23-.83-1.84-1.25A.27.27,0,0,1,9.21,15Z"/><path class="cls-7" d="M5.88,11.87c-.13-.28-.26-.57-.38-.86a2.68,2.68,0,0,1-.17-.69l-.42-.1h0l0,0c-.15.13-.32.24-.48.36a1.29,1.29,0,0,0-.17.16l.06-.08a.46.46,0,0,1-.15.16.4.4,0,0,1-.17.09l0,.15a3.55,3.55,0,0,1-.19.78,7.73,7.73,0,0,1-.57,1.32l1-.13c.35,0,.71-.05,1.06-.05h.43a.85.85,0,0,0,0-.17c0-.13.38-.11.73-.07A4.11,4.11,0,0,1,5.88,11.87Z"/><path class="cls-7" d="M7,15.06,6.85,15l-.09,0h0l-.33-.11c-.23-.08-.46-.18-.68-.28s-.45-.23-.67-.36H5l-.66,0c-.8.06-1.59.24-2.4.27A4.93,4.93,0,0,1,.86,15a1.35,1.35,0,0,0-.69.05.28.28,0,0,0-.07.46L1.94,16.8a3,3,0,0,1,.28.54c.25.59.47,1.2.69,1.81a.4.4,0,0,0-.07.24.41.41,0,0,0,0,.24.4.4,0,0,0,.49.18l.21,0,.06,0h.09l.4-.08A7.53,7.53,0,0,1,5,19.58a.39.39,0,0,0,.35-.43l-.15-.66a2.41,2.41,0,0,0,.38,0,1.58,1.58,0,0,0,1-.37,2.12,2.12,0,0,0,.58-1,2.14,2.14,0,0,0,.11-.94.36.36,0,0,0,.1-.14l.09-.25A.54.54,0,0,0,7,15.06Z"/><path class="cls-8" d="M9.5,1.51S11.82,4,11.33,6.06,9.38,9.42,8.27,9.24l-.09,0C7.07,9,6.11,7.36,6.31,5.23S9.5,1.51,9.5,1.51"/><path class="cls-8" d="M10.3.22S6.21-.5,5.36,6.09L5,8.71s-.66.34-.52,1.86"/><path class="cls-8" d="M14.06,9.08c.18-1.56.33-8.34-3.76-8.86"/><path class="cls-8" d="M8.14,9.68a2.53,2.53,0,0,0,2.6-.14"/><path class="cls-8" d="M10.91,1.68a6.22,6.22,0,0,1,1.15,4.57,5.9,5.9,0,0,1-1,2.58"/><path class="cls-8" d="M9.19,10.53a2.62,2.62,0,0,1-1.76-.6"/><path class="cls-8" d="M8.09,1.28a4.56,4.56,0,0,0-1.44,1.8"/><line class="cls-8" x1="11.02" y1="3.82" x2="7.29" y2="3.24"/><polyline class="cls-8" points="8.45 3.42 7.36 6.27 8.21 5.87"/><path class="cls-8" d="M9.09,4.94c-.05.51.18.94.61,1s.73-.34.78-.84-.19-.94-.61-1S9.13,4.44,9.09,4.94Z"/><path class="cls-8" d="M8.18,4.05a.61.61,0,0,0-.48-.32c-.44,0-.74.34-.78.84s.18.94.6,1H7.6"/><path class="cls-8" d="M10.86,4.5s-.47.41-1.71.18"/><path class="cls-8" d="M8,4.46s-1,0-1.36-.66"/><path class="cls-8" d="M10.77,4.25a1.27,1.27,0,0,1-.58.45"/><path class="cls-8" d="M7,4.17A.74.74,0,0,1,7,3.54"/><path class="cls-8" d="M9.76,6.63a1.54,1.54,0,0,1-1.42.67"/><path class="cls-8" d="M8.34,6.75a.22.22,0,0,1,.32,0,.66.66,0,0,0,.24.12,1,1,0,0,0,.86-.23"/><path class="cls-8" d="M9.76,6.63A1.5,1.5,0,0,1,8.34,7.74"/><path class="cls-8" d="M7.15,6.61a1.26,1.26,0,0,0,1.19.69"/><path class="cls-8" d="M8.34,6.75c-.09-.11-.17-.09-.27,0a.5.5,0,0,1-.2.12.73.73,0,0,1-.72-.25"/><path class="cls-8" d="M7.15,6.61s.22,1.12,1.18,1.13"/><path class="cls-8" d="M13.52,9.61A3.29,3.29,0,0,0,13,10.85c-.13.59-.91,4.05-4.07,4.21"/><path class="cls-8" d="M14.73,10.63a2.39,2.39,0,0,0-.67-1.55"/><path class="cls-2" d="M9.4,4.61a.29.29,0,0,1,0,.58A.29.29,0,0,1,9.4,4.61Z"/><path class="cls-2" d="M7.25,4.27a.29.29,0,0,1,0,.57A.29.29,0,0,1,7.25,4.27Z"/><path class="cls-8" d="M17.34,13.18a1.33,1.33,0,0,0,.23-.19"/><path class="cls-8" d="M15.54,13.79a4,4,0,0,0,1.31-.33"/><path class="cls-8" d="M13.39,9.82a4.33,4.33,0,0,1,2.69,2.92"/><line class="cls-8" x1="14.48" y1="12.45" x2="13.95" y2="14.03"/><path class="cls-8" d="M16.32,16.52c-.05.48-.39,2.16-2.05,2"/><path class="cls-8" d="M16,13.78l.16,1.15"/><path class="cls-8" d="M14,13.79c-.1,0-.17,0-.18,0s.52.47,1.28.79,1.41.5,1.46.39-.1-.16-.31-.3"/><line class="cls-8" x1="16.52" y1="15" x2="16.31" y2="16.61"/><path class="cls-8" d="M14,17.74c.2.94.37,1.7.37,1.71"/><path class="cls-8" d="M13.72,16.31s.11.52.32,1.43"/><line class="cls-8" x1="13.78" y1="13.82" x2="13.43" y2="14.9"/></g></g></svg>