<svg xmlns="http://www.w3.org/2000/svg" viewBox="0 0 16.91 34.26"><defs><style>.cls-1{fill:#fff;}.cls-2,.cls-6{fill:#f9b730;}.cls-3{fill:#0077bf;}.cls-12,.cls-13,.cls-4,.cls-5{fill:none;}.cls-13,.cls-4{stroke:#fff;}.cls-4{stroke-miterlimit:10;}.cls-11,.cls-12,.cls-13,.cls-4,.cls-5,.cls-6{stroke-width:0.4px;}.cls-11,.cls-5,.cls-6{stroke:#1c204d;}.cls-11,.cls-12,.cls-13,.cls-5,.cls-6{stroke-linecap:round;stroke-linejoin:round;}.cls-11,.cls-7{fill:#f47951;}.cls-8{fill:#0d773c;}.cls-9{fill:#1d1c4c;}.cls-10{fill:#1c204d;}.cls-12{stroke:#1c1d4c;}</style></defs><g id="Layer_2" data-name="Layer 2"><g id="Layer_1-2" data-name="Layer 1"><path class="cls-1" d="M3.34,20a4.48,4.48,0,0,0,.73,1.18,2,2,0,0,0,1.42.42,12.43,12.43,0,0,0,3-.2.69.69,0,0,0,.35-.2.64.64,0,0,0,.24.05.9.9,0,0,0,.89-.88V20.3a1,1,0,0,0,0-.18c-.14-1.16-.27-2.33-.45-3.49-.1-.6-.23-1.2-.36-1.79a4.69,4.69,0,0,0-.58-1.76.9.9,0,0,0-1.53,0,1.1,1.1,0,0,1-1,.57,2.1,2.1,0,0,1-1.44-.24c-.56-.42-1.34.16-1.34.77v4.4A3.77,3.77,0,0,0,3.34,20Z"/><path class="cls-2" d="M.49,18.12A8.74,8.74,0,0,1,1,16.73c.44-1,1-1.86,1.45-2.78.25-.48.89-.13.81.34l-.24,1.37a.5.5,0,0,1,0,.12.38.38,0,0,1,.19.47,12.81,12.81,0,0,0-.37,1.48,2.71,2.71,0,0,1-.39,1.18c.1.11.2.23.29.35a7.84,7.84,0,0,1,.49.85,6.79,6.79,0,0,0,.54.85,1.87,1.87,0,0,1,.35,2.19A.45.45,0,0,1,3.33,23a1.52,1.52,0,0,1,0-.21,10.81,10.81,0,0,1-1.41-1.46c-.23-.29-.46-.59-.66-.89A3.41,3.41,0,0,1,.92,20a.93.93,0,0,1-.47-.4A2.13,2.13,0,0,1,.49,18.12Z"/><path class="cls-3" d="M3.86,23.46l.11,0a.58.58,0,0,0,.25-.32,2.15,2.15,0,0,0,.12-.56,2.08,2.08,0,0,0,0-.43,1.24,1.24,0,0,0-.18-.54L4,21.33a1.19,1.19,0,0,1-.09-.15h0v0a4.54,4.54,0,0,0,.61.24,7.27,7.27,0,0,0,3,.06c.51-.07,1-.18,1.5-.3A4.27,4.27,0,0,0,9.5,21l.1,0,.19.59a1.42,1.42,0,0,0,.05.16l-.12.06c0,.3,0,.6,0,.9.06.74.26,1.45.3,2.18v.06a.09.09,0,0,0,0,0c.09,1.94.29,5.29.52,7.22,0,.28-.46.08-.71.09s-.75,0-.91-.07-1.74.1-2.08.13a18.14,18.14,0,0,1-1.81-.13c-.41,0-.69-4.92-.68-5.37a.09.09,0,0,1,0-.05l0-.07C4.24,25.64,4.05,24.55,3.86,23.46Z"/><path class="cls-1" d="M7.51,33a1.19,1.19,0,0,0-.14-.53c-.25-.33-.58-.12-.9-.11s-1.58,0-1.72,0a3.12,3.12,0,0,0-1.35.33,2.31,2.31,0,0,0-1,.63.38.38,0,0,0,.17.63.5.5,0,0,0,.34,0h0A.39.39,0,0,0,3.1,34c.81,0,1.61,0,2.41,0a9,9,0,0,0,1.16,0c.34,0,.9-.06.92-.52A3.47,3.47,0,0,0,7.51,33Z"/><path class="cls-1" d="M13.43,33.43l-.12-.14a.43.43,0,0,0-.37-.39l-.18,0a2.52,2.52,0,0,0-.88-.32l-.22-.09a1.73,1.73,0,0,0-.71-.11.35.35,0,0,0-.18.05h0a2.06,2.06,0,0,0-.55,0,1.9,1.9,0,0,0-.25,0l-.09,0a.39.39,0,0,0-.16-.1,2,2,0,0,0-.42-.08c-.29,0-.63-.1-.79.21a.93.93,0,0,0-.07.41l0,.49c0,.29.06.57.37.62l.07,0a.78.78,0,0,0,.5,0,2.34,2.34,0,0,1,.53,0c.35,0,.7.08,1.05.09a20.93,20.93,0,0,1,2.24,0,.37.37,0,0,0,.35-.23A.4.4,0,0,0,13.43,33.43Z"/><line class="cls-4" x1="9.34" y1="21.29" x2="10.23" y2="32.21"/><line class="cls-4" x1="4.08" y1="23.56" x2="5.2" y2="32.3"/><path class="cls-5" d="M4.15,21.42a10,10,0,0,0,5.67-.33"/><path class="cls-5" d="M9.26,32.59a3.37,3.37,0,0,1,2.12-.19c1.44.22,2.14.68,2.23,1.3,0,0,.07.36-.28.36"/><path class="cls-5" d="M8.5,32.43,8.38,33.6s-.07.47.32.46h4.63"/><line class="cls-5" x1="8.4" y1="33.72" x2="13.54" y2="33.72"/><path class="cls-5" d="M2.63,34.06c-.35,0-.28-.36-.28-.36.06-.44.42-.79,1.13-1a5.57,5.57,0,0,1,2.17-.32,3.42,3.42,0,0,1,1,.25"/><path class="cls-5" d="M7.46,32.43l.12,1.17s.07.47-.32.46H2.63"/><line class="cls-5" x1="7.56" y1="33.72" x2="2.42" y2="33.72"/><polyline class="cls-5" points="10.6 32.21 7.75 32.34 6.85 23.73"/><line class="cls-5" x1="10.6" y1="32.21" x2="9.65" y2="21.18"/><line class="cls-5" x1="6.32" y1="32.43" x2="7.76" y2="32.34"/><line class="cls-5" x1="3.5" y1="22.99" x2="4.94" y2="32.23"/><path class="cls-5" d="M8.24,23.48a7.66,7.66,0,0,1-3.09.24"/><line class="cls-6" x1="8.44" y1="6.69" x2="8.48" y2="10.14"/><path class="cls-7" d="M1,8.79c.58-.44,1.23.12,1.53.61a2.28,2.28,0,0,1,.26.7.37.37,0,0,1,.16.34,1.44,1.44,0,0,1-.2.76.9.9,0,0,1-.84.35,1.23,1.23,0,0,1-.83-.35,1.8,1.8,0,0,1-.35-.83C.58,9.87.51,9.13,1,8.79Z"/><path class="cls-7" d="M7.87,6.23a.24.24,0,0,1,.31,0,1.77,1.77,0,0,1,.61.89.24.24,0,0,1,.13.07.75.75,0,0,1,.15.37A.26.26,0,0,1,9,7.74a1.38,1.38,0,0,1,0,1c-.06.11-.19.31-.32.26a.4.4,0,0,1-.11-.43v0a.28.28,0,0,1,0-.11c0-.21,0-.41,0-.62a4,4,0,0,0-.59-1.3A.24.24,0,0,1,7.87,6.23Z"/><path class="cls-7" d="M.44,7.06C.14,5.62.15,4,1.38,3.13a.23.23,0,0,1,.25,0,3.74,3.74,0,0,1,.89-.51.23.23,0,0,1,.11,0,3.54,3.54,0,0,1,1.68-.22A2.63,2.63,0,0,1,5.82,3,5.5,5.5,0,0,1,7,4.13c.32.53.6,1.1.89,1.65.15.27-.28.46-.42.19-.26-.47-.51-1-.78-1.43a4,4,0,0,0-1-1.11,2.17,2.17,0,0,0-1.29-.59,3.58,3.58,0,0,0-1.22.06.44.44,0,0,1-.24.57A2.54,2.54,0,0,0,2,4a2.22,2.22,0,0,0-.48.86,5.17,5.17,0,0,0-.16,2.28.44.44,0,0,1-.25.47.15.15,0,0,1,0,.07l.13.72c0,.25-.36.38-.45.13s-.22-.68-.31-1a.4.4,0,0,1-.08-.2C.45,7.21.45,7.14.44,7.06Z"/><path class="cls-8" d="M2.72,2.86a3.1,3.1,0,0,1,2.68.35,3.61,3.61,0,0,1,.95.92.64.64,0,0,1,.08.14l.06,0a.9.9,0,0,1,.19.2c.08.12.14.26.21.39a.1.1,0,0,1,0,.05A.39.39,0,0,1,7,5.15a.4.4,0,0,0,.12.1.34.34,0,0,1,.14.24A.35.35,0,0,1,7.05,6a6.32,6.32,0,0,0-1.46.57,8.63,8.63,0,0,1-1.22.6c-.46.17-.93.32-1.39.47a4.35,4.35,0,0,0-1.33.55.35.35,0,0,1-.54-.13C.54,6.29.56,3.59,2.72,2.86Z"/><path class="cls-2" d="M2.68,8.88a.8.8,0,0,1,.26-.05H3A1,1,0,0,0,3.35,8c0-.6.62-.71,1.1-.87s.87-.28,1.3-.45l.6-.27c.2-.11.38-.26.58-.35.63-.28,1,.36,1.19.81a3.1,3.1,0,0,1,.37,1.49,6.77,6.77,0,0,1-.08.76.58.58,0,0,1,0,.36.36.36,0,0,0,0,.09l0,.2c-.08.48-.16,1-.27,1.43a6.48,6.48,0,0,1-.31,1.14s0,0,0,.06a.47.47,0,0,1,.06.21,9.51,9.51,0,0,0,.21.94,3.63,3.63,0,0,1-.07,1.23,1.66,1.66,0,0,1-.44,1,1.76,1.76,0,0,1-.87.41A1.8,1.8,0,0,1,5.4,16.1a2.49,2.49,0,0,1-.8-.75,1.8,1.8,0,0,1-.34-.82.67.67,0,0,1-.06-.28.54.54,0,0,1,.13-.3l.06-.2s0-.05,0-.08v0a.64.64,0,0,1-.08-.19.56.56,0,0,1,.16-.55.41.41,0,0,1-.06-.24.89.89,0,0,0,0-.23,2.05,2.05,0,0,0-.16-.38.37.37,0,0,1-.18,0A.3.3,0,0,1,3.93,12l-.09-.08v0L3.67,12a.35.35,0,0,1-.49-.27c0-.2-.16-.19-.28-.34s0-.49,0-.73a1.39,1.39,0,0,0-.33-1.19A.35.35,0,0,1,2.68,8.88Z"/><path class="cls-5" d="M8.48,9.31a1.86,1.86,0,0,1-.05.34c-.36,1.57-.86,1.95-.63,2.89"/><path class="cls-5" d="M8.05,6.82a5.18,5.18,0,0,1,.43,2.49"/><path class="cls-5" d="M7.51,5.93a4.69,4.69,0,0,1,.54.89"/><path class="cls-5" d="M1.28,8.61c0-.06,0-.12,0-.18"/><line class="cls-5" x1="9.4" y1="5.14" x2="1.26" y2="8.43"/><path class="cls-5" d="M7.49,8a1.34,1.34,0,0,1-.78,1.3A1.87,1.87,0,0,1,5,8.91"/><path class="cls-9" d="M4.48,8.51h0a.14.14,0,0,1-.13-.14.76.76,0,0,1,.58-.68.82.82,0,0,1,.82.23.14.14,0,0,1,0,.2.14.14,0,0,1-.19,0A.56.56,0,0,0,5,8a.47.47,0,0,0-.37.43A.15.15,0,0,1,4.48,8.51Z"/><path class="cls-9" d="M4.54,8.27H4.06a.13.13,0,0,1-.13-.14A.14.14,0,0,1,4.07,8h.17l-.1-.13a.14.14,0,1,1,.22-.16l.27.35a.14.14,0,0,1,0,.14A.14.14,0,0,1,4.54,8.27Z"/><path class="cls-9" d="M7.67,7.06a.65.65,0,0,0-.8-.12.82.82,0,0,0-.37.5.3.3,0,0,1,.15.07l0,0,.09.06.06,0A.5.5,0,0,1,7,7.18a.39.39,0,0,1,.46.06.13.13,0,0,0,.2-.18Z"/><path class="cls-9" d="M7.41,7.16a.08.08,0,0,1-.07,0A.13.13,0,0,1,7.24,7l0-.41a.14.14,0,0,1,.27,0v.12l.08-.08a.13.13,0,1,1,.19.19l-.28.29Z"/><path class="cls-5" d="M5.83,8.56A.7.7,0,0,0,7.06,8a.7.7,0,0,0-.82-.55.73.73,0,0,0-.35.18"/><path class="cls-5" d="M1.26,8.43S-.69,4.22,2.86,2.87C5.91,1.72,7.49,5.92,7.49,5.92"/><path class="cls-5" d="M.93,8.76s-2.31-4.89,1.8-6.32C6.29,1.2,7.94,6.1,7.94,6.1"/><path class="cls-5" d="M1.07,8.73l.25-.11c.43-.18,1.06.31,1.4,1.11S3,11.32,2.55,11.5l-.27.12"/><path class="cls-5" d="M1,8.74c.43-.19,1.06.31,1.4,1.1s.27,1.59-.16,1.78a1.08,1.08,0,0,1-1.15-.37,2.36,2.36,0,0,1-.43-.67C.32,9.61.61,8.93,1,8.74"/><path class="cls-5" d="M7.79,6.19c.34-.11,1,.36,1.2,1.11s.08,1.64-.5,1.84"/><path class="cls-5" d="M3.39,7.63a1.72,1.72,0,0,1-1,1.49"/><path class="cls-5" d="M2.83,11.39a.7.7,0,0,1,.54.7.68.68,0,0,1,.48-.16.71.71,0,0,1,.65.74.7.7,0,0,1-1.09.52"/><path class="cls-5" d="M1.22,11.42a.7.7,0,0,0-.48.85.68.68,0,0,0,.74.5.67.67,0,0,0-.05.48.68.68,0,0,0,1.25.18.81.81,0,0,0,.48.55,1.1,1.1,0,0,0,1.11-.08"/><path class="cls-5" d="M8.39,10.1a.87.87,0,0,1,.68.72.89.89,0,0,1-.34.83.6.6,0,0,1,.46.49c0,.24-.33.66-.52.79"/><path class="cls-10" d="M7.81,12.3v-.08a.34.34,0,0,1,0-.2,1.36,1.36,0,0,1,.06-.36,3.78,3.78,0,0,1,.22-.5.17.17,0,0,1,0-.07l.11-.65a.36.36,0,0,1,.3-.3.36.36,0,0,1,.37.2A.86.86,0,0,1,9,10.9a.29.29,0,0,1,.06.24.39.39,0,0,1-.18.26c0,.1-.07.2-.1.29h0a.55.55,0,0,1,.36.57.52.52,0,0,1-.14.31,1.83,1.83,0,0,1-.67.27c-.09,0-.2-.14-.29-.18A.36.36,0,0,1,7.81,12.3Z"/><path class="cls-10" d="M1.25,11.54a.56.56,0,0,1,.44,0,1.35,1.35,0,0,1,.11.09.27.27,0,0,0,.13,0l.41-.08.16,0a2.77,2.77,0,0,1,.26-.1c.2,0,.34.11.45.26a.69.69,0,0,1,.14.3.68.68,0,0,1,.59,0,.7.7,0,0,1,.42.48l0,0a.39.39,0,0,1-.11.57l0,0-.07.07a.51.51,0,0,1-.53,0h0a.63.63,0,0,1-.19,0s.79.17.77.2.14.49.09.49A10,10,0,0,1,3.21,14s-.3-.34-.31-.37a.36.36,0,0,1-.16-.14,1.67,1.67,0,0,1-.26.17,1.67,1.67,0,0,1-.44.11.46.46,0,0,1-.45-.17.7.7,0,0,1-.05-.75l-.1,0a1.07,1.07,0,0,1-.35-.23.76.76,0,0,1-.27-.41A.56.56,0,0,1,1.25,11.54Z"/><path class="cls-9" d="M1.56,8.33l.08,0a.27.27,0,0,1,.27-.07h0c.33-.11.64-.29,1-.39h0l0-.06h0l0,0a.23.23,0,0,1,.4.22l0,.06h0V8h0a.2.2,0,0,0,0,.08l-.06.15a.23.23,0,0,1-.12.12A3.28,3.28,0,0,1,2.62,9a.24.24,0,0,1-.29,0,1.78,1.78,0,0,0-.6-.3.23.23,0,0,1-.12-.12A.12.12,0,0,1,1.56,8.33Z"/><path class="cls-11" d="M4.1,4.14a.65.65,0,0,0-.79,0c-.44.26-.38,1.11,1.39,1.62"/><path class="cls-11" d="M4.1,4.14a.66.66,0,0,1,.59-.54c.5-.09,1,.58,0,2.14"/><path class="cls-2" d="M8.64,14.08s-.58-1.2-.55-1.22,1.57.65,1.56.63a.05.05,0,0,1-.06,0s.23.08.23.08a.16.16,0,0,1,.07.07.24.24,0,0,1,.15.09l.24.34c.25-.38.5-.79.73-1.17a4.5,4.5,0,0,0,.69-1.45l0,0a.65.65,0,0,0-.29-.14.57.57,0,0,0-.3.1.3.3,0,0,1-.45-.28c0-.38.57-.55.91-.44.13-.34.25-.68.36-1A.35.35,0,0,1,12,9.44a.34.34,0,0,1,0-.26,5.47,5.47,0,0,0,.27-1A.38.38,0,0,1,12.31,8V8a.43.43,0,0,0,0-.11V7.85a.33.33,0,0,1,.31-.35.34.34,0,0,1,.35.31,1.55,1.55,0,0,1,0,.31.43.43,0,0,1,0,.25,3.93,3.93,0,0,1-.22.85h0l.73.19a1.27,1.27,0,0,1,.67.29,1.15,1.15,0,0,1,.17.68.73.73,0,0,1-.15.65.44.44,0,0,1-.19.12l0,.14a.49.49,0,0,1-.17.29.24.24,0,0,1,0,.08.37.37,0,0,1-.26.21,1.58,1.58,0,0,1-.49.1,11.79,11.79,0,0,1-.81,1.9c-.14.27-.3.54-.46.8s-.24.53-.37.78a1.21,1.21,0,0,1-.26.39l-.05.12c-.09.24-.09.56-.43.53a5.8,5.8,0,0,1-1.77-1.25C8.94,15,8.64,14.29,8.64,14.08Z"/><path class="cls-12" d="M11.53,11.37a.41.41,0,0,0-.5,0l-.13.07c-.21,0-.25-.19-.25-.19a.52.52,0,0,1,.38-.62.65.65,0,0,1,.21,0,1,1,0,0,1,.44.08"/><path class="cls-12" d="M11.55,11.38h0"/><path class="cls-12" d="M12.2,11.9c-.18,0-.37-.14-.57-.43l-.08-.09"/><path class="cls-12" d="M12.15,8.61l.25-.89s.1-.43.41-.24.17.87.07,1.23l-.24.91"/><path class="cls-12" d="M11.6,10.66l.55-2.05"/><path class="cls-12" d="M12.79,9.19c.33,0,.68.15,1,.7,0,0,.41.75,0,.93,0,0-.26.15-.46-.21s-.24-.75-.52-.65"/><path class="cls-12" d="M13.45,9.43a.57.57,0,0,1,.3,0c.32.06.58.34.66.93,0,0,.1.76-.27.78,0,0-.24,0-.31-.28"/><path class="cls-12" d="M14.08,11.11A1,1,0,0,1,13,12"/><path class="cls-12" d="M12.45,10.41s.6.31.63.81"/><path class="cls-12" d="M12.91,10.8a.79.79,0,0,1,.39-.3"/><circle class="cls-7" cx="13.18" cy="3.74" r="3.54"/><path class="cls-13" d="M9.64,3.85s.8.78,3.95.74c2.06,0,2.81-.31,3.09-.53"/><path class="cls-13" d="M16.2,1.9s.6,1.34-.62,1.54-1.94-1.07-3.51-1.71a3.29,3.29,0,0,0-1.62-.23"/><path class="cls-13" d="M16.19,5.59s-.12-.3-.65-.22a9.07,9.07,0,0,0-1.9.92,3.32,3.32,0,0,1-2.36.43"/><path class="cls-13" d="M13.34.2s2.29.45,2.31,4.23a3.52,3.52,0,0,1-.84,2.44"/><path class="cls-12" d="M8,12.67c.07.08,2.25,1.27,2.25,1.27"/><path class="cls-12" d="M9,15.37l1.1.76s.64.68,1.06-.06c.93-1.67,1.94-4,1.94-4"/><path class="cls-12" d="M11.71,11.58l-1.43,2.36a1.2,1.2,0,0,0,0,.48"/><path class="cls-12" d="M12.74,2.51c-2.37-.29-4.27-.75-4.24-1,0-.11.62-.18,1.42-.17"/><path class="cls-12" d="M12.66,3.15c-2.37-.29-4.27-.74-4.24-1S8.83,2,9.47,2"/><path class="cls-12" d="M7.8,12.54C9.28,14.15,10,20.72,10,20.72s.09.59-.22.7"/><circle class="cls-12" cx="13.18" cy="3.74" r="3.54"/><path class="cls-12" d="M7.64,12.79a1.81,1.81,0,0,1-.66.48"/><path class="cls-12" d="M5.23,13.72c-.22,0-.5.07-.84.1a1,1,0,0,0-.61-.89"/><path class="cls-12" d="M3.29,14s-.18,2.72-.14,5.72"/><path class="cls-5" d="M3.71,24a2.66,2.66,0,0,0,.63-2.3"/><path class="cls-5" d="M4,23.56A52.7,52.7,0,0,1,.38,19.64s-.37-.33,0-1.12,1-3.37,2.65-5"/><polyline class="cls-5" points="4.32 21.82 2.63 18.8 1.77 19.13"/><path class="cls-5" d="M3.16,16.26s-.31,1.62-.53,2.54"/><path class="cls-12" d="M7.81,12.6s.9,2.91-.83,3.53-2.74-.8-3-2.19"/></g></g></svg>