<svg xmlns="http://www.w3.org/2000/svg" viewBox="0 0 9.55 16.89"><defs><style>.cls-1,.cls-7{fill:#f9e398;}.cls-2{fill:#fff;}.cls-3{fill:#af6e30;}.cls-4{fill:#0d773c;}.cls-5{fill:none;}.cls-5,.cls-7{stroke:#1c204d;stroke-linecap:round;stroke-linejoin:round;stroke-width:0.4px;}.cls-6{fill:#1c204d;}.cls-8{fill:#1d1c4c;}</style></defs><g id="Layer_2" data-name="Layer 2"><g id="Layer_1-2" data-name="Layer 1"><path class="cls-1" d="M.19,7.81a9.31,9.31,0,0,0,.15-1.9A3.24,3.24,0,0,1,.41,4.63c.3-.76.36-.41.64-.57s.57-.67,1-.83a.52.52,0,0,1,.59.19c.13.18.08.4.17.58.16.34.58.43.94.55A13.24,13.24,0,0,0,6,4.94a.51.51,0,0,1,.41.46,4.5,4.5,0,0,0,.32,2,.88.88,0,0,1,.8.38c.21.31.05.6-.13.86v.05a.37.37,0,0,1-.09.16l-.06.06L7.15,9a1.11,1.11,0,0,1-1.3.49h0l-.13,0a.4.4,0,0,1-.19-.15A4.21,4.21,0,0,1,5,9.63v0a5.93,5.93,0,0,1-.53.47,4.49,4.49,0,0,0-.49.37c-.17.18-.33.36-.5.53a.71.71,0,0,1-.67.19A3.64,3.64,0,0,1,2.13,11a2.34,2.34,0,0,0-.62-.19c-.3,0-1.29-.4-1.2-.67a11.31,11.31,0,0,0-.09-2v0A.46.46,0,0,1,.19,7.81Z"/><path class="cls-1" d="M3,13.68a.49.49,0,0,1,.48-.26.42.42,0,0,1,.13-.16.45.45,0,0,1,.61.11,4.28,4.28,0,0,1,.37.57l.15.29.18-.11A.33.33,0,0,1,5.07,14l.29-.19h0l.06,0,.19-.16a.38.38,0,0,1,.23-.08A2.73,2.73,0,0,0,6.33,13a.41.41,0,0,1,.2-.13,1,1,0,0,1,0-.38,1,1,0,0,1,.49-.6,1.66,1.66,0,0,0,.34-.25.31.31,0,0,0,.11-.2,1.25,1.25,0,0,0,.08-.32c0-.15-.07-.29-.07-.45a.37.37,0,0,1,.44-.38.72.72,0,0,1,.57.62,1.39,1.39,0,0,1,0,.7,1.2,1.2,0,0,1,.38,0,1,1,0,0,1,.39.22.44.44,0,0,1,.13.42.61.61,0,0,1-.11.21,1,1,0,0,1-.07.15.83.83,0,0,1-.08.12.41.41,0,0,1,.18.55.33.33,0,0,1-.27.19l0,.13H9a.46.46,0,0,1-.08.28.52.52,0,0,1-.31.32.42.42,0,0,1-.27,0h0a.71.71,0,0,1-.43,0,.7.7,0,0,1-.29,0,.88.88,0,0,1-.35-.17l0,0a.27.27,0,0,1-.08.07c-.86.81-1.72,1.63-2.64,2.38a.44.44,0,0,1-.65-.22,7.71,7.71,0,0,0-1-2A.42.42,0,0,1,3,13.68Z"/><path class="cls-2" d="M2.88,5.53a1.18,1.18,0,0,1,.45-.38.67.67,0,0,1,.57,0,.7.7,0,0,1,.36.43,1.48,1.48,0,0,1,0,.63A.22.22,0,0,1,4,6.36a.22.22,0,0,1-.14,0,3.52,3.52,0,0,1-.46-.28s-.06-.05,0,0l0,0L3.2,6l-.12,0h0L3,5.88A.22.22,0,0,1,2.88,5.53Z"/><path class="cls-2" d="M1.42,4.9a1.07,1.07,0,0,1,.79-.53c.41-.06.65.35.7.7a1,1,0,0,1-.09.54.22.22,0,0,1-.24.12.23.23,0,0,1-.16-.14A1.63,1.63,0,0,1,2,5.41l-.44-.22A.22.22,0,0,1,1.42,4.9Z"/><path class="cls-2" d="M1.68,8.06a.15.15,0,0,1,.13-.12c.27,0,.55,0,.82,0L3,8a1,1,0,0,1,.37.08l0,0h0a.15.15,0,0,1,.13.26l0,0-.06,0a2.15,2.15,0,0,1-.89.18,1.72,1.72,0,0,1-.84-.34A.15.15,0,0,1,1.68,8.06Z"/><path class="cls-3" d="M.77,4A.14.14,0,0,0,1,4.07c.44-.19.69-.6,1.06-.87a.13.13,0,0,1,0,.06,1.81,1.81,0,0,0,.28.34c.1.1.19.21.3.31a2.79,2.79,0,0,0,.66.46A6.94,6.94,0,0,0,4.91,5a2.17,2.17,0,0,0,1.16,0A3.19,3.19,0,0,0,6.39,7.3a.28.28,0,0,0,.33.11l.21-.06a.3.3,0,0,0,.2-.29V7a.2.2,0,0,0,0-.11.18.18,0,0,0,0-.11,3.62,3.62,0,0,0-.06-1.35C7,5.17,7,5,6.88,4.76v0h0A1.75,1.75,0,0,0,7.68,4a4.16,4.16,0,0,0,.24-.47A1.89,1.89,0,0,0,8.1,3,.33.33,0,0,0,8,2.75V2.68l0-.11a.41.41,0,0,0,0-.22,2.69,2.69,0,0,0-.31-.61l0-.1h0l0-.09a.25.25,0,0,0-.14-.13A3.92,3.92,0,0,0,7,1,4.58,4.58,0,0,0,6.3.48,2.49,2.49,0,0,0,5.38.22a1.86,1.86,0,0,0-1,.1,2.37,2.37,0,0,0-.68.45A2.18,2.18,0,0,0,3,2.16a.57.57,0,0,0,0,.13,2.46,2.46,0,0,0-.67.33,1,1,0,0,0-.29.29A.13.13,0,0,0,2,2.9s0,0,0,0A.14.14,0,0,0,1.81,3a4.27,4.27,0,0,0-.44.41,2,2,0,0,1-.51.4A.13.13,0,0,0,.77,4Z"/><path class="cls-4" d="M.62,16.2A.65.65,0,0,1,.77,16a.27.27,0,0,0,.1-.06,4.46,4.46,0,0,0,.34-.42,3,3,0,0,1,.32-.39A6.22,6.22,0,0,0,2,14.46a3.72,3.72,0,0,1,.7.87c.08.13.27,0,.27-.09a1.18,1.18,0,0,1,.24-.55c.1-.17.2-.35.31-.52a2.93,2.93,0,0,1,.73-.84.15.15,0,0,0,0-.25.26.26,0,0,0-.07-.18,5.14,5.14,0,0,1-.47-.71,2.11,2.11,0,0,0-.26-.35c0-.05-.09-.1-.13-.16l0,0,0,0a.22.22,0,0,0,0-.42,3.31,3.31,0,0,0-.55,0,3,3,0,0,1-.51-.08,5.24,5.24,0,0,1-1-.39c-.16-.07-.92-.72-.93-.56s.08,1-.11,1.1.09.34.12.5a1.16,1.16,0,0,0,0,.18c0,.67-.06,1.34,0,2a.18.18,0,0,0,.07.15c0,.32,0,.63,0,.95a6.58,6.58,0,0,1-.07,1.09C.32,16.27.55,16.36.62,16.2Z"/><path class="cls-5" d="M6.82,4.71a1.67,1.67,0,0,0,.94-.81C8.48,2.75,7.9,1.49,6.68.73S4.07,0,3.35,1.12A2,2,0,0,0,3,2.21"/><path class="cls-5" d="M3.37,11.21A13,13,0,0,1,5.55,9.28l.12-.11"/><path class="cls-5" d="M6.67,4.49A3.49,3.49,0,0,1,7,7.36"/><path class="cls-5" d="M2.15,2.81A4.07,4.07,0,0,0,.32,4.71"/><path class="cls-5" d="M6.27,4.82s-.72.67-2.79-.32C2,3.8,2,3.15,2,3.15"/><path class="cls-5" d="M6.51,7.48A2.91,2.91,0,0,1,6,5"/><path class="cls-5" d="M2,3.23s-.88,1-1.3.86"/><path class="cls-5" d="M6.67,4.55s.12-1.39-1.81-2.13a2.28,2.28,0,0,0-2.67.37"/><path class="cls-5" d="M6.45,7.52a.72.72,0,0,1,1,.07C7.85,8,7.55,8.64,7.2,9a1.16,1.16,0,0,1-1.4.44.73.73,0,0,1-.2-.19"/><path class="cls-5" d="M6.92,8a1.2,1.2,0,0,0-.28.25c-.14.17-.25.32-.35.43"/><path class="cls-5" d="M6.94,8.52c-.15,0-.34.06-.44-.11"/><path class="cls-5" d="M6.7,8.54a.37.37,0,0,0-.07.39"/><path class="cls-5" d="M3.14,15l.73,1.52s.23.41.69.08a31.4,31.4,0,0,0,2.58-2.45"/><line class="cls-5" x1="4.73" y1="14.15" x2="6.54" y2="12.94"/><path class="cls-5" d="M4.29,13.37l.44.78a2.13,2.13,0,0,0-.24.5"/><path class="cls-5" d="M2.05,14.46A8.29,8.29,0,0,1,.37,16.4"/><path class="cls-5" d="M4.37,13.46c0-.12.07-.2,0-.21s-.47.43-.89,1.07a3.23,3.23,0,0,0-.63,1.24s.16-.09.32-.29"/><path class="cls-5" d="M3.37,11.21A7.22,7.22,0,0,1,.2,10"/><path class="cls-5" d="M.2,10.73a6.66,6.66,0,0,0,3.09.94h0c.12,0,.18-.11.2-.24s0-.23-.11-.24"/><line class="cls-5" x1="4.42" y1="13.25" x2="3.38" y2="11.7"/><path class="cls-5" d="M2.9,15.56l-.85-1.1a5.78,5.78,0,0,1,.12-.68"/><path class="cls-5" d="M8.54,12.12H8.36c-.38,0-.49.15-.48.43s.24.39.59.38.85,0,.87-.59-.52-.79-1.13-.68"/><path class="cls-5" d="M6.71,13.27a1,1,0,0,1-.17-.75.93.93,0,0,1,.6-.74.74.74,0,0,0,.36-.93.62.62,0,0,1,0-.24c0-.33.36-.33.36-.33a.72.72,0,0,1,.72.55.89.89,0,0,1,0,.63.38.38,0,0,1-.13.19"/><path class="cls-5" d="M8,12.83a.34.34,0,0,0-.24.38c0,.33.24.5.79.47s.79-.22.8-.58a.37.37,0,0,0-.2-.33"/><path class="cls-5" d="M7.87,13.5s-.25,0-.24.37.25.47.58.45.88-.11.78-.72"/><path class="cls-5" d="M7,13.8s.11.54.81.4"/><path class="cls-5" d="M4,6.57a1.05,1.05,0,0,0,.27-.38.83.83,0,0,0-.38-1.11.84.84,0,0,0-1.06.52.83.83,0,0,0,.39,1.11.64.64,0,0,0,.17,0"/><path class="cls-5" d="M1.54,5.88a.64.64,0,0,0,.25.18.83.83,0,0,0,1-.52.82.82,0,0,0-.38-1.11.83.83,0,0,0-1,.52,1.05,1.05,0,0,0-.08.34"/><path class="cls-5" d="M3.84,7.37A.55.55,0,0,1,4,7.75a.82.82,0,0,1-.32.54h0a1.64,1.64,0,0,1-.87.28H2.55a1.59,1.59,0,0,1-.83-.37h0a.77.77,0,0,1-.26-.57.59.59,0,0,1,.14-.38A.55.55,0,0,1,2,7.07a.72.72,0,0,1,.39.16.5.5,0,0,0,.32.13A.52.52,0,0,0,3,7.26a.73.73,0,0,1,.41-.11h0A.49.49,0,0,1,3.84,7.37Z"/><path class="cls-5" d="M3.71,8.22a1.79,1.79,0,0,0-1-.3,2.25,2.25,0,0,0-1.1.14"/><ellipse class="cls-6" cx="2.24" cy="5.22" rx="0.19" ry="0.17" transform="translate(-3.41 5.77) rotate(-72.38)"/><ellipse class="cls-6" cx="3.66" cy="5.81" rx="0.19" ry="0.17" transform="translate(-2.98 7.54) rotate(-72.38)"/><path class="cls-5" d="M4.13,6.44,1.35,5.12"/><path class="cls-7" d="M2.75,6.57a.49.49,0,0,0,.18-.38.51.51,0,0,0-.5-.52.5.5,0,0,0-.51.5.48.48,0,0,0,.22.43"/><path class="cls-8" d="M1.49,7.6c0-.18.09-.43.29-.5a.65.65,0,0,1,.55.12.66.66,0,0,0,.42.17,1.6,1.6,0,0,0,.47-.19.47.47,0,0,1,.58.17A.73.73,0,0,1,3.87,8a.22.22,0,0,1-.42,0,7,7,0,0,0-1.1-.18H2.12a2.77,2.77,0,0,0-.26.1.32.32,0,0,1-.3-.05A.33.33,0,0,1,1.49,7.6Z"/><path class="cls-8" d="M2.94,15.34,3,15.28a1,1,0,0,0,.08-.14.08.08,0,0,1,0,0h.06a.07.07,0,0,1,0,.09,1.14,1.14,0,0,1-.15.23.05.05,0,0,1,0,0l0,0a.08.08,0,0,1,0,0A.09.09,0,0,1,2.94,15.34Z"/></g></g></svg>