<svg xmlns="http://www.w3.org/2000/svg" viewBox="0 0 13.71 29.56"><defs><style>.cls-1{fill:#fff;}.cls-2{fill:#f47951;}.cls-3{fill:#af6e30;}.cls-4,.cls-7{fill:none;}.cls-4,.cls-5{stroke:#1c204d;}.cls-4,.cls-5,.cls-7{stroke-linecap:round;stroke-linejoin:round;stroke-width:0.4px;}.cls-5,.cls-6{fill:#1c204d;}.cls-7{stroke:#1c1d4c;}.cls-8{fill:#0d773c;}.cls-9{fill:#f9b730;}.cls-10{fill:#89d3de;}</style></defs><g id="Layer_2" data-name="Layer 2"><g id="Layer_1-2" data-name="Layer 1"><path class="cls-1" d="M8.19,6.77Z"/><path class="cls-1" d="M8.19,6.77s0,0,0,0Z"/><path class="cls-2" d="M8.66,3.38c-.16-.29-.27-.54-.57-.56a2,2,0,0,1-.53,0,1,1,0,0,0-.33-.14l-.06-.19A1.62,1.62,0,0,0,7,2a.49.49,0,0,0-.67-.19.62.62,0,0,0-.25.23H6.05a5.35,5.35,0,0,0-1,0,.45.45,0,0,0-.42.55,2.79,2.79,0,0,1,0,1.22,1.43,1.43,0,0,1-.25.43A2.79,2.79,0,0,1,4,4.61L4,4.54a1.09,1.09,0,0,0-.65-.3.78.78,0,0,0-.68.31.86.86,0,0,0-.17.69,1.64,1.64,0,0,0,.17.53,2.39,2.39,0,0,0,.47.7,1,1,0,0,0,.25.2h0c0,.26,0,.56-.21.69s-.43.58-.17.77a2.05,2.05,0,0,1,.8.88.44.44,0,0,0,.84,0c0-.1.21.34.3.31a.55.55,0,0,1,.51,0c.3.19.59.07.7.41a.45.45,0,0,0,.64.26.51.51,0,0,1,.46-.08.46.46,0,0,0,.46-.71.34.34,0,0,1,0-.1c0-.1,0-.2,0-.3a3.64,3.64,0,0,1,0-.57A3.7,3.7,0,0,1,8.05,7.1a.41.41,0,0,0,0-.18l.05-.08,0-.07,0,0,0,0h0A.44.44,0,0,0,8.06,6a.61.61,0,0,0-.49.07l-.1.05-.13,0H7l-.16,0a.27.27,0,0,0-.13,0l-.2-.34-.1-.21,0,0,.22-.1,0,0h0l.12,0a5.07,5.07,0,0,1,1-.25.44.44,0,0,0,.31-.37.41.41,0,0,0-.08-.3l.34-.16A1.3,1.3,0,0,0,8.79,4C9,3.84,8.79,3.62,8.66,3.38Z"/><path class="cls-3" d="M7.18,1.35a1.12,1.12,0,0,0-.25-.11A.57.57,0,0,0,6.77,1,2.8,2.8,0,0,0,5.24.37.41.41,0,0,0,4.76.18l-.2.06H4.5s0,0,0,0-.08,0-.09,0L4,.29a1.44,1.44,0,0,0-.88.3,3.81,3.81,0,0,0-.67.24,4.36,4.36,0,0,0-.83.5A2.61,2.61,0,0,0,1,2.14,5,5,0,0,0,.48,4.25a.54.54,0,0,0,.46.55h0a6,6,0,0,0,.74,1.83.66.66,0,0,0,.12.27l.66.75a.44.44,0,0,0,.73-.42s0,0,0,0,0-.05,0-.06a1.24,1.24,0,0,0,0-.27.68.68,0,0,0-.31-.54.35.35,0,0,0-.16-.06l0-.07a2.14,2.14,0,0,1-.22-.52,2.71,2.71,0,0,1-.13-1.1l.06,0,.16-.17.09-.08h0l0,0,.2-.12h0l.12,0h.22l.09,0h0l0,0,.1,0a.94.94,0,0,0,.22.07.46.46,0,0,0,.44.13l.08,0a.42.42,0,0,0,.3-.51,2.11,2.11,0,0,0,.16-.34,2.7,2.7,0,0,0,.12-.69s0,0,0,0a.5.5,0,0,0,0-.4l0-.05h0A.59.59,0,0,0,5,2.19H5v0l0,0c.25.11.48.4.78.27a2.82,2.82,0,0,0,.31-.21,1.79,1.79,0,0,1,.32-.13,2.25,2.25,0,0,0,.71-.26A.29.29,0,0,0,7.18,1.35Z"/><path class="cls-1" d="M6.87,3.09a.31.31,0,0,0-.13-.17.31.31,0,0,0-.23,0,1.22,1.22,0,0,0-.36.18.25.25,0,0,0-.19,0,.3.3,0,0,0-.18.13.34.34,0,0,0,0,.22l0,.07a.29.29,0,0,0,.11.11L6,3.7l.07,0a.24.24,0,0,0,.12,0,.25.25,0,0,0,.16-.08l.11-.11.12-.07.06,0a.31.31,0,0,0,.17-.13A.31.31,0,0,0,6.87,3.09Z"/><path class="cls-1" d="M8.12,5.68,8,5.2a.27.27,0,0,0-.2-.2.29.29,0,0,0-.28.07s-.07,0,0,0l0,0-.11.06h0l-.06,0-.12,0H7l-.32,0c-.25.07-.55.23-.49.53a.5.5,0,0,0,.62.33h0a5.14,5.14,0,0,0,1,0,.42.42,0,0,0,.32-.11A.39.39,0,0,0,8.12,5.68Z"/><path class="cls-4" d="M.87,4.74a5.56,5.56,0,0,0,1,2.09c.93,1.27,1.8,1.72,2.05,2.64"/><path class="cls-4" d="M4.1,4.57a1,1,0,0,0-1.36-.2c-.58.43-.3,1.22,0,1.72s1,1,1.59.7a.67.67,0,0,0,.26-.2"/><path class="cls-4" d="M3.26,4.88a1.32,1.32,0,0,1,.31.34c.13.22.24.4.34.55"/><path class="cls-4" d="M3.16,5.52a.43.43,0,0,0,.54-.07"/><path class="cls-4" d="M3.45,5.58a.45.45,0,0,1,0,.47"/><path class="cls-4" d="M7.21,2.3s.16.27,0,.36"/><path class="cls-4" d="M7.05,2l.16.31"/><path class="cls-4" d="M7.78,6.17,8.23,6a1,1,0,0,1-.09.72,4.54,4.54,0,0,0-.41,2.75"/><path class="cls-4" d="M8,4.36a.45.45,0,0,1,.22.27.29.29,0,0,1-.15.27l-2,.57"/><path class="cls-4" d="M8,4.36l.34-.13c.48-.17.63-.59,0-1.21a1.59,1.59,0,0,0-1.19-.36h0"/><path class="cls-4" d="M7.22,3.37A2,2,0,0,0,6.07,4"/><line class="cls-4" x1="8.04" y1="4.92" x2="8.19" y2="6.01"/><line class="cls-4" x1="8.09" y1="5.5" x2="6.35" y2="6"/><path class="cls-4" d="M7.78,6.17s-1.34.63-1.72-.7"/><path class="cls-4" d="M5.84,2.71a.83.83,0,0,1,.31-.24.69.69,0,0,1,.91.38.65.65,0,0,1,0,.53"/><path class="cls-4" d="M6.22,3.79a.71.71,0,0,1-.45-.4.69.69,0,0,1,0-.24"/><line class="cls-4" x1="6.94" y1="2.72" x2="5.72" y2="3.23"/><path class="cls-4" d="M5.61,2.57l1.88-.83A3.77,3.77,0,0,0,2.86.52,3.68,3.68,0,0,0,.51,4.81L5,2.83l-.11-.68Z"/><path class="cls-4" d="M4.1,4.46A1.27,1.27,0,0,0,4.73,3"/><path class="cls-4" d="M3.26,6.61A1.69,1.69,0,0,1,2.86,8"/><circle class="cls-5" cx="6.8" cy="3.09" r="0.22"/><path class="cls-1" d="M10.37,25,9.15,22.3c-.37-.81-.63-1.67-1-2.48l-.06-.12a4.65,4.65,0,0,0,.48-1.84,1,1,0,0,0-1-1,.92.92,0,0,0-.73.35,1,1,0,0,0-1.71.27,1,1,0,0,0-1.87.64,8.85,8.85,0,0,0,1,2.4,5,5,0,0,0,.32.44.53.53,0,0,0-.12.21c-.46,1.74-.89,3.48-1.27,5.24v0a2.69,2.69,0,0,1-.16.29A1,1,0,0,0,4.44,28.1a2.63,2.63,0,0,0,.75-.7,3.32,3.32,0,0,0,.32-.75l0,0,.08-.18c.06-.15.13-.29.18-.43s.18-.48.26-.72c.19-.62.37-1.25.56-1.87.28.37.55.74.8,1.14.38.6.65,1.26,1,1.87v0a1,1,0,0,0,.71.83,1.28,1.28,0,0,0,1.42-.6A1.77,1.77,0,0,0,10.37,25Z"/><path class="cls-6" d="M3.32,16.09a.57.57,0,0,1,.32-.25.54.54,0,0,1,.64.37,6.63,6.63,0,0,0,.21.88c0,.15.09.29.14.43a2.57,2.57,0,0,1,.12.55.58.58,0,0,1-.15.37.51.51,0,0,1-.37.15.54.54,0,0,1-.38-.15.68.68,0,0,1-.15-.36v.06a6.35,6.35,0,0,0-.24-.82,7.72,7.72,0,0,1-.2-.83A.61.61,0,0,1,3.32,16.09Z"/><path class="cls-6" d="M7.26,28.33l-.07,0a4.43,4.43,0,0,0-1.41-.56,2.1,2.1,0,0,0-.79,0,2.07,2.07,0,0,0-.68.21l-.38,0-.28,0H3.57l-.16,0a.29.29,0,0,0-.37.28H3a.57.57,0,0,0-.11.11c-.11.17-.16.37-.27.54l0,0h0a.14.14,0,0,0,0,.06.24.24,0,0,0,0,.15.44.44,0,0,0,.12.28.39.39,0,0,0,.28.11.44.44,0,0,0,.26-.1h0a2.28,2.28,0,0,1,.26,0l.3,0c.2,0,.41,0,.61,0,.4,0,.8,0,1.2,0a3.19,3.19,0,0,0,1.11,0c.38.06.84.12,1-.24S7.56,28.45,7.26,28.33Z"/><path class="cls-6" d="M13.15,24.94a.34.34,0,0,0-.25-.08,2.64,2.64,0,0,0-1.17.46,3.28,3.28,0,0,0-.76.9,3.22,3.22,0,0,0-.56.41c-.09.09-.17.19-.26.27l0,0h0l0,0,0,0,0,0s-.13,0,0,0a.31.31,0,0,0-.26.15.3.3,0,0,0,0,.29c0,.06.07.1.1.15a.45.45,0,0,0,0,.16,5,5,0,0,0,.46.67c.06.11.12.22.17.33a1.84,1.84,0,0,0,.15.35c.18.24.38.31.58.12a3,3,0,0,0,.45-.8c.2-.42.5-.88.69-1.3a.3.3,0,0,0,.12-.13,18.3,18.3,0,0,1,1-1.6A.31.31,0,0,0,13.15,24.94Z"/><line class="cls-4" x1="10.71" y1="29.22" x2="9.6" y2="27.24"/><path class="cls-4" d="M10.45,27.39a5.35,5.35,0,0,1,.71-1.51c.45-.58,1.29-1.4,2.17-.93,0,0,.27.14.15.36s-2.2,3.79-2.2,3.79-.25.47-.57.12"/><path class="cls-4" d="M2.63,29s-.16.38.39.38H7.28a.45.45,0,0,0,.46-.51c0-.51-1.16-1.17-2.42-1.12a3.35,3.35,0,0,0-1.44.37"/><path class="cls-4" d="M5.74,22.43,4,19.93a10.43,10.43,0,0,1-1.35-4.74"/><polyline class="cls-4" points="6.86 17.12 10.93 26.18 9.21 27.55 5.77 22.5"/><path class="cls-4" d="M4.66,27.81c-.27,0-1.9,0-1.9,0l1.75-7"/><line class="cls-4" x1="8.08" y1="19.7" x2="8.64" y2="18.14"/><line class="cls-4" x1="5.18" y1="27.74" x2="6.57" y2="23.87"/><path class="cls-4" d="M7.74,29c-.07,0-5.11,0-5.11,0l.42-1.07"/><line class="cls-4" x1="13.24" y1="24.91" x2="10.77" y2="29.28"/><path class="cls-7" d="M3.78,18.54a1.91,1.91,0,0,0,1.07,0"/><path class="cls-8" d="M9.43,11,9,10.77a.44.44,0,0,0-.32-.23h.06l-.25-.11a1.25,1.25,0,0,0-.34-.12l-.15,0-.24-.09h0c.07-.36.31-.72.19-1.08a.39.39,0,0,0-.4-.27C7.35,8.86,7.2,9,7,9a2.1,2.1,0,0,1-.56,0A.57.57,0,0,1,6,9.31c-.24,0-.48,0-.72,0l-.33,0H4.82l-.16,0a11.83,11.83,0,0,1-1.28.4h0a.13.13,0,0,0,0,.06l-.15.06L3.05,10l0,0H3v0l-.15.11-.29.21,0,0-.07.06-.12.11-.11.11,0,.06c0-.08,0,0,0,0l-.07.09a.39.39,0,0,0-.16.4,2.59,2.59,0,0,0-.42.52c-.14.22-.27.45-.4.67-.24.44-.45.89-.65,1.35h0a.54.54,0,0,1,0,.11s0,.06,0,.09a.31.31,0,0,0-.06.13,3.19,3.19,0,0,0-.05,1.11,1.42,1.42,0,0,0,.06.46,2.2,2.2,0,0,0,0,.36,2.85,2.85,0,0,0,.24.53,2,2,0,0,0,.11.26l0,0v0h0a.67.67,0,0,0,.05.19.39.39,0,0,0,.43.18A.42.42,0,0,0,1.52,17a3.51,3.51,0,0,1,.33-.34A1.05,1.05,0,0,1,2,16.55a.3.3,0,0,1,0-.1.28.28,0,0,1,0-.13.27.27,0,0,1,0-.12.14.14,0,0,1,0-.06l.08-.09.1-.08a.48.48,0,0,1,.24-.06h.15c-.28-.4.32-.21.07-.62a8,8,0,0,1,.68-1.69c.32-.61-.09-2,.43-2.46a.39.39,0,0,0,.1-.16.53.53,0,0,0,.33,0A16.43,16.43,0,0,1,6,11.25c.49.1,1,0,1.54.09s1.15.11,1.72.18A.27.27,0,0,0,9.43,11Z"/><path class="cls-8" d="M12.47,15.2a.18.18,0,0,0-.25.07h-.09a1.06,1.06,0,0,0-.25.09c-.15.08-.29.17-.43.26l-.07.06s-.6-.37-.61-.32-.37,1-.39,1.07.82-.14.83-.08.11,0,.19,0a.47.47,0,0,0,.3-.1l.2-.11a1.65,1.65,0,0,0,.37-.33,3,3,0,0,0,.27-.42A.18.18,0,0,0,12.47,15.2Z"/><path class="cls-2" d="M12.34,15a.3.3,0,0,0-.12-.15h0a6.85,6.85,0,0,0-.7-1.44c-.23-.42-.47-.82-.71-1.23a.37.37,0,0,0-.1-.21l0,0a.34.34,0,0,0-.09-.08,2.57,2.57,0,0,0-.7-.46,1.28,1.28,0,0,0-.48-.09,2.05,2.05,0,0,0-.54.1l-.09,0-.07,0-.09.06a.24.24,0,0,0-.06.09.23.23,0,0,0,0,.11v.08a.25.25,0,0,0,.08.12l0,0a.36.36,0,0,0,.33.2h.13a.36.36,0,0,0,.2-.06.09.09,0,0,1,.07,0h.15l.08,0,0,0s0,0,0,0a.65.65,0,0,1,.16.09v0a2.33,2.33,0,0,0,.14.47.57.57,0,0,0-.29,0,1,1,0,0,0-.34.21l-.59.5a.3.3,0,0,0-.05.35.32.32,0,0,0,.32.13,1,1,0,0,0,.44-.24l.15-.12s0,0,.05,0l0,0h0l.11,0,.06.09h0a.61.61,0,0,0-.2.22L9.44,14a.43.43,0,0,0,0,.07l0,0v0l0,0s0,0-.05.05l0,0h0l0,0h0a.28.28,0,1,0,.15.54.91.91,0,0,0,.62-.57,1.31,1.31,0,0,0,.67.68,1.6,1.6,0,0,0,.62.13h.05v0a.57.57,0,0,1,0,.13.22.22,0,0,0,0,.13.11.11,0,0,0,0,.08.2.2,0,0,0,.2.07h0a.29.29,0,0,0,.22-.12.91.91,0,0,1,.16-.11h0a.41.41,0,0,0,.27-.08A.22.22,0,0,0,12.34,15Z"/><path class="cls-2" d="M5.45,18.74c.27-.06.64,0,.85-.26a.54.54,0,0,0,.15-.3.44.44,0,0,0,0-.16h0s0,0,0-.05v0h0l0,0,0,0h0l0,0,0,0-.59,0a1.23,1.23,0,0,1-.88.1.42.42,0,0,1-.14-.09l-.09.06a4,4,0,0,1-.9-.32l-.19-.1a1.47,1.47,0,0,0,.54-.28c.11-.09.22-.2.33-.3s.29-.24.33-.41a.33.33,0,0,0-.5-.34l0,0,0,0H3.91l0,0h0a1,1,0,0,0-.15.14.15.15,0,0,0-.06.09H3.58a3.15,3.15,0,0,1-.46,0,.29.29,0,0,0-.34.17v0l-.11.09a2.12,2.12,0,0,0-.12-.2s-.09.19-.15.18-.12-.13-.17-.09-.1,0-.16.05L2,16.7l0,0,0,0-.2.11a.55.55,0,0,0-.21.19.15.15,0,0,0,0,.17.17.17,0,0,0,.12.11l.22.21.72.36c.28.15.57.27.85.39h0a6.1,6.1,0,0,0,1.45.45l.47.09A.25.25,0,0,1,5.45,18.74Z"/><path class="cls-9" d="M11.13,9.8a1.52,1.52,0,0,1-.36-.18l-.07-.06a6.07,6.07,0,0,1-.8-.32c-.18-.08-.3-.14-.45-.19a2.33,2.33,0,0,0-.52-.13.45.45,0,0,1-.29-.25H8.48a1.16,1.16,0,0,1-.64-.07l0-.07a5.8,5.8,0,0,1-1.28.28l-.15,0L6,8.81a.44.44,0,0,0-.22-.07H5.7a1,1,0,0,1-.25.06,2.57,2.57,0,0,1-.4,0H5a4.48,4.48,0,0,1-.62.31l-.19.08h0l-.11.06a3.17,3.17,0,0,0-.41.21c-.29.16-.53.37-.82.52a5.67,5.67,0,0,0-.55.31.35.35,0,0,1,.08.16,2.17,2.17,0,0,0,.07.24l0,0,.12,0a.45.45,0,0,1,.21.12l.08.1a.47.47,0,0,1,0,.35.38.38,0,0,1,.09.15.43.43,0,0,0,0,.11.24.24,0,0,0,0,.08v0l0,.13a.39.39,0,0,1,0,.18l0,0s0,.08.05.13c0,.2.21.51.15.72s-.35.25-.57.31-.31,0-.4.16c-.25.34.16.53.27.82a4.09,4.09,0,0,1,.05,1.26c0,.24,0,.47,0,.71.44,0,.88.13,1.33.19l0-.05a.45.45,0,0,1,.21-.12l.13,0a.53.53,0,0,1,.24.06l.09.08a.32.32,0,0,1,.08.12,16.57,16.57,0,0,1,1.85.19,14.66,14.66,0,0,1,2,.41l.89.26h0l.06-.05a.53.53,0,0,1,.24-.06l.13,0,.1.05c.19-.6.42-1.19.61-1.79.06-.2.12-.4.17-.6l0,0a.4.4,0,0,1-.16-.08,1.78,1.78,0,0,1-.27-.21l-.15-.14a2.11,2.11,0,0,0-.27.25h0a.53.53,0,0,1-.13.13l-.12.05a.46.46,0,0,1-.36-.05.41.41,0,0,1-.14-.12.35.35,0,0,1-.08-.16.31.31,0,0,1,0-.19.3.3,0,0,1,.06-.18.09.09,0,0,1,0-.05,1.47,1.47,0,0,1,.1-.13.54.54,0,0,1-.4-.3.47.47,0,0,1,.2-.59l.22-.1.16-.08,0,0a.39.39,0,0,1,.29-.13l.29-.15s0,0,0-.05l0-.06,0,0,0,0,0,0-.05,0a3.61,3.61,0,0,0-.44-.22l-.16,0H9.19l0,0a.49.49,0,0,1-.59-.34.47.47,0,0,1,.33-.58,1.16,1.16,0,0,1,.8,0,4.66,4.66,0,0,1,.6.28,1.45,1.45,0,0,1,.46.43.25.25,0,0,0,0-.08q.09-.33.21-.66a.6.6,0,0,1,.16-.22v0a.48.48,0,0,1,.07-.24l.07-.1a.54.54,0,0,1,.16-.1h0l0-.63A1,1,0,0,1,11.13,9.8Z"/><path class="cls-10" d="M3.45,16.22H3a.49.49,0,0,1-.4-.26h0c-.26,0-.5,0-.75,0h0a.26.26,0,0,0-.11.07c-.25.34.2.29.31.59S3.32,16.27,3.45,16.22Z"/><path class="cls-10" d="M10.14,17.47a.48.48,0,0,1-.16-.08,2.47,2.47,0,0,1-.27-.21L9.56,17l-.27.25a2.14,2.14,0,0,1-.83-.15.41.41,0,0,1,0-.19v0a8.82,8.82,0,0,0-1.14-.22,10.49,10.49,0,0,0-1.66-.22,1.47,1.47,0,0,1-.66,0,.71.71,0,0,1-.27-.18c-.06-.05-.15-.22-.17-.23a.32.32,0,0,0-.14,0,.46.46,0,0,1,.15.62l-.07.09h0a1.94,1.94,0,0,1-.5.49,2.7,2.7,0,0,0,.4.14c.29.09.6.14.9.22s.67.22,1,.29a6.56,6.56,0,0,0,2.33.23A1.51,1.51,0,0,0,9.1,18a1.44,1.44,0,0,1,.4-.18,2.11,2.11,0,0,1,.79,0c.26-.13.59-.26.63-.39Z"/><line class="cls-4" x1="2.7" y1="12.08" x2="2.7" y2="13.18"/><path class="cls-4" d="M5.36,18a4.29,4.29,0,0,1-1.94-.5"/><path class="cls-4" d="M4.08,18.57a2.9,2.9,0,0,0,1.7.13,1.59,1.59,0,0,0,.48-.2s.32-.18.2-.44-.56-.34-1.1-.09"/><path class="cls-4" d="M3.36,17.42A1.31,1.31,0,0,0,4.44,17s.48-.5.19-.79c0,0-.22-.26-.68.06a.84.84,0,0,1-.68.16.64.64,0,0,0-.79.49"/><path class="cls-4" d="M1.35,17.21a9.23,9.23,0,0,0,3.34,1.53"/><path class="cls-4" d="M.89,12.77a4.3,4.3,0,0,0-.56,3.14"/><path class="cls-4" d="M.85,12.83a12.42,12.42,0,0,1,1.46-2.11"/><path class="cls-4" d="M11.48,15A1,1,0,0,1,10,14.31"/><path class="cls-4" d="M9.48,13.84l-.45.6s-.16.2-.06.33.56.19.85-.22l.22-.29"/><path class="cls-4" d="M10.22,13.48a.8.8,0,0,0-.59.16l-.15.2"/><path class="cls-4" d="M10.05,12.71a.65.65,0,0,0-.75.1,9.06,9.06,0,0,0-.67.67s-.16.17,0,.3.69,0,1-.4l.25.12"/><path class="cls-4" d="M9.92,12.66s-.15-.46-.15-.46l-.44-.14c-.48.1-.85-.11-.9-.34s.24-.32.24-.32l.43-.11a1,1,0,0,1,.39,0,8.78,8.78,0,0,1,.94.37,1.74,1.74,0,0,1,.28.31l1.2,2.18a2.86,2.86,0,0,1,.39,1"/><path class="cls-4" d="M12.28,14.9c.12,0,.21,0,.23,0s-.3.35-.76.54l-.41.15s-.53,0-.1-.28"/><path class="cls-4" d="M12.51,14.94s.06,1.76-2.29,1.64"/><path class="cls-4" d="M1.47,17.34c-.17.09-.29.13-.31.1s.25-.4.68-.74L2,16.61"/><line class="cls-4" x1="2.63" y1="16.11" x2="1.51" y2="14.23"/><path class="cls-4" d="M1.16,17.44A5.76,5.76,0,0,1,.35,16"/><path class="cls-6" d="M12.4,14.88a.1.1,0,0,0,0,.19A.1.1,0,0,0,12.4,14.88Z"/><line class="cls-4" x1="9.99" y1="17.19" x2="10.69" y2="15.35"/><line class="cls-4" x1="2.59" y1="16.14" x2="2.6" y2="14.08"/><path class="cls-4" d="M9.7,14.74h.46"/><path class="cls-4" d="M3.51,13c-.43.15-.7.3-.71.39,0,.24,1.7.71,3.88,1,.81.12,1.57.21,2.2.26"/><path class="cls-4" d="M11.12,15.25l-.11,0a.79.79,0,0,1-.34,0,.58.58,0,0,1-.34.09.76.76,0,0,1-.32,0,.93.93,0,0,1-.32.05.77.77,0,0,1-.33-.07.76.76,0,0,1-.33,0,.68.68,0,0,1-.33-.09.71.71,0,0,1-.34,0,.68.68,0,0,1-.33-.1.91.91,0,0,1-.35,0,.94.94,0,0,1-.31-.1.87.87,0,0,1-.33,0l-.19-.05"/><path class="cls-4" d="M2.89,13.3a.52.52,0,0,0-.28.07.48.48,0,0,0-.31,0c-.17,0-.27.15-.22.23h0l0,0c-.06.07,0,.21.23.32a.76.76,0,0,0,.31.12.72.72,0,0,0,.31.19,1,1,0,0,0,.31.05.78.78,0,0,0,.29.14.66.66,0,0,0,.33,0,.74.74,0,0,0,.31.14.79.79,0,0,0,.34,0,.88.88,0,0,0,.32.13.79.79,0,0,0,.34,0,.79.79,0,0,0,.33.12.85.85,0,0,0,.32,0,.74.74,0,0,0,.32.11h.17"/><path class="cls-4" d="M6.85,15.1a.64.64,0,0,1-.28,0A.84.84,0,0,1,6.29,15"/><line class="cls-4" x1="10.85" y1="12.08" x2="11.12" y2="10.6"/><path class="cls-4" d="M2.93,10.84l.38,2A14.5,14.5,0,0,0,8,13.7"/><path class="cls-4" d="M3,10.14c0,.25,1.8.38,4,.3s4-.34,4-.58-1.84-1.21-4-1.13S3,9.9,3,10.14Z"/><path class="cls-4" d="M10.89,9.75a.45.45,0,0,1,.27.1.5.5,0,0,1,.31,0c.17.07.25.19.2.26h0l0,0c.06.07-.06.21-.26.3a.89.89,0,0,1-.33.07.67.67,0,0,1-.32.16,1.18,1.18,0,0,1-.32,0,.75.75,0,0,1-.31.11.71.71,0,0,1-.33,0,.64.64,0,0,1-.32.1.73.73,0,0,1-.34,0,.82.82,0,0,1-.33.09.69.69,0,0,1-.34,0,.73.73,0,0,1-.34.09.76.76,0,0,1-.32,0,.74.74,0,0,1-.33.07.61.61,0,0,1-.19,0"/><path class="cls-4" d="M3.08,10a.52.52,0,0,0-.27.11.52.52,0,0,0-.3.07c-.16.08-.24.2-.18.27h0l0,0c0,.08.08.2.28.28a.88.88,0,0,0,.33.05.6.6,0,0,0,.34.13.83.83,0,0,0,.32,0,.76.76,0,0,0,.31.09.82.82,0,0,0,.33,0,.84.84,0,0,0,.33.08,1,1,0,0,0,.34,0,.86.86,0,0,0,.33.07.94.94,0,0,0,.34-.06.8.8,0,0,0,.34.06.87.87,0,0,0,.32-.06,1,1,0,0,0,.33,0l.18,0"/><path class="cls-4" d="M7.3,11.06a.65.65,0,0,1-.27,0,.78.78,0,0,1-.29,0"/><path class="cls-4" d="M3.72,16.31,1.54,16a1.65,1.65,0,0,0,.88.76"/><polyline class="cls-4" points="9.63 17.21 9.07 17.12 4.79 16.47"/><path class="cls-4" d="M10.07,17.87a1.67,1.67,0,0,0,.92-.46l-1.87-.28"/><path class="cls-4" d="M4.39,17.07l1.15.18,4.09.62a1.62,1.62,0,0,0,.44,0"/><path class="cls-4" d="M3.93,17.44l.13,0,3.93.6.15,0a2.05,2.05,0,0,0,1.45-.2"/><line class="cls-4" x1="11.08" y1="15.51" x2="11.03" y2="15.74"/><line class="cls-4" x1="11.21" y1="15.08" x2="11.42" y2="15.55"/></g></g></svg>