<svg xmlns="http://www.w3.org/2000/svg" viewBox="0 0 47.3 33.64"><defs><style>.cls-1{fill:#0d773c;}.cls-2,.cls-8{fill:#f59da0;}.cls-3{fill:#b0dceb;}.cls-4{fill:#f9b730;}.cls-5{fill:none;}.cls-5,.cls-7,.cls-8{stroke:#1c204d;stroke-linecap:round;stroke-linejoin:round;stroke-width:0.4px;}.cls-6{fill:#1c204d;}.cls-7{fill:#fff;}</style></defs><g id="Layer_1" data-name="Layer 1"><polyline class="cls-1" points="20.78 23.18 18.84 29.48 20.66 30.55 24.56 22.64"/><path class="cls-2" d="M14.22,16.56c-.23-.44-.79-.55-.66-1.15a.77.77,0,0,0-.05-.72,5.6,5.6,0,0,0-.6-.69c-.42-.49-.81-1-1.19-1.51-.21-.28-.41-.57-.61-.86a5.72,5.72,0,0,0-.57-.82,1.45,1.45,0,0,0-1.79-.2.47.47,0,0,0-.1.1c-.17,0-.35,0-.46,0-.45,0-.91,0-1.37,0a.38.38,0,0,0-.15.05H6.56l-.15,0h0l-.16.07a.43.43,0,0,0-.14.13.39.39,0,0,0-.06.11l-.11,0a.5.5,0,0,0,.27,1,5.48,5.48,0,0,1,1.27-.18.5.5,0,0,0,.37-.19h.51l0,0,.1.08a.48.48,0,0,0,.26.07c.27,0,.55.08.83.1a1.19,1.19,0,0,0,.42-.06,17,17,0,0,1,1.79,3.23,9.68,9.68,0,0,0,.76,1.55c.27.42.66,1.07,1.23,1A.76.76,0,0,0,14.22,16.56Z"/><path class="cls-3" d="M11.51,10.08l.32-.22a3,3,0,0,1,.6-.29.2.2,0,0,0,.08,0l.14,0a.45.45,0,0,0-.6-.45,4.94,4.94,0,0,1-1,.08,6.29,6.29,0,0,0-.95.24,13.71,13.71,0,0,1-2,.29,19.62,19.62,0,0,1-4.09.49c-.56-.06-.63.7-.2.94a.59.59,0,0,1,.28-.17.7.7,0,0,1,.51.06c-.17-.07,0,0,0,0l.13,0,.11,0h.06l.21,0H5.4l.28,0h0a.69.69,0,0,1,.44-.18h.41l.06,0,.08,0a2,2,0,0,1,1-.23.53.53,0,0,1,.33.09l.3,0L9,10.56a.25.25,0,0,1,0-.07l.13-.1a.69.69,0,0,1,.34-.09l.17,0a.53.53,0,0,1,.21.11c.17,0,.34,0,.5-.09a8,8,0,0,1,1-.25Z"/><path class="cls-4" d="M11.87,6.07c-.82,0-1.41-.51-2.18-.66a6.48,6.48,0,0,0-2.34.31A10.73,10.73,0,0,0,5,6.17a3,3,0,0,0-.89.56,1.25,1.25,0,0,0-.35.54c-.17,0-.4.05-.52.08-.57.12-.41,1,.13,1h.21a2.61,2.61,0,0,0,.1.36c.08.35.17.7.25,1.05a.47.47,0,0,0,.57.34.41.41,0,0,0,.38.2c1.09-.14,2.1-.6,3.2-.66.52,0,1,0,1.56-.1a10.13,10.13,0,0,1,1.72-.29.52.52,0,0,0,.5-.5c0-.46-.32-1.48.22-1.74S12.34,6.07,11.87,6.07Z"/><path class="cls-2" d="M31.91,19.39c.36-.34.93-.28,1-.89a.76.76,0,0,1,.27-.66,7.85,7.85,0,0,1,.78-.49c.55-.33,1.08-.69,1.59-1.07.29-.2.57-.42.84-.63a5.83,5.83,0,0,1,.8-.61,1.46,1.46,0,0,1,1.77.35l.06.12c.16.06.33.1.44.13l1.3.43a.24.24,0,0,1,.13.09H41l.14.06,0,0a.69.69,0,0,1,.13.11.42.42,0,0,1,.1.17s0,.08,0,.12l.1.06c.54.34,0,1.18-.55.84A5.6,5.6,0,0,0,39.81,17a.46.46,0,0,1-.3-.29L39,16.55l0,0-.12,0a.46.46,0,0,1-.26,0c-.27-.05-.56-.09-.83-.16a1.06,1.06,0,0,1-.37-.18,16.53,16.53,0,0,0-2.69,2.53,10.92,10.92,0,0,1-1.2,1.25c-.38.31-1,.82-1.47.58A.77.77,0,0,1,31.91,19.39Z"/><path class="cls-3" d="M36.46,14.05l-.24-.31a2.62,2.62,0,0,0-.48-.46l-.06-.06a.42.42,0,0,0-.12-.08.44.44,0,0,1,.71-.24,4.89,4.89,0,0,0,.88.35,9.73,9.73,0,0,1,.83.52,12.87,12.87,0,0,0,1.83.89,19.49,19.49,0,0,0,3.75,1.71c.55.11.38.86-.1.95a.63.63,0,0,0-.72-.33c.19,0,0,0,0,0h-.13l-.12,0h-.05l-.2-.05L42,16.83l-.26-.1h0a.73.73,0,0,0-.37-.3L41,16.29l-.06,0-.06-.05a2.15,2.15,0,0,0-.87-.52.56.56,0,0,0-.34,0l-.28-.13-.61-.27s0-.06,0-.08l-.09-.14a.67.67,0,0,0-.3-.19l-.17,0a.47.47,0,0,0-.23,0c-.15-.08-.3-.15-.45-.24a7.31,7.31,0,0,0-.84-.52Z"/><path class="cls-4" d="M37.34,10.12c.78.25,1.49-.06,2.28,0a6.51,6.51,0,0,1,2.13,1,10.28,10.28,0,0,1,2.06,1.13,2.83,2.83,0,0,1,.69.81,1.31,1.31,0,0,1,.17.61c.14.09.36.18.46.24.51.28.1,1-.42.89l-.19-.05-.21.31-.56.92a.48.48,0,0,1-.65.16.41.41,0,0,1-.42.07c-1-.47-1.82-1.21-2.85-1.6a15,15,0,0,1-1.45-.57,10.84,10.84,0,0,0-1.55-.8.5.5,0,0,1-.32-.63c.11-.44.74-1.31.31-1.72S36.89,10,37.34,10.12Z"/><line class="cls-5" x1="43.5" y1="16.35" x2="44.77" y2="14.72"/><line class="cls-5" x1="36.42" y1="13" x2="37.07" y2="10.93"/><path class="cls-5" d="M37.48,10.32c-.11.23,1.48,1.24,3.56,2.24S44.89,14.2,45,14s-1.12-2-3.19-3S37.59,10.09,37.48,10.32Z"/><path class="cls-5" d="M45,13.83a.45.45,0,0,1,.2.22.52.52,0,0,1,.27.19c.11.15.14.3,0,.34h0v0c0,.1-.16.16-.39.15a1,1,0,0,1-.34-.09.6.6,0,0,1-.37,0,.9.9,0,0,1-.31-.14,1,1,0,0,1-.34,0,.85.85,0,0,1-.3-.17.76.76,0,0,1-.34-.06.87.87,0,0,1-.31-.2.74.74,0,0,1-.35-.07.92.92,0,0,1-.3-.2.75.75,0,0,1-.35-.09.62.62,0,0,1-.28-.19.86.86,0,0,1-.34-.09L41,13.28"/><path class="cls-5" d="M37.6,10.25a.46.46,0,0,0-.3,0,.57.57,0,0,0-.31-.09c-.19,0-.32.08-.3.17h0c-.08.05,0,.22.13.39a.64.64,0,0,0,.28.21.58.58,0,0,0,.25.29.77.77,0,0,0,.3.15.92.92,0,0,0,.57.37.76.76,0,0,0,.26.23.93.93,0,0,0,.34.12.92.92,0,0,0,.27.23.82.82,0,0,0,.35.11.86.86,0,0,0,.28.23.82.82,0,0,0,.33.09.93.93,0,0,0,.28.21l.18.06"/><path class="cls-5" d="M41,13.28a.76.76,0,0,1-.28-.08,1,1,0,0,1-.25-.18"/><path class="cls-5" d="M39.16,15.44a1.5,1.5,0,0,0-2.33-.19l-4,2.66"/><path class="cls-5" d="M40.29,15.72l-1.13-.28"/><path class="cls-5" d="M38.76,16.28s1.11.17,1.59.26"/><path class="cls-5" d="M40.29,15.72c.37.08,1,.37,1,.7s-.48.22-.48.22l-.47-.1"/><path class="cls-5" d="M40.26,15.71h0"/><path class="cls-5" d="M40.53,17l.87.35s.4.18.47-.14a.43.43,0,0,0-.19-.37"/><path class="cls-5" d="M38.76,16.28l1.77.72"/><path class="cls-5" d="M40.18,17.25l.87.36s.4.18.47-.15"/><path class="cls-5" d="M37.43,16.09c.14.05,2.15.92,2.75,1.16"/><path class="cls-5" d="M43.13,16.25,42.6,16l-7.18-3.48a1.72,1.72,0,0,0,.9,1.21"/><path class="cls-5" d="M43.37,17.06a1.78,1.78,0,0,0,1.06-.18L42.65,16"/><path class="cls-5" d="M37.35,14.72a2.13,2.13,0,0,1-1-1L39,15l3.9,1.89a1.6,1.6,0,0,0,.44.14"/><path class="cls-5" d="M37.48,14.78l-.13-.06"/><path class="cls-5" d="M42.89,16.91a2.11,2.11,0,0,1-1.52-.24l-.14-.07"/><path class="cls-5" d="M37.43,16.09,33.15,20.4a1.22,1.22,0,0,1-1.68-.12"/><path class="cls-1" d="M26,26.73a.36.36,0,0,1,0-.14c.26-.73.53-1.46.73-2.21a6.7,6.7,0,0,1,.57-1.81c0-.05.06-.07.09-.1h0l-.14-.05a.39.39,0,0,0-.36,0,2.54,2.54,0,0,1-.39,0,2.84,2.84,0,0,0-.42-.05,2.17,2.17,0,0,1-.36,0,.3.3,0,0,0-.18-.07l-1.24,0h-.44l-.05,0-.05.05,0,0s0,0,0,.05a.3.3,0,0,1-.29,0h0a2.34,2.34,0,0,1,.55.66.47.47,0,0,1,0,.16h.12l.05,0h0l.05.06.1.13.18.22.05.06a1.21,1.21,0,0,0-.07.2c-.07.22-.43.29-.51.5s-.07.43-.13.58-.37,2-.51,2.48a.2.2,0,0,0,0,.13l-.15.36a.17.17,0,0,0,0,.17c-.23.5-.43,1-.63,1.51a0,0,0,0,1,0,0h0l0,.05h0v.1l0,.05.05.05,0,0,.05,0h.09a.37.37,0,0,0,.29,0l.13,0c.16,0,.32,0,.48,0s.62,0,.94-.07a.3.3,0,0,0,.27-.2l.29-.82a.25.25,0,0,0,0-.17c.21-.46.43-.92.63-1.38C25.89,27.1,26,26.91,26,26.73Z"/><path class="cls-6" d="M26.78,30.46l-.06-.05a4.19,4.19,0,0,0-1.34-.54,2.16,2.16,0,0,0-.76,0,2.13,2.13,0,0,0-.65.2l-.36,0-.26,0h-.08l-.16,0a.29.29,0,0,0-.35.27h0a.52.52,0,0,0-.1.11c-.11.16-.15.35-.26.51l0,0h0a.14.14,0,0,0,0,.06.17.17,0,0,0,0,.14.36.36,0,0,0,.11.26.33.33,0,0,0,.26.11A.38.38,0,0,0,23,31.4h0a2.11,2.11,0,0,1,.25,0l.28,0a5.56,5.56,0,0,0,.58,0,11.22,11.22,0,0,1,1.16,0,3.09,3.09,0,0,0,1.05,0c.36.06.8.11.94-.23S27.07,30.57,26.78,30.46Z"/><path class="cls-6" d="M16.58,28.62a.31.31,0,0,1,.22-.11,2.34,2.34,0,0,1,1.16.28,3.17,3.17,0,0,1,.85.74,4,4,0,0,1,.58.31c.1.07.19.16.29.22l0,0h0l0,0h0s.13,0,0,0a.29.29,0,0,1,.26.11.26.26,0,0,1,0,.28,1,1,0,0,1-.07.15.26.26,0,0,1,0,.15,4.47,4.47,0,0,1-.33.7,2,2,0,0,0-.12.34,1.4,1.4,0,0,1-.1.35c-.13.25-.31.34-.53.19a2.81,2.81,0,0,1-.53-.7c-.25-.37-.59-.76-.83-1.13a.33.33,0,0,1-.14-.1c-.35-.48-.72-.94-1.12-1.39A.3.3,0,0,1,16.58,28.62Z"/><line class="cls-5" x1="19.46" y1="32.33" x2="20.24" y2="30.3"/><path class="cls-5" d="M19.46,30.57a5.06,5.06,0,0,0-.87-1.33c-.51-.49-1.42-1.15-2.19-.58,0,0-.23.16-.08.36s2.59,3.27,2.59,3.27.3.42.55,0"/><path class="cls-5" d="M22.37,31.08s-.15.36.37.36H26.8a.44.44,0,0,0,.45-.49c0-.48-1.11-1.12-2.32-1.07a3.24,3.24,0,0,0-1.37.35"/><polyline class="cls-5" points="20.78 23.18 18.84 29.48 20.66 30.55 24.56 22.64"/><path class="cls-5" d="M24.31,30c-.26,0-1.82,0-1.82,0l1.75-6.28"/><line class="cls-5" x1="24.8" y1="29.89" x2="27.15" y2="23.53"/><path class="cls-5" d="M27.24,31.08c-.07,0-4.87,0-4.87,0l.4-1"/><line class="cls-5" x1="16.49" y1="28.6" x2="19.41" y2="32.39"/><ellipse class="cls-4" cx="23.89" cy="13.26" rx="9.22" ry="10.18" transform="translate(-1.75 3.81) rotate(-8.8)"/><path class="cls-4" d="M34,10.12a1.19,1.19,0,0,0-.75-.5,1.2,1.2,0,0,0,0-1.3,1.17,1.17,0,0,0-.75-.5A1.18,1.18,0,0,0,31.22,6a1.18,1.18,0,0,0-.5-1.19,1.17,1.17,0,0,0-.86-.18,1.19,1.19,0,0,0-.9-1.3,1.14,1.14,0,0,0-.89.14,1.18,1.18,0,0,0-.89-.94,1.13,1.13,0,0,0-.88.14,1.18,1.18,0,0,0-1.33-1,1.2,1.2,0,0,0-.77.47A1.2,1.2,0,0,0,23,1.67a1.18,1.18,0,0,0-.83.58,1.17,1.17,0,0,0-1.93.57,1.15,1.15,0,0,0-.87-.21,1.18,1.18,0,0,0-1,1.31,1.17,1.17,0,0,0-.87.13A1.18,1.18,0,0,0,17,5.22a1.17,1.17,0,0,0-1.35,1.64,1.18,1.18,0,0,0-.77.43,1.21,1.21,0,0,0-.12,1.3,1.18,1.18,0,0,0-.63,2.07,1.2,1.2,0,0,0-.2,1.95,1.17,1.17,0,0,0-.56.7,1.19,1.19,0,0,0,.56,1.39,1.19,1.19,0,0,0-.12,1.49,1.21,1.21,0,0,0,.76.5,1.2,1.2,0,0,0,0,1.3,1.22,1.22,0,0,0,.75.5,1.19,1.19,0,0,0,.35,1.61,1.17,1.17,0,0,0,.88.18A1.17,1.17,0,0,0,17,21.47a1.16,1.16,0,0,0,.86.18,1.18,1.18,0,0,0,.9,1.3,1.12,1.12,0,0,0,.88-.14,1.19,1.19,0,0,0,.89.94,1.11,1.11,0,0,0,.88-.14,1.18,1.18,0,0,0,2.11.49,1.18,1.18,0,0,0,1.17.54,1.16,1.16,0,0,0,.83-.58,1.21,1.21,0,0,0,1,.3,1.18,1.18,0,0,0,1-.87,1.18,1.18,0,0,0,1.86-1.1,1.17,1.17,0,0,0,1.44-1.3,1.16,1.16,0,0,0,.89-.13,1.19,1.19,0,0,0,.47-1.51,1.16,1.16,0,0,0,.76-.43,1.21,1.21,0,0,0,.12-1.3,1.16,1.16,0,0,0,.79-.43,1.19,1.19,0,0,0-.16-1.64,1.21,1.21,0,0,0,.57-.7,1.19,1.19,0,0,0-.37-1.25,1.19,1.19,0,0,0,0-2.09A1.19,1.19,0,0,0,34,10.12Z"/><ellipse class="cls-5" cx="23.89" cy="13.26" rx="9.22" ry="10.18" transform="translate(-1.75 3.81) rotate(-8.8)"/><path class="cls-5" d="M34,10.12a1.19,1.19,0,0,0-.75-.5,1.2,1.2,0,0,0,0-1.3,1.17,1.17,0,0,0-.75-.5A1.18,1.18,0,0,0,31.22,6a1.18,1.18,0,0,0-.5-1.19,1.17,1.17,0,0,0-.86-.18,1.19,1.19,0,0,0-.9-1.3,1.14,1.14,0,0,0-.89.14,1.18,1.18,0,0,0-.89-.94,1.13,1.13,0,0,0-.88.14,1.18,1.18,0,0,0-1.33-1,1.2,1.2,0,0,0-.77.47A1.2,1.2,0,0,0,23,1.67a1.18,1.18,0,0,0-.83.58,1.17,1.17,0,0,0-1.93.57,1.15,1.15,0,0,0-.87-.21,1.18,1.18,0,0,0-1,1.31,1.17,1.17,0,0,0-.87.13A1.18,1.18,0,0,0,17,5.22a1.17,1.17,0,0,0-1.35,1.64,1.18,1.18,0,0,0-.77.43,1.21,1.21,0,0,0-.12,1.3,1.18,1.18,0,0,0-.63,2.07,1.2,1.2,0,0,0-.2,1.95,1.17,1.17,0,0,0-.56.7,1.19,1.19,0,0,0,.56,1.39,1.19,1.19,0,0,0-.12,1.49,1.21,1.21,0,0,0,.76.5,1.2,1.2,0,0,0,0,1.3,1.22,1.22,0,0,0,.75.5,1.19,1.19,0,0,0,.35,1.61,1.17,1.17,0,0,0,.88.18A1.17,1.17,0,0,0,17,21.47a1.16,1.16,0,0,0,.86.18,1.18,1.18,0,0,0,.9,1.3,1.12,1.12,0,0,0,.88-.14,1.19,1.19,0,0,0,.89.94,1.11,1.11,0,0,0,.88-.14,1.18,1.18,0,0,0,2.11.49,1.18,1.18,0,0,0,1.17.54,1.16,1.16,0,0,0,.83-.58,1.21,1.21,0,0,0,1,.3,1.18,1.18,0,0,0,1-.87,1.18,1.18,0,0,0,1.86-1.1,1.17,1.17,0,0,0,1.44-1.3,1.16,1.16,0,0,0,.89-.13,1.19,1.19,0,0,0,.47-1.51,1.16,1.16,0,0,0,.76-.43,1.21,1.21,0,0,0,.12-1.3,1.16,1.16,0,0,0,.79-.43,1.19,1.19,0,0,0-.16-1.64,1.21,1.21,0,0,0,.57-.7,1.19,1.19,0,0,0-.37-1.25,1.19,1.19,0,0,0,0-2.09A1.19,1.19,0,0,0,34,10.12Z"/><line class="cls-5" x1="4.11" y1="10.14" x2="3.39" y2="8.2"/><line class="cls-5" x1="11.87" y1="9.09" x2="11.88" y2="6.93"/><path class="cls-5" d="M11.68,6.22c0,.26-1.79.73-4.07,1.06s-4.17.38-4.21.13,1.68-1.59,4-1.92S11.64,6,11.68,6.22Z"/><path class="cls-5" d="M3.47,7.28a.49.49,0,0,0-.27.15.62.62,0,0,0-.31.1c-.15.11-.22.25-.15.31h0l0,0c0,.09.11.2.33.26a.86.86,0,0,0,.35,0,.7.7,0,0,0,.36.1,1.11,1.11,0,0,0,.34-.05.72.72,0,0,0,.33.06,1,1,0,0,0,.34-.07.89.89,0,0,0,.35,0,.81.81,0,0,0,.35-.09.73.73,0,0,0,.35,0,.85.85,0,0,0,.35-.11.7.7,0,0,0,.37,0A.67.67,0,0,0,6.87,8a.78.78,0,0,0,.35,0l.19,0"/><path class="cls-5" d="M11.58,6.11a.44.44,0,0,1,.29.08.54.54,0,0,1,.33,0c.18,0,.28.17.23.25h0a0,0,0,0,1,0,0c.07.07,0,.22-.24.33a.89.89,0,0,1-.33.12.68.68,0,0,1-.32.2,1.06,1.06,0,0,1-.33,0,1,1,0,0,1-.66.18.8.8,0,0,1-.32.14.89.89,0,0,1-.36,0,.87.87,0,0,1-.33.13.72.72,0,0,1-.36,0,.71.71,0,0,1-.34.13,1,1,0,0,1-.34,0,.91.91,0,0,1-.33.11H8"/><path class="cls-5" d="M7.42,8a.69.69,0,0,0,.29,0A.9.9,0,0,0,8,7.88"/><path class="cls-5" d="M8.52,10.58a1.28,1.28,0,0,1,.82-.31,1.29,1.29,0,0,1,1.46.84l3,3.74"/><path class="cls-5" d="M7.36,10.51l1.16.07"/><path class="cls-5" d="M8.65,11.51l-1.6-.23"/><path class="cls-5" d="M7.36,10.51c-.38,0-1.1,0-1.18.36s.39.36.39.36l.48,0"/><path class="cls-5" d="M7.39,10.51h0"/><path class="cls-5" d="M6.74,11.65l-.94.08s-.43,0-.39-.28c0-.13.13-.23.29-.29"/><path class="cls-5" d="M8.65,11.51l-1.91.14"/><path class="cls-5" d="M7,12l-.94.07s-.44.05-.4-.28"/><path class="cls-5" d="M10,11.73c-.15,0-2.33.23-3,.28"/><path class="cls-5" d="M4.49,10.15l.59-.08L13,8.93a1.74,1.74,0,0,1-1.23.88"/><path class="cls-5" d="M4,10.85a1.73,1.73,0,0,1-.95-.49l2-.28"/><path class="cls-5" d="M10.46,10.45a2.06,2.06,0,0,0,1.26-.64l-3,.42-4.29.62a1.85,1.85,0,0,1-.47,0"/><path class="cls-5" d="M10.32,10.47l.14,0"/><path class="cls-5" d="M4.51,10.86A2.23,2.23,0,0,0,6,11.09l.15,0"/><path class="cls-5" d="M10,11.73l2.76,5.41a1.22,1.22,0,0,0,1.64.39"/><ellipse class="cls-2" cx="24.09" cy="11.65" rx="3.69" ry="3.34" transform="translate(12.31 35.68) rotate(-89.7)"/><ellipse class="cls-5" cx="24.09" cy="11.65" rx="3.69" ry="3.34" transform="translate(12.31 35.68) rotate(-89.7)"/><path class="cls-5" d="M25.91,12.21a2.36,2.36,0,0,1-3.81.07"/><circle class="cls-7" cx="22.95" cy="10.93" r="1.05"/><circle class="cls-7" cx="25.05" cy="10.9" r="1.05"/><path class="cls-8" d="M24,12.42a.77.77,0,0,1-.34-.08"/><path class="cls-8" d="M23.66,12.34a.75.75,0,0,1-.42-.66.76.76,0,1,1,1.51,0,.76.76,0,0,1-.29.6"/><circle class="cls-6" cx="22.95" cy="10.96" r="0.28"/><circle class="cls-6" cx="25.07" cy="10.93" r="0.28"/></g></svg>