<svg xmlns="http://www.w3.org/2000/svg" viewBox="0 0 87.95 60.46"><defs><style>.cls-1{fill:#0077bf;}.cls-1,.cls-2{stroke:#1c204d;}.cls-1,.cls-2,.cls-5,.cls-7,.cls-8{stroke-linecap:round;stroke-linejoin:round;}.cls-1,.cls-2,.cls-5,.cls-8{stroke-width:0.8px;}.cls-2,.cls-5,.cls-7,.cls-8{fill:none;}.cls-3{fill:#ea4827;}.cls-4{fill:#f47951;}.cls-5{stroke:#f8c6dc;}.cls-6{fill:#af6e30;}.cls-7{stroke:#f9b730;stroke-width:2.01px;}.cls-8{stroke:#fff;}</style></defs><g id="Layer_1" data-name="Layer 1"><polyline class="cls-1" points="77.66 11.12 78.62 56.83 8.89 56.98 9.03 11.27"/><line class="cls-2" x1="9.03" y1="11.27" x2="77.66" y2="11.12"/><path class="cls-3" d="M44.63,49.35a1.91,1.91,0,0,1-.62.1l-20.24,0a1.35,1.35,0,0,1-1.32-.89l-2.52-6.88a2.73,2.73,0,0,1,1.27-2.95c1-.67,2.17-.44,2.52.51l2.19,6,19.25,0c1.06,0,1.65.94,1.34,2.11A3.06,3.06,0,0,1,44.63,49.35Z"/><path class="cls-3" d="M62.81,49.31a1.88,1.88,0,0,1-.62.11L42,49.46c-1.05,0-1.65-1-1.33-2.11a2.84,2.84,0,0,1,2.48-2.12l18.44,0,1.58-4.89a2.81,2.81,0,0,1,2.56-2c1,.07,1.57,1.06,1.19,2.23l-2.23,6.88A3,3,0,0,1,62.81,49.31Z"/><path class="cls-4" d="M44.61,48.54a1.21,1.21,0,0,1-.37.07L24,48.64a.81.81,0,0,1-.79-.53l-2.52-6.88a1.63,1.63,0,0,1,.76-1.77c.63-.4,1.3-.27,1.51.31l2.32,6.34,19.65,0c.63,0,1,.57.8,1.27A1.78,1.78,0,0,1,44.61,48.54Z"/><path class="cls-4" d="M62.8,48.51a1.26,1.26,0,0,1-.38.06l-20.24,0c-.63,0-1-.56-.8-1.26a1.71,1.71,0,0,1,1.49-1.27L62,46l1.84-5.69a1.67,1.67,0,0,1,1.54-1.19c.62,0,.94.63.71,1.33L63.9,47.37A1.83,1.83,0,0,1,62.8,48.51Z"/><polyline class="cls-5" points="21.83 40.5 24.34 47.38 44.59 47.34"/><polyline class="cls-5" points="65 40.42 62.77 47.31 42.53 47.34"/><path class="cls-6" d="M67.24,42a13.24,13.24,0,0,1-3.47.65,18.23,18.23,0,0,1-9.19-2.21,11.5,11.5,0,0,1-1.16.61,10.05,10.05,0,0,1-9.84-.37c-.23-.16-.45-.33-.67-.51l-.39.29a10.26,10.26,0,0,1-10.07.71,9.8,9.8,0,0,1-1.29-.7A18.47,18.47,0,0,1,22,42.67c-.42,0-9-.33-9-7.71a6.28,6.28,0,0,1,2.13-4.84c2.39-2.12,6-2,8.28-1.58A16.79,16.79,0,0,1,27.17,24c3.92-3.34,9.22-5,15.77-5.06h1.28c13.18,0,18,6.78,19.38,9.64,4.11-.86,9.73-.57,10,5a7.81,7.81,0,0,1-2,5.67A9.91,9.91,0,0,1,67.24,42Zm-9.46-5.1a15.59,15.59,0,0,0,7.09,1.52c.93,0,3.27-.46,4.23-1.54A2.37,2.37,0,0,0,69.6,35c-.19-4-7.36-2-7.43-2a1.43,1.43,0,0,1-1.89-.88c-.12-.36-3.08-9-17.21-8.93H41.79C28.6,23.18,26.23,30.7,26.13,31a3.15,3.15,0,0,1-1.19,1.64,2.1,2.1,0,0,1-1.72.4c-2.62-.74-5.56-.64-6.14,0a1.79,1.79,0,0,0-.11.73c0,4.43,6.13,4.68,6.19,4.69a15.65,15.65,0,0,0,5.5-.94,8.2,8.2,0,0,1-.38-4.08,9.08,9.08,0,0,1,3.86-6.58,4.12,4.12,0,0,1,4.3-.41c1,.63,1.9,2.58,1.56,5.06a10.65,10.65,0,0,1-2.89,5.76,6.84,6.84,0,0,0,5.63,0A13.5,13.5,0,0,1,39.37,32a5.54,5.54,0,0,1,.54-3,4.37,4.37,0,0,1,3.85-2.49h0a3.11,3.11,0,0,1,2.8,1.6,5,5,0,0,1,.51,2.56,13.92,13.92,0,0,1-1.28,5.75,6.28,6.28,0,0,0,.58.47,6.34,6.34,0,0,0,4.81.84c-3.24-3.38-3-6.6-2.65-7.95a5.17,5.17,0,0,1,2.08-3.2,4,4,0,0,1,4.3.06,8,8,0,0,1,3.32,5.47A8.11,8.11,0,0,1,57.78,36.85Zm-5.43-6.31a6.53,6.53,0,0,0,2,3.75c0-.1,0-.2-.05-.3A5.2,5.2,0,0,0,52.35,30.54Zm-18.77-.32c-.09,0-.19.09-.2.09a3.78,3.78,0,0,0-1.15,2.46,4.37,4.37,0,0,0,.21,2.28A5.5,5.5,0,0,0,34,32.41a2.74,2.74,0,0,0-.31-2.2A.14.14,0,0,0,33.58,30.22Z"/><path class="cls-7" d="M43.19,28.63a1.76,1.76,0,0,1,1.58.92,3.39,3.39,0,0,1,.3,1.7c0,2.85-1,5.87-3.29,7.51s-5.52,1.55-8.14.37a6,6,0,0,1-2.78-2.23,5.81,5.81,0,0,1-.61-3.8,6.27,6.27,0,0,1,2.51-4.52,2.26,2.26,0,0,1,2.34-.23c1,.59,2.52,4.91-2.77,9.14a15.41,15.41,0,0,1-9.8,3.07S15,40.35,15,34.36,24.23,31,24.23,31s2.67-9.94,18.14-10h1.27c15.47,0,18.56,9.9,18.56,9.9s9.12-2.67,9.39,3.32-7.3,6.22-7.3,6.22a15.82,15.82,0,0,1-9.92-3c-5.47-4.21-4.09-8.54-3.15-9.13a2.27,2.27,0,0,1,2.34.23,6.49,6.49,0,0,1,2.7,4.5,5.74,5.74,0,0,1-.44,3.8,5.79,5.79,0,0,1-2.7,2.25A8.41,8.41,0,0,1,45,38.76c-2.38-1.64-3.44-4.65-3.61-7.51a3.16,3.16,0,0,1,.23-1.7,1.65,1.65,0,0,1,1.59-.92"/><path class="cls-8" d="M43.19,28.63a1.76,1.76,0,0,1,1.58.92,3.39,3.39,0,0,1,.3,1.7c0,2.85-1,5.87-3.29,7.51s-5.52,1.55-8.14.37a6,6,0,0,1-2.78-2.23,5.81,5.81,0,0,1-.61-3.8,6.27,6.27,0,0,1,2.51-4.52,2.26,2.26,0,0,1,2.34-.23c1,.59,2.52,4.91-2.77,9.14a15.41,15.41,0,0,1-9.8,3.07S15,40.35,15,34.36,24.23,31,24.23,31s2.67-9.94,18.14-10h1.27c15.47,0,18.56,9.9,18.56,9.9s9.12-2.67,9.39,3.32-7.3,6.22-7.3,6.22a15.82,15.82,0,0,1-9.92-3c-5.47-4.21-4.09-8.54-3.15-9.13a2.27,2.27,0,0,1,2.34.23,6.49,6.49,0,0,1,2.7,4.5,5.74,5.74,0,0,1-.44,3.8,5.79,5.79,0,0,1-2.7,2.25A8.41,8.41,0,0,1,45,38.76c-2.38-1.64-3.44-4.65-3.61-7.51a3.16,3.16,0,0,1,.23-1.7,1.65,1.65,0,0,1,1.59-.92"/></g></svg>