<svg xmlns="http://www.w3.org/2000/svg" viewBox="0 0 75.46 77.15"><defs><style>.cls-1{fill:#89d3de;}.cls-2,.cls-6{fill:#f9b730;}.cls-3{fill:#af6e30;}.cls-4,.cls-5{fill:none;}.cls-4{stroke:#1c204d;}.cls-4,.cls-5,.cls-6{stroke-linecap:round;stroke-linejoin:round;stroke-width:0.8px;}.cls-5,.cls-6{stroke:#1b214e;}</style></defs><g id="Layer_1" data-name="Layer 1"><path class="cls-1" d="M70.66,47.89a7.23,7.23,0,0,0-1.15-.65.67.67,0,0,0-.3-.3A7.37,7.37,0,0,1,68,46.3l-.27-.18-.14-.1,0,0-.1-.07-.13-.11-.27-.24A1,1,0,0,0,66,45.44,5.84,5.84,0,0,0,62,45a1.73,1.73,0,0,0-.79.49,53.22,53.22,0,0,1-16.35-1.86,20.21,20.21,0,0,1-6.16-2.31c-.27-.37-.56-.72-.83-1.1A3.13,3.13,0,0,0,36.32,39c-.91-1.2-1.94-2.65-3.24-3v0c.07-.3.13-.6.21-.89a1.73,1.73,0,0,0-.2-2.29,1.82,1.82,0,0,0-.23-.15,4,4,0,0,0-.79-1.4,1.63,1.63,0,0,0-.85-1.32l-.14-.06c-.61-.28-1.11-.76-1.73-1a3.44,3.44,0,0,0-1.81-.38,4.44,4.44,0,0,0-1.87.61,11.07,11.07,0,0,0-1.25.91,3.92,3.92,0,0,0-1,1.35,6.46,6.46,0,0,0-.84,3.23,2,2,0,0,0,.54,1.31s.08,0,.11.07A11.45,11.45,0,0,0,25.65,42,16.16,16.16,0,0,0,28,44.17l3,2.34a1,1,0,0,0,1.14.09,24,24,0,0,0,1.63,2.71,15.43,15.43,0,0,0,3.74,4.77A5.27,5.27,0,0,1,37,55.26c-.12.17-.4.68-.6.76.34-.14-.38-.2-.48-.22-.8-.15-2.35-.47-2.87.4-1.18,2,3.44,3.64,4.6,4.16a36.89,36.89,0,0,0,7.84,2.42c1.36.26,2.7.58,4,.94a5.29,5.29,0,0,0,3.51.07.93.93,0,0,0,.41-1.54,9.12,9.12,0,0,0-2.32-1.57.58.58,0,0,0-.18,0,1.54,1.54,0,0,0-.16-.53c-.13-.25-.29-.51-.43-.77,0-.05,0-.09.05-.14a2.44,2.44,0,0,0,0-.27,16.78,16.78,0,0,0,7-3.18c1.22-1,2.33-2.06,3.58-3a14.72,14.72,0,0,1,4.61-2.28,1.88,1.88,0,0,0,.86-.59A1.45,1.45,0,0,0,68,49.73l2.23-.13a1,1,0,0,0,.89-.67A1,1,0,0,0,70.66,47.89Zm-41.78-6.3A11.1,11.1,0,0,1,26,37.79s0-.07,0-.11c0-.35,0-.69,0-1a4.5,4.5,0,0,1-.25-1.7,3.52,3.52,0,0,1,.36-1.35,2.76,2.76,0,0,1,.94-1l0,0a4.58,4.58,0,0,1,.7-.44,7.82,7.82,0,0,1,.72.45,5,5,0,0,0,.66.39h0l.25.12h0l.15.07a5.45,5.45,0,0,0,.46.38,5.3,5.3,0,0,0-.35,1c-.1.47-.22.93-.3,1.41a5.51,5.51,0,0,0,0,2.14,3.3,3.3,0,0,0,.88,1.64,12.57,12.57,0,0,0,.58,3.41C30.15,42.62,29.5,42.11,28.88,41.59Z"/><path class="cls-2" d="M63.49,42.32a4.11,4.11,0,0,1-1.07-1.09,1.77,1.77,0,0,0-1.36-.81,2.13,2.13,0,0,0-.27-.62,34.36,34.36,0,0,0-7.7-8.64.91.91,0,0,0,.23-.6l.06-3.31a2,2,0,0,0-.46-1.59,1.07,1.07,0,0,0-.19-.13,1.34,1.34,0,0,0-.54-.34,1.58,1.58,0,0,0-1,.1H51.1l-.23.08a.8.8,0,0,0-.39.47,11.33,11.33,0,0,0-2.76,1.33c-.06,0-.11.1-.17.15l-.23-.1-.25-.08-.12,0a8,8,0,0,0-.84-.11,3.13,3.13,0,0,0-.91.09,10.78,10.78,0,0,0-3-1.06,3.62,3.62,0,0,0-.57,0,6.6,6.6,0,0,0-1.59-.32.91.91,0,0,0-1-.33c-1,.38-2.08.71-3.14,1a8.37,8.37,0,0,1-2.06.43l-.18-.11a.39.39,0,0,1-.1-.08.91.91,0,0,0-.65-.27,1.28,1.28,0,0,0-.27.05,1.86,1.86,0,0,0-.72-.24,1.45,1.45,0,0,0-1.39.65c-.48.79,0,1.78.51,2.52a1.38,1.38,0,0,0,.27.91A7,7,0,0,0,33.15,32l.05,0a1.07,1.07,0,0,0-.05.4c.07.91.09,1.83.13,2.75a5,5,0,0,0-1.1,1.14,13,13,0,0,0-.81,1.4,6.6,6.6,0,0,1-.36.64c-.06.11-.33.37-.05.1-.11.1-.2.21-.31.31a1.86,1.86,0,0,0,.82,3.08,5.57,5.57,0,0,0,2.19,0l.78-.13h.68c.79,0,1.58.07,2.38.08.9,1.26,2.7,2,4.08,2.51a33,33,0,0,0,7.06,1.38,34.13,34.13,0,0,0,7.07.25c2.47-.14,4.87.09,7.34-.26C64.77,45.44,64.64,43.11,63.49,42.32Z"/><path class="cls-3" d="M62.6,41.3a1,1,0,0,0-.66-.27,1.11,1.11,0,0,0-.36.13s0,0,0-.06q-2.22-3.16-4.35-6.41a2,2,0,0,0-.92-.74.22.22,0,0,1,0-.08,3.65,3.65,0,0,1-.48-.38,6.2,6.2,0,0,1-.53-.62c-.22-.3-.42-.62-.63-.92a.77.77,0,0,0-.66.44,3.9,3.9,0,0,0-.37,1.5,1.33,1.33,0,0,1,0,.28h0c-.22,0-.51-.41-.64-.54-.76-.79-1.8-1.51-2.91-.88a2.33,2.33,0,0,0-.9,2.83,8.74,8.74,0,0,0,2.06,2.63c.63.71.93,1.67.11,2.39a2.47,2.47,0,0,1-1.6.38,3.39,3.39,0,0,0-1.44.38c-1.14.66-1.13,1.84-.77,3a2.26,2.26,0,0,1,0,1.43c.61.1,1.23.21,1.83.33v0a2.63,2.63,0,0,0,.3.08c.26.06.52.1.78.17,0,0,0,0,.06,0a5.36,5.36,0,0,0,1,0,13.15,13.15,0,0,0,1.39-.16l.45-.07.26,0h.12a22.88,22.88,0,0,1,5.23,0,1.62,1.62,0,0,0,1.42-.7l1.35.07a.69.69,0,0,0,.2,0,3.13,3.13,0,0,0,1.52-.07h0a1.08,1.08,0,0,0,.73-.62.94.94,0,0,0,.06-.44,1.46,1.46,0,0,0,.2-.71C64.38,42.6,63.33,41.88,62.6,41.3Z"/><path class="cls-3" d="M46.39,34.12a.21.21,0,0,1,0-.06,2.23,2.23,0,0,0-.19-.24.52.52,0,0,0-.1-.11l-.24-.19-.06,0-.07,0-.28-.12a.66.66,0,0,0-.37,0,.62.62,0,0,0-.34.11s0,0,0,0h0l-.19.15a.9.9,0,0,0-.23.4l0,.25a.94.94,0,0,0,.13.46,2.25,2.25,0,0,0,.24.3l.06.05.25.19a.57.57,0,0,0,.13.08,2.35,2.35,0,0,0,.37.14l.24,0,.25,0,.22-.09a.72.72,0,0,0,.25-.24.37.37,0,0,0,.12-.2.48.48,0,0,0,.07-.23.53.53,0,0,0,0-.25A.85.85,0,0,0,46.39,34.12Z"/><line class="cls-4" x1="33.34" y1="38.08" x2="33.02" y2="31.7"/><path class="cls-4" d="M62,42.51c-.18,1.42-6.84-.71-14.87-4.76s-14.38-8.48-14.2-9.9,7.53-4.05,15.56,0S62.19,41.09,62,42.51Z"/><path class="cls-4" d="M34.28,26.72a2.1,2.1,0,0,0-.84-.47,1.12,1.12,0,0,0-1.06.13,1.3,1.3,0,0,0-1.15-.27,1,1,0,0,0-.88,1.17s0,0,0,0a.23.23,0,0,0-.09.08c-.24.33.11,1.27.79,2.11a3.21,3.21,0,0,0,1.15,1,3.47,3.47,0,0,0,1.1,1.4,2.46,2.46,0,0,0,1.17.6,3.73,3.73,0,0,0,1.06,1.14,2.48,2.48,0,0,0,1.21.5,3.73,3.73,0,0,0,1.11,1.09,2.14,2.14,0,0,0,1.28.4,3.26,3.26,0,0,0,1.15,1.08,2,2,0,0,0,1.28.35,3.31,3.31,0,0,0,1.18,1.05A2,2,0,0,0,44,38.4a3.4,3.4,0,0,0,1.14.94,2.89,2.89,0,0,0,.71.25"/><path class="cls-4" d="M61.11,40.25a2,2,0,0,1,.85.38,2.61,2.61,0,0,1,.89,1.11,2,2,0,0,1,1.08.86c.53.72.74,1.55.48,1.86l0,0a.47.47,0,0,1,.06.15c.13.52-.41,1-1.21,1.1A1.92,1.92,0,0,1,62,45.49a1.51,1.51,0,0,1-1.31.2,2.75,2.75,0,0,1-1.17-.59,1.75,1.75,0,0,1-1.2,0,2.65,2.65,0,0,1-1.19-.71,1.73,1.73,0,0,1-1.24-.1,3,3,0,0,1-1.22-.84,1.82,1.82,0,0,1-1.27-.15,3,3,0,0,1-1.21-.91,1.82,1.82,0,0,1-1.29-.19,3.07,3.07,0,0,1-1.14-.88,1.92,1.92,0,0,1-1.23-.26,2.84,2.84,0,0,1-.63-.44"/><path class="cls-4" d="M45.84,39.58a2.8,2.8,0,0,0,1,.74,2.13,2.13,0,0,0,1.09.29"/><path class="cls-4" d="M32.14,35.82a4.21,4.21,0,0,1,0-1.17"/><path class="cls-4" d="M69.84,48.59c-5-1.86-8.14-2.81-13.52-2.5s-11,.2-17.63-2.93a17.34,17.34,0,0,1-2-1.25"/><path class="cls-4" d="M50,58.84c4.91-.17,7.52-3.39,10-5.42a14.4,14.4,0,0,1,9.86-3.62s1.23-.16,1.36-1-2.09-2.54-6.39-4.16"/><path class="cls-4" d="M39.7,55.57a21.15,21.15,0,0,0,5.38,2.53c.54.17,1.07.3,1.57.41"/><path class="cls-4" d="M32.87,33.22a2.78,2.78,0,0,0-3.54,3c.39,7.88,3.72,14,8.45,17.94"/><path class="cls-4" d="M30.5,43.29a13.5,13.5,0,0,1-2.71-2.68,9.52,9.52,0,0,1-2-5.3,5.32,5.32,0,0,1,.47-2.38,1.37,1.37,0,0,1,.26-.41.65.65,0,0,1,.28-.27c.05,0,.09-.09.13-.1l.11,0c0-.06.25,0,.37-.05a2.69,2.69,0,0,1,1.71.85,7.35,7.35,0,0,1,.78.86"/><path class="cls-4" d="M33,32.47a7.14,7.14,0,0,0-1.89-2.14,6.13,6.13,0,0,0-4.16-1.63,4,4,0,0,0-1.12.22l-.58.25a3.38,3.38,0,0,0-.47.35,3,3,0,0,0-.74.81,3.48,3.48,0,0,0-.5.9,8.53,8.53,0,0,0-.59,3.85,13,13,0,0,0,3,7.1,21.76,21.76,0,0,0,6.18,4.75"/><path class="cls-4" d="M35.37,56.85c-.12.78,3.35,2.52,7.75,3.88s8.08,1.82,8.21,1a9.29,9.29,0,0,1-.82-2.8"/><path class="cls-4" d="M36.25,55.87c-2.08-.16-3.44.1-3.55.81-.22,1.39,4.32,4,10.15,5.77s10.73,2.12,10.95.73c.11-.71-1-1.73-2.94-2.8"/><path class="cls-4" d="M35.39,56.74A4.15,4.15,0,0,0,37.28,54"/><path class="cls-4" d="M38.71,41.84,32,41.79s-2.37-.06-1.63-2.15a31.68,31.68,0,0,1,2.75-5.17"/><line class="cls-4" x1="35.61" y1="37.66" x2="32.69" y2="38.28"/><path class="cls-4" d="M53.5,31.21l0-4.48s0-2.38-2.13-1.66a25.09,25.09,0,0,0-4.06,2"/><line class="cls-4" x1="49.76" y1="28.43" x2="50" y2="27.39"/><path class="cls-2" d="M41.21,26v0a.53.53,0,0,1-.08-.22A2.27,2.27,0,0,1,41.6,24a1.73,1.73,0,0,1,1.77-.62,1.92,1.92,0,0,1,1.53,1,2.11,2.11,0,0,1,.23,1.13.34.34,0,0,0-.22,0c-.19.08.15.56,0,.61s-.82.13-1,.18c-.42.12-1-.19-1.3.07a.37.37,0,0,0-.13.15l-.54.09A.56.56,0,0,1,41.21,26Z"/><path class="cls-2" d="M39.59,27.6a4.92,4.92,0,0,0-1.48,1.07,2.35,2.35,0,0,1-.25-.28,1.82,1.82,0,0,1-.5-1.61.68.68,0,0,1,0-.52,3.1,3.1,0,0,1,.51-.68.88.88,0,0,1,.15-.12,2.48,2.48,0,0,1,.36-.28,1.67,1.67,0,0,1,1.4-.09,1.4,1.4,0,0,1,1.08.67A2.64,2.64,0,0,1,41.39,27,5.77,5.77,0,0,0,39.59,27.6Z"/><path class="cls-5" d="M41.46,26.58l-.05-.07a2.07,2.07,0,0,1,3.33-2.45,2.05,2.05,0,0,1,.38,1.57"/><polyline class="cls-6" points="41.37 26.65 48.05 25.49 46.25 26.54 42.47 28.76"/><path class="cls-5" d="M37.39,26.25a2.14,2.14,0,0,1,.71-.93,2.07,2.07,0,1,1,1,3.73"/><path class="cls-5" d="M38.26,28.76a2.09,2.09,0,0,1-.6-.55,2,2,0,0,1-.33-.7"/><path class="cls-5" d="M41.24,26.21a6.76,6.76,0,0,0-3.63,1.86"/><path class="cls-5" d="M45.09,24.82a4.5,4.5,0,0,0-3.85,1.39"/><path class="cls-5" d="M36.92,30.24a7.08,7.08,0,0,0,7.65-1.06"/></g></svg>