<svg xmlns="http://www.w3.org/2000/svg" viewBox="0 0 49.99 37.13"><defs><style>.cls-1{fill:#fff;}.cls-2{fill:#f9b730;}.cls-3{fill:none;}.cls-3,.cls-9{stroke:#1c204d;stroke-linecap:round;stroke-linejoin:round;stroke-width:0.4px;}.cls-4{fill:#1c204d;}.cls-5,.cls-9{fill:#af6e30;}.cls-6{fill:#1f4686;}.cls-7{fill:#f59da0;}.cls-8{fill:#f47951;}</style></defs><g id="Layer_1" data-name="Layer 1"><path class="cls-1" d="M14.7,4.57a3.76,3.76,0,0,0-.74.16c-.26.08-.48.24-.73.33A1.17,1.17,0,0,1,12.52,5a2.72,2.72,0,0,0-.9-.12,3.62,3.62,0,0,0-1.52.3A2.7,2.7,0,0,0,9,6.43a2.4,2.4,0,0,0-.37,1.86c.17.37.65.25.84,0a1.56,1.56,0,0,0,.2-.41.49.49,0,0,0,0-.12h.16c1.22-.26,2.43-.52,3.66-.67a3.7,3.7,0,0,0,1.57-.41,1.37,1.37,0,0,0,.71-1.33A.93.93,0,0,0,14.7,4.57Z"/><path class="cls-2" d="M40.32,17.42c-.21-.26-.4-.21-.69-.24a7.74,7.74,0,0,1-1.14-.32A8.24,8.24,0,0,0,36,16.4a6.19,6.19,0,0,0-2.38.67c-.37.17-.74.36-1.09.56L32,18l-.24.19-.07,0a.43.43,0,0,0-.53.27l0,.11a.49.49,0,0,0,.37.67,1,1,0,0,0,.4-.06s0,.07,0,.11c.11.26.23.53.36.8l.18.52c.15.45.3.74.79.83a5.1,5.1,0,0,0,1.46,0c.57-.06,1.13-.14,1.69-.24s1.06-.2,1.59-.33l.75-.2a1.8,1.8,0,0,0,.64-.22c.36-.3.24-1,.19-1.41a2.32,2.32,0,0,0-.06-.38c0-.06.1,0,.09,0s0-.08,0-.1.07-.16.09-.17l.4-.17A.49.49,0,0,0,40.32,17.42Z"/><path class="cls-3" d="M36.15,21.28c-1.88.23-3.37.16-3.55-.12L32,19.4"/><path class="cls-3" d="M36.13,21.28c1.9-.24,3.35-.68,3.45-1l.21-2"/><path class="cls-3" d="M37.34,18.39c-.47.09-1,.17-1.54.24-2.23.28-4.06.24-4.11-.09s1.61-1.92,3.84-2.2,4.18.86,4.22,1.19c0,.15-.35.34-1,.52"/><path class="cls-3" d="M32,18.11a.51.51,0,0,0-.24,0,.41.41,0,0,0-.25.18.38.38,0,0,0-.3.1c-.15.12-.22.29-.15.38h0l0,0c0,.11.11.26.33.34a.61.61,0,0,0,.34,0,.54.54,0,0,0,.35.14.57.57,0,0,0,.33,0,.62.62,0,0,0,.33.09.65.65,0,0,0,.33-.06.66.66,0,0,0,.34.07.65.65,0,0,0,.34-.09.71.71,0,0,0,.35.06.65.65,0,0,0,.34-.11.61.61,0,0,0,.35.06.58.58,0,0,0,.32-.11.72.72,0,0,0,.53,0"/><path class="cls-3" d="M37.51,18.93a.5.5,0,0,1-.19,0A.6.6,0,0,1,37,19a.58.58,0,0,1-.33,0,.58.58,0,0,1-.32.12,1.08,1.08,0,0,1-.18,0"/><path class="cls-3" d="M39.39,17.18a.47.47,0,0,1,.24,0,.45.45,0,0,1,.28.11.41.41,0,0,1,.32,0c.18.08.28.22.23.32h0s0,0,0,0,0,.27-.23.4a.7.7,0,0,1-.32.13.55.55,0,0,1-.31.22.54.54,0,0,1-.32,0,.58.58,0,0,1-.3.17.68.68,0,0,1-.34,0"/><path class="cls-3" d="M35.59,19.2a.5.5,0,0,0,.28,0,.66.66,0,0,0,.29-.09"/><path class="cls-2" d="M30.77,19.7c-.1-.32-.3-.33-.56-.46a7.14,7.14,0,0,1-1-.69A8.34,8.34,0,0,0,27,17.27a6.23,6.23,0,0,0-2.47-.17c-.4,0-.81.09-1.21.16l-.58.13-.29.09-.07,0a.43.43,0,0,0-.59.07l-.08.09a.49.49,0,0,0,.12.76,1,1,0,0,0,.39.08s0,.07,0,.1c0,.29,0,.59.06.88V20c0,.47,0,.79.47,1a4.77,4.77,0,0,0,1.38.46c.55.14,1.11.25,1.67.35s1.07.17,1.61.22l.77.07a1.73,1.73,0,0,0,.68,0c.44-.16.57-.87.66-1.26,0-.13.05-.25.07-.38l0-.16a.06.06,0,0,1,0,0h.25l.43,0A.49.49,0,0,0,30.77,19.7Z"/><path class="cls-3" d="M25.54,21.91c-1.85-.41-3.22-1-3.3-1.31V18.73"/><path class="cls-3" d="M25.52,21.91c1.88.42,3.38.5,3.59.23L30,20.36"/><path class="cls-3" d="M30.2,19.61c-.07.33-1.9.19-4.09-.3s-3.9-1.15-3.83-1.48,2.16-1.26,4.35-.77S30.27,19.29,30.2,19.61Z"/><path class="cls-3" d="M22.67,17.52a.41.41,0,0,0-.23-.06.37.37,0,0,0-.29.08.43.43,0,0,0-.32,0c-.19.07-.3.2-.27.31h0l0,0c-.07.08,0,.27.19.42a.66.66,0,0,0,.31.16.57.57,0,0,0,.29.25.69.69,0,0,0,.32.08.62.62,0,0,0,.28.19.58.58,0,0,0,.33.05.73.73,0,0,0,.29.19.62.62,0,0,0,.35,0,.58.58,0,0,0,.31.18.65.65,0,0,0,.36,0,.65.65,0,0,0,.31.17.79.79,0,0,0,.34,0,.65.65,0,0,0,.3.15l.19,0"/><path class="cls-3" d="M30,19.16a.49.49,0,0,1,.23,0,.49.49,0,0,1,.24.2.48.48,0,0,1,.29.14c.14.13.18.3.11.38h0s0,0,0,0-.13.24-.35.3a.6.6,0,0,1-.35,0,.57.57,0,0,1-.36.11.69.69,0,0,1-.32-.07.69.69,0,0,1-.34.06.67.67,0,0,1-.32-.1.64.64,0,0,1-.35,0,.67.67,0,0,1-.33-.13.56.56,0,0,1-.35,0,.67.67,0,0,1-.33-.13.8.8,0,0,1-.36,0,.7.7,0,0,1-.3-.14.65.65,0,0,1-.34,0,.67.67,0,0,1-.17-.06"/><path class="cls-3" d="M25.72,19.77a.63.63,0,0,0,.26.12.78.78,0,0,0,.3,0"/><path class="cls-2" d="M34.79,9.67c-.17-.28-.36-.26-.65-.32a9.35,9.35,0,0,1-1.09-.46,8.57,8.57,0,0,0-2.42-.78,6.38,6.38,0,0,0-2.45.37A12.19,12.19,0,0,0,27,8.9l-.53.25-.27.15-.07,0a.43.43,0,0,0-.56.2l-.06.1a.5.5,0,0,0,.29.72,1.31,1.31,0,0,0,.4,0s0,.07,0,.1c.07.28.16.56.25.84s.08.37.11.55c.1.46.21.76.69.92a5.07,5.07,0,0,0,1.45.14c.57,0,1.14,0,1.71,0s1.08-.07,1.61-.13l.78-.1a1.86,1.86,0,0,0,.66-.14c.39-.25.36-1,.37-1.37,0-.13,0-.26,0-.39v-.2a1.22,1.22,0,0,0,.25-.05l.41-.11A.49.49,0,0,0,34.79,9.67Z"/><path class="cls-3" d="M30.17,13c-1.9,0-3.36-.26-3.5-.57l-.42-1.82"/><path class="cls-3" d="M30.15,13c1.92,0,3.41-.25,3.55-.55l.46-1.93"/><path class="cls-3" d="M29.71,10.3c-2,0-3.61-.3-3.61-.61S27.94,8,30.18,8s4,1.39,4,1.72-1.35.52-3.15.58"/><path class="cls-3" d="M28.46,10.81a.48.48,0,0,0,.22-.06.55.55,0,0,0,.34.1.65.65,0,0,0,.33-.06.64.64,0,0,0,.33.08l.19,0"/><path class="cls-3" d="M26.41,9.3a.44.44,0,0,0-.23,0,.46.46,0,0,0-.27.14.44.44,0,0,0-.32.07c-.16.1-.25.26-.19.35h0l0,0c-.05.1.07.26.28.37a.64.64,0,0,0,.33.08.56.56,0,0,0,.34.19.58.58,0,0,0,.32,0,.73.73,0,0,0,.32.14h.07"/><path class="cls-3" d="M33.91,9.32a.44.44,0,0,1,.23,0,.49.49,0,0,1,.28.14.42.42,0,0,1,.31.07c.16.1.24.26.19.35h0l0,0c0,.1-.07.27-.28.37a.55.55,0,0,1-.33.08.71.71,0,0,1-.67.19.63.63,0,0,1-.31.13.72.72,0,0,1-.34,0,.67.67,0,0,1-.33.11.72.72,0,0,1-.35,0,.69.69,0,0,1-.68,0,.66.66,0,0,1-.35.1.65.65,0,0,1-.33-.07.59.59,0,0,1-.33.08.52.52,0,0,1-.18,0"/><path class="cls-3" d="M29.88,10.84a.53.53,0,0,0,.28.06.6.6,0,0,0,.29-.06"/><path class="cls-2" d="M32.65,14.84c-.13-.31-.32-.31-.6-.41a8,8,0,0,1-1-.61,8.39,8.39,0,0,0-2.26-1.22,6.46,6.46,0,0,0-2.51.14c-.4.07-.8.15-1.19.25-.19.06-.38.11-.57.18l-.28.11-.08,0a.43.43,0,0,0-.58.12l-.07.09a.49.49,0,0,0,.18.75,1,1,0,0,0,.4,0s0,.07,0,.11c0,.29.08.58.14.87l0,.55c0,.48.1.79.55,1a5.37,5.37,0,0,0,1.42.35c.56.09,1.13.16,1.69.21s1.08.08,1.62.1h.78a1.94,1.94,0,0,0,.68-.05c.42-.19.49-.91.55-1.31,0-.13,0-.26,0-.39v-.19l.26,0,.43-.06A.48.48,0,0,0,32.65,14.84Z"/><path class="cls-3" d="M27.61,17.46c-1.87-.27-3.29-.73-3.38-1.05l-.17-1.86"/><path class="cls-3" d="M27.6,17.46c1.9.27,3.41.22,3.59-.05l.72-1.85"/><path class="cls-3" d="M29.35,12.78c1.66.57,2.77,1.75,2.73,2s-1.88.33-4.1,0S24,14,24,13.65s1.81-1.3,3.86-1.16"/><path class="cls-3" d="M24.41,13.3a.86.86,0,0,0-.24,0,.48.48,0,0,0-.29.1.44.44,0,0,0-.31,0c-.18.07-.29.22-.24.32h0l0,0c-.07.09,0,.28.22.41a.6.6,0,0,0,.32.13.55.55,0,0,0,.31.23.65.65,0,0,0,.32.05.67.67,0,0,0,.3.18.77.77,0,0,0,.33,0,.61.61,0,0,0,.31.16.68.68,0,0,0,.35,0,.73.73,0,0,0,.32.15.71.71,0,0,0,.36,0,.6.6,0,0,0,.32.14.64.64,0,0,0,.34,0,.74.74,0,0,0,.32.12h.19"/><path class="cls-3" d="M31.83,14.36a.49.49,0,0,1,.23,0,.38.38,0,0,1,.25.18.45.45,0,0,1,.3.11c.15.12.21.29.14.38h0l0,0c0,.11-.11.25-.33.33a.64.64,0,0,1-.35,0,.52.52,0,0,1-.35.13.67.67,0,0,1-.33,0,.59.59,0,0,1-.33.08.56.56,0,0,1-.33-.07.57.57,0,0,1-.34.07.76.76,0,0,1-.34-.1.61.61,0,0,1-.35.06.67.67,0,0,1-.33-.11.76.76,0,0,1-.36,0,.63.63,0,0,1-.31-.12.62.62,0,0,1-.34,0,.53.53,0,0,1-.18,0"/><path class="cls-3" d="M27.62,15.31a.61.61,0,0,0,.27.1.68.68,0,0,0,.3,0"/><path class="cls-2" d="M38.45,14.26c-.06-.33-.26-.37-.5-.54a6.56,6.56,0,0,1-.86-.81,8.46,8.46,0,0,0-2-1.57,6.29,6.29,0,0,0-2.42-.51c-.41,0-.82,0-1.22,0-.2,0-.4,0-.6.05l-.3,0h-.07a.44.44,0,0,0-.6,0l-.09.08a.49.49,0,0,0,0,.77,1,1,0,0,0,.38.13.54.54,0,0,0,0,.1c0,.29-.05.59-.06.88s-.05.37-.08.55c-.07.47-.08.79.32,1.1a5,5,0,0,0,1.31.64c.53.21,1.06.41,1.6.58s1,.31,1.56.44c.26.06.46.28.71.34a2,2,0,0,0,.72-.07c.46-.09.68-.77.83-1.15,0-.12.15-.14.19-.26s.05-.11.06-.16-.08-.13-.08-.14l.26,0,.43,0A.49.49,0,0,0,38.45,14.26Z"/><path class="cls-3" d="M33,15.73c-1.77-.66-3.06-1.42-3.08-1.75l.24-1.85"/><path class="cls-3" d="M36.16,16.53a.48.48,0,0,0,.31-.08l1.1-1.64"/><path class="cls-3" d="M33,15.73a15.27,15.27,0,0,0,2.4.71"/><path class="cls-3" d="M31.41,12.14c-.74-.39-1.18-.73-1.12-.89.12-.31,2.32-1,4.42-.18s3.3,2.72,3.19,3-1.92-.07-4-.86l-1.18-.48"/><path class="cls-3" d="M32.45,13.25a.77.77,0,0,0,.18.1.58.58,0,0,0,.33.05.5.5,0,0,0,.28.19.67.67,0,0,0,.19.05"/><path class="cls-3" d="M30.72,11a.46.46,0,0,0-.21-.1.49.49,0,0,0-.31,0,.41.41,0,0,0-.32,0c-.18,0-.32.15-.3.26h0l0,0c-.09.07,0,.27.13.45a.58.58,0,0,0,.28.19.65.65,0,0,0,.25.29.76.76,0,0,0,.31.12.57.57,0,0,0,.25.23.62.62,0,0,0,.32.1.53.53,0,0,0,.1.12"/><path class="cls-3" d="M37.74,13.62a.49.49,0,0,1,.43.3.43.43,0,0,1,.27.17c.12.15.14.33.05.4h0a.06.06,0,0,1,0,0c0,.11-.16.22-.39.25a.69.69,0,0,1-.34,0,.61.61,0,0,1-.38.06.63.63,0,0,1-.31-.12.76.76,0,0,1-.65-.13.57.57,0,0,1-.34,0,.64.64,0,0,1-.31-.16.76.76,0,0,1-.36,0,.6.6,0,0,1-.3-.19.65.65,0,0,1-.36,0,.75.75,0,0,1-.28-.18.71.71,0,0,1-.34,0L34,13.84"/><path class="cls-2" d="M34.32,16c-.13-.3-.33-.3-.61-.4a6.59,6.59,0,0,1-1-.58,8.5,8.5,0,0,0-2.32-1,6.23,6.23,0,0,0-2.47.09,12.14,12.14,0,0,0-1.19.29,3.69,3.69,0,0,0-.56.19,1.39,1.39,0,0,0-.28.12l-.07,0a.43.43,0,0,0-.59.13l-.06.1a.49.49,0,0,0,.2.74,1.13,1.13,0,0,0,.4,0s0,.07,0,.11c.05.29.1.58.16.86s0,.37.05.56c0,.47.12.78.58,1a5.29,5.29,0,0,0,1.43.31c.56.07,1.12.13,1.69.17s1.08.05,1.62.05H32a1.87,1.87,0,0,0,.67-.07c.42-.2.48-.92.53-1.32l0-.39v-.19l.26,0,.42-.06A.49.49,0,0,0,34.32,16Z"/><path class="cls-3" d="M26.12,18a.5.5,0,0,1-.18-.18L25.73,16"/><path class="cls-3" d="M29.35,18.79a17.27,17.27,0,0,1-1.84-.3"/><line class="cls-3" x1="33.38" y1="17.39" x2="33.6" y2="16.79"/><path class="cls-3" d="M29.34,18.79c1.9.22,3.41.14,3.59-.14l.09-.26"/><path class="cls-3" d="M27.05,15.7c-.86-.21-1.39-.44-1.37-.62s.42-.46,1.07-.74"/><path class="cls-3" d="M28.09,13.93a6.18,6.18,0,0,1,1.84-.08c2.22.26,3.86,1.84,3.82,2.17s-1.88.38-4.1.12q-.58-.06-1.11-.15"/><path class="cls-3" d="M26,14.72a.58.58,0,0,0-.23,0,.41.41,0,0,0-.29.11.41.41,0,0,0-.32,0c-.17.08-.28.23-.23.33h0l0,0c-.06.09,0,.27.24.4a.7.7,0,0,0,.32.13.59.59,0,0,0,.31.22.8.8,0,0,0,.33,0,.54.54,0,0,0,.29.16.68.68,0,0,0,.34,0,.73.73,0,0,0,.32.15.68.68,0,0,0,.35,0,.6.6,0,0,0,.32.15.64.64,0,0,0,.35,0,.59.59,0,0,0,.33.14.6.6,0,0,0,.34,0,.63.63,0,0,0,.32.12.6.6,0,0,0,.19,0"/><path class="cls-3" d="M33.48,15.59a.66.66,0,0,1,.24,0,.45.45,0,0,1,.25.18.42.42,0,0,1,.3.1c.15.12.22.29.15.38h0l0,0c0,.11-.1.26-.32.34a.61.61,0,0,1-.34,0,.6.6,0,0,1-.35.15.67.67,0,0,1-.33,0,.61.61,0,0,1-.33.1.65.65,0,0,1-.33-.07.72.72,0,0,1-.68,0,.61.61,0,0,1-.35.07.65.65,0,0,1-.34-.11.62.62,0,0,1-.27.07"/><path class="cls-3" d="M29.31,16.65a.83.83,0,0,0,.57.06"/><path class="cls-4" d="M31.25,19.14a.45.45,0,0,0-.12-.21l-.1-.08a.55.55,0,0,0-.25-.07h0a.41.41,0,0,0-.19,0,.45.45,0,0,0-.32.19.42.42,0,0,0-.09.16v.13a.54.54,0,0,0,.06.25l.08.09a.46.46,0,0,0,.21.13l.17,0h0a.09.09,0,0,0,.07,0,.31.31,0,0,0,.19,0,.39.39,0,0,0,.16-.1.31.31,0,0,0,.1-.15.41.41,0,0,0,0-.19Z"/><path class="cls-5" d="M40.43,25.64l0,.06.2-5.61-4.21-.25L16.2,18.55l-.36,5.63,9.81.64h0l-15-1-.09.53,14.6.93a6,6,0,0,0-.82,2.14,1.35,1.35,0,0,0,0,.29.51.51,0,0,0,.05.25c0,.14,0,.29-.05.44a.88.88,0,0,0,0,.17.26.26,0,0,0,0,.2s0,.06,0,.1h0a6.45,6.45,0,0,0,1,2.91,4,4,0,0,0,2.42,1.68,5.92,5.92,0,0,0,1.63.11A4.44,4.44,0,0,0,31,33.31a4.7,4.7,0,0,0,2.15-1.94,6.7,6.7,0,0,0,.7-3.5.37.37,0,0,0-.09-.24,3.9,3.9,0,0,0-.41-1.49,3.18,3.18,0,0,0-.17-.3l7.43.48,0-.52-.35,0A.36.36,0,0,0,40.43,25.64ZM25.09,29.22a.4.4,0,0,0,0-.15h0c.07.41.15.81.26,1.21l.09.3A6.58,6.58,0,0,1,25.09,29.22Zm6.52-3.29a3.38,3.38,0,0,1,.49.92,3.07,3.07,0,0,1,.22,1l0,.34c-.86,0-1.71,0-2.57.07l.06-.06c.59-.79,1.14-1.6,1.7-2.41A.49.49,0,0,0,31.61,25.93Zm-2,5.41c0-.36,0-.71,0-1.07a.09.09,0,0,1,0-.05l0,0a8,8,0,0,0,.47.67,5.24,5.24,0,0,1,.42.54,1.46,1.46,0,0,0,.36.42c-.18.16-.37.33-.56.48a1.58,1.58,0,0,1-.71.24,1.69,1.69,0,0,0,0-.23C29.65,32,29.6,31.69,29.6,31.34ZM29.66,26a2.55,2.55,0,0,0,0-.39l.81.05,0,0a12.52,12.52,0,0,0-.78,1,.41.41,0,0,0,0-.11A3,3,0,0,1,29.66,26Zm2.67,2.92c-.1.39-.22.77-.34,1.15a.37.37,0,0,0,0,.26,3.25,3.25,0,0,0-.39.68l-.08.12-.89-1.26a11.19,11.19,0,0,0-1-1.22c.89,0,1.79-.08,2.68-.06A1.24,1.24,0,0,1,32.33,28.93Zm-6.42-1.3a4.38,4.38,0,0,1,.35-1.17.54.54,0,0,0,0-.27l.05-.07c.06-.12.13-.22.19-.33.3.35.54.67.82,1.06s.7,1,1.07,1.42l0,0c-.87,0-1.75,0-2.62-.07C25.87,28,25.88,27.83,25.91,27.63Zm1.59-2.15,1,.06a1.58,1.58,0,0,0,0,.38v.89l-.38-.51C27.92,26,27.71,25.75,27.5,25.48Zm1,7.39h-.08a.37.37,0,0,0-.27-.34L28,32.46a2.59,2.59,0,0,1-.58-.34L27.23,32l.1-.12c.14-.21.32-.4.48-.64s.28-.47.43-.7.19-.3.29-.44l-.06.86A18.15,18.15,0,0,0,28.53,32.87Zm.16-4.17a.37.37,0,0,0-.15.25.28.28,0,0,0-.25,0l-.21.08a.39.39,0,0,0-.27.42,2.35,2.35,0,0,0-.19.25c-.15.21-.28.43-.41.65s-.41.63-.63.93c-.07-.15-.16-.3-.22-.45a6.44,6.44,0,0,1-.25-.74c-.13-.47-.21-.95-.3-1.43v0c1,0,1.91.07,2.87.06ZM27,24.92h0l3.84.25h0Zm5.74,5.59a.36.36,0,0,0-.06-.2l0,0c.12-.42.28-.85.37-1.29,0,0,0-.07,0-.11A4.8,4.8,0,0,1,32.76,30.51Zm.36-2.05c0-.19,0-.38,0-.57l0,.07Zm-1.39-3.23h0l4.13.27h0Z"/><path class="cls-5" d="M26.26,25.42c-.2-.11-.34.13-.42.28a9.15,9.15,0,0,0-.4,1l-.09.24a.15.15,0,0,0-.08.11,3,3,0,0,0-.1.52.17.17,0,0,0,0,.07c0,.1,0,.2-.05.3h0V28a.16.16,0,0,0,.11.17l.07,0a2.16,2.16,0,0,0,.36,0l.08,0h0l0,0,0,0a.09.09,0,0,0,0-.05v0h0a.11.11,0,0,0,0-.05.05.05,0,0,1,0,0,3.29,3.29,0,0,0,.1-.53,4.26,4.26,0,0,1,.15-.54,4.33,4.33,0,0,1,.21-.54,1.89,1.89,0,0,1,.11-.25.77.77,0,0,0,.1-.29A.49.49,0,0,0,26.26,25.42Z"/><path class="cls-5" d="M28.47,27a.53.53,0,0,0-.1-.37,3.84,3.84,0,0,1-.44-.54s0-.07,0-.11a1.46,1.46,0,0,1-.16-.19l-.14-.21a.25.25,0,0,0-.1-.08h-.45a.09.09,0,0,0-.06.16l.17.14h0a.89.89,0,0,0,.19.31l.24.34a6.19,6.19,0,0,1,.47.74.15.15,0,0,0,.14.08l.09.22c0,.09.19.09.18,0Z"/><path class="cls-5" d="M29.57,26.37a3.23,3.23,0,0,0,0-.44v-.06s0,0,0,0,0,0,0-.07a.17.17,0,0,0,0-.07.15.15,0,0,0-.08-.11l-.05,0h-.1l-.05,0,0,0-.18,0a.19.19,0,0,0-.16.28.61.61,0,0,1,0,.24c0,.11,0,.23,0,.35l0,.69a.28.28,0,0,0,0,.12h0l0,.16a.09.09,0,0,0,0,.11.11.11,0,0,0,.12,0l.09-.18a.39.39,0,0,0,.1-.08.85.85,0,0,0,.11-.26v0l.15-.19a.14.14,0,0,0,0-.11v0a.18.18,0,0,0,0-.16A.19.19,0,0,0,29.57,26.37Z"/><path class="cls-5" d="M31.16,25.71h0l0,0a.25.25,0,0,0-.19.05,3.07,3.07,0,0,0-.25.26,4.64,4.64,0,0,0-.46.61c-.25.4-.5.81-.76,1.21a.2.2,0,0,0-.1.24.17.17,0,0,0,.14.16.74.74,0,0,0,.21,0,.19.19,0,0,0,.16-.12l.07-.07a5,5,0,0,1,.71-1,4.49,4.49,0,0,0,.37-.52,3.14,3.14,0,0,1,.38-.5C31.53,25.86,31.34,25.59,31.16,25.71Z"/><path class="cls-5" d="M31.37,30.92,31,30.47l-.68-.95a.19.19,0,0,0-.07-.06.16.16,0,0,0-.05-.09l0-.05,0,0h0a.86.86,0,0,0-.07-.1L30,29a1.14,1.14,0,0,0-.15-.23.37.37,0,0,0-.35-.13.2.2,0,0,0-.13.14l0,0a.22.22,0,0,0-.06.13.2.2,0,0,0,.06.13,3.88,3.88,0,0,1,.26.31l.06,0h0a2.39,2.39,0,0,0,.21.34c.12.2.25.39.38.58l.4.6a2.4,2.4,0,0,0,.18.26c0,.07.12.14.15.21a.19.19,0,0,0,.34,0,1,1,0,0,0,.15-.25C31.49,31.1,31.42,31,31.37,30.92Z"/><path class="cls-6" d="M30.17,29.3Z"/><path class="cls-5" d="M29.59,30.4a.59.59,0,0,0-.05-.32c-.06-.1-.14-.18-.2-.28a1.51,1.51,0,0,1-.13-.33c0-.2-.38-.17-.36.05.07.95,0,1.9,0,2.85a.17.17,0,0,0,.05.12l0,.07a.19.19,0,0,0,.18.24,1.61,1.61,0,0,0,.37-.07.19.19,0,0,0,.14-.18c0-.57,0-1.15,0-1.72C29.58,30.69,29.58,30.54,29.59,30.4Z"/><path class="cls-5" d="M28.18,29.45a8.11,8.11,0,0,1-.66,1c-.24.36-.47.73-.7,1.1l0,0,0,0s0,0-.05.06a.14.14,0,0,0,0,.07.09.09,0,0,0,0,.07.14.14,0,0,0,.09.11l0,0a.17.17,0,0,0,.1,0h0a.54.54,0,0,1,.18,0h0l0,0-.31,0c-.1,0-.17.12-.08.17s.32.18.48.26a1.58,1.58,0,0,0,.24.15l.26.13a.46.46,0,0,0,.28.06H28a1.79,1.79,0,0,0,.32.13c.11,0,.15-.11.07-.17a1,1,0,0,0-.33-.13,5.2,5.2,0,0,1-.7-.45A.09.09,0,0,0,27.3,32l-.11-.05a.07.07,0,0,0,.06,0,.17.17,0,0,0,.09-.11v0l0,0c.23-.35.45-.7.69-1l.36-.49a.46.46,0,0,0,.06-.3,1,1,0,0,1,.05-.3C28.58,29.39,28.28,29.25,28.18,29.45Z"/><path class="cls-5" d="M26.52,31c0-.05-.05-.09-.07-.13l-.24-.41v-.06a6.49,6.49,0,0,1-.19-.76,2.89,2.89,0,0,1-.09-.77.19.19,0,0,0-.19-.19,4.38,4.38,0,0,1-.5,0,.19.19,0,0,0-.18.19,4.77,4.77,0,0,0,.66,2,1.09,1.09,0,0,0,.08.15.15.15,0,0,0,.1.08,1.13,1.13,0,0,0,0,.18.27.27,0,0,0,.26.22.16.16,0,0,0,.16-.09l.06-.1,0,0h0v0A.2.2,0,0,0,26.52,31Z"/><path class="cls-5" d="M33.6,26.71a.3.3,0,0,0-.07-.11l-.12-.48a.38.38,0,0,0-.09-.13,0,0,0,0,0,0,0,.15.15,0,0,0-.11-.08,2.3,2.3,0,0,0-.45-.05.21.21,0,0,0-.18.11.23.23,0,0,0,0,.21l0,0a.15.15,0,0,1,0,.06s0,0,0,.05a.3.3,0,0,0,0,.18,4.81,4.81,0,0,1,.34,1.84,6.85,6.85,0,0,1-.2,1.86.28.28,0,0,0,0,.09h0a.28.28,0,0,0-.13.31,4.31,4.31,0,0,1-1,1.74.29.29,0,0,0-.07.12l-.39.33-.11.11-.38.14a4.93,4.93,0,0,1-.83.41c-.12,0-.07.2,0,.18a2.6,2.6,0,0,0,1-.33H31l.48-.28a2.53,2.53,0,0,0,.36-.2.29.29,0,0,0,.25-.07,5.42,5.42,0,0,0,.83-1.15.2.2,0,0,0,.17-.09.05.05,0,0,1,0,0,.37.37,0,0,0,.05-.11,8,8,0,0,0,.45-.93.19.19,0,0,0,0-.15c0-.1.07-.21.1-.31a6.19,6.19,0,0,0,.16-1.05A5.18,5.18,0,0,0,33.6,26.71Z"/><path class="cls-5" d="M40.4,25.77h.05l.15-5.69-4-.23-.29,5.66.31,0-.14,0-.19,0a.22.22,0,0,0-.14,0,.19.19,0,0,0-.15.14.91.91,0,0,0,0,.17.18.18,0,0,0,.17.18.14.14,0,0,0,.11,0,.27.27,0,0,0,.08-.07h0a.22.22,0,0,0,.24.14c.31,0,.61,0,.92,0s.62.1.94.12c.63.06,1.27.08,1.91.12A.28.28,0,0,0,40.4,25.77Zm-2-.13,1.7.11c-.54,0-1.08-.05-1.62-.1Z"/><path class="cls-7" d="M23,14.38a.28.28,0,0,0-.2-.08,2.37,2.37,0,0,0-.53,0,.32.32,0,0,0-.26-.1,10.11,10.11,0,0,1-1.1,0c-.38,0-.77,0-1.15,0a2.23,2.23,0,0,0-1.07.26c-.33.2-.63.46-.56.88,0,0,0,0,0,0a8865791376438.86,8865791376438.86,0,0,0,0,.14s0,0,0,0v0l-.06.12a1.82,1.82,0,0,0-.11.3.64.64,0,0,0,0,.07h0a.34.34,0,0,0-.22.17.39.39,0,0,0-.06.21.57.57,0,0,0,0,.13l.07.16.09.16.17.34a.34.34,0,0,0,.12.12c.07.18.13.37.18.55a.19.19,0,0,0,.37-.05,4.71,4.71,0,0,1,.07-.91c0-.3.09-.6.14-.91l.13.09.27.14a.16.16,0,0,0,.15.08h0l.12.05,0,0,0,0a1.71,1.71,0,0,0-.21.26.17.17,0,0,0,0,.1.19.19,0,0,0,0,.07l0,.06.08.05h.06l.1,0a.3.3,0,0,0,.08-.08s0,0,0-.05a.69.69,0,0,1,.11-.13.09.09,0,0,0,0-.06.13.13,0,0,0,0-.06l.2.13a.43.43,0,0,0,.45,0,.4.4,0,0,0,.16-.18h.05a.84.84,0,0,0,.27-.08l0,0,.08,0h.09a.3.3,0,0,0,.35-.2.27.27,0,0,0-.2-.34,1,1,0,0,0-.3,0s0,0,0,0a.62.62,0,0,0,0-.27.81.81,0,0,0-.19-.38l0,0,.08,0,.11,0,.18,0,.06-.06a5.33,5.33,0,0,0,.8,0,.43.43,0,0,0,.23-.09.2.2,0,0,0,.13,0h.09a2,2,0,0,1,.34,0,.24.24,0,0,0,.2-.08.31.31,0,0,0,.09-.2A.33.33,0,0,0,23,14.38Z"/><path class="cls-7" d="M16.39,8.88a.43.43,0,0,0-.4-.09,0,0,0,0,0,0,0c-.06-.22-.15-.39-.39-.43a.46.46,0,0,1-.24-.2v0A1.73,1.73,0,0,0,14.2,6.92a.35.35,0,0,0-.25,0,.38.38,0,0,0-.4-.15h-.06a.31.31,0,0,0-.25.28,5.49,5.49,0,0,0-.58,0,4.74,4.74,0,0,0-1.25.21,1.22,1.22,0,0,0-.72.87c-.06.21-.11.42-.16.62a.34.34,0,0,0-.19.2,3.86,3.86,0,0,0-.6.54,3.19,3.19,0,0,0-.33.4l-.08.1L9.21,10a1.24,1.24,0,0,0-.54-.14c-.44,0-.66.47-.66.85H8A.46.46,0,0,0,8,11a4.77,4.77,0,0,0,.13.51l.09.23a2.68,2.68,0,0,0,.12.3.69.69,0,0,0,.64.28l.13,0v0h0a.44.44,0,0,1,.08.11l0,0a.43.43,0,0,1,0,.07.16.16,0,0,0,.06.08l0,0c.1.16.19.32.28.48s.31.59.48.87c0,0,0,0,0,.09a.38.38,0,0,0,.23.34l.13,0,0,0,.11.11a2.68,2.68,0,0,0,.3.28,5.77,5.77,0,0,0,.68.4c.5.28,1,.82,1.53,1.06.21.1.48-.24.54-.49s.1-.39.14-.58a2.44,2.44,0,0,1,.09-.47.52.52,0,0,0,.14-.19,4.51,4.51,0,0,1,.44-.81c.19-.27.42-.49.63-.74a5.37,5.37,0,0,0,.83-1.78.3.3,0,0,0,0-.21,1.25,1.25,0,0,0,.69-.93A1.28,1.28,0,0,0,16.39,8.88Z"/><path class="cls-1" d="M15,8.92a.75.75,0,0,0-.64-.43.48.48,0,0,0-.44.22.38.38,0,0,0,0,.33.28.28,0,0,0,0,.13h0a.19.19,0,0,0,0,.08h0v0h0l0,.06h0l.05.06a.24.24,0,0,0,.09.06l0,0,0,.13,0,.16a.83.83,0,0,0,.08.22.28.28,0,0,0,.33.14.59.59,0,0,0,.23-.14,1,1,0,0,0,.22-.28A1,1,0,0,0,15,8.92Z"/><path class="cls-1" d="M13.12,9.36A.45.45,0,0,0,13,9.15s0,0,0,0l0,0a.52.52,0,0,0-.39-.25.5.5,0,0,0-.32,0,.25.25,0,0,0-.16.12.63.63,0,0,0-.3.34,1,1,0,0,0,.12.83.29.29,0,0,0,.16.13.24.24,0,0,0,.06.08.44.44,0,0,0,.45.13.39.39,0,0,0,.2-.13h0a.64.64,0,0,0,.29-.61h0s0,0,0,0a.51.51,0,0,0,0-.13A.31.31,0,0,0,13.12,9.36Z"/><path class="cls-7" d="M10.61,24a5.77,5.77,0,0,0,0-.72c0-.23-.21-.3-.4-.4a6.65,6.65,0,0,0-.61-.27A2.81,2.81,0,0,1,9,22.31c-.18-.14-.43-.08-.64-.07a3.82,3.82,0,0,0-.68.07.19.19,0,0,0-.09.31.31.31,0,0,1,.09.11.17.17,0,0,0,.06.06h0a1.13,1.13,0,0,0,0,.45,1,1,0,0,0,.26.42.55.55,0,0,0,.51.18,1.71,1.71,0,0,1,0,.32.15.15,0,0,0,0,.11h0a.19.19,0,0,0-.19.33.73.73,0,0,0,.79,0s0,0,0-.05a1,1,0,0,0,.26.09,1.28,1.28,0,0,0,.43-.06.15.15,0,0,0,.11-.08h0l.08,0,.13,0a.28.28,0,0,0,.28,0C10.66,24.42,10.61,24.13,10.61,24Z"/><path class="cls-8" d="M18.56,18.42a5.51,5.51,0,0,1-.91-1.83.19.19,0,0,0-.37.05,1.79,1.79,0,0,1-.37.69l-.23.33-.08.09a.21.21,0,0,0-.11,0,7.41,7.41,0,0,0-.82-1.55,6.91,6.91,0,0,0-1.29-1.3.29.29,0,0,0-.48.2,2.25,2.25,0,0,1-.15.55,1.66,1.66,0,0,1-.16.49s-.11.13-.15.12c-.86-.11-1.58-.94-2.34-1.3a.41.41,0,0,0-.18-.05,3.21,3.21,0,0,0-.21-.3,1.36,1.36,0,0,0-.5-.4h0v0a.48.48,0,0,0-.08-.19l-.06,0a.2.2,0,0,0-.11,0H9.89a.17.17,0,0,0-.1,0l-.06,0a.19.19,0,0,0-.07.12.13.13,0,0,0,0,.06.5.5,0,0,0,0,.12v0a1.75,1.75,0,0,0-.69.32,5,5,0,0,0-.48.63,4.79,4.79,0,0,0-.53.66c-.07.12-.13.24-.19.37a1.08,1.08,0,0,0-.11.28c-.18.26-.36.51-.56.76a3.09,3.09,0,0,0-.51.73,2.55,2.55,0,0,0-.07.87c0,.12,0,.25,0,.37h0a4.15,4.15,0,0,0,0,.61.08.08,0,0,1,0,0c0,.35,0,.69-.07,1a7.41,7.41,0,0,0-.07,1.05.58.58,0,0,0,.05.14c-.12.11-.06.35.12.33a1,1,0,0,0,.36-.14,7.37,7.37,0,0,1,1.33-.21.19.19,0,0,0,.09-.05h0c.22,0,.44,0,.65,0a.15.15,0,0,0,0,.1.22.22,0,0,0,.15.1l.14.07.28.12c.16.07.33.13.49.21a1.64,1.64,0,0,1,.4.29.88.88,0,0,1,.17.35.29.29,0,0,0,.2.47,4.11,4.11,0,0,0,.7,0,6.32,6.32,0,0,1,.76.06.19.19,0,0,0,.13,0l.73.09a1.93,1.93,0,0,0,.34,0,.89.89,0,0,0,.58,0l0,0,.59,0s0-.07,0-.09a7.94,7.94,0,0,1,.57-1c.16-.27.26-.58.41-.85a.45.45,0,0,1,.21-.18.31.31,0,0,1,0-.1,2.58,2.58,0,0,0,0-.62s0,0,0,0c.05-.47.09-.95.14-1.43a7.45,7.45,0,0,0,.07-1.16c.34,0,.67,0,1,.08s.41,0,.61,0a5.37,5.37,0,0,1,.57,0C18.49,18.72,18.66,18.56,18.56,18.42Z"/><path class="cls-2" d="M7.84,23.5v0s0,0,0,0l0,0H7.7s0,0,0,0v0a0,0,0,0,0,0,.05s0,0,0,.05l0,0,0,0h.07l0,0a.05.05,0,0,0,0,0v0A.08.08,0,0,0,7.84,23.5Z"/><path class="cls-5" d="M8.39,23.87c-.17,0-.3-.12-.47-.14s-.4,0-.59,0a2.69,2.69,0,0,1-.57-.07.45.45,0,0,0-.23,0c-.12-.05-.28,0-.27.16a.22.22,0,0,1,0,.11c0,.14.1.26.23.23l0,0a.91.91,0,0,0,.33,0l0,0H7l.46,0a7,7,0,0,0,.92.1A.19.19,0,0,0,8.39,23.87Z"/><path class="cls-8" d="M16.88,30.44a.45.45,0,0,0-.05-.18,34.19,34.19,0,0,1-1.47-3.12l0-.07a4.56,4.56,0,0,1-.33-.56l-.13-.29-.12-.29a4.24,4.24,0,0,0-.52-1.07.17.17,0,0,0-.09-.19L14,24.62a.36.36,0,0,0-.36,0c-.13,0-.26,0-.39,0a2.84,2.84,0,0,0-.42-.05,1.43,1.43,0,0,1-.36,0,.29.29,0,0,0-.17-.06l-1.25,0h-.44l0,0-.06.05,0,0a.13.13,0,0,0,0,.06.35.35,0,0,1-.3,0h0a2.24,2.24,0,0,1,.56.66.76.76,0,0,1,0,.16l.13,0,.05,0h0l.05.07.1.12.19.22.05.07a1,1,0,0,0-.08.19,5.67,5.67,0,0,1-.22.66c-.07.14-.13.3-.19.45a.24.24,0,0,0,0,.25c-.12.28-.25.57-.37.86s-.27.9-.42,1.35a.49.49,0,0,0,0,.12l-.15.36a.22.22,0,0,0,0,.18c-.22.49-.43,1-.63,1.51v0h0l0,0h0v.1l0,0a.1.1,0,0,0,0,.05l0,0h.13a.37.37,0,0,0,.29,0,.42.42,0,0,1,.14,0l.47,0c.32,0,.63,0,.94-.06a.31.31,0,0,0,.27-.21l.29-.82a.2.2,0,0,0,0-.17c.22-.46.43-.91.63-1.37.1-.23.19-.47.28-.7a3.79,3.79,0,0,1,.18-.34l.39.48a.33.33,0,0,0,.08.25c.64.82,1.15,1.72,1.79,2.54a.28.28,0,0,0,.44-.06,1.86,1.86,0,0,1,.48-.4l.63-.45A.31.31,0,0,0,16.88,30.44Z"/><path class="cls-4" d="M13.49,32.67l-.07-.05a4.34,4.34,0,0,0-1.34-.54,2.36,2.36,0,0,0-.75,0,1.89,1.89,0,0,0-.66.21l-.36,0-.26,0H10l-.15,0a.29.29,0,0,0-.36.27h0v0a.32.32,0,0,0-.1.1c-.1.16-.15.36-.26.52v0h0l0,0a.32.32,0,0,0,0,.14.37.37,0,0,0,.11.27.41.41,0,0,0,.26.11.43.43,0,0,0,.25-.1h0a2.09,2.09,0,0,1,.25,0l.29,0a5.66,5.66,0,0,0,.58,0,8.83,8.83,0,0,1,1.15,0,3.09,3.09,0,0,0,1.05,0c.36.06.8.11.94-.23S13.78,32.79,13.49,32.67Z"/><path class="cls-4" d="M19.11,29.44a.28.28,0,0,0-.24-.08,2.28,2.28,0,0,0-1.11.44,3,3,0,0,0-.73.86,3,3,0,0,0-.54.39c-.08.08-.16.18-.25.26l0,0h0l0,0,0,0,0,0s-.12,0,0,0a.29.29,0,0,0-.24.14.28.28,0,0,0,0,.28L16,32a.4.4,0,0,0,0,.15,5.5,5.5,0,0,0,.43.64,1.66,1.66,0,0,1,.17.32,1.3,1.3,0,0,0,.15.34c.16.22.35.29.54.1a2.61,2.61,0,0,0,.44-.76c.19-.4.47-.83.65-1.24a.23.23,0,0,0,.12-.12c.28-.52.58-1,.91-1.53A.28.28,0,0,0,19.11,29.44Z"/><path class="cls-3" d="M15.67,11.91a2.29,2.29,0,0,1-.16.31c-.8,1.32-1.43,1.91-1.57,2.79"/><path class="cls-3" d="M16.05,9.31A5.23,5.23,0,0,1,16,10.84a5.56,5.56,0,0,1-.32,1.07"/><path class="cls-3" d="M14.91,6.89a3.82,3.82,0,0,1,1.14,2.42"/><path class="cls-3" d="M9.12,12.33c.37.79.89,1.48,1.07,1.95"/><path class="cls-3" d="M8.78,8.58A5.79,5.79,0,0,0,8.6,9.89"/><polygon class="cls-3" points="36.24 25.52 15.84 24.18 16.2 18.55 36.56 19.85 36.24 25.52"/><polyline class="cls-3" points="10.66 23.87 40.67 25.8 40.63 26.32 10.57 24.4"/><polyline class="cls-3" points="8.48 24.26 6.27 24.12 6.31 23.59 7.95 23.69"/><line class="cls-3" x1="35.98" y1="25.52" x2="35.94" y2="26.02"/><polyline class="cls-3" points="36.47 19.84 40.67 20.09 40.47 25.7"/><path class="cls-3" d="M8.58,23.88s-1,.11-.85-1.12"/><path class="cls-3" d="M8.69,24.05a.27.27,0,0,1-.1-.33"/><path class="cls-3" d="M9.37,23.39l-.14,1c0,.38-.41.34-.6.33a.45.45,0,0,1-.41-.42v-.05"/><path class="cls-3" d="M9.21,24.61a.43.43,0,0,0,.36.12c.24,0,.39-.09.43-.46s.09-.86.09-.86"/><path class="cls-3" d="M10.62,23.31v0a.5.5,0,0,0-.31-.41L9,22.32"/><path class="cls-3" d="M10,24.53a.46.46,0,0,0,.27.08c.26,0,.33-.23.36-.47s0-.68,0-.83"/><path class="cls-3" d="M8.62,24a.78.78,0,0,0-.11.41"/><line class="cls-3" x1="16.78" y1="33.51" x2="15.72" y2="31.62"/><path class="cls-3" d="M16.54,31.77a4.93,4.93,0,0,1,.67-1.44c.42-.55,1.23-1.33,2.07-.88,0,0,.26.13.14.34s-2.09,3.61-2.09,3.61-.24.45-.55.11"/><path class="cls-3" d="M9.08,33.29s-.16.36.37.36H13.5a.43.43,0,0,0,.45-.48c0-.49-1.11-1.12-2.32-1.07a3.1,3.1,0,0,0-1.36.34"/><polyline class="cls-3" points="14.17 24.66 16.99 30.61 15.35 31.93 10.35 24.66"/><path class="cls-3" d="M11,32.17c-.26,0-1.82,0-1.82,0L11.27,26"/><line class="cls-3" x1="11.5" y1="32.1" x2="12.93" y2="28.42"/><path class="cls-3" d="M14,33.29c-.07,0-4.87,0-4.87,0l.4-1"/><line class="cls-3" x1="19.19" y1="29.41" x2="16.84" y2="33.57"/><path class="cls-3" d="M6.51,18.45A1,1,0,0,1,6.64,18l1.72-2.58s.84-1.51,2-1a1.19,1.19,0,0,1,.59,1"/><path class="cls-3" d="M7.73,22.76a1.7,1.7,0,0,1-.21-.41"/><line class="cls-3" x1="9.03" y1="22.32" x2="9.01" y2="22.22"/><line class="cls-3" x1="7.67" y1="23.04" x2="7.59" y2="23.64"/><line class="cls-3" x1="9.33" y1="16.49" x2="8.96" y2="19.18"/><path class="cls-3" d="M19.64,14.3s-1.66-.08-1.52,1.28l-.52.94"/><path class="cls-3" d="M20.15,15.15a16.52,16.52,0,0,0,2.32-.21c.64-.12.71-.29.68-.46s-.31-.15-.31-.15l-3.2,0"/><path class="cls-3" d="M20.3,16a7,7,0,0,0-.57-.47"/><path class="cls-3" d="M20.33,16.12l0-.12a1,1,0,0,1,1.2,0c.12.14,0,.32-.22.36a2.34,2.34,0,0,0-.81.36.27.27,0,0,1-.35,0l-1.06-.54a.9.9,0,0,1-.47-.48,1,1,0,0,1-.08-.3"/><path class="cls-3" d="M20.23,15a1.35,1.35,0,0,1-.41.59"/><path class="cls-3" d="M20.84,15.17l.13.25s.1.29-.1.4"/><path class="cls-3" d="M20,15.38l0,.09.44.11"/><path class="cls-3" d="M20.06,15.47a.41.41,0,0,0-.18.16"/><path class="cls-3" d="M19.93,16.77l-.3.23c-.07.06-.22.11-.28.06s-.1-.26.12-.57"/><path class="cls-3" d="M14,14.77a6.22,6.22,0,0,1-.4,1.69l.16.79"/><path class="cls-3" d="M14,14.77s1.45.31,2.52,3.06"/><path class="cls-3" d="M9.65,14.3s.07-.37.31-.48"/><path class="cls-3" d="M10.8,14.79a10.22,10.22,0,0,0,2.79,1.67"/><path class="cls-3" d="M10,14.11l.26.24"/><path class="cls-3" d="M6.52,18.42l-.15,4.34s-.15-.44,2.77-.58l-.18-3A1.14,1.14,0,0,0,8.15,19"/><path class="cls-3" d="M7.68,23h0"/><path class="cls-3" d="M6.37,22.76s0,.27,1.31.24"/><line class="cls-3" x1="18.9" y1="16.18" x2="18.48" y2="18.32"/><path class="cls-3" d="M17.91,16s-.38-.06-.38.39.79,1.52,1,2.27"/><path class="cls-3" d="M18.75,16.94a5.4,5.4,0,0,1,.15,1.78"/><path class="cls-3" d="M17.6,16.09s-1.09,1.74-1.09,1.74v.42"/><path class="cls-4" d="M7.68,22.71a.86.86,0,0,0-.15-.22.43.43,0,0,0-.28-.13,1.85,1.85,0,0,0-.52.06.17.17,0,0,0-.12.11.18.18,0,0,0-.16.13.19.19,0,0,0,.13.23,7.47,7.47,0,0,0,.94.09.17.17,0,0,0,.16-.09A.19.19,0,0,0,7.68,22.71Z"/><path class="cls-3" d="M8.69,8.82s-.08,0-.08-.07c-.07-.24,1.36-.83,3.18-1.33s3.35-.7,3.41-.46c0,0,0,.08-.06.13"/><path class="cls-3" d="M9.3,10.2a.83.83,0,0,0-.8-.27c-.57.17-.6.85-.47,1.34s.42,1.12,1,1.06a.59.59,0,0,0,.48-.47"/><path class="cls-3" d="M8.75,10.49a1,1,0,0,1,.13.35c.06.28.09.49.15.67"/><path class="cls-3" d="M8.48,11c.11.1.28.21.44.11"/><path class="cls-3" d="M8.68,11.08a.36.36,0,0,1-.11.37"/><path class="cls-3" d="M16,8.69h.14c.58.12.65.81.56,1.31A1.36,1.36,0,0,1,16,11.08"/><path class="cls-3" d="M16.2,9.71a.35.35,0,0,1-.11.1"/><path class="cls-3" d="M16.08,10.14l.07.07"/><polyline class="cls-3" points="13.73 8.73 14.63 11.05 13.59 10.46"/><path class="cls-3" d="M14.34,10.21h.17a.8.8,0,0,0,.63-.94.81.81,0,0,0-.82-.79.71.71,0,0,0-.53.38"/><ellipse class="cls-3" cx="12.44" cy="9.64" rx="0.74" ry="0.87" transform="matrix(0.99, -0.11, 0.11, 0.99, -0.95, 1.37)"/><path class="cls-4" d="M12.71,9.32A.32.32,0,0,1,13,9.9.32.32,0,0,1,12.71,9.32Z"/><path class="cls-4" d="M14.66,9.06a.32.32,0,0,1,.28.58A.32.32,0,0,1,14.66,9.06Z"/><path class="cls-3" d="M12,7.37a4.78,4.78,0,0,1-1.13,2.52,4.89,4.89,0,0,0,0-1.79"/><path class="cls-3" d="M10.86,8s-.23,2-1.74,2"/><path class="cls-3" d="M8.67,12.26s0,1.28.93,1.12"/><path class="cls-3" d="M8.75,8.58a2,2,0,0,0-.31,1.33"/><path class="cls-3" d="M13.88,7A4,4,0,0,0,15.15,8.4a4.25,4.25,0,0,1-.37-1,2.69,2.69,0,0,0,1.1,1.05"/><path class="cls-3" d="M12.71,7.19a3.18,3.18,0,0,0,.67.71,3.47,3.47,0,0,1-.17-.82"/><path class="cls-3" d="M16.2,10.94c.08.05.29,2-1,1.85"/><path class="cls-4" d="M16.22,11.06a.1.1,0,0,0-.14-.05c-.12.06-.16.22-.2.34s-.08.3-.13.45a3.25,3.25,0,0,1-.18.43,1.3,1.3,0,0,1-.27.39.09.09,0,0,0,.11.14l.07,0a.09.09,0,0,0,.11,0l0,0a.08.08,0,0,0,.1,0,1.08,1.08,0,0,1,.18-.11.44.44,0,0,0,.13-.14,1.43,1.43,0,0,0,.17-.43A1.51,1.51,0,0,0,16.22,11.06Z"/><path class="cls-4" d="M9.59,13.15A.22.22,0,0,0,9.51,13l0,0,0-.06h0a2.43,2.43,0,0,1-.14-.2,1.27,1.27,0,0,1-.13-.19.41.41,0,0,0-.22-.19.19.19,0,0,0-.23.13.19.19,0,0,0,.11.21v0l0,0a.23.23,0,0,0,0,.2.5.5,0,0,0,.05.13.76.76,0,0,1,.08.11.21.21,0,0,0,.13.05h0a.69.69,0,0,0,.18.16.17.17,0,0,0,.17,0,.12.12,0,0,0,.1,0A.18.18,0,0,0,9.59,13.15Z"/><path class="cls-4" d="M11.94,7.51a.19.19,0,0,0-.22-.1l-.09,0a4,4,0,0,1-.57.22l-.05,0-.13,0a.17.17,0,0,0-.21.12.28.28,0,0,0-.18,0,.41.41,0,0,0-.2.16A.37.37,0,0,0,10,8a.87.87,0,0,0-.14.12l0,0-.54.21L9,8.42l-.16.1a.42.42,0,0,0-.08.12h0a.49.49,0,0,0-.11.28.62.62,0,0,0,0,.13.29.29,0,0,0-.07.16,2,2,0,0,1-.06.32.28.28,0,0,0,.34.34H9a.37.37,0,0,0,.48,0l.11-.07h0a.72.72,0,0,0,.51-.32l0,0,0,0s0,0,0,0l.19-.32h0A.2.2,0,0,0,10.51,9l0-.07h0v0a.13.13,0,0,1,0-.06v0a.22.22,0,0,0,0-.08h0l0-.06a1.71,1.71,0,0,0,.21-.57,1.4,1.4,0,0,1,.15.6c0,.17,0,.33,0,.5v0a.5.5,0,0,0-.05.13.21.21,0,0,0-.06.16c0,.17.26.26.34.09l0-.05h0l0,0a.29.29,0,0,0,.07-.12.41.41,0,0,0,0-.11c.09-.22.18-.44.28-.66a2.67,2.67,0,0,0,.17-.5,2,2,0,0,0,0-.24l0-.14v0h0A.19.19,0,0,0,11.94,7.51Z"/><path class="cls-4" d="M13.26,7.5l0,0h0l0,0a.08.08,0,0,1,0,0h0v0a1.94,1.94,0,0,1-.05-.2A.09.09,0,0,0,13,7.1l-.08,0a.08.08,0,0,0-.08-.07c-.12,0-.12.18,0,.18a.12.12,0,0,0,0,.07h0l0,0,.24.27a.09.09,0,0,0,.13-.13Z"/><path class="cls-4" d="M13.24,7.47h0S13.25,7.48,13.24,7.47Z"/><path class="cls-4" d="M15.8,8.06c-.26-.4-.6-.75-.88-1.14a.19.19,0,0,0-.25-.07.17.17,0,0,0-.06.06c-.12-.08-.26-.16-.38,0h0a.16.16,0,0,0-.16,0,.19.19,0,0,0-.06.25l.36.47a3.72,3.72,0,0,1,.33.45.19.19,0,0,0,.25.07A.19.19,0,0,0,15,7.89a1,1,0,0,0-.08-.14l-.17-.28.22.17a1.72,1.72,0,0,1,.27.27,3.37,3.37,0,0,0,.28.38C15.66,8.44,15.91,8.24,15.8,8.06Z"/><path class="cls-4" d="M17.82,16.06v0s0,0-.06-.06H17.7l0,0a.33.33,0,0,0-.06.1v0h0a.09.09,0,0,0,0,.06v0h0a.13.13,0,0,0,0,.06.1.1,0,0,0,.05,0,.06.06,0,0,0,.06,0,.07.07,0,0,0,.05,0l0-.09a.08.08,0,0,0,0,0l0,0A.2.2,0,0,0,17.82,16.06Z"/><path class="cls-4" d="M18.93,17.88a.2.2,0,0,0-.09-.15v-.31s0-.09-.09-.09-.09,0-.09.09v.31a.16.16,0,0,0-.1.15,1.22,1.22,0,0,1,0,.27.18.18,0,0,0-.11.17.2.2,0,0,0,.07.16v0s0,0,0,0v0a.2.2,0,0,0,.2.13.19.19,0,0,0,.16-.18C18.93,18.31,18.93,18.09,18.93,17.88Z"/><line class="cls-3" x1="29.61" y1="30.2" x2="29.61" y2="32.69"/><line class="cls-3" x1="29.61" y1="25.65" x2="29.61" y2="26.71"/><polyline class="cls-3" points="28.45 30.2 27.27 31.92 26.54 31.92"/><line class="cls-3" x1="31.54" y1="25.75" x2="29.83" y2="28.22"/><line class="cls-3" x1="28.45" y1="26.71" x2="27.62" y2="25.52"/><line class="cls-3" x1="31.5" y1="31.12" x2="29.83" y2="28.71"/><path class="cls-3" d="M32.48,25.82a5.83,5.83,0,0,1,.61,2.64c0,2.86-2,5.19-4.41,5.19s-4.41-2.33-4.41-5.19a5.77,5.77,0,0,1,.87-3.1"/><path class="cls-3" d="M33.3,25.87a5.8,5.8,0,0,1,.59,2.59c0,2.86-2,5.19-4.41,5.19"/><path class="cls-3" d="M25.87,28.21a5,5,0,0,1,.71-2.37"/><path class="cls-3" d="M26.57,31.08a5.11,5.11,0,0,1-.7-2.38"/><path class="cls-3" d="M28.44,32.67A3.32,3.32,0,0,1,27.29,32"/><path class="cls-3" d="M31.54,25.76a5,5,0,0,1,.76,2.7c0,2.27-1.41,4.14-3.23,4.37"/><path class="cls-3" d="M29.07,32.83a2.55,2.55,0,0,1-.39,0c-2,0-3.61-2-3.61-4.39a4.93,4.93,0,0,1,1-3"/><line class="cls-3" x1="28.49" y1="32.82" x2="28.49" y2="25.58"/><line class="cls-3" x1="28.88" y1="25.6" x2="28.88" y2="32.82"/><line class="cls-3" x1="32.25" y1="28.66" x2="25.11" y2="28.66"/><line class="cls-3" x1="25.13" y1="28.26" x2="32.25" y2="28.26"/><line class="cls-3" x1="26.24" y1="31.65" x2="30.36" y2="25.7"/><line class="cls-3" x1="30.82" y1="25.72" x2="26.54" y2="31.92"/><line class="cls-3" x1="30.86" y1="31.94" x2="26.35" y2="25.44"/><line class="cls-3" x1="26.85" y1="25.46" x2="31.13" y2="31.65"/><ellipse class="cls-9" cx="28.68" cy="28.46" rx="0.69" ry="0.76"/><path class="cls-3" d="M15.2,7s1.47-2.2-.08-2.52-3.46,1.69-4.06,3.23"/><path class="cls-3" d="M8.59,8.58S8,5.82,10.43,5A3.3,3.3,0,0,1,13,5"/><path class="cls-3" d="M15.27,17.33a5.86,5.86,0,0,1-.88,6.72"/><polyline class="cls-3" points="13.64 16.67 11.28 15.96 10.92 14.95"/><path class="cls-3" d="M13.59,16.52s1-.94,1-.94l-.06-.51"/><path class="cls-3" d="M12,17.69H10v1.67s0,1.11,1,1.11a1,1,0,0,0,1.13-1A16,16,0,0,0,12,17.69Z"/><path class="cls-3" d="M14.11,11.72A2.45,2.45,0,0,1,12,11.26"/></g></svg>