<svg xmlns="http://www.w3.org/2000/svg" viewBox="0 0 32.68 41.59"><defs><style>.cls-1{fill:#ea4827;}.cls-10,.cls-2{fill:#f59da0;}.cls-3{fill:#0d773c;}.cls-4{fill:#f9b730;}.cls-5{fill:#89d3de;}.cls-6{fill:#fff;}.cls-7{fill:#0077bf;}.cls-8{fill:none;}.cls-10,.cls-8{stroke:#1c204d;stroke-linecap:round;stroke-linejoin:round;stroke-width:0.4px;}.cls-9{fill:#1c204d;}</style></defs><g id="Layer_1" data-name="Layer 1"><path class="cls-1" d="M19.17,19.88l-.41-.26a.45.45,0,0,0-.31-.24h.05a1.22,1.22,0,0,1-.24-.1,1.06,1.06,0,0,0-.34-.12l-.16,0-.23-.09h0c.08-.36.32-.72.2-1.07a.39.39,0,0,0-.4-.28c-.19,0-.35.15-.54.18a4.52,4.52,0,0,1-1.46-.16c-.55-.1-1.1-.23-1.64-.38a.28.28,0,0,0-.37.23l-.18,1c0,.06,0,.12,0,.17l-.15.06-.14.12,0,0h0l-.14.11a3.15,3.15,0,0,0-.29.22l0,0-.07.06a.69.69,0,0,0-.13.11l-.1.11,0,0c0-.08,0,0,0,0l-.06.09a.37.37,0,0,0-.17.4,2.61,2.61,0,0,0-.41.52c-.14.22-.28.44-.4.67a11,11,0,0,0-.65,1.34h0a1.17,1.17,0,0,0-.05.11.29.29,0,0,0,0,.09.31.31,0,0,0-.06.13A3.18,3.18,0,0,0,10,24.08a2.42,2.42,0,0,0,.06.46,2.23,2.23,0,0,0,.05.36,2.79,2.79,0,0,0,.24.53,1.12,1.12,0,0,0,.11.25s0,0,0,0h0v0h0a.49.49,0,0,0,.05.19.38.38,0,0,0,.43.17.39.39,0,0,0,.27-.3c.11-.12.22-.24.33-.34a.37.37,0,0,1,.12-.07.29.29,0,0,1,0-.11.24.24,0,0,1,0-.12.16.16,0,0,1,0-.12.11.11,0,0,1,0-.06l.08-.1.09-.07a.44.44,0,0,1,.24-.07l.13,0h0c-.27-.39.33-.2.08-.61a8.59,8.59,0,0,1,.67-1.7c.33-.61-.09-2,.43-2.45a.28.28,0,0,0,.1-.17.62.62,0,0,0,.33,0,15.78,15.78,0,0,1,1.81.26,13.3,13.3,0,0,0,1.55.08c.57.05,1.14.11,1.71.19A.27.27,0,0,0,19.17,19.88Z"/><path class="cls-1" d="M22.22,24.05a.19.19,0,0,0-.26.06h-.09l-.25.1-.43.26a.17.17,0,0,0-.06.06s-.61-.37-.62-.32-.37,1-.38,1.07.81-.15.83-.09.11,0,.18,0a.41.41,0,0,0,.3-.09l.21-.12a1.56,1.56,0,0,0,.36-.32c.11-.14.19-.28.28-.42A.2.2,0,0,0,22.22,24.05Z"/><path class="cls-2" d="M22.09,23.8a.37.37,0,0,0-.13-.15h0a7.06,7.06,0,0,0-.69-1.44c-.23-.41-.47-.82-.71-1.22a.36.36,0,0,0-.11-.21l-.05-.05a.27.27,0,0,0-.08-.07,2.18,2.18,0,0,0-.7-.46,1.14,1.14,0,0,0-.48-.09,1.91,1.91,0,0,0-.54.1l-.1,0-.07,0a.24.24,0,0,0-.09.06.35.35,0,0,0-.06.09.36.36,0,0,0,0,.11v.07a.33.33,0,0,0,.07.13l0,0a.35.35,0,0,0,.33.2h.13a.7.7,0,0,0,.19-.06l.08,0c-.05,0-.06,0,0,0h.17l.07,0,.05,0h0c.05,0,.12.06.16.08a.13.13,0,0,0,0,.06,1.86,1.86,0,0,0,.13.46.44.44,0,0,0-.28,0,.9.9,0,0,0-.34.2l-.6.51a.29.29,0,0,0,0,.34.28.28,0,0,0,.32.13,1,1,0,0,0,.44-.23.86.86,0,0,1,.14-.13l.06,0,.05,0h0l.11,0a.22.22,0,0,0,.05.08l0,0h0a.63.63,0,0,0-.2.23c-.07.12-.12.24-.19.36l0,.06,0,0h0l0,0,0,0,0,0h0l0,0h0a.28.28,0,0,0-.2.35.29.29,0,0,0,.35.2c.3-.05.47-.31.61-.57a1.39,1.39,0,0,0,1.29.8h.06v0a.48.48,0,0,1,0,.12.28.28,0,0,0,0,.13.19.19,0,0,0,0,.09.21.21,0,0,0,.2.07h0a.27.27,0,0,0,.23-.12l.16-.1.05,0A.35.35,0,0,0,22,24,.22.22,0,0,0,22.09,23.8Z"/><path class="cls-2" d="M15.19,27.59c.28-.06.65,0,.86-.26A.64.64,0,0,0,16.2,27a.28.28,0,0,0,0-.16h0s0,0,0-.06v0a.15.15,0,0,0,0,0l0,0h0l0,0-.06,0-.59,0a1.34,1.34,0,0,1-.88.1.3.3,0,0,1-.13-.09.15.15,0,0,0-.09.06,4.67,4.67,0,0,1-.91-.32l-.19-.11a1.25,1.25,0,0,0,.54-.27,3.19,3.19,0,0,0,.33-.31c.12-.11.3-.24.34-.4A.34.34,0,0,0,14,25s0,0,0,0l-.06,0H13.7l0,0h0l0,0-.16.13a.24.24,0,0,0-.06.09h-.05a3.43,3.43,0,0,1-.47,0,.28.28,0,0,0-.33.16v0l-.11.09-.12-.19c0-.05-.1.19-.16.18s-.12-.13-.17-.09-.09,0-.16.05l-.09.08,0,0,0,0-.19.1a.7.7,0,0,0-.22.2.2.2,0,0,0,0,.17.25.25,0,0,0,.12.11l.23.2.72.37c.27.14.56.26.85.39h0a6,6,0,0,0,1.45.45l.46.08A.26.26,0,0,1,15.19,27.59Z"/><path class="cls-3" d="M18.27,26.87a3.24,3.24,0,0,1-.88.06l-.95,0a.3.3,0,0,0-.28.29c0,.34-.73.37-1,.45a.31.31,0,0,0-.1.05l-.22-.05a.27.27,0,0,0-.14-.07,4.2,4.2,0,0,1-2.22-.65c-.16-.12-.41,0-.3.23a.49.49,0,0,1,0,.24v.05a.44.44,0,0,0,0,.47c0,.07,0,.14,0,.21v.3a4.07,4.07,0,0,0,0,.5.53.53,0,0,0-.07.26c0,.49,0,1,0,1.46a.54.54,0,0,0-.09.26c0,.36-.05.71-.06,1.07,0,.17,0,.35,0,.53s0,.13,0,.19L12,33a.43.43,0,0,0,.17.35l0,.63a.53.53,0,0,0-.1.28c0,.22,0,.45,0,.68l0,.6a.34.34,0,0,0,.06.25l0,0a.28.28,0,0,0,.32.41,1.28,1.28,0,0,1,.51.06,4.64,4.64,0,0,0,.64.07l.61,0h.39a.29.29,0,0,0,.49-.2c0-.5,0-1,0-1.5l0-.06a9.1,9.1,0,0,0,.18-1.57c0-.26,0-.52.07-.78l0-.26h.06l0,1.65c0,.4,0,.81,0,1.21a.42.42,0,0,0-.05.2,4.93,4.93,0,0,0,0,.55.27.27,0,0,0,0,.12.24.24,0,0,0-.06.11.34.34,0,0,0,0,.18.5.5,0,0,0,0,.12.29.29,0,0,0,.28.36c.35,0,.7,0,1-.06a2.73,2.73,0,0,1,.5-.05,1.93,1.93,0,0,0,.48,0,.38.38,0,0,0,.61-.39c0-.1,0-.19-.05-.29l0-.11c0-.15,0-.3.05-.45,0-.33,0-.65,0-1a7.53,7.53,0,0,0,0-1,3.71,3.71,0,0,1,0-.47c0-.09,0-.19.05-.28a.39.39,0,0,0,0-.24v0c0-.85.14-1.7.22-2.54s0-1.68.16-2.5A.29.29,0,0,0,18.27,26.87Z"/><path class="cls-4" d="M20.87,18.65a1.19,1.19,0,0,1-.35-.19l-.07-.05a7.85,7.85,0,0,1-.8-.32l-.46-.2a3.18,3.18,0,0,0-.51-.13.41.41,0,0,1-.3-.24h-.16a1.23,1.23,0,0,1-.63-.08l-.05-.06a5.72,5.72,0,0,1-1.29.27.52.52,0,0,0-.15.06l-.33-.05a.4.4,0,0,0-.21-.08h-.12a.67.67,0,0,1-.24.07l-.4.05h0a3.14,3.14,0,0,1-.61.3l-.2.08h0l-.11.05-.42.21c-.28.16-.53.37-.82.53a4.74,4.74,0,0,0-.54.31.36.36,0,0,1,.08.15,2.1,2.1,0,0,0,.06.24l0,0,.13,0a.45.45,0,0,1,.21.12l.07.1a.45.45,0,0,1,0,.34.35.35,0,0,1,.08.16.36.36,0,0,1,0,.11l0,.08v0l0,.12a.41.41,0,0,1-.05.19l0,0a.61.61,0,0,1,.05.12c0,.2.22.52.16.72s-.35.26-.57.32-.31,0-.4.15c-.26.34.16.53.27.83a4.34,4.34,0,0,1,.05,1.25c0,.24,0,.48,0,.72.45,0,.89.13,1.33.19l.05-.06a.55.55,0,0,1,.21-.12h.12a.48.48,0,0,1,.24.06l.1.07a.35.35,0,0,1,.08.13,17.69,17.69,0,0,1,3.81.59l.89.27,0,0,.06,0A.48.48,0,0,1,19.5,26l.13,0,.1.06c.19-.6.41-1.19.6-1.79q.11-.3.18-.6l0,0-.16-.08-.26-.21-.15-.14a1.07,1.07,0,0,0-.27.25h0a.62.62,0,0,1-.14.14l-.11.05a.48.48,0,0,1-.37-.05.37.37,0,0,1-.13-.12.46.46,0,0,1-.09-.17.4.4,0,0,1,0-.19.49.49,0,0,1,.06-.17l0-.06L19,22.8a.49.49,0,0,1-.4-.29.48.48,0,0,1,.2-.6,1,1,0,0,1,.21-.09l.17-.09,0,0a.39.39,0,0,1,.3-.13,2.64,2.64,0,0,1,.29-.15.14.14,0,0,1,0-.06l0-.06,0,0,0,0,0,0,0,0a2.67,2.67,0,0,0-.45-.22L19,20.9h-.1a.49.49,0,0,1-.59-.33.49.49,0,0,1,.34-.59,1.19,1.19,0,0,1,.79,0,5.71,5.71,0,0,1,.61.29,1.42,1.42,0,0,1,.46.42.25.25,0,0,1,0-.08c.06-.22.13-.44.21-.65a.54.54,0,0,1,.15-.23v0a.54.54,0,0,1,.06-.25l.08-.09a.31.31,0,0,1,.15-.1h0c0-.22,0-.43,0-.64A.78.78,0,0,1,20.87,18.65Z"/><path class="cls-5" d="M13.19,25.07l-.48,0a.44.44,0,0,1-.4-.26h0c-.25,0-.5,0-.75,0h0s-.08,0-.1.06c-.25.34.2.3.31.59S13.07,25.12,13.19,25.07Z"/><path class="cls-5" d="M19.88,26.32l-.16-.08L19.46,26l-.15-.14a2.89,2.89,0,0,0-.27.24A2.19,2.19,0,0,1,18.2,26a.31.31,0,0,1,0-.19v0a7.07,7.07,0,0,0-1.13-.23,11.91,11.91,0,0,0-1.67-.21,1.58,1.58,0,0,1-.65,0,.84.84,0,0,1-.28-.18c-.05-.06-.14-.22-.16-.23a.39.39,0,0,0-.15,0,.47.47,0,0,1,.16.62.7.7,0,0,1-.08.1h0a1.83,1.83,0,0,1-.51.49,3.25,3.25,0,0,0,.4.15c.3.09.61.13.91.21s.67.23,1,.3a7,7,0,0,0,2.32.23,1.37,1.37,0,0,0,.46-.14,1.55,1.55,0,0,1,.4-.17,2,2,0,0,1,.8,0c.25-.13.59-.26.62-.38Z"/><path class="cls-2" d="M20.07,13.36a.48.48,0,0,0-.56-.19l-.09.05a.26.26,0,0,0-.2-.18.58.58,0,0,0-.06-.17,1,1,0,0,0-.39-.32c-.24-.14-.26-.4-.31-.65A2.72,2.72,0,0,0,18,10.85a.32.32,0,0,0-.49,0c-.28.33-.82.16-1.16,0l-.77-.29-.41-.15a1.38,1.38,0,0,0-.39-.13.43.43,0,0,0-.36.1c-.11.08-.67.06-.71.18a.65.65,0,0,1-.24.43c-.37.31-.38.71-.62,1.15a2.36,2.36,0,0,0-.27.77,1.72,1.72,0,0,0-.07-.21.39.39,0,0,0-.42-.29.53.53,0,0,0-.33.22,1.11,1.11,0,0,0-.16.59.86.86,0,0,0,.2.62l.12.08h0l0,0a.31.31,0,0,0,.1.13h0a1.09,1.09,0,0,1,0,.26v0a.32.32,0,0,0,.17.3.29.29,0,0,0,.16,0,.29.29,0,0,0,.18-.07l.05,0v.06a5.27,5.27,0,0,0,.4,1.46c.17.39.35.76.5,1.16a6.82,6.82,0,0,1,1.33.27,9.19,9.19,0,0,1,1.59-.11,4.09,4.09,0,0,0,.92-.08.72.72,0,0,0,.38-.19s.49-.88.51-.92a6.6,6.6,0,0,0,.6-1,.34.34,0,0,0,.33.1.33.33,0,0,0,.22-.27s0-.08,0-.12v0h0a.36.36,0,0,0,0-.07l0,0h0a3.88,3.88,0,0,0,.31-.26,1.15,1.15,0,0,0,.4-.81A.77.77,0,0,0,20.07,13.36Z"/><path class="cls-6" d="M15.43,12a2.45,2.45,0,0,0-.37-.08.67.67,0,0,0-.58.4.14.14,0,0,0-.08,0,.2.2,0,0,0-.08.1s0,.07,0,.1,0,0,0,.08h0v0a.2.2,0,0,0,0,.08.11.11,0,0,0,.06.07.12.12,0,0,0,.09,0,2.31,2.31,0,0,1,.17.42c.09,0,.23.13.31.15s.57-.47.74-.45a.18.18,0,0,0,.2-.17A1.2,1.2,0,0,0,15.43,12Z"/><path class="cls-6" d="M17.49,12.81a.38.38,0,0,0,0-.1h0s0-.31,0-.32,0,.13-.09.09-.55-.52-.62-.5l-.79.31c-.09,0-.07.53-.05.61s.25.13.34.11.14.5.67.45c.15,0,.23-.4.38-.44A.18.18,0,0,0,17.49,12.81Z"/><path class="cls-7" d="M19.3,11.87a4.44,4.44,0,0,0-.73-.88.27.27,0,0,0-.08-.07.27.27,0,0,0,0-.12,2.32,2.32,0,0,0-1.22-1.11.15.15,0,0,0-.09,0,.7.7,0,0,0-.24-.13,4.38,4.38,0,0,0-.52,0,3.4,3.4,0,0,0-.46-.08,3.13,3.13,0,0,0-.53,0,.3.3,0,0,0-.17.08,4.13,4.13,0,0,0-.89.22.25.25,0,0,0-.18.2h0l-.19.14a1,1,0,0,0-.18.18.51.51,0,0,0-.07.15.19.19,0,0,0,0,.08h0a.18.18,0,0,0-.09,0l-.05.06-.1,0a1.52,1.52,0,0,0-.73.62,2.39,2.39,0,0,0-.28.49,1.71,1.71,0,0,0-.09.3.44.44,0,0,0,0,.15s0,0,0,.06a.19.19,0,0,0,.1.24c.1,0,.1.14.1.23a2.54,2.54,0,0,1,0,.39,4.93,4.93,0,0,1-.1.85.2.2,0,0,0,.17.2l.45.05h.06l0,0a.12.12,0,0,0,.22-.1,18.14,18.14,0,0,1-.26-1.8l.17-.08a.45.45,0,0,1,0-.12,4.93,4.93,0,0,0,.36-1.3.36.36,0,0,1,.29-.25.36.36,0,0,1,.33.15h0l0,0h.08l.08,0,.07,0,.12,0h.07a.23.23,0,0,1,.12.06,2.39,2.39,0,0,0,.51.13h0a.21.21,0,0,0,.15.07c.47,0,.94.1,1.41.11a4.34,4.34,0,0,0,.72,0l.33,0H18a3,3,0,0,0,.38,1.11,2.12,2.12,0,0,0,.38.47l.2.19h0a.37.37,0,0,0-.05.11,3.1,3.1,0,0,1-.15.6s0,.08,0,.12a.18.18,0,0,0-.09.1,1.12,1.12,0,0,0-.09.36v0l0,0a.41.41,0,0,1,0,.08l-.06.18a.22.22,0,0,0,0,.08c-.07.06,0,.22.07.21s.43,0,.65,0a.12.12,0,0,0,.14-.11c0-.24,0-.48,0-.72,0,0,0-.06,0-.09a.1.1,0,0,0,0-.07c0-.2,0-.4.05-.59h0a.25.25,0,0,0,.17-.28A2.67,2.67,0,0,0,19.3,11.87Z"/><path class="cls-8" d="M13.24,18.44a2.38,2.38,0,0,1,0-.45c0-.12.06-.85.25-.83"/><path class="cls-8" d="M13.55,17.34s1,.35,1.46.48"/><path class="cls-8" d="M18.85,15.44a1.59,1.59,0,0,1-.15.29,14.09,14.09,0,0,0-1.05,1.84"/><path class="cls-8" d="M19.06,14.85a4.22,4.22,0,0,1-.21.59"/><path class="cls-8" d="M12.56,14.21a6,6,0,0,0,.17.95,20.11,20.11,0,0,0,.85,2.18"/><path class="cls-8" d="M12.49,12.6a.46.46,0,0,0-.42-.14s-.44,0-.49.71.49.8.52,1.22h0c0,.2,0,.41.29.42a.4.4,0,0,0,.21-.06"/><path class="cls-8" d="M12.11,13.08c0,.13,0,.14.14.31a.87.87,0,0,1,.14.27"/><path class="cls-8" d="M19.44,13.27a.43.43,0,0,1,.42,0s.43.13.35.79-.64.69-.75,1.09h0c0,.2-.08.4-.37.36a.39.39,0,0,1-.19-.1"/><path class="cls-8" d="M19.67,13.84c0,.13,0,.12-.16.26a.85.85,0,0,0-.2.24"/><path class="cls-8" d="M17.49,12.83A.84.84,0,0,0,17,12a.54.54,0,0,0-.22,0,.8.8,0,0,0-.85.74.78.78,0,0,0,.73.85.81.81,0,0,0,.44-.09A.75.75,0,0,0,17.49,12.83Z"/><path class="cls-8" d="M14.41,12.25l.09-.12a.82.82,0,0,1,.46-.26h.2a.8.8,0,1,1-.64,1.35.75.75,0,0,1-.17-.27,1,1,0,0,1,0-.34.8.8,0,0,1,.11-.35"/><path class="cls-8" d="M19.43,13.13l-.17,1.7-1,0,.61-1.88a2.42,2.42,0,0,1-.92-1.8,5.6,5.6,0,0,1-1.87.09"/><path class="cls-8" d="M12.53,12.45l-.17,1.7.94.15-.23-2a8.59,8.59,0,0,0,.63-1.84,8.15,8.15,0,0,0,2.43.71"/><path class="cls-8" d="M19.59,13.2a3.08,3.08,0,0,0-1.13-2.4s-.07-1.14-2.24-1.36"/><path class="cls-8" d="M12.22,12.43a2.57,2.57,0,0,1,1.44-1.93s.39-1.27,2.56-1.05"/><line class="cls-8" x1="12.45" y1="20.92" x2="12.45" y2="22.02"/><path class="cls-8" d="M15.11,26.82a4.43,4.43,0,0,1-1.95-.51"/><path class="cls-8" d="M13.82,27.42a3,3,0,0,0,1.7.13,1.58,1.58,0,0,0,.49-.2s.32-.18.2-.44-.57-.34-1.1-.09"/><path class="cls-8" d="M13.1,26.27a1.32,1.32,0,0,0,1.09-.47s.48-.5.18-.79c0,0-.21-.26-.68.06a.79.79,0,0,1-.67.16.64.64,0,0,0-.8.49"/><path class="cls-8" d="M11.1,26.05a9,9,0,0,0,3.33,1.53"/><path class="cls-8" d="M10.63,21.62a4.26,4.26,0,0,0-.55,3.14"/><path class="cls-8" d="M10.6,21.68a11.39,11.39,0,0,1,1.46-2.11"/><path class="cls-8" d="M21.23,23.81a1,1,0,0,1-1.49-.65"/><path class="cls-8" d="M19.22,22.69l-.44.59s-.17.21-.07.34.57.19.86-.23l.22-.29"/><path class="cls-8" d="M20,22.33a.75.75,0,0,0-.59.16l-.16.2"/><path class="cls-8" d="M19.8,21.55a.68.68,0,0,0-.76.1,9.06,9.06,0,0,0-.67.67s-.16.18,0,.31.69,0,1-.4l.24.12"/><path class="cls-8" d="M19.66,21.5s-.14-.46-.14-.46l-.45-.14c-.48.11-.84-.11-.89-.34s.24-.31.24-.31l.43-.12a1.1,1.1,0,0,1,.39,0,6.52,6.52,0,0,1,.93.37,1.66,1.66,0,0,1,.29.3L21.65,23a2.77,2.77,0,0,1,.4,1"/><path class="cls-9" d="M15.3,37.27a1.7,1.7,0,0,1,.09-.5.41.41,0,0,1,.39-.24c.12,0,.24,0,.31,0s.22.05.3,0l.45-.08a4.48,4.48,0,0,1,1,.08l.88.16h.12l.14,0a1.14,1.14,0,0,1,.65.29.64.64,0,0,1,.38.2.82.82,0,0,1,.1.59c-.08.29-.35.29-.6.28a.28.28,0,0,1-.13,0,4.52,4.52,0,0,1-.9,0c-.31,0-.63,0-.94,0h-.91a5.11,5.11,0,0,0-1,.07.35.35,0,0,1-.44-.33C15.27,37.65,15.28,37.46,15.3,37.27Z"/><path class="cls-9" d="M9.74,37.58a.86.86,0,0,1,.23-.33.64.64,0,0,1,.39-.26s.16-.15.2-.15.11,0,.22,0a1.84,1.84,0,0,1,.83-.19l.28-.07a6.79,6.79,0,0,1,1.19-.07c.2,0-.18-.15,0-.17a7.27,7.27,0,0,1,1.13.14c.4.13.31.53.33,1a.74.74,0,0,1,0,.39c-.14.29-.45.26-.72.26l-1.83,0-.92,0c-.3,0-.62.05-.92,0A.42.42,0,0,1,9.74,37.58Z"/><path class="cls-8" d="M13.74,36.71a3.17,3.17,0,0,0-2-.18c-1.35.21-2,.63-2.09,1.21,0,0-.06.34.27.34"/><path class="cls-8" d="M14.45,36.56l.12,1.1s.06.43-.31.42H9.94"/><line class="cls-8" x1="14.55" y1="37.77" x2="9.74" y2="37.77"/><path class="cls-8" d="M16.14,36.71a3.17,3.17,0,0,1,2-.18c1.35.21,2,.63,2.09,1.21,0,0,.06.34-.27.34"/><path class="cls-8" d="M15.43,36.56l-.12,1.1s-.06.43.31.42h4.32"/><line class="cls-8" x1="15.33" y1="37.77" x2="20.14" y2="37.77"/><polyline class="cls-8" points="12.05 36.24 14.99 36.5 15.52 28.37"/><line class="cls-8" x1="12.05" y1="36.24" x2="12.21" y2="26.82"/><polyline class="cls-8" points="16.49 36.56 15.25 36.53 15.52 28.37"/><line class="cls-8" x1="18.09" y1="36.43" x2="18.61" y2="26.87"/><path class="cls-8" d="M14,28.19a14.62,14.62,0,0,0,2.75.16"/><path class="cls-8" d="M22,23.74c.12,0,.2,0,.22.05s-.29.34-.76.54a2.75,2.75,0,0,1-.4.14s-.53.05-.11-.27"/><path class="cls-8" d="M22.25,23.79s.06,1.75-2.28,1.63"/><path class="cls-8" d="M11.22,26.18c-.17.1-.29.14-.32.1s.26-.39.69-.73l.13-.1"/><line class="cls-8" x1="12.38" y1="24.95" x2="11.26" y2="23.07"/><path class="cls-8" d="M10.9,26.28a5.81,5.81,0,0,1-.81-1.48"/><path class="cls-9" d="M22.15,23.72a.1.1,0,1,0,0,.19A.1.1,0,0,0,22.15,23.72Z"/><path class="cls-1" d="M12.55,8.05a.66.66,0,0,0-.83.21.65.65,0,0,0-.84-.1c-.61.35,0,1.31,1,1.94C12.66,9.36,13.2,8.33,12.55,8.05Z"/><path class="cls-1" d="M14,6.3a.42.42,0,0,0-.56,0,.43.43,0,0,0-.52-.21c-.44.13-.18.84.29,1.39C13.82,7.15,14.33,6.58,14,6.3Z"/><path class="cls-1" d="M10.37,5.28a.48.48,0,0,0-.57.37.48.48,0,0,0-.67.1c-.37.44.39,1.12,1.25,1.47C10.81,6.4,10.94,5.38,10.37,5.28Z"/><path class="cls-1" d="M12.67,4.05a.39.39,0,0,0-.52.14.4.4,0,0,0-.53-.08c-.38.24,0,.9.6,1.33C12.74,4.94,13.08,4.25,12.67,4.05Z"/><path class="cls-1" d="M9.83,8.18a.34.34,0,0,0-.46,0,.34.34,0,0,0-.43-.15c-.36.13-.12.74.28,1.2C9.74,8.94,10.14,8.41,9.83,8.18Z"/><circle class="cls-9" cx="15.01" cy="13.08" r="0.22"/><circle class="cls-9" cx="16.74" cy="13.22" r="0.22"/><line class="cls-8" x1="19.73" y1="26.04" x2="20.44" y2="24.2"/><line class="cls-8" x1="12.34" y1="24.98" x2="12.35" y2="22.92"/><path class="cls-8" d="M19.45,23.59h.45"/><path class="cls-8" d="M13.26,21.85c-.44.15-.7.31-.71.4s1.69.7,3.87,1c.81.12,1.57.21,2.21.26"/><path class="cls-8" d="M20.87,24.1l-.12,0a.75.75,0,0,1-.33,0,.59.59,0,0,1-.35.09.77.77,0,0,1-.32,0,.7.7,0,0,1-.32.06.84.84,0,0,1-.32-.07.81.81,0,0,1-.33,0,.93.93,0,0,1-.34-.09.84.84,0,0,1-.34,0,.81.81,0,0,1-.33-.1.72.72,0,0,1-.34,0,.71.71,0,0,1-.32-.1.7.7,0,0,1-.33,0l-.18,0"/><path class="cls-8" d="M12.64,22.15a.38.38,0,0,0-.28.07.54.54,0,0,0-.31,0c-.17.05-.27.16-.23.24h0c-.06.07,0,.22.23.33a.94.94,0,0,0,.32.11.55.55,0,0,0,.3.19.78.78,0,0,0,.32.05.71.71,0,0,0,.29.15,1,1,0,0,0,.33,0,.77.77,0,0,0,.3.13.87.87,0,0,0,.35,0,.82.82,0,0,0,.31.13.81.81,0,0,0,.35,0,.81.81,0,0,0,.32.13.9.9,0,0,0,.33,0,.94.94,0,0,0,.31.1H16"/><path class="cls-8" d="M16.6,24a1.3,1.3,0,0,1-.28,0,.84.84,0,0,1-.28-.09"/><line class="cls-8" x1="20.6" y1="20.92" x2="20.87" y2="19.44"/><path class="cls-8" d="M12.68,19.69l.37,2a14.41,14.41,0,0,0,4.7.84"/><path class="cls-8" d="M12.75,19c0,.24,1.8.38,4,.3s4-.34,4-.59-1.85-1.2-4-1.12S12.74,18.74,12.75,19Z"/><path class="cls-8" d="M20.64,18.59a.64.64,0,0,1,.27.1.52.52,0,0,1,.31,0c.16.07.25.19.19.26h0s0,0,0,0-.07.2-.26.29a.93.93,0,0,1-.33.08.6.6,0,0,1-.32.15.75.75,0,0,1-.33,0,.78.78,0,0,1-.3.12.87.87,0,0,1-.33,0,1,1,0,0,1-.32.1.86.86,0,0,1-.34,0,.81.81,0,0,1-.33.1.89.89,0,0,1-.35,0,.82.82,0,0,1-.33.09,1,1,0,0,1-.33,0,.84.84,0,0,1-.32.07h-.19"/><path class="cls-8" d="M12.82,18.87a.49.49,0,0,0-.26.12.58.58,0,0,0-.3.06c-.16.09-.24.21-.18.28h0a0,0,0,0,0,0,0c-.05.08.07.2.28.27a.7.7,0,0,0,.33.06.68.68,0,0,0,.33.13.88.88,0,0,0,.33,0,.89.89,0,0,0,.31.09,1.06,1.06,0,0,0,.33,0,.69.69,0,0,0,.32.07.68.68,0,0,0,.34-.05A.78.78,0,0,0,15,20a.8.8,0,0,0,.34-.06.65.65,0,0,0,.34.06A.73.73,0,0,0,16,19.9a.64.64,0,0,0,.33.05.43.43,0,0,0,.17,0"/><path class="cls-8" d="M17.05,19.91a1.3,1.3,0,0,1-.28.05.78.78,0,0,1-.29,0"/><path class="cls-8" d="M13.47,25.15l-2.18-.33a1.65,1.65,0,0,0,.87.77"/><polyline class="cls-8" points="19.37 26.05 18.81 25.97 14.54 25.32"/><path class="cls-8" d="M19.82,26.72a1.66,1.66,0,0,0,.91-.46L18.86,26"/><path class="cls-8" d="M14.13,25.92l1.16.17,4.08.63a1.69,1.69,0,0,0,.45,0"/><path class="cls-8" d="M13.67,26.29l.14,0,3.93.6.14,0a2.1,2.1,0,0,0,1.46-.21"/><line class="cls-8" x1="20.83" y1="24.35" x2="20.77" y2="24.59"/><line class="cls-8" x1="20.96" y1="23.92" x2="21.16" y2="24.39"/><path class="cls-7" d="M17.62,15.31a1.78,1.78,0,0,0-.31-.93.55.55,0,0,0-.39-.2,1.64,1.64,0,0,1-.23,0,.71.71,0,0,0-.21,0,2,2,0,0,0-.45.16.57.57,0,0,1-.46,0,2.42,2.42,0,0,1-.36-.27.39.39,0,0,0-.3,0,.07.07,0,0,0-.05,0,.64.64,0,0,0-.72.26,2.59,2.59,0,0,0-.17.38,2.86,2.86,0,0,0-.15.41.14.14,0,0,0,.15.19.2.2,0,0,0,.16.09,32.35,32.35,0,0,1,3.26.29A.22.22,0,0,0,17.62,15.31Z"/><path class="cls-8" d="M16.25,14.07l.62.06s.82,0,.68,1.4l-1.9-.18"/><path class="cls-8" d="M15.31,14l-.62-.06s-.8-.16-.94,1.25l1.9.19"/><circle class="cls-10" cx="15.8" cy="13.65" r="0.68"/></g></svg>