<svg xmlns="http://www.w3.org/2000/svg" viewBox="0 0 46.02 40.77"><defs><style>.cls-1{fill:#f9e398;}.cls-2{fill:#af6e30;}.cls-3{fill:none;}.cls-10,.cls-11,.cls-3{stroke:#1c204d;stroke-linecap:round;stroke-linejoin:round;stroke-width:0.4px;}.cls-10,.cls-4{fill:#fff;}.cls-5{fill:#30ad4d;}.cls-6{fill:#f59da0;}.cls-7{fill:#1c204d;}.cls-8{fill:#0077bf;}.cls-9{fill:#f9b730;}.cls-11{fill:#ea4827;}</style></defs><g id="Layer_1" data-name="Layer 1"><path class="cls-1" d="M43.38,26.91a1.12,1.12,0,0,0-.67-.66c-.81-.32-1.63-.63-2.47-.88s-1.65-.36-2.48-.55c-1.62-.36-3.28-1.06-4.92-.39a1.32,1.32,0,0,0-.2.12,1.54,1.54,0,0,0-.41-.36,2.81,2.81,0,0,0-1.2-.31c-.32,0-.64-.05-1-.08l-1.13-.07c-.49,0-1.15-.18-1.51.26a1.43,1.43,0,0,0-.14.2l-.42-.14a3.27,3.27,0,0,0-.45-.1,1.05,1.05,0,0,0-.6-.49,25.26,25.26,0,0,0-3.33-.93,1,1,0,0,0-.3,0,.61.61,0,0,0-.15-.13,3,3,0,0,0-.37-.17l-.17,0-.2-.06-.39-.21a.65.65,0,0,0-.37-.12.77.77,0,0,0-.4,0,.83.83,0,0,0-.32.17l-2.6-.8L13,19.87a10.32,10.32,0,0,0-2.77-.64.77.77,0,0,0-.31-.56l-.2-.15h0l-.17-.11A18.69,18.69,0,0,0,8,17.33a1.08,1.08,0,0,0-.33-.3,4.42,4.42,0,0,0-3-.83,3.88,3.88,0,0,0-2.57,1.39,4,4,0,0,0-.54,3,11.78,11.78,0,0,0,.73,3,15.13,15.13,0,0,0,1.55,2.63,8.23,8.23,0,0,0,2,2.15A9.31,9.31,0,0,0,7.17,29a6.28,6.28,0,0,1,1.14.79,5.38,5.38,0,0,0,2.24.86c1,1.42,2.42,2.38,3.57,3.63a.51.51,0,0,0,.79-.1c.05-.09.07-.18.11-.27l.11.24a1.68,1.68,0,0,0,.49.66,1.85,1.85,0,0,0,.69.25,1.78,1.78,0,0,0,1.51-.25,1.85,1.85,0,0,0,.45-.59l.18-.35a1.85,1.85,0,0,0,1.78,1.22,1.37,1.37,0,0,0,.85-.29,2.06,2.06,0,0,0,.45-.64,4.12,4.12,0,0,0,.24-.52,3.82,3.82,0,0,0,.29.48,5.2,5.2,0,0,0,.5.62,1.13,1.13,0,0,0,.83.34,2.13,2.13,0,0,0,1.6-.48A3,3,0,0,0,25.4,34a1.47,1.47,0,0,0,.33.63,2,2,0,0,0,1.6.51,1.92,1.92,0,0,0,1.4-.85,1.25,1.25,0,0,0,.15-.28c.1.13.2.26.31.38a2,2,0,0,0,1.15.69,1.36,1.36,0,0,0,1.36-.55,6.77,6.77,0,0,0,.36-.65l.1-.19a2.88,2.88,0,0,0,.27.59,1.09,1.09,0,0,0,.54.5.72.72,0,0,0,.79-.35l.3-.45.17-.22c-.08.09,0,0,0,0l.1-.13c.15-.18.32-.34.48-.51a.47.47,0,0,0,.27-.14,16.65,16.65,0,0,1,2.33-2.19c.83-.6,1.78-1,2.64-1.55a5.56,5.56,0,0,1,1.4-.5c.55-.15,1.11-.29,1.66-.42s.84-.3.8-.79A.64.64,0,0,0,43.38,26.91Zm-35.61.22a7.06,7.06,0,0,1-3-3.09,7.85,7.85,0,0,1-1-2.1.59.59,0,0,0,.1-.26c.05-.51.05-1,.08-1.53,0-.13,0-.25,0-.38a.58.58,0,0,1,0-.1.63.63,0,0,1,0-.19c0-.05,0-.09,0-.14h0A1.59,1.59,0,0,1,4.61,19,.91.91,0,0,0,5,19H5.3a2.49,2.49,0,0,1,.37.09,1,1,0,0,0,.43.27,1,1,0,0,0,.58,0c.25.19.49.38.76.55a.85.85,0,0,0,.22.09c-.07.13-.12.27-.18.4v0h0c0,.08-.07.15-.1.23a.78.78,0,0,0,0,.4.05.05,0,0,0,0,0,1,1,0,0,0-.13.43A8.45,8.45,0,0,0,8,25a26.67,26.67,0,0,0,1.05,2.92A6.76,6.76,0,0,0,7.77,27.13Z"/><path class="cls-2" d="M19.74,27.81a.46.46,0,0,1,.29,0,23.15,23.15,0,0,0,6.75.18c1.06-.16,2.08-.39,3.14-.5a5.12,5.12,0,0,0,.84-.2.49.49,0,0,0-.48-.55,2.63,2.63,0,0,1-.55-.09.49.49,0,0,0-.27,0,.54.54,0,0,0-.32-.13H29a2,2,0,0,1-.33-.09l.08,0a.48.48,0,0,0-.18-.06.45.45,0,0,0-.2,0,.56.56,0,0,0-.17.09.57.57,0,0,0-.13.14.66.66,0,0,0-.06.27l-.42,0c-.43,0-.85.12-1.28.18a.35.35,0,0,0,0-.23.47.47,0,0,0-.16-.42c-.55-1-1.8-1-2.82-1.26-1.44-.38-2.84-.85-4.24-1.33a18.77,18.77,0,0,0-4-1,29.43,29.43,0,0,0-4.3-.08.51.51,0,0,0-.36.86,5.11,5.11,0,0,0,1.34.93.78.78,0,0,0,.38.42,27.76,27.76,0,0,0,7.52,2.8Z"/><path class="cls-3" d="M42.87,27.43c-4.49-.93-7.22-1.34-11.71-.39s-9.22,1.56-15.23-.23c0,0-6.68-2.21-6.55-6.34"/><path class="cls-3" d="M33.32,35c.68-.77,1.27-1.55,1.87-2.22A12.39,12.39,0,0,1,43,28.44s1-.28,1-1c0-1-4.61-3.16-12.68-3.53"/><path class="cls-3" d="M31.38,23.91a55.4,55.4,0,0,1-6.15-.75c-3.91-.68-12.21-4-15.46-4a2.38,2.38,0,0,0-2.61,3,21.27,21.27,0,0,0,7.21,12.49"/><path class="cls-3" d="M9.05,28a11.6,11.6,0,0,1-2.62-1.91,8.11,8.11,0,0,1-2.35-4.21,4.7,4.7,0,0,1,.09-2.07,1.21,1.21,0,0,1,.17-.38.62.62,0,0,1,.2-.26s.06-.09.1-.1l.09,0c0-.06.21-.05.3-.09a2.29,2.29,0,0,1,1.56.5,5.16,5.16,0,0,1,.76.63"/><path class="cls-3" d="M10.36,19.2A11.42,11.42,0,0,0,7.89,17a5.23,5.23,0,0,0-3.71-.84,3.26,3.26,0,0,0-.92.32c-.16.09-.31.19-.46.29a2.32,2.32,0,0,0-.35.35,2.73,2.73,0,0,0-.52.78,3.28,3.28,0,0,0-.31.82,7.16,7.16,0,0,0,0,3.32A11,11,0,0,0,5,27.61a18.26,18.26,0,0,0,5.81,3.22"/><path class="cls-3" d="M31.69,26.89c-1.82-.27-3.71-.6-5.28-1-4.42-1.07-12.3-4-16.21-3"/><path class="cls-4" d="M35.27,12.37c0-.24-.05-.47-.08-.7-.07-.5-.17-1-.22-1.51a.28.28,0,0,0-.34-.26,7,7,0,0,1-1.58.11h0a.13.13,0,0,0-.09,0h-.07l0,0h0l0,0h-.11l0,0h0l0,0h0l0,0h0l0,0h0s0,0,0,.05h0a.19.19,0,0,0,0,.1l0,0h0a.32.32,0,0,0,0,.14h0v0a.31.31,0,0,0,0,.1h0a.49.49,0,0,0,0,.11c.05.1.1.21.14.31a4.5,4.5,0,0,1,.26.81l0,.07c-.24.12-.49.2-.74.3s-.54.29-.82.41-.62.2-.92.34a5.83,5.83,0,0,0-.83.49l-.06.05a19.06,19.06,0,0,1-3,.64,4.9,4.9,0,0,0-1.37.59,3.58,3.58,0,0,0-1.19.84l0,0a6.58,6.58,0,0,0-1.07.74.58.58,0,0,0-.12.1h0c-.18.13-.38.23-.57.35a1.2,1.2,0,0,0-.47.45.51.51,0,0,0-.17.07.37.37,0,0,0-.09.47A6.57,6.57,0,0,0,22.66,19a2.68,2.68,0,0,1,.07.27c0,.11.13.18.22.2a.29.29,0,0,0,.27-.13l.24-.38,0,0,0,0,0,0,0,0,.15-.15.31-.28.17-.14.09-.06h0l.05,0a.31.31,0,0,0,.12-.16.18.18,0,0,0,.14-.15.18.18,0,0,0-.13-.19l-.13-.05-.07,0s0,0,0,0a1.34,1.34,0,0,1-.24-.12l0,0a.76.76,0,0,0,.32-.11l.08,0a.37.37,0,0,0,.25,0l.15-.1.1-.08h0a2.9,2.9,0,0,1,.33-.2l.25-.15c0,.38.08.75.09,1.13a.32.32,0,0,0-.06.24,16.34,16.34,0,0,0,.3,1.7.26.26,0,0,0,.07.11.28.28,0,0,0,0,.22.28.28,0,0,0,.31.12l.1,0a1.45,1.45,0,0,1,.36,0h.18a.62.62,0,0,0,.26-.06.23.23,0,0,0,.17.05A14.91,14.91,0,0,0,29,19.94c.26-.06.53-.1.79-.17a2.26,2.26,0,0,0,.39-.15c.09-.05.2-.17.29-.13a.3.3,0,0,0,.31-.13,1.26,1.26,0,0,0,.13-.55A.54.54,0,0,0,31,18.7,8.38,8.38,0,0,0,31.35,15h0a3,3,0,0,1,.55-.32l.3-.14a.64.64,0,0,0,.25-.18.2.2,0,0,0,.16,0c.41-.26.84-.5,1.26-.73a8.64,8.64,0,0,0,1.22-.71A.54.54,0,0,0,35.27,12.37Z"/><line class="cls-5" x1="28.58" y1="25.9" x2="25.49" y2="25.87"/><path class="cls-6" d="M33.92,9.76a9.93,9.93,0,0,1-.7-1.33c-.11-.22-.21-.45-.33-.66s-.21-.31-.32-.46a.32.32,0,0,0,0-.16A.77.77,0,0,0,32.36,7h0l-.06-.07A.55.55,0,0,0,32,6.73L32,6.66l-.07,0a11.82,11.82,0,0,0-1.46-1.54,3,3,0,0,0-.31-.31.36.36,0,0,0-.56.08,2.88,2.88,0,0,0-.45.75.53.53,0,0,0,0,.52,1.68,1.68,0,0,0,.4.3.44.44,0,0,0,.25,0,.12.12,0,0,0,0,0,5.1,5.1,0,0,0,.62.51h-.06a.47.47,0,0,0-.3.21.23.23,0,0,0,0,.16.23.23,0,0,0-.21-.06.29.29,0,0,0-.22.15.42.42,0,0,0-.18.14c-.34.13-.7.23-1,.34h0a.25.25,0,0,0-.12,0c-.53.06-1.07,0-1.61,0a4.07,4.07,0,0,1-.78,0c-.28,0-.65-.16-.88.07a2.26,2.26,0,0,0-.23.31,1.43,1.43,0,0,0-.2.36.93.93,0,0,0,.2.87,1.37,1.37,0,0,0,.22.2h0l-.13.06-.15.08L24.6,10a1.22,1.22,0,0,0-.19-.12.88.88,0,0,0-.22-.1.62.62,0,0,0-.38,0,.86.86,0,0,0-.17,0,.52.52,0,0,0-.39.48.59.59,0,0,0,.07.26.49.49,0,0,0,.14.15,1.56,1.56,0,0,0,.29.5,3.15,3.15,0,0,0,.22.29,1,1,0,0,0,.36.24h.06a6.74,6.74,0,0,0,1.05,1.15c.2.16.42.3.61.47a2.76,2.76,0,0,1,.3.29,1.38,1.38,0,0,0,.24.3c.23.17.65.06.91,0a6.55,6.55,0,0,0,.9-.21,6.4,6.4,0,0,0,1.71-.64.36.36,0,0,0,.08-.54.43.43,0,0,0,0-.16c0-.13,0-.26,0-.4a.31.31,0,0,0,.06-.13c.1-.64.22-1.28.36-1.91a1.42,1.42,0,0,0,.16-1,2.4,2.4,0,0,0-.21-.64.46.46,0,0,0-.26-.22c-.07-.16-.14-.32-.2-.48a.23.23,0,0,0,.16,0,1,1,0,0,1,.35,0h0a.27.27,0,0,0,.07.14,2.94,2.94,0,0,1,.31.3c.1.11.18.23.28.33a.73.73,0,0,0,.45.19h.11s0,0,0,0l.48,1a.44.44,0,0,0,.19.25.75.75,0,0,0,.33.07l.55.07a.21.21,0,0,0,.15,0l0,0C33.83,10.09,34,9.92,33.92,9.76Z"/><path class="cls-6" d="M25.91,20.3a.86.86,0,0,0,0-.16.2.2,0,0,0,0-.08.23.23,0,0,0-.08-.17.51.51,0,0,1-.09-.18,2.89,2.89,0,0,1-.11-.51,2.66,2.66,0,0,1,0-.63.18.18,0,0,0-.09-.2l-.66-.31,0,0a.15.15,0,0,0-.09-.06.16.16,0,0,0-.17.05l-.28.29-.07.05a1.26,1.26,0,0,0-.36.33.16.16,0,0,0-.07.07.17.17,0,0,0,0,.2.32.32,0,0,0,.2.1l.08,0h0a.61.61,0,0,1,.14.07l.22.12a3.18,3.18,0,0,0,.15.68v0l-.05,0a.7.7,0,0,0-.38,0,4.75,4.75,0,0,0-.67.21.18.18,0,0,0-.13.22.19.19,0,0,0,.13.13l-.06.05a.18.18,0,0,0,0,.24.17.17,0,0,0,.21,0h0l.06,0h.15l-.14.15a.18.18,0,0,0,.18.3c.41-.06.81-.12,1.22-.2.19,0,.39-.07.58-.13s.18-.24.2-.4l0-.24a.19.19,0,0,0,0-.08Z"/><path class="cls-7" d="M34.77,25.09A2.8,2.8,0,0,0,33.59,25a.29.29,0,0,0,0-.13s0,0,0,0,.08-.17.06-.17a2.47,2.47,0,0,0-.47,0c-.35,0-.79,0-1.14,0l-.07.14a14.83,14.83,0,0,0-1.18,1.64A.33.33,0,0,0,31,27a24.19,24.19,0,0,1,2.55-.25c.37,0,.71-.15,1.08-.2a4.9,4.9,0,0,1,.54,0,1.39,1.39,0,0,0,.54-.07c.36-.2.17-.63-.06-.85A2.59,2.59,0,0,0,34.77,25.09Z"/><path class="cls-8" d="M35.74,18.37c-2.28.36-4.85.92-4.85.92s-1.43.86-4.93,1l-.53,6.65c.28,0,.54.09.81.13l.12,0,.26,0,.28,0H27a7.42,7.42,0,0,0,1.49,0l.07-4.84,5.07-1-2.3,3.28h.56l.05,0h0c.32,0,.64.08,1,.06.17,0,.33-.05.5-.05a.67.67,0,0,1,.2,0,.53.53,0,0,0,.28,0,.1.1,0,0,1,.14.09,3.51,3.51,0,0,0,.79-.12l.06,0H35l2.09-5.28S37.81,18.05,35.74,18.37Z"/><path class="cls-8" d="M26.35,20.25l.36,0h.23l.09,0h.07a4.9,4.9,0,0,1,.54,0l2.79-.57,0,0a2.19,2.19,0,0,1,.39-.29.75.75,0,0,0,.21-.33l-5.16,1.07a2.44,2.44,0,0,1,.1.24A2.2,2.2,0,0,0,26.35,20.25Z"/><path class="cls-8" d="M31.37,16.79,25.51,18c0,.17,0,.34,0,.51l5.82-1.2C31.35,17.14,31.36,17,31.37,16.79Z"/><path class="cls-8" d="M24.12,18.4l.18-.15-2,.41.09.12a4,4,0,0,0,.26.32l.88-.18A3.88,3.88,0,0,1,24.12,18.4Z"/><path class="cls-8" d="M31.19,18.43c0-.18.06-.36.1-.53l-5.68,1.17c0,.16.08.33.13.49Z"/><path class="cls-8" d="M22.77,16.35A5.76,5.76,0,0,1,22,17L22,17l9.46-2a.62.62,0,0,1,.4-.32,4,4,0,0,0,.56-.26c.2-.1.43-.15.62-.26h0Z"/><path class="cls-8" d="M31.43,15.64l-6,1.25a.22.22,0,0,1,.09.17c0,.11,0,.22,0,.33l5.93-1.23A3,3,0,0,0,31.43,15.64Z"/><path class="cls-8" d="M24.33,17.28l.4-.2L25,17l-3.32.68a4.25,4.25,0,0,0,.27.46l2.33-.48A.21.21,0,0,1,24.33,17.28Z"/><path class="cls-8" d="M30.26,12.88a1.65,1.65,0,0,1-.55.42l5.55-1.15v-.06a3.4,3.4,0,0,0,0-.45l-3.52.73a4.23,4.23,0,0,1-.9.39.32.32,0,0,1-.14,0h0l-.11.06a.2.2,0,0,1-.24,0A.22.22,0,0,1,30.26,12.88Z"/><path class="cls-8" d="M35.33,12.71,24.85,14.88c-.33.22-.62.5-1,.71l10.37-2.14a.87.87,0,0,1,.35-.28l.45-.27.23-.14,0,0,0,0Z"/><path class="cls-8" d="M32.69,10.55l2.3-.48c0-.05,0-.11,0-.16a4,4,0,0,1-.48,0,3.42,3.42,0,0,0-.45,0l-.38,0-.1,0-.13,0a.33.33,0,0,1-.1-.06l-.78.16A2.26,2.26,0,0,0,32.69,10.55Z"/><path class="cls-8" d="M33.05,11.56l2.11-.43c0-.17,0-.34-.08-.5l-2.18.45A4.42,4.42,0,0,1,33.05,11.56Z"/><path class="cls-2" d="M25.16,9.42A1.29,1.29,0,0,0,25,9.26L24.69,9l.06-.06a6.34,6.34,0,0,0,.42-.67A.37.37,0,0,0,25,7.74a2.32,2.32,0,0,0-.44-.06,1.5,1.5,0,0,0-.37,0h0a1.31,1.31,0,0,0-.28,0,.37.37,0,0,0-.36.31.39.39,0,0,0,0,.15l-.08.64a1.5,1.5,0,0,0,0,.29.78.78,0,0,0,0,.21.14.14,0,0,0,0,.09v.09a.29.29,0,0,0,.2.26h.14l.1-.05a2.3,2.3,0,0,1,.37,0v0l.05,0,0,0h0l.06.09c.06.09.13.19.25.2a.62.62,0,0,0,.25-.11l.1-.05.05,0h0a.13.13,0,0,0,.09,0,.21.21,0,0,0,.13-.19A.33.33,0,0,0,25.16,9.42Z"/><path class="cls-7" d="M30.08,6.87V6.79A.2.2,0,0,0,30,6.7a.1.1,0,0,0,0,0l-.06,0h0a.54.54,0,0,0-.2-.1l-.05,0-.52-.16a.13.13,0,0,0-.16,0,.15.15,0,0,0-.11,0,.27.27,0,0,0-.18.13c-.18.08-.41.08-.58.16l-.33.18a2.83,2.83,0,0,1-.41.14c-.26.06-.53.1-.79.18s-.54.19-.83.25a.18.18,0,0,0-.11.1l-.59,0c-.23,0-.23.35,0,.36.64,0,1.29,0,1.92.1a5.36,5.36,0,0,0,1.74-.15,2.07,2.07,0,0,0,1.19-.63h0l.05,0h0L30,7.07a.08.08,0,0,1,0,0s0,0,0,0h0a.19.19,0,0,0,0-.08Z"/><path class="cls-9" d="M28.84,6q-.63.3-1.26.57c-.21.08-.42.17-.64.23s-.42,0-.62.1a12.17,12.17,0,0,1-2.67.48.18.18,0,0,0,0,.36,12.39,12.39,0,0,0,2.76-.49c.22,0,.45-.06.67-.12a4.17,4.17,0,0,0,.67-.25c.43-.18.85-.37,1.27-.57C29.23,6.15,29,5.84,28.84,6Z"/><path class="cls-4" d="M23.47,7.25Z"/><path class="cls-4" d="M28.94,3.61a1.71,1.71,0,0,0-1.14-.09,4.57,4.57,0,0,0-1.16.55,4.45,4.45,0,0,0-1,.69,8,8,0,0,1-1,.81.43.43,0,0,0-.15.2l-.06,0-.13.08-.13.06h0l-.06,0c-.21.08-.41.16-.61.22a1,1,0,0,0-.37.14.4.4,0,0,0-.06.43,1.15,1.15,0,0,0,.14.32.35.35,0,0,0,.2.13l.05,0h0l-.06,0a.35.35,0,0,0,.15.07.39.39,0,0,0,.2,0,12.67,12.67,0,0,0,3.55-.78.45.45,0,0,0,.21-.17A3.57,3.57,0,0,0,28,6.27a2.82,2.82,0,0,0,1-.5,1.93,1.93,0,0,0,.36-1.19A1,1,0,0,0,28.94,3.61Z"/><path class="cls-3" d="M27.43,10.94l-.67.83a1,1,0,0,0-.29-.39l-.18-.15a.07.07,0,0,0-.09,0,2.23,2.23,0,0,0-.75.89.1.1,0,0,0,0,.09l.18.15c.2.17.65.39.93.06s.55-.72,1.05-1.39"/><path class="cls-3" d="M26.47,10.18s.63,1.37,2.72.62"/><path class="cls-3" d="M30.78,26.47c-.26.58.2.52.2.52l4.7-.58c.31,0,.25-.41.25-.41-.41-1.48-3.14-1-3.14-1"/><path class="cls-3" d="M32,24.64a15.29,15.29,0,0,0-1.26,1.86"/><line class="cls-3" x1="33.46" y1="24.95" x2="33.72" y2="24.64"/><path class="cls-3" d="M35.32,12.5s0,.23-.09.33c-.3.19-3.84,2.22-3.84,2.22"/><path class="cls-3" d="M32.89,7.93C33,8.08,33.48,9,34,10"/><line class="cls-3" x1="33.13" y1="11.75" x2="34.4" y2="11.88"/><line class="cls-3" x1="31.89" y1="8.57" x2="32.53" y2="9.88"/><line class="cls-3" x1="30.28" y1="12.97" x2="33.13" y2="11.78"/><path class="cls-3" d="M30.64,9.75c0,.11,0,.22,0,.33A10.71,10.71,0,0,0,30.28,13"/><path class="cls-3" d="M30,7.34a4.78,4.78,0,0,1,.52,1.36,5,5,0,0,1,.13,1.05"/><path class="cls-3" d="M30,7.3l0,0"/><path class="cls-3" d="M24.47,11.67c.84,1.41,1.57,1.44,2.12,2.29"/><path class="cls-3" d="M23.57,7.78a3.62,3.62,0,0,0-.15,1.54c0,.15,0,.3.07.44"/><path class="cls-7" d="M27.37,11a7.48,7.48,0,0,1-.56.79.18.18,0,0,0-.1,0,1,1,0,0,0-.17-.33c-.09-.11-.24-.26-.38-.15a.66.66,0,0,0-.14.15l-.14.16-.28.32h0l0,0h0a.15.15,0,0,0-.06.05.15.15,0,0,0,0,.2.39.39,0,0,0,.16.1.27.27,0,0,0,.07.08.67.67,0,0,0,.69.11.9.9,0,0,0,.36-.41,5,5,0,0,0,.7-1A.08.08,0,0,0,27.37,11Z"/><path class="cls-3" d="M24.74,11.62a.45.45,0,0,0,.26-.51"/><path class="cls-3" d="M24.64,11.66l.1,0"/><path class="cls-3" d="M23.55,9.84c-.61.35.06,1.34.46,1.65a.81.81,0,0,0,.63.17"/><path class="cls-3" d="M24.66,10.19a.77.77,0,0,0-1.11-.35"/><path class="cls-3" d="M24.13,10.19a.35.35,0,0,1,.11.21,1.5,1.5,0,0,0,.27.65"/><path class="cls-3" d="M24.28,10.57a.26.26,0,0,1-.3,0"/><path class="cls-3" d="M24.18,10.62a.35.35,0,0,1,0,.31"/><path class="cls-3" d="M30.29,8c.35,0,.69.84.63,1.46a.79.79,0,0,1-.28.57"/><path class="cls-3" d="M29.09,6.26s1.61.27.85,1-3.76,1-5.3.4"/><path class="cls-3" d="M29,5.83a15.05,15.05,0,0,1-5.56,1.49l.08.43a15.05,15.05,0,0,0,5.56-1.49L29,5.83"/><path class="cls-3" d="M23.45,7.32s-.56-.36-.53-.77.63-.21,1.59-.89,2.64-2.59,4.18-2.19c1.12.28.65,1.64.32,2.36"/><path class="cls-3" d="M25,20.6a2.15,2.15,0,0,1-.6-1.55"/><path class="cls-3" d="M24.51,20a3.39,3.39,0,0,0-1.14.25s-.18.09-.15.24,0,.06.4.05"/><path class="cls-3" d="M21.77,17.87a.47.47,0,0,1,.08-.71,35.14,35.14,0,0,1,3.88-2.78A3,3,0,0,1,26.6,14"/><path class="cls-3" d="M24.35,19.3l-.8-.36"/><path class="cls-3" d="M25.52,18.3a6.45,6.45,0,0,1-.89-.43"/><path class="cls-3" d="M24.85,20.48c-.71.09-1.28.57-1.25.78s.34.13.34.13,1.57-.3,1.79-.36.18-.15.21-.29"/><path class="cls-3" d="M23.84,20.91l-.28,0s-.23,0-.24-.14.48-.44,1.3-.61"/><path class="cls-3" d="M25.41,16.79l-1.32.67"/><path class="cls-3" d="M31.09,13.77a8.21,8.21,0,0,1-.2,5.52"/><line class="cls-3" x1="25.97" y1="20.35" x2="25.44" y2="26.83"/><path class="cls-3" d="M33.64,21.29l-2.3,3.28a11.82,11.82,0,0,0,1.83.07A12.63,12.63,0,0,0,35,24.56s2.12-5.35,2.12-5.35.33-1.06-.66-.95-5.58,1-5.58,1-1.16.91-4.93,1"/><line class="cls-3" x1="34.28" y1="21.16" x2="27.94" y2="22.45"/><line class="cls-3" x1="28.57" y1="22.32" x2="28.5" y2="26.93"/><path class="cls-3" d="M25.51,15.93A10.49,10.49,0,0,0,26,20.25"/><path class="cls-3" d="M25.28,7.84A4.14,4.14,0,0,1,24.73,9l.73.71-.84.41"/><path class="cls-3" d="M30.28,13s-.81.92-3.68,1.06"/><path class="cls-3" d="M31.23,6.86a1.07,1.07,0,0,0,.23,1.23c.57.64,1.09.33,1.09.33"/><path class="cls-3" d="M30,7.34A.47.47,0,0,1,30.56,7"/><path class="cls-3" d="M30.89,7.9a.65.65,0,0,0-.61-.26.27.27,0,0,1-.1,0"/><path class="cls-3" d="M31.89,8.57s-.41.14-.82-.43l-.18-.24"/><path class="cls-3" d="M31.21,6.84l-1.4-1.26s-.61-.43-.2-.89c0,0,.19-.2.5.06.15.12,1.6,1.52,2.25,2.21a3,3,0,0,1,.53,1"/><path class="cls-3" d="M29.37,4.94l.1.07"/><path class="cls-3" d="M31.05,7,29.26,5.65a.34.34,0,0,1-.12-.08"/><path class="cls-3" d="M29.09,5.71a.92.92,0,0,1,.44.15"/><path class="cls-3" d="M30.94,7.14l-.8-.34"/><path class="cls-3" d="M33.92,9.75a2.41,2.41,0,0,1,1,.12,2.87,2.87,0,0,1-1.25.14,3.16,3.16,0,0,1-1.25-.13s0,0,.06,0"/><path class="cls-3" d="M23.77,19.05c-.4.41-.69.62-.74.58s.29-.49.77-1,.91-.86,1-.81,0,0,0,.07"/><line class="cls-3" x1="34.92" y1="9.87" x2="35.32" y2="12.5"/><line class="cls-3" x1="32.42" y1="9.88" x2="33.13" y2="11.78"/><circle class="cls-10" cx="27.33" cy="9.33" r="0.86"/><circle class="cls-7" cx="27.33" cy="9.33" r="0.26"/><polyline class="cls-3" points="29.89 8.82 29.04 8.71 29.66 8.11"/><line class="cls-3" x1="29.04" y1="8.71" x2="29.89" y2="8.43"/><path class="cls-11" d="M28.09,10.11a.75.75,0,0,1-.11-.4.79.79,0,0,1,.79-.79.79.79,0,0,1,0,1.57l-.18,0"/><path class="cls-3" d="M29.53,5.26a.27.27,0,0,0-.29,0"/><path class="cls-7" d="M29.38,5a.09.09,0,1,0,0,.18A.09.09,0,0,0,29.38,5Z"/><line class="cls-3" x1="23.03" y1="19.63" x2="21.77" y2="17.87"/><line class="cls-3" x1="24.76" y1="17.83" x2="23.6" y2="17.19"/><path class="cls-7" d="M34.58,9.82s0-.05,0-.06h-.45a.1.1,0,0,0-.09.09.1.1,0,0,0,.09.1,2.07,2.07,0,0,0,.43,0s0,0,0,0A.09.09,0,0,0,34.58,9.82Z"/><path class="cls-7" d="M23.65,19a.09.09,0,0,0-.06,0s-.05,0-.07,0l-.05,0h0l0,0-.1.07-.19.14a.1.1,0,0,0,0,.13.1.1,0,0,0,.13,0l.41-.31a.11.11,0,0,0,0-.07A.09.09,0,0,0,23.65,19Z"/><path class="cls-3" d="M35.68,33.44a1.73,1.73,0,0,0,1.42,1.7"/><path class="cls-3" d="M32.24,33.44a1.72,1.72,0,0,0,3.44,0"/><path class="cls-3" d="M28.8,33.44a1.72,1.72,0,0,0,3.44,0"/><path class="cls-3" d="M25.36,33.44a1.72,1.72,0,0,0,3.44,0"/><path class="cls-3" d="M21.86,33.44a1.72,1.72,0,0,0,3.44,0"/><path class="cls-3" d="M18.42,33.44a1.72,1.72,0,0,0,3.44,0"/><path class="cls-3" d="M15,33.44a1.72,1.72,0,1,0,3.44,0"/><path class="cls-3" d="M11.53,33.44a1.73,1.73,0,0,0,3.45,0"/><path class="cls-3" d="M9.81,35.16a1.72,1.72,0,0,0,1.72-1.72"/><path class="cls-3" d="M24.77,26.66a11.16,11.16,0,0,0,4.14.33"/></g></svg>