<svg xmlns="http://www.w3.org/2000/svg" viewBox="0 0 49.16 41.31"><defs><style>.cls-1{fill:#0077bf;}.cls-2{fill:#89d3de;}.cls-3,.cls-7{fill:none;}.cls-10,.cls-3{stroke:#1c204d;}.cls-10,.cls-3,.cls-7{stroke-linecap:round;stroke-linejoin:round;stroke-width:0.4px;}.cls-4{fill:#fff;}.cls-5{fill:#f9b730;}.cls-6{fill:#f47951;}.cls-7{stroke:#1d1f4e;}.cls-10,.cls-8{fill:#1c204d;}.cls-9{fill:#af6e30;}</style></defs><g id="Layer_1" data-name="Layer 1"><path class="cls-1" d="M37.27,30.15c-.26-.53-.73-1.07-1.37-.75a2.32,2.32,0,0,0-1,1.22,4.78,4.78,0,0,0-.4,1.94,9.1,9.1,0,0,0,.09,1,2.75,2.75,0,0,0,.22,1h0a2,2,0,0,0,.78,1.1c1.16.75,2-1.26,2.17-2.09A5.7,5.7,0,0,0,37.27,30.15Z"/><path class="cls-1" d="M29.49,31.08a1.9,1.9,0,0,0-1-1,1.21,1.21,0,0,0-1.34.44,4.58,4.58,0,0,0-.66,3,5.91,5.91,0,0,0,.35,1.68,2.66,2.66,0,0,0,.95,1.43.68.68,0,0,0,.23.07.55.55,0,0,0,.31,0,.68.68,0,0,0,.36-.23.92.92,0,0,0,.27-.16,2,2,0,0,0,.41-.67,6.21,6.21,0,0,0,.46-1.52A5.23,5.23,0,0,0,29.49,31.08Z"/><path class="cls-1" d="M23.34,34.62l0,0a.36.36,0,0,0-.16-.11.41.41,0,0,0-.19,0,.46.46,0,0,0-.29.11l-.43.12h-.12l0,0a.53.53,0,0,0-.39,0,.5.5,0,0,0-.3.23.53.53,0,0,0,0,.39l0,.12a.58.58,0,0,0,.18.17,1.14,1.14,0,0,0,.9.14,4.71,4.71,0,0,0,.64-.19.53.53,0,0,0,.35-.35.5.5,0,0,0-.13-.49Z"/><path class="cls-1" d="M15.82,34.8a.51.51,0,0,0-.44-.25,6.49,6.49,0,0,1-1.08,0l-.25,0h-.13l-.23,0-.07,0h0l-.06,0a.53.53,0,0,0-.61.08.51.51,0,0,0-.07.61c.19.26.37.55.54.83a.55.55,0,0,0,.09.14.21.21,0,0,0,0,.06h0a.61.61,0,0,0,.07.1.48.48,0,0,0,.36.14.47.47,0,0,0,.37.18,1.41,1.41,0,0,0,1-.42,2.94,2.94,0,0,0,.51-.8A.57.57,0,0,0,15.82,34.8Z"/><path class="cls-2" d="M36.84,32.76a2.35,2.35,0,0,0,0-.53,1.3,1.3,0,0,0-.16-.67.49.49,0,0,0-.86,0,.74.74,0,0,0-.08.3h0v0h0a1.12,1.12,0,0,0-.05.13,2,2,0,0,0,0,.26c0,.11,0,.22,0,.33a2.78,2.78,0,0,0,.09.76.49.49,0,0,0,.61.35.51.51,0,0,0,.36-.6A.58.58,0,0,0,36.84,32.76Z"/><path class="cls-2" d="M28.72,32.53a.45.45,0,0,0-.28-.32.34.34,0,0,0-.2,0,.54.54,0,0,0-.25.06.71.71,0,0,0-.36.51,1.57,1.57,0,0,0,0,.53l0,.54s0,0,0,0a.63.63,0,0,0,0,.36.71.71,0,0,0,.18.3.5.5,0,0,0,.85-.33.62.62,0,0,0,.09-.27A4.85,4.85,0,0,0,28.72,32.53Z"/><path class="cls-3" d="M16,34.8c-.31,1.07-.91,1.8-1.57,1.78s-1.34-.91-1.57-2.18"/><path class="cls-3" d="M11.39,34.18c.21,1.36.84,2.36,1.6,2.37l1.42,0"/><path class="cls-3" d="M23.64,34.71c-.32.63-.77,1-1.25,1a1.47,1.47,0,0,1-1.16-.94"/><path class="cls-3" d="M19.85,34.81a1.41,1.41,0,0,0,1.12.87l1.42,0"/><path class="cls-4" d="M27.06,13.34a14.5,14.5,0,0,0-1.16-.91c-.2-.13-.4-.22-.61-.33a.73.73,0,0,1-.36-.46.48.48,0,0,0-.43-.25,7.83,7.83,0,0,1-1.08-.07,11,11,0,0,0-1.15,0c-.32,0-.69,0-.88.3a.77.77,0,0,0-.07.27,2.3,2.3,0,0,0-.45.12l-.27.13h0a7.83,7.83,0,0,0-.75.41.51.51,0,0,0-.17.19c-.33,0-.67.21-.53.6.09.23.16.46.23.69a.5.5,0,0,0,1-.13s0,0,0-.05l.11,0a1,1,0,0,0,.26-.2.48.48,0,0,0,.22-.12,2,2,0,0,1,1.49-.29,6.62,6.62,0,0,0,.89,0,1,1,0,0,1,.77.15,5.31,5.31,0,0,0,.63.42c.24.13.49.19.72.34a1.2,1.2,0,0,0,.71.33,1.86,1.86,0,0,0,.79-.27A.51.51,0,0,0,27.06,13.34Z"/><path class="cls-5" d="M44,18.91a1.68,1.68,0,0,0-1.58-.37,2.22,2.22,0,0,0-.54-.43,1.66,1.66,0,0,0-1.28-.2.38.38,0,0,0-.15.09c-.47-.36-1-.69-1.44-1a13.87,13.87,0,0,0-1.33-.81c-.5-.25-1-.43-1.51-.7l-.14,0a.33.33,0,0,0-.1-.06,9.17,9.17,0,0,0-3.73-.67c-1.36.1-2.72.38-4.08.55-2.33.29-4.69.63-7,.77a.43.43,0,0,0-.46-.35c-2.19.14-4.4.12-6.44,1a22.29,22.29,0,0,0-2.87,1.59,12.94,12.94,0,0,0-2.45,1.81A.57.57,0,0,0,8.55,20a2.74,2.74,0,0,0-1.26.22,1.56,1.56,0,0,0-.52.32.59.59,0,0,0-.16.3h0l-.25,0a1.34,1.34,0,0,0-.65.17c-.34.2-.66.42-1,.59a.88.88,0,0,0-.47.36.64.64,0,0,0,.13.75s0,0,0,0a1.2,1.2,0,0,0,.22,1.06,1.68,1.68,0,0,0,.94.57,4.68,4.68,0,0,0,1.38.26l.12.16.13.14a2.57,2.57,0,0,0,.4.34A1.5,1.5,0,0,0,8,25.5a1.16,1.16,0,0,0-.07.65,17.6,17.6,0,0,0,.63,2.37c.12.38.24.77.33,1.16.05.19.08.39.12.59H9s0,.07,0,.1,0,.23,0,.34a1.06,1.06,0,0,0,.09.35.78.78,0,0,0,0,.6,5.12,5.12,0,0,1,.19.67v0a2.72,2.72,0,0,0,0,.3,1.31,1.31,0,0,0,.32.56,2.26,2.26,0,0,0,.83.46,1.47,1.47,0,0,0,.25.08h0l.15.08a3.32,3.32,0,0,0,1.23.3h0a7.45,7.45,0,0,0,2,.29,1,1,0,0,0,.42-.11c.92.13,1.85.21,2.78.27a13,13,0,0,0,1.4,0,3.55,3.55,0,0,0,1.12-.14,1,1,0,0,0,.55.19,12.36,12.36,0,0,0,1.81-.14c.29,0,.59,0,.88,0a1.7,1.7,0,0,0,.74-.12,4.86,4.86,0,0,0,1.37,0c.42-.06.83-.15,1.25-.18h.05v0a3.88,3.88,0,0,1,0-1.4,6,6,0,0,1,.35-1.62,2,2,0,0,1,.47-.77,1.18,1.18,0,0,1,1.13-.29,1.65,1.65,0,0,1,1,.91,4.31,4.31,0,0,1,.41,1.65,3.11,3.11,0,0,1,0,.43.3.3,0,0,1,0,.1,1.6,1.6,0,0,1,0,.49,1.67,1.67,0,0,1-.05.31,4.05,4.05,0,0,1,.52,0,1.71,1.71,0,0,0,1.05-.33,1,1,0,0,0,.45.12,12.94,12.94,0,0,0,2.46-.43.24.24,0,0,0,0-.08,6.32,6.32,0,0,1,.17-1.89A3.93,3.93,0,0,1,35,29.87a1.41,1.41,0,0,1,.85-.68,1.19,1.19,0,0,1,1.25.41,1.69,1.69,0,0,1,.25.48.93.93,0,0,1,0,.1c.13.3.27.59.38.89a3.5,3.5,0,0,1,.2,1,1.59,1.59,0,0,0,.92-.69,5.34,5.34,0,0,0,.42-1.3c.13-.45.25-.9.38-1.35a1.24,1.24,0,0,0,.12-.23c.26-.87.51-1.74.7-2.64s.34-1.79.59-2.67a.82.82,0,0,0,0-.27,2.72,2.72,0,0,0,.51-.4c.07-.07.15-.19.23-.23s.36-.07.52-.14.3-.15.46-.2.39-.09.58-.14a1.41,1.41,0,0,0,.9-.79A1.76,1.76,0,0,0,44,18.91Z"/><path class="cls-4" d="M22.74,14.61l-.1-.08a.42.42,0,0,0-.15,0,.44.44,0,0,0-.3-.11.5.5,0,0,0-.33.14,1.56,1.56,0,0,0-.59.33,1.27,1.27,0,0,0-.21.25,1,1,0,0,0-.1.18,1.58,1.58,0,0,0-.15.64.55.55,0,0,0,.15.36.5.5,0,0,0,.35.14.51.51,0,0,0,.5-.5v-.05l0-.13.06-.11.08-.08.1-.05.12,0a1,1,0,0,1,.17,0,.53.53,0,0,0,.36-.15.51.51,0,0,0,0-.7Z"/><path class="cls-4" d="M24.43,16.36a.54.54,0,0,0,0-.1v0s0-.11,0-.16h0L24.38,16h0l-.09-.12a.39.39,0,0,0-.16-.1.45.45,0,0,0-.19-.05.46.46,0,0,0-.2.05.39.39,0,0,0-.16.1l-.08.1s0,.06,0,.08l0,.06a.31.31,0,0,0,0,.19v.13"/><path class="cls-6" d="M19.56,14.52c0-.24-.1-.47-.16-.71a.51.51,0,0,0-.41-.36.55.55,0,0,0-.5.24.68.68,0,0,1-.12.12A11.9,11.9,0,0,0,18,12a.55.55,0,0,0-.14-.22v-.13a.5.5,0,0,0,.31-.31v0a.55.55,0,0,0,0-.18l0,0,.17-.24.34-.48a.51.51,0,0,0-.43-.76,1.1,1.1,0,0,0-.5.17l0,0,0-.09a3.09,3.09,0,0,1-.14-.32h0c-.09-.54-.28-1.07-.41-1.59a.52.52,0,0,0-.62-.35l0,0A.5.5,0,0,0,16,7.28a.5.5,0,0,0-.37.48v0a.45.45,0,0,0-.36.46,1.25,1.25,0,0,0,.21.65.42.42,0,0,0,.06.21c.24.44.46.9.66,1.36,0,.06.05.11.07.16l.05.13c0,.1.09.21.13.32a1.57,1.57,0,0,0,.38.72l.06,0c-.05,1-.07,1.93-.07,2.9a1.34,1.34,0,0,0,.14.84c.23.29.56.22.85.11l.76-.31.31-.14.18-.08s.09,0,0,0A.5.5,0,0,0,19.56,14.52Z"/><path class="cls-6" d="M27.32,14.57a.52.52,0,0,0-.56-.23,1.74,1.74,0,0,0-.49.3h0a1.6,1.6,0,0,0-.49-.12.87.87,0,0,0-.14-.12,5,5,0,0,1-.95-.65c-.36-.31-.73-.62-1.22-.37s-.83.65-.7,1.13a1.4,1.4,0,0,0,.38.52,3.27,3.27,0,0,1,.35.48.5.5,0,0,0,.78.1.68.68,0,0,0,.16-.39c.13,0,.25.11.39.15a3.94,3.94,0,0,0,.7.13.53.53,0,0,0,.46.33h.13a2.48,2.48,0,0,1,.43.34c.18.21.31.47.6.55a.59.59,0,0,0,.76-.55A2.49,2.49,0,0,0,27.32,14.57Z"/><path class="cls-1" d="M25.52,15.71l-.05-.12a.52.52,0,0,0-.18-.18l-.12-.05a.49.49,0,0,0-.24,0h-.08a.41.41,0,0,0-.19,0,.39.39,0,0,0-.17.11.37.37,0,0,0-.1.16.41.41,0,0,0,0,.19l0,.13a.43.43,0,0,0,.12.22l.11.08a.43.43,0,0,0,.25.07h.09l.16,0h.07a.32.32,0,0,0,.17-.09.44.44,0,0,0,.13-.14.64.64,0,0,0,.06-.18A.44.44,0,0,0,25.52,15.71Z"/><path class="cls-1" d="M22.94,13.38a.51.51,0,0,0-.68-.18l-.2.1,0,0-.11,0-.44.1a2.59,2.59,0,0,0-.92.57,1.17,1.17,0,0,0-.33.37,2.15,2.15,0,0,0-.19.5,3.69,3.69,0,0,0-.15.87s0,0,0,.07V16a.5.5,0,1,0,1,0v-.15h0v-.06a.45.45,0,0,1,0-.11v0c0-.15.07-.3.11-.45l.06-.21,0-.06s0,0,0,0h0l.07-.07.15-.13.08-.06h0l.17-.11.08-.05h0l.2-.06a3.51,3.51,0,0,0,.89-.32A.51.51,0,0,0,22.94,13.38Z"/><path class="cls-1" d="M23.28,15.86a.48.48,0,0,0-.12-.22c-.06,0-.11-.09-.18-.13l-.19-.08a.83.83,0,0,0-.22,0h-.09a.71.71,0,0,0-.21,0l-.2.08a1,1,0,0,0-.17.12.55.55,0,0,0-.19.41l0,.14a.32.32,0,0,0,.09.17l.09.09a.46.46,0,0,0,.17.09.53.53,0,0,0,.28,0,.45.45,0,0,0,.19-.11l.06,0a.31.31,0,0,0,.19,0,.34.34,0,0,0,.2,0,.39.39,0,0,0,.16-.1A.52.52,0,0,0,23.3,16Z"/><path class="cls-3" d="M17.87,11.71a.51.51,0,0,0,.51-.63s-.07-.36.14-.49.45-.21.4-.54a.62.62,0,0,0-.78-.49.46.46,0,0,0-.32.2"/><path class="cls-3" d="M17.29,9.68a1.54,1.54,0,0,0-1,.37"/><path class="cls-3" d="M17.54,10.59a.52.52,0,0,0-.11.38"/><path class="cls-3" d="M17.53,11.28a.57.57,0,0,0-.68-.44"/><path class="cls-3" d="M17,9.68l-.55-2c-.18-.62-.58-.46-.58-.46s-.34.14-.18.62l.71,2.06"/><path class="cls-3" d="M17.87,10l-.62-2.1s-.15-.63-.54-.51-.16.6-.16.6"/><path class="cls-3" d="M15.8,8.09a.32.32,0,0,0-.45-.17c-.35.12,0,.86,0,.86l1.38,3.06"/><path class="cls-7" d="M25.59,15.7l.08.29v0"/><path class="cls-7" d="M24.44,15.77a3,3,0,0,1,.1.32"/><path class="cls-7" d="M21.34,13.33a2.29,2.29,0,0,1,.75-.18,2.85,2.85,0,0,1,1.19.15"/><path class="cls-7" d="M21.34,13.33a2.84,2.84,0,0,0-1.51,3.21"/><path class="cls-7" d="M24.29,15.45a1.87,1.87,0,0,1,.15.32"/><path class="cls-7" d="M22.34,14.26h.18"/><path class="cls-7" d="M20.89,16.5c-.12-1.27.58-2.17,1.35-2.24h.1"/><path class="cls-7" d="M21.73,16.43c-.05-.69.29-1.06.66-1.09a1.07,1.07,0,0,1,1.09,1"/><path class="cls-7" d="M24.4,15.18a1.05,1.05,0,0,0,1.45,0"/><path class="cls-7" d="M24.2,15.24a.28.28,0,0,0,.29-.2"/><path class="cls-7" d="M24.38,15.75a.44.44,0,0,1-.58.06c-.15-.11-.45-.31-.25-.63l.55-.88"/><path class="cls-7" d="M23.46,15.33a.45.45,0,0,1-.36-.14c-.17-.16-.24-.31,0-.62l.48-.71"/><path class="cls-7" d="M22.93,14.79a.49.49,0,0,1-.26-.11c-.2-.17-.1-.38,0-.58s.54-.69.54-.69.33-.51,1.14,0l2.28,1.46"/><path class="cls-7" d="M24.29,15.23a.68.68,0,0,1-.17.38"/><path class="cls-7" d="M27.1,14.19l.07.07s1.22,1.21.74,2.24c-.37.82-2.58-1.05-2.58-1.05"/><path class="cls-3" d="M18.05,15.59c.5-.07,1.3-.18,1.79-.21"/><path class="cls-3" d="M26.18,16.18q-.83.08-1.68.12c-5.45.37-10,.51-10,.13,0-.18,1-.43,2.53-.69"/><path class="cls-3" d="M27.69,14.74c3.92-.17,6.74-.1,6.72.21s-2.61.71-6.27,1.06"/><path class="cls-7" d="M26.13,14.44l.24-.1c.62-.25,1.17-.34,1.23-.2s-.05.16-.21.27"/><path class="cls-7" d="M24.75,11.7a5.53,5.53,0,0,1,2.85,2.44"/><line class="cls-7" x1="25.26" y1="13.17" x2="25.43" y2="14.07"/><path class="cls-3" d="M16.7,11.84l.1,3.22s0,.84.63.7A20.44,20.44,0,0,0,19.64,15"/><line class="cls-3" x1="17.97" y1="11.84" x2="18.33" y2="14.27"/><path class="cls-3" d="M18.93,13.23a8.66,8.66,0,0,0-.67.58"/><path class="cls-3" d="M20,13.33a11,11,0,0,0,0,1.55"/><path class="cls-3" d="M18.77,13.32c0-.13,0-.21,0-.23s.09,0,.16.12"/><path class="cls-3" d="M19,13.21a4.77,4.77,0,0,1,.52,1,7.08,7.08,0,0,1,.23.7"/><path class="cls-3" d="M18.8,13.09a9.52,9.52,0,0,1,2.63-1.49"/><path class="cls-3" d="M24.18,34.52c-8,.53-14.21-.15-14.78-1.38L7.72,25.29"/><path class="cls-3" d="M38.05,32a2.37,2.37,0,0,0,1.14-.85l2.1-8.28"/><path class="cls-3" d="M30.05,33.93c1.06-.14,2.06-.31,3-.48"/><path class="cls-3" d="M24.12,34.53l.93-.07"/><path class="cls-3" d="M34.49,14.89c4.34,1.53,7.14,3.86,7.12,4.71,0,1.39-7.75,3-17.25,3.65s-17.17,0-17.14-1.4c0-.84,3-3.42,7.4-5.52"/><path class="cls-3" d="M8.59,20.09a2.27,2.27,0,0,0-1,0,2.07,2.07,0,0,0-1.16.69,1.89,1.89,0,0,0-1.33.37c-.7.47-1.08,1.16-.84,1.55l0,0a.34.34,0,0,0-.09.12c-.23.43.28,1.1,1.14,1.5a2.63,2.63,0,0,0,1.41.25,2.21,2.21,0,0,0,1.4.7,2.84,2.84,0,0,0,1.39-.08,2.54,2.54,0,0,0,1.33.46,2.81,2.81,0,0,0,1.42-.2,2.49,2.49,0,0,0,1.39.4,2.87,2.87,0,0,0,1.47-.31,2.51,2.51,0,0,0,1.42.36,2.81,2.81,0,0,0,1.48-.37,2.42,2.42,0,0,0,1.46.32,2.86,2.86,0,0,0,1.39-.37,2.73,2.73,0,0,0,1.4.25,4.12,4.12,0,0,0,.82-.15"/><path class="cls-3" d="M40.32,18a2.3,2.3,0,0,1,1-.12,1.69,1.69,0,0,1,1.14.54,1.71,1.71,0,0,1,1.32.2c.68.38,1,1,.77,1.44l0,0a.43.43,0,0,1,.09.1c.21.4-.34,1.14-1.22,1.66a2.91,2.91,0,0,1-1.43.44,2.73,2.73,0,0,1-1.43.88,2.87,2.87,0,0,1-1.39.1,3,3,0,0,1-1.35.64,2.8,2.8,0,0,1-1.42,0,3,3,0,0,1-1.4.58,2.69,2.69,0,0,1-1.47-.12,2.94,2.94,0,0,1-1.44.55,2.62,2.62,0,0,1-1.47-.18,2.87,2.87,0,0,1-1.47.52,2.76,2.76,0,0,1-1.39-.19,3,3,0,0,1-1.41.42,2.55,2.55,0,0,1-.75-.07"/><path class="cls-3" d="M23.25,24.94l-.11.67a2.45,2.45,0,0,0,1.17.16,3,3,0,0,0,1.26-.33l-.16-.65"/><path class="cls-3" d="M18.05,25.58a2.58,2.58,0,0,1,.31-.63"/><path class="cls-3" d="M20.9,25.53s.15-.62.19-.55"/><path class="cls-3" d="M15.15,25.59a2.29,2.29,0,0,1,.43-.59"/><path class="cls-3" d="M12.29,25.5s.25-.46.52-.53"/><path class="cls-3" d="M9.54,25.24a5.06,5.06,0,0,1,.91-.74"/><path class="cls-3" d="M6.75,24.62s.49-.54.74-.59"/><path class="cls-3" d="M4.29,22.75a5,5,0,0,1,.85-.15"/><path class="cls-3" d="M6.43,20.8s.39.23.4.42"/><path class="cls-3" d="M30.73,24.75a1.78,1.78,0,0,0-.28-.59"/><path class="cls-3" d="M27.87,25.08s-.12-.61-.16-.53"/><path class="cls-3" d="M33.64,24.38a1.9,1.9,0,0,0-.4-.54"/><path class="cls-3" d="M36.51,23.92s-.22-.43-.49-.47"/><path class="cls-3" d="M39.28,23.29a3.94,3.94,0,0,0-.87-.62"/><path class="cls-3" d="M42.11,22.31s-.47-.48-.72-.5"/><path class="cls-3" d="M44.52,20.12a2.56,2.56,0,0,0-.7-.05"/><path class="cls-3" d="M42.6,18.43s-.4.29-.42.48"/><ellipse class="cls-3" cx="28.23" cy="33.38" rx="1.36" ry="0.68" transform="translate(-5.76 60.88) rotate(-88.75)"/><ellipse class="cls-3" cx="28.23" cy="33.45" rx="3.44" ry="1.74" transform="translate(-5.83 60.94) rotate(-88.75)"/><path class="cls-3" d="M28.3,30l-1.41,0c-1,0-1.78,1.5-1.82,3.4s.71,3.45,1.67,3.47l1.42,0"/><ellipse class="cls-3" cx="36.21" cy="32.5" rx="1.36" ry="0.68" transform="translate(2.92 68) rotate(-88.75)"/><ellipse class="cls-3" cx="36.21" cy="32.57" rx="3.44" ry="1.74" transform="translate(2.85 68.05) rotate(-88.75)"/><path class="cls-3" d="M36.28,29.13l-1.42,0c-1,0-1.77,1.5-1.81,3.4S33.75,36,34.71,36l1.43,0"/><path class="cls-8" d="M20,15.35a.5.5,0,0,0-.23-.3.5.5,0,0,0-.38-.05.57.57,0,0,0-.3.23.72.72,0,0,0-.12.25l-.36,0-.69.13a.5.5,0,0,0-.3.23,0,0,0,0,1,0,0s0,0,0,0a.47.47,0,0,0-.35-.15h-.05l-.16,0-.3,0,.14,0a2.59,2.59,0,0,1-.68,0,.55.55,0,0,0-.36.15c-.08.09-1,.38-1,.5s.89.12,1,.21l.1.07a.48.48,0,0,0,.26.07,3.3,3.3,0,0,0,.83,0l-.13,0h.2a.39.39,0,0,0,.15,0,.57.57,0,0,0,.35-.14l.09-.13a.55.55,0,0,0,.11.1.62.62,0,0,0,.38.05l.63-.12a1.85,1.85,0,0,1,.47,0h0a.52.52,0,0,0,.42-.09.5.5,0,0,0,.2-.39v-.07l0-.1.06-.11A.51.51,0,0,0,20,15.35Z"/><path class="cls-8" d="M34,15c-.08-.29-1.34-.44-1.61-.4-.69.09-1.39.12-2.08.15l-1,0a1.13,1.13,0,0,1-.71-.11.5.5,0,0,0-.74.42.48.48,0,0,0,0,.42l.1.18a.44.44,0,0,0,.63.18l.11.05a.46.46,0,0,0,.62-.13l.92,0c.81,0,1.62-.08,2.42-.19C33,15.5,34.09,15.22,34,15Z"/><path class="cls-8" d="M11.77,35.18l0,0,0,0Z"/><path class="cls-8" d="M11.74,35.16Z"/><path class="cls-8" d="M13.56,36a.55.55,0,0,0-.2-.27h0l0-.06a.43.43,0,0,1-.09-.1,1.81,1.81,0,0,1-.24-.37l0-.06v0a.43.43,0,0,0,0,0,.58.58,0,0,0-.06-.36.7.7,0,0,0-.31-.28,1.76,1.76,0,0,0-.54-.2.56.56,0,0,0-.38.05.5.5,0,0,0-.23.3.5.5,0,0,0,0,.38l.08.11.09,0,0,0,0,0-.05,0,.1.06h0l0,0a.8.8,0,0,0,0,.15l0,.13a.61.61,0,0,0,.13.22,4.9,4.9,0,0,0,.93.89.5.5,0,0,0,.68-.18A.53.53,0,0,0,13.56,36Z"/><path class="cls-8" d="M21.52,35.14a.61.61,0,0,0-.13-.22l0,0,0,0a.94.94,0,0,0-.12-.09L21,34.7a1.15,1.15,0,0,0-.17-.06h-.11l-.14,0h-.08a.41.41,0,0,0-.19,0,.36.36,0,0,0-.16.11l-.08.1a.43.43,0,0,0-.07.25l0,.13a.38.38,0,0,0,.13.22l.1.08h0l.13.06h.21l.1.06-.07-.06h0a.36.36,0,0,0,.15.1.33.33,0,0,0,.19,0,.34.34,0,0,0,.2,0,.39.39,0,0,0,.16-.1l.08-.1a.58.58,0,0,0,.06-.26Z"/><path class="cls-8" d="M27.39,30.68c.2-.41-.23-1-.68-.68a2.29,2.29,0,0,0-.88.78,4,4,0,0,0-.29.92.38.38,0,0,0-.11.11l-.07.18,0,.07s0,.11,0,.16v0a.88.88,0,0,0,0,.16s0,0,0,0h0c0,.05,0,.09,0,.14a.53.53,0,0,0-.12.32v.3a4,4,0,0,0,.06,1.54.36.36,0,0,0,.08.15s0,.07,0,.11a2.38,2.38,0,0,0,.43,1,.24.24,0,0,0,.08.06.43.43,0,0,1,0,.07.61.61,0,0,0,.24.43,4.53,4.53,0,0,0,.46.3c.47.27,1.05-.41.6-.79a2.6,2.6,0,0,1-.5-.55,3.56,3.56,0,0,0-.1-.47,3.93,3.93,0,0,1-.13-.75c0-.3-.06-.59-.11-.88a.45.45,0,0,0,.13-.22A14,14,0,0,1,27.39,30.68Z"/><path class="cls-8" d="M34.58,31.74a5,5,0,0,1,.79-2,.51.51,0,0,0-.56-.74,1.42,1.42,0,0,0-.85.74c-.17.34-.33.71-.47,1.06a1.91,1.91,0,0,0-.12.47h0c-.51.3-.36,1-.29,1.53s.14.75.21,1.13v0a2.12,2.12,0,0,0,.11.61.41.41,0,0,0,.16.22.6.6,0,0,0,.08.21,4.85,4.85,0,0,0,.8.89c.48.43,1.26,0,.7-.71a3,3,0,0,1-.64-1.48.45.45,0,0,0-.09-.21s0,0,0,0l0-.52c0-.18,0-.37,0-.55s0-.23,0-.35A.44.44,0,0,0,34.58,31.74Z"/><path class="cls-9" d="M26.66,7.58a1.22,1.22,0,0,0-.11-1c0-.1-.1-.2-.15-.3A1.78,1.78,0,0,0,26,5.57v0a.37.37,0,0,0-.29-.33.54.54,0,0,0-.28,0l-.16,0a.57.57,0,0,0-.26,0l-.46-.13A2.82,2.82,0,0,0,24,5a1,1,0,0,1-.46,0,.33.33,0,0,0-.41.07l-.64-.2-.16-.06a.37.37,0,0,0-.38.18l-.12-.13a.24.24,0,0,0-.43.21,2.35,2.35,0,0,0,.72,1,4.54,4.54,0,0,0,1.11.73c.41.19.84.38,1.26.55a3.41,3.41,0,0,0,.62.19c0,.12,0,.23-.05.35A2.88,2.88,0,0,1,25,8.1a.5.5,0,0,0-.19.1,2.31,2.31,0,0,0-.18.23.39.39,0,0,0-.41.18,2.17,2.17,0,0,0-.13.88,1.54,1.54,0,0,0,.11.87,1.65,1.65,0,0,0,.54.71c.31.17.66-.1.87-.32a4.37,4.37,0,0,0,.79-1.62A4.12,4.12,0,0,0,26.66,7.58Z"/><path class="cls-6" d="M24.76,7.27h-.15a.63.63,0,0,0-.23-.08.76.76,0,0,0-.26,0h-.05a16.56,16.56,0,0,0-1.76-1L22,5.84a2.61,2.61,0,0,1-.46-.58c-.13-.24-.27-.53-.6-.51s-.47.41-.58.66a4.54,4.54,0,0,0-.28.86c0,.13-.4.14-.48.12-.08.15-.18.29-.26.43a3.06,3.06,0,0,0-.13.43.74.74,0,0,1-.27.38,1.12,1.12,0,0,0,0,.31,1.79,1.79,0,0,0,.24,0c.13,0,.41-.16.53-.22a.29.29,0,0,0,.16,0h.06c0,.19-.07.39-.1.58s-.16.48.1.52c0,0,.36.11.37.13a.45.45,0,0,0,0,.16.86.86,0,0,0,.19.29,5.91,5.91,0,0,1,.41.61l.21.4a3.57,3.57,0,0,0,.19.45c.22.37.69.33,1.06.36l1.12.12a.57.57,0,0,0,.46-.16l.08,0a.24.24,0,0,0,.27-.4,1.7,1.7,0,0,1-.35-1,3.47,3.47,0,0,1,.1-1.47h0a.88.88,0,0,0,.28,0,.76.76,0,0,0,.4-.28h0A.43.43,0,0,0,25,7.82.39.39,0,0,0,24.76,7.27Z"/><path class="cls-4" d="M21.86,6.3a.38.38,0,0,0-.06-.13A.63.63,0,0,0,21.58,6l-.06,0-.16,0h-.23a.62.62,0,0,0-.56.36s0,0,0,0a.56.56,0,0,0,0,.12s0,0,0,0a.56.56,0,0,0,0,.13.5.5,0,0,0,0,.12s0,0,0,0a.39.39,0,0,0,.18.2.34.34,0,0,0,.28,0,.32.32,0,0,0,.14-.08l0,0a.37.37,0,0,0,.27.09.33.33,0,0,0,.21-.07h0l.09-.08a.49.49,0,0,0,.1-.49Z"/><path class="cls-3" d="M23.7,8.15a.48.48,0,0,0,.34.3.74.74,0,0,0,.8-.36l0-.05A2,2,0,0,0,25,7.63l0-.15"/><path class="cls-3" d="M20,6.17a1.36,1.36,0,0,1,.13-.44,2.91,2.91,0,0,1,2.69-2,4.92,4.92,0,0,1,.67,0"/><path class="cls-3" d="M21.48,11.18c-.14-.89-1.15-1.66-1.34-2.25"/><path class="cls-3" d="M22.34,7.75C22,8.93,20,9,19.82,8.85s-.06-.4-.06-.4a1.43,1.43,0,0,0,.1-.58c-.13.1-.9.12-.92,0s.23-1.49,1-1.65"/><path class="cls-3" d="M24.39,7.3a1.12,1.12,0,0,0-.19.24,1,1,0,0,0-.07.15"/><path class="cls-3" d="M24.71,7.39a.19.19,0,0,1-.13,0,.38.38,0,0,1-.13-.09"/><path class="cls-3" d="M24,11.36a12.2,12.2,0,0,1-2.36-.13.21.21,0,0,0-.08.41,9.91,9.91,0,0,0,1.93.17l1,0s.38,0,.36-.2-.08-.21-.23-.23A4.35,4.35,0,0,0,24,11.36Z"/><path class="cls-3" d="M20.09,7.63a.53.53,0,0,1-.23.24"/><path class="cls-3" d="M21.2,7.24h-.08a.71.71,0,0,1,0-1.41.83.83,0,0,1,.22,0,.7.7,0,0,1,.39.33.73.73,0,0,1,.05.59"/><path class="cls-3" d="M21.79,6.78a.82.82,0,0,1-.16.25"/><line class="cls-3" x1="21.69" y1="6.96" x2="20.53" y2="6.89"/><path class="cls-8" d="M21.31,6.54a.18.18,0,0,0,0-.07l-.07,0a.11.11,0,0,0-.08,0h-.06a.16.16,0,0,0-.09,0l0,0a.23.23,0,0,0,0,.11h0a.29.29,0,0,0,0,.09l.05.07.07,0,.08,0h.06l.09,0,0,0a.2.2,0,0,0,0-.11h0A.24.24,0,0,0,21.31,6.54Z"/><path class="cls-10" d="M20.7,4.69a2.56,2.56,0,0,1,2.78-1.9,2.59,2.59,0,0,1,2.35,2.39l-7.3-.7"/><path class="cls-3" d="M21.23,4.74s.64,2.11,4.14,2.73"/><path class="cls-3" d="M24.15,8.53s-.63,2,.54,2.61,3.15-4,1.14-6"/></g></svg>