<svg xmlns="http://www.w3.org/2000/svg" viewBox="0 0 163.1 84.55"><defs><style>.cls-1{fill:#0d773c;}.cls-2{fill:#f47951;}.cls-3,.cls-8{fill:#89d3de;}.cls-4{fill:#ea4827;}.cls-5{fill:#0077bf;}.cls-6{fill:#60c5b9;}.cls-13,.cls-7{fill:#1c204d;}.cls-13,.cls-14,.cls-8,.cls-9{stroke:#1c204d;}.cls-10,.cls-13,.cls-14,.cls-8,.cls-9{stroke-linecap:round;stroke-linejoin:round;stroke-width:0.4px;}.cls-10,.cls-9{fill:none;}.cls-10{stroke:#f8c6dc;}.cls-11{fill:#fff;}.cls-12{fill:#875b4a;}.cls-14{fill:#f9b730;}</style></defs><g id="Layer_1" data-name="Layer 1"><polygon class="cls-1" points="121.09 63.58 10.7 64.25 10.7 15.3 121.09 15.23 121.09 63.58"/><polygon class="cls-1" points="34.03 63.58 10.94 64.25 10.94 15.3 34.03 15.23 34.03 63.58"/><path class="cls-2" d="M149.59,57.84a14,14,0,0,0-.58-5.23,12,12,0,0,0-.61-1.31,1.09,1.09,0,0,0-.22-.56,10.22,10.22,0,0,0-6.64-4,20.88,20.88,0,0,0-.72-2.28l-.13-.15c-.54-1.67-1.12-3.22-1.69-4.88a7.38,7.38,0,0,0-1.94-3.56c-1.22-1-3-.78-4.48-.81v0a12,12,0,0,0-.46-1.31,2,2,0,0,0-.91-1.2l0,0c-.06-.06-.11-.14-.17-.2a3,3,0,0,0-.46-.33,2.49,2.49,0,0,0-.54-.2.78.78,0,0,0-.4,0,.68.68,0,0,0-.23.07,6.34,6.34,0,0,0-.75-.07c-2.07-.09-4.16-.06-6.24,0a1,1,0,0,0-.3.07.48.48,0,0,0-.21-.19.51.51,0,0,0-.7.46c0,.37,0,.75,0,1.12,0,0,0,0,0,.06a1.23,1.23,0,0,0-.09.54,43.92,43.92,0,0,1,.1,5.13c-.08,1.7-.28,3.38-.21,5.08a1.54,1.54,0,0,0,.23.74,2.81,2.81,0,0,0-.08.53c-.07,3-.09,6-.07,9.07s.25,5.88,0,8.8c-.14,1.77,2,2.41,3.21,1.55a1.43,1.43,0,0,0,.74.2,16,16,0,0,0,4.42-.29c1.53-.43,1.05-2,1.6-3.07,1.08-2.17,2.76-4.26,5.44-3.94,2.44.29,3.44,2.53,4.22,4.55.47,1.21.78,2.41,2.23,2.61a7.63,7.63,0,0,0,3.84-.54,1.46,1.46,0,0,0,1.52.81,1.52,1.52,0,0,0,1.3-1.48C149.59,61.63,149.59,59.73,149.59,57.84Z"/><path class="cls-3" d="M140.08,46.9h-9.64l0-10.08,5.29-.11s.74-.12,1.17,1S140.08,46.9,140.08,46.9Z"/><rect class="cls-4" x="121.13" y="35.02" width="3.75" height="28.68"/><path class="cls-5" d="M139.47,62.48c-.31-1.44-1.17-3.88-3-3.85a1.88,1.88,0,0,0-1.58.88,2.31,2.31,0,0,0-.23.67s0,.09,0,.14a6,6,0,0,0-1,2.08,12.29,12.29,0,0,0,0,5,1.19,1.19,0,0,0,.37.64,4.94,4.94,0,0,0,.27,1,1.28,1.28,0,0,0,.11.2,1.4,1.4,0,0,0-.07.39,1.54,1.54,0,0,0,.44,1.06,1.52,1.52,0,0,0,1.06.44,1.65,1.65,0,0,0,.79-.26h.06l0,0,.05,0h.12a1.59,1.59,0,0,0,.81-.34h0a1,1,0,0,0,.28-.12,1.45,1.45,0,0,0,.54-.53v0a1.19,1.19,0,0,0,.17-.51c.1-.31.2-.61.29-.93s.18-.41.25-.62a.69.69,0,0,1,0-.1c0-.11.07-.23.11-.34a1.54,1.54,0,0,0,.05-.31,1.35,1.35,0,0,0,0-.2c0-.2.09-.4.13-.6a9.64,9.64,0,0,0,.17-1.3A9.34,9.34,0,0,0,139.47,62.48Z"/><path class="cls-5" d="M124.1,65.8a2.25,2.25,0,0,0-1.71,1h0a.15.15,0,0,1-.06,0l0,0h0l0,0c-.1,0,0,0,0,0l-.12,0-.08,0a2.27,2.27,0,0,1-.28,0l-.31,0a1.36,1.36,0,0,0-.61-.87,2,2,0,0,0-1.29-.08,1,1,0,0,0-.7,1.23l.31.76a1.28,1.28,0,0,0,.28.43.87.87,0,0,0,0,.48,3.34,3.34,0,0,0,1.25,1.9,2.11,2.11,0,0,0,2.31,0A3.76,3.76,0,0,0,124.32,69a7.12,7.12,0,0,0,.78-2.21A1,1,0,0,0,124.1,65.8Z"/><path class="cls-6" d="M122.29,66.87h0Z"/><polyline class="cls-3" points="141.27 63.72 150.41 63.72 150.41 66.1 141.2 66.1"/><path class="cls-3" d="M129.43,63.72H67.81l-.33-.51-.23-.37c-.17-.34-.34-.67-.49-1h0a.78.78,0,0,1,0-.14.5.5,0,0,0-.57-.35,3.17,3.17,0,0,0-1.59-.07l-2.64.14c-.82,0-1.62,0-2.43,0s-1.65.1-2.47.06c-.15-.24-.42-.15-.79-.15s-.7,0-.84.28a.47.47,0,0,0-.19.53s0,0,0,0a9.28,9.28,0,0,0-1,1.45c0,.07-.09.12-.13.18a.93.93,0,0,0-.69-.29l-1.49.11c-.32,0-.64,0-1,0l-.08,0a1.16,1.16,0,0,0-1,.21c-.23,0-15.39-.28-15.39,0a16.82,16.82,0,0,0,0,2.13c.09.43,15.46.32,15.87.22a6,6,0,0,1,1.11-.27,9,9,0,0,1,1.27,0c.4,0,.81.06,1.22,0a.94.94,0,0,0,.65-.21,1.81,1.81,0,0,0,.31-.54c.34-.74.67-1.48,1-2.22a1,1,0,0,0,.32.05.88.88,0,0,0,.81-.47c.48,0,1,0,1.45.06a43.53,43.53,0,0,0,5,.06,12.34,12.34,0,0,0,2.35.07.83.83,0,0,0,.21-.06c.11.23.25.46.38.68.32.61.65,1.2,1,1.78v1h54.1s0,0,0,0l-.08.1a.55.55,0,0,0-.07.25l0,.13a.53.53,0,0,0,.13.23l.12.09,0,0,.11,0,.11,0a.63.63,0,0,0,.19,0h.09l.16,0,.06,0,.14,0,0,0a.29.29,0,0,0,.14-.13.28.28,0,0,0,.09-.17.34.34,0,0,0,0-.2.28.28,0,0,0-.06-.18l-.08-.11a.4.4,0,0,0-.13-.07h6.94Z"/><path class="cls-7" d="M60.86,70.25a2.61,2.61,0,0,1-1-1.37,5.08,5.08,0,0,1-.57-1.64,16.58,16.58,0,0,1,0-3.92c0-.3-.13-.66-.49-.63l-1.13.07a1.65,1.65,0,0,0-.8.14.57.57,0,0,0-.21.25.57.57,0,0,0-.26-.25.49.49,0,0,0-.62.2,9.75,9.75,0,0,0-.55,1.24.43.43,0,0,0,0,.25l-.07,0h0a.74.74,0,0,0-.38.34c-.11.22-.34.46-.14.62a1,1,0,0,0,.93,0l0,0h0s.11.07,0,0a1,1,0,0,0,.77.12c.18-.07.09-.27.09-.47s0-.63,0-.94v0q0-.09,0,0s0-.09,0-.1l.06-.22,0,0c0,.23.06.45.09.64s0,.09,0,.15A7.77,7.77,0,0,0,57,67.58a13.55,13.55,0,0,0,1.18,2.6,1.66,1.66,0,0,0,.92.77,5.27,5.27,0,0,0,1.9.1C61.46,71,61.34,70.52,60.86,70.25Z"/><path class="cls-7" d="M67.09,65.06l-.56-1.12,0-.06,0,0h0s0,0,0-.06,0-.07,0,0h0a.41.41,0,0,0,0-.11.84.84,0,0,0,0-.31.81.81,0,0,0-.31-.4.5.5,0,0,0-.68.18.48.48,0,0,0,0,.56.76.76,0,0,0,0,.15,2,2,0,0,0,.23.68.53.53,0,0,0-.18.51h0c0-.13,0,0,0,0h0a.5.5,0,0,0,.35.6,2.22,2.22,0,0,0,.45,0h0a.5.5,0,0,0,.6.08A.51.51,0,0,0,67.09,65.06Z"/><path class="cls-7" d="M46.39,70.18a2.11,2.11,0,0,1-.57-.68,7.15,7.15,0,0,1-.48-.91,3.19,3.19,0,0,1-.42-1.9.52.52,0,0,0-.48-.64l-1.81,0a.5.5,0,0,0-.48.63,3.25,3.25,0,0,0,.49,1.07h0a2.45,2.45,0,0,0,.28.94,11.29,11.29,0,0,0,.73,1.2,3.61,3.61,0,0,0,.23.36.57.57,0,0,0,.46.24,2.26,2.26,0,0,0,.16.26,1,1,0,0,0,.78.31c.28,0,1-.06,1.23-.06C47,71,46.83,70.44,46.39,70.18Z"/><path class="cls-5" d="M50.9,66.21a3.74,3.74,0,0,0-1.44-.16c-.46.09-1.69,0-2.16,0a10,10,0,0,1-2.45,0c0,.14.34,1.42.39,1.56a.7.7,0,0,0,.08.2c.21.53.23,1.12.48,1.63A2.58,2.58,0,0,0,48,70.9a2.54,2.54,0,0,0,2-1.6c.39-.84.61-1.76.93-2.63,0,0,0,0,0-.06C50.83,66.85,51.2,66.28,50.9,66.21Z"/><path class="cls-6" d="M29.23,66.15l.13,0h.19a.05.05,0,0,0,0,0,14.13,14.13,0,0,0,3,0c.66,0,1.33-.18,2-.24V63.72H10.21v2.45H28.88A.58.58,0,0,1,29.23,66.15Z"/><path class="cls-5" d="M64.3,62.66a6.49,6.49,0,0,1-2.3.11c-.86-.06-2.47-.39-2.69.8a6.47,6.47,0,0,0,0,1.39c0,.42,0,.84.08,1.26a7.24,7.24,0,0,0,.64,2.38.13.13,0,0,1,0,.06,3.17,3.17,0,0,0,1.23,1.9,2.39,2.39,0,0,0,.92.51,1.57,1.57,0,0,0,1.41-.48,4.35,4.35,0,0,0,1.08-1.86,14.73,14.73,0,0,0,.57-2.38c.07-.45.13-.91.19-1.36a5.67,5.67,0,0,0,.1-1.36A1,1,0,0,0,64.3,62.66Z"/><path class="cls-3" d="M63.18,63.18a.52.52,0,0,0-.62-.35l-.59.11a.86.86,0,0,0-.59.25,1.17,1.17,0,0,0-.16.67l0,.59c0,.39,0,.77,0,1.15a1.05,1.05,0,0,0,.36.83,1,1,0,0,0,.24.54.71.71,0,0,0,.86.13c.41-.22.54-.78.63-1.19A5.07,5.07,0,0,0,63.18,63.18Z"/><path class="cls-3" d="M48.54,66.29l-.08-.1a.54.54,0,0,0-.22-.13h-.13a.5.5,0,0,0-.21,0h0l.06,0-.1,0a.27.27,0,0,1-.09,0h0a.43.43,0,0,0-.16,0,.6.6,0,0,0-.19.06.35.35,0,0,0-.14.13.56.56,0,0,0-.09.17l0,.13a.59.59,0,0,0,.07.26l.08.1a.54.54,0,0,0,.22.13l.24,0h.1a.85.85,0,0,0,.23,0l.22-.09a.35.35,0,0,0,.14-.13.32.32,0,0,0,.09-.17.34.34,0,0,0,0-.2A.33.33,0,0,0,48.54,66.29Z"/><ellipse class="cls-8" cx="136.56" cy="64.69" rx="1.24" ry="2.46"/><ellipse class="cls-9" cx="136.56" cy="64.81" rx="3.15" ry="6.23"/><path class="cls-9" d="M136.56,58.58h-2.65c-1.74,0-3.15,2.79-3.15,6.23s1.41,6.24,3.15,6.24h2.54"/><path class="cls-9" d="M123.09,66.21c-.23.57-.58.94-1,.94s-.75-.37-1-.94"/><path class="cls-9" d="M125.17,66.21c-.32,2.77-1.57,4.84-3.07,4.84S119.35,69,119,66.22"/><path class="cls-9" d="M116.38,66.21c.32,2.77,1.58,4.84,3.07,4.84H122"/><path class="cls-9" d="M129.43,66.1l.16-2.32c.25-3.88,2.74-6.92,5.76-6.92s5.53,3.07,5.76,7l.09,2.26"/><path class="cls-9" d="M63.35,66.22c-.23.57-.58.93-1,.93s-.77-.39-1-1"/><path class="cls-9" d="M63.17,62.8a3.79,3.79,0,0,1,.45,1.89,4.14,4.14,0,0,1-.27,1.53"/><path class="cls-9" d="M61.38,66.17a4.37,4.37,0,0,1-.24-1.48,3.74,3.74,0,0,1,.44-1.87"/><path class="cls-9" d="M65.44,66.27c-.34,2.74-1.58,4.78-3.07,4.78S59.62,69,59.3,66.22"/><path class="cls-9" d="M65.37,62.9a11.74,11.74,0,0,1,.15,1.91,13.83,13.83,0,0,1-.08,1.46"/><path class="cls-9" d="M59.3,66.22a12.74,12.74,0,0,1-.08-1.41,11.74,11.74,0,0,1,.15-1.91"/><path class="cls-9" d="M56.65,66.22c.33,2.77,1.58,4.83,3.07,4.83h2.55"/><path class="cls-9" d="M56.65,66.22a12.74,12.74,0,0,1-.08-1.41,11.74,11.74,0,0,1,.15-1.91"/><path class="cls-9" d="M48.9,66.21c-.23.57-.58.94-1,.94s-.75-.37-1-.94"/><path class="cls-9" d="M51,66.21c-.32,2.77-1.58,4.84-3.07,4.84S45.17,69,44.85,66.22"/><path class="cls-9" d="M42.2,66.21c.32,2.77,1.57,4.84,3.07,4.84h2.54"/><rect class="cls-9" x="10.7" y="15.23" width="23.34" height="48.38"/><rect class="cls-9" x="15.13" y="19.99" width="14.63" height="43.62"/><line class="cls-9" x1="129.43" y1="66.1" x2="67.61" y2="66.1"/><line class="cls-9" x1="130.7" y1="65.79" x2="129.44" y2="65.79"/><line class="cls-9" x1="141.14" y1="65.79" x2="139.75" y2="65.79"/><polyline class="cls-9" points="141.27 63.72 150.41 63.72 150.41 66.1 141.2 66.1"/><line class="cls-9" x1="67.89" y1="63.72" x2="129.44" y2="63.72"/><polyline class="cls-9" points="54.16 66.1 10.21 66.1 10.21 63.72 54.12 63.72"/><path class="cls-9" d="M141.2,63.7h8.43V55.11s.07-7-7.91-8.32L138,37a3.12,3.12,0,0,0-2.93-2H124.88V63.7h4.64"/><line class="cls-9" x1="124.88" y1="35.02" x2="121.49" y2="35.02"/><path class="cls-9" d="M132.68,35s-.53-3.38-3.18-3.38h-8"/><path class="cls-9" d="M140.08,46.9h-9.64l-.06-10.19h5.32s.74-.12,1.17,1S140.08,46.9,140.08,46.9Z"/><line class="cls-9" x1="128.58" y1="36.71" x2="128.58" y2="55.82"/><line class="cls-9" x1="34.48" y1="63.72" x2="34.48" y2="66.1"/><polyline class="cls-9" points="67.61 66.11 66 62.77 55.92 62.77 54.24 66.1"/><polyline class="cls-9" points="54.12 63.72 55.49 61.33 66.71 61.33 67.89 63.72"/><line class="cls-9" x1="54.42" y1="65.74" x2="56.57" y2="65.74"/><line class="cls-9" x1="65.52" y1="65.74" x2="67.43" y2="65.74"/><polyline class="cls-9" points="34.03 15.23 121.09 15.23 121.09 63.58"/><path class="cls-7" d="M141.34,65.25a.46.46,0,0,0-.09-.17h0l0-.1a.54.54,0,0,0-.18-.26c0-.38-.11-.79-.14-1a9.73,9.73,0,0,0-1.45-4.58,3.21,3.21,0,0,0-1.25-1,.45.45,0,0,0-.23-.33,8.67,8.67,0,0,0-2.08-.71,3.17,3.17,0,0,0-1.78,0h0l-.28.13a.63.63,0,0,0-.22.34,2.37,2.37,0,0,0-.94.37A5.6,5.6,0,0,0,131,59.56a11.53,11.53,0,0,0-1.37,5.22.4.4,0,0,0,0,.25v.21a.5.5,0,0,0,1,0,18.2,18.2,0,0,1,.52-3.45c-.11.65-.21,1.3-.32,2a1.27,1.27,0,0,0,.09.72s0,0,0,0a3,3,0,0,0-.13,1.8,6.11,6.11,0,0,0,.37,1.33c.19.49.41,1,.63,1.44a2.73,2.73,0,0,0,.79,1.16,1.4,1.4,0,0,0,.1.16,3.45,3.45,0,0,0,2.09.74.5.5,0,0,0,.56-.23.5.5,0,0,0-.07-.6,6.39,6.39,0,0,1-.54-.5l-.24-.26-.05-.06,0,0,0,0-.07-.09c-.07-.1-.13-.22-.2-.33l-.4-1h0a.41.41,0,0,0,0-.16c-.09-1.08-.19-2.17-.31-3.25a1.48,1.48,0,0,0-.17-.5,5.4,5.4,0,0,1,.33-1.36,9.3,9.3,0,0,1,.52-1.36c.43-.9,1-1.73,1.32-2.67a.32.32,0,0,0,0-.19h0a8,8,0,0,1,2.46.54,2.86,2.86,0,0,1,1.32,1.68,9.39,9.39,0,0,1,.59,2.15c.06.38.11.77.15,1.16a.93.93,0,0,0,0,.14.46.46,0,0,0-.23.41c0,.36-.14.64.1,1a.7.7,0,0,0,.66.28.32.32,0,0,0,.11.12.46.46,0,0,0,.17.09l.13,0a.32.32,0,0,0,.19,0,.2.2,0,0,0,.11-.06.35.35,0,0,0,.13-.14l.05-.12a.42.42,0,0,0,0-.27Z"/><path class="cls-7" d="M120.66,70.23a2.73,2.73,0,0,0-.46-.38s0,0,0-.08l0-.27a1,1,0,0,0-.25-.44l-.21-.25,0-.23a1,1,0,0,0-.14-.5,3.21,3.21,0,0,0-.34-.6c-.05-.07-.12-.13-.17-.2,0-.32,0-.74-.26-1s-.66-.09-1-.1a1.46,1.46,0,0,1-.73-.23.51.51,0,0,0-.73.57A8.75,8.75,0,0,0,118,70.22a.56.56,0,0,0,.49.25h0l.12.07a1,1,0,0,0,.59.4c.36.07.73.09,1.09.13a.5.5,0,0,0,.46-.31A.49.49,0,0,0,120.66,70.23Z"/><line class="cls-9" x1="15.13" y1="22.15" x2="29.76" y2="22.15"/><line class="cls-9" x1="15.13" y1="24.52" x2="29.76" y2="24.52"/><line class="cls-9" x1="15.13" y1="26.89" x2="29.76" y2="26.89"/><line class="cls-9" x1="15.13" y1="29.33" x2="29.76" y2="29.33"/><line class="cls-9" x1="15.13" y1="31.7" x2="29.76" y2="31.7"/><line class="cls-9" x1="15.13" y1="34.07" x2="29.76" y2="34.07"/><line class="cls-9" x1="15.13" y1="36.44" x2="29.76" y2="36.44"/><line class="cls-9" x1="15.13" y1="38.89" x2="29.76" y2="38.89"/><line class="cls-9" x1="15.13" y1="41.26" x2="29.76" y2="41.26"/><path class="cls-4" d="M56.09,22.38H52.42a1.64,1.64,0,0,0-1.53,1.24l-3.33,11-3.36-11a1.62,1.62,0,0,0-1.52-1.23H39.05a1.73,1.73,0,0,0-1.61,1.84V54.35a1.73,1.73,0,0,0,1.61,1.84h3.78a1.73,1.73,0,0,0,1.61-1.84v-7l.63,2.21a1.64,1.64,0,0,0,1.53,1.27h1.89A1.65,1.65,0,0,0,50,49.55l.66-2.31v7.11a1.74,1.74,0,0,0,1.62,1.84h3.78a1.74,1.74,0,0,0,1.61-1.84V24.22A1.74,1.74,0,0,0,56.09,22.38Z"/><path class="cls-4" d="M74.12,22.38h-4a1.66,1.66,0,0,0-1.55,1.33l-1.53,6-1.52-6A1.66,1.66,0,0,0,64,22.38H60a1.54,1.54,0,0,0-1.31.77,2.09,2.09,0,0,0-.22,1.66l5.1,17.1V54.35a1.74,1.74,0,0,0,1.62,1.84h3.77a1.74,1.74,0,0,0,1.62-1.84V41.91l5.1-17.1a2.09,2.09,0,0,0-.22-1.66A1.54,1.54,0,0,0,74.12,22.38Z"/><path class="cls-4" d="M91.45,28.63a8.7,8.7,0,0,0-1.71-3.55,7,7,0,0,0-2.8-2.14,9.08,9.08,0,0,0-3.27-.56H78a1.74,1.74,0,0,0-1.62,1.84V54.35A1.74,1.74,0,0,0,78,56.19h3.77a1.73,1.73,0,0,0,1.61-1.84V44.43h.32a7.15,7.15,0,0,0,6.85-4,10,10,0,0,0,1.09-3.3,26.43,26.43,0,0,0,.22-3.73A22,22,0,0,0,91.45,28.63Zm-6.4,5.49a4.48,4.48,0,0,1-.11.72c0,.1,0,.19,0,.28a1,1,0,0,1,0,.24,1.49,1.49,0,0,1-.31,1,1.24,1.24,0,0,1-.87.41c-.28,0-.49-.22-.57-.5,0,0,0-.06,0-.09l0-.12a35.43,35.43,0,0,1,0-3.57,4.76,4.76,0,0,1,0-1.41v0l0-.06a.74.74,0,0,1,.44-.87.83.83,0,0,1,.44,0,.6.6,0,0,1,.43.2,1.24,1.24,0,0,1,.32.36,3,3,0,0,1,.31,1.19,8.93,8.93,0,0,1,0,1.16A10.15,10.15,0,0,1,85.05,34.12Z"/><path class="cls-4" d="M98,22.38H94.19a1.74,1.74,0,0,0-1.62,1.84V54.35a1.74,1.74,0,0,0,1.62,1.84H98a1.74,1.74,0,0,0,1.62-1.84V24.22A1.74,1.74,0,0,0,98,22.38Z"/><path class="cls-4" d="M113.89,30.13a1.74,1.74,0,0,0,1.61-1.85V24.22a1.73,1.73,0,0,0-1.61-1.84H102.63A1.74,1.74,0,0,0,101,24.22V54.35a1.74,1.74,0,0,0,1.62,1.84h11.26a1.73,1.73,0,0,0,1.61-1.84V50a1.74,1.74,0,0,0-1.61-1.84H108V43h4.9a1.75,1.75,0,0,0,1.62-1.84V37.13a1.75,1.75,0,0,0-1.62-1.85H108V30.13Z"/><path class="cls-9" d="M56.09,22.38H52.42a1.64,1.64,0,0,0-1.53,1.24l-3.33,11-3.36-11a1.62,1.62,0,0,0-1.52-1.23H39.05a1.73,1.73,0,0,0-1.61,1.84V54.35a1.73,1.73,0,0,0,1.61,1.84h3.78a1.73,1.73,0,0,0,1.61-1.84v-7l.63,2.21a1.64,1.64,0,0,0,1.53,1.27h1.89A1.65,1.65,0,0,0,50,49.55l.66-2.31v7.11a1.74,1.74,0,0,0,1.62,1.84h3.78a1.74,1.74,0,0,0,1.61-1.84V24.22A1.74,1.74,0,0,0,56.09,22.38Z"/><path class="cls-9" d="M74.12,22.38h-4a1.66,1.66,0,0,0-1.55,1.33l-1.53,6-1.52-6A1.66,1.66,0,0,0,64,22.38H60a1.54,1.54,0,0,0-1.31.77,2.09,2.09,0,0,0-.22,1.66l5.1,17.1V54.35a1.74,1.74,0,0,0,1.62,1.84h3.77a1.74,1.74,0,0,0,1.62-1.84V41.91l5.1-17.1a2.09,2.09,0,0,0-.22-1.66A1.54,1.54,0,0,0,74.12,22.38Z"/><path class="cls-9" d="M89.74,25.08a7,7,0,0,0-2.8-2.14,9.08,9.08,0,0,0-3.27-.56H78a1.74,1.74,0,0,0-1.62,1.84V54.35A1.74,1.74,0,0,0,78,56.19h3.77a1.73,1.73,0,0,0,1.61-1.84V44.43h.32a7.15,7.15,0,0,0,6.85-4,10,10,0,0,0,1.09-3.3,26.43,26.43,0,0,0,.22-3.73,22,22,0,0,0-.42-4.77A8.7,8.7,0,0,0,89.74,25.08Z"/><path class="cls-9" d="M98,22.38H94.19a1.74,1.74,0,0,0-1.62,1.84V54.35a1.74,1.74,0,0,0,1.62,1.84H98a1.74,1.74,0,0,0,1.62-1.84V24.22A1.74,1.74,0,0,0,98,22.38Z"/><path class="cls-9" d="M113.89,30.13a1.74,1.74,0,0,0,1.61-1.85V24.22a1.73,1.73,0,0,0-1.61-1.84H102.63A1.74,1.74,0,0,0,101,24.22V54.35a1.74,1.74,0,0,0,1.62,1.84h11.26a1.73,1.73,0,0,0,1.61-1.84V50a1.74,1.74,0,0,0-1.61-1.84H108V43h4.9a1.75,1.75,0,0,0,1.62-1.84V37.13a1.75,1.75,0,0,0-1.62-1.85H108V30.13Z"/><path class="cls-2" d="M56.09,55.32H52.31a.81.81,0,0,1-.75-.86V41.2L49.2,49.35a.76.76,0,0,1-.71.59H46.6a.77.77,0,0,1-.71-.59l-2.32-8.11V54.46a.81.81,0,0,1-.74.86H39.05a.82.82,0,0,1-.75-.86V24.33a.82.82,0,0,1,.75-.86h3.63a.78.78,0,0,1,.71.58l4.17,13.74,4.15-13.74a.78.78,0,0,1,.71-.58h3.67a.81.81,0,0,1,.74.86V54.46A.81.81,0,0,1,56.09,55.32Zm-3-1.72h2.28V25.19H53L48.31,40.56a.76.76,0,0,1-.71.58.87.87,0,0,1-.78-.57L42.15,25.19H39.8V53.6h2.28V36.14a.8.8,0,0,1,.75-.86.85.85,0,0,1,.78.59l3.54,12.36H48l3.57-12.36a.77.77,0,0,1,.71-.59.87.87,0,0,1,.83.86Z"/><path class="cls-2" d="M68.93,55.32H65.16a.81.81,0,0,1-.75-.86V41.86L59.26,24.61a1,1,0,0,1,.1-.78.74.74,0,0,1,.61-.36h4a.78.78,0,0,1,.72.62L67,33.38l2.36-9.29a.78.78,0,0,1,.72-.62h4a.74.74,0,0,1,.61.36,1,1,0,0,1,.1.78L69.68,41.86v12.6A.81.81,0,0,1,68.93,55.32Zm-3-1.72h2.28V41.72a1.17,1.17,0,0,1,0-.27l4.85-16.26H70.68L67.8,36.54a.77.77,0,0,1-.72.62.85.85,0,0,1-.79-.62L63.41,25.19H61l4.84,16.26a.8.8,0,0,1,0,.27Z"/><path class="cls-2" d="M81.78,55.32H78a.81.81,0,0,1-.74-.86V24.33a.81.81,0,0,1,.74-.86h5.67a8.09,8.09,0,0,1,3,.52,6,6,0,0,1,2.46,1.87A7.85,7.85,0,0,1,90.62,29,20.86,20.86,0,0,1,91,33.51a25.66,25.66,0,0,1-.21,3.57,8.85,8.85,0,0,1-1,2.94,6.31,6.31,0,0,1-6.12,3.53H82.53V54.46A.82.82,0,0,1,81.78,55.32Zm-3-1.72H81V42.7a.81.81,0,0,1,.75-.86h1.93a5.61,5.61,0,0,0,3-.72,5.15,5.15,0,0,0,1.8-2,7,7,0,0,0,.77-2.32,23.33,23.33,0,0,0,.19-3.29,18.84,18.84,0,0,0-.34-4.07A5.88,5.88,0,0,0,88,27a4.57,4.57,0,0,0-1.84-1.42,6.82,6.82,0,0,0-2.5-.42H78.75ZM83.6,39.49H81.78a.82.82,0,0,1-.75-.86V28.39a.81.81,0,0,1,.75-.85h2a3.79,3.79,0,0,1,2.08.49A3.09,3.09,0,0,1,87,29.51a5.83,5.83,0,0,1,.41,2c0,.64,0,1.33,0,2.05s0,1.49-.06,2.13A5.32,5.32,0,0,1,87,37.6,3.08,3.08,0,0,1,85.72,39,4.06,4.06,0,0,1,83.6,39.49Zm-1.07-1.71H83.6A2.93,2.93,0,0,0,85,37.5a1.49,1.49,0,0,0,.6-.69,3.3,3.3,0,0,0,.27-1.24q.06-.9.06-2c0-.7,0-1.35,0-2a4,4,0,0,0-.26-1.34,1.49,1.49,0,0,0-.58-.72,2.43,2.43,0,0,0-1.34-.27H82.53Z"/><path class="cls-9" d="M83.18,36.89h.61a1.21,1.21,0,0,0,.83-.23,1.07,1.07,0,0,0,.35-.55,3.8,3.8,0,0,0,.16-1c0-.49,0-1,0-1.63s0-1.1,0-1.6A4.28,4.28,0,0,0,85,30.79a1.31,1.31,0,0,0-.34-.58,1.1,1.1,0,0,0-.77-.22h-.7Z"/><path class="cls-2" d="M98,55.32H94.19a.81.81,0,0,1-.75-.86V24.33a.81.81,0,0,1,.75-.86H98a.81.81,0,0,1,.75.86V54.46A.81.81,0,0,1,98,55.32Zm-3-1.72h2.28V25.19H94.93Z"/><path class="cls-2" d="M113.89,55.32H102.63a.82.82,0,0,1-.75-.86V24.33a.82.82,0,0,1,.75-.86h11.26a.82.82,0,0,1,.75.86v4.06a.81.81,0,0,1-.75.86h-6.74v7.13h5.77a.81.81,0,0,1,.75.86V41.3a.8.8,0,0,1-.75.85h-5.77v7.14h6.74a.81.81,0,0,1,.75.85v4.32A.82.82,0,0,1,113.89,55.32ZM103.38,53.6h9.76V51H106.4a.8.8,0,0,1-.74-.86V41.3a.81.81,0,0,1,.74-.86h5.77V38.09H106.4a.8.8,0,0,1-.74-.85V28.39a.8.8,0,0,1,.74-.85h6.74V25.19h-9.76Z"/><path class="cls-10" d="M48.28,48.87H46.5L42.89,36.76V54.43H39.07v-30c.12,0,3.66,0,3.66,0l4.84,15.36"/><path class="cls-10" d="M46.84,48.87h1.78l3.61-12.11V54.43h3.82v-30c-.12,0-3.66,0-3.66,0L47.55,39.78"/><polyline class="cls-10" points="66.99 35.58 64 24.4 59.97 24.4 65.15 41.67 65.15 54.43 67.05 54.43"/><polyline class="cls-10" points="66.99 35.58 69.98 24.4 74.01 24.4 68.83 41.67 68.83 54.43 66.94 54.43"/><path class="cls-10" d="M77.9,24.4l7,0s5.41-.22,5.41,9.4c0,9.2-5.57,9-5.57,9H81.82l0,11.69h-3.7Z"/><path class="cls-10" d="M81.82,34.27V28.41H84c1.87,0,2.68,1,2.77,4.63v.86c-.09,3.67-.9,4.63-2.77,4.63H81.82V34.2"/><polygon class="cls-10" points="94.25 24.4 97.88 24.4 98.13 54.43 94.25 54.43 94.25 24.4"/><polygon class="cls-10" points="102.56 24.38 113.76 24.38 113.76 28.41 106.54 28.41 106.54 37.28 112.84 37.28 112.84 41.14 106.58 41.14 106.58 50.09 113.76 50.09 113.76 54.43 102.56 54.43 102.56 24.38"/><path class="cls-6" d="M130.42,44.46a4.2,4.2,0,0,1,.3-1.17,2.27,2.27,0,0,1,.58-.82,1.43,1.43,0,0,1,.92-.44.71.71,0,0,1,.37.22,4.59,4.59,0,0,0,.51.35,11.38,11.38,0,0,0,1.12.52l0,0a2,2,0,0,0,.87,0,.88.88,0,0,1,.83.11,1.77,1.77,0,0,1,.42.71l.45,1.08c.1.22-.17.42-.37.36a.49.49,0,0,0,0,.11.32.32,0,0,1,.06.17h0c0,.07,0,.14.07.22a.29.29,0,0,1-.54.22l0,0H136c-.44,0-.88-.08-1.32-.1a4.48,4.48,0,0,0-1.22.11.44.44,0,0,1-.43-.73l0,0a7,7,0,0,0-1.12,0,3,3,0,0,1-1.22,0C130.28,45.18,130.38,44.78,130.42,44.46Z"/><path class="cls-2" d="M130.63,45.53a.3.3,0,0,1,.43-.17c.2.08.53,0,.73-.06a2,2,0,0,1,.8.08.3.3,0,0,1,.18.43s.23.28.21.32c.21.22.87-.21,1.16-.15s1.54.1,2,.13a2.55,2.55,0,0,1,.76.4,1,1,0,0,1-.11-.17.88.88,0,0,1-.05-.15s0-.06,0-.09V46h0a2.2,2.2,0,0,1,0-.36.15.15,0,0,1,.19-.14.35.35,0,0,1,.13.08.09.09,0,0,1,0,.08,2.24,2.24,0,0,1,.34.85.14.14,0,0,1-.18.18l-.06,0c.1.09.14.15,0,.14a5.17,5.17,0,0,0-2.87.71l-.07.05a.42.42,0,0,1-.29.3l-.14,0-.15.1a1.87,1.87,0,0,1-1.5.37c-.53-.2-.72-.72-.92-1.21l-.35-.82C130.74,46.12,130.53,45.8,130.63,45.53Z"/><line class="cls-9" x1="130.88" y1="46.83" x2="130.67" y2="46.83"/><path class="cls-9" d="M136.29,43.57c.56,1.52,1.21,3.26,1.21,3.26h-1.37"/><path class="cls-2" d="M134,38.47s0,0,0,0v0Z"/><path class="cls-2" d="M130.83,37s0,0,0,0a1.11,1.11,0,0,0,.07.16l.11.15,0,0a.7.7,0,0,0,.17.13.85.85,0,0,0,.22.09l.08,0h.07a.5.5,0,0,0,0,.27.44.44,0,0,0,.42.32,4.57,4.57,0,0,1,.64,0l.16,0h.06l.36.05.59,0,.13,0H134l0,.09v0l0,0-.07.12,0,.05a.81.81,0,0,1-.09.1l-.1.1,0,0,0,0h0l0,0-.12.08-.13.07h0l0,0-.1,0s0,0,0,0h-.15l-.35,0a.47.47,0,0,0-.32.16c-.29,0-.65,0-.62.35,0,.22.24.41.35.59a1.6,1.6,0,0,1,.28.76,2.87,2.87,0,0,0,.07.78c.06.18.28.28.43.38a6.18,6.18,0,0,0,1.38.7,8.12,8.12,0,0,0,.81.22,1.27,1.27,0,0,0,.61,0c.2-.08.28-.31.37-.49a3.35,3.35,0,0,0,.32-.66c.14-.48-.22-1-.26-1.5s.14-1.16.74-1.19a.3.3,0,0,0,.21-.5c-.15-.19-.38-.2-.56-.35A1.52,1.52,0,0,1,136,38a3.81,3.81,0,0,1-.33-1.76.29.29,0,0,0-.15-.25,6.26,6.26,0,0,0-1-.31l0,0a3.11,3.11,0,0,0-.78-.37.24.24,0,0,0-.2,0,1.46,1.46,0,0,1-.28-.21.31.31,0,0,0-.42,0,.7.7,0,0,0-.13.69.22.22,0,0,0,0,.09s0,0,0,0a.85.85,0,0,1-.12.23l-.19.38,0-.06a1.3,1.3,0,0,0-.18-.15l-.08-.05a1.45,1.45,0,0,0-.22-.09.83.83,0,0,0-.22,0h-.07a.85.85,0,0,0-.22,0,.7.7,0,0,0-.24.13l-.09.06-.1.14a.71.71,0,0,0-.09.28A1,1,0,0,0,130.83,37Z"/><path class="cls-11" d="M132.76,36.78l0-.38a1.15,1.15,0,0,1,.06-.37l.28-.12h0l.12-.07,0,0a.64.64,0,0,0,0-.07h.19a.61.61,0,0,1,.46.14.84.84,0,0,1,.05.89,2.7,2.7,0,0,1-.25.4.76.76,0,0,1-.15.17l-.05,0h0l0,0-.11-.09a.83.83,0,0,0-.29-.16l-.35-.06-.11,0A.26.26,0,0,0,132.76,36.78Z"/><path class="cls-9" d="M132.47,46.39a5.11,5.11,0,0,1,4.67.36"/><path class="cls-9" d="M131.35,47.77a1.22,1.22,0,0,0,1,.68,1.94,1.94,0,0,0,1.34-.4,4.05,4.05,0,0,1,2.39-1.22"/><path class="cls-9" d="M133,46.13a2.26,2.26,0,0,1-.17-.71"/><path class="cls-9" d="M131.2,47.47a6.66,6.66,0,0,1-.63-2"/><path class="cls-9" d="M131.35,47.77l-.15-.3"/><path class="cls-9" d="M135.82,43.05s.12.19.47.52"/><path class="cls-12" d="M133.36,34a.55.55,0,0,0,.16-.44l1,.47c.63.29,1.29.5,1.91.81s1.16.72,1.78,1a3.5,3.5,0,0,0,1.47.46,1.47,1.47,0,0,1,0,.21s0,.07,0,.1a.56.56,0,0,0,0,.4,4.82,4.82,0,0,1-.11.52,15.39,15.39,0,0,1-.6,1.73,14,14,0,0,1-.72,1.75c-.14.24-.29.48-.45.7s-.3.33-.43.51c-.3,0-.77.2-1.06.11a.36.36,0,0,1-.08-.15.35.35,0,0,0-.1-.62,2,2,0,0,0,0-.29,4.05,4.05,0,0,1,.15-1.76.23.23,0,0,0,0-.2h0a1.09,1.09,0,0,0,.31,0l.3,0a.22.22,0,0,0,.15-.11.65.65,0,0,0,0-.13.22.22,0,0,0-.06-.15.21.21,0,0,0-.13-.09l-.22-.06a.22.22,0,0,0,0-.13,13.19,13.19,0,0,1-.88-1.44,2.39,2.39,0,0,1-.17-.7l.07-.06s0-.08-.1-.16a.48.48,0,0,0-.15-.31,1.82,1.82,0,0,0-.69-.32,7.81,7.81,0,0,1-.84-.35c-.43-.2-.85-.41-1.28-.6Z"/><path class="cls-9" d="M132.72,35.31s-.14.27,0,.34"/><path class="cls-9" d="M132.74,35.28l.17-.32"/><path class="cls-9" d="M131.61,39.3a1.23,1.23,0,0,0,.08.74c.24.58.73,1,.65,1.94a2,2,0,0,0-1.62,1.2"/><path class="cls-9" d="M131.8,37.7a.45.45,0,0,0-.21.27.26.26,0,0,0,.14.26"/><path class="cls-9" d="M132.67,36.84a1.92,1.92,0,0,1,1.12.57"/><path class="cls-13" d="M133,36.06a.15.15,0,0,0,.11.2.16.16,0,0,0,.2-.12.16.16,0,0,0-.12-.19A.15.15,0,0,0,133,36.06Z"/><path class="cls-9" d="M136.44,42l-.09.12a2.27,2.27,0,0,0-.53.91"/><path class="cls-9" d="M131.8,37.7a.93.93,0,0,1-.37,0,.82.82,0,0,1,.42-1.59.91.91,0,0,1,.53.46l.36-.91"/><path class="cls-9" d="M136.19,39.22a.71.71,0,0,1-.17-.56"/><path class="cls-9" d="M137.24,39a.8.8,0,0,1-.85.32.75.75,0,0,1-.2-.11"/><path class="cls-9" d="M136.57,38.69a.69.69,0,0,1-.11.13"/><path class="cls-9" d="M138.75,34.47a3.93,3.93,0,0,1,.45,4.32"/><path class="cls-9" d="M132.86,36.87a.66.66,0,0,1-.06-.68.68.68,0,1,1,.72,1"/><path class="cls-9" d="M131.62,39.28s1.94.43,2.41-.89l-2.3-.16"/><line class="cls-9" x1="131.95" y1="38.36" x2="131.85" y2="38.8"/><path class="cls-9" d="M133.5,39.06s-1.65-.26-1.65-.26"/><path class="cls-9" d="M136.39,39.33s-.92,1.86.26,2.74"/><path class="cls-9" d="M136.22,42.32s1.05.76,2.28-1.86c.27-.6.61-1.44.78-1.86"/><path class="cls-9" d="M137.43,39s-1.73,0-1.85-3"/><path class="cls-9" d="M135.69,36l-3-1.21a3.4,3.4,0,0,1,4-1.43"/><path class="cls-14" d="M131.45,33l8.17,4.09s.83-2.82-1.62-4.09a3.86,3.86,0,0,0-4.59.91"/><path class="cls-9" d="M132.34,42s2,1.53,3.48,1.07"/><path class="cls-9" d="M136,44a10.62,10.62,0,0,1,.69,2.46"/><path class="cls-9" d="M130.69,43.26a6.67,6.67,0,0,0-.27,1.2"/><path class="cls-9" d="M132.83,45.35a6.76,6.76,0,0,0-1.15-.08,5.49,5.49,0,0,0-1.28.11"/><path class="cls-9" d="M132.88,45.57c.16,0,.25-.06.25-.1s-.11-.09-.3-.12"/><line class="cls-9" x1="133.1" y1="45.04" x2="133.06" y2="44.36"/><line class="cls-9" x1="133.13" y1="45.47" x2="133.1" y2="45.04"/><path class="cls-9" d="M136.46,45.42s.35,0,.51,0"/><path class="cls-7" d="M130.43,46a.14.14,0,0,1,.08-.07.17.17,0,0,1,.12,0,.13.13,0,0,1,.06.09l.08.56a.14.14,0,0,1,0,.11.16.16,0,0,1-.09.07.11.11,0,0,1-.11,0,.14.14,0,0,1-.07-.08l-.08-.56S130.4,46,130.43,46Z"/><line class="cls-9" x1="130.4" y1="40.47" x2="130.4" y2="46.76"/><rect class="cls-7" x="20" y="41.26" width="9.76" height="22.33"/></g></svg>