<svg xmlns="http://www.w3.org/2000/svg" viewBox="0 0 42.58 27.07"><defs><style>.cls-1{fill:#0077bf;}.cls-1,.cls-2{stroke:#1c204d;}.cls-1,.cls-2,.cls-5,.cls-7,.cls-8{stroke-linecap:round;stroke-linejoin:round;}.cls-1,.cls-2,.cls-5,.cls-8{stroke-width:0.4px;}.cls-2,.cls-5,.cls-7,.cls-8{fill:none;}.cls-3{fill:#ea4827;}.cls-4{fill:#f47951;}.cls-5{stroke:#f8c6dc;}.cls-6{fill:#af6e30;}.cls-7{stroke:#f9b730;}.cls-8{stroke:#fff;}</style></defs><g id="Layer_1" data-name="Layer 1"><polyline class="cls-1" points="38.12 1.81 38.6 24.56 3.88 24.64 3.95 1.88"/><line class="cls-2" x1="3.95" y1="1.88" x2="38.12" y2="1.81"/><path class="cls-3" d="M21.67,20.84a1.06,1.06,0,0,1-.31.05l-10.08,0a.67.67,0,0,1-.65-.44L9.38,17A1.35,1.35,0,0,1,10,15.57c.53-.33,1.09-.22,1.26.26l1.09,3h9.59c.52,0,.82.47.66,1.05A1.52,1.52,0,0,1,21.67,20.84Z"/><path class="cls-3" d="M30.73,20.82a.87.87,0,0,1-.31.05l-10.08,0c-.53,0-.82-.47-.67-1.05a1.43,1.43,0,0,1,1.24-1.05l9.18,0,.79-2.43a1.41,1.41,0,0,1,1.27-1c.52,0,.78.53.6,1.11l-1.11,3.43A1.54,1.54,0,0,1,30.73,20.82Z"/><path class="cls-4" d="M21.66,20.44a.57.57,0,0,1-.18,0l-10.08,0a.39.39,0,0,1-.39-.27L9.75,16.8a.82.82,0,0,1,.38-.88c.31-.2.65-.14.75.15L12,19.23l9.78,0c.32,0,.5.28.4.63A.91.91,0,0,1,21.66,20.44Z"/><path class="cls-4" d="M30.72,20.42a.63.63,0,0,1-.19,0l-10.08,0c-.31,0-.49-.28-.4-.63a.86.86,0,0,1,.75-.63l9.54,0,.91-2.83a.87.87,0,0,1,.77-.6c.31,0,.47.32.35.67l-1.11,3.43A.88.88,0,0,1,30.72,20.42Z"/><polyline class="cls-5" points="10.32 16.43 11.57 19.86 21.65 19.84"/><polyline class="cls-5" points="31.81 16.39 30.7 19.82 20.63 19.84"/><path class="cls-6" d="M32.93,17.15a6.64,6.64,0,0,1-1.73.33,9.09,9.09,0,0,1-4.57-1.1,5.28,5.28,0,0,1-.58.3,5,5,0,0,1-4.9-.18,2.91,2.91,0,0,1-.33-.26l-.2.15a5.1,5.1,0,0,1-5,.35A5,5,0,0,1,15,16.4a9.14,9.14,0,0,1-4.58,1.11c-.2,0-4.48-.16-4.47-3.83A3.17,3.17,0,0,1,7,11.26a5,5,0,0,1,4.13-.78A8.23,8.23,0,0,1,13,8.21,11.76,11.76,0,0,1,20.83,5.7h.64c6.56,0,8.94,3.37,9.65,4.79,2-.43,4.84-.28,5,2.48a3.94,3.94,0,0,1-1,2.83A4.91,4.91,0,0,1,32.93,17.15Zm-4.71-2.54a7.62,7.62,0,0,0,3.53.76,3.5,3.5,0,0,0,2.11-.77,1.18,1.18,0,0,0,.25-.92c-.1-2-3.67-1-3.71-1a.71.71,0,0,1-.94-.43c-.05-.18-1.53-4.46-8.57-4.45h-.63c-6.57,0-7.75,3.76-7.8,3.92a1.53,1.53,0,0,1-.59.81,1,1,0,0,1-.86.2c-1.3-.37-2.77-.32-3.06,0a1,1,0,0,0,0,.37c0,2.2,3,2.33,3.08,2.33A7.75,7.75,0,0,0,13.72,15a4.09,4.09,0,0,1-.19-2,4.52,4.52,0,0,1,1.92-3.27,2,2,0,0,1,2.14-.21A2.6,2.6,0,0,1,18.37,12a5.26,5.26,0,0,1-1.44,2.87,3.43,3.43,0,0,0,2.81,0,6.44,6.44,0,0,1-.68-2.65,2.67,2.67,0,0,1,.26-1.48,2.18,2.18,0,0,1,1.92-1.24h0a1.54,1.54,0,0,1,1.39.8,2.44,2.44,0,0,1,.26,1.27,6.87,6.87,0,0,1-.64,2.86,2.09,2.09,0,0,0,.29.23,3.11,3.11,0,0,0,2.39.42,4.22,4.22,0,0,1-1.31-4,2.58,2.58,0,0,1,1-1.6,2,2,0,0,1,2.14,0,3.94,3.94,0,0,1,1.65,2.73A4,4,0,0,1,28.22,14.61Zm-2.7-3.14a3.2,3.2,0,0,0,1,1.87l0-.15A2.62,2.62,0,0,0,25.52,11.47Zm-9.35-.16-.1,0a1.88,1.88,0,0,0-.57,1.23,2.16,2.16,0,0,0,.1,1.13,2.65,2.65,0,0,0,.78-1.31,1.39,1.39,0,0,0-.15-1.1Z"/><path class="cls-7" d="M21,10.52a.89.89,0,0,1,.79.46,1.63,1.63,0,0,1,.15.85,4.6,4.6,0,0,1-1.64,3.74,4.16,4.16,0,0,1-4.05.18,3,3,0,0,1-1.39-1.11,2.94,2.94,0,0,1-.3-1.89,3.14,3.14,0,0,1,1.25-2.25,1.16,1.16,0,0,1,1.17-.12c.48.3,1.25,2.45-1.38,4.55a7.63,7.63,0,0,1-4.88,1.53s-3.78-.1-3.76-3.08,4.6-1.67,4.6-1.67,1.33-5,9-5h.63c7.7,0,9.24,4.92,9.24,4.92S35,10.34,35.1,13.33s-3.64,3.1-3.64,3.1a7.9,7.9,0,0,1-4.94-1.52c-2.72-2.09-2-4.24-1.57-4.54a1.13,1.13,0,0,1,1.17.11,3.22,3.22,0,0,1,1.34,2.25,2.79,2.79,0,0,1-.22,1.89,2.89,2.89,0,0,1-1.34,1.12,4.19,4.19,0,0,1-4-.17,4.79,4.79,0,0,1-1.8-3.74,1.63,1.63,0,0,1,.11-.85.84.84,0,0,1,.79-.46"/><path class="cls-8" d="M21,10.52a.89.89,0,0,1,.79.46,1.63,1.63,0,0,1,.15.85,4.6,4.6,0,0,1-1.64,3.74,4.16,4.16,0,0,1-4.05.18,3,3,0,0,1-1.39-1.11,2.94,2.94,0,0,1-.3-1.89,3.14,3.14,0,0,1,1.25-2.25,1.16,1.16,0,0,1,1.17-.12c.48.3,1.25,2.45-1.38,4.55a7.63,7.63,0,0,1-4.88,1.53s-3.78-.1-3.76-3.08,4.6-1.67,4.6-1.67,1.33-5,9-5h.63c7.7,0,9.24,4.92,9.24,4.92S35,10.34,35.1,13.33s-3.64,3.1-3.64,3.1a7.9,7.9,0,0,1-4.94-1.52c-2.72-2.09-2-4.24-1.57-4.54a1.13,1.13,0,0,1,1.17.11,3.22,3.22,0,0,1,1.34,2.25,2.79,2.79,0,0,1-.22,1.89,2.89,2.89,0,0,1-1.34,1.12,4.19,4.19,0,0,1-4-.17,4.79,4.79,0,0,1-1.8-3.74,1.63,1.63,0,0,1,.11-.85.84.84,0,0,1,.79-.46"/></g></svg>