<svg xmlns="http://www.w3.org/2000/svg" viewBox="0 0 84.1 103.32"><defs><style>.cls-1{fill:#89d3de;}.cls-2{fill:#f9b730;}.cls-3,.cls-8{fill:#f47951;}.cls-4{fill:#fff;}.cls-5{fill:#0077bf;}.cls-6{fill:none;}.cls-10,.cls-6,.cls-8,.cls-9{stroke:#1c204d;stroke-linecap:round;stroke-linejoin:round;}.cls-6,.cls-8,.cls-9{stroke-width:0.8px;}.cls-10,.cls-7{fill:#1c204d;}.cls-9{fill:#aee1f0;}.cls-10{stroke-width:0.8px;}</style></defs><g id="Layer_1" data-name="Layer 1"><path class="cls-1" d="M33.18,39.35a5.34,5.34,0,0,0-1.14.32c-.84.2-1.7.3-2.56.46-1.24.23-2.45.62-3.67.95A2.9,2.9,0,0,0,25.4,41a3.18,3.18,0,0,0-1.64.31,6.21,6.21,0,0,0-1.14.22A9.63,9.63,0,0,0,21,42c-1.22.15-2.44.27-3.65.43a.8.8,0,0,0-.52.31c-.78,0-1.55-.14-2.33-.23s-.9,1.31,0,1.42a26.39,26.39,0,0,0,5.4.24.72.72,0,0,0,.68-.69.69.69,0,0,0,.35,0l.36-.1.17,0h0a.84.84,0,0,0,.54-.07l0,0c.51-.07,1-.13,1.54-.22a1.7,1.7,0,0,0,1.92-.1.74.74,0,0,0,.27-.36l.12,0,.78.18A4.51,4.51,0,0,0,29,42.64,36.15,36.15,0,0,0,32.42,41a8.16,8.16,0,0,0,1.14-.33A.71.71,0,0,0,33.18,39.35Z"/><path class="cls-1" d="M75.1,40.29a72,72,0,0,1-9.4.17,81.7,81.7,0,0,1-9.52-.66c-.88-.14-1.29,1.14-.38,1.36,1.87.47,3.52,1.34,5.45,1.62A.74.74,0,0,0,62,41.72h.16a.79.79,0,0,0,.69.76,17.11,17.11,0,0,0,3.12,0l.21,0a24.75,24.75,0,0,0,3.1.15h.4l.65,0a.58.58,0,0,0,.36.27,2.17,2.17,0,0,0,1.46-.18.57.57,0,0,0,.36-.39,18.8,18.8,0,0,0,2.74-.65C76,41.45,75.93,40.21,75.1,40.29Z"/><path class="cls-2" d="M32.77,34.59c.34-.43.18-1.27-.5-1.21-1.13.09-2.1-.93-3.2-1.16a15.41,15.41,0,0,0-3.78-.12,29.69,29.69,0,0,0-3.87.5,6,6,0,0,0-2.89,1A11.38,11.38,0,0,0,15,35.35a3.1,3.1,0,0,0-1.24,1.57,2.83,2.83,0,0,0-.78-.14c-.83,0-.92,1.14-.19,1.39a5.32,5.32,0,0,0,.69.16c.78.42.59,1.83,1.23,2.5A.69.69,0,0,0,15,41c.07.28.14.57.19.86a.69.69,0,0,0,1.22.23h0a6.44,6.44,0,0,0,2.89-.38s0,0,.06,0a18.16,18.16,0,0,0,4.47-.46,26.2,26.2,0,0,1,7.49-1.37.72.72,0,0,0,.71-.7L32,36.7a3.17,3.17,0,0,1,0-1.11A6.25,6.25,0,0,1,32.77,34.59Z"/><path class="cls-2" d="M76,34.54c-1.67-.41-3-1.59-4.62-2.18a22.43,22.43,0,0,0-5.34-1,12.86,12.86,0,0,0-5.13.32,10.67,10.67,0,0,0-2.4,1.05c-.68.4-1.48,1.27-2.32.94s-1.22,1-.38,1.37l.63.22c.21,0,.28.09.22.35a4.69,4.69,0,0,1,.2,1.29A20.78,20.78,0,0,1,57,39.43a.69.69,0,0,0,.68.69.81.81,0,0,0,.25.09l.18,0c.36.21.7.05,1.09,0a26.14,26.14,0,0,0,4.15,0c2-.11,4.15,0,6.11.08l2.9.14c.62,0,1.3.15,1.66-.48a9.93,9.93,0,0,0,.62-2.44,2.26,2.26,0,0,1,1.53-1.65A.72.72,0,0,0,76,34.54Z"/><path class="cls-3" d="M35.78,49.8c-2-1.55-3.63-3.46-5.44-5.2,0,0-1.86-2-1.87-2s-2.2-.37-2.31-.26a2.89,2.89,0,0,1-.53.13,1.1,1.1,0,0,1-.28.33,3.18,3.18,0,0,1-1.9.28,15.34,15.34,0,0,0-2.25,0,2.32,2.32,0,0,0-.93.27,1.74,1.74,0,0,0-.46.54,2.63,2.63,0,0,1-1.56.93,1.65,1.65,0,0,0,1,1.6,2.79,2.79,0,0,0,.77.14,1,1,0,0,1,.55-.24c.72-.06,1.43,0,2.15-.12a15.91,15.91,0,0,0,1.82-.39,17,17,0,0,1,2-.3c.49,0,1.13-.17,1.49.27a1,1,0,0,1,.2.44s.08,0,.07,0c2,2.65,4,5.35,5.92,8.06a1.21,1.21,0,0,0,.34.3,5.46,5.46,0,0,0,.36,1c.18.36.66.2.78-.11q.38-.93.81-1.83c.26-.55.63-1.09.86-1.66C37.75,51.11,36.37,50.26,35.78,49.8Z"/><path class="cls-3" d="M52.78,45a1.76,1.76,0,0,0-.4-.65c-.22-.19-.43-.16-.69-.25s-.62-.57-1.06-.69h-.06c0-.17-.1-.34-.12-.43-.16-.49-.22-1-.36-1.5-.26-.91-1.22-1.32-2-1.66a7.34,7.34,0,0,0-5.37-.3,5.87,5.87,0,0,0-3.55,3.43,15.18,15.18,0,0,0-.55,1.84,1.33,1.33,0,0,0-1.18.59,2.92,2.92,0,0,0-.11,2A2.42,2.42,0,0,0,38,48.75a1.56,1.56,0,0,0,.76.4,2.09,2.09,0,0,0,.43.87c.21.33.43.66.63,1,.4.65.8,1.3,1.16,2a7.23,7.23,0,0,1,.55,2.3c.06.36.49.5.8.45a4.63,4.63,0,0,1,1.5.25,9.18,9.18,0,0,0,1.65.13,5,5,0,0,0,2.39-.66.61.61,0,0,0,.69-.45,22.47,22.47,0,0,1,1.53-3.86c.3-.61.63-1.23,1-1.83.15-.28.28-.56.44-.82a3.23,3.23,0,0,1,.64-.64A2.68,2.68,0,0,0,52.78,45Z"/><path class="cls-4" d="M50.45,42.93c-.12-.37-.19-.75-.28-1.14l-.16-.1a3.24,3.24,0,0,0-.36-.2,5.32,5.32,0,0,0-.71-.26c-.21-.07-.43-.1-.65-.15l-.14.18-.2.15-.24.11-.36,0h-.16a1,1,0,0,1-1.07.41l-.23-.11h0c-.72-.41-1.66-.94-2.38-.29a2.85,2.85,0,0,0-.88,1.89,1.47,1.47,0,0,0,.15.78c.12.23.12.22.34.35a2.14,2.14,0,0,0,.75.29c.3.08.61.14.91.19A2.86,2.86,0,0,0,45.86,45a5.26,5.26,0,0,1,1.43,0,3.16,3.16,0,0,0,2.16-.56,2.68,2.68,0,0,0,1-1.4A.45.45,0,0,1,50.45,42.93Z"/><path class="cls-3" d="M59.69,49.05a6.46,6.46,0,0,0,1.12-1.27c.58-.92,1-2,2-2.48a6.22,6.22,0,0,1,3-.24c1.15.12,2.29.2,3.45.22a2.6,2.6,0,0,0,1.49-.19,3.19,3.19,0,0,0,.82-.86.7.7,0,0,0,.17-.89c-.16-.42-.33-.47-.75-.52-1-.1-1.66-.8-2.61-1a6.91,6.91,0,0,0-3,.36c-.8.2-1.45-.26-2.1-.31a4.35,4.35,0,0,1-1.55-.22c-.94,1.17-2.61,3.31-2.84,3.57-.54.61-1.1,1.19-1.69,1.75-1.23,1.18-2.5,2.33-3.76,3.49a.84.84,0,0,0-.21.33h0a.87.87,0,0,0-.42.1.64.64,0,0,0-.31.47.66.66,0,0,0,.18.54l.07.1a1.27,1.27,0,0,1,.13.19c.09.12.17.25.25.38s.27.5.39.76c0,0,.06.13.07.14l.06.18c0,.12.09.24.14.37a8.7,8.7,0,0,1,.22.88.56.56,0,0,0,.25.35.43.43,0,0,0,.8.2c.27-.5.55-1,.84-1.51A5,5,0,0,0,57,52.58c.47-.76.94-1.5,1.47-2.21a1.38,1.38,0,0,1,.37-.31A3,3,0,0,1,59.69,49.05Z"/><path class="cls-4" d="M54.73,56.89a13.78,13.78,0,0,0-1-2.65,11,11,0,0,1-1.09-2.36c-.12-.59-.87-.56-1.17-.15a9.4,9.4,0,0,0-.7,1.14A5.58,5.58,0,0,0,49,54.49c-.18.3-.18.69-.47.92a3,3,0,0,1-1.21.41,9.31,9.31,0,0,1-2.72.38,7.92,7.92,0,0,1-2.6-.75,1,1,0,0,0-.34-.09l-.06-.3c-.1-.52-.67-.82-1-1.15a13.09,13.09,0,0,1-1.89-2.12.66.66,0,0,0-1.12,0,2.17,2.17,0,0,0-.28.73.76.76,0,0,0-.29.3c-.58,1.26-1.12,2.54-1.61,3.83a.84.84,0,0,0,.3.9.8.8,0,0,0,.62.16v0a3.38,3.38,0,0,0,1.25.71,5.45,5.45,0,0,1,1.12.65c.12.1,0,.3.15.34L40,68.08a.89.89,0,0,0,.86.86c2.89.16,5.79.13,8.68.09a.57.57,0,0,0,.18,0h0a.89.89,0,0,0,.83-.63v0a.64.64,0,0,0,0-.54c.17-1.31.25-2.63.36-4l.18-2.29a17.43,17.43,0,0,0,.13-2,33.86,33.86,0,0,1,3.19-2A.63.63,0,0,0,54.73,56.89Z"/><path class="cls-5" d="M57.17,92.63a.46.46,0,0,0-.06-.28s0,0,0,0a1,1,0,0,0-.27-.54,1.31,1.31,0,0,0,0-.27L56.67,91a20.28,20.28,0,0,1-.76-2.52.63.63,0,0,1,0-.31l-.51-2,0-.06c-.63-1.81-1.14-3.67-1.66-5.51S52.59,76.92,52.12,75c-.22-.91-.38-1.83-.64-2.73a13.26,13.26,0,0,1-.63-2.38h0A.91.91,0,0,0,49.55,69a3.86,3.86,0,0,1-1.91.19c-.71,0-1.4.08-2.11.08-1.6,0-3.2-.13-4.8-.21a.88.88,0,0,0-.83,1.09,1.33,1.33,0,0,0,.1.24,19.32,19.32,0,0,1-.81,3.71c-.23.64-.49,1.26-.69,1.9q-.07.22-.15.48a.47.47,0,0,1,.1.44A7.55,7.55,0,0,0,38.28,78a.47.47,0,0,1-.11.26l0,0c-1.37,4-2,8.37-3.24,12.46A1.32,1.32,0,0,0,35,91.76l-.17.15a1,1,0,0,0,.68,1.64l.7,0,.2,0h0l.1,0,.2,0,1.33.24a10.75,10.75,0,0,0,2.88.23c.5,0,.73-.47.7-1a5.64,5.64,0,0,1,0-.88,2.66,2.66,0,0,0,.24-.93,1.63,1.63,0,0,0,.19-.5c.13-.72.26-1.42.39-2.12a1.41,1.41,0,0,0,.3-.6c.42-1.77.83-3.55,1.24-5.32a1.39,1.39,0,0,0,0-.73c.33-1.4.67-2.79,1.06-4.16a16.23,16.23,0,0,0,.59-2.38,1.07,1.07,0,0,0,.3.06,37.91,37.91,0,0,0,1.78,7,1.5,1.5,0,0,0,0,.36C48.36,85.93,49,89,49.74,92a1.14,1.14,0,0,0,.15.34A7.26,7.26,0,0,0,50,93.48a1,1,0,0,0,1.19.68c.83-.19,1.67-.38,2.52-.53l.61-.1.19,0,.26,0c.4,0,.79-.07,1.19-.08a.63.63,0,0,0,.12.11l.17.07a.48.48,0,0,0,.29,0,.34.34,0,0,0,.18,0,.51.51,0,0,0,.23-.15l.12-.15a.74.74,0,0,0,.09-.36Z"/><path class="cls-6" d="M51.27,49.21a3.76,3.76,0,0,1-.25.58c-1.35,2.69-2.45,3.58-2.45,5.4"/><path class="cls-6" d="M51.59,44.49a9.42,9.42,0,0,1,.1,2.75,10,10,0,0,1-.42,2"/><path class="cls-6" d="M45.07,39a9.86,9.86,0,0,1,1.38.13,6.31,6.31,0,0,1,5.14,5.41"/><path class="cls-6" d="M39,49.41c.06.17.12.3.15.39,1.06,2.81,2.41,3.64,2.41,5.46"/><path class="cls-6" d="M45.07,39a8.73,8.73,0,0,0-1.39.14,6,6,0,0,0-3.92,2.33"/><line class="cls-6" x1="37.64" y1="51.48" x2="30.02" y2="44.29"/><path class="cls-7" d="M60.22,95.29A3.55,3.55,0,0,1,59.4,95c-.3-.11-.62-.2-.93-.28a13.08,13.08,0,0,0-1.76-.25c-.63,0-1.26,0-1.89-.09a1.57,1.57,0,0,1-.74-.2,1.58,1.58,0,0,0-.69-.36,4.64,4.64,0,0,0-1.85.14l-.06,0h0l-.15,0h-.24L51,94l-.13.06h0a.38.38,0,0,0-.14.14.4.4,0,0,0-.1.18.5.5,0,0,0,0,.21.47.47,0,0,0,.06.2l.09.1a.53.53,0,0,0,.15.11v.07l-.08.06a.54.54,0,0,0,0,.75l0,.05a.52.52,0,0,0,.59.24h0l.15,0a.58.58,0,0,0,.3-.07,9.77,9.77,0,0,1,1.95,0,12.05,12.05,0,0,0,2.32.2,7.89,7.89,0,0,1,1.09-.1,6.31,6.31,0,0,1,1.06.16,3.78,3.78,0,0,0,2,0A.53.53,0,0,0,60.22,95.29Z"/><path class="cls-6" d="M55.14,96.3H50.89c-.26,0-.26-.28-.26-.28l.11-1.89"/><path class="cls-6" d="M52.9,96.3h7.49s.58,0,.58-.37-1.89-1.78-7.06-1.78v-.43"/><line class="cls-6" x1="46.07" y1="75.41" x2="50.3" y2="94.17"/><path class="cls-6" d="M50.3,94.17l6.93-.82S51.75,74.8,50.55,68.92"/><path class="cls-6" d="M45.34,69.18a39.86,39.86,0,0,0,5.21-.26l.69-9.33a3,3,0,0,1-.62-1.28"/><path class="cls-6" d="M47.81,75.06a6.68,6.68,0,0,1-2.13.35"/><path class="cls-7" d="M31.52,95.29a3.27,3.27,0,0,0,.82-.26c.31-.11.62-.2.94-.28A12.71,12.71,0,0,1,35,94.5c.63,0,1.27,0,1.9-.09a1.54,1.54,0,0,0,.73-.2,1.7,1.7,0,0,1,.69-.36A4.62,4.62,0,0,1,40.2,94l.06,0h0l.15,0h.23l.06,0,.14.06h0a.5.5,0,0,1,.15.14.4.4,0,0,1,.1.18.5.5,0,0,1,0,.21.48.48,0,0,1-.07.2l-.08.1a.57.57,0,0,1-.16.11s0,0,0,.07l.07.06a.53.53,0,0,1,0,.75l0,.05a.53.53,0,0,1-.6.24h0l-.15,0a.56.56,0,0,1-.3-.07,9.88,9.88,0,0,0-2,0,12,12,0,0,1-2.31.2,7.89,7.89,0,0,0-1.09-.1,6.31,6.31,0,0,0-1.06.16,3.78,3.78,0,0,1-2,0A.53.53,0,0,1,31.52,95.29Z"/><path class="cls-6" d="M36.61,96.3h4.24a.27.27,0,0,0,.27-.28L41,94.13"/><path class="cls-6" d="M38.84,96.3H31.35s-.58,0-.58-.37,1.9-1.78,7.07-1.78v-.43"/><line class="cls-6" x1="45.68" y1="75.41" x2="41.45" y2="94.17"/><path class="cls-6" d="M41.45,94.17l-6.93-.82s4.62-18.76,5.67-24.43"/><path class="cls-6" d="M45.4,69.18a39.86,39.86,0,0,1-5.21-.26s-.91-4.33-1.43-9.63"/><path class="cls-6" d="M43.94,75.06a6.61,6.61,0,0,0,2.13.35"/><path class="cls-6" d="M27.82,45.58s4,6,7.61,10.56"/><line class="cls-6" x1="52.53" y1="51.38" x2="59.9" y2="44.29"/><path class="cls-6" d="M62.29,45.31s-4.09,6.11-7.63,10.6"/><path class="cls-8" d="M46.91,46.6A1.3,1.3,0,0,1,48,45.66c1-.07,1.19.94,1.24,2,0,.41,0,2.2-1.11,2.29a1.08,1.08,0,0,1-1-.83"/><ellipse class="cls-6" cx="48.05" cy="47.91" rx="0.26" ry="0.43" transform="translate(-9.16 11.42) rotate(-12.39)"/><path class="cls-6" d="M48,47a1.34,1.34,0,0,0-.24.9"/><path class="cls-7" d="M48.22,47.66a.16.16,0,0,0,0-.07.12.12,0,0,0,0-.05.17.17,0,0,0-.15,0,.16.16,0,0,0-.12.09l0,0a.17.17,0,0,0,0,.1l.06.32a.09.09,0,0,0,0,.06.1.1,0,0,0,.06,0,.16.16,0,0,0,.15,0,.16.16,0,0,0,.11-.09l0,0a.21.21,0,0,0,0-.11Z"/><path class="cls-6" d="M35.43,57.34c-.22-.1.19-1.54.92-3.22s1.51-3,1.74-2.87"/><line class="cls-6" x1="38.09" y1="51.25" x2="41.49" y2="54.66"/><path class="cls-6" d="M35.43,57.34l3.33,1.95A5.9,5.9,0,0,0,39.28,58"/><path class="cls-6" d="M54.74,57.34c.23-.1-.19-1.54-.92-3.22s-1.51-3-1.74-2.87"/><line class="cls-6" x1="52.08" y1="51.25" x2="48.69" y2="54.66"/><line class="cls-6" x1="54.74" y1="57.34" x2="51.31" y2="59.5"/><path class="cls-6" d="M48.94,55.07A6.77,6.77,0,0,1,45,56.14a6.89,6.89,0,0,1-4-1.07"/><path class="cls-6" d="M39.57,45.34a1.54,1.54,0,0,0-1.49-.54c-1.08.29-1.14,1.57-.93,2.5.15.67.75,2.1,1.79,2a1.09,1.09,0,0,0,.91-.87"/><path class="cls-6" d="M38.53,45.85a1.91,1.91,0,0,1,.24.66A9.82,9.82,0,0,0,39,47.78"/><path class="cls-6" d="M38,46.71a.67.67,0,0,0,.81.22"/><path class="cls-6" d="M38.38,47a.65.65,0,0,1-.23.68"/><path class="cls-6" d="M51.59,44A1.5,1.5,0,0,1,52,44c1.08.29,1.15,1.58.93,2.5-.13.56-.57,1.66-1.31,1.94"/><path class="cls-6" d="M52,45.9a1,1,0,0,1-.2.16"/><path class="cls-6" d="M51.78,46.71a.34.34,0,0,0,.12.12"/><path class="cls-6" d="M38.28,49.15s-.66,2.82,1.83,2.71"/><path class="cls-6" d="M52.1,48.22s.75,3.83-2,3.27"/><path class="cls-6" d="M39.69,41.51a4.76,4.76,0,0,0,1.15,1.06c.75.5.22,2.84-1.56,2.51"/><path class="cls-6" d="M40,41.08s-1.9.11-2,3.72"/><path class="cls-6" d="M51.48,44s-1.11-.39-1.4-2.85"/><path class="cls-6" d="M49.79,40.81c.05.06,1.44,0,2.11,3.15"/><path class="cls-7" d="M51.79,43.26c-.28-.61-.58-1.21-.92-1.79a.4.4,0,0,0-.55-.14.41.41,0,0,0-.15.55c.12.2.22.4.33.6a.39.39,0,0,0,0,.46,4.42,4.42,0,0,0,.69.81.4.4,0,0,0,.53,0A.41.41,0,0,0,51.79,43.26Z"/><path class="cls-7" d="M52.1,48.35a.43.43,0,0,0-.49.07,1.35,1.35,0,0,0-.35.63l-.09.32-.06.16,0,.08h0v0a3.33,3.33,0,0,1-.36.56h0l0,0-.09.12-.09.13a2.23,2.23,0,0,0-.2.3.42.42,0,0,0,0,.15.4.4,0,0,0,.34.6.38.38,0,0,0,.23-.08,1,1,0,0,0,.62-.21A1.81,1.81,0,0,0,52,50.5a3.39,3.39,0,0,0,.2-.82c0-.16,0-.31.05-.47a1.64,1.64,0,0,1,0-.22v-.05a.59.59,0,0,1,0-.13A.42.42,0,0,0,52.1,48.35Z"/><path class="cls-7" d="M39.87,51.4l0-.06a.36.36,0,0,0-.22-.25h0L39.48,51h0l-.1-.28c-.13-.37-.25-.75-.36-1.12a.41.41,0,0,0-.39-.3.42.42,0,0,0-.39.3,2,2,0,0,0,0,.64v0a1.19,1.19,0,0,0,.17.61.4.4,0,0,0,.1.12l.12.05a1.27,1.27,0,0,0,.18.43.72.72,0,0,0,.27.25l.07,0a.46.46,0,0,0,.12.12.43.43,0,0,0,.31,0A.42.42,0,0,0,39.87,51.4Z"/><path class="cls-7" d="M40.53,42.4l-.05,0h0Z"/><path class="cls-7" d="M40.71,42.52l-.18-.12,0,0h0l0,0-.12-.11-.12-.14h0l0,0-.2-.3a.61.61,0,0,0-.95-.12A3.61,3.61,0,0,0,38.31,43c-.07.22-.12.43-.18.65a2.3,2.3,0,0,0-.1.47.7.7,0,0,0,.33.63.64.64,0,0,0,.47.06l0,0,.07.06a1.56,1.56,0,0,0,.8.16,1.05,1.05,0,0,0,.81-.3,2.47,2.47,0,0,0,.38-.59,2,2,0,0,0,.26-.77A.9.9,0,0,0,40.71,42.52Z"/><path class="cls-9" d="M53.62,15,41,14.43a1.19,1.19,0,0,0-1.23,1.12l-.65,14.33a1.18,1.18,0,0,0,1.12,1.23l8.37.39a9.59,9.59,0,0,1-1.65,3.88,11,11,0,0,0,5.26-3.72l.68,0a1.18,1.18,0,0,0,1.23-1.12l.65-14.33A1.17,1.17,0,0,0,53.62,15Z"/><path class="cls-10" d="M42.86,21.29v0c0,.13-.06.23-.22.24s-.1,0-.15-.07l0-.4c-.11-1.1-.19-2.19-.32-3.28A4.87,4.87,0,0,0,42,17v0c0-.18.37-.18.39,0,.12.81.22,1.93.32,2.76l.07.67A10.31,10.31,0,0,0,43,19a.2.2,0,0,1,.2-.17.18.18,0,0,1,.18.08L44,20.64c.09-1.05.32-2.82.44-3.75.07-.16.34-.16.35,0a5.26,5.26,0,0,1-.12.78c-.17,1.27-.26,2.53-.39,3.79-.07.07,0,.12-.17.13h0c-.15,0-.14-.13-.19-.28l-.6-1.88C43.14,20.28,43,20.74,42.86,21.29Z"/><path class="cls-10" d="M47.07,16.9c1.07.18.76,2.73.65,3.52-.06.44-.33,1.18-.93,1.15-1.06-.06-1-1.88-1-2.58S46,16.83,47.07,16.9ZM46.17,19c-.1,1.75.19,2.25.62,2.28.59,0,.68-1.49.7-1.87v0c0-.46,0-2.15-.57-2.18s-.7,1-.72,1.26S46.18,18.82,46.17,19Z"/><path class="cls-10" d="M50.36,17.09c1.07.18.77,2.73.66,3.52-.07.44-.34,1.19-.94,1.15-1.06-.06-1-1.87-1-2.58S49.3,17,50.36,17.09Zm-.89,2.09c-.11,1.76.19,2.26.62,2.28s.68-1.49.7-1.86v0c0-.46,0-2.15-.57-2.18s-.7,1-.72,1.26S49.48,19,49.47,19.18Z"/><path class="cls-10" d="M41.76,26.76l-.1,1.69c0,.27-.34.15-.35.07s.09-1.21.1-1.42c0-.47.21-2.88.25-3.34,0-.05.1,0,.17,0s.12.06.17.14c0,.57-.13,1.39-.17,2,0,.09,0,.47,0,.55a.14.14,0,0,0,.13.05l.68.05c.09-.67.18-1.84.21-2.6v0a.15.15,0,0,1,.17-.13.31.31,0,0,1,.19.13c0,.14,0,.52-.07.65-.24,2.74-.17,4.14-.37,4.14s-.2-.27-.17-.67c0-.11,0-1.08,0-1.19Z"/><path class="cls-10" d="M45.58,24c1.06.19.76,2.73.65,3.53-.07.43-.33,1.18-.93,1.14-1.06-.06-1-1.87-1-2.57S44.52,24,45.58,24Zm-.9,2.09c-.1,1.76.19,2.26.61,2.28.59,0,.69-1.48.71-1.86v0c0-.47,0-2.15-.57-2.19s-.7,1-.71,1.27S44.69,26,44.68,26.11Z"/><path class="cls-10" d="M48.87,24.22c1.07.18.76,2.73.66,3.52-.07.44-.34,1.18-.94,1.15-1.06-.06-1-1.88-1-2.58S47.81,24.16,48.87,24.22ZM48,26.31c-.1,1.76.2,2.25.62,2.28.59,0,.69-1.49.71-1.87v0c0-.46,0-2.15-.57-2.18s-.7,1-.72,1.26S48,26.14,48,26.31Z"/><path class="cls-10" d="M51.09,28.77a.27.27,0,0,1,.25.31c0,.13-.14.14-.25.13s-.23-.11-.22-.28A.25.25,0,0,1,51.09,28.77Zm0-4.42c.09,0,.19,0,.2.13v.61c-.07,1.24,0,2-.06,3.21,0,.08,0,.18-.12.18s-.19-.25-.18-.39v0c0-1.38.07-2.23,0-3.6C51,24.37,51.05,24.34,51.14,24.35Z"/><line class="cls-6" x1="74.12" y1="40.4" x2="75.18" y2="36.05"/><line class="cls-6" x1="57.2" y1="40.12" x2="56.63" y2="35.48"/><path class="cls-6" d="M56.89,33.91c0,.55,4,1.1,9,1.23s9-.22,9.06-.78-4-3-9-3.11S56.9,33.35,56.89,33.91Z"/><path class="cls-6" d="M74.78,34.1a1.12,1.12,0,0,1,.6.26,1.25,1.25,0,0,1,.69.14c.36.18.54.46.41.62l0,0s0,0,.05,0c.11.17-.18.45-.64.63a1.82,1.82,0,0,1-.75.12,1.28,1.28,0,0,1-.75.31,1.93,1.93,0,0,1-.73,0,1.71,1.71,0,0,1-.71.21,1.76,1.76,0,0,1-.75-.06,1.53,1.53,0,0,1-.73.18,1.73,1.73,0,0,1-.77-.1,2,2,0,0,1-1.53,0,1.61,1.61,0,0,1-.77.16,1.78,1.78,0,0,1-.73-.14,1.71,1.71,0,0,1-.74.12,2,2,0,0,1-.43-.05"/><path class="cls-6" d="M57.07,33.65a1,1,0,0,0-.61.24,1.13,1.13,0,0,0-.7.1c-.37.16-.56.43-.44.6l0,0a.1.1,0,0,0-.05,0c-.12.17.15.47.6.67a1.87,1.87,0,0,0,.74.16,1.42,1.42,0,0,0,.74.34,1.83,1.83,0,0,0,.73,0,1.72,1.72,0,0,0,.7.25,1.75,1.75,0,0,0,.74,0,1.62,1.62,0,0,0,.73.22,1.79,1.79,0,0,0,.77-.07,1.56,1.56,0,0,0,.75.21,1.78,1.78,0,0,0,.78-.09,1.75,1.75,0,0,0,.76.19,1.94,1.94,0,0,0,.74-.1,1.72,1.72,0,0,0,.73.16,2.46,2.46,0,0,0,.4,0"/><path class="cls-6" d="M66.47,36.58a2,2,0,0,1-.62.08,2,2,0,0,1-.65-.12"/><path class="cls-6" d="M64.77,42.47A2.8,2.8,0,0,0,62.93,42c-2.67.19-2.92,2.18-2.92,2.18"/><path class="cls-6" d="M67.24,42l-2.47.45"/><path class="cls-6" d="M64.73,44.48s2.35-.65,3.36-.89"/><path class="cls-6" d="M67.24,42c.81-.17,2.38-.2,2.62.47s-.75.86-.75.86l-1,.24"/><path class="cls-6" d="M67.18,42h.06"/><path class="cls-6" d="M68.85,44.32l2-.09s1,0,.78-.7A.89.89,0,0,0,71,43"/><path class="cls-6" d="M64.73,44.48l4.12-.16"/><path class="cls-6" d="M68.39,45.14l2-.09s.95,0,.78-.7"/><path class="cls-6" d="M68.39,45.14c-1.39,0-5.78.16-6.1.17a5.64,5.64,0,0,0-.55-.43"/><path class="cls-6" d="M73.31,40.53l-1.28,0-17.24-.43a3.72,3.72,0,0,0,2.85,1.56"/><path class="cls-6" d="M74.5,41.9a3.83,3.83,0,0,0,1.93-1.3l-4.28-.1"/><path class="cls-6" d="M60.58,42.67a4.53,4.53,0,0,1-2.88-1.05l6.45.16,9.36.24a3.45,3.45,0,0,0,1-.12"/><path class="cls-6" d="M60.88,42.69l-.3,0"/><path class="cls-6" d="M73.43,42a4.66,4.66,0,0,1-3.21.88h-.33"/><line class="cls-6" x1="15.4" y1="42.45" x2="13.72" y2="38.3"/><line class="cls-6" x1="32.1" y1="39.7" x2="31.98" y2="35.02"/><path class="cls-6" d="M31.49,33.5c.1.55-3.81,1.69-8.72,2.54s-9,1.11-9.07.56,3.52-3.54,8.44-4.4S31.4,33,31.49,33.5Z"/><path class="cls-6" d="M13.82,36.31a1.14,1.14,0,0,0-.55.35,1.19,1.19,0,0,0-.66.24c-.33.23-.47.54-.31.68a0,0,0,0,1,0,0l0,0c-.08.19.24.43.73.54a1.78,1.78,0,0,0,.76,0,1.38,1.38,0,0,0,.79.19,1.78,1.78,0,0,0,.71-.12,1.55,1.55,0,0,0,.73.1,1.74,1.74,0,0,0,.73-.17,1.72,1.72,0,0,0,.76.08,1.8,1.8,0,0,0,.74-.22,1.71,1.71,0,0,0,.78.05,1.78,1.78,0,0,0,.74-.24,1.78,1.78,0,0,0,.79,0,2,2,0,0,0,.7-.24,1.84,1.84,0,0,0,.75,0,3.44,3.44,0,0,0,.41-.11"/><path class="cls-6" d="M31.28,33.28a1.13,1.13,0,0,1,.64.14,1.18,1.18,0,0,1,.7,0c.39.11.62.35.52.53v0l.06,0c.14.15-.09.48-.51.74A1.62,1.62,0,0,1,32,35a1.38,1.38,0,0,1-.68.45,1.9,1.9,0,0,1-.72.13,1.71,1.71,0,0,1-.65.34,2,2,0,0,1-.75.09,2.05,2.05,0,0,1-1.46.37,2,2,0,0,1-1.49.33,1.72,1.72,0,0,1-.73.3,1.68,1.68,0,0,1-.74,0,1.7,1.7,0,0,1-.7.27,2.82,2.82,0,0,1-.4,0"/><path class="cls-6" d="M22.4,37.55a1.92,1.92,0,0,0,.63,0,2.2,2.2,0,0,0,.63-.21"/><path class="cls-6" d="M25,43.13a2.82,2.82,0,0,1,1.75-.74c2.67-.2,3.21,1.73,3.21,1.73"/><path class="cls-6" d="M22.45,43l2.5.09"/><path class="cls-6" d="M25.28,45.12s-2.41-.3-3.45-.4"/><path class="cls-6" d="M22.45,43c-.84,0-2.39.16-2.53.85s.86.75.86.75l1,.08"/><path class="cls-6" d="M22.5,43.05h-.05"/><path class="cls-6" d="M21.19,45.55l-2,.22s-.94.13-.87-.58c0-.28.27-.49.61-.64"/><path class="cls-6" d="M25.28,45.12l-4.09.43"/><path class="cls-6" d="M21.76,46.3l-2,.22s-.94.13-.88-.59"/><path class="cls-6" d="M21.76,46.3c1.38-.15,5.74-.69,6.06-.72a2.21,2.21,0,0,1,.31-.47"/><path class="cls-6" d="M16.22,42.46l1.26-.22,17-3a3.72,3.72,0,0,1-2.59,2"/><path class="cls-6" d="M15.24,44a3.85,3.85,0,0,1-2.1-1l4.22-.73"/><path class="cls-6" d="M29.13,42.72a4.56,4.56,0,0,0,2.69-1.46l-6.36,1.1L16.24,44a3.09,3.09,0,0,1-1,0"/><path class="cls-6" d="M28.83,42.78l.3-.06"/><path class="cls-6" d="M16.32,44a4.72,4.72,0,0,0,3.31.41l.32-.06"/><path class="cls-7" d="M48.69,60.56a3,3,0,0,1-.28,1.37,2.49,2.49,0,0,1-.76.91,3.29,3.29,0,0,1-1.12.51,5.58,5.58,0,0,1-1.39.16v1.84H42.67V57.62h2.47a5.58,5.58,0,0,1,1.39.16,3.29,3.29,0,0,1,1.12.51,2.34,2.34,0,0,1,.76.91A3,3,0,0,1,48.69,60.56Zm-3.55.86h.1A1,1,0,0,0,46,61.2a.93.93,0,0,0,.21-.64.89.89,0,0,0-.21-.63,1,1,0,0,0-.71-.23h-.1Z"/><path class="cls-8" d="M45.37,45.1a1.15,1.15,0,0,1,0-.33,1.46,1.46,0,1,1,1.46,1.46,1.42,1.42,0,0,1-.55-.11"/><path class="cls-6" d="M45.24,44.88a1.85,1.85,0,1,1,1.27-1.76"/><path class="cls-6" d="M46.69,43.12A1.85,1.85,0,1,1,48.54,45h-.21"/><path class="cls-7" d="M44.66,42.49a.6.6,0,0,0,0,1.19A.6.6,0,0,0,44.66,42.49Z"/><path class="cls-7" d="M48.62,42.49a.6.6,0,0,0,0,1.19A.6.6,0,0,0,48.62,42.49Z"/></g></svg>