<svg xmlns="http://www.w3.org/2000/svg" viewBox="0 0 52.15 67.14"><defs><style>.cls-1{fill:#0077bf;}.cls-2{fill:#f59da0;}.cls-3{fill:#f9b730;}.cls-4{fill:#f47951;}.cls-5{fill:none;stroke:#1c204d;stroke-linecap:round;stroke-linejoin:round;stroke-width:0.4px;}.cls-6{fill:#1c204d;}.cls-7{fill:#fff;}.cls-8{fill:#1d1c4c;}</style></defs><g id="Layer_1" data-name="Layer 1"><path class="cls-1" d="M41.7,55.89A4.39,4.39,0,0,0,39,57.63a.79.79,0,0,0-.08-.31l-.15-.22h0a0,0,0,0,1,0,0,3.15,3.15,0,0,0-.63-.82,6.6,6.6,0,0,1-.42-.89c-.13-.3-.24-.61-.36-.92a1.8,1.8,0,0,0-.72-1.07,1.11,1.11,0,0,0-.66-.15.86.86,0,0,0-.8-.21l-.15,0a9.23,9.23,0,0,1-1.39-.15c-.51-.07-1-.15-1.52-.24H32a14.07,14.07,0,0,0-.32-2.81c-.12-.49-.27-1-.43-1.44a3.65,3.65,0,0,0-.14-.35l.13-.07a5.86,5.86,0,0,0,1.49-1.83c.36-.64.71-1.28,1.11-1.9.84-1.32,1.91-2.88,1.72-4.52A1,1,0,0,0,34,39.15c-.4.44-.78.89-1.14,1.37a1.19,1.19,0,0,0-.24.36h0c-.23.33-.47.66-.67,1a1.19,1.19,0,0,0-.14.44,8.42,8.42,0,0,0-.49,1,9.8,9.8,0,0,1-1.84,2.47.84.84,0,0,0-.17.5,8.72,8.72,0,0,1-2.45.16.93.93,0,0,0-.45.08,4.27,4.27,0,0,1-1.7-.82c-.75-.54-1.46-1.13-2.18-1.7s-1.43-1.21-2.19-1.72a1.51,1.51,0,0,0-2.32.5h0a.51.51,0,0,0-.17.33.54.54,0,0,0,.13.37l0,0a.94.94,0,0,0,.59.67h0l.05.06h0a27.46,27.46,0,0,0,2.88,2.61q.64.49,1.32,1a.93.93,0,0,0,.42.3l.05,0a5.49,5.49,0,0,0,1.43.72,1.09,1.09,0,0,0,.44,0,8.64,8.64,0,0,0,1,5.06c-1.13.52-2.26,1-3.38,1.56a2.12,2.12,0,0,0-.86.68,2,2,0,0,0-.28,1.21c0,.17,0,.34,0,.51a.89.89,0,0,0-.12.68,1.7,1.7,0,0,1,0,.22.28.28,0,0,1,0,.09,2.17,2.17,0,0,1,0,.25s-.06.31,0,.16a1.23,1.23,0,0,0,.14.88,1.88,1.88,0,0,0-.16.23,1,1,0,0,0-.09.88A7.5,7.5,0,0,0,20.4,61h-.06a.46.46,0,0,0-.12-.12,1.26,1.26,0,0,0-.26-.13,1.82,1.82,0,0,0-.29-.08h-.18a1.63,1.63,0,0,0-.31,0,.66.66,0,0,0-.19.09l-.65-.06a.51.51,0,0,0-.21,1,16.41,16.41,0,0,1,2.06.65c.33.13.65.27,1,.42l.23.12a.61.61,0,0,0,.14.07,3.16,3.16,0,0,0,.6.25.5.5,0,0,0,.44-.89h0a.54.54,0,0,0-.06-.31,1,1,0,0,0,.57-.39,7.79,7.79,0,0,0,1.05-1.89,5.25,5.25,0,0,0,.18-1.76c.58-.22,1.14-.49,1.69-.76a15.57,15.57,0,0,0,1.78-1,1.43,1.43,0,0,0,.32-.28,1.27,1.27,0,0,0,.18.06,3.48,3.48,0,0,0,1.2-.11c.32-.06.64-.11.95-.18a5.45,5.45,0,0,0,.79-.22.76.76,0,0,0,.51.2,29,29,0,0,1,3.48.29,4.23,4.23,0,0,0,.88,1.49l.11.15a4,4,0,0,0,.69.68,4.14,4.14,0,0,0,.84.48.55.55,0,0,0,.22,0,2,2,0,0,1,.22.49.52.52,0,0,0,.72.35,5.59,5.59,0,0,0,1.47-1.48A5,5,0,0,1,42,56.83.5.5,0,0,0,41.7,55.89Z"/><path class="cls-2" d="M19.57,39.86a.54.54,0,0,0-.12-.38l-.05-.06h0a.56.56,0,0,0-.62-.31.61.61,0,0,0-.21.11,1.45,1.45,0,0,0-.29-.11,1.27,1.27,0,0,0-.34,0l0,0a.32.32,0,0,0,.14,0,2.22,2.22,0,0,0,.45-.07.55.55,0,0,0,.32-.21.51.51,0,0,0,.08-.38.54.54,0,0,0-.21-.32.56.56,0,0,0-.38-.07h0a.59.59,0,0,0-.32-.06,1.14,1.14,0,0,0-.44.14h-.05a1.47,1.47,0,0,0-.42.06.55.55,0,0,0-.38.47.53.53,0,0,0,.15.4,3.1,3.1,0,0,0,0,1,.28.28,0,0,1,0,.09,2.35,2.35,0,0,0-.14,1.28.89.89,0,0,0,.24.47.87.87,0,0,0,.23.16h0a1.21,1.21,0,0,0,.5.55A.5.5,0,0,0,18.5,42a.49.49,0,0,0,.23-.51,3.25,3.25,0,0,0-.45-1.11l-.15-.25h0c.15.06.29.14.44.19a.58.58,0,0,0,.13.14l.11.06a.5.5,0,0,0,.27,0h0l.14,0h0l.12-.08h0l.08-.09h0l.05-.12a.19.19,0,0,0,0-.07s0,0,0-.07a.65.65,0,0,0,0-.14Z"/><path class="cls-2" d="M35.79,37.12c-.1-.21-.27-.41-.37-.59l-.35-.6a.82.82,0,0,0-.55-.82,1.7,1.7,0,0,0-.87,0l-.15,0-.13,0h0l-.13,0a.48.48,0,0,0-.24.6.47.47,0,0,0,.56.33l.19,0h0l0,0a1.89,1.89,0,0,0-.31.25A3.2,3.2,0,0,0,33,37a.5.5,0,1,0,.83.56c0,.07.12-.1,0-.05s.15-.07.07,0a2.88,2.88,0,0,1,.4-.09c-.05.53-.2,1.18.22,1.59a.5.5,0,0,0,.34.16.46.46,0,0,0,.58,0A1.75,1.75,0,0,0,36,37.81,1.67,1.67,0,0,0,35.79,37.12Z"/><line class="cls-3" x1="8.24" y1="27.75" x2="4.13" y2="18.63"/><line class="cls-3" x1="39.62" y1="14.27" x2="39.74" y2="12.44"/><line class="cls-3" x1="39.13" y1="21.7" x2="39.62" y2="14.27"/><path class="cls-3" d="M42.63,11.17a.57.57,0,0,0,.08-.13c.15-.47-.53-1.11-1.51-1.42a2.87,2.87,0,0,0-1.53-.11A2.58,2.58,0,0,0,38.05,9a3,3,0,0,0-1.43.24,2.09,2.09,0,0,0-.3-.14l.75-.13c-1.41-1.73-8.84-5.33-17.22-3.87S5.62,12.45,5,14.48l1.24-.21a1.55,1.55,0,0,0-.26.25,2.87,2.87,0,0,0-1.44.26,2.55,2.55,0,0,0-1.32,1.07,2.86,2.86,0,0,0-1.41.62C1,17.1.56,17.92.86,18.32a.4.4,0,0,0,.12.1l0,0c-.18.46.31,1.09,1.1,1.4a1.86,1.86,0,0,0,1.42.06,2,2,0,0,0,1.31.43l.14-.09,0,0a7.44,7.44,0,0,1,.59,1.16c.35.89.69,1.79,1,2.69a.74.74,0,0,0,.38.38L8,27.28a.81.81,0,0,0,.27.35.19.19,0,0,0-.07.12c.11.54,7.11-.37,15.64-2s15.35-3.46,15.25-4c0-.06-.13-.1-.33-.13a1.9,1.9,0,0,0,.37-.8,2.48,2.48,0,0,0,0-.77,1.72,1.72,0,0,0,.06-.34l.33-5.09a1.45,1.45,0,0,0,0-.37l.23.05a2,2,0,0,0,1-.81,2,2,0,0,0,1.32-.54c.63-.56.89-1.32.56-1.69C42.66,11.19,42.64,11.19,42.63,11.17ZM14.76,25.64A14.41,14.41,0,0,1,16.69,25a25.44,25.44,0,0,1,2.88-.48C17.82,24.92,16.2,25.29,14.76,25.64Z"/><ellipse class="cls-4" cx="23.69" cy="24.73" rx="15.74" ry="1" transform="translate(-4.31 5.01) rotate(-11.08)"/><path class="cls-5" d="M29.91,53.31c1.69-.33,2-.68,2-.68"/><path class="cls-5" d="M35.89,38.38l-.36.93"/><path class="cls-5" d="M29.61,45.81l2.18-3.76s1.48-2.92,2.62-3.2"/><path class="cls-4" d="M38.5,60a20.51,20.51,0,0,0,1.8-1.81l.2-.16a1.42,1.42,0,0,0,.61-.56,1.11,1.11,0,0,0,.09-.19c.4-.32.84-.61,1.25-.93l0,0a.41.41,0,0,1,0,.19c0,.37-.31.71-.59,1-.7.62-1.3,1.34-2,2C39.6,59.74,38.78,60.47,38.5,60Z"/><path class="cls-5" d="M38.54,60.07s.2.46.63,0l3.31-3.19a.53.53,0,0,0-.07-.81c-.47-.42-1.91-.17-2.85.83a3.27,3.27,0,0,0-.81,1.4"/><line class="cls-5" x1="38.04" y1="58.75" x2="38.54" y2="60.07"/><line class="cls-5" x1="38.57" y1="60.02" x2="42.46" y2="56.26"/><path class="cls-5" d="M30.87,55.54l4.24.26a5.15,5.15,0,0,0,3,3.17"/><path class="cls-5" d="M32,52.62l4,.46a1.27,1.27,0,0,1,1.19.78C37.63,55,39,57.78,39,57.78"/><path class="cls-4" d="M22.66,63.24a19.06,19.06,0,0,1-2.34-1l-.25-.08a1.45,1.45,0,0,1-.78-.28.71.71,0,0,1-.15-.15c-.5-.15-1-.25-1.51-.39l-.06,0a.63.63,0,0,0,0,.19c.11.36.56.55.9.67.89.31,1.71.75,2.6,1.07C21.54,63.41,22.58,63.78,22.66,63.24Z"/><path class="cls-5" d="M22.65,63.32s0,.51-.57.28l-4.27-1.71a.52.52,0,0,1-.23-.77c.27-.57,1.7-.88,3-.31a3.27,3.27,0,0,1,1.27,1"/><line class="cls-5" x1="22.62" y1="61.91" x2="22.65" y2="63.32"/><line class="cls-5" x1="22.61" y1="63.29" x2="17.59" y2="61.28"/><path class="cls-5" d="M28.27,56l-4.06,2a5.13,5.13,0,0,1-1.55,4.06"/><path class="cls-5" d="M21.4,61.36s.17-3.09.13-4.29a1.28,1.28,0,0,1,.81-1.17L25.89,54a8.49,8.49,0,0,0,1,0"/><line class="cls-5" x1="8.24" y1="27.75" x2="4.13" y2="18.63"/><line class="cls-5" x1="39.62" y1="14.27" x2="39.74" y2="12.44"/><line class="cls-5" x1="39.13" y1="21.7" x2="39.62" y2="14.27"/><path class="cls-5" d="M4.13,18.63c-.25-1.45,7.52-4,17.35-5.72s18-1.92,18.26-.47"/><path class="cls-5" d="M5,14.48c.63-2,6.39-8,14.86-9.43S35.66,7.19,37.07,8.92"/><path class="cls-5" d="M39.77,14.25a2,2,0,0,0,1-.81,2,2,0,0,0,1.32-.54c.63-.56.89-1.32.56-1.69,0,0,0,0,0,0a.57.57,0,0,0,.08-.13c.15-.47-.53-1.11-1.51-1.42a2.87,2.87,0,0,0-1.53-.11A2.58,2.58,0,0,0,38.05,9a3,3,0,0,0-1.43.24,2.89,2.89,0,0,0-1.49-.33,3,3,0,0,0-1.45.36A2.9,2.9,0,0,0,32.15,9a2.82,2.82,0,0,0-1.49.49,2.74,2.74,0,0,0-1.56-.22,2.8,2.8,0,0,0-1.48.55A2.8,2.8,0,0,0,26,9.62a2.92,2.92,0,0,0-1.39.54,2.91,2.91,0,0,0-1.51-.1,3.69,3.69,0,0,0-.83.25"/><path class="cls-5" d="M4.78,20.35a2,2,0,0,1-1.31-.43,1.86,1.86,0,0,1-1.42-.06c-.79-.31-1.28-.94-1.1-1.4l0,0a.4.4,0,0,1-.12-.1c-.3-.4.12-1.22.94-1.85a2.86,2.86,0,0,1,1.41-.62,2.55,2.55,0,0,1,1.32-1.07A2.87,2.87,0,0,1,6,14.52a2.83,2.83,0,0,1,1.28-.81,2.82,2.82,0,0,1,1.5-.15,2.84,2.84,0,0,1,1.35-.76,2.88,2.88,0,0,1,1.56,0,2.88,2.88,0,0,1,1.4-.73,2.77,2.77,0,0,1,1.58,0,2.82,2.82,0,0,1,1.44-.7,2.92,2.92,0,0,1,1.49,0,2.84,2.84,0,0,1,1.39-.6,3.72,3.72,0,0,1,.81,0"/><path class="cls-5" d="M22.28,10.33a2.72,2.72,0,0,0-1.26,0,2.87,2.87,0,0,0-1.25.47"/><ellipse class="cls-5" cx="23.69" cy="24.73" rx="15.74" ry="1" transform="translate(-4.31 5.01) rotate(-11.08)"/><path class="cls-5" d="M34.44,37.3a1.64,1.64,0,0,0,0,1.63,2.25,2.25,0,0,1,1,.47"/><path class="cls-5" d="M34.62,35l.2,0a.38.38,0,0,1,.24.17s.67,1.71.85,2.12a1.64,1.64,0,0,1,0,1.13"/><path class="cls-5" d="M34.05,35.63a1.51,1.51,0,0,1-.78.31c-.35,0-.52,0-.53-.2s.19-.25.19-.25l1-.56a.23.23,0,0,1,.14,0l.6.1"/><path class="cls-5" d="M34.42,35.65a.68.68,0,0,0,.11.33"/><path class="cls-5" d="M34.44,35.77a1.3,1.3,0,0,1-.47-.19"/><path class="cls-5" d="M35.14,36.6l-.88-.2a.49.49,0,0,0-.37.09c-.17.13-1,1-1,1s-.18.16-.08.27.44.21.88-.08a1.6,1.6,0,0,0,.58-.48"/><path class="cls-5" d="M34.1,37.09a.92.92,0,0,0,.59.14"/><path class="cls-5" d="M35,36.08l-.8-.15a.45.45,0,0,0-.38.08c-.17.12-1.07.88-1.07.88s-.2.15-.11.27.24.14.5,0"/><path class="cls-5" d="M35.67,39.36c0,.09.21.32-.24,1.48s-1.82,5.29-4.07,7.1"/><path class="cls-5" d="M17.2,41.93s.41.44.69.72"/><path class="cls-5" d="M25.82,46.44l-3.44-2.66s-2.47-2.15-3.62-2"/><path class="cls-5" d="M18.13,40.38a1.64,1.64,0,0,1,.6,1.52,2.13,2.13,0,0,0-.76.82"/><path class="cls-5" d="M17.11,38.34l-.17.11a.35.35,0,0,0-.16.25s0,1.83,0,2.28a1.6,1.6,0,0,0,.47,1"/><path class="cls-5" d="M17.87,38.69a1.45,1.45,0,0,0,.84,0c.33-.09.47-.24.42-.38s-.28-.16-.28-.16L17.76,38a.28.28,0,0,0-.13.05l-.52.32"/><path class="cls-5" d="M17.53,38.85a.67.67,0,0,1,0,.35"/><path class="cls-5" d="M17.56,39a1.5,1.5,0,0,0,.36-.36"/><path class="cls-5" d="M17.23,40l.74-.52a.48.48,0,0,1,.37,0c.21.06,1.28.53,1.28.53s.24.08.19.22-.33.36-.85.26a1.75,1.75,0,0,1-.72-.23"/><path class="cls-5" d="M18.37,40.06a.89.89,0,0,1-.49.35"/><path class="cls-5" d="M17.13,39.47l.68-.44A.49.49,0,0,1,18.2,39c.2,0,1.32.42,1.32.42s.25.06.21.21-.18.21-.47.2"/><path class="cls-5" d="M17.78,42.76c0,.08-.08.37.77,1.27s3.68,4.22,6.45,5a10.08,10.08,0,0,0,.85,4.74"/><path class="cls-5" d="M31.2,48A10.44,10.44,0,0,1,32,52.54"/><path class="cls-5" d="M27.4,56a6.92,6.92,0,0,0,2.07-.14A10.18,10.18,0,0,0,31.91,55"/><path class="cls-6" d="M17.12,38.28a2.2,2.2,0,0,1,.25-.17l.18-.1a.65.65,0,0,1,.36-.07h0c-4-5.78-6.57-9.48-7.67-11L10.2,27a4.86,4.86,0,0,1-.76.26l-.11,0c1.11,1.58,4.36,6.27,7.72,11.12A.23.23,0,0,1,17.12,38.28Z"/><path class="cls-6" d="M18.41,40.31,19.58,42a.52.52,0,0,1,.16.06c.53.29,1.08.56,1.58.9l.23.19c-.66-1-1.3-1.87-1.9-2.75"/><path class="cls-6" d="M37.9,21.5l-.32,0-.3,0h-.22c-.42,1.81-1.43,6.32-3,13.49h.23l.23,0,.28.08-.12,0a.87.87,0,0,1,.32.11c1.34-6,2.65-11.9,3.07-13.71A.75.75,0,0,0,37.9,21.5Z"/><path class="cls-6" d="M34.32,37.79a.35.35,0,0,0-.13-.14l-.11,0a.42.42,0,0,0-.25,0l-.12,0a.52.52,0,0,0-.19.17l0,.07-.07,0c-.18.8-.36,1.63-.56,2.5l.29-.34A5.89,5.89,0,0,1,34,39a.51.51,0,0,1,.16-.09c0-.17.07-.33.11-.5l.06-.12a.36.36,0,0,0,.07-.17.4.4,0,0,0,0-.19A.38.38,0,0,0,34.32,37.79Z"/><path class="cls-6" d="M19.19,26.59a.15.15,0,0,1-.07,0,3.89,3.89,0,0,1-.9.11l6.42,19a3.89,3.89,0,0,1,.76.51l.45.42h0l.09,0Z"/><path class="cls-6" d="M30.61,24.25a2.9,2.9,0,0,1-.51,0l-.28,21.61h0a4.26,4.26,0,0,1,.3-.87,5.38,5.38,0,0,1,.36-.67,2.3,2.3,0,0,1,.33-.38l.26-19.79Z"/><path class="cls-2" d="M31.14,42.57a.57.57,0,0,0-.49.1,2.92,2.92,0,0,1-.3-.92,7.42,7.42,0,0,1,0-1.42.34.34,0,0,0,0-.2l0-.05v0a.21.21,0,0,0,0-.11.66.66,0,0,0,0-.28.53.53,0,0,0-.08-.17.57.57,0,0,0-.31-.24,5.19,5.19,0,0,0-.55-.49l-.51-.36a.88.88,0,0,0-.65-.09l-.09-.19a1.27,1.27,0,0,0-.62-.61,1.14,1.14,0,0,0-1,0,1.06,1.06,0,0,0-.53.72,1.09,1.09,0,0,0,0,.44h0a.64.64,0,0,0-.19.08,1.61,1.61,0,0,0-.23.22l-.1.1,0,0-.08.06-.08.06a1.6,1.6,0,0,0-.43.47c-.07.13-.11.27-.17.4s-.16.27-.22.41a1.85,1.85,0,0,0-.15.57,3.36,3.36,0,0,0,0,1.14.53.53,0,0,0-.55.21.71.71,0,0,0,.12.76,3.07,3.07,0,0,0,.25.26l.09.1.05.06,0,0,0,0a2.8,2.8,0,0,1,.31.5.36.36,0,0,0,.4.16l0,0,.21.26.05.06.08.12a2.54,2.54,0,0,1,.16.28,5.2,5.2,0,0,1,.41,1.11.49.49,0,0,0,.47.34l.26,0a1.1,1.1,0,0,0,.6.09l.59,0c.4,0,.79-.06,1.18-.11l.13,0a.47.47,0,0,0,.33-.52.53.53,0,0,0,.08-.17l0-.1.25-.54.26-.55a.42.42,0,0,0,.27,0,.49.49,0,0,0,.28-.23,1.88,1.88,0,0,0,.14-.24.64.64,0,0,0,0-.24.25.25,0,0,0,.12,0,.51.51,0,0,0,.24-.15.56.56,0,0,0,.13-.24v0l0,0,.07-.1a.52.52,0,0,0,.05-.3A.48.48,0,0,0,31.14,42.57Z"/><path class="cls-7" d="M28.93,40.46l-.05,0h0l-.18.1a1.13,1.13,0,0,1-.55,0c-.3,0-.59-.07-.89-.08s-.58,0-.86,0a1.71,1.71,0,0,1-.78,0,.26.26,0,0,0-.33.1.24.24,0,0,0,.1.32l.1,0a.23.23,0,0,0,.16.25,4.4,4.4,0,0,0,1.76.25,3.11,3.11,0,0,0,.9-.17,3.17,3.17,0,0,0,.41-.21l.16-.13a1.22,1.22,0,0,0,.27-.15C29.32,40.74,29.21,40.36,28.93,40.46Z"/><path class="cls-5" d="M30.29,44.28a5.12,5.12,0,0,0-.78,1.93"/><path class="cls-5" d="M28.25,38.37c2,.33,2.78,2.28,2.66,4,0,0,0,.06,0,.17"/><path class="cls-5" d="M26,38.68a3.64,3.64,0,0,0-1.66,3.88,4.3,4.3,0,0,0,.38,1.26c.69,1.25,1.24,1.8,1.31,2.65"/><path class="cls-5" d="M25.23,40.53s.11,3.3,2.16,3.19,1.85-3.25,1.85-3.25"/><path class="cls-5" d="M29.45,40.28a6,6,0,0,1-2.17.37,5.09,5.09,0,0,1-2.34-.21"/><line class="cls-5" x1="28.24" y1="38.95" x2="28.61" y2="38.69"/><line class="cls-5" x1="28.63" y1="39.54" x2="28.13" y2="39.36"/><path class="cls-5" d="M28.22,39.15a3,3,0,0,1,.6,0"/><line class="cls-5" x1="26.06" y1="39.02" x2="25.96" y2="39.03"/><line class="cls-5" x1="26.11" y1="39.59" x2="26.25" y2="39.49"/><path class="cls-5" d="M26.1,39.23a.86.86,0,0,0-.23.06"/><path class="cls-5" d="M26.42,39.67a1.41,1.41,0,0,1-.39-.83,1.12,1.12,0,1,1,2.2-.25,1.41,1.41,0,0,1-.27,1"/><path class="cls-5" d="M30.51,42.86a.57.57,0,0,1,.78-.28c.53.25.15.92-.14,1.09a1.1,1.1,0,0,0-.49.62c-.08.23-.19.44-.51.32"/><path class="cls-5" d="M31,42.91a1.3,1.3,0,0,1-.29.49.75.75,0,0,0-.19.45"/><path class="cls-5" d="M30.83,43.27a.38.38,0,0,0,.31-.12"/><path class="cls-5" d="M30.82,43.27a.17.17,0,0,0,.1.19"/><path class="cls-5" d="M24.27,42.27a.62.62,0,0,0-.36.06c-.53.25-.15.92.13,1.1a1,1,0,0,1,.49.62c.07.19.13.47.48.33"/><path class="cls-5" d="M24.23,42.67a1.7,1.7,0,0,0,.18.36"/><path class="cls-5" d="M24.37,43a.37.37,0,0,1-.31-.12"/><path class="cls-5" d="M24.38,43a.17.17,0,0,1-.1.19"/><path class="cls-5" d="M26,46.46a6.19,6.19,0,0,0,3.46-.23"/><path class="cls-5" d="M26,46.26s-.31.07-.31.34.88.45,2.3.42"/><path class="cls-5" d="M29.61,46.08s.31,0,.34.31-.83.56-2.24.63"/><path class="cls-5" d="M30.79,44.13a.84.84,0,0,1,.35.43.75.75,0,0,1-1.32.7"/><path class="cls-8" d="M31,44.33c-.07-.13-.3-.17-.35,0a.8.8,0,0,1-.18.34.34.34,0,0,1-.12.06.16.16,0,0,0-.25,0c-.16.14-.38.4-.23.61a.73.73,0,0,0,.67.31C31.17,45.58,31.25,44.76,31,44.33Z"/><path class="cls-5" d="M24.62,44.29a.61.61,0,0,0-.17.19.8.8,0,0,0,.2,1.1.77.77,0,0,0,1-.15"/><path class="cls-8" d="M25.38,44.85c0-.05-.05-.1-.1-.1a2.43,2.43,0,0,0-.2-.25.19.19,0,0,0-.11-.07.2.2,0,0,1,0-.07v0a.23.23,0,0,1-.33,0,0,0,0,0,0,0,0h0l0,0c-.29.39-.35,1.18.23,1.33a.71.71,0,0,0,.71-.18C25.72,45.28,25.51,45,25.38,44.85Z"/><path class="cls-5" d="M30.7,42.63a6.4,6.4,0,0,1-.36-2.81"/><path class="cls-8" d="M30.77,41l-.05-.41a.17.17,0,0,0-.13-.15,2.5,2.5,0,0,1-.05-.29c0-.12-.21-.1-.19,0a1.55,1.55,0,0,0,.06.31.18.18,0,0,0-.06.16l.07.6a1.33,1.33,0,0,0,.09.44c0,.18,0,.37,0,.55a.17.17,0,0,0,.11.14.17.17,0,0,0,0,.07.09.09,0,1,0,.18,0v-.05a.16.16,0,0,0,.08-.18c0-.19,0-.39-.06-.58s0-.28,0-.42A.17.17,0,0,0,30.77,41Z"/><path class="cls-5" d="M28.11,38a1.71,1.71,0,0,1,1.61.18c.68.42,1.18,1.18.91,1.66a.65.65,0,0,1-.15.18"/><path class="cls-8" d="M30.27,38.67c-.18-.19-.4-.35-.58-.55l0,0h0a4.21,4.21,0,0,0-1.41-.15h-.06a.24.24,0,0,0-.05.14.29.29,0,0,0,.1.22.24.24,0,0,0,.23,0,.28.28,0,0,0,.11.08,2.94,2.94,0,0,1,.91.34,2.28,2.28,0,0,1,.49.49.07.07,0,0,0,0,.08l.17.16s0,0,0,0a.43.43,0,0,0,.14.16c.05.08.08.18.13.25s.17,0,.17-.07v-.22l0,0v0a.16.16,0,0,0,.07-.17v0A4.39,4.39,0,0,0,30.27,38.67Z"/><path class="cls-5" d="M30.53,40a1.22,1.22,0,0,1,.53.74A2.53,2.53,0,0,1,31,42.5"/><path class="cls-8" d="M31.11,41.09a2,2,0,0,0-.14-.38,1.59,1.59,0,0,0-.29-.65.19.19,0,0,0-.33.19,3.68,3.68,0,0,0,.26.57c0,.11.05.23.07.34s0,.08,0,.13a.18.18,0,0,0,0,.13c.05.22,0,.45,0,.68a.19.19,0,0,0,.37,0,2.49,2.49,0,0,0,0-.86A.15.15,0,0,0,31.11,41.09Z"/><path class="cls-5" d="M26.11,38.17a1.49,1.49,0,0,0-1.23.39,1.42,1.42,0,0,0-.33,1.77"/><path class="cls-8" d="M25.8,38.23a2,2,0,0,0-1.1.51A2.42,2.42,0,0,0,24.39,40c0,.2.29.31.36.1,0,0,0,0,0,0h0v0a.49.49,0,0,1,0-.12.41.41,0,0,1,0-.11.16.16,0,0,0,.15-.08,3.9,3.9,0,0,1,.4-.51c.11-.1.36-.37.52-.38a.19.19,0,0,0,.15-.11.87.87,0,0,0,0-.22A.19.19,0,0,0,25.8,38.23Z"/><path class="cls-5" d="M24.57,40.17s-.65.48-.43,2"/><path class="cls-8" d="M24.19,40.77a1.85,1.85,0,0,0-.12.93c0,.12.2.1.19,0a1.71,1.71,0,0,1,.1-.84C24.41,40.73,24.23,40.66,24.19,40.77Z"/><path class="cls-5" d="M29.24,40.8a2.22,2.22,0,0,1-2,.81,2.7,2.7,0,0,1-2-.61"/><path class="cls-6" d="M28.83,41.11a4.56,4.56,0,0,1-.42.31.37.37,0,0,0-.18,0c-.29.07-.57.14-.86.19l-.19,0h-.11a2.5,2.5,0,0,1-1.1-.29.21.21,0,0,0-.2,0v0l0-.06c-.12-.24-.53-.06-.43.19a.14.14,0,0,1,0,.06h0s0,0,0,.06l.36.75a2.43,2.43,0,0,0,.41.7l.05.06a.25.25,0,0,0,.07.21,1.25,1.25,0,0,0,.72.37,1.08,1.08,0,0,0,.4,0h.07a.28.28,0,0,0,.24-.09l.08,0a.23.23,0,0,0,.24,0,2,2,0,0,0,.84-.85,6.09,6.09,0,0,0,.4-1.32A.24.24,0,0,0,28.83,41.11Z"/></g></svg>