<svg xmlns="http://www.w3.org/2000/svg" viewBox="0 0 72.54 84.06"><defs><style>.cls-1,.cls-8{fill:#f59da0;}.cls-2{fill:#b0dceb;}.cls-3{fill:#0077bf;}.cls-4{fill:#f9e398;}.cls-5{fill:none;}.cls-11,.cls-12,.cls-5,.cls-8{stroke:#1c204d;stroke-linecap:round;stroke-linejoin:round;stroke-width:0.8px;}.cls-11,.cls-6{fill:#fff;}.cls-7{fill:#1c204d;}.cls-12,.cls-9{fill:#f47951;}.cls-10{fill:#f9b730;}</style></defs><g id="Layer_1" data-name="Layer 1"><path class="cls-1" d="M17.23,32.56a.15.15,0,0,1,.08-.11.2.2,0,0,1,.13,0,1.35,1.35,0,0,1,.29.16h0a.33.33,0,0,1,.24.1,2.39,2.39,0,0,0,.23.22l.09,0a.36.36,0,0,1,.24.11.32.32,0,0,1,.08.12c.14-.19.32-.36.46-.54l.56-.65.67-.78a1.57,1.57,0,0,1-.15-.32c0-.06,0-.15-.06-.24l-.22,0a3.77,3.77,0,0,1-.67,0,3.43,3.43,0,0,1-1.3-.3.53.53,0,0,1,0-.91c.42-.19.88-.14,1.31-.29.11,0,.31-.1.49-.18a.56.56,0,0,1,.26-.43l.41-.23a.52.52,0,0,1,.62.08,1.89,1.89,0,0,1,.62.38,8.94,8.94,0,0,1,1.19,1.11c.76.82,1.42,1.72,2.16,2.55a.89.89,0,0,1,.09.16.53.53,0,0,1,.21,1c-.4.22-.94.68-1.42.54a1.09,1.09,0,0,1-.55-.43,8.17,8.17,0,0,1-.7.62,4.32,4.32,0,0,1-1.27.86A1.23,1.23,0,0,1,20,34.69a1.4,1.4,0,0,1-.2-.54.87.87,0,0,1-.63.12.83.83,0,0,1-.68-.7.49.49,0,0,1-.22.1H18.1l-.13,0a.71.71,0,0,1-.14-.1,2.5,2.5,0,0,1-.33-.32.28.28,0,0,1-.08-.11.35.35,0,0,1,0-.14.31.31,0,0,1,0-.13l0,0h0a.16.16,0,0,1-.1-.08A.13.13,0,0,1,17.23,32.56Z"/><path class="cls-1" d="M39.35,48.4a.09.09,0,0,1,0,0l.06,0h.11l.08.05,0,0a.34.34,0,0,1,.42.24l0,.12c.18.27.36.54.53.82h0a.4.4,0,0,1,.17.3l0,.07h0a.18.18,0,0,1,.07.24,3.23,3.23,0,0,1-.88.85c-.19.11-.34,0-.4-.18a5.28,5.28,0,0,1-.16-.66,10.41,10.41,0,0,1-.18-1.35.45.45,0,0,0,0-.11h0a.15.15,0,0,1,0-.09l0-.17A.25.25,0,0,1,39.35,48.4Z"/><path class="cls-2" d="M23.43,35.78a.67.67,0,0,1,.25-.43c-.06-.24-.12-.49-.19-.74a.34.34,0,0,1,.42-.42l.13,0,.19-.07a3.27,3.27,0,0,0,.51-.22,9.17,9.17,0,0,1,.87-.48h0v-.15a.42.42,0,0,1,.09-.24l0,0a.08.08,0,0,1,0,0l0-.06V32.8a.19.19,0,0,1,0-.07.23.23,0,0,1,.11-.08h0l.09,0a.81.81,0,0,1,.14.12.47.47,0,0,1,.09.12.34.34,0,0,1,.22.32q0,.42,0,.84c.87.38,1.19,1.56,1.37,2.39.11.47.19.94.31,1.4.07.26.15.51.23.76l0,.07a27.22,27.22,0,0,1,1.8-2.07c.72-.75,1.63-2.21,2.6-2.64,0,0,1-1.34,1.16-1.55l0,.07a6.17,6.17,0,0,1,.39.6c.11.2.08.43.18.64a2.53,2.53,0,0,1,.11,1.19c0,.33.15.66.11,1l0,.06h0a.74.74,0,0,0-.23.72.68.68,0,0,0,.12.24,2.1,2.1,0,0,0,0,.79c.05.36.65.35.71,0a2.43,2.43,0,0,1,.18-.58,1.68,1.68,0,0,0,.6-.64l0,0,0-.07.15-.21.15-.21,0-.05s0,0,0,0,0-.06.07-.09l.36-.43.22-.29.12-.16,0,0,.06-.08.24-.29.07-.12c.36-.08.72-.16,1.08-.26l.76-.17.3-.06.23,0h0a2.71,2.71,0,0,0,1.29-.25l.15.05a5.08,5.08,0,0,0,.24,1.47,5.14,5.14,0,0,0,.43,1.27,1.16,1.16,0,0,0,.53.46c.31.35.58.74.86,1.12a13,13,0,0,1,.89,1.42,29.93,29.93,0,0,1,1.37,3.31.65.65,0,0,1,0,.19v0a4,4,0,0,1,.51,1.21,2.91,2.91,0,0,1,.13,1.43,3.49,3.49,0,0,1-.68,1.06c-.28.37-.54.74-.8,1.12a.73.73,0,0,1-.62.34c-.21.23-.42.47-.64.69a.41.41,0,0,1-.13.23l-.6.53a.57.57,0,0,1-.6.1l-.21.17,0,0a1.63,1.63,0,0,1-.3.44.33.33,0,0,1-.24.1h0a.49.49,0,0,1-.23.22.18.18,0,0,1-.23,0,.2.2,0,0,1,0-.24l.17-.15a.42.42,0,0,1,0-.15l0-.1a.1.1,0,0,1-.05-.08v0h0a.18.18,0,0,0,0-.07.53.53,0,0,1-.08-.17v-.07l-.08-.07a2.85,2.85,0,0,1-.34-.49,2.69,2.69,0,0,0-.16-.29h0l-.08,0a3.32,3.32,0,0,1-.59-.24.78.78,0,0,1-.32-.42v0h0a4,4,0,0,1-.85.19l-1.64.16h-.14a.89.89,0,0,1-.25.14,15.7,15.7,0,0,1-4.94.87c-.76,0-1.86.17-2.47-.37a1.81,1.81,0,0,1-.36-1.21,2.37,2.37,0,0,1,.3-1.22h0a.88.88,0,0,1,0-.28c.21-.94.48-1.85.72-2.78.13-.46.24-.92.33-1.39a6.39,6.39,0,0,0,.16-.91l-.19.06a4.12,4.12,0,0,1-.86.19h-.06a7.31,7.31,0,0,1-1.26.53,3.83,3.83,0,0,1-.95.14A1.49,1.49,0,0,1,26,42a2.05,2.05,0,0,1-.55-.83l-.26-.47a.64.64,0,0,1-.1-.13l-.2-.43a.66.66,0,0,1-.05-.39c-.37-.87-.72-1.74-1-2.64A3,3,0,0,1,23.43,35.78Z"/><path class="cls-3" d="M23.47,69.79a17.92,17.92,0,0,1,3,.66A11.86,11.86,0,0,1,27.7,71a13.77,13.77,0,0,0,1.53.52l.09,0a.41.41,0,0,0,.36.15.67.67,0,0,0,.67-.57c.07-.31.1-.64.15-1l.32-1.91.66-4a.57.57,0,0,0,0-.13.6.6,0,0,0,.26-.38q.26-1.6.57-3.21c.21-1.06.48-2.12.6-3.2a.57.57,0,0,0,0-.26.9.9,0,0,0,.2-.48l.09-.72a.94.94,0,0,1,0-.16.72.72,0,0,0,0-.32c.13-.88.3-1.74.51-2.6a8.76,8.76,0,0,0,1,.08,2.17,2.17,0,0,0,.72,0c0,.5,0,1-.06,1.49-.06.67-.18,1.34-.27,2A31.58,31.58,0,0,0,35,60.69a.67.67,0,0,0,.08.33,2.16,2.16,0,0,0,0,.57.79.79,0,0,0,0,.22c0,1.7-.36,3.39-.26,5.09a.68.68,0,0,0,0,.14c-.08.71-.13,1.43-.17,2.15l-.11.08a3.82,3.82,0,0,1,0,.59,1.54,1.54,0,0,1-.11.64.56.56,0,0,0,.09.17.7.7,0,0,0,.2.18.5.5,0,0,0,.26.08.53.53,0,0,0,.28,0h0l.18-.08h0l0,0a1.08,1.08,0,0,0,.36,0,16.26,16.26,0,0,1,2.32-.07c.82,0,1.64,0,2.47,0a.68.68,0,0,0,.64-.43.69.69,0,0,0-.15-.77l-.06,0h0a.76.76,0,0,0,.16-.51c-.06-1.7-.14-3.4-.21-5.1a.89.89,0,0,0,.12-.39,56.34,56.34,0,0,0-.08-6.23.58.58,0,0,0,0-.23l0-.61a2.38,2.38,0,0,0,.11-1c0-.34,0-.69,0-1,0-.69,0-1.39,0-2.09a1,1,0,0,0,0-.17.27.27,0,0,0,0-.12.71.71,0,0,0,0-.38.69.69,0,0,1,0-.13c0-.12,0-.24,0-.37a.5.5,0,0,0,0-.17.47.47,0,0,0-.2-.26.34.34,0,0,0-.22,0,.35.35,0,0,0-.21.1l-.22.19-.27.18a.41.41,0,0,0-.11.12c-.15-.38-.36-.74-.47-1.13a5.07,5.07,0,0,1-.18-1.78A.36.36,0,0,0,38.9,48a25.13,25.13,0,0,0-4.59,1,11.26,11.26,0,0,1-2.44.44,12.57,12.57,0,0,1-2.45-.17.39.39,0,0,0-.43.43.54.54,0,0,0-.07.13A24.51,24.51,0,0,0,28,53.55a.67.67,0,0,0-.14.15,3,3,0,0,0-.38,1.21A8.33,8.33,0,0,1,27,56.28,25.26,25.26,0,0,0,26.16,59c-.5,1.92-1.06,3.82-1.74,5.69a.67.67,0,0,0,0,.44c-.21.64-.42,1.28-.6,1.93-.1.35-.2.7-.29,1s-.09.66-.29.85A.53.53,0,0,0,23.47,69.79Z"/><path class="cls-4" d="M35.65,72.05a1.37,1.37,0,0,1,.32-1c.56-.5,1.19,0,1.81,0,.78,0,1.54-.31,2.33-.37a5.77,5.77,0,0,1,2.21.36,7,7,0,0,1,2.12.89c.54.43,1.07,1.1.76,1.8a.53.53,0,0,1-.8.13.54.54,0,0,1-.27.07c-1.61-.06-3.23,0-4.84,0-.79,0-1.58,0-2.37,0s-1.33,0-1.34-.82A10,10,0,0,1,35.65,72.05Z"/><path class="cls-4" d="M18.09,70.6c1-1.24,3-1.24,4.38-1.06a18.69,18.69,0,0,1,2.46.46,13.67,13.67,0,0,1,1.44.52,1.61,1.61,0,0,1,.9.23l.1.1a.57.57,0,0,1,.25.71c-.05.36-.1.72-.14,1.08a2.55,2.55,0,0,1-.23,1,.51.51,0,0,1-.68.19l-.09,0c-1.35-.52-2.81-.6-4.19-1-.72-.2-1.4-.5-2.12-.71a9.1,9.1,0,0,1-2-.65A.53.53,0,0,1,18.09,70.6Z"/><path class="cls-1" d="M29.84,25.16A9.14,9.14,0,0,0,31,27.46a5.37,5.37,0,0,1,1,2.16,1.05,1.05,0,0,0,1.29.73h0a.85.85,0,0,0,.49-.3l0,.05s.07.11.11.17,0,0,0,.05a1.57,1.57,0,0,1,.08.31s0,.05,0,.08,0,.11,0,.16a13.26,13.26,0,0,1,0,1.67.53.53,0,0,0,0,.22.35.35,0,0,0,0,.2c.13.28.46.47.55.77a2.56,2.56,0,0,1,0,.62c0,.21,0,.42,0,.63a18.22,18.22,0,0,1-.2,2.66.35.35,0,0,0,.67.19,8.34,8.34,0,0,1,1-1.72,14.68,14.68,0,0,0,1.2-1.53.08.08,0,0,0,0-.07L39,34.14l.93-.21a2.67,2.67,0,0,0,1-.29c.25-.19.33-.6.43-.84a6.18,6.18,0,0,1,.36-.73,6.61,6.61,0,0,1,.65-.95A1,1,0,0,0,44.09,31a18.57,18.57,0,0,1,2.07-2.86,1.36,1.36,0,0,0,.58-.67c0-.09.08-.18.11-.27a3.61,3.61,0,0,0,.7-1.61,1.23,1.23,0,0,0-1.85-1.3,15.83,15.83,0,0,0-.27-4.82c-.48-1.62-2-2.45-3.24-3.41a1,1,0,0,0-.59-.21c-2.05-1.48-5.9-.41-7.46,1.27A9,9,0,0,0,31.89,23l-.08,0a1.52,1.52,0,0,0-1.13-.14A1.07,1.07,0,0,0,29.77,24,2.59,2.59,0,0,0,29.84,25.16Z"/><path class="cls-5" d="M37.22,71.22a6.26,6.26,0,0,1,4-.36c2.71.42,4,1.27,4.18,2.42,0,0,.12.68-.53.69"/><path class="cls-5" d="M35.8,70.92l-.23,2.19s-.13.87.6.86h8.66"/><line class="cls-5" x1="35.61" y1="73.34" x2="45.22" y2="73.34"/><line class="cls-5" x1="34.46" y1="70.92" x2="35.33" y2="53.05"/><line class="cls-5" x1="40.15" y1="70.74" x2="34.46" y2="70.92"/><line class="cls-5" x1="41.18" y1="70.86" x2="41.25" y2="50.82"/><path class="cls-5" d="M26.36,71a6.21,6.21,0,0,0-3.71-1.43c-2.71-.34-4.2.11-4.68,1.18,0,0-.3.62.32.8"/><path class="cls-5" d="M27.79,71.27l-.36,2s-.12.87-.81.66l-8.33-2.38"/><line class="cls-5" x1="27.33" y1="73.52" x2="18.09" y2="70.88"/><polyline class="cls-5" points="24.34 69.94 30.18 71.79 33.81 52.87"/><path class="cls-5" d="M40.38,51.8s-1.24-1-1.08-3.59"/><line class="cls-5" x1="29.15" y1="49.19" x2="22.96" y2="69.58"/><line class="cls-5" x1="42" y1="44.97" x2="41.86" y2="38.59"/><path class="cls-5" d="M29.22,49.22c2.71.9,7.87-1.28,10.44-1.18"/><line class="cls-5" x1="31.37" y1="36.92" x2="28.82" y2="47.08"/><path class="cls-5" d="M31.86,52.45a18,18,0,0,0,5.63.62"/><path class="cls-5" d="M41.11,50.25l-1.23.94"/><path class="cls-5" d="M41.68,36.25C44,37.9,46.2,44.38,46.2,44.38A2.25,2.25,0,0,1,46.26,46"/><path class="cls-5" d="M42.25,44.78a3,3,0,0,1,1.11.15"/><line class="cls-5" x1="39.49" y1="48.22" x2="40.24" y2="47.39"/><line class="cls-5" x1="42.25" y1="44.78" x2="41.97" y2="43.81"/><path class="cls-5" d="M40.81,50.54c.24.23.43.34.51.28s-.13-.78-.63-1.49-1-1.21-1.2-1.11"/><path class="cls-5" d="M42.34,49.71c.14-.12-.21-.75-.79-1.41s-1.17-1.09-1.31-1"/><path class="cls-5" d="M41.32,50.82l1-1.11s.38.34,1.41-.73,2.48-2.91,2.48-2.91"/><path class="cls-5" d="M40.24,47.33a1,1,0,0,1,.17-.82c.29-.35,1.81-1.69,1.81-1.69"/><line class="cls-5" x1="23.33" y1="34.15" x2="23.62" y2="35.24"/><path class="cls-5" d="M25.56,32.69c.32-.09.54-.11.59,0s-.47.64-1.25,1-1.48.61-1.57.44,0-.1.05-.18"/><path class="cls-5" d="M26.55,34.13c.07.17-.54.57-1.35.89s-1.54.44-1.61.27"/><path class="cls-5" d="M26.15,32.67l.4,1.46s.49-.13.92,1.29.87,3.72.87,3.72"/><path class="cls-5" d="M23.59,35.29a1,1,0,0,0-.23.8c.11.44,2,5.18,2,5.18s.36,1.54,2.66.73c.91-.32,1.65-.61,2.22-.84"/><path class="cls-5" d="M29.15,49.19s-.85-.38-.33-2.11"/><path class="cls-5" d="M21.48,34a5.48,5.48,0,0,0,.9-1.22c.24-.51.23-.88,0-1.13s-.75.16-1,.38l-1.25,1.25s-.84.69-.24,1.38,1.2.7,2,.1a16.61,16.61,0,0,0,1.7-1.52"/><path class="cls-5" d="M21.74,33.68a.38.38,0,0,1,.14.37"/><path class="cls-5" d="M21.13,32.26s.51-.82.13-1.32c0,0-.27-.43-.83.11s-1.55,1.69-1.55,1.69-.71.85-.24,1.23a1.6,1.6,0,0,0,1.06.17"/><path class="cls-5" d="M25.78,33.15l-4.69-4.83a.8.8,0,0,0-1.08.19,2.65,2.65,0,0,1-1.73.84c-.51,0-.67.08-.68.4s.66,1,2.31.8c1.42-.17,1.73-.84,1.73-.84"/><path class="cls-5" d="M18.48,33.68a1,1,0,0,1-1.18-.82c-.09-.32-.15-.54-.21-.7"/><line class="cls-5" x1="21.81" y1="31.64" x2="21.44" y2="31.62"/><line class="cls-5" x1="23.27" y1="33.55" x2="23.58" y2="34.14"/><line class="cls-5" x1="19.37" y1="30.64" x2="19.99" y2="31.51"/><path class="cls-5" d="M19.34,28.9l-1-2.24a3.37,3.37,0,0,1-1.16.88"/><line class="cls-5" x1="20.35" y1="31.14" x2="20.11" y2="30.6"/><path class="cls-5" d="M32.85,34s-1.25.49-4.62,4.61"/><polyline class="cls-5" points="33.87 32.4 34.58 33.98 34.58 38.43"/><polyline class="cls-5" points="34.58 33.98 33.08 35.74 32.88 33.91 33.99 32.21"/><path class="cls-5" d="M41.17,33.71l-3.9.94-2.69,3.78c-.11.14-2.6,10.76-2.6,10.76"/><polyline class="cls-5" points="37.27 34.65 37.75 36.91 41.82 36.23 41.16 33.41"/><path class="cls-6" d="M38.64,24l.49.08h0a5.23,5.23,0,0,1,.68-.07c.43,0,.85.13,1.28.12.27,0,.45.28.45.53a.93.93,0,0,1-.12.4.45.45,0,0,1-.42.21.42.42,0,0,1-.35,0l-.24-.07-.08,0-.14,0-.53,0-.63-.06a1.33,1.33,0,0,1-.62-.1.51.51,0,0,1-.31-.57A.49.49,0,0,1,38.64,24Z"/><path class="cls-6" d="M33.34,23.27a1.8,1.8,0,0,1,.37-.53,1.25,1.25,0,0,1,.93-.4h0l.25-.07a1.47,1.47,0,0,1,1.39.53,2,2,0,0,1,.4,1.42,2.33,2.33,0,0,1-.26.81.93.93,0,0,1-.28.28,1.51,1.51,0,0,1-1.4.57,1.28,1.28,0,0,1-.85-.35,3.14,3.14,0,0,1-.49-.66A1.83,1.83,0,0,1,33.34,23.27Z"/><path class="cls-5" d="M32.25,20.44a13.12,13.12,0,0,0-.42,2.48"/><path class="cls-5" d="M39.69,15.28a10,10,0,0,0-1.46,0c-3.24.21-5.17,2.51-6,5.18"/><path class="cls-5" d="M45.69,24.27a11,11,0,0,0,.1-2.84,6.44,6.44,0,0,0-4.68-5.83,9.2,9.2,0,0,0-1.42-.32"/><path class="cls-5" d="M41.06,33.71a7.86,7.86,0,0,1,1.52-2.84"/><path class="cls-5" d="M42.59,30.77a1.69,1.69,0,0,0,.15.51.55.55,0,0,0,.2.2c.57.38,1.19-.25,1.52-1a4.78,4.78,0,0,1,1.63-2.05c.82-.64,2.27-3.08.95-4-.95-.64-1.72,0-2.2.72"/><path class="cls-5" d="M42.6,30.2a1.38,1.38,0,0,0,0,.57"/><path class="cls-5" d="M46,25.87a5.79,5.79,0,0,1-1,1.5,2.35,2.35,0,0,0-.48.77"/><path class="cls-5" d="M45.34,26.91a.68.68,0,0,0,.65.2"/><path class="cls-5" d="M45.68,27.11a.74.74,0,0,0,0,.46"/><path class="cls-5" d="M31.83,22.92a1.15,1.15,0,0,0-1.35-.17c-1.47.61-.52,3.29.15,4.08a4.73,4.73,0,0,1,1.21,2.33c.17.84.65,1.57,1.28,1.32a.6.6,0,0,0,.24-.16,1.13,1.13,0,0,0,.25-.56"/><path class="cls-5" d="M34,32.57l.11-1c.07-1-.51-2-1.05-3.23a14.48,14.48,0,0,1-1.21-5.38"/><path class="cls-5" d="M31.27,24.37A5.54,5.54,0,0,0,31.94,26a2.65,2.65,0,0,1,.32.86"/><path class="cls-5" d="M31.66,25.52a.67.67,0,0,1-.67.06"/><path class="cls-5" d="M31.29,25.64a.78.78,0,0,1-.1.46"/><path class="cls-5" d="M35.85,28.13s1.17.75,3.84,0"/><path class="cls-5" d="M38.58,23.09A1.94,1.94,0,0,0,38,24.32a1.85,1.85,0,0,0,1.62,2,1.68,1.68,0,0,0,.81-.11"/><path class="cls-5" d="M41.17,25.69a1.82,1.82,0,0,0,.41-1,1.92,1.92,0,0,0-.38-1.35"/><ellipse class="cls-5" cx="34.98" cy="24.01" rx="1.87" ry="1.82" transform="translate(8.73 57.35) rotate(-86.25)"/><line class="cls-5" x1="38.13" y1="23.86" x2="41.55" y2="24.21"/><line class="cls-5" x1="41.36" y1="25.41" x2="38.05" y2="25.07"/><path class="cls-7" d="M33.2,23.82a.48.48,0,0,1,.15-.22l0,0a.32.32,0,0,1,.17-.09.35.35,0,0,1,.2,0,.43.43,0,0,1,.2.07.35.35,0,0,1,.15.12l.07.12a.52.52,0,0,1,0,.27l0,.14a.48.48,0,0,1-.15.22l0,0a.64.64,0,0,1-.38.12.48.48,0,0,1-.2-.07.44.44,0,0,1-.15-.12l-.07-.12a.51.51,0,0,1,0-.27Z"/><path class="cls-7" d="M38,24.21a.38.38,0,0,1,.12-.16.31.31,0,0,1,.18-.09.34.34,0,0,1,.2,0l.13,0a.6.6,0,0,1,.22.16l.07.12a.63.63,0,0,1,0,.27v0a.43.43,0,0,1-.07.2.33.33,0,0,1-.12.16.31.31,0,0,1-.18.09.34.34,0,0,1-.2,0l-.13,0a.6.6,0,0,1-.22-.16L38,24.71a.59.59,0,0,1,0-.27v0A.48.48,0,0,1,38,24.21Z"/><path class="cls-8" d="M38.43,26.46a1.43,1.43,0,0,0,0-.22,1.29,1.29,0,1,0-1.41,1.19,1.16,1.16,0,0,0,.53-.06"/><line class="cls-5" x1="38.64" y1="20.02" x2="41.93" y2="20.02"/><path class="cls-5" d="M34.33,20.83c.08.05,2.38.08,2.38.08"/><path class="cls-7" d="M44.67,23.86a.16.16,0,0,1,0-.07l0,0h.1l.06,0,.05,0a.09.09,0,0,1,0,.06.15.15,0,0,1,0,.07v0A.16.16,0,0,1,45,24l0,0a.11.11,0,0,1-.08,0h0l-.06,0a.1.1,0,0,1,0,0,.05.05,0,0,1,0-.05.15.15,0,0,1,0-.07Z"/><path class="cls-7" d="M44.85,22.87a.17.17,0,0,1,0,.34A.17.17,0,0,1,44.85,22.87Z"/><path class="cls-7" d="M44.33,22.14c.21,0,.19.35,0,.33A.17.17,0,0,1,44.33,22.14Z"/><path class="cls-7" d="M44.34,23.15c.21,0,.19.35,0,.33A.17.17,0,0,1,44.34,23.15Z"/><path class="cls-7" d="M32.53,22.53a.17.17,0,0,1,0-.07l0,0a.1.1,0,0,1,.06-.05l0,0h.09a.18.18,0,0,1,.07.05l0,0h0a.15.15,0,0,1,0,.09h0a.09.09,0,0,1,0,.05l0,.05a.1.1,0,0,1,0,0l-.06,0h-.06l0,0s0,0-.06-.06v0h0A.14.14,0,0,1,32.53,22.53Z"/><path class="cls-7" d="M32.64,21.61a.17.17,0,0,1,0,.33C32.41,21.92,32.43,21.59,32.64,21.61Z"/><path class="cls-7" d="M33.39,21.15c.2,0,.18.34,0,.33S33.18,21.14,33.39,21.15Z"/><path class="cls-7" d="M33.22,22a.17.17,0,0,1,0,.34A.17.17,0,0,1,33.22,22Z"/><path class="cls-9" d="M20.41,41.61c.06-.29.12-.58.19-.87a11.27,11.27,0,0,0,.17-1.3c0-.56,0-1.12,0-1.69-2.34.83-4.59,1.92-6.92,2.79a1.23,1.23,0,0,0-.57.46A1.71,1.71,0,0,0,12,40.48a2.37,2.37,0,0,0-1.47.66,2.81,2.81,0,0,0-.58,0l-.67,0H9.26a.91.91,0,0,0-1.71.62A1.74,1.74,0,0,0,8.69,42.9l0,0a21.48,21.48,0,0,0-1.79,1.2,11,11,0,0,0-1.54,1.43c-.48.57-1.16,1.38-.83,2.17a1.12,1.12,0,0,0,.25.35,1.17,1.17,0,0,0-.2,1.09.92.92,0,0,0,1.55.3,6.49,6.49,0,0,0,.73-.93A.91.91,0,0,0,7,48.28,1.19,1.19,0,0,0,7,48.12a3.37,3.37,0,0,0,1.18,0,10,10,0,0,0,2.07-.58,11.31,11.31,0,0,0,3.52-2.31,2.5,2.5,0,0,0,.88-1.81,2.28,2.28,0,0,0,0-.27h.19A1.82,1.82,0,0,0,15.4,43a.54.54,0,0,0,.47,0,39.72,39.72,0,0,1,4.36-1.32Z"/><line class="cls-5" x1="14.78" y1="43.25" x2="20.16" y2="41.81"/><line class="cls-5" x1="13.36" y1="40.92" x2="20.55" y2="37.84"/><path class="cls-5" d="M13.2,41a1.79,1.79,0,0,0-.77-.62,2.8,2.8,0,0,0-2,.6,1.15,1.15,0,0,1-1.65-.21c-.2-.25-.29-.28-.29-.28-.49-.28-.82.3-.82.3a1.3,1.3,0,0,0,.43,1.86,2.6,2.6,0,0,0,.51.25"/><path class="cls-5" d="M4.94,48a.62.62,0,0,1-.51-.13c-.19-.21-.75-.53.49-2A18.45,18.45,0,0,1,9.4,42.56"/><path class="cls-5" d="M6.43,46.52a26.2,26.2,0,0,1,2.92-2.34"/><path class="cls-5" d="M7.49,48.18l-.2.21C5.5,50.3,5,50,4.62,49.48c-.58-.76.86-2,.86-2s.29-.32.6-.63"/><path class="cls-5" d="M9.14,43.57a5.1,5.1,0,0,0,1.21,2"/><path class="cls-5" d="M6,46.9a.54.54,0,0,0,0,.23c0,.75.63,1,1.72,1a10.88,10.88,0,0,0,5.84-2.46c2.2-1.78.75-3,.75-3"/><path class="cls-5" d="M10.73,45.43a9.37,9.37,0,0,1-3.52.93s-1,0-1.17.54"/><path class="cls-5" d="M10.38,43.5A4.29,4.29,0,0,0,12.64,43"/><path class="cls-9" d="M65.18,54.47c-.44-.27-.67-.42-1.06-.7s-.69-.53-1-.81-.39-.36-.59-.54q.64.27,1.32.48a4.89,4.89,0,0,0,2.74.52.91.91,0,0,0,.57-1.15A.92.92,0,0,0,66,51.69c.19,0,0,0,0,0l-.15,0-.45-.14-1.26-.42L63.86,51a2.67,2.67,0,0,1-.26-.09c-.2-.07-.39-.15-.59-.24a7.27,7.27,0,0,1-.83-.43,1.2,1.2,0,0,0,.13-.21h.14a1.18,1.18,0,0,0,.52-.2,1.59,1.59,0,0,0,.29-.29l.14-.22h0a.47.47,0,0,0,.09-.12.83.83,0,0,0,.08-.12l.08-.23a1.37,1.37,0,0,0,0-.29,1,1,0,0,0-1-.89l-.24.05-.21.1h0L62,48a1,1,0,0,0-.15.21l0,0h0l-.07,0a1.14,1.14,0,0,1-.26.09l-.06,0-.31,0a1.25,1.25,0,0,0-.56.19,2,2,0,0,0-.48-.6,1.71,1.71,0,0,0-2.38,0,1,1,0,0,0-.08.11,1.38,1.38,0,0,0-.32-.4c-.26-.22-.55-.34-.8-.56a16.38,16.38,0,0,1-1.36-1.52,15.37,15.37,0,0,0-1.52-1.5,9.62,9.62,0,0,1-.92-.77c-.23-.25-.42-.55-.65-.81-.09.14-.18.28-.26.42a10.18,10.18,0,0,0-.58,1.14l-.12.32h0c-.07.21-.13.43-.18.65s-.08.39-.11.58,0,.23,0,.35v0L52,47.13a28.33,28.33,0,0,0,3.61,2.74,1.51,1.51,0,0,0,.36.18,1.76,1.76,0,0,0,.22,1.31,3.35,3.35,0,0,0,.91,1.07c.35.28.73.52,1,.83l.21.22a.93.93,0,0,0,.29.66l1.55,1.5.77.75a2.17,2.17,0,0,0,1.07.75.91.91,0,0,0,1.06-.71.94.94,0,0,0-.53-1l0,0-.2-.19L62,54.88l-.72-.7L61,53.85a1.17,1.17,0,0,0,.1-.26,20,20,0,0,0,3.29,2.51.91.91,0,0,0,1.22-.41A.94.94,0,0,0,65.18,54.47Z"/><path class="cls-5" d="M62.05,50.15a1.45,1.45,0,0,0,1.15-.25,1.43,1.43,0,0,0,.19-2.12s-.45-.65-1-.34a1,1,0,0,0-.29.33,1.2,1.2,0,0,1-1.8.26c-1-.67-1.66-.61-1.94-.48a1.7,1.7,0,0,0-.84.7"/><path class="cls-5" d="M61.7,50a19.22,19.22,0,0,0,4,1.54s1.41.28,1.34,1.27-1.17.78-1.59.66a26.21,26.21,0,0,1-3.05-1.15"/><path class="cls-5" d="M60.23,52.79s2.19,2.32,2.34,2.52.88,1.19.21,1.79-1.8-.63-2.26-1-3.38-3.42-4.32-4.35A1.53,1.53,0,0,1,56,49.87"/><path class="cls-5" d="M61.19,50.7a5.48,5.48,0,0,1-1.82,2.22"/><path class="cls-5" d="M59.92,52.51l3.28,2.88c.4.35,1.6,1.27,2.25.49,0,0,.55-.62-.55-1.63s-3.9-2.9-3.9-2.9"/><path class="cls-5" d="M58.84,52a2.91,2.91,0,0,0-.54-2.21"/><line class="cls-5" x1="55.62" y1="50.15" x2="50.73" y2="45.96"/><line class="cls-5" x1="57.71" y1="47.96" x2="52.22" y2="42.43"/><ellipse class="cls-10" cx="37.27" cy="30.81" rx="20.44" ry="18.51" transform="translate(0.92 62.7) rotate(-80.84)"/><path class="cls-10" d="M58.5,31.05a2.45,2.45,0,0,0-1.13-1.42,2.42,2.42,0,0,0,.75-2.5A2.39,2.39,0,0,0,57,25.72a2.39,2.39,0,0,0,.33-3.29,2.31,2.31,0,0,0-1.57-.89,2.4,2.4,0,0,0-.23-2.6A2.33,2.33,0,0,0,54,18.07,2.41,2.41,0,0,0,53.09,15a2.37,2.37,0,0,0-1.79-.27,2.38,2.38,0,0,0-1.12-2.35,2.3,2.3,0,0,0-1.76-.28,2.37,2.37,0,0,0-2-2.65,2.4,2.4,0,0,0-1.76.42,2.34,2.34,0,0,0-3.86-1.17,2.35,2.35,0,0,0-4-.1,2.32,2.32,0,0,0-1.53-.95,2.37,2.37,0,0,0-2.7,1.9,2.32,2.32,0,0,0-1.76-.3A2.39,2.39,0,0,0,29,11.16a2.34,2.34,0,0,0-1.78-.31,2.39,2.39,0,0,0-1.82,2.61,2.33,2.33,0,0,0-1.73.34,2.39,2.39,0,0,0-1,2.4,2.32,2.32,0,0,0-1.78.35,2.39,2.39,0,0,0-.71,3.23,2.38,2.38,0,0,0-1.51,1,2.42,2.42,0,0,0-.08,2.62,2.38,2.38,0,0,0-1.52,1,2.41,2.41,0,0,0,.22,3,2.4,2.4,0,0,0-1.15,2.78,2.35,2.35,0,0,0,1.13,1.42,2.4,2.4,0,0,0-.75,2.5,2.35,2.35,0,0,0,1.12,1.41,2.41,2.41,0,0,0-.34,3.3,2.37,2.37,0,0,0,1.58.88,2.42,2.42,0,0,0,.23,2.61,2.33,2.33,0,0,0,1.53.87,2.39,2.39,0,0,0,.91,3,2.32,2.32,0,0,0,1.79.27,2.4,2.4,0,0,0,1.12,2.36,2.34,2.34,0,0,0,1.76.27,2.37,2.37,0,0,0,2,2.65,2.31,2.31,0,0,0,1.76-.42,2.35,2.35,0,0,0,1.91,1.76,2.32,2.32,0,0,0,2-.59,2.33,2.33,0,0,0,1.67,1.18,2.37,2.37,0,0,0,2.36-1.07,2.36,2.36,0,0,0,4.24-.95,2.32,2.32,0,0,0,1.76.29A2.38,2.38,0,0,0,45.61,50a2.33,2.33,0,0,0,1.78.3,2.38,2.38,0,0,0,1.82-2.6,2.29,2.29,0,0,0,1.73-.35A2.4,2.4,0,0,0,52,45a2.33,2.33,0,0,0,1.78-.34,2.39,2.39,0,0,0,.71-3.23A2.39,2.39,0,0,0,56,37.82a2.39,2.39,0,0,0,1.31-4A2.42,2.42,0,0,0,58.5,31.05Z"/><ellipse class="cls-5" cx="37.27" cy="30.81" rx="20.44" ry="18.51" transform="translate(0.92 62.7) rotate(-80.84)"/><ellipse class="cls-9" cx="37.79" cy="27.63" rx="7.41" ry="6.71" transform="translate(4.49 60.54) rotate(-80.84)"/><ellipse class="cls-5" cx="37.79" cy="27.63" rx="7.41" ry="6.71" transform="translate(4.49 60.54) rotate(-80.84)"/><path class="cls-5" d="M58.5,31.05a2.45,2.45,0,0,0-1.13-1.42,2.42,2.42,0,0,0,.75-2.5A2.39,2.39,0,0,0,57,25.72a2.39,2.39,0,0,0,.33-3.29,2.31,2.31,0,0,0-1.57-.89,2.4,2.4,0,0,0-.23-2.6A2.33,2.33,0,0,0,54,18.07,2.41,2.41,0,0,0,53.09,15a2.37,2.37,0,0,0-1.79-.27,2.38,2.38,0,0,0-1.12-2.35,2.3,2.3,0,0,0-1.76-.28,2.37,2.37,0,0,0-2-2.65,2.4,2.4,0,0,0-1.76.42,2.34,2.34,0,0,0-3.86-1.17,2.35,2.35,0,0,0-4-.1,2.32,2.32,0,0,0-1.53-.95,2.37,2.37,0,0,0-2.7,1.9,2.32,2.32,0,0,0-1.76-.3A2.39,2.39,0,0,0,29,11.16a2.34,2.34,0,0,0-1.78-.31,2.39,2.39,0,0,0-1.82,2.61,2.33,2.33,0,0,0-1.73.34,2.39,2.39,0,0,0-1,2.4,2.32,2.32,0,0,0-1.78.35,2.39,2.39,0,0,0-.71,3.23,2.38,2.38,0,0,0-1.51,1,2.42,2.42,0,0,0-.08,2.62,2.38,2.38,0,0,0-1.52,1,2.41,2.41,0,0,0,.22,3,2.4,2.4,0,0,0-1.15,2.78,2.35,2.35,0,0,0,1.13,1.42,2.4,2.4,0,0,0-.75,2.5,2.35,2.35,0,0,0,1.12,1.41,2.41,2.41,0,0,0-.34,3.3,2.37,2.37,0,0,0,1.58.88,2.42,2.42,0,0,0,.23,2.61,2.33,2.33,0,0,0,1.53.87,2.39,2.39,0,0,0,.91,3,2.32,2.32,0,0,0,1.79.27,2.4,2.4,0,0,0,1.12,2.36,2.34,2.34,0,0,0,1.76.27,2.37,2.37,0,0,0,2,2.65,2.31,2.31,0,0,0,1.76-.42,2.35,2.35,0,0,0,1.91,1.76,2.32,2.32,0,0,0,2-.59,2.33,2.33,0,0,0,1.67,1.18,2.37,2.37,0,0,0,2.36-1.07,2.36,2.36,0,0,0,4.24-.95,2.32,2.32,0,0,0,1.76.29A2.38,2.38,0,0,0,45.61,50a2.33,2.33,0,0,0,1.78.3,2.38,2.38,0,0,0,1.82-2.6,2.29,2.29,0,0,0,1.73-.35A2.4,2.4,0,0,0,52,45a2.33,2.33,0,0,0,1.78-.34,2.39,2.39,0,0,0,.71-3.23A2.39,2.39,0,0,0,56,37.82a2.39,2.39,0,0,0,1.31-4A2.42,2.42,0,0,0,58.5,31.05Z"/><path class="cls-5" d="M41.22,29.3a4.72,4.72,0,0,1-7.56-1"/><circle class="cls-11" cx="35.75" cy="25.83" r="2.11"/><circle class="cls-11" cx="39.94" cy="26.43" r="2.11"/><circle class="cls-12" cx="37.6" cy="27.62" r="1.51"/><circle class="cls-7" cx="35.74" cy="25.89" r="0.56"/><circle class="cls-7" cx="39.97" cy="26.49" r="0.56"/></g></svg>