<svg xmlns="http://www.w3.org/2000/svg" viewBox="0 0 25.42 32.88"><defs><style>.cls-1{fill:#f9b730;}.cls-2{fill:#89d3de;}.cls-11,.cls-3{fill:#f47951;}.cls-4{fill:#f07c24;}.cls-5{fill:#0d773c;}.cls-6{fill:#1f4686;}.cls-7{fill:#007033;}.cls-8{fill:#fff;}.cls-9{fill:#1c204d;}.cls-10{fill:none;}.cls-10,.cls-11{stroke:#1c204d;stroke-linecap:round;stroke-linejoin:round;stroke-width:0.4px;}</style></defs><g id="Layer_1" data-name="Layer 1"><path class="cls-1" d="M13.54,16.7l0,0S13.52,16.73,13.54,16.7Z"/><path class="cls-1" d="M16.49,14.39a9.15,9.15,0,0,1-1.41-.68,5.93,5.93,0,0,0-1.61-.45,35.19,35.19,0,0,0-3.56-.11.5.5,0,0,0-.45.68c-1,.28-2,.36-2.91.67-.43.14-.49.84,0,.94a1.7,1.7,0,0,0,.31.06l.06,0c0,.19.09.5.1.69a4.87,4.87,0,0,0,.17,1.08.78.78,0,0,0,0,.16c-.12,0-.14.24-.27.26-.62.05-.73.79-.11.73a8.23,8.23,0,0,1,1.11,0,1,1,0,0,0,.71,0h.11c.72,0,1.44,0,2.16-.05,1.42-.08,2.83-.2,4.25-.14a.48.48,0,0,0,.47-.36c0-.2.07-.41.1-.62a1.08,1.08,0,0,0,.35-.72l.06-1a.61.61,0,0,1,.34-.23A.49.49,0,0,0,16.49,14.39Z"/><path class="cls-2" d="M14.43,17.91a.5.5,0,0,0-.6-.34,2,2,0,0,1-.87,0,4,4,0,0,0-1,.07,1.22,1.22,0,0,0-.45.2l0,0a.4.4,0,0,0-.4-.23c-1.44,0-2.89,0-4.33,0-.63,0-.72.67-.09.69.11,0,.32.29.44.29l0,0a3.16,3.16,0,0,0,.69.06h.06l.07,0a1,1,0,0,0,.34.18,3.29,3.29,0,0,0,.77,0h.25l.09,0,.43,0a.64.64,0,0,0,.26-.1.48.48,0,0,0,.17.05c.37,0,.74.06,1.11.07a.78.78,0,0,0,.58-.2c.1-.1.1-.12.21-.15a3,3,0,0,1,1,0,2.08,2.08,0,0,0,1,0A.5.5,0,0,0,14.43,17.91Z"/><path class="cls-2" d="M16.66,17.91a.57.57,0,0,0-.13-.21l-.1-.08a.5.5,0,0,0-.24-.06H16a.28.28,0,0,0-.18,0,.34.34,0,0,0-.16.1.29.29,0,0,0-.1.16.28.28,0,0,0,0,.18v.13a.54.54,0,0,0,.13.22l.1.07a.42.42,0,0,0,.24.07h.15a.37.37,0,0,0,.18,0,.29.29,0,0,0,.16-.1.39.39,0,0,0,.1-.16.31.31,0,0,0,0-.19Z"/><path class="cls-3" d="M11.61,19a.2.2,0,0,0-.24.31.31.31,0,0,0,.18.11h0a2.85,2.85,0,0,0,.31.12,1,1,0,0,0,.48,0h0l.19,0h.1a5.83,5.83,0,0,1,.67.11,5,5,0,0,0,.78.07,2.91,2.91,0,0,0,.78,0,.35.35,0,0,0,.16-.09l.12,0a2.22,2.22,0,0,0,.37,0,3.69,3.69,0,0,0,.79-.16l.08,0a.63.63,0,0,0,.24,0A6.32,6.32,0,0,0,18,19.07a4.76,4.76,0,0,0,.68-.33l.29-.19.06,0h0a.94.94,0,0,0,.23-.1.49.49,0,0,0,.24-.49c0-.18.3-.7.31-.78s0-.25,0-.28-.18-.32-.12-.49-.22-.18-.2-.22,0,0,0,0h0l0,0h0v0c.18-.11,0-.15,0-.35s-.14-.35-.18-.44.2-.27.08-.34a.56.56,0,0,0-.38-.05,2.18,2.18,0,0,0-.27.11l-.09.05h0l-.15,0-.14,0-.35,0a.49.49,0,0,0-.42.24.48.48,0,0,0,0,.48,2.06,2.06,0,0,1,0,.43,3.27,3.27,0,0,0-.07.62.46.46,0,0,0,0,.2l-.43.36-.46.39-.1.09-.05,0-.07.05-.08,0a.57.57,0,0,0-.22.15.77.77,0,0,0-.17-.19.66.66,0,0,0-.59-.17l-.23-.24c-.23-.25-.51-.66-.91-.44a.42.42,0,0,0-.18.45,1.26,1.26,0,0,0,.23.48,1.92,1.92,0,0,0,.36.44,1.81,1.81,0,0,1,.31.31l0,0h0a2.49,2.49,0,0,1-.77,0l-.79-.09a4.56,4.56,0,0,0-1-.05.49.49,0,0,0-.31-.05h0a.38.38,0,0,0-.3.28h0a.13.13,0,0,0,0,.06l-.09,0"/><path class="cls-4" d="M19.51,16.15h0s0,0,0,0v0Z"/><path class="cls-5" d="M19.52,14.5c-.28-.44-.54-.89-.79-1.35h0a.27.27,0,0,0,0-.23,6,6,0,0,0-1.07-1.28c-.45-.39-.92-.75-1.38-1.13a.3.3,0,0,0-.5.25l0,0h-.08a.52.52,0,0,0-.3-.05.58.58,0,0,0-.34.17h0a3,3,0,0,1-.89.07c-.16,0-.23.3-.37.25a5.7,5.7,0,0,0-2.43-.48,4.11,4.11,0,0,1-.59.59l-.28.3a1.07,1.07,0,0,0-.14.16l-.06.07h0a6.58,6.58,0,0,0-.46.67l-.09.17v0a.08.08,0,0,1,0,.05,1.8,1.8,0,0,0,0,.19.3.3,0,0,0,0,.1h0a.74.74,0,0,1,0,.14.42.42,0,0,1,.12,0,15.44,15.44,0,0,1,3.33.06,4.81,4.81,0,0,1,.65.18,4.24,4.24,0,0,1,1.57.22.34.34,0,0,0,0,.2.38.38,0,0,1,.15,0,1.73,1.73,0,0,1,.74.51l.09.09a.21.21,0,0,1,.11-.07l.13,0a.45.45,0,0,1,.19.05.46.46,0,0,1,.25.25.45.45,0,0,1,.05.19s0,.11,0,.14h0l0,.12a.52.52,0,0,1-.18.18l-.12.05h0a.58.58,0,0,1-.17.18,12.69,12.69,0,0,1-.64,2.07s0,0,0,.05a.2.2,0,0,0,.1.07h0c.31,0,.63,0,1,0h.06l.32-.26a1.85,1.85,0,0,0,.33-.29.71.71,0,0,0,.09-.38c0-.55,0-1.08,0-1.62a1.9,1.9,0,0,0,.63-.06c.19,0,.37-.11.55-.16l.27-.06h.22a.33.33,0,0,0,.32-.11A.3.3,0,0,0,19.52,14.5Z"/><path class="cls-6" d="M17,19.93a.39.39,0,0,0-.5-.38,3.23,3.23,0,0,1-1.07.12c-.39,0-.77,0-1.15.08a10.9,10.9,0,0,1-1.14.07,3.64,3.64,0,0,1-.57,0,2.07,2.07,0,0,0-.55-.11H11.9a.67.67,0,0,0-.3-.16l-.23-.27-.11-.14a.14.14,0,0,0-.09-.08A.15.15,0,0,0,11,19a.19.19,0,0,0-.15.19c0,.17,0,.33,0,.5a.25.25,0,0,0,0,.12s0,0,0,0,0,0,0,.06a11,11,0,0,0-.29,3.18.85.85,0,0,0,0,.17c-.18,1.89-.35,3.79-.49,5.68a.44.44,0,0,0,.06.25l-.06.1a.3.3,0,0,0,.26.45,9.07,9.07,0,0,1,2.38.28.3.3,0,0,0,.38-.28c0-.61.08-1.21.16-1.81s.15-1.69.28-2.26c.08-.35.16-.66.23-1,0,.46,0,.92-.05,1.37l0,.06a.74.74,0,0,0,0,.21.2.2,0,0,1,0,.11h0a.29.29,0,0,0,0,.16h0c0,.22,0,.44-.05.66a.25.25,0,0,0,.11.23,2.34,2.34,0,0,0,0,.38.64.64,0,0,0,0,.07l-.15,1.51c0,.12,0,.25,0,.38a.25.25,0,0,0,.27.24c.2,0,.42-.13.61-.05a7.59,7.59,0,0,0,2.23-.32,4.27,4.27,0,0,1,0-1.38c.21-.5,0-2.53.1-2.73,0,0,.13-.81.13-.81s-.25-1.06-.23-1.14a.39.39,0,0,0,.12-.19l0-.08a.38.38,0,0,0-.05-.32C16.83,22.05,16.91,21,17,19.93Z"/><path class="cls-7" d="M10.23,17.12l0,0h0Z"/><path class="cls-3" d="M17.68,5.93a.75.75,0,0,0-.51,0l-.11,0A4,4,0,0,0,14.5,2.23c-1.36-.42-3.52.26-4,1.7a.39.39,0,0,0-.15.14A2.6,2.6,0,0,0,10,5.43a7.27,7.27,0,0,0,.09,1.4.53.53,0,0,0-.55,0,.65.65,0,0,0-.13.87,2.2,2.2,0,0,0,.35.51s.16.25.23.24c.65,0,.56.19,1,.47a10.41,10.41,0,0,1,1.3,2.15c.28,0,1.24,0,1.4,0,.32,0,.75-.16,1.06-.1.15,0,.31-.2.46-.19a.83.83,0,0,0,.48-.13.22.22,0,0,0,.11-.32s0-.05,0-.08A2.49,2.49,0,0,1,16,9.7a4.79,4.79,0,0,1,.25-.65,9.06,9.06,0,0,1,.62-1.34l0,0,.05,0a.56.56,0,0,0,.42,0,1.16,1.16,0,0,0,.47-.51C18,6.82,18.15,6.17,17.68,5.93Z"/><path class="cls-8" d="M13.12,4.19a.92.92,0,0,0-.85-.34.9.9,0,0,0-.72.54.8.8,0,0,0,0,.57.43.43,0,0,0,.18.29.47.47,0,0,0,.35,0h.43a1.26,1.26,0,0,0,.54-.16.66.66,0,0,0,.21-.15.38.38,0,0,0,.06-.29A.89.89,0,0,0,13.12,4.19Z"/><path class="cls-8" d="M15,3.91a1.46,1.46,0,0,0-.33-.22.92.92,0,0,0-.89.12.75.75,0,0,0-.3.42,1.3,1.3,0,0,0,0,.44.28.28,0,0,0,.15.23.31.31,0,0,0,.09.18.34.34,0,0,0,.29,0l.09,0h.05l.19,0,.4,0h.2a.34.34,0,0,0,.3-.2.77.77,0,0,0,0-.45A.83.83,0,0,0,15,3.91Z"/><path class="cls-9" d="M10.05,5.12h0v0a.17.17,0,0,0,0-.07l0,0-.05,0h0l-.05,0H9.87l0,0L9.79,5s0,0,0,0l0,.08v0s0,0,0,.07,0,0,0,.06c0,.19,0,.39,0,.58s0,.19,0,.28a.33.33,0,0,0,.07.25.08.08,0,0,0,0,.06v0a.22.22,0,0,0,.17.25.3.3,0,0,0,.27-.09.35.35,0,0,0,.06-.26V6.28h0v0l0-.18a1.41,1.41,0,0,0,0-.41,2.77,2.77,0,0,0-.12-.41A.24.24,0,0,0,10.05,5.12Z"/><path class="cls-9" d="M17.29,5c-.05-.13-.1-.25-.16-.38s-.07-.26-.18-.31a1.62,1.62,0,0,0-.1-.18.06.06,0,0,0-.08,0,.08.08,0,0,0-.05.07.39.39,0,0,0,.06.17.17.17,0,0,0,0,.14v0s0,0,0,0a.41.41,0,0,0-.06.39s0,0,0,0a1.26,1.26,0,0,0,0,.27c0,.12.07.24.11.36s.11.24.25.27a.13.13,0,0,0,.09,0,.15.15,0,0,0,.2-.11A1.35,1.35,0,0,0,17.29,5Z"/><path class="cls-9" d="M12.35,4.52a.21.21,0,0,0,.14.4A.21.21,0,0,0,12.35,4.52Z"/><path class="cls-9" d="M14.24,4.33a.22.22,0,0,0,.14.41A.22.22,0,0,0,14.24,4.33Z"/><path class="cls-10" d="M16.92,7.45l0,.09c-.57,1.49-1.08,2.16-1,3.11"/><path class="cls-10" d="M17.09,6v.28"/><path class="cls-10" d="M13.13,2.16a4.57,4.57,0,0,1,.74,0,3.25,3.25,0,0,1,2.88,2.18"/><path class="cls-10" d="M10.09,6.78c0,.11.05.21.08.31"/><path class="cls-10" d="M13.13,2.16a5.14,5.14,0,0,0-.72.15A3.22,3.22,0,0,0,10,5.08"/><path class="cls-10" d="M12.21,11.05a8.16,8.16,0,0,0,3.7-.4"/><path class="cls-10" d="M17.13,6a.52.52,0,0,1,.52-.07c.29.12.57.47.21,1.26-.27.58-.69.69-1,.52"/><path class="cls-10" d="M17,7a.49.49,0,0,1,.19-.25.83.83,0,0,0,.18-.13"/><path class="cls-10" d="M11.85,5.44A1,1,0,0,1,11.56,5a.91.91,0,1,1,1.17.55.85.85,0,0,1-.47,0"/><path class="cls-10" d="M14.56,5.42a.92.92,0,1,1,.6-1.19.93.93,0,0,1-.17.91"/><line class="cls-10" x1="11.72" y1="5.31" x2="15.08" y2="5.02"/><circle class="cls-11" cx="13.43" cy="5.58" r="0.62"/><path class="cls-10" d="M9.8,6.75s-.44-1.52.25-2"/><path class="cls-10" d="M10,5.1s.19.05.27.5.06,1.07-.23,1.18"/><path class="cls-10" d="M17.4,5.84s0-1.57-.78-1.8"/><path class="cls-10" d="M16.8,4.34s-.21.12-.13.58.17,1,.48,1"/><path class="cls-10" d="M10.59,8.27a.56.56,0,0,0,.05.08c.88,1.33,1.46,1.74,1.57,2.7"/><path class="cls-10" d="M10.05,6.87a.51.51,0,0,0-.52,0c-.26.18-.45.59.08,1.28.38.51.82.51,1.08.28"/><path class="cls-10" d="M10.37,7.87a.44.44,0,0,0-.24-.2L10,7.6"/><path class="cls-10" d="M14.89,18.85a15.92,15.92,0,0,1-2.26-.13s-.91-.15-1,.31c-.1.64,1.91.74,2.47.74A9.16,9.16,0,0,0,18.19,19a3.56,3.56,0,0,0,1.44-1s.68-.68-.45-3.1"/><path class="cls-10" d="M15.18,18.83l-.29,0"/><path class="cls-10" d="M15.18,18.83a1.38,1.38,0,0,1-.95-.8s-.33-.65.06-.85c0,0,.29-.2.66.27a.85.85,0,0,0,.63.36.69.69,0,0,1,.65.74"/><path class="cls-10" d="M10.79,31.23h2.1a.14.14,0,0,0,.14-.14L13,30.16"/><path class="cls-10" d="M11.9,31.23H8.18s-.28,0-.28-.18.94-1.16,3.5-1.16V30"/><path class="cls-10" d="M14.89,21.25a4.12,4.12,0,0,1-1.62.05"/><line class="cls-10" x1="14.08" y1="21.46" x2="13.06" y2="30.08"/><path class="cls-10" d="M13.06,30.08l-3-.35s.76-9.1.88-10.73"/><path class="cls-10" d="M16.26,18.25s2.2-1.81,2.2-1.81"/><path class="cls-10" d="M17.33,12.58a20.53,20.53,0,0,1,.19,4.6"/><path class="cls-10" d="M17.61,15.3l.53-.1a3.76,3.76,0,0,0,1.45-.45s-1.43-3.56-3.68-4.34"/><path class="cls-10" d="M11.23,19s-.05.92,2.59.74"/><path class="cls-9" d="M12.94,30.27a.46.46,0,0,0-.44-.3,3.56,3.56,0,0,0-.65,0,6.54,6.54,0,0,1-.77,0,.33.33,0,0,0-.15,0,4,4,0,0,0-.49,0,6.71,6.71,0,0,0-.76.13c-.43.09-1,.1-1.28.49l0,.05A.3.3,0,0,0,8,31c.11.39.66.24,1,.22l1.27-.06,1.16,0a.34.34,0,0,0,.24,0,2.44,2.44,0,0,1,.54,0,.19.19,0,0,0,.15,0,1.37,1.37,0,0,1,.35.08.31.31,0,0,0,.38-.29A1.85,1.85,0,0,0,12.94,30.27Z"/><path class="cls-10" d="M15.85,31.23H13.74c-.13,0-.13-.14-.13-.14l.06-.93"/><path class="cls-10" d="M14.74,31.23h3.72s.28,0,.28-.18-.94-1.16-3.5-1.16"/><line class="cls-10" x1="14.08" y1="21.46" x2="13.57" y2="30.08"/><path class="cls-10" d="M13.57,30.08l3-.35s.45-8.62.34-10.24"/><path class="cls-9" d="M13.7,30.27a.45.45,0,0,1,.43-.3,3.64,3.64,0,0,1,.66,0,6.6,6.6,0,0,0,.77,0,.33.33,0,0,1,.15,0,4,4,0,0,1,.49,0,6.54,6.54,0,0,1,.75.13c.43.09,1,.1,1.28.49l0,.05a.29.29,0,0,1,.41.34c-.11.39-.65.24-.94.22s-.85,0-1.28-.06-.77,0-1.15,0a.34.34,0,0,1-.24,0,2.43,2.43,0,0,0-.54,0,.23.23,0,0,1-.16,0,1.3,1.3,0,0,0-.34.08.31.31,0,0,1-.38-.29A1.85,1.85,0,0,1,13.7,30.27Z"/><line class="cls-10" x1="15.87" y1="17.63" x2="16.34" y2="15.38"/><line class="cls-10" x1="7.19" y1="17.74" x2="6.83" y2="15.37"/><path class="cls-10" d="M6.94,14.56c0,.29,2.07.51,4.63.5s4.63-.25,4.63-.54-2.1-1.47-4.66-1.46S6.94,14.28,6.94,14.56Z"/><path class="cls-10" d="M16.11,14.39a.56.56,0,0,1,.31.13.55.55,0,0,1,.36.06c.18.08.28.22.22.31h0l0,0c.06.09-.08.24-.32.33a.79.79,0,0,1-.38.08.67.67,0,0,1-.38.17,1.14,1.14,0,0,1-.37,0,1,1,0,0,1-.36.12.91.91,0,0,1-.38,0,.91.91,0,0,1-.38.1.82.82,0,0,1-.4,0,.87.87,0,0,1-.38.1.91.91,0,0,1-.4-.06.8.8,0,0,1-.39.09,1,1,0,0,1-.38,0,.9.9,0,0,1-.37.07l-.22,0"/><path class="cls-10" d="M7,14.43a.53.53,0,0,0-.31.13.61.61,0,0,0-.36.06c-.18.09-.28.23-.21.32h0l0,0c-.06.09.08.24.32.33a.81.81,0,0,0,.38.07.71.71,0,0,0,.38.17,1.2,1.2,0,0,0,.38,0,1,1,0,0,0,.36.11.91.91,0,0,0,.38,0,.87.87,0,0,0,.38.1.88.88,0,0,0,.39-.05,1,1,0,0,0,.39.1,1.09,1.09,0,0,0,.4-.06.81.81,0,0,0,.39.08.77.77,0,0,0,.37-.06.83.83,0,0,0,.38.07l.21,0"/><path class="cls-10" d="M11.89,15.79a.83.83,0,0,1-.31.05,1,1,0,0,1-.34-.05"/><path class="cls-10" d="M14,17.71l-8,0a1.88,1.88,0,0,0,1.48.75"/><line class="cls-10" x1="15.45" y1="17.71" x2="15.33" y2="17.71"/><path class="cls-10" d="M16.34,18.29a2,2,0,0,0,.72-.59H15.25"/><path class="cls-10" d="M9,19a2.33,2.33,0,0,1-1.49-.5h3.31l3.68,0"/><path class="cls-10" d="M9,19H11.6"/><path class="cls-10" d="M15.65,5.58A2.54,2.54,0,0,1,13.05,7"/><path class="cls-3" d="M9.33,14.24a1.41,1.41,0,0,0,.31.1.31.31,0,0,0,.33-.21.32.32,0,0,0-.17-.36l0,0-.07,0-.07-.06v0a1.57,1.57,0,0,1-.2-.25l0-.06,0,0s-.05-.1-.07-.14a3.88,3.88,0,0,0-.15-.36.55.55,0,0,0-.35-.25.72.72,0,0,0-.41.11.46.46,0,0,0-.2.31H8.14a.61.61,0,0,0-.41.23H7.65a.81.81,0,0,0-.53.1l-.06.05A.19.19,0,0,0,7,13.4a1.82,1.82,0,0,0-.37.7c-.06.19,0,.31.2.2s.26-.06.34-.1l.08,0a.18.18,0,0,0,.07.05,1,1,0,0,0,0,.17,1.34,1.34,0,0,0,.25.37A.88.88,0,0,0,7.9,15a.81.81,0,0,0,.31,0l.08,0A.29.29,0,0,0,8.55,15a.2.2,0,0,0,0-.28.18.18,0,0,0-.13,0h0a.32.32,0,0,0,.07-.22v0a1,1,0,0,0,.58.29.33.33,0,0,0,.3-.14A.31.31,0,0,0,9.33,14.24Z"/><path class="cls-10" d="M7.75,15c.39.29.67.12.75,0a.19.19,0,0,0,0-.28A3.62,3.62,0,0,1,8,13.66q-.2-.66-.75-.51c-.17,0-.75.37-.61,1.36"/><path class="cls-10" d="M7.23,14.2c-.05,0-.16,0-.28-.2"/><path class="cls-10" d="M7.26,14.2h0"/><path class="cls-10" d="M7.7,13.17s0-.21.37-.24.45.26.6.52a3,3,0,0,0,.53.7.35.35,0,0,1,.11.46c-.09.14-.48.16-.82-.13A2.07,2.07,0,0,1,8.12,14"/><path class="cls-10" d="M8.23,13a.64.64,0,0,1,.48-.41c.33,0,.45.25.6.52a3.26,3.26,0,0,0,.53.7.34.34,0,0,1,.11.45c-.09.15-.48.17-.82-.13"/><path class="cls-10" d="M7.25,14.09a1.08,1.08,0,0,0,.52.9"/><path class="cls-10" d="M12.13,10.65a3.92,3.92,0,0,0-2.68,2.47"/><line class="cls-10" x1="10.89" y1="12.26" x2="10.89" y2="13.06"/></g></svg>