<svg xmlns="http://www.w3.org/2000/svg" viewBox="0 0 42.44 49.4"><defs><style>.cls-1{fill:#89d3de;}.cls-2{fill:#f9b730;}.cls-3,.cls-8{fill:#f47951;}.cls-4{fill:#fff;}.cls-5{fill:#0077bf;}.cls-6{fill:none;}.cls-10,.cls-6,.cls-8,.cls-9{stroke:#1c204d;stroke-linecap:round;stroke-linejoin:round;}.cls-6,.cls-8,.cls-9{stroke-width:0.4px;}.cls-10,.cls-7{fill:#1c204d;}.cls-9{fill:#aee1f0;}.cls-10{stroke-width:0.4px;}</style></defs><g id="Layer_1" data-name="Layer 1"><path class="cls-1" d="M14.6,17a2.67,2.67,0,0,0-.57.16c-.42.1-.84.15-1.27.23-.62.12-1.22.31-1.83.48a.71.71,0,0,0-.2,0,1.59,1.59,0,0,0-.82.16,3.82,3.82,0,0,0-.57.11,4.25,4.25,0,0,0-.78.2c-.61.07-1.22.13-1.82.21a.38.38,0,0,0-.26.16c-.39,0-.77-.07-1.16-.12s-.45.65,0,.71A13.44,13.44,0,0,0,8,19.4a.37.37,0,0,0,.34-.35.32.32,0,0,0,.17,0l.18,0h.09a.42.42,0,0,0,.27,0h0l.76-.11a.87.87,0,0,0,1-.06.3.3,0,0,0,.13-.18H11l.39.09a2.24,2.24,0,0,0,1.12,0,16.78,16.78,0,0,0,1.72-.79c.19-.05.38-.1.57-.17A.35.35,0,0,0,14.6,17Z"/><path class="cls-1" d="M35.47,17.49a36.53,36.53,0,0,1-4.68.09,41.8,41.8,0,0,1-4.74-.34c-.44-.06-.64.57-.19.68a26.46,26.46,0,0,0,2.72.81A.36.36,0,0,0,29,18.2h.08a.4.4,0,0,0,.34.38,9,9,0,0,0,1.56,0l.1,0a13.4,13.4,0,0,0,1.55.07h.19l.33,0a.3.3,0,0,0,.18.13A1.16,1.16,0,0,0,34,18.7a.27.27,0,0,0,.17-.19,10.92,10.92,0,0,0,1.37-.33C35.93,18.07,35.89,17.45,35.47,17.49Z"/><path class="cls-2" d="M14.4,14.65c.17-.21.09-.63-.25-.6-.57,0-1.05-.46-1.6-.58a7.86,7.86,0,0,0-1.88-.06,13.82,13.82,0,0,0-1.92.25,2.93,2.93,0,0,0-1.44.5A5.79,5.79,0,0,0,5.55,15a1.51,1.51,0,0,0-.61.78,1.68,1.68,0,0,0-.39-.07.36.36,0,0,0-.09.7l.34.07c.39.22.29.92.61,1.25a.26.26,0,0,0,.13.08c0,.14.07.29.09.43a.35.35,0,0,0,.61.12h0a3.38,3.38,0,0,0,1.44-.19l0,0A8.77,8.77,0,0,0,9.94,18a12.8,12.8,0,0,1,3.73-.68.35.35,0,0,0,.35-.35l0-1.22a1.27,1.27,0,0,1,0-.55A3.07,3.07,0,0,1,14.4,14.65Z"/><path class="cls-2" d="M35.92,14.63a23,23,0,0,1-2.3-1.09A11.43,11.43,0,0,0,31,13.06a6.45,6.45,0,0,0-2.55.16,5.16,5.16,0,0,0-1.2.53c-.34.2-.73.63-1.15.46s-.61.52-.19.69l.31.11c.11,0,.14,0,.11.17a2.31,2.31,0,0,1,.1.64,10.43,10.43,0,0,1,.07,1.24.33.33,0,0,0,.34.34.43.43,0,0,0,.12.05H27c.18.1.35,0,.55,0a13,13,0,0,0,2.07,0c1-.05,2.06,0,3,0l1.44.07c.31,0,.65.08.83-.24a5,5,0,0,0,.3-1.21,1.15,1.15,0,0,1,.77-.83A.36.36,0,0,0,35.92,14.63Z"/><path class="cls-3" d="M15.9,22.22c-1-.77-1.81-1.72-2.71-2.58,0,0-.93-1-.93-1s-1.1-.19-1.15-.14a1,1,0,0,1-.27.07.43.43,0,0,1-.14.16,1.45,1.45,0,0,1-.94.14,8.34,8.34,0,0,0-1.12,0,1.1,1.1,0,0,0-.47.13.75.75,0,0,0-.22.27,1.38,1.38,0,0,1-.78.46.83.83,0,0,0,.5.8,1.84,1.84,0,0,0,.39.07.42.42,0,0,1,.27-.12c.35,0,.71,0,1.07-.06a7.41,7.41,0,0,0,.91-.2c.33-.07.66-.11,1-.15s.56-.08.74.14a.37.37,0,0,1,.1.22h0c1,1.32,2,2.67,3,4a.44.44,0,0,0,.17.16,3,3,0,0,0,.17.47c.09.18.33.1.39-.06s.26-.61.4-.91a9.16,9.16,0,0,0,.43-.82C16.88,22.88,16.19,22.45,15.9,22.22Z"/><path class="cls-3" d="M24.36,19.82a.86.86,0,0,0-.2-.33.82.82,0,0,0-.34-.12c-.18-.07-.31-.29-.53-.35h0c0-.09-.05-.17-.06-.21-.08-.25-.11-.5-.18-.75-.13-.45-.61-.66-1-.83a3.63,3.63,0,0,0-2.67-.15,2.92,2.92,0,0,0-1.76,1.71,6.07,6.07,0,0,0-.28.92.64.64,0,0,0-.59.29,1.46,1.46,0,0,0-.05,1,1.17,1.17,0,0,0,.35.71.73.73,0,0,0,.39.2.87.87,0,0,0,.21.43l.31.5c.2.32.4.64.58,1A4,4,0,0,1,18.78,25c0,.18.24.25.39.23a2.45,2.45,0,0,1,.75.12,4.54,4.54,0,0,0,.82.07A2.44,2.44,0,0,0,21.93,25a.31.31,0,0,0,.34-.23A12.17,12.17,0,0,1,23,22.89l.48-.91c.07-.14.14-.28.22-.41a1.62,1.62,0,0,1,.32-.32A1.31,1.31,0,0,0,24.36,19.82Z"/><path class="cls-4" d="M23.2,18.81c-.06-.19-.1-.38-.14-.57l-.08,0-.18-.1a2.2,2.2,0,0,0-.35-.13l-.33-.08-.06.09-.11.08-.12.05-.17,0h-.08a.48.48,0,0,1-.54.2l-.11,0h0c-.35-.2-.82-.47-1.18-.14a1.43,1.43,0,0,0-.44.94.88.88,0,0,0,.07.39.35.35,0,0,0,.17.17,1.21,1.21,0,0,0,.38.15,3.58,3.58,0,0,0,.45.09,1.4,1.4,0,0,0,.54,0,2.48,2.48,0,0,1,.72,0,1.62,1.62,0,0,0,1.07-.28,1.32,1.32,0,0,0,.51-.7Z"/><path class="cls-3" d="M27.8,21.85a3,3,0,0,0,.56-.63c.29-.46.49-1,1-1.23a3,3,0,0,1,1.49-.12c.58.06,1.14.1,1.72.11a1.33,1.33,0,0,0,.74-.1,1.4,1.4,0,0,0,.41-.43c.13-.16.17-.23.09-.44s-.17-.24-.38-.26c-.49-.05-.82-.4-1.3-.48a3.48,3.48,0,0,0-1.5.17c-.4.11-.72-.12-1-.15a2.06,2.06,0,0,1-.77-.11c-.47.58-1.3,1.65-1.41,1.78q-.41.45-.84.87c-.62.59-1.25,1.16-1.87,1.74a.33.33,0,0,0-.11.16h0a.38.38,0,0,0-.21.05.28.28,0,0,0-.15.23.3.3,0,0,0,.09.27c0-.05,0,0,0,0l.07.09.12.2a2.58,2.58,0,0,1,.19.37s0,.07,0,.07l0,.09c0,.06.05.12.07.19s.08.29.11.44a.26.26,0,0,0,.12.17c0,.19.29.3.4.1l.42-.75a2.65,2.65,0,0,0,.56-.69c.23-.38.47-.75.73-1.1a.52.52,0,0,1,.19-.15A1.45,1.45,0,0,1,27.8,21.85Z"/><path class="cls-4" d="M25.33,25.75a7.61,7.61,0,0,0-.48-1.31,5.24,5.24,0,0,1-.54-1.18.33.33,0,0,0-.59-.07,5.28,5.28,0,0,0-.35.56,2.88,2.88,0,0,0-.92.81c-.09.15-.09.35-.23.46a1.42,1.42,0,0,1-.6.2,4.51,4.51,0,0,1-1.36.19A3.9,3.9,0,0,1,19,25,.55.55,0,0,0,18.8,25l0-.15c-.05-.25-.33-.4-.52-.57a6.66,6.66,0,0,1-.94-1.05.33.33,0,0,0-.56,0,1.13,1.13,0,0,0-.14.36.34.34,0,0,0-.14.15c-.29.63-.56,1.26-.81,1.91a.42.42,0,0,0,.16.45.42.42,0,0,0,.3.08h0a1.68,1.68,0,0,0,.62.36,2.39,2.39,0,0,1,.56.32c.06,0,0,.15.08.17l.6,4.31a.42.42,0,0,0,.42.42c1.44.09,2.89.07,4.33.05l.09,0h0a.44.44,0,0,0,.41-.31v0a.32.32,0,0,0,0-.27c.08-.65.12-1.31.18-2l.09-1.14a8.68,8.68,0,0,0,.06-1,14.45,14.45,0,0,1,1.59-1A.34.34,0,0,0,25.33,25.75Z"/><path class="cls-5" d="M26.55,43.55a.32.32,0,0,0,0-.14v0a.5.5,0,0,0-.14-.27.53.53,0,0,0,0-.13l-.06-.23a9.58,9.58,0,0,1-.38-1.26.26.26,0,0,1,0-.15c-.09-.33-.17-.66-.26-1v0c-.31-.9-.57-1.82-.83-2.74s-.57-1.86-.8-2.8c-.11-.45-.19-.91-.32-1.36a6.94,6.94,0,0,1-.31-1.19h0a.44.44,0,0,0-.64-.46,1.91,1.91,0,0,1-.95.09c-.35,0-.7,0-1.05,0-.8,0-1.6-.07-2.39-.1a.43.43,0,0,0-.41.54s0,.08,0,.12a9.12,9.12,0,0,1-.4,1.85c-.11.31-.24.62-.34.94a2.17,2.17,0,0,0-.07.24.23.23,0,0,1,0,.22,4.51,4.51,0,0,0-.08.53.29.29,0,0,1-.05.13h0c-.68,2-1,4.17-1.61,6.21a.65.65,0,0,0,0,.52l-.09.07a.51.51,0,0,0-.1.53.5.5,0,0,0,.44.29l.35,0h.17l.1,0,.66.12a5.76,5.76,0,0,0,1.44.12c.24,0,.36-.24.34-.52a2.44,2.44,0,0,1,0-.43,1.53,1.53,0,0,0,.11-.47.87.87,0,0,0,.1-.24c.06-.36.13-.71.19-1.06a.71.71,0,0,0,.15-.3c.21-.88.41-1.77.62-2.65a.73.73,0,0,0,0-.36c.16-.7.33-1.39.53-2.08A7.53,7.53,0,0,0,20.84,35l.15,0a17.94,17.94,0,0,0,.89,3.46.55.55,0,0,0,0,.18c.27,1.53.59,3,.95,4.55a.8.8,0,0,0,.08.16A3.68,3.68,0,0,0,23,44a.48.48,0,0,0,.59.33c.41-.09.83-.19,1.25-.26l.31,0h.09l.13,0c.2,0,.4,0,.59,0L26,44l.09,0a.33.33,0,0,0,.14,0,.16.16,0,0,0,.09,0,.24.24,0,0,0,.12-.07l.05-.07a.32.32,0,0,0,0-.19Z"/><path class="cls-6" d="M23.61,21.93l-.12.29c-.68,1.34-1.23,1.79-1.23,2.69"/><path class="cls-6" d="M23.77,19.58A4.85,4.85,0,0,1,23.82,21a5,5,0,0,1-.21,1"/><path class="cls-6" d="M20.52,16.82a5.76,5.76,0,0,1,.69.07,3.14,3.14,0,0,1,2.56,2.69"/><path class="cls-6" d="M17.49,22c0,.09.06.15.07.2.53,1.4,1.2,1.81,1.2,2.71"/><path class="cls-6" d="M20.52,16.82a5.76,5.76,0,0,0-.69.07,3,3,0,0,0-1.95,1.16"/><line class="cls-6" x1="16.82" y1="23.06" x2="13.03" y2="19.48"/><path class="cls-7" d="M28.07,44.87a1.4,1.4,0,0,1-.41-.13,3.62,3.62,0,0,0-.47-.13,6.29,6.29,0,0,0-.87-.13l-.95,0a.92.92,0,0,1-.36-.1.75.75,0,0,0-.34-.18,2.25,2.25,0,0,0-.93.07h-.25l-.07,0h0a.27.27,0,0,0-.08.07.41.41,0,0,0-.05.09.21.21,0,0,0,0,.11.16.16,0,0,0,0,.09l0,.06.08,0v0l0,0a.27.27,0,0,0,0,.37v0a.28.28,0,0,0,.3.13h0l.07,0a.33.33,0,0,0,.15,0,4.49,4.49,0,0,1,1,0,5.68,5.68,0,0,0,1.16.1c.18,0,.36-.05.54-.05a4.85,4.85,0,0,1,.53.08,1.82,1.82,0,0,0,1,0A.27.27,0,0,0,28.07,44.87Z"/><path class="cls-6" d="M25.53,45.38H23.42c-.13,0-.13-.14-.13-.14l.05-.94"/><path class="cls-6" d="M24.42,45.38h3.73s.29,0,.29-.19-.94-.88-3.52-.88v-.22"/><line class="cls-6" x1="21.02" y1="34.98" x2="23.13" y2="44.32"/><path class="cls-6" d="M23.13,44.32l3.45-.41s-2.73-9.24-3.33-12.17"/><path class="cls-6" d="M20.66,31.88a18.4,18.4,0,0,0,2.59-.14l.34-4.64a1.4,1.4,0,0,1-.3-.64"/><path class="cls-6" d="M21.88,34.8a3.21,3.21,0,0,1-1.06.18"/><path class="cls-7" d="M13.78,44.87a1.44,1.44,0,0,0,.4-.13,4.12,4.12,0,0,1,.47-.13,6.53,6.53,0,0,1,.87-.13l.95,0a.88.88,0,0,0,.36-.1.84.84,0,0,1,.35-.18,2.21,2.21,0,0,1,.92.07h.26l.06,0h0a.23.23,0,0,1,.07.07.41.41,0,0,1,.05.09.21.21,0,0,1,0,.11.16.16,0,0,1,0,.09l0,.06-.08,0v0l0,0a.27.27,0,0,1,0,.37v0a.28.28,0,0,1-.3.13h0l-.07,0a.33.33,0,0,1-.15,0,4.49,4.49,0,0,0-1,0,5.59,5.59,0,0,1-1.15.1c-.19,0-.36-.05-.55-.05a4.85,4.85,0,0,0-.53.08,1.79,1.79,0,0,1-1,0A.27.27,0,0,1,13.78,44.87Z"/><path class="cls-6" d="M16.31,45.38h2.11c.13,0,.13-.14.13-.14l-.05-.94"/><path class="cls-6" d="M17.42,45.38H13.69s-.29,0-.29-.19.95-.88,3.52-.88v-.22"/><line class="cls-6" x1="20.82" y1="34.98" x2="18.72" y2="44.32"/><path class="cls-6" d="M18.72,44.32l-3.45-.41s2.3-9.34,2.82-12.17"/><path class="cls-6" d="M20.69,31.88a18.48,18.48,0,0,1-2.6-.14s-.45-2.15-.71-4.79"/><path class="cls-6" d="M20,34.8A3.21,3.21,0,0,0,21,35"/><path class="cls-6" d="M11.93,20.12s2,3,3.79,5.26"/><line class="cls-6" x1="24.24" y1="23.01" x2="27.9" y2="19.48"/><path class="cls-6" d="M29.1,20s-2,3-3.8,5.28"/><path class="cls-8" d="M21.44,20.63a.63.63,0,0,1,.54-.46c.49,0,.59.46.62,1,0,.21,0,1.1-.56,1.14-.29,0-.43-.23-.5-.41"/><ellipse class="cls-6" cx="22" cy="21.28" rx="0.13" ry="0.22" transform="translate(-4.05 5.22) rotate(-12.39)"/><path class="cls-6" d="M22,20.81a.69.69,0,0,0-.12.45"/><path class="cls-7" d="M22.09,21.16s0,0,0,0l0,0a.09.09,0,0,0-.07,0,.09.09,0,0,0-.06,0v.08l0,.16,0,0s0,0,0,0a.11.11,0,0,0,.08,0s0,0,.06,0v-.07Z"/><path class="cls-6" d="M15.72,26c-.11-.05.1-.77.46-1.6s.75-1.48.87-1.43"/><line class="cls-6" x1="17.05" y1="22.95" x2="18.74" y2="24.64"/><path class="cls-6" d="M15.72,26l1.66,1a2.6,2.6,0,0,0,.26-.62"/><path class="cls-6" d="M25.34,26c.11-.05-.1-.77-.46-1.6S24.13,22.9,24,23"/><line class="cls-6" x1="24.01" y1="22.95" x2="22.32" y2="24.64"/><line class="cls-6" x1="25.34" y1="25.98" x2="23.63" y2="27.06"/><path class="cls-6" d="M22.45,24.85a3.39,3.39,0,0,1-1.95.53,3.41,3.41,0,0,1-2-.53"/><path class="cls-6" d="M17.78,20a.76.76,0,0,0-.74-.26c-.54.14-.57.78-.46,1.24s.37,1.05.89,1a.53.53,0,0,0,.45-.43"/><path class="cls-6" d="M17.26,20.26a.74.74,0,0,1,.12.33,4.89,4.89,0,0,0,.13.63"/><path class="cls-6" d="M17,20.69a.34.34,0,0,0,.4.1"/><path class="cls-6" d="M17.19,20.81a.33.33,0,0,1-.11.34"/><path class="cls-6" d="M23.77,19.32a.4.4,0,0,1,.19,0c.53.14.57.78.46,1.24a1.44,1.44,0,0,1-.65,1"/><path class="cls-6" d="M24,20.28l-.1.09"/><path class="cls-6" d="M23.86,20.69l.06.06"/><path class="cls-6" d="M17.14,21.9s-.33,1.41.91,1.35"/><path class="cls-6" d="M24,21.44s.38,1.9-1,1.63"/><path class="cls-6" d="M17.84,18.1a2.52,2.52,0,0,0,.57.52c.38.25.12,1.42-.77,1.25"/><path class="cls-6" d="M18,17.89s-.94.05-1,1.85"/><path class="cls-6" d="M23.71,19.33s-.55-.19-.69-1.41"/><path class="cls-6" d="M22.87,17.75s.72,0,1.05,1.57"/><path class="cls-7" d="M23.87,19c-.14-.3-.29-.6-.46-.89a.21.21,0,0,0-.28-.07.21.21,0,0,0-.07.27c.06.1.11.2.16.3a.19.19,0,0,0,0,.23,2.23,2.23,0,0,0,.35.4.2.2,0,0,0,.26,0A.21.21,0,0,0,23.87,19Z"/><path class="cls-7" d="M24,21.51a.18.18,0,0,0-.24,0,.63.63,0,0,0-.17.31c0,.06,0,.11-.05.16l0,.08v0h0a1.67,1.67,0,0,1-.18.28h0l0,.05-.05.07a.56.56,0,0,0-.1.15.19.19,0,0,0,0,.07.2.2,0,0,0,.17.3.18.18,0,0,0,.11,0,.45.45,0,0,0,.31-.11.78.78,0,0,0,.27-.37,1.43,1.43,0,0,0,.09-.41l0-.23s0-.07,0-.11h0l0-.07A.2.2,0,0,0,24,21.51Z"/><path class="cls-7" d="M17.93,23v0a.16.16,0,0,0-.11-.12h0l-.07,0h0a1.21,1.21,0,0,0-.05-.14l-.18-.56a.18.18,0,0,0-.19-.14.2.2,0,0,0-.19.14.86.86,0,0,0,0,.32h0a.56.56,0,0,0,.09.31l.05.06,0,0a1.33,1.33,0,0,0,.09.21.41.41,0,0,0,.14.12l0,0,.06.06a.18.18,0,0,0,.16,0A.2.2,0,0,0,17.93,23Z"/><path class="cls-7" d="M18.26,18.54l0,0h0Z"/><path class="cls-7" d="M18.35,18.6l-.09-.06h-.05l-.05-.06-.06-.07h0v0l-.1-.15a.3.3,0,0,0-.47-.06,2,2,0,0,0-.36.67c0,.11-.06.21-.08.32a1,1,0,0,0-.05.24.35.35,0,0,0,.16.31.31.31,0,0,0,.23,0h0l0,0a.78.78,0,0,0,.4.08.56.56,0,0,0,.41-.15,2.08,2.08,0,0,0,.19-.29,1.28,1.28,0,0,0,.13-.39A.46.46,0,0,0,18.35,18.6Z"/><path class="cls-9" d="M24.78,4.9l-6.3-.29a.6.6,0,0,0-.62.56l-.32,7.14a.58.58,0,0,0,.56.61l4.17.19A4.78,4.78,0,0,1,21.44,15a5.45,5.45,0,0,0,2.62-1.85l.34,0a.59.59,0,0,0,.61-.56l.33-7.14A.6.6,0,0,0,24.78,4.9Z"/><path class="cls-10" d="M19.42,8h0c0,.07,0,.12-.11.12s0,0-.08,0l0-.2c-.06-.54-.1-1.08-.16-1.63A2.57,2.57,0,0,0,19,5.91h0c0-.09.18-.09.19,0,.06.41.11,1,.16,1.38l0,.33a6,6,0,0,0,.15-.68.1.1,0,0,1,.1-.08s.07,0,.09,0l.28.85c.05-.53.16-1.41.22-1.87,0-.08.17-.08.17,0a1.76,1.76,0,0,1-.06.39c-.08.63-.13,1.26-.19,1.88,0,0,0,.07-.08.07h0c-.07,0-.07-.07-.09-.14l-.3-.94C19.56,7.53,19.47,7.75,19.42,8Z"/><path class="cls-10" d="M21.52,5.84c.53.09.38,1.36.32,1.76,0,.21-.16.59-.46.57-.53,0-.5-.94-.48-1.28S21,5.81,21.52,5.84Zm-.45,1c-.05.88.1,1.13.31,1.14s.34-.74.35-.93h0c0-.23,0-1.07-.28-1.09s-.35.48-.36.63S21.07,6.8,21.07,6.88Z"/><path class="cls-10" d="M23.16,5.94c.53.09.38,1.36.32,1.75,0,.22-.16.59-.46.57-.53,0-.5-.93-.48-1.28S22.63,5.91,23.16,5.94Zm-.45,1c-.05.87.1,1.12.31,1.14s.34-.75.35-.93h0c0-.24,0-1.08-.28-1.09s-.35.48-.36.63A2.46,2.46,0,0,0,22.71,7Z"/><path class="cls-10" d="M18.87,10.75l-.05.85c0,.13-.17.07-.17,0s0-.6.05-.71.1-1.43.12-1.66a.13.13,0,0,1,.09,0s.06,0,.08.07c0,.29-.06.69-.08,1,0,0,0,.23,0,.27s0,0,.06,0l.34,0c.05-.34.09-.92.11-1.3h0a.06.06,0,0,1,.08-.06.13.13,0,0,1,.09.06,3.16,3.16,0,0,1,0,.32,11.88,11.88,0,0,1-.18,2.06c-.11,0-.1-.13-.09-.33,0,0,0-.54,0-.59Z"/><path class="cls-10" d="M20.77,9.39c.53.09.38,1.36.33,1.76,0,.21-.17.58-.47.57-.52,0-.5-.94-.47-1.29S20.25,9.36,20.77,9.39Zm-.44,1c0,.88.09,1.13.3,1.14s.34-.74.36-.93h0c0-.23,0-1.07-.29-1.09s-.35.48-.36.63S20.33,10.35,20.33,10.43Z"/><path class="cls-10" d="M22.41,9.49c.54.09.38,1.36.33,1.75,0,.22-.17.59-.47.57-.52,0-.49-.93-.47-1.28S21.89,9.46,22.41,9.49Zm-.44,1c0,.87.09,1.12.3,1.13s.35-.74.36-.92v0c0-.23,0-1.07-.29-1.08s-.35.48-.35.63A2.46,2.46,0,0,0,22,10.53Z"/><path class="cls-10" d="M23.52,11.75a.13.13,0,0,1,.12.16c0,.06-.06.07-.12.06s-.11-.05-.11-.13S23.48,11.75,23.52,11.75Zm0-2.2s.09,0,.09.07,0,.26,0,.3c0,.62,0,1,0,1.6,0,0,0,.09-.07.09s-.09-.12-.09-.2h0c0-.69,0-1.11,0-1.79C23.49,9.56,23.5,9.55,23.55,9.55Z"/><line class="cls-6" x1="34.99" y1="17.54" x2="35.51" y2="15.38"/><line class="cls-6" x1="26.56" y1="17.41" x2="26.28" y2="15.1"/><path class="cls-6" d="M26.41,14.31c0,.28,2,.55,4.48.62s4.5-.12,4.51-.39-2-1.49-4.48-1.55S26.41,14,26.41,14.31Z"/><path class="cls-6" d="M35.31,14.41a.49.49,0,0,1,.3.13.61.61,0,0,1,.35.07c.17.09.26.23.2.31h0l0,0c.06.09-.08.23-.31.31a.81.81,0,0,1-.38.07.76.76,0,0,1-.37.15.84.84,0,0,1-.36,0,1,1,0,0,1-.36.11.84.84,0,0,1-.37,0,.81.81,0,0,1-.36.1,1,1,0,0,1-.39-.06.87.87,0,0,1-.37.09,1,1,0,0,1-.39-.07.77.77,0,0,1-.38.08.94.94,0,0,1-.37-.07.87.87,0,0,1-.36.06.78.78,0,0,1-.22,0"/><path class="cls-6" d="M26.5,14.19a.56.56,0,0,0-.31.11.66.66,0,0,0-.35,0c-.18.09-.28.22-.21.3h0l0,0c-.06.09.07.24.3.33a1,1,0,0,0,.37.09.8.8,0,0,0,.37.17,1.11,1.11,0,0,0,.36,0,.84.84,0,0,0,.35.12,1.1,1.1,0,0,0,.37,0,1,1,0,0,0,.36.11.87.87,0,0,0,.38,0,.87.87,0,0,0,.38.1.73.73,0,0,0,.38,0,.76.76,0,0,0,.38.09,1,1,0,0,0,.37,0,.85.85,0,0,0,.36.07l.2,0"/><path class="cls-6" d="M31.18,15.64a.86.86,0,0,1-.31,0,.75.75,0,0,1-.33-.06"/><path class="cls-6" d="M30.33,18.58a1.38,1.38,0,0,0-.91-.24c-1.34.1-1.46,1.09-1.46,1.09"/><path class="cls-6" d="M31.56,18.35l-1.23.23"/><path class="cls-6" d="M30.31,19.58s1.17-.33,1.67-.45"/><path class="cls-6" d="M31.56,18.35c.4-.08,1.18-.1,1.3.24s-.37.43-.37.43l-.51.11"/><path class="cls-6" d="M31.53,18.36h0"/><path class="cls-6" d="M32.36,19.5l1-.05s.47,0,.39-.35a.46.46,0,0,0-.35-.27"/><path class="cls-6" d="M30.31,19.58l2.05-.08"/><path class="cls-6" d="M32.13,19.9l1,0s.47,0,.39-.35"/><path class="cls-6" d="M32.13,19.9l-3,.09a2,2,0,0,0-.28-.21"/><path class="cls-6" d="M34.58,17.61l-.64,0-8.58-.21a1.85,1.85,0,0,0,1.42.77"/><path class="cls-6" d="M35.18,18.29a1.9,1.9,0,0,0,1-.64L34,17.59"/><path class="cls-6" d="M28.24,18.68a2.25,2.25,0,0,1-1.43-.53l3.21.08,4.66.12a1.6,1.6,0,0,0,.5-.06"/><path class="cls-6" d="M28.39,18.68h-.15"/><path class="cls-6" d="M34.64,18.36a2.31,2.31,0,0,1-1.6.44h-.16"/><line class="cls-6" x1="5.75" y1="18.57" x2="4.91" y2="16.5"/><line class="cls-6" x1="14.06" y1="17.2" x2="14" y2="14.87"/><path class="cls-6" d="M13.76,14.11c.05.27-1.9.84-4.34,1.27s-4.47.54-4.52.27,1.76-1.76,4.2-2.19S13.71,13.84,13.76,14.11Z"/><path class="cls-6" d="M5,15.51a.47.47,0,0,0-.27.18.5.5,0,0,0-.33.11c-.17.12-.23.27-.16.34h0s0,0,0,0,.12.21.36.27a.81.81,0,0,0,.38,0,.65.65,0,0,0,.39.1.93.93,0,0,0,.36-.06.76.76,0,0,0,.36.05,1.13,1.13,0,0,0,.37-.08.82.82,0,0,0,.37,0,.71.71,0,0,0,.37-.11.78.78,0,0,0,.39,0,.8.8,0,0,0,.37-.12.94.94,0,0,0,.39,0,.89.89,0,0,0,.35-.12.76.76,0,0,0,.37,0l.21-.05"/><path class="cls-6" d="M13.65,14a.54.54,0,0,1,.32.07.59.59,0,0,1,.35,0c.2,0,.31.17.26.27h0l0,0c.07.08,0,.24-.25.37a.83.83,0,0,1-.35.14.73.73,0,0,1-.34.22.8.8,0,0,1-.35.06.92.92,0,0,1-.33.18,1,1,0,0,1-.37,0,.9.9,0,0,1-.34.16.89.89,0,0,1-.39,0,1,1,0,0,1-.35.16,1,1,0,0,1-.39,0,.81.81,0,0,1-.36.15.76.76,0,0,1-.37,0,.75.75,0,0,1-.35.13.46.46,0,0,1-.2,0"/><path class="cls-6" d="M9.24,16.13a1.12,1.12,0,0,0,.31,0A.75.75,0,0,0,9.86,16"/><path class="cls-6" d="M10.5,18.9a1.42,1.42,0,0,1,.87-.36,1.39,1.39,0,0,1,1.6.86"/><path class="cls-6" d="M9.26,18.86l1.24,0"/><path class="cls-6" d="M10.67,19.89S9.47,19.74,9,19.7"/><path class="cls-6" d="M9.26,18.86c-.42,0-1.19.08-1.26.42s.43.38.43.38l.52,0"/><path class="cls-6" d="M9.28,18.86h0"/><path class="cls-6" d="M8.63,20.11l-1,.11s-.47.07-.44-.29c0-.14.14-.24.3-.32"/><path class="cls-6" d="M10.67,19.89l-2,.22"/><path class="cls-6" d="M8.91,20.48l-1,.11s-.47.07-.43-.29"/><path class="cls-6" d="M8.91,20.48c.69-.07,2.86-.34,3-.36a1.15,1.15,0,0,1,.16-.23"/><path class="cls-6" d="M6.16,18.57l.62-.11L15.24,17A1.84,1.84,0,0,1,14,18"/><path class="cls-6" d="M5.67,19.33a2,2,0,0,1-1-.49l2.1-.37"/><path class="cls-6" d="M12.58,18.7A2.25,2.25,0,0,0,13.92,18l-3.16.55-4.59.8a1.69,1.69,0,0,1-.5,0"/><path class="cls-6" d="M12.44,18.73l.14,0"/><path class="cls-6" d="M6.21,19.32a2.3,2.3,0,0,0,1.64.2l.17,0"/><path class="cls-7" d="M22.32,27.58a1.53,1.53,0,0,1-.13.68,1.32,1.32,0,0,1-.38.46,1.68,1.68,0,0,1-.56.25,3.1,3.1,0,0,1-.69.08V30H19.33V26.12h1.23a2.61,2.61,0,0,1,.69.08,1.68,1.68,0,0,1,.56.25,1.32,1.32,0,0,1,.38.46A1.51,1.51,0,0,1,22.32,27.58ZM20.56,28h.05A.49.49,0,0,0,21,27.9a.46.46,0,0,0,.1-.32.43.43,0,0,0-.1-.31.45.45,0,0,0-.35-.11h-.05Z"/><path class="cls-8" d="M20.67,19.89a1,1,0,0,1,0-.17.73.73,0,0,1,.73-.72.72.72,0,0,1,.72.72.73.73,0,0,1-.72.73.87.87,0,0,1-.28-.05"/><path class="cls-6" d="M20.6,19.78a.86.86,0,0,1-.28,0,.92.92,0,1,1,.92-.92"/><path class="cls-6" d="M21.33,18.9a.92.92,0,1,1,.92.92h-.11"/><path class="cls-7" d="M20.32,18.58a.3.3,0,0,0,0,.6A.3.3,0,0,0,20.32,18.58Z"/><path class="cls-7" d="M22.29,18.58a.3.3,0,0,0,0,.6A.3.3,0,0,0,22.29,18.58Z"/></g></svg>