<svg xmlns="http://www.w3.org/2000/svg" viewBox="0 0 52.04 170.59"><defs><style>.cls-1{fill:#ea4827;}.cls-2,.cls-4{fill:none;stroke-linecap:round;stroke-linejoin:round;stroke-width:0.4px;}.cls-2{stroke:#1c204d;}.cls-3{fill:#f47951;}.cls-4{stroke:#f8c6dc;}</style></defs><g id="Layer_1" data-name="Layer 1"><path class="cls-1" d="M34.14,10.5H30.59a1.57,1.57,0,0,0-1.48,1.06l-3.23,9.37-3.26-9.38a1.58,1.58,0,0,0-1.48-1.05H17.62a1.57,1.57,0,0,0-1.56,1.57V37.64a1.56,1.56,0,0,0,1.56,1.56h3.66a1.56,1.56,0,0,0,1.57-1.56V31.69l.61,1.87A1.57,1.57,0,0,0,25,34.64h1.83a1.57,1.57,0,0,0,1.49-1.08l.64-2v6a1.57,1.57,0,0,0,1.57,1.56h3.66a1.57,1.57,0,0,0,1.57-1.56V12.07A1.58,1.58,0,0,0,34.14,10.5Z"/><path class="cls-2" d="M34.14,10.5H30.59a1.57,1.57,0,0,0-1.48,1.06l-3.23,9.37-3.26-9.38a1.58,1.58,0,0,0-1.48-1.05H17.62a1.57,1.57,0,0,0-1.56,1.57V37.64a1.56,1.56,0,0,0,1.56,1.56h3.66a1.56,1.56,0,0,0,1.57-1.56V31.69l.61,1.87A1.57,1.57,0,0,0,25,34.64h1.83a1.57,1.57,0,0,0,1.49-1.08l.64-2v6a1.57,1.57,0,0,0,1.57,1.56h3.66a1.57,1.57,0,0,0,1.57-1.56V12.07A1.58,1.58,0,0,0,34.14,10.5Z"/><path class="cls-3" d="M34.14,38.46H30.48a.73.73,0,0,1-.73-.73V26.48L27.47,33.4a.73.73,0,0,1-.69.49H25a.72.72,0,0,1-.69-.5L22,26.52V37.73a.73.73,0,0,1-.73.73H17.62a.73.73,0,0,1-.72-.73V12.16a.72.72,0,0,1,.72-.72h3.52a.72.72,0,0,1,.69.48l4.05,11.67,4-11.66a.72.72,0,0,1,.69-.49h3.55a.73.73,0,0,1,.73.72V37.73A.73.73,0,0,1,34.14,38.46ZM31.2,37h2.22V12.89H31.1L26.6,25.94a.72.72,0,0,1-.68.49.83.83,0,0,1-.76-.49l-4.53-13H18.35V37h2.21V22.18a.73.73,0,0,1,.72-.73.84.84,0,0,1,.77.5l3.42,10.49h.78L29.72,22a.73.73,0,0,1,.69-.5.79.79,0,0,1,.79.73Z"/><path class="cls-4" d="M26.57,33H24.85l-3.5-10.27v15H17.64V12.24c.12,0,3.55,0,3.55,0l4.69,13"/><path class="cls-4" d="M25.18,33H26.9l3.5-10.27v15h3.71V12.24c-.12,0-3.55,0-3.55,0l-4.69,13"/><path class="cls-1" d="M32.74,41H28.86a1.56,1.56,0,0,0-1.5,1.13l-1.48,5.1-1.48-5.1A1.56,1.56,0,0,0,22.9,41H19a1.57,1.57,0,0,0-1.27.65A1.59,1.59,0,0,0,17.54,43l4.95,14.51V68.09a1.57,1.57,0,0,0,1.56,1.57h3.66a1.57,1.57,0,0,0,1.57-1.57V57.54L34.22,43A1.56,1.56,0,0,0,32.74,41Z"/><path class="cls-2" d="M32.74,41H28.86a1.56,1.56,0,0,0-1.5,1.13l-1.48,5.1-1.48-5.1A1.56,1.56,0,0,0,22.9,41H19a1.57,1.57,0,0,0-1.27.65A1.59,1.59,0,0,0,17.54,43l4.95,14.51V68.09a1.57,1.57,0,0,0,1.56,1.57h3.66a1.57,1.57,0,0,0,1.57-1.57V57.54L34.22,43A1.56,1.56,0,0,0,32.74,41Z"/><path class="cls-3" d="M27.71,68.91H24.05a.73.73,0,0,1-.73-.72V57.5l-5-14.65a.72.72,0,0,1,.68-1H22.9a.74.74,0,0,1,.7.53l2.28,7.87,2.29-7.87a.73.73,0,0,1,.69-.53h3.88a.71.71,0,0,1,.59.3.74.74,0,0,1,.1.66l-5,14.65V68.19A.73.73,0,0,1,27.71,68.91Zm-2.93-1.45H27V57.38a.67.67,0,0,1,0-.24l4.7-13.8H29.41L26.61,53a.72.72,0,0,1-.69.52.81.81,0,0,1-.77-.52l-2.79-9.64H20l4.7,13.8a1,1,0,0,1,0,.24Z"/><polyline class="cls-4" points="25.83 52.16 22.93 42.68 19.02 42.68 24.04 57.33 24.04 68.16 25.88 68.16"/><polyline class="cls-4" points="25.83 52.16 28.73 42.68 32.63 42.68 27.62 57.33 27.62 68.16 25.77 68.16"/><path class="cls-1" d="M33,77.13a7.09,7.09,0,0,0-1.66-3,6.58,6.58,0,0,0-2.72-1.81,9.72,9.72,0,0,0-3.17-.49H19.94a1.57,1.57,0,0,0-1.56,1.57V99a1.56,1.56,0,0,0,1.56,1.56H23.6A1.57,1.57,0,0,0,25.17,99V90.54h.3a8.22,8.22,0,0,0,4.06-.9,6.81,6.81,0,0,0,2.58-2.5,7.47,7.47,0,0,0,1.06-2.79,19.18,19.18,0,0,0,.22-3.17A16.49,16.49,0,0,0,33,77.13Zm-6.21,4.66a3.34,3.34,0,0,1-.1.62,2,2,0,0,1,0,.23.65.65,0,0,1,.05.2,1.19,1.19,0,0,1-.31.88,1.33,1.33,0,0,1-.84.35.56.56,0,0,1-.55-.43.24.24,0,0,1,0-.08l0-.09a25.7,25.7,0,0,1,0-3,3.4,3.4,0,0,1,0-1.19v0l0,0a.61.61,0,0,1,.42-.74,1.06,1.06,0,0,1,.43,0,.63.63,0,0,1,.42.17,1,1,0,0,1,.31.31,2.2,2.2,0,0,1,.3,1,6.56,6.56,0,0,1,0,1A7.28,7.28,0,0,1,26.77,81.79Z"/><path class="cls-2" d="M31.32,74.12a6.58,6.58,0,0,0-2.72-1.81,9.72,9.72,0,0,0-3.17-.49H19.94a1.57,1.57,0,0,0-1.56,1.57V99a1.56,1.56,0,0,0,1.56,1.56H23.6A1.57,1.57,0,0,0,25.17,99V90.54h.3a8.22,8.22,0,0,0,4.06-.9,6.81,6.81,0,0,0,2.58-2.5,7.47,7.47,0,0,0,1.06-2.79,19.18,19.18,0,0,0,.22-3.17A16.49,16.49,0,0,0,33,77.13,7.09,7.09,0,0,0,31.32,74.12Z"/><path class="cls-3" d="M23.6,99.78H19.94a.73.73,0,0,1-.73-.73V73.48a.73.73,0,0,1,.73-.72h5.49a8.89,8.89,0,0,1,2.9.43,6,6,0,0,1,2.38,1.59,6.32,6.32,0,0,1,1.46,2.66,15.81,15.81,0,0,1,.38,3.84,18.45,18.45,0,0,1-.21,3,6.68,6.68,0,0,1-.94,2.49A6,6,0,0,1,29.12,89a7.42,7.42,0,0,1-3.65.79H24.33v9.26A.73.73,0,0,1,23.6,99.78Zm-2.93-1.45h2.21V89.07a.73.73,0,0,1,.72-.73h1.87a6,6,0,0,0,3-.61A4.62,4.62,0,0,0,30.16,86a5.22,5.22,0,0,0,.75-2,16.87,16.87,0,0,0,.19-2.79,14.19,14.19,0,0,0-.33-3.46,4.71,4.71,0,0,0-1.13-2,4.36,4.36,0,0,0-1.79-1.2,7.34,7.34,0,0,0-2.42-.36H20.67Zm4.69-12H23.6a.73.73,0,0,1-.72-.73V76.93a.72.72,0,0,1,.72-.72h1.91a4,4,0,0,1,2,.41,2.8,2.8,0,0,1,1.17,1.26,4.47,4.47,0,0,1,.39,1.69q0,.83,0,1.74c0,.67,0,1.27-.05,1.81a3.94,3.94,0,0,1-.43,1.62,2.76,2.76,0,0,1-1.19,1.2A4.5,4.5,0,0,1,25.36,86.35Zm-1-1.46h1a3.09,3.09,0,0,0,1.39-.23,1.3,1.3,0,0,0,.58-.58A2.54,2.54,0,0,0,27.6,83c0-.51,0-1.08,0-1.71s0-1.14,0-1.67a3,3,0,0,0-.26-1.14,1.28,1.28,0,0,0-.56-.61,2.62,2.62,0,0,0-1.29-.23H24.33Z"/><path class="cls-2" d="M25,84.14h.6a1.31,1.31,0,0,0,.8-.19,1,1,0,0,0,.34-.47,2.8,2.8,0,0,0,.16-.85q0-.63,0-1.38c0-.48,0-.93,0-1.36a3.11,3.11,0,0,0-.15-.92,1,1,0,0,0-.33-.5,1.19,1.19,0,0,0-.74-.18H25Z"/><path class="cls-4" d="M19.84,73.55l6.77,0s5.26-.19,5.26,8c0,7.81-5.41,7.61-5.41,7.61H23.64l0,9.92H20Z"/><path class="cls-4" d="M23.64,81.92V77h2.09c1.81,0,2.59.81,2.68,3.93v.72c-.09,3.12-.87,3.94-2.68,3.94H23.64V81.86"/><rect class="cls-1" x="22.49" y="102.69" width="6.79" height="28.7" rx="1.56"/><rect class="cls-2" x="22.49" y="102.69" width="6.79" height="28.7" rx="1.56"/><path class="cls-3" d="M27.71,130.64H24.05a.73.73,0,0,1-.73-.72V104.35a.73.73,0,0,1,.73-.73h3.66a.73.73,0,0,1,.73.73v25.57A.73.73,0,0,1,27.71,130.64Zm-2.93-1.45H27V105.08H24.78Z"/><polygon class="cls-4" points="24.11 104.41 27.63 104.41 27.87 129.9 24.11 129.9 24.11 104.41"/><path class="cls-1" d="M31.58,140.84a1.63,1.63,0,0,0,1.63-1.63v-3.6A1.63,1.63,0,0,0,31.58,134H20.19a1.63,1.63,0,0,0-1.63,1.63v26.68a1.63,1.63,0,0,0,1.63,1.63H31.58a1.63,1.63,0,0,0,1.63-1.63v-3.82a1.63,1.63,0,0,0-1.63-1.63H25.64v-4.57h5a1.63,1.63,0,0,0,1.63-1.63V147a1.63,1.63,0,0,0-1.63-1.63h-5v-4.57Z"/><path class="cls-2" d="M31.58,140.84a1.63,1.63,0,0,0,1.63-1.63v-3.6A1.63,1.63,0,0,0,31.58,134H20.19a1.63,1.63,0,0,0-1.63,1.63v26.68a1.63,1.63,0,0,0,1.63,1.63H31.58a1.63,1.63,0,0,0,1.63-1.63v-3.82a1.63,1.63,0,0,0-1.63-1.63H25.64v-4.57h5a1.63,1.63,0,0,0,1.63-1.63V147a1.63,1.63,0,0,0-1.63-1.63h-5v-4.57Z"/><path class="cls-3" d="M31.24,163.14H20.32a.74.74,0,0,1-.72-.75V135.82a.74.74,0,0,1,.72-.75H31.24a.74.74,0,0,1,.73.75v3.58a.75.75,0,0,1-.73.76H24.71v6.29h5.6a.74.74,0,0,1,.72.75v3.58a.74.74,0,0,1-.72.76h-5.6v6.29h6.53a.74.74,0,0,1,.73.75v3.81A.74.74,0,0,1,31.24,163.14Zm-10.19-1.51h9.46v-2.29H24a.75.75,0,0,1-.73-.76v-7.8A.74.74,0,0,1,24,150h5.59V148H24a.75.75,0,0,1-.73-.76v-7.8a.74.74,0,0,1,.73-.75h6.52v-2.07H21.05Z"/><polygon class="cls-4" points="20.11 135.76 31.45 135.76 31.45 139.32 24.14 139.32 24.14 147.17 30.51 147.17 30.51 150.6 24.18 150.6 24.18 158.51 31.45 158.51 31.45 162.36 20.11 162.36 20.11 135.76"/></g></svg>