<svg xmlns="http://www.w3.org/2000/svg" viewBox="0 0 38.24 37.67"><defs><style>.cls-1,.cls-8{fill:#f59da0;}.cls-2{fill:#f47951;}.cls-3{fill:#1c204d;}.cls-11,.cls-16,.cls-4,.cls-7{fill:none;}.cls-4{stroke:#1b1f4b;}.cls-11,.cls-13,.cls-16,.cls-4,.cls-7,.cls-8{stroke-linecap:round;stroke-linejoin:round;stroke-width:0.4px;}.cls-5{fill:#0776bd;}.cls-6{fill:#b1dceb;}.cls-13,.cls-7,.cls-8{stroke:#172349;}.cls-9{fill:#172349;}.cls-10{fill:#fff;}.cls-11{stroke:#1a224d;}.cls-12{fill:#1b1f4b;}.cls-13{fill:#0d773c;}.cls-14{fill:#89d3de;}.cls-15{fill:#f9b730;}.cls-16{stroke:#1c204d;}</style></defs><g id="Layer_2" data-name="Layer 2"><path class="cls-1" d="M23.79,10.84c-.71-.25-1.5-.52-2.19-.8s-1.12-.43-1.67-.67a.32.32,0,0,0-.37.11,6.92,6.92,0,0,0-.95,2.87.3.3,0,0,0,.09.25,3.62,3.62,0,0,0,.06,1A6.88,6.88,0,0,1,19,15.26a.43.43,0,0,0,.05.23.29.29,0,0,0,0,.33s0,0,0,0S19,16,19,16.14L18.83,16a.44.44,0,0,0-.16-.06.25.25,0,0,0-.12,0,.21.21,0,0,0-.1.06.26.26,0,0,0-.1.13s0,0,0,.07a.29.29,0,0,0,0,.09.77.77,0,0,0,0,.15,1.44,1.44,0,0,0-.08.33,1.42,1.42,0,0,0,.14.76,1.56,1.56,0,0,0,1,.89.57.57,0,0,0,.26,0,.87.87,0,0,0,.42.17,2.9,2.9,0,0,0,.41.06,7,7,0,0,0,.79.07,1.51,1.51,0,0,0,.76-.23l.05,0a1.61,1.61,0,0,0,.26-.15A1.85,1.85,0,0,0,22.7,18c.1-.12.17-.27.28-.39a.32.32,0,0,0,0-.35.32.32,0,0,0-.31-.14,2.14,2.14,0,0,1-.35.06h-.09a.8.8,0,0,0,.08-.16.49.49,0,0,0,.05-.16c.14,0,.23-.16.29-.29.23-.54.37-.24.53-.55a1.24,1.24,0,0,0,.11-.47,17,17,0,0,0,.15-1.89v-.07a.59.59,0,0,0,0-.08c.13-.45.16-.95.33-1.39a.26.26,0,0,0,0-.27,4.36,4.36,0,0,1,.27-.59C24.17,11.08,24,10.9,23.79,10.84Zm-4.32.47A5.77,5.77,0,0,1,20,10.09l.6.24a1.8,1.8,0,0,0-.69.5,2,2,0,0,0-.28.49Z"/><path class="cls-2" d="M24.17,17.21l-.25.05a.54.54,0,0,0-.18,0,1,1,0,0,1-.24,0,.4.4,0,0,0-.48.28,2,2,0,0,1-2,1.28,2.57,2.57,0,0,1-1.37-.23,6.68,6.68,0,0,1-1.18-.85.46.46,0,0,0-.14-.07.5.5,0,0,1,0-.12v-.09a.36.36,0,0,0,0-.21c0-.12,0-.24,0-.36a2.33,2.33,0,0,1,.08-.46,1.29,1.29,0,0,0,.06-.47.59.59,0,0,0-.24-.33.48.48,0,0,0-.24-.38.66.66,0,0,0-.2-.06.28.28,0,0,0-.31.07.44.44,0,0,0-.16.17,5.92,5.92,0,0,0-.71,1.86.51.51,0,0,0,.34.61.58.58,0,0,0,.26,0l.1.07a.46.46,0,0,0,.13.08,4.06,4.06,0,0,1-.27.6c-.2.41-.38.83-.57,1.24s-.5.84-.74,1.26l-.35.64a2,2,0,0,0-.27.58c-.07.42.55.71.85.89s.86.38,1.27.62a10.44,10.44,0,0,0,2.64,1,.35.35,0,0,0,.27,0h0a1.83,1.83,0,0,0,1,.14.42.42,0,0,0,.25.1.4.4,0,0,0,.4-.4c.16-1.53.7-3,1-4.52A.35.35,0,0,0,23,20h.22l.14,0a3.19,3.19,0,0,1,.52.16.2.2,0,0,0,.24,0,.21.21,0,0,0,0-.24l-.07-.08a.23.23,0,0,0,.07-.19,3.85,3.85,0,0,1,.33-2A.3.3,0,0,0,24.17,17.21Z"/><path class="cls-3" d="M7.92,31.71h0a.37.37,0,0,0,.15-.08l.29-.26a.47.47,0,0,0,.09-.12l.09,0c.29-.21.86-.43.78-.86-.05-.26-.12-.51-.15-.77a1.43,1.43,0,0,0-.09-.42l-.08,0a.24.24,0,0,0-.21-.12H8.51a.18.18,0,0,0-.1,0c0-.12,0-.23-.05-.34s-.09-.49-.15-.74a9.48,9.48,0,0,0-.33-.94l0-.08a2.9,2.9,0,0,0-1.51-1.4h0a.23.23,0,0,0-.2,0,.21.21,0,0,0-.14.1.23.23,0,0,0,0,.24.24.24,0,0,0,.09.19l0,0s0,0,0,.06v0a.24.24,0,0,0,0,.08.8.8,0,0,0,.18.41,1,1,0,0,0,0,.24,4.26,4.26,0,0,1,.15.47.25.25,0,0,0,0,.17s0,.1,0,.15a.25.25,0,0,0,0,.08,3,3,0,0,0,.22.64l0,.1A2.76,2.76,0,0,0,7,29.83a10.86,10.86,0,0,1,.43,1.79A.29.29,0,0,0,7.92,31.71Z"/><path class="cls-4" d="M7.71,31.9l1.61-1.2"/><path class="cls-4" d="M7.73,31.88a.21.21,0,0,1-.21.05l-1.6-6.41s1.77.05,2.41,3.07a2,2,0,0,1-.14,1.25"/><path class="cls-4" d="M9,29.08s-.48.17-.62-.45"/><path class="cls-5" d="M18.12,27l.74-.55a.71.71,0,0,0,.26-.21s0,0,0,0a.28.28,0,0,0,.28,0A8.66,8.66,0,0,0,21,25a12.11,12.11,0,0,1-4.42-1.45.46.46,0,0,1-.24-.24,3.24,3.24,0,0,1-.56-.28,11.33,11.33,0,0,0-.41,2.15s-1.95,1-3,1.74a7.28,7.28,0,0,1-1.45.79.69.69,0,0,0-.38.29l-.88.46a2.16,2.16,0,0,0-.74.42c-.28.35.12,1.1.3,1.49a.23.23,0,0,0,0,.27,3.21,3.21,0,0,1,.22.54c.06.18.08.38.15.55a.3.3,0,0,0,.57,0l.19-.06c1-.54,1.85-1.13,2.78-1.74a15.41,15.41,0,0,1,1.41-.84,2,2,0,0,0,.72-.48h0L15.62,30a.45.45,0,0,0,0,.11l.07.21a.41.41,0,0,0,.12.19c.1.41.2.82.29,1.23a.34.34,0,0,0,0,.14l.11.42a.39.39,0,0,0,.12.19.26.26,0,0,0,0,.15.43.43,0,0,0,.32.25,1.11,1.11,0,0,0,.62-.08h.09l.7,0a.22.22,0,0,0,.17-.07,2.53,2.53,0,0,0,1.32-.12c.21-.11.11-.39-.05-.48L19.45,32a.46.46,0,0,0-.1-.18,7.34,7.34,0,0,1-.84-1.44L17.67,29c.08-.3.16-.61.23-.91A5.38,5.38,0,0,0,18.12,27Z"/><path class="cls-3" d="M20.33,34.21h0a.32.32,0,0,0-.06-.15l-.22-.32a.35.35,0,0,0-.11-.1.19.19,0,0,0,0-.1c-.17-.31-.32-.91-.76-.88-.26,0-.44.18-.71.18a2.4,2.4,0,0,0-.46,0s0,0,0,0a.27.27,0,0,0-.14.2,2.36,2.36,0,0,0,0,.28s-.11,0-.1,0-.13.08-.24.08l-.75.06a10,10,0,0,0-1,.21l-.08,0A2.91,2.91,0,0,0,14.1,35a3.32,3.32,0,0,0,.63,0,4.45,4.45,0,0,1,.73,0c.28,0,.55,0,.82,0a2.31,2.31,0,0,1,.37,0L16.9,35H17A3,3,0,0,0,18.4,35a14.72,14.72,0,0,1,2.1,0C20.74,35,20.53,34.34,20.33,34.21Z"/><line class="cls-4" x1="17.62" y1="28.75" x2="18.29" y2="26.83"/><path class="cls-4" d="M15.29,29c0-.05,0-.11,0-.18"/><path class="cls-4" d="M16.43,32.85a6.69,6.69,0,0,0,1.68,0,4.9,4.9,0,0,0,1.69-.31"/><path class="cls-4" d="M16.88,24.43l-8,4.46a6.88,6.88,0,0,0,.34,1.65,5.19,5.19,0,0,0,.61,1.6L20.23,25.6A8.27,8.27,0,0,0,21,25"/><line class="cls-4" x1="16.4" y1="32.83" x2="15.31" y2="29.02"/><path class="cls-4" d="M19.8,32.51,17.59,28.8a2.62,2.62,0,0,1-.51,0"/><line class="cls-4" x1="15.67" y1="23.06" x2="15.4" y2="25.26"/><path class="cls-4" d="M17.86,32.84s.11.51-.52.56c0,0-2.55-.08-3.27,1.6H20.5s.29,0,0-.56l-1-1.75"/><path class="cls-1" d="M27.9,13.38a3.83,3.83,0,0,0-.67.34c-.2.56-.53,1.06-.74,1.62,0,0,0,0,0,0a.55.55,0,0,0-.1.11,9.44,9.44,0,0,0-.52.94.37.37,0,0,0-.05.17.21.21,0,0,0-.06.1c-.15.34-.31.66-.48,1l-.35-.08a.43.43,0,0,0-.56.46,9.73,9.73,0,0,1-.15,1.31.43.43,0,0,0,.38.46,5.93,5.93,0,0,1,1.19,0,.42.42,0,0,0,.54-.23c.09-.23.16-.45.23-.68a.19.19,0,0,0,.05-.09c.12-.24.22-.48.33-.72a.37.37,0,0,0,0-.29l.6-1.41a.37.37,0,0,0,0-.31c.13-.31.27-.61.42-.92a.16.16,0,0,0,0-.06A.59.59,0,0,0,28,15s.21-.51.24-.55C28,14.05,28.08,13.85,27.9,13.38Z"/><path class="cls-1" d="M17,15c-.1-.07-.2-.13-.3-.21s0,0,0,0c0-.18.08-.36.11-.54v0c0-.53.06-1.07.09-1.6,0-.22,0-.43,0-.65a.67.67,0,0,1-.14-.09.68.68,0,0,1-.19-.46c0-.42,0-.83-.07-1.24a1.12,1.12,0,0,0-.41.07c-.22.12-.48.37-.69.51s.16.87.08.92,0,.61,0,.63l-.23,1.39c-.18.63-.28,1.29-.44,1.92a.44.44,0,0,0,0,.28.57.57,0,0,0,0,.14v0a.36.36,0,0,0,.22.36h0a1,1,0,0,0,.74.28,1.59,1.59,0,0,0,.35.22c.06,0,.29.21.36.2s.2-.25.22-.48v-.23c.06-.16.09-.32.14-.48a.35.35,0,0,0,0-.17.56.56,0,0,0,0-.08h0a.29.29,0,0,0,.18-.23A.42.42,0,0,0,17,15Z"/><path class="cls-4" d="M28.19,14.62l-1.76,4.84s-.15.43-.48.4-1.73-.12-1.73-.12"/><path class="cls-4" d="M24.45,17.58l.78.08.31.53"/><line class="cls-4" x1="25.23" y1="17.66" x2="27.34" y2="13.66"/><path class="cls-4" d="M15.65,11.55l-.82,4.36s-.08.44.23.58,1.65.67,1.65.67"/><path class="cls-4" d="M17.38,15.22a3.42,3.42,0,0,0-.61-.27l-.52.3"/><line class="cls-4" x1="16.77" y1="14.95" x2="16.79" y2="10.85"/><path class="cls-4" d="M24.82,17.58c0-.2-.08-.33-.15-.34s-.35.65-.44,1.49,0,1.52.13,1.54.18-.18.26-.48"/><line class="cls-4" x1="24.67" y1="17.24" x2="22.3" y2="17.2"/><line class="cls-4" x1="23.19" y1="19.38" x2="21.78" y2="25.03"/><line class="cls-4" x1="24.36" y1="20.27" x2="23.04" y2="20.01"/><path class="cls-4" d="M17.66,15.07c-.19-.06-.53.5-.76,1.26s-.28,1.41-.1,1.46"/><line class="cls-4" x1="17.66" y1="15.07" x2="18.88" y2="16.12"/><line class="cls-4" x1="16.8" y1="17.79" x2="17.35" y2="18.03"/><path class="cls-4" d="M21,25a4.8,4.8,0,0,0,.79,0"/><path class="cls-4" d="M17.51,17.87l-2.4,4.7a9.67,9.67,0,0,0,2.82,1.65A9.17,9.17,0,0,0,21,25"/><path class="cls-4" d="M23.09,17.28s-.46,2.17-3.16,1.35-1.39-2.8-1.39-2.8"/><path class="cls-4" d="M19.1,16.62a5.82,5.82,0,0,0,.89.58"/><path class="cls-4" d="M22,17.73a11.77,11.77,0,0,1-1.23-.22"/><path class="cls-6" d="M21.13,10.85a.84.84,0,0,0-.45-.42h0a.83.83,0,0,0-.62,0,.8.8,0,0,0-.41,1.07.9.9,0,0,0,.45.43h0a.83.83,0,0,0,.62,0,.82.82,0,0,0,.41-1.08Z"/><path class="cls-6" d="M23.08,11.53a.88.88,0,0,0-.46-.43h0a.81.81,0,0,0-1.05.47.79.79,0,0,0,0,.62.83.83,0,0,0,.45.43h0a.79.79,0,0,0,.62,0,.81.81,0,0,0,.42-.45A.83.83,0,0,0,23.08,11.53Z"/><path class="cls-3" d="M19,14.89a8.45,8.45,0,0,1-.42-2.39.21.21,0,0,0,0-.12l.1-.44c0-.1-.13-.16-.15-.06l-.11.45h0a.15.15,0,0,0-.12.13l-.2,1a2,2,0,0,0-.07.64.23.23,0,0,0,0,.26,1.44,1.44,0,0,0,.45.59.21.21,0,0,0,.2,0l.14.1C18.86,15.12,19.05,15,19,14.89Z"/><path class="cls-3" d="M25.05,15a.28.28,0,0,0,0-.09l.06-.11A8.92,8.92,0,0,0,25.61,12a2.24,2.24,0,0,0,0-1.51.4.4,0,0,0-.17-.24A3.11,3.11,0,0,0,23.35,8.4h-.06l0,0a3.39,3.39,0,0,0-3.21.39.28.28,0,0,0-.12.19L19.74,9c-.16.07-.09.28.05.31a11.66,11.66,0,0,1,2.52.91,6.34,6.34,0,0,0,.81.26.09.09,0,0,0,.05,0c.29.1.55.25.83.37l.12,0a12.23,12.23,0,0,0-.69,3.18.34.34,0,0,0,0,.1.3.3,0,0,0,0,.1l0,.72a4.94,4.94,0,0,1-.12.77c0,.06,0,.12,0,.19h0l-.08.05-.13.1a.24.24,0,0,0,.08.46,1.81,1.81,0,0,0,.46,0,.22.22,0,0,0,.18,0C24.57,16.51,24.8,15.71,25.05,15Z"/><path class="cls-7" d="M22.71,16.51a7,7,0,0,0-.41.69"/><path class="cls-7" d="M23.26,15.91a4.92,4.92,0,0,0-.55.6"/><path class="cls-7" d="M23.34,8.37a4.59,4.59,0,0,1,.66.29,3.29,3.29,0,0,1,1.67,3.52"/><path class="cls-7" d="M18.92,16.12c.35-1.18-.23-1.89-.3-3.33a5.33,5.33,0,0,1,.7-3,3.61,3.61,0,0,1,.36-.51"/><circle class="cls-7" cx="20.36" cy="11.1" r="0.89"/><line class="cls-7" x1="21.24" y1="11.16" x2="21.6" y2="11.29"/><polyline class="cls-8" points="21.42 11.22 19.89 12.33 21.08 12.78"/><circle class="cls-7" cx="22.3" cy="11.84" r="0.89"/><path class="cls-9" d="M22.4,11.72h0a.16.16,0,0,0-.11.31h0A.16.16,0,0,0,22.4,11.72Z"/><path class="cls-9" d="M20.14,11h0a.16.16,0,0,0,.3.12v0A.16.16,0,0,0,20.14,11Z"/><path class="cls-7" d="M24.26,11l-4.7-1.79a3.19,3.19,0,0,1,3.91-.8"/><path class="cls-7" d="M24.11,11A15.52,15.52,0,0,0,23.29,16"/><path class="cls-7" d="M22.78,16.49a1,1,0,0,0,.29.16c.68.26,1.48,0,1.88-1.25a13.22,13.22,0,0,0,.75-3.64"/><path class="cls-7" d="M19,15.13c0-.07-1-.12-1.08-.9a13.13,13.13,0,0,1,.94-3.43"/><path class="cls-10" d="M22.29,13.44a5.89,5.89,0,0,1-.93-.06,8.39,8.39,0,0,1-1-.13,4.27,4.27,0,0,1-.73-.29.19.19,0,0,1,0,.08,1.62,1.62,0,0,0,1.08,1.65.26.26,0,0,1,.23,0h0l.09,0,.12,0h.14a1.87,1.87,0,0,0,.34,0,1.4,1.4,0,0,0,.75-.37,1.34,1.34,0,0,0,.39-.69,1.65,1.65,0,0,0,0-.31A5.22,5.22,0,0,1,22.29,13.44Z"/><path class="cls-11" d="M22.86,13.38a1.39,1.39,0,0,1-1.51,1.36A1.53,1.53,0,0,1,19.65,13"/><path class="cls-11" d="M23.07,13.26s-.37.27-1.76.15a3.61,3.61,0,0,1-1.94-.6"/><path class="cls-11" d="M22.7,14a5.06,5.06,0,0,1-3-.37"/><path class="cls-4" d="M16.46,24.16s.55.23,1.09.41"/><path class="cls-12" d="M24.76,17.44v0s0,0,0,0h-.15l0,0,0,0v.1s0,0,0,0h.18s0,0,0,0a.06.06,0,0,0,0-.08Z"/><path class="cls-12" d="M24.55,19.94a.12.12,0,0,0-.08-.1H24.4a.13.13,0,0,0,0-.06h-.07a.15.15,0,0,0-.06.05.09.09,0,0,0,0,.07l0,.07v0a.11.11,0,0,0,0,.07h0l0,.06s0,.05,0,.06a.11.11,0,0,0,.08,0,.12.12,0,0,0,.07-.05.1.1,0,0,0,0-.05l0,0Z"/><path class="cls-13" d="M25.06,9.48a10.2,10.2,0,0,1-3.54-1.43l3.63-4Z"/><path class="cls-14" d="M35,14.81a35.45,35.45,0,0,1-4.34-1.75,41.11,41.11,0,0,1-4.24-2.15c-.38-.24-.81.27-.44.55a26.83,26.83,0,0,0,2.19,1.8.36.36,0,0,0,.56-.33l.08,0a.38.38,0,0,0,.17.48,7.7,7.7,0,0,0,1.43.59l.1.05a13.75,13.75,0,0,0,1.39.68l.18.06.3.14a.24.24,0,0,0,.11.19,1.11,1.11,0,0,0,.7.21.28.28,0,0,0,.24-.11,9.37,9.37,0,0,0,1.39.23C35.2,15.52,35.41,14.93,35,14.81Z"/><path class="cls-15" d="M36.54,12.35c-.69-.52-1.07-1.32-1.7-1.9A11,11,0,0,0,32.58,9a6.5,6.5,0,0,0-2.41-.85,5.22,5.22,0,0,0-1.31,0c-.39,0-.92.29-1.24,0s-.76.24-.44.55l.24.23c.1,0,.12.09,0,.2a2.78,2.78,0,0,1-.16.63,11.61,11.61,0,0,1-.42,1.17.34.34,0,0,0,.18.45.24.24,0,0,0,.09.08l.08.05c.13.17.31.16.51.19a12.88,12.88,0,0,0,1.91.81c.91.33,1.89.8,2.78,1.22l1.3.63c.28.14.57.32.86.1a4.67,4.67,0,0,0,.75-1,1.16,1.16,0,0,1,1-.46A.35.35,0,0,0,36.54,12.35Z"/><path class="cls-1" d="M32.9,15.56c0-.22-.06-.28-.24-.38-.43-.24-.61-.69-1-.95a3.53,3.53,0,0,0-1.45-.43c-.41-.06-.62-.39-.91-.54a2.28,2.28,0,0,1-.66-.41l-1,.55c.1.15.2.29.29.44a3.48,3.48,0,0,1,.24.47,2.54,2.54,0,0,1,.13.45l.15,0a3,3,0,0,1,1.42.47,17,17,0,0,0,1.54.77,1.25,1.25,0,0,0,.72.2,1.52,1.52,0,0,0,.54-.23C32.83,15.84,32.9,15.79,32.9,15.56Z"/><line class="cls-16" x1="34.54" y1="14.67" x2="35.87" y2="12.88"/><line class="cls-16" x1="26.83" y1="11.25" x2="27.48" y2="9.02"/><path class="cls-16" d="M27.9,8.34c-.11.26,1.63,1.29,3.89,2.32s4.19,1.65,4.3,1.4-1.25-2.15-3.52-3.17S28,8.09,27.9,8.34Z"/><path class="cls-16" d="M36.07,11.91a.59.59,0,0,1,.22.23.63.63,0,0,1,.29.2c.13.15.16.32.06.37h0l0,0c0,.1-.17.18-.42.17a1,1,0,0,1-.37-.09.68.68,0,0,1-.4,0,.84.84,0,0,1-.33-.15.73.73,0,0,1-.37,0,.92.92,0,0,1-.33-.17.94.94,0,0,1-.37-.06.78.78,0,0,1-.33-.2.85.85,0,0,1-.38-.07.89.89,0,0,1-.33-.21.86.86,0,0,1-.38-.08.87.87,0,0,1-.31-.2.9.9,0,0,1-.36-.09.86.86,0,0,1-.19-.11"/><path class="cls-16" d="M28,8.26a.5.5,0,0,0-.32,0,.68.68,0,0,0-.34-.09c-.2,0-.35.09-.32.19h0l0,0c-.08,0,0,.24.15.42a1,1,0,0,0,.31.22.79.79,0,0,0,.27.3,1,1,0,0,0,.33.15.72.72,0,0,0,.27.24.88.88,0,0,0,.35.14.73.73,0,0,0,.29.24.79.79,0,0,0,.37.12.77.77,0,0,0,.3.24.93.93,0,0,0,.38.11.82.82,0,0,0,.31.23.78.78,0,0,0,.35.1,1,1,0,0,0,.31.22l.19.06"/><path class="cls-16" d="M31.78,11.43a.79.79,0,0,1-.3-.08,1.23,1.23,0,0,1-.28-.18"/><path class="cls-16" d="M29.85,13.8a1.37,1.37,0,0,0-.75-.57,1.4,1.4,0,0,0-1.76.43"/><path class="cls-16" d="M31.07,14.07l-1.22-.27"/><path class="cls-16" d="M29.44,14.72s1.2.15,1.72.24"/><path class="cls-16" d="M31.07,14.07c.41.08,1.13.37,1.11.73s-.51.25-.51.25L31.16,15"/><path class="cls-16" d="M31,14.07h0"/><path class="cls-16" d="M31.36,15.44l1,.36s.43.18.49-.17a.46.46,0,0,0-.21-.39"/><path class="cls-16" d="M29.44,14.72l1.92.72"/><path class="cls-16" d="M31,15.73l1,.36s.43.18.49-.18"/><path class="cls-16" d="M31,15.73l-2.83-1.11a2.31,2.31,0,0,0-.16-.3"/><path class="cls-16" d="M34.14,14.57l-.58-.27-7.82-3.54a1.87,1.87,0,0,0,1,1.27"/><path class="cls-16" d="M34.43,15.43a1.93,1.93,0,0,0,1.13-.22l-1.94-.88"/><path class="cls-16" d="M27.89,13.08a2.28,2.28,0,0,1-1.12-1l2.93,1.33,4.24,1.92a1.58,1.58,0,0,0,.49.14"/><path class="cls-16" d="M28,13.15l-.14-.07"/><path class="cls-16" d="M33.91,15.29a2.37,2.37,0,0,1-1.65-.22L32.11,15"/><path class="cls-14" d="M9.24,9.08a34.66,34.66,0,0,0,4.67,0,41.75,41.75,0,0,0,4.74-.44c.43-.08.65.56.2.68-.93.25-1.74.7-2.69.87a.37.37,0,0,1-.41-.52h-.08a.39.39,0,0,1-.33.39,9,9,0,0,1-1.56,0l-.1,0c-.51.06-1,.1-1.54.11h-.2l-.32,0a.31.31,0,0,1-.18.14,1.08,1.08,0,0,1-.73-.07.28.28,0,0,1-.18-.19,10.77,10.77,0,0,1-1.37-.29C8.79,9.67,8.82,9.05,9.24,9.08Z"/><path class="cls-15" d="M8.72,6.23A23.08,23.08,0,0,0,11,5.09a11.91,11.91,0,0,1,2.64-.54,6.49,6.49,0,0,1,2.56.1,5.82,5.82,0,0,1,1.21.5c.34.2.75.62,1.16.44s.62.51.21.68l-.31.12c-.11,0-.14.05-.11.17a2.41,2.41,0,0,0-.08.65c0,.41-.05.83-.05,1.24a.33.33,0,0,1-.33.35.33.33,0,0,1-.12,0h-.09c-.17.11-.35,0-.54,0a13,13,0,0,1-2.07.05c-1,0-2.06,0-3,.11l-1.44.1c-.31,0-.65.09-.83-.22a4.43,4.43,0,0,1-.34-1.21,1.12,1.12,0,0,0-.78-.8A.36.36,0,0,1,8.72,6.23Z"/><path class="cls-1" d="M10.91,10.56c.08-.21.17-.24.37-.26.49-.06.82-.42,1.29-.52a3.52,3.52,0,0,1,1.51.15c.4.09.72-.15,1-.18a2,2,0,0,0,.77-.13l.73.89c-.14.09-.29.19-.43.3a4.47,4.47,0,0,0-.4.34,2,2,0,0,0-.28.37.91.91,0,0,0-.13-.08,3,3,0,0,0-1.49-.09c-.57.07-1.14.13-1.72.15a1.25,1.25,0,0,1-.74-.08A1.53,1.53,0,0,1,11,11,.36.36,0,0,1,10.91,10.56Z"/><line class="cls-16" x1="9.72" y1="9.12" x2="9.15" y2="6.97"/><line class="cls-16" x1="18.14" y1="8.8" x2="18.37" y2="6.48"/><path class="cls-16" d="M18.23,5.7c0,.28-2,.6-4.47.71s-4.5,0-4.52-.28,2-1.53,4.44-1.65S18.21,5.42,18.23,5.7Z"/><path class="cls-16" d="M9.32,6A.49.49,0,0,0,9,6.13a.67.67,0,0,0-.34.08c-.18.1-.27.24-.2.32h0l0,0c-.06.08.09.22.32.3a.91.91,0,0,0,.37.06.76.76,0,0,0,.38.14,1.11,1.11,0,0,0,.37,0,.88.88,0,0,0,.35.09.82.82,0,0,0,.37,0,.87.87,0,0,0,.37.09.83.83,0,0,0,.38-.07.94.94,0,0,0,.76,0,.74.74,0,0,0,.39.07.88.88,0,0,0,.36-.07,1,1,0,0,0,.37,0l.21,0"/><path class="cls-16" d="M18.14,5.57a.65.65,0,0,1,.3.11.57.57,0,0,1,.35.05c.18.08.29.21.23.29h0l0,0c.06.08-.07.24-.29.34a1,1,0,0,1-.37.09.71.71,0,0,1-.36.18,1.16,1.16,0,0,1-.36,0,1.07,1.07,0,0,1-.35.13.89.89,0,0,1-.37,0,.8.8,0,0,1-.36.12.75.75,0,0,1-.38,0,.85.85,0,0,1-.37.12,1.08,1.08,0,0,1-.39,0,.87.87,0,0,1-.38.1.82.82,0,0,1-.37,0,.82.82,0,0,1-.36.09l-.2,0"/><path class="cls-16" d="M13.49,7.14a1,1,0,0,0,.63,0"/><path class="cls-16" d="M14.4,10.05a1.39,1.39,0,0,1,.91-.25,1.4,1.4,0,0,1,1.48,1"/><path class="cls-16" d="M13.17,9.85l1.23.2"/><path class="cls-16" d="M14.44,11.05s-1.17-.3-1.68-.4"/><path class="cls-16" d="M13.17,9.85c-.41-.07-1.19-.07-1.3.27s.38.42.38.42l.51.11"/><path class="cls-16" d="M13.19,9.86h0"/><path class="cls-16" d="M12.39,11l-1,0s-.47,0-.39-.34c0-.14.16-.23.34-.28"/><path class="cls-16" d="M14.44,11.05l-2,0"/><path class="cls-16" d="M12.63,11.42l-1,0s-.47,0-.4-.34"/><path class="cls-16" d="M12.63,11.42l3,0a2.25,2.25,0,0,1,.26-.22"/><path class="cls-16" d="M10.13,9.18l.63,0,8.58-.41a1.86,1.86,0,0,1-1.4.81"/><path class="cls-16" d="M9.55,9.87a1.91,1.91,0,0,1-1-.62l2.13-.1"/><path class="cls-16" d="M16.49,10.1a2.28,2.28,0,0,0,1.42-.55L14.7,9.7l-4.65.22a1.6,1.6,0,0,1-.5-.05"/><path class="cls-16" d="M16.34,10.11h.15"/><path class="cls-16" d="M10.08,9.93a2.35,2.35,0,0,0,1.61.41h.17"/></g></svg>