<svg xmlns="http://www.w3.org/2000/svg" viewBox="0 0 182.85 129.55"><defs><style>.cls-1{fill:#0d773c;}.cls-2{fill:#89d3de;}.cls-3{fill:#f9b730;}.cls-4{fill:#f47951;}.cls-5,.cls-7{fill:#1c204d;}.cls-6,.cls-9{fill:none;}.cls-6,.cls-7{stroke:#1c204d;}.cls-6,.cls-7,.cls-9{stroke-linecap:round;stroke-linejoin:round;stroke-width:0.8px;}.cls-8{fill:#ea4827;}.cls-9{stroke:#f8c6dc;}</style></defs><g id="Layer_1" data-name="Layer 1"><path class="cls-1" d="M63.38,95.61l5.91,9.26a6.55,6.55,0,0,0,5.54,3h31.52l4.11-15"/><path class="cls-2" d="M73.43,104.26a37.72,37.72,0,0,0,5.42,0,55.53,55.53,0,0,1,6.19-.07,24.14,24.14,0,0,0,3.4,0,9.23,9.23,0,0,1,0-2.1c.07-1,.13-2,.1-3,0-1.28,0-2.54-.16-3.81,0-.35-.08-.69-.1-1L63.38,95.61,69,104.48A17.9,17.9,0,0,1,73.43,104.26Z"/><path class="cls-3" d="M136.3,23.14l24.57-6a3.83,3.83,0,0,1,4.71,4.1l-2,19.52"/><path class="cls-3" d="M136.3,85.93l24.57,6a3.82,3.82,0,0,0,4.71-4.1l-2-19.52"/><path class="cls-4" d="M155.24,28a80.14,80.14,0,0,0-8.38-4.48A30.39,30.39,0,0,0,141.14,22l-4.84,1.18,27.31,17.63.63-6.22A84.81,84.81,0,0,0,155.24,28Z"/><path class="cls-4" d="M146.27,85.31a41.1,41.1,0,0,0,7.8-4.35c3.34-2.28,7.19-4.41,10.07-7.37l-.53-5.29L136.3,85.93,140.66,87A43.18,43.18,0,0,0,146.27,85.31Z"/><path class="cls-3" d="M168.9,54.52C168.9,77.4,126.86,96,75,96S6,77.4,6,54.52s17.1-41.43,69-41.43S168.9,31.64,168.9,54.52Z"/><path class="cls-2" d="M116.18,101.39a1.89,1.89,0,0,1-2,1.81c-1.08,0-1.33-.81-1.33-1.81s.25-1.8,1.33-1.8A1.89,1.89,0,0,1,116.18,101.39Z"/><path class="cls-5" d="M112.91,101s-2.63-7.46.39-7.42-.39,7.42-.39,7.42h-4.26"/><path class="cls-5" d="M112.91,101.39s3.32,7.38.39,7.42-.39-7.42-.39-7.42"/><path class="cls-6" d="M168.9,54.52C168.9,77.4,126.86,96,75,96S6,77.4,6,54.52s17.1-41.43,69-41.43S168.9,31.64,168.9,54.52Z"/><path class="cls-6" d="M136.3,23.14l24.57-6a3.83,3.83,0,0,1,4.71,4.1l-2,19.52"/><path class="cls-6" d="M136.3,85.93l24.57,6a3.82,3.82,0,0,0,4.71-4.1l-2-19.52"/><path class="cls-6" d="M63.38,95.61l5.91,9.26a6.55,6.55,0,0,0,5.54,3h31.52l4.11-15"/><path class="cls-7" d="M116.18,101.39a1.89,1.89,0,0,1-2,1.81c-1.08,0-1.33-.81-1.33-1.81s.25-1.8,1.33-1.8A1.89,1.89,0,0,1,116.18,101.39Z"/><path class="cls-6" d="M112.91,101s-2.63-7.46.39-7.42-.39,7.42-.39,7.42h-4.26"/><path class="cls-6" d="M112.91,101.39s3.32,7.38.39,7.42-.39-7.42-.39-7.42"/><polyline class="cls-6" points="88.39 95.53 88.39 104.23 69.05 104.23"/><path class="cls-8" d="M54.68,32.92c-1.6,0-3.19.09-4.79.15a2.92,2.92,0,0,0-2.33,1.55C45.13,39,42.91,43.44,41,47.79A60,60,0,0,1,38.73,35a1.39,1.39,0,0,0-1.56-1.36l-4.74.25a3.54,3.54,0,0,0-2.87,2.22,52.35,52.35,0,0,0,0,34.38,3.57,3.57,0,0,0,2.87,2.22l4.93.25c1.16,0,1.8-.87,1.49-2.06a68.12,68.12,0,0,1-1.7-8.19c.41.87.84,1.73,1.28,2.6a2.87,2.87,0,0,0,2.37,1.55l2.56.07a1.75,1.75,0,0,0,1.84-1.45c.17-.91.35-1.82.55-2.73a85.48,85.48,0,0,0,1.39,8.45,3,3,0,0,0,2.6,2.27c1.65,0,3.29.11,4.94.15a1.73,1.73,0,0,0,1.74-2.16,119,119,0,0,1,0-36.33A1.73,1.73,0,0,0,54.68,32.92Z"/><path class="cls-8" d="M78.24,32.53l-5.23,0a2.34,2.34,0,0,0-2.13,1.64q-1.26,3.69-2.48,7.36-.87-3.66-1.55-7.31A1.88,1.88,0,0,0,65,32.67l-5.22.11a2.58,2.58,0,0,0-1.87,1,2.49,2.49,0,0,0-.58,2,135.81,135.81,0,0,0,5.93,20.66q.13,7.56.93,15.12a2.55,2.55,0,0,0,2.36,2.28l4.93.07a2.05,2.05,0,0,0,2-2.24q-.37-7.61-.43-15.21c2.32-7,4.87-14,7.18-20.94a2.39,2.39,0,0,0-.27-2.05A2.05,2.05,0,0,0,78.24,32.53Z"/><path class="cls-8" d="M101.73,40.32A11.76,11.76,0,0,0,99,36a10.81,10.81,0,0,0-4-2.66,12.6,12.6,0,0,0-4.33-.74c-2.46,0-4.93,0-7.4,0a2.2,2.2,0,0,0-2.11,2.26V71.7A2.2,2.2,0,0,0,83.31,74l4.94,0a2.38,2.38,0,0,0,2.24-2.28c.22-4,.38-8.08.45-12.12h.44a12,12,0,0,0,5.86-1.31A10.05,10.05,0,0,0,101,54.63a10.18,10.18,0,0,0,1.51-4,22.82,22.82,0,0,0,.16-4.52A21,21,0,0,0,101.73,40.32Zm-8.48,6.62a5.34,5.34,0,0,1-.13.88c0,.12,0,.23,0,.34a.73.73,0,0,1,.07.3,1.65,1.65,0,0,1-.42,1.25,1.78,1.78,0,0,1-1.2.5.81.81,0,0,1-.81-.62.35.35,0,0,1,0-.11s0-.09,0-.14A42.43,42.43,0,0,1,90.56,45a5,5,0,0,1,0-1.72.43.43,0,0,1,0,0l0-.07a.86.86,0,0,1,.56-1.07,1.41,1.41,0,0,1,.61,0,.89.89,0,0,1,.61.24,1.75,1.75,0,0,1,.45.45,3.55,3.55,0,0,1,.48,1.45,8.48,8.48,0,0,1,.1,1.42A12,12,0,0,1,93.25,46.94Z"/><path class="cls-8" d="M109.39,33l-4.94-.14a1.81,1.81,0,0,0-1.8,2.18,139.3,139.3,0,0,1,0,36.49,1.81,1.81,0,0,0,1.8,2.18l4.94-.14a2.89,2.89,0,0,0,2.55-2.27,95.34,95.34,0,0,0,0-36A2.89,2.89,0,0,0,109.39,33Z"/><path class="cls-8" d="M132.67,42.73a1.6,1.6,0,0,0,1.74-2c-.39-1.54-.84-3.09-1.36-4.63a3.51,3.51,0,0,0-2.86-2.22q-7.35-.41-14.71-.67a1.62,1.62,0,0,0-1.63,2.12,89.36,89.36,0,0,1,0,35.91,1.62,1.62,0,0,0,1.63,2.12q7.35-.27,14.71-.66a3.55,3.55,0,0,0,2.86-2.22c.56-1.65,1-3.29,1.43-4.93a1.62,1.62,0,0,0-1.76-2l-8.06.2c.32-2,.54-4,.67-6l6.85-.07a2.37,2.37,0,0,0,2.38-2.13c.06-1.55.06-3.1,0-4.66a2.4,2.4,0,0,0-2.4-2.13l-6.84-.08q-.21-3-.7-6Z"/><path class="cls-6" d="M54.68,32.92c-1.6,0-3.19.09-4.79.15a2.92,2.92,0,0,0-2.33,1.55C45.13,39,42.91,43.44,41,47.79A60,60,0,0,1,38.73,35a1.39,1.39,0,0,0-1.56-1.36l-4.74.25a3.54,3.54,0,0,0-2.87,2.22,52.35,52.35,0,0,0,0,34.38,3.57,3.57,0,0,0,2.87,2.22l4.93.25c1.16,0,1.8-.87,1.49-2.06a68.12,68.12,0,0,1-1.7-8.19c.41.87.84,1.73,1.28,2.6a2.87,2.87,0,0,0,2.37,1.55l2.56.07a1.75,1.75,0,0,0,1.84-1.45c.17-.91.35-1.82.55-2.73a85.48,85.48,0,0,0,1.39,8.45,3,3,0,0,0,2.6,2.27c1.65,0,3.29.11,4.94.15a1.73,1.73,0,0,0,1.74-2.16,119,119,0,0,1,0-36.33A1.73,1.73,0,0,0,54.68,32.92Z"/><path class="cls-6" d="M78.24,32.53l-5.23,0a2.34,2.34,0,0,0-2.13,1.64q-1.26,3.69-2.48,7.36-.87-3.66-1.55-7.31A1.88,1.88,0,0,0,65,32.67l-5.22.11a2.58,2.58,0,0,0-1.87,1,2.49,2.49,0,0,0-.58,2,135.81,135.81,0,0,0,5.93,20.66q.13,7.56.93,15.12a2.55,2.55,0,0,0,2.36,2.28l4.93.07a2.05,2.05,0,0,0,2-2.24q-.37-7.61-.43-15.21c2.32-7,4.87-14,7.18-20.94a2.39,2.39,0,0,0-.27-2.05A2.05,2.05,0,0,0,78.24,32.53Z"/><path class="cls-6" d="M99,36a10.81,10.81,0,0,0-4-2.66,12.6,12.6,0,0,0-4.33-.74c-2.46,0-4.93,0-7.4,0a2.2,2.2,0,0,0-2.11,2.26V71.7A2.2,2.2,0,0,0,83.31,74l4.94,0a2.38,2.38,0,0,0,2.24-2.28c.22-4,.38-8.08.45-12.12h.44a12,12,0,0,0,5.86-1.31A10.05,10.05,0,0,0,101,54.63a10.18,10.18,0,0,0,1.51-4,22.82,22.82,0,0,0,.16-4.52,21,21,0,0,0-1-5.8A11.76,11.76,0,0,0,99,36Z"/><path class="cls-6" d="M109.39,33l-4.94-.14a1.81,1.81,0,0,0-1.8,2.18,139.3,139.3,0,0,1,0,36.49,1.81,1.81,0,0,0,1.8,2.18l4.94-.14a2.89,2.89,0,0,0,2.55-2.27,95.34,95.34,0,0,0,0-36A2.89,2.89,0,0,0,109.39,33Z"/><path class="cls-6" d="M132.67,42.73a1.6,1.6,0,0,0,1.74-2c-.39-1.54-.84-3.09-1.36-4.63a3.51,3.51,0,0,0-2.86-2.22q-7.35-.41-14.71-.67a1.62,1.62,0,0,0-1.63,2.12,89.36,89.36,0,0,1,0,35.91,1.62,1.62,0,0,0,1.63,2.12q7.35-.27,14.71-.66a3.55,3.55,0,0,0,2.86-2.22c.56-1.65,1-3.29,1.43-4.93a1.62,1.62,0,0,0-1.76-2l-8.06.2c.32-2,.54-4,.67-6l6.85-.07a2.37,2.37,0,0,0,2.38-2.13c.06-1.55.06-3.1,0-4.66a2.4,2.4,0,0,0-2.4-2.13l-6.84-.08q-.21-3-.7-6Z"/><path class="cls-4" d="M54.49,72.52c-1.66,0-3.32-.09-5-.15a1.37,1.37,0,0,1-1.21-1.05,89.46,89.46,0,0,1-1.85-15.79A80.91,80.91,0,0,0,44,65.17a.81.81,0,0,1-.86.67l-2.57-.06a1.34,1.34,0,0,1-1.1-.72,103.63,103.63,0,0,1-4.22-9.53,65.88,65.88,0,0,0,2.45,15.4.69.69,0,0,1-.7,1l-5-.24a1.62,1.62,0,0,1-1.32-1,53.8,53.8,0,0,1-.08-34.49,1.58,1.58,0,0,1,1.31-1l4.79-.23a.66.66,0,0,1,.74.63,62.47,62.47,0,0,0,3.35,16A141.34,141.34,0,0,1,48.53,35.1a1.33,1.33,0,0,1,1.08-.72l4.83-.14a.81.81,0,0,1,.82,1,113.23,113.23,0,0,0,0,36.28A.8.8,0,0,1,54.49,72.52ZM50.1,70.36l3,.08a104.74,104.74,0,0,1,0-34.12l-3.18.08a134.92,134.92,0,0,0-8,18.36,1,1,0,0,1-1,.68,1.24,1.24,0,0,1-1.11-.69,64.07,64.07,0,0,1-4.33-17.86L32.36,37a56.25,56.25,0,0,0,.07,32.71l3,.13a61.29,61.29,0,0,1-2.2-20.27,1.13,1.13,0,0,1,1.11-1,1.08,1.08,0,0,1,1,.67A92,92,0,0,0,41,63.78l1.11,0a87.5,87.5,0,0,1,4.35-14.62,1.1,1.1,0,0,1,1-.71,1,1,0,0,1,1.1,1A94.17,94.17,0,0,0,50.1,70.36Z"/><path class="cls-4" d="M71.39,72.84l-5-.07a1.17,1.17,0,0,1-1.09-1q-.75-7.66-.88-15.34a140.91,140.91,0,0,1-6-20.88,1.16,1.16,0,0,1,.27-.94,1.19,1.19,0,0,1,.86-.45l5.27-.1a.86.86,0,0,1,.88.74c.67,3.75,1.53,7.51,2.51,11.29,1.2-3.79,2.47-7.57,3.73-11.37a1.08,1.08,0,0,1,1-.76l5.27,0a.93.93,0,0,1,.79.44,1,1,0,0,1,.12.94c-2.37,7.06-5,14.11-7.3,21.14q.08,7.7.5,15.4A1,1,0,0,1,71.39,72.84ZM67.23,70.7l3,0q-.47-7.26-.55-14.52a.92.92,0,0,1,.06-.33c2.19-6.62,4.67-13.26,7-19.91l-3.19,0c-1.48,4.64-3,9.27-4.39,13.9a1.06,1.06,0,0,1-1,.75,1.14,1.14,0,0,1-1.1-.75c-1.27-4.61-2.38-9.21-3.21-13.8l-3.19.06a156.91,156.91,0,0,0,5.8,19.72,1.28,1.28,0,0,1,.06.34Q66.63,63.47,67.23,70.7Z"/><path class="cls-4" d="M88.3,72.86l-5,0a1,1,0,0,1-1-1q.12-18.47,0-36.92a1,1,0,0,1,1-1c2.49,0,5,0,7.47,0a11.87,11.87,0,0,1,4,.67,9.53,9.53,0,0,1,3.47,2.33,10.16,10.16,0,0,1,2.36,3.83,20.56,20.56,0,0,1,.89,5.49,22.22,22.22,0,0,1-.17,4.33A9.38,9.38,0,0,1,100,54.14a9,9,0,0,1-3.33,3.17,10.87,10.87,0,0,1-5.28,1.15H89.76q-.11,6.66-.43,13.34A1.07,1.07,0,0,1,88.3,72.86Zm-4-2.07h3q.24-6.69.29-13.36a1,1,0,0,1,1-1.05h2.7a8.88,8.88,0,0,0,4.26-.88,6.73,6.73,0,0,0,2.53-2.44,7.44,7.44,0,0,0,1-2.82,22.13,22.13,0,0,0,.16-4,18.8,18.8,0,0,0-.75-5,7.57,7.57,0,0,0-1.78-3,6.86,6.86,0,0,0-2.61-1.76A10.17,10.17,0,0,0,90.92,36l-6.56,0Q84.66,53.38,84.35,70.79Zm6.94-17.3H88.74a1,1,0,0,1-1-1q0-6.27-.18-12.54a1,1,0,0,1,1-1l2.66,0a5.72,5.72,0,0,1,2.84.62,4.31,4.31,0,0,1,1.74,1.82,6.48,6.48,0,0,1,.68,2.44c.07.78.12,1.62.15,2.5s0,1.82,0,2.59A5.48,5.48,0,0,1,96,51.19a3.92,3.92,0,0,1-1.72,1.72A6.47,6.47,0,0,1,91.29,53.49Zm-1.5-2.09h1.49a4.36,4.36,0,0,0,2-.34,1.87,1.87,0,0,0,.84-.83,3.54,3.54,0,0,0,.35-1.51c0-.74,0-1.56,0-2.46s-.07-1.65-.13-2.41a4.44,4.44,0,0,0-.43-1.64,2.07,2.07,0,0,0-.84-.89A3.87,3.87,0,0,0,91.25,41H89.59C89.71,44.45,89.77,47.92,89.79,51.4Z"/><path class="cls-6" d="M90.68,50.32h.87a2,2,0,0,0,1.15-.27,1.35,1.35,0,0,0,.48-.68,3.79,3.79,0,0,0,.2-1.22c0-.6,0-1.26,0-2s0-1.34-.09-1.95A4.55,4.55,0,0,0,93,42.88a1.47,1.47,0,0,0-.49-.72,1.7,1.7,0,0,0-1.07-.27h-1Q90.64,46.11,90.68,50.32Z"/><path class="cls-4" d="M109.59,72.48l-5,.13a.84.84,0,0,1-.84-1,132,132,0,0,0,0-36.44.84.84,0,0,1,.84-1l5,.13a1.32,1.32,0,0,1,1.18,1,99.33,99.33,0,0,1,0,36.1A1.34,1.34,0,0,1,109.59,72.48Zm-3.67-2,3-.07a106.84,106.84,0,0,0,0-34.14l-3-.07A121.13,121.13,0,0,1,105.92,70.52Z"/><path class="cls-4" d="M130.54,71.65q-7.41.38-14.81.63a.75.75,0,0,1-.76-1,85.9,85.9,0,0,0,0-35.84.76.76,0,0,1,.77-1q7.42.26,14.84.63a1.57,1.57,0,0,1,1.31,1q.76,2.32,1.32,4.65a.75.75,0,0,1-.8.95c-3.07-.1-6.14-.18-9.2-.26a70,70,0,0,1,.92,8.37l8.07.06a1.09,1.09,0,0,1,1.09,1c.07,1.55.07,3.1,0,4.66a1.09,1.09,0,0,1-1.1,1l-8.06.06a70,70,0,0,1-.93,8.37c3.07-.07,6.14-.16,9.21-.25a.75.75,0,0,1,.8,1c-.39,1.65-.86,3.29-1.41,4.94A1.6,1.6,0,0,1,130.54,71.65Zm-13.37-1.43q6.51-.21,13-.49c.3-1,.57-2,.82-3-3,.11-6.09.2-9.13.29a.79.79,0,0,1-.83-1,72.23,72.23,0,0,0,1.09-10.42,1.07,1.07,0,0,1,1.08-1l8.07,0c0-.9,0-1.81,0-2.71l-8.07,0a1.08,1.08,0,0,1-1.08-1A73.82,73.82,0,0,0,121,40.41a.79.79,0,0,1,.83-1q4.56.12,9.12.29c-.22-.91-.47-1.81-.73-2.71q-6.52-.29-13-.48A80.49,80.49,0,0,1,117.17,70.22Z"/><path class="cls-9" d="M42.69,64.57l-2.44-.06a93.91,93.91,0,0,1-5.88-14.2,63,63,0,0,0,2.46,20.55l-5.08-.22a55.16,55.16,0,0,1-.1-34.46c.18,0,4.87-.22,4.87-.22a64,64,0,0,0,4.33,17.87"/><path class="cls-9" d="M40.72,64.52l2.44.06a88.34,88.34,0,0,1,4.26-14.35,90.57,90.57,0,0,0,1.77,21.09l5.07.14a108.49,108.49,0,0,1,0-36.09c-.16,0-4.87.13-4.87.13a140.34,140.34,0,0,0-8.51,18.33"/><path class="cls-9" d="M68.08,48.72c-1.31-4.54-2.46-9.07-3.33-13.58l-5.34.1a145.3,145.3,0,0,0,6.07,20.91q.1,7.79.83,15.55l2.51,0"/><path class="cls-9" d="M68.08,48.72c1.48-4.55,3.06-9.11,4.61-13.67L78,35C75.61,42.08,73,49.13,70.63,56.16q.08,7.8.56,15.6l-2.51,0"/><path class="cls-9" d="M83.21,35q4.64,0,9.27,0c-.09,0,7.33-.17,8.06,11.51.29,11.17-7.79,10.91-7.7,10.91H88.78q-.09,7.16-.42,14.31l-4.91,0Q83.57,53.41,83.21,35Z"/><path class="cls-9" d="M88.76,47.12c0-2.4-.09-4.79-.17-7.18l2.93,0c2.53,0,3.73,1.2,4,5.68,0,.34,0,.69,0,1,0,4.47-1.17,5.65-3.78,5.65h-3c0-1.77,0-3.54,0-5.3"/><path class="cls-9" d="M104.91,35.27l4.82.12a102.86,102.86,0,0,1,.27,36c-1.71,0-3.42.09-5.13.12A125.94,125.94,0,0,0,104.91,35.27Z"/><path class="cls-9" d="M115.93,35.55q7.44.24,14.87.58c.49,1.54.92,3.09,1.27,4.63q-4.9-.16-9.83-.29a70.78,70.78,0,0,1,1.13,10.42l8.81,0c.06,1.49.06,3,0,4.46l-8.75,0a72.11,72.11,0,0,1-1.12,10.51c3.26-.09,6.52-.18,9.78-.29-.38,1.66-.84,3.33-1.38,5q-7.43.36-14.84.6A83.25,83.25,0,0,0,115.93,35.55Z"/></g></svg>