<svg xmlns="http://www.w3.org/2000/svg" viewBox="0 0 94.92 90.43"><defs><style>.cls-1{fill:#f9e398;}.cls-2{fill:#af6e30;}.cls-3{fill:none;}.cls-10,.cls-11,.cls-3{stroke:#1c204d;stroke-linecap:round;stroke-linejoin:round;stroke-width:0.8px;}.cls-10,.cls-4{fill:#fff;}.cls-5{fill:#30ad4d;}.cls-6{fill:#f59da0;}.cls-7{fill:#1c204d;}.cls-8{fill:#0077bf;}.cls-9{fill:#f9b730;}.cls-11{fill:#ea4827;}</style></defs><g id="Layer_1" data-name="Layer 1"><path class="cls-1" d="M88.3,56.48A2.26,2.26,0,0,0,87,55.14c-1.64-.62-3.28-1.25-5-1.75s-3.32-.73-5-1.1c-3.25-.72-6.59-2.14-9.89-.8a3.38,3.38,0,0,0-.41.24,2.78,2.78,0,0,0-.81-.72,6.16,6.16,0,0,0-2.42-.63c-.64-.07-1.28-.1-1.92-.14l-2.26-.16c-1-.06-2.32-.35-3,.53A3.6,3.6,0,0,0,56,51l-.84-.28c-.3-.09-.61-.14-.91-.2a2.18,2.18,0,0,0-1.2-1,48.41,48.41,0,0,0-6.69-1.86,2,2,0,0,0-.6,0,2.61,2.61,0,0,0-.31-.27,5,5,0,0,0-.75-.32L44.37,47c-.14,0-.27-.08-.4-.12l-.79-.43a1.45,1.45,0,0,0-.75-.24,1.56,1.56,0,0,0-.8,0,1.66,1.66,0,0,0-.63.33l-5.22-1.6-8.5-2.58a20.6,20.6,0,0,0-5.57-1.3,1.54,1.54,0,0,0-.61-1.12l-.42-.31h0l-.35-.23c-1-.76-2.05-1.48-3.12-2.14a2.19,2.19,0,0,0-.67-.6c-1.86-1.12-3.8-2-6-1.68a7.92,7.92,0,0,0-5.18,2.8,8.21,8.21,0,0,0-1.08,6,23.75,23.75,0,0,0,1.48,6,31.16,31.16,0,0,0,3.1,5.29,16.75,16.75,0,0,0,4.05,4.3,18.72,18.72,0,0,0,2.68,1.36,12.73,12.73,0,0,1,2.29,1.57,10.59,10.59,0,0,0,4.51,1.74c1.95,2.86,4.85,4.78,7.17,7.29a1,1,0,0,0,1.57-.21,4,4,0,0,0,.23-.53l.23.48a3.27,3.27,0,0,0,1,1.32,3.48,3.48,0,0,0,1.4.51,3.56,3.56,0,0,0,3-.5,3.87,3.87,0,0,0,.89-1.19,5.77,5.77,0,0,0,.36-.7A3.76,3.76,0,0,0,41.82,73a2.71,2.71,0,0,0,1.71-.59,4.38,4.38,0,0,0,.9-1.27,10,10,0,0,0,.48-1,10.26,10.26,0,0,0,.59,1,10.14,10.14,0,0,0,1,1.25,2.26,2.26,0,0,0,1.67.67,4.22,4.22,0,0,0,3.2-1,5.28,5.28,0,0,0,.82-1.23A3,3,0,0,0,52.86,72a4.07,4.07,0,0,0,3.22,1,3.9,3.9,0,0,0,2.81-1.71,4.32,4.32,0,0,0,.3-.56c.19.25.39.5.61.74a4.17,4.17,0,0,0,2.32,1.4,2.69,2.69,0,0,0,2.72-1.11,13,13,0,0,0,.74-1.31l.2-.38a4.89,4.89,0,0,0,.55,1.18,2.14,2.14,0,0,0,1.08,1A1.44,1.44,0,0,0,69,71.59l.61-.9c.1-.15.21-.3.32-.44-.15.19,0,0,0,0l.2-.25c.3-.36.63-.7,1-1a.84.84,0,0,0,.54-.28,33.05,33.05,0,0,1,4.69-4.39c1.66-1.2,3.56-2,5.29-3.1a9.94,9.94,0,0,1,2.81-1c1.11-.31,2.23-.58,3.35-.86.8-.2,1.67-.6,1.6-1.58A1.3,1.3,0,0,0,88.3,56.48Zm-71.52.44c-2.82-1.26-4.39-3.66-6-6.2a14.88,14.88,0,0,1-1.94-4.23A1.19,1.19,0,0,0,9.05,46c.11-1,.1-2,.16-3.08,0-.25,0-.51.06-.76,0,0,0-.16,0-.2l.06-.39c0-.1.06-.18.08-.27l0,0a3.25,3.25,0,0,1,1-.69,2.18,2.18,0,0,0,.8,0h0a3.75,3.75,0,0,1,.58,0,5,5,0,0,1,.74.18,2,2,0,0,0,.86.54,2,2,0,0,0,1.17-.07,18.25,18.25,0,0,0,1.52,1.09,1.68,1.68,0,0,0,.44.19c-.12.27-.24.54-.35.81l0,0h0l-.21.47a1.68,1.68,0,0,0,0,.8s0,0,0,.08a2.45,2.45,0,0,0-.26.87c-.28,2.46.79,4.78,1.53,7.06a59.36,59.36,0,0,0,2.11,5.87A13.62,13.62,0,0,0,16.78,56.92Z"/><path class="cls-2" d="M40.83,58.28a1,1,0,0,1,.59-.1A46.63,46.63,0,0,0,55,58.55c2.12-.33,4.17-.78,6.31-1A10.44,10.44,0,0,0,63,57.15a1,1,0,0,0-1-1.1,4.62,4.62,0,0,1-1.11-.2,1,1,0,0,0-.54,0,1,1,0,0,0-.65-.26h-.23a3.25,3.25,0,0,1-.68-.18l.18.07a.85.85,0,0,0-.37-.12.77.77,0,0,0-.4,0,.7.7,0,0,0-.34.18.77.77,0,0,0-.26.28,1.12,1.12,0,0,0-.12.54l-.84.06c-.87.08-1.73.24-2.59.37a.85.85,0,0,0,.09-.48,1,1,0,0,0-.33-.84c-1.1-1.91-3.62-2-5.65-2.53-2.89-.75-5.71-1.7-8.53-2.66a36.93,36.93,0,0,0-8.08-2,60.6,60.6,0,0,0-8.63-.15,1,1,0,0,0-.71,1.72,10.1,10.1,0,0,0,2.69,1.88,1.66,1.66,0,0,0,.75.84c4.83,2.43,9.8,4.68,15.12,5.61A.93.93,0,0,0,40.83,58.28Z"/><path class="cls-3" d="M87.29,57.51c-9-1.85-14.5-2.67-23.52-.77s-18.52,3.14-30.58-.45c0,0-13.43-4.45-13.16-12.74"/><path class="cls-3" d="M68.11,72.67c1.36-1.55,2.55-3.12,3.76-4.46,6.69-7.44,12.34-7.84,15.76-8.65,0,0,2-.58,2.05-2,0-2-9.27-6.34-25.47-7.08"/><path class="cls-3" d="M64.21,50.46a113.17,113.17,0,0,1-12.35-1.52c-7.85-1.36-24.52-8-31-8s-5.25,6-5.25,6C17.8,57.89,23.14,66.34,30,72"/><path class="cls-3" d="M19.36,58.59a23.47,23.47,0,0,1-5.26-3.84,16.21,16.21,0,0,1-4.71-8.46,9,9,0,0,1,.18-4.14,2.18,2.18,0,0,1,.33-.77,1.4,1.4,0,0,1,.41-.54c.07-.05.12-.16.19-.19a.44.44,0,0,0,.19-.07c0-.1.41-.09.6-.18a4.7,4.7,0,0,1,3.12,1A12,12,0,0,1,16,42.67"/><path class="cls-3" d="M22,41a23.09,23.09,0,0,0-5-4.49,10.52,10.52,0,0,0-7.45-1.69,6.66,6.66,0,0,0-1.85.66c-.32.18-.63.37-.92.57a5.29,5.29,0,0,0-.71.71,5.32,5.32,0,0,0-1,1.56A6.26,6.26,0,0,0,4.44,40a14.45,14.45,0,0,0,0,6.67,22.12,22.12,0,0,0,6.83,11.25,36.8,36.8,0,0,0,11.67,6.46"/><path class="cls-3" d="M64.83,56.44c-3.64-.54-7.45-1.21-10.61-2-8.87-2.17-24.71-8.1-32.54-6.12"/><path class="cls-4" d="M72,27.27c0-.47-.09-.93-.16-1.4-.14-1-.35-2-.43-3a.56.56,0,0,0-.69-.53,14.06,14.06,0,0,1-3.17.22h-.1a.37.37,0,0,0-.19-.09.25.25,0,0,0-.12,0v0h0a.2.2,0,0,0-.07-.06h0l-.08,0h0l-.09,0h0l-.1,0h0l-.09,0h0l0,0,0,0h0a.21.21,0,0,0-.06.08h0l0,.09h0a.36.36,0,0,0,0,.1h0a.38.38,0,0,0,0,.19.27.27,0,0,0,.07.08h0a.55.55,0,0,0,.07.28h0l0,0a.38.38,0,0,0,.09.18s0,0,0,0a1.72,1.72,0,0,0,.07.21q.17.32.3.63A10,10,0,0,1,67.7,26l.06.15a14.82,14.82,0,0,1-1.48.61c-.58.23-1.09.57-1.65.82s-1.24.4-1.84.67a12.16,12.16,0,0,0-1.67,1l-.13.12a38.12,38.12,0,0,1-6,1.28,9.48,9.48,0,0,0-2.75,1.19,7.09,7.09,0,0,0-2.39,1.68l-.06.1a13.29,13.29,0,0,0-2.15,1.49,1.55,1.55,0,0,0-.24.19h0c-.37.26-.78.46-1.16.71a2.42,2.42,0,0,0-1,.9A.75.75,0,0,0,45,37a.74.74,0,0,0-.19.94,14.83,14.83,0,0,0,1.91,2.68,3.29,3.29,0,0,1,.14.54.54.54,0,0,0,.45.39.57.57,0,0,0,.55-.26c.16-.25.31-.51.48-.76a.56.56,0,0,0,0-.08l0,0,0,0,.07-.09.29-.3c.2-.19.41-.37.63-.55l.34-.29.17-.13,0,0,.1-.08a.61.61,0,0,0,.24-.31.36.36,0,0,0,0-.7l-.26-.08-.12,0-.07,0a5.39,5.39,0,0,1-.48-.25l-.07,0a1.31,1.31,0,0,0,.64-.21l.18-.11a.66.66,0,0,0,.49-.08,3.13,3.13,0,0,0,.3-.2l.21-.16,0,0h0a5.59,5.59,0,0,1,.66-.41c.17-.09.34-.2.5-.3,0,.76.16,1.51.19,2.26a.59.59,0,0,0-.12.49,32.41,32.41,0,0,0,.6,3.41.48.48,0,0,0,.13.23.53.53,0,0,0,0,.43.57.57,0,0,0,.62.25L54,43a4.22,4.22,0,0,1,.71,0l.36,0a1.21,1.21,0,0,0,.53-.12A.46.46,0,0,0,56,43a25,25,0,0,0,3.54-.51c.53-.1,1.07-.2,1.6-.34a3.92,3.92,0,0,0,.78-.3c.16-.09.39-.33.57-.26a.56.56,0,0,0,.62-.25,2.18,2.18,0,0,0,.26-1.11.43.43,0,0,0,.12-.21,16.82,16.82,0,0,0,.7-7.42h0a6.75,6.75,0,0,1,1.11-.63l.61-.28a1.57,1.57,0,0,0,.51-.36.45.45,0,0,0,.32-.09c.82-.53,1.67-1,2.53-1.47a16.06,16.06,0,0,0,2.44-1.43A1.1,1.1,0,0,0,72,27.27Z"/><line class="cls-5" x1="58.58" y1="54.45" x2="52.37" y2="54.38"/><path class="cls-6" d="M69.31,22a24.28,24.28,0,0,1-1.41-2.67c-.21-.45-.41-.9-.66-1.32s-.41-.63-.63-.93a.71.71,0,0,0-.1-.31,2.06,2.06,0,0,0-.33-.4h0L66,16.24a1,1,0,0,0-.55-.29s-.08-.09-.13-.13l-.13-.1a24.54,24.54,0,0,0-2.94-3.09,5,5,0,0,0-.61-.61.74.74,0,0,0-1.14.15,6.42,6.42,0,0,0-.9,1.51,1.11,1.11,0,0,0,.06,1.05,3.22,3.22,0,0,0,.81.6.93.93,0,0,0,.49.08l.1.11a11,11,0,0,0,1.25,1h-.12a1,1,0,0,0-.59.43.41.41,0,0,0-.07.32.55.55,0,0,0-.43-.14.61.61,0,0,0-.43.32.85.85,0,0,0-.37.27c-.68.27-1.4.47-2.09.69l-.05,0a.66.66,0,0,0-.24,0c-1.07.14-2.15,0-3.23,0a10.29,10.29,0,0,1-1.57,0c-.57-.07-1.3-.33-1.77.13a4.07,4.07,0,0,0-.46.63,2.79,2.79,0,0,0-.41.71,1.79,1.79,0,0,0,.4,1.74,3.56,3.56,0,0,0,.45.42h0l-.26.12a1.82,1.82,0,0,0-.31.16.52.52,0,0,0-.17.12,2,2,0,0,0-.39-.24,1.78,1.78,0,0,0-.44-.21A1.19,1.19,0,0,0,49,22a1.86,1.86,0,0,0-.34.05,1,1,0,0,0-.77,1,1.09,1.09,0,0,0,.13.53.88.88,0,0,0,.28.3,3.66,3.66,0,0,0,.59,1,4.83,4.83,0,0,0,.43.58,1.87,1.87,0,0,0,.74.47.35.35,0,0,0,.11,0,13.23,13.23,0,0,0,2.11,2.31c.41.32.83.61,1.23.95a5.39,5.39,0,0,1,.59.58,3.09,3.09,0,0,0,.48.6c.46.35,1.32.12,1.84,0A15.84,15.84,0,0,0,58.23,30a13.05,13.05,0,0,0,3.43-1.3.72.72,0,0,0,.17-1.08.84.84,0,0,0,.08-.31c0-.26,0-.53,0-.8a.49.49,0,0,0,.13-.27c.2-1.29.44-2.56.72-3.83a2.78,2.78,0,0,0,.32-2.05,4.24,4.24,0,0,0-.42-1.29.9.9,0,0,0-.53-.45c-.14-.32-.26-.64-.38-1a.47.47,0,0,0,.31.09,2.11,2.11,0,0,1,.71,0h0a.5.5,0,0,0,.14.28,6,6,0,0,1,.62.62c.19.21.35.46.55.65a1.53,1.53,0,0,0,.9.39l.23,0s0,0,0,0l1,2a1,1,0,0,0,.39.5,1.86,1.86,0,0,0,.66.14l1.11.14a.44.44,0,0,0,.29-.08l.09.05A.37.37,0,0,0,69.31,22Z"/><path class="cls-6" d="M53.23,43.2a1.05,1.05,0,0,0,0-.31,1.34,1.34,0,0,0-.07-.18.51.51,0,0,0-.17-.32,2,2,0,0,1-.18-.36A5.28,5.28,0,0,1,52.57,41a4.38,4.38,0,0,1-.06-1.25.36.36,0,0,0-.16-.41L51,38.7a.17.17,0,0,0-.1,0,.3.3,0,0,0-.18-.13.39.39,0,0,0-.36.09l-.55.6-.13.09A2.76,2.76,0,0,0,49,40a.47.47,0,0,0-.14.14.38.38,0,0,0,0,.42.73.73,0,0,0,.4.2l.16,0,0,0,.05,0,.29.14.44.24a5.79,5.79,0,0,0,.29,1.36s0,0,0,0a.26.26,0,0,0-.09,0,1.31,1.31,0,0,0-.76,0,10.69,10.69,0,0,0-1.36.42.38.38,0,0,0-.25.45.38.38,0,0,0,.27.25l-.13.11a.38.38,0,0,0,0,.48.35.35,0,0,0,.43.1l0,0,.13.06a.71.71,0,0,0,.29,0h0a2.7,2.7,0,0,0-.28.31.37.37,0,0,0,.35.61c.82-.12,1.64-.25,2.45-.41a9.56,9.56,0,0,0,1.18-.26c.36-.13.35-.48.39-.81,0-.15,0-.31.07-.47a.47.47,0,0,0,0-.17Z"/><path class="cls-7" d="M71,52.82a5.83,5.83,0,0,0-2.37-.28.62.62,0,0,0,0-.27l0-.05s.17-.35.13-.35a7.39,7.39,0,0,0-.94,0c-.7.06-1.59,0-2.29,0l-.14.29A28.8,28.8,0,0,0,63,55.5c-.43.56,0,1.22.51,1.13,1.6-.28,3.5-.39,5.11-.5.75-.05,1.44-.29,2.17-.4.36,0,.74,0,1.1-.07A2.58,2.58,0,0,0,73,55.51c.72-.4.35-1.26-.11-1.7A5.25,5.25,0,0,0,71,52.82Z"/><path class="cls-8" d="M73,39.33c-4.58.71-9.75,1.84-9.75,1.84s-2.86,1.74-9.9,1.93l-1,13.35c.55.06,1.07.19,1.62.28l.23,0,.53.06.57.08h.1l.12,0a14.14,14.14,0,0,0,3,.06l.15-9.72,10.19-2.07-4.63,6.58H65.2l0,0,.11,0h0c.65,0,1.3.16,2,.13.33,0,.66-.09,1-.11a1.85,1.85,0,0,1,.41,0,1,1,0,0,0,.56,0,.2.2,0,0,1,.28.19,7.21,7.21,0,0,0,1.59-.25l.13-.05h.18l4.21-10.6S77.12,38.69,73,39.33Z"/><path class="cls-8" d="M54.11,43.11c.24,0,.48,0,.71,0l.47,0a.49.49,0,0,1,.17-.06l.14,0h0A7.83,7.83,0,0,1,56.69,43l5.62-1.16a.21.21,0,0,1,0-.06,4.93,4.93,0,0,1,.78-.58,1.57,1.57,0,0,0,.41-.65L53.19,42.7c.07.16.13.33.2.49A6.1,6.1,0,0,0,54.11,43.11Z"/><path class="cls-8" d="M64.2,36.15,52.41,38.59c0,.34,0,.68.05,1l11.7-2.42A9.21,9.21,0,0,1,64.2,36.15Z"/><path class="cls-8" d="M49.64,39.38l.35-.29-3.93.81.17.24c.17.23.35.44.53.66l1.77-.37A7.91,7.91,0,0,1,49.64,39.38Z"/><path class="cls-8" d="M63.83,39.45c.06-.36.11-.72.19-1.08L52.63,40.73q.1.5.24,1Z"/><path class="cls-8" d="M46.91,35.26a11.59,11.59,0,0,1-1.5,1.29l-.11.08,19-3.93a1.22,1.22,0,0,1,.81-.64,9.33,9.33,0,0,0,1.11-.52c.41-.21.87-.31,1.26-.53h0Z"/><path class="cls-8" d="M64.32,33.85,52.17,36.36a.41.41,0,0,1,.19.34c0,.22,0,.44,0,.65l11.92-2.46A6,6,0,0,0,64.32,33.85Z"/><path class="cls-8" d="M50,37.14a8.86,8.86,0,0,1,.82-.4c.17-.08.4-.14.59-.23l-6.67,1.38c.17.31.35.62.54.92l4.68-1A.43.43,0,0,1,50,37.14Z"/><path class="cls-8" d="M62,28.3a3.57,3.57,0,0,1-1.11.85L72,26.84a.49.49,0,0,1,0-.12,6.8,6.8,0,0,0-.06-.9l-7.07,1.46a8.42,8.42,0,0,1-1.8.77.52.52,0,0,1-.28,0l0,0-.21.13a.44.44,0,0,1-.48,0Z"/><path class="cls-8" d="M72.15,28,51.09,32.31c-.66.45-1.24,1-1.92,1.44L70,29.44a2,2,0,0,1,.69-.57l.91-.52a4.53,4.53,0,0,0,.46-.3l0,0,0,0Z"/><path class="cls-8" d="M66.83,23.62l4.62-.95c0-.12,0-.23-.07-.34a6.24,6.24,0,0,1-1,0,5.47,5.47,0,0,0-.9.08l-.77.08a.65.65,0,0,1-.19,0,1.17,1.17,0,0,1-.27,0,.74.74,0,0,1-.21-.13l-1.55.32A4,4,0,0,0,66.83,23.62Z"/><path class="cls-8" d="M67.55,25.66l4.25-.88-.15-1-4.39.91A6.87,6.87,0,0,1,67.55,25.66Z"/><path class="cls-2" d="M51.72,21.34a3.31,3.31,0,0,0-.34-.3l-.6-.53.11-.13a11.46,11.46,0,0,0,.84-1.33A.74.74,0,0,0,51.29,18a5.31,5.31,0,0,0-.89-.13,3.56,3.56,0,0,0-.73.09h0a2.67,2.67,0,0,0-.56,0,.74.74,0,0,0-.72.63.77.77,0,0,0,0,.3l-.16,1.29a3.8,3.8,0,0,0-.06.58,1.16,1.16,0,0,0,.09.41.45.45,0,0,0,0,.2.47.47,0,0,1,0,.17.56.56,0,0,0,.4.52.48.48,0,0,0,.29,0,.35.35,0,0,0,.2-.1,4.58,4.58,0,0,1,.74,0l0,0L50,22l.07.07h0l.12.18a.7.7,0,0,0,.51.39c.18,0,.35-.13.51-.21l.2-.11.09,0,.06,0h0a.53.53,0,0,0,.18,0,.43.43,0,0,0,.25-.38A.78.78,0,0,0,51.72,21.34Z"/><path class="cls-7" d="M61.6,16.22l0-.14a.38.38,0,0,0-.09-.19l-.1-.1-.12-.07h0a1.23,1.23,0,0,0-.41-.21l-.1-.05-1-.33a.3.3,0,0,0-.33.07.29.29,0,0,0-.22.08.56.56,0,0,0-.36.26c-.35.16-.81.16-1.15.32s-.45.25-.68.36a4.53,4.53,0,0,1-.81.27c-.53.13-1.07.21-1.59.37s-1.09.39-1.66.51a.38.38,0,0,0-.23.19l-1.18,0c-.46,0-.46.7,0,.72,1.28.06,2.58.05,3.85.21a10.34,10.34,0,0,0,3.5-.31,4.13,4.13,0,0,0,2.38-1.25l.05,0h0l.11-.09h0l.11-.13a.69.69,0,0,1,0-.08l0-.08v0l0-.15A.22.22,0,0,0,61.6,16.22Z"/><path class="cls-9" d="M59.1,14.37c-.83.41-1.67.8-2.53,1.15a9.76,9.76,0,0,1-1.28.46c-.41.1-.84.12-1.25.21a24.43,24.43,0,0,1-5.36,1,.36.36,0,0,0,0,.72,25,25,0,0,0,5.55-1c.44-.1.9-.11,1.33-.23a9.26,9.26,0,0,0,1.36-.51c.86-.35,1.71-.74,2.55-1.15C59.89,14.79,59.52,14.17,59.1,14.37Z"/><path class="cls-4" d="M48.32,17Z"/><path class="cls-4" d="M59.31,9.68A3.43,3.43,0,0,0,57,9.5a8.27,8.27,0,0,0-2.34,1.12,9,9,0,0,0-2,1.37,17,17,0,0,1-2,1.63.94.94,0,0,0-.3.39l-.11.08-.26.14-.27.13h0l-.14.06c-.4.15-.81.31-1.22.45a1.7,1.7,0,0,0-.74.28.76.76,0,0,0-.11.86,1.71,1.71,0,0,0,.28.63.71.71,0,0,0,.38.28l.11,0,.06,0-.12-.09a1.42,1.42,0,0,0,.71.24A25.55,25.55,0,0,0,56,15.59a.91.91,0,0,0,.44-.35A6.27,6.27,0,0,0,57.4,15a5.23,5.23,0,0,0,2.06-1,3.87,3.87,0,0,0,.73-2.37A2.11,2.11,0,0,0,59.31,9.68Z"/><path class="cls-3" d="M56.28,24.4l-1.35,1.68a2.12,2.12,0,0,0-.58-.8L54,25a.15.15,0,0,0-.18,0,4.44,4.44,0,0,0-1.51,1.78.14.14,0,0,0,.05.18l.35.3c.4.34,1.3.8,1.86.13.33-.38,1.12-1.45,2.11-2.79"/><path class="cls-3" d="M54.35,22.87s1.27,2.75,5.46,1.25"/><path class="cls-3" d="M63,55.6c-.51,1.16.41,1,.41,1l9.44-1.16c.61-.08.49-.82.49-.82-.81-3-6.3-1.93-6.3-1.93"/><path class="cls-3" d="M65.52,51.91A33.24,33.24,0,0,0,63,55.65"/><line class="cls-3" x1="68.38" y1="52.54" x2="68.9" y2="51.91"/><path class="cls-3" d="M72.13,27.54s.08.47-.2.65c-.58.39-7.71,4.46-7.71,4.46"/><path class="cls-3" d="M67.25,18.35c.19.31,1.18,2.16,2.21,4.12"/><line class="cls-3" x1="67.72" y1="26.02" x2="70.27" y2="26.3"/><line class="cls-3" x1="65.23" y1="19.64" x2="66.52" y2="22.27"/><line class="cls-3" x1="61.99" y1="28.48" x2="67.72" y2="26.09"/><path class="cls-3" d="M62.72,22a4.92,4.92,0,0,1,0,.67c-.37,2.75-1,4.26-.69,5.8"/><path class="cls-3" d="M61.41,17.17a10.11,10.11,0,0,1,1.06,2.73A10.56,10.56,0,0,1,62.72,22"/><path class="cls-3" d="M61.36,17.08l0,.09"/><path class="cls-3" d="M50.33,25.87c1.69,2.82,3.16,2.9,4.25,4.6"/><path class="cls-3" d="M48.53,18.06a7.12,7.12,0,0,0-.3,3.09,8.08,8.08,0,0,0,.14.88"/><path class="cls-7" d="M56.15,24.53A14.55,14.55,0,0,1,55,26.11a.27.27,0,0,0-.19-.08,2,2,0,0,0-.36-.65c-.17-.23-.46-.54-.76-.32a2.06,2.06,0,0,0-.28.31l-.27.32-.56.65h0l0,.06a0,0,0,0,0,0,0,.3.3,0,0,0-.13.09.33.33,0,0,0,0,.41.75.75,0,0,0,.33.2.31.31,0,0,0,.12.16,1.38,1.38,0,0,0,1.4.23,1.89,1.89,0,0,0,.72-.83,9.44,9.44,0,0,0,1.41-2A.15.15,0,0,0,56.15,24.53Z"/><path class="cls-3" d="M50.86,25.77a.88.88,0,0,0,.53-1"/><path class="cls-3" d="M50.67,25.84l.19-.07"/><path class="cls-3" d="M48.47,22.18c-1.21.71.14,2.7.93,3.33a1.65,1.65,0,0,0,1.27.33"/><path class="cls-3" d="M50.72,22.89a1.58,1.58,0,0,0-2.25-.71"/><path class="cls-3" d="M49.65,22.89a.84.84,0,0,1,.23.42,2.66,2.66,0,0,0,.53,1.31"/><path class="cls-3" d="M50,23.66a.55.55,0,0,1-.62,0"/><path class="cls-3" d="M49.75,23.76a.72.72,0,0,1-.06.63"/><path class="cls-3" d="M62,18.46c.69.09,1.37,1.68,1.27,2.93a1.66,1.66,0,0,1-.57,1.15"/><path class="cls-3" d="M59.61,15s3.23.55,1.71,2-7.56,1.91-10.64.79"/><path class="cls-3" d="M59.45,14.13a30.17,30.17,0,0,1-11.17,3l.16.87a30.17,30.17,0,0,0,11.17-3l-.16-.87"/><path class="cls-3" d="M48.28,17.13s-1.12-.73-1.05-1.54,1.25-.42,3.19-1.79,5.3-5.2,8.39-4.41c2.25.58,1.3,3.31.64,4.74"/><path class="cls-3" d="M51.37,43.8a4.25,4.25,0,0,1-1.2-3.1"/><path class="cls-3" d="M50.4,42.56a7.19,7.19,0,0,0-2.27.49s-.37.19-.31.49c0,0,.07.13.81.1"/><path class="cls-3" d="M44.91,38.33a1,1,0,0,1,.15-1.44,70.78,70.78,0,0,1,7.81-5.58,6.08,6.08,0,0,1,1.74-.7"/><path class="cls-3" d="M50.08,41.19l-1.59-.73"/><path class="cls-3" d="M52.44,39.18a12.08,12.08,0,0,1-1.78-.86"/><path class="cls-3" d="M51.09,43.57c-1.41.18-2.57,1.15-2.5,1.57s.69.26.69.26,3.15-.61,3.59-.73.35-.31.41-.58"/><path class="cls-3" d="M49.06,44.44l-.55.07s-.46.07-.48-.29,1-.88,2.61-1.21"/><path class="cls-3" d="M52.21,36.16c-1.52.76-2.64,1.34-2.64,1.34"/><path class="cls-3" d="M63.62,30.09s1.87,4.3-.4,11.08"/><line class="cls-3" x1="53.34" y1="43.3" x2="52.28" y2="56.32"/><path class="cls-3" d="M68.76,45.19l-4.63,6.58a23.92,23.92,0,0,0,3.68.14,23,23,0,0,0,3.68-.15c0-.08,4.27-10.74,4.27-10.74s.67-2.13-1.33-1.91-11.21,2.06-11.21,2.06S60.89,43,53.32,43.1"/><line class="cls-3" x1="70.03" y1="44.93" x2="57.3" y2="47.52"/><line class="cls-3" x1="58.57" y1="47.26" x2="58.42" y2="56.51"/><path class="cls-3" d="M52.43,34.42a20.89,20.89,0,0,0,.89,8.68"/><path class="cls-3" d="M52,18.18a8.66,8.66,0,0,1-1.1,2.32l1.45,1.43-1.68.82"/><path class="cls-3" d="M62,28.48s-1.62,1.84-7.38,2.13"/><path class="cls-3" d="M63.91,16.21a2.14,2.14,0,0,0,.45,2.47c1.15,1.29,2.19.66,2.19.66"/><path class="cls-3" d="M61.48,17.16a.94.94,0,0,1,1.09-.71"/><path class="cls-3" d="M63.22,18.3A1.26,1.26,0,0,0,62,17.78a.51.51,0,0,1-.19,0"/><path class="cls-3" d="M65.23,19.64s-.82.29-1.64-.87c-.14-.19-.26-.34-.37-.47"/><path class="cls-3" d="M63.87,16.17l-2.81-2.52s-1.22-.88-.4-1.79c0,0,.38-.42,1,.1.31.26,3.22,3.06,4.51,4.45a6,6,0,0,1,1.08,1.94"/><path class="cls-3" d="M60.18,12.36l.2.13"/><path class="cls-3" d="M63.54,16.49,60,13.79a1.31,1.31,0,0,1-.23-.17"/><path class="cls-3" d="M59.61,13.9a1.92,1.92,0,0,1,.89.3"/><path class="cls-3" d="M63.33,16.77l-1.6-.69"/><path class="cls-3" d="M69.31,22a4.72,4.72,0,0,1,2,.25,6,6,0,0,1-2.51.27,6.17,6.17,0,0,1-2.51-.26s0-.06.12-.08"/><path class="cls-3" d="M48.93,40.7c-.81.81-1.39,1.25-1.49,1.16s.59-1,1.55-2,1.82-1.73,1.92-1.63,0,.07,0,.14"/><line class="cls-3" x1="71.31" y1="22.26" x2="72.13" y2="27.54"/><line class="cls-3" x1="66.29" y1="22.27" x2="67.72" y2="26.09"/><circle class="cls-10" cx="56.08" cy="21.17" r="1.73"/><circle class="cls-7" cx="56.08" cy="21.17" r="0.52"/><polyline class="cls-3" points="61.23 20.14 59.52 19.93 60.76 18.73"/><line class="cls-3" x1="59.52" y1="19.93" x2="61.23" y2="19.37"/><path class="cls-11" d="M57.61,22.74a1.56,1.56,0,0,1-.23-.81,1.58,1.58,0,1,1,3.15,0A1.56,1.56,0,0,1,59,23.5a1.42,1.42,0,0,1-.36,0"/><path class="cls-3" d="M60.5,13a.55.55,0,0,0-.59,0"/><path class="cls-7" d="M60.18,12.5a.18.18,0,0,0,0,.36A.18.18,0,0,0,60.18,12.5Z"/><line class="cls-3" x1="47.44" y1="41.86" x2="44.91" y2="38.33"/><line class="cls-3" x1="50.91" y1="38.23" x2="48.58" y2="36.95"/><path class="cls-7" d="M70.64,22.15a.17.17,0,0,0-.09-.11.21.21,0,0,0-.14,0s0,0,0,0h-.35a2.54,2.54,0,0,1-.39,0,.17.17,0,0,0-.18.18.19.19,0,0,0,.18.19,4,4,0,0,0,.85,0s.09-.05.11-.08A.23.23,0,0,0,70.64,22.15Z"/><path class="cls-7" d="M48.69,40.63a.19.19,0,0,0-.26,0l-.1.08,0,0,0,0-.19.14-.4.29a.18.18,0,0,0-.06.25.17.17,0,0,0,.24.07l.84-.63a.19.19,0,0,0,0-.26Z"/><path class="cls-3" d="M72.85,69.6A3.46,3.46,0,0,0,75.7,73"/><path class="cls-3" d="M65.94,69.6a3.46,3.46,0,1,0,6.91,0"/><path class="cls-3" d="M59,69.6a3.46,3.46,0,1,0,6.91,0"/><path class="cls-3" d="M52.12,69.6a3.46,3.46,0,1,0,6.91,0"/><path class="cls-3" d="M45.09,69.6a3.46,3.46,0,1,0,6.91,0"/><path class="cls-3" d="M38.17,69.6a3.46,3.46,0,0,0,6.92,0"/><path class="cls-3" d="M31.26,69.6a3.46,3.46,0,1,0,6.91,0"/><path class="cls-3" d="M24.35,69.6a3.46,3.46,0,1,0,6.91,0"/><path class="cls-3" d="M20.89,73.06a3.46,3.46,0,0,0,3.46-3.46"/><path class="cls-3" d="M50.93,56a22.63,22.63,0,0,0,8.31.67"/></g></svg>