<svg xmlns="http://www.w3.org/2000/svg" viewBox="0 0 214.04 132.35"><defs><style>.cls-1{fill:#ea4827;}.cls-2,.cls-4{fill:none;stroke-linecap:round;stroke-linejoin:round;stroke-width:0.8px;}.cls-2{stroke:#1c204d;}.cls-3{fill:#f47951;}.cls-4{stroke:#f8c6dc;}</style></defs><g id="Layer_1" data-name="Layer 1"><path class="cls-1" d="M61.32,31H54a3.3,3.3,0,0,0-3.06,2.5L44.2,55.63,37.46,33.45A3.3,3.3,0,0,0,34.4,31H27.11a3.5,3.5,0,0,0-3.24,3.71V95.18a3.49,3.49,0,0,0,3.24,3.7h7.58a3.49,3.49,0,0,0,3.24-3.7V81.1l1.27,4.43a3.3,3.3,0,0,0,3.08,2.55h3.79a3.3,3.3,0,0,0,3.08-2.54l1.34-4.64V95.18a3.5,3.5,0,0,0,3.25,3.7h7.58a3.49,3.49,0,0,0,3.24-3.7V34.67A3.5,3.5,0,0,0,61.32,31Z"/><path class="cls-1" d="M97.54,31h-8a3.33,3.33,0,0,0-3.11,2.67L83.33,45.71,80.27,33.64A3.35,3.35,0,0,0,77.16,31h-8a3.16,3.16,0,0,0-2.64,1.55,4.17,4.17,0,0,0-.43,3.35L76.3,70.21v25a3.49,3.49,0,0,0,3.24,3.7h7.59a3.5,3.5,0,0,0,3.24-3.7v-25l10.24-34.35a4.21,4.21,0,0,0-.43-3.35A3.16,3.16,0,0,0,97.54,31Z"/><path class="cls-1" d="M132.35,43.52a17.6,17.6,0,0,0-3.43-7.13,13.82,13.82,0,0,0-5.64-4.29A17.76,17.76,0,0,0,116.72,31H105.35a3.5,3.5,0,0,0-3.24,3.71V95.18a3.49,3.49,0,0,0,3.24,3.7h7.58a3.49,3.49,0,0,0,3.24-3.7V75.25h.63a15.39,15.39,0,0,0,8.41-2.12,15.21,15.21,0,0,0,5.35-5.92,19.74,19.74,0,0,0,2.19-6.61,53.25,53.25,0,0,0,.45-7.49A43.64,43.64,0,0,0,132.35,43.52Zm-12.85,11a10.74,10.74,0,0,1-.22,1.46c0,.18,0,.36,0,.55a1.51,1.51,0,0,1,.09.48,3,3,0,0,1-.62,2.06,2.46,2.46,0,0,1-1.75.83c-.57.07-1-.44-1.15-1a1.16,1.16,0,0,1,0-.18,1.89,1.89,0,0,1,0-.23,68.77,68.77,0,0,1,0-7.18,9.18,9.18,0,0,1,0-2.82v-.08s0-.08,0-.13a1.47,1.47,0,0,1,.87-1.75,1.8,1.8,0,0,1,.89,0,1.22,1.22,0,0,1,.87.4,2.55,2.55,0,0,1,.64.73,6.17,6.17,0,0,1,.62,2.38,20.26,20.26,0,0,1,.09,2.34C119.63,53.08,119.58,53.82,119.5,54.55Z"/><path class="cls-1" d="M145.43,31h-7.59a3.5,3.5,0,0,0-3.24,3.71V95.18a3.5,3.5,0,0,0,3.24,3.7h7.59a3.49,3.49,0,0,0,3.24-3.7V34.67A3.5,3.5,0,0,0,145.43,31Z"/><path class="cls-1" d="M177.41,46.53a3.49,3.49,0,0,0,3.24-3.7V34.67A3.5,3.5,0,0,0,177.41,31H154.8a3.5,3.5,0,0,0-3.24,3.71V95.18a3.49,3.49,0,0,0,3.24,3.7h22.61a3.49,3.49,0,0,0,3.24-3.7V86.51a3.49,3.49,0,0,0-3.24-3.7H165.63V72.45h9.85a3.5,3.5,0,0,0,3.24-3.71V60.59a3.5,3.5,0,0,0-3.24-3.7h-9.85V46.53Z"/><path class="cls-2" d="M61.32,31H54a3.3,3.3,0,0,0-3.06,2.5L44.2,55.63,37.46,33.45A3.3,3.3,0,0,0,34.4,31H27.11a3.5,3.5,0,0,0-3.24,3.71V95.18a3.49,3.49,0,0,0,3.24,3.7h7.58a3.49,3.49,0,0,0,3.24-3.7V81.1l1.27,4.43a3.3,3.3,0,0,0,3.08,2.55h3.79a3.3,3.3,0,0,0,3.08-2.54l1.34-4.64V95.18a3.5,3.5,0,0,0,3.25,3.7h7.58a3.49,3.49,0,0,0,3.24-3.7V34.67A3.5,3.5,0,0,0,61.32,31Z"/><path class="cls-2" d="M97.54,31h-8a3.33,3.33,0,0,0-3.11,2.67L83.33,45.71,80.27,33.64A3.35,3.35,0,0,0,77.16,31h-8a3.16,3.16,0,0,0-2.64,1.55,4.17,4.17,0,0,0-.43,3.35L76.3,70.21v25a3.49,3.49,0,0,0,3.24,3.7h7.59a3.5,3.5,0,0,0,3.24-3.7v-25l10.24-34.35a4.21,4.21,0,0,0-.43-3.35A3.16,3.16,0,0,0,97.54,31Z"/><path class="cls-2" d="M128.92,36.39a13.82,13.82,0,0,0-5.64-4.29A17.76,17.76,0,0,0,116.72,31H105.35a3.5,3.5,0,0,0-3.24,3.71V95.18a3.49,3.49,0,0,0,3.24,3.7h7.58a3.49,3.49,0,0,0,3.24-3.7V75.25h.63a14.36,14.36,0,0,0,13.76-8,19.87,19.87,0,0,0,2.19-6.62,53.25,53.25,0,0,0,.45-7.49,43.64,43.64,0,0,0-.85-9.59A17.6,17.6,0,0,0,128.92,36.39Z"/><path class="cls-2" d="M145.43,31h-7.59a3.5,3.5,0,0,0-3.24,3.71V95.18a3.5,3.5,0,0,0,3.24,3.7h7.59a3.49,3.49,0,0,0,3.24-3.7V34.67A3.5,3.5,0,0,0,145.43,31Z"/><path class="cls-2" d="M177.41,46.53a3.49,3.49,0,0,0,3.24-3.7V34.67A3.5,3.5,0,0,0,177.41,31H154.8a3.5,3.5,0,0,0-3.24,3.71V95.18a3.49,3.49,0,0,0,3.24,3.7h22.61a3.49,3.49,0,0,0,3.24-3.7V86.51a3.49,3.49,0,0,0-3.24-3.7H165.63V72.45h9.85a3.5,3.5,0,0,0,3.24-3.71V60.59a3.5,3.5,0,0,0-3.24-3.7h-9.85V46.53Z"/><path class="cls-3" d="M61.32,97.12H53.73a1.62,1.62,0,0,1-1.5-1.72V68.77L47.5,85.14a1.53,1.53,0,0,1-1.43,1.18H42.28a1.54,1.54,0,0,1-1.43-1.18L36.2,68.86V95.4a1.63,1.63,0,0,1-1.51,1.72H27.11A1.63,1.63,0,0,1,25.6,95.4V34.89a1.63,1.63,0,0,1,1.51-1.72H34.4a1.53,1.53,0,0,1,1.42,1.15l8.39,27.6,8.33-27.59A1.54,1.54,0,0,1,54,33.17h7.36a1.63,1.63,0,0,1,1.51,1.72V95.4A1.63,1.63,0,0,1,61.32,97.12Zm-6.08-3.44h4.58V36.61H55L45.71,67.49a1.53,1.53,0,0,1-1.42,1.16,1.71,1.71,0,0,1-1.57-1.15L33.33,36.61H28.61V93.68h4.58V58.6a1.62,1.62,0,0,1,1.5-1.72,1.72,1.72,0,0,1,1.58,1.18l7.1,24.83H45l7.17-24.83a1.54,1.54,0,0,1,1.43-1.18,1.74,1.74,0,0,1,1.65,1.72Z"/><path class="cls-3" d="M87.13,97.12H79.54A1.62,1.62,0,0,1,78,95.4V70.1L67.7,35.44a1.91,1.91,0,0,1,.21-1.55,1.45,1.45,0,0,1,1.22-.72h8a1.54,1.54,0,0,1,1.44,1.24l4.73,18.65,4.73-18.65a1.56,1.56,0,0,1,1.45-1.24h8a1.45,1.45,0,0,1,1.22.72,1.91,1.91,0,0,1,.2,1.55L88.63,70.1V95.4A1.62,1.62,0,0,1,87.13,97.12ZM81,93.68h4.58V69.82a2.1,2.1,0,0,1,.08-.56l9.74-32.65h-4.8L84.85,59.42a1.55,1.55,0,0,1-1.44,1.24,1.73,1.73,0,0,1-1.6-1.24L76,36.61h-4.8L81,69.26a1.77,1.77,0,0,1,.08.56Z"/><path class="cls-3" d="M112.93,97.12h-7.58a1.63,1.63,0,0,1-1.51-1.72V34.89a1.63,1.63,0,0,1,1.51-1.72h11.37a16.44,16.44,0,0,1,6,1A12.08,12.08,0,0,1,127.64,38a15.3,15.3,0,0,1,3,6.29,41.42,41.42,0,0,1,.8,9.07A50.21,50.21,0,0,1,131,60.5a17.86,17.86,0,0,1-1.95,5.89,13.54,13.54,0,0,1-4.72,5.23,14,14,0,0,1-7.57,1.87h-2.37V95.4A1.62,1.62,0,0,1,112.93,97.12Zm-6.08-3.44h4.58V71.77a1.62,1.62,0,0,1,1.5-1.71h3.87a11.39,11.39,0,0,0,6.11-1.44,10.38,10.38,0,0,0,3.61-4,14.08,14.08,0,0,0,1.55-4.66,47,47,0,0,0,.39-6.61,38.1,38.1,0,0,0-.69-8.19,11.86,11.86,0,0,0-2.33-4.84,9.06,9.06,0,0,0-3.7-2.85,13.71,13.71,0,0,0-5-.84h-9.87Zm9.73-28.35h-3.65a1.62,1.62,0,0,1-1.5-1.72V43.05a1.62,1.62,0,0,1,1.5-1.72h3.94a7.44,7.44,0,0,1,4.16,1,6.24,6.24,0,0,1,2.41,3,11.7,11.7,0,0,1,.81,4c0,1.3.08,2.67.08,4.12s0,3-.12,4.28a10.48,10.48,0,0,1-.88,3.83,6.17,6.17,0,0,1-2.48,2.84A8.16,8.16,0,0,1,116.58,65.33Zm-2.15-3.43h2.15a5.58,5.58,0,0,0,2.87-.57A2.93,2.93,0,0,0,120.66,60a7,7,0,0,0,.55-2.49c.07-1.22.11-2.57.11-4s0-2.72-.07-4a7.9,7.9,0,0,0-.53-2.7,2.93,2.93,0,0,0-1.17-1.45,4.92,4.92,0,0,0-2.68-.54h-2.44Z"/><path class="cls-2" d="M115.73,60.12H117a2.5,2.5,0,0,0,1.66-.46,2.26,2.26,0,0,0,.7-1.11,7,7,0,0,0,.32-2c0-1,.07-2.07.07-3.27s0-2.2,0-3.2a8.51,8.51,0,0,0-.3-2.19,2.35,2.35,0,0,0-.68-1.17,2.23,2.23,0,0,0-1.55-.44h-1.41Z"/><path class="cls-3" d="M145.43,97.12h-7.59a1.62,1.62,0,0,1-1.5-1.72V34.89a1.62,1.62,0,0,1,1.5-1.72h7.59a1.62,1.62,0,0,1,1.5,1.72V95.4A1.62,1.62,0,0,1,145.43,97.12Zm-6.08-3.44h4.58V36.61h-4.58Z"/><path class="cls-3" d="M177.41,97.12H154.8a1.62,1.62,0,0,1-1.5-1.72V34.89a1.62,1.62,0,0,1,1.5-1.72h22.61a1.63,1.63,0,0,1,1.51,1.72v8.16a1.63,1.63,0,0,1-1.51,1.72H163.89V59.09h11.59a1.62,1.62,0,0,1,1.5,1.72V69a1.61,1.61,0,0,1-1.5,1.71H163.89V85h13.52a1.62,1.62,0,0,1,1.51,1.71V95.4A1.63,1.63,0,0,1,177.41,97.12ZM156.3,93.68h19.61V88.45H162.39a1.63,1.63,0,0,1-1.51-1.72V69a1.63,1.63,0,0,1,1.51-1.72H174V62.53H162.39a1.63,1.63,0,0,1-1.51-1.72V43.05a1.63,1.63,0,0,1,1.51-1.72h13.52V36.61H156.3Z"/><path class="cls-4" d="M45.64,84.17H42.07L34.83,59.85v35.5H27.14V35.06c.25-.06,7.37,0,7.37,0l9.71,30.86"/><path class="cls-4" d="M42.76,84.17h3.57l7.24-24.32v35.5h7.69V35.06c-.25-.06-7.36,0-7.36,0L44.19,65.92"/><polyline class="cls-4" points="83.22 57.47 77.22 35.04 69.13 35.04 79.52 69.72 79.52 95.35 83.33 95.35"/><polyline class="cls-4" points="83.23 57.47 89.23 35.04 97.32 35.04 86.92 69.72 86.92 95.35 83.11 95.35"/><path class="cls-4" d="M105.14,35l14,0s10.88-.45,10.88,18.87c0,18.49-11.2,18-11.2,18H113L113,95.35h-7.44Z"/><path class="cls-4" d="M113,54.86V43.08h4.32c3.76,0,5.37,1.94,5.55,9.31V54.1c-.18,7.38-1.79,9.31-5.55,9.31H113V54.72"/><polygon class="cls-4" points="137.98 35.04 145.26 35.04 145.76 95.35 137.98 95.35 137.98 35.04"/><polygon class="cls-4" points="154.66 34.99 177.16 34.99 177.16 43.08 162.66 43.08 162.66 60.89 175.3 60.89 175.3 68.66 162.73 68.66 162.73 86.61 177.16 86.61 177.16 95.35 154.66 95.35 154.66 34.99"/></g></svg>