<svg xmlns="http://www.w3.org/2000/svg" viewBox="0 0 36.12 26.95"><defs><style>.cls-1{fill:#ea4827;}.cls-2{fill:#f9b730;}.cls-3,.cls-5{fill:none;stroke-linecap:round;stroke-linejoin:round;stroke-width:0.4px;}.cls-3{stroke:#1c204d;}.cls-4{fill:#fff;}.cls-5{stroke:#1b214e;}.cls-6{fill:#1b214e;}</style></defs><g id="Layer_1" data-name="Layer 1"><path class="cls-1" d="M19.06,23.81c6.46-.18,11.44-1.19,11.89-2.23l1.28-6.25"/><path class="cls-1" d="M19.11,23.81C12.57,24,7.48,23.24,7,22.23L5.24,15.7"/><path class="cls-2" d="M5,13.05c0,1.12,6.25,1.86,13.9,1.66s13.82-1.29,13.79-2.41S26.25,6.64,18.6,6.84,4.94,11.92,5,13.05Z"/><path class="cls-2" d="M31.55,11a1.74,1.74,0,0,1,.8-.06,1.48,1.48,0,0,1,.95.47,1.42,1.42,0,0,1,1.07.2c.56.33.87.86.68,1.19l0,0,.08.08c.18.34-.23.92-.92,1.3a2.27,2.27,0,0,1-1.13.32,2,2,0,0,1-1.13.66,2.27,2.27,0,0,1-1.12,0,2.09,2.09,0,0,1-1.06.47,2.15,2.15,0,0,1-1.15,0,2.23,2.23,0,0,1-1.11.42,2.19,2.19,0,0,1-1.19-.14,2.46,2.46,0,0,1-2.33.21,2.16,2.16,0,0,1-1.17.37,2.23,2.23,0,0,1-1.13-.19,2.29,2.29,0,0,1-1.12.3,3.37,3.37,0,0,1-.66-.06"/><path class="cls-2" d="M6,11.67a1.78,1.78,0,0,0-.8,0,1.49,1.49,0,0,0-.92.51,1.47,1.47,0,0,0-1.06.26c-.55.36-.82.9-.61,1.22l0,0-.07.09c-.17.34.28.9,1,1.25a2.11,2.11,0,0,0,1.15.25,2,2,0,0,0,1.16.61,2.25,2.25,0,0,0,1.11,0,2.19,2.19,0,0,0,1.09.42,2.18,2.18,0,0,0,1.15-.12,2.18,2.18,0,0,0,1.13.37,2.18,2.18,0,0,0,1.18-.21,2.13,2.13,0,0,0,1.16.34,2.17,2.17,0,0,0,1.18-.26,2.11,2.11,0,0,0,1.19.31,2.31,2.31,0,0,0,1.11-.25,2.23,2.23,0,0,0,1.14.23,2,2,0,0,0,.61-.11"/><path class="cls-2" d="M19.86,16.53a2.11,2.11,0,0,1-.94.21,2.21,2.21,0,0,1-1-.17"/><path class="cls-2" d="M7.16,12.06c.66-.13,1.06.28,1.7.36a1.94,1.94,0,0,0,.68-.06c.36-.07.23-.09.59.06.63.25,1.19,0,1.82.07a6.11,6.11,0,0,0,1.67.18,3.06,3.06,0,0,1,1.22-.11,2.18,2.18,0,0,0,1.49,0,1.59,1.59,0,0,1,.22-.13l.1-.05c.13.05.32.24.44.29a1.67,1.67,0,0,0,.59.11c.25,0,.43-.18.65-.2s.75.28,1.15.27a2.22,2.22,0,0,0,.76-.22,1.41,1.41,0,0,1,.62,0c.51,0,.91-.24,1.36-.25s.65.14,1,.1a5.28,5.28,0,0,0,.78-.21c.54-.14,1,.14,1.57.07.34,0,.64-.21,1-.24a6.79,6.79,0,0,1,.9.05,2.29,2.29,0,0,0,.82-.11c.23-.08.46-.32.7-.36.55-.08,1,.16,1.52-.1a1.94,1.94,0,0,1,1.19-.22,1.74,1.74,0,0,0,.94-.16,1.17,1.17,0,0,1-.14.33,12,12,0,0,1-1.4,1.69,1.11,1.11,0,0,1-1,.32,48.54,48.54,0,0,1-5.36,3.86c-1,.6-2,1.17-3,1.7s-2.07,1.2-3.24.92a15,15,0,0,1-3-1.39c-1-.5-2.07-1-3.09-1.57A46.26,46.26,0,0,1,6.3,13.22,1,1,0,0,1,6,12.07,2.53,2.53,0,0,0,7.16,12.06Z"/><path class="cls-1" d="M6.81,15.9c.66-.13,1.06.28,1.7.35a2,2,0,0,0,.68-.05c.35-.07.23-.09.59.05.62.26,1.19,0,1.82.07a6.12,6.12,0,0,0,1.67.19,3.25,3.25,0,0,1,1.22-.12,2,2,0,0,0,1.48.05c.08,0,.15-.09.23-.13l.1,0c.13,0,.32.24.44.29a1.32,1.32,0,0,0,.59.11c.25,0,.43-.17.65-.2s.75.28,1.15.28a2.18,2.18,0,0,0,.75-.23,1.33,1.33,0,0,1,.63,0,10.93,10.93,0,0,0,1.36-.26,7.9,7.9,0,0,0,1,.1,5.28,5.28,0,0,0,.78-.21c.54-.14,1,.14,1.57.08.34,0,.64-.22,1-.25s.6.05.89.05a2.11,2.11,0,0,0,.83-.1c.23-.08.46-.33.7-.36.55-.08,1,.16,1.52-.1a1.86,1.86,0,0,1,1.19-.22,1.76,1.76,0,0,0,.94-.17.82.82,0,0,1-.15.33,11.26,11.26,0,0,1-1.39,1.69,1.09,1.09,0,0,1-1,.33,48.46,48.46,0,0,1-5.36,3.85c-1,.61-2,1.18-3,1.71s-2.07,1.2-3.24.92a15.56,15.56,0,0,1-3-1.39c-1-.51-2.07-1-3.09-1.57A45.67,45.67,0,0,1,6,17.05a1,1,0,0,1-.3-1.14A2.53,2.53,0,0,0,6.81,15.9Z"/><path class="cls-3" d="M19.06,23.81c6.46-.18,11.44-1.19,11.89-2.23l1.31-6.45"/><path class="cls-3" d="M19.11,23.81C12.57,24,7.48,23.24,7,22.23L5.24,15.7"/><path class="cls-3" d="M5,13.05c0,1.12,6.25,1.86,13.9,1.66s13.82-1.29,13.79-2.41S26.25,6.64,18.6,6.84,4.94,11.92,5,13.05Z"/><path class="cls-3" d="M31.55,11a1.74,1.74,0,0,1,.8-.06,1.48,1.48,0,0,1,.95.47,1.42,1.42,0,0,1,1.07.2c.56.33.87.86.68,1.19l0,0,.08.08c.18.34-.23.92-.92,1.3a2.27,2.27,0,0,1-1.13.32,2,2,0,0,1-1.13.66,2.27,2.27,0,0,1-1.12,0,2.09,2.09,0,0,1-1.06.47,2.15,2.15,0,0,1-1.15,0,2.23,2.23,0,0,1-1.11.42,2.19,2.19,0,0,1-1.19-.14,2.46,2.46,0,0,1-2.33.21,2.16,2.16,0,0,1-1.17.37,2.23,2.23,0,0,1-1.13-.19,2.29,2.29,0,0,1-1.12.3,3.37,3.37,0,0,1-.66-.06"/><path class="cls-3" d="M6,11.67a1.78,1.78,0,0,0-.8,0,1.49,1.49,0,0,0-.92.51,1.47,1.47,0,0,0-1.06.26c-.55.36-.82.9-.61,1.22l0,0-.07.09c-.17.34.28.9,1,1.25a2.11,2.11,0,0,0,1.15.25,2,2,0,0,0,1.16.61,2.25,2.25,0,0,0,1.11,0,2.19,2.19,0,0,0,1.09.42,2.18,2.18,0,0,0,1.15-.12,2.18,2.18,0,0,0,1.13.37,2.18,2.18,0,0,0,1.18-.21,2.13,2.13,0,0,0,1.16.34,2.17,2.17,0,0,0,1.18-.26,2.11,2.11,0,0,0,1.19.31,2.31,2.31,0,0,0,1.11-.25,2.23,2.23,0,0,0,1.14.23,2,2,0,0,0,.61-.11"/><path class="cls-3" d="M19.86,16.53a2.11,2.11,0,0,1-.94.21,2.21,2.21,0,0,1-1-.17"/><path class="cls-4" d="M22.71,7.76h0a.86.86,0,0,1,0-.22A2.06,2.06,0,0,1,23.8,6.24a1.56,1.56,0,0,1,1.68.17,1.7,1.7,0,0,1,.88,1.39,1.91,1.91,0,0,1-.24,1,.24.24,0,0,0-.18-.1,3.12,3.12,0,0,1-.53-.11l-.55-.1a3.07,3.07,0,0,0-1.17,0,.44.44,0,0,0-.17.07L23,8.46A.49.49,0,0,1,22.71,7.76Z"/><path class="cls-4" d="M20.76,8.47a4.48,4.48,0,0,0-1.62.31,2.07,2.07,0,0,1-.09-.32A1.62,1.62,0,0,1,19.25,7a.59.59,0,0,1,.24-.4,3.15,3.15,0,0,1,.67-.37l.17,0a1.92,1.92,0,0,1,.4-.09,1.52,1.52,0,0,1,1.18.45,1.25,1.25,0,0,1,.63,1,2.37,2.37,0,0,1-.08,1.21A4.85,4.85,0,0,0,20.76,8.47Z"/><path class="cls-5" d="M22.69,8.34a.14.14,0,0,1,0-.07,1.87,1.87,0,1,1,3.66-.74A1.91,1.91,0,0,1,26,9"/><line class="cls-5" x1="26.62" y1="10.13" x2="23.17" y2="10.44"/><polyline class="cls-5" points="22.58 8.37 28.5 9.96 26.62 10.13"/><path class="cls-5" d="M19.23,8.91A1.91,1.91,0,0,1,19,8.24a1.89,1.89,0,1,1,.9,1.24"/><path class="cls-5" d="M22.45,8.7a4.39,4.39,0,0,0-3.27.06"/><path class="cls-5" d="M26.1,8.77a4,4,0,0,0-2.58-.18"/><circle class="cls-6" cx="21.25" cy="7.48" r="0.51"/><circle class="cls-6" cx="24.81" cy="7.5" r="0.51"/><path class="cls-5" d="M17.57,9.62a6.4,6.4,0,0,0,6.68,2"/></g></svg>