<svg xmlns="http://www.w3.org/2000/svg" viewBox="0 0 103.83 49.99"><defs><style>.cls-1{fill:#ea4827;}.cls-2,.cls-4{fill:none;stroke-linecap:round;stroke-linejoin:round;stroke-width:0.4px;}.cls-2{stroke:#1c204d;}.cls-3{fill:#f47951;}.cls-4{stroke:#f8c6dc;}</style></defs><g id="Layer_1" data-name="Layer 1"><path class="cls-1" d="M29.76,10.56H26.09a1.63,1.63,0,0,0-1.52,1.24l-3.34,11-3.35-11a1.66,1.66,0,0,0-1.53-1.24H12.72a1.74,1.74,0,0,0-1.61,1.85V42.53a1.74,1.74,0,0,0,1.61,1.85H16.5a1.74,1.74,0,0,0,1.61-1.85v-7l.63,2.2A1.65,1.65,0,0,0,20.28,39h1.89a1.65,1.65,0,0,0,1.53-1.26l.67-2.32v7.11A1.74,1.74,0,0,0,26,44.38h3.78a1.74,1.74,0,0,0,1.61-1.85V12.41A1.74,1.74,0,0,0,29.76,10.56Z"/><path class="cls-1" d="M47.79,10.56h-4a1.68,1.68,0,0,0-1.55,1.33l-1.52,6-1.53-6a1.66,1.66,0,0,0-1.55-1.33h-4a1.59,1.59,0,0,0-1.31.77A2.07,2.07,0,0,0,32.12,13l5.09,17.1V42.53a1.75,1.75,0,0,0,1.62,1.85h3.78a1.74,1.74,0,0,0,1.61-1.85V30.1L49.32,13a2,2,0,0,0-.22-1.67A1.56,1.56,0,0,0,47.79,10.56Z"/><path class="cls-1" d="M65.12,16.82a8.74,8.74,0,0,0-1.71-3.56,6.86,6.86,0,0,0-2.8-2.13,8.86,8.86,0,0,0-3.27-.57H51.68a1.75,1.75,0,0,0-1.62,1.85V42.53a1.75,1.75,0,0,0,1.62,1.85h3.77a1.75,1.75,0,0,0,1.62-1.85V32.61h.31a7.7,7.7,0,0,0,4.19-1.05,7.61,7.61,0,0,0,2.66-2.95,9.74,9.74,0,0,0,1.09-3.29,26.37,26.37,0,0,0,.23-3.73A21.2,21.2,0,0,0,65.12,16.82Zm-6.4,5.48a4.42,4.42,0,0,1-.1.73c0,.09,0,.18,0,.27a1.84,1.84,0,0,1,0,.25,1.52,1.52,0,0,1-.32,1,1.24,1.24,0,0,1-.86.42c-.29,0-.49-.22-.58-.51,0,0,0-.06,0-.09a.43.43,0,0,1,0-.11,35.6,35.6,0,0,1,0-3.58,4.69,4.69,0,0,1,0-1.4v0a.15.15,0,0,1,0-.07.73.73,0,0,1,.43-.87.86.86,0,0,1,.45,0,.6.6,0,0,1,.43.2,1.1,1.1,0,0,1,.31.36A2.83,2.83,0,0,1,58.75,20a7.64,7.64,0,0,1,0,1.17C58.79,21.58,58.76,21.94,58.72,22.3Z"/><path class="cls-1" d="M71.64,10.56H67.86a1.75,1.75,0,0,0-1.62,1.85V42.53a1.75,1.75,0,0,0,1.62,1.85h3.78a1.74,1.74,0,0,0,1.61-1.85V12.41A1.74,1.74,0,0,0,71.64,10.56Z"/><path class="cls-1" d="M87.56,18.31a1.73,1.73,0,0,0,1.61-1.84V12.41a1.74,1.74,0,0,0-1.61-1.85H76.3a1.74,1.74,0,0,0-1.61,1.85V42.53a1.74,1.74,0,0,0,1.61,1.85H87.56a1.74,1.74,0,0,0,1.61-1.85V38.22a1.73,1.73,0,0,0-1.61-1.84H81.69V31.22H86.6a1.74,1.74,0,0,0,1.61-1.85V25.31a1.74,1.74,0,0,0-1.61-1.84H81.69V18.31Z"/><path class="cls-2" d="M29.76,10.56H26.09a1.63,1.63,0,0,0-1.52,1.24l-3.34,11-3.35-11a1.66,1.66,0,0,0-1.53-1.24H12.72a1.74,1.74,0,0,0-1.61,1.85V42.53a1.74,1.74,0,0,0,1.61,1.85H16.5a1.74,1.74,0,0,0,1.61-1.85v-7l.63,2.2A1.65,1.65,0,0,0,20.28,39h1.89a1.65,1.65,0,0,0,1.53-1.26l.67-2.32v7.11A1.74,1.74,0,0,0,26,44.38h3.78a1.74,1.74,0,0,0,1.61-1.85V12.41A1.74,1.74,0,0,0,29.76,10.56Z"/><path class="cls-2" d="M47.79,10.56h-4a1.68,1.68,0,0,0-1.55,1.33l-1.52,6-1.53-6a1.66,1.66,0,0,0-1.55-1.33h-4a1.59,1.59,0,0,0-1.31.77A2.07,2.07,0,0,0,32.12,13l5.09,17.1V42.53a1.75,1.75,0,0,0,1.62,1.85h3.78a1.74,1.74,0,0,0,1.61-1.85V30.1L49.32,13a2,2,0,0,0-.22-1.67A1.56,1.56,0,0,0,47.79,10.56Z"/><path class="cls-2" d="M63.41,13.26a6.86,6.86,0,0,0-2.8-2.13,8.86,8.86,0,0,0-3.27-.57H51.68a1.75,1.75,0,0,0-1.62,1.85V42.53a1.75,1.75,0,0,0,1.62,1.85h3.77a1.75,1.75,0,0,0,1.62-1.85V32.61h.31a7.7,7.7,0,0,0,4.19-1.05,7.61,7.61,0,0,0,2.66-2.95,9.74,9.74,0,0,0,1.09-3.29,26.37,26.37,0,0,0,.23-3.73,21.2,21.2,0,0,0-.43-4.77A8.74,8.74,0,0,0,63.41,13.26Z"/><path class="cls-2" d="M71.64,10.56H67.86a1.75,1.75,0,0,0-1.62,1.85V42.53a1.75,1.75,0,0,0,1.62,1.85h3.78a1.74,1.74,0,0,0,1.61-1.85V12.41A1.74,1.74,0,0,0,71.64,10.56Z"/><path class="cls-2" d="M87.56,18.31a1.73,1.73,0,0,0,1.61-1.84V12.41a1.74,1.74,0,0,0-1.61-1.85H76.3a1.74,1.74,0,0,0-1.61,1.85V42.53a1.74,1.74,0,0,0,1.61,1.85H87.56a1.74,1.74,0,0,0,1.61-1.85V38.22a1.73,1.73,0,0,0-1.61-1.84H81.69V31.22H86.6a1.74,1.74,0,0,0,1.61-1.85V25.31a1.74,1.74,0,0,0-1.61-1.84H81.69V18.31Z"/><path class="cls-3" d="M29.76,43.5H26a.81.81,0,0,1-.75-.85V29.39l-2.35,8.15a.77.77,0,0,1-.71.59H20.28a.76.76,0,0,1-.71-.59l-2.32-8.11V42.65a.81.81,0,0,1-.75.85H12.72a.81.81,0,0,1-.75-.85V12.52a.81.81,0,0,1,.75-.86h3.63a.77.77,0,0,1,.71.58L21.24,26l4.14-13.74a.77.77,0,0,1,.71-.58h3.67a.81.81,0,0,1,.75.86V42.65A.81.81,0,0,1,29.76,43.5Zm-3-1.71H29V13.37H26.63L22,28.75a.75.75,0,0,1-.7.58.84.84,0,0,1-.78-.58L15.82,13.37H13.47V41.79h2.28V24.32a.81.81,0,0,1,.75-.85.85.85,0,0,1,.79.58l3.53,12.36h.8L25.2,24.05a.75.75,0,0,1,.71-.58.86.86,0,0,1,.82.85Z"/><path class="cls-3" d="M42.61,43.5H38.83a.8.8,0,0,1-.75-.85V30.05L32.94,12.79A.94.94,0,0,1,33,12a.7.7,0,0,1,.6-.36h4a.76.76,0,0,1,.72.62l2.36,9.28,2.35-9.28a.78.78,0,0,1,.72-.62h4a.72.72,0,0,1,.61.36.94.94,0,0,1,.1.77L43.35,30.05v12.6A.8.8,0,0,1,42.61,43.5Zm-3-1.71h2.28V29.91a.86.86,0,0,1,0-.28l4.85-16.26h-2.4L41.47,24.73a.77.77,0,0,1-.72.62.86.86,0,0,1-.79-.62L37.08,13.37H34.69l4.85,16.26a1.26,1.26,0,0,1,0,.28Z"/><path class="cls-3" d="M55.45,43.5H51.68a.8.8,0,0,1-.75-.85V12.52a.8.8,0,0,1,.75-.86h5.66a8.18,8.18,0,0,1,3,.51,6.15,6.15,0,0,1,2.45,1.88,7.8,7.8,0,0,1,1.51,3.13,21,21,0,0,1,.39,4.52,25.77,25.77,0,0,1-.21,3.57,8.88,8.88,0,0,1-1,2.93,6.67,6.67,0,0,1-2.35,2.6,6.93,6.93,0,0,1-3.77.94H56.2V42.65A.8.8,0,0,1,55.45,43.5Zm-3-1.71H54.7V30.88a.81.81,0,0,1,.75-.85h1.93a5.67,5.67,0,0,0,3-.72,5.08,5.08,0,0,0,1.8-2A6.9,6.9,0,0,0,63,25a23.25,23.25,0,0,0,.2-3.29,18.84,18.84,0,0,0-.35-4.08,5.76,5.76,0,0,0-1.16-2.41,4.5,4.5,0,0,0-1.84-1.42,6.82,6.82,0,0,0-2.5-.42H52.43Zm4.84-14.12H55.45a.81.81,0,0,1-.75-.85V16.58a.82.82,0,0,1,.75-.86h2a3.75,3.75,0,0,1,2.07.49,3.24,3.24,0,0,1,1.2,1.49,5.82,5.82,0,0,1,.4,2c0,.65,0,1.33,0,2s0,1.5-.06,2.13a5.07,5.07,0,0,1-.44,1.91,3,3,0,0,1-1.23,1.41A4,4,0,0,1,57.27,27.67ZM56.2,26h1.07a2.81,2.81,0,0,0,1.43-.28,1.46,1.46,0,0,0,.6-.68,3.38,3.38,0,0,0,.28-1.24c0-.61.05-1.28.05-2s0-1.35,0-2a3.76,3.76,0,0,0-.26-1.34,1.52,1.52,0,0,0-.58-.73,2.48,2.48,0,0,0-1.33-.27H56.2Z"/><path class="cls-2" d="M56.85,25.08h.62a1.26,1.26,0,0,0,.82-.23,1.05,1.05,0,0,0,.35-.55,3.81,3.81,0,0,0,.16-1c0-.48,0-1,0-1.63s0-1.09,0-1.59A4.22,4.22,0,0,0,58.66,19a1.21,1.21,0,0,0-.34-.58,1.1,1.1,0,0,0-.77-.22h-.7Z"/><path class="cls-3" d="M71.64,43.5H67.86a.81.81,0,0,1-.75-.85V12.52a.81.81,0,0,1,.75-.86h3.78a.8.8,0,0,1,.74.86V42.65A.8.8,0,0,1,71.64,43.5Zm-3-1.71h2.28V13.37H68.61Z"/><path class="cls-3" d="M87.56,43.5H76.3a.81.81,0,0,1-.75-.85V12.52a.81.81,0,0,1,.75-.86H87.56a.81.81,0,0,1,.75.86v4.06a.81.81,0,0,1-.75.85H80.83v7.14H86.6a.81.81,0,0,1,.75.85v4.06a.81.81,0,0,1-.75.86H80.83v7.14h6.73a.81.81,0,0,1,.75.85v4.32A.81.81,0,0,1,87.56,43.5ZM77.05,41.79h9.76v-2.6H80.08a.81.81,0,0,1-.75-.86V29.48a.8.8,0,0,1,.75-.85h5.77V26.28H80.08a.8.8,0,0,1-.75-.86V16.58a.81.81,0,0,1,.75-.86h6.73V13.37H77.05Z"/><path class="cls-4" d="M22,37.05H20.17l-3.6-12.11V42.62H12.74v-30c.12,0,3.67,0,3.67,0L21.24,28"/><path class="cls-4" d="M20.52,37.05h1.77L25.9,24.94V42.62h3.83v-30c-.13,0-3.67,0-3.67,0L21.23,28"/><polyline class="cls-4" points="40.66 23.76 37.67 12.59 33.64 12.59 38.82 29.86 38.82 42.62 40.72 42.62"/><polyline class="cls-4" points="40.66 23.76 43.65 12.59 47.68 12.59 42.51 29.86 42.51 42.62 40.61 42.62"/><path class="cls-4" d="M51.57,12.59l7,0S64,12.34,64,22c0,9.21-5.58,9-5.58,9H55.49l0,11.69H51.76Z"/><path class="cls-4" d="M55.49,22.46V16.6h2.15c1.87,0,2.68,1,2.77,4.63v.85c-.09,3.67-.9,4.64-2.77,4.64H55.49V22.39"/><polygon class="cls-4" points="67.92 12.59 71.55 12.59 71.8 42.62 67.92 42.62 67.92 12.59"/><polygon class="cls-4" points="76.23 12.57 87.43 12.57 87.43 16.6 80.21 16.6 80.21 25.46 86.51 25.46 86.51 29.33 80.25 29.33 80.25 38.27 87.43 38.27 87.43 42.62 76.23 42.62 76.23 12.57"/></g></svg>