<svg xmlns="http://www.w3.org/2000/svg" viewBox="0 0 227.69 150.29"><defs><style>.cls-1,.cls-16,.cls-5{fill:#1c204d;}.cls-1,.cls-13,.cls-16,.cls-17,.cls-2,.cls-3,.cls-4,.cls-6{stroke:#1c204d;stroke-linecap:round;stroke-linejoin:round;}.cls-1,.cls-13,.cls-17,.cls-2,.cls-3,.cls-4,.cls-6{stroke-width:0.8px;}.cls-2{fill:none;}.cls-3,.cls-8{fill:#1f4686;}.cls-10,.cls-4{fill:#89d3de;}.cls-6{fill:#90c2da;}.cls-13,.cls-7{fill:#ea4827;}.cls-9{fill:#f47951;}.cls-11{fill:#fff;}.cls-12{fill:#f9b730;}.cls-14{fill:#af6f30;}.cls-15{fill:#0d773c;}.cls-16{stroke-width:2.01px;}.cls-17{fill:#af6e30;}</style></defs><g id="Layer_1" data-name="Layer 1"><path class="cls-1" d="M177.24,82.26a7.31,7.31,0,0,1,3,.23c6.77,1.65,11.49,10.66,10.53,20.1-.74,7.4-5,13-9.95,14.29"/><line class="cls-2" x1="180.83" y1="116.88" x2="174.92" y2="118.13"/><line class="cls-2" x1="177.24" y1="82.26" x2="169.07" y2="84.14"/><ellipse class="cls-3" cx="171.87" cy="101.18" rx="12.36" ry="17.38" transform="translate(-4.74 8.52) rotate(-2.8)"/><ellipse class="cls-4" cx="171.65" cy="101.33" rx="5.77" ry="7.91" transform="translate(-6.27 11.47) rotate(-3.76)"/><ellipse class="cls-1" cx="171.65" cy="101.33" rx="1.83" ry="2.51" transform="translate(-6.27 11.47) rotate(-3.76)"/><path class="cls-1" d="M119.89,82.26a7.31,7.31,0,0,1,3,.23c6.77,1.65,11.49,10.66,10.54,20.1-.75,7.4-5,13-10,14.29"/><line class="cls-2" x1="123.48" y1="116.88" x2="117.57" y2="118.13"/><line class="cls-2" x1="119.89" y1="82.26" x2="111.72" y2="84.14"/><ellipse class="cls-3" cx="114.52" cy="101.18" rx="12.36" ry="17.38" transform="translate(-4.81 5.72) rotate(-2.8)"/><ellipse class="cls-4" cx="114.31" cy="101.33" rx="5.77" ry="7.91" transform="translate(-6.4 7.71) rotate(-3.76)"/><ellipse class="cls-1" cx="114.31" cy="101.33" rx="1.83" ry="2.51" transform="translate(-6.4 7.71) rotate(-3.76)"/><path class="cls-1" d="M84.89,82.26a7.31,7.31,0,0,1,3,.23c6.77,1.65,11.49,10.66,10.54,20.1-.75,7.4-5,13-10,14.29"/><line class="cls-2" x1="88.48" y1="116.88" x2="82.57" y2="118.13"/><line class="cls-2" x1="84.89" y1="82.26" x2="76.72" y2="84.14"/><ellipse class="cls-3" cx="79.52" cy="101.18" rx="12.36" ry="17.38" transform="translate(-4.85 4.01) rotate(-2.8)"/><ellipse class="cls-4" cx="79.31" cy="101.33" rx="5.77" ry="7.91" transform="translate(-6.47 5.42) rotate(-3.76)"/><ellipse class="cls-1" cx="79.31" cy="101.33" rx="1.83" ry="2.51" transform="translate(-6.47 5.42) rotate(-3.76)"/><path class="cls-5" d="M89.44,114.49a.94.94,0,0,0-.39-.51.89.89,0,0,0-.66-.08l-.2.08a.92.92,0,0,0-.31.31l.08-.1a8.27,8.27,0,0,1-1.36,1.35l-.13.1c-.07,0-.1.13-.16.19s-.39.49-.53.52c-.44.1-.62.2-.48.62a.88.88,0,0,0,1,.6c.5-.11,1-.24,1.49-.36l.29-.07.12,0h0l.21-.08a.83.83,0,0,0,.39-.51.8.8,0,0,0,0-.55.36.36,0,0,0-.07-.1c.21-.23.43-.46.62-.71A.85.85,0,0,0,89.44,114.49Z"/><path class="cls-5" d="M124.3,114.47a.81.81,0,0,0-.5-.39.89.89,0,0,0-.66.08.87.87,0,0,0-.39.51,2.09,2.09,0,0,1-.08.23.41.41,0,0,0,0,.09l-.18.18-.47.32h0a1.22,1.22,0,0,0-.44.26,1.19,1.19,0,0,0-.34.54l0,.22c-1.05.85-1.4.92-1.39,1s1.58-.43,1.73-.32a.75.75,0,0,0,.4.17.88.88,0,0,0,.55-.1c.29-.2.58-.4.86-.61a.73.73,0,0,0,.46-.1,1.24,1.24,0,0,0,.42-.43,1.22,1.22,0,0,0,.15-.4c0-.19.06-.39.09-.59a.65.65,0,0,0,0-.34A.58.58,0,0,0,124.3,114.47Z"/><path class="cls-5" d="M181.46,114.61a.91.91,0,0,0-.51-.39.85.85,0,0,0-.66.09.91.91,0,0,0-.39.51.08.08,0,0,1,0,0,2.32,2.32,0,0,1-.21.38l-.09.09h0a.86.86,0,0,0-.6.25l-.16.16a.86.86,0,0,0-.22.38l0,.23c0,.11-.51,0-.45.11s-.78.69-.72.74,1.44-.22,1.5-.18a.52.52,0,0,0,.19.11.72.72,0,0,0,.33.07,1.22,1.22,0,0,0,.46-.06,1.88,1.88,0,0,0,.3-.12l.12-.06.13-.12h.06a.78.78,0,0,0,.37-.22,3.29,3.29,0,0,0,.42-.63,3.58,3.58,0,0,0,.27-.71A.9.9,0,0,0,181.46,114.61Z"/><path class="cls-6" d="M146.1,61.43c-.07-1.08,0-27.43,0-36.08,0-3.53,0-6.44,0-7.86,0-3.68-1.63-5.52-3-6.42a6.32,6.32,0,0,0-3.29-1h-2.15c-.4,0-.72.94-.72,2.1s.32,2.09.72,2.09h2.15c.08,0,1.9,0,1.9,3.27,0,1.42,0,4.33,0,7.85,0,4.9,0,31.22,0,36.09"/><polygon class="cls-7" points="149.18 35.44 188.71 35.44 162.75 45.75 123.74 44.75 149.18 35.44"/><polygon class="cls-7" points="140.36 38.78 140.36 19.17 114.92 28.48 114.92 71.31 137.91 60.42 140.36 38.78"/><rect class="cls-8" x="32.85" y="70.65" width="131.28" height="35.83"/><path class="cls-5" d="M123.72,67.35c-.21-.22-.34.17-.63.25-.45.14-1-.1-1.39.17a5.65,5.65,0,0,1-.51.34l-.14.07c.08,0,0,0,0,0l-.37.11a40.27,40.27,0,0,0-4.42,1.82c-.41.18.24,0,.47.33s1.42.51,1.86.31l.52-.21a.85.85,0,0,0,.66.34,1.87,1.87,0,0,0,.89-.28c-.13.06,0,0,.07,0h.44l1.83,0a.86.86,0,0,0,.85-.85c0-.29,0-.58,0-.86a5.83,5.83,0,0,1,.1-.73A.86.86,0,0,0,123.72,67.35Z"/><path class="cls-9" d="M123.74,44.75V99H129c1.54-2.83,4.11-4.43,6.78-6.07a18.12,18.12,0,0,1,10.12-2.52,17.72,17.72,0,0,1,9.8,2.75,21.68,21.68,0,0,1,4.17,3.6A13.25,13.25,0,0,1,161.31,99H173.8V44.75Z"/><path class="cls-9" d="M162.56,44.75l26.15-9.31s12.71,23.27,12.71,23.41V90.13L173,100,162.56,44.75"/><polyline class="cls-9" points="114.92 90.13 114.92 28.3 98.83 28.57 92.55 44.47 18.63 45.3 18.63 77.45 32.85 90.13"/><path class="cls-7" d="M169,98.82a14,14,0,0,1-5.88.08.86.86,0,0,0-.83,1.42,7.94,7.94,0,0,1,1.48,3.18,9.67,9.67,0,0,1,.48,4.06.84.84,0,0,0,.74.83.78.78,0,0,0,.9.34,6,6,0,0,1,2.8-.09.86.86,0,0,0,1.08-.82c-.06-1.4-.12-2.79-.17-4.18a8.77,8.77,0,0,1,.45-3.77C170.27,99.22,169.52,98.69,169,98.82Z"/><polygon class="cls-7" points="98.83 28.57 124.39 19.26 139.67 19.06 114.92 28.48 98.83 28.57"/><polygon class="cls-7" points="95.72 35.73 44.07 35.94 18.63 45.24 92.55 44.47 95.72 35.73"/><path class="cls-10" d="M166.3,46.83c.07.3,8.06,19.26,8.06,19.26L198.86,57,188.71,38.21Z"/><path class="cls-11" d="M188.05,60.83,189.38,39l-.13-.17c-.11-.13-.22-.26-.34-.38l-.13-.14s-.05,0-.06-.06,0,0,0,0l0,0h0l-.08,0-.15.07a10.58,10.58,0,0,1-1.32.51L185.72,62A8,8,0,0,1,188.05,60.83Z"/><path class="cls-11" d="M177.58,65.09h0l.54-.26a9.32,9.32,0,0,1,1.27-.39l.31-.09h0l.13-.06.5-.25c.23-.13.47-.23.7-.34l1.41-23.15a21.73,21.73,0,0,1-3.25,1.18.54.54,0,0,1-.28,0l-1.42,23.37Z"/><line class="cls-2" x1="201.42" y1="58.85" x2="173.8" y2="68.95"/><line class="cls-2" x1="188.71" y1="35.44" x2="163.26" y2="44.75"/><polyline class="cls-2" points="123.74 44.75 149.18 35.44 188.71 35.44 201.42 58.85 201.42 98.41 173.8 108.51"/><polyline class="cls-2" points="114.92 28.36 140.36 19.05 140.36 38.67"/><line class="cls-2" x1="114.92" y1="70.59" x2="123.54" y2="67.44"/><polygon class="cls-10" points="147.02 66.09 165.29 66.09 159.41 50.1 146.55 50.1 147.02 66.09"/><path class="cls-11" d="M153.37,65.91a1.66,1.66,0,0,1,.92.26h0c.31.08.16.07,0,0h0l0,0,.12,0h0a1.54,1.54,0,0,1,.93-.27c.33,0,.66.07,1,.11l-6-16.08c-1,0-2,0-3,0l5.93,16Z"/><path class="cls-11" d="M158.2,66.23A6.7,6.7,0,0,1,160,66l-5.89-15.84a12.68,12.68,0,0,1-2-.1l6,16.17Z"/><path class="cls-12" d="M96.3,31.23c0,.37,0,.74,0,1.11a2.8,2.8,0,0,0,.27,1.36c.1-.29.18-.58.29-.86a19.25,19.25,0,0,1,1.45-3.36,3.73,3.73,0,0,1,1.27-1.29,6.22,6.22,0,0,1,2-.63,10.35,10.35,0,0,0,1.81-.59c.5-.21,1-.37,1.53-.53a13.7,13.7,0,0,0-4.24-.07c-.8.1-1.6.23-2.39.39-.39.09-.78.18-1.15.29l-.58.2-.14.05a.85.85,0,0,0-1.18.17l-.15.18a1,1,0,0,0,.29,1.51,2.31,2.31,0,0,0,.78.13,1.36,1.36,0,0,0,0,.21C96.16,30.07,96.22,30.66,96.3,31.23Z"/><path class="cls-2" d="M97.09,27.2a12.55,12.55,0,0,1,7.67-1l.22.05"/><polyline class="cls-2" points="164.25 108.51 173.8 108.51 173.8 69.16 163.38 44.75 123.74 44.75 123.74 99.03 128.91 99.03"/><polyline class="cls-2" points="163.2 50.94 170.4 68.95 170.4 98.96 161.48 98.96"/><polyline class="cls-2" points="157.43 46.84 161.56 46.84 163.2 50.94"/><polyline class="cls-2" points="98.94 28.57 124.39 19.26 140.36 19.05"/><polyline class="cls-2" points="143.7 89.94 142.69 46.84 157.43 46.84"/><path class="cls-2" d="M128.9,99a19.19,19.19,0,0,1,16.32-8.9c10.51,0,19,8.23,19,18.38"/><polyline class="cls-2" points="164.13 106.48 32.85 106.48 32.85 90.13"/><polyline class="cls-2" points="114.92 90.13 114.92 70.65 123.74 70.65 123.74 98.66"/><line class="cls-2" x1="32.85" y1="90.13" x2="114.92" y2="90.13"/><polygon class="cls-2" points="147.02 66.09 165.29 66.09 159.41 50.1 146.55 50.1 147.02 66.09"/><path class="cls-6" d="M122.13,69.85c-.07-1.07,0-27.43,0-36.08,0-3.52,0-6.43,0-7.85,0-3.69-1.63-5.53-3-6.43a6.37,6.37,0,0,0-3.29-1h-2.15c-.4,0-.72.93-.72,2.09s.32,2.1.72,2.1h2.15c.08,0,1.9,0,1.9,3.27,0,1.41,0,4.32,0,7.84,0,4.9,0,31.22,0,36.09"/><rect class="cls-5" x="148.79" y="68.06" width="6.24" height="3.03" rx="1.48"/><path class="cls-1" d="M148.89,93.39a7.33,7.33,0,0,1,3,.22c6.76,1.66,11.48,10.66,10.53,20.1-.75,7.4-5,13.05-10,14.29"/><line class="cls-2" x1="152.48" y1="128" x2="146.58" y2="129.25"/><line class="cls-2" x1="148.89" y1="93.39" x2="140.72" y2="95.26"/><ellipse class="cls-3" cx="143.52" cy="112.3" rx="12.36" ry="17.38" transform="translate(-5.32 7.15) rotate(-2.8)"/><ellipse class="cls-4" cx="143.31" cy="112.45" rx="5.77" ry="7.91" transform="translate(-7.06 9.64) rotate(-3.76)"/><ellipse class="cls-1" cx="143.31" cy="112.45" rx="1.83" ry="2.51" transform="translate(-7.06 9.64) rotate(-3.76)"/><path class="cls-1" d="M91.54,93.39a7.32,7.32,0,0,1,3,.22c6.77,1.66,11.48,10.66,10.53,20.1-.75,7.4-5,13.05-10,14.29"/><line class="cls-2" x1="95.13" y1="128" x2="89.23" y2="129.25"/><line class="cls-2" x1="91.54" y1="93.39" x2="83.38" y2="95.26"/><ellipse class="cls-3" cx="86.18" cy="112.3" rx="12.36" ry="17.38" transform="translate(-5.39 4.35) rotate(-2.8)"/><ellipse class="cls-4" cx="85.96" cy="112.45" rx="5.77" ry="7.91" transform="translate(-7.19 5.88) rotate(-3.76)"/><ellipse class="cls-1" cx="85.96" cy="112.45" rx="1.83" ry="2.51" transform="translate(-7.19 5.88) rotate(-3.76)"/><path class="cls-1" d="M56.54,93.39a7.32,7.32,0,0,1,3,.22c6.77,1.66,11.48,10.66,10.53,20.1-.75,7.4-5,13.05-10,14.29"/><line class="cls-2" x1="60.13" y1="128" x2="54.23" y2="129.25"/><line class="cls-2" x1="56.54" y1="93.39" x2="48.38" y2="95.26"/><ellipse class="cls-3" cx="51.18" cy="112.3" rx="12.36" ry="17.38" transform="translate(-5.43 2.64) rotate(-2.8)"/><ellipse class="cls-4" cx="50.96" cy="112.45" rx="5.77" ry="7.91" transform="matrix(1, -0.07, 0.07, 1, -7.26, 3.58)"/><ellipse class="cls-1" cx="50.96" cy="112.45" rx="1.83" ry="2.51" transform="translate(-7.26 3.58) rotate(-3.76)"/><path class="cls-12" d="M64.33,39.2c0,.58.07,1.16.13,1.74,0,.37,0,.74,0,1.11a3,3,0,0,0,.23,1.36.89.89,0,0,1,.34-.08c2.42-.09,4.84-.28,7.26-.13a51,51,0,0,0,6.54.13H79a2.38,2.38,0,0,1,.05-.26c0-.1.15.15.16,0s.1-.14.11-.17.24-.26.29-.26l.85,0a1,1,0,0,0,.88-1.26c-.21-.63-.6-.67-1.13-.92a14.85,14.85,0,0,1-1.92-1.36,16.4,16.4,0,0,0-4.37-2.55A12.38,12.38,0,0,0,69,36.2c-.81.08-1.62.18-2.41.33a11.44,11.44,0,0,0-1.16.26l-.58.18-.14,0a.85.85,0,0,0-1.18.14l-.16.18a1,1,0,0,0,.25,1.51,2,2,0,0,0,.78.15A.76.76,0,0,0,64.33,39.2Z"/><path class="cls-2" d="M75.07,41.19c-.95-.15-2-.35-3.06-.59-4.35-1-7.77-2.29-7.62-2.93s4.3-2.52,8.66-1.55,7.26,4.45,7.11,5.09c-.06.29-.88.39-2.17.32"/><path class="cls-2" d="M65.17,37a1,1,0,0,0-.46-.13.88.88,0,0,0-.59.17.84.84,0,0,0-.63,0c-.36.13-.6.4-.53.6v0s0,0,0,.05,0,.54.38.84a1.22,1.22,0,0,0,.61.31,1.4,1.4,0,0,0,1.21.65,1.31,1.31,0,0,0,.56.4,1.35,1.35,0,0,0,.66.09,1.18,1.18,0,0,0,.59.37,1.24,1.24,0,0,0,.7.05,1.15,1.15,0,0,0,.61.36,1.31,1.31,0,0,0,.7,0,1.25,1.25,0,0,0,.63.34,1.28,1.28,0,0,0,.67,0,1.29,1.29,0,0,0,.6.29,1.36,1.36,0,0,0,.39,0"/><path class="cls-2" d="M75,42.32a1.35,1.35,0,0,1-.32-.19,1.34,1.34,0,0,1-.71,0,1.28,1.28,0,0,1-.61-.27,1.3,1.3,0,0,1-1-.13"/><path class="cls-2" d="M79.73,40.3a1,1,0,0,1,.46.09.86.86,0,0,1,.47.39.86.86,0,0,1,.57.27c.28.27.37.61.22.77h0s0,0,0,.06c.06.22-.26.49-.7.61a1.24,1.24,0,0,1-.69,0,1.11,1.11,0,0,1-.73.22,1.29,1.29,0,0,1-.64-.14,1.42,1.42,0,0,1-1.31-.08"/><path class="cls-2" d="M71.24,41.53a1.28,1.28,0,0,0,.51.23,1.22,1.22,0,0,0,.6,0"/><path class="cls-12" d="M61.88,39.22c0-.67-.35-.83-.75-1.24A14.6,14.6,0,0,1,59.78,36a17.06,17.06,0,0,0-3.25-3.88,12.41,12.41,0,0,0-4.52-2c-.78-.2-1.57-.38-2.37-.51a11.53,11.53,0,0,0-1.18-.15c-.2,0-.4,0-.6,0h-.15a.86.86,0,0,0-1.16-.27l-.21.12a1,1,0,0,0-.27,1.51,1.79,1.79,0,0,0,.68.4c0,.07-.08.12-.11.19-.17.55-.33,1.12-.46,1.69l-.39,1A2,2,0,0,0,46,36.42a10.18,10.18,0,0,0,2.29,1.79c1,.63,1.91,1.22,2.89,1.78S53,41,54,41.49l1.41.66a3.69,3.69,0,0,0,1.26.46c.93,0,1.65-1.24,2.08-1.91.14-.22.27-.44.4-.67a2.44,2.44,0,0,1,.14-.28l0-.07a3.89,3.89,0,0,0,.48.18l.82.25A1,1,0,0,0,61.88,39.22Z"/><path class="cls-2" d="M50.58,39.84c-3.18-2-5.38-4-5.29-4.68l1.23-3.51"/><path class="cls-2" d="M50.55,39.83c3.23,2,6,3.2,6.56,2.85l2.82-2.76"/><path class="cls-2" d="M60.86,38.67c-.35.56-3.69-.94-7.46-3.33S46.87,30.55,47.22,30s4.91-.92,8.68,1.48S61.22,38.12,60.86,38.67Z"/><path class="cls-2" d="M48.17,29.67a1.17,1.17,0,0,0-.39-.27.89.89,0,0,0-.61,0,.9.9,0,0,0-.6-.22c-.38,0-.69.17-.69.39v0l-.06,0c-.2.11-.16.52.07.92a1.21,1.21,0,0,0,.47.5,1.17,1.17,0,0,0,.36.67,1.37,1.37,0,0,0,.55.35,1.46,1.46,0,0,0,1,.88,1.25,1.25,0,0,0,.42.54,1.42,1.42,0,0,0,.64.29,1.3,1.3,0,0,0,.46.54,1.18,1.18,0,0,0,.65.26,1.47,1.47,0,0,0,1.1.78,1.34,1.34,0,0,0,.47.49,1.53,1.53,0,0,0,.35.16"/><path class="cls-2" d="M60.76,37.68a1,1,0,0,1,.41.23.88.88,0,0,1,.3.53.82.82,0,0,1,.45.45c.17.34.15.7-.05.8h0a.09.09,0,0,1,0,.07c0,.22-.4.37-.86.33a1.39,1.39,0,0,1-.66-.22,1.19,1.19,0,0,1-.76,0,1.37,1.37,0,0,1-.55-.35,1.24,1.24,0,0,1-.67-.12,1.18,1.18,0,0,1-.54-.4,1.26,1.26,0,0,1-.68-.16,1.24,1.24,0,0,1-.52-.45,1.42,1.42,0,0,1-.69-.18,1.26,1.26,0,0,1-.51-.48,1.29,1.29,0,0,1-.69-.21,1.19,1.19,0,0,1-.48-.46,1.2,1.2,0,0,1-.64-.22,1.31,1.31,0,0,1-.28-.24"/><path class="cls-2" d="M52.36,36a1.11,1.11,0,0,0,.41.39,1.26,1.26,0,0,0,.55.22"/><path class="cls-12" d="M76.17,23.14c-.13-.65-.52-.73-1-1.05a14.51,14.51,0,0,1-1.73-1.6,16.63,16.63,0,0,0-4-3.07,12.17,12.17,0,0,0-4.84-1c-.81,0-1.62,0-2.43,0-.39,0-.79.06-1.18.11l-.59.11-.16,0a.85.85,0,0,0-1.18,0l-.18.16a1,1,0,0,0,.06,1.53,2,2,0,0,0,.75.25.76.76,0,0,0-.06.2c0,.58-.08,1.17-.09,1.75-.05.37-.1.73-.16,1.1A2,2,0,0,0,60,23.87a10.49,10.49,0,0,0,2.62,1.24q1.59.62,3.21,1.11c1,.32,2.07.6,3.12.85.5.12,1,.23,1.51.33a3.42,3.42,0,0,0,1.34.18c.9-.2,1.33-1.56,1.61-2.31q.14-.37.24-.75c0-.1,0-.2.08-.3l0-.07a4.24,4.24,0,0,0,.51.06l.85.07A1,1,0,0,0,76.17,23.14Z"/><path class="cls-2" d="M65.28,26.2c-3.55-1.28-6.12-2.76-6.18-3.42l.44-3.7"/><path class="cls-2" d="M65.25,26.19c3.59,1.3,6.55,1.83,7,1.36l2.15-3.3"/><path class="cls-2" d="M66.23,20.89c-3.79-1.44-6.58-3-6.37-3.57s4.6-2,8.79-.43,6.64,5.32,6.41,5.94-2.86.06-6.28-1"/><path class="cls-2" d="M63.54,21A.86.86,0,0,0,64,21a1.17,1.17,0,0,0,.58.42,1.26,1.26,0,0,0,.66.1,1.27,1.27,0,0,0,.56.37,1.39,1.39,0,0,0,.38.09"/><path class="cls-2" d="M60.72,16.8a.93.93,0,0,0-.44-.18.82.82,0,0,0-.6.08.82.82,0,0,0-.64-.08c-.37.07-.64.31-.59.53,0,0,0,0,0,0l-.06,0c-.16.15,0,.55.27.89a1.19,1.19,0,0,0,.57.38,1.11,1.11,0,0,0,.5.58,1.37,1.37,0,0,0,.61.23,1.36,1.36,0,0,0,.51.45l.13.07"/><path class="cls-2" d="M74.75,21.88a1,1,0,0,1,.45.14.87.87,0,0,1,.41.45.91.91,0,0,1,.54.34c.23.3.29.65.11.79h0l0,.07c0,.22-.32.44-.78.5a1.2,1.2,0,0,1-.68-.07,1.21,1.21,0,0,1-.76.13,1.5,1.5,0,0,1-.61-.22,1.37,1.37,0,0,1-.68,0,1.28,1.28,0,0,1-.61-.28,1.37,1.37,0,0,1-.7,0,1.22,1.22,0,0,1-.61-.34,1.24,1.24,0,0,1-.71,0,1.32,1.32,0,0,1-.61-.36,1.48,1.48,0,0,1-1.28-.39,1.43,1.43,0,0,1-.68-.08,1.33,1.33,0,0,1-.31-.18"/><path class="cls-2" d="M66.17,22a1.41,1.41,0,0,0,.48.29,1.27,1.27,0,0,0,.6.09"/><path class="cls-12" d="M68.68,31.38c0-.67-.41-.8-.85-1.18a15.53,15.53,0,0,1-1.49-1.82c-1.08-1.32-2-2.87-3.41-3.81a12.8,12.8,0,0,0-4.8-1.43c-.8-.14-1.6-.25-2.41-.32a11.51,11.51,0,0,0-1.18-.06l-.6,0h-.16a.85.85,0,0,0-1.17-.18l-.2.13a1,1,0,0,0-.16,1.53,2.33,2.33,0,0,0,.71.35c0,.07-.07.12-.08.19-.13.57-.24,1.14-.33,1.72-.11.35-.21.71-.31,1.06a2,2,0,0,0,.35,2.26A10.13,10.13,0,0,0,55,31.45c1,.55,2,1.07,3,1.55s2,.88,3,1.27l1.46.54a3.46,3.46,0,0,0,1.29.36c.93-.07,1.54-1.36,1.92-2.07a6.44,6.44,0,0,0,.34-.7l.12-.29,0-.07a3,3,0,0,0,.49.14l.83.18A1,1,0,0,0,68.68,31.38Z"/><path class="cls-2" d="M57.47,32.9c-3.34-1.77-5.68-3.59-5.65-4.25l1-3.6"/><path class="cls-2" d="M57.44,32.88c3.38,1.79,6.23,2.72,6.76,2.32l2.6-3"/><path class="cls-2" d="M63.88,25.3c2.73,2.18,4,5.13,3.75,5.62s-3.76-.65-7.7-2.74-6.9-4.25-6.59-4.83,4.27-1.21,8,.43"/><path class="cls-2" d="M54.26,23a1,1,0,0,0-.41-.24.85.85,0,0,0-.61,0,.8.8,0,0,0-.61-.17c-.38,0-.68.22-.67.44,0,0,0,0,0,0l-.06,0c-.19.12-.12.53.14.92a1.3,1.3,0,0,0,.51.45A1.16,1.16,0,0,0,53,25a1.25,1.25,0,0,0,.57.31,1.38,1.38,0,0,0,.44.53,1.29,1.29,0,0,0,.61.27,1.37,1.37,0,0,0,.47.51,1.34,1.34,0,0,0,.66.23,1.14,1.14,0,0,0,.5.5,1.35,1.35,0,0,0,.67.22,1.27,1.27,0,0,0,.51.49,1.25,1.25,0,0,0,.64.19,1.28,1.28,0,0,0,.51.45,2,2,0,0,0,.36.14"/><path class="cls-2" d="M67.45,29.93a1,1,0,0,1,.42.2.86.86,0,0,1,.35.51.79.79,0,0,1,.48.41c.2.33.2.68,0,.8h0s0,0,0,.07c0,.22-.38.4-.84.4a1.3,1.3,0,0,1-.67-.17,1.12,1.12,0,0,1-.76,0,1.33,1.33,0,0,1-.58-.31,1.15,1.15,0,0,1-.67-.06,1.25,1.25,0,0,1-.57-.36,1.2,1.2,0,0,1-.69-.1,1.27,1.27,0,0,1-.56-.41,1.28,1.28,0,0,1-.7-.13,1.21,1.21,0,0,1-.55-.44,1.3,1.3,0,0,1-.7-.14,1.36,1.36,0,0,1-.52-.43,1.15,1.15,0,0,1-.65-.17.94.94,0,0,1-.29-.21"/><path class="cls-2" d="M58.93,28.88a1.17,1.17,0,0,0,.44.35,1.41,1.41,0,0,0,.58.18"/><path class="cls-12" d="M79.93,34.19c.1-.65-.23-.86-.57-1.33a14.29,14.29,0,0,1-1.07-2.1,16.52,16.52,0,0,0-2.7-4.29,12.28,12.28,0,0,0-4.19-2.59c-.75-.31-1.51-.59-2.28-.83A11.48,11.48,0,0,0,68,22.74l-.59-.11-.15,0a.86.86,0,0,0-1.11-.43l-.23.09a1,1,0,0,0-.47,1.46,1.94,1.94,0,0,0,.61.49c0,.06-.09.1-.12.17-.25.53-.48,1.06-.69,1.61l-.53,1a1.94,1.94,0,0,0-.14,2.28,10,10,0,0,0,2,2.09c.85.75,1.72,1.47,2.62,2.16s1.73,1.28,2.63,1.88c.43.28.66.84,1.09,1.11a4.07,4.07,0,0,0,1.4.36c.92.13,1.8-1,2.32-1.61.17-.2.38-.15.53-.36s.17-.17.23-.25-.07-.29,0-.32a4.26,4.26,0,0,0,.45.24l.78.36A1,1,0,0,0,79.93,34.19Z"/><path class="cls-2" d="M68.65,33.26c-2.87-2.44-4.77-4.72-4.6-5.36l1.71-3.31"/><path class="cls-2" d="M74.1,36.91a1.06,1.06,0,0,0,.63.06l3.17-2.35"/><path class="cls-2" d="M68.63,33.24a31.41,31.41,0,0,0,4,3"/><path class="cls-2" d="M68.17,25.49c-1.13-1.25-1.73-2.17-1.5-2.44.43-.5,5-.23,8.39,2.66S79.43,33,79,33.52s-3.53-1.44-6.93-4.33c-.68-.58-1.32-1.14-1.9-1.69"/><path class="cls-2" d="M69.37,28.27a1.39,1.39,0,0,0,.26.3,1.26,1.26,0,0,0,.58.32,1.37,1.37,0,0,0,.4.55,1.52,1.52,0,0,0,.33.21"/><path class="cls-2" d="M67.66,22.86a1.09,1.09,0,0,0-.35-.32.88.88,0,0,0-.6-.14.81.81,0,0,0-.56-.29c-.37-.06-.71.07-.74.29v0h-.07c-.2.08-.23.5,0,.93a1.21,1.21,0,0,0,.4.55,1.1,1.1,0,0,0,.27.72,1.24,1.24,0,0,0,.49.42,1.41,1.41,0,0,0,.31.61,1.35,1.35,0,0,0,.54.4,1.28,1.28,0,0,0,.12.29"/><path class="cls-2" d="M79,32.51a1.24,1.24,0,0,1,.38.29.9.9,0,0,1,.22.57.82.82,0,0,1,.39.51c.12.36,0,.71-.17.78h0s0,.05,0,.07c0,.21-.45.31-.9.2a1.29,1.29,0,0,1-.62-.3,1.12,1.12,0,0,1-.75-.15,1.34,1.34,0,0,1-.5-.42,1.36,1.36,0,0,1-.65-.21,1.31,1.31,0,0,1-.47-.47,1.46,1.46,0,0,1-1.11-.77,1.29,1.29,0,0,1-.66-.27,1.33,1.33,0,0,1-.44-.55,1.22,1.22,0,0,1-.65-.3,1.3,1.3,0,0,1-.42-.52,1.24,1.24,0,0,1-.6-.31,1.2,1.2,0,0,1-.24-.27"/><path class="cls-12" d="M71,34.76c-.06-.67-.43-.79-.88-1.16a15.36,15.36,0,0,1-1.54-1.78,16.47,16.47,0,0,0-3.65-3.52,12.24,12.24,0,0,0-4.69-1.5c-.8-.12-1.61-.22-2.42-.26a11.62,11.62,0,0,0-1.18,0l-.61,0h-.15a.86.86,0,0,0-1.18-.15l-.2.14a1,1,0,0,0-.11,1.53,2,2,0,0,0,.72.33,1.19,1.19,0,0,0-.08.2c-.11.56-.21,1.14-.29,1.72-.09.36-.18.72-.28,1.07a2,2,0,0,0,.42,2.25,10.09,10.09,0,0,0,2.46,1.54c1,.52,2,1,3.06,1.46s2,.83,3,1.2l1.46.5a3.62,3.62,0,0,0,1.31.33c.92-.1,1.51-1.41,1.86-2.12.12-.23.23-.47.33-.71a2.49,2.49,0,0,1,.11-.29l0-.07a4.29,4.29,0,0,0,.5.12l.84.16A1,1,0,0,0,71,34.76Z"/><path class="cls-2" d="M54.29,32.93a.89.89,0,0,1-.22-.46l.86-3.63"/><path class="cls-2" d="M59.83,36.57c-1.24-.62-2.35-1.25-3.25-1.82"/><line class="cls-2" x1="68.33" y1="36.64" x2="69.14" y2="35.66"/><path class="cls-2" d="M59.8,36.55c3.42,1.7,6.3,2.56,6.82,2.15l.35-.42"/><path class="cls-2" d="M57.6,29.21c-1.46-1-2.31-1.75-2.15-2.08a4.06,4.06,0,0,1,2.5-.66"/><path class="cls-2" d="M60.74,26.6a12,12,0,0,1,3.49,1.09c4,2,6,6,5.7,6.63s-3.77-.54-7.77-2.53c-.69-.34-1.35-.69-2-1"/><path class="cls-2" d="M56.36,26.71a1,1,0,0,0-.41-.23.89.89,0,0,0-.61,0,.88.88,0,0,0-.62-.15c-.38,0-.67.24-.65.46v0l-.06,0c-.18.13-.1.54.17.91a1.32,1.32,0,0,0,.52.45,1.24,1.24,0,0,0,.43.63,1.35,1.35,0,0,0,.59.29,1.34,1.34,0,0,0,.44.51,1.24,1.24,0,0,0,.63.25,1.18,1.18,0,0,0,.48.5,1.32,1.32,0,0,0,.66.22,1.34,1.34,0,0,0,.51.49,1.24,1.24,0,0,0,.68.19,1.22,1.22,0,0,0,.53.49,1.31,1.31,0,0,0,.64.17,1.36,1.36,0,0,0,.52.43,1.49,1.49,0,0,0,.37.13"/><path class="cls-2" d="M69.73,33.34a1,1,0,0,1,.42.19.87.87,0,0,1,.36.5.84.84,0,0,1,.5.4c.2.32.21.68,0,.79h0s0,.05,0,.07c0,.22-.37.41-.83.42a1.41,1.41,0,0,1-.67-.15,1.11,1.11,0,0,1-.76,0,1.35,1.35,0,0,1-.59-.28,1.38,1.38,0,0,1-.68,0,1.29,1.29,0,0,1-.57-.34,1.27,1.27,0,0,1-.69-.09,1.4,1.4,0,0,1-.58-.39,1.3,1.3,0,0,1-.69-.11,1.21,1.21,0,0,1-.57-.43,1.07,1.07,0,0,1-.54-.06"/><path class="cls-2" d="M61.19,32.51a1.17,1.17,0,0,0,.44.35,1.54,1.54,0,0,0,.58.16"/><path class="cls-5" d="M63.16,38.49a1,1,0,0,0-.09-.48l-.14-.21a1,1,0,0,0-.41-.29l-.24-.1.18.1a.73.73,0,0,0-.35-.15.67.67,0,0,0-.37,0,.79.79,0,0,0-.34.14.68.68,0,0,0-.28.25L61,38a1,1,0,0,0,0,.51l.08.23a.91.91,0,0,0,.32.38l.29.15.07,0,.14,0a.72.72,0,0,0,.38.05,1,1,0,0,0,.66-.31.83.83,0,0,0,.2-.32Z"/><path class="cls-12" d="M93.14,43.17a22,22,0,0,0,1-2.35c.38-1.15.7-2.32,1.09-3.46a1,1,0,0,1,.65-.68c0-.11.07-.21.11-.31.3-.77.71-1.49,1.08-2.22H97a12.31,12.31,0,0,0-4.3,2.42c-.63.5-1.25,1-1.84,1.59-.28.27-.56.55-.82.85-.13.15-.26.31-.38.47a.76.76,0,0,0-.1.12.85.85,0,0,0-.91.76l0,.24a1,1,0,0,0,1,1.12,2,2,0,0,0,.73-.3c0,.06,0,.13.09.19.34.47.69.93,1.06,1.37a.9.9,0,0,1,.43,0A3.55,3.55,0,0,0,93.14,43.17Z"/><line class="cls-2" x1="91.28" y1="42.93" x2="90.56" y2="41.85"/><path class="cls-2" d="M94.14,39.75c-2.51.74-4.32,1-4.48.56-.24-.61,2.21-4.47,6.39-6.05l.42-.15"/><path class="cls-2" d="M90,39.36a1,1,0,0,0-.85.6.84.84,0,0,0-.53.35c-.24.3-.28.65-.11.79h0a.14.14,0,0,0,0,.06c0,.22.32.45.78.5a1.2,1.2,0,0,0,.68-.08,1.1,1.1,0,0,0,.76.11,1.37,1.37,0,0,0,.61-.22,1.38,1.38,0,0,0,.68,0,1.29,1.29,0,0,0,.61-.29,1.24,1.24,0,0,0,.69,0,1.6,1.6,0,0,0,.49-.23"/><path class="cls-12" d="M66.49,43.32a43.59,43.59,0,0,0,5.6.11c1.85-.13,3.71-.31,5.56-.46a9.16,9.16,0,0,1,2.47,0c-.26-.25-.55-.24-.94-.33a12.58,12.58,0,0,1-1.87-.75,14.18,14.18,0,0,0-4.15-1.24A10.64,10.64,0,0,0,69,41.3c-.65.23-1.3.47-1.93.76a9.54,9.54,0,0,0-.91.44l-.45.27-.11.06a.74.74,0,0,0-1,.36l0,.09C65.22,43.27,65.86,43.28,66.49,43.32Z"/><path class="cls-2" d="M65.65,43.11a10.14,10.14,0,0,1,6.74-2.69c3.51-.06,6.43,1.89,6.87,2.64"/><path class="cls-2" d="M66,42.76a.76.76,0,0,0-.4,0,.71.71,0,0,0-.46.25.7.7,0,0,0-.53.12l-.11.08"/><path class="cls-2" d="M78.78,42.56a.86.86,0,0,1,.4,0,.81.81,0,0,1,.47.24.73.73,0,0,1,.53.11.88.88,0,0,1,.31.29"/><path class="cls-12" d="M91.52,21.7c-.47-.48-.84-.33-1.42-.33A15.37,15.37,0,0,1,87.78,21a16.52,16.52,0,0,0-5-.36,12.08,12.08,0,0,0-4.57,1.85c-.7.42-1.37.86-2,1.34-.31.24-.62.48-.92.75l-.44.41-.11.1a.86.86,0,0,0-1,.65l-.07.23a1,1,0,0,0,.9,1.25,2.12,2.12,0,0,0,.76-.21c0,.07,0,.14.06.2.28.51.58,1,.89,1.51.16.33.31.67.47,1,.4.85.75,1.39,1.76,1.47a10.43,10.43,0,0,0,2.88-.4c1.1-.24,2.2-.52,3.29-.84s2.05-.64,3.07-1l1.45-.55a3.41,3.41,0,0,0,1.21-.59c.65-.66.26-2,.07-2.82a6.93,6.93,0,0,0-.2-.75c0-.1-.07-.2-.1-.29a.34.34,0,0,0,0-.08,4.1,4.1,0,0,0,.46-.22l.75-.41A1,1,0,0,0,91.52,21.7Z"/><path class="cls-2" d="M84.1,30.24c-3.67.88-6.63,1.06-7,.54l-1.67-3.34"/><path class="cls-2" d="M84.07,30.25c3.71-.89,6.47-2.07,6.61-2.72V23.59"/><path class="cls-2" d="M82,25.28c-4,.87-7.13,1.12-7.28.52s2.77-4.16,7.11-5.2,8.47.81,8.62,1.45-2.36,1.63-5.82,2.58"/><path class="cls-2" d="M79.79,26.86a.91.91,0,0,0,.39-.22,1.17,1.17,0,0,0,.71,0,1.39,1.39,0,0,0,.61-.28,1.45,1.45,0,0,0,1-.14"/><path class="cls-2" d="M75.12,24.89a1,1,0,0,0-.46.09.85.85,0,0,0-.46.4.92.92,0,0,0-.58.28c-.27.27-.36.61-.2.77,0,0,0,0,0,0a.09.09,0,0,0,0,.07c-.06.21.26.48.71.59a1.23,1.23,0,0,0,.69,0,1.11,1.11,0,0,0,.73.21,1.29,1.29,0,0,0,.64-.15,1.23,1.23,0,0,0,.67.11l.15,0"/><path class="cls-2" d="M89.63,21.43a1,1,0,0,1,.46-.13.83.83,0,0,1,.59.15.87.87,0,0,1,.64,0c.36.11.6.38.53.59,0,0,0,0,0,0l0,0c.15.17,0,.55-.37.85a1.34,1.34,0,0,1-.61.32,1.19,1.19,0,0,1-.56.52,1.38,1.38,0,0,1-.64.15,1.21,1.21,0,0,1-.55.4,1.27,1.27,0,0,1-.66.11,1.29,1.29,0,0,1-.58.37,1.26,1.26,0,0,1-.7.06,1.17,1.17,0,0,1-.6.37,1.36,1.36,0,0,1-.71,0,1.3,1.3,0,0,1-.62.35,1.29,1.29,0,0,1-.67,0A1.21,1.21,0,0,1,84,26a1.54,1.54,0,0,1-.36,0"/><path class="cls-2" d="M82.55,26.26a1.36,1.36,0,0,0,.56,0,1.57,1.57,0,0,0,.55-.25"/><path class="cls-12" d="M89.79,32.7c-.4-.54-.78-.45-1.36-.52a15.38,15.38,0,0,1-2.25-.7C84.56,31,83,30.17,81.24,30.17a12.65,12.65,0,0,0-4.79,1.44q-1.12.48-2.19,1c-.35.19-.69.39-1,.61l-.5.35-.12.09a.85.85,0,0,0-1.08.49l-.09.22a1,1,0,0,0,.71,1.36,1.93,1.93,0,0,0,.78-.09c0,.07,0,.14,0,.21.21.54.43,1.08.67,1.61L74,38.57c.28.9.55,1.48,1.54,1.69a10.13,10.13,0,0,0,2.91,0c1.12-.09,2.25-.21,3.37-.37s2.12-.35,3.18-.58c.5-.1,1-.22,1.51-.34a3.56,3.56,0,0,0,1.28-.41c.74-.57.54-2,.47-2.78,0-.26-.06-.52-.1-.78l-.06-.31s0,0,0-.07a3,3,0,0,0,.48-.16l.8-.3A1,1,0,0,0,89.79,32.7Z"/><path class="cls-2" d="M81.25,40.13c-3.75.35-6.71.12-7-.45L73,36.15"/><path class="cls-2" d="M81.22,40.13c3.81-.36,6.7-1.15,6.93-1.78l.53-3.9"/><path class="cls-2" d="M82.44,30.26c3.47.32,6.16,2.08,6.21,2.63s-3.49,1.52-7.93,2-8.1.23-8.16-.42,2.9-3.36,6.93-4.05"/><path class="cls-2" d="M73.1,33.58a1.09,1.09,0,0,0-.47,0,.94.94,0,0,0-.51.34.84.84,0,0,0-.6.19c-.31.23-.45.56-.31.74h0l0,.06c-.08.21.2.51.63.69a1.34,1.34,0,0,0,.68.1,1.14,1.14,0,0,0,.7.3,1.35,1.35,0,0,0,.65-.05,1.35,1.35,0,0,0,.65.2,1.3,1.3,0,0,0,.66-.12,1.25,1.25,0,0,0,.67.17,1.28,1.28,0,0,0,.68-.17,1.47,1.47,0,0,0,1.37,0,1.22,1.22,0,0,0,.7.13,1.35,1.35,0,0,0,.64-.19,1.24,1.24,0,0,0,.67.09,1.42,1.42,0,0,0,.38-.08"/><path class="cls-2" d="M88,32.16a1.12,1.12,0,0,1,.46-.06.88.88,0,0,1,.57.23.82.82,0,0,1,.63.08c.34.17.54.46.45.66l0,0a.12.12,0,0,1,0,0c.12.18-.09.54-.48.79a1.28,1.28,0,0,1-.65.23,1.17,1.17,0,0,1-.63.43,1.41,1.41,0,0,1-.65.07,1.31,1.31,0,0,1-.6.32,1.38,1.38,0,0,1-.67,0,1.23,1.23,0,0,1-.63.29,1.32,1.32,0,0,1-.7,0,1.27,1.27,0,0,1-.65.27,1.19,1.19,0,0,1-.7-.06,1.18,1.18,0,0,1-.67.26,1.14,1.14,0,0,1-.66-.07,1.21,1.21,0,0,1-.64.22,1,1,0,0,1-.36,0"/><path class="cls-2" d="M80.27,36a1.17,1.17,0,0,0,.56.06,1.38,1.38,0,0,0,.58-.17"/><path class="cls-12" d="M96.55,34.47c0-.08.08-.16.11-.24h0v0c.17-.45.37-.89.58-1.33a11.09,11.09,0,0,0,.47-1.24c.38-1.05.86-2.05,1.3-3.07a.65.65,0,0,1,.29-.28c-.64-.32-1.23-1.05-1.84-1.39a16.37,16.37,0,0,0-4.6-2.1,12,12,0,0,0-4.93.14,24,24,0,0,0-2.37.56,10.49,10.49,0,0,0-1.12.37l-.56.23-.14.06a.86.86,0,0,0-1.16.25l-.14.2a1,1,0,0,0,.4,1.48,1.83,1.83,0,0,0,.79.07,1.49,1.49,0,0,0,0,.21c.09.58.19,1.15.31,1.73L84,31.2c.08.94.22,1.56,1.14,2a9.83,9.83,0,0,0,2.84.63c1.12.16,2.24.29,3.37.37s2.15.12,3.23.12c.52,0,1,.34,1.53.33a1.94,1.94,0,0,0,.42-.1Z"/><path class="cls-2" d="M90.8,34.29C87.05,33.83,84.22,33,84,32.34l-.4-3.71"/><path class="cls-2" d="M90.77,34.28a31.16,31.16,0,0,0,5,.26"/><path class="cls-2" d="M98.33,29.28A33.74,33.74,0,0,1,91.41,29c-.88-.11-1.73-.24-2.52-.37"/><path class="cls-2" d="M86.12,28.06c-1.63-.42-2.63-.86-2.59-1.22.08-.65,4-2.93,8.47-2.39a11.91,11.91,0,0,1,7.29,3.76"/><path class="cls-2" d="M88.65,29.72a1.53,1.53,0,0,0,1,.06,1.3,1.3,0,0,0,.64.23,1.64,1.64,0,0,0,.38,0"/><path class="cls-2" d="M84.25,26.14a1,1,0,0,0-.47-.08.87.87,0,0,0-.57.22.84.84,0,0,0-.63.06c-.35.16-.55.45-.46.65,0,0,0,0,0,0l0,0c-.13.18.08.54.46.8a1.3,1.3,0,0,0,.64.25,1.2,1.2,0,0,0,.62.45,1.41,1.41,0,0,0,.65.08A1.27,1.27,0,0,0,85,29a1.32,1.32,0,0,0,.67,0,1.17,1.17,0,0,0,.26.18"/><path class="cls-2" d="M97.9,30.48a1.36,1.36,0,0,1-.29,0,1.25,1.25,0,0,1-.66-.13,1.23,1.23,0,0,1-.68.15,1.34,1.34,0,0,1-.67-.18,1.39,1.39,0,0,1-.7.13,1.29,1.29,0,0,1-.67-.21,1.34,1.34,0,0,1-.71.11,1.41,1.41,0,0,1-.63-.21,1.27,1.27,0,0,1-.67.07,1,1,0,0,1-.35-.1"/><path class="cls-12" d="M93.58,34.25c-.41-.53-.79-.43-1.37-.49a15.71,15.71,0,0,1-2.27-.64,16.61,16.61,0,0,0-5-.93,12.23,12.23,0,0,0-4.76,1.32c-.73.34-1.45.7-2.16,1.11-.34.2-.68.4-1,.63l-.48.36-.13.09a.85.85,0,0,0-1.06.53l-.09.22A1,1,0,0,0,76,37.79a1.78,1.78,0,0,0,.79-.12,1.55,1.55,0,0,0,0,.21c.22.54.45,1.08.71,1.6.11.35.23.7.35,1.05.31.89.59,1.46,1.58,1.65a10.13,10.13,0,0,0,2.91-.07c1.13-.11,2.25-.27,3.36-.46s2.12-.4,3.16-.65c.51-.12,1-.25,1.51-.39a3.49,3.49,0,0,0,1.27-.44c.72-.59.49-2,.39-2.8,0-.25-.07-.51-.12-.77,0-.1,0-.2-.07-.3a.17.17,0,0,0,0-.08,2.55,2.55,0,0,0,.48-.17l.8-.32A1,1,0,0,0,93.58,34.25Z"/><path class="cls-2" d="M78.62,41.9a.87.87,0,0,1-.44-.26l-1.27-3.51"/><path class="cls-2" d="M85.24,41.9a35.72,35.72,0,0,1-3.71.26"/><line class="cls-2" x1="92.38" y1="37.29" x2="92.52" y2="36.02"/><path class="cls-2" d="M85.21,41.9c3.79-.46,6.67-1.33,6.88-2l.06-.54"/><path class="cls-2" d="M79.34,37c-1.76,0-2.9-.2-2.94-.56s.6-1.09,1.72-1.93"/><path class="cls-2" d="M80.52,33.07a12,12,0,0,1,3.53-1c4.43-.54,8.32,1.75,8.4,2.41S89,36.08,84.57,36.62c-.77.1-1.51.17-2.22.23"/><path class="cls-2" d="M76.92,35.56a1.07,1.07,0,0,0-.46,0A.91.91,0,0,0,76,36a.88.88,0,0,0-.6.21c-.3.24-.43.57-.29.74l0,0A.13.13,0,0,0,75,37c-.08.2.21.5.64.67a1.32,1.32,0,0,0,.68.08,1.2,1.2,0,0,0,.71.29,1.41,1.41,0,0,0,.65-.08,1.3,1.3,0,0,0,.66.18A1.23,1.23,0,0,0,79,38a1.23,1.23,0,0,0,.68.15,1.28,1.28,0,0,0,.68-.18,1.25,1.25,0,0,0,.69.13,1.29,1.29,0,0,0,.67-.21,1.25,1.25,0,0,0,.71.11,1.2,1.2,0,0,0,.63-.21,1.3,1.3,0,0,0,.68.08,2,2,0,0,0,.37-.09"/><path class="cls-2" d="M91.74,33.76a1,1,0,0,1,.46-.08.88.88,0,0,1,.57.22.87.87,0,0,1,.64.06c.34.16.55.45.46.65a0,0,0,0,0,0,0l0,0c.13.18-.08.54-.46.8a1.27,1.27,0,0,1-.64.25,1.15,1.15,0,0,1-.62.45,1.27,1.27,0,0,1-.64.08,1.37,1.37,0,0,1-.6.33,1.31,1.31,0,0,1-.67,0,1.24,1.24,0,0,1-.62.3,1.35,1.35,0,0,1-.7,0,1.23,1.23,0,0,1-.64.29,1.35,1.35,0,0,1-.71,0,1.07,1.07,0,0,1-.49.24"/><path class="cls-2" d="M84.15,37.76a1.22,1.22,0,0,0,.56,0,1.28,1.28,0,0,0,.57-.18"/><path class="cls-5" d="M80.87,42a.78.78,0,0,0-.29-.31l-.19-.09a.89.89,0,0,0-.43,0,.85.85,0,0,1-.22,0h.18a.58.58,0,0,0-.32.06.55.55,0,0,0-.28.17.56.56,0,0,0-.17.26.55.55,0,0,0-.08.31l0,.22a1,1,0,0,0,.21.38l.16.13a1,1,0,0,0,.41.12l.28,0h.06l.13,0a.64.64,0,0,0,.3-.14.69.69,0,0,0,.22-.23.63.63,0,0,0,.1-.3.62.62,0,0,0,0-.33Z"/><path class="cls-12" d="M49,42.75a2.12,2.12,0,0,0,.79-.12,1.55,1.55,0,0,0,0,.21c.07.17.16.35.23.52,2.67-.24,5.4,0,8.06-.06,1.52,0,3,0,4.55,0a17.33,17.33,0,0,1,2.49-.06c0-.34-.06-.67-.09-.93s-.07-.51-.12-.77c0-.1.19.09.17,0s.05-.16,0-.19.14-.33.19-.35l.79-.33a1,1,0,0,0,.39-1.48c-.41-.52-.79-.42-1.36-.48A15,15,0,0,1,62.88,38a16.72,16.72,0,0,0-5-.92,12.34,12.34,0,0,0-4.75,1.34c-.74.34-1.46.71-2.16,1.12-.34.2-.68.41-1,.64q-.24.16-.48.36l-.13.09a.85.85,0,0,0-1.06.53l-.09.22A1,1,0,0,0,49,42.75Z"/><line class="cls-2" x1="65.23" y1="43.09" x2="65.46" y2="40.92"/><path class="cls-2" d="M60.59,41.07c-1,.18-2,.34-3.08.48-4.43.56-8.09.48-8.17-.17S52.54,37.54,57,37s8.34,1.72,8.42,2.38c0,.3-.7.67-1.94,1"/><path class="cls-2" d="M49.86,40.52a.84.84,0,0,0-.46,0,.87.87,0,0,0-.51.35.84.84,0,0,0-.6.21c-.29.24-.42.57-.28.74,0,0,0,0,0,0s0,0,0,.06c-.08.2.21.5.64.66a1.34,1.34,0,0,0,.68.09A1.2,1.2,0,0,0,50,43a1.29,1.29,0,0,0,.65-.08,1.3,1.3,0,0,0,.66.18,1.23,1.23,0,0,0,.65-.13,1.23,1.23,0,0,0,.68.15,1.21,1.21,0,0,0,.67-.19A1.22,1.22,0,0,0,54,43a1.29,1.29,0,0,0,.67-.21,1.34,1.34,0,0,0,.71.11,1.41,1.41,0,0,0,.63-.21,1.43,1.43,0,0,0,.68.07,2,2,0,0,0,.37-.09"/><path class="cls-2" d="M60.91,42.15a.8.8,0,0,1-.36-.07,1.27,1.27,0,0,1-.66.29,1.37,1.37,0,0,1-.66,0,1.3,1.3,0,0,1-.64.23,1.07,1.07,0,0,1-.36,0"/><path class="cls-2" d="M64.67,38.66a1.32,1.32,0,0,1,.47-.08.93.93,0,0,1,.57.22.84.84,0,0,1,.63.06c.35.16.56.45.47.65l0,0,0,0c.13.19-.08.55-.46.81a1.27,1.27,0,0,1-.64.25,1.17,1.17,0,0,1-.61.45,1.31,1.31,0,0,1-.65.08,1.28,1.28,0,0,1-.59.34,1.3,1.3,0,0,1-.67,0"/><path class="cls-2" d="M57.1,42.69a1.22,1.22,0,0,0,.56,0,1.27,1.27,0,0,0,.57-.19"/><path class="cls-12" d="M29.79,41.14a1.89,1.89,0,0,0,.78.15,1.55,1.55,0,0,0,0,.21c0,.58.07,1.16.14,1.74v.17c5.63-.06,11.19.66,16.8.19-.21-.54-.59-.59-1.08-.83a14.93,14.93,0,0,1-1.92-1.37,17,17,0,0,0-4.38-2.55,12.36,12.36,0,0,0-4.92-.35c-.8.08-1.61.18-2.4.33a11.44,11.44,0,0,0-1.16.26,5.58,5.58,0,0,0-.58.18l-.15,0a.85.85,0,0,0-1.18.14l-.15.18A1,1,0,0,0,29.79,41.14Z"/><line class="cls-2" x1="30.51" y1="43.56" x2="30.5" y2="41.75"/><path class="cls-2" d="M41.29,43.5c-.95-.16-2-.36-3.07-.6-4.36-1-7.77-2.29-7.63-2.93s4.31-2.52,8.67-1.55a11.6,11.6,0,0,1,7,4.67"/><path class="cls-2" d="M31.37,39.34a1,1,0,0,0-.45-.13.92.92,0,0,0-.59.16.93.93,0,0,0-.64,0c-.36.12-.59.39-.52.6v0l-.05,0c-.15.16,0,.54.38.84a1.22,1.22,0,0,0,.61.31,1.16,1.16,0,0,0,.57.51,1.24,1.24,0,0,0,.64.14,1.21,1.21,0,0,0,.55.4,1.4,1.4,0,0,0,.67.09,1.15,1.15,0,0,0,.58.37,1.25,1.25,0,0,0,.7,0,1.46,1.46,0,0,0,1.32.39,1.26,1.26,0,0,0,.62.34,1.29,1.29,0,0,0,.67,0l.07.06"/><path class="cls-12" d="M55.52,23.72c-.35-.57-.74-.52-1.3-.65a14.71,14.71,0,0,1-2.17-.92,16.91,16.91,0,0,0-4.83-1.54,12.44,12.44,0,0,0-4.87.73c-.78.25-1.54.52-2.29.84-.36.15-.72.32-1.07.5l-.52.3-.14.07a.86.86,0,0,0-1.12.4l-.11.21a1,1,0,0,0,.57,1.42,2.06,2.06,0,0,0,.79,0c0,.07,0,.14,0,.21.16.56.32,1.12.51,1.67.08.36.15.73.23,1.09.19.92.4,1.52,1.36,1.83a10.07,10.07,0,0,0,2.9.29c1.13,0,2.26,0,3.39,0S49,30,50.08,29.85l1.54-.2a3.47,3.47,0,0,0,1.31-.29c.79-.49.73-1.92.74-2.72q0-.39,0-.78l0-.31v-.08a3,3,0,0,0,.5-.11l.82-.22A1,1,0,0,0,55.52,23.72Z"/><path class="cls-2" d="M46.3,30.28c-3.77,0-6.69-.52-7-1.12l-.83-3.64"/><path class="cls-2" d="M46.27,30.28c3.82,0,6.78-.49,7.07-1.09l.91-3.84"/><path class="cls-2" d="M45.4,25c-4-.07-7.2-.59-7.2-1.2s3.66-3.4,8.13-3.39,8,2.77,8,3.43-2.68,1-6.26,1.14"/><path class="cls-2" d="M42.91,26a1.1,1.1,0,0,0,.42-.12,1.28,1.28,0,0,0,.69.2,1.38,1.38,0,0,0,.66-.13,1.32,1.32,0,0,0,.65.16,1.6,1.6,0,0,0,.39-.05"/><path class="cls-2" d="M38.83,23a.91.91,0,0,0-.47,0,.9.9,0,0,0-.54.29.86.86,0,0,0-.63.13c-.32.2-.49.52-.38.7,0,0,0,0,0,0l0,.05c-.1.2.15.53.56.75a1.3,1.3,0,0,0,.67.17,1.12,1.12,0,0,0,.66.37,1.29,1.29,0,0,0,.65,0,1.26,1.26,0,0,0,.63.26l.15,0"/><path class="cls-2" d="M53.75,23a1,1,0,0,1,.47,0,.88.88,0,0,1,.54.29.8.8,0,0,1,.62.14c.33.2.5.51.38.7l0,0a.12.12,0,0,1,0,.05c.1.2-.15.53-.56.74a1.21,1.21,0,0,1-.67.16,1.13,1.13,0,0,1-.67.37,1.3,1.3,0,0,1-.65,0,1.36,1.36,0,0,1-.63.25,1.21,1.21,0,0,1-.67,0,1.17,1.17,0,0,1-.65.23,1.2,1.2,0,0,1-.69-.1,1.33,1.33,0,0,1-.68.21,1.19,1.19,0,0,1-.69-.13,1.28,1.28,0,0,1-.69.2,1.33,1.33,0,0,1-.65-.14,1.26,1.26,0,0,1-.66.16,1.36,1.36,0,0,1-.36-.06"/><path class="cls-2" d="M45.73,26.05a1.3,1.3,0,0,0,.55.11,1.33,1.33,0,0,0,.59-.12"/><path class="cls-12" d="M51.25,34c-.25-.61-.65-.61-1.19-.82A13.84,13.84,0,0,1,48,32c-1.46-.87-2.82-2-4.5-2.43a12.82,12.82,0,0,0-5,.28c-.8.14-1.59.3-2.37.51a11.52,11.52,0,0,0-1.14.35l-.56.23-.14.05a.85.85,0,0,0-1.17.23l-.14.19a1,1,0,0,0,.37,1.49,2.07,2.07,0,0,0,.79.09,1.49,1.49,0,0,0,0,.21c.07.58.16,1.15.27,1.73,0,.37,0,.74.07,1.1.07.94.19,1.57,1.1,2a10.47,10.47,0,0,0,2.83.69c1.11.18,2.24.32,3.36.43s2.15.16,3.23.19c.51,0,1,0,1.55,0a3.55,3.55,0,0,0,1.34-.09c.85-.38,1-1.81,1.11-2.6,0-.26.06-.51.08-.77,0-.11,0-.21,0-.32v-.07a4.8,4.8,0,0,0,.51,0l.85-.11A1,1,0,0,0,51.25,34Z"/><path class="cls-2" d="M41.22,39.22c-3.74-.53-6.56-1.45-6.75-2.08l-.32-3.71"/><path class="cls-2" d="M41.19,39.22c3.78.54,6.78.45,7.15-.1l1.43-3.67"/><path class="cls-2" d="M44.68,29.91c3.31,1.13,5.51,3.47,5.43,4s-3.75.67-8.17,0S34,32.29,34.1,31.64s3.61-2.59,7.7-2.31"/><path class="cls-2" d="M34.83,31a1,1,0,0,0-.46-.09.88.88,0,0,0-.58.21.79.79,0,0,0-.63.05c-.35.15-.56.43-.48.64l0,0a.1.1,0,0,0-.05,0c-.13.18.07.55.44.82a1.27,1.27,0,0,0,.64.25,1.15,1.15,0,0,0,.61.47,1.27,1.27,0,0,0,.64.09,1.29,1.29,0,0,0,.59.35,1.21,1.21,0,0,0,.67,0,1.14,1.14,0,0,0,.61.32,1.27,1.27,0,0,0,.7,0,1.32,1.32,0,0,0,.64.31,1.23,1.23,0,0,0,.7,0,1.27,1.27,0,0,0,.66.29,1.18,1.18,0,0,0,.66,0,1.18,1.18,0,0,0,.63.25,1.29,1.29,0,0,0,.39,0"/><path class="cls-2" d="M49.6,33.06a1.11,1.11,0,0,1,.47,0,.91.91,0,0,1,.5.36.83.83,0,0,1,.59.23c.3.24.42.57.28.74l0,0,0,.06c.07.21-.22.5-.66.65a1.2,1.2,0,0,1-.68.07,1.17,1.17,0,0,1-.71.28,1.4,1.4,0,0,1-.65-.09,1.33,1.33,0,0,1-.66.17,1.37,1.37,0,0,1-.66-.15,1.21,1.21,0,0,1-.68.14,1.24,1.24,0,0,1-.67-.2,1.26,1.26,0,0,1-.69.12,1.18,1.18,0,0,1-.67-.23,1.26,1.26,0,0,1-.71.1,1.3,1.3,0,0,1-.63-.22,1.28,1.28,0,0,1-.67.06,1.61,1.61,0,0,1-.35-.1"/><path class="cls-2" d="M41.24,35a1.34,1.34,0,0,0,.53.19,1.41,1.41,0,0,0,.6,0"/><path class="cls-12" d="M62.79,32.85c-.12-.66-.51-.74-1-1.06a15.39,15.39,0,0,1-1.71-1.62,16.74,16.74,0,0,0-4-3.12,12.3,12.3,0,0,0-4.82-1c-.81,0-1.62,0-2.43,0-.4,0-.79,0-1.18.1l-.6.1-.15,0a.86.86,0,0,0-1.19,0l-.18.15a1,1,0,0,0,0,1.54,2,2,0,0,0,.75.25c0,.07-.05.13-.06.21-.05.58-.09,1.16-.11,1.74-.06.37-.11.73-.17,1.1-.14.93-.15,1.57.64,2.19a10.11,10.11,0,0,0,2.62,1.28c1.05.42,2.11.8,3.19,1.15s2.06.62,3.11.87c.5.13.9.57,1.41.68a4.13,4.13,0,0,0,1.43-.13c.91-.19,1.35-1.55,1.64-2.3.09-.24.3-.27.38-.52s.1-.21.13-.31-.17-.26-.16-.28.46.06.51.07l.85.07A1,1,0,0,0,62.79,32.85Z"/><path class="cls-2" d="M51.87,35.79c-3.54-1.33-6.09-2.83-6.15-3.49l.49-3.7"/><path class="cls-2" d="M58.23,37.37a1,1,0,0,0,.61-.16L61,33.94"/><path class="cls-2" d="M51.84,35.78a31.06,31.06,0,0,0,4.79,1.41"/><path class="cls-2" d="M48.78,28.63c-1.48-.78-2.36-1.45-2.23-1.78.23-.62,4.61-1.91,8.79-.34s6.58,5.4,6.35,6-3.81-.15-8-1.72c-.83-.31-1.62-.63-2.36-.95"/><path class="cls-2" d="M50.85,30.84a1.68,1.68,0,0,0,.35.2,1.39,1.39,0,0,0,.66.11,1.27,1.27,0,0,0,.56.37,2,2,0,0,0,.38.1"/><path class="cls-2" d="M47.41,26.33a1.05,1.05,0,0,0-.43-.18.9.9,0,0,0-.61.07.85.85,0,0,0-.63-.09c-.38.08-.64.31-.6.53,0,0,0,0,0,0l-.06,0c-.17.15-.05.55.26.89a1.25,1.25,0,0,0,.56.39,1.16,1.16,0,0,0,.5.59,1.4,1.4,0,0,0,.61.23,1.19,1.19,0,0,0,.5.46,1.25,1.25,0,0,0,.64.19,1.13,1.13,0,0,0,.21.24"/><path class="cls-2" d="M61.38,31.57a.91.91,0,0,1,.45.14.93.93,0,0,1,.41.46.84.84,0,0,1,.53.35c.24.3.28.65.11.79h0a.14.14,0,0,1,0,.06c0,.22-.32.45-.78.5a1.2,1.2,0,0,1-.68-.08,1.15,1.15,0,0,1-.76.12,1.37,1.37,0,0,1-.61-.23,1.26,1.26,0,0,1-.68,0,1.28,1.28,0,0,1-.61-.28,1.25,1.25,0,0,1-.69,0,1.22,1.22,0,0,1-.61-.34,1.25,1.25,0,0,1-.71,0,1.41,1.41,0,0,1-.61-.37,1.28,1.28,0,0,1-.71,0,1.26,1.26,0,0,1-.56-.36,1.3,1.3,0,0,1-.68-.08,1.33,1.33,0,0,1-.31-.18"/><path class="cls-12" d="M54.58,36.4c-.28-.61-.67-.6-1.22-.79a15.39,15.39,0,0,1-2-1.16,16.53,16.53,0,0,0-4.62-2.07,12.41,12.41,0,0,0-4.93.17c-.79.16-1.58.34-2.36.57-.38.11-.76.24-1.12.38l-.56.24-.14.06a.86.86,0,0,0-1.16.26l-.14.2a1,1,0,0,0,.41,1.47,1.85,1.85,0,0,0,.79.07,1.48,1.48,0,0,0,0,.21c.09.58.19,1.15.32,1.72,0,.37.06.74.1,1.11.08.93.23,1.56,1.14,2a10.3,10.3,0,0,0,2.85.62c1.12.15,2.24.26,3.37.34s2.15.1,3.23.1l1.55,0a3.52,3.52,0,0,0,1.34-.13c.84-.4.94-1.83,1-2.63,0-.26.05-.51.06-.77s0-.21,0-.32,0,0,0-.07a4,4,0,0,0,.5-.06l.85-.13A1,1,0,0,0,54.58,36.4Z"/><path class="cls-2" d="M38.24,40.33a.76.76,0,0,1-.36-.36l-.42-3.7"/><path class="cls-2" d="M44.68,41.88A34.57,34.57,0,0,1,41,41.27"/><line class="cls-2" x1="52.7" y1="39.07" x2="53.13" y2="37.88"/><path class="cls-2" d="M44.65,41.88c3.8.44,6.79.27,7.15-.29l.18-.52"/><path class="cls-2" d="M40.1,35.71c-1.71-.41-2.77-.86-2.73-1.23s.84-.91,2.12-1.47"/><path class="cls-2" d="M42.16,32.19A12.29,12.29,0,0,1,45.82,32c4.44.51,7.69,3.66,7.61,4.31s-3.73.76-8.17.25c-.76-.09-1.5-.19-2.2-.3"/><path class="cls-2" d="M38.08,33.78a1,1,0,0,0-.46-.08.88.88,0,0,0-.58.22.86.86,0,0,0-.63.07c-.34.16-.55.45-.46.65l0,0a.12.12,0,0,0,0,.05c-.13.18.08.54.46.8a1.41,1.41,0,0,0,.65.24,1.14,1.14,0,0,0,.62.44,1.29,1.29,0,0,0,.65.08,1.46,1.46,0,0,0,1.26.36,1.29,1.29,0,0,0,.62.31,1.32,1.32,0,0,0,.7,0,1.27,1.27,0,0,0,.65.3,1.3,1.3,0,0,0,.7-.05,1.22,1.22,0,0,0,.66.27,1.3,1.3,0,0,0,.67,0,1.3,1.3,0,0,0,.63.23,1.27,1.27,0,0,0,.39,0"/><path class="cls-2" d="M52.9,35.5a1,1,0,0,1,.47,0,.87.87,0,0,1,.51.35.82.82,0,0,1,.6.2c.3.24.43.57.29.74,0,0,0,0,0,0s0,0,0,.06c.08.2-.2.51-.63.67a1.37,1.37,0,0,1-.69.09,1.14,1.14,0,0,1-.7.29,1.3,1.3,0,0,1-.65-.07,1.29,1.29,0,0,1-.65.18,1.37,1.37,0,0,1-.66-.12,1.32,1.32,0,0,1-.68.15,1.24,1.24,0,0,1-.67-.18,1.43,1.43,0,0,1-1.37-.07,1.17,1.17,0,0,1-.54.12"/><path class="cls-2" d="M44.59,37.61a1.32,1.32,0,0,0,.54.17,1.19,1.19,0,0,0,.59-.05"/><path class="cls-5" d="M47.47,43.26l.13.16a.78.78,0,0,0,.37.22l.27,0h.2a.58.58,0,0,0,.32-.07.59.59,0,0,0,.27-.17.94.94,0,0,0,.24-.58l0-.22a.85.85,0,0,0-.21-.37l-.17-.13a.88.88,0,0,0-.42-.11h-.22l.18,0a.58.58,0,0,0-.32,0,.56.56,0,0,0-.31.09.61.61,0,0,0-.23.22.51.51,0,0,0-.15.28l0,.22a.88.88,0,0,0,.11.42"/><line class="cls-2" x1="18.63" y1="45.24" x2="29.53" y2="41.25"/><path class="cls-5" d="M57.76,95.84a5.38,5.38,0,0,1-.36-.67c-.06-.15-.1-.31-.15-.46a1.29,1.29,0,0,0,.08-.26,1,1,0,0,0-.51-.87,1.24,1.24,0,0,0-.89-.1l-.32.06a4.59,4.59,0,0,1-1,0,.79.79,0,0,0-.49.17l-.22.07c-.35.1-2,.66-2,1,0,.15,1.39.08,1.46.21a.87.87,0,0,0,.51.39l.07,0c.48.21.95.43,1.41.67.21.11.43.22.63.35a.57.57,0,0,0,.13.08l.12.12h0a.89.89,0,0,0,1.17.31A.88.88,0,0,0,57.76,95.84Z"/><path class="cls-5" d="M61.09,125.61A.84.84,0,0,0,60,125l-.2.08a.81.81,0,0,0-.3.31l.07-.1a7.84,7.84,0,0,1-1.35,1.35l-.14.1c-.07,0-.1.13-.16.19s-.39.49-.53.52c-.43.1-.61.2-.48.62a.88.88,0,0,0,1,.6c.5-.11,1-.23,1.49-.36l.29-.07.12,0h0l.2-.08a.85.85,0,0,0,.4-.51.87.87,0,0,0,0-.55.33.33,0,0,0-.06-.1c.21-.23.42-.46.61-.71A.85.85,0,0,0,61.09,125.61Z"/><path class="cls-5" d="M90.94,96.45h0C90.85,96.38,90.88,96.42,90.94,96.45Z"/><path class="cls-5" d="M93.05,96.26a3.46,3.46,0,0,0-.4-.73,2.33,2.33,0,0,1-.17-.26l0-.09h0c.06.12,0,0,0-.06s0,0,0-.06a1.09,1.09,0,0,1,0-.18c0-.13,0-.25,0-.38a1.27,1.27,0,0,0-.56-1.16,1.68,1.68,0,0,0-1.15,0,4,4,0,0,0-.67.2c-.23.08-.46.17-.7.23l-.32.08h-.22c-.44,0-1.8.45-1.78.91s1.31.79,1.78.79a3,3,0,0,0,.67-.07.65.65,0,0,0,.29.3,6.25,6.25,0,0,1,1.06.62l.11.08h0l.24.2a6.25,6.25,0,0,1,.45.44.85.85,0,0,0,1,.14,1,1,0,0,0,.31-.31A.84.84,0,0,0,93.05,96.26Z"/><path class="cls-5" d="M96,125.59a.83.83,0,0,0-.51-.39.89.89,0,0,0-.66.08.91.91,0,0,0-.39.51c0,.08-.05.15-.07.23l-.06.09a1.53,1.53,0,0,1-.18.18l-.47.32h0a1.17,1.17,0,0,0-.78.8l0,.22c-1,.85-1.41.92-1.4,1s1.59-.43,1.73-.32a.79.79,0,0,0,.41.17.8.8,0,0,0,.54-.1l.87-.61a.7.7,0,0,0,.45-.1,1.18,1.18,0,0,0,.43-.43,1.74,1.74,0,0,0,.15-.4,5.59,5.59,0,0,0,.08-.59.56.56,0,0,0,0-.34A.71.71,0,0,0,96,125.59Z"/><path class="cls-5" d="M150.17,95.91a5.45,5.45,0,0,1-.29-.53.56.56,0,0,1,0-.12c0-.1-.07-.2-.1-.3l-.06-.3a.37.37,0,0,0,0-.11,1.27,1.27,0,0,0-.53-1c-.54-.35-1.14-.08-1.69.08l-1.32.41c-.41.12-2.2.26-2.14.68s1.94,1,2.37,1l.36,0a.62.62,0,0,0,.27,0,.69.69,0,0,0,.27.24,9.85,9.85,0,0,1,.89.52l.4.28c-.21-.14,0,0,.08.07l.2.18A.87.87,0,0,0,150,97,.84.84,0,0,0,150.17,95.91Z"/><path class="cls-5" d="M153.11,125.73a.88.88,0,0,0-.51-.39.83.83,0,0,0-.65.09.91.91,0,0,0-.39.51.08.08,0,0,0,0,0,2.77,2.77,0,0,1-.22.37l-.08.09h0a.86.86,0,0,0-.6.25l-.16.17a.87.87,0,0,0-.22.37l0,.23c0,.12-.5,0-.45.11s-.77.69-.72.74,1.44-.22,1.51-.18a.42.42,0,0,0,.18.11.75.75,0,0,0,.33.07,1.19,1.19,0,0,0,.46-.06,1.66,1.66,0,0,0,.31-.12l.11-.06a1.49,1.49,0,0,0,.14-.12h0a.86.86,0,0,0,.38-.22,3.84,3.84,0,0,0,.42-.63,3.55,3.55,0,0,0,.26-.71A.9.9,0,0,0,153.11,125.73Z"/><path class="cls-6" d="M174.53,109.9l28.72-10.83a.23.23,0,0,0,.15-.22V90.57A1.77,1.77,0,0,0,201,88.9l-26.51,9.65-2.92.11a1.86,1.86,0,0,0-1.86,1.86v9.38Z"/><line class="cls-6" x1="174.53" y1="109.9" x2="174.53" y2="105.21"/><path class="cls-2" d="M166.3,46.83c.07.3,8.06,19.26,8.06,19.26L198.86,57,188.71,38.21Z"/><path class="cls-3" d="M198.48,86.3l-20.4,7.09V84.64a6.55,6.55,0,0,1,4.41-6.18l10-3.42a4.55,4.55,0,0,1,6,4.3Z"/><ellipse class="cls-6" cx="178.62" cy="73.98" rx="2.57" ry="3.69"/><ellipse class="cls-6" cx="197.43" cy="68.29" rx="2.57" ry="3.69"/><ellipse class="cls-1" cx="119.87" cy="57.25" rx="2.85" ry="0.4"/><ellipse class="cls-1" cx="119.87" cy="69.58" rx="2.85" ry="0.4"/><polyline class="cls-1" points="122.72 57.25 122.72 69.58 117.01 69.58 117.01 57.25"/><polyline class="cls-2" points="65.66 44.77 18.63 45.3 18.63 77.45 32.85 90.13"/><polyline class="cls-2" points="114.92 90.13 114.92 28.3 98.83 28.57 92.55 44.47 65.66 44.77"/><polyline class="cls-2" points="93.09 43.11 27.03 43.75 30.64 42.43"/><polygon class="cls-13" points="52.26 82.27 40.88 82.27 30.3 51.54 41.68 51.54 52.26 82.27"/><polygon class="cls-13" points="73.35 82.27 61.97 82.27 51.39 51.54 62.77 51.54 73.35 82.27"/><polygon class="cls-13" points="94.79 82.27 83.42 82.27 72.84 51.54 84.21 51.54 94.79 82.27"/><ellipse class="cls-5" cx="92.82" cy="42.73" rx="0.35" ry="0.3"/><ellipse class="cls-5" cx="81.41" cy="42.63" rx="0.97" ry="0.58"/><ellipse class="cls-5" cx="47.03" cy="42.59" rx="0.77" ry="0.72"/><path class="cls-5" d="M30.82,43.25c0,.29-.09.5-.61.5s-1.5-.09-1.5-.39,1-.67,1.5-.67S30.82,43,30.82,43.25Z"/><path class="cls-5" d="M90.56,41.82a1,1,0,0,0-.61-.43h0c-.12,0-.22-.08-.34-.11a1.76,1.76,0,0,0-.61-.06,3.21,3.21,0,0,1-.76,0h.06a.66.66,0,0,0-.34,0,.85.85,0,0,0-.38.12c-.21.12-5.84.85-5.9,1.09s-.14.44,0,.67,5.89,0,6.14.07a3.22,3.22,0,0,0,.82.09l.46,0,.25.08a1.06,1.06,0,0,0,1-.17,1,1,0,0,0,.25-1.32Z"/><path class="cls-14" d="M158,65.11a2.86,2.86,0,0,0-1.23-1,.51.51,0,0,0-.5.1l0,0a.5.5,0,0,0-.54.32.59.59,0,0,0,.07.45,1.58,1.58,0,0,0-.31.09.51.51,0,0,0-.23.68.51.51,0,0,0,.66.24h.05l.25,0a1.52,1.52,0,0,0,.7-.08.89.89,0,0,0,.29-.22l.15.09a.5.5,0,0,0,.66-.08A.53.53,0,0,0,158,65.11Z"/><path class="cls-14" d="M157.32,47.17a1,1,0,0,0-1.36-.46,26.4,26.4,0,0,0-3.58,1.76c-1,.62-2.07.89-3.07,1.45a1,1,0,0,0-.55,1.11,3.9,3.9,0,0,1,.23,1.35,1.11,1.11,0,0,0-.48.76,1.09,1.09,0,0,0-.43,1.28c.35,1,0,2.21.55,3.11s1.24,1.6,1.73,2.52a.87.87,0,0,0,.14.27l.14.2a.86.86,0,0,0,1.26.18h.25a15.51,15.51,0,0,0,2.26-.15c.09,0,.26.07.34,0,.82-.08,1.55-.31,2.37-.4a1,1,0,0,0,.81-1.19c-.66-2,1.14-3.77,1.26-5.74C159.31,51.06,158,49.15,157.32,47.17Z"/><path class="cls-11" d="M156.88,48.91l-.08-.12a.1.1,0,0,0-.05,0l0,0a1.18,1.18,0,0,0-.44-.42,1,1,0,0,0-.58-.19,1.49,1.49,0,0,0-.59.13,1.51,1.51,0,0,0-.67.63,2.52,2.52,0,0,0-.12.29.59.59,0,0,0,.23.68.74.74,0,0,0,.65,0,.53.53,0,0,0,.33,0l.44-.1.34-.11h.13a.54.54,0,0,0,.21,0,.4.4,0,0,0,.15-.14.34.34,0,0,0,.11-.17l0-.14A.43.43,0,0,0,156.88,48.91Z"/><path class="cls-15" d="M162.78,62.12a2.34,2.34,0,0,1-.44-.91c-.11,0-.22-.11-.33-.15a2.76,2.76,0,0,0-.8-.41.5.5,0,0,0-.52.13l-.17-.07a.46.46,0,0,0-.2,0,.49.49,0,0,0-.2,0l-.09.07a.36.36,0,0,0,0-.09.53.53,0,0,0-.68-.23.88.88,0,0,1-1.11-.32.53.53,0,0,0-.68-.23,18.49,18.49,0,0,1-2.56.66.75.75,0,0,0-.21,0c-.53,0-1.06.07-1.58.15a7.85,7.85,0,0,1-1,.16l-.29,0a.7.7,0,0,0-.32,0c-.22,0-.43-.05-.65-.05a.82.82,0,0,0-.68.45,1.35,1.35,0,0,1-.89.57.52.52,0,0,0-.41.46c0,.31-.23.48-.47.65a1.18,1.18,0,0,1-.4.21l-.36,0a.65.65,0,0,0-.39-.1.49.49,0,0,0-.49.09l-.16.16a.42.42,0,0,0-.13.22c-.22.28-.44.56-.67.83a.51.51,0,0,0-.08.38.19.19,0,0,0,0,.08.43.43,0,0,0-.3.13l-.06,0-.09.05a.55.55,0,0,0-.26.28.53.53,0,0,0,0,.33.5.5,0,0,0,.57.34h0c.19,0,.38,0,.57,0s.51,0,.76,0a.55.55,0,0,0,.3-.18l.12,0a16.38,16.38,0,0,0,1.88-.81c.66-.25,1.33-.48,2-.69a22.65,22.65,0,0,1,3.37-.7.47.47,0,0,0,.1.1.73.73,0,0,0,.48.1h-.09a4.16,4.16,0,0,1,.93.06,4.45,4.45,0,0,1,.7.24.49.49,0,0,0,.21.16l.12.05.1.06.24.18.06.06.1.1.08.11,0,0,0,0c.18.29.47,1.31.83,1.24s6-.32,6.1-.31-1.6-3-1.43-3l.06,0C163.13,62.55,163,62.34,162.78,62.12Z"/><path class="cls-12" d="M158.3,44.79a2.71,2.71,0,0,0-1-.42,2,2,0,0,0-.53-.16.61.61,0,0,0-.24,0,6.21,6.21,0,0,0-.47-.78,3.5,3.5,0,0,0-.94-.9c-.34-.22-.7-.41-1-.61a4.07,4.07,0,0,0-1.33-.55h-.19c-.21-.23-.42-.47-.64-.69-.38-.4-.75-.88-1.36-.74s-1.07.35-1.58.53a4.5,4.5,0,0,0-1.44.71,4.79,4.79,0,0,0-1.3,1.38c-.26,0-.46.33-.59.57a12.67,12.67,0,0,0-1.38,2.69,4.93,4.93,0,0,0,0,3,16.89,16.89,0,0,0,.31,2.1.73.73,0,0,0,1.23.36q5.37-2.31,10.63-4.86l0,0a1.29,1.29,0,0,1,1.53.8c.11.35.65.27.57-.11v0a.47.47,0,0,0,.27-.36A2,2,0,0,0,158.3,44.79Z"/><path class="cls-12" d="M147.71,41.16c-.21.18-.4.37-.62.55s-.56.37-.84.57a3.58,3.58,0,0,0-.9,1.11,6.72,6.72,0,0,0-.75,1.52,10.51,10.51,0,0,0-.49,1.72,8.61,8.61,0,0,0-.09,1.83,8.8,8.8,0,0,0,.74,3.07l.08,0,.12-.13a4.87,4.87,0,0,1,.37-.52.72.72,0,0,1,.25-.21,9.21,9.21,0,0,1,3.14-9.32l-.31-.63A3.77,3.77,0,0,0,147.71,41.16Z"/><path class="cls-12" d="M149.72,40.27l-.37,0-.32.16a4.22,4.22,0,0,1-.67.26,43.53,43.53,0,0,1,2.41,5.4l.74-.28C149.54,42.43,149.72,40.27,149.72,40.27Z"/><path class="cls-12" d="M156.64,44.18a8.15,8.15,0,0,0-.55-.76,5.56,5.56,0,0,0-1.24-1.23,5.71,5.71,0,0,0-1.44-.72c-.13,0-.26-.09-.4-.12h-.1l-.18,0h-.09l-.08.26s1.54-.24,3.23,2.7A2.44,2.44,0,0,1,156.64,44.18Z"/><path class="cls-2" d="M158.9,53a4.62,4.62,0,0,1-.07.65c-.57,3-1.43,4.26-.92,6,0,0-2.26,1.37-7.21,1"/><path class="cls-2" d="M157.88,48.27a9.87,9.87,0,0,1,1,4.73"/><path class="cls-2" d="M156.65,46.51a9.75,9.75,0,0,1,1.23,1.76"/><line class="cls-2" x1="156.65" y1="46.51" x2="145.04" y2="51.83"/><path class="cls-2" d="M149.07,50.17s1.11,2.24-.8,3.15"/><path class="cls-2" d="M148.2,57.3a1.49,1.49,0,0,1,1.16,1.39"/><path class="cls-2" d="M145.81,60.12a1.32,1.32,0,0,1-1.45-.91,1.3,1.3,0,0,1,.34-1.33"/><path class="cls-2" d="M148.14,57.32a1.48,1.48,0,0,0-.11-2.53,1.49,1.49,0,0,0,.56-1.46l0-.11"/><path class="cls-2" d="M145.14,51.81a1.57,1.57,0,0,0-1.21,1.81,1.71,1.71,0,0,0,.32.8,1.29,1.29,0,0,0-.92,1.39,1.3,1.3,0,0,0,.63.95h0a1.32,1.32,0,0,0,.81,1.06"/><path class="cls-2" d="M160.73,51.71a1.16,1.16,0,0,0,0-.49,1.4,1.4,0,0,0-1-1.08,1.4,1.4,0,0,0-1.25-2.37,1.48,1.48,0,0,0-.35.13,1,1,0,0,0,0-.39,1.16,1.16,0,0,0-1.35-.92"/><path class="cls-2" d="M144.94,51.85c0-.05,0-.06,0-.12.42-1.69,5.57-6,9.36-7.1s5.55.13,3.88,3.27"/><path class="cls-2" d="M145,51.83C146,50.63,151.48,45.6,156,45c1.64-.21,2.78.13,2.81,1.39"/><path class="cls-2" d="M145,51.73a8.13,8.13,0,0,1,3.34-10.92l2.52-1s1.65.8,4,4.62"/><path class="cls-2" d="M150.89,46.23a26.91,26.91,0,0,0-2.58-5.42"/><path class="cls-2" d="M152.66,41.34c.39,0,2.18.17,4,2.9"/><path class="cls-2" d="M152.58,41.35h.08"/><path class="cls-14" d="M156.7,64.13a4.44,4.44,0,0,0-3.13-.25,27,27,0,0,0-3.66.76,15.31,15.31,0,0,0-1.63.64,10.45,10.45,0,0,1-1.58.68c-.21.05-.22,0-.4-.09a.8.8,0,0,0-.78,0,1.78,1.78,0,0,0-.7,1.53,1,1,0,0,0,.06.31,4.35,4.35,0,0,0,.5,1.75c.26.53.5,1,1.13,1.07a6.87,6.87,0,0,0,3.74-.95,17.24,17.24,0,0,0,3.16-2.18l.2-.17.08,0a3.19,3.19,0,0,0,.73-.65l.54-.47a5.12,5.12,0,0,1,1.63-.73.45.45,0,0,0,.27-.32A.61.61,0,0,0,156.7,64.13Z"/><path class="cls-2" d="M161.49,59.72A1.17,1.17,0,0,0,163,58.4a1.19,1.19,0,0,0-.88-.91,1.19,1.19,0,0,0,.28-1,1.21,1.21,0,0,0-.44-.73,1,1,0,0,0,.58-1.12,1,1,0,0,0-.93-.82,1.19,1.19,0,0,0-.93-2.08"/><path class="cls-2" d="M157.89,59.63a1,1,0,0,0,1.09.88.84.84,0,0,0,.72-.45.91.91,0,0,0,1.05.6.85.85,0,0,0,.53-.33"/><path class="cls-2" d="M162.28,59.76a1.2,1.2,0,0,1,.09,1.17"/><path class="cls-2" d="M146.8,62.43a1.27,1.27,0,0,0,.38.42"/><path class="cls-2" d="M145.62,60.16a1.06,1.06,0,0,0,.82,1.42,1.13,1.13,0,0,0-.47,1.15,1.18,1.18,0,0,0,.48.74"/><path class="cls-2" d="M147.18,62.85a1,1,0,0,0,.3.14,1.15,1.15,0,0,0,1.44-.75,1,1,0,0,0,.05-.37"/><line class="cls-2" x1="146.89" y1="66.02" x2="146" y2="66.58"/><path class="cls-2" d="M153.82,63.79a22.12,22.12,0,0,0-7,2.31"/><path class="cls-2" d="M158.17,65.42a4,4,0,0,0-4.35-1.63"/><path class="cls-2" d="M145.29,66a4.09,4.09,0,0,0-.11,3.4c1.64,3.77,8.82-2,10.38-3.85"/><path class="cls-2" d="M160.75,62.43a21.51,21.51,0,0,1,2,3.66"/><path class="cls-2" d="M145.11,66.21c-.23-.07-.37-.14-.36-.2a4.83,4.83,0,0,1,2.21-.08"/><path class="cls-2" d="M147.08,62.89A15.24,15.24,0,0,0,144.75,66"/><path class="cls-2" d="M161.13,60.48c1.24.45,2.39,2.91,3.83,5"/><path class="cls-2" d="M149.76,60.55a.85.85,0,0,1,.13.31.81.81,0,0,1-.64,1,.88.88,0,0,1-.28,0"/><circle class="cls-2" cx="149.05" cy="59.79" r="1.02"/><path class="cls-5" d="M148.35,50.38l0,.08h0a.62.62,0,0,0-.23.07c-.24.08-.49.16-.73.26a3.55,3.55,0,0,0-.62.38l-.13.07-.09,0a.61.61,0,0,0-.35.19.85.85,0,0,0-.48.15,4.28,4.28,0,0,1-.55.23,1.48,1.48,0,0,0-.29.12,1.88,1.88,0,0,0-.52.45,1.2,1.2,0,0,0-.24.46,1.62,1.62,0,0,0-.07.62,2.26,2.26,0,0,0,.21.84,1.43,1.43,0,0,0-.85.9,1.24,1.24,0,0,0,.25,1.18l.12.12a.76.76,0,0,0,0,.15,1.66,1.66,0,0,0,.4.75,2,2,0,0,0,.5.45,1.38,1.38,0,0,0-.32.5,1.18,1.18,0,0,0,0,.67,1.42,1.42,0,0,0,.81,1,1.26,1.26,0,0,0,.52.08s0,0,0,.08a.71.71,0,0,0,0,.41,1.64,1.64,0,0,0,.28.58,2.18,2.18,0,0,0,.33.35l.23.19a.49.49,0,0,0-.33.31c-.06.23-.13.46-.19.69a.51.51,0,0,0,.25.62.5.5,0,0,0,.65-.17l.12-.2,0-.06.06-.07,0,0a1.81,1.81,0,0,0,.31.09,1.73,1.73,0,0,0,.9-.1,1.13,1.13,0,0,0,.69-.59,1.4,1.4,0,0,0,.05-.41h.1a.8.8,0,0,0,.61-.53,1.51,1.51,0,0,0,.06-.7,1.66,1.66,0,0,0-.06-.21.53.53,0,0,0,.12-.14.78.78,0,0,0,.05-.14h0a.53.53,0,0,0,0-.28l0-.2a1,1,0,0,0-.61-.74,1.31,1.31,0,0,0-.1-.6,1.89,1.89,0,0,0-.81-.82,1.67,1.67,0,0,0,.43-1.58,2,2,0,0,0-.71-1.13l0,0a1.34,1.34,0,0,0,.11-.14,2.21,2.21,0,0,0,.26-.77,1.86,1.86,0,0,0,.05-.34.88.88,0,0,0,0-.17.27.27,0,0,0,0-.09,1.77,1.77,0,0,0,0-.23,1.49,1.49,0,0,0,.74-1.59.28.28,0,0,0,0-.12c0-.18,0-.36,0-.53A.51.51,0,0,0,148.35,50.38Z"/><path class="cls-5" d="M162.37,54.13a.93.93,0,0,0-.51-.21,1,1,0,0,0-.29-.13,1.45,1.45,0,0,0,.21-.22,1.08,1.08,0,0,0,.07-1.17,1.89,1.89,0,0,0-.92-.68l-.24-.07a2.08,2.08,0,0,0-.07-.5,1.24,1.24,0,0,0-.42-.7,3.66,3.66,0,0,0-.42-.26h0l0,0a1.44,1.44,0,0,0,.25-.39,1.5,1.5,0,0,0-.09-1.1,1.6,1.6,0,0,0-.77-.77,1.39,1.39,0,0,0-1,0l0,0a.16.16,0,0,0,0-.21,2.26,2.26,0,0,0-1-1,.16.16,0,0,0-.2,0,.16.16,0,0,0,0,.2,6.29,6.29,0,0,0,.48.67l.45.56a.47.47,0,0,0,0,.47,2.86,2.86,0,0,0,.42.55h0l0,.08c.12.42.25.82.41,1.23h0l0,0a1,1,0,0,0,0,.74,3.33,3.33,0,0,1,.11.53c0,.1,0,.2,0,.3a.49.49,0,0,1,0,.12c0-.15,0,0,0,.06a1.08,1.08,0,0,0,.07.31,1,1,0,0,0,0,.17c0,.11,0,.24,0,.35a4,4,0,0,1-.06.92c0,.08,0,.15-.05.23a1,1,0,0,0-.21.39c-.06.23-.12.47-.19.7s-.18.69-.28,1c0,.06,0,.12,0,.18l0,.15h0a2.25,2.25,0,0,0-.05.22.67.67,0,0,0,.07.4,5.27,5.27,0,0,0-.19.56,4.23,4.23,0,0,0,0,1.28.51.51,0,0,0,.17.34,1,1,0,0,0,.12.44,1,1,0,0,0,.73.57.92.92,0,0,0,.86-.28,1,1,0,0,0,.2.15,1.49,1.49,0,0,0,.89.23.88.88,0,0,0,.41-.17,1.26,1.26,0,0,0,.2.2l.21.13h0l.1.09a.36.36,0,0,0,.18.07.47.47,0,0,0,.33,0,.53.53,0,0,0,.27-.56l0-.23a3.53,3.53,0,0,1,.05-.56,1.1,1.1,0,0,0,.27-.26l0,0a.76.76,0,0,0,.09-.18s0,0,0,0,0-.14,0-.21,0-.15,0-.22,0,0,0-.06a1,1,0,0,0-.1-.27,1.64,1.64,0,0,0-.14-.22l-.07-.09a2,2,0,0,0-.27-.23.91.91,0,0,0-.17-.09s0,0-.06,0a1.17,1.17,0,0,0,.22-.54,3.09,3.09,0,0,0,0-.61,1.49,1.49,0,0,0-.17-.59l0,0,.37-.51A.86.86,0,0,0,162.37,54.13Z"/><path class="cls-2" d="M150.7,60.73a5.32,5.32,0,0,0-1.65-2.88"/><path class="cls-5" d="M149.2,58.39a.51.51,0,0,0,.2,1A.51.51,0,0,0,149.2,58.39Z"/><circle class="cls-16" cx="149.84" cy="60.54" r="0.72"/><path class="cls-2" d="M156.48,50.37a1.49,1.49,0,0,1-.43.24,1.31,1.31,0,1,1,.83-1.66,1.27,1.27,0,0,1,0,.86"/><path class="cls-2" d="M155.6,49.94a2.55,2.55,0,0,1,1.32-.3"/><polyline class="cls-2" points="156.98 48.32 156.8 48.76 157.29 48.88"/><path class="cls-5" d="M156.36,49.76a.45.45,0,0,1,.2-.79.45.45,0,0,1,.53.36.42.42,0,0,1,0,.22"/><path class="cls-2" d="M156.51,53.12a3.44,3.44,0,0,1-3.66-.32"/><path class="cls-14" d="M154.75,49.86a.34.34,0,0,0,.12-.43c-.12-.29-.25-.58-.39-.86a.34.34,0,0,0-.42-.17.35.35,0,0,0-.3,0,.35.35,0,0,0-.12.43c.23.61.46,1.23.7,1.84a.34.34,0,0,0,.41.16.32.32,0,0,0,.22-.38c0-.16-.09-.31-.13-.47A.51.51,0,0,0,154.75,49.86Z"/><path class="cls-17" d="M154.32,48.34l2.07,3.23-1.71.24"/><path class="cls-11" d="M154,49.84a.24.24,0,0,0-.1-.1.39.39,0,0,0-.17-.11s0-.16-.07-.18-.38-.16-.43-.19a1,1,0,0,0-.18-.09h0a1,1,0,0,0-.22,0h-.22a1.4,1.4,0,0,0-.6.32.93.93,0,0,0-.16.18.9.9,0,0,0-.15.19,1.66,1.66,0,0,0-.13.27.75.75,0,0,0-.09.29v.08a.58.58,0,0,0,.05.29.49.49,0,0,0,.14.24l.14.12a.64.64,0,0,0,.26.1.4.4,0,0,0,.19,0,.53.53,0,0,0,.27-.08l.16-.11h0a.57.57,0,0,0,.26-.16h0l.31-.06a5.4,5.4,0,0,0,.57-.18l.11-.08.09-.11a.49.49,0,0,0,.08-.33A.62.62,0,0,0,154,49.84Z"/><path class="cls-2" d="M152.18,51.56a1.35,1.35,0,0,1-.67-.77,1.33,1.33,0,1,1,1.68.84l-.2,0"/><path class="cls-2" d="M152,51.43a4,4,0,0,1,2.09-.81"/><polyline class="cls-2" points="150.88 50.6 151.5 50.74 151.21 51.35"/><path class="cls-5" d="M153.46,50.71a.42.42,0,0,1-.12-.24.45.45,0,0,1,.36-.53.45.45,0,0,1,.53.36.48.48,0,0,1,0,.29"/></g></svg>