<svg xmlns="http://www.w3.org/2000/svg" viewBox="0 0 95.05 78.63"><defs><style>.cls-1{fill:#fff;}.cls-2{fill:#f9b730;}.cls-3{fill:none;}.cls-3,.cls-9{stroke:#1c204d;stroke-linecap:round;stroke-linejoin:round;stroke-width:0.8px;}.cls-4{fill:#1c204d;}.cls-5,.cls-9{fill:#af6e30;}.cls-6{fill:#1f4686;}.cls-7{fill:#f59da0;}.cls-8{fill:#f47951;}</style></defs><g id="Layer_1" data-name="Layer 1"><path class="cls-1" d="M27.57,5.29a8.47,8.47,0,0,0-1.48.31c-.52.16-1,.49-1.47.67a2.28,2.28,0,0,1-1.42-.22,5.48,5.48,0,0,0-1.8-.25,7.28,7.28,0,0,0-3.06.61A5.39,5.39,0,0,0,16.14,9c-.54,1.11-1.28,2.52-.74,3.73.32.75,1.3.52,1.68,0a2.64,2.64,0,0,0,.39-.81,1.07,1.07,0,0,0,0-.25,1.16,1.16,0,0,0,.32,0c2.44-.51,4.88-1,7.35-1.35a7.55,7.55,0,0,0,3.14-.82,2.74,2.74,0,0,0,1.44-2.68A1.88,1.88,0,0,0,27.57,5.29Z"/><path class="cls-2" d="M79,31.09c-.42-.53-.8-.42-1.38-.49A14.42,14.42,0,0,1,75.36,30a16.93,16.93,0,0,0-5-.93,12.54,12.54,0,0,0-4.79,1.35c-.74.35-1.47.72-2.18,1.13-.34.2-.68.41-1,.64l-.48.37-.13.09a.86.86,0,0,0-1.07.53l-.09.23a1,1,0,0,0,.76,1.35,2.12,2.12,0,0,0,.79-.12,1.55,1.55,0,0,0,0,.21c.22.54.46,1.08.72,1.61l.36,1c.31.9.6,1.48,1.6,1.66a10.28,10.28,0,0,0,2.93-.08c1.14-.12,2.27-.28,3.39-.47s2.14-.42,3.19-.67l1.51-.4a3.61,3.61,0,0,0,1.29-.45c.72-.59.48-2,.38-2.82q0-.39-.12-.78c0-.1.2.09.17,0s.05-.16,0-.2c.14,0,.15-.33.19-.35l.8-.33A1,1,0,0,0,79,31.09Z"/><path class="cls-3" d="M70.65,38.83c-3.78.48-6.76.33-7.12-.23l-1.3-3.53"/><path class="cls-3" d="M70.62,38.84c3.82-.48,6.72-1.36,6.93-2l.42-4"/><path class="cls-3" d="M73.05,33c-1,.18-2,.34-3.1.48-4.47.56-8.16.48-8.24-.18s3.23-3.86,7.7-4.42,8.4,1.74,8.48,2.4c0,.3-.7.67-2,1"/><path class="cls-3" d="M62.24,32.48a.86.86,0,0,0-.47,0,.84.84,0,0,0-.51.35.9.9,0,0,0-.61.21c-.3.24-.43.58-.29.75l0,0a.21.21,0,0,0,0,.06c-.08.21.22.51.65.67a1.25,1.25,0,0,0,.69.08,1.14,1.14,0,0,0,.71.29,1.33,1.33,0,0,0,.66-.08,1.33,1.33,0,0,0,.66.18,1.25,1.25,0,0,0,.66-.13,1.26,1.26,0,0,0,.69.15,1.28,1.28,0,0,0,.68-.19,1.2,1.2,0,0,0,.7.13,1.37,1.37,0,0,0,.68-.21,1.34,1.34,0,0,0,.71.11,1.38,1.38,0,0,0,.64-.22,1.29,1.29,0,0,0,.68.08,2.11,2.11,0,0,0,.38-.09"/><path class="cls-3" d="M73.38,34.13a1.15,1.15,0,0,1-.36-.07,1.26,1.26,0,0,1-.67.28,1.3,1.3,0,0,1-.67-.05,1.21,1.21,0,0,1-.64.24,1.42,1.42,0,0,1-.36,0"/><path class="cls-3" d="M77.17,30.61a1,1,0,0,1,.47-.08.88.88,0,0,1,.58.22.86.86,0,0,1,.64.05c.35.16.56.46.46.66,0,0,0,0,0,0l0,.05c.13.18-.08.54-.46.81a1.33,1.33,0,0,1-.65.25,1.15,1.15,0,0,1-.62.45,1.32,1.32,0,0,1-.65.09,1.41,1.41,0,0,1-.6.34,1.34,1.34,0,0,1-.68,0"/><path class="cls-3" d="M69.53,34.67a1.27,1.27,0,0,0,.57,0,1.52,1.52,0,0,0,.58-.19"/><path class="cls-2" d="M59.86,35.67c-.21-.64-.61-.67-1.14-.92a14.44,14.44,0,0,1-1.93-1.38,16.75,16.75,0,0,0-4.42-2.57,12.21,12.21,0,0,0-5-.35c-.81.07-1.63.17-2.43.32-.39.07-.78.16-1.17.26l-.58.18-.15.05a.85.85,0,0,0-1.19.14l-.16.18A1,1,0,0,0,42,33.1a1.94,1.94,0,0,0,.78.16c0,.07,0,.13,0,.21,0,.58.07,1.17.13,1.76,0,.37,0,.74,0,1.11,0,.95.06,1.59.94,2.11a10,10,0,0,0,2.79.91c1.1.28,2.22.51,3.34.71s2.15.33,3.23.44c.52.06,1,.1,1.56.15a3.46,3.46,0,0,0,1.36,0c.88-.31,1.14-1.73,1.32-2.52.06-.25.1-.51.14-.77,0-.11,0-.21,0-.31l0-.08a4.28,4.28,0,0,0,.51,0l.86,0A1,1,0,0,0,59.86,35.67Z"/><path class="cls-3" d="M49.35,40.12c-3.71-.84-6.48-2-6.62-2.64l0-3.76"/><path class="cls-3" d="M49.32,40.11c3.76.85,6.78,1,7.2.47L58.25,37"/><path class="cls-3" d="M58.71,35.5c-.14.64-3.82.37-8.22-.62s-7.84-2.31-7.69-3,4.35-2.54,8.74-1.55S58.86,34.85,58.71,35.5Z"/><path class="cls-3" d="M43.59,31.29a1,1,0,0,0-.46-.13,1,1,0,0,0-.6.16.87.87,0,0,0-.64,0c-.36.12-.6.4-.53.61v0a.1.1,0,0,0,0,0c-.14.17,0,.55.38.85a1.25,1.25,0,0,0,.62.31,1.2,1.2,0,0,0,.58.52,1.24,1.24,0,0,0,.64.14,1.46,1.46,0,0,0,1.23.5,1.33,1.33,0,0,0,.59.37,1.28,1.28,0,0,0,.71,0,1.19,1.19,0,0,0,.61.36,1.25,1.25,0,0,0,.71,0,1.33,1.33,0,0,0,.64.35,1.39,1.39,0,0,0,.67,0,1.29,1.29,0,0,0,.61.3,1.36,1.36,0,0,0,.39,0"/><path class="cls-3" d="M58.27,34.59a.92.92,0,0,1,.47.08.87.87,0,0,1,.47.4.85.85,0,0,1,.58.27c.28.27.37.62.22.78h0l0,.06c.06.22-.26.49-.71.61a1.36,1.36,0,0,1-.69,0,1.23,1.23,0,0,1-.74.21,1.36,1.36,0,0,1-.65-.14,1.22,1.22,0,0,1-.67.12,1.28,1.28,0,0,1-.65-.2,1.23,1.23,0,0,1-.69.08,1.25,1.25,0,0,1-.66-.25,1.49,1.49,0,0,1-1.37-.22,1.27,1.27,0,0,1-.72,0,1.28,1.28,0,0,1-.61-.28,1.32,1.32,0,0,1-.69,0,1.71,1.71,0,0,1-.34-.13"/><path class="cls-3" d="M49.71,35.82a1.33,1.33,0,0,0,.52.23,1.38,1.38,0,0,0,.6,0"/><path class="cls-2" d="M67.94,15.53c-.35-.57-.74-.52-1.31-.65A15,15,0,0,1,64.44,14a17.09,17.09,0,0,0-4.87-1.55,12.51,12.51,0,0,0-4.92.73c-.78.25-1.55.53-2.3.85a10.64,10.64,0,0,0-1.08.51c-.18.09-.35.19-.53.3l-.14.07a.87.87,0,0,0-1.13.4l-.11.21a1,1,0,0,0,.58,1.43,1.78,1.78,0,0,0,.8,0,1.7,1.7,0,0,0,0,.22c.15.56.32,1.13.51,1.68.08.37.15.73.23,1.1.19.93.41,1.54,1.37,1.85a10.25,10.25,0,0,0,2.92.29c1.14,0,2.28,0,3.42,0s2.17-.14,3.25-.27c.52-.06,1-.12,1.55-.2a3.48,3.48,0,0,0,1.33-.28c.79-.5.74-1.94.74-2.75,0-.26,0-.52,0-.79l0-.31a.19.19,0,0,0,0-.08,4.71,4.71,0,0,0,.51-.11l.83-.23A1,1,0,0,0,67.94,15.53Z"/><path class="cls-3" d="M58.64,22.15c-3.8,0-6.75-.53-7-1.13l-.84-3.67"/><path class="cls-3" d="M58.61,22.15c3.86,0,6.84-.5,7.13-1.1l.92-3.87"/><path class="cls-3" d="M57.73,16.78c-4.08-.07-7.26-.59-7.26-1.2s3.69-3.43,8.2-3.42,8.11,2.79,8.11,3.45-2.7,1-6.32,1.16"/><path class="cls-3" d="M55.22,17.82a1,1,0,0,0,.43-.12,1.28,1.28,0,0,0,.69.2,1.25,1.25,0,0,0,.66-.13,1.3,1.3,0,0,0,.67.16,2.34,2.34,0,0,0,.39,0"/><path class="cls-3" d="M51.1,14.78a1,1,0,0,0-.47,0,.94.94,0,0,0-.55.29.84.84,0,0,0-.62.13c-.33.2-.5.52-.39.71l0,0A.12.12,0,0,0,49,16c-.1.2.15.54.56.75a1.25,1.25,0,0,0,.67.17,1.18,1.18,0,0,0,.68.38,1.33,1.33,0,0,0,.66,0,1.32,1.32,0,0,0,.63.27h.15"/><path class="cls-3" d="M66.16,14.82a1,1,0,0,1,.47,0,.89.89,0,0,1,.55.29.8.8,0,0,1,.62.14c.33.2.5.52.38.71h0l0,.06c.1.2-.15.53-.56.74a1.25,1.25,0,0,1-.67.17,1.19,1.19,0,0,1-.68.37,1.22,1.22,0,0,1-.66,0,1.4,1.4,0,0,1-1.31.21,1.17,1.17,0,0,1-.66.23,1.2,1.2,0,0,1-.69-.1,1.37,1.37,0,0,1-.68.22,1.26,1.26,0,0,1-.7-.14,1.24,1.24,0,0,1-.7.2,1.3,1.3,0,0,1-.66-.13,1.24,1.24,0,0,1-.66.15,1.3,1.3,0,0,1-.36-.05"/><path class="cls-3" d="M58.07,17.88a1.16,1.16,0,0,0,.55.11,1.4,1.4,0,0,0,.6-.11"/><path class="cls-2" d="M63.64,25.91c-.26-.62-.66-.62-1.21-.83a16.91,16.91,0,0,1-2-1.22c-1.47-.88-2.84-2.05-4.53-2.45a12.64,12.64,0,0,0-5,.28,24.37,24.37,0,0,0-2.4.51c-.38.11-.77.22-1.14.35l-.57.23-.14.06a.87.87,0,0,0-1.18.23l-.14.19a1,1,0,0,0,.37,1.5,1.92,1.92,0,0,0,.8.09,1.64,1.64,0,0,0,0,.22q.1.87.27,1.74c0,.37,0,.74.07,1.12.07.94.19,1.57,1.11,2a10.33,10.33,0,0,0,2.85.69c1.13.18,2.26.33,3.39.43s2.17.17,3.26.2h1.56a3.46,3.46,0,0,0,1.36-.1c.85-.38,1-1.81,1.11-2.61,0-.26.07-.52.09-.79,0-.1,0-.21,0-.31a.25.25,0,0,0,0-.08,3.08,3.08,0,0,0,.51,0l.86-.11A1,1,0,0,0,63.64,25.91Z"/><path class="cls-3" d="M53.52,31.17c-3.77-.53-6.62-1.46-6.81-2.1l-.33-3.75"/><path class="cls-3" d="M53.48,31.17c3.82.54,6.85.45,7.22-.1l1.44-3.71"/><path class="cls-3" d="M57,21.78c3.33,1.13,5.55,3.5,5.47,4s-3.78.67-8.24,0-8-1.68-7.9-2.34S50,20.91,54.1,21.19"/><path class="cls-3" d="M47.07,22.83a.92.92,0,0,0-.46-.09A.86.86,0,0,0,46,23a.85.85,0,0,0-.64,0c-.36.16-.57.45-.48.65,0,0,0,0,0,0a.12.12,0,0,0-.05.05c-.13.18.07.55.45.82a1.29,1.29,0,0,0,.64.26,1.13,1.13,0,0,0,.61.46,1.27,1.27,0,0,0,.66.1,1.19,1.19,0,0,0,.59.35,1.33,1.33,0,0,0,.67.05,1.39,1.39,0,0,0,.62.32,1.41,1.41,0,0,0,.71,0,1.28,1.28,0,0,0,.64.31,1.36,1.36,0,0,0,.71,0,1.27,1.27,0,0,0,.66.29,1.21,1.21,0,0,0,.67,0,1.21,1.21,0,0,0,.64.25,1.28,1.28,0,0,0,.39,0"/><path class="cls-3" d="M62,25a1,1,0,0,1,.48.05.88.88,0,0,1,.5.36.85.85,0,0,1,.6.23c.29.24.42.58.28.75l0,0a.09.09,0,0,1,0,.05c.08.22-.22.51-.66.67a1.33,1.33,0,0,1-.69.07,1.12,1.12,0,0,1-.72.27,1.3,1.3,0,0,1-.65-.09,1.48,1.48,0,0,1-1.32,0,1.27,1.27,0,0,1-.69.13,1.37,1.37,0,0,1-.68-.19,1.22,1.22,0,0,1-.7.11,1.29,1.29,0,0,1-.67-.22,1.45,1.45,0,0,1-1.35-.13,1.32,1.32,0,0,1-.68.06,1.61,1.61,0,0,1-.35-.1"/><path class="cls-3" d="M53.54,26.86a1.25,1.25,0,0,0,.53.19,1.47,1.47,0,0,0,.61,0"/><path class="cls-2" d="M75.28,24.74c-.13-.66-.52-.75-1-1.07A14.78,14.78,0,0,1,72.55,22a17,17,0,0,0-4-3.15,12.33,12.33,0,0,0-4.87-1c-.82,0-1.63-.05-2.45,0A11.69,11.69,0,0,0,60,18c-.2,0-.4.06-.6.1l-.16,0a.86.86,0,0,0-1.19,0l-.19.16a1,1,0,0,0,0,1.55,2.24,2.24,0,0,0,.75.26c0,.07,0,.13-.06.2,0,.58-.09,1.17-.11,1.76-.06.37-.11.74-.17,1.11A2,2,0,0,0,59,25.29a10.21,10.21,0,0,0,2.63,1.29c1.06.42,2.14.81,3.22,1.15s2.08.63,3.14.89c.5.13.91.57,1.42.68a4.25,4.25,0,0,0,1.45-.13c.91-.19,1.36-1.56,1.65-2.32.09-.24.31-.27.38-.52,0-.1.1-.22.13-.32s-.16-.25-.15-.28a4.62,4.62,0,0,0,.51.07l.86.08A1,1,0,0,0,75.28,24.74Z"/><path class="cls-3" d="M64.26,27.71c-3.57-1.34-6.14-2.86-6.2-3.52l.49-3.73"/><path class="cls-3" d="M70.68,29.3a1,1,0,0,0,.61-.16l2.21-3.3"/><path class="cls-3" d="M64.23,27.69a31.94,31.94,0,0,0,4.83,1.44"/><path class="cls-3" d="M61.14,20.49c-1.49-.8-2.37-1.47-2.25-1.8.23-.62,4.66-1.92,8.87-.34s6.64,5.44,6.4,6.06-3.84-.16-8-1.74c-.84-.31-1.64-.63-2.39-1"/><path class="cls-3" d="M63.23,22.72a2.3,2.3,0,0,0,.35.2,1.3,1.3,0,0,0,.67.1,1.29,1.29,0,0,0,.56.39,2.07,2.07,0,0,0,.38.09"/><path class="cls-3" d="M59.76,18.17a.94.94,0,0,0-.44-.19.91.91,0,0,0-.61.08.85.85,0,0,0-.63-.09c-.38.07-.65.31-.61.53,0,0,0,0,0,0l-.06,0c-.17.15-.05.56.26.9a1.19,1.19,0,0,0,.57.39,1.16,1.16,0,0,0,.5.59,1.52,1.52,0,0,0,.62.24,1.49,1.49,0,0,0,1.15.65.75.75,0,0,0,.21.24"/><path class="cls-3" d="M73.85,23.45a1.13,1.13,0,0,1,.46.15.89.89,0,0,1,.41.46.84.84,0,0,1,.54.35c.23.3.28.66.1.79,0,0,0,0,0,0l0,.07c0,.22-.33.45-.79.5a1.22,1.22,0,0,1-.69-.08,1.15,1.15,0,0,1-.76.12,1.26,1.26,0,0,1-.62-.23,1.3,1.3,0,0,1-.69,0,1.28,1.28,0,0,1-.61-.28,1.28,1.28,0,0,1-.7,0,1.44,1.44,0,0,1-.62-.34,1.37,1.37,0,0,1-.71,0,1.25,1.25,0,0,1-.61-.37,1.23,1.23,0,0,1-.72-.05,1.37,1.37,0,0,1-.57-.36,1.31,1.31,0,0,1-.68-.08,1.4,1.4,0,0,1-.32-.18"/><path class="cls-2" d="M67,28.32c-.28-.61-.68-.6-1.22-.8a14.13,14.13,0,0,1-2.08-1.16A16.69,16.69,0,0,0,59,24.27a12.25,12.25,0,0,0-5,.17c-.8.16-1.6.35-2.38.58a11.53,11.53,0,0,0-1.13.38c-.19.07-.38.16-.56.24l-.15.06a.85.85,0,0,0-1.16.26l-.14.2A1,1,0,0,0,49,27.65a1.88,1.88,0,0,0,.8.07.74.74,0,0,0,0,.21c.08.58.19,1.16.31,1.74,0,.37.07.74.11,1.11.08.95.23,1.58,1.15,2a10.43,10.43,0,0,0,2.87.61c1.13.16,2.27.27,3.41.35s2.17.11,3.25.1c.52,0,1,0,1.57,0a3.61,3.61,0,0,0,1.35-.13c.84-.41.95-1.85,1.05-2.65q0-.39.06-.78c0-.11,0-.21,0-.32v-.08a2.9,2.9,0,0,0,.51-.05l.86-.13A1,1,0,0,0,67,28.32Z"/><path class="cls-3" d="M50.51,32.29a.86.86,0,0,1-.36-.36l-.42-3.74"/><path class="cls-3" d="M57,33.85a35.27,35.27,0,0,1-3.71-.62"/><line class="cls-3" x1="65.1" y1="31.02" x2="65.54" y2="29.82"/><path class="cls-3" d="M57,33.85c3.83.44,6.85.27,7.2-.29l.19-.52"/><path class="cls-3" d="M52.38,27.63c-1.72-.42-2.79-.87-2.75-1.24s.85-.92,2.15-1.48"/><path class="cls-3" d="M54.47,24.08a12.12,12.12,0,0,1,3.69-.16c4.48.52,7.75,3.69,7.67,4.35s-3.76.77-8.23.25c-.78-.09-1.52-.19-2.23-.3"/><path class="cls-3" d="M50.35,25.68a1,1,0,0,0-.47-.08.83.83,0,0,0-.57.22.88.88,0,0,0-.64.07c-.35.16-.56.46-.46.66a0,0,0,0,1,0,0l0,0c-.13.19.09.55.47.81a1.33,1.33,0,0,0,.65.25,1.2,1.2,0,0,0,.62.45,1.47,1.47,0,0,0,.66.08,1.26,1.26,0,0,0,.6.33,1.3,1.3,0,0,0,.67,0,1.24,1.24,0,0,0,.63.3,1.27,1.27,0,0,0,.71,0,1.27,1.27,0,0,0,.65.3,1.33,1.33,0,0,0,.71-.05,1.3,1.3,0,0,0,.66.28,1.38,1.38,0,0,0,.67-.06,1.38,1.38,0,0,0,.65.23,1.27,1.27,0,0,0,.39,0"/><path class="cls-3" d="M65.3,27.41a1.11,1.11,0,0,1,.47,0,.84.84,0,0,1,.51.35.84.84,0,0,1,.61.2c.3.24.44.58.3.75l0,0a.1.1,0,0,1,0,.05c.08.21-.21.52-.64.68a1.27,1.27,0,0,1-.69.09,1.2,1.2,0,0,1-.71.3,1.35,1.35,0,0,1-.66-.08,1.23,1.23,0,0,1-.66.19,1.27,1.27,0,0,1-.66-.13,1.35,1.35,0,0,1-.69.16,1.41,1.41,0,0,1-.68-.18,1.27,1.27,0,0,1-.7.13,1.19,1.19,0,0,1-.68-.21,1,1,0,0,1-.54.13"/><path class="cls-3" d="M56.92,29.54a1.14,1.14,0,0,0,.54.17,1.39,1.39,0,0,0,.6,0"/><path class="cls-4" d="M60.82,34.55a1,1,0,0,0-.25-.44L60.38,34a1,1,0,0,0-.5-.13h-.26l.21,0a.81.81,0,0,0-.38,0,.66.66,0,0,0-.36.11.76.76,0,0,0-.28.25.84.84,0,0,0-.17.34l0,.26a1,1,0,0,0,.14.49l.15.2a1,1,0,0,0,.43.25l.33,0h.23a.71.71,0,0,0,.38-.08,1,1,0,0,0,.52-.52.81.81,0,0,0,.08-.38Z"/><path class="cls-5" d="M79.25,47.6l.08.11.41-11.27L71.29,36l-40.7-2.59-.72,11.31L49.56,46l0,0L19.46,44l-.18,1.06L48.61,47A11.42,11.42,0,0,0,47,51.29a2,2,0,0,0-.09.56.92.92,0,0,0,.11.51,6.22,6.22,0,0,0-.11.88,1.18,1.18,0,0,0,0,.34.56.56,0,0,0-.11.4l0,.2h0A13.22,13.22,0,0,0,48.9,60a8.14,8.14,0,0,0,4.87,3.38,12.38,12.38,0,0,0,3.27.23A9.54,9.54,0,0,0,60.35,63a9.34,9.34,0,0,0,4.31-3.91c1.27-2.16,1.42-4.56,1.42-7a.67.67,0,0,0-.19-.5,7.79,7.79,0,0,0-.81-3,6.08,6.08,0,0,0-.34-.6l14.91,1,.09-1-.7,0A.79.79,0,0,0,79.25,47.6ZM48.44,54.79a.67.67,0,0,0,.07-.31h0c.14.82.3,1.64.52,2.44a5.76,5.76,0,0,0,.18.59A12.85,12.85,0,0,1,48.44,54.79Zm13.09-6.61a7.14,7.14,0,0,1,1,1.84A6.25,6.25,0,0,1,63,52.11c0,.22,0,.45.06.68-1.72,0-3.44.07-5.16.13L58,52.8c1.19-1.58,2.3-3.21,3.42-4.85A.89.89,0,0,0,61.53,48.18Zm-4,10.87c0-.72.08-1.43.05-2.15a.37.37,0,0,1,0-.11.41.41,0,0,1,.05.09,15.6,15.6,0,0,0,1,1.34,13.28,13.28,0,0,1,.84,1.1,2.59,2.59,0,0,0,.72.82c-.37.34-.75.67-1.14,1a3.48,3.48,0,0,1-1.42.49,3.71,3.71,0,0,0,0-.47C57.61,60.44,57.51,59.75,57.51,59.05Zm.11-10.71a4.08,4.08,0,0,0,0-.78l1.62.1-.07.07a21,21,0,0,0-1.57,2.05,1.93,1.93,0,0,0,0-.24A6,6,0,0,1,57.62,48.34ZM63,54.21c-.2.78-.45,1.55-.68,2.32a.67.67,0,0,0,0,.51,6.84,6.84,0,0,0-.8,1.36,2.07,2.07,0,0,1-.15.25c-.57-.85-1.19-1.69-1.78-2.53a20.79,20.79,0,0,0-1.93-2.45c1.79-.06,3.58-.16,5.38-.13A3.72,3.72,0,0,1,63,54.21ZM50.09,51.6a8.5,8.5,0,0,1,.71-2.35,1.26,1.26,0,0,0,.11-.55l.09-.14.37-.65C52,48.6,52.46,49.25,53,50c.7,1,1.39,1.93,2.15,2.85l.08.08c-1.76,0-3.51-.06-5.27-.13C50,52.42,50,52,50.09,51.6Zm3.19-4.32,2.07.13a3.08,3.08,0,0,0-.06.75V50l-.75-1C54.13,48.36,53.72,47.81,53.28,47.28Zm2.07,14.83v0l-.16,0a.74.74,0,0,0-.54-.67l-.36-.14a5.87,5.87,0,0,1-1.16-.68,3.9,3.9,0,0,1-.38-.33,2.11,2.11,0,0,0,.19-.23c.29-.44.65-.82,1-1.28s.58-1,.87-1.42c.19-.3.39-.59.59-.89,0,.58-.09,1.16-.12,1.74A33.87,33.87,0,0,0,55.35,62.11Zm.32-8.36a.73.73,0,0,0-.3.5.6.6,0,0,0-.51,0l-.42.16a.79.79,0,0,0-.54.85c-.13.16-.26.32-.38.49-.29.43-.55.88-.82,1.32-.4.64-.82,1.27-1.26,1.87-.15-.3-.32-.6-.45-.91a11.15,11.15,0,0,1-.49-1.48,28.88,28.88,0,0,1-.6-2.88s0,0,0-.06c1.92.07,3.84.14,5.77.13Zm-3.35-7.59,0,0h0l7.72.5h0ZM63.85,57.39a.81.81,0,0,0-.11-.41s0,0,0,0c.25-.86.58-1.73.75-2.61l0-.21A10,10,0,0,1,63.85,57.39Zm.72-4.13c0-.38-.06-.77-.1-1.15a.58.58,0,0,0,.11.15C64.58,52.6,64.58,52.93,64.57,53.26Zm-2.78-6.49h0l8.3.54h0Z"/><path class="cls-5" d="M50.8,47.16c-.41-.22-.68.26-.84.56a16.76,16.76,0,0,0-.81,2.07c-.06.16-.12.32-.17.48a.4.4,0,0,0-.18.22,7.34,7.34,0,0,0-.2,1s0,.1,0,.16a5.58,5.58,0,0,0-.09.59h0s0,.07,0,.1a.31.31,0,0,0,.23.34.33.33,0,0,0,.13.07,3.66,3.66,0,0,0,.74,0,.33.33,0,0,0,.15,0h0l.09,0a.23.23,0,0,0,.07-.07.16.16,0,0,0,0-.09s0,0,0-.07h0a.17.17,0,0,0,0-.1.22.22,0,0,0,.05-.08,6.22,6.22,0,0,0,.21-1.06,7.8,7.8,0,0,1,.29-1.08,10.23,10.23,0,0,1,.42-1.09c.07-.17.15-.33.22-.5a1.52,1.52,0,0,0,.21-.57A1,1,0,0,0,50.8,47.16Z"/><path class="cls-5" d="M55.24,50.34a1,1,0,0,0-.21-.72,10.23,10.23,0,0,1-.88-1.09.17.17,0,0,0,0-.23,3,3,0,0,1-.33-.38c-.1-.13-.18-.29-.29-.42a.43.43,0,0,0-.2-.15.75.75,0,0,0-.3,0h-.59c-.15,0-.26.22-.13.32l.35.28h0a2.12,2.12,0,0,0,.38.63l.5.67c.33.48.65,1,.93,1.48a.3.3,0,0,0,.28.18,4.07,4.07,0,0,1,.18.44c.07.19.39.17.37,0Z"/><path class="cls-5" d="M57.45,49.06a5.06,5.06,0,0,0,0-.87.53.53,0,0,1,0-.13s0,0,0,0a.34.34,0,0,0,0-.14.38.38,0,0,0,0-.15.44.44,0,0,0-.17-.23l-.09,0a.34.34,0,0,0-.2,0l-.11,0,0,0-.36,0a.38.38,0,0,0-.32.57.88.88,0,0,1,0,.47l0,.71-.06,1.39a.4.4,0,0,0,.08.23h0l-.1.33a.2.2,0,0,0,.11.22.18.18,0,0,0,.23-.08l.18-.36a.42.42,0,0,0,.21-.16,1.51,1.51,0,0,0,.23-.52v0l.29-.4a.2.2,0,0,0,0-.21l0-.08a.35.35,0,0,0-.07-.33A.68.68,0,0,0,57.45,49.06Z"/><path class="cls-5" d="M60.63,47.74l0,0-.09,0a.43.43,0,0,0-.38.09,4.79,4.79,0,0,0-.49.52,8.38,8.38,0,0,0-.92,1.23c-.52.8-1,1.62-1.53,2.43a.4.4,0,0,0-.2.48.34.34,0,0,0,.27.32,1.19,1.19,0,0,0,.42,0,.38.38,0,0,0,.33-.25.25.25,0,0,0,.13-.12,10.44,10.44,0,0,1,1.44-2.06c.26-.33.51-.68.74-1a5.81,5.81,0,0,1,.77-1C61.38,48,61,47.49,60.63,47.74Z"/><path class="cls-5" d="M61.05,58.21l-.66-.91L59,55.39a.37.37,0,0,0-.13-.12.39.39,0,0,0-.1-.19.6.6,0,0,1-.08-.08l0,0h0l-.13-.2c-.09-.13-.16-.27-.24-.41a2.71,2.71,0,0,0-.3-.45.72.72,0,0,0-.7-.26.34.34,0,0,0-.26.27L57,54a.33.33,0,0,0-.11.26.4.4,0,0,0,.11.27c.18.19.36.4.53.61a.25.25,0,0,0,.12.08h0c.12.24.27.46.41.69.25.39.51.78.77,1.17l.79,1.18c.12.19.24.37.37.55a2.4,2.4,0,0,1,.3.41.38.38,0,0,0,.68.09,1.94,1.94,0,0,0,.31-.51A.67.67,0,0,0,61.05,58.21Z"/><path class="cls-6" d="M58.65,55c0-.07,0,0,0,0Z"/><path class="cls-5" d="M57.48,57.16a1,1,0,0,0-.1-.65c-.12-.19-.29-.35-.4-.56a2.64,2.64,0,0,1-.25-.66c-.1-.4-.77-.33-.74.1.15,1.91,0,3.82,0,5.72a.39.39,0,0,0,.11.25l0,.14a.38.38,0,0,0,.37.47,4.57,4.57,0,0,0,.74-.12.4.4,0,0,0,.28-.37c0-1.15,0-2.3,0-3.46C57.46,57.73,57.47,57.44,57.48,57.16Z"/><path class="cls-5" d="M54.66,55.25a19.14,19.14,0,0,1-1.33,2c-.49.73-.95,1.47-1.42,2.21a.08.08,0,0,0,0,0l-.08,0a.22.22,0,0,0-.09.1.39.39,0,0,0,0,.14.26.26,0,0,0,0,.15.44.44,0,0,0,.17.23l.09,0h.2a1,1,0,0,1,.35,0h0a.16.16,0,0,0-.07.07l-.63-.07a.19.19,0,0,0-.14.34c.31.19.63.36,1,.52a4.8,4.8,0,0,0,.48.3l.51.26a.83.83,0,0,0,.57.11l.05,0,0,0a5.18,5.18,0,0,0,.65.26c.22.07.3-.23.15-.35a2,2,0,0,0-.67-.27,8.39,8.39,0,0,1-1.4-.91.19.19,0,0,0-.12-.17l-.23-.09a.33.33,0,0,0,.13,0,.39.39,0,0,0,.17-.23s0,0,0-.06l.06-.06c.45-.71.9-1.41,1.38-2.09.23-.34.49-.66.73-1a1,1,0,0,0,.12-.6,1.92,1.92,0,0,1,.09-.59C55.46,55.13,54.85,54.85,54.66,55.25Z"/><path class="cls-5" d="M51.32,58.44c0-.09-.09-.17-.14-.26l-.48-.82a.49.49,0,0,0,0-.12,13.15,13.15,0,0,1-.38-1.53,6.2,6.2,0,0,1-.18-1.55.37.37,0,0,0-.37-.37c-.34,0-.67,0-1-.08a.38.38,0,0,0-.37.38,9.67,9.67,0,0,0,1.32,4.07,3.07,3.07,0,0,0,.17.31.34.34,0,0,0,.2.16c0,.12,0,.25.06.36a.55.55,0,0,0,.53.45.39.39,0,0,0,.32-.19l.12-.2,0,0,0,0,0,0,0-.05A.46.46,0,0,0,51.32,58.44Z"/><path class="cls-5" d="M65.53,49.74a.57.57,0,0,0-.13-.21c-.08-.32-.17-.64-.25-1a.54.54,0,0,0-.17-.26l0-.06a.37.37,0,0,0-.22-.17,4.71,4.71,0,0,0-.92-.1.38.38,0,0,0-.26.64l0,.06.09.12a.28.28,0,0,0,.09.1.58.58,0,0,0,0,.36,9.75,9.75,0,0,1,.68,3.7,13.91,13.91,0,0,1-.4,3.75.49.49,0,0,0,0,.17l0,0a.57.57,0,0,0-.25.62A9,9,0,0,1,61.72,61a.5.5,0,0,0-.13.25,7.08,7.08,0,0,0-.79.66l-.23.21c-.25.11-.51.19-.76.29a9.14,9.14,0,0,1-1.66.82c-.24.06-.14.41.1.37A5.32,5.32,0,0,0,60.19,63h0a.16.16,0,0,0,.13,0l1-.55A7.24,7.24,0,0,0,62,62a.55.55,0,0,0,.5-.15A10.83,10.83,0,0,0,64.2,59.5a.32.32,0,0,0,.32-.18.2.2,0,0,0,0-.08.45.45,0,0,0,.12-.21,19,19,0,0,0,.89-1.88.31.31,0,0,0,0-.29,3.72,3.72,0,0,0,.2-.62,10.86,10.86,0,0,0,.32-2.12A10.33,10.33,0,0,0,65.53,49.74Z"/><path class="cls-5" d="M79.19,47.86h.1l.31-11.42L71.48,36l-.59,11.38.64,0a.58.58,0,0,0-.28.1l-.39-.07a.71.71,0,0,0-.29,0,.41.41,0,0,0-.29.28,1.37,1.37,0,0,0,0,.35.38.38,0,0,0,.33.37.4.4,0,0,0,.24,0A.4.4,0,0,0,71,48.2h.1a.49.49,0,0,0,.49.29,14.28,14.28,0,0,1,1.85,0c.63.06,1.25.19,1.88.24,1.28.11,2.57.15,3.85.23C79.84,49,79.86,48,79.19,47.86Zm-4-.25,3.41.21c-1.09-.06-2.17-.11-3.26-.2Z"/><path class="cls-7" d="M44.28,25a.58.58,0,0,0-.4-.17,4.87,4.87,0,0,0-1.08.08.62.62,0,0,0-.52-.21,18.11,18.11,0,0,1-2.21,0c-.77,0-1.54,0-2.3.08a4.55,4.55,0,0,0-2.15.52c-.67.4-1.28.94-1.13,1.78,0,0,0,0,0,.08a.65.65,0,0,1,0,.13.34.34,0,0,1,0,.14c0-.08,0-.09,0,0l0,.06a2.56,2.56,0,0,0-.11.24,4.54,4.54,0,0,0-.24.61l0,.12h0a.72.72,0,0,0-.45.35,1,1,0,0,0-.12.41,1.09,1.09,0,0,0,0,.26,1.83,1.83,0,0,0,.14.32l.17.33.35.68a.62.62,0,0,0,.24.24c.13.37.26.74.36,1.11a.38.38,0,0,0,.74-.1,10.08,10.08,0,0,1,.14-1.82c.09-.62.19-1.23.28-1.84a1.51,1.51,0,0,0,.26.18,4.77,4.77,0,0,0,.55.29A.33.33,0,0,0,37,29h0l.25.12.09,0-.08,0a3.69,3.69,0,0,0-.43.53.41.41,0,0,0,0,.19.32.32,0,0,0,0,.14.36.36,0,0,0,.08.12.37.37,0,0,0,.17.1h.12a.41.41,0,0,0,.36-.21.29.29,0,0,0,0-.1,2.73,2.73,0,0,1,.23-.25.24.24,0,0,0,.07-.12.21.21,0,0,0,0-.13,3.42,3.42,0,0,0,.4.26.92.92,0,0,0,.91,0,.83.83,0,0,0,.32-.38h.09a1.5,1.5,0,0,0,.55-.15l.08,0,.17-.05h.18a.57.57,0,0,0,.69-.4A.57.57,0,0,0,40.9,28a2.09,2.09,0,0,0-.61,0s0,0,0-.05a1.24,1.24,0,0,0,0-.54,1.55,1.55,0,0,0-.39-.75l-.08-.07.17-.07a.73.73,0,0,1,.21-.06,1.69,1.69,0,0,0,.36-.12.33.33,0,0,0,.13-.11,10.66,10.66,0,0,0,1.6,0,.93.93,0,0,0,.46-.18A.57.57,0,0,0,43,26l.19,0c.23,0,.46,0,.69,0a.63.63,0,0,0,.4-.17.58.58,0,0,0,.16-.4A.57.57,0,0,0,44.28,25Z"/><path class="cls-7" d="M31,14a.81.81,0,0,0-.79-.18.24.24,0,0,1,0-.08c-.12-.44-.31-.78-.8-.86a.93.93,0,0,1-.47-.4l0,0A3.44,3.44,0,0,0,26.58,10a.76.76,0,0,0-.5,0,.81.81,0,0,0-.82-.3l-.11,0a.65.65,0,0,0-.51.57,11.25,11.25,0,0,0-1.16,0,9.24,9.24,0,0,0-2.51.43,2.45,2.45,0,0,0-1.45,1.75c-.11.42-.21.83-.31,1.24a.61.61,0,0,0-.38.4,6.6,6.6,0,0,0-1.22,1.08,10,10,0,0,0-.66.8l-.16.22a1,1,0,0,0-.23-.13,2.6,2.6,0,0,0-1.08-.29c-.9,0-1.33.94-1.34,1.72v0a.87.87,0,0,0-.05.51c.08.34.17.69.28,1,.05.16.11.32.17.48a4,4,0,0,0,.25.6,1.33,1.33,0,0,0,1.27.55l.27-.05,0,0,0,0c.05.07.1.15.16.22l0,.05s.05.09.07.13a.55.55,0,0,0,.13.17l.06.09c.2.32.38.65.56,1,.32.59.62,1.18,1,1.75a.52.52,0,0,1,0,.17.75.75,0,0,0,.47.69.63.63,0,0,0,.26,0,.23.23,0,0,1,.07.07l.22.22a6.31,6.31,0,0,0,.61.55,12.58,12.58,0,0,0,1.36.82c1,.56,2,1.63,3.08,2.13.42.2,1-.5,1.09-1s.18-.77.26-1.16a5.08,5.08,0,0,1,.2-.94.93.93,0,0,0,.28-.39,8.11,8.11,0,0,1,.88-1.61c.37-.55.85-1,1.26-1.5a10.65,10.65,0,0,0,1.66-3.58.64.64,0,0,0,0-.41,2.57,2.57,0,0,0,1.37-1.87A2.49,2.49,0,0,0,31,14Z"/><path class="cls-1" d="M28.21,14a1.54,1.54,0,0,0-1.28-.87,1,1,0,0,0-.89.44.79.79,0,0,0-.07.67.58.58,0,0,0-.06.26v0h0a.68.68,0,0,0,0,.15h0a0,0,0,0,0,0,0h0l.06.13v0h0l.1.12a.36.36,0,0,0,.18.12l.08,0,.08.26.1.32a2.47,2.47,0,0,0,.15.46.59.59,0,0,0,.68.27,1.32,1.32,0,0,0,.46-.29,2,2,0,0,0,.44-.55A1.91,1.91,0,0,0,28.21,14Z"/><path class="cls-1" d="M24.41,14.91a.88.88,0,0,0-.24-.43s-.06,0-.09-.06l0-.08a1.06,1.06,0,0,0-.79-.49,1,1,0,0,0-.65,0,.77.77,0,0,0-.32.24,1.29,1.29,0,0,0-.59.69,1.93,1.93,0,0,0,.23,1.68.59.59,0,0,0,.33.25c0,.06.07.12.11.17a.89.89,0,0,0,.9.25.79.79,0,0,0,.42-.26l.06,0a1.31,1.31,0,0,0,.58-1.21v0a.14.14,0,0,1,0-.06,1,1,0,0,0,0-.25A.62.62,0,0,0,24.41,14.91Z"/><path class="cls-7" d="M19.37,44.21a11.7,11.7,0,0,0,0-1.45c-.06-.47-.42-.61-.8-.8s-.81-.38-1.22-.54a4.94,4.94,0,0,1-1.12-.51c-.37-.27-.87-.15-1.3-.13a10.26,10.26,0,0,0-1.36.12.38.38,0,0,0-.17.63.8.8,0,0,1,.18.23.4.4,0,0,0,.1.12h0a2.15,2.15,0,0,0,0,.91,2.07,2.07,0,0,0,.53.84,1.11,1.11,0,0,0,1,.36,3.32,3.32,0,0,1,0,.63.36.36,0,0,0,0,.22h0a.38.38,0,0,0-.38.65,1.46,1.46,0,0,0,1.59.08l.1-.1a1.89,1.89,0,0,0,.52.18,2.4,2.4,0,0,0,.88-.12.38.38,0,0,0,.21-.17h0l.17.05.24.07a.61.61,0,0,0,.57-.08C19.46,45.15,19.37,44.57,19.37,44.21Z"/><path class="cls-8" d="M35.32,33.09a11.46,11.46,0,0,1-1.82-3.67c-.12-.45-.69-.3-.74.1A3.56,3.56,0,0,1,32,30.9a8,8,0,0,1-.47.67c0,.06-.1.12-.15.18a.57.57,0,0,0-.24.08,15.23,15.23,0,0,0-1.64-3.12,13.57,13.57,0,0,0-2.59-2.6.57.57,0,0,0-1,.4,4.28,4.28,0,0,1-.3,1.1,4,4,0,0,1-.31,1c-.07,0-.24.27-.31.26-1.72-.23-3.18-1.89-4.7-2.63a1,1,0,0,0-.37-.09,5,5,0,0,0-.42-.6,2.7,2.7,0,0,0-1-.81v-.07a.38.38,0,0,0,0-.21.44.44,0,0,0-.12-.19l-.11-.08a.35.35,0,0,0-.21-.07.38.38,0,0,0-.15,0,.31.31,0,0,0-.21.07l-.12.08a.62.62,0,0,0-.14.25.5.5,0,0,0,0,.12,1.07,1.07,0,0,0,0,.25V25a3.5,3.5,0,0,0-1.4.64,10,10,0,0,0-1,1.26A10.48,10.48,0,0,0,14,28.2c-.14.23-.26.48-.38.73a2.4,2.4,0,0,0-.21.58c-.37.51-.74,1-1.13,1.52a5.9,5.9,0,0,0-1,1.46,4.53,4.53,0,0,0-.14,1.76c0,.24,0,.49,0,.73h0a6.33,6.33,0,0,0,0,1.23.24.24,0,0,0,0,.08c-.1.69-.09,1.38-.15,2.07a14.8,14.8,0,0,0-.13,2.1.58.58,0,0,0,.09.29c-.24.2-.13.7.24.66a2.06,2.06,0,0,0,.72-.29,16,16,0,0,1,2.66-.42.27.27,0,0,0,.19-.1h.09a9.55,9.55,0,0,0,1.31,0,.31.31,0,0,0,.05.21.45.45,0,0,0,.3.19l.29.15.56.24c.33.14.66.26,1,.42a3.35,3.35,0,0,1,.82.57,2.06,2.06,0,0,1,.33.72.58.58,0,0,0,.41.94,9.48,9.48,0,0,0,1.41,0,9.64,9.64,0,0,1,1.52.12.42.42,0,0,0,.25-.05c.49.07,1,.16,1.48.19h.68a1.72,1.72,0,0,0,1.16,0l.05,0c.39,0,.78.07,1.18.09a.54.54,0,0,1,0-.18,15.88,15.88,0,0,1,1.14-2.06c.33-.55.53-1.16.84-1.71a.76.76,0,0,1,.41-.36,1.48,1.48,0,0,1,0-.21,4.29,4.29,0,0,0,.06-1.24.14.14,0,0,0,0-.07l.27-2.88a15.07,15.07,0,0,0,.15-2.32,19.22,19.22,0,0,1,2,.15c.41,0,.81.08,1.22.09a7.49,7.49,0,0,1,1.16,0C35.19,33.7,35.53,33.38,35.32,33.09Z"/><path class="cls-2" d="M13.81,43.3l0-.06v0a.09.09,0,0,0,0-.06s0,0,0-.05l-.07,0h-.08l0,0-.07.07,0,.05a.17.17,0,0,0,0,.1,1.17,1.17,0,0,1,.05.11l0,0a.09.09,0,0,0,.06,0h.08a.09.09,0,0,0,.07,0l0,0a.41.41,0,0,0,.05-.09v0A.29.29,0,0,0,13.81,43.3Z"/><path class="cls-5" d="M14.91,44.05c-.35,0-.61-.24-.95-.28s-.79,0-1.19-.06a4.8,4.8,0,0,1-1.14-.13.9.9,0,0,0-.46,0,.36.36,0,0,0-.54.32.83.83,0,0,1,0,.22.38.38,0,0,0,.46.46l.09,0a2.43,2.43,0,0,0,.66,0l.07,0,.26,0a9,9,0,0,1,.91.11,14.46,14.46,0,0,0,1.86.18A.38.38,0,0,0,14.91,44.05Z"/><path class="cls-8" d="M32,57.24a.81.81,0,0,0-.1-.35,68.86,68.86,0,0,1-2.95-6.27.42.42,0,0,0-.11-.15,7.94,7.94,0,0,1-.66-1.13l-.26-.57-.24-.6a9,9,0,0,0-1-2.14.36.36,0,0,0-.18-.38,1.31,1.31,0,0,0-.28-.09.79.79,0,0,0-.73-.08,6.66,6.66,0,0,1-.77,0,6.18,6.18,0,0,0-.85-.11,3,3,0,0,1-.72,0,.53.53,0,0,0-.36-.13l-2.49-.06h-.54l0,0h0l0,0-.05,0h0l-.1,0h0l-.12,0-.09,0a.28.28,0,0,0-.1.09.26.26,0,0,0-.05.09.18.18,0,0,0,0,.1.68.68,0,0,1-.6.07h0a4.49,4.49,0,0,1,1.12,1.33,1.14,1.14,0,0,1,.07.32l.25,0,.1.05h0l.1.13.21.25.36.45a1.47,1.47,0,0,1,.1.13,1.85,1.85,0,0,0-.14.39c-.13.44-.28.88-.45,1.31s-.27.6-.39.91a.54.54,0,0,0,.11.5c-.24.58-.51,1.15-.75,1.73-.36.88-.55,1.81-.84,2.71a.39.39,0,0,0,0,.24l-.31.73a.5.5,0,0,0,0,.36c-.45,1-.86,2-1.26,3a.07.07,0,0,0,0,0l0,0h0v0h0a.36.36,0,0,0,0,.09h0v0l0,.1,0,.1,0,.09a.22.22,0,0,0,.09.1.16.16,0,0,0,.09.05.14.14,0,0,0,.09,0,.17.17,0,0,0,.1,0l0,0,0,0a.76.76,0,0,0,.59,0,1.1,1.1,0,0,1,.27-.06c.32,0,.64-.06,1-.07.63,0,1.25,0,1.88-.13a.6.6,0,0,0,.54-.42l.59-1.64a.44.44,0,0,0,0-.34c.43-.92.86-1.84,1.26-2.76.21-.47.39-.94.56-1.41.08-.21.24-.44.36-.68.26.33.52.65.79,1a.72.72,0,0,0,.15.5c1.29,1.64,2.32,3.46,3.61,5.1a.57.57,0,0,0,.89-.11,3.41,3.41,0,0,1,.95-.82L31.75,58A.6.6,0,0,0,32,57.24Z"/><path class="cls-4" d="M25.14,61.72l-.13-.1a8.58,8.58,0,0,0-2.69-1.08,4.5,4.5,0,0,0-1.51,0,4,4,0,0,0-1.32.41l-.72-.06-.53,0h-.16l-.3-.05a.58.58,0,0,0-.72.54v0a1,1,0,0,0-.19.21c-.21.33-.3.72-.53,1,0,0,0,0,0,0h0a1,1,0,0,0,0,.1.59.59,0,0,0-.07.29.73.73,0,0,0,.22.53.71.71,0,0,0,.53.22.76.76,0,0,0,.5-.19h0a2.81,2.81,0,0,1,.5,0c.19,0,.38.05.57.06a9.14,9.14,0,0,0,1.17,0,19.76,19.76,0,0,1,2.31,0,6.29,6.29,0,0,0,2.12-.07c.72.12,1.6.23,1.89-.46S25.72,62,25.14,61.72Z"/><path class="cls-4" d="M36.43,55.22a.67.67,0,0,0-.47-.15,4.71,4.71,0,0,0-2.24.89,6.36,6.36,0,0,0-1.46,1.72,6.46,6.46,0,0,0-1.08.78c-.17.17-.32.36-.5.52l-.06.06h0l-.05,0-.07,0-.05,0s-.24,0-.06,0a.57.57,0,0,0-.48.28.56.56,0,0,0,0,.57,2.68,2.68,0,0,0,.18.28.8.8,0,0,0,.06.3A11.2,11.2,0,0,0,31,61.89a3.92,3.92,0,0,1,.34.64,2.67,2.67,0,0,0,.29.67c.34.45.71.59,1.1.21a5.37,5.37,0,0,0,.87-1.53c.38-.8,1-1.68,1.31-2.49a.52.52,0,0,0,.25-.24c.56-1.06,1.17-2.08,1.83-3.08A.59.59,0,0,0,36.43,55.22Z"/><path class="cls-3" d="M29.54,20a6.08,6.08,0,0,1-.33.62c-1.61,2.65-2.87,3.84-3.17,5.61"/><path class="cls-3" d="M30.29,14.79a10.22,10.22,0,0,1-.12,3.08A10.71,10.71,0,0,1,29.54,20"/><path class="cls-3" d="M28,9.93a7.74,7.74,0,0,1,2.29,4.86"/><path class="cls-3" d="M16.38,20.87c.73,1.58,1.78,3,2.15,3.91"/><path class="cls-3" d="M15.69,13.34A10.14,10.14,0,0,0,15.34,16"/><polygon class="cls-3" points="70.84 47.35 29.87 44.67 30.59 33.36 71.48 35.96 70.84 47.35"/><polyline class="cls-3" points="19.46 44.04 79.74 47.92 79.65 48.96 19.28 45.1"/><polyline class="cls-3" points="15.09 44.83 10.66 44.55 10.73 43.48 14.01 43.69"/><line class="cls-3" x1="70.31" y1="47.35" x2="70.24" y2="48.36"/><polyline class="cls-3" points="71.29 35.95 79.74 36.44 79.33 47.71"/><path class="cls-3" d="M15.28,44.07s-1.95.21-1.71-2.26"/><path class="cls-3" d="M15.51,44.42a.6.6,0,0,1-.2-.69"/><path class="cls-3" d="M16.88,43.09s-.19,1.33-.28,2.09-.83.68-1.21.65a.89.89,0,0,1-.82-.85.31.31,0,0,1,0-.09"/><path class="cls-3" d="M16.54,45.53a1,1,0,0,0,.74.24c.49,0,.77-.17.85-.92s.19-1.73.19-1.73"/><path class="cls-3" d="M19.38,42.91v-.1a.93.93,0,0,0-.62-.81l-2.57-1.06"/><path class="cls-3" d="M18.07,45.38a1,1,0,0,0,.55.14c.53,0,.66-.45.71-.93s.05-1.36.05-1.68"/><path class="cls-3" d="M15.38,44.28a1.41,1.41,0,0,0-.23.82"/><line class="cls-3" x1="31.76" y1="63.41" x2="29.63" y2="59.62"/><path class="cls-3" d="M31.27,59.92A9.86,9.86,0,0,1,32.61,57c.86-1.12,2.49-2.69,4.17-1.78,0,0,.51.25.28.69s-4.21,7.25-4.21,7.25-.48.91-1.09.22"/><path class="cls-3" d="M16.29,63s-.32.74.74.74h8.15a.88.88,0,0,0,.9-1c-.07-1-2.23-2.25-4.66-2.15a6.34,6.34,0,0,0-2.75.7"/><polyline class="cls-3" points="26.51 45.62 32.17 57.59 28.88 60.22 18.84 45.62"/><path class="cls-3" d="M20.18,60.72c-.54.06-3.66.06-3.66.06L20.68,48.3"/><line class="cls-3" x1="21.16" y1="60.58" x2="24.03" y2="53.18"/><path class="cls-3" d="M26.07,63c-.15,0-9.78,0-9.78,0l.8-2.05"/><line class="cls-3" x1="36.6" y1="55.16" x2="31.88" y2="63.53"/><path class="cls-3" d="M11.14,33.17a1.86,1.86,0,0,1,.25-1L14.84,27s1.68-3,4.05-2a2.35,2.35,0,0,1,1.17,2"/><path class="cls-3" d="M13.57,41.81a4.12,4.12,0,0,1-.41-.82"/><line class="cls-3" x1="16.19" y1="40.94" x2="16.16" y2="40.72"/><line class="cls-3" x1="13.46" y1="42.38" x2="13.3" y2="43.58"/><line class="cls-3" x1="16.79" y1="29.22" x2="16.06" y2="34.63"/><path class="cls-3" d="M37.5,24.83s-3.34-.17-3,2.56l-1.05,1.9"/><path class="cls-3" d="M38.52,26.54a34.86,34.86,0,0,0,4.67-.43c1.28-.25,1.42-.58,1.35-.93s-.61-.29-.61-.29l-6.43-.06"/><path class="cls-3" d="M38.83,28.24a13.34,13.34,0,0,0-1.16-.95"/><path class="cls-3" d="M38.89,28.47l-.06-.23a2,2,0,0,1,2.41.08c.24.28,0,.64-.45.73a4.71,4.71,0,0,0-1.63.72.55.55,0,0,1-.7.09l-2.13-1.08a1.88,1.88,0,0,1-.94-1,2.07,2.07,0,0,1-.16-.61"/><path class="cls-3" d="M38.68,26.16a2.63,2.63,0,0,1-.82,1.2"/><path class="cls-3" d="M39.91,26.56l.26.5s.2.6-.2.81"/><path class="cls-3" d="M38.24,27l.1.2.9.21"/><path class="cls-3" d="M38.34,27.18a.76.76,0,0,0-.35.31"/><path class="cls-3" d="M38.09,29.78l-.6.47c-.15.12-.44.23-.57.12s-.2-.52.24-1.14"/><path class="cls-3" d="M26.15,25.78a12.87,12.87,0,0,1-.79,3.39l.32,1.57"/><path class="cls-3" d="M26.15,25.78s2.91.62,5.07,6.14"/><path class="cls-3" d="M17.44,24.83a1.54,1.54,0,0,1,.62-1"/><path class="cls-3" d="M19.74,25.81a20.94,20.94,0,0,0,5.62,3.36"/><path class="cls-3" d="M18.17,24.45l.51.47"/><path class="cls-3" d="M11.14,33.1l-.29,8.71s-.31-.87,5.57-1.17l-.36-6a2.4,2.4,0,0,0-1.65-.31"/><path class="cls-3" d="M13.47,42.29h.08"/><path class="cls-3" d="M10.85,41.81s.09.55,2.62.48"/><line class="cls-3" x1="36.02" y1="28.59" x2="35.17" y2="32.89"/><path class="cls-3" d="M34,28.16s-.76-.13-.76.79,1.6,3,2.11,4.56"/><path class="cls-3" d="M35.72,30.14A10.8,10.8,0,0,1,36,33.7"/><path class="cls-3" d="M33.4,28.41l-2.18,3.51v.85"/><path class="cls-4" d="M13.48,41.71a1.9,1.9,0,0,0-.3-.44.85.85,0,0,0-.56-.25,3.38,3.38,0,0,0-1,.11.35.35,0,0,0-.24.23.35.35,0,0,0-.32.26.37.37,0,0,0,.26.45,12.11,12.11,0,0,0,1.89.19.37.37,0,0,0,.32-.18A.38.38,0,0,0,13.48,41.71Z"/><path class="cls-3" d="M15.51,13.81a.24.24,0,0,1-.17-.13C15.21,13.2,18.07,12,21.73,11s6.73-1.41,6.86-.93c0,.07,0,.16-.14.26"/><path class="cls-3" d="M16.73,16.6a1.63,1.63,0,0,0-1.6-.54c-1.15.32-1.2,1.7-1,2.69.18.71.84,2.23,1.95,2.11a1.16,1.16,0,0,0,1-.94"/><path class="cls-3" d="M15.63,17.16a2.12,2.12,0,0,1,.26.71,10.23,10.23,0,0,0,.3,1.36"/><path class="cls-3" d="M15.09,18.1a.72.72,0,0,0,.87.21"/><path class="cls-3" d="M15.49,18.36a.71.71,0,0,1-.23.73"/><path class="cls-3" d="M30.15,13.55a1.2,1.2,0,0,1,.28,0c1.17.25,1.3,1.62,1.12,2.62a2.69,2.69,0,0,1-1.42,2.15"/><path class="cls-3" d="M30.6,15.61a2.29,2.29,0,0,1-.23.21"/><path class="cls-3" d="M30.34,16.47a.58.58,0,0,0,.16.15"/><polyline class="cls-3" points="25.63 13.64 27.43 18.3 25.36 17.11"/><path class="cls-3" d="M26.86,16.61a1.22,1.22,0,0,0,.33,0,1.64,1.64,0,0,0,1.28-1.9,1.62,1.62,0,0,0-1.65-1.59,1.42,1.42,0,0,0-1.06.78"/><ellipse class="cls-3" cx="23.05" cy="15.47" rx="1.48" ry="1.75" transform="translate(-1.51 2.53) rotate(-6.08)"/><path class="cls-4" d="M23.58,14.82A.64.64,0,0,1,24.14,16,.64.64,0,0,1,23.58,14.82Z"/><path class="cls-4" d="M27.51,14.29a.65.65,0,0,1,.56,1.17A.65.65,0,0,1,27.51,14.29Z"/><path class="cls-3" d="M22.14,10.9s-.52,3.63-2.27,5.07a9.67,9.67,0,0,0,0-3.61"/><path class="cls-3" d="M19.87,12.24s-.47,4-3.51,4"/><path class="cls-3" d="M15.46,20.73s.09,2.57,1.88,2.25"/><path class="cls-3" d="M15.63,13.34A4,4,0,0,0,15,16"/><path class="cls-3" d="M25.93,10.08A7.94,7.94,0,0,0,28.48,13a9,9,0,0,1-.74-2A5.36,5.36,0,0,0,30,13.12"/><path class="cls-3" d="M23.58,10.55A6.44,6.44,0,0,0,24.93,12a7.21,7.21,0,0,1-.34-1.65"/><path class="cls-3" d="M30.6,18.08c.14.09.57,4-2.12,3.71"/><path class="cls-4" d="M30.63,18.32a.19.19,0,0,0-.27-.11,1.12,1.12,0,0,0-.41.68c-.1.3-.16.62-.26.92a4.52,4.52,0,0,1-.36.85,2.61,2.61,0,0,1-.55.79c-.15.14,0,.41.22.29l.14-.1a.17.17,0,0,0,.23,0l0,0a.16.16,0,0,0,.21,0c.1-.09.24-.14.35-.22a1.07,1.07,0,0,0,.28-.28,3,3,0,0,0,.34-.87A3.17,3.17,0,0,0,30.63,18.32Z"/><path class="cls-4" d="M17.32,22.51a.38.38,0,0,0-.16-.25.39.39,0,0,1-.08-.1l-.08-.1h0l0,0c-.1-.12-.19-.25-.28-.38l-.26-.39a.81.81,0,0,0-.45-.38.37.37,0,0,0-.45.25.38.38,0,0,0,.21.43l0,0a.13.13,0,0,0-.06.07.46.46,0,0,0,0,.41,1.42,1.42,0,0,0,.12.25,1.12,1.12,0,0,0,.16.22.35.35,0,0,0,.26.11h0a1.39,1.39,0,0,0,.37.31A.33.33,0,0,0,17,23a.33.33,0,0,0,.2,0A.38.38,0,0,0,17.32,22.51Z"/><path class="cls-4" d="M22,11.19A.37.37,0,0,0,21.6,11a.56.56,0,0,0-.19.09,7.89,7.89,0,0,1-1.14.44.19.19,0,0,0-.09,0,1.28,1.28,0,0,1-.27-.05.34.34,0,0,0-.43.23.43.43,0,0,0-.35,0,.83.83,0,0,0-.41.31.74.74,0,0,0-.58.06,1.27,1.27,0,0,0-.28.23l-.07,0c-.36.14-.72.27-1.07.42l-.54.24a1.06,1.06,0,0,0-.33.22.72.72,0,0,0-.17.23l0,0a.8.8,0,0,0-.22.55,1,1,0,0,0,0,.25.61.61,0,0,0-.13.33,4.3,4.3,0,0,1-.12.65.56.56,0,0,0,.68.67c-.1,0,.05,0,.07,0h0l0,0h0l0,0h0l0,0a.74.74,0,0,0,1,0,1.59,1.59,0,0,0,.21-.15h.06a1.45,1.45,0,0,0,1-.65l0-.06.09-.1,0-.07c.13-.21.26-.42.38-.64v0h0a.61.61,0,0,0,.19-.2l.06-.13h0s0,0,0,0,0-.08,0-.12,0,0,0-.06a.38.38,0,0,0,0-.15h0l.07-.11a3.73,3.73,0,0,0,.43-1.15,2.84,2.84,0,0,1,.3,1.21c0,.33-.05.67,0,1v0c0,.08-.07.17-.11.26a.5.5,0,0,0-.11.32c0,.34.53.52.68.18a.36.36,0,0,0,0-.09h0a.46.46,0,0,0,.07-.07.72.72,0,0,0,.14-.26.75.75,0,0,0,0-.21c.18-.44.36-.89.56-1.33a5.79,5.79,0,0,0,.34-1c0-.16.06-.32.09-.49s0-.18.05-.28,0,0,0-.05h0A.36.36,0,0,0,22,11.19Z"/><path class="cls-4" d="M24.68,11.16l0,0h0a.22.22,0,0,1-.05-.08.41.41,0,0,1-.05-.09v0l0,0c0-.13-.08-.27-.11-.4a.18.18,0,0,0-.26-.11l-.15.08a.17.17,0,0,0-.17-.15.19.19,0,0,0,0,.37.2.2,0,0,0,.09.13,0,0,0,0,0,0,0l0,.07.47.52a.18.18,0,0,0,.26-.26Z"/><path class="cls-4" d="M24.64,11.11h0S24.66,11.13,24.64,11.11Z"/><path class="cls-4" d="M29.79,12.3c-.52-.82-1.21-1.52-1.78-2.3a.37.37,0,0,0-.5-.13c-.05,0-.08.07-.12.12-.23-.18-.52-.33-.76-.08l0,0a.34.34,0,0,0-.31,0,.36.36,0,0,0-.13.5l.73,1a9.55,9.55,0,0,1,.66.91.36.36,0,0,0,.5.13.37.37,0,0,0,.13-.5c-.05-.09-.11-.18-.17-.27a5.15,5.15,0,0,1-.33-.56l.43.34a2.81,2.81,0,0,1,.54.55,5.75,5.75,0,0,0,.56.74A.36.36,0,0,0,29.79,12.3Z"/><path class="cls-4" d="M33.84,28.35v0a.15.15,0,0,0-.12-.13h-.1a.2.2,0,0,0-.08,0,.5.5,0,0,0-.13.19l0,0,0,0a.15.15,0,0,0-.05.13v.08h0a.13.13,0,0,0,0,.12.18.18,0,0,0,.09.08.21.21,0,0,0,.11,0,.17.17,0,0,0,.11-.09l.08-.17a.31.31,0,0,0,0-.1.11.11,0,0,0,.07-.06A.22.22,0,0,0,33.84,28.35Z"/><path class="cls-4" d="M36.07,32a.36.36,0,0,0-.17-.3l0-.62a.18.18,0,0,0-.18-.18.19.19,0,0,0-.19.18l0,.61a.33.33,0,0,0-.19.31v.53a.38.38,0,0,0-.24.34.51.51,0,0,0,.15.33.08.08,0,0,0,0,0l0,.08,0,0a.37.37,0,0,0,.72-.09C36.07,32.87,36.08,32.45,36.07,32Z"/><line class="cls-3" x1="57.53" y1="56.76" x2="57.53" y2="61.75"/><line class="cls-3" x1="57.53" y1="47.61" x2="57.53" y2="49.76"/><polyline class="cls-3" points="55.2 56.76 52.82 60.21 51.35 60.21"/><line class="cls-3" x1="61.39" y1="47.83" x2="57.96" y2="52.78"/><line class="cls-3" x1="55.19" y1="49.76" x2="53.52" y2="47.35"/><line class="cls-3" x1="61.32" y1="58.61" x2="57.96" y2="53.76"/><path class="cls-3" d="M63.29,48a11.79,11.79,0,0,1,1.23,5.3c0,5.75-4,10.42-8.86,10.42S46.8,59,46.8,53.26A11.65,11.65,0,0,1,48.55,47"/><path class="cls-3" d="M65,48.07a11.92,11.92,0,0,1,1.17,5.19c0,5.75-4,10.42-8.86,10.42"/><path class="cls-3" d="M50,52.77A10.07,10.07,0,0,1,51.43,48"/><path class="cls-3" d="M51.43,58.52A10.07,10.07,0,0,1,50,53.75"/><path class="cls-3" d="M55.17,61.72a6.84,6.84,0,0,1-2.31-1.44"/><path class="cls-3" d="M61.41,47.85a10.09,10.09,0,0,1,1.52,5.41c0,4.56-2.84,8.31-6.49,8.78"/><path class="cls-3" d="M56.44,62a6.64,6.64,0,0,1-.77.05c-4,0-7.27-4-7.27-8.83a9.9,9.9,0,0,1,2-6.1"/><line class="cls-3" x1="55.27" y1="62.02" x2="55.27" y2="47.47"/><line class="cls-3" x1="56.06" y1="47.53" x2="56.06" y2="62.02"/><line class="cls-3" x1="62.83" y1="53.66" x2="48.48" y2="53.66"/><line class="cls-3" x1="48.52" y1="52.86" x2="62.83" y2="52.86"/><line class="cls-3" x1="50.76" y1="59.66" x2="59.04" y2="47.71"/><line class="cls-3" x1="59.96" y1="47.77" x2="51.35" y2="60.21"/><line class="cls-3" x1="60.03" y1="60.25" x2="50.99" y2="47.2"/><line class="cls-3" x1="51.98" y1="47.24" x2="60.58" y2="59.66"/><ellipse class="cls-9" cx="55.67" cy="53.26" rx="1.39" ry="1.53"/><path class="cls-3" d="M28.59,10.08S31.53,5.66,28.43,5s-6.95,3.4-8.16,6.49"/><path class="cls-3" d="M15.32,13.34S14.2,7.8,19,6.09a6.62,6.62,0,0,1,5.24,0"/><path class="cls-3" d="M28.73,30.92s4,6.54-1.77,13.5"/><polyline class="cls-3" points="25.44 29.58 20.7 28.15 19.98 26.13"/><path class="cls-3" d="M25.36,29.29c0-.06,2.07-1.9,2.07-1.9l-.13-1"/><path class="cls-3" d="M22.06,31.62h-4V35s0,2.22,2,2.22a2,2,0,0,0,2.27-2A30.74,30.74,0,0,0,22.06,31.62Z"/><path class="cls-3" d="M26.39,19.65a5,5,0,0,1-4.33-.92"/></g></svg>