<svg xmlns="http://www.w3.org/2000/svg" viewBox="0 0 104.62 148.79"><defs><style>.cls-1{fill:#0077bf;}.cls-2{fill:#f59da0;}.cls-3{fill:#f9b730;}.cls-4{fill:#f47951;}.cls-5{fill:none;stroke:#1c204d;stroke-linecap:round;stroke-linejoin:round;stroke-width:0.8px;}.cls-6{fill:#1c204d;}.cls-7{fill:#fff;}.cls-8{fill:#1d1c4c;}</style></defs><g id="Layer_1" data-name="Layer 1"><path class="cls-1" d="M87.93,122.94a8.78,8.78,0,0,0-5.33,3.5,1.6,1.6,0,0,0-.17-.64l-.29-.43,0,0s0,0,0-.06a6.57,6.57,0,0,0-1.26-1.65,13.92,13.92,0,0,1-.85-1.79c-.25-.61-.48-1.23-.71-1.85a3.69,3.69,0,0,0-1.46-2.16,2.41,2.41,0,0,0-1.33-.3,1.72,1.72,0,0,0-1.6-.41l-.3.05a20,20,0,0,1-2.79-.31c-1-.15-2-.31-3.05-.49h-.2a27.5,27.5,0,0,0-.65-5.65,29.47,29.47,0,0,0-.87-2.91c-.08-.24-.18-.47-.28-.7A2.29,2.29,0,0,0,67,107a11.23,11.23,0,0,0,3-3.68c.72-1.28,1.43-2.56,2.23-3.81,1.69-2.64,3.83-5.78,3.46-9.07a2,2,0,0,0-3.3-1.12q-1.22,1.33-2.28,2.76a2.27,2.27,0,0,0-.48.72h0c-.46.67-.93,1.32-1.35,2a2.19,2.19,0,0,0-.27.88,17.91,17.91,0,0,0-1,2c-.73,1.78-2.29,3.36-3.68,5a1.54,1.54,0,0,0-.34,1,17.64,17.64,0,0,1-4.92.33,1.94,1.94,0,0,0-.92.15,8.47,8.47,0,0,1-3.41-1.65c-1.5-1.08-2.93-2.27-4.38-3.41s-2.87-2.43-4.4-3.46-3.94-.93-4.65,1c0,0,0,0,0,0a1,1,0,0,0-.33.68,1,1,0,0,0,.24.74l0,0a1.88,1.88,0,0,0,1.2,1.34h0l.1.12.05,0v0a58.53,58.53,0,0,0,5.79,5.23c.87.68,1.76,1.31,2.67,1.93a1.59,1.59,0,0,0,.83.6l.1,0a10.62,10.62,0,0,0,2.87,1.45,2,2,0,0,0,.88,0c-.21,3.5.15,7.17,2,10.15-2.26,1-4.53,2.07-6.77,3.15a4.25,4.25,0,0,0-1.75,1.36,4.09,4.09,0,0,0-.55,2.42c0,.34,0,.68-.06,1a1.79,1.79,0,0,0-.25,1.36,3.4,3.4,0,0,1,.09.46.88.88,0,0,1,0,.16c0,.17,0,.34-.08.51s-.13.62-.06.31a2.46,2.46,0,0,0,.27,1.77c-.1.16-.2.32-.31.48a2.05,2.05,0,0,0-.19,1.76,14,14,0,0,0-1.85-.74l-.13,0a.94.94,0,0,0-.24-.25,3.71,3.71,0,0,0-.53-.26,3,3,0,0,0-.59-.15,2,2,0,0,0-.35,0,4.2,4.2,0,0,0-.62.06,1.38,1.38,0,0,0-.39.18l-1.3-.11a1,1,0,0,0-1.05.8,1,1,0,0,0,.64,1.15,34.66,34.66,0,0,1,4.12,1.32c.66.26,1.31.54,2,.84l.46.24.28.14a6,6,0,0,0,1.2.5,1,1,0,0,0,.89-1.78h0a1.13,1.13,0,0,0-.12-.63,1.87,1.87,0,0,0,1.14-.78,16,16,0,0,0,2.11-3.79A10.32,10.32,0,0,0,53,127c1.16-.44,2.29-1,3.4-1.53a28.22,28.22,0,0,0,3.56-2,3,3,0,0,0,.65-.56L61,123a7,7,0,0,0,2.41-.22c.64-.11,1.27-.22,1.9-.35a11.92,11.92,0,0,0,1.58-.45,1.62,1.62,0,0,0,1,.4,60.8,60.8,0,0,1,7,.58,8.24,8.24,0,0,0,1.77,3,1.69,1.69,0,0,0,.21.31A7.56,7.56,0,0,0,80,128.59a1.3,1.3,0,0,0,.44,0,4,4,0,0,1,.45,1,1,1,0,0,0,1.43.7,11.22,11.22,0,0,0,2.95-3,10.06,10.06,0,0,1,3.33-2.53A1,1,0,0,0,87.93,122.94Z"/><path class="cls-2" d="M43.5,90.74a1.08,1.08,0,0,0-.25-.76l-.11-.12v0a1.1,1.1,0,0,0-1.25-.62,1.06,1.06,0,0,0-.42.22,3,3,0,0,0-.59-.23,2.19,2.19,0,0,0-.67-.07l0-.06a1,1,0,0,0,.29,0,4.67,4.67,0,0,0,.91-.15,1.06,1.06,0,0,0,.64-.43,1,1,0,0,0-.27-1.39,1.12,1.12,0,0,0-.76-.15h0a1.28,1.28,0,0,0-.65-.12,2.34,2.34,0,0,0-.88.29h-.09a3.43,3.43,0,0,0-.85.13,1.1,1.1,0,0,0-.76.95,1.08,1.08,0,0,0,.29.79,7,7,0,0,0,0,1.94l0,.16a4.78,4.78,0,0,0-.29,2.58,1.9,1.9,0,0,0,.47,1,1.86,1.86,0,0,0,.47.32h0a2.58,2.58,0,0,0,1,1.11A1,1,0,0,0,41.34,95a1,1,0,0,0,.47-1,6.72,6.72,0,0,0-.9-2.24c-.1-.17-.21-.33-.31-.49h0c.29.12.58.28.89.38a.88.88,0,0,0,.25.29L42,92a1.06,1.06,0,0,0,.53,0h.06a2.29,2.29,0,0,0,.28-.09l0,0a1.94,1.94,0,0,0,.24-.15h0l.16-.19h0l.12-.23a.4.4,0,0,0,0-.15.58.58,0,0,0,0-.14,1.42,1.42,0,0,0,0-.29Z"/><path class="cls-2" d="M76.07,85.23c-.21-.42-.54-.82-.75-1.17s-.46-.82-.7-1.21a1.64,1.64,0,0,0-1.1-1.65,3.52,3.52,0,0,0-1.74-.1l-.32.05a2.17,2.17,0,0,0-.25,0v0a2.61,2.61,0,0,0-.27.06,1,1,0,0,0,.64,1.89,2.57,2.57,0,0,1,.38-.08h.1l-.06,0a3.85,3.85,0,0,0-.63.5,5.59,5.59,0,0,0-.91,1.31,1,1,0,1,0,1.66,1.12c-.1.13.24-.2.09-.1,0,0,.29-.14.14-.09.26-.09.53-.11.8-.18-.11,1.07-.4,2.38.43,3.2a1.12,1.12,0,0,0,.69.33,1,1,0,0,0,1.17-.09,3.52,3.52,0,0,0,1-2.5A3.39,3.39,0,0,0,76.07,85.23Z"/><line class="cls-3" x1="20.75" y1="66.42" x2="12.48" y2="48.1"/><line class="cls-3" x1="83.75" y1="39.34" x2="84" y2="35.66"/><line class="cls-3" x1="82.77" y1="54.27" x2="83.75" y2="39.34"/><path class="cls-3" d="M89.81,33.13a1,1,0,0,0,.15-.27c.3-.95-1.06-2.23-3-2.86a5.91,5.91,0,0,0-3.08-.22,5.24,5.24,0,0,0-3.23-1.13,6,6,0,0,0-2.89.49,4.17,4.17,0,0,0-.6-.28l1.51-.26c-2.82-3.48-17.75-10.7-34.58-7.77-17,3-28.59,14.86-29.85,18.94l2.49-.43a3.15,3.15,0,0,0-.52.51,5.85,5.85,0,0,0-2.89.51,5.15,5.15,0,0,0-2.66,2.16,5.72,5.72,0,0,0-2.82,1.24C6.16,45,5.31,46.68,5.92,47.47a.63.63,0,0,0,.23.2.41.41,0,0,0-.05.09c-.37.93.62,2.19,2.21,2.82a3.82,3.82,0,0,0,2.86.12,3.9,3.9,0,0,0,2.61.85l.29-.18.06.11a13.68,13.68,0,0,1,1.18,2.32l2.09,5.4a1.56,1.56,0,0,0,.76.78q1.08,2.75,2.17,5.49a1.6,1.6,0,0,0,.55.71c-.1.09-.15.17-.13.24.21,1.09,14.27-.74,31.4-4.1s30.84-7,30.62-8c0-.13-.26-.21-.66-.26a3.85,3.85,0,0,0,.75-1.61,4.41,4.41,0,0,0,0-1.54,3.49,3.49,0,0,0,.13-.7l.66-10.22a3.52,3.52,0,0,0,0-.74l.46.1a3.89,3.89,0,0,0,2-1.63,3.78,3.78,0,0,0,2.64-1.08c1.29-1.13,1.79-2.65,1.14-3.4Zm-56,29A29.43,29.43,0,0,1,37.7,61a51.6,51.6,0,0,1,5.8-1C40,60.73,36.72,61.47,33.83,62.17Z"/><ellipse class="cls-4" cx="51.76" cy="60.35" rx="31.6" ry="2.01" transform="translate(-10.63 11.07) rotate(-11.08)"/><path class="cls-5" d="M64.26,117.75c3.4-.67,4-1.36,4-1.36"/><path class="cls-5" d="M76.28,87.77l-.74,1.87"/><path class="cls-5" d="M63.65,102.69,68,95.13s3-5.87,5.25-6.41"/><path class="cls-4" d="M81.52,131.19a41.14,41.14,0,0,0,3.6-3.63,4.12,4.12,0,0,0,.4-.33,2.85,2.85,0,0,0,1.23-1.11,2.26,2.26,0,0,0,.18-.39c.81-.65,1.69-1.23,2.51-1.87l.09-.08a1.06,1.06,0,0,1,.1.37c.05.75-.63,1.44-1.18,1.93-1.41,1.25-2.61,2.69-4,4C83.73,130.66,82.07,132.13,81.52,131.19Z"/><path class="cls-5" d="M81.6,131.32s.4.94,1.27.1L89.51,125a1.06,1.06,0,0,0-.15-1.62c-.93-.85-3.84-.34-5.72,1.67A6.46,6.46,0,0,0,82,127.86"/><line class="cls-5" x1="80.59" y1="128.68" x2="81.6" y2="131.32"/><line class="cls-5" x1="81.64" y1="131.23" x2="89.46" y2="123.69"/><path class="cls-5" d="M66.19,122.24l8.52.51a10.29,10.29,0,0,0,6,6.38"/><path class="cls-5" d="M68.47,116.36l8.08.94a2.57,2.57,0,0,1,2.39,1.55c.83,2.26,3.5,7.87,3.5,7.87"/><path class="cls-4" d="M49.69,137.7a38.3,38.3,0,0,1-4.7-2c-.17,0-.33-.1-.5-.15a2.92,2.92,0,0,1-1.56-.57c-.11-.09-.21-.19-.31-.29-1-.3-2-.5-3-.78l-.12,0a1,1,0,0,0,.05.38c.24.72,1.12,1.1,1.82,1.34,1.77.63,3.43,1.52,5.21,2.15C47.45,138,49.54,138.79,49.69,137.7Z"/><path class="cls-5" d="M49.67,137.86s0,1-1.14.57L40,135a1.07,1.07,0,0,1-.48-1.56c.55-1.14,3.43-1.76,5.94-.61a6.39,6.39,0,0,1,2.55,2"/><line class="cls-5" x1="49.61" y1="135.03" x2="49.67" y2="137.86"/><line class="cls-5" x1="49.59" y1="137.79" x2="39.51" y2="133.75"/><path class="cls-5" d="M61,123.22l-8.16,4.1a10.26,10.26,0,0,1-3.11,8.15"/><path class="cls-5" d="M47.16,133.91s.35-6.2.27-8.61A2.56,2.56,0,0,1,49.06,123l7.12-3.91s.8,0,2-.08"/><line class="cls-5" x1="20.75" y1="66.42" x2="12.48" y2="48.1"/><line class="cls-5" x1="83.75" y1="39.34" x2="84" y2="35.66"/><line class="cls-5" x1="82.77" y1="54.27" x2="83.75" y2="39.34"/><path class="cls-5" d="M12.48,48.1c-.5-2.91,15.1-8.05,34.85-11.48s36.16-3.86,36.67-1"/><path class="cls-5" d="M14.21,39.77c1.26-4.08,12.83-16,29.85-18.94,16.83-2.93,31.76,4.29,34.58,7.77"/><path class="cls-5" d="M84.06,39.3a3.89,3.89,0,0,0,2-1.63,3.78,3.78,0,0,0,2.64-1.08c1.29-1.13,1.79-2.65,1.14-3.4l-.08-.06a1,1,0,0,0,.15-.27c.3-.95-1.06-2.23-3-2.86a5.91,5.91,0,0,0-3.08-.22,5.18,5.18,0,0,0-3.23-1.12,5.92,5.92,0,0,0-2.89.48,5.9,5.9,0,0,0-3-.66,5.77,5.77,0,0,0-2.93.73,6.54,6.54,0,0,0-6,.47,6.45,6.45,0,0,0-6.11.67,5.65,5.65,0,0,0-3.2-.35,5.79,5.79,0,0,0-2.78,1.09,5.71,5.71,0,0,0-3-.19,7.26,7.26,0,0,0-1.67.49"/><path class="cls-5" d="M13.78,51.55a3.9,3.9,0,0,1-2.61-.85,3.82,3.82,0,0,1-2.86-.12C6.72,50,5.73,48.69,6.1,47.76a.41.41,0,0,1,.05-.09.63.63,0,0,1-.23-.2c-.61-.79.24-2.45,1.89-3.71a5.72,5.72,0,0,1,2.82-1.24,5.15,5.15,0,0,1,2.66-2.16,5.85,5.85,0,0,1,2.89-.51,5.84,5.84,0,0,1,2.58-1.64,5.94,5.94,0,0,1,3-.3,5.8,5.8,0,0,1,2.71-1.52,5.83,5.83,0,0,1,3.14-.08,5.68,5.68,0,0,1,2.81-1.47,5.76,5.76,0,0,1,3.17,0,5.67,5.67,0,0,1,2.89-1.4,5.89,5.89,0,0,1,3,.07,6,6,0,0,1,2.8-1.2,6.34,6.34,0,0,1,1.62,0"/><path class="cls-5" d="M48.94,31.43a5.6,5.6,0,0,0-2.53-.07,6.14,6.14,0,0,0-2.52,1"/><ellipse class="cls-5" cx="51.76" cy="60.35" rx="31.6" ry="2.01" transform="translate(-10.63 11.07) rotate(-11.08)"/><path class="cls-5" d="M73.37,85.59a3.29,3.29,0,0,0,0,3.29,4.38,4.38,0,0,1,2,.94"/><path class="cls-5" d="M73.72,81l.4.08a.7.7,0,0,1,.48.34S76,84.87,76.3,85.7A3.24,3.24,0,0,1,76.21,88"/><path class="cls-5" d="M72.58,82.24a3.05,3.05,0,0,1-1.58.63c-.69.09-1-.1-1.07-.4s.4-.5.4-.5l1.9-1.14a.43.43,0,0,1,.28,0l1.21.2"/><path class="cls-5" d="M73.32,82.28a1.35,1.35,0,0,0,.21.67"/><path class="cls-5" d="M73.35,82.53a3,3,0,0,1-.93-.39"/><path class="cls-5" d="M74.76,84.19,73,83.79a1,1,0,0,0-.74.19c-.33.26-2,2-2,2s-.38.33-.18.56.89.42,1.79-.16a3.78,3.78,0,0,0,1.16-1"/><path class="cls-5" d="M72.68,85.19a1.89,1.89,0,0,0,1.18.26"/><path class="cls-5" d="M74.53,83.14l-1.59-.3a.91.91,0,0,0-.77.17c-.35.24-2.15,1.77-2.15,1.77s-.41.3-.22.54.49.27,1,0"/><path class="cls-5" d="M75.82,89.74c.05.17.43.63-.47,3S71.69,103.33,67.17,107"/><path class="cls-5" d="M38.73,94.91s.83.87,1.39,1.44"/><path class="cls-5" d="M56.05,104l-6.92-5.35s-5-4.32-7.27-4"/><path class="cls-5" d="M40.6,91.78a3.3,3.3,0,0,1,1.21,3.06,4.34,4.34,0,0,0-1.53,1.64"/><path class="cls-5" d="M38.55,87.69l-.34.22a.75.75,0,0,0-.32.5s0,3.68,0,4.58a3.31,3.31,0,0,0,.94,2.07"/><path class="cls-5" d="M40.07,88.38a3,3,0,0,0,1.7,0c.67-.18.93-.48.83-.77s-.55-.32-.55-.32L39.86,87a.45.45,0,0,0-.26.09s-.62.37-1.05.65"/><path class="cls-5" d="M39.39,88.71a1.24,1.24,0,0,1,.06.69"/><path class="cls-5" d="M39.46,89a3,3,0,0,0,.72-.72"/><path class="cls-5" d="M38.79,91l1.48-1a1,1,0,0,1,.76-.11c.41.12,2.57,1.06,2.57,1.06s.47.17.37.45-.66.73-1.71.53a3.9,3.9,0,0,1-1.45-.46"/><path class="cls-5" d="M41.09,91.15a1.91,1.91,0,0,1-1,.69"/><path class="cls-5" d="M38.6,90,40,89.07a1,1,0,0,1,.78-.13c.41.1,2.65.83,2.65.83s.49.13.41.42-.35.43-.92.42"/><path class="cls-5" d="M39.89,96.56c0,.17-.15.74,1.56,2.56s7.39,8.46,12.95,10.12a20.36,20.36,0,0,0,1.7,9.53"/><path class="cls-5" d="M66.86,107a21,21,0,0,1,1.57,9.19"/><path class="cls-5" d="M59.22,123.2a14.34,14.34,0,0,0,4.15-.28,20.36,20.36,0,0,0,4.9-1.72"/><path class="cls-6" d="M38.57,87.56c.16-.12.33-.23.5-.34l.36-.2a1.44,1.44,0,0,1,.74-.14h.06c-8-11.62-13.21-19-15.42-22.2a.67.67,0,0,1-.14.11,8.3,8.3,0,0,1-1.52.53l-.23,0C25.15,68.55,31.68,78,38.43,87.7,38.48,87.66,38.52,87.6,38.57,87.56Z"/><path class="cls-6" d="M41.16,91.64,43.51,95a1.31,1.31,0,0,1,.33.12C44.9,95.75,46,96.29,47,97c.16.11.3.25.45.37l-3.81-5.51"/><path class="cls-6" d="M80.3,53.86c-.21,0-.42,0-.63,0s-.41,0-.62.06h-.43c-.84,3.63-2.87,12.7-6.08,27.1H73l.47.1c.19,0,.37.12.56.15l-.23,0a1.29,1.29,0,0,1,.63.22c2.69-12.1,5.33-23.92,6.16-27.55Z"/><path class="cls-6" d="M73.11,86.58a.72.72,0,0,0-.25-.27l-.22-.11a1,1,0,0,0-.51,0l-.25.09a1,1,0,0,0-.37.32l-.08.16-.14-.1q-.54,2.43-1.12,5l.57-.69a12,12,0,0,1,1.71-1.91,1.5,1.5,0,0,1,.32-.19c.08-.32.15-.65.22-1l.13-.25a.73.73,0,0,0,.14-.34.7.7,0,0,0,0-.38A.66.66,0,0,0,73.11,86.58Z"/><path class="cls-6" d="M42.73,64.08a.69.69,0,0,1-.15.07,7.71,7.71,0,0,1-1.8.22l12.9,38.19a7.44,7.44,0,0,1,1.52,1c.31.27.61.55.9.83a.33.33,0,0,1,.1,0,1,1,0,0,1,.18.07Z"/><path class="cls-6" d="M65.66,59.39a6.77,6.77,0,0,1-1,0l-.58,43.39a0,0,0,0,0,0,0,10.11,10.11,0,0,1,1.33-3.08,4.22,4.22,0,0,1,.65-.76l.53-39.74C66.28,59.3,66,59.36,65.66,59.39Z"/><path class="cls-2" d="M66.73,96.18a1.15,1.15,0,0,0-1,.2,5.84,5.84,0,0,1-.61-1.85,14.19,14.19,0,0,1-.07-2.85.75.75,0,0,0-.09-.39l.06-.1s0,0,0,0a.63.63,0,0,0,.08-.23,1.1,1.1,0,0,0,0-.57A1.36,1.36,0,0,0,65,90a1.24,1.24,0,0,0-.63-.49,12.71,12.71,0,0,0-1.1-1,10.17,10.17,0,0,0-1-.72,1.66,1.66,0,0,0-1.3-.2c-.06-.13-.11-.25-.18-.38A2.62,2.62,0,0,0,59.5,86a2.26,2.26,0,0,0-2,.1,2.11,2.11,0,0,0-1.06,1.45,2.37,2.37,0,0,0,0,.88h0a1.51,1.51,0,0,0-.37.15,2.56,2.56,0,0,0-.47.46l-.2.19-.1.09-.15.12L55,89.6a3,3,0,0,0-.86.94c-.14.26-.22.54-.34.81s-.33.53-.46.81A3.8,3.8,0,0,0,53,93.31a6.77,6.77,0,0,0,0,2.29,1,1,0,0,0-1.09.43,1.36,1.36,0,0,0,.23,1.51,6.15,6.15,0,0,0,.49.53l.19.2s.09.09.1.13l0-.06.06.08a5.34,5.34,0,0,1,.62,1,.72.72,0,0,0,.82.31l.06,0c.14.18.29.35.43.52l.1.12.16.24a6.05,6.05,0,0,1,.32.55,11.16,11.16,0,0,1,.83,2.23,1,1,0,0,0,.93.69,4.9,4.9,0,0,0,.54,0,2.11,2.11,0,0,0,1.2.18l1.19,0c.79,0,1.57-.12,2.35-.22l.27,0a1,1,0,0,0,.66-1.06.94.94,0,0,0,.17-.33,1.66,1.66,0,0,1,.06-.21c.15-.36.33-.71.5-1.07l.52-1.11a.91.91,0,0,0,.54,0,1.06,1.06,0,0,0,.57-.47,2.91,2.91,0,0,0,.27-.49,1.07,1.07,0,0,0,.09-.47.67.67,0,0,0,.24,0,1.5,1.5,0,0,0,.48-.3,1.14,1.14,0,0,0,.26-.5.08.08,0,0,1,0,0l.06,0,.15-.2a.9.9,0,0,0,.09-.6A1,1,0,0,0,66.73,96.18Z"/><path class="cls-7" d="M62.3,91.94l-.12.06h0l0,0c-.13.06-.25.13-.37.2a2.41,2.41,0,0,1-1.11.09c-.6,0-1.18-.14-1.78-.15s-1.16,0-1.74.09a3.57,3.57,0,0,1-1.56,0,.49.49,0,0,0-.65.19.48.48,0,0,0,.19.65l.2.06a.49.49,0,0,0,.33.51,8.84,8.84,0,0,0,3.53.49,6.1,6.1,0,0,0,1.8-.34,3.56,3.56,0,0,0,.82-.43l.33-.25a2.06,2.06,0,0,0,.54-.3C63.07,92.5,62.85,91.74,62.3,91.94Z"/><path class="cls-5" d="M65,99.62c-.84,1.62-1.48,2.63-1.57,3.88"/><path class="cls-5" d="M60.92,87.74c4,.67,5.6,4.58,5.34,7.94,0,0,0,.13,0,.34"/><path class="cls-5" d="M56.39,88.37c-2.87,1.47-3.77,4.89-3.34,7.79a8.52,8.52,0,0,0,.76,2.52c1.39,2.53,2.5,3.64,2.64,5.33"/><path class="cls-5" d="M54.85,92.09s.24,6.62,4.35,6.4S62.91,92,62.91,92"/><path class="cls-5" d="M63.34,91.58s-.93.52-4.36.75-4.7-.43-4.7-.43"/><line class="cls-5" x1="60.91" y1="88.91" x2="61.65" y2="88.4"/><line class="cls-5" x1="61.7" y1="90.1" x2="60.69" y2="89.73"/><path class="cls-5" d="M60.86,89.31a4.9,4.9,0,0,1,1.21-.09"/><line class="cls-5" x1="56.52" y1="89.04" x2="56.32" y2="89.07"/><line class="cls-5" x1="56.62" y1="90.2" x2="56.9" y2="90"/><path class="cls-5" d="M56.6,89.48a3.27,3.27,0,0,0-.45.1"/><path class="cls-5" d="M57.25,90.37a2.87,2.87,0,0,1-.78-1.67,2.25,2.25,0,1,1,4.41-.51,2.81,2.81,0,0,1-.54,2"/><path class="cls-5" d="M65.46,96.77A1.16,1.16,0,0,1,67,96.19c1.06.52.29,1.86-.28,2.2a2.22,2.22,0,0,0-1,1.24c-.16.46-.38.89-1,.65"/><path class="cls-5" d="M66.39,96.86a2.72,2.72,0,0,1-.6,1,1.56,1.56,0,0,0-.36.91"/><path class="cls-5" d="M66.11,97.6a.77.77,0,0,0,.61-.26"/><path class="cls-5" d="M66.08,97.59a.35.35,0,0,0,.2.38"/><path class="cls-5" d="M52.93,95.59a1.15,1.15,0,0,0-.72.11c-1.07.51-.3,1.85.27,2.2a2.2,2.2,0,0,1,1,1.24c.14.4.26,1,1,.68"/><path class="cls-5" d="M52.84,96.37a3,3,0,0,0,.38.73"/><path class="cls-5" d="M53.12,97.11a.77.77,0,0,1-.61-.26"/><path class="cls-5" d="M53.15,97.11a.35.35,0,0,1-.21.38"/><path class="cls-5" d="M56.49,104c4.53.73,6.95-.47,6.95-.47"/><path class="cls-5" d="M56.38,103.6s-.62.12-.61.68c0,.74,1.77.9,4.61.85"/><path class="cls-5" d="M63.66,103.24s.62.06.67.61c.07.73-1.66,1.13-4.49,1.27"/><path class="cls-5" d="M66,99.32a1.73,1.73,0,0,1,.72.85,1.58,1.58,0,0,1-.81,2.08,1.55,1.55,0,0,1-1.85-.66"/><path class="cls-8" d="M66.48,99.72c-.14-.26-.59-.34-.7,0a1.58,1.58,0,0,1-.35.68.9.9,0,0,1-.24.12.33.33,0,0,0-.51-.06c-.33.29-.75.8-.45,1.23a1.37,1.37,0,0,0,1.33.61C66.79,102.24,67,100.58,66.48,99.72Z"/><path class="cls-5" d="M53.63,99.63a1.47,1.47,0,0,0-.34.4,1.57,1.57,0,0,0,.4,2.19,1.54,1.54,0,0,0,1.93-.3"/><path class="cls-8" d="M55.16,100.76c-.09-.11-.09-.21-.2-.2-.1-.2-.29-.32-.41-.51a.36.36,0,0,0-.22-.13.68.68,0,0,0,0-.15v0a.45.45,0,0,1-.65-.06l0-.05h0l-.05.06c-.58.77-.7,2.36.46,2.65a1.42,1.42,0,0,0,1.43-.35C55.84,101.63,55.42,101.11,55.16,100.76Z"/><path class="cls-5" d="M65.84,96.3a13,13,0,0,1-.72-5.65"/><path class="cls-8" d="M66,93.05l-.1-.82a.33.33,0,0,0-.26-.3,4,4,0,0,1-.11-.6.19.19,0,0,0-.38.06,4.52,4.52,0,0,0,.12.62.33.33,0,0,0-.13.32l.16,1.2a2,2,0,0,0,.18.88c.08.36,0,.74.1,1.12a.33.33,0,0,0,.22.27.66.66,0,0,0,0,.14.19.19,0,0,0,.38,0,.41.41,0,0,1,0-.11.33.33,0,0,0,.15-.36c-.07-.39,0-.79-.11-1.17s-.09-.55,0-.84A.36.36,0,0,0,66,93.05Z"/><path class="cls-5" d="M60.65,87a3.42,3.42,0,0,1,3.22.35c1.37.84,2.37,2.37,1.83,3.35a1.69,1.69,0,0,1-.3.36"/><path class="cls-8" d="M65,88.35c-.38-.38-.81-.7-1.17-1.1a.18.18,0,0,1,0-.07h0a8.44,8.44,0,0,0-2.83-.31l-.12,0a.48.48,0,0,0-.09.29.54.54,0,0,0,.2.44.44.44,0,0,0,.45.09.4.4,0,0,0,.24.16,6,6,0,0,1,1.82.7,3.73,3.73,0,0,1,1,1,.19.19,0,0,0,.06.17c.12.1.24.2.35.31s0,0,0,0a.94.94,0,0,0,.28.32c.1.17.16.35.27.51a.19.19,0,0,0,.34-.14v-.45l0-.1s0,0,0,0a.31.31,0,0,0,.13-.34s0,0,0-.07A9.59,9.59,0,0,0,65,88.35Z"/><path class="cls-5" d="M65.5,91a2.34,2.34,0,0,1,1.07,1.47A5,5,0,0,1,66.4,96"/><path class="cls-8" d="M66.67,93.21a4,4,0,0,0-.29-.75,3,3,0,0,0-.58-1.32.39.39,0,0,0-.65.39,6.89,6.89,0,0,0,.52,1.14c0,.23.09.45.13.67s0,.18,0,.27a.32.32,0,0,0,0,.26c.11.45,0,.91.08,1.37a.38.38,0,0,0,.75,0,4.79,4.79,0,0,0,0-1.73A.28.28,0,0,0,66.67,93.21Z"/><path class="cls-5" d="M56.63,87.35a3,3,0,0,0-2.47.77,2.81,2.81,0,0,0-.66,3.56"/><path class="cls-8" d="M56,87.46a4,4,0,0,0-2.19,1,4.91,4.91,0,0,0-.64,2.42c0,.41.6.63.73.2a.36.36,0,0,0,0-.1h0V91c0-.08,0-.16,0-.25a2,2,0,0,1,0-.23.29.29,0,0,0,.31-.15,5.62,5.62,0,0,1,.8-1c.21-.21.72-.76,1.05-.76a.38.38,0,0,0,.3-.23,1.38,1.38,0,0,0,.09-.44A.39.39,0,0,0,56,87.46Z"/><path class="cls-5" d="M53.53,91.36s-1.31,1-.87,4"/><path class="cls-8" d="M52.76,92.57a3.84,3.84,0,0,0-.23,1.87.19.19,0,0,0,.37,0,3.45,3.45,0,0,1,.21-1.68A.19.19,0,0,0,52.76,92.57Z"/><path class="cls-5" d="M62.9,92.63s-1,1.68-4,1.63S55,93,55,93"/><path class="cls-6" d="M62.08,93.24a6.51,6.51,0,0,1-.84.62,1,1,0,0,0-.37,0c-.56.15-1.14.28-1.72.38l-.37.06-.11,0-.11,0a5.09,5.09,0,0,1-2.22-.58.45.45,0,0,0-.39,0,.05.05,0,0,1,0,0l-.07-.14c-.23-.48-1.07-.11-.87.39l.06.12h0l.06.11.72,1.52a5,5,0,0,0,.81,1.4l.12.11a.49.49,0,0,0,.13.43,2.54,2.54,0,0,0,1.44.74,2.75,2.75,0,0,0,.81,0l.11,0h0a.52.52,0,0,0,.48-.18l.16,0a.49.49,0,0,0,.48-.11,4.1,4.1,0,0,0,1.7-1.7,13,13,0,0,0,.8-2.67A.49.49,0,0,0,62.08,93.24Z"/></g></svg>