<svg xmlns="http://www.w3.org/2000/svg" viewBox="0 0 59.49 43.7"><defs><style>.cls-1,.cls-14{fill:#b0dceb;}.cls-2{fill:#fff;}.cls-3{fill:#ea4827;}.cls-13,.cls-4{fill:#1f4686;}.cls-5{fill:#f47951;}.cls-6{fill:#f9b730;}.cls-7{fill:#875b4a;}.cls-8{fill:#af6e30;}.cls-9{fill:#0077bf;}.cls-10{fill:#0d773c;}.cls-11,.cls-15{fill:#1c204d;}.cls-12,.cls-16{fill:none;stroke-width:0.4px;}.cls-12,.cls-13,.cls-14,.cls-15,.cls-16{stroke:#1c204d;stroke-linecap:round;stroke-linejoin:round;}.cls-16{stroke-dasharray:2;}</style></defs><g id="Layer_1" data-name="Layer 1"><path class="cls-1" d="M37.58,32.58a7.27,7.27,0,0,0,.24-.76A5.35,5.35,0,0,0,38,29.57a6.36,6.36,0,0,0-2.21-3.67.33.33,0,0,1-.11-.41c-.82-.28-2.81-1-2.81-1h-.75s-2.57,1.72-2.63,1.79-.41,2.91-.39,3S30.29,32,30.29,32l3.18,2.14,3.36-.4Z"/><path class="cls-1" d="M12.09,24.45s-2.58,1.72-2.63,1.79-.42,2.91-.39,3S10.28,32,10.28,32l3.18,2.14,3.36-.4,1.75-2.64L18,27.94s-1.89-2.37-2-2.34-3.16-1.15-3.16-1.15Z"/><polygon class="cls-2" points="8.76 29.6 13.87 29.2 11.16 32.69 8.76 29.6"/><path class="cls-2" d="M17,26l-3.22,3.19,4.41.23-.41-2.07A6.49,6.49,0,0,0,17,26Z"/><polygon class="cls-2" points="29.39 32.78 33.02 29.17 33.21 33.58 29.39 32.78"/><polygon class="cls-2" points="33.45 24.12 33 29.23 36.51 26.55 33.45 24.12"/><path class="cls-3" d="M18.47,6.37A4.81,4.81,0,0,0,18,5.71a2.52,2.52,0,0,0-.27-.3l-.12-.12s-.13-.1-.14-.14a.22.22,0,0,0-.2-.15h0a.22.22,0,0,0-.14-.08c-.21,0-.38-.17-.59-.21a1.68,1.68,0,0,0-.67.06l-.67.17c-.21,0-.44,0-.66.12a2.23,2.23,0,0,0-.58.33c-.17.12-.41.26-.41.49v0s-.05,0-.08.07a.22.22,0,0,0,0,.21.47.47,0,0,0,.19.15l.15.1h0l0,0,.07.06,0,0,0,.06c.08.11.15.22.22.33l.09.17a.36.36,0,0,1,0,.09l0,0h0v0a.2.2,0,0,0,.3.2,2,2,0,0,1,.94-.2,3.71,3.71,0,0,0,.85-.19,8.84,8.84,0,0,0,.88-.25,2.75,2.75,0,0,1,.94-.18A.21.21,0,0,0,18.47,6.37Z"/><path class="cls-4" d="M18.45,28.11a.25.25,0,0,0,0-.07c-.11-.38-.26-.78-.52-.91a.37.37,0,0,0-.06-.1c-.24-.28-.39-.63-.64-.92a6.45,6.45,0,0,0-.82-.75.31.31,0,0,0-.16-.06,3.43,3.43,0,0,0-1-.64h0a.42.42,0,0,0-.14-.09,7,7,0,0,0-.84-.3,2.44,2.44,0,0,0-.55-.12.31.31,0,0,0-.33-.06.42.42,0,0,0-.22,0,.42.42,0,0,0-.16,0,4.35,4.35,0,0,0-2.08.4,2.6,2.6,0,0,0-1.27,1,2.9,2.9,0,0,0-.88,1.54.17.17,0,0,0,0,.1.4.4,0,0,0-.09.22,5.65,5.65,0,0,0,0,2.13h0a.43.43,0,0,0,0,.16,8.3,8.3,0,0,0,.76,1.79.36.36,0,0,0,.07.1s0,0,0,.06a2.7,2.7,0,0,0,.65.92c.28.3.59.55.86.85a.29.29,0,0,0,.22.11l0,0a3.58,3.58,0,0,0,.56.4c.18.1.34.23.51.33a.4.4,0,0,0,.23.05,1.11,1.11,0,0,0,.31.15c.11,0,.24,0,.35.1a.88.88,0,0,0,.21.12.5.5,0,0,0,.27,0h0s0,0,0,0a2.29,2.29,0,0,0,.59.12.37.37,0,0,0,.18,0,6.16,6.16,0,0,0,1,0,11.37,11.37,0,0,0,1.18-.32.28.28,0,0,0,.22-.13.35.35,0,0,0,.21-.07,5.61,5.61,0,0,0,1-.93l.06-.08a.52.52,0,0,0,.1-.11A4.79,4.79,0,0,0,19,30.77a.2.2,0,0,0,0-.11A4.53,4.53,0,0,0,18.45,28.11ZM18,30.78a.43.43,0,0,0-.05.12A6.37,6.37,0,0,1,17.6,32a.34.34,0,0,0-.1.13,3.37,3.37,0,0,1-.21.31.39.39,0,0,0-.08.14l0,0c-.12.12-.29.21-.42.33a4.35,4.35,0,0,1-.42.33l-.09.08h-.14c-.23.06-.48.27-.73.27a.36.36,0,0,0-.23.08.3.3,0,0,0-.16,0c-.43.12-.89-.13-1.32-.08a.41.41,0,0,0-.28-.13c-.25,0-.43-.23-.69-.23h-.08a.32.32,0,0,0-.12-.11q-.54-.3-1-.63h0c-.08-.24-.39-.45-.58-.63a.33.33,0,0,0-.08-.17,3.8,3.8,0,0,0-.47-.53.36.36,0,0,0,0-.09L10,30.67l0-.07a.25.25,0,0,1,0-.07.3.3,0,0,0,0-.21c-.11-.37-.25-.73-.38-1.09a.37.37,0,0,0,0-.21c0-.2-.06-.4-.1-.6a.38.38,0,0,0,.07-.21,4.19,4.19,0,0,1,.21-1.11c.08-.21.18-.4.27-.59a.35.35,0,0,0,.17-.15c.13-.18.28-.35.42-.52a.35.35,0,0,0,.24-.12,2,2,0,0,1,1.1-.52c.31-.09.63-.1.94-.17a.27.27,0,0,0,.17.06,3,3,0,0,1,.9.09l.4.1.42.21a.37.37,0,0,0,.21,0,.25.25,0,0,0,.08.1c.42.35.86.65,1.27,1l.12.17a4,4,0,0,0,.54.55.48.48,0,0,0,0,.2,5.16,5.16,0,0,1,.43.71c.11.32.2.64.33,1a.35.35,0,0,0,.06.09,5,5,0,0,0,.07.56A.38.38,0,0,0,18,30a3.3,3.3,0,0,1,0,.62A.51.51,0,0,0,18,30.78Z"/><path class="cls-5" d="M18.67,12.53a.33.33,0,0,0-.14-.56,2.58,2.58,0,0,1-.63-.2,2.61,2.61,0,0,1-.52-.41,3.78,3.78,0,0,1-.86-1A6.28,6.28,0,0,1,16.11,9,3.11,3.11,0,0,1,16,7.72a.33.33,0,0,0-.41-.39l-1.27.29h-.15l-.18,0a.24.24,0,0,0-.13.07H13.8a1.89,1.89,0,0,0-.52.13,1.12,1.12,0,0,1-.44.09.27.27,0,0,0-.24.2,8.22,8.22,0,0,0-.12,1.1,1.93,1.93,0,0,0,.19.89h0a1.55,1.55,0,0,0-.42.12.52.52,0,0,0-.23.47.84.84,0,0,0,.08.56.47.47,0,0,0,.39.22l.12.05a.74.74,0,0,0,.48-.1l.12-.07a1,1,0,0,0,.05.16h0a.07.07,0,0,0,0,0s0,0,0,0l0,0,.06,0a.51.51,0,0,0,.29.1l.09,0a.46.46,0,0,0,.3,0l.64-.32.16-.08a3.88,3.88,0,0,1-.12.51c-.08.27-.32.43-.45.68,0,0,0,0-.06,0a.26.26,0,0,0-.28.39c.3.48.65,1.15,1.29,1.19a2,2,0,0,0,.82-.17,1.38,1.38,0,0,0,.36-.23h0l.2.12s.22,0,.24,0l.06.05.05,0c0,.15.37.15.52.09a.71.71,0,0,0,.29-.14c.13-.1.43-.22.55-.33a.44.44,0,0,0,.16-.22l0,0s.07-.1.06-.08a.3.3,0,0,1,.12,0A2.44,2.44,0,0,0,18.67,12.53Z"/><path class="cls-5" d="M18.4,8.93a.63.63,0,0,0-.6-.58c-.13,0-.33,0-.43.07s-.05.32,0,.45l0,.09s0,.07,0,.11,0,.3,0,.45c0,.32,0,.64-.06,1a.2.2,0,1,0,.39,0A1.39,1.39,0,0,1,18,9.72a1.87,1.87,0,0,0,.28-.35A.75.75,0,0,0,18.4,8.93Z"/><path class="cls-5" d="M15.85,17.62a1.52,1.52,0,0,1-.6,0,4.85,4.85,0,0,0-.66,0,4.43,4.43,0,0,0-1.26.05l-.08.05a.16.16,0,0,0-.18,0,1.33,1.33,0,0,0-.32.61.14.14,0,0,0,0,.11c0,.12-.1.24-.14.37a.38.38,0,0,0,.41.52.19.19,0,0,0,.09,0,.52.52,0,0,0,.15.27.56.56,0,0,0,.43.12l.17,0s0,0,0,0a.07.07,0,0,0,0,.05l0,.07v0A.1.1,0,0,1,14,20L14,20l.07,0h.09a.18.18,0,0,0,.1.07.17.17,0,0,0,.14,0h0l.14,0h.06a.09.09,0,0,0,.07,0,.06.06,0,0,0,0-.09.05.05,0,0,0-.08,0h-.1a.91.91,0,0,0,0-.23.49.49,0,0,0,0-.12.53.53,0,0,0,0-.22,1.32,1.32,0,0,0,.81-.05,1,1,0,0,0,.3-.27,1.62,1.62,0,0,0,.1-.18.36.36,0,0,0,0-.1h.09a.2.2,0,0,0,.18-.25,1.64,1.64,0,0,1,0-.66A.19.19,0,0,0,15.85,17.62Z"/><path class="cls-4" d="M30,25.11,29.82,25h0a.22.22,0,0,0-.05-.11.32.32,0,0,0-.35-.12.72.72,0,0,0-.34.25.2.2,0,0,0-.08,0l-.07.05h0l0,0-.11.12a3.3,3.3,0,0,0-.3.43l-.07,0a.34.34,0,0,0-.12.12h0l0,.08h0a.13.13,0,0,0,0,.06,2.36,2.36,0,0,0-.42.78.33.33,0,0,0,0,.22.54.54,0,0,0-.1.3.34.34,0,0,0,.35.37h.23a.32.32,0,0,0,.37-.15l0-.05.05-.07a1.55,1.55,0,0,0,.08-.23h0a3,3,0,0,1,.16-.3l.31-.5a2.27,2.27,0,0,1,.68-.7A.33.33,0,0,0,30,25.11Z"/><path class="cls-4" d="M38.11,29.88c-.06-.33-.13-.67-.22-1a4.29,4.29,0,0,0-.33-.93,4.9,4.9,0,0,0-.48-.79A.3.3,0,0,0,37,27a3,3,0,0,1-.43-.56,5.78,5.78,0,0,0-.52-.59c-.19-.18-.38-.34-.58-.5a2.25,2.25,0,0,0-.61-.41l-.06,0a7.08,7.08,0,0,0-2.14-.75A4.82,4.82,0,0,0,31.51,24a3.13,3.13,0,0,0-1.18.22l-.06.05a.33.33,0,0,0-.27.55.52.52,0,0,1,.13.28.33.33,0,0,0,.48.2,2.17,2.17,0,0,1,.41-.19l.56-.12a.22.22,0,0,0,.17.05,4.48,4.48,0,0,1,2,.32,7.77,7.77,0,0,1,1.73,1.09.29.29,0,0,0,.09.15,5.19,5.19,0,0,1,1.17,1.79,4.84,4.84,0,0,1,.4,2.25.28.28,0,0,0,0,.09A.49.49,0,0,0,37,31a2.23,2.23,0,0,1-.05.36,4.21,4.21,0,0,1-.73,1.37h0a.19.19,0,0,0-.11.07l-.2.18-.1.09,0,0,0,0a1.18,1.18,0,0,1-.42.21,9.36,9.36,0,0,0-1.09.39.25.25,0,0,0-.12,0,3.42,3.42,0,0,1-.64,0,1.53,1.53,0,0,0-.6,0,.35.35,0,0,0-.18-.05.92.92,0,0,1-.38-.11l-.51-.25L31.33,33l-.2-.09h0a3.89,3.89,0,0,0-.48-.43l-.16-.13s0,0,0,0l-.06-.05a1.45,1.45,0,0,1-.22-.21l-.08-.1,0,0,0,0c-.07-.09-.13-.18-.2-.26a1.82,1.82,0,0,0-.34-.34c-.12-.26-.24-.53-.35-.8a.34.34,0,0,0-.2-.15.36.36,0,0,0-.25,0l0,0h0a.35.35,0,0,0-.4-.05.43.43,0,0,0-.11.12.32.32,0,0,0,0,.25,2.64,2.64,0,0,0,.2.37,3.46,3.46,0,0,0,.22.31l.48.64a.29.29,0,0,0,.14.13l.07.1a3.62,3.62,0,0,0,.49.54.43.43,0,0,0,.15.21l.64.47.06,0a1.13,1.13,0,0,0,.37.28c.21.1.42.2.62.32a4.12,4.12,0,0,0,.67.32,1.34,1.34,0,0,0,.78.14h0a2.24,2.24,0,0,0,.85.15.28.28,0,0,0,.18-.06h.08a3.66,3.66,0,0,0,1-.05,3.93,3.93,0,0,0,1.65-.93.4.4,0,0,0,.15-.19h0a.67.67,0,0,0,.23-.27l0,0,.08-.09a4.11,4.11,0,0,0,.57-1.1,7.86,7.86,0,0,0,.25-1.17v-.13A1.75,1.75,0,0,0,38.11,29.88Z"/><path class="cls-2" d="M14.36,9.61a2.8,2.8,0,0,0-.25-.41A.79.79,0,0,0,13.68,9a.4.4,0,0,0-.3,0,.7.7,0,0,0-.17.13.76.76,0,0,0-.2.36.85.85,0,0,0,0,.42s0,0,0,0a.22.22,0,0,0,.09.12.19.19,0,0,0,.15,0,.18.18,0,0,0,.1-.07l.2,0,.11,0h.07l.44,0A.19.19,0,0,0,14.36,9.61Z"/><path class="cls-2" d="M15.29,11a.13.13,0,0,0-.23-.09,2.14,2.14,0,0,1-.32.28h-.11s-.05,0-.07,0a.24.24,0,0,0-.08.09l-.13,0a2.32,2.32,0,0,1-.36.16.89.89,0,0,0-.31.11.13.13,0,0,0-.21.13l.33.83a.14.14,0,0,0,.2.07,3.43,3.43,0,0,0,.9-.66A1.52,1.52,0,0,0,15.29,11Z"/><path class="cls-5" d="M14.19,28.58h0a.16.16,0,0,0,.1,0l.09,0,0-.06a.28.28,0,0,0,0-.13v-.07a.09.09,0,0,0,0-.06.11.11,0,0,0,0-.07,3.55,3.55,0,0,1,.2-.63c.07-.19.11-.4.17-.59a8.92,8.92,0,0,0,.42-1.23.11.11,0,0,0,0-.08l.08-.15a.23.23,0,0,0,0-.16,2.47,2.47,0,0,0,.1-.29l.06-.23,0,0h0a.37.37,0,0,0,.08-.18v-.05a1.28,1.28,0,0,0,.05-.27s0,0,.05-.07c.11-.31.21-.62.31-.93l.06,0h.06l.51.57a.2.2,0,0,0,.19.08l0,.05a10.27,10.27,0,0,0,.78.7.27.27,0,0,0,.1.06,3.45,3.45,0,0,1,.28.26.35.35,0,0,0,.05.08l4,3.73c.25.23.62-.14.37-.37L18.83,25h0a1.37,1.37,0,0,0-.17-.17c-.27-.28-.55-.54-.84-.79a10.07,10.07,0,0,0-1.09-1h0a.1.1,0,0,0-.05,0l0,0-.21-.23-.08-.06v0a.19.19,0,0,0-.09-.11l0,0,0,0a.07.07,0,0,0,0-.06,10.11,10.11,0,0,0,.43-1.35.43.43,0,0,0,.17.06.17.17,0,0,0,.14-.05,9.93,9.93,0,0,0,1.54.07,6.22,6.22,0,0,1,.86-.06,4.13,4.13,0,0,0,.86,0c.13,0,.27-.15.17-.29s-.11-.25-.27-.29a2.51,2.51,0,0,0-.55,0c-.4,0-.81,0-1.22,0s-.79,0-1.19,0a2.08,2.08,0,0,0-.25,0h0c0-.13,0-.26,0-.39a5,5,0,0,1,0-.77.14.14,0,0,0-.17-.13.8.8,0,0,1-.31,0,.14.14,0,0,0-.13.13c0,.16,0,.31,0,.46a.13.13,0,0,0,0,.08l0,.34v0h0l0,.13a1.25,1.25,0,0,0-.07.26.13.13,0,0,0,0,.12.12.12,0,0,0,.1.05h.13a10.11,10.11,0,0,1-.55,1.69.14.14,0,0,0,0,.15l-.09.14,0,.09a.24.24,0,0,0,0,.12l0,.05-.29.89a.24.24,0,0,0-.28.06.89.89,0,0,0-.18.38L15,24.8a1.9,1.9,0,0,1-.12.36h0l0,0s0,.08-.05.13,0,.12-.08.19a.25.25,0,0,0,0,.08,2.92,2.92,0,0,0-.19.49.27.27,0,0,0,0,.18c-.06.16-.13.31-.18.48s-.11.4-.18.59-.06.19-.1.28a.24.24,0,0,0-.07.12s0,.05,0,.09a.31.31,0,0,0,0,.19s0,0-.05,0a.31.31,0,0,0,0,.13.25.25,0,0,0,.09.2"/><path class="cls-6" d="M13.9,28.41a.82.82,0,0,0-.78.18.61.61,0,0,0-.07.78.6.6,0,0,0,.61.54.64.64,0,0,0,.73-.1.55.55,0,0,0,.15-.49.14.14,0,0,0,0-.09V29.1a.3.3,0,0,0-.16-.25,1.35,1.35,0,0,0-.2-.27"/><path class="cls-1" d="M16.92,16.85a.58.58,0,0,0-.06-.26.27.27,0,0,0-.25-.14h-.06l0,0h-.09l-.48,0a4.36,4.36,0,0,0-.51,0,.19.19,0,0,0-.19.2v.14a.21.21,0,0,0,.2.2l.89,0a.16.16,0,0,0,.05.14.18.18,0,0,0,.23,0,.18.18,0,0,0,.17,0,.18.18,0,0,0,.14-.19A1,1,0,0,0,16.92,16.85Z"/><path class="cls-3" d="M14.37,7.18c-.24-.22-.44-.48-.66-.71a1.07,1.07,0,0,0-1-.35.72.72,0,0,0-.58.72,2.87,2.87,0,0,0,.07.5,3.17,3.17,0,0,0,.14.4.49.49,0,0,0,0,.11.29.29,0,0,0,.35.11l0,0A.22.22,0,0,0,13,8a4.25,4.25,0,0,1,1.19-.3A.28.28,0,0,0,14.37,7.18Z"/><path class="cls-7" d="M14.91,8.86a1.69,1.69,0,0,1-.15-.43.78.78,0,0,1,0-.22.41.41,0,0,1,0-.22.78.78,0,0,0,0-.21.34.34,0,0,0,0-.2c0-.06-.1,0-.15,0l0,0a.15.15,0,0,0-.09,0s0,0,0,0l0,0c-.06,0-.13,0-.09.09a2.85,2.85,0,0,1,.19.63,1.35,1.35,0,0,0,.31.59C14.86,9,14.94,8.92,14.91,8.86Z"/><path class="cls-7" d="M24.12,6.88,24,6.9a.25.25,0,0,1-.14,0,.12.12,0,0,0-.13,0l-.42-.13h0c-.34-.14-.64-.33-1-.49a3.54,3.54,0,0,0-1.42-.42,1.82,1.82,0,0,0-1.29.28,1.27,1.27,0,0,0-.47.73l-.25-.06a.31.31,0,0,0-.23,0,.2.2,0,0,0-.19-.14.41.41,0,0,0-.16,0,4.56,4.56,0,0,0-.53.13A4.14,4.14,0,0,1,17.1,7a.18.18,0,0,0-.16.09l-.27,0a1.92,1.92,0,0,0-.88.2c-.16.09-.14.22-.1.39l0,.21a.26.26,0,0,0-.06.26.61.61,0,0,0,.05.12,2.75,2.75,0,0,1,.11.41s0,.06,0,.09a.28.28,0,0,0,.09.19h0a3.58,3.58,0,0,0,.23.77,4,4,0,0,0,.49.85c.2.25.38.51.58.76a5.15,5.15,0,0,0,.67.65c.21.18.53.44.83.36l.07,0s0,0,0-.06L19,12a1.15,1.15,0,0,1,.14-.17.58.58,0,0,1,.15-.11v0a4.52,4.52,0,0,0,.2-1,6.76,6.76,0,0,0-.12-1.85,1.69,1.69,0,0,0-.07-.38.3.3,0,0,0-.07-.11l0-.14a.29.29,0,0,0,0-.13v0a.53.53,0,0,0,0-.12l.09-.1a.89.89,0,0,0,.21-.38,2,2,0,0,0,1-.08,3.38,3.38,0,0,1,1.11-.33,7,7,0,0,0,.8,0,2.89,2.89,0,0,0,.59.08,4,4,0,0,0,.6,0,.21.21,0,0,0,.14,0l.33,0a.46.46,0,0,0,.19,0C24.37,7.09,24.29,6.85,24.12,6.88ZM17.87,10a1.21,1.21,0,0,0-.18.44c0,.09-.1.24-.2.28h0a3.22,3.22,0,0,0,0-.62c0-.24-.05-.48-.06-.73s0-.63,0-.95h.09a.82.82,0,0,1,.41-.06.43.43,0,0,1,.3.22.92.92,0,0,1,.22.8C18.31,9.63,18.05,9.79,17.87,10Z"/><polygon class="cls-8" points="15.49 23.98 9.86 23.98 8.59 20.87 16.49 20.87 15.49 23.98"/><path class="cls-7" d="M12.44,23.49c-.22-.62-.5-1.22-.71-1.85,0,0,0-.05,0-.07a1.09,1.09,0,0,1-.08-.15,3.76,3.76,0,0,1-.23-.55H8.59L9.86,24h2.75C12.55,23.82,12.5,23.65,12.44,23.49Z"/><path class="cls-2" d="M29.12,12.52a1.53,1.53,0,0,0-.46-.38c-.18-.13-.36-.26-.54-.37a9.77,9.77,0,0,0-2.23-1,10.15,10.15,0,0,0-2.49-.53,7,7,0,0,0-2.46.29,3.19,3.19,0,0,0-2,1.14.11.11,0,0,1,0,.08,2.32,2.32,0,0,0-.13.37.21.21,0,0,1-.1.14,2.82,2.82,0,0,1-.08.65.37.37,0,0,1,.07.34v0a.18.18,0,0,0-.23,0l-.05.06,0,0,0,0h0l0,0-.06,0-.3.19-.13.11-.06.05h0l0,0-.06,0-.05,0h0l-.07,0h-.06a.19.19,0,0,0-.2.2.2.2,0,0,0,.2.21.85.85,0,0,0,.39-.12l-.19.17.4.19.17.05h.2a.32.32,0,0,1,.14,0,.22.22,0,0,0-.12.18l0,1.49v.47c-.21,0-.42.07-.63.09s-.26,0-.39,0a1.24,1.24,0,0,0-.38.09.13.13,0,0,0-.09.17.12.12,0,0,0,.16.09,1,1,0,0,1,.34-.08c.13,0,.26,0,.39,0s.46-.09.69-.1a.26.26,0,0,0,.28,0v.08a3.85,3.85,0,0,0-.48,0l-.6,0a.28.28,0,0,0-.16.05l-1.21.07c-.13,0-.29.12-.27.27a4.86,4.86,0,0,1,0,1.32.27.27,0,0,0,.19.33h.07a.3.3,0,0,0,.21,0,9.05,9.05,0,0,1,1.88-.09c.32,0,.63-.09.95-.11a1.17,1.17,0,0,0,.82-.17,1.29,1.29,0,0,0,.29-.75c.06-.32.11-.64.16-1s.08-.64.1-1c0-.1,0-.21,0-.31l0,0h0a1.14,1.14,0,0,0,.07-.33,1.23,1.23,0,0,0,0-.2h.05a5.91,5.91,0,0,0,1,.23,7.89,7.89,0,0,1,1,.23c.52.14,1.05.22,1.57.37H25a.33.33,0,0,0,.12,0,5.5,5.5,0,0,0,3.19-1.55h.09c.23-.07.42-.32.33-.51.06-.09.07-.14.14-.23s0-.09,0-.12l.1-.17a.24.24,0,0,0,0-.18l.11-.32C29.16,12.89,29.24,12.7,29.12,12.52Z"/><path class="cls-9" d="M30.69,14.56a5.21,5.21,0,0,0-.47-.83c-.16-.23-.29-.58-.55-.71l-.06,0h0l-.2-.33a.13.13,0,0,0-.17-.05.14.14,0,0,0-.07.16v.06s0,.07,0,.1v.12a.19.19,0,0,0-.05.09c0,.12-.06.25-.1.37s-.05.12-.07.17l0,.09,0,0c0-.05,0,0,0,0v0a.18.18,0,0,0,0,.07l-.16.26,0,0,0,0-.11.12a4.44,4.44,0,0,1-.44.43c-.16.14-.31.27-.48.4h0l-.07,0-.12.08-.15.09-.06,0s-.1,0,0,0a.36.36,0,0,0-.19.15l-.28.13-.2.1h0a.34.34,0,0,0-.17.05l-.07.05h0c-.33.1-.68.16-1,.24a1.73,1.73,0,0,0-.49.15,5.37,5.37,0,0,0-.45.35l-.85.67-.1,0a3.92,3.92,0,0,0-.58.39c-.16.13-.3.28-.45.41s-.07.05,0,0l0,0-.12.08-.26.16a1.56,1.56,0,0,0-.41.36.2.2,0,0,0-.15,0,2.43,2.43,0,0,0-.61.63,1.61,1.61,0,0,0-.37.83,1.93,1.93,0,0,0,.05.47,1.73,1.73,0,0,0,.1.45,6.81,6.81,0,0,0,.56.84h0a1.27,1.27,0,0,0-.29.55,2,2,0,0,0-.1.64c0,.45.13.89.17,1.33a.17.17,0,0,0,.07.14c.08.59.17,1.18.26,1.77a1.06,1.06,0,0,0,.29.72l.66.59a.87.87,0,0,0,.22.17v0a.07.07,0,0,0,.08.05.06.06,0,0,0,.06-.06v0c.1,0,.16-.14.22-.23a8.3,8.3,0,0,1,.5-.71,1.07,1.07,0,0,1,.25-.22.34.34,0,0,0,.12-.33c0-.32,0-.63,0-.94a.22.22,0,0,0-.05-.14s.05,0,.09,0a13.7,13.7,0,0,1,1.42-.28.11.11,0,0,0,.08-.08,1.76,1.76,0,0,0,.56,0c.11,0,.12-.15.06-.23l-.12-.14a.14.14,0,0,0,0-.09,1.09,1.09,0,0,0-.08-.15l-.07-.11a1.22,1.22,0,0,1-.12-.19s0,0,0,0a.18.18,0,0,0-.16-.15,6.8,6.8,0,0,1-.38-.7c-.16-.3-.33-.58-.51-.87-.33-.52-.67-1.05-.95-1.6l.07,0,.21-.1.1,0a.3.3,0,0,0,.08-.08c.21,0,.41-.05.62-.06.45,0,.89,0,1.33.05a.8.8,0,0,0,.51-.09.84.84,0,0,0,.15-.18c.06-.06.14-.09.2-.15s.14-.33,0-.42l-.08,0,.11,0h0l.08,0,.15,0c.11,0,.23,0,.34-.06a.32.32,0,0,0,.2-.16h0a6.42,6.42,0,0,0,.86-.23,6.58,6.58,0,0,0,1.28-.62,3.74,3.74,0,0,0,.55-.41c.15-.15.32-.28.49-.42a1.16,1.16,0,0,0,.4-1.08.33.33,0,0,0,.12-.23A3.6,3.6,0,0,0,30.69,14.56Z"/><path class="cls-9" d="M22.68,30.28a2.2,2.2,0,0,1-.24-.38,1.19,1.19,0,0,1,0-.42,1.62,1.62,0,0,0,0-.22.28.28,0,0,0-.11-.15.77.77,0,0,1-.22-.31.14.14,0,0,0-.13-.1.39.39,0,0,1-.08-.1l-.12-.12-.22-.27a.14.14,0,0,0-.23.14,5.25,5.25,0,0,1,.22,1c.05.33.06.66.13,1v0h0v.06a.13.13,0,0,0,0,.08.17.17,0,0,0,.08.09.21.21,0,0,0,.25,0l.05-.05h.16a.83.83,0,0,0,.22,0h0l.06,0C22.61,30.51,22.76,30.4,22.68,30.28Z"/><polygon class="cls-1" points="25.81 27.84 25.8 27.84 25.81 27.84 25.81 27.84"/><path class="cls-1" d="M26.18,27.72a.12.12,0,0,0-.17,0h0l-.1.05-.08.05h0l0,0a.51.51,0,0,0-.33.22,0,0,0,0,0,0,0,.21.21,0,0,0-.13.07l-.18.17-.14.18,0,0a.29.29,0,0,0-.08.14.5.5,0,0,0-.21,0h0l-.11.05a.2.2,0,0,0-.09.07h0a.49.49,0,0,0-.11.2h0a.6.6,0,0,0,0,.12.63.63,0,0,0,0,.19.39.39,0,0,0,.08.14.36.36,0,0,0,.11.1.42.42,0,0,0,.25.05H25a.43.43,0,0,0,.2-.11.48.48,0,0,0,.13-.34.25.25,0,0,0,0-.12,0,0,0,0,0,0,0,.43.43,0,0,1,0-.05l.06,0,.11-.14.11-.12.13-.14a.26.26,0,0,0,.07-.11s0,0,0,0a5.41,5.41,0,0,1,.44-.5h0l0,0A.15.15,0,0,0,26.18,27.72Z"/><path class="cls-1" d="M23.39,31.1a.18.18,0,0,1-.13-.09A.13.13,0,0,0,23,31c-.22.39-.58.66-.81,1v0l-.06,0a.14.14,0,0,0,0,.27h.23a.46.46,0,0,0,.23-.06,4,4,0,0,0,.28-.3c.18-.22.33-.46.52-.67A.15.15,0,0,0,23.39,31.1Z"/><path class="cls-10" d="M22.93,30.67c-.1,0-.13-.15-.25-.19s-.23,0-.34,0a.21.21,0,0,0-.25.25,1.21,1.21,0,0,1,.05.14,3.69,3.69,0,0,0-1.05,0,1.68,1.68,0,0,0-.55.11,1.59,1.59,0,0,0-.22.13,1.2,1.2,0,0,1-.27.08,1.53,1.53,0,0,0-.8.59c-.1.13-.25.28-.22.46a.31.31,0,0,0,.39.19,1.08,1.08,0,0,0,.31,0h.37l.36,0c.12,0,.23,0,.35,0h.38a1.53,1.53,0,0,0,.43,0l.08,0h0a.35.35,0,0,0,.33-.15,1.71,1.71,0,0,0,.22-.25c.12-.16.21-.32.34-.47a5.27,5.27,0,0,0,.43-.51A.21.21,0,0,0,22.93,30.67Z"/><path class="cls-10" d="M23.84,31.82l-.09-.19a.72.72,0,0,1,0-.19.14.14,0,0,0-.08-.16.15.15,0,0,0-.17.06c-.11.15-.2.33-.32.48A1.68,1.68,0,0,1,23,32h0l0,0h0c-.05,0-.12.06-.16.11a.13.13,0,0,0,0,.19.14.14,0,0,0,.19,0h.42c.15,0,.34,0,.45-.09S23.89,32,23.84,31.82Z"/><path class="cls-10" d="M26.73,26.41a2.25,2.25,0,0,0-.58-.57,1.57,1.57,0,0,0-.33-.19.5.5,0,0,1-.24-.26c-.14-.22-.3-.34-.56-.25a2,2,0,0,1-.89.16c-.22,0-.26.28-.11.38a4.59,4.59,0,0,1,.44.33l.22.19h0a4.37,4.37,0,0,0-1.77,1.05,2.64,2.64,0,0,0-.57.92c-.11.3-.29.84.11,1a.17.17,0,0,0,.12,0,.17.17,0,0,0,.14,0,15.34,15.34,0,0,0,2.08-1.29c.64-.44,1.46-.59,1.94-1.24A.2.2,0,0,0,26.73,26.41Z"/><path class="cls-11" d="M22.08,30.57s0,0,0,0h-.13s0,0,0,0v0a0,0,0,0,0,0,0h0s0,0,0,0l0,0H22a0,0,0,0,0,0,0,0,0,0,0,0,0,0v0Z"/><path class="cls-5" d="M41.18,28.64h0v-.06a.07.07,0,0,0,0-.06v-.28a.3.3,0,0,0-.06-.14,6.34,6.34,0,0,0-.13-.78c-.06-.25-.15-.49-.2-.73,0-.08,0-.15,0-.23s0-.05,0-.09a8,8,0,0,0-5-4.92,10.13,10.13,0,0,0-2-.5.2.2,0,0,0-.14-.06l-.59,0a3,3,0,0,0-.94-.1.21.21,0,0,0-.13.05l-.68,0a4.64,4.64,0,0,0-.53,0,5.27,5.27,0,0,1-.56,0,9.48,9.48,0,0,0-1.19-.05l-.07,0a.2.2,0,0,0-.08,0,2.29,2.29,0,0,0-.69,0,3.64,3.64,0,0,1-.66,0,.25.25,0,0,0-.19.09l-.08,0a.28.28,0,0,0,0-.13,1.29,1.29,0,0,1,0-.19,1.93,1.93,0,0,1,0-.34l0-.13a.24.24,0,0,0,0-.2.22.22,0,0,0-.15-.12.26.26,0,0,0-.32.18,1.07,1.07,0,0,0-.06.47l0,.25,0,.16h-.92l-2,0a1.39,1.39,0,0,1-.28.12.28.28,0,0,1-.13,0,.84.84,0,0,1,0,.12l.06.11,0,.05a.47.47,0,0,1,.06.09l1.82,0H26.6a0,0,0,0,0,0,0,5.59,5.59,0,0,1-.37.91s0,0,0,0c-.1.18-.18.37-.27.56l-.27.61a.25.25,0,0,0-.13.12,5.32,5.32,0,0,0-.3.69s0,.08,0,.12a.13.13,0,0,1,.06.07,2.79,2.79,0,0,0,.24.45l.07.07h0a.24.24,0,0,0,.07-.12.13.13,0,0,0,0-.06.28.28,0,0,0,.14-.16,14.47,14.47,0,0,1,.67-1.64q.16-.36.36-.72a2.64,2.64,0,0,0,.25-.66,2,2,0,0,0,.3.42l0,0a1,1,0,0,0,.08.14l.17.24a.23.23,0,0,0,0,.16q.52.77,1.11,1.5a.31.31,0,0,0,.09.07l.17.28c.37.62.81,1.2,1.22,1.79l0,0a.09.09,0,0,0,0,.07c.38.56.78,1.11,1.19,1.64l-.2,0h0l-2.11-.29a5.85,5.85,0,0,0-2-.08c-.59.14-1.17.37-1.76.53-.33.09-.68.16-1,.24s-.56.29-.84.44a5.14,5.14,0,0,1-1,.56.33.33,0,0,1-.14,0,2.12,2.12,0,0,0,2.12,2.27c1.73-.15,3.44-.36,5.17-.6l.14-.06h.06A13.54,13.54,0,0,0,32,30.6a4.43,4.43,0,0,0,1.64-.31A1.22,1.22,0,0,0,34,28.35a.51.51,0,0,0-.15-.14l-.17-.1c-.09,0-.19-.11-.27-.1a6.28,6.28,0,0,0-1.24-.18.38.38,0,0,0-.06-.13c-.47-.6-.92-1.21-1.34-1.83l0,0,0-.08c-.39-.54-.8-1.08-1.15-1.65-.17-.28-.32-.57-.49-.85a6.13,6.13,0,0,0-.57-.77,8.84,8.84,0,0,1-.6-.77,6.38,6.38,0,0,1-.32-.57l.4,0h.48l.1,0a.32.32,0,0,0,.29-.1,9,9,0,0,1,1.16,0,2.63,2.63,0,0,0,.56,0,3.47,3.47,0,0,1,.56,0l1.69.07h.07l.46,0,.08.05a8.56,8.56,0,0,1,6,3.43,6.29,6.29,0,0,1,.73,1.41.25.25,0,0,0,.06.16h0c0,.05,0,.09,0,.13h0c0,.05,0,.09,0,.12a1.59,1.59,0,0,0,.06.3c.06.23.13.45.18.67a7.76,7.76,0,0,1,.13.82.34.34,0,0,0,0,.1l0,.26H39.15V32H52.07V28.64Z"/><rect class="cls-11" x="40.68" y="28.32" width="0.51" height="0.28"/><polygon class="cls-11" points="27.57 21.16 27.27 20.67 27.74 20.66 28.03 21.12 27.57 21.16"/><path class="cls-1" d="M26.16,27.75a.13.13,0,0,0-.19,0,.45.45,0,0,1-.27.14.19.19,0,0,0-.23.09l0,0h0a1.4,1.4,0,0,1-.1.16l0,.05v0a.6.6,0,0,1-.08.08l-.16.15a.71.71,0,0,0-.15.15h0l0,0s0,0,0,0h-.05l-.13,0-.12.05h0l-.08.06-.08.1a.45.45,0,0,0-.06.12s0,.09,0,.13v0s0,0,0,.06a.13.13,0,0,0,0,.06.61.61,0,0,0,.05.12.22.22,0,0,0,.09.1.24.24,0,0,0,.11.06h.05l.07,0h.22l.1,0,0,0,.1-.08.06-.08v0a.3.3,0,0,0,0-.1.43.43,0,0,0,0-.11.57.57,0,0,0,0-.13l0-.08.92-1A.13.13,0,0,0,26.16,27.75Z"/><path class="cls-12" d="M27.27,20.64h4.46c.17,0,4.36-.08,7.13,2.58a7.82,7.82,0,0,1,2.34,5.43"/><path class="cls-12" d="M40.7,28.64a7.39,7.39,0,0,0-2.18-5.09c-2.63-2.51-6.74-2.43-6.78-2.43H27.61"/><rect class="cls-12" x="39.22" y="28.64" width="12.84" height="3.38"/><circle class="cls-13" cx="47.6" cy="31.99" r="2.71"/><ellipse class="cls-1" cx="47.6" cy="31.99" rx="1.85" ry="1.86"/><path class="cls-12" d="M24.62,31.43a2.2,2.2,0,0,1-2.24-2.2"/><path class="cls-12" d="M33.24,27.94a1.25,1.25,0,0,1,0,2.5"/><line class="cls-12" x1="33.28" y1="27.94" x2="27.42" y2="27.27"/><line class="cls-12" x1="24.62" y1="31.43" x2="33.28" y2="30.44"/><polygon class="cls-12" points="15.49 23.98 9.86 23.98 8.59 20.87 16.49 20.87 15.49 23.98"/><line class="cls-12" x1="12.59" y1="23.98" x2="11.39" y2="20.87"/><line class="cls-12" x1="13.62" y1="23.98" x2="12.59" y2="23.98"/><path class="cls-12" d="M15.58,24.85A6.81,6.81,0,0,1,19,30.49a4.13,4.13,0,0,1-5.25,4.14,6.85,6.85,0,0,1-5.25-6.37,4.12,4.12,0,0,1,5.25-4.14,6.45,6.45,0,0,1,1.22.4"/><path class="cls-12" d="M15.27,25.77A5.48,5.48,0,0,1,18,30.27a3.32,3.32,0,0,1-4.23,3.32,5.51,5.51,0,0,1-4.22-5.11,3.31,3.31,0,0,1,4.22-3.32,4.72,4.72,0,0,1,.92.3"/><path class="cls-12" d="M14.19,28.58a1.07,1.07,0,0,1,.42.8.64.64,0,0,1-.84.63,1.08,1.08,0,0,1-.84-1,.65.65,0,0,1,.84-.63l.07,0"/><path class="cls-14" d="M13.8,28.8a.51.51,0,0,1,.36.46.31.31,0,0,1-.39.31.51.51,0,0,1-.38-.48.3.3,0,0,1,.38-.3h0"/><path class="cls-12" d="M28.82,27.39A3.15,3.15,0,0,1,30,25.72"/><path class="cls-12" d="M30.53,25.38a3.79,3.79,0,0,1,2.36-.22,5.5,5.5,0,0,1,4.23,5.11,3.32,3.32,0,0,1-4.23,3.32,5.55,5.55,0,0,1-3.52-2.65"/><path class="cls-12" d="M27.74,27.28a4,4,0,0,1,1.56-2.5"/><path class="cls-12" d="M29.9,24.42a4.59,4.59,0,0,1,3-.3,6.85,6.85,0,0,1,5.26,6.37,4.13,4.13,0,0,1-5.26,4.14A6.92,6.92,0,0,1,28.35,31"/><path class="cls-12" d="M16.94,20.57a.27.27,0,0,0-.12.14"/><path class="cls-12" d="M16.71,21.17a.25.25,0,0,1,0-.13"/><path class="cls-12" d="M16.33,20.37a.54.54,0,0,1,.16.09"/><path class="cls-12" d="M27.09,21.48a.39.39,0,0,0,0-.16"/><path class="cls-12" d="M16.33,19.3v1.07l-.15.47m.15-3.72v.14m.6,0v-.56m3.27,3.9H16.94V19.29m15.23,8.48L27.28,20.7h0l0,0,0,0,0,0h0l0,0v-.8h-.54v.79H24m-9.66,8.08,1.74-5.43,6.1,5.61m-7-4.83-1.4,4.36m9.72-7.19h3.07l-1.34,3m-2.9,4c-4.56-4.2-5.73-5.27-6.07-5.56l.46-1.43h3.61m5.27,3.61,1.5-3.3,4.29,6.23"/><path class="cls-12" d="M28,19.2a1,1,0,0,1-.83.57h-.83"/><path class="cls-12" d="M27.1,20.58a.33.33,0,0,1-.13,0"/><path class="cls-12" d="M26.56,21.17a.68.68,0,0,0,.17.11"/><path class="cls-12" d="M12.62,10.12a.73.73,0,1,0,.06,1.45.71.71,0,0,0,.52-.24v.37a4.63,4.63,0,0,0,2-.85s.41,1.12-1.46,1.87a2.66,2.66,0,0,1,.41.6c0,.08.87,1.83,2.7-.11"/><line class="cls-12" x1="13.42" y1="11.67" x2="13.88" y2="12.66"/><path class="cls-12" d="M15.26,11.28a3.18,3.18,0,0,1-1.52.89"/><path class="cls-12" d="M18.34,12.31A6.25,6.25,0,0,1,15.9,9.06a8.74,8.74,0,0,1-.24-1.77"/><path class="cls-12" d="M19.42,11.18a7.94,7.94,0,0,0-.85-4.57"/><path class="cls-12" d="M18.7,6.74a.59.59,0,0,1,.68.38.61.61,0,0,1-.24.79"/><path class="cls-12" d="M19.12,6.76c0-.2.26-.91,1.45-1C22,5.69,23,6.85,24.46,6.93c0,0-.42.55-2,.21-1.86-.39-1.62.65-3,.36"/><path class="cls-12" d="M12.67,10.13C12.24,9.71,12.59,8,12.59,8"/><path class="cls-12" d="M16.08,18.78l-.29,0"/><path class="cls-12" d="M21.1,13.94l-.71,4.64a.46.46,0,0,1-.49.49"/><path class="cls-12" d="M18.67,13.08a2.19,2.19,0,0,1,1.23-2.2"/><line class="cls-12" x1="18.85" y1="17.1" x2="18.67" y2="13.08"/><path class="cls-12" d="M20.37,21.17a2.74,2.74,0,0,0,.33.63"/><path class="cls-12" d="M21.06,19.08a1.93,1.93,0,0,0-.69,2.09"/><line class="cls-12" x1="18.39" y1="12.33" x2="18.72" y2="12.33"/><line class="cls-12" x1="16.35" y1="13.69" x2="17.29" y2="14.02"/><path class="cls-12" d="M18.7,13.69a4.83,4.83,0,0,1-1.12.64.26.26,0,0,1-.29-.11c0-.09,0-.19,0-.2a4.53,4.53,0,0,0,1.38-.88"/><path class="cls-12" d="M24,20.55l-.78.25"/><path class="cls-12" d="M26.35,19.77c-.88.3-1.75.59-2.36.78"/><path class="cls-12" d="M19.9,10.88a8,8,0,0,1,6.74.1c4.8,2,4.32,5.23,4.3,5.5s-.12,1.45-2,2.3c-.59.27-1.6.64-2.62,1"/><path class="cls-12" d="M24.77,16.29c-1.08.77-2.64,1.9-3.71,2.79"/><path class="cls-12" d="M20.91,15.37l3.86.92"/><path class="cls-12" d="M25.11,26.2a3.08,3.08,0,0,0-1.84.75c-.75.59-1.25,1.68-1.06,2.09,0,0,.16.29.53.07l3.83-2.25a.37.37,0,0,0,.1-.59,3.73,3.73,0,0,0-1-.69"/><path class="cls-12" d="M22.68,31.12a2.8,2.8,0,0,0-1.82-.25c-.87.13-1.77.81-1.81,1.24,0,0,0,.31.39.31l4.11-.05a.34.34,0,0,0,.35-.44,2.79,2.79,0,0,0-.25-.66"/><line class="cls-12" x1="25.42" y1="25.15" x2="25.7" y2="25.58"/><path class="cls-12" d="M20.57,23.48a1.73,1.73,0,0,1,.35-1.27"/><line class="cls-12" x1="22.17" y1="30.88" x2="22.09" y2="30.51"/><rect class="cls-15" x="20.07" y="32.42" width="3.58" height="0.77" rx="0.26"/><path class="cls-12" d="M26.7,26.77l.36-.11a.25.25,0,0,1,.29.16l.08.29a.23.23,0,0,1-.16.29l-3,.87h-.09"/><path class="cls-12" d="M14.51,19.42a.29.29,0,0,0,.21-.29"/><path class="cls-12" d="M14.83,20a.44.44,0,0,1-.51.18c-.19-.05-.56-.14-.48-.53s.23-1.06.23-1.06"/><path class="cls-12" d="M13.81,19.78a.51.51,0,0,1-.41,0c-.23-.1-.34-.22-.25-.6l.21-.87"/><path class="cls-12" d="M13,17.91a1,1,0,0,1,.68-.3l2.48,0"/><path class="cls-12" d="M13.09,19.44a.47.47,0,0,1-.29,0c-.26-.09-.25-.34-.19-.58s.26-.8.26-.8a.44.44,0,0,1,.08-.13"/><path class="cls-12" d="M14.59,19.38a1.31,1.31,0,0,1,0,.56"/><path class="cls-12" d="M13.16,17.74a.7.7,0,0,1,.15-.2,2.49,2.49,0,0,1,1.53-.46h1.49a.34.34,0,0,0,.19-.2"/><path class="cls-12" d="M14.61,19.9c.31.06.58.1.76.12h0a.3.3,0,0,0,.3-.27.31.31,0,0,0-.26-.34,7,7,0,0,1-.73-.12"/><path class="cls-12" d="M16.93,16.67c0-.2-.16-.2-.16-.2H14.85a3.07,3.07,0,0,0-2,.64,1.43,1.43,0,0,0-.44,1.07,1.16,1.16,0,0,0,.15.6"/><path class="cls-12" d="M15.79,18.78s0,.79-1.12.52"/><path class="cls-12" d="M14,10.32a.71.71,0,0,1-.48,0A.71.71,0,0,1,13.83,9a.71.71,0,0,1,.52.85.58.58,0,0,1,0,.14"/><path class="cls-12" d="M13.15,10.18a1.47,1.47,0,0,1,1.18-.26"/><circle class="cls-11" cx="13.14" cy="9.63" r="0.19"/><line class="cls-12" x1="23.47" y1="25.58" x2="23.52" y2="26.75"/><path class="cls-12" d="M25.56,21.2l-1.28,1.42"/><path class="cls-12" d="M26.54,20.09l-.41.46"/><path class="cls-12" d="M23.89,25.38a6.94,6.94,0,0,1,.69-.14,2.83,2.83,0,0,1,1.19-.09s-.08.06-.23.11"/><path class="cls-12" d="M24,25.56c-.36.05-.55.05-.56,0s.17-.11.46-.18"/><path class="cls-12" d="M22.17,30.49l.56,0"/><path class="cls-12" d="M22.09,30.67c-.24,0-.39,0-.4-.07s.19-.08.48-.11"/><line class="cls-12" x1="23.43" y1="25.56" x2="20.7" y2="21.8"/><polyline class="cls-12" points="25.77 25.15 23.21 20.8 22.42 20.44"/><line class="cls-12" x1="26.74" y1="26.38" x2="22.28" y2="29.02"/><line class="cls-12" x1="21.13" y1="27.04" x2="20.57" y2="23.48"/><line class="cls-12" x1="21.69" y1="30.6" x2="21.3" y2="28.06"/><line class="cls-12" x1="22.89" y1="32.08" x2="23.91" y2="32.08"/><line class="cls-12" x1="19.05" y1="32.11" x2="22.13" y2="32.09"/><path class="cls-12" d="M23.85,25.39l.77.87"/><path class="cls-11" d="M23.87,25.47h0l-.19,0,0,0a.05.05,0,0,0,0,0,.08.08,0,0,0,0,0l0,0,.19,0a.05.05,0,0,0,0,0,0,0,0,0,0,0,0S23.89,25.48,23.87,25.47Z"/><path class="cls-11" d="M25.66,25.12a0,0,0,0,0,0,0,0,0,0,0,0,0,0h0l0,0h-.05s0,0,0,0,0,0,0,0v0l0,0h.05l.06,0,0,0s0,0,0,0,0,0,0,0A0,0,0,0,0,25.66,25.12Z"/><path class="cls-12" d="M16.18,19.29a2.69,2.69,0,0,1-.1-1,2.65,2.65,0,0,1,.1-1"/><path class="cls-12" d="M16.18,17.31l2.67-.21a1.55,1.55,0,0,1,.67.46"/><line class="cls-12" x1="16.18" y1="19.29" x2="19.85" y2="19.08"/><path class="cls-12" d="M29.19,12.51s.25,2.87-4.42,3.78"/><path class="cls-12" d="M18.57,6.61c-.08-.38-1-2.13-2.61-1.87l-1.52.35a1.55,1.55,0,0,0-1.06,1.1"/><path class="cls-12" d="M14.49,7.53c-.16-.5-.94-1.65-1.76-1.42-1,.3-.51,1.36-.21,1.91"/><line class="cls-12" x1="12.52" y1="8.02" x2="18.57" y2="6.62"/><path class="cls-2" d="M47.49,32.24a.2.2,0,0,1-.09-.06h0a.19.19,0,0,1,0-.09l-1.49.57,0,0v0h0l0,0,.06.09a2.31,2.31,0,0,1,.14.19h0l0,0,.09.1.15.16a1.14,1.14,0,0,0,.17.15.1.1,0,0,0,.05,0h0l.09.07.2.11,0,0,.58-1.49Z"/><path class="cls-2" d="M49.37,31.38a2.63,2.63,0,0,0-.21-.41L49,30.8l-.17-.17-.34-.32-.8,1.45.05,0h0a.19.19,0,0,1,.07.11v0l1.58-.38A.78.78,0,0,0,49.37,31.38Z"/><path class="cls-12" d="M17.4,8.41a1,1,0,0,1,.41-.06.67.67,0,0,1,.58.7c0,.66-.65.81-.7,1.22,0,0,0,.07,0,.1a.23.23,0,0,1-.14.28"/><path class="cls-12" d="M17.76,9.07c0,.12-.06,0-.2.21a.75.75,0,0,0-.12.14"/><line class="cls-12" x1="17.36" y1="8.24" x2="17.51" y2="10.78"/><path class="cls-12" d="M14.73,7.54a1.74,1.74,0,0,1,.06.58,1.58,1.58,0,0,0,0,.54,1.11,1.11,0,0,0,.3.46s0,0,0,.05h0a1.41,1.41,0,0,1-.46-.42,2.06,2.06,0,0,1-.2-.59,1.16,1.16,0,0,0-.18-.46l0,0"/><path class="cls-12" d="M24.85,28.71a.49.49,0,0,1,.21.08"/><path class="cls-12" d="M25.22,29a.42.42,0,0,1,.05.22.49.49,0,1,1-.49-.49h.07"/><line class="cls-12" x1="21.97" y1="32.36" x2="23.11" y2="30.92"/><line class="cls-12" x1="23.54" y1="31.22" x2="22.64" y2="32.36"/><line class="cls-12" x1="26.36" y1="27.67" x2="25.25" y2="29.04"/><line class="cls-12" x1="24.88" y1="28.7" x2="25.49" y2="27.93"/><circle class="cls-12" cx="24.78" cy="29.19" r="0.15"/><line class="cls-12" x1="15.23" y1="16.47" x2="15.23" y2="17.08"/><path class="cls-11" d="M15.62,19.58a.49.49,0,0,0-.23-.11,3.86,3.86,0,0,1-.49-.09.24.24,0,0,0-.14,0,.16.16,0,0,0-.14.13,1,1,0,0,0,0,.17.14.14,0,0,0-.06.11.14.14,0,0,0,.09.13h0l.07,0,.43.07c.17,0,.38,0,.47-.14A.24.24,0,0,0,15.62,19.58Z"/><path class="cls-11" d="M15.18,16.59c0-.07-.09-.1-.16-.09l-.1,0a.18.18,0,0,0-.11,0,1.83,1.83,0,0,0-.66.06c-.1,0-.19.07-.29.09a1.55,1.55,0,0,0-.31.07c-.34.13-.76.37-.85.75,0,.07-.1.14-.14.21a.53.53,0,0,0-.13.34.34.34,0,0,0,.06.12.13.13,0,0,0-.07.1,1.55,1.55,0,0,0,0,.31c0,.13.21.11.25,0s.11-.3.16-.46,0-.11.07-.17a.36.36,0,0,1,0-.09l0,0a.15.15,0,0,0,.11,0,3.89,3.89,0,0,1,.36-.34,1.41,1.41,0,0,1,.49-.2A2.44,2.44,0,0,1,15,17.07a.14.14,0,0,0,.17-.13A1,1,0,0,0,15.18,16.59Z"/><path class="cls-11" d="M27.42,27.08l-.09-.18,0-.06h0l-.06-.09a.13.13,0,0,0-.21,0s-.08,0-.12,0a.48.48,0,0,0-.17.05c-.05,0-.13,0-.16.06-.6.32-1.16.7-1.75,1a.06.06,0,0,0,0,.09h0s0,0-.05,0l-.15.06c-.08,0-.05.16,0,.13.59-.16,1.17-.37,1.76-.56l.43-.13a3.58,3.58,0,0,0,.35-.09.41.41,0,0,0,.19,0A.22.22,0,0,0,27.42,27.08Z"/><path class="cls-12" d="M17.58,14.33a8.77,8.77,0,0,0,1.14.42"/><polyline class="cls-12" points="18.45 14.66 18.42 16.73 18.7 16.87"/><line class="cls-12" x1="18.42" y1="16.73" x2="17" y2="16.99"/><path class="cls-11" d="M27.83,19.23l-.45.2-.26.11-.21.05,0,0h-.14c-.09,0-.09.13,0,.13a2.08,2.08,0,0,0,.66,0,.79.79,0,0,0,.25-.15l.27-.23C28,19.28,27.89,19.2,27.83,19.23Z"/><line class="cls-16" x1="24.28" y1="24.64" x2="21.93" y2="20.8"/><path class="cls-16" d="M22.84,19.76l5.1-2.57a1.16,1.16,0,0,0,.58-1.75"/><line class="cls-16" x1="22" y1="23.59" x2="22.54" y2="27.79"/><path class="cls-12" d="M25,28.05a1.07,1.07,0,0,1,.27.09"/><path class="cls-12" d="M23.67,28.79a1.48,1.48,0,0,1,.18-.33"/><path class="cls-12" d="M25.74,28.51a1.2,1.2,0,1,1-2.16.72c0-.05,0-.09,0-.13"/><path class="cls-12" d="M33.57,28.91a.64.64,0,0,1,.06.28.63.63,0,0,1-1.26,0,.88.88,0,0,1,0-.17"/><path class="cls-12" d="M32.61,28.7a.6.6,0,0,1,.39-.14.63.63,0,0,1,.4.14"/><circle class="cls-14" cx="33" cy="29.19" r="0.28"/><ellipse class="cls-12" cx="47.6" cy="31.99" rx="1.85" ry="1.86"/><path class="cls-12" d="M47.9,32a.3.3,0,1,1-.59,0,.3.3,0,0,1,.59,0Z"/></g></svg>