<svg xmlns="http://www.w3.org/2000/svg" viewBox="0 0 52.64 79.97"><defs><style>.cls-1{fill:#f9b730;}.cls-2{fill:#89d3de;}.cls-11,.cls-3{fill:#f47951;}.cls-4{fill:#f07c24;}.cls-5{fill:#0d773c;}.cls-6{fill:#1f4686;}.cls-7{fill:#007033;}.cls-8{fill:#fff;}.cls-9{fill:#1c204d;}.cls-10{fill:none;}.cls-10,.cls-11{stroke:#1c204d;stroke-linecap:round;stroke-linejoin:round;stroke-width:0.8px;}</style></defs><g id="Layer_1" data-name="Layer 1"><path class="cls-1" d="M28.18,44.25l-.05.06S28.14,44.32,28.18,44.25Z"/><path class="cls-1" d="M34.1,39.62a19.4,19.4,0,0,1-2.83-1.37,11.86,11.86,0,0,0-3.22-.9,68.33,68.33,0,0,0-7.16-.22A1,1,0,0,0,20,38.5c-1.91.56-3.95.72-5.85,1.33-.86.28-1,1.68,0,1.89a4.56,4.56,0,0,0,.62.13l.12,0a10.93,10.93,0,0,0,.2,1.38,10.55,10.55,0,0,0,.34,2.17,1.75,1.75,0,0,0,0,.33c-.25,0-.29.48-.54.5-1.25.12-1.47,1.59-.22,1.48a16.63,16.63,0,0,1,2.23,0,2.13,2.13,0,0,0,1.43,0h.21c1.45,0,2.9,0,4.35-.09a83.73,83.73,0,0,1,8.53-.29,1,1,0,0,0,.94-.72c.07-.41.14-.83.2-1.25A2.16,2.16,0,0,0,33.3,44c.05-.67.09-1.33.13-2a1.13,1.13,0,0,1,.67-.46A1,1,0,0,0,34.1,39.62Z"/><path class="cls-2" d="M30,46.69A1,1,0,0,0,28.76,46,4.26,4.26,0,0,1,27,46a7.34,7.34,0,0,0-2.09.14,2.73,2.73,0,0,0-.91.39l-.05,0a.83.83,0,0,0-.8-.46c-2.9.09-5.81.09-8.71,0-1.26,0-1.44,1.34-.18,1.38.23,0,.65.58.89.59l.05,0a7.29,7.29,0,0,0,1.4.12.27.27,0,0,1,.12,0,.57.57,0,0,1,.13.08,2.2,2.2,0,0,0,.68.35,6.26,6.26,0,0,0,1.56,0h.5a.58.58,0,0,0,.19,0l.85,0a1.13,1.13,0,0,0,.52-.19.94.94,0,0,0,.34.08c.74,0,1.49.13,2.23.15a1.52,1.52,0,0,0,1.17-.4c.21-.2.19-.23.43-.3A5.88,5.88,0,0,1,27.23,48a4.3,4.3,0,0,0,2.05-.06A1,1,0,0,0,30,46.69Z"/><path class="cls-2" d="M34.45,46.69a1,1,0,0,0-.26-.43L34,46.11a1,1,0,0,0-.5-.14h-.28a.79.79,0,0,0-.38.09.72.72,0,0,0-.32.2.79.79,0,0,0-.2.31.73.73,0,0,0-.08.38l0,.26a1.07,1.07,0,0,0,.25.44l.2.15a1,1,0,0,0,.5.13h.28a.71.71,0,0,0,.38-.08.72.72,0,0,0,.31-.2.75.75,0,0,0,.21-.32.71.71,0,0,0,.08-.38Z"/><path class="cls-3" d="M24.3,48.93a.4.4,0,0,0-.51.1.41.41,0,0,0,0,.53.86.86,0,0,0,.36.23h.06a4.67,4.67,0,0,0,.62.24,1.8,1.8,0,0,0,1,.09h0a3.72,3.72,0,0,0,.39-.07h.19a11.28,11.28,0,0,1,1.35.24,13.66,13.66,0,0,0,1.57.13,5.44,5.44,0,0,0,1.56,0,.66.66,0,0,0,.33-.18,1,1,0,0,0,.24,0,3.13,3.13,0,0,0,.75-.07,6.64,6.64,0,0,0,1.57-.32l.16,0a1.54,1.54,0,0,0,.48,0A12.36,12.36,0,0,0,37.17,49a9.43,9.43,0,0,0,1.36-.65c.2-.12.39-.27.59-.4l.12-.07h0a2.68,2.68,0,0,0,.47-.18,1,1,0,0,0,.47-1c0-.37.6-1.42.62-1.57a5.23,5.23,0,0,0,0-.56c.06-.34-.35-.65-.24-1,0-.09-.44-.36-.41-.45s0,.07,0,0h0a.26.26,0,0,0,0-.07.08.08,0,0,1,0,0l0,0c.35-.23.1-.31,0-.71-.07-.19-.28-.71-.35-.9s.39-.53.15-.66a1,1,0,0,0-.76-.1,3.18,3.18,0,0,0-.54.21l-.18.1h0a2.55,2.55,0,0,0-.32.07l-.27,0-.7.07a1,1,0,0,0-.86.5,1,1,0,0,0,0,.95,4.31,4.31,0,0,1,0,.88,7.34,7.34,0,0,0-.13,1.23,1,1,0,0,0,.09.41l-.86.71-.92.8-.2.18-.11.08-.13.09-.17,0a1.32,1.32,0,0,0-.44.3,2,2,0,0,0-.33-.38,1.39,1.39,0,0,0-1.19-.35c-.16-.15-.32-.31-.47-.47-.45-.52-1-1.34-1.81-.88a.82.82,0,0,0-.37.9,3.16,3.16,0,0,0,.45,1,4.17,4.17,0,0,0,.74.88,3.51,3.51,0,0,1,.61.61l.05.07H31a4.62,4.62,0,0,1-1.53,0l-1.59-.19a9.29,9.29,0,0,0-2.1-.09,1.06,1.06,0,0,0-.63-.11h-.07a.78.78,0,0,0-.61.57h0a.49.49,0,0,0,0,.12l-.19-.1"/><path class="cls-4" d="M40.17,43.15h0l0-.07,0,0Z"/><path class="cls-5" d="M40.19,39.84c-.56-.88-1.09-1.78-1.58-2.71h0a.52.52,0,0,0,0-.47,12,12,0,0,0-2.13-2.57c-.91-.78-1.86-1.51-2.79-2.26a.6.6,0,0,0-1,.49l-.09.06-.09,0-.06,0a1.09,1.09,0,0,0-.62-.11,1.15,1.15,0,0,0-.66.35H31a6.1,6.1,0,0,1-1.8.15c-.31,0-.46.6-.73.49a11.64,11.64,0,0,0-4.89-1,8.28,8.28,0,0,1-1.17,1.2,8.07,8.07,0,0,0-.58.59l-.27.32-.12.15h0A12.74,12.74,0,0,0,20.56,36l-.18.35,0,0s0,.07,0,.11a2.38,2.38,0,0,0-.11.38,1.05,1.05,0,0,0-.05.19s0,0,0,0h0a.85.85,0,0,1-.1.28,2.27,2.27,0,0,1,.25-.06,31.82,31.82,0,0,1,6.69.13,8.5,8.5,0,0,1,1.31.37,8.6,8.6,0,0,1,3.16.42.75.75,0,0,0-.07.42,1,1,0,0,1,.3,0,3.34,3.34,0,0,1,1.48,1c0,.06.12.11.18.17a1,1,0,0,1,.22-.13l.26,0a.94.94,0,0,1,.9.61.67.67,0,0,1,.08.37,2.16,2.16,0,0,1,0,.29h0a2.29,2.29,0,0,1-.1.23,1,1,0,0,1-.36.36.66.66,0,0,1-.24.11H34a1.23,1.23,0,0,1-.35.37,25.88,25.88,0,0,1-1.27,4.16s0,.06,0,.09a.43.43,0,0,0,.2.14l.06,0c.63,0,1.27,0,1.9,0h.13l.65-.53a3,3,0,0,0,.65-.57,1.47,1.47,0,0,0,.19-.77c.05-1.09-.06-2.17,0-3.25a4.18,4.18,0,0,0,1.27-.11c.38-.09.73-.23,1.1-.34a3.13,3.13,0,0,1,.53-.12h.24l.22,0a.6.6,0,0,0,.63-.22A.59.59,0,0,0,40.19,39.84Z"/><path class="cls-6" d="M35.06,50.74a.8.8,0,0,0-1-.77,6.57,6.57,0,0,1-2.16.26c-.77,0-1.53.08-2.3.15a19.38,19.38,0,0,1-2.28.14,6.23,6.23,0,0,1-1.15-.09,4.74,4.74,0,0,0-1.1-.21.76.76,0,0,0-.16,0,1.41,1.41,0,0,0-.61-.33,6.06,6.06,0,0,1-.47-.54l-.21-.29a.42.42,0,0,0-.19-.16.34.34,0,0,0-.26,0,.4.4,0,0,0-.29.38c0,.34,0,.68,0,1a.34.34,0,0,0,.09.24.27.27,0,0,0,.07.08l0,.12a21.86,21.86,0,0,0-.58,6.39,1,1,0,0,0-.09.35q-.54,5.7-1,11.4a.8.8,0,0,0,.13.5l-.12.21a.6.6,0,0,0,.51.9,18.92,18.92,0,0,1,4.8.56.6.6,0,0,0,.75-.57c.07-1.22.17-2.43.33-3.64s.3-3.38.56-4.53c.16-.71.31-1.32.45-1.9,0,.92,0,1.83-.09,2.75l-.05.12a.82.82,0,0,0,0,.41,1,1,0,0,1,0,.24h0a.58.58,0,0,0,0,.32h0l-.09,1.33a.47.47,0,0,0,.21.45,6.47,6.47,0,0,0-.05.76.83.83,0,0,0,0,.15l-.3,3c0,.25-.08.51-.08.76a.48.48,0,0,0,.53.48c.41,0,.84-.25,1.24-.09s4.55-.37,4.46-.64a9.3,9.3,0,0,1,0-2.79c.42-1-.09-5.08.2-5.48,0,0,.26-1.61.26-1.61s-.5-2.14-.46-2.29a.7.7,0,0,0,.23-.38l0-.18a.71.71,0,0,0-.1-.63Q34.9,53.94,35.06,50.74Z"/><path class="cls-7" d="M21.54,45.1l0,0h0Z"/><path class="cls-3" d="M36.5,22.63a1.49,1.49,0,0,0-1-.06,1.09,1.09,0,0,0-.23.09c-.3-3.22-1.82-6.47-5.13-7.48-2.73-.82-7.08.53-8.1,3.43a.78.78,0,0,0-.31.27,5.22,5.22,0,0,0-.55,2.74,14.59,14.59,0,0,0,.18,2.81,1.07,1.07,0,0,0-1.1.07A1.31,1.31,0,0,0,20,26.25a3.68,3.68,0,0,0,.7,1c.08-.07.32.5.46.49,1.31-.09,1.13.39,2.07.93C23.77,29,25.89,33,25.81,33c.57,0,2.49,0,2.82.07.63.09,1.51-.32,2.13-.2.3.06.62-.39.92-.37a1.72,1.72,0,0,0,1-.26.45.45,0,0,0,.22-.64c0-.05,0-.11,0-.16a5.55,5.55,0,0,1,.2-1.28,10.24,10.24,0,0,1,.51-1.3,19.87,19.87,0,0,1,1.24-2.69s0-.05,0-.07l.11,0a1.14,1.14,0,0,0,.85,0,2.35,2.35,0,0,0,1-1C37.19,24.4,37.44,23.11,36.5,22.63Z"/><path class="cls-8" d="M27.35,19.13a1.9,1.9,0,0,0-1.71-.68,1.86,1.86,0,0,0-1.46,1.09,1.66,1.66,0,0,0,0,1.14.87.87,0,0,0,.36.58,1,1,0,0,0,.72,0l0,0h.83a2.34,2.34,0,0,0,1.09-.32,1.4,1.4,0,0,0,.42-.3.74.74,0,0,0,.11-.58A1.9,1.9,0,0,0,27.35,19.13Z"/><path class="cls-8" d="M31,18.58a2.32,2.32,0,0,0-.67-.45,1.85,1.85,0,0,0-1.77.23,1.48,1.48,0,0,0-.62.85,2.67,2.67,0,0,0,0,.89.61.61,0,0,0,.3.46.61.61,0,0,0,.19.35A.59.59,0,0,0,29,21l.19,0,.08,0h0l.4-.07a7.16,7.16,0,0,1,.8-.05c.13,0,.27,0,.4,0a.71.71,0,0,0,.6-.41,1.65,1.65,0,0,0,0-.91A1.61,1.61,0,0,0,31,18.58Z"/><path class="cls-9" d="M21.18,21l0,0,0-.07a.26.26,0,0,0,0-.15l0-.07a.24.24,0,0,0-.11-.09l0,0a.2.2,0,0,0-.11,0,.23.23,0,0,0-.11,0l-.07,0a.27.27,0,0,0-.09.12.11.11,0,0,0,0,.07.88.88,0,0,0-.05.15.22.22,0,0,0,0,.08.76.76,0,0,0,0,.15.27.27,0,0,0,0,.12c0,.39-.05.78-.08,1.17,0,.19,0,.37,0,.55a.67.67,0,0,0,.14.5.27.27,0,0,0,0,.12v.09a.45.45,0,0,0,.34.51.56.56,0,0,0,.54-.2.72.72,0,0,0,.13-.51,1.28,1.28,0,0,1,0-.19h0s0-.07,0-.1,0-.24.05-.36a2.75,2.75,0,0,0,0-.81,5,5,0,0,0-.24-.84A.45.45,0,0,0,21.18,21Z"/><path class="cls-9" d="M35.71,20.74c-.1-.26-.2-.51-.31-.76s-.15-.52-.36-.62-.13-.25-.2-.37a.15.15,0,0,0-.17,0,.13.13,0,0,0-.09.15.65.65,0,0,0,.11.33.33.33,0,0,0-.06.29v.09l0,0a.86.86,0,0,0-.11.78.18.18,0,0,0,.07.08,5.25,5.25,0,0,0,.09.55,3.68,3.68,0,0,0,.23.71c.1.25.22.49.5.55a.22.22,0,0,0,.18,0,.27.27,0,0,0,.39-.2A2.54,2.54,0,0,0,35.71,20.74Z"/><path class="cls-9" d="M25.79,19.79a.44.44,0,0,0,.29.82A.44.44,0,0,0,25.79,19.79Z"/><path class="cls-9" d="M29.59,19.42a.43.43,0,0,0,.29.81A.43.43,0,0,0,29.59,19.42Z"/><path class="cls-10" d="M35,25.67a1.07,1.07,0,0,1-.07.19c-1.12,3-2.16,4.33-1.95,6.25"/><path class="cls-10" d="M35.31,22.68c0,.13,0,.27,0,.41v.16"/><path class="cls-10" d="M27.36,15.06a10.32,10.32,0,0,1,1.48,0,6.56,6.56,0,0,1,5.8,4.4"/><path class="cls-10" d="M21.26,24.34l.15.62"/><path class="cls-10" d="M27.36,15.06a10.41,10.41,0,0,0-1.45.3,6.45,6.45,0,0,0-4.78,5.56"/><path class="cls-10" d="M25.51,32.91a16.5,16.5,0,0,0,7.44-.8"/><path class="cls-10" d="M35.4,22.7a1.06,1.06,0,0,1,1.05-.14c.58.25,1.13,1,.41,2.53-.53,1.18-1.39,1.39-2,1"/><path class="cls-10" d="M35.22,24.79a1,1,0,0,1,.38-.5A2.07,2.07,0,0,0,36,24"/><path class="cls-10" d="M24.79,21.63a1.76,1.76,0,0,1-.58-.82,1.84,1.84,0,1,1,2.34,1.12,1.86,1.86,0,0,1-.93.08"/><path class="cls-10" d="M30.23,21.59A1.83,1.83,0,1,1,31.1,21"/><line class="cls-10" x1="24.53" y1="21.37" x2="31.27" y2="20.79"/><circle class="cls-11" cx="27.96" cy="21.91" r="1.25"/><path class="cls-10" d="M20.68,24.27s-.88-3.06.5-4"/><path class="cls-10" d="M21,21s.38.1.53,1,.12,2.16-.45,2.37"/><path class="cls-10" d="M36,22.45s0-3.16-1.57-3.62"/><path class="cls-10" d="M34.74,19.44s-.43.24-.28,1.15.36,2,1,2"/><path class="cls-10" d="M22.26,27.32l.1.17c1.77,2.67,2.93,3.5,3.15,5.42"/><path class="cls-10" d="M21.17,24.51a1.07,1.07,0,0,0-1.05.1c-.5.37-.89,1.19.16,2.56.78,1,1.67,1,2.17.58"/><path class="cls-10" d="M21.82,26.52a.9.9,0,0,0-.48-.4A1.69,1.69,0,0,1,21,26"/><path class="cls-10" d="M30.91,48.58a33.84,33.84,0,0,1-4.56-.27s-1.81-.3-2,.63c-.18,1.28,3.85,1.48,5,1.49A18.31,18.31,0,0,0,37.52,49a7,7,0,0,0,2.89-2s1.37-1.35-.89-6.22"/><path class="cls-10" d="M31.47,48.53a3.86,3.86,0,0,1-.56,0"/><path class="cls-10" d="M31.47,48.53a2.75,2.75,0,0,1-1.89-1.61s-.67-1.3.11-1.71c0,0,.59-.39,1.34.55a1.68,1.68,0,0,0,1.26.73A1.36,1.36,0,0,1,33.58,48"/><path class="cls-10" d="M22.66,73.44h4.23c.26,0,.26-.28.26-.28L27,71.28"/><path class="cls-10" d="M24.89,73.44H17.42s-.57,0-.57-.37,1.89-2.33,7-2.33v.13"/><path class="cls-10" d="M30.91,53.39a8.34,8.34,0,0,1-3.26.1"/><line class="cls-10" x1="29.28" y1="53.81" x2="27.23" y2="71.14"/><path class="cls-10" d="M27.23,71.14l-6-.71S22.73,52.15,23,48.88"/><path class="cls-10" d="M33.66,47.36s4.4-3.63,4.4-3.63"/><path class="cls-10" d="M35.79,36a40,40,0,0,1,.38,9.23"/><path class="cls-10" d="M36.36,41.43c.33,0,.69-.11,1.06-.19,1.65-.33,3-.73,2.92-.9,0,0-2.87-7.14-7.39-8.71"/><path class="cls-10" d="M23.56,48.94c0,.09-.12,1.84,5.19,1.47"/><path class="cls-9" d="M27,71.51a.92.92,0,0,0-.87-.61,8.33,8.33,0,0,0-1.32,0,11.47,11.47,0,0,1-1.55,0,.56.56,0,0,0-.3,0,8,8,0,0,0-1,0c-.51,0-1,.17-1.52.27-.87.17-2,.18-2.57,1a.93.93,0,0,1-.05.1A.6.6,0,0,0,17,73c.23.78,1.32.48,1.91.45l2.55-.13c.78,0,1.55-.05,2.33-.05a.79.79,0,0,0,.48.09,4.42,4.42,0,0,1,1.09,0,.45.45,0,0,0,.3-.07,2.73,2.73,0,0,1,.7.15.59.59,0,0,0,.75-.57A3.93,3.93,0,0,0,27,71.51Z"/><path class="cls-10" d="M32.82,73.44H28.59c-.26,0-.26-.28-.26-.28l.11-1.88"/><path class="cls-10" d="M30.6,73.44h7.46s.57,0,.57-.37-1.89-2.33-7-2.33"/><line class="cls-10" x1="29.28" y1="53.81" x2="28.25" y2="71.14"/><path class="cls-10" d="M28.25,71.14l6-.71s.89-17.31.67-20.58"/><path class="cls-9" d="M28.5,71.51a.93.93,0,0,1,.88-.61,8.25,8.25,0,0,1,1.31,0,11.47,11.47,0,0,0,1.55,0,.56.56,0,0,1,.3,0,8,8,0,0,1,1,0c.51,0,1,.17,1.52.27.87.17,2,.18,2.57,1l0,.1a.6.6,0,0,1,.84.68c-.22.78-1.31.48-1.9.45L34,73.29c-.78,0-1.55-.05-2.33-.05a.79.79,0,0,1-.48.09,4.42,4.42,0,0,0-1.09,0,.46.46,0,0,1-.3-.07,2.73,2.73,0,0,0-.7.15.59.59,0,0,1-.75-.57A3.93,3.93,0,0,1,28.5,71.51Z"/><line class="cls-10" x1="32.86" y1="46.12" x2="33.81" y2="41.61"/><line class="cls-10" x1="15.43" y1="46.35" x2="14.71" y2="41.59"/><path class="cls-10" d="M14.93,40c0,.58,4.17,1,9.3,1s9.3-.51,9.3-1.08-4.22-3-9.35-2.93S14.93,39.39,14.93,40Z"/><path class="cls-10" d="M33.35,39.61a1.12,1.12,0,0,1,.62.26,1.23,1.23,0,0,1,.72.12c.37.17.57.46.43.63h0l0,0c.12.18-.17.48-.64.67a1.66,1.66,0,0,1-.77.15,1.42,1.42,0,0,1-.76.34,2.11,2.11,0,0,1-.75,0,1.9,1.9,0,0,1-.72.23,1.87,1.87,0,0,1-.77,0,1.64,1.64,0,0,1-.76.21,1.84,1.84,0,0,1-.79-.08,1.7,1.7,0,0,1-.77.19,1.81,1.81,0,0,1-.8-.11,1.77,1.77,0,0,1-.79.18,2,2,0,0,1-.76-.11,1.85,1.85,0,0,1-.75.14,2.15,2.15,0,0,1-.45,0"/><path class="cls-10" d="M15.1,39.7a1.12,1.12,0,0,0-.62.26,1.19,1.19,0,0,0-.71.12c-.38.18-.57.47-.44.64h0s0,0,0,.05c-.11.18.17.48.65.67a1.76,1.76,0,0,0,.76.14,1.42,1.42,0,0,0,.77.33,1.88,1.88,0,0,0,.75,0,1.74,1.74,0,0,0,.73.23,1.7,1.7,0,0,0,.77,0,1.68,1.68,0,0,0,.75.21,1.81,1.81,0,0,0,.79-.1,1.71,1.71,0,0,0,.78.19,1.67,1.67,0,0,0,.8-.12,1.77,1.77,0,0,0,.79.18,1.94,1.94,0,0,0,.75-.13,1.78,1.78,0,0,0,.76.14,1.7,1.7,0,0,0,.41,0"/><path class="cls-10" d="M24.87,42.42a1.72,1.72,0,0,1-.63.1,2,2,0,0,1-.68-.1"/><path class="cls-10" d="M29.11,46.29,13,46.36a3.84,3.84,0,0,0,3,1.52"/><line class="cls-10" x1="32.03" y1="46.27" x2="31.79" y2="46.28"/><path class="cls-10" d="M33.8,47.45a4,4,0,0,0,1.45-1.19H31.62"/><path class="cls-10" d="M19,48.87a4.63,4.63,0,0,1-3-1l6.64,0,7.39,0"/><path class="cls-10" d="M19,48.87h.31l5,0"/><path class="cls-10" d="M32.42,21.91a5.09,5.09,0,0,1-5.23,2.88"/><path class="cls-3" d="M19.72,39.32a4.21,4.21,0,0,0,.63.2.61.61,0,0,0,.66-.43.6.6,0,0,0-.33-.71l-.06,0-.12-.1-.14-.12,0,0a3.22,3.22,0,0,1-.38-.51.75.75,0,0,1-.07-.12.2.2,0,0,1,0-.08l-.14-.28a5.64,5.64,0,0,0-.31-.71,1,1,0,0,0-.7-.51,1.33,1.33,0,0,0-.82.23.89.89,0,0,0-.39.62h-.13a1.34,1.34,0,0,0-.83.47h-.15a1.72,1.72,0,0,0-1.07.19.69.69,0,0,0-.13.11.39.39,0,0,0-.22.13A4,4,0,0,0,14.2,39c-.11.37.05.62.41.4.16-.1.51-.11.68-.2l.16-.07a.67.67,0,0,0,.14.09,1.39,1.39,0,0,0,.09.35,2.56,2.56,0,0,0,.5.73,1.63,1.63,0,0,0,.67.52,1.7,1.7,0,0,0,.64.06.28.28,0,0,0,.15.06.52.52,0,0,0,.52-.21.41.41,0,0,0-.07-.56.39.39,0,0,0-.26-.09h0a.57.57,0,0,0,.15-.43.09.09,0,0,0,0,0,2.05,2.05,0,0,0,1.17.59.63.63,0,0,0,.6-.29A.61.61,0,0,0,19.72,39.32Z"/><path class="cls-10" d="M16.55,40.78a1.11,1.11,0,0,0,1.52.07.4.4,0,0,0,0-.57,6.72,6.72,0,0,1-1-2.12c-.26-.89-.75-1.25-1.49-1-.35.1-1.52.76-1.24,2.73"/><path class="cls-10" d="M15.51,39.24a.87.87,0,0,1-.55-.41"/><path class="cls-10" d="M15.57,39.24h-.06"/><path class="cls-10" d="M16.45,37.16s.07-.42.75-.47.9.51,1.21,1a6,6,0,0,0,1.06,1.41.67.67,0,0,1,.22.91c-.19.29-1,.33-1.65-.26a4.1,4.1,0,0,1-.73-.94"/><path class="cls-10" d="M17.52,36.72s.29-.77,1-.82.91.51,1.22,1a6,6,0,0,0,1.05,1.41.66.66,0,0,1,.22.91c-.18.29-1,.33-1.64-.26"/><path class="cls-10" d="M15.55,39a2.15,2.15,0,0,0,1,1.81"/><path class="cls-10" d="M25.35,32.11a7.85,7.85,0,0,0-5.38,5"/><line class="cls-10" x1="22.87" y1="35.34" x2="22.87" y2="36.95"/></g></svg>