<svg xmlns="http://www.w3.org/2000/svg" viewBox="0 0 35.42 39.97"><defs><style>.cls-1,.cls-8{fill:#f59da0;}.cls-2{fill:#b0dceb;}.cls-3{fill:#0077bf;}.cls-4{fill:#f9e398;}.cls-5{fill:none;}.cls-11,.cls-12,.cls-5,.cls-8{stroke:#1c204d;stroke-linecap:round;stroke-linejoin:round;stroke-width:0.4px;}.cls-11,.cls-6{fill:#fff;}.cls-7{fill:#1c204d;}.cls-12,.cls-9{fill:#f47951;}.cls-10{fill:#f9b730;}</style></defs><g id="Layer_1" data-name="Layer 1"><path class="cls-1" d="M7.89,14.52a.09.09,0,0,1,0-.06H8l.14.08h0a.18.18,0,0,1,.12.05l.11.11h0a.26.26,0,0,1,.12.05.16.16,0,0,1,0,.07,3.23,3.23,0,0,1,.23-.27l.28-.33.33-.38a.46.46,0,0,1-.07-.16.42.42,0,0,1,0-.13l-.11,0a1.3,1.3,0,0,1-.34,0,1.63,1.63,0,0,1-.65-.15.27.27,0,0,1,0-.45c.22-.1.44-.07.66-.15l.24-.09a.28.28,0,0,1,.13-.21l.21-.11a.23.23,0,0,1,.3,0,1,1,0,0,1,.32.18,6.21,6.21,0,0,1,.59.56c.37.41.7.86,1.07,1.27a.35.35,0,0,1,.05.08.26.26,0,0,1,.1.48c-.2.11-.47.34-.71.27a.5.5,0,0,1-.27-.21c-.11.1-.23.21-.35.3a2,2,0,0,1-.63.43.62.62,0,0,1-.67-.23.79.79,0,0,1-.1-.27.42.42,0,0,1-.31.06A.41.41,0,0,1,8.52,15a.22.22,0,0,1-.11.05H8.32l-.06,0-.07,0A1.29,1.29,0,0,1,8,14.83a.33.33,0,0,1,0-.06.14.14,0,0,1,0-.06.19.19,0,0,1,0-.07H8a.09.09,0,0,1-.06-.1Z"/><path class="cls-1" d="M18.9,22.41l0,0,0,0H19l0,0h0a.19.19,0,0,1,.22.12.14.14,0,0,0,0,.06c.09.13.18.27.26.41h0a.19.19,0,0,1,.08.15l0,0h0a.1.1,0,0,1,0,.12,1.8,1.8,0,0,1-.44.43c-.09.05-.17,0-.2-.1a1.77,1.77,0,0,1-.08-.33,3.73,3.73,0,0,1-.09-.67v-.05h0s0,0,0-.05v-.11Z"/><path class="cls-2" d="M11,16.12a.32.32,0,0,1,.12-.21L11,15.54c0-.15.09-.23.21-.21l.06,0,.1,0,.25-.1a4.63,4.63,0,0,1,.43-.24h0v-.08a.21.21,0,0,1,0-.12h0l0,0a0,0,0,0,1,0,0,0,0,0,0,1,0,0,.06.06,0,0,1,0,0l.05,0h.07l.06.06.05.06a.19.19,0,0,1,.11.16c0,.14,0,.28,0,.42.44.19.59.78.69,1.19.05.23.09.47.15.7s.07.25.12.38v0c.28-.36.58-.7.89-1s.82-1.1,1.3-1.32c0,0,.5-.66.58-.77s0,0,0,0a1.53,1.53,0,0,1,.19.3,3,3,0,0,1,.1.32,1.3,1.3,0,0,1,.05.59c0,.16.08.32,0,.49l0,0h0a.37.37,0,0,0-.11.35.23.23,0,0,0,.06.12,1.33,1.33,0,0,0,0,.4c0,.18.32.17.36,0a1,1,0,0,1,.08-.29.77.77,0,0,0,.3-.32l0,0c-.1.13,0,0,0,0l.08-.11.07-.1,0,0s0,0,0,0l0,0,.18-.22.11-.14.06-.08v0l0,0a.81.81,0,0,0,.12-.14l0-.06.54-.13.37-.09.15,0,.12,0h0a1.38,1.38,0,0,0,.64-.12l.08,0a2.07,2.07,0,0,0,.12.73,2.34,2.34,0,0,0,.21.63.52.52,0,0,0,.26.23c.16.18.29.37.43.56a5.23,5.23,0,0,1,.44.71,14.61,14.61,0,0,1,.69,1.64s0,.07,0,.1h0a1.86,1.86,0,0,1,.25.6,1.44,1.44,0,0,1,.07.71,1.9,1.9,0,0,1-.34.54c-.13.18-.27.36-.39.55a.39.39,0,0,1-.32.17c-.1.12-.21.23-.31.34a.19.19,0,0,1-.07.12l-.29.26a.28.28,0,0,1-.3.05l-.11.08h0a.79.79,0,0,1-.14.23.19.19,0,0,1-.13.05h0a.25.25,0,0,1-.12.11.09.09,0,0,1-.11-.14l.09-.08a.08.08,0,0,1,0-.07.09.09,0,0,1,0-.05l0,0h0l0,0a.36.36,0,0,1,0-.09v0s0,0,0,0a1,1,0,0,1-.16-.24l-.09-.15h0l0,0a1,1,0,0,1-.29-.12.31.31,0,0,1-.16-.21h0a1.5,1.5,0,0,1-.42.09c-.27,0-.55.06-.82.08h-.07l-.12.07a8,8,0,0,1-2.47.43c-.37,0-.92.09-1.22-.18a.91.91,0,0,1-.18-.6,1.18,1.18,0,0,1,.15-.61h0a.33.33,0,0,1,0-.14c.1-.46.24-.92.36-1.38.06-.23.12-.46.17-.69s.06-.3.07-.45l-.09,0a2.07,2.07,0,0,1-.43.1h0a4.39,4.39,0,0,1-.63.26,1.84,1.84,0,0,1-.47.07.75.75,0,0,1-.49-.06,1,1,0,0,1-.27-.41l-.13-.24a.1.1,0,0,1-.05-.06l-.1-.22a.25.25,0,0,1,0-.19c-.19-.43-.36-.87-.52-1.31A1.5,1.5,0,0,1,11,16.12Z"/><path class="cls-3" d="M11,33.05a9.56,9.56,0,0,1,1.48.33c.22.07.42.19.63.28a6.21,6.21,0,0,0,.76.27h0a.21.21,0,0,0,.18.07.33.33,0,0,0,.33-.28,4,4,0,0,0,.08-.48l.16-1,.33-2v-.06a.28.28,0,0,0,.13-.19c.09-.54.18-1.07.29-1.6s.23-1.06.29-1.59a.19.19,0,0,0,0-.13.44.44,0,0,0,.11-.24c0-.12,0-.24,0-.36a.24.24,0,0,1,0-.08.3.3,0,0,0,0-.16c.06-.44.15-.87.25-1.3a4.4,4.4,0,0,0,.51.05,1.45,1.45,0,0,0,.36,0c0,.25,0,.5,0,.74s-.09.67-.13,1a13.62,13.62,0,0,0-.09,2.12.29.29,0,0,0,0,.16.88.88,0,0,0,0,.28.43.43,0,0,0,0,.11c0,.85-.18,1.69-.14,2.53,0,0,0,.05,0,.07,0,.36-.06.72-.08,1.07l-.05,0c0,.1,0,.2,0,.3a.73.73,0,0,1-.06.32.56.56,0,0,0,.05.08.28.28,0,0,0,.1.09.2.2,0,0,0,.13,0,.33.33,0,0,0,.14,0h0l.09,0h0s0,0,0,0a.55.55,0,0,0,.18,0,7.46,7.46,0,0,1,1.16,0c.41,0,.82,0,1.23,0a.35.35,0,0,0,.32-.21A.34.34,0,0,0,19.8,33l0,0h0a.36.36,0,0,0,.08-.25c0-.85-.07-1.7-.1-2.54a.66.66,0,0,0,.06-.2c.07-1,0-2.07,0-3.1a.24.24,0,0,0,0-.12c0-.1,0-.2,0-.3a1.19,1.19,0,0,0,.05-.5V25.4l0-1a.22.22,0,0,0,0-.08.14.14,0,0,0,0-.06.31.31,0,0,0,0-.19s0,0,0-.07l0-.18s0-.06,0-.09a.41.41,0,0,0-.1-.13.22.22,0,0,0-.11,0l-.1.05-.12.1-.13.09-.06.06a5.65,5.65,0,0,1-.23-.57,2.59,2.59,0,0,1-.09-.88.18.18,0,0,0-.18-.17,11.9,11.9,0,0,0-2.28.5,5.69,5.69,0,0,1-1.22.22A6.26,6.26,0,0,1,14,22.86a.19.19,0,0,0-.21.21.16.16,0,0,0,0,.07A12.56,12.56,0,0,0,13.25,25a.23.23,0,0,0-.07.07,1.45,1.45,0,0,0-.19.6,5.49,5.49,0,0,1-.21.69,12.18,12.18,0,0,0-.44,1.33c-.25.95-.53,1.9-.87,2.83a.28.28,0,0,0,0,.22q-.17.48-.3,1l-.15.52a.91.91,0,0,1-.14.43C10.76,32.74,10.79,33,11,33.05Z"/><path class="cls-4" d="M17.06,34.18a.68.68,0,0,1,.16-.48c.28-.25.6,0,.9,0s.77-.15,1.16-.18a2.81,2.81,0,0,1,1.11.18,3.35,3.35,0,0,1,1.05.44c.27.21.53.55.38.9a.26.26,0,0,1-.4.06.21.21,0,0,1-.14,0c-.8,0-1.6,0-2.4,0H17.69c-.31,0-.66,0-.66-.41A5.07,5.07,0,0,1,17.06,34.18Z"/><path class="cls-4" d="M8.32,33.46a2.41,2.41,0,0,1,2.18-.53,8.59,8.59,0,0,1,1.23.23c.24.07.48.17.72.26a.74.74,0,0,1,.44.11l0,0a.28.28,0,0,1,.12.36l-.07.53a1.3,1.3,0,0,1-.11.48.26.26,0,0,1-.34.1h0c-.68-.26-1.4-.3-2.09-.49-.36-.11-.7-.26-1.05-.36a4.77,4.77,0,0,1-1-.32A.27.27,0,0,1,8.32,33.46Z"/><path class="cls-1" d="M14.17,10.83A4.26,4.26,0,0,0,14.74,12a2.6,2.6,0,0,1,.48,1.07.54.54,0,0,0,.65.37h0a.47.47,0,0,0,.24-.15l0,0,.05.09,0,0a.94.94,0,0,1,0,.16v0a.25.25,0,0,0,0,.08,7.73,7.73,0,0,1,0,.83.21.21,0,0,0,0,.11.28.28,0,0,0,0,.09c.07.15.23.24.28.39a1.62,1.62,0,0,1,0,.31v.31a8.42,8.42,0,0,1-.1,1.33.18.18,0,0,0,.34.09,3.84,3.84,0,0,1,.51-.85,8.32,8.32,0,0,0,.6-.76.08.08,0,0,0,0,0l.83-.19.46-.1a1.34,1.34,0,0,0,.49-.15c.12-.09.16-.29.21-.41s.12-.25.18-.37a3.88,3.88,0,0,1,.32-.47.51.51,0,0,0,.85-.05,9.17,9.17,0,0,1,1-1.43.67.67,0,0,0,.29-.33l.05-.14a1.74,1.74,0,0,0,.35-.8.62.62,0,0,0-.66-.74.88.88,0,0,0-.26.09A7.94,7.94,0,0,0,21.93,8c-.23-.81-1-1.23-1.61-1.7A.47.47,0,0,0,20,6.2c-1-.74-2.93-.2-3.71.64a4.4,4.4,0,0,0-1.12,2.91l0,0a.73.73,0,0,0-.56-.07.52.52,0,0,0-.45.58A1.19,1.19,0,0,0,14.17,10.83Z"/><path class="cls-5" d="M17.85,33.77a3,3,0,0,1,2-.18c1.34.21,2,.63,2.08,1.2,0,0,.06.34-.27.34"/><path class="cls-5" d="M17.14,33.62,17,34.71s-.06.43.3.42h4.31"/><line class="cls-5" x1="17.04" y1="34.82" x2="21.83" y2="34.82"/><line class="cls-5" x1="16.47" y1="33.62" x2="16.9" y2="24.72"/><line class="cls-5" x1="19.31" y1="33.53" x2="16.47" y2="33.62"/><line class="cls-5" x1="19.82" y1="33.59" x2="19.85" y2="23.61"/><path class="cls-5" d="M12.44,33.68A3.08,3.08,0,0,0,10.59,33c-1.35-.17-2.09.06-2.33.59,0,0-.15.31.16.4"/><path class="cls-5" d="M13.15,33.79l-.18,1s-.06.43-.41.32L8.42,34"/><line class="cls-5" x1="12.92" y1="34.91" x2="8.32" y2="33.6"/><polyline class="cls-5" points="11.43 33.13 14.34 34.05 16.15 24.63"/><path class="cls-5" d="M19.42,24.1a2.07,2.07,0,0,1-.54-1.79"/><line class="cls-5" x1="13.83" y1="22.8" x2="10.75" y2="32.95"/><line class="cls-5" x1="20.22" y1="20.69" x2="20.16" y2="17.52"/><path class="cls-5" d="M13.86,22.81c1.35.45,3.92-.64,5.2-.59"/><line class="cls-5" x1="14.93" y1="16.69" x2="13.66" y2="21.75"/><path class="cls-5" d="M15.18,24.42a8.73,8.73,0,0,0,2.8.31"/><path class="cls-5" d="M19.78,23.33l-.61.46"/><path class="cls-5" d="M20.07,16.35c1.13.83,2.25,4,2.25,4a1.12,1.12,0,0,1,0,.82"/><path class="cls-5" d="M20.35,20.6a1.4,1.4,0,0,1,.55.08"/><line class="cls-5" x1="18.98" y1="22.32" x2="19.35" y2="21.9"/><line class="cls-5" x1="20.35" y1="20.6" x2="20.21" y2="20.12"/><path class="cls-5" d="M19.63,23.47c.12.11.22.17.26.14s-.07-.39-.32-.74-.52-.61-.59-.55"/><path class="cls-5" d="M20.4,23.06c.07-.06-.11-.38-.4-.71s-.58-.54-.65-.48"/><path class="cls-5" d="M19.89,23.61l.51-.55s.18.17.7-.37,1.23-1.44,1.23-1.44"/><path class="cls-5" d="M19.35,21.87a.51.51,0,0,1,.08-.41c.15-.17.91-.84.91-.84"/><line class="cls-5" x1="10.93" y1="15.31" x2="11.07" y2="15.85"/><path class="cls-5" d="M12,14.58c.16,0,.27-.05.29,0s-.23.32-.62.52-.74.3-.78.22,0-.05,0-.09"/><path class="cls-5" d="M12.53,15.3c0,.08-.26.28-.67.44s-.77.22-.8.14"/><path class="cls-5" d="M12.33,14.57l.2.73s.25-.07.46.64.44,1.85.44,1.85"/><path class="cls-5" d="M11.06,15.88a.46.46,0,0,0-.11.4c.05.22,1,2.57,1,2.57s.18.77,1.33.37c.45-.16.82-.3,1.1-.42"/><path class="cls-5" d="M13.83,22.8s-.43-.19-.17-1.05"/><path class="cls-5" d="M10,15.22a2.92,2.92,0,0,0,.45-.61c.11-.25.11-.44,0-.56s-.37.08-.48.19l-.63.62s-.41.34-.11.69.59.35,1,0a9,9,0,0,0,.85-.76"/><path class="cls-5" d="M10.14,15.08a.18.18,0,0,1,.07.18"/><path class="cls-5" d="M9.84,14.37s.25-.41.06-.66c0,0-.14-.21-.41.06s-.78.84-.78.84-.35.42-.11.61a.82.82,0,0,0,.52.09"/><path class="cls-5" d="M12.15,14.81l-2.34-2.4a.39.39,0,0,0-.53.09,1.34,1.34,0,0,1-.87.42c-.25,0-.33,0-.34.2s.33.49,1.16.39.86-.41.86-.41"/><path class="cls-5" d="M8.52,15.07a.47.47,0,0,1-.59-.4c0-.16-.08-.27-.11-.35"/><line class="cls-5" x1="10.17" y1="14.06" x2="9.99" y2="14.05"/><line class="cls-5" x1="10.9" y1="15.01" x2="11.05" y2="15.3"/><line class="cls-5" x1="8.95" y1="13.56" x2="9.27" y2="14"/><path class="cls-5" d="M8.94,12.69l-.5-1.11a1.69,1.69,0,0,1-.58.44"/><line class="cls-5" x1="9.45" y1="13.81" x2="9.32" y2="13.54"/><path class="cls-5" d="M15.67,15.22s-.63.25-2.3,2.3"/><polyline class="cls-5" points="16.18 14.44 16.53 15.22 16.53 17.44"/><polyline class="cls-5" points="16.53 15.22 15.78 16.1 15.68 15.19 16.24 14.35"/><path class="cls-5" d="M19.81,15.09l-1.94.47-1.34,1.88c-.06.07-1.29,5.36-1.29,5.36"/><polyline class="cls-5" points="17.87 15.56 18.11 16.69 20.14 16.34 19.81 14.94"/><path class="cls-6" d="M18.55,10.27l.25,0h0c.11,0,.22,0,.34,0s.42.07.63.06a.23.23,0,0,1,.22.26.42.42,0,0,1-.05.2.25.25,0,0,1-.21.11.27.27,0,0,1-.18,0l-.12,0h-.11a2.06,2.06,0,0,0-.26,0,1.55,1.55,0,0,1-.31,0,.55.55,0,0,1-.31-.05.26.26,0,0,1-.16-.28A.24.24,0,0,1,18.55,10.27Z"/><path class="cls-6" d="M15.91,9.89a.83.83,0,0,1,.19-.26.61.61,0,0,1,.46-.2h0l.13,0a.75.75,0,0,1,.69.27,1,1,0,0,1,.19.7,1,1,0,0,1-.12.41.93.93,0,0,1-.14.14.75.75,0,0,1-.7.28.68.68,0,0,1-.43-.17,2,2,0,0,1-.24-.33A.94.94,0,0,1,15.91,9.89Z"/><path class="cls-5" d="M15.37,8.48a6.56,6.56,0,0,0-.21,1.24"/><path class="cls-5" d="M19.07,5.92a3.43,3.43,0,0,0-.72,0,3.32,3.32,0,0,0-3,2.57"/><path class="cls-5" d="M22.06,10.39A5.06,5.06,0,0,0,22.11,9a3.21,3.21,0,0,0-2.33-2.9,5,5,0,0,0-.71-.15"/><path class="cls-5" d="M19.76,15.09a4,4,0,0,1,.75-1.42"/><path class="cls-5" d="M20.52,13.63a.87.87,0,0,0,.07.25.47.47,0,0,0,.1.1c.29.19.59-.12.76-.51a2.28,2.28,0,0,1,.81-1c.41-.32,1.13-1.54.47-2-.47-.32-.85,0-1.09.36"/><path class="cls-5" d="M20.52,13.34a.71.71,0,0,0,0,.29"/><path class="cls-5" d="M22.19,11.19a2.86,2.86,0,0,1-.49.74,1.33,1.33,0,0,0-.24.39"/><path class="cls-5" d="M21.89,11.71a.33.33,0,0,0,.32.09"/><path class="cls-5" d="M22.06,11.8a.4.4,0,0,0,0,.23"/><path class="cls-5" d="M15.16,9.72a.58.58,0,0,0-.67-.09c-.73.31-.26,1.64.07,2a2.37,2.37,0,0,1,.61,1.17c.08.41.32.78.63.65a.25.25,0,0,0,.12-.08.57.57,0,0,0,.13-.28"/><path class="cls-5" d="M16.23,14.52l.06-.51a4,4,0,0,0-.53-1.62,7.27,7.27,0,0,1-.6-2.67"/><path class="cls-5" d="M14.88,10.44a3.17,3.17,0,0,0,.33.83,1,1,0,0,1,.16.43"/><path class="cls-5" d="M15.08,11a.33.33,0,0,1-.34,0"/><path class="cls-5" d="M14.89,11.07a.35.35,0,0,1-.05.23"/><path class="cls-5" d="M17.16,12.31a2.54,2.54,0,0,0,1.91,0"/><path class="cls-5" d="M18.52,9.8a1,1,0,0,0-.3.61.92.92,0,0,0,.81,1,1,1,0,0,0,.4,0"/><path class="cls-5" d="M19.81,11.1a1,1,0,0,0,0-1.18"/><ellipse class="cls-5" cx="16.73" cy="10.26" rx="0.93" ry="0.9" transform="translate(5.39 26.29) rotate(-86.25)"/><line class="cls-5" x1="18.3" y1="10.19" x2="20" y2="10.36"/><line class="cls-5" x1="19.91" y1="10.96" x2="18.26" y2="10.79"/><path class="cls-7" d="M15.84,10.16a.2.2,0,0,1,.08-.1l0,0A.12.12,0,0,1,16,10a.2.2,0,0,1,.1,0,.18.18,0,0,1,.1,0,.16.16,0,0,1,.08.06l0,.06a.19.19,0,0,1,0,.13v.07a.28.28,0,0,1-.08.11h0a.14.14,0,0,1-.08,0,.18.18,0,0,1-.1,0,.17.17,0,0,1-.1,0,.16.16,0,0,1-.08-.06l0-.06a.22.22,0,0,1,0-.14Z"/><path class="cls-7" d="M18.25,10.36a.16.16,0,0,1,.06-.08.19.19,0,0,1,.09,0h.1l.06,0a.18.18,0,0,1,.11.08l0,0a.35.35,0,0,1,0,.14v0a.19.19,0,0,1,0,.1.28.28,0,0,1-.15.12.16.16,0,0,1-.1,0h-.06a.31.31,0,0,1-.11-.08l0-.06a.32.32,0,0,1,0-.14h0A.3.3,0,0,1,18.25,10.36Z"/><path class="cls-8" d="M18.45,11.48s0-.07,0-.11a.64.64,0,1,0-.71.6.77.77,0,0,0,.27,0"/><line class="cls-5" x1="18.55" y1="8.27" x2="20.19" y2="8.27"/><path class="cls-5" d="M16.41,8.68s1.18,0,1.18,0"/><path class="cls-7" d="M21.55,10.19l0,0h.09l0,0a253590322150.63,253590322150.63,0,0,1,0,.06v0l0,0h-.1l0,0,0,0v-.05Z"/><path class="cls-7" d="M21.64,9.69a.09.09,0,0,1,0,.17A.09.09,0,0,1,21.64,9.69Z"/><path class="cls-7" d="M21.39,9.33c.1,0,.09.17,0,.16A.08.08,0,1,1,21.39,9.33Z"/><path class="cls-7" d="M21.39,9.83c.1,0,.09.18,0,.17A.09.09,0,0,1,21.39,9.83Z"/><path class="cls-7" d="M15.51,9.52v0l0,0h.07l0,0v0h0a.07.07,0,0,1,0,0h0s0,0,0,0a0,0,0,0,1,0,0l0,0h-.08s0,0,0,0h0A0,0,0,0,1,15.51,9.52Z"/><path class="cls-7" d="M15.56,9.06a.09.09,0,0,1,0,.17A.09.09,0,0,1,15.56,9.06Z"/><path class="cls-7" d="M15.94,8.84c.1,0,.09.17,0,.16A.08.08,0,1,1,15.94,8.84Z"/><path class="cls-7" d="M15.85,9.25a.08.08,0,1,1,0,.16C15.74,9.41,15.75,9.24,15.85,9.25Z"/><path class="cls-9" d="M9.48,19c0-.14.06-.29.09-.43a4.62,4.62,0,0,0,.08-.65c0-.28,0-.56,0-.84-1.17.42-2.29,1-3.45,1.39a.7.7,0,0,0-.28.23.84.84,0,0,0-.63-.26,1.15,1.15,0,0,0-.73.33H4.29l-.34,0h0a.45.45,0,0,0-.85.31.89.89,0,0,0,.57.55h0a10.66,10.66,0,0,0-.89.6A5.74,5.74,0,0,0,2,21c-.24.28-.58.69-.41,1.08a.43.43,0,0,0,.12.17.59.59,0,0,0-.1.55.46.46,0,0,0,.77.14,2.76,2.76,0,0,0,.37-.46.54.54,0,0,0,.07-.13l0-.08a1.47,1.47,0,0,0,.59,0,4.65,4.65,0,0,0,1-.29,5.79,5.79,0,0,0,1.76-1.14,1.27,1.27,0,0,0,.43-.91.57.57,0,0,0,0-.13.33.33,0,0,0,.1,0A.7.7,0,0,0,7,19.69a.25.25,0,0,0,.24,0,20.08,20.08,0,0,1,2.17-.65Z"/><line class="cls-5" x1="6.67" y1="19.84" x2="9.35" y2="19.12"/><line class="cls-5" x1="5.97" y1="18.68" x2="9.54" y2="17.15"/><path class="cls-5" d="M5.89,18.72a.87.87,0,0,0-.39-.3,1.32,1.32,0,0,0-1,.3.57.57,0,0,1-.82-.11.5.5,0,0,0-.15-.14c-.24-.14-.4.15-.4.15a.66.66,0,0,0,.21.93,1.74,1.74,0,0,0,.26.12"/><path class="cls-5" d="M1.77,22.22a.3.3,0,0,1-.25-.06c-.09-.1-.38-.27.24-1A9.12,9.12,0,0,1,4,19.5"/><path class="cls-5" d="M2.51,21.47A13,13,0,0,1,4,20.3"/><path class="cls-5" d="M3,22.29l-.1.11c-.89,1-1.13.81-1.33.54s.43-1,.43-1,.14-.16.3-.32"/><path class="cls-5" d="M3.87,20a2.43,2.43,0,0,0,.6,1"/><path class="cls-5" d="M2.32,21.66a.36.36,0,0,0,0,.11c0,.38.32.49.86.49A5.44,5.44,0,0,0,6.07,21c1.1-.88.37-1.48.37-1.48"/><path class="cls-5" d="M4.65,20.93a4.58,4.58,0,0,1-1.75.46s-.48,0-.58.27"/><path class="cls-5" d="M4.48,20a2.16,2.16,0,0,0,1.12-.22"/><path class="cls-9" d="M31.77,25.43c-.22-.14-.34-.21-.53-.35s-.35-.26-.51-.4l-.3-.27c.22.09.44.16.66.24a2.49,2.49,0,0,0,1.36.25.46.46,0,0,0,.29-.57.47.47,0,0,0-.57-.29c.09,0,0,0,0,0l-.08,0L31.85,24l-.63-.21-.11,0L31,23.66l-.29-.12c-.15-.06-.28-.14-.42-.21l.07-.11h.07a.62.62,0,0,0,.26-.09,1,1,0,0,0,.14-.15.41.41,0,0,0,.07-.11h0l0-.06a.21.21,0,0,0,0-.06l0-.12a.61.61,0,0,0,0-.14.48.48,0,0,0-.5-.44l-.12,0-.11.05h0a.32.32,0,0,0-.09.08,1,1,0,0,0-.08.11h0l0,0-.13,0h-.18a.49.49,0,0,0-.28.09.89.89,0,0,0-.24-.3.85.85,0,0,0-1.18,0,.1.1,0,0,0,0,.05.64.64,0,0,0-.16-.2c-.13-.11-.28-.17-.4-.28a8.34,8.34,0,0,1-.68-.76,7.6,7.6,0,0,0-.76-.74,5.46,5.46,0,0,1-.45-.39c-.12-.12-.21-.27-.33-.4l-.13.21c-.1.19-.2.38-.28.57a1.11,1.11,0,0,1-.07.16h0c0,.11-.06.22-.08.32s0,.2-.06.3,0,.11,0,.17v0l.62.56A15,15,0,0,0,27,23.14a.61.61,0,0,0,.18.09.84.84,0,0,0,.11.65,1.63,1.63,0,0,0,.45.53c.17.14.36.26.52.42l.11.1a.43.43,0,0,0,.14.33l.77.75.39.37a1.07,1.07,0,0,0,.53.38.47.47,0,0,0,.53-.36.49.49,0,0,0-.27-.51h0l-.1-.09-.16-.16-.36-.35-.17-.16a.75.75,0,0,0,.06-.13,9.93,9.93,0,0,0,1.63,1.25A.46.46,0,0,0,32,26,.47.47,0,0,0,31.77,25.43Z"/><path class="cls-5" d="M30.21,23.28a.71.71,0,0,0,.67-1.18s-.23-.33-.48-.17c0,0,0,0-.14.16a.6.6,0,0,1-.9.13c-.51-.33-.83-.3-1-.24a.82.82,0,0,0-.42.35"/><path class="cls-5" d="M30,23.18A9,9,0,0,0,32,24s.7.14.67.63-.58.4-.8.33a11.69,11.69,0,0,1-1.51-.57"/><path class="cls-5" d="M29.3,24.59l1.17,1.25c.07.1.43.6.1.9s-.89-.32-1.12-.52-1.69-1.7-2.16-2.17a.75.75,0,0,1-.12-.91"/><path class="cls-5" d="M29.78,23.55a2.67,2.67,0,0,1-.91,1.1"/><path class="cls-5" d="M29.15,24.45l1.63,1.43c.2.18.8.64,1.12.25,0,0,.28-.31-.27-.81s-1.95-1.45-1.95-1.45"/><path class="cls-5" d="M28.61,24.19a1.45,1.45,0,0,0-.27-1.1"/><line class="cls-5" x1="27.01" y1="23.28" x2="24.57" y2="21.19"/><line class="cls-5" x1="28.05" y1="22.19" x2="25.31" y2="19.43"/><ellipse class="cls-10" cx="17.87" cy="13.65" rx="10.18" ry="9.22" transform="translate(1.55 29.12) rotate(-80.84)"/><path class="cls-10" d="M28.44,13.77a1.19,1.19,0,0,0-.56-.71,1.19,1.19,0,0,0-.19-2,1.19,1.19,0,0,0,.17-1.64A1.22,1.22,0,0,0,27.07,9,1.17,1.17,0,0,0,27,7.74a1.15,1.15,0,0,0-.76-.44,1.18,1.18,0,0,0-1.34-1.65,1.19,1.19,0,0,0-.56-1.17,1.15,1.15,0,0,0-.88-.14,1.18,1.18,0,0,0-1-1.32,1.16,1.16,0,0,0-.88.21,1.16,1.16,0,0,0-1.92-.58,1.16,1.16,0,0,0-2,0,1.17,1.17,0,0,0-2.11.47,1.16,1.16,0,0,0-.88-.15,1.18,1.18,0,0,0-.89.94A1.18,1.18,0,0,0,12,5a1.12,1.12,0,0,0-.86.17,1.19,1.19,0,0,0-.51,1.19A1.18,1.18,0,0,0,9.35,8.15,1.2,1.2,0,0,0,8.56,10a1.18,1.18,0,0,0-.76.49,1.2,1.2,0,0,0,.11,1.49A1.2,1.2,0,0,0,7.9,14a1.21,1.21,0,0,0-.37,1.25,1.19,1.19,0,0,0,.56.7,1.19,1.19,0,0,0-.17,1.64,1.22,1.22,0,0,0,.79.44,1.17,1.17,0,0,0,.87,1.73,1.18,1.18,0,0,0,1.34,1.65,1.19,1.19,0,0,0,.56,1.17,1.15,1.15,0,0,0,.88.14,1.17,1.17,0,0,0,1.85,1.11,1.18,1.18,0,0,0,.95.88,1.16,1.16,0,0,0,1-.3,1.16,1.16,0,0,0,2,.05A1.17,1.17,0,0,0,20.25,24a1.14,1.14,0,0,0,.87.15,1.18,1.18,0,0,0,.9-.94,1.19,1.19,0,0,0,.89.15,1.18,1.18,0,0,0,.9-1.29,1.19,1.19,0,0,0,1.38-1.37,1.18,1.18,0,0,0,1.24-1.78,1.22,1.22,0,0,0,.75-.49,1.18,1.18,0,0,0,0-1.3,1.24,1.24,0,0,0,.76-.5,1.2,1.2,0,0,0-.11-1.49A1.19,1.19,0,0,0,28.44,13.77Z"/><ellipse class="cls-5" cx="17.87" cy="13.65" rx="10.18" ry="9.22" transform="translate(1.55 29.12) rotate(-80.84)"/><ellipse class="cls-9" cx="18.13" cy="12.06" rx="3.69" ry="3.34" transform="translate(3.33 28.04) rotate(-80.84)"/><ellipse class="cls-5" cx="18.13" cy="12.06" rx="3.69" ry="3.34" transform="translate(3.33 28.04) rotate(-80.84)"/><path class="cls-5" d="M28.44,13.77a1.19,1.19,0,0,0-.56-.71,1.19,1.19,0,0,0-.19-2,1.19,1.19,0,0,0,.17-1.64A1.22,1.22,0,0,0,27.07,9,1.17,1.17,0,0,0,27,7.74a1.15,1.15,0,0,0-.76-.44,1.18,1.18,0,0,0-1.34-1.65,1.19,1.19,0,0,0-.56-1.17,1.15,1.15,0,0,0-.88-.14,1.18,1.18,0,0,0-1-1.32,1.16,1.16,0,0,0-.88.21,1.16,1.16,0,0,0-1.92-.58,1.16,1.16,0,0,0-2,0,1.17,1.17,0,0,0-2.11.47,1.16,1.16,0,0,0-.88-.15,1.18,1.18,0,0,0-.89.94A1.18,1.18,0,0,0,12,5a1.12,1.12,0,0,0-.86.17,1.19,1.19,0,0,0-.51,1.19A1.18,1.18,0,0,0,9.35,8.15,1.2,1.2,0,0,0,8.56,10a1.18,1.18,0,0,0-.76.49,1.2,1.2,0,0,0,.11,1.49A1.2,1.2,0,0,0,7.9,14a1.21,1.21,0,0,0-.37,1.25,1.19,1.19,0,0,0,.56.7,1.19,1.19,0,0,0-.17,1.64,1.22,1.22,0,0,0,.79.44,1.17,1.17,0,0,0,.87,1.73,1.18,1.18,0,0,0,1.34,1.65,1.19,1.19,0,0,0,.56,1.17,1.15,1.15,0,0,0,.88.14,1.17,1.17,0,0,0,1.85,1.11,1.18,1.18,0,0,0,.95.88,1.16,1.16,0,0,0,1-.3,1.16,1.16,0,0,0,2,.05A1.17,1.17,0,0,0,20.25,24a1.14,1.14,0,0,0,.87.15,1.18,1.18,0,0,0,.9-.94,1.19,1.19,0,0,0,.89.15,1.18,1.18,0,0,0,.9-1.29,1.19,1.19,0,0,0,1.38-1.37,1.18,1.18,0,0,0,1.24-1.78,1.22,1.22,0,0,0,.75-.49,1.18,1.18,0,0,0,0-1.3,1.24,1.24,0,0,0,.76-.5,1.2,1.2,0,0,0-.11-1.49A1.19,1.19,0,0,0,28.44,13.77Z"/><path class="cls-5" d="M19.84,12.9a2.36,2.36,0,0,1-3.77-.53"/><circle class="cls-11" cx="17.11" cy="11.17" r="1.05"/><circle class="cls-11" cx="19.2" cy="11.47" r="1.05"/><circle class="cls-12" cx="18.03" cy="12.06" r="0.75"/><circle class="cls-7" cx="17.11" cy="11.2" r="0.28"/><circle class="cls-7" cx="19.21" cy="11.5" r="0.28"/></g></svg>