<svg xmlns="http://www.w3.org/2000/svg" viewBox="0 0 30.91 32.15"><defs><style>.cls-1{fill:#89d3de;}.cls-2,.cls-6{fill:#f9b730;}.cls-3{fill:#af6e30;}.cls-4,.cls-5{fill:none;}.cls-4{stroke:#1c204d;}.cls-4,.cls-5,.cls-6{stroke-linecap:round;stroke-linejoin:round;stroke-width:0.4px;}.cls-5,.cls-6{stroke:#1b214e;}</style></defs><g id="Layer_1" data-name="Layer 1"><path class="cls-1" d="M27.3,18.9a4,4,0,0,0-.57-.33.29.29,0,0,0-.15-.14,4.08,4.08,0,0,1-.58-.32L25.86,18,25.8,18h0l-.05,0a.18.18,0,0,1-.07-.05l-.13-.12a.5.5,0,0,0-.55-.07,2.86,2.86,0,0,0-2-.22,1,1,0,0,0-.4.24,26.23,26.23,0,0,1-8.14-.93,9.85,9.85,0,0,1-3.06-1.15c-.14-.18-.29-.36-.41-.54a1.57,1.57,0,0,0-.76-.59c-.45-.6-1-1.32-1.61-1.51v0c0-.15.06-.3.1-.44a.94.94,0,0,0,.17-.5.91.91,0,0,0-.27-.64l-.11-.08a1.84,1.84,0,0,0-.4-.69A.78.78,0,0,0,7.67,10l-.07,0c-.3-.14-.55-.38-.86-.52a1.74,1.74,0,0,0-.9-.19,2.23,2.23,0,0,0-.93.31,4.68,4.68,0,0,0-.62.45,1.88,1.88,0,0,0-.48.67,3.15,3.15,0,0,0-.42,1.61,1,1,0,0,0,.27.65l0,0a5.73,5.73,0,0,0,1.18,3,8.12,8.12,0,0,0,1.19,1.08l1.48,1.16a.47.47,0,0,0,.57.05,12.37,12.37,0,0,0,.81,1.35A7.83,7.83,0,0,0,10.8,22a2.62,2.62,0,0,1-.27.59c-.06.09-.2.34-.3.38.17-.07-.19-.1-.24-.11-.4-.07-1.17-.24-1.43.2-.59,1,1.72,1.81,2.29,2.07a17.7,17.7,0,0,0,3.91,1.2c.67.14,1.34.29,2,.47a2.69,2.69,0,0,0,1.75,0,.47.47,0,0,0,.2-.77,4.67,4.67,0,0,0-1.15-.78l-.09,0A.87.87,0,0,0,17.4,25l-.22-.39s0,0,0-.07a.57.57,0,0,0,0-.13,8.4,8.4,0,0,0,3.46-1.59c.61-.48,1.16-1,1.78-1.48a7.36,7.36,0,0,1,2.3-1.13,1,1,0,0,0,.43-.3.72.72,0,0,0,.78-.08l1.11-.07a.45.45,0,0,0,.44-.33A.47.47,0,0,0,27.3,18.9ZM6.5,15.77A5.63,5.63,0,0,1,5,13.87s0,0,0,0a4.47,4.47,0,0,0,0-.52,2.43,2.43,0,0,1-.12-.85,1.76,1.76,0,0,1,.18-.67,1.35,1.35,0,0,1,.46-.49l0,0,.34-.22a2.21,2.21,0,0,1,.36.23l.33.19h0l.12.06h0l.07,0,.23.19a2.43,2.43,0,0,0-.17.52c-.06.23-.11.46-.16.7a3,3,0,0,0,0,1.07,1.64,1.64,0,0,0,.43.81,7,7,0,0,0,.29,1.7C7.13,16.28,6.81,16,6.5,15.77Z"/><path class="cls-2" d="M23.73,16.13a2,2,0,0,1-.53-.55.88.88,0,0,0-.68-.4,1.2,1.2,0,0,0-.13-.31,17.1,17.1,0,0,0-3.83-4.3.44.44,0,0,0,.11-.3l0-1.65a1,1,0,0,0-.23-.79.47.47,0,0,0-.09-.06.65.65,0,0,0-.27-.17.81.81,0,0,0-.51.05h0l-.11,0a.34.34,0,0,0-.19.23,5.84,5.84,0,0,0-1.38.66.6.6,0,0,0-.08.08l-.12-.05-.12,0-.06,0-.42-.05a1.71,1.71,0,0,0-.45,0A5.76,5.76,0,0,0,13.14,8h-.29a3,3,0,0,0-.79-.16.43.43,0,0,0-.48-.16c-.52.19-1,.35-1.57.49a4.1,4.1,0,0,1-1,.22l-.1-.05,0,0a.49.49,0,0,0-.33-.13.31.31,0,0,0-.13,0A1,1,0,0,0,8,8.08a.73.73,0,0,0-.69.33c-.24.39,0,.88.25,1.25a.71.71,0,0,0,.14.46,3.55,3.55,0,0,0,.9.87h0a1.2,1.2,0,0,0,0,.2c0,.45.05.91.07,1.37a2.49,2.49,0,0,0-.55.57,5.9,5.9,0,0,0-.4.69,2,2,0,0,1-.18.32s-.16.18,0,0c-.06.05-.1.11-.16.16a.93.93,0,0,0,.41,1.53,2.86,2.86,0,0,0,1.09,0l.39-.07h.34c.39,0,.79,0,1.18,0a4.43,4.43,0,0,0,2,1.25,16.13,16.13,0,0,0,3.52.69,16.57,16.57,0,0,0,3.52.12c1.23-.07,2.43.05,3.66-.13C24.37,17.68,24.31,16.52,23.73,16.13Z"/><path class="cls-3" d="M23.29,15.62a.51.51,0,0,0-.33-.13.43.43,0,0,0-.18.06,0,0,0,0,0,0,0c-.74-1-1.46-2.11-2.17-3.19a1,1,0,0,0-.46-.37v0l-.24-.19c-.09-.09-.17-.2-.26-.31s-.21-.3-.31-.46a.39.39,0,0,0-.33.22,2,2,0,0,0-.18.75.68.68,0,0,1,0,.14h0c-.11,0-.26-.2-.32-.27-.38-.39-.9-.75-1.45-.43a1.17,1.17,0,0,0-.45,1.4,4.25,4.25,0,0,0,1,1.31c.31.36.46.84.06,1.2a1.24,1.24,0,0,1-.8.18,1.65,1.65,0,0,0-.72.2,1.11,1.11,0,0,0-.38,1.46,1.15,1.15,0,0,1,0,.71l.92.17h0l.15,0,.39.08,0,0a2.57,2.57,0,0,0,.48,0c.23,0,.47,0,.7-.08l.22,0,.13,0h.06a11.31,11.31,0,0,1,2.6,0,.78.78,0,0,0,.71-.35l.67,0,.1,0a1.4,1.4,0,0,0,.76,0h0a.48.48,0,0,0,.36-.3.42.42,0,0,0,0-.22.74.74,0,0,0,.1-.35C24.18,16.27,23.66,15.91,23.29,15.62Z"/><path class="cls-3" d="M15.22,12.05s0,0,0,0l-.09-.12,0-.05-.12-.09,0,0,0,0a.59.59,0,0,0-.14-.06.37.37,0,0,0-.18,0,.34.34,0,0,0-.17,0h0l-.09.07a.45.45,0,0,0-.12.21v.12a.46.46,0,0,0,.06.23,1.58,1.58,0,0,0,.12.15l0,0,.12.1.07,0,.18.07.12,0,.12,0,.11-.05a.3.3,0,0,0,.13-.12.17.17,0,0,0,.06-.1.2.2,0,0,0,0-.11.24.24,0,0,0,0-.12A.31.31,0,0,0,15.22,12.05Z"/><line class="cls-4" x1="8.72" y1="14.02" x2="8.56" y2="10.84"/><path class="cls-4" d="M23,16.22c-.09.71-3.4-.35-7.4-2.37S8.43,9.63,8.52,8.92s3.75-2,7.74,0S23.09,15.52,23,16.22Z"/><path class="cls-4" d="M9.19,8.36a1,1,0,0,0-.42-.23.53.53,0,0,0-.52.06.72.72,0,0,0-.58-.14.5.5,0,0,0-.44.59v0l0,0c-.12.17,0,.64.39,1.05a1.48,1.48,0,0,0,.58.48,1.66,1.66,0,0,0,.54.7,1.28,1.28,0,0,0,.58.3,1.85,1.85,0,0,0,.53.56,1.11,1.11,0,0,0,.61.25,1.8,1.8,0,0,0,.55.55,1.1,1.1,0,0,0,.63.2,1.58,1.58,0,0,0,.58.53,1,1,0,0,0,.64.18,1.66,1.66,0,0,0,.58.52,1.07,1.07,0,0,0,.61.16,1.54,1.54,0,0,0,.56.46,1.71,1.71,0,0,0,.35.13"/><path class="cls-4" d="M22.55,15.1a.87.87,0,0,1,.42.18,1.45,1.45,0,0,1,.45.56,1,1,0,0,1,.53.42c.27.37.37.78.24.93h0l0,.08c.06.26-.21.5-.6.55A1,1,0,0,1,23,17.7a.7.7,0,0,1-.65.1,1.36,1.36,0,0,1-.59-.29.87.87,0,0,1-.6,0,1.44,1.44,0,0,1-.59-.36.87.87,0,0,1-.62,0,1.35,1.35,0,0,1-.6-.42.89.89,0,0,1-.64-.07,1.58,1.58,0,0,1-.6-.45.93.93,0,0,1-.64-.1,1.52,1.52,0,0,1-.57-.44.93.93,0,0,1-.61-.12,1.47,1.47,0,0,1-.31-.23"/><path class="cls-4" d="M14.94,14.76a1.56,1.56,0,0,0,.48.37,1,1,0,0,0,.55.14"/><path class="cls-4" d="M8.12,12.89a2.28,2.28,0,0,1,0-.58"/><path class="cls-4" d="M26.9,19.25A14.56,14.56,0,0,0,20.16,18a16.88,16.88,0,0,1-8.78-1.45,9.45,9.45,0,0,1-1-.63"/><path class="cls-4" d="M17,24.35c2.44-.08,3.74-1.69,5-2.69a7.15,7.15,0,0,1,4.92-1.81s.61-.08.67-.49-1-1.27-3.18-2.08"/><path class="cls-4" d="M11.89,22.72A10.57,10.57,0,0,0,14.57,24a6.51,6.51,0,0,0,.78.21"/><path class="cls-4" d="M8.49,11.6a1.39,1.39,0,0,0-1.77,1.48A12.13,12.13,0,0,0,10.93,22"/><path class="cls-4" d="M7.31,16.61A6.81,6.81,0,0,1,6,15.28a4.69,4.69,0,0,1-1-2.64,2.61,2.61,0,0,1,.23-1.19.77.77,0,0,1,.13-.2c0-.06.09-.12.14-.14s0,0,.07,0h0s.13,0,.18,0a1.38,1.38,0,0,1,.86.42,3.23,3.23,0,0,1,.38.43"/><path class="cls-4" d="M8.53,11.22a3.51,3.51,0,0,0-.94-1.06,3,3,0,0,0-2.07-.81A1.68,1.68,0,0,0,5,9.46a1.78,1.78,0,0,0-.29.12,2,2,0,0,0-.23.17,1.58,1.58,0,0,0-.37.41,2,2,0,0,0-.25.45,4.19,4.19,0,0,0-.29,1.91A6.48,6.48,0,0,0,5,16.06a10.65,10.65,0,0,0,3.08,2.36"/><path class="cls-4" d="M9.73,23.36c-.06.39,1.67,1.26,3.86,1.93s4,.91,4.09.52a4.65,4.65,0,0,1-.41-1.4"/><path class="cls-4" d="M10.17,22.87c-1-.08-1.71.05-1.77.41-.11.69,2.15,2,5,2.87s5.35,1.06,5.46.37c.06-.36-.51-.87-1.46-1.4"/><path class="cls-4" d="M9.74,23.3a2,2,0,0,0,.94-1.36"/><path class="cls-4" d="M11.4,15.89l-3.35,0s-1.19,0-.82-1.07A16,16,0,0,1,8.6,12.22"/><line class="cls-4" x1="9.85" y1="13.81" x2="8.4" y2="14.11"/><path class="cls-4" d="M18.76,10.6V8.36s0-1.18-1.06-.82a12.2,12.2,0,0,0-2,1"/><line class="cls-4" x1="16.9" y1="9.21" x2="17.02" y2="8.7"/><path class="cls-2" d="M12.64,8h0a.36.36,0,0,1,0-.11A1.14,1.14,0,0,1,12.83,7a.88.88,0,0,1,.88-.31,1,1,0,0,1,.77.49,1.08,1.08,0,0,1,.11.57.14.14,0,0,0-.11,0c-.09,0,.08.28,0,.3s-.42.07-.52.09-.47-.09-.64,0l-.07.08-.27,0A.27.27,0,0,1,12.64,8Z"/><path class="cls-2" d="M11.83,8.8a2.4,2.4,0,0,0-.73.53S11,9.24,11,9.19a.93.93,0,0,1-.25-.8.34.34,0,0,1,0-.26A2.13,2.13,0,0,1,11,7.79l.08-.06a.86.86,0,0,1,.18-.14.83.83,0,0,1,.69,0,.7.7,0,0,1,.54.33,1.36,1.36,0,0,1,.24.63A2.71,2.71,0,0,0,11.83,8.8Z"/><path class="cls-5" d="M12.77,8.29l0,0A1,1,0,0,1,14.4,7a1,1,0,0,1,.19.78"/><polyline class="cls-6" points="12.72 8.33 16.05 7.75 15.15 8.27 13.27 9.38"/><path class="cls-5" d="M10.74,8.13a1.14,1.14,0,0,1,.35-.47,1,1,0,0,1,1.44.22,1,1,0,0,1-.22,1.44,1,1,0,0,1-.7.2"/><path class="cls-5" d="M11.17,9.37a1,1,0,0,1-.3-.27.93.93,0,0,1-.16-.35"/><path class="cls-5" d="M12.66,8.11A3.33,3.33,0,0,0,10.85,9"/><path class="cls-5" d="M14.57,7.42a2.19,2.19,0,0,0-1.91.69"/><path class="cls-5" d="M10.51,10.11a3.5,3.5,0,0,0,3.81-.53"/></g></svg>