<svg xmlns="http://www.w3.org/2000/svg" viewBox="0 0 75.91 59.5"><defs><style>.cls-1{fill:#ea4827;}.cls-2{fill:#f9b730;}.cls-3,.cls-5{fill:none;stroke-linecap:round;stroke-linejoin:round;stroke-width:0.8px;}.cls-3{stroke:#1c204d;}.cls-4{fill:#fff;}.cls-5{stroke:#1b214e;}.cls-6{fill:#1b214e;}</style></defs><g id="Layer_1" data-name="Layer 1"><path class="cls-1" d="M38.6,52.74c13-.35,23-2.38,23.89-4.47l2.56-12.56"/><path class="cls-1" d="M38.71,52.74c-13.14.35-23.37-1.14-24.4-3.17L10.85,36.46"/><path class="cls-2" d="M10.3,31.12c.06,2.26,12.56,3.75,27.92,3.34S66,31.88,65.91,29.62,53,18.25,37.68,18.66,10.24,28.86,10.3,31.12Z"/><path class="cls-2" d="M63.69,27a3.51,3.51,0,0,1,1.61-.11,3,3,0,0,1,1.89.93,2.87,2.87,0,0,1,2.15.41c1.14.65,1.75,1.72,1.37,2.38l0,.06a.52.52,0,0,1,.15.18c.38.66-.45,1.83-1.84,2.6a4.36,4.36,0,0,1-2.28.63,3.87,3.87,0,0,1-2.26,1.34,4.42,4.42,0,0,1-2.24.07,5,5,0,0,1-4.45.85,4.24,4.24,0,0,1-2.22.85,4.38,4.38,0,0,1-2.39-.28,4.39,4.39,0,0,1-2.3.8,4.31,4.31,0,0,1-2.4-.38,4.26,4.26,0,0,1-2.34.75,4.43,4.43,0,0,1-2.26-.4,4.53,4.53,0,0,1-2.26.61,6.11,6.11,0,0,1-1.32-.12"/><path class="cls-2" d="M12.37,28.36a3.49,3.49,0,0,0-1.62,0,3,3,0,0,0-1.83,1,2.89,2.89,0,0,0-2.13.52c-1.1.72-1.65,1.81-1.24,2.45l.06.06a.65.65,0,0,0-.15.18c-.33.69.56,1.81,2,2.51a4.31,4.31,0,0,0,2.3.5,4,4,0,0,0,2.33,1.22,4.64,4.64,0,0,0,2.25-.05,4.57,4.57,0,0,0,2.18.84,4.55,4.55,0,0,0,2.3-.24,4.32,4.32,0,0,0,2.27.73,4.38,4.38,0,0,0,2.37-.41,4.36,4.36,0,0,0,2.34.68,4.35,4.35,0,0,0,2.37-.51,4.37,4.37,0,0,0,2.39.62A4.45,4.45,0,0,0,32.78,38a4.44,4.44,0,0,0,2.28.48,4.57,4.57,0,0,0,1.23-.22"/><path class="cls-2" d="M40.21,38.12a4.21,4.21,0,0,1-1.88.43,4.78,4.78,0,0,1-2-.34"/><path class="cls-2" d="M14.71,29.15c1.32-.26,2.13.55,3.4.71a3.94,3.94,0,0,0,1.37-.11c.71-.14.47-.18,1.19.11,1.25.51,2.38,0,3.65.14a12.42,12.42,0,0,0,3.36.37,6.54,6.54,0,0,1,2.45-.23,4.25,4.25,0,0,0,3,.1c.16-.07.29-.19.45-.26l.2-.1c.27.1.65.48.88.58a2.9,2.9,0,0,0,1.19.23c.5,0,.87-.36,1.31-.41s1.5.57,2.3.55A4.32,4.32,0,0,0,41,30.38a2.62,2.62,0,0,1,1.25-.06c1,.06,1.83-.49,2.75-.52.66,0,1.28.29,2,.2a10.82,10.82,0,0,0,1.58-.42c1.07-.28,2.06.28,3.15.15.67-.08,1.28-.43,2-.49a15.22,15.22,0,0,1,1.79.1,4.83,4.83,0,0,0,1.65-.21c.47-.17.93-.66,1.42-.73,1.09-.16,1.93.32,3.06-.2a3.83,3.83,0,0,1,2.37-.44,3.5,3.5,0,0,0,1.89-.33,1.76,1.76,0,0,1-.29.66,23.92,23.92,0,0,1-2.79,3.4,2.19,2.19,0,0,1-2,.65A98.69,98.69,0,0,1,50,39.88q-3,1.83-6.08,3.43c-2,1-4.15,2.41-6.5,1.85-2.09-.5-4.16-1.86-6.08-2.8-2.07-1-4.14-2-6.19-3.15A90.44,90.44,0,0,1,13,31.46a1.94,1.94,0,0,1-.6-2.29A5.24,5.24,0,0,0,14.71,29.15Z"/><path class="cls-1" d="M14,36.85c1.33-.26,2.13.56,3.41.71a4.15,4.15,0,0,0,1.36-.1c.72-.15.47-.19,1.19.1,1.26.51,2.39,0,3.65.14a12.88,12.88,0,0,0,3.36.38,6.4,6.4,0,0,1,2.46-.24,4.17,4.17,0,0,0,3,.1c.16-.07.3-.18.45-.26l.2-.09c.27.09.66.47.89.57a2.82,2.82,0,0,0,1.18.23c.5,0,.87-.36,1.32-.4s1.49.56,2.3.55a4.47,4.47,0,0,0,1.52-.46A2.85,2.85,0,0,1,41.5,38c1,.06,1.83-.49,2.75-.52.66,0,1.29.29,2,.21a12.25,12.25,0,0,0,1.58-.42c1.06-.29,2.06.27,3.15.14.67-.08,1.28-.43,1.94-.49s1.2.1,1.8.1a4.62,4.62,0,0,0,1.65-.2c.46-.17.93-.66,1.41-.74,1.1-.16,1.93.32,3.06-.19a3.78,3.78,0,0,1,2.37-.45,3.55,3.55,0,0,0,1.9-.32,2.11,2.11,0,0,1-.29.66A23.35,23.35,0,0,1,62,39.19a2.16,2.16,0,0,1-2,.65,96.43,96.43,0,0,1-10.76,7.74c-2,1.22-4,2.37-6.08,3.43s-4.15,2.41-6.49,1.85c-2.09-.5-4.17-1.86-6.08-2.79-2.08-1-4.15-2.06-6.19-3.15a90.91,90.91,0,0,1-12.18-7.75,2,2,0,0,1-.6-2.3A5,5,0,0,0,14,36.85Z"/><path class="cls-3" d="M38.6,52.74c13-.35,23-2.38,23.89-4.47l2.62-13"/><path class="cls-3" d="M38.71,52.74c-13.14.35-23.37-1.14-24.4-3.17L10.85,36.46"/><path class="cls-3" d="M10.3,31.12c.06,2.26,12.56,3.75,27.92,3.34S66,31.88,65.91,29.62,53,18.25,37.68,18.66,10.24,28.86,10.3,31.12Z"/><path class="cls-3" d="M63.69,27a3.51,3.51,0,0,1,1.61-.11,3,3,0,0,1,1.89.93,2.87,2.87,0,0,1,2.15.41c1.14.65,1.75,1.72,1.37,2.38l0,.06a.52.52,0,0,1,.15.18c.38.66-.45,1.83-1.84,2.6a4.36,4.36,0,0,1-2.28.63,3.87,3.87,0,0,1-2.26,1.34,4.42,4.42,0,0,1-2.24.07,5,5,0,0,1-4.45.85,4.24,4.24,0,0,1-2.22.85,4.38,4.38,0,0,1-2.39-.28,4.39,4.39,0,0,1-2.3.8,4.31,4.31,0,0,1-2.4-.38,4.26,4.26,0,0,1-2.34.75,4.43,4.43,0,0,1-2.26-.4,4.53,4.53,0,0,1-2.26.61,6.11,6.11,0,0,1-1.32-.12"/><path class="cls-3" d="M12.37,28.36a3.49,3.49,0,0,0-1.62,0,3,3,0,0,0-1.83,1,2.89,2.89,0,0,0-2.13.52c-1.1.72-1.65,1.81-1.24,2.45l.06.06a.65.65,0,0,0-.15.18c-.33.69.56,1.81,2,2.51a4.31,4.31,0,0,0,2.3.5,4,4,0,0,0,2.33,1.22,4.64,4.64,0,0,0,2.25-.05,4.57,4.57,0,0,0,2.18.84,4.55,4.55,0,0,0,2.3-.24,4.32,4.32,0,0,0,2.27.73,4.38,4.38,0,0,0,2.37-.41,4.36,4.36,0,0,0,2.34.68,4.35,4.35,0,0,0,2.37-.51,4.37,4.37,0,0,0,2.39.62A4.45,4.45,0,0,0,32.78,38a4.44,4.44,0,0,0,2.28.48,4.57,4.57,0,0,0,1.23-.22"/><path class="cls-3" d="M40.21,38.12a4.21,4.21,0,0,1-1.88.43,4.78,4.78,0,0,1-2-.34"/><path class="cls-4" d="M45.93,20.51a0,0,0,0,1,0,0A1.12,1.12,0,0,1,46,20a4.13,4.13,0,0,1,2.15-2.58,3.1,3.1,0,0,1,3.37.33,3.43,3.43,0,0,1,1.77,2.79,3.84,3.84,0,0,1-.48,2.05.53.53,0,0,0-.36-.2,7.78,7.78,0,0,1-1.07-.21l-1.1-.2a6.4,6.4,0,0,0-2.35,0,.88.88,0,0,0-.34.15l-1-.26A1,1,0,0,1,45.93,20.51Z"/><path class="cls-4" d="M42,21.93a8.82,8.82,0,0,0-3.25.63,3.35,3.35,0,0,1-.19-.65,3.28,3.28,0,0,1,.39-3,1.2,1.2,0,0,1,.5-.82,6.1,6.1,0,0,1,1.35-.74,1.21,1.21,0,0,1,.33-.07,4,4,0,0,1,.81-.19,3,3,0,0,1,2.36.91c.74.6,1.17.93,1.27,1.93a4.92,4.92,0,0,1-.15,2.44A10.14,10.14,0,0,0,42,21.93Z"/><path class="cls-5" d="M45.88,21.68l0-.14a3.75,3.75,0,1,1,6.77,1.37"/><line class="cls-5" x1="53.79" y1="25.27" x2="46.86" y2="25.89"/><polyline class="cls-5" points="45.67 21.73 57.55 24.93 53.79 25.27"/><path class="cls-5" d="M39,22.82a3.7,3.7,0,0,1-.57-1.35,3.75,3.75,0,1,1,1.8,2.5"/><path class="cls-5" d="M45.41,22.39a8.87,8.87,0,0,0-6.57.12"/><path class="cls-5" d="M52.75,22.53a8.06,8.06,0,0,0-5.19-.35"/><circle class="cls-6" cx="43.01" cy="19.95" r="1.02"/><circle class="cls-6" cx="50.14" cy="19.98" r="1.02"/><path class="cls-5" d="M35.62,24.24S40,30.36,49,28.33"/></g></svg>