<svg xmlns="http://www.w3.org/2000/svg" viewBox="0 0 106.72 351.38"><defs><style>.cls-1{fill:#ea4827;}.cls-2,.cls-4{fill:none;stroke-linecap:round;stroke-linejoin:round;stroke-width:0.8px;}.cls-2{stroke:#1c204d;}.cls-3{fill:#f47951;}.cls-4{stroke:#f8c6dc;}</style></defs><g id="Layer_1" data-name="Layer 1"><path class="cls-1" d="M67.17,19.67H60a3.14,3.14,0,0,0-3,2.12L50.56,40.6,44,21.78a3.13,3.13,0,0,0-3-2.11H34a3.15,3.15,0,0,0-3.14,3.14V74.16A3.15,3.15,0,0,0,34,77.3h7.35a3.15,3.15,0,0,0,3.15-3.14V62.22L45.71,66a3.15,3.15,0,0,0,3,2.17h3.68a3.13,3.13,0,0,0,3-2.15L56.66,62V74.16a3.15,3.15,0,0,0,3.15,3.14h7.36a3.15,3.15,0,0,0,3.14-3.14V22.81A3.15,3.15,0,0,0,67.17,19.67Z"/><path class="cls-2" d="M67.17,19.67H60a3.14,3.14,0,0,0-3,2.12L50.56,40.6,44,21.78a3.13,3.13,0,0,0-3-2.11H34a3.15,3.15,0,0,0-3.14,3.14V74.16A3.15,3.15,0,0,0,34,77.3h7.35a3.15,3.15,0,0,0,3.15-3.14V62.22L45.71,66a3.15,3.15,0,0,0,3,2.17h3.68a3.13,3.13,0,0,0,3-2.15L56.66,62V74.16a3.15,3.15,0,0,0,3.15,3.14h7.36a3.15,3.15,0,0,0,3.14-3.14V22.81A3.15,3.15,0,0,0,67.17,19.67Z"/><path class="cls-3" d="M67.16,75.81H59.81a1.46,1.46,0,0,1-1.46-1.46V51.75l-4.59,13.9a1.45,1.45,0,0,1-1.38,1H48.7a1.47,1.47,0,0,1-1.39-1L42.8,51.83V74.35a1.46,1.46,0,0,1-1.46,1.46H34a1.46,1.46,0,0,1-1.46-1.46V23A1.46,1.46,0,0,1,34,21.54h7.07a1.44,1.44,0,0,1,1.37,1l8.14,23.42,8.08-23.42a1.46,1.46,0,0,1,1.37-1h7.14A1.46,1.46,0,0,1,68.62,23V74.35A1.46,1.46,0,0,1,67.16,75.81Zm-5.89-2.92h4.44V24.46H61.06L52,50.67a1.46,1.46,0,0,1-1.38,1,1.64,1.64,0,0,1-1.52-1L40,24.46H35.45V72.89h4.43V43.12a1.46,1.46,0,0,1,1.46-1.46,1.67,1.67,0,0,1,1.54,1l6.88,21.06h1.57l7-21.07a1.46,1.46,0,0,1,1.38-1,1.59,1.59,0,0,1,1.61,1.46Z"/><path class="cls-4" d="M52,64.82H48.5l-7-20.64V74.31H34V23.15c.24,0,7.14,0,7.14,0l9.42,26.19"/><path class="cls-4" d="M49.16,64.82h3.47l7-20.64V74.31h7.46V23.15c-.25,0-7.15,0-7.15,0L50.55,49.33"/><path class="cls-1" d="M64.35,80.83H56.56a3.15,3.15,0,0,0-3,2.27l-3,10.25-3-10.25a3.17,3.17,0,0,0-3-2.27H36.8a3.15,3.15,0,0,0-3,4.16l9.92,29.15v21.19a3.15,3.15,0,0,0,3.15,3.14h7.35a3.15,3.15,0,0,0,3.15-3.14V114.14L67.33,85a3.15,3.15,0,0,0-3-4.16Z"/><path class="cls-2" d="M64.35,80.83H56.56a3.15,3.15,0,0,0-3,2.27l-3,10.25-3-10.25a3.17,3.17,0,0,0-3-2.27H36.8a3.15,3.15,0,0,0-3,4.16l9.92,29.15v21.19a3.15,3.15,0,0,0,3.15,3.14h7.35a3.15,3.15,0,0,0,3.15-3.14V114.14L67.33,85a3.15,3.15,0,0,0-3-4.16Z"/><path class="cls-3" d="M54.25,137H46.9a1.46,1.46,0,0,1-1.46-1.46V114.05l-10-29.41a1.47,1.47,0,0,1,1.38-1.93h7.79A1.46,1.46,0,0,1,46,83.76l4.59,15.82,4.58-15.82a1.46,1.46,0,0,1,1.4-1.05h7.79a1.45,1.45,0,0,1,1.38,1.93l-10,29.41v21.47A1.46,1.46,0,0,1,54.25,137Zm-5.9-2.92H52.8V113.81a1.49,1.49,0,0,1,.07-.47l9.44-27.72H57.66L52.05,105a1.46,1.46,0,0,1-1.4,1,1.65,1.65,0,0,1-1.55-1L43.49,85.62H38.84l9.44,27.72a1.49,1.49,0,0,1,.07.47Z"/><polyline class="cls-4" points="50.47 103.33 44.65 84.29 36.8 84.29 46.88 113.72 46.88 135.47 50.58 135.47"/><polyline class="cls-4" points="50.47 103.33 56.29 84.29 64.14 84.29 54.06 113.72 54.06 135.47 50.36 135.47"/><path class="cls-1" d="M64.83,153.49a14.23,14.23,0,0,0-3.33-6.06A13.43,13.43,0,0,0,56,143.79a19.56,19.56,0,0,0-6.35-1h-11A3.15,3.15,0,0,0,35.5,146v51.35a3.15,3.15,0,0,0,3.14,3.14H46a3.15,3.15,0,0,0,3.14-3.14V180.41h.61a16.62,16.62,0,0,0,8.16-1.8,13.72,13.72,0,0,0,5.18-5A15.34,15.34,0,0,0,65.22,168a39.88,39.88,0,0,0,.43-6.36A32.66,32.66,0,0,0,64.83,153.49Zm-12.46,9.35a8.92,8.92,0,0,1-.21,1.24c0,.15,0,.31,0,.47a1.12,1.12,0,0,1,.09.41,2.38,2.38,0,0,1-.6,1.75,2.55,2.55,0,0,1-1.69.7,1.11,1.11,0,0,1-1.12-.86.83.83,0,0,1,0-.15,1.8,1.8,0,0,1,0-.19,51.71,51.71,0,0,1-.05-6.1,7.09,7.09,0,0,1,0-2.39v-.07a.6.6,0,0,1-.06-.11,1.22,1.22,0,0,1,.84-1.48,2,2,0,0,1,.87-.05,1.28,1.28,0,0,1,.84.34,2.44,2.44,0,0,1,.62.62,4.74,4.74,0,0,1,.6,2,12,12,0,0,1,.09,2C52.49,161.6,52.44,162.22,52.37,162.84Z"/><path class="cls-2" d="M61.5,147.43A13.43,13.43,0,0,0,56,143.79a19.56,19.56,0,0,0-6.35-1h-11A3.15,3.15,0,0,0,35.5,146v51.35a3.15,3.15,0,0,0,3.14,3.14H46a3.15,3.15,0,0,0,3.14-3.14V180.41h.61a16.62,16.62,0,0,0,8.16-1.8,13.72,13.72,0,0,0,5.18-5A15.34,15.34,0,0,0,65.22,168a39.88,39.88,0,0,0,.43-6.36,32.66,32.66,0,0,0-.82-8.13A14.23,14.23,0,0,0,61.5,147.43Z"/><path class="cls-3" d="M46,199H38.64a1.47,1.47,0,0,1-1.46-1.46V146.16a1.46,1.46,0,0,1,1.46-1.46h11a17.92,17.92,0,0,1,5.81.87,11.7,11.7,0,0,1,4.77,3.2,12.53,12.53,0,0,1,2.94,5.34,31.18,31.18,0,0,1,.77,7.7,37.34,37.34,0,0,1-.42,6.08,13.65,13.65,0,0,1-1.89,5,12.17,12.17,0,0,1-4.57,4.44,15.09,15.09,0,0,1-7.34,1.59h-2.3v18.59A1.46,1.46,0,0,1,46,199Zm-5.9-2.92h4.44V177.46A1.46,1.46,0,0,1,46,176h3.75a12.25,12.25,0,0,0,5.92-1.22,9.31,9.31,0,0,0,3.5-3.41,10.83,10.83,0,0,0,1.51-4,35.19,35.19,0,0,0,.37-5.6,28.14,28.14,0,0,0-.67-6.95,9.59,9.59,0,0,0-2.25-4.11,8.9,8.9,0,0,0-3.59-2.42,15.13,15.13,0,0,0-4.86-.71H40.1ZM49.53,172H46a1.46,1.46,0,0,1-1.46-1.46V153.08A1.45,1.45,0,0,1,46,151.63h3.82a8.15,8.15,0,0,1,4,.83A5.57,5.57,0,0,1,56.19,155a8.85,8.85,0,0,1,.78,3.4c.05,1.1.08,2.27.08,3.49s0,2.55-.12,3.64a7.93,7.93,0,0,1-.85,3.25,5.53,5.53,0,0,1-2.4,2.41A8.91,8.91,0,0,1,49.53,172Zm-2.08-2.91h2.08a6.1,6.1,0,0,0,2.79-.48,2.65,2.65,0,0,0,1.17-1.17,5.15,5.15,0,0,0,.54-2.11c.07-1,.1-2.18.1-3.44s0-2.3-.07-3.36a6,6,0,0,0-.51-2.29A2.7,2.7,0,0,0,52.42,155a5.37,5.37,0,0,0-2.6-.46H47.45Z"/><path class="cls-2" d="M48.71,167.57h1.2a2.64,2.64,0,0,0,1.61-.39,2,2,0,0,0,.69-.94,5.71,5.71,0,0,0,.3-1.71c.05-.84.07-1.76.07-2.78s0-1.86,0-2.72a6.6,6.6,0,0,0-.29-1.86,2.1,2.1,0,0,0-.65-1,2.41,2.41,0,0,0-1.51-.37H48.71Z"/><path class="cls-4" d="M38.44,146.28l13.61,0s10.54-.38,10.54,16c0,15.69-10.85,15.27-10.85,15.27H46.07l0,19.94H38.8Z"/><path class="cls-4" d="M46.07,163.11v-10h4.19c3.64,0,5.21,1.64,5.39,7.9v1.45c-.18,6.26-1.75,7.9-5.39,7.9H46.07V163"/><rect class="cls-1" x="43.76" y="204.82" width="13.64" height="57.64" rx="3.14"/><rect class="cls-2" x="43.76" y="204.82" width="13.64" height="57.64" rx="3.14"/><path class="cls-3" d="M54.25,261H46.9a1.46,1.46,0,0,1-1.46-1.46V208.15a1.46,1.46,0,0,1,1.46-1.46h7.35a1.46,1.46,0,0,1,1.46,1.46V259.5A1.46,1.46,0,0,1,54.25,261ZM48.36,258H52.8V209.61H48.36Z"/><polygon class="cls-4" points="47.03 208.28 54.09 208.28 54.57 259.46 47.03 259.46 47.03 208.28"/><path class="cls-1" d="M62,281.45a3.29,3.29,0,0,0,3.28-3.28v-7.23A3.28,3.28,0,0,0,62,267.66H39.14a3.28,3.28,0,0,0-3.28,3.28v53.57a3.28,3.28,0,0,0,3.28,3.28H62a3.28,3.28,0,0,0,3.28-3.28v-7.67A3.28,3.28,0,0,0,62,313.56H50.09v-9.17h10a3.28,3.28,0,0,0,3.27-3.28v-7.22a3.28,3.28,0,0,0-3.27-3.28h-10v-9.16Z"/><path class="cls-2" d="M62,281.45a3.29,3.29,0,0,0,3.28-3.28v-7.23A3.28,3.28,0,0,0,62,267.66H39.14a3.28,3.28,0,0,0-3.28,3.28v53.57a3.28,3.28,0,0,0,3.28,3.28H62a3.28,3.28,0,0,0,3.28-3.28v-7.67A3.28,3.28,0,0,0,62,313.56H50.09v-9.17h10a3.28,3.28,0,0,0,3.27-3.28v-7.22a3.28,3.28,0,0,0-3.27-3.28h-10v-9.16Z"/><path class="cls-3" d="M61.34,326.23H39.41A1.49,1.49,0,0,1,38,324.71V271.36a1.49,1.49,0,0,1,1.46-1.51H61.34a1.49,1.49,0,0,1,1.46,1.51v7.2a1.49,1.49,0,0,1-1.46,1.51H48.23V292.7H59.46a1.49,1.49,0,0,1,1.46,1.52v7.19a1.49,1.49,0,0,1-1.46,1.51H48.23v12.63H61.34a1.49,1.49,0,0,1,1.46,1.52v7.64A1.49,1.49,0,0,1,61.34,326.23Zm-20.47-3h19v-4.62H46.77a1.48,1.48,0,0,1-1.46-1.51V301.41a1.49,1.49,0,0,1,1.46-1.52H58v-4.16H46.77a1.49,1.49,0,0,1-1.46-1.51V278.56A1.49,1.49,0,0,1,46.77,277H59.88v-4.17h-19Z"/><polygon class="cls-4" points="38.99 271.23 61.76 271.23 61.76 278.39 47.09 278.39 47.09 294.16 59.88 294.16 59.88 301.03 47.16 301.03 47.16 316.93 61.76 316.93 61.76 324.66 38.99 324.66 38.99 271.23"/></g></svg>