<svg xmlns="http://www.w3.org/2000/svg" viewBox="0 0 49.16 79.63"><defs><style>.cls-1{fill:#ea4827;}.cls-10,.cls-2{fill:#f59da0;}.cls-3{fill:#0d773c;}.cls-4{fill:#f9b730;}.cls-5{fill:#89d3de;}.cls-6{fill:#fff;}.cls-7{fill:#0077bf;}.cls-8{fill:none;}.cls-10,.cls-8{stroke:#1c204d;stroke-linecap:round;stroke-linejoin:round;stroke-width:0.8px;}.cls-9{fill:#1c204d;}</style></defs><g id="Layer_1" data-name="Layer 1"><path class="cls-1" d="M34.3,36c-.27-.18-.54-.36-.82-.52a.89.89,0,0,0-.63-.48l.11,0a2.16,2.16,0,0,1-.49-.22,3.23,3.23,0,0,0-.68-.24l-.32-.06L31,34.35h-.07c.15-.72.63-1.45.4-2.15a.8.8,0,0,0-.81-.56c-.38,0-.7.3-1.08.36a9.39,9.39,0,0,1-2.93-.32c-1.11-.21-2.21-.46-3.3-.77a.56.56,0,0,0-.74.46c-.12.64-.24,1.27-.35,1.91a1.42,1.42,0,0,0,0,.34l-.31.12a1.61,1.61,0,0,1-.28.24l-.07.06h0l0,0a3.15,3.15,0,0,1-.29.22l-.58.43-.06,0-.15.11-.24.22a2.19,2.19,0,0,0-.21.23l-.09.1,0,0-.12.19a.76.76,0,0,0-.34.8,5.64,5.64,0,0,0-.83,1c-.28.44-.55.89-.81,1.34a27,27,0,0,0-1.3,2.71h0c0,.07-.06.15-.1.23a1.16,1.16,0,0,0,0,.18.57.57,0,0,0-.12.26A6.38,6.38,0,0,0,16,44.45a3.21,3.21,0,0,0,.12.93,4.43,4.43,0,0,0,.09.72,5.73,5.73,0,0,0,.48,1.07,4.61,4.61,0,0,0,.22.51l0,0v.08h0a1.47,1.47,0,0,0,.11.38.76.76,0,0,0,.86.35.8.8,0,0,0,.55-.61q.31-.36.66-.69a1,1,0,0,1,.23-.13,1.29,1.29,0,0,1,0-.21.57.57,0,0,1,0-.26.48.48,0,0,1,.07-.24.31.31,0,0,1,.05-.12l.15-.19.19-.15a.92.92,0,0,1,.49-.13l.25,0h.05c-.56-.8.65-.42.15-1.24A16.7,16.7,0,0,1,22,41.21c.65-1.22-.18-4,.87-4.93a.72.72,0,0,0,.2-.33,1.14,1.14,0,0,0,.66,0,32.54,32.54,0,0,1,3.64.52,29,29,0,0,0,3.1.17c1.15.1,2.3.23,3.45.38A.55.55,0,0,0,34.3,36Z"/><path class="cls-1" d="M40.43,44.39a.39.39,0,0,0-.52.14l0,0,0,0h0l-.1,0a2.92,2.92,0,0,0-.49.19c-.3.16-.58.34-.87.52a.34.34,0,0,0-.12.12c-.08.05-1.23-.74-1.25-.65s-.73,2-.76,2.15,1.63-.29,1.66-.16.22,0,.37.06a1,1,0,0,0,.61-.2,4.1,4.1,0,0,0,.4-.23,3.06,3.06,0,0,0,.74-.65,6.86,6.86,0,0,0,.55-.85A.4.4,0,0,0,40.43,44.39Z"/><path class="cls-2" d="M40.16,43.91a.64.64,0,0,0-.25-.31l-.06,0a14.27,14.27,0,0,0-1.4-2.89c-.46-.83-.94-1.64-1.43-2.46a.65.65,0,0,0-.21-.42l-.1-.09a.5.5,0,0,0-.17-.15,4.57,4.57,0,0,0-1.4-.93,2.44,2.44,0,0,0-1-.18,4.46,4.46,0,0,0-1.09.2.66.66,0,0,0-.19.09.37.37,0,0,0-.14,0,.55.55,0,0,0-.3.3.54.54,0,0,0-.05.22l0,.15a.58.58,0,0,0,.15.25l.05,0a.7.7,0,0,0,.66.4l.26,0a.89.89,0,0,0,.39-.12.3.3,0,0,1,.16,0q-.16,0,0,0h.32l.15,0,.1,0c.08,0,.07,0,0,0a1,1,0,0,1,.33.17v.11a3.78,3.78,0,0,0,.28.94.93.93,0,0,0-.57,0,1.77,1.77,0,0,0-.68.42l-1.2,1a.57.57,0,0,0-.09.69.6.6,0,0,0,.65.26,2,2,0,0,0,.87-.47l.29-.25.12-.08.09-.05,0,0h0l.22-.08a.62.62,0,0,0,.11.17l0,0h0a1.33,1.33,0,0,0-.4.45c-.13.24-.25.49-.37.73l-.08.12-.06.09,0,0-.05.05-.08.09-.08.07h0l-.09.05,0,0a.57.57,0,0,0-.4.7.58.58,0,0,0,.7.4,1.85,1.85,0,0,0,1.24-1.15,2.73,2.73,0,0,0,1.34,1.36,2.85,2.85,0,0,0,1.25.25h.11a.43.43,0,0,0,0,0,1.92,1.92,0,0,1,0,.24.42.42,0,0,0,.06.27.51.51,0,0,0,.07.17.41.41,0,0,0,.4.14h0a.53.53,0,0,0,.44-.24,2,2,0,0,1,.32-.21.45.45,0,0,1,.11,0,.83.83,0,0,0,.53-.16A.45.45,0,0,0,40.16,43.91Z"/><path class="cls-2" d="M26.31,51.51c.56-.12,1.29-.09,1.72-.52a1.25,1.25,0,0,0,.3-.62.68.68,0,0,0,0-.32h0l0-.11a.18.18,0,0,1,0,0l0,0-.05-.08,0-.05h0l-.08,0-.1,0c-.4,0-.79,0-1.19.06a2.56,2.56,0,0,1-1.76.2.64.64,0,0,1-.27-.18.62.62,0,0,0-.19.12,9.58,9.58,0,0,1-1.82-.64L22.42,49a2.73,2.73,0,0,0,1.08-.56,7.57,7.57,0,0,0,.66-.61c.23-.23.59-.48.67-.81a.66.66,0,0,0-1-.69l-.05,0-.11,0h0l-.08,0h-.08a.86.86,0,0,0-.17,0h0l-.07,0-.07,0-.05,0a2.79,2.79,0,0,0-.32.28.42.42,0,0,0-.11.18h-.11a4.64,4.64,0,0,1-.94-.08.58.58,0,0,0-.67.33l0,0a1.92,1.92,0,0,0-.22.18c-.08-.13-.15-.27-.24-.39s-.19.38-.31.36-.24-.27-.34-.19-.2,0-.32.1l-.19.18-.07.06-.07,0a3.75,3.75,0,0,1-.4.21,1.31,1.31,0,0,0-.42.39.35.35,0,0,0,0,.34.37.37,0,0,0,.24.22s.43.41.45.41,1,.52,1.45.74,1.13.53,1.7.78h0a12.33,12.33,0,0,0,2.92.89,9,9,0,0,0,.93.17A.54.54,0,0,1,26.31,51.51Z"/><path class="cls-3" d="M32.5,50.07a6.57,6.57,0,0,1-1.77.11l-1.91,0a.58.58,0,0,0-.57.57c-.06.68-1.46.75-1.92.91a.53.53,0,0,0-.21.11l-.44-.1a.4.4,0,0,0-.29-.15c-1.52-.18-3.2-.31-4.45-1.3-.33-.25-.82.06-.6.46a.8.8,0,0,1,.1.48.31.31,0,0,0,0,.1.93.93,0,0,0-.06.95c0,.14,0,.27,0,.41s0,.41,0,.61a8.57,8.57,0,0,0,.07,1,.86.86,0,0,0-.15.52c0,1,0,1.94,0,2.92a1.16,1.16,0,0,0-.19.53C20,58.87,20,59.59,20,60.3c0,.36,0,.71,0,1.07l0,.39c0,.22,0,.45-.07.67a.82.82,0,0,0,.34.71l-.09,1.26A1.09,1.09,0,0,0,20,65c0,.45,0,.92.06,1.37s-.05.81-.08,1.22a.76.76,0,0,0,.12.5l-.06.08a.57.57,0,0,0,.64.84,2.72,2.72,0,0,1,1,.11,7.07,7.07,0,0,0,1.3.13c.41,0,.81,0,1.22,0h.61s.19,0,.11,0h0l0,0a.57.57,0,0,0,1-.4c0-1,0-2,0-3a.37.37,0,0,0,.05-.11,16.62,16.62,0,0,0,.36-3.15c.05-.53.1-1.05.16-1.58,0-.17,0-.34.05-.51h.12l-.06,3.3c0,.82,0,1.64-.06,2.45a.72.72,0,0,0-.11.4,9.82,9.82,0,0,0,.06,1.09.92.92,0,0,0,.06.25.61.61,0,0,0-.11.21.69.69,0,0,0-.08.37.53.53,0,0,0,0,.25.58.58,0,0,0,.55.72c.71,0,1.42,0,2.12-.13a6.64,6.64,0,0,1,1-.1,3.93,3.93,0,0,0,1,0,.78.78,0,0,0,.78.11.79.79,0,0,0,.44-.9c0-.19-.06-.38-.09-.58s0-.16,0-.22c0-.31.09-.61.11-.91,0-.65,0-1.31,0-2a11,11,0,0,0,0-1.9c0-.33,0-.64,0-1s.07-.37.11-.56a.73.73,0,0,0,0-.47.22.22,0,0,0,0-.08c0-1.72.29-3.42.45-5.12s0-3.37.32-5A.57.57,0,0,0,32.5,50.07Z"/><path class="cls-4" d="M37.72,33.55a2.29,2.29,0,0,1-.71-.37l-.14-.11a14,14,0,0,1-1.62-.64c-.35-.16-.6-.28-.91-.39a6,6,0,0,0-1-.27.86.86,0,0,1-.59-.49H32.4a2.37,2.37,0,0,1-1.27-.15A1.27,1.27,0,0,1,31,31a11.05,11.05,0,0,1-2.58.55,1.46,1.46,0,0,0-.3.11l-.66-.1a.92.92,0,0,0-.43-.15h-.23a2.19,2.19,0,0,1-.5.14,7,7,0,0,1-.8.09h-.05a8.33,8.33,0,0,1-1.23.62l-.4.16h0l-.22.1c-.29.14-.57.28-.84.43-.57.32-1.07.74-1.65,1a9.82,9.82,0,0,0-1.1.63.69.69,0,0,1,.17.3,2.72,2.72,0,0,0,.13.49l0,.06.25.07a.88.88,0,0,1,.43.24l.15.2a1,1,0,0,1,.1.69.71.71,0,0,1,.16.31c0,.08,0,.15,0,.22s0,.11.05.16,0,0,0,0l0,.26a.81.81,0,0,1-.09.37s0,0,0,.06a1.86,1.86,0,0,1,.1.25c.09.4.42,1,.31,1.45s-.71.51-1.15.63c-.29.08-.62.06-.81.31-.51.68.33,1.07.54,1.66a8.48,8.48,0,0,1,.11,2.52c0,.48,0,1,0,1.44.9.07,1.78.25,2.67.37a.81.81,0,0,1,.09-.1.94.94,0,0,1,.42-.25l.25,0a.92.92,0,0,1,.49.13l.19.15a.82.82,0,0,1,.16.25,29.13,29.13,0,0,1,3.71.37,31.47,31.47,0,0,1,4,.82c.59.18,1.19.37,1.79.53l0,0a.57.57,0,0,1,.13-.08,1,1,0,0,1,.48-.14l.25,0a.88.88,0,0,1,.21.12c.38-1.21.83-2.4,1.22-3.6.12-.4.24-.8.35-1.21l-.06,0a2.39,2.39,0,0,1-.32-.16c-.18-.13-.36-.27-.53-.42l-.3-.28a3.2,3.2,0,0,0-.54.5h0a.87.87,0,0,1-.27.27l-.23.1a1,1,0,0,1-.74-.1.78.78,0,0,1-.27-.24.8.8,0,0,1-.17-.33.82.82,0,0,1,0-.38.77.77,0,0,1,.12-.36.61.61,0,0,1,.07-.1,2.56,2.56,0,0,1,.2-.26,1,1,0,0,1-.79-.6.94.94,0,0,1,.39-1.19,2.35,2.35,0,0,1,.43-.19l.33-.17.08-.08a.77.77,0,0,1,.59-.26l.57-.29,0-.12-.06-.11,0-.08-.09-.08-.06-.06-.09-.06a6.82,6.82,0,0,0-.9-.44l-.31-.1h-.12l-.09,0a1,1,0,1,1-.51-1.85,2.38,2.38,0,0,1,1.6.09,8.9,8.9,0,0,1,1.21.57,2.91,2.91,0,0,1,.93.85c0-.06,0-.11,0-.16a11.92,11.92,0,0,1,.42-1.32,1.13,1.13,0,0,1,.31-.45v-.08a1,1,0,0,1,.13-.48l.15-.19a.69.69,0,0,1,.31-.2h0c0-.42,0-.85.06-1.27A1.73,1.73,0,0,1,37.72,33.55Z"/><path class="cls-5" d="M22.3,46.44c-.32,0-.65,0-1,0a.91.91,0,0,1-.8-.51h-.08c-.5,0-1,0-1.5,0h0a.45.45,0,0,0-.21.12c-.51.68.4.6.62,1.19C19.62,48,22,46.54,22.3,46.44Z"/><path class="cls-5" d="M35.73,49a1.91,1.91,0,0,1-.32-.16c-.18-.13-.36-.27-.53-.42l-.3-.28c-.2.15-.54.5-.54.49a4,4,0,0,1-1.68-.3.7.7,0,0,1,0-.38s0,0,0,0a16.13,16.13,0,0,0-2.28-.45A22.45,22.45,0,0,0,26.74,47a3.26,3.26,0,0,1-1.32,0,1.43,1.43,0,0,1-.56-.35c-.11-.12-.28-.44-.33-.47a.86.86,0,0,0-.28,0,.94.94,0,0,1,.31,1.25c0,.07-.11.12-.16.19h0a3.81,3.81,0,0,1-1,1,5.89,5.89,0,0,0,.8.29c.6.17,1.22.27,1.82.42s1.35.46,2.05.6a13.66,13.66,0,0,0,4.67.46,3,3,0,0,0,.92-.27,2.92,2.92,0,0,1,.81-.35,4.07,4.07,0,0,1,1.59.07c.52-.26,1.19-.52,1.26-.78Z"/><path class="cls-2" d="M36.11,22.92A1,1,0,0,0,35,22.55l-.17.09a.59.59,0,0,0-.41-.36,1.27,1.27,0,0,0-.13-.32,1.8,1.8,0,0,0-.77-.65C33,21,33,20.5,32.88,20A5.51,5.51,0,0,0,32,17.9a.63.63,0,0,0-1,0c-.56.66-1.65.32-2.32.07l-1.56-.58-.81-.3a3.18,3.18,0,0,0-.79-.26.89.89,0,0,0-.72.2c-.21.18-1.35.12-1.42.37a1.33,1.33,0,0,1-.48.86c-.76.62-.76,1.43-1.26,2.31a4.83,4.83,0,0,0-.53,1.55,3.66,3.66,0,0,0-.15-.43.78.78,0,0,0-.83-.57,1,1,0,0,0-.67.44,2.13,2.13,0,0,0-.31,1.18A1.63,1.63,0,0,0,19.52,24a1,1,0,0,0,.24.17h0a.54.54,0,0,0,0,.11.66.66,0,0,0,.2.24h0a2.86,2.86,0,0,1,.09.51v.07a.62.62,0,0,0,.32.6.63.63,0,0,0,.32.08.66.66,0,0,0,.38-.14l.09-.08a.56.56,0,0,0,0,.13A10.68,10.68,0,0,0,22,28.63c.34.78.7,1.53,1,2.33a13.62,13.62,0,0,1,2.67.55,18.59,18.59,0,0,1,3.2-.22,8.19,8.19,0,0,0,1.84-.17,1.49,1.49,0,0,0,.77-.38c.06-.08,1-1.77,1-1.85a15.12,15.12,0,0,0,1.2-2,.63.63,0,0,0,.66.19.62.62,0,0,0,.44-.53l0-.24s0-.05,0-.08h0a.79.79,0,0,0,0-.13l0-.05h0a7.72,7.72,0,0,0,.61-.53,2.32,2.32,0,0,0,.81-1.62A1.64,1.64,0,0,0,36.11,22.92Z"/><path class="cls-6" d="M26.78,20.15c-.09,0-.63-.15-.73-.15a1.32,1.32,0,0,0-1.16.81.34.34,0,0,0-.17.08.51.51,0,0,0-.15.21.71.71,0,0,0,0,.21v.17s0,0,0,0a.51.51,0,0,0,.07.17.47.47,0,0,0,.13.15.45.45,0,0,0,.18.07,4.25,4.25,0,0,1,.35.85c.16,0,.45.25.62.28.33.07,1.14-.94,1.48-.9a.37.37,0,0,0,.41-.34A2.42,2.42,0,0,0,26.78,20.15Z"/><path class="cls-6" d="M30.93,21.82a1.37,1.37,0,0,0,0-.19h0s0-.61,0-.65-.07.28-.18.2-1.1-1.05-1.23-1l-1.6.62c-.18.06-.14,1.06-.09,1.22s.5.27.68.22.27,1,1.34.91c.31,0,.46-.81.77-.87A.39.39,0,0,0,30.93,21.82Z"/><path class="cls-7" d="M34.55,19.94a9.57,9.57,0,0,0-1.45-1.78.57.57,0,0,0-.18-.12.44.44,0,0,0,0-.25,4.86,4.86,0,0,0-2.45-2.24l-.18,0a1.66,1.66,0,0,0-.48-.24,9.32,9.32,0,0,0-1.05-.1c-.31-.05-.61-.13-.94-.16a5.18,5.18,0,0,0-1,.05.6.6,0,0,0-.35.16,8.27,8.27,0,0,0-1.8.43.52.52,0,0,0-.35.41h0l-.37.28a2.1,2.1,0,0,0-.36.37,1.14,1.14,0,0,0-.15.29,1.24,1.24,0,0,0,0,.16l-.08,0a.32.32,0,0,0-.17.09.29.29,0,0,0-.1.12l-.21.07a3,3,0,0,0-1.47,1.23,6,6,0,0,0-.56,1,4.18,4.18,0,0,0-.19.6,1.71,1.71,0,0,0,0,.31.3.3,0,0,0-.07.11.38.38,0,0,0,.22.48c.19.05.18.28.19.46a6.77,6.77,0,0,1,0,.78,9.73,9.73,0,0,1-.19,1.71.38.38,0,0,0,.34.41l.9.09a.29.29,0,0,0,.13,0l0,0a.25.25,0,0,0,.44-.2A31.75,31.75,0,0,1,22,20.83a2.17,2.17,0,0,0,.35-.15.47.47,0,0,1,0-.24,10.74,10.74,0,0,0,.71-2.61.69.69,0,0,1,.58-.5.7.7,0,0,1,.66.3l0,0,0,0,0,0h0l.09,0h0a.44.44,0,0,0,.16-.06.42.42,0,0,0,.14.09l.24.08.14,0a.58.58,0,0,1,.25.12,4.47,4.47,0,0,0,1,.25h.07a.45.45,0,0,0,.31.14c.94.09,1.88.21,2.83.23a10,10,0,0,0,1.45-.07l.65-.1.16,0v0a5.89,5.89,0,0,0,.75,2.23,4.6,4.6,0,0,0,.76.95l.4.37h0a.51.51,0,0,0-.11.22,6.18,6.18,0,0,1-.29,1.2l-.09.25a.44.44,0,0,0-.19.19,3.62,3.62,0,0,0-.17.74v0l0,.07-.06.17-.13.36a.88.88,0,0,0,0,.16c-.13.13-.08.43.15.43a11.29,11.29,0,0,1,1.3,0,.25.25,0,0,0,.27-.23c0-.48,0-1,0-1.45l0-.17a.35.35,0,0,0,.07-.15c0-.4.07-.79.09-1.18l.07,0a.52.52,0,0,0,.35-.56A5.41,5.41,0,0,0,34.55,19.94Z"/><path class="cls-8" d="M22.39,33.14a5.94,5.94,0,0,1,0-.91c0-.24.12-1.71.5-1.67"/><path class="cls-8" d="M23,30.92s2,.71,2.93,1"/><path class="cls-8" d="M33.66,27.11a5.28,5.28,0,0,1-.3.58,29.22,29.22,0,0,0-2.11,3.7"/><path class="cls-8" d="M34.08,25.92a9.56,9.56,0,0,1-.42,1.19"/><path class="cls-8" d="M21,24.64a11.45,11.45,0,0,0,.35,1.9,41.2,41.2,0,0,0,1.7,4.39"/><path class="cls-8" d="M20.88,21.41a.86.86,0,0,0-.83-.28s-.9.09-1,1.42,1,1.61,1,2.45h0c0,.4,0,.82.59.85a.83.83,0,0,0,.43-.13"/><path class="cls-8" d="M20.12,22.36c0,.26,0,.29.27.62a2.22,2.22,0,0,1,.3.56"/><path class="cls-8" d="M34.84,22.75a.87.87,0,0,1,.84-.09s.86.27.7,1.59-1.28,1.38-1.5,2.2h0c-.08.39-.16.81-.74.71a.69.69,0,0,1-.39-.2"/><path class="cls-8" d="M35.31,23.9c-.05.25,0,.23-.33.51a2.33,2.33,0,0,0-.4.49"/><path class="cls-8" d="M30.93,21.87a1.71,1.71,0,0,0-1.05-1.62,1.64,1.64,0,0,0-.44-.09,1.6,1.6,0,1,0-.23,3.19,1.61,1.61,0,0,0,1.72-1.48Z"/><path class="cls-8" d="M24.74,20.7a1.88,1.88,0,0,1,.18-.24,1.6,1.6,0,0,1,.93-.52,1.64,1.64,0,0,1,.39,0,1.6,1.6,0,0,1-.24,3.2,1.63,1.63,0,0,1-1.05-.5,1.5,1.5,0,0,1-.34-.54,2.17,2.17,0,0,1-.09-.67,1.69,1.69,0,0,1,.22-.71"/><path class="cls-8" d="M34.82,22.46l-.34,3.42-1.9-.08L33.8,22A4.78,4.78,0,0,1,32,18.41a11,11,0,0,1-3.76.18"/><path class="cls-8" d="M21,21.11l-.33,3.41,1.88.3-.46-3.95a17.38,17.38,0,0,0,1.26-3.71,16.4,16.4,0,0,0,4.89,1.43"/><path class="cls-8" d="M35.14,22.62s0-3.36-2.26-4.83c0,0-.14-2.29-4.51-2.72"/><path class="cls-8" d="M20.33,21.07a5.18,5.18,0,0,1,2.91-3.89s.77-2.54,5.14-2.11"/><line class="cls-8" x1="20.8" y1="38.12" x2="20.8" y2="40.33"/><path class="cls-8" d="M26.14,50a8.8,8.8,0,0,1-3.91-1"/><path class="cls-8" d="M23.56,51.17a5.93,5.93,0,0,0,3.41.26A3,3,0,0,0,28,51s.64-.36.4-.88-1.14-.69-2.21-.18"/><path class="cls-8" d="M22.11,48.86a2.64,2.64,0,0,0,2.18-.94s1-1,.37-1.59c0,0-.42-.52-1.36.13a1.62,1.62,0,0,1-1.36.31,1.3,1.3,0,0,0-1.6,1"/><path class="cls-8" d="M18.09,48.42a18.32,18.32,0,0,0,6.7,3.08"/><path class="cls-8" d="M17.15,39.51s-2.1,3.38-1.11,6.32"/><path class="cls-8" d="M17.09,39.64A23.53,23.53,0,0,1,20,35.4"/><path class="cls-8" d="M38.43,43.91a2.06,2.06,0,0,1-3-1.3"/><path class="cls-8" d="M34.41,41.67l-.9,1.19s-.33.41-.13.68,1.14.38,1.71-.46l.45-.58"/><path class="cls-8" d="M35.91,41a1.54,1.54,0,0,0-1.19.31l-.31.41"/><path class="cls-8" d="M35.57,39.38a1.36,1.36,0,0,0-1.53.2c-.72.65-1.34,1.35-1.34,1.35s-.32.36,0,.62,1.38-.09,2.08-.81l.49.24"/><path class="cls-8" d="M35.29,39.28s-.29-.92-.29-.92l-.9-.28c-1,.21-1.7-.22-1.79-.68s.48-.64.48-.64l.86-.23a2.41,2.41,0,0,1,.79-.05,13.88,13.88,0,0,1,1.88.75,2.89,2.89,0,0,1,.56.61l2.41,4.38a5.63,5.63,0,0,1,.79,2"/><path class="cls-9" d="M26.53,71a3.4,3.4,0,0,1,.18-1,.83.83,0,0,1,.78-.49c.25,0,.49-.08.63.05s.44.1.6.06a9.1,9.1,0,0,1,.91-.16,8.43,8.43,0,0,1,2.06.16c.59.09,1.19.2,1.77.32h.23L34,70a2.4,2.4,0,0,1,1.31.6,1.23,1.23,0,0,1,.77.4,1.58,1.58,0,0,1,.18,1.19c-.15.57-.71.58-1.19.55a.77.77,0,0,1-.28-.06,9.75,9.75,0,0,1-1.79,0c-.63,0-1.27-.05-1.9-.05s-1.22,0-1.82,0a8.78,8.78,0,0,0-1.92.13.71.71,0,0,1-.89-.67C26.46,71.71,26.49,71.33,26.53,71Z"/><path class="cls-9" d="M15.37,71.58a1.73,1.73,0,0,1,.45-.67,1.23,1.23,0,0,1,.78-.52c.09,0,.32-.31.4-.3s.24.06.45,0a4.16,4.16,0,0,1,1.66-.39c.19-.05.38-.1.57-.13a13.64,13.64,0,0,1,2.39-.14c.41,0-.36-.31.05-.34a12.58,12.58,0,0,1,2.27.28c.82.27.62,1.07.67,1.9A1.29,1.29,0,0,1,25,72c-.29.58-.89.53-1.45.53-1.23,0-2.45,0-3.68,0L18,72.66c-.61,0-1.25.1-1.85.07A.84.84,0,0,1,15.37,71.58Z"/><path class="cls-8" d="M23.39,69.83a6.3,6.3,0,0,0-4-.36c-2.71.42-4,1.27-4.19,2.43,0,0-.12.68.54.69"/><path class="cls-8" d="M24.82,69.53l.23,2.2s.13.86-.6.86H15.76"/><line class="cls-8" x1="25.01" y1="71.96" x2="15.36" y2="71.96"/><path class="cls-8" d="M28.22,69.83a6.28,6.28,0,0,1,4-.36c2.72.42,4,1.27,4.2,2.43,0,0,.12.68-.54.69"/><path class="cls-8" d="M26.78,69.53l-.23,2.2s-.12.86.61.86h8.69"/><line class="cls-8" x1="26.59" y1="71.96" x2="36.25" y2="71.96"/><polyline class="cls-8" points="20.01 68.88 25.91 69.4 26.97 53.07"/><line class="cls-8" x1="20.01" y1="68.88" x2="20.33" y2="49.96"/><polyline class="cls-8" points="28.91 69.53 26.42 69.47 26.97 53.07"/><line class="cls-8" x1="32.14" y1="69.27" x2="33.18" y2="50.05"/><path class="cls-8" d="M23.92,52.71a30,30,0,0,0,5.52.33"/><path class="cls-8" d="M40,43.78c.26,0,.42,0,.46.09S39.9,44.57,39,45a6.67,6.67,0,0,1-.81.29s-1.07.09-.21-.55"/><path class="cls-8" d="M40.49,43.87s.12,3.53-4.58,3.28"/><path class="cls-8" d="M18.33,48.68c-.34.19-.58.28-.64.2s.51-.79,1.39-1.47l.25-.19"/><line class="cls-8" x1="20.66" y1="46.21" x2="18.41" y2="42.44"/><path class="cls-8" d="M17.69,48.88a11.56,11.56,0,0,1-1.62-3"/><path class="cls-9" d="M40.28,43.75a.19.19,0,0,0,0,.38A.19.19,0,0,0,40.28,43.75Z"/><path class="cls-1" d="M21,12.27a1.33,1.33,0,0,0-1.66.42,1.31,1.31,0,0,0-1.7-.21c-1.22.71.11,2.64,1.93,3.91C21.23,14.9,22.31,12.83,21,12.27Z"/><path class="cls-1" d="M23.84,8.74a.87.87,0,0,0-1.13,0,.86.86,0,0,0-1-.41c-.9.25-.37,1.69.59,2.8C23.55,10.45,24.57,9.31,23.84,8.74Z"/><path class="cls-1" d="M16.63,6.71a1,1,0,0,0-1.15.74,1,1,0,0,0-1.35.19c-.74.89.79,2.26,2.52,3C17.51,9,17.78,6.91,16.63,6.71Z"/><path class="cls-1" d="M21.25,4.24a.79.79,0,0,0-1,.28.79.79,0,0,0-1.07-.16c-.78.48.06,1.79,1.21,2.67C21.39,6,22.07,4.63,21.25,4.24Z"/><path class="cls-1" d="M15.54,12.53a.67.67,0,0,0-.91.06.69.69,0,0,0-.87-.31c-.72.27-.25,1.5.56,2.42C15.36,14,16.16,13,15.54,12.53Z"/><circle class="cls-9" cx="25.95" cy="22.36" r="0.45"/><circle class="cls-9" cx="29.41" cy="22.65" r="0.45"/><line class="cls-8" x1="35.43" y1="48.4" x2="36.84" y2="44.7"/><line class="cls-8" x1="20.57" y1="46.27" x2="20.6" y2="42.13"/><path class="cls-8" d="M34.85,43.47a9.07,9.07,0,0,0,.92,0"/><path class="cls-8" d="M22.43,40c-.87.3-1.4.61-1.43.79-.08.49,3.41,1.42,7.78,2.09,1.63.24,3.16.42,4.43.52"/><path class="cls-8" d="M37.71,44.5l-.23.07a1.56,1.56,0,0,1-.67,0,1.31,1.31,0,0,1-.7.18,1.7,1.7,0,0,1-.64-.09,1.48,1.48,0,0,1-.65.1,1.66,1.66,0,0,1-.65-.13,1.43,1.43,0,0,1-.66.07,1.58,1.58,0,0,1-.67-.18,1.38,1.38,0,0,1-.68.07,1.72,1.72,0,0,1-.67-.2,1.48,1.48,0,0,1-.69,0,1.57,1.57,0,0,1-.63-.19,1.56,1.56,0,0,1-.66,0,1.82,1.82,0,0,1-.37-.09"/><path class="cls-8" d="M21.18,40.58a.87.87,0,0,0-.56.14,1,1,0,0,0-.63,0c-.34.1-.54.32-.45.48h0l0,0c-.13.13.08.42.45.65a1.57,1.57,0,0,0,.64.22,1.19,1.19,0,0,0,.61.39,1.73,1.73,0,0,0,.64.1,1.36,1.36,0,0,0,.58.29,1.59,1.59,0,0,0,.66.06,1.5,1.5,0,0,0,.62.27,1.46,1.46,0,0,0,.68,0,1.42,1.42,0,0,0,.64.26,1.46,1.46,0,0,0,.69,0,1.47,1.47,0,0,0,.65.25,1.61,1.61,0,0,0,.66,0,1.64,1.64,0,0,0,.63.22A2.1,2.1,0,0,0,28,44"/><path class="cls-8" d="M29.13,44.19a1.43,1.43,0,0,1-.55,0A1.61,1.61,0,0,1,28,44"/><line class="cls-8" x1="37.17" y1="38.12" x2="37.71" y2="35.14"/><path class="cls-8" d="M21.27,35.64,22,39.71a29.2,29.2,0,0,0,9.43,1.67"/><path class="cls-8" d="M21.41,34.23c0,.49,3.61.77,8,.61s8-.68,8-1.18-3.7-2.42-8.12-2.26S21.39,33.74,21.41,34.23Z"/><path class="cls-8" d="M37.25,33.44a1,1,0,0,1,.54.21,1,1,0,0,1,.62.08c.33.14.51.38.4.53h0l.05,0c.1.15-.13.41-.53.59a1.66,1.66,0,0,1-.66.16,1.26,1.26,0,0,1-.65.31,1.76,1.76,0,0,1-.64,0,1.49,1.49,0,0,1-.62.22,1.43,1.43,0,0,1-.66,0,1.56,1.56,0,0,1-.64.2,1.62,1.62,0,0,1-.69,0,1.62,1.62,0,0,1-.66.19,1.56,1.56,0,0,1-.69-.08,1.59,1.59,0,0,1-.68.18,1.75,1.75,0,0,1-.65-.08,1.57,1.57,0,0,1-.65.14,1.59,1.59,0,0,1-.38,0"/><path class="cls-8" d="M21.55,34a.94.94,0,0,0-.53.24,1,1,0,0,0-.61.13c-.31.16-.47.41-.35.55h0l0,0c-.1.15.16.4.57.55a1.73,1.73,0,0,0,.67.11,1.24,1.24,0,0,0,.67.26,1.66,1.66,0,0,0,.64,0,1.58,1.58,0,0,0,.63.18,1.85,1.85,0,0,0,.66-.06,1.57,1.57,0,0,0,.66.15,1.65,1.65,0,0,0,.68-.1,1.46,1.46,0,0,0,.67.14,1.56,1.56,0,0,0,.68-.12,1.57,1.57,0,0,0,.69.13,1.76,1.76,0,0,0,.64-.13,1.55,1.55,0,0,0,.66.1,1.7,1.7,0,0,0,.35-.06"/><path class="cls-8" d="M30,36.08a1.73,1.73,0,0,1-.54.1,1.64,1.64,0,0,1-.59-.07"/><path class="cls-8" d="M22.85,46.62,18.46,46a3.35,3.35,0,0,0,1.77,1.54"/><polyline class="cls-8" points="34.7 48.42 33.58 48.25 25 46.95"/><path class="cls-8" d="M35.6,49.76a3.46,3.46,0,0,0,1.84-.92l-3.75-.57"/><path class="cls-8" d="M24.19,48.15l2.32.36,8.2,1.24a3,3,0,0,0,.89,0"/><path class="cls-8" d="M23.26,48.89l.27,0,7.9,1.2.29,0a4.1,4.1,0,0,0,2.92-.42"/><line class="cls-8" x1="37.63" y1="45.01" x2="37.52" y2="45.48"/><line class="cls-8" x1="37.89" y1="44.14" x2="38.31" y2="45.09"/><path class="cls-7" d="M31.18,26.85A3.46,3.46,0,0,0,30.56,25a1.21,1.21,0,0,0-.79-.4,3.54,3.54,0,0,1-.46,0,1.36,1.36,0,0,0-.41-.08,5.23,5.23,0,0,0-.91.33,1.2,1.2,0,0,1-.93,0,6.14,6.14,0,0,1-.72-.54.87.87,0,0,0-.59-.11.18.18,0,0,0-.11-.08,1.28,1.28,0,0,0-1.43.53,5.72,5.72,0,0,0-.36.75c-.11.28-.21.55-.3.83a.28.28,0,0,0,.31.38.39.39,0,0,0,.31.18c2.19,0,4.38.35,6.55.58A.42.42,0,0,0,31.18,26.85Z"/><path class="cls-8" d="M28.44,24.35l1.25.12s1.63,0,1.35,2.83l-3.81-.38"/><path class="cls-8" d="M26.54,24.16,25.3,24s-1.6-.33-1.88,2.51l3.81.37"/><circle class="cls-10" cx="27.54" cy="23.51" r="1.37"/></g></svg>