<svg xmlns="http://www.w3.org/2000/svg" viewBox="0 0 26.68 36.2"><defs><style>.cls-1{fill:#f59da0;}.cls-2{fill:#0d773c;}.cls-3{fill:#1c204d;}.cls-4{fill:#f9b730;}.cls-10,.cls-5{fill:#fff;}.cls-6{fill:#0077bf;}.cls-7,.cls-9{fill:none;}.cls-7{stroke:#1c204d;}.cls-10,.cls-7,.cls-9{stroke-linecap:round;stroke-linejoin:round;stroke-width:0.4px;}.cls-8{fill:#1c1d4c;}.cls-10,.cls-9{stroke:#1c1d4c;}.cls-11{fill:#ea4827;}</style></defs><g id="Layer_1" data-name="Layer 1"><path class="cls-1" d="M18.23,8.31a.42.42,0,0,0-.4.28l-.08,0a.77.77,0,0,1-.32-.21,1.24,1.24,0,0,0,.06-.43,2.7,2.7,0,0,0-.36-1.23A2.25,2.25,0,0,0,16.57,6a2.81,2.81,0,0,0-1.12-.62,2.71,2.71,0,0,0-1-.1,3.9,3.9,0,0,0-.67.11,3.14,3.14,0,0,0-.64.25,3.4,3.4,0,0,0-.78.54,2.38,2.38,0,0,0-.55.74,2.23,2.23,0,0,0-.22.61c0,.09,0,.15,0,.22-.28,0-.56-.23-.8,0s-.07.57,0,.81a.77.77,0,0,1,.09.47,1.21,1.21,0,0,0,0,.5.31.31,0,0,0,.41.18c.07.5.24,1,.35,1.47A8,8,0,0,1,12,12.31a2,2,0,0,0,.08.42c0,.13.13.27.07.4v0c.76.06,1.51.19,2.27.26l1.13.1c.27,0,.54.08.8.13,0-.13.06-.26.1-.39a2.62,2.62,0,0,1,.47-.87c.23-.26.49-.49.7-.77a1.57,1.57,0,0,0,.36-.89l.15,0a.28.28,0,0,0,.26-.15.56.56,0,0,0,0-.29,1.8,1.8,0,0,1,.08-.39,4.72,4.72,0,0,0,.31-1.06A.57.57,0,0,0,18.23,8.31Z"/><path class="cls-1" d="M9.41,13.23a.62.62,0,0,0-.11-.17L9.19,13a.48.48,0,0,0-.26-.07l-.14,0,0,0a.42.42,0,0,0-.27.06l-.22.11a1.48,1.48,0,0,1-.41.12H7.8a.77.77,0,0,0-.26.07.56.56,0,0,0-.22.26.59.59,0,0,0,0,.27.49.49,0,0,0,.14.3l.12.12a1.18,1.18,0,0,1,.11.19.49.49,0,0,0,.18.17.56.56,0,0,0-.35.15.58.58,0,0,0-.15.37v.06H7.24a.63.63,0,0,0-.41.28.58.58,0,0,0-.06.36.79.79,0,0,0,.08.26l.11.22a.53.53,0,0,0,.31.24.58.58,0,0,0,.41-.05.55.55,0,0,0,.24-.32v-.08L8.08,16c.13-.1.24-.21.36-.31l.09-.05.33-.09a.53.53,0,0,0,.24-.88.62.62,0,0,0-.48-.17H8.48a.49.49,0,0,0,.14-.23l0-.14s0,0,0-.08L8.78,14H9a.58.58,0,0,0,.24-.14l.09-.08a.46.46,0,0,0,.11-.16.49.49,0,0,0,0-.21A.45.45,0,0,0,9.41,13.23Z"/><path class="cls-1" d="M19.51,20.19a5.12,5.12,0,0,0-.14-.68.64.64,0,0,0,0-.37c-.07-.48-.13-1-.2-1.44a2.32,2.32,0,0,0-.39-1.14,1.58,1.58,0,0,0,.24-.15,1.22,1.22,0,0,0,.41-.71,1.34,1.34,0,0,0-.15-.92,4.35,4.35,0,0,0-.57-.65.53.53,0,0,0-.74,0,.54.54,0,0,0,0,.74c.12.13.25.25.36.39h0l.05.08h0v.13a.08.08,0,0,1,0,0v0h0l0,0-.07.06,0,0h0a2.09,2.09,0,0,0-.4-.19,2.31,2.31,0,0,0-.78-.16.51.51,0,0,0-.51.45.53.53,0,0,0,.34.56l-.21,0a.52.52,0,0,0-.28,1,3.08,3.08,0,0,0,.67.09,3.08,3.08,0,0,0,.6,1.31.57.57,0,0,0,.3.15l.07.9c0,.07,0,.14,0,.2a.49.49,0,0,0-.27.44,1.58,1.58,0,0,0,.43,1.06.76.76,0,0,0,1.19-.14A1.93,1.93,0,0,0,19.51,20.19Z"/><path class="cls-2" d="M16.77,21.33c-.47,0-.69.39-.79.8s-.2.76-.32,1.13a19.47,19.47,0,0,1-.81,2.13.53.53,0,0,0,.19.72c.22.13.3,0,.42-.21.29-.65.85-1.28,1.08-2,.11-.31.2-.63.29-1,.05-.16.09-.32.13-.48h0a.54.54,0,0,0,.32-.48v-.16A.54.54,0,0,0,16.77,21.33Z"/><path class="cls-3" d="M17.91,18.91a.55.55,0,0,0-.32-.24A.53.53,0,0,0,17,19a7,7,0,0,1-.21.88c0,.14-.09.29-.14.43a2.48,2.48,0,0,0-.12.54.51.51,0,0,0,.16.37.57.57,0,0,0,.37.16.54.54,0,0,0,.37-.16.65.65,0,0,0,.15-.36V21a6,6,0,0,1,.25-.82,7.35,7.35,0,0,0,.19-.84A.56.56,0,0,0,17.91,18.91Z"/><line class="cls-4" x1="16.66" y1="17.38" x2="13.05" y2="28.91"/><line class="cls-4" x1="17.36" y1="15.15" x2="17.29" y2="15.36"/><line class="cls-4" x1="16.47" y1="29.31" x2="20.98" y2="29.85"/><path class="cls-5" d="M18.14,14.74l-.05-.12a.58.58,0,0,0-.19-.19l-.13,0s0,0,0,0l0,0-.08,0,.19-.61L9,12.78l0,.11.8.22a.6.6,0,0,0-.23.48v.1H9.06a.35.35,0,0,0-.2.05.32.32,0,0,0-.17.11.36.36,0,0,0-.11.16.38.38,0,0,0,0,.21l0,.14a.59.59,0,0,0,.13.23l.11.08a.48.48,0,0,0,.26.07h.27a.87.87,0,0,0,.13.5l.12.16-.06.06-.1.06a3.44,3.44,0,0,0-.53.21,3,3,0,0,0-.45.27l-.22.14a1.77,1.77,0,0,0-.37.27l-.06-.13-.34,1L3.85,27.81,13.9,29l-.1-.22a.46.46,0,0,0,.18-.26c.5-1.77,1-3.56,1.57-5.3a24.53,24.53,0,0,0,.88-2.49,18.56,18.56,0,0,1,.77-2.64c.19-.52-.39-1-.76-.78,0-.2-.23-.14-.42-.19s-.27-.16-.26-.37a.4.4,0,0,0,0-.19,1.69,1.69,0,0,0,.33,0h.17l.06,0,.1,0a.36.36,0,0,0,.16-.11.32.32,0,0,0,.11-.17.35.35,0,0,0,0-.2l0-.14a.55.55,0,0,0-.14-.23l-.1-.08a.55.55,0,0,0-.22-.06,2.54,2.54,0,0,0,.64-.22h0l.19-.1.1.07,0,0,.15.07h0l.15,0h0l.17,0A.51.51,0,0,0,18,15.3a.4.4,0,0,0,.14-.15.36.36,0,0,0,.06-.2A.38.38,0,0,0,18.14,14.74Z"/><line class="cls-4" x1="17.24" y1="18.41" x2="13.95" y2="28.91"/><line class="cls-4" x1="18.26" y1="15.15" x2="18.17" y2="15.44"/><polyline class="cls-4" points="14.54 13.35 18.69 13.78 18.61 14.01"/><line class="cls-4" x1="19.56" y1="13.87" x2="20.98" y2="29.85"/><line class="cls-4" x1="19.34" y1="21.76" x2="19.98" y2="29.64"/><path class="cls-5" d="M20.42,25.65a11.32,11.32,0,0,1,0-3.58V22a.91.91,0,0,1-.14-.4C20,19.83,20,18,19.8,16.27c0,0,0,0,0-.05a.49.49,0,0,0-.62.07l-.13.16a.54.54,0,0,0,0,.74l.08,0c.13.63.26,1.26.37,1.9l.18,1.15.09.57a.78.78,0,0,0,0,.22.08.08,0,0,1,0,.05.54.54,0,0,0-.28.44,1.34,1.34,0,0,1-.35.32l-.11.06c-.05,0-.06,0,0,0a1.65,1.65,0,0,1-.27-.19.91.91,0,0,0-.22-.11l-.08,0a.53.53,0,0,0-1,0,.71.71,0,0,0,0,.14h0a5.8,5.8,0,0,1-.94,2.6c-.24.44-.49.87-.74,1.3a2.27,2.27,0,0,0-.27.54,1.3,1.3,0,0,0,.12.75c.17.47.35.93.52,1.4s.22.85.64,1a4.6,4.6,0,0,0,1.34,0,7.45,7.45,0,0,1,1.48.22.48.48,0,0,0,.34,0l.05.11a.52.52,0,0,0,.65.21.54.54,0,0,0,.31-.62C20.71,28,20.55,26.85,20.42,25.65Z"/><path class="cls-6" d="M20.05,29.59c0-2.6-.39-5.19-.63-7.78a.71.71,0,0,1,0-.14,1.31,1.31,0,0,1-.25.22l-.11.06c-.05,0-.06,0,0,0a1.65,1.65,0,0,1-.27-.19.91.91,0,0,0-.22-.11l-.08,0a.53.53,0,0,0-1,0,.71.71,0,0,0,0,.14h0a5.8,5.8,0,0,1-.94,2.6c-.24.44-.49.87-.74,1.3a2.27,2.27,0,0,0-.27.54,1.3,1.3,0,0,0,.12.75c.17.47.35.93.52,1.4s.22.85.64,1a4.6,4.6,0,0,0,1.34,0,7.45,7.45,0,0,1,1.48.22.48.48,0,0,0,.34,0l.05.11a.36.36,0,0,0,.14.16A1,1,0,0,1,20.05,29.59Z"/><path class="cls-5" d="M19.66,14.38a.47.47,0,0,1-.43.51c-.24,0-.32-.32-.32-.6s.08-.42.32-.42A.47.47,0,0,1,19.66,14.38Z"/><path class="cls-2" d="M17.42,32.43h0l0-.05h0v0c-.21-.53-.42-1.06-.66-1.58a.21.21,0,0,0,0-.19c-.05-.13-.1-.25-.16-.38a.28.28,0,0,0,0-.13c-.16-.47-.26-.95-.44-1.41-.13-.3-.27-.6-.39-.91a.24.24,0,0,0,0-.25c-.06-.16-.13-.32-.2-.48a5.44,5.44,0,0,1-.23-.68,1.11,1.11,0,0,0-.08-.21l.05-.07.19-.23.11-.13.06-.07h0l.05,0,.13,0a.47.47,0,0,1,0-.17,2.27,2.27,0,0,1,.58-.69h0a.35.35,0,0,1-.3,0,18.49,18.49,0,0,1-1.32,1.83,1.66,1.66,0,0,0-.38.8c-.08.35-.13.72-.24,1.07a.71.71,0,0,1-.6.52,1.3,1.3,0,0,1,.08.17c.1.25.19.49.3.73.21.49.43,1,.65,1.44a.23.23,0,0,0,0,.18l.3.86a.32.32,0,0,0,.29.22c.32,0,.65,0,1,.06l.5,0,.14,0a.4.4,0,0,0,.3,0h.14l.05,0,0,0,0-.05v-.11Z"/><path class="cls-2" d="M13.11,28.85h0l-.11,0-.23-.06-.42-.09-.13,0-.27,0h-.58a3.63,3.63,0,0,1-.86-.06c-.32.71-.65,1.41-1,2.09a.31.31,0,0,0-.05.18.29.29,0,0,0,.11.38l.65.48a1.59,1.59,0,0,1,.5.43.3.3,0,0,0,.46.06c.67-.86,1.21-1.81,1.88-2.67a.38.38,0,0,0,.09-.26L13.3,29l.07-.09A.59.59,0,0,1,13.11,28.85Z"/><path class="cls-3" d="M13,33.16a.15.15,0,0,1,.06,0,4.55,4.55,0,0,1,1.41-.57,2.62,2.62,0,0,1,.79,0,2.42,2.42,0,0,1,.69.22l.37,0,.28,0h.08l.16,0a.3.3,0,0,1,.37.29h0v0a.55.55,0,0,1,.1.11c.11.17.16.37.27.54l0,0h0s0,0,0,.05a.29.29,0,0,1,0,.16.4.4,0,0,1-.12.27.4.4,0,0,1-.28.12.46.46,0,0,1-.25-.1h0a2.11,2.11,0,0,0-.26,0l-.3,0c-.2,0-.4,0-.61,0a9.61,9.61,0,0,0-1.2,0,3.45,3.45,0,0,1-1.11,0c-.38.06-.84.11-1-.25S12.67,33.28,13,33.16Z"/><path class="cls-3" d="M7.08,29.77a.31.31,0,0,1,.25-.08,2.42,2.42,0,0,1,1.17.46,3.28,3.28,0,0,1,.76.9,3.22,3.22,0,0,1,.56.41l.26.27,0,0h0l0,0,0,0h0s.13,0,0,0a.33.33,0,0,1,.26.14.32.32,0,0,1,0,.3l-.1.15a.45.45,0,0,1,0,.16,5,5,0,0,1-.46.67,3.41,3.41,0,0,0-.17.33,1.84,1.84,0,0,1-.15.35c-.18.24-.38.31-.58.11a2.85,2.85,0,0,1-.45-.8c-.2-.41-.5-.87-.69-1.3a.23.23,0,0,1-.12-.12c-.3-.55-.61-1.09-1-1.61A.3.3,0,0,1,7.08,29.77Z"/><line class="cls-7" x1="9.52" y1="34.04" x2="10.63" y2="32.06"/><path class="cls-7" d="M9.78,32.22a5.35,5.35,0,0,0-.71-1.51c-.44-.58-1.29-1.4-2.17-.93,0,0-.27.14-.15.36S9,33.93,9,33.93s.25.47.57.11"/><path class="cls-7" d="M17.6,33.81s.16.38-.39.38H13a.45.45,0,0,1-.46-.51c0-.51,1.16-1.17,2.43-1.12a3.4,3.4,0,0,1,1.43.36"/><path class="cls-7" d="M14.49,27.26l1.77-2.5A10.45,10.45,0,0,0,17.61,20"/><polyline class="cls-7" points="10.39 28.7 9.3 31 11.03 32.38 13.27 29.11"/><path class="cls-7" d="M15.57,32.64c.27,0,1.9,0,1.9,0L15.3,26.16"/><line class="cls-7" x1="15.05" y1="32.57" x2="13.67" y2="29.01"/><path class="cls-7" d="M12.49,33.81c.08,0,5.11,0,5.11,0l-.42-1.07"/><line class="cls-7" x1="6.99" y1="29.74" x2="9.46" y2="34.11"/><path class="cls-7" d="M7.46,16.21a2.21,2.21,0,0,0,.65-.1c.26-.1.79-.5.57-1A.31.31,0,0,0,8.25,15a1.8,1.8,0,0,1-1.31.24.19.19,0,0,0-.24.18c0,.23,0,.46.38,1,.1.15.22.3.34.45"/><path class="cls-7" d="M8.73,15.52s.64,0,.72-.38c0,0,.13-.38-.59-.55,0,0-1.54-.4-1.7.65"/><path class="cls-7" d="M8.31,14.05a3.58,3.58,0,0,0,.7-.13s.68-.21.51-.72c0,0-.08-.35-.85-.2a5.13,5.13,0,0,1-1,.18c-.47,0-.54.29-.3.65l.48.73"/><path class="cls-8" d="M18,12.87a7.3,7.3,0,0,0,.09-.94c0-.32.16-.62.17-.94s-.21-.29-.29-.09a3.86,3.86,0,0,1-.31.51c-.06,0-.05.08-.09.14a3.54,3.54,0,0,1-.73.95.15.15,0,0,0-.06.2l-.11.07a.2.2,0,0,0,.11.38c.3,0,.59.12.9.11S17.91,13,18,12.87Z"/><path class="cls-8" d="M18.53,7.5a.4.4,0,0,0,0-.15A1.84,1.84,0,0,0,18,6.15a4.22,4.22,0,0,0-.39-.47c-.15-.17-.29-.34-.43-.52a.5.5,0,0,0,0-.29c-.09-.19-.18-.38-.26-.57a2.44,2.44,0,0,0-.19-.44.41.41,0,0,0-.2-.17,4.14,4.14,0,0,0-.38-.55,2.39,2.39,0,0,0-1.7-.82,2.18,2.18,0,0,0-1.63.49.45.45,0,0,0-.15.19.36.36,0,0,0-.31.24.61.61,0,0,0-.05.12h0c0,.12-.07.24-.1.36l-.06.17a.49.49,0,0,0-.11.23,2.69,2.69,0,0,0,0,.75c0,.13,0,.26,0,.39a1,1,0,0,0,.15.44,1.7,1.7,0,0,0-.52.58,6,6,0,0,0-.36,1,.34.34,0,0,0,.17.44l.09,0h0A4.4,4.4,0,0,0,12,7.35a3.29,3.29,0,0,0,.21-.42,1.9,1.9,0,0,1,.26-.37,1,1,0,0,1,.23-.19h0c0-.7,1.09-.69,1.58-.45h.38a2.55,2.55,0,0,1,.67.12l0,0L15.71,6c.08,0,.13.12.16.3a1,1,0,0,1,.32.13.75.75,0,0,1,.29.35l.1,0,.06.09v0a.85.85,0,0,0,0,.23s0,.1,0,.14v.07a1.57,1.57,0,0,0,.8,1.15A.35.35,0,0,0,18,8.26a.68.68,0,0,0,.2,0,.39.39,0,0,0,.37-.48C18.59,7.7,18.56,7.6,18.53,7.5Z"/><line class="cls-9" x1="16.66" y1="17.38" x2="13.05" y2="28.91"/><line class="cls-9" x1="17.36" y1="15.15" x2="17.29" y2="15.36"/><line class="cls-9" x1="16.47" y1="29.31" x2="20.98" y2="29.85"/><polyline class="cls-9" points="7.79 16.28 7.45 17.27 3.85 27.81 13.9 29.01"/><polyline class="cls-9" points="17.36 15.15 17.81 13.69 8.98 12.78 8.94 12.89"/><line class="cls-9" x1="17.24" y1="18.41" x2="13.95" y2="28.91"/><line class="cls-9" x1="18.26" y1="15.15" x2="18.17" y2="15.44"/><polyline class="cls-9" points="14.54 13.35 18.69 13.78 18.61 14.01"/><line class="cls-9" x1="19.56" y1="13.87" x2="20.98" y2="29.85"/><line class="cls-9" x1="19.34" y1="21.76" x2="19.98" y2="29.64"/><polyline class="cls-9" points="19.56 13.87 18.69 13.78 18.71 14.09"/><path class="cls-9" d="M11.29,8.61c0,.13,0,.24,0,.34a5.14,5.14,0,0,0,.35,2,5.7,5.7,0,0,1,.48,2"/><path class="cls-9" d="M11.42,7.82c-.06.28-.1.55-.13.79"/><path class="cls-9" d="M11.51,7.45l-.09.37"/><path class="cls-9" d="M16.38,13.41a3,3,0,0,1,.56-1.08,5.09,5.09,0,0,0,1-1.53"/><path class="cls-9" d="M17.68,8.9a.62.62,0,0,1,.67-.6c.64,0,.52.86.31,1.15a1.19,1.19,0,0,0-.25.82c0,.26-.1.53-.37.53s-.27-.2-.28-.36"/><path class="cls-9" d="M18.12,9.2a.84.84,0,0,1-.05.17c-.06.16-.16.18-.13.32"/><path class="cls-9" d="M11.44,7.69a.61.61,0,0,0-.26-.09c-.55,0-.56.67-.41,1a1,1,0,0,1,.1.73c0,.23,0,.47.25.51a.17.17,0,0,0,.16,0"/><path class="cls-9" d="M11.31,7.9a1.34,1.34,0,0,0,0,.67v0"/><path class="cls-9" d="M16.48,13.13l1,.19s.37.12.47-.4.29-2.19.29-2.19"/><path class="cls-9" d="M12.45,6.24a5.21,5.21,0,0,1,1.94-.41,3,3,0,0,1,2.18.9,2,2,0,0,0,1.25,1.79"/><path class="cls-9" d="M18.49,8.32a2.19,2.19,0,0,0,0-1.47c-.35-1-1-1-1.46-2.22l-.18-.43a3,3,0,0,0-2.47-1.9,2.29,2.29,0,0,0-2.42,2.58,2.71,2.71,0,0,0,.25.94"/><path class="cls-9" d="M12.45,6.24a3.49,3.49,0,0,1-1,1.57"/><path class="cls-9" d="M12.2,5.83s-.17,0-.43.39a3.14,3.14,0,0,0-.54,1.38"/><path class="cls-9" d="M15.74,10.29a2.36,2.36,0,0,0-2.41.12"/><ellipse class="cls-10" cx="15.12" cy="8.03" rx="1.06" ry="0.8" transform="translate(5.97 22.5) rotate(-85.69)"/><path class="cls-10" d="M12.64,7.84c0-.58.44-1,.88-1s.76.54.72,1.12a.19.19,0,0,1,0,.08"/><ellipse class="cls-8" cx="15.12" cy="8.03" rx="0.21" ry="0.36"/><ellipse class="cls-8" cx="13.38" cy="7.82" rx="0.21" ry="0.36"/><polyline class="cls-9" points="14.31 8.08 12.2 7.83 14.02 9.45"/><path class="cls-7" d="M18.27,18.91a1.34,1.34,0,0,1-1.18-1.66"/><path class="cls-7" d="M17,16.4l-.83.09s-.3,0-.33.21.29.61.85.52l.41,0"/><path class="cls-7" d="M17,16.4l.29,0a.85.85,0,0,1,.58.36l.1.38"/><path class="cls-7" d="M16.66,15.93c-.15-.09-.24-.19-.24-.28s.25-.23.25-.23a9.39,9.39,0,0,1,1.07,0,.74.74,0,0,1,.67.54l.07.5"/><path class="cls-7" d="M17.64,16.48l-.1-.3a1.72,1.72,0,0,1-.88-.25"/><line class="cls-7" x1="17.63" y1="16.07" x2="17.54" y2="16.18"/><path class="cls-7" d="M18.41,15.92c.06-.07.25-.37.25-.37L18,14.62s-.32-.36-.05-.62.56.07.8.22a1.12,1.12,0,0,1,.32.3,7.54,7.54,0,0,1,.42,1.05.87.87,0,0,1-.07.42l-.44.69.56,2.9s.74,2.45-.84,2.16c-.29,0-1-.23-1.09-1.73"/><line class="cls-7" x1="17.95" y1="18.85" x2="17.95" y2="20.3"/><line class="cls-9" x1="8.56" y1="14.02" x2="8.38" y2="14.52"/><path class="cls-9" d="M17.45,21.36a1.91,1.91,0,0,1-1.07,0"/><path class="cls-3" d="M12.05,14.66h-.43l-.25.55c-.1.19-.19.39-.28.59l-.27.58c-.08.19-.16.38-.24.55a.14.14,0,0,1,0,.07h-.06l-.07,0-.08,0a.28.28,0,0,1-.14-.12c0-.05,0-.12,0-.22l.16-.41c.07-.16.14-.32.21-.5l.23-.51.22-.47-.14,0h-.2a.16.16,0,0,1-.06-.09.4.4,0,0,1,0-.17c0-.07,0-.12,0-.17a.2.2,0,0,1,0-.09l.07,0,.31,0h.36a1.93,1.93,0,0,1,.34,0H12l.09,0a.16.16,0,0,1,0,.07.33.33,0,0,1,0,.15.86.86,0,0,1,0,.16.14.14,0,0,1,0,.09A.12.12,0,0,1,12.05,14.66Z"/><path class="cls-3" d="M13.77,14.74l-.26.52-.29.62-.3.65c-.1.22-.2.43-.28.63a.15.15,0,0,1,0,.06h-.06l-.07,0-.09-.05a.3.3,0,0,1-.13-.12.26.26,0,0,1,0-.2,2.85,2.85,0,0,1,.11-.3l.16-.37-.22,0-.21,0c-.07.16-.14.32-.21.46s-.12.28-.17.39l-.05.08s0,0-.09,0l-.11-.06A.24.24,0,0,1,11.4,17a.14.14,0,0,1-.05-.1.24.24,0,0,1,0-.15l.24-.55.27-.63.27-.64c.08-.2.16-.39.24-.55a.21.21,0,0,1,.08-.11.14.14,0,0,1,.1,0l.13.09a.57.57,0,0,1,.11.11.19.19,0,0,1,.05.1.24.24,0,0,1,0,.12l-.2.41-.25.51h.4l.3-.65c.09-.21.18-.39.26-.56a.22.22,0,0,1,.08-.1l.11,0,.11.08.11.11a.19.19,0,0,1,.05.1A.41.41,0,0,1,13.77,14.74Z"/><path class="cls-3" d="M14,14.59l.23-.05.27,0,.27,0H15c.08,0,.12,0,.12.14a.71.71,0,0,1,0,.14s0,.08,0,.12a.53.53,0,0,1,0,.11.13.13,0,0,1-.1,0h-.29l-.32,0-.15.28-.16.31h.3a.15.15,0,0,1,.1,0s0,0,0,.09,0,.09,0,.13,0,.09,0,.14,0,.09,0,.1,0,0-.09,0l-.32,0-.31,0a2,2,0,0,0-.1.21c0,.07-.07.13-.1.19l.24,0h.23a.13.13,0,0,1,.1,0s0,.05.05.09,0,.1,0,.14a.57.57,0,0,0,0,.13.23.23,0,0,1,0,.11.19.19,0,0,1-.1,0l-.35,0-.34.05a.3.3,0,0,1-.17,0,.18.18,0,0,1-.07-.05l-.06-.09,0-.12a.31.31,0,0,1,0-.13.59.59,0,0,1,0-.17Z"/><path class="cls-3" d="M9.89,17.72l.23,0,.26,0,.28,0h.28c.08,0,.12.05.12.14a.66.66,0,0,1,0,.13s0,.08,0,.13a.23.23,0,0,1,0,.11l-.09,0h-.61l-.15.29-.16.31h.29l.11,0a.19.19,0,0,1,0,.09c0,.05,0,.1,0,.14a.57.57,0,0,0,0,.13.14.14,0,0,1,0,.11s0,0-.09,0l-.32,0-.31,0a2,2,0,0,0-.1.21l-.1.19.24,0H10l.1,0s0,.05,0,.1a.66.66,0,0,1,0,.14v.13a.16.16,0,0,1,0,.11.13.13,0,0,1-.09,0l-.35.06-.34,0a.24.24,0,0,1-.17,0,.18.18,0,0,1-.07-.05L9,20.26a.83.83,0,0,1,0-.12.25.25,0,0,1,0-.13.45.45,0,0,1,0-.17Z"/><path class="cls-3" d="M12,18.62l.33-.7a.21.21,0,0,1,.08-.1.13.13,0,0,1,.1,0l.1.06s.06.05.11.1a.17.17,0,0,1,0,.11.27.27,0,0,1,0,.13l-.24.53-.28.61c-.09.22-.19.43-.28.64l-.24.57a.12.12,0,0,1-.18.07l-.11-.05-.1-.07a.24.24,0,0,1-.09-.24V20c0-.1,0-.21,0-.32l0-.35c0-.12,0-.24,0-.36l-.18.42-.19.4-.16.37c-.05.12-.1.22-.13.31a.22.22,0,0,1-.06.07s0,0-.08,0l-.11-.06a.2.2,0,0,1-.09-.09.13.13,0,0,1,0-.1.31.31,0,0,1,0-.15l.11-.27c0-.11.09-.23.15-.37l.19-.45.21-.46c.06-.16.13-.3.19-.44s.12-.25.17-.36a.22.22,0,0,1,.09-.1.14.14,0,0,1,.11,0l.14.09a.61.61,0,0,1,.14.1.19.19,0,0,1,.07.11.53.53,0,0,1,0,.17c0,.06,0,.14,0,.23s0,.2,0,.31,0,.23-.05.35,0,.25,0,.36C11.76,19.16,11.88,18.88,12,18.62Z"/><path class="cls-3" d="M12.92,18.07a.92.92,0,0,1,.23-.09,1.31,1.31,0,0,1,.27-.06,1.23,1.23,0,0,1,.27,0,.5.5,0,0,1,.24.09.65.65,0,0,1,.19.21,1,1,0,0,1,.1.34,1.26,1.26,0,0,1,0,.38,2.39,2.39,0,0,1-.37.89,2.71,2.71,0,0,1-.35.41,2.15,2.15,0,0,1-.44.34,2.18,2.18,0,0,1-.52.21.23.23,0,0,1-.27-.06l-.09-.11-.08-.14a.25.25,0,0,1,0-.07.19.19,0,0,1,0-.08.38.38,0,0,1,0-.1s0-.09,0-.15Zm-.36,2.15A2.33,2.33,0,0,0,13,20a2.36,2.36,0,0,0,.32-.31,2.19,2.19,0,0,0,.23-.33,2,2,0,0,0,.14-.31.93.93,0,0,0,.05-.3.22.22,0,0,0-.1-.17.28.28,0,0,0-.26,0c-.13.27-.27.54-.4.82S12.69,19.92,12.56,20.22Z"/><path class="cls-3" d="M10.34,21.16a.31.31,0,0,1,.05.1.41.41,0,0,1,0,.12l-.17.32q-.09.18-.18.39c-.07.14-.14.28-.2.43s-.13.3-.2.44l-.19.42-.16.36a.14.14,0,0,1-.06.07s0,0-.08,0L9,23.73a.28.28,0,0,1-.09-.07.16.16,0,0,1-.05-.1.41.41,0,0,1,0-.16L9,23.09c0-.12.1-.26.16-.4l.19-.46c.07-.15.13-.31.2-.45s.12-.29.18-.42L9.91,21a.19.19,0,0,1,.09-.09.1.1,0,0,1,.1,0,.42.42,0,0,1,.12.08A.68.68,0,0,1,10.34,21.16Z"/><path class="cls-3" d="M9.69,23.08a.31.31,0,0,1,.19,0,.24.24,0,0,1,.14.1,1,1,0,0,0,.28.27.18.18,0,0,0,.22,0s0-.06,0-.11a1.5,1.5,0,0,0-.09-.18l-.15-.21a2,2,0,0,1-.14-.23.72.72,0,0,1-.08-.37,1.08,1.08,0,0,1,.15-.46,1.13,1.13,0,0,1,.14-.22,1.12,1.12,0,0,1,.18-.2,1.8,1.8,0,0,1,.2-.19.9.9,0,0,1,.2-.14l.08,0,.1,0h.11a.25.25,0,0,1,.11,0,.61.61,0,0,1,.16.12.88.88,0,0,1,.12.17.31.31,0,0,1,0,.22,1,1,0,0,1,0,.2,1.34,1.34,0,0,1-.07.18l-.09.2-.09.19-.09.16s-.05.07-.08.07,0,0-.08,0a.34.34,0,0,1-.16-.44.89.89,0,0,1,.07-.19,1.59,1.59,0,0,0,.09-.2.3.3,0,0,0,0-.13s0,0-.08,0a.67.67,0,0,0-.17.12,1.73,1.73,0,0,0-.17.21.64.64,0,0,0-.12.25.33.33,0,0,0,0,.24l.13.23.15.21a1.51,1.51,0,0,1,.12.2.44.44,0,0,1,0,.22.4.4,0,0,1-.07.19l-.11.16a1.14,1.14,0,0,1-.16.15,1,1,0,0,1-.21.1.78.78,0,0,1-.27,0,.57.57,0,0,1-.35-.14.88.88,0,0,1-.25-.42.36.36,0,0,1,0-.21A.14.14,0,0,1,9.69,23.08Z"/><path class="cls-11" d="M7.75,26.36l-.18.39c-.06.13-.11.25-.16.38l-.06.07s0,0-.09,0l-.11-.07a.22.22,0,0,1-.09-.07A.15.15,0,0,1,7,27a.47.47,0,0,1,.05-.16l.09-.19a2.93,2.93,0,0,1,.12-.28c0-.11.08-.23.13-.35l.15-.37c.05-.13.09-.25.14-.36l.13-.31.1-.22A.17.17,0,0,1,8,24.62l.34-.15a2.93,2.93,0,0,1,.37-.1.86.86,0,0,1,.32,0,.33.33,0,0,1,.21.17c0,.08,0,.17.08.26a1.7,1.7,0,0,1,0,.33.72.72,0,0,1-.11.34,1.49,1.49,0,0,1-.23.27,1.37,1.37,0,0,1-.26.2l-.3.18-.33.14A2.56,2.56,0,0,1,7.75,26.36Zm.3-.63a1.37,1.37,0,0,0,.35-.15,1.34,1.34,0,0,0,.26-.19,1,1,0,0,0,.17-.19A.35.35,0,0,0,8.89,25a0,0,0,0,0,0-.06.18.18,0,0,0-.11,0H8.6L8.41,25l-.17.35Z"/><path class="cls-11" d="M10.14,24.71a.31.31,0,0,1,0,.1.41.41,0,0,1,0,.12l-.17.32q-.09.18-.18.39c-.07.14-.14.28-.2.43l-.2.44-.19.42c-.06.13-.11.26-.16.36a.14.14,0,0,1-.06.07s0,0-.08,0l-.11-.06-.09-.08a.14.14,0,0,1-.05-.1.34.34,0,0,1,0-.15c0-.09.07-.19.12-.31s.1-.26.16-.41.12-.3.19-.45.13-.31.2-.46.12-.29.18-.42.11-.24.16-.33a.24.24,0,0,1,.08-.09.15.15,0,0,1,.11,0l.12.08A1.36,1.36,0,0,1,10.14,24.71Z"/><path class="cls-11" d="M10.4,24.73l.24-.05.26,0,.27,0h.28c.08,0,.12.05.13.14a.56.56,0,0,1,0,.13.57.57,0,0,1,0,.13.24.24,0,0,1,0,.11l-.1,0h-.28l-.33,0-.15.28-.16.31h.3l.1,0a.19.19,0,0,1,0,.1.57.57,0,0,1,0,.13.66.66,0,0,1,0,.14.19.19,0,0,1,0,.1.19.19,0,0,1-.1,0l-.32,0-.31,0a2,2,0,0,0-.1.21,1.14,1.14,0,0,1-.1.19l.24,0h.23a.18.18,0,0,1,.11,0s0,0,0,.09a.71.71,0,0,1,0,.14v.13a.39.39,0,0,1,0,.11.19.19,0,0,1-.09,0l-.36.06-.34.05a.25.25,0,0,1-.16,0l-.08-.05a.41.41,0,0,1-.05-.09.61.61,0,0,1,0-.12.3.3,0,0,1,0-.13.55.55,0,0,1,0-.17Z"/></g></svg>