<svg xmlns="http://www.w3.org/2000/svg" viewBox="0 0 90.44 97.49"><defs><style>.cls-1{fill:#0077bf;}.cls-2{fill:#89d3de;}.cls-3,.cls-7{fill:none;}.cls-10,.cls-3{stroke:#1c204d;}.cls-10,.cls-3,.cls-7{stroke-linecap:round;stroke-linejoin:round;stroke-width:0.8px;}.cls-4{fill:#fff;}.cls-5{fill:#f9b730;}.cls-6{fill:#f47951;}.cls-7{stroke:#1d1f4e;}.cls-10,.cls-8{fill:#1c204d;}.cls-9{fill:#af6e30;}</style></defs><g id="Layer_1" data-name="Layer 1"><path class="cls-1" d="M69.24,73.47c-.51-1.06-1.47-2.13-2.74-1.49a4.72,4.72,0,0,0-2,2.44,9.35,9.35,0,0,0-.78,3.9,18.73,18.73,0,0,0,.16,2.12,6.13,6.13,0,0,0,.45,2h0a4.06,4.06,0,0,0,1.57,2.23c2.32,1.5,4-2.55,4.36-4.21A11.39,11.39,0,0,0,69.24,73.47Z"/><path class="cls-1" d="M53.62,75.34a3.73,3.73,0,0,0-2-2,2.43,2.43,0,0,0-2.69.88c-1.27,1.57-1.46,4.12-1.32,6.06a12.55,12.55,0,0,0,.69,3.37,5.23,5.23,0,0,0,1.91,2.85,1,1,0,0,0,.46.15,1.13,1.13,0,0,0,.63.08A1.33,1.33,0,0,0,52,86.3a1.9,1.9,0,0,0,.54-.34,3.72,3.72,0,0,0,.82-1.33,13,13,0,0,0,.93-3.06A10.48,10.48,0,0,0,53.62,75.34Z"/><path class="cls-1" d="M41.28,82.46l-.06,0a.72.72,0,0,0-.33-.21.71.71,0,0,0-.38-.08,1,1,0,0,0-.59.21,5.53,5.53,0,0,1-.86.24h-.17l-.06,0-.08,0a1,1,0,0,0-.77-.1,1,1,0,0,0-.7,1.23l.1.24a1,1,0,0,0,.36.36,2.32,2.32,0,0,0,1.8.28,10.19,10.19,0,0,0,1.3-.39,1,1,0,0,0,.7-.7,1,1,0,0,0,0-.54A1.1,1.1,0,0,0,41.28,82.46Z"/><path class="cls-1" d="M26.16,82.82a1,1,0,0,0-.87-.5,12.21,12.21,0,0,1-2.18,0l-.49,0-.18,0-.09,0a3.63,3.63,0,0,1-.45-.1l-.16-.06h0L21.61,82a1,1,0,0,0-1.37,1.38c.39.53.74,1.1,1.08,1.67.05.09.12.18.18.27l.08.13h0c.05.07.09.14.15.21a.87.87,0,0,0,.71.28,1,1,0,0,0,.75.36,2.74,2.74,0,0,0,1.94-.84,5.48,5.48,0,0,0,1-1.62A1,1,0,0,0,26.16,82.82Z"/><path class="cls-2" d="M68.39,78.73a6.37,6.37,0,0,0,0-1.07,2.64,2.64,0,0,0-.32-1.35,1,1,0,0,0-1.73,0,1.43,1.43,0,0,0-.17.6v0a0,0,0,0,1,0,0h0a1.39,1.39,0,0,0-.1.26,2.85,2.85,0,0,0-.07.51c0,.22,0,.44,0,.66a5.77,5.77,0,0,0,.18,1.55,1,1,0,0,0,1.23.7,1,1,0,0,0,.71-1.21A1.06,1.06,0,0,0,68.39,78.73Z"/><path class="cls-2" d="M52.09,78.27a1,1,0,0,0-.58-.65.66.66,0,0,0-.39-.09.94.94,0,0,0-.51.14,1.38,1.38,0,0,0-.73,1,4.79,4.79,0,0,0,0,1.07c0,.36,0,.72.07,1.08,0,0,0,0,0,.07a1.46,1.46,0,0,0,0,.72,1.33,1.33,0,0,0,.36.6A1,1,0,0,0,52,81.54a1.15,1.15,0,0,0,.18-.53A10.47,10.47,0,0,0,52.09,78.27Z"/><path class="cls-3" d="M26.5,82.81c-.64,2.17-1.83,3.62-3.16,3.59S20.66,84.56,20.19,82"/><path class="cls-3" d="M17.28,81.56c.41,2.75,1.67,4.75,3.21,4.78l2.86.06"/><path class="cls-3" d="M41.88,82.65c-.66,1.25-1.55,2-2.52,2A2.94,2.94,0,0,1,37,82.76"/><path class="cls-3" d="M34.26,82.83a2.85,2.85,0,0,0,2.25,1.75l2.86.06"/><path class="cls-4" d="M48.74,39.72c-.76-.62-1.51-1.28-2.33-1.83-.39-.26-.8-.44-1.21-.66a1.5,1.5,0,0,1-.73-.93,1,1,0,0,0-.87-.5,14.39,14.39,0,0,1-2.17-.15c-.77,0-1.53,0-2.3,0s-1.4,0-1.77.61a1.27,1.27,0,0,0-.14.54,5,5,0,0,0-.92.25l-.53.26h0c-.51.25-1,.53-1.5.83a.93.93,0,0,0-.35.39c-.65-.06-1.35.42-1.06,1.2.17.46.32.92.46,1.38a1,1,0,0,0,2-.26s0-.07,0-.11a.83.83,0,0,0,.21-.06,1.79,1.79,0,0,0,.53-.41,1,1,0,0,0,.44-.24c.79-.75,2-.62,3-.59a15.29,15.29,0,0,0,1.79,0,2.08,2.08,0,0,1,1.56.29,13.06,13.06,0,0,0,1.24.86,10.73,10.73,0,0,1,1.46.67,2.37,2.37,0,0,0,1.43.66,3.63,3.63,0,0,0,1.58-.54A1,1,0,0,0,48.74,39.72Z"/><path class="cls-5" d="M82.67,50.9a3.36,3.36,0,0,0-3.17-.73,4.4,4.4,0,0,0-1.1-.87,3.3,3.3,0,0,0-2.57-.4,1.46,1.46,0,0,0-.3.17c-.93-.72-1.92-1.38-2.88-2A26.23,26.23,0,0,0,70,45.41c-1-.51-2.06-.86-3-1.41a1.08,1.08,0,0,0-.29-.09.88.88,0,0,0-.19-.12A18.47,18.47,0,0,0,59,42.45c-2.75.2-5.48.76-8.21,1.1-4.68.6-9.42,1.26-14.14,1.54a.85.85,0,0,0-.93-.69c-4.39.29-8.82.23-12.92,2A42.81,42.81,0,0,0,17,49.63a25.49,25.49,0,0,0-4.93,3.63,1.1,1.1,0,0,0-.51-.17A5.63,5.63,0,0,0,9,53.54a3,3,0,0,0-1,.64,1.48,1.48,0,0,0-.34.61h0l-.48,0a2.86,2.86,0,0,0-1.32.32,19.88,19.88,0,0,1-2.05,1.19,1.84,1.84,0,0,0-.94.73,1.27,1.27,0,0,0,.27,1.5l0,.06a2.46,2.46,0,0,0,.46,2.13,3.33,3.33,0,0,0,1.89,1.15,9.1,9.1,0,0,0,2.77.51,2,2,0,0,0,.24.33,2.44,2.44,0,0,0,.27.29,4.53,4.53,0,0,0,.78.67,3.21,3.21,0,0,0,.85.42,2.42,2.42,0,0,0-.14,1.32,34.49,34.49,0,0,0,1.28,4.76c.24.77.47,1.54.65,2.32.09.39.15.79.24,1.18v0a1.23,1.23,0,0,1,0,.19c0,.23,0,.46.05.69a2.11,2.11,0,0,0,.17.7,1.6,1.6,0,0,0,0,1.2A9.05,9.05,0,0,1,13,77.88.2.2,0,0,0,13,78a4.2,4.2,0,0,0,.08.62,2.47,2.47,0,0,0,.64,1.12,4.19,4.19,0,0,0,1.67.91,4.1,4.1,0,0,0,.5.18l0,0,.29.16a6.69,6.69,0,0,0,2.48.6l0,0a14.67,14.67,0,0,0,4.11.57,1.87,1.87,0,0,0,.84-.22c1.85.27,3.71.43,5.58.55.94,0,1.88.08,2.82,0a7.56,7.56,0,0,0,2.25-.29,2.24,2.24,0,0,0,1.09.39,27.9,27.9,0,0,0,3.64-.29,17.54,17.54,0,0,1,1.78-.06A3.21,3.21,0,0,0,42.31,82,10.59,10.59,0,0,0,45.06,82c.85-.13,1.67-.3,2.52-.37h.1s0,0,0,0a7.64,7.64,0,0,1,0-2.82,12.94,12.94,0,0,1,.71-3.25,4.1,4.1,0,0,1,1-1.56,2.37,2.37,0,0,1,2.26-.57,3.3,3.3,0,0,1,1.94,1.83,8.31,8.31,0,0,1,.81,3.31,6.11,6.11,0,0,1-.06.86,1.52,1.52,0,0,1,.06.2,4,4,0,0,1,.07,1,4.58,4.58,0,0,1-.1.63,10.09,10.09,0,0,1,1-.06,3.43,3.43,0,0,0,2.12-.66,1.71,1.71,0,0,0,.89.23,25.52,25.52,0,0,0,4.95-.85c0-.06,0-.11,0-.17a12.41,12.41,0,0,1,.33-3.79,7.69,7.69,0,0,1,1.13-3,3,3,0,0,1,1.7-1.37,2.43,2.43,0,0,1,2.52.82,4.34,4.34,0,0,1,.51,1s.06.14.08.21c.27.59.55,1.18.77,1.79a6.72,6.72,0,0,1,.41,1.89,3.25,3.25,0,0,0,1.85-1.38,10.47,10.47,0,0,0,.84-2.61l.75-2.72a1.67,1.67,0,0,0,.24-.46c.53-1.75,1-3.5,1.41-5.29s.69-3.61,1.19-5.37a2,2,0,0,0,0-.54,5.33,5.33,0,0,0,1-.81c.14-.14.3-.38.46-.46s.72-.14,1-.28.61-.29.93-.39.77-.19,1.15-.3a2.82,2.82,0,0,0,1.82-1.57A3.54,3.54,0,0,0,82.67,50.9Z"/><path class="cls-4" d="M40.06,42.26l-.2-.16a1.38,1.38,0,0,0-.29-.08,1,1,0,0,0-.6-.22,1,1,0,0,0-.68.29,2.76,2.76,0,0,0-1.59,1.15,1.76,1.76,0,0,0-.21.38,3.12,3.12,0,0,0-.3,1.28,1,1,0,0,0,.3.71,1,1,0,0,0,.71.3,1,1,0,0,0,1-1s0-.06,0-.09a2.29,2.29,0,0,1,.07-.28,2.53,2.53,0,0,1,.13-.22l.15-.15.2-.11L39,44a1.93,1.93,0,0,1,.34,0,1,1,0,0,0,.71-.29,1,1,0,0,0,0-1.42Z"/><path class="cls-4" d="M43.47,45.78a1.46,1.46,0,0,0,.05-.2v0a1.53,1.53,0,0,0,0-.3h0l-.1-.24v0a1.3,1.3,0,0,0-.18-.23,1,1,0,0,0-1.42,0l-.16.2a1.36,1.36,0,0,0,0,.17s-.06.06-.07.1a.86.86,0,0,0-.09.39,2.51,2.51,0,0,1,0,.27"/><path class="cls-6" d="M33.69,42.08c-.11-.47-.22-.94-.32-1.41a1,1,0,0,0-.84-.72,1,1,0,0,0-1,.48,1.33,1.33,0,0,1-.24.23,22.86,22.86,0,0,0-.69-3.58,1,1,0,0,0-.28-.44c0-.08,0-.17,0-.26a1,1,0,0,0,.62-.62l0,0a.74.74,0,0,0,0-.36l.05-.08c.11-.16.23-.32.34-.49l.69-1a1,1,0,0,0-.86-1.51,2.14,2.14,0,0,0-1,.34l-.05,0-.09-.18a6.36,6.36,0,0,1-.28-.65h0c-.18-1.09-.55-2.16-.83-3.2a1,1,0,0,0-1.23-.7l-.08,0a1,1,0,0,0-1.87.52s0,0,0,0a.94.94,0,0,0-.72.93,2.71,2.71,0,0,0,.42,1.31,1,1,0,0,0,.12.41c.48.9.93,1.81,1.33,2.75a3.09,3.09,0,0,1,.14.32s.1.23.11.25l.25.64a3.43,3.43,0,0,0,.77,1.46l.12.07c-.09,1.94-.15,3.88-.14,5.83a2.61,2.61,0,0,0,.28,1.68c.45.58,1.12.45,1.71.22l1.52-.62.63-.28.35-.17c-.1,0,.19,0,0,0A1,1,0,0,0,33.69,42.08Z"/><path class="cls-6" d="M49.27,42.19a1,1,0,0,0-1.13-.46,3.46,3.46,0,0,0-1,.59h0a2.48,2.48,0,0,0-1-.24.78.78,0,0,0-.27-.24A11.34,11.34,0,0,1,44,40.53c-.72-.63-1.46-1.26-2.46-.75-.79.4-1.67,1.3-1.4,2.26a2.76,2.76,0,0,0,.77,1.05,5.38,5.38,0,0,1,.68,1,1,1,0,0,0,1.58.2,1.27,1.27,0,0,0,.32-.78c.26.11.51.22.78.31a8.23,8.23,0,0,0,1.4.26,1.09,1.09,0,0,0,.93.65h.15s.08,0,.12,0a4.45,4.45,0,0,1,.85.68c.37.43.63.94,1.22,1.11a1.19,1.19,0,0,0,1.52-1.12A5,5,0,0,0,49.27,42.19Z"/><path class="cls-1" d="M45.64,44.47a2.44,2.44,0,0,0-.1-.24,1,1,0,0,0-.36-.36l-.24-.1a1.06,1.06,0,0,0-.47,0H44.3a.79.79,0,0,0-.38.09.72.72,0,0,0-.33.21,1,1,0,0,0-.29.71l0,.26a1.13,1.13,0,0,0,.26.45l.21.15a.88.88,0,0,0,.5.14h.19l.31,0h0l.1,0a.92.92,0,0,0,.34-.18.8.8,0,0,0,.26-.29.63.63,0,0,0,.12-.37A.68.68,0,0,0,45.64,44.47Z"/><path class="cls-1" d="M40.48,39.8a1,1,0,0,0-1.38-.36l-.4.2-.07,0-.24.08c-.29.08-.59.13-.88.22a5.24,5.24,0,0,0-1.84,1.13,2.92,2.92,0,0,0-.66.74,4.46,4.46,0,0,0-.38,1,6.82,6.82,0,0,0-.3,1.74.79.79,0,0,0,0,.13v.32a1,1,0,0,0,2,0v-.34s0-.07,0-.11a1.64,1.64,0,0,0,0-.22s0,0,0,0c.06-.3.14-.61.22-.91.05-.14.09-.27.13-.41a.69.69,0,0,1,0-.13.43.43,0,0,1,0-.07h0l.15-.16.3-.25.15-.13h0a2.46,2.46,0,0,1,.34-.22l.18-.1h0l.4-.11a6.81,6.81,0,0,0,1.8-.65A1,1,0,0,0,40.48,39.8Z"/><path class="cls-1" d="M41.16,44.78a.94.94,0,0,0-.26-.44,2.18,2.18,0,0,0-.34-.26,2.78,2.78,0,0,0-.4-.16,2.14,2.14,0,0,0-.43-.07h-.19a1.71,1.71,0,0,0-.82.22,2.13,2.13,0,0,0-.34.25,1.07,1.07,0,0,0-.38.83c0,.08,0,.17,0,.26a.7.7,0,0,0,.18.34.39.39,0,0,0,.18.18.7.7,0,0,0,.34.18,1,1,0,0,0,.56,0,1.07,1.07,0,0,0,.39-.22s.07.06.12.07a.65.65,0,0,0,.38.09.66.66,0,0,0,.39-.09.83.83,0,0,0,.32-.2,1,1,0,0,0,.3-.71Z"/><path class="cls-3" d="M30.29,36.44s1.14.05,1-1.26c0,0-.14-.72.28-1s.91-.42.8-1.09a1.24,1.24,0,0,0-1.57-1,1,1,0,0,0-.64.39"/><path class="cls-3" d="M29.12,32.37a3.09,3.09,0,0,0-2,.73"/><path class="cls-3" d="M29.62,34.19a1.08,1.08,0,0,0-.22.77"/><path class="cls-3" d="M29.61,35.58a1.17,1.17,0,0,0-1.37-.89"/><path class="cls-3" d="M28.61,32.37l-1.12-4c-.36-1.25-1.16-.93-1.16-.93s-.69.27-.35,1.25l1.41,4.13"/><path class="cls-3" d="M30.29,33,29,28.76s-.3-1.27-1.08-1c-.61.18-.31,1.21-.31,1.21"/><path class="cls-3" d="M26.14,29.18a.65.65,0,0,0-.91-.35c-.71.24-.07,1.73-.07,1.73l2.77,6.14"/><path class="cls-7" d="M45.79,44.47c.06.18.11.38.16.57l0,.09"/><path class="cls-7" d="M43.48,44.6a4.61,4.61,0,0,1,.2.63"/><path class="cls-7" d="M37.26,39.69a4.85,4.85,0,0,1,1.5-.36,5.88,5.88,0,0,1,2.39.3"/><path class="cls-7" d="M37.26,39.69c-2,.83-3.46,3.11-3,6.45"/><path class="cls-7" d="M43.18,44a4.8,4.8,0,0,1,.3.65"/><path class="cls-7" d="M39.26,41.56a2.29,2.29,0,0,1,.37,0"/><path class="cls-7" d="M36.36,46.06c-.24-2.54,1.15-4.36,2.71-4.49h.19"/><path class="cls-7" d="M38,45.92c-.11-1.38.59-2.13,1.32-2.19a2.16,2.16,0,0,1,2.2,2.07"/><path class="cls-7" d="M43.4,43.41a2.1,2.1,0,0,0,2.91-.06"/><path class="cls-7" d="M43,43.53a.56.56,0,0,0,.58-.39"/><path class="cls-7" d="M43.35,44.56a.89.89,0,0,1-1.16.12c-.3-.22-.9-.63-.5-1.26s1.11-1.77,1.11-1.77"/><path class="cls-7" d="M41.51,43.72a.94.94,0,0,1-.72-.28c-.35-.33-.47-.62-.06-1.25l1-1.43"/><path class="cls-7" d="M40.45,42.64a1,1,0,0,1-.51-.24c-.41-.33-.22-.76,0-1.16s1.09-1.38,1.09-1.38.66-1,2.3,0l4.57,2.93"/><path class="cls-7" d="M43.19,43.51a1.46,1.46,0,0,1-.35.77"/><path class="cls-7" d="M48.83,41.43l.13.13s2.45,2.43,1.5,4.51C49.7,47.7,45.27,44,45.27,44"/><path class="cls-3" d="M30.64,44.23c1-.14,2.62-.35,3.6-.42"/><path class="cls-3" d="M47,45.42l-3.37.25c-11,.74-20.08,1-20,.25,0-.35,2-.86,5.08-1.38"/><path class="cls-3" d="M50,42.54c7.87-.35,13.53-.21,13.49.4s-5.25,1.44-12.59,2.14"/><path class="cls-7" d="M46.88,41.94l.47-.21c1.25-.51,2.36-.7,2.47-.41.06.12-.1.32-.4.55"/><path class="cls-7" d="M44.11,36.43s2.82.65,5.71,4.89"/><line class="cls-7" x1="45.13" y1="39.37" x2="45.47" y2="41.18"/><path class="cls-3" d="M27.93,36.7l.21,6.48s0,1.67,1.26,1.4A44.5,44.5,0,0,0,33.85,43"/><line class="cls-3" x1="30.49" y1="36.7" x2="31.2" y2="41.58"/><path class="cls-3" d="M32.42,39.49c-.45.35-.9.74-1.35,1.16"/><path class="cls-3" d="M34.51,39.69a23.3,23.3,0,0,0,0,3.13"/><path class="cls-3" d="M32.09,39.67c0-.26,0-.42.07-.45s.18.06.32.23"/><path class="cls-3" d="M32.48,39.45a9.56,9.56,0,0,1,1,2.08,12.58,12.58,0,0,1,.46,1.4"/><path class="cls-3" d="M32.16,39.22a19.46,19.46,0,0,1,5.29-3"/><path class="cls-3" d="M43,82.26C26.85,83.32,14.42,82,13.28,79.48L9.91,63.72"/><path class="cls-3" d="M70.81,77.27a4.71,4.71,0,0,0,2.3-1.71L77.32,59"/><path class="cls-3" d="M54.75,81.08c2.14-.3,4.14-.63,6-1"/><path class="cls-3" d="M42.83,82.27l1.88-.13"/><path class="cls-3" d="M63.67,42.82C72.39,45.91,78,50.57,78,52.29c-.06,2.79-15.57,6.08-34.64,7.32s-34.49,0-34.43-2.8c0-1.7,6-6.87,14.86-11.09"/><path class="cls-3" d="M11.64,53.28a4.26,4.26,0,0,0-2,0A4.18,4.18,0,0,0,7.3,54.69a3.86,3.86,0,0,0-2.67.76c-1.4.94-2.16,2.32-1.68,3.1l.06.07a1.06,1.06,0,0,0-.19.23c-.45.87.58,2.22,2.31,3A5.13,5.13,0,0,0,8,62.38a4.44,4.44,0,0,0,2.82,1.4,5.79,5.79,0,0,0,2.78-.17,5.09,5.09,0,0,0,2.66.93,5.76,5.76,0,0,0,2.87-.39,5,5,0,0,0,2.77.79,5.66,5.66,0,0,0,3-.62,5,5,0,0,0,2.86.72,5.62,5.62,0,0,0,3-.74,5.08,5.08,0,0,0,2.92.65,6,6,0,0,0,2.8-.74,5.23,5.23,0,0,0,2.8.48,7.57,7.57,0,0,0,1.65-.29"/><path class="cls-3" d="M75.38,49.11a4.49,4.49,0,0,1,2-.22A3.41,3.41,0,0,1,79.68,50a3.47,3.47,0,0,1,2.64.41c1.37.76,2.06,2,1.55,2.89l-.06.08a.91.91,0,0,1,.18.21c.42.81-.68,2.29-2.45,3.32a5.79,5.79,0,0,1-2.86.89,5.49,5.49,0,0,1-2.88,1.77,5.79,5.79,0,0,1-2.79.2A6.12,6.12,0,0,1,70.3,61a5.56,5.56,0,0,1-2.86,0,5.84,5.84,0,0,1-2.81,1.16,5.15,5.15,0,0,1-2.95-.24A5.78,5.78,0,0,1,58.79,63a5.21,5.21,0,0,1-3-.36,5.74,5.74,0,0,1-2.95,1,5.29,5.29,0,0,1-2.78-.38,5.81,5.81,0,0,1-2.83.85A5.71,5.71,0,0,1,45.74,64"/><path class="cls-3" d="M41.09,63l-.22,1.36a5,5,0,0,0,2.34.31A6,6,0,0,0,45.74,64l-.32-1.31"/><path class="cls-3" d="M30.66,64.3A4.53,4.53,0,0,1,31.27,63"/><path class="cls-3" d="M36.38,64.21s.3-1.26.37-1.11"/><path class="cls-3" d="M24.82,64.32a4.9,4.9,0,0,1,.87-1.19"/><path class="cls-3" d="M19.09,64.15s.49-.93,1-1.08"/><path class="cls-3" d="M13.56,63.61a9.76,9.76,0,0,1,1.82-1.47"/><path class="cls-3" d="M8,62.38s1-1.09,1.49-1.2"/><path class="cls-3" d="M3,58.62a10,10,0,0,1,1.7-.3"/><path class="cls-3" d="M7.3,54.69s.79.48.81.86"/><path class="cls-3" d="M56.12,62.63a3.88,3.88,0,0,0-.56-1.18"/><path class="cls-3" d="M50.38,63.29s-.24-1.22-.32-1.07"/><path class="cls-3" d="M62,61.88a4,4,0,0,0-.82-1.08"/><path class="cls-3" d="M67.73,61s-.45-.87-1-1"/><path class="cls-3" d="M73.29,59.7a7.65,7.65,0,0,0-1.76-1.24"/><path class="cls-3" d="M79,57.73s-.93-1-1.43-1"/><path class="cls-3" d="M83.81,53.33a5.38,5.38,0,0,0-1.41-.09"/><path class="cls-3" d="M80,49.94s-.81.57-.85,1"/><ellipse class="cls-3" cx="51.1" cy="79.97" rx="2.72" ry="1.37" transform="translate(-29.97 129.31) rotate(-88.75)"/><ellipse class="cls-3" cx="51.09" cy="80.1" rx="6.91" ry="3.49" transform="translate(-30.11 129.43) rotate(-88.75)"/><path class="cls-3" d="M51.24,73.2l-2.84-.07c-1.93,0-3.56,3-3.65,6.83s1.41,6.94,3.34,7L51,87"/><ellipse class="cls-3" cx="67.13" cy="78.21" rx="2.72" ry="1.37" transform="translate(-12.53 143.6) rotate(-88.75)"/><ellipse class="cls-3" cx="67.11" cy="78.34" rx="6.91" ry="3.49" transform="translate(-12.68 143.72) rotate(-88.75)"/><path class="cls-3" d="M67.26,71.43l-2.84-.06c-1.93,0-3.56,3-3.64,6.83s1.41,6.94,3.34,7l2.85.06"/><path class="cls-8" d="M34.53,43.75a1,1,0,0,0-.46-.6,1,1,0,0,0-.77-.1,1.06,1.06,0,0,0-.6.46,2.2,2.2,0,0,0-.25.51,5.83,5.83,0,0,0-.72.06c-.47.07-.93.17-1.38.26a1,1,0,0,0-.6.46s0,0,0,.05,0,0,0,0a1,1,0,0,0-.71-.3H28.9a1.77,1.77,0,0,0-.32-.05,3.81,3.81,0,0,0-.59.07l.26,0a5.63,5.63,0,0,1-1.36,0,1,1,0,0,0-.71.3c-.18.17-2,.76-2,1s1.77.23,2,.41l.2.15a.94.94,0,0,0,.51.14,6.68,6.68,0,0,0,1.67-.06l-.27,0a1.88,1.88,0,0,1,.41,0,1,1,0,0,0,.29,0,1.08,1.08,0,0,0,.71-.29,1.06,1.06,0,0,0,.18-.27.67.67,0,0,0,.23.21,1.14,1.14,0,0,0,.77.1L32.14,46a4.13,4.13,0,0,1,.93,0H33a1,1,0,0,0,.84-.18,1,1,0,0,0,.4-.79s0-.08,0-.12a1.6,1.6,0,0,1,0-.21,2.53,2.53,0,0,1,.13-.22A1,1,0,0,0,34.53,43.75Z"/><path class="cls-8" d="M62.74,43c-.16-.58-2.7-.89-3.24-.81-1.38.19-2.77.24-4.16.3l-2.07.09a2.29,2.29,0,0,1-1.42-.21,1,1,0,0,0-1.48.83.93.93,0,0,0,0,.84l.18.36a.89.89,0,0,0,1.28.37l.21.09a.92.92,0,0,0,1.25-.25c.64,0,1.27-.08,1.85-.11,1.63-.06,3.25-.15,4.87-.37C60.57,44.06,62.87,43.48,62.74,43Z"/><path class="cls-8" d="M18,83.58l-.06,0-.06,0A.35.35,0,0,1,18,83.58Z"/><path class="cls-8" d="M18,83.53h0s0,0,0,0Z"/><path class="cls-8" d="M21.63,85.23a1.07,1.07,0,0,0-.41-.55l0,0,0,0,0,0-.11-.11-.18-.2a4.12,4.12,0,0,1-.47-.75.36.36,0,0,1,0-.11v-.09s0-.06,0-.09a1.15,1.15,0,0,0-.12-.73,1.45,1.45,0,0,0-.62-.58,3.72,3.72,0,0,0-1.07-.39,1.12,1.12,0,0,0-.78.1,1,1,0,0,0-.46.6,1,1,0,0,0,.1.78l.16.2a1.08,1.08,0,0,0,.18.11l0,0,.06,0-.1-.08a.72.72,0,0,0,.21.12h0l-.08,0,.08,0a.88.88,0,0,0-.06.28l0,.27a.94.94,0,0,0,.26.44,9.57,9.57,0,0,0,1.86,1.79,1,1,0,0,0,1.47-1.14Z"/><path class="cls-8" d="M37.61,83.5a.94.94,0,0,0-.26-.44L37.29,83l-.08,0L37,82.77a1.66,1.66,0,0,0-.33-.15,1.89,1.89,0,0,0-.33-.13l-.15,0-.07,0h0l-.27,0-.08,0a.32.32,0,0,0-.09,0,.86.86,0,0,0-.39.09.75.75,0,0,0-.32.21l-.16.2a1.15,1.15,0,0,0-.14.51l0,.27a1,1,0,0,0,.26.44l.21.16,0,0h0a1.59,1.59,0,0,0,.27.12h.06l.14,0,.14,0h.09l.19.11L36,84.49h0a.69.69,0,0,0,.3.2.71.71,0,0,0,.38.08,1,1,0,0,0,.71-.29l.16-.2a1,1,0,0,0,.14-.51C37.64,83.68,37.62,83.59,37.61,83.5Z"/><path class="cls-8" d="M49.41,74.54c.4-.82-.47-2-1.37-1.37a4.63,4.63,0,0,0-1.77,1.57,8.85,8.85,0,0,0-.58,1.85,1.39,1.39,0,0,0-.21.21c0,.13-.11.25-.16.37s0,.1,0,.15,0,.22-.05.32v.08a1.65,1.65,0,0,0,0,.32.24.24,0,0,0,0,.08l0,0c0,.1-.05.19-.07.28a.92.92,0,0,0-.25.64c0,.21,0,.41,0,.61a8,8,0,0,0,.12,3.08,1,1,0,0,0,.15.31,1.76,1.76,0,0,0,0,.23,4.85,4.85,0,0,0,.85,2c0,.06.11.07.16.12l.09.13a1.16,1.16,0,0,0,.48.88,7.94,7.94,0,0,0,.91.6c1,.53,2.12-.82,1.22-1.58a6,6,0,0,1-1-1.13,4.65,4.65,0,0,0-.2-.94,8.41,8.41,0,0,1-.26-1.5c0-.59-.11-1.18-.2-1.77a1,1,0,0,0,.26-.44A28,28,0,0,1,49.41,74.54Z"/><path class="cls-8" d="M63.84,76.67a10.16,10.16,0,0,1,1.59-4,1,1,0,0,0-1.13-1.48,2.89,2.89,0,0,0-1.7,1.48c-.34.68-.66,1.42-1,2.13a3.8,3.8,0,0,0-.23.94l-.05,0c-1,.58-.72,2.1-.58,3.06.11.77.29,1.52.43,2.27,0,0,0,0,0,.08a5.14,5.14,0,0,0,.23,1.23.9.9,0,0,0,.32.44.86.86,0,0,0,.17.41,9.72,9.72,0,0,0,1.59,1.8c1,.85,2.54-.07,1.42-1.42a5.83,5.83,0,0,1-1.29-3,.87.87,0,0,0-.19-.41s0,0,0-.08c0-.34,0-.69-.06-1s-.06-.75-.07-1.12l0-.69A.87.87,0,0,0,63.84,76.67Z"/><path class="cls-9" d="M47.94,28.15A2.5,2.5,0,0,0,47.73,26a6.63,6.63,0,0,0-.31-.59,3.74,3.74,0,0,0-.72-1.33v-.05a.76.76,0,0,0-.58-.67,1.84,1.84,0,0,0-.57,0,1.65,1.65,0,0,0-.32-.07,1.06,1.06,0,0,0-.53.06c-.32-.08-.63-.18-.92-.26a5,5,0,0,0-1.15-.17,2.2,2.2,0,0,1-.92-.1.68.68,0,0,0-.82.14c-.43-.12-.86-.26-1.28-.4l-.32-.11a.74.74,0,0,0-.78.35c-.07-.09-.15-.17-.22-.25-.34-.4-1.06-.14-.87.42a4.91,4.91,0,0,0,1.44,1.93,8.68,8.68,0,0,0,2.23,1.46c.83.39,1.68.77,2.54,1.11a6.72,6.72,0,0,0,1.23.38c0,.23-.06.47-.1.7a4.78,4.78,0,0,1-.26.62.91.91,0,0,0-.37.21,2.73,2.73,0,0,0-.36.45.75.75,0,0,0-.82.37A4.18,4.18,0,0,0,42.67,32a3.39,3.39,0,0,0,.22,1.75A3.28,3.28,0,0,0,44,35.15c.62.34,1.33-.2,1.75-.63a8.65,8.65,0,0,0,1.58-3.27A8,8,0,0,0,47.94,28.15Z"/><path class="cls-6" d="M44.13,27.53a.66.66,0,0,0-.28,0l0,0a1.54,1.54,0,0,0-.45-.17,1.52,1.52,0,0,0-.52,0l-.1,0a38.79,38.79,0,0,0-3.53-1.92l-.73-.75a5.51,5.51,0,0,1-.93-1.16c-.26-.5-.53-1.08-1.2-1s-1,.81-1.17,1.32a8.92,8.92,0,0,0-.55,1.73c-.06.27-.82.29-1,.25-.16.29-.36.56-.52.86a6.4,6.4,0,0,0-.26.85,1.52,1.52,0,0,1-.54.78,2.56,2.56,0,0,0,.07.62c.08,0,.41,0,.48,0,.27,0,.84-.33,1.08-.43a.82.82,0,0,0,.31.07h.12c-.06.39-.13.78-.2,1.16-.11.61-.31,1,.21,1.05.05.06.71.21.75.26a1,1,0,0,0,.05.33,1.72,1.72,0,0,0,.38.58,10,10,0,0,1,.82,1.22,7.53,7.53,0,0,1,.41.8,9.28,9.28,0,0,0,.4.91c.45.73,1.37.65,2.12.73l2.25.22a1.07,1.07,0,0,0,.93-.32l.16.07a.49.49,0,0,0,.54-.8,3.44,3.44,0,0,1-.7-2.12,6.8,6.8,0,0,1,.21-2.94v0a1.38,1.38,0,0,0,.57,0,1.53,1.53,0,0,0,.81-.56v0a.89.89,0,0,0,.55-.42A.78.78,0,0,0,44.13,27.53Z"/><path class="cls-4" d="M38.31,25.59a1.11,1.11,0,0,0-.12-.27,1.16,1.16,0,0,0-.46-.42l-.12-.06a1.6,1.6,0,0,0-.31-.1l-.14,0a1.82,1.82,0,0,0-.33,0,1.32,1.32,0,0,0-.94.45,1.51,1.51,0,0,0-.18.26l0,.07a2.17,2.17,0,0,0-.07.24.15.15,0,0,0,0,.07,2.11,2.11,0,0,0,0,.25,2,2,0,0,0,.05.24.64.64,0,0,0,0,.07.8.8,0,0,0,.37.42.73.73,0,0,0,.56,0,.85.85,0,0,0,.28-.16l0,.06a.75.75,0,0,0,.54.18,1,1,0,0,0,.43-.14l0,0a.75.75,0,0,0,.16-.15,1,1,0,0,0,.25-.52A1.18,1.18,0,0,0,38.31,25.59Z"/><path class="cls-3" d="M42,29.3a1,1,0,0,0,.69.59,1.52,1.52,0,0,0,1.62-.72.41.41,0,0,1,.05-.09,4.46,4.46,0,0,0,.34-.83c0-.09,0-.2.07-.3"/><path class="cls-3" d="M34.54,25.33a2.7,2.7,0,0,1,.26-.89,5.87,5.87,0,0,1,5.41-4.1,8.47,8.47,0,0,1,1.34,0"/><path class="cls-3" d="M37.54,35.39c-.29-1.79-2.32-3.34-2.69-4.53"/><path class="cls-3" d="M39.26,28.5c-.71,2.36-4.7,2.4-5.07,2.19s-.11-.78-.11-.78a2.92,2.92,0,0,0,.2-1.17c-.26.2-1.79.22-1.85-.11-.07-.5.47-3,2.11-3.3"/><path class="cls-3" d="M43.38,27.58a2.57,2.57,0,0,0-.38.49,1.17,1.17,0,0,0-.14.3"/><path class="cls-3" d="M44,27.77a.63.63,0,0,1-.27,0,1.5,1.5,0,0,1-.25-.19"/><path class="cls-3" d="M42.52,35.74a27.32,27.32,0,0,1-4.74-.25.41.41,0,0,0-.48.32.43.43,0,0,0,.31.49,20.15,20.15,0,0,0,3.88.34c.16,0,1.83,0,2,0,0,0,.77,0,.73-.4s-.17-.43-.46-.48A11.4,11.4,0,0,0,42.52,35.74Z"/><path class="cls-3" d="M34.75,28.25a1.06,1.06,0,0,1-.47.49"/><path class="cls-3" d="M37,27.47h-.15a1.42,1.42,0,1,1,0-2.84,1.62,1.62,0,0,1,.44.07,1.43,1.43,0,0,1,1,1.36,1.51,1.51,0,0,1-.08.48"/><path class="cls-3" d="M38.16,26.54a1.52,1.52,0,0,1-.32.51"/><line class="cls-3" x1="37.96" y1="26.9" x2="35.63" y2="26.75"/><path class="cls-8" d="M37.19,26.06a.42.42,0,0,0-.09-.14.34.34,0,0,0-.14-.09.29.29,0,0,0-.16,0l-.12,0a.45.45,0,0,0-.19.11l-.07.09a.43.43,0,0,0-.06.22v0a.29.29,0,0,0,0,.16.26.26,0,0,0,.09.14.22.22,0,0,0,.14.09.29.29,0,0,0,.16,0h.12a.39.39,0,0,0,.19-.12l.07-.08a.43.43,0,0,0,.06-.22v0A.33.33,0,0,0,37.19,26.06Z"/><path class="cls-10" d="M36,22.34a5.27,5.27,0,0,1,10.32,1L31.62,21.92"/><path class="cls-3" d="M37,22.44s1.28,4.23,8.32,5.48"/><path class="cls-3" d="M42.91,30.05S41.64,34,44,35.3s6.34-8,2.3-12"/></g></svg>