<svg xmlns="http://www.w3.org/2000/svg" viewBox="0 0 52.04 71.27"><defs><style>.cls-1{fill:#f59da0;}.cls-2{fill:#0d773c;}.cls-3{fill:#1c204d;}.cls-4{fill:#f9b730;}.cls-10,.cls-5{fill:#fff;}.cls-6{fill:#0077bf;}.cls-7,.cls-9{fill:none;}.cls-7{stroke:#1c204d;}.cls-10,.cls-7,.cls-9{stroke-linecap:round;stroke-linejoin:round;stroke-width:0.8px;}.cls-8{fill:#1c1d4c;}.cls-10,.cls-9{stroke:#1c1d4c;}.cls-11{fill:#ea4827;}</style></defs><g id="Layer_1" data-name="Layer 1"><path class="cls-1" d="M35.07,15.42a.82.82,0,0,0-.81.56.44.44,0,0,0-.16-.06,1.48,1.48,0,0,1-.65-.42,2.11,2.11,0,0,0,.12-.86,5.55,5.55,0,0,0-.71-2.48,4.82,4.82,0,0,0-1.12-1.34,6.08,6.08,0,0,0-2.25-1.25,5.52,5.52,0,0,0-2-.19,7.62,7.62,0,0,0-1.34.21,7.38,7.38,0,0,0-1.28.5,6.05,6.05,0,0,0-1.57,1.09,4.88,4.88,0,0,0-1.11,1.48,4.64,4.64,0,0,0-.44,1.23c0,.17-.05.31-.07.44-.56-.1-1.11-.45-1.6.09S20,15.55,20.16,16a1.57,1.57,0,0,1,.18.95,2.36,2.36,0,0,0,.06,1,.62.62,0,0,0,.83.37,27.6,27.6,0,0,0,.71,2.95,16.28,16.28,0,0,1,.55,2.16,5.91,5.91,0,0,0,.15.84c.09.25.28.53.16.8,0,0,0,0,0,0,1.52.11,3,.39,4.55.51l2.28.21c.54.07,1.07.16,1.6.25.06-.25.11-.51.2-.77a5.14,5.14,0,0,1,.95-1.75c.45-.52,1-1,1.39-1.54a3.15,3.15,0,0,0,.74-1.78.94.94,0,0,0,.3.05.57.57,0,0,0,.51-.3,1.14,1.14,0,0,0,.11-.58,3.24,3.24,0,0,1,.16-.8,10.34,10.34,0,0,0,.62-2.11A1.16,1.16,0,0,0,35.07,15.42Z"/><path class="cls-1" d="M17.34,25.3a.67.67,0,0,0-.22-.33l-.21-.17a1.08,1.08,0,0,0-.53-.14l-.28,0-.06,0a1,1,0,0,0-.54.12,3.75,3.75,0,0,1-.44.24,4.63,4.63,0,0,1-.83.23h-.11a1.23,1.23,0,0,0-.53.14,1,1,0,0,0-.43.5,1,1,0,0,0-.07.55,1,1,0,0,0,.29.6l.23.25a2.4,2.4,0,0,1,.23.38,1,1,0,0,0,.36.35,1.05,1.05,0,0,0-.7.29,1.17,1.17,0,0,0-.31.75v.12a.55.55,0,0,0-.18,0,1.2,1.2,0,0,0-.83.57,1.07,1.07,0,0,0-.13.72,1.91,1.91,0,0,0,.17.51l.22.44a1,1,0,0,0,.63.49,1.15,1.15,0,0,0,.81-.11,1.08,1.08,0,0,0,.48-.63c0-.06,0-.11,0-.17a1.59,1.59,0,0,0,.32-.16c.26-.19.49-.42.73-.62l.17-.1a5.12,5.12,0,0,1,.67-.19A1,1,0,0,0,17,29.3a1.08,1.08,0,0,0-.27-1,1.26,1.26,0,0,0-1-.35l-.29,0a.84.84,0,0,0,.29-.45l0-.28a1,1,0,0,0-.05-.18,3.49,3.49,0,0,0,.34-.15s.07,0,.1,0l.28,0a1.06,1.06,0,0,0,.47-.27l.18-.16a.67.67,0,0,0,.22-.33.75.75,0,0,0,.09-.41A.73.73,0,0,0,17.34,25.3Z"/><path class="cls-1" d="M37.63,39.27a10.1,10.1,0,0,0-.28-1.35,1.42,1.42,0,0,0,.09-.75c-.14-1-.27-1.93-.42-2.9A4.25,4.25,0,0,0,36.24,32a3.58,3.58,0,0,0,.49-.3,2.45,2.45,0,0,0,.82-1.43,2.63,2.63,0,0,0-.3-1.84,8.86,8.86,0,0,0-1.13-1.31,1.05,1.05,0,1,0-1.49,1.49c.24.25.49.5.72.77l0,0a.75.75,0,0,0,.1.17v0a.08.08,0,0,0,0,0v.22s0,.05,0,.07v0h0l0,.07-.13.13-.07,0s0,0-.06,0a4.93,4.93,0,0,0-.8-.39,5.55,5.55,0,0,0-1.56-.32,1,1,0,0,0-.34,2,3.07,3.07,0,0,1-.42-.07,1.05,1.05,0,0,0-.56,2,6.1,6.1,0,0,0,1.34.19A5.94,5.94,0,0,0,34,36.32a1,1,0,0,0,.61.3c0,.61.09,1.22.14,1.82,0,.14,0,.27,0,.4a1,1,0,0,0-.52.89,3,3,0,0,0,.85,2.11,1.52,1.52,0,0,0,2.39-.27A3.91,3.91,0,0,0,37.63,39.27Z"/><path class="cls-2" d="M32.13,41.58c-1,0-1.39.77-1.59,1.6s-.4,1.51-.64,2.26a36.24,36.24,0,0,1-1.63,4.28,1.09,1.09,0,0,0,.38,1.44c.45.27.61.1.85-.42.59-1.3,1.71-2.57,2.17-3.92.21-.63.41-1.27.59-1.91.09-.32.17-.64.26-1v0a1.06,1.06,0,0,0,.66-1v-.31A1.06,1.06,0,0,0,32.13,41.58Z"/><path class="cls-3" d="M34.42,36.71a1,1,0,0,0-.63-.48,1.07,1.07,0,0,0-1.3.73,13.39,13.39,0,0,1-.42,1.77c-.08.29-.18.58-.28.87a5.05,5.05,0,0,0-.24,1.09,1.08,1.08,0,0,0,.31.74,1.05,1.05,0,0,0,1.49,0,1.19,1.19,0,0,0,.3-.72v.13a13.43,13.43,0,0,1,.49-1.64,15.76,15.76,0,0,0,.39-1.68A1.14,1.14,0,0,0,34.42,36.71Z"/><line class="cls-4" x1="31.91" y1="33.64" x2="24.66" y2="56.78"/><line class="cls-4" x1="33.31" y1="29.16" x2="33.18" y2="29.58"/><line class="cls-4" x1="31.53" y1="57.6" x2="40.59" y2="58.68"/><path class="cls-5" d="M34.88,28.34l-.1-.25a1.15,1.15,0,0,0-.38-.38l-.25-.1h-.09s0-.05-.06-.07-.11-.05-.16-.08l.39-1.23L16.49,24.39l-.08.23,1.6.43a1.31,1.31,0,0,0-.46,1v.19h-.9a.73.73,0,0,0-.41.09.74.74,0,0,0-.34.22.7.7,0,0,0-.21.34.79.79,0,0,0-.1.4l0,.28a1.11,1.11,0,0,0,.27.47l.22.16a1.08,1.08,0,0,0,.53.14c.18,0,.36,0,.54,0a1.72,1.72,0,0,0,.25,1l.24.34-.1.1-.22.13c-.36.13-.71.25-1.06.41a9,9,0,0,0-.9.55c-.15.1-.3.2-.45.28a3,3,0,0,0-.73.56l-.13-.27-.68,2L6.18,54.58,26.38,57l-.21-.43a1,1,0,0,0,.37-.54c1-3.55,2-7.14,3.13-10.64a47.19,47.19,0,0,0,1.78-5A39.16,39.16,0,0,1,33,35.08c.38-1-.77-2.07-1.51-1.57-.05-.4-.48-.27-.86-.37s-.54-.34-.51-.76a.74.74,0,0,0-.06-.37,2.5,2.5,0,0,0,.67.05l.06,0v0l.28,0,.13-.05a1.06,1.06,0,0,0,.19,0,1,1,0,0,0,.56-.56A.9.9,0,0,0,32,31l0-.28a1.06,1.06,0,0,0-.27-.47l-.21-.16a1,1,0,0,0-.43-.12,5,5,0,0,0,1.27-.43l.06,0h0l.38-.21.2.16.07,0,.31.13.08,0,.29,0h.06a2.2,2.2,0,0,0,.36,0,.89.89,0,0,0,.36-.19.87.87,0,0,0,.27-.3.69.69,0,0,0,.12-.39A.75.75,0,0,0,34.88,28.34Z"/><line class="cls-4" x1="33.07" y1="35.69" x2="26.47" y2="56.78"/><line class="cls-4" x1="35.12" y1="29.15" x2="34.94" y2="29.73"/><polyline class="cls-4" points="27.64 25.55 35.98 26.41 35.84 26.87"/><line class="cls-4" x1="37.73" y1="26.59" x2="40.59" y2="58.68"/><line class="cls-4" x1="37.29" y1="42.44" x2="38.58" y2="58.26"/><path class="cls-5" d="M39.46,50.25a22.88,22.88,0,0,1,0-7.2.57.57,0,0,0,0-.13,2,2,0,0,1-.3-.8c-.45-3.56-.51-7.16-.92-10.72,0,0,0-.06,0-.09a1,1,0,0,0-1.25.13l-.27.32a1.1,1.1,0,0,0,0,1.49l.16.1c.26,1.27.52,2.54.74,3.81.13.77.25,1.54.37,2.31.06.39.12.77.17,1.16a2,2,0,0,0,0,.43c0,.06,0,.09,0,.11a1.09,1.09,0,0,0-.57.88,3,3,0,0,1-.69.64l-.22.13c-.11.07-.13.06-.07,0-.17,0-.39-.29-.55-.38a1.63,1.63,0,0,0-.44-.21.34.34,0,0,0-.16-.08,1.06,1.06,0,0,0-2-.08,2.4,2.4,0,0,0,0,.28h0a12.15,12.15,0,0,1-1.89,5.22L30,50.15a4,4,0,0,0-.54,1.08,2.51,2.51,0,0,0,.25,1.5l1,2.82c.28.74.45,1.7,1.28,2a9,9,0,0,0,2.69.09,15,15,0,0,1,3,.44,1,1,0,0,0,.68-.08l.09.21a1,1,0,0,0,1.32.43,1.07,1.07,0,0,0,.61-1.24C40.05,55,39.73,52.65,39.46,50.25Z"/><path class="cls-6" d="M38.72,58.17c0-5.24-.78-10.43-1.27-15.64,0-.1,0-.19,0-.29a2.59,2.59,0,0,1-.49.45l-.22.13c-.11.07-.13.06-.07,0-.17,0-.39-.29-.55-.38a1.63,1.63,0,0,0-.44-.21.34.34,0,0,0-.16-.08,1.06,1.06,0,0,0-2-.08,2.4,2.4,0,0,0,0,.28h0a12.15,12.15,0,0,1-1.89,5.22L30,50.15a4,4,0,0,0-.54,1.08,2.51,2.51,0,0,0,.25,1.5l1,2.82c.28.74.45,1.7,1.28,2a9,9,0,0,0,2.69.09,15,15,0,0,1,3,.44,1,1,0,0,0,.68-.08l.09.21a.75.75,0,0,0,.29.32A1.42,1.42,0,0,1,38.72,58.17Z"/><path class="cls-5" d="M37.94,27.62a1,1,0,0,1-.88,1c-.48,0-.63-.65-.63-1.22s.15-.83.63-.83A1,1,0,0,1,37.94,27.62Z"/><path class="cls-2" d="M33.43,63.87v0h0a.42.42,0,0,0,0-.1h0v0h0v0a.11.11,0,0,1,0,0c-.43-1.07-.85-2.14-1.33-3.18a.43.43,0,0,0,0-.37c-.1-.26-.21-.51-.32-.76a.46.46,0,0,0,0-.26c-.31-1-.51-1.92-.88-2.84-.25-.61-.53-1.21-.79-1.82a.53.53,0,0,0,.12-.52c-.13-.32-.26-.64-.41-1s-.33-.91-.47-1.38a2.32,2.32,0,0,0-.15-.41l.1-.14.39-.46.21-.27.11-.13h0l.1,0,.27,0a1,1,0,0,1,.07-.34,4.62,4.62,0,0,1,1.17-1.39h0a.69.69,0,0,1-.61-.06A32.87,32.87,0,0,1,28.25,52a3.4,3.4,0,0,0-.75,1.61c-.18.72-.28,1.45-.48,2.16a1.45,1.45,0,0,1-1.21,1,3.4,3.4,0,0,1,.16.34c.19.5.38,1,.59,1.47.43,1,.87,1.94,1.32,2.9a.45.45,0,0,0,0,.36l.61,1.72a.61.61,0,0,0,.57.43,18.63,18.63,0,0,0,2,.14c.34,0,.67,0,1,.08a.9.9,0,0,1,.28.06.81.81,0,0,0,.61,0H33a.21.21,0,0,0,.11,0,.16.16,0,0,0,.09,0,.11.11,0,0,0,.09,0,.18.18,0,0,0,.1-.11l0-.09,0-.11Z"/><path class="cls-2" d="M24.78,56.68l-.05,0-.2-.07-.47-.13-.85-.17-.26,0-.53,0H21.25a7.3,7.3,0,0,1-1.73-.14c-.64,1.42-1.3,2.84-2.06,4.2a.76.76,0,0,0-.1.37.62.62,0,0,0,.22.77l1.32,1a3.59,3.59,0,0,1,1,.86.6.6,0,0,0,.93.12c1.35-1.72,2.43-3.63,3.78-5.35a.73.73,0,0,0,.16-.52l.39-.47c.05-.06.09-.12.14-.17A1.91,1.91,0,0,1,24.78,56.68Z"/><path class="cls-3" d="M24.51,65.33a.5.5,0,0,1,.14-.1,8.76,8.76,0,0,1,2.82-1.14,4.66,4.66,0,0,1,1.58,0,4.35,4.35,0,0,1,1.38.43l.76-.06.55,0h.17l.32-.06a.6.6,0,0,1,.75.57v0a1.07,1.07,0,0,1,.2.22c.22.35.32.75.55,1.09l0,0h0a1.09,1.09,0,0,1,.12.41.77.77,0,0,1-.23.56.79.79,0,0,1-.56.23.84.84,0,0,1-.52-.2h0a3.15,3.15,0,0,0-.53,0l-.6.06a9.94,9.94,0,0,1-1.22,0,19.52,19.52,0,0,0-2.42,0,6.62,6.62,0,0,1-2.22-.07c-.76.12-1.68.24-2-.49S23.9,65.57,24.51,65.33Z"/><path class="cls-3" d="M12.67,58.52a.66.66,0,0,1,.5-.16,4.92,4.92,0,0,1,2.34.93,6.49,6.49,0,0,1,1.54,1.8,7.57,7.57,0,0,1,1.13.82c.18.18.34.37.52.55l.07,0h0l.05,0,.07.05.05,0s.26.05.06,0a.62.62,0,0,1,.51.29.61.61,0,0,1,0,.6,1.89,1.89,0,0,1-.19.3.67.67,0,0,1-.07.31,9.39,9.39,0,0,1-.91,1.35,5.45,5.45,0,0,0-.35.68,3.11,3.11,0,0,1-.31.7c-.35.47-.75.62-1.15.22a5.87,5.87,0,0,1-.91-1.6c-.4-.84-1-1.76-1.38-2.61a.53.53,0,0,1-.25-.26c-.59-1.1-1.23-2.18-1.92-3.22A.6.6,0,0,1,12.67,58.52Z"/><line class="cls-7" x1="17.57" y1="67.1" x2="19.8" y2="63.12"/><path class="cls-7" d="M18.09,63.44a10.28,10.28,0,0,0-1.42-3c-.9-1.18-2.6-2.82-4.37-1.87,0,0-.53.27-.29.72s4.41,7.61,4.41,7.61.51.95,1.15.23"/><path class="cls-7" d="M33.79,66.63s.33.77-.78.77H24.47a.92.92,0,0,1-.94-1c.07-1,2.33-2.36,4.88-2.25a6.81,6.81,0,0,1,2.88.73"/><path class="cls-7" d="M27.56,53.47l3.56-5a21,21,0,0,0,2.7-9.53"/><polyline class="cls-7" points="19.32 56.38 17.13 61 20.59 63.76 25.11 57.19"/><path class="cls-7" d="M29.71,64.28c.56.06,3.83.07,3.83.07L29.18,51.26"/><line class="cls-7" x1="28.68" y1="64.14" x2="25.91" y2="56.99"/><path class="cls-7" d="M23.54,66.63c.15,0,10.25,0,10.25,0L33,64.48"/><line class="cls-7" x1="12.49" y1="58.45" x2="17.44" y2="67.23"/><path class="cls-7" d="M13.43,31.28a4.32,4.32,0,0,0,1.31-.19c.52-.21,1.58-1,1.14-2a.6.6,0,0,0-.85-.24,3.65,3.65,0,0,1-2.65.47.39.39,0,0,0-.47.37c-.07.46,0,.92.75,2l.69.89"/><path class="cls-7" d="M16,29.9s1.27.07,1.44-.76c0,0,.27-.76-1.19-1.11,0,0-3.08-.81-3.41,1.3"/><path class="cls-7" d="M15.14,26.94a5.54,5.54,0,0,0,1.41-.26s1.36-.42,1-1.45c0,0-.16-.69-1.7-.38a10.16,10.16,0,0,1-2.07.34c-1,0-1.08.6-.61,1.32l1,1.46"/><path class="cls-8" d="M34.51,24.58a10,10,0,0,0,.18-1.89c.05-.65.34-1.25.35-1.9,0-.38-.42-.57-.58-.17a9.07,9.07,0,0,1-.62,1c-.11,0-.1.15-.18.28a7.33,7.33,0,0,1-1.48,1.9.34.34,0,0,0-.11.4,1.64,1.64,0,0,1-.22.14.42.42,0,0,0,.21.78c.61,0,1.2.22,1.81.2C34.29,25.34,34.42,24.91,34.51,24.58Z"/><path class="cls-8" d="M35.67,13.79a.75.75,0,0,0,0-.31,3.8,3.8,0,0,0-1.13-2.41,8.54,8.54,0,0,0-.79-.92c-.3-.35-.59-.7-.86-1.06a1.06,1.06,0,0,0-.09-.59c-.18-.38-.35-.76-.52-1.14A5.17,5.17,0,0,0,32,6.49a.91.91,0,0,0-.41-.35A8.58,8.58,0,0,0,30.79,5a4.81,4.81,0,0,0-3.41-1.65,4.37,4.37,0,0,0-3.29,1,1.17,1.17,0,0,0-.29.38.76.76,0,0,0-.63.48,2.44,2.44,0,0,0-.1.24h0a6.05,6.05,0,0,0-.2.73l-.12.34a1,1,0,0,0-.22.45,4.78,4.78,0,0,0,0,1.51,5.14,5.14,0,0,0,.07.78,2,2,0,0,0,.29.88,3.9,3.9,0,0,0-1,1.18,12.26,12.26,0,0,0-.73,1.94.68.68,0,0,0,.36.89.56.56,0,0,0,.17.09h.07a8.87,8.87,0,0,0,.72-.78c.16-.26.28-.56.42-.84a3.47,3.47,0,0,1,.52-.75,2,2,0,0,1,.45-.37l.05,0c0-1.4,2.19-1.38,3.18-.89.25,0,.5,0,.75,0a5.61,5.61,0,0,1,1.35.23l.09.05.71-.14c.17,0,.26.25.33.6a2.33,2.33,0,0,1,.64.26,1.56,1.56,0,0,1,.58.7l.21-.1a.63.63,0,0,0,.12.18v0a3.89,3.89,0,0,0,.09.47,2.76,2.76,0,0,0,.08.27v.14a3.14,3.14,0,0,0,1.61,2.31.71.71,0,0,0,1-.3,1.61,1.61,0,0,0,.39,0,.79.79,0,0,0,.74-1A4,4,0,0,0,35.67,13.79Z"/><line class="cls-9" x1="31.91" y1="33.64" x2="24.66" y2="56.78"/><line class="cls-9" x1="33.31" y1="29.16" x2="33.18" y2="29.58"/><line class="cls-9" x1="31.53" y1="57.6" x2="40.59" y2="58.68"/><polyline class="cls-9" points="14.09 31.43 13.41 33.42 6.18 54.58 26.38 56.99"/><polyline class="cls-9" points="33.31 29.16 34.23 26.23 16.49 24.39 16.41 24.62"/><line class="cls-9" x1="33.07" y1="35.69" x2="26.47" y2="56.78"/><line class="cls-9" x1="35.12" y1="29.15" x2="34.94" y2="29.73"/><polyline class="cls-9" points="27.64 25.55 35.98 26.41 35.84 26.87"/><line class="cls-9" x1="37.73" y1="26.59" x2="40.59" y2="58.68"/><line class="cls-9" x1="37.29" y1="42.44" x2="38.58" y2="58.26"/><polyline class="cls-9" points="37.74 26.59 35.98 26.41 36.03 27.04"/><path class="cls-9" d="M21.13,16c0,.24-.05.47-.07.68a10.45,10.45,0,0,0,.71,4.09,12,12,0,0,1,1,4"/><path class="cls-9" d="M21.39,14.44A13.41,13.41,0,0,0,21.13,16"/><path class="cls-9" d="M21.57,13.7c-.07.25-.13.5-.18.74"/><path class="cls-9" d="M31.35,25.66a6,6,0,0,1,1.13-2.17,10.76,10.76,0,0,0,2-3.07"/><path class="cls-9" d="M34,16.61a1.25,1.25,0,0,1,1.34-1.22c1.27.08,1,1.74.61,2.32a2.37,2.37,0,0,0-.49,1.64c0,.53-.2,1.07-.75,1.07s-.53-.4-.56-.72"/><path class="cls-9" d="M34.85,17.22a2.13,2.13,0,0,1-.11.33c-.12.31-.32.36-.26.63"/><path class="cls-9" d="M21.42,14.17A1.07,1.07,0,0,0,20.9,14c-1.1-.11-1.12,1.34-.82,1.9a2.12,2.12,0,0,1,.21,1.48c-.1.44,0,.94.5,1a.42.42,0,0,0,.32-.07"/><path class="cls-9" d="M21.16,14.59a2.65,2.65,0,0,0-.05,1.34s0,.05,0,.07"/><path class="cls-9" d="M31.54,25.1l2,.39s.74.22.93-.81.59-4.39.59-4.39"/><path class="cls-9" d="M23.46,11.26a10.65,10.65,0,0,1,3.89-.82c3.19.21,4.38,1.81,4.38,1.81s.1,2.81,2.51,3.6"/><path class="cls-9" d="M35.58,15.44a4.4,4.4,0,0,0,0-3c-.7-2-2.06-2.11-2.94-4.45,0,0-.29-.68-.35-.86s-1.63-3.82-5-3.83a4.6,4.6,0,0,0-4.87,5.18,5.47,5.47,0,0,0,.51,1.9"/><path class="cls-9" d="M23.46,11.26a7,7,0,0,1-2.07,3.16"/><path class="cls-9" d="M23,10.44s-.34,0-.87.78A6.49,6.49,0,0,0,21,14"/><path class="cls-9" d="M30.07,19.4a4.78,4.78,0,0,0-4.85.23"/><ellipse class="cls-10" cx="28.81" cy="14.85" rx="2.14" ry="1.61" transform="translate(11.83 42.47) rotate(-85.69)"/><path class="cls-10" d="M23.83,14.48c.09-1.18.88-2.08,1.77-2a1.92,1.92,0,0,1,1.45,2.25.88.88,0,0,1,0,.16"/><ellipse class="cls-8" cx="28.81" cy="14.85" rx="0.42" ry="0.72"/><ellipse class="cls-8" cx="25.33" cy="14.44" rx="0.42" ry="0.72"/><polyline class="cls-9" points="27.19 14.96 22.95 14.46 26.6 17.7"/><path class="cls-7" d="M35.15,36.7c-1.08,0-2.66-1.07-2.38-3.33"/><path class="cls-7" d="M32.66,31.66,31,31.85s-.6,0-.66.42.57,1.22,1.7,1l.82-.09"/><path class="cls-7" d="M32.66,31.66l.57-.06a1.78,1.78,0,0,1,1.18.73l.19.76"/><path class="cls-7" d="M31.91,30.73c-.29-.19-.48-.4-.49-.58,0-.44.52-.46.52-.46s1.05,0,2.14.06a1.5,1.5,0,0,1,1.34,1.09l.14,1"/><path class="cls-7" d="M33.87,31.82l-.19-.59a3.52,3.52,0,0,1-1.77-.5"/><line class="cls-7" x1="33.85" y1="31" x2="33.68" y2="31.23"/><path class="cls-7" d="M35.42,30.71c.13-.16.5-.75.5-.75L34.6,28.08s-.64-.7-.1-1.24,1.12.15,1.6.45a2.49,2.49,0,0,1,.66.6A16.31,16.31,0,0,1,37.6,30a1.82,1.82,0,0,1-.14.83l-.89,1.39,1.12,5.82S39.19,43,36,42.39c-.58-.1-2.07-.46-2.19-3.47"/><line class="cls-7" x1="34.5" y1="36.6" x2="34.5" y2="39.51"/><line class="cls-9" x1="15.64" y1="26.89" x2="15.27" y2="27.89"/><path class="cls-9" d="M33.49,41.64a3.8,3.8,0,0,1-2.14,0"/><path class="cls-3" d="M22.65,28.17h-.86l-.51,1.1c-.19.39-.37.78-.55,1.17s-.37.79-.54,1.18-.34.76-.49,1.11c0,.07-.05.11-.09.13a.14.14,0,0,1-.11,0l-.14-.06-.17-.1a.62.62,0,0,1-.27-.26A.45.45,0,0,1,19,32c.08-.22.19-.5.32-.82s.27-.66.42-1l.46-1,.44-.94-.27,0-.23,0a.23.23,0,0,1-.19,0,.29.29,0,0,1-.11-.17,1.35,1.35,0,0,1-.07-.34c0-.13,0-.24,0-.33s0-.16,0-.19l.14-.06.63-.06c.23,0,.47,0,.71,0h.7l.6,0a.38.38,0,0,1,.19.06.28.28,0,0,1,.08.12,1.08,1.08,0,0,1,.07.31c0,.11,0,.21,0,.32a.47.47,0,0,1-.06.19S22.74,28.17,22.65,28.17Z"/><path class="cls-3" d="M26.1,28.33l-.51,1.05L25,30.61l-.6,1.32c-.21.44-.39.86-.57,1.26,0,.06,0,.11-.08.12a.14.14,0,0,1-.11,0l-.14-.06-.18-.09a.68.68,0,0,1-.26-.24.48.48,0,0,1,.05-.41,6,6,0,0,1,.23-.6c.09-.23.19-.47.31-.74l-.43,0-.42,0c-.16.32-.3.63-.42.92L22,33a.34.34,0,0,1-.11.14s-.09,0-.18,0L21.52,33a.36.36,0,0,1-.17-.15.39.39,0,0,1-.11-.21.55.55,0,0,1,.09-.31l.48-1.1c.17-.41.35-.83.54-1.27l.54-1.27c.17-.42.33-.79.48-1.12.06-.12.12-.19.17-.2a.21.21,0,0,1,.19.05,1.28,1.28,0,0,1,.26.17l.23.23a.37.37,0,0,1,.09.21.48.48,0,0,1-.08.24l-.4.82c-.15.32-.32.66-.49,1h.79c.21-.44.41-.88.6-1.3s.37-.8.52-1.12c.07-.12.13-.19.18-.2a.24.24,0,0,1,.2.05.87.87,0,0,1,.23.16,2.28,2.28,0,0,1,.22.22.4.4,0,0,1,.1.21A.53.53,0,0,1,26.1,28.33Z"/><path class="cls-3" d="M26.55,28l.47-.09.52-.07a5.07,5.07,0,0,1,.56-.05h.55c.17,0,.25.1.26.29a2.54,2.54,0,0,1,0,.26c0,.08,0,.17,0,.26a.5.5,0,0,1-.07.21.24.24,0,0,1-.19.06l-.58,0-.65,0q-.15.27-.3.57l-.32.63h.59a.53.53,0,0,1,.21.06.34.34,0,0,1,.08.18c0,.1,0,.19,0,.28s0,.18,0,.27a.32.32,0,0,1-.05.21.31.31,0,0,1-.19.07l-.64.08q-.32,0-.63.09l-.2.41c-.06.14-.13.27-.19.4l.47,0h.47a.41.41,0,0,1,.21,0,.31.31,0,0,1,.08.19,1.37,1.37,0,0,1,0,.28V33a.44.44,0,0,1-.06.21.3.3,0,0,1-.18.07l-.72.12-.68.09a.49.49,0,0,1-.33,0,.58.58,0,0,1-.15-.11,1.18,1.18,0,0,1-.11-.19,1.45,1.45,0,0,1-.1-.24.68.68,0,0,1,0-.26,1,1,0,0,1,.07-.34Z"/><path class="cls-3" d="M18.31,34.31l.47-.09.53-.07a4.91,4.91,0,0,1,.55,0h.56c.16,0,.24.1.25.29a1.26,1.26,0,0,1,0,.27c0,.07,0,.16,0,.25a.43.43,0,0,1-.08.21s-.09.06-.19.06l-.58,0-.65,0c-.1.18-.19.37-.29.57l-.33.63h.3l.3,0a.34.34,0,0,1,.2,0,.31.31,0,0,1,.08.19,1.83,1.83,0,0,1,0,.54.32.32,0,0,1-.05.21.31.31,0,0,1-.19.07l-.64.08-.63.09c-.07.14-.14.28-.2.42s-.12.26-.19.39a4.26,4.26,0,0,1,.47,0h.47a.36.36,0,0,1,.21,0,.31.31,0,0,1,.09.19,1.34,1.34,0,0,1,0,.28v.27a.37.37,0,0,1-.06.21s-.08.06-.18.08l-.71.11-.69.09a.59.59,0,0,1-.33,0l-.15-.12-.11-.18q0-.1-.09-.24a.75.75,0,0,1-.05-.26,1,1,0,0,1,.07-.35Z"/><path class="cls-3" d="M22.55,36.13c.23-.52.45-1,.65-1.41.06-.11.11-.17.17-.19a.21.21,0,0,1,.21,0,.75.75,0,0,1,.2.11,1.2,1.2,0,0,1,.21.2.32.32,0,0,1,.08.23.67.67,0,0,1-.08.27c-.15.3-.31.65-.49,1.05l-.56,1.24c-.19.43-.38.85-.56,1.27l-.5,1.15a.23.23,0,0,1-.36.15l-.21-.1L21.1,40a.56.56,0,0,1-.18-.48c0-.16,0-.34,0-.54s0-.41,0-.64l.06-.7c0-.24,0-.48.08-.72l-.38.83c-.12.29-.25.56-.36.82s-.24.51-.34.74-.18.43-.25.61-.07.13-.11.15-.1,0-.18,0l-.21-.12a.51.51,0,0,1-.19-.17.34.34,0,0,1-.08-.21.61.61,0,0,1,.08-.31c0-.12.11-.3.2-.53s.19-.47.31-.75.25-.58.38-.9l.41-.93c.14-.31.27-.6.4-.87s.24-.52.34-.72a.49.49,0,0,1,.18-.21.3.3,0,0,1,.22,0l.28.16a2.47,2.47,0,0,1,.27.21.34.34,0,0,1,.15.21,1.12,1.12,0,0,1,0,.35c0,.12,0,.27-.07.46s-.06.4-.1.63-.06.46-.1.71-.07.48-.1.71C22.07,37.2,22.31,36.66,22.55,36.13Z"/><path class="cls-3" d="M24.4,35a2.2,2.2,0,0,1,.47-.19,2.36,2.36,0,0,1,.53-.1,1.93,1.93,0,0,1,.54,0,1.41,1.41,0,0,1,.49.2,1.23,1.23,0,0,1,.37.41A1.82,1.82,0,0,1,27,36a2.62,2.62,0,0,1,0,.78,4.57,4.57,0,0,1-.26.88,5.7,5.7,0,0,1-.49.9,5.36,5.36,0,0,1-.69.82,4.45,4.45,0,0,1-.88.67,3.64,3.64,0,0,1-1.06.43.43.43,0,0,1-.53-.13,1.68,1.68,0,0,1-.18-.21c-.05-.08-.11-.17-.17-.28s0-.1-.05-.14a.42.42,0,0,1,0-.16,1.91,1.91,0,0,1,0-.2q0-.12.09-.3Zm-.73,4.32a4.22,4.22,0,0,0,1.93-1.77,3.64,3.64,0,0,0,.28-.62,1.7,1.7,0,0,0,.1-.61.45.45,0,0,0-.2-.34.55.55,0,0,0-.51,0c-.28.53-.55,1.08-.81,1.64S23.94,38.74,23.67,39.34Z"/><path class="cls-3" d="M19.21,41.22a.33.33,0,0,1,.1.21.6.6,0,0,1-.08.24c-.1.18-.2.39-.33.64s-.24.5-.37.78-.27.57-.4.87l-.4.88c-.13.29-.26.57-.37.84l-.33.73a.45.45,0,0,1-.11.14.21.21,0,0,1-.18,0l-.22-.12a1.19,1.19,0,0,1-.18-.15.32.32,0,0,1-.09-.21.7.7,0,0,1,.07-.31l.24-.62c.1-.25.2-.52.32-.81s.25-.6.39-.92l.39-.92.38-.83c.12-.26.22-.48.32-.66a.35.35,0,0,1,.16-.19.24.24,0,0,1,.21,0A1.15,1.15,0,0,1,19,41,1.58,1.58,0,0,1,19.21,41.22Z"/><path class="cls-3" d="M17.91,45.08a.59.59,0,0,1,.37,0,.48.48,0,0,1,.3.19,1.64,1.64,0,0,0,.56.54.36.36,0,0,0,.44,0c.07,0,.08-.12,0-.22a1.37,1.37,0,0,0-.19-.35c-.09-.14-.19-.28-.3-.43a4.73,4.73,0,0,1-.28-.46,1.48,1.48,0,0,1-.15-.75,2,2,0,0,1,.29-.92,4.46,4.46,0,0,1,.28-.43,3.62,3.62,0,0,1,.36-.42,4.61,4.61,0,0,1,.4-.37,3,3,0,0,1,.41-.28l.15-.08a.78.78,0,0,1,.21,0A.55.55,0,0,1,21,41a.7.7,0,0,1,.23.08,1.26,1.26,0,0,1,.32.26,1.11,1.11,0,0,1,.25.33.73.73,0,0,1,.09.45,3.53,3.53,0,0,1-.08.4c0,.11-.08.23-.14.36s-.11.26-.18.4-.12.26-.19.38a3,3,0,0,1-.18.32.35.35,0,0,1-.15.15s-.09,0-.16,0a.71.71,0,0,1-.34-.89c0-.11.09-.23.16-.38l.18-.4a.77.77,0,0,0,.07-.26c0-.06,0-.05-.15,0a1.26,1.26,0,0,0-.34.25,2.06,2.06,0,0,0-.35.42,1.59,1.59,0,0,0-.24.49.66.66,0,0,0,0,.48,2.05,2.05,0,0,0,.25.46c.11.15.21.29.3.43a1.91,1.91,0,0,1,.24.41,1,1,0,0,1,.07.44,1.24,1.24,0,0,1-.15.38,2,2,0,0,1-.22.32,1.47,1.47,0,0,1-.32.29,1.56,1.56,0,0,1-.43.21,1.47,1.47,0,0,1-.53,0,1.27,1.27,0,0,1-.71-.29,1.85,1.85,0,0,1-.5-.84.67.67,0,0,1-.08-.42A.33.33,0,0,1,17.91,45.08Z"/><path class="cls-11" d="M14,51.67c-.13.27-.25.53-.36.79s-.23.5-.34.76a.38.38,0,0,1-.12.13s-.09,0-.18,0a1.55,1.55,0,0,0-.22-.12.5.5,0,0,1-.17-.15.33.33,0,0,1-.08-.2.72.72,0,0,1,.1-.32c0-.09.1-.21.17-.38s.16-.36.24-.58.18-.45.28-.7.19-.5.29-.74.19-.49.29-.73.17-.43.25-.61.14-.33.2-.44.09-.17.12-.18c.21-.1.44-.2.7-.3a4.45,4.45,0,0,1,.73-.2,1.77,1.77,0,0,1,.65,0A.61.61,0,0,1,17,48a3.8,3.8,0,0,1,.16.51,2.38,2.38,0,0,1,0,.67,1.35,1.35,0,0,1-.23.69,3.79,3.79,0,0,1-.45.54,4.44,4.44,0,0,1-.52.4,6.21,6.21,0,0,1-.62.35,4.88,4.88,0,0,1-.66.29A6.3,6.3,0,0,1,14,51.67Zm.6-1.26a3.43,3.43,0,0,0,.7-.3,3.81,3.81,0,0,0,.53-.38,2,2,0,0,0,.34-.4.79.79,0,0,0,.12-.33.12.12,0,0,0-.07-.12.33.33,0,0,0-.21-.06,1.15,1.15,0,0,0-.31,0,1.4,1.4,0,0,0-.37.11l-.35.69Z"/><path class="cls-11" d="M18.81,48.35a.49.49,0,0,1,.1.21.69.69,0,0,1-.08.25c-.1.18-.21.39-.33.64l-.38.78c-.13.28-.26.56-.39.86s-.27.6-.4.89l-.38.84-.32.72a.32.32,0,0,1-.12.15s-.09,0-.18,0l-.21-.13a.43.43,0,0,1-.18-.15.35.35,0,0,1-.1-.21.74.74,0,0,1,.08-.3l.23-.62.33-.82.38-.91.4-.92.37-.83c.12-.26.23-.48.32-.66s.12-.18.17-.19.12,0,.21,0a1.23,1.23,0,0,1,.25.17Z"/><path class="cls-11" d="M19.35,48.39l.46-.09.53-.07a4.91,4.91,0,0,1,.55,0h.56c.16,0,.24.11.25.29a1.26,1.26,0,0,1,0,.27c0,.07,0,.16,0,.25a.43.43,0,0,1-.08.21s-.09.06-.19.06l-.58,0-.65,0-.29.57-.33.63h.3l.3,0a.28.28,0,0,1,.2.06.25.25,0,0,1,.08.18,1.23,1.23,0,0,1,0,.27,2.45,2.45,0,0,1,0,.27.32.32,0,0,1-.05.21s-.09.06-.19.07l-.64.08-.63.09c-.07.15-.14.28-.2.42s-.12.26-.19.39a4.23,4.23,0,0,1,.48,0h.47a.28.28,0,0,1,.2.06.22.22,0,0,1,.09.18c0,.1,0,.2,0,.28a2.44,2.44,0,0,0,0,.27.37.37,0,0,1-.06.21s-.08.06-.18.08l-.71.11-.69.09a.6.6,0,0,1-.33,0,.61.61,0,0,1-.15-.12l-.11-.18-.09-.24a.71.71,0,0,1,0-.26.94.94,0,0,1,.07-.34Z"/></g></svg>