<svg xmlns="http://www.w3.org/2000/svg" viewBox="0 0 86.58 54.72"><defs><style>.cls-1{fill:#0d773c;}.cls-2{fill:#89d3de;}.cls-3{fill:#f9b730;}.cls-4{fill:#f47951;}.cls-5,.cls-7{fill:#1c204d;}.cls-6,.cls-9{fill:none;}.cls-6,.cls-7{stroke:#1c204d;}.cls-6,.cls-7,.cls-9{stroke-linecap:round;stroke-linejoin:round;stroke-width:0.4px;}.cls-8{fill:#ea4827;}.cls-9{stroke:#f8c6dc;}</style></defs><g id="Layer_1" data-name="Layer 1"><path class="cls-1" d="M30.51,43l2.95,4.6a3.27,3.27,0,0,0,2.75,1.51h15.7l2-7.47"/><path class="cls-2" d="M35.52,47.34a17.4,17.4,0,0,0,2.7,0c1-.06,2.08-.07,3.08,0a11.91,11.91,0,0,0,1.69,0,4.52,4.52,0,0,1,0-1c0-.51.06-1,.05-1.52s0-1.26-.08-1.9c0-.17,0-.34-.05-.51L30.51,43l2.82,4.41A8.9,8.9,0,0,1,35.52,47.34Z"/><path class="cls-3" d="M66.82,7,79.05,4A1.91,1.91,0,0,1,81.4,6l-1,9.72"/><path class="cls-3" d="M66.82,38.22l12.23,3a1.91,1.91,0,0,0,2.35-2l-1-9.72"/><path class="cls-4" d="M76.25,9.39a38.87,38.87,0,0,0-4.17-2.24,15.87,15.87,0,0,0-2.85-.79L66.82,7l13.6,8.78.31-3.1A43.22,43.22,0,0,0,76.25,9.39Z"/><path class="cls-4" d="M71.79,37.9a20.2,20.2,0,0,0,3.88-2.16,31.42,31.42,0,0,0,5-3.67l-.26-2.63-13.6,8.78,2.17.53A21,21,0,0,0,71.79,37.9Z"/><path class="cls-3" d="M83.06,22.58C83.06,34,62.12,43.2,36.29,43.2S2,34,2,22.58,10.47,2,36.29,2,83.06,11.18,83.06,22.58Z"/><path class="cls-2" d="M56.8,45.91a.93.93,0,0,1-1,.9c-.54,0-.67-.4-.67-.9s.13-.89.67-.89A.93.93,0,0,1,56.8,45.91Z"/><path class="cls-5" d="M55.17,45.72s-1.3-3.72.2-3.7-.2,3.7-.2,3.7H53.06"/><path class="cls-5" d="M55.17,45.91s1.66,3.68.2,3.7-.2-3.7-.2-3.7"/><path class="cls-6" d="M83.06,22.58C83.06,34,62.12,43.2,36.29,43.2S2,34,2,22.58,10.47,2,36.29,2,83.06,11.18,83.06,22.58Z"/><path class="cls-6" d="M66.82,7,79.05,4A1.91,1.91,0,0,1,81.4,6l-1,9.72"/><path class="cls-6" d="M66.82,38.22l12.23,3a1.91,1.91,0,0,0,2.35-2l-1-9.72"/><path class="cls-6" d="M30.51,43l2.95,4.6a3.27,3.27,0,0,0,2.75,1.51h15.7l2-7.47"/><path class="cls-7" d="M56.8,45.91a.93.93,0,0,1-1,.9c-.54,0-.67-.4-.67-.9s.13-.89.67-.89A.93.93,0,0,1,56.8,45.91Z"/><path class="cls-6" d="M55.17,45.72s-1.3-3.72.2-3.7-.2,3.7-.2,3.7H53.06"/><path class="cls-6" d="M55.17,45.91s1.66,3.68.2,3.7-.2-3.7-.2-3.7"/><polyline class="cls-6" points="42.97 42.99 42.97 47.32 33.34 47.32"/><path class="cls-8" d="M26.18,11.82l-2.38.07a1.46,1.46,0,0,0-1.16.78,72.49,72.49,0,0,0-3.25,6.56,29.85,29.85,0,0,1-1.15-6.4.68.68,0,0,0-.78-.67c-.79,0-1.57.07-2.36.12a1.72,1.72,0,0,0-1.42,1.1,26,26,0,0,0,0,17.12,1.72,1.72,0,0,0,1.42,1.1l2.46.13a.73.73,0,0,0,.74-1,34.82,34.82,0,0,1-.85-4.08c.21.43.42.86.64,1.29a1.42,1.42,0,0,0,1.18.77l1.28,0a.87.87,0,0,0,.91-.72c.08-.46.18-.91.28-1.36.16,1.4.39,2.8.69,4.21A1.47,1.47,0,0,0,23.72,32l2.46.08A.87.87,0,0,0,27.05,31a58.93,58.93,0,0,1,0-18.08A.87.87,0,0,0,26.18,11.82Z"/><path class="cls-8" d="M37.91,11.63h-2.6a1.2,1.2,0,0,0-1.06.82c-.42,1.23-.83,2.45-1.24,3.67-.29-1.22-.55-2.43-.77-3.64a.93.93,0,0,0-.93-.79l-2.6.05a1.29,1.29,0,0,0-.93.49,1.26,1.26,0,0,0-.29,1,67.93,67.93,0,0,0,3,10.29c0,2.51.2,5,.47,7.53a1.26,1.26,0,0,0,1.17,1.14l2.46,0a1,1,0,0,0,1-1.11c-.12-2.53-.19-5.05-.21-7.58,1.15-3.47,2.42-6.95,3.57-10.43a1.16,1.16,0,0,0-.13-1A1,1,0,0,0,37.91,11.63Z"/><path class="cls-8" d="M49.61,15.51a6,6,0,0,0-1.36-2.17,5.34,5.34,0,0,0-2-1.32,6.43,6.43,0,0,0-2.16-.37l-3.68,0a1.09,1.09,0,0,0-1,1.12q0,9.2,0,18.38a1.08,1.08,0,0,0,1,1.12h2.45A1.18,1.18,0,0,0,44,31.11q.16-3,.23-6h.21a6,6,0,0,0,2.92-.65,4.93,4.93,0,0,0,1.89-1.79,5,5,0,0,0,.75-2,10.57,10.57,0,0,0,.08-2.25A10.8,10.8,0,0,0,49.61,15.51ZM45.39,18.8a3.35,3.35,0,0,1-.07.44c0,.06,0,.11,0,.17a.54.54,0,0,1,0,.15.84.84,0,0,1-.21.62.88.88,0,0,1-.6.25.41.41,0,0,1-.4-.31l0-.05a.14.14,0,0,0,0-.07,19.83,19.83,0,0,1-.05-2.18A2.43,2.43,0,0,1,44,17v0a.05.05,0,0,1,0,0,.43.43,0,0,1,.28-.53.61.61,0,0,1,.3,0,.47.47,0,0,1,.3.12,1,1,0,0,1,.23.22,1.91,1.91,0,0,1,.24.73,5.49,5.49,0,0,1,.05.7C45.42,18.36,45.41,18.58,45.39,18.8Z"/><path class="cls-8" d="M53.42,11.84,51,11.77a.9.9,0,0,0-.89,1.09,69.87,69.87,0,0,1,0,18.16A.9.9,0,0,0,51,32.11L53.42,32a1.43,1.43,0,0,0,1.27-1.13,47.48,47.48,0,0,0,0-17.94A1.43,1.43,0,0,0,53.42,11.84Z"/><path class="cls-8" d="M65,16.71a.81.81,0,0,0,.87-1c-.19-.77-.42-1.54-.68-2.31a1.74,1.74,0,0,0-1.42-1.1c-2.44-.13-4.88-.25-7.33-.34A.81.81,0,0,0,55.64,13a44.49,44.49,0,0,1,0,17.88.81.81,0,0,0,.81,1.06q3.67-.14,7.33-.34a1.74,1.74,0,0,0,1.42-1.1,25.1,25.1,0,0,0,.71-2.45A.81.81,0,0,0,65,27l-4,.1c.16-1,.27-2,.34-3l3.41,0A1.17,1.17,0,0,0,66,23c0-.78,0-1.55,0-2.32a1.19,1.19,0,0,0-1.19-1.06l-3.41,0c-.07-1-.19-2-.35-3Z"/><path class="cls-6" d="M26.18,11.82l-2.38.07a1.46,1.46,0,0,0-1.16.78,72.49,72.49,0,0,0-3.25,6.56,29.85,29.85,0,0,1-1.15-6.4.68.68,0,0,0-.78-.67c-.79,0-1.57.07-2.36.12a1.72,1.72,0,0,0-1.42,1.1,26,26,0,0,0,0,17.12,1.72,1.72,0,0,0,1.42,1.1l2.46.13a.73.73,0,0,0,.74-1,34.82,34.82,0,0,1-.85-4.08c.21.43.42.86.64,1.29a1.42,1.42,0,0,0,1.18.77l1.28,0a.87.87,0,0,0,.91-.72c.08-.46.18-.91.28-1.36.16,1.4.39,2.8.69,4.21A1.47,1.47,0,0,0,23.72,32l2.46.08A.87.87,0,0,0,27.05,31a58.93,58.93,0,0,1,0-18.08A.87.87,0,0,0,26.18,11.82Z"/><path class="cls-6" d="M37.91,11.63h-2.6a1.2,1.2,0,0,0-1.06.82c-.42,1.23-.83,2.45-1.24,3.67-.29-1.22-.55-2.43-.77-3.64a.93.93,0,0,0-.93-.79l-2.6.05a1.29,1.29,0,0,0-.93.49,1.26,1.26,0,0,0-.29,1,67.93,67.93,0,0,0,3,10.29c0,2.51.2,5,.47,7.53a1.26,1.26,0,0,0,1.17,1.14l2.46,0a1,1,0,0,0,1-1.11c-.12-2.53-.19-5.05-.21-7.58,1.15-3.47,2.42-6.95,3.57-10.43a1.16,1.16,0,0,0-.13-1A1,1,0,0,0,37.91,11.63Z"/><path class="cls-6" d="M48.25,13.34a5.34,5.34,0,0,0-2-1.32,6.43,6.43,0,0,0-2.16-.37l-3.68,0a1.09,1.09,0,0,0-1,1.12q0,9.2,0,18.38a1.08,1.08,0,0,0,1,1.12h2.45A1.18,1.18,0,0,0,44,31.11q.16-3,.23-6h.21a6,6,0,0,0,2.92-.65,4.93,4.93,0,0,0,1.89-1.79,5,5,0,0,0,.75-2,10.57,10.57,0,0,0,.08-2.25,10.8,10.8,0,0,0-.48-2.88A6,6,0,0,0,48.25,13.34Z"/><path class="cls-6" d="M53.42,11.84,51,11.77a.9.9,0,0,0-.89,1.09,69.87,69.87,0,0,1,0,18.16A.9.9,0,0,0,51,32.11L53.42,32a1.43,1.43,0,0,0,1.27-1.13,47.48,47.48,0,0,0,0-17.94A1.43,1.43,0,0,0,53.42,11.84Z"/><path class="cls-6" d="M65,16.71a.81.81,0,0,0,.87-1c-.19-.77-.42-1.54-.68-2.31a1.74,1.74,0,0,0-1.42-1.1c-2.44-.13-4.88-.25-7.33-.34A.81.81,0,0,0,55.64,13a44.49,44.49,0,0,1,0,17.88.81.81,0,0,0,.81,1.06q3.67-.14,7.33-.34a1.74,1.74,0,0,0,1.42-1.1,25.1,25.1,0,0,0,.71-2.45A.81.81,0,0,0,65,27l-4,.1c.16-1,.27-2,.34-3l3.41,0A1.17,1.17,0,0,0,66,23c0-.78,0-1.55,0-2.32a1.19,1.19,0,0,0-1.19-1.06l-3.41,0c-.07-1-.19-2-.35-3Z"/><path class="cls-4" d="M26.09,31.54l-2.48-.08a.68.68,0,0,1-.6-.52,44.81,44.81,0,0,1-.92-7.86,43.24,43.24,0,0,0-1.21,4.8.39.39,0,0,1-.42.33l-1.29,0a.65.65,0,0,1-.54-.36,48.74,48.74,0,0,1-2.1-4.74,32.51,32.51,0,0,0,1.22,7.67.34.34,0,0,1-.35.47l-2.48-.12a.78.78,0,0,1-.65-.51,26.71,26.71,0,0,1,0-17.17.79.79,0,0,1,.65-.52l2.38-.11a.33.33,0,0,1,.37.32,31.11,31.11,0,0,0,1.67,8,70.86,70.86,0,0,1,3.82-8.16.66.66,0,0,1,.54-.35l2.4-.07a.4.4,0,0,1,.41.5,56.41,56.41,0,0,0,0,18.06A.4.4,0,0,1,26.09,31.54ZM23.9,30.46l1.52,0a52.08,52.08,0,0,1,0-17l-1.58,0a68.38,68.38,0,0,0-4,9.14.5.5,0,0,1-.49.34.62.62,0,0,1-.55-.34,31.73,31.73,0,0,1-2.15-8.89l-1.56.06a28.07,28.07,0,0,0,0,16.29l1.52.06a30.48,30.48,0,0,1-1.1-10.09.57.57,0,0,1,.56-.5.55.55,0,0,1,.52.34,46,46,0,0,0,2.78,7.23h.55a43.06,43.06,0,0,1,2.17-7.29.56.56,0,0,1,.51-.35.53.53,0,0,1,.55.51A46.63,46.63,0,0,0,23.9,30.46Z"/><path class="cls-4" d="M34.5,31.7l-2.47,0a.59.59,0,0,1-.55-.52c-.25-2.55-.39-5.09-.44-7.64a70.88,70.88,0,0,1-3-10.39.59.59,0,0,1,.13-.47.6.6,0,0,1,.43-.23l2.63-.05a.43.43,0,0,1,.43.37c.34,1.87.77,3.74,1.25,5.62.6-1.88,1.23-3.77,1.86-5.66a.55.55,0,0,1,.49-.38H37.9a.46.46,0,0,1,.39.22.52.52,0,0,1,.06.47c-1.18,3.51-2.47,7-3.63,10.52,0,2.56.1,5.11.24,7.67A.47.47,0,0,1,34.5,31.7Zm-2.07-1.07,1.51,0q-.22-3.62-.27-7.23a.55.55,0,0,1,0-.17c1.09-3.29,2.32-6.6,3.48-9.91H35.59c-.74,2.31-1.49,4.62-2.18,6.92a.53.53,0,0,1-.51.38.57.57,0,0,1-.54-.37c-.64-2.3-1.19-4.59-1.6-6.87l-1.59,0a77.83,77.83,0,0,0,2.89,9.82l0,.17C32.12,25.82,32.23,28.23,32.43,30.63Z"/><path class="cls-4" d="M42.92,31.71H40.45A.5.5,0,0,1,40,31.2Q40,22,40,12.82a.5.5,0,0,1,.49-.52l3.72,0a6.13,6.13,0,0,1,2,.33,4.79,4.79,0,0,1,1.73,1.16,5.19,5.19,0,0,1,1.18,1.91,10.14,10.14,0,0,1,.44,2.73,11.1,11.1,0,0,1-.08,2.16,4.6,4.6,0,0,1-.67,1.77A4.34,4.34,0,0,1,47.09,24a5.36,5.36,0,0,1-2.63.58h-.81c0,2.21-.1,4.43-.21,6.64A.55.55,0,0,1,42.92,31.71Zm-2-1h1.51c.08-2.22.12-4.43.14-6.65a.52.52,0,0,1,.53-.52h1.34a4.4,4.4,0,0,0,2.12-.44,3.35,3.35,0,0,0,1.26-1.22,3.86,3.86,0,0,0,.53-1.4,11.1,11.1,0,0,0,.07-2A9.07,9.07,0,0,0,48.09,16a3.64,3.64,0,0,0-.89-1.47,3.34,3.34,0,0,0-1.3-.88,5.26,5.26,0,0,0-1.67-.27l-3.27,0Q41.11,22,41,30.67Zm3.45-8.61H43.14a.52.52,0,0,1-.52-.52q0-3.12-.09-6.24a.5.5,0,0,1,.49-.52h1.33a3,3,0,0,1,1.41.31,2.18,2.18,0,0,1,.87.91A3.28,3.28,0,0,1,47,17.22c0,.39.07.81.08,1.25s0,.9,0,1.29a2.87,2.87,0,0,1-.29,1.16,1.91,1.91,0,0,1-.86.85A3.12,3.12,0,0,1,44.41,22.06Zm-.75-1h.75a2.14,2.14,0,0,0,1-.17.88.88,0,0,0,.42-.41,2,2,0,0,0,.18-.76c0-.36,0-.77,0-1.22s0-.82-.06-1.2a2.25,2.25,0,0,0-.22-.82,1,1,0,0,0-.41-.44,2.11,2.11,0,0,0-.92-.17h-.83C43.62,17.56,43.65,19.29,43.66,21Z"/><path class="cls-6" d="M44.11,20.48h.43a.89.89,0,0,0,.57-.13.65.65,0,0,0,.24-.34,2,2,0,0,0,.1-.61q0-.45,0-1c0-.34,0-.66,0-1a2.41,2.41,0,0,0-.13-.66.8.8,0,0,0-.25-.36.83.83,0,0,0-.53-.13H44Q44.1,18.38,44.11,20.48Z"/><path class="cls-4" d="M53.52,31.52l-2.47.06a.41.41,0,0,1-.42-.5,66,66,0,0,0,0-18.14.42.42,0,0,1,.42-.51l2.48.07a.64.64,0,0,1,.58.52,49.34,49.34,0,0,1,0,18A.67.67,0,0,1,53.52,31.52Zm-1.83-1,1.52,0a53.27,53.27,0,0,0,0-17l-1.52,0A59.89,59.89,0,0,1,51.69,30.54Z"/><path class="cls-4" d="M64,31.1c-2.45.13-4.91.23-7.37.32a.37.37,0,0,1-.38-.49,43,43,0,0,0,0-17.85.37.37,0,0,1,.38-.49q3.69.13,7.39.31a.81.81,0,0,1,.65.52q.38,1.15.66,2.31a.38.38,0,0,1-.4.48l-4.58-.13a36.92,36.92,0,0,1,.46,4.17l4,0a.54.54,0,0,1,.55.49c0,.77,0,1.55,0,2.32a.55.55,0,0,1-.55.5l-4,0a34.75,34.75,0,0,1-.46,4.17l4.58-.13a.37.37,0,0,1,.4.47c-.19.82-.43,1.64-.7,2.46A.79.79,0,0,1,64,31.1Zm-6.65-.71q3.24-.11,6.47-.24c.15-.5.29-1,.41-1.5-1.51.06-3,.11-4.54.15a.4.4,0,0,1-.42-.49,36.57,36.57,0,0,0,.55-5.19.52.52,0,0,1,.53-.5h4q0-.67,0-1.35l-4,0a.52.52,0,0,1-.53-.5,36.57,36.57,0,0,0-.55-5.19.4.4,0,0,1,.41-.49l4.55.15c-.11-.45-.24-.9-.37-1.35q-3.24-.13-6.49-.24A40,40,0,0,1,57.3,30.39Z"/><path class="cls-9" d="M20.21,27.58l-1.21,0a46.07,46.07,0,0,1-2.93-7.07,31.46,31.46,0,0,0,1.22,10.23l-2.52-.11a27.51,27.51,0,0,1-.06-17.16c.09,0,2.43-.11,2.43-.1a32.44,32.44,0,0,0,2.15,8.89"/><path class="cls-9" d="M19.23,27.55l1.21,0a44.15,44.15,0,0,1,2.13-7.14,44.9,44.9,0,0,0,.88,10.5L26,31a53.93,53.93,0,0,1,0-18c-.08,0-2.43.07-2.43.07a70.55,70.55,0,0,0-4.24,9.12"/><path class="cls-9" d="M32.85,19.69c-.65-2.26-1.22-4.52-1.65-6.76l-2.66,0a72,72,0,0,0,3,10.42c0,2.58.17,5.16.41,7.74l1.25,0"/><path class="cls-9" d="M32.85,19.69c.74-2.27,1.53-4.54,2.3-6.81h2.66c-1.21,3.51-2.52,7-3.69,10.52q0,3.88.28,7.77H33.15"/><path class="cls-9" d="M40.39,12.86l4.61,0s3.65-.08,4,5.73c.14,5.56-3.88,5.43-3.84,5.43h-2c0,2.37-.1,4.75-.21,7.12H40.51Q40.57,22,40.39,12.86Z"/><path class="cls-9" d="M43.15,18.89c0-1.19,0-2.38-.08-3.57h1.46c1.26,0,1.85.6,2,2.83,0,.18,0,.35,0,.52,0,2.23-.58,2.81-1.88,2.81h-1.5c0-.88,0-1.76,0-2.63"/><path class="cls-9" d="M51.19,13l2.4.06A51.24,51.24,0,0,1,53.73,31l-2.56.06A62.45,62.45,0,0,0,51.19,13Z"/><path class="cls-9" d="M56.68,13.13q3.7.12,7.4.29c.25.77.46,1.54.64,2.3l-4.9-.14a35.19,35.19,0,0,1,.56,5.19l4.39,0q0,1.11,0,2.22l-4.36,0a34.4,34.4,0,0,1-.56,5.23l4.88-.14c-.19.83-.42,1.65-.69,2.48-2.46.12-4.93.22-7.39.3A41.6,41.6,0,0,0,56.68,13.13Z"/></g></svg>