<svg xmlns="http://www.w3.org/2000/svg" viewBox="0 0 96.13 76.47"><defs><style>.cls-1,.cls-9{fill:#af6e30;}.cls-11,.cls-2{fill:#fff;}.cls-13,.cls-3{fill:#1c204d;}.cls-4{fill:#0077bf;}.cls-5{fill:#1f4686;}.cls-6{fill:#f9e398;}.cls-7{fill:#f47951;}.cls-8{fill:none;}.cls-11,.cls-12,.cls-13,.cls-8,.cls-9{stroke:#1c204d;stroke-linecap:round;stroke-linejoin:round;stroke-width:0.8px;}.cls-10,.cls-12{fill:#f9b730;}.cls-14{fill:#1d1c4c;}</style></defs><g id="Layer_1" data-name="Layer 1"><path class="cls-1" d="M27.28,20.74a1.49,1.49,0,0,0-.59-1.19.67.67,0,0,0,0-.28,10.7,10.7,0,0,0-2-3.91.66.66,0,0,0-.59-.19,4.66,4.66,0,0,0-1.24-.84,7.46,7.46,0,0,0-2-.74,6.48,6.48,0,0,0-2.15.11,11.22,11.22,0,0,0-2.08.39,5,5,0,0,0-1.58,1.11.72.72,0,0,0,.37,1.19,1.52,1.52,0,0,0,.94-.11c.2-.07.57-.27.79-.18s.32.47.41.65a5.54,5.54,0,0,1,.21.57l-1.41,1.62a8,8,0,0,1-.64.66l-.08.06-.21.13,0,0h0l-.33-.39a1.81,1.81,0,0,0-.86-.58,1.08,1.08,0,0,0-.68.14.47.47,0,0,0-.31.2l-.18.15a.47.47,0,0,0-.14.31.53.53,0,0,0-.11.14,1.91,1.91,0,0,0-.06,1.89,2.56,2.56,0,0,0,.71.82,1.59,1.59,0,0,1,.13.22c.2.44,0,1,.23,1.39h0a.54.54,0,0,0-.35.67,3.6,3.6,0,0,0,.34.68.59.59,0,0,0,.16.44l.15.13,0,0,0,0c.25.54.45,1.11.67,1.66s.41,1.14.67,1.68,1.15.49,1.7.34h0l1,.16a1.3,1.3,0,0,0,.87-.09,7.25,7.25,0,0,0,.79.29,1.79,1.79,0,0,0,1,0h0l.13.28c.19.45.36.9.53,1.35a.53.53,0,1,0,1-.31l0-.06h0l.06-.17a.61.61,0,0,0,.23-.54,2.36,2.36,0,0,1,0-.38h0v0c0-.06,0-.12,0-.18s.06-.25.1-.37v0l.07-.18c.22-.5.47-1,.65-1.49a11.16,11.16,0,0,0,2.24-3.12,5.31,5.31,0,0,0,.64-1.84,4.47,4.47,0,0,0,0-.52.67.67,0,0,0,.31-.27A2.54,2.54,0,0,0,27.28,20.74Z"/><path class="cls-1" d="M39.22,33.66a3.09,3.09,0,0,0-2.69-1.11l-.54.07a1,1,0,0,0-.57.24h-.09a.54.54,0,0,0-.51.56v0c-.2.21-.4.43-.59.66h0a9.74,9.74,0,0,1-1.68.56,6,6,0,0,1-1.8,0l-2.85-.34c.53-.33,1-.71,1.59-1,1-.56,2.1-1,3.07-1.62a.79.79,0,0,0,.19-.17,1.61,1.61,0,0,0,.58,0,2.52,2.52,0,0,0,1.17-.48c.18-.13.34-.28.51-.42a1.76,1.76,0,0,0,.41-.49.57.57,0,0,0,0-.14l.71.25a3,3,0,0,0,1.1.27.54.54,0,0,0,.23-1l-.06,0h0l-.15-.13a1.38,1.38,0,0,0-.46-.25l-.19-.05L36.49,29l-.34-.19A3.35,3.35,0,0,0,35,28.45a.46.46,0,0,0-.19-.08l.14-.07a2.21,2.21,0,0,0,.47-.33,7.84,7.84,0,0,1,.81.18.64.64,0,0,0,.47,0l.42.1a.55.55,0,0,0,.4-.06.43.43,0,0,0,.15-.15.34.34,0,0,0,.09-.19.47.47,0,0,0-.07-.4.53.53,0,0,0-.33-.24l-.39-.1a.73.73,0,0,0-.42-.3,4.84,4.84,0,0,0-1.25-.23,2.27,2.27,0,0,0-1.22.31h0a.72.72,0,0,0-.13-.36,1.23,1.23,0,0,1,.59-.76l.19-.07.36-.16a2.18,2.18,0,0,0,.57-.38A1.31,1.31,0,0,0,36,25a.84.84,0,0,0,.37-.44.66.66,0,0,0-.27-.82.64.64,0,0,0-.49,0l-.15.07-.16,0-.32,0a2.21,2.21,0,0,0-.55.18,1.6,1.6,0,0,0-.52.45l-.26.14a2.59,2.59,0,0,0-1,1.39,12.28,12.28,0,0,1-1.45,2.87s0,.05,0,.07c-.49.37-1.11.58-1.61.93s-.73.55-1.11.81l-1.05.6a.65.65,0,0,0-.28.37l-.61.31c-.43.24-.84.51-1.25.77a1.7,1.7,0,0,0-.62.54.76.76,0,0,0-.06.55c-2-.37-4-.8-6-1a.58.58,0,0,0-.62.47.52.52,0,0,0-.1.23,13,13,0,0,1-.48,2.31.73.73,0,0,0,1.08.77l0,0a26.56,26.56,0,0,1,2.81.21c1,.11,2.06.11,3.1.16s2,.44,3,.56a11.84,11.84,0,0,1,2.92.2.55.55,0,0,0,.6-.13,3.37,3.37,0,0,0,2,.75A2.48,2.48,0,0,0,34.33,38a.69.69,0,0,0,.19-.19,11.53,11.53,0,0,0,.54,1.12,1.48,1.48,0,0,0,.41.66.55.55,0,0,0,.71,0,.54.54,0,0,0,.11-.7c-.09-.14-.16-.29-.25-.44a1.09,1.09,0,0,1,0-.17c-.07-.32-.12-.64-.18-1a1.39,1.39,0,0,0-.42-.81l-.1-.07h0l.32-.1A8.3,8.3,0,0,0,37,37.63a.55.55,0,0,0,.71,0,.54.54,0,0,0,.11-.69,10.44,10.44,0,0,0-1-1.65,1,1,0,0,0-.52-.44,1.46,1.46,0,0,0-.51-.07h-.21a3.31,3.31,0,0,0,.36-.5.49.49,0,0,0,0-.37,6.94,6.94,0,0,1,1.09.27l.89.27a2,2,0,0,0,.91.11A.55.55,0,0,0,39.22,33.66Z"/><path class="cls-2" d="M21.9,18.38a1.61,1.61,0,0,0-.72,3.14A1.61,1.61,0,0,0,21.9,18.38Z"/><path class="cls-2" d="M25.3,18.58a1.43,1.43,0,0,0-.64,2.79A1.43,1.43,0,0,0,25.3,18.58Z"/><path class="cls-2" d="M19.1,25a3.37,3.37,0,0,0,1.48,1.19,4.68,4.68,0,0,0,.83.16l.94.15a.38.38,0,0,0,.43-.27.38.38,0,0,0-.19-.4,0,0,0,0,1,0,0,1.8,1.8,0,0,0-.72-.5c-.26-.12-.51-.23-.77-.33-.53-.2-1.06-.37-1.6-.52C19.22,24.42,18.9,24.78,19.1,25Z"/><path class="cls-3" d="M18.8,23.72c-.33.39,0,1.07.54.89l.1,0s0,0,0,0l.09,0c-.07,0,.07,0,.07,0a.55.55,0,0,0,.65-.12.92.92,0,0,0,.36.13l.15.1a1.94,1.94,0,0,0,.83.22.57.57,0,0,0,.55.47h.11l.14,0c.06,0,0,0,.07,0l.07,0h0a.52.52,0,0,0,.25.36.55.55,0,0,0,.65-.1,1.36,1.36,0,0,0,.17-1.48.5.5,0,0,0-.61-.23l-.3-.13a2.56,2.56,0,0,0-.87-.09.94.94,0,0,1-.58-.11,1.15,1.15,0,0,1-.39-.4,1.37,1.37,0,0,0-.69-.59.76.76,0,0,0-.93.17C19.1,23.22,19,23.5,18.8,23.72Z"/><path class="cls-3" d="M14,24.84a1,1,0,0,0,0-.17l0-.05s0,0,0-.05a.31.31,0,0,0,0-.08,3.33,3.33,0,0,0-.16-.4.4.4,0,0,0-.15-.14,0,0,0,0,0,0,0c0-.1,0-.21,0-.31l0-.05a1,1,0,0,0-.14-.71l-.12-.23h0a1.72,1.72,0,0,0-.07-.21.35.35,0,0,0-.69.13.29.29,0,0,0,0,.09h0l0,0a.83.83,0,0,0,0,.15c.06.19.12.38.17.58s0,.12,0,.19c0-.09,0,0,0,0a.53.53,0,0,0,0,.18,1.59,1.59,0,0,0,.06.3.34.34,0,0,0-.08.17l0,.14a.62.62,0,0,0,.07.23,1.4,1.4,0,0,1,.09.29s0,0,0,0a.46.46,0,0,0,0,.2.41.41,0,0,0,.12.17l.11.08a.39.39,0,0,0,.21.06.23.23,0,0,0,.14,0,.34.34,0,0,0,.19-.07l.11-.08a.6.6,0,0,0,.13-.25A.58.58,0,0,0,14,24.84Z"/><path class="cls-3" d="M17,21.75v0l0-.07,0-.14c0-.11,0-.22-.05-.33s-.07-.41-.1-.61l-.15-1.1a4.39,4.39,0,0,0,.81-1,2.66,2.66,0,0,0,.23-1.94,1.3,1.3,0,0,0-.56-.78,2.13,2.13,0,0,0-.85-.28,2.88,2.88,0,0,0-1-.05l-.4.08a.34.34,0,0,0,0-.19.35.35,0,0,0-.41-.15.58.58,0,0,0-.36.34.46.46,0,0,0-.19.3,6.83,6.83,0,0,0-1.22,3,.36.36,0,0,0,.61.33,1.5,1.5,0,0,1,1-.24,2.6,2.6,0,0,1,.46,0c.14.22.28.43.43.64a.63.63,0,0,0,.28.21v.54a.61.61,0,0,0,.08.27.57.57,0,0,0,.16.15.37.37,0,0,0-.08.18l-.08.37a1.82,1.82,0,0,0-.06.46.64.64,0,0,0,.48.57l.37.1a.57.57,0,0,0,.51-.16A.56.56,0,0,0,17,21.75Z"/><path class="cls-4" d="M31.33,53a.62.62,0,0,0-.09-.26.58.58,0,0,0-.19-.19.51.51,0,0,0-.22-.11c-.76-1-1.38-2.15-2.07-3.21-.84-1.29-1.71-2.54-2.46-3.88h0a.76.76,0,0,0,.08-.36V44.9l0-.17a2.39,2.39,0,0,0,.13-.21,3.39,3.39,0,0,0,.2-.53.56.56,0,0,0-.07-.4.53.53,0,0,0-.74-.17.53.53,0,0,0-.19.23.39.39,0,0,0-.15.06.55.55,0,0,0-.24.34l0,.11A1.5,1.5,0,0,0,25,44a2,2,0,0,0-1.06-.19,4,4,0,0,0-.89.18,1.49,1.49,0,0,0-.36.17.5.5,0,0,0-.17,0l-.19,0a.51.51,0,0,0-.18.09,1.32,1.32,0,0,1-.2.12,3.72,3.72,0,0,0-.78.37.52.52,0,0,0-.11.1.6.6,0,0,0-.36,0,13,13,0,0,1-4.43-.48,12.39,12.39,0,0,1-4.15-1.62.73.73,0,0,0-1.06.66,7.77,7.77,0,0,0,.75,3.18,6.91,6.91,0,0,0,.67,1.12.68.68,0,0,0,.12.38A3.79,3.79,0,0,0,14,49.3a.74.74,0,0,0,.4.08,6.08,6.08,0,0,0,1,.64l-.35.66-.13.27-.08,0-.58-.3-.57-.33-.25-.17L13.3,50h0l0,0a.78.78,0,0,0-.22-.12.58.58,0,0,0-.26-.37.56.56,0,0,0-.73.22,5.31,5.31,0,0,0-.88,1.88c-.07.34-.1.7-.2,1a2.17,2.17,0,0,1-.43.73.54.54,0,0,0,.55.88h0a3.73,3.73,0,0,0,1.21.79l.12,0L13.7,56a5.65,5.65,0,0,0,2.35,1.36,1.09,1.09,0,0,0,.37,0A.69.69,0,0,0,17,57a7.11,7.11,0,0,0,3-1.71c.57-.54,1.09-1.14,1.7-1.64a9.86,9.86,0,0,0,1.61-1.48l0-.06c.37.48.73,1,1.08,1.45s.74,1,1.09,1.54.69,1.09,1.3,1.19l.06.08c-.08-.12,0,0,0,0l.18.25.34.5a7.46,7.46,0,0,0,.8,1.05.55.55,0,0,0,.9-.27h0l0,0,.17-.06a.54.54,0,0,0,.29-.8,6,6,0,0,1-.55-.92.4.4,0,0,0-.22-.2l.31-.3a.57.57,0,0,0,.14-.24l0-.09.09-.05A10.24,10.24,0,0,0,31,53.85a.62.62,0,0,0,.19-.14.65.65,0,0,0,.17-.33l0-.06A.45.45,0,0,0,31.33,53Z"/><path class="cls-5" d="M7.05,54.25A.63.63,0,0,0,7,53.92a.67.67,0,0,0-.19-.28l-.19-.14a.93.93,0,0,0-.46-.1l-.23,0a.8.8,0,0,0-.39.24,3.87,3.87,0,0,0-.41.64.61.61,0,0,0,0,.12H5l-.13.18,0,0a2,2,0,0,0-.08.22.09.09,0,0,0,0,0,.45.45,0,0,0,0,.28.62.62,0,0,0,.09.26l.12.14a.67.67,0,0,0,.33.18h0a.45.45,0,0,0,.28,0,.62.62,0,0,0,.26-.09.69.69,0,0,0,.13-.11h.1l.2-.1a.92.92,0,0,0,.32-.33,1.77,1.77,0,0,1,.19-.33A.68.68,0,0,0,7,54.6.6.6,0,0,0,7.05,54.25Z"/><path class="cls-5" d="M35.9,51.44A.84.84,0,0,0,36,51a.41.41,0,0,0-.53-.32.63.63,0,0,0-.23.12.74.74,0,0,0-.21,0,4.73,4.73,0,0,0-3.3,2.07,6.25,6.25,0,0,0-.86,1.92,2.22,2.22,0,0,1-.92,1.45.72.72,0,0,0-.21,1s0,0,0,0a4.88,4.88,0,0,0,.64,1.08,1.86,1.86,0,0,0,.36.38c.19.12.42,0,.63.13a.36.36,0,0,0,.48-.14c.66-1.22,1.5-2.31,2.21-3.49A16,16,0,0,1,36.21,52,.35.35,0,0,0,35.9,51.44Z"/><path class="cls-6" d="M27.15,40.11c-.09-.55-.2-1.09-.34-1.63a2.46,2.46,0,0,0-.67-1.4.56.56,0,0,0-.75.05,8.76,8.76,0,0,0-1.69-.2.45.45,0,0,0-.29.07h0a2.91,2.91,0,0,0-1,0,4.57,4.57,0,0,0-.52-.05l-.78,0h-.14a4.4,4.4,0,0,0-1.49-.11l-.18,0a.71.71,0,0,0-.2,0H19a.55.55,0,0,0-.34-.14l-.79,0c-.2,0-.41,0-.61,0a8.43,8.43,0,0,1,.55-3A4.11,4.11,0,0,0,18,33a1,1,0,0,0,0-.18l.37,0c.28,0,.56,0,.84.07a13.73,13.73,0,0,1,1.67.34.61.61,0,0,0,.27,0,6.19,6.19,0,0,0,1.36.11,8.79,8.79,0,0,1,1.52.26c.18,0,.27-.18.16-.31s-.13-.16-.2-.24a0,0,0,0,0,0,0,.44.44,0,0,0,0-.3.28.28,0,0,0-.14-.18c-.1-.21-.23-.4-.35-.61l-.1-.19,0-.05a.49.49,0,0,1,0-.11l0-.11v0a.89.89,0,0,1,0-.23.36.36,0,0,0-.71-.07.36.36,0,0,1,0,.11v0c0,.06-.05.12-.07.19s-.11.23-.16.35-.23.42-.36.62a.33.33,0,0,0-.06-.1,13.65,13.65,0,0,1-1.32-2.09A.55.55,0,0,0,20,30a3.8,3.8,0,0,1-1.5-.06A7.93,7.93,0,0,0,17,29.81a5.48,5.48,0,0,1-.81,0c-.23,0-.45-.13-.68-.16-.65-.1-.87.56-1.12,1a.55.55,0,0,0,.35.78l.17,0a4.83,4.83,0,0,0-.52.23,7,7,0,0,0-1.07.81.49.49,0,0,0-.15.23.92.92,0,0,0-.51.42,1.16,1.16,0,0,0-.17.6,6.44,6.44,0,0,0,.05.75,4.13,4.13,0,0,0,.11.85,1.29,1.29,0,0,0,.29.54,21.1,21.1,0,0,0-1.44,2.59.77.77,0,0,0-.05.19l-.28.53a14.38,14.38,0,0,0-.78,1.8c-.19.53-.55,1.31-.06,1.77a.46.46,0,0,0,.28.13.72.72,0,0,0,.29.2c.39.13.8.13,1.18.29a9.52,9.52,0,0,0,1.05.41c.79.23,1.51.55,2.32.73a14.5,14.5,0,0,0,2.44.43c.38,0,.77-.07,1.15,0a5.64,5.64,0,0,0,1.23.2.51.51,0,0,0,.46-.36c.39-.18.78-.35,1.18-.5l.65-.22a.55.55,0,0,0,.22-.14,9.58,9.58,0,0,1,1.51-.06c.52,0,.81.48,1.35.23a4.75,4.75,0,0,0,1.32-.9C27.71,42.41,27.32,41.1,27.15,40.11Z"/><path class="cls-7" d="M11.53,49.38a.74.74,0,0,0-.35-.16,2.18,2.18,0,0,1-.26-.34.67.67,0,0,0-1.18.28,10.47,10.47,0,0,1-.42,1,2.76,2.76,0,0,0-.09,1.07.61.61,0,0,0,.64.57.47.47,0,0,0,.06.15.62.62,0,0,0,.54.38l0,0a.34.34,0,0,0,.52,0h0a.33.33,0,0,0,.06-.28.55.55,0,0,0,.07-.63c-.11-.22,0-.32.09-.54s.16-.44.26-.5A.66.66,0,0,0,11.53,49.38Z"/><path class="cls-7" d="M30.55,54.3l-.23.45a.63.63,0,0,0-.38,0,.43.43,0,0,0-.24.3,5.22,5.22,0,0,0-.6.64c-.33.54.5,1.07.83.53.18-.3.51-.47.69-.77a.48.48,0,0,0,0-.55l.23-.47C30.93,54.29,30.65,54.11,30.55,54.3Z"/><path class="cls-5" d="M9.83,48.08c-.15-.12-.27-.16-.37-.1l-.09,0a.46.46,0,0,0-.51-.36H8.78l-.15,0a.47.47,0,0,0-.8.11c-1,2.45-2,4.86-3.07,7.26a.5.5,0,0,0,.24.65.71.71,0,0,1,.3.34.47.47,0,0,0,.45.2c1.87,0,3.32-1.88,3.91-3.53a.57.57,0,0,0,.19-.24.67.67,0,0,0-.33-.87l-.09,0,0,0-.07,0-.05-.06,0-.07a.65.65,0,0,0,.06-.21l0-.13a.8.8,0,0,0,0-.32A2.62,2.62,0,0,1,9.44,50c.06-.23,0-.62.23-.79a.74.74,0,0,0,.16-.2A.48.48,0,0,0,9.83,48.08Z"/><path class="cls-8" d="M30.52,56.54a7.51,7.51,0,0,1,.93-3.31,4.9,4.9,0,0,1,4.23-2.56s.73-.06.21.77-4.55,7.15-4.55,7.15-.42.7-.95-.05A29.51,29.51,0,0,1,29,55.92"/><path class="cls-8" d="M29.7,57.56c-.47.52-1.14,1.08-1.56.63-.69-.75.43-1.94.95-2.46a26.39,26.39,0,0,0,2.18-2.19"/><line class="cls-8" x1="28.14" y1="58.19" x2="21.06" y2="49.28"/><path class="cls-8" d="M10.23,53.89a5.81,5.81,0,0,0,.93-2.17c.29-1.66,1-2.34,1.28-2.43l2.21,1.61"/><path class="cls-8" d="M16.6,57.39A1.76,1.76,0,0,1,15,57c-1.89-1.33-4.78-3.1-4.78-3.1"/><path class="cls-8" d="M12,49.72l-2.67-2s-.72-.62-1.08.48-3.06,7.27-3.06,7.27a.48.48,0,0,0,.42.73c.72.1,3.09-.25,4.38-4.19"/><line class="cls-8" x1="9.17" y1="51.26" x2="10.89" y2="52.65"/><path class="cls-8" d="M5.06,55.62s-.63.22-.38-.37,3.17-7.52,3.17-7.52a.39.39,0,0,1,.63-.17"/><path class="cls-8" d="M35.93,51.42s.65-.11.32.43l-4.35,6.9a.38.38,0,0,1-.64.07"/><path class="cls-8" d="M10.25,48.43a4.19,4.19,0,0,0-1,2.91"/><path class="cls-8" d="M29.36,56.7a2.62,2.62,0,0,0,1.28-1.22"/><path class="cls-8" d="M24.52,33.66A33.06,33.06,0,0,1,23,30.53"/><path class="cls-8" d="M25.39,44.24a4,4,0,0,0,2-1.59,13.88,13.88,0,0,0-.9-5.25"/><path class="cls-8" d="M10,42.62c2.6,1.47,8.15,2.51,10.11,2.5"/><path class="cls-8" d="M15.36,29.24c-.28.11-.37.23-.1.36.81.38,5.34.37,5.34.37"/><path class="cls-8" d="M15.11,29.37l-.87,1.89a23.57,23.57,0,0,0,5.63.62L20.6,30l1.46,2.47,1.16-2.37.65,2.24"/><line class="cls-8" x1="16.6" y1="37.64" x2="17.5" y2="37.85"/><path class="cls-8" d="M15.58,31.67a2.94,2.94,0,0,0-3.12,2.49c-.17,1.55,1,2.76,2.78,3.15"/><line class="cls-8" x1="18.62" y1="31.83" x2="17.28" y2="31.76"/><path class="cls-8" d="M23.19,52a17.45,17.45,0,0,1-6.49,5.4"/><path class="cls-8" d="M26.76,43.38a17.73,17.73,0,0,1-.45,1.85"/><path class="cls-8" d="M15.31,50.14a5.05,5.05,0,0,1-1.4,1.73"/><path class="cls-8" d="M26.24,45.29c-.4-.6-1.4-1.82-2.85-1.39a53.32,53.32,0,0,0-5.63,2.26"/><path class="cls-8" d="M31.37,53.11l-4.94-7.5s-.07-.13-.19-.32"/><path class="cls-8" d="M11,43.22s-.2,9.27,10.39,6.79"/><path class="cls-8" d="M30.79,37.06a2.46,2.46,0,0,0,3.65.81"/><path class="cls-8" d="M35.92,37.36l.43,1.47s.17.52-.12.71-1.23,0-1.48-1.06l-.22-.72"/><path class="cls-8" d="M35.92,37.36l-.16-.5a1.61,1.61,0,0,0-1-.74l-.72.11"/><path class="cls-8" d="M35.35,36.39l.56,0c.41.95,1.33,1.66,1.72,1.53s.2-.61.2-.61A18.36,18.36,0,0,0,37,35.48a1.37,1.37,0,0,0-1.39-.74l-.91.24"/><line class="cls-8" x1="36.05" y1="36.12" x2="35.91" y2="36.34"/><path class="cls-8" d="M35.74,34.69c.08-.16.45-.68.45-.68l1.19.22c.85.55,1.72.4,2,0s-.24-.79-.24-.79l-.74-.53a2.45,2.45,0,0,0-.74-.33,15.24,15.24,0,0,0-2.08,0,1.68,1.68,0,0,0-.66.42l-.85,1.24-2.23.52-13.52-2"/><path class="cls-8" d="M35.84,33.76s.25.28.37.28"/><path class="cls-8" d="M32.63,31.23c.46.5,2,.37,2.78-1.13"/><path class="cls-8" d="M36.13,28.72l1.33.76s.48.26.39.6-.92.81-1.8.25L35.39,30"/><path class="cls-8" d="M36.13,28.72l-.46-.27a1.28,1.28,0,0,0-.34-.07l-.4.07"/><path class="cls-8" d="M34.69,28.67l.74-.69c.94.4,2.1.29,2.29-.08s-.27-.57-.27-.57a18.33,18.33,0,0,0-1.81-.74,1.65,1.65,0,0,0-1.55.24"/><line class="cls-8" x1="35.37" y1="27.72" x2="35.43" y2="27.98"/><path class="cls-8" d="M32.54,25.62l.06-.11a15,15,0,0,1,1.48-1.46,2.44,2.44,0,0,1,.77-.26l.9-.13s.62-.07.72.41S36,25.25,35,25.44l-1,.65,0,1.68"/><line class="cls-8" x1="24.36" y1="33.22" x2="30.66" y2="29.09"/><path class="cls-8" d="M33.6,26.16s.37,0,.46-.06"/><path class="cls-8" d="M18.18,36.69c-.22.74-.45,1.2-.61,1.18s-.25-1.44.05-3.11.74-3,1-2.93.2.38.19.94"/><line class="cls-8" x1="31.16" y1="37.62" x2="17.4" y2="36.52"/><path class="cls-8" d="M10,42.62a15.48,15.48,0,0,1,2.87-6.74"/><line class="cls-8" x1="14.59" y1="31.38" x2="14.49" y2="31.72"/><path class="cls-8" d="M22.84,30.85c.08-1.41.77-2.39,1.77-3.93a20.7,20.7,0,0,0,1.11-1.8"/><path class="cls-8" d="M26,24.53a5.34,5.34,0,0,1-.28.59l-.07.11"/><path class="cls-8" d="M26.6,19.63a9.58,9.58,0,0,1-.05,2.88,10.2,10.2,0,0,1-.55,2"/><path class="cls-8" d="M20.12,13.49a11.2,11.2,0,0,1,1.44.22,6.58,6.58,0,0,1,5,5.92"/><path class="cls-8" d="M14.75,15.44a6.33,6.33,0,0,1,3.92-1.88,10.48,10.48,0,0,1,1.45-.07"/><path class="cls-8" d="M15.52,29.61c-.24-1.24-1.1-2.3-1.84-4.16"/><circle class="cls-8" cx="25.01" cy="20.09" r="1.49"/><path class="cls-8" d="M15.58,20.42A1.53,1.53,0,0,0,15,19.25a1.64,1.64,0,0,0-1.13-.33s-1.23,0-1.46,1.55,1.24,2,1.26,3c0,0,0,.16,0,.24s-.14.67.45.75a.68.68,0,0,0,.46-.06s.37-.15.42-.78"/><path class="cls-8" d="M14,20.67a2.18,2.18,0,0,0,.26.5,2.82,2.82,0,0,1,.37.7"/><path class="cls-8" d="M13.44,21.2a1.37,1.37,0,0,0,.89.1"/><path class="cls-8" d="M26.75,19.49A1.72,1.72,0,0,1,27.38,21a2.09,2.09,0,0,1-.76,1.58"/><path class="cls-8" d="M14.63,15.47c.39,0,.62,0,2.07.09,1.24.09,1.86,2.89-.31,4"/><path class="cls-8" d="M15.22,15a1.55,1.55,0,0,0-1.53.85,7.56,7.56,0,0,0-1,3.82"/><path class="cls-9" d="M23.53,18c0,.12.93,5.12.93,5.12l-2-.9"/><circle class="cls-8" cx="21.55" cy="19.97" r="1.59"/><path class="cls-3" d="M22.49,19.29a.7.7,0,0,0-.23,1.37A.7.7,0,0,0,22.49,19.29Z"/><path class="cls-3" d="M25.77,19.41a.69.69,0,0,0-.23,1.36A.69.69,0,0,0,25.77,19.41Z"/><path class="cls-8" d="M16.73,19.49c.15.94.44,2.91.44,2.91l-1.57.05,0-2"/><path class="cls-8" d="M13.89,26c-.1,0-.69-.27-1-1.18a11.61,11.61,0,0,1-.35-3.25"/><path class="cls-8" d="M14,24.47s.12.8-.41.91"/><path class="cls-8" d="M20.33,22.78h0a1.51,1.51,0,0,1,.66.58c.25.37.32.4.55.5a1,1,0,0,0,.72,0,1.59,1.59,0,0,1,.88.08,1.05,1.05,0,0,1,.63.71,1.17,1.17,0,0,1-.07.84,1.67,1.67,0,0,1-1,.85h-.06a3.45,3.45,0,0,1-1.91-.07h0l-.14-.06h-.06l0,0-.13-.06h0A3.47,3.47,0,0,1,19,24.84v0h0v0a1.63,1.63,0,0,1-.09-1.32,1.21,1.21,0,0,1,.55-.63A1.09,1.09,0,0,1,20.33,22.78Z"/><path class="cls-8" d="M18.86,24.57A3.85,3.85,0,0,1,21.1,25,4.83,4.83,0,0,1,23,26.24"/><path class="cls-8" d="M31.58,29.23a2.25,2.25,0,0,1,2-.44s1.17.2,1.05.91c0,0,0,.57-1,.59a1.38,1.38,0,0,0-1.09.46,1.09,1.09,0,0,1-1.59.12"/><line class="cls-8" x1="32.95" y1="31.42" x2="28.02" y2="34.23"/><path class="cls-8" d="M32.51,25.71s-.88,2.73-1.8,3.34"/><path class="cls-10" d="M88.83,27.65a2,2,0,0,0-1-.9,2.32,2.32,0,0,0-1.66,0l-.21.06c-.39.1-.79.1-1.18.16a2,2,0,0,0-1.4-.85c-1.61-.25-2.77-1.57-4.31-2.07A29,29,0,0,0,73.68,23a21.32,21.32,0,0,0-5.69.26c-1.81.26-3.85.24-5.52.94a49.87,49.87,0,0,0-8.66,4.94c-1,.64-1.45.57-1.78,1.65-.42,0-1.55.89-1.94.87-2.74-.17-3.16,4-.4,4.18.41,0,1.94.85,2.49.71a4.77,4.77,0,0,0,.22,1.35c.56,1.91,1.91,3.31,2.19,5.36a2.53,2.53,0,0,0,2.91,2c1,0,2.67.52,4,.62S64.27,45,65.69,45a73.44,73.44,0,0,0,8.89-1,20.09,20.09,0,0,0,3.9-.84c.61-.23,1.37-.19,2-.42a9.91,9.91,0,0,1,1.94-.88c3.88-.64,3.56-3.13,3.2-6,0-.11.25-.13.23-.22.26-.31.15-.71.18-1.11s.25-1.7.25-1.7-.63-.52-.62-.79a10.87,10.87,0,0,0,2.68-1.67,2.27,2.27,0,0,0,.8-1.4A2.18,2.18,0,0,0,88.83,27.65Z"/><path class="cls-8" d="M70.45,44.81c-8.29,1.12-14.86.85-15.66-.38L51.87,36.7"/><path class="cls-8" d="M70.38,44.82c8.39-1.13,14.74-3.13,15.19-4.53l.85-8.7"/><path class="cls-8" d="M65.06,33.59c-8.05.82-14.2.58-14.37-.67-.2-1.44,7-8.56,16.83-9.88S86,26.7,86.22,28.14C86.36,29.2,82.16,30.7,76,32"/><path class="cls-8" d="M51.83,31a2.25,2.25,0,0,0-1,.09,2,2,0,0,0-1.11.79,1.88,1.88,0,0,0-1.32.48c-.66.54-.94,1.28-.63,1.66l0,0a.57.57,0,0,0-.08.13c-.16.46.48,1.12,1.44,1.47a2.92,2.92,0,0,0,1.52.16,2.49,2.49,0,0,0,1.57.62,3,3,0,0,0,1.44-.18,2.82,2.82,0,0,0,1.46.38,2.87,2.87,0,0,0,1.45-.3,3,3,0,0,0,1.51.31,2.86,2.86,0,0,0,1.49-.43,3.22,3.22,0,0,0,3-.22,2.74,2.74,0,0,0,1.57.24,2.89,2.89,0,0,0,1.4-.49,2.77,2.77,0,0,0,1.49.15,3.25,3.25,0,0,0,.83-.21"/><path class="cls-8" d="M84.62,26.6a2.27,2.27,0,0,1,1-.19,2,2,0,0,1,1.28.47,1.88,1.88,0,0,1,1.41.11c.77.35,1.23,1,1,1.44l0,0a.52.52,0,0,1,.11.1c.28.4-.17,1.21-1,1.8a2.89,2.89,0,0,1-1.42.56,2.61,2.61,0,0,1-1.36,1,2.94,2.94,0,0,1-1.43.2,2.84,2.84,0,0,1-1.3.76,2.9,2.9,0,0,1-1.49.09,3.21,3.21,0,0,1-2.92.68,2.77,2.77,0,0,1-1.42.67,2.81,2.81,0,0,1-1.56-.08,2.8,2.8,0,0,1-1.45.64,2.91,2.91,0,0,1-1.48-.1.8.8,0,0,1-.21.15"/><path class="cls-8" d="M67.91,35.67a2.58,2.58,0,0,0,1.25.08,2.86,2.86,0,0,0,1.26-.42"/><path class="cls-10" d="M78.42,42.57A.92.92,0,0,0,77.09,42a1.7,1.7,0,0,0-.59.86.87.87,0,0,0-.37-.19.77.77,0,0,0-.36-.09.92.92,0,0,0-.92.87l-.21,0A.92.92,0,0,0,74,44.59a10.68,10.68,0,0,1,0,3l-.31-.21L73.05,47a1.79,1.79,0,0,0-.71-.4c-1.39-.22-.84,2-.75,2.75,0,.44.08.89.1,1.33a.58.58,0,0,0,0,.29l.07,1.26a.75.75,0,0,0,.72.74.73.73,0,0,0,.74-.72c0-.33,0-.66,0-1l0,0a1.68,1.68,0,0,0,.37-1.33,1.17,1.17,0,0,0,.27,0l.18-.06a1.57,1.57,0,0,0,1.15.85,2.77,2.77,0,0,0,2.77-1.22,6.11,6.11,0,0,0,.85-3.07A11.51,11.51,0,0,0,78.42,42.57Z"/><path class="cls-8" d="M75.4,42.54a4.06,4.06,0,0,1,.68-2.9c1-1.35,1.73-1.45,1.62-.35s-.57,4.57-.78,5.47-.84,1.21-1.51.09l-2.87-5.06"/><path class="cls-8" d="M75.57,40.66s-1-3-1.37-3.66S73,34.5,71.36,35s-2.34,2.43-3,5.83"/><path class="cls-8" d="M73.42,41.35A8.15,8.15,0,0,1,73,42.63"/><path class="cls-8" d="M73.81,44.7a8.89,8.89,0,0,1,0,3.31"/><path class="cls-8" d="M74,47.3s-.76-.42-1-.55-.88-.41-1.26-.06-.44,1.19-.31,2.36A31.46,31.46,0,0,0,72,52.74c.39,1.54,1.57-.82,1.49-2.94"/><path class="cls-8" d="M72.51,48.61s.53.58.82.88,2.08,2.34,3.92.93c1.27-1,1.76-3.84,1.41-7.12"/><path class="cls-11" d="M71.34,25.16A3.34,3.34,0,0,1,75,21.42a2.78,2.78,0,0,1,2.48,2.72"/><path class="cls-12" d="M73,25.18s6.57-1.3,6.57-1.3l-5.35,5.36"/><path class="cls-11" d="M70.57,27.58a2.79,2.79,0,0,0,0-5.55A2.72,2.72,0,0,0,68,23.19a3.41,3.41,0,0,0-.52,1.56,2.86,2.86,0,0,0,.61,1.8A2.76,2.76,0,0,0,70.57,27.58Z"/><line class="cls-8" x1="72.06" y1="43.11" x2="74.21" y2="42.74"/><path class="cls-13" d="M68.47,29.66a2.31,2.31,0,0,0-1.14.64,1.19,1.19,0,0,0-.25,1.24,1.62,1.62,0,0,0,1.54.74,4.09,4.09,0,0,1,1.78.16c.51.23.86.75,1.38,1a1.33,1.33,0,0,0,1.37-.19c1-1-.19-2.32-1-2.87A4.49,4.49,0,0,0,68.47,29.66Z"/><path class="cls-14" d="M69.19,23.94a1,1,0,0,0,0,2A1,1,0,0,0,69.19,23.94Z"/><path class="cls-14" d="M73.86,23a1,1,0,0,0,0,2A1,1,0,0,0,73.86,23Z"/></g></svg>