<svg xmlns="http://www.w3.org/2000/svg" viewBox="0 0 119.77 91.24"><defs><style>.cls-1,.cls-14{fill:#b0dceb;}.cls-2{fill:#fff;}.cls-3{fill:#ea4827;}.cls-13,.cls-4{fill:#1f4686;}.cls-5{fill:#f47951;}.cls-6{fill:#f9b730;}.cls-7{fill:#875b4a;}.cls-8{fill:#af6e30;}.cls-9{fill:#0077bf;}.cls-10{fill:#0d773c;}.cls-11,.cls-15{fill:#1c204d;}.cls-12,.cls-16{fill:none;stroke-width:0.8px;}.cls-12,.cls-13,.cls-14,.cls-15,.cls-16{stroke:#1c204d;stroke-linecap:round;stroke-linejoin:round;}.cls-13,.cls-14,.cls-15{stroke-width:2.01px;}.cls-16{stroke-dasharray:4.02;}</style></defs><g id="Layer_1" data-name="Layer 1"><path class="cls-1" d="M83,70.59a15.25,15.25,0,0,0,.47-1.53,10.63,10.63,0,0,0,.32-4.52,12.81,12.81,0,0,0-4.45-7.37.64.64,0,0,1-.22-.82c-1.65-.56-5.65-2.09-5.65-2.09H72s-5.18,3.45-5.29,3.59-.83,5.85-.78,6,2.44,5.56,2.44,5.56l6.39,4.3,6.74-.82Z"/><path class="cls-1" d="M31.84,54.26s-5.18,3.45-5.29,3.59-.83,5.85-.78,6,2.44,5.56,2.44,5.56l6.39,4.3,6.74-.82,3.51-5.3-1.19-6.32s-3.8-4.76-4-4.71-6.34-2.3-6.34-2.3Z"/><polygon class="cls-2" points="25.16 64.61 35.42 63.8 29.98 70.81 25.16 64.61"/><path class="cls-2" d="M41.77,57.45l-6.47,6.4,8.86.46-.84-4.14A13.28,13.28,0,0,0,41.77,57.45Z"/><polygon class="cls-2" points="66.58 70.98 73.89 63.73 74.26 72.6 66.58 70.98"/><polygon class="cls-2" points="74.73 53.6 73.83 63.85 80.89 58.48 74.73 53.6"/><path class="cls-3" d="M44.65,18a9.14,9.14,0,0,0-.9-1.33,7.7,7.7,0,0,0-.54-.6L43,15.77c-.06-.06-.27-.19-.28-.27a.41.41,0,0,0-.4-.3h0A.41.41,0,0,0,42,15c-.42-.07-.78-.33-1.2-.41a3.1,3.1,0,0,0-1.35.11c-.44.11-.88.25-1.33.35s-.9.09-1.32.23a4.57,4.57,0,0,0-1.18.66c-.33.24-.82.53-.82,1,0,0,0,0,0,.06a.45.45,0,0,0-.16.15.4.4,0,0,0,0,.41c.07.16.24.22.37.3a3.13,3.13,0,0,1,.3.2h0l.07.06.14.12,0,.05a.54.54,0,0,0,.05.11,4.9,4.9,0,0,1,.45.67,3.65,3.65,0,0,1,.18.34l.09.18,0,.09v.06l0,.05a.41.41,0,0,0,.61.4,4.18,4.18,0,0,1,1.87-.41,7.23,7.23,0,0,0,1.72-.37c.6-.14,1.18-.31,1.77-.5a5.3,5.3,0,0,1,1.89-.37A.42.42,0,0,0,44.65,18Z"/><path class="cls-4" d="M44.62,61.61a.64.64,0,0,0-.08-.14c-.23-.76-.52-1.57-1-1.83a1,1,0,0,0-.12-.19c-.48-.58-.79-1.28-1.29-1.86a12.35,12.35,0,0,0-1.65-1.5.55.55,0,0,0-.31-.12,7,7,0,0,0-2.06-1.28l-.1,0a.82.82,0,0,0-.28-.19A16.06,16.06,0,0,0,36,53.88a4.81,4.81,0,0,0-1.09-.25.64.64,0,0,0-.66-.12,1,1,0,0,0-.46-.06.76.76,0,0,0-.32-.07,8.65,8.65,0,0,0-4.17.8,5.26,5.26,0,0,0-2.55,2A5.81,5.81,0,0,0,25,59.25a.67.67,0,0,0,0,.2.91.91,0,0,0-.18.45,11.4,11.4,0,0,0,.05,4.28h0a.69.69,0,0,0,0,.32,17.35,17.35,0,0,0,1.52,3.58.66.66,0,0,0,.15.21.5.5,0,0,0,0,.12,5.21,5.21,0,0,0,1.31,1.85c.55.59,1.18,1.09,1.71,1.7a.63.63,0,0,0,.46.22l.08.09a6.72,6.72,0,0,0,1.12.8c.36.21.67.47,1,.66a.7.7,0,0,0,.45.1,2.31,2.31,0,0,0,.63.31c.22.08.48.09.7.19a1.64,1.64,0,0,0,.43.24,1,1,0,0,0,.53,0l0,0a.05.05,0,0,0,0,0,4,4,0,0,0,1.19.25.72.72,0,0,0,.36,0,12.49,12.49,0,0,0,1.93.06c.87-.07,1.54-.51,2.37-.64a.57.57,0,0,0,.43-.28.64.64,0,0,0,.42-.12,11.46,11.46,0,0,0,2.06-1.87.94.94,0,0,0,.12-.18.64.64,0,0,0,.2-.2A9.53,9.53,0,0,0,45.67,67a.8.8,0,0,0,0-.23C46.06,65.18,45.2,63,44.62,61.61Zm-1,5.37a.8.8,0,0,0-.1.23,15.58,15.58,0,0,1-.61,2.18.75.75,0,0,0-.21.25,3.75,3.75,0,0,1-.42.62.73.73,0,0,0-.15.29l0,0c-.24.25-.59.44-.86.67a7.51,7.51,0,0,1-.83.66,1,1,0,0,0-.18.17.68.68,0,0,0-.28,0c-.48.11-1,.53-1.46.53a.69.69,0,0,0-.47.17.63.63,0,0,0-.33,0c-.87.25-1.77-.26-2.64-.16a.83.83,0,0,0-.56-.27c-.5-.06-.87-.46-1.39-.46h-.16a.92.92,0,0,0-.25-.22c-.72-.39-1.42-.8-2.11-1.25l0,0c-.16-.49-.78-.92-1.16-1.27a.71.71,0,0,0-.15-.33,8.55,8.55,0,0,0-.95-1.08,1.42,1.42,0,0,0-.08-.18l-.53-.85a.47.47,0,0,0-.11-.13.54.54,0,0,0-.07-.13.7.7,0,0,0,0-.43c-.22-.74-.5-1.46-.77-2.18a.8.8,0,0,0,0-.44c-.08-.4-.12-.81-.22-1.2a.78.78,0,0,0,.15-.42,7.67,7.67,0,0,1,.43-2.23c.15-.41.36-.79.53-1.19A.82.82,0,0,0,28,58.1c.26-.36.56-.7.83-1.06a.62.62,0,0,0,.48-.24,4.2,4.2,0,0,1,2.23-1c.61-.19,1.26-.2,1.87-.33a.58.58,0,0,0,.35.11,6.37,6.37,0,0,1,1.8.18c.27.06.55.12.81.2s.58.28.85.43a.58.58,0,0,0,.41.06.78.78,0,0,0,.16.21c.85.69,1.74,1.29,2.56,2l.24.34a11.32,11.32,0,0,0,1.08,1.11.7.7,0,0,0,.09.39,11.58,11.58,0,0,1,.85,1.44c.23.63.42,1.27.67,1.9a.76.76,0,0,0,.12.19,10.38,10.38,0,0,0,.14,1.12.55.55,0,0,0,.1.28,6.78,6.78,0,0,1-.06,1.25A.72.72,0,0,0,43.62,67Z"/><path class="cls-5" d="M45.06,30.31a.66.66,0,0,0-.29-1.11,5.71,5.71,0,0,1-1.27-.41,5.81,5.81,0,0,1-1-.81,7.54,7.54,0,0,1-1.72-2.13,12.49,12.49,0,0,1-.83-2.53,6,6,0,0,1-.19-2.66.67.67,0,0,0-.83-.79l-2.56.58a.76.76,0,0,0-.3,0l-.35.08a.48.48,0,0,0-.25.14.43.43,0,0,0-.16,0,4.08,4.08,0,0,0-1,.25,2.16,2.16,0,0,1-.89.19.52.52,0,0,0-.49.41,18,18,0,0,0-.24,2.21A3.91,3.91,0,0,0,33,25.5h0a2.76,2.76,0,0,0-.85.24,1,1,0,0,0-.45,1,1.53,1.53,0,0,0,.16,1.12.86.86,0,0,0,.77.43,1.36,1.36,0,0,0,.25.11,1.39,1.39,0,0,0,1-.2A1.28,1.28,0,0,0,34,28a1.09,1.09,0,0,0,.1.32s0,0,0,0a.15.15,0,0,0,0,.09.18.18,0,0,0,.06.09l0,0a.27.27,0,0,0,.12,0,.88.88,0,0,0,.58.19.51.51,0,0,0,.17,0,.92.92,0,0,0,.62-.08L37,28.05l.33-.16a7.56,7.56,0,0,1-.24,1c-.17.54-.66.86-.9,1.37l-.13,0a.53.53,0,0,0-.57.78c.62.95,1.32,2.31,2.6,2.39a3.91,3.91,0,0,0,1.64-.36,2.4,2.4,0,0,0,.73-.45c.08-.07-.07.07,0,0a3.26,3.26,0,0,1,.4.24s.44-.07.48,0l.13.1.1.08c.09.31.74.29,1,.17a1.47,1.47,0,0,0,.58-.27c.27-.19.86-.44,1.11-.66a1,1,0,0,0,.32-.45l.06,0c0-.06.14-.2.12-.16s.22-.07.23-.08A4.73,4.73,0,0,0,45.06,30.31Z"/><path class="cls-5" d="M44.52,23.09a1.27,1.27,0,0,0-1.21-1.17c-.26,0-.67-.05-.87.15s-.09.63-.07.9a.64.64,0,0,0,.06.18,1.64,1.64,0,0,0,0,.22c0,.3,0,.6,0,.9q0,1-.12,1.92a.39.39,0,0,0,.78,0,2.63,2.63,0,0,1,.73-1.5,5,5,0,0,0,.55-.69A1.55,1.55,0,0,0,44.52,23.09Z"/><path class="cls-5" d="M39.4,40.54a2.79,2.79,0,0,1-1.22,0,8.39,8.39,0,0,0-1.32.06,8.59,8.59,0,0,0-2.53.1.38.38,0,0,0-.15.09.37.37,0,0,0-.37.1,2.8,2.8,0,0,0-.65,1.24.41.41,0,0,0,0,.22q-.15.36-.27.72a.75.75,0,0,0,.82,1,.6.6,0,0,0,.19-.06,1,1,0,0,0,.3.53,1.09,1.09,0,0,0,.85.24,2,2,0,0,0,.34,0l0,0a.45.45,0,0,0,0,.11l.06.14v0l.08.1a.58.58,0,0,0,.12.1.35.35,0,0,0,.14.06.32.32,0,0,0,.17,0,.43.43,0,0,0,.21.14.42.42,0,0,0,.29,0h0l.27,0,.12,0a.26.26,0,0,0,.15-.07.13.13,0,0,0,0-.18.12.12,0,0,0-.17,0h-.07l-.12,0c0-.16.05-.31.06-.46a2,2,0,0,0,0-.25,1.23,1.23,0,0,0,0-.43A2.75,2.75,0,0,0,38.43,44a1.86,1.86,0,0,0,.61-.54,1.55,1.55,0,0,0,.19-.36.65.65,0,0,0,.05-.21h.16a.39.39,0,0,0,.38-.49A3.19,3.19,0,0,1,39.88,41C40,40.75,39.69,40.43,39.4,40.54Z"/><path class="cls-4" d="M67.82,55.59l-.36-.16,0,0a.55.55,0,0,0-.12-.24.65.65,0,0,0-.69-.23,1.55,1.55,0,0,0-.69.51.48.48,0,0,0-.16.08l-.13.1h0l0,0a1.71,1.71,0,0,0-.22.25,5.45,5.45,0,0,0-.6.85l-.16.07a.63.63,0,0,0-.23.23v0l-.08.17v0s0,.08,0,.12A4.91,4.91,0,0,0,63.43,59a.67.67,0,0,0,0,.42,1.22,1.22,0,0,0-.19.62.71.71,0,0,0,.7.75h.1a.64.64,0,0,0,.28,0l.08,0a.65.65,0,0,0,.74-.31l0-.1a.38.38,0,0,0,.09-.13,2,2,0,0,0,.18-.46v0a5.82,5.82,0,0,1,.33-.59l.63-1a4.4,4.4,0,0,1,1.37-1.41A.67.67,0,0,0,67.82,55.59Z"/><path class="cls-4" d="M84.09,65.17c-.11-.68-.26-1.36-.42-2A9.17,9.17,0,0,0,83,61.26a11.42,11.42,0,0,0-1-1.57.56.56,0,0,0-.19-.4A5.54,5.54,0,0,1,81,58.18a10.77,10.77,0,0,0-1-1.19c-.37-.35-.76-.69-1.16-1a4.38,4.38,0,0,0-1.23-.81.57.57,0,0,0-.13-.08,14.17,14.17,0,0,0-4.29-1.52,10.21,10.21,0,0,0-2.28-.15,6.05,6.05,0,0,0-2.35.43.71.71,0,0,0-.14.1.67.67,0,0,0-.53,1.12,1,1,0,0,1,.27.56A.66.66,0,0,0,69,56a3.69,3.69,0,0,1,.81-.37L71,55.41a.5.5,0,0,0,.33.1,8.9,8.9,0,0,1,3.92.64,15.57,15.57,0,0,1,3.48,2.19.66.66,0,0,0,.18.31,10.2,10.2,0,0,1,2.34,3.58,9.66,9.66,0,0,1,.81,4.52.59.59,0,0,0,0,.19,1.12,1.12,0,0,0-.15.41,6.09,6.09,0,0,1-.1.73,8.73,8.73,0,0,1-1.46,2.76h0a.61.61,0,0,0-.24.15l-.39.37-.21.17-.08.07-.05,0a2.41,2.41,0,0,1-.85.42,16.76,16.76,0,0,0-2.19.78.42.42,0,0,0-.22,0,6.28,6.28,0,0,1-1.3,0,3.06,3.06,0,0,0-1.2-.1.66.66,0,0,0-.36-.11,1.73,1.73,0,0,1-.77-.22l-1-.49-1-.46-.4-.16h0a9,9,0,0,0-1-.87,3.92,3.92,0,0,0-.32-.25l0,0-.12-.1a4.17,4.17,0,0,1-.43-.41l-.17-.2,0,0,0-.07-.41-.53a3.92,3.92,0,0,0-.68-.67c-.23-.53-.47-1.07-.7-1.61a.65.65,0,0,0-.4-.3.68.68,0,0,0-.5.07l0,0h0a.68.68,0,0,0-.8-.11.76.76,0,0,0-.23.24.63.63,0,0,0-.07.5,4.1,4.1,0,0,0,.39.75c.14.21.3.41.45.62l1,1.29a.82.82,0,0,0,.3.26l.14.2a7.78,7.78,0,0,0,1,1.08.72.72,0,0,0,.3.42l1.28.94a.41.41,0,0,0,.11.07,2.69,2.69,0,0,0,.75.55c.42.21.84.42,1.25.66a8.29,8.29,0,0,0,1.35.63,2.67,2.67,0,0,0,1.56.28h0a4.23,4.23,0,0,0,1.69.31.65.65,0,0,0,.37-.12l.16,0a7.83,7.83,0,0,0,2-.1,8.14,8.14,0,0,0,3.32-1.87.81.81,0,0,0,.28-.38h0a1.21,1.21,0,0,0,.46-.54.36.36,0,0,0,0-.09.69.69,0,0,0,.17-.17,7.94,7.94,0,0,0,1.14-2.2,14.54,14.54,0,0,0,.49-2.36.57.57,0,0,0,0-.26A3.27,3.27,0,0,0,84.09,65.17Z"/><path class="cls-2" d="M36.4,24.45a5.34,5.34,0,0,0-.51-.82A1.61,1.61,0,0,0,35,23.2a.83.83,0,0,0-.6.07,1.1,1.1,0,0,0-.35.26,1.6,1.6,0,0,0-.4.72,1.5,1.5,0,0,0,0,.84.29.29,0,0,0,0,.09.43.43,0,0,0,.19.23.39.39,0,0,0,.3,0,.54.54,0,0,0,.21-.16l.39-.1.23-.05.09,0h.05a8.52,8.52,0,0,1,.87-.08A.39.39,0,0,0,36.4,24.45Z"/><path class="cls-2" d="M38.27,27.26a.27.27,0,0,0-.46-.18,3.78,3.78,0,0,1-.64.56l-.07,0a.19.19,0,0,0-.15,0,.27.27,0,0,0-.15.05.38.38,0,0,0-.16.19l-.25.09a4,4,0,0,1-.74.32,1.94,1.94,0,0,0-.61.22.26.26,0,0,0-.42.26l.66,1.66a.27.27,0,0,0,.39.15,6.82,6.82,0,0,0,1.82-1.33A3,3,0,0,0,38.27,27.26Z"/><path class="cls-5" d="M36.06,62.56h0a.35.35,0,0,0,.2-.05.32.32,0,0,0,.17-.1l.09-.11a.6.6,0,0,0,.07-.27l0-.13-.06-.13a.38.38,0,0,0,0-.15,8,8,0,0,1,.4-1.26c.14-.39.23-.79.35-1.18a18.3,18.3,0,0,0,.84-2.46,1,1,0,0,0,0-.17l.15-.31a.57.57,0,0,0,.06-.31,5.84,5.84,0,0,0,.2-.59c0-.15.07-.3.11-.45l.06-.08h0a.82.82,0,0,0,.16-.37.45.45,0,0,0,0-.11A4.13,4.13,0,0,0,39,53.8a.3.3,0,0,0,.1-.14c.21-.62.41-1.25.62-1.87l.12,0H40L41,53a.44.44,0,0,0,.39.16l.07.09a21.16,21.16,0,0,0,1.57,1.42.71.71,0,0,0,.21.11l.55.52a.42.42,0,0,0,.11.16L52,62.94c.5.45,1.24-.29.75-.75l-7.37-6.84h0c-.12-.13-.24-.24-.36-.36-.54-.54-1.1-1.07-1.68-1.58a19.32,19.32,0,0,0-2.2-1.94h0L41,51.38l-.05,0-.41-.46a.61.61,0,0,0-.16-.12.13.13,0,0,0,0-.06.39.39,0,0,0-.18-.24l-.07,0,0-.07a.53.53,0,0,0,0-.12,21.37,21.37,0,0,0,.87-2.71.81.81,0,0,0,.33.12.32.32,0,0,0,.28-.12,17.85,17.85,0,0,0,3.1.16,12.33,12.33,0,0,1,1.72-.13,8.43,8.43,0,0,0,1.74.09c.26,0,.53-.32.34-.59s-.23-.49-.54-.58A4.57,4.57,0,0,0,47,46.44c-.82,0-1.64,0-2.46,0s-1.58-.07-2.38-.08a4.33,4.33,0,0,0-.51,0h0c0-.26,0-.52,0-.79a8.8,8.8,0,0,1,0-1.54.28.28,0,0,0-.34-.26,1.8,1.8,0,0,1-.61.08.27.27,0,0,0-.27.26c0,.31,0,.62,0,.93a.19.19,0,0,0-.06.16c0,.23,0,.45,0,.68,0,0,0,0,0,0h0l-.08.27a3.1,3.1,0,0,0-.15.52.27.27,0,0,0,0,.23.22.22,0,0,0,.2.1l.26,0a19.77,19.77,0,0,1-1.11,3.39.27.27,0,0,0,0,.31l-.18.29a.75.75,0,0,0-.08.18.49.49,0,0,0,0,.24.31.31,0,0,0-.05.1l-.6,1.78a.51.51,0,0,0-.56.12,1.93,1.93,0,0,0-.35.77c-.07.26-.12.51-.19.77a6.67,6.67,0,0,1-.23.72h0l0,.08-.11.26a3.12,3.12,0,0,0-.15.39.5.5,0,0,0,0,.17,5.78,5.78,0,0,0-.39,1,.49.49,0,0,0,0,.36c-.13.32-.26.64-.36,1s-.21.8-.35,1.18l-.21.56a.42.42,0,0,0-.14.24.42.42,0,0,1-.09.19.73.73,0,0,0-.08.38.53.53,0,0,0-.09.11.59.59,0,0,0-.07.26.53.53,0,0,0,.18.39"/><path class="cls-6" d="M35.47,62.21a1.61,1.61,0,0,0-1.55.37,1.19,1.19,0,0,0-.14,1.57,1.14,1.14,0,0,0,.59.92,1.54,1.54,0,0,0,.62.16,1.32,1.32,0,0,0,1.47-.2,1.17,1.17,0,0,0,.3-1,.51.51,0,0,0,0-.17v-.26a.6.6,0,0,0-.33-.51,1.91,1.91,0,0,0-.39-.54"/><path class="cls-1" d="M41.54,39a1.28,1.28,0,0,0-.12-.52.54.54,0,0,0-.51-.28l-.12,0-.08,0h0l-.06,0h-.09c-.33,0-.65,0-1,0s-.69,0-1,0a.41.41,0,0,0-.39.4V39a.4.4,0,0,0,.39.39l1.79.08a.33.33,0,0,0,.11.29.41.41,0,0,0,.47.07.43.43,0,0,0,.33,0,.4.4,0,0,0,.29-.38A4,4,0,0,0,41.54,39Z"/><path class="cls-3" d="M36.41,19.58c-.47-.45-.86-1-1.32-1.43a2.19,2.19,0,0,0-1.9-.72A1.45,1.45,0,0,0,32,18.88a3.79,3.79,0,0,0,.14,1,5.92,5.92,0,0,0,.27.81,1,1,0,0,0,.09.22.54.54,0,0,0,.69.21l.08,0a.44.44,0,0,0,.37,0,8.14,8.14,0,0,1,2.38-.59A.55.55,0,0,0,36.41,19.58Z"/><path class="cls-7" d="M37.5,22.94a5.19,5.19,0,0,1-.31-.86c0-.14-.06-.29-.08-.43a1.23,1.23,0,0,1,.07-.46,1.84,1.84,0,0,0,.08-.42.75.75,0,0,0-.07-.39.25.25,0,0,0-.31-.06l-.1,0a.25.25,0,0,0-.17,0,.12.12,0,0,0,0,.05l-.11,0a.14.14,0,0,0-.17.2,4.89,4.89,0,0,1,.38,1.25,2.69,2.69,0,0,0,.63,1.19C37.4,23.23,37.57,23.07,37.5,22.94Z"/><path class="cls-7" d="M56,19l-.26,0a.58.58,0,0,1-.27-.09.24.24,0,0,0-.27,0,8.34,8.34,0,0,1-.85-.26h0a20.56,20.56,0,0,1-1.93-1,6.81,6.81,0,0,0-2.85-.83,3.67,3.67,0,0,0-2.59.55A2.69,2.69,0,0,0,46,18.88l-.5-.13a.61.61,0,0,0-.46.06.42.42,0,0,0-.39-.29,1.06,1.06,0,0,0-.31.05,10.52,10.52,0,0,0-1.08.25,5.81,5.81,0,0,1-1.36.3.37.37,0,0,0-.32.2l-.54,0a3.92,3.92,0,0,0-1.76.41c-.33.18-.29.44-.22.77a3.1,3.1,0,0,1,.08.42.55.55,0,0,0-.13.52,1.86,1.86,0,0,0,.1.25,4.5,4.5,0,0,1,.22.82l0,.19a.57.57,0,0,0,.16.38h0A7.1,7.1,0,0,0,40,24.66a7.71,7.71,0,0,0,1,1.7c.41.5.77,1,1.18,1.53a9.68,9.68,0,0,0,1.34,1.3c.43.36,1.06.88,1.66.72l.15-.06a.34.34,0,0,1,.05-.11,4.71,4.71,0,0,1,.29-.48,3.07,3.07,0,0,1,.28-.35,2,2,0,0,1,.29-.22l0-.06a8,8,0,0,0,.39-1.94A13,13,0,0,0,46.4,23a4,4,0,0,0-.14-.75.53.53,0,0,0-.14-.23l0-.28a.4.4,0,0,0,0-.26v-.06a.62.62,0,0,0-.07-.23l.18-.21a1.75,1.75,0,0,0,.43-.76,4.05,4.05,0,0,0,2-.17,6.94,6.94,0,0,1,2.21-.65c.54,0,1.08.09,1.62.1a5.15,5.15,0,0,0,1.18.14,7.08,7.08,0,0,0,1.22.09.37.37,0,0,0,.26,0l.67-.1a1,1,0,0,0,.38-.06A.27.27,0,0,0,56,19ZM43.45,25.2a2.43,2.43,0,0,0-.37.89c-.06.17-.2.48-.4.55l-.06,0a5.85,5.85,0,0,0-.06-1.25c-.05-.49-.09-1-.11-1.47s0-1.27,0-1.9l.18,0a1.65,1.65,0,0,1,.82-.12.88.88,0,0,1,.61.45A1.87,1.87,0,0,1,44.49,24C44.33,24.5,43.82,24.81,43.45,25.2Z"/><polygon class="cls-8" points="38.68 53.32 27.36 53.32 24.81 47.06 40.68 47.07 38.68 53.32"/><path class="cls-7" d="M32.55,52.33c-.45-1.25-1-2.46-1.43-3.72a.68.68,0,0,1,0-.14,2.91,2.91,0,0,1-.17-.3,8.81,8.81,0,0,1-.46-1.1H24.81l2.55,6.26h5.53C32.77,53,32.66,52.65,32.55,52.33Z"/><path class="cls-2" d="M66,30.29a3.56,3.56,0,0,0-.92-.76c-.35-.26-.71-.51-1.09-.74a21.32,21.32,0,0,0-4.47-2.06,20.41,20.41,0,0,0-5-1.05,14.25,14.25,0,0,0-4.94.58c-1.48.44-3.14.92-4,2.29a.39.39,0,0,1,0,.15,7.32,7.32,0,0,0-.25.75.47.47,0,0,1-.21.29A4.61,4.61,0,0,1,45,31a.79.79,0,0,1,.15.69.14.14,0,0,1,0,.06.39.39,0,0,0-.47.07l-.1.12-.06,0,0,0,0,0-.06,0-.12.08a4.74,4.74,0,0,0-.6.39l-.27.22-.11.09,0,0-.08.06L43,33l-.08,0h0l-.14,0h-.12a.41.41,0,0,0-.41.41.43.43,0,0,0,.41.41,1.74,1.74,0,0,0,.79-.24l-.38.34.79.38a1.65,1.65,0,0,0,.36.11l.15,0h0l.18,0h0a.5.5,0,0,1,.27.07.4.4,0,0,0-.23.35l0,3c0,.24,0,.48,0,.73v.21c-.42.05-.83.15-1.26.19-.26,0-.52,0-.79,0a2.55,2.55,0,0,0-.76.18.29.29,0,0,0-.19.34.28.28,0,0,0,.34.19,2.2,2.2,0,0,1,.67-.17c.27,0,.53,0,.79,0,.47,0,.92-.17,1.39-.2a.5.5,0,0,0,.55.05v.17a7.49,7.49,0,0,0-1,0l-1.21,0a.66.66,0,0,0-.33.12l-2.42.12c-.26,0-.58.24-.54.55a9.73,9.73,0,0,1,0,2.64.57.57,0,0,0,.38.68h.14a.63.63,0,0,0,.42.07,18.46,18.46,0,0,1,3.79-.19c.64,0,1.26-.18,1.9-.21s1.18.07,1.64-.35a2.56,2.56,0,0,0,.58-1.51c.12-.64.24-1.28.33-1.93s.16-1.28.2-1.92c0-.21,0-.42,0-.63l-.09,0h0a2.44,2.44,0,0,0,.15-.66,2.73,2.73,0,0,0,0-.41l.11,0a11,11,0,0,0,2,.45,18.45,18.45,0,0,1,2,.47c1,.29,2.1.45,3.14.74l.5,0a1.77,1.77,0,0,0,.4,0h0l.14,0a.46.46,0,0,0,.24-.12,11,11,0,0,0,6.42-3.11.52.52,0,0,0,.17,0c.47-.13.84-.64.66-1,.13-.19.15-.29.28-.48s0-.16,0-.23l.19-.33a.56.56,0,0,0,.08-.38c.07-.21.15-.42.22-.64C66.13,31,66.29,30.67,66,30.29Z"/><path class="cls-9" d="M69.21,34.39a10.59,10.59,0,0,0-1-1.66c-.31-.47-.57-1.17-1.09-1.43l-.12,0v0l-.39-.65a.3.3,0,0,0-.48.31v0a1.11,1.11,0,0,1,0,.19,2,2,0,0,1,0,.25.27.27,0,0,0-.1.18,6.75,6.75,0,0,1-.22.73l-.12.36a1.34,1.34,0,0,0-.07.18l0,.07c0-.11,0,0,0,0l0,.07a1.47,1.47,0,0,0-.1.13,4.72,4.72,0,0,1-.33.53l0,.07-.06.07a2.62,2.62,0,0,1-.22.25,12.18,12.18,0,0,1-.89.87c-.31.27-.63.54-1,.79h0l0,0-.14.1-.25.17-.29.17-.12.06s-.19.08-.08,0a.74.74,0,0,0-.39.3c-.2.08-.38.19-.56.28l-.4.18h-.08a.7.7,0,0,0-.35.09l-.14.11v0c-.67.19-1.36.32-2,.47a3.48,3.48,0,0,0-1,.32,6.12,6.12,0,0,0-.91.7l-1.71,1.35a.48.48,0,0,0-.2.07,8.18,8.18,0,0,0-1.16.79c-.32.25-.59.56-.91.83l0,0-.09.07-.26.16-.51.32a2.86,2.86,0,0,0-.83.72.33.33,0,0,0-.3,0A4.47,4.47,0,0,0,49,44.38,3.21,3.21,0,0,0,48.23,46a6.11,6.11,0,0,0,.09,1,3.39,3.39,0,0,0,.22.9,12.58,12.58,0,0,0,1.12,1.68h0a2.39,2.39,0,0,0-.59,1.11,4,4,0,0,0-.2,1.29,26.49,26.49,0,0,0,.34,2.66.4.4,0,0,0,.14.29c.17,1.18.34,2.36.52,3.54a2.15,2.15,0,0,0,.59,1.45c.44.41.89.8,1.33,1.19a1.38,1.38,0,0,0,.44.33l0,.1a.14.14,0,0,0,.15.09.13.13,0,0,0,.12-.13v0c.22-.07.33-.28.45-.46.33-.47.63-1,1-1.43a2.63,2.63,0,0,1,.5-.44.71.71,0,0,0,.26-.67c0-.63-.06-1.25-.06-1.88a.41.41,0,0,0-.1-.28.22.22,0,0,0,.18,0,27.29,27.29,0,0,1,2.86-.57.23.23,0,0,0,.17-.15,3.82,3.82,0,0,0,1.12,0,.28.28,0,0,0,.12-.46l-.24-.29a.37.37,0,0,0,0-.18,1.68,1.68,0,0,0-.15-.3c0-.08-.1-.14-.15-.21a2.55,2.55,0,0,1-.24-.39l0-.09a.44.44,0,0,0-.33-.3A14.62,14.62,0,0,1,57.1,52c-.31-.6-.67-1.17-1-1.74-.66-1.06-1.34-2.11-1.9-3.22l.13-.07.42-.18.21-.09a.77.77,0,0,0,.16-.15,10.38,10.38,0,0,1,1.25-.13c.89,0,1.78.06,2.67.09a1.58,1.58,0,0,0,1-.17,3.37,3.37,0,0,0,.3-.36c.11-.12.27-.19.39-.32a.52.52,0,0,0-.05-.83.35.35,0,0,0-.14-.06l.2-.1h0l.15-.06.32-.08c.22,0,.45-.08.67-.11a.69.69,0,0,0,.41-.32h0a13.11,13.11,0,0,0,1.74-.46,14.87,14.87,0,0,0,2.57-1.25,6.2,6.2,0,0,0,1.08-.83c.32-.29.66-.55,1-.83a2.34,2.34,0,0,0,.81-2.19.61.61,0,0,0,.24-.44A7.39,7.39,0,0,0,69.21,34.39Z"/><path class="cls-9" d="M53.11,66a3.36,3.36,0,0,1-.48-.76,2.66,2.66,0,0,1-.07-.84,2.26,2.26,0,0,0,0-.45.53.53,0,0,0-.2-.29,1.41,1.41,0,0,1-.45-.63.28.28,0,0,0-.27-.2,1.72,1.72,0,0,1-.17-.19l-.23-.25-.45-.53c-.17-.22-.54,0-.45.26a12,12,0,0,1,.45,2c.09.65.12,1.32.24,2,0,0,0,0,0,0l0,0v.11a.29.29,0,0,0,0,.16.4.4,0,0,0,.16.2.42.42,0,0,0,.5-.07l.1-.1h.32a3.62,3.62,0,0,0,.46-.06h0l.13.06C53,66.44,53.27,66.22,53.11,66Z"/><path class="cls-1" d="M59.4,61.06h0Z"/><path class="cls-1" d="M60.14,60.83a.27.27,0,0,0-.35,0h0a.78.78,0,0,0-.2.11l-.15.09h0l-.09,0a1.15,1.15,0,0,0-.66.43s0,0,0,.06a.52.52,0,0,0-.25.14L58,62.1c-.11.11-.2.24-.3.36l-.06.08a.72.72,0,0,0-.15.27,1.21,1.21,0,0,0-.42,0h0l-.21.09a.67.67,0,0,0-.19.14l0,0a1.09,1.09,0,0,0-.23.39v0a.61.61,0,0,0,0,.23,1.1,1.1,0,0,0,.06.37.69.69,0,0,0,.15.28.58.58,0,0,0,.23.21.83.83,0,0,0,.49.11l.15,0a1,1,0,0,0,.24,0h0a.8.8,0,0,0,.39-.24.94.94,0,0,0,.27-.67,2,2,0,0,0,0-.24s0,0,0-.06a.69.69,0,0,0,0-.1.3.3,0,0,0,.13-.09A1.78,1.78,0,0,0,58.6,63a2.73,2.73,0,0,1,.23-.25l.27-.28a.48.48,0,0,0,.13-.23s0,0,.05,0a10.71,10.71,0,0,1,.89-1h0l.05-.06A.27.27,0,0,0,60.14,60.83Z"/><path class="cls-1" d="M54.53,67.62a.35.35,0,0,1-.25-.19.27.27,0,0,0-.47,0c-.43.78-1.16,1.33-1.61,2.09a.07.07,0,0,0,0,.06l-.12,0a.28.28,0,0,0-.2.3.27.27,0,0,0,.27.24l.46,0A.71.71,0,0,0,53,70a4.12,4.12,0,0,0,.57-.61c.36-.43.66-.91,1-1.33A.28.28,0,0,0,54.53,67.62Z"/><path class="cls-10" d="M53.62,66.76c-.2-.09-.27-.32-.5-.38s-.47.05-.69,0a.41.41,0,0,0-.5.51c0,.09.07.19.1.28a6.85,6.85,0,0,0-2.12-.06,3.47,3.47,0,0,0-1.11.21c-.15.07-.28.18-.43.26a2.51,2.51,0,0,1-.55.17,3.2,3.2,0,0,0-1.6,1.19c-.19.25-.51.56-.43.91a.6.6,0,0,0,.78.38,1.78,1.78,0,0,0,.61,0c.24,0,.49,0,.74,0a5.68,5.68,0,0,0,.72,0,5.67,5.67,0,0,1,.71.06h.77a3.11,3.11,0,0,0,.86,0,.48.48,0,0,0,.16-.08h.09a.7.7,0,0,0,.66-.3,5.35,5.35,0,0,0,.45-.5c.23-.31.42-.65.68-.94a10.44,10.44,0,0,0,.85-1A.42.42,0,0,0,53.62,66.76Z"/><path class="cls-10" d="M55.43,69.07c0-.14-.12-.27-.17-.39a.91.91,0,0,1-.07-.38A.3.3,0,0,0,55,68a.28.28,0,0,0-.34.11c-.23.32-.42.67-.65,1a5.2,5.2,0,0,1-.37.43h0l0,0,0,0a1.14,1.14,0,0,0-.32.22.28.28,0,0,0,0,.39.28.28,0,0,0,.37,0h.86a1.28,1.28,0,0,0,.9-.19C55.64,69.75,55.54,69.34,55.43,69.07Z"/><path class="cls-10" d="M61.25,58.19A4.91,4.91,0,0,0,60.08,57a4.44,4.44,0,0,0-.67-.38c-.27-.12-.33-.27-.48-.52-.27-.44-.59-.68-1.12-.5A4.07,4.07,0,0,1,56,56c-.44,0-.52.56-.21.77s.59.42.88.64a3.22,3.22,0,0,0,.43.39h0a8.49,8.49,0,0,0-3.54,2.09,5.52,5.52,0,0,0-1.15,1.86c-.22.61-.59,1.69.23,2a.33.33,0,0,0,.22,0,.4.4,0,0,0,.28,0,31.68,31.68,0,0,0,4.2-2.57c1.28-.9,2.92-1.19,3.89-2.51A.45.45,0,0,0,61.25,58.19Z"/><path class="cls-11" d="M51.91,66.55a.09.09,0,0,0,0-.06l0,0a.11.11,0,0,0-.07,0h-.17a.05.05,0,0,0,0,0s0,0,0,0a.09.09,0,0,0,0,0v0l0,.06,0,0,.06,0h.17l0,0a.05.05,0,0,0,0,0,.13.13,0,0,0,0-.06Z"/><path class="cls-5" d="M90.27,62.68v0a.45.45,0,0,0,0-.11.19.19,0,0,0,0-.13,1.55,1.55,0,0,0,0-.22v-.34a.5.5,0,0,0-.12-.29A14.32,14.32,0,0,0,89.87,60c-.11-.49-.28-1-.39-1.45,0-.16-.06-.31-.09-.46a.39.39,0,0,0,0-.18A16,16,0,0,0,79.23,48a20.77,20.77,0,0,0-4.1-1,.42.42,0,0,0-.29-.14l-1.19-.05a5.72,5.72,0,0,0-1.89-.2.44.44,0,0,0-.26.1l-1.35-.07a9.73,9.73,0,0,0-1.08,0,8.32,8.32,0,0,1-1.12.07,21.4,21.4,0,0,0-2.4-.09.28.28,0,0,0-.13,0,.51.51,0,0,0-.15-.07,5.07,5.07,0,0,0-1.4-.07,8.31,8.31,0,0,1-1.32,0,.5.5,0,0,0-.39.17L62,46.63a.57.57,0,0,0,0-.26,1.78,1.78,0,0,1-.07-.39,3.1,3.1,0,0,1,0-.68A2,2,0,0,1,62,45a.58.58,0,0,0,0-.41.55.55,0,0,0-.32-.24.53.53,0,0,0-.64.37,2.25,2.25,0,0,0-.11.93,4.35,4.35,0,0,0,.06.52,2.87,2.87,0,0,0,.05.31l-1.85,0-4,.05a2.58,2.58,0,0,1-.56.25l-.26.07.08.24a2.39,2.39,0,0,0,.12.22.94.94,0,0,0,.1.1.62.62,0,0,1,.11.17l3.66,0,2,0H61s0,0,0,0a12.08,12.08,0,0,1-.74,1.83.14.14,0,0,0,0,.07c-.19.37-.36.75-.53,1.13s-.37.81-.55,1.23a.44.44,0,0,0-.26.23,12.06,12.06,0,0,0-.61,1.38l-.1.24a.39.39,0,0,1,.12.14,4.19,4.19,0,0,0,.49.91.86.86,0,0,0,.13.14h0a.72.72,0,0,0,.14-.24.68.68,0,0,0,0-.14.49.49,0,0,0,.27-.32A33.18,33.18,0,0,1,60.67,51c.23-.49.47-1,.73-1.45a5,5,0,0,0,.5-1.32,4.13,4.13,0,0,0,.61.83.24.24,0,0,0,.08.06c0,.09.1.18.16.27l.35.49a.41.41,0,0,0,.07.32c.71,1,1.46,2,2.23,3a.38.38,0,0,0,.19.13l.33.58c.74,1.24,1.63,2.4,2.46,3.58l.05,0a.5.5,0,0,0,0,.13q1.15,1.68,2.4,3.3l-.4,0h0c-1.41-.21-2.82-.41-4.23-.59a11.58,11.58,0,0,0-4-.15c-1.19.28-2.35.74-3.53,1.06-.66.18-1.37.31-2.05.49s-1.14.57-1.7.87a8.77,8.77,0,0,1-2.06,1.12,1,1,0,0,1-.29,0,4.28,4.28,0,0,0,4.27,4.56c3.47-.3,6.91-.72,10.37-1.21a.55.55,0,0,0,.28-.13h.14a27.28,27.28,0,0,0,4.23-.31c1.17-.19,2.29-.05,3.3-.64a2.45,2.45,0,0,0,.69-3.89.91.91,0,0,0-.3-.28l-.34-.2c-.17-.09-.38-.23-.53-.21a13.58,13.58,0,0,0-2.49-.34.67.67,0,0,0-.14-.28c-.94-1.19-1.83-2.42-2.69-3.68l0,0-.07-.14c-.78-1.1-1.59-2.18-2.3-3.32-.35-.56-.65-1.15-1-1.71a13.44,13.44,0,0,0-1.14-1.55,17.54,17.54,0,0,1-1.2-1.53c-.25-.37-.44-.77-.66-1.16.28,0,.55,0,.82,0l.62,0,.31,0h0a.53.53,0,0,1,.18,0,.62.62,0,0,0,.59-.2,18,18,0,0,1,2.32.08A6.07,6.07,0,0,0,69,47.47a10.84,10.84,0,0,1,1.14,0l3.39.16h.14l.92,0a.26.26,0,0,0,.17.09c4.74.65,9.37,2.87,12.12,6.91a13,13,0,0,1,1.47,2.82.54.54,0,0,0,.12.33v0l.09.26h0c0,.09,0,.17,0,.25s.07.39.12.59c.11.45.26.9.37,1.35A15.09,15.09,0,0,1,89.36,62a.74.74,0,0,0,0,.21l.07.52H86.18v6.78h26V62.68Z"/><rect class="cls-11" x="89.26" y="62.04" width="1.03" height="0.56"/><polygon class="cls-11" points="62.93 47.65 62.32 46.66 63.27 46.64 63.86 47.57 62.93 47.65"/><path class="cls-1" d="M60.1,60.88a.28.28,0,0,0-.39,0,.8.8,0,0,1-.54.28.4.4,0,0,0-.46.18l0,0,0,0h0c-.07.11-.13.23-.2.33l-.06.1,0,0a1.37,1.37,0,0,1-.16.18c-.1.1-.22.19-.33.28a2.7,2.7,0,0,0-.28.31h0l-.06.08a.25.25,0,0,0,0,.07h-.11l-.25,0a.87.87,0,0,0-.24.1l0,0-.16.13a1.06,1.06,0,0,0-.17.2,1.2,1.2,0,0,0-.11.23,1.35,1.35,0,0,0,0,.28v.05s0,.08,0,.11,0,.08,0,.12a1.17,1.17,0,0,0,.1.26.47.47,0,0,0,.18.19.46.46,0,0,0,.23.12l.1,0a.59.59,0,0,0,.14.06h0l.18,0a.78.78,0,0,0,.22,0h0l.2-.09.08,0c.06,0,.14-.1.2-.16l.13-.17s0,0,0,0a1.19,1.19,0,0,0,.08-.2.89.89,0,0,0,0-.22,1.06,1.06,0,0,0,0-.25.85.85,0,0,0-.06-.17l1.85-2.12A.27.27,0,0,0,60.1,60.88Z"/><path class="cls-12" d="M62.32,46.6h9c.34,0,8.75-.16,14.32,5.17A15.77,15.77,0,0,1,90.3,62.68"/><path class="cls-12" d="M89.3,62.68a14.82,14.82,0,0,0-4.37-10.22c-5.29-5.05-13.54-4.9-13.63-4.9H63"/><rect class="cls-12" x="86.34" y="62.68" width="25.79" height="6.78"/><circle class="cls-13" cx="103.17" cy="69.41" r="5.44"/><ellipse class="cls-1" cx="103.17" cy="69.41" rx="3.72" ry="3.74"/><path class="cls-12" d="M57,68.28a4.42,4.42,0,0,1-4.5-4.43"/><path class="cls-12" d="M74.32,61.26a2.53,2.53,0,0,1,.07,5"/><line class="cls-12" x1="74.4" y1="61.27" x2="62.63" y2="59.92"/><line class="cls-12" x1="57" y1="68.28" x2="74.39" y2="66.3"/><polygon class="cls-12" points="38.68 53.32 27.36 53.32 24.81 47.06 40.68 47.07 38.68 53.32"/><line class="cls-12" x1="32.85" y1="53.32" x2="30.44" y2="47.07"/><line class="cls-12" x1="34.92" y1="53.32" x2="32.85" y2="53.32"/><path class="cls-12" d="M38.84,55.05a13.72,13.72,0,0,1,6.85,11.34c0,5.82-4.73,9.54-10.55,8.3s-10.55-7-10.55-12.79,4.72-9.54,10.55-8.3a11.73,11.73,0,0,1,2.45.81"/><path class="cls-12" d="M38.22,56.92a11,11,0,0,1,5.4,9c0,4.67-3.8,7.65-8.48,6.66a11,11,0,0,1-8.48-10.27c0-4.67,3.79-7.65,8.48-6.65a9.48,9.48,0,0,1,1.85.59"/><path class="cls-12" d="M36.05,62.56a2.06,2.06,0,0,1,.86,1.6,1.3,1.3,0,0,1-1.69,1.26,2.16,2.16,0,0,1-1.69-2,1.3,1.3,0,0,1,1.69-1.27l.14,0"/><path class="cls-14" d="M35.28,63a1,1,0,0,1,.71.94.6.6,0,0,1-.77.6,1,1,0,0,1-.77-1,.6.6,0,0,1,.77-.61l.06,0"/><path class="cls-12" d="M65.44,60.17a6.38,6.38,0,0,1,2.29-3.36"/><path class="cls-12" d="M68.88,56.12a7.52,7.52,0,0,1,4.75-.43A11,11,0,0,1,82.11,66c0,4.67-3.8,7.65-8.48,6.66a11.07,11.07,0,0,1-7.09-5.32"/><path class="cls-12" d="M63.27,59.93a8.06,8.06,0,0,1,3.13-5"/><path class="cls-12" d="M67.61,54.2a9.29,9.29,0,0,1,6-.6c5.82,1.24,10.54,7,10.54,12.79s-4.72,9.54-10.54,8.3A13.82,13.82,0,0,1,64.5,67.5"/><path class="cls-12" d="M41.58,46.47a.54.54,0,0,0-.24.28"/><path class="cls-12" d="M41.12,47.68a.7.7,0,0,1,0-.26"/><path class="cls-12" d="M40.36,46.06a1.21,1.21,0,0,1,.32.18"/><path class="cls-12" d="M62,48.3A.62.62,0,0,0,62,48"/><path class="cls-12" d="M40.36,43.92v2.14l-.3.95m.3-7.47v.29m1.2-.08V38.63m6.56,7.84H41.58V43.89m30.58,17-9.8-14.2,0,0a.27.27,0,0,0-.07-.08s0,0,0,0l-.08-.05,0,0-.12,0v-1.6H60.91v1.59h-5.2M36.31,62.7,39.8,51.79c1.79,1.62,8.29,7.62,12.25,11.27m-14-9.7-2.8,8.75M54.73,47.68h6.18l-2.7,6m-5.83,8.06c-9.14-8.44-11.5-10.59-12.18-11.17l.92-2.86h7.25M59,54.93l3-6.63,8.62,12.5"/><path class="cls-12" d="M63.82,43.71a2,2,0,0,1-1.67,1.15H60.48"/><path class="cls-12" d="M62,46.48a.69.69,0,0,1-.26.07"/><path class="cls-12" d="M60.91,47.68a1.06,1.06,0,0,0,.33.21"/><path class="cls-12" d="M32.91,25.47A1.47,1.47,0,0,0,33,28.4a1.51,1.51,0,0,0,1-.49l0,.75a9.23,9.23,0,0,0,4-1.71s.84,2.24-2.93,3.75A5.87,5.87,0,0,1,36,31.9c.09.17,1.74,3.68,5.42-.22"/><line class="cls-12" x1="34.5" y1="28.6" x2="35.43" y2="30.58"/><path class="cls-12" d="M38.2,27.81a6.36,6.36,0,0,1-3,1.78"/><path class="cls-12" d="M44.4,29.88a12.47,12.47,0,0,1-4.91-6.54A18.24,18.24,0,0,1,39,19.8"/><path class="cls-12" d="M46.57,27.6c.58-2.85-.61-7.4-1.72-9.17"/><path class="cls-12" d="M45.12,18.69a1.19,1.19,0,0,1,1.37.77A1.21,1.21,0,0,1,46,21"/><path class="cls-12" d="M46,18.74c.08-.41.52-1.84,2.92-2,2.8-.16,4.77,2.16,7.81,2.32,0,0-.85,1.1-4,.43-3.72-.78-3.25,1.29-6,.72"/><path class="cls-12" d="M33,25.5c-.86-.84-.15-4.27-.15-4.27"/><path class="cls-12" d="M39.86,42.86l-.59-.06"/><path class="cls-12" d="M49.94,33.15l-1.42,9.32a.93.93,0,0,1-1,1"/><path class="cls-12" d="M45.05,31.43A4.42,4.42,0,0,1,47.53,27"/><line class="cls-12" x1="45.42" y1="39.5" x2="45.05" y2="31.43"/><path class="cls-12" d="M48.47,47.68a6.23,6.23,0,0,0,.67,1.26"/><path class="cls-12" d="M49.86,43.47s-2.33,1.8-1.39,4.21"/><line class="cls-12" x1="44.5" y1="29.92" x2="45.15" y2="29.92"/><line class="cls-12" x1="40.41" y1="32.65" x2="42.29" y2="33.31"/><path class="cls-12" d="M45.11,32.65a9.66,9.66,0,0,1-2.24,1.28.49.49,0,0,1-.58-.22c-.08-.18-.08-.38,0-.4a8.92,8.92,0,0,0,2.76-1.78"/><path class="cls-12" d="M55.75,46.43l-1.57.5"/><path class="cls-12" d="M60.48,44.85c-1.76.61-3.52,1.19-4.73,1.58"/><path class="cls-12" d="M47.53,27c2.31-1.14,7-2.5,13.53.21,9.65,4,8.68,10.49,8.64,11s-.24,2.91-4,4.61c-1.19.55-3.23,1.29-5.27,2"/><path class="cls-12" d="M57.31,37.88c-2.18,1.54-5.31,3.81-7.45,5.59"/><path class="cls-12" d="M49.56,36c2.63.62,5.6,1.33,7.75,1.86"/><path class="cls-12" d="M58,57.76a6.33,6.33,0,0,0-3.68,1.52c-1.5,1.18-2.51,3.38-2.13,4.2,0,0,.31.58,1.06.14l7.69-4.52a.75.75,0,0,0,.2-1.19,7.76,7.76,0,0,0-1.95-1.37"/><path class="cls-12" d="M53.11,67.65a5.63,5.63,0,0,0-3.65-.5c-1.75.27-3.57,1.62-3.65,2.49,0,0,0,.63.79.62l8.25-.09a.71.71,0,0,0,.71-.9A6.42,6.42,0,0,0,55.07,68"/><line class="cls-12" x1="58.6" y1="55.66" x2="59.17" y2="56.54"/><path class="cls-12" d="M48.88,52.32a3.52,3.52,0,0,1,.69-2.57"/><line class="cls-12" x1="52.09" y1="67.18" x2="51.92" y2="66.43"/><rect class="cls-15" x="47.87" y="70.27" width="7.2" height="1.54" rx="0.52"/><path class="cls-12" d="M61.18,58.92l.73-.21a.46.46,0,0,1,.57.31l.17.59a.46.46,0,0,1-.32.57l-6,1.75a.39.39,0,0,1-.18,0"/><path class="cls-12" d="M36.69,44.16a.6.6,0,0,0,.43-.6"/><path class="cls-12" d="M37.34,45.21a.89.89,0,0,1-1,.38c-.38-.11-1.12-.29-1-1.07s.46-2.14.46-2.14"/><path class="cls-12" d="M35.29,44.89a1,1,0,0,1-.81,0c-.46-.2-.7-.44-.51-1.21s.43-1.76.43-1.76"/><path class="cls-12" d="M33.56,41.12a1.9,1.9,0,0,1,1.38-.59l5,0"/><path class="cls-12" d="M33.85,44.21a1,1,0,0,1-.59-.06c-.52-.17-.49-.67-.38-1.16s.53-1.61.53-1.61a.71.71,0,0,1,.15-.26"/><path class="cls-12" d="M36.87,44.08a2.74,2.74,0,0,1-.09,1.13"/><path class="cls-12" d="M34,40.78a2.78,2.78,0,0,1,.3-.4,5.08,5.08,0,0,1,3.08-.93h3a.61.61,0,0,0,.37-.4"/><path class="cls-12" d="M36.89,45.12c.63.13,1.18.2,1.55.25h.08a.6.6,0,0,0,.07-1.2c-.53-.07-1-.15-1.47-.25"/><path class="cls-12" d="M41.56,38.63c0-.39-.31-.39-.31-.39H37.38a6.19,6.19,0,0,0-3.94,1.27,2.9,2.9,0,0,0-.88,2.15,2.56,2.56,0,0,0,.3,1.22"/><path class="cls-12" d="M39.27,42.88s-.07,1.57-2.24,1"/><path class="cls-12" d="M35.62,25.89a1.42,1.42,0,0,1-2-1.62,1.41,1.41,0,0,1,1.71-1A1.42,1.42,0,0,1,36.38,25c0,.09-.06.18-.1.27"/><path class="cls-12" d="M34,25.59a3,3,0,0,1,2.38-.51"/><circle class="cls-11" cx="33.96" cy="24.5" r="0.38"/><line class="cls-12" x1="54.7" y1="56.54" x2="54.79" y2="58.89"/><path class="cls-12" d="M58.89,47.73l-2.56,2.86"/><path class="cls-12" d="M60.86,45.5l-.82.93"/><path class="cls-12" d="M55.54,56.13c.38-.1.86-.2,1.38-.29a6.19,6.19,0,0,1,2.4-.18c0,.05-.17.13-.47.23"/><path class="cls-12" d="M55.74,56.5c-.72.08-1.11.08-1.13,0s.35-.21.93-.36"/><path class="cls-12" d="M52.09,66.38c.32,0,.7-.07,1.12-.09"/><path class="cls-12" d="M51.92,66.76c-.48,0-.79-.08-.79-.15s.38-.16,1-.23"/><line class="cls-12" x1="54.61" y1="56.49" x2="49.14" y2="48.94"/><polyline class="cls-12" points="59.32 55.66 54.17 46.93 52.58 46.2"/><line class="cls-12" x1="61.27" y1="58.13" x2="52.3" y2="63.44"/><line class="cls-12" x1="50.01" y1="59.46" x2="48.88" y2="52.32"/><line class="cls-12" x1="51.13" y1="66.61" x2="50.33" y2="61.52"/><line class="cls-12" x1="53.54" y1="69.59" x2="55.58" y2="69.58"/><line class="cls-12" x1="45.81" y1="69.64" x2="52.01" y2="69.6"/><path class="cls-12" d="M55.46,56.15c0,.07,1.55,1.75,1.55,1.75"/><path class="cls-11" d="M55.51,56.31a.14.14,0,0,0-.09,0l-.38,0a.14.14,0,0,0-.12.12.11.11,0,0,0,0,.09.11.11,0,0,0,.08,0l.38,0a.14.14,0,0,0,.09,0s0-.06,0-.09A.16.16,0,0,0,55.51,56.31Z"/><path class="cls-11" d="M59.1,55.61l0,0a.16.16,0,0,0-.09,0h0l-.05,0h0l-.06,0-.06,0,0,0,0,0s0,0,0,0v0a.16.16,0,0,0,.06.08h.09l.12,0,.11-.07a.08.08,0,0,0,0,0,.13.13,0,0,0,0-.1Z"/><path class="cls-12" d="M40.06,43.89a5.13,5.13,0,0,1-.2-2,5.1,5.1,0,0,1,.2-2"/><path class="cls-12" d="M40.06,39.92l5.36-.42a3.13,3.13,0,0,1,1.34.93"/><line class="cls-12" x1="40.06" y1="43.89" x2="47.43" y2="43.47"/><path class="cls-12" d="M66.18,30.27s.51,5.76-8.87,7.61"/><path class="cls-12" d="M44.85,18.43c-.17-.77-2.09-4.28-5.24-3.76l-3,.7a3.1,3.1,0,0,0-2.13,2.21"/><path class="cls-12" d="M36.66,20.28c-.32-1-1.89-3.33-3.54-2.85-2.06.6-1,2.74-.42,3.84"/><line class="cls-12" x1="32.7" y1="21.27" x2="44.85" y2="18.44"/><path class="cls-2" d="M102.93,69.89a.37.37,0,0,1-.17-.1v0a.44.44,0,0,1-.12-.18l-3,1.14,0,.07v0h0l0,.1.13.19.28.36h0l0,0,.07.08.16.2.31.33c.11.1.22.21.34.3l.09.08h0l.19.14a2.3,2.3,0,0,0,.4.23l.07,0,1.17-3Z"/><path class="cls-2" d="M106.71,68.17a5.78,5.78,0,0,0-.42-.82A2,2,0,0,0,106,67l-.35-.35c-.22-.22-.46-.42-.68-.64L103.4,69l.1.07v0a.48.48,0,0,1,.13.23v0l3.17-.77A1.89,1.89,0,0,0,106.71,68.17Z"/><path class="cls-12" d="M42.51,22a2,2,0,0,1,.82-.11,1.32,1.32,0,0,1,1.17,1.39c.06,1.33-1.31,1.63-1.41,2.47a1.8,1.8,0,0,0,0,.2.49.49,0,0,1-.29.56"/><path class="cls-12" d="M43.24,23.36c0,.25-.14.12-.42.43l-.24.28"/><line class="cls-12" x1="42.43" y1="21.71" x2="42.72" y2="26.81"/><path class="cls-12" d="M37.14,20.29a3.3,3.3,0,0,1,.12,1.17,3.23,3.23,0,0,0,.06,1.09,2.51,2.51,0,0,0,.6.93.06.06,0,0,1,0,.09,0,0,0,0,1-.07,0,2.69,2.69,0,0,1-.91-.84,3.8,3.8,0,0,1-.41-1.2,2.27,2.27,0,0,0-.37-.91l-.08-.08"/><path class="cls-12" d="M57.47,62.81a1.06,1.06,0,0,1,.43.16"/><path class="cls-12" d="M58.21,63.34a1,1,0,0,1,.11.45,1,1,0,1,1-1-1h.14"/><line class="cls-12" x1="51.68" y1="70.15" x2="53.98" y2="67.25"/><line class="cls-12" x1="54.84" y1="67.86" x2="53.02" y2="70.15"/><line class="cls-12" x1="60.5" y1="60.73" x2="58.27" y2="63.48"/><line class="cls-12" x1="57.52" y1="62.8" x2="58.75" y2="61.25"/><circle class="cls-12" cx="57.33" cy="63.79" r="0.29"/><line class="cls-12" x1="38.15" y1="38.24" x2="38.15" y2="39.45"/><path class="cls-11" d="M38.93,44.47a.9.9,0,0,0-.47-.2c-.32-.08-.66-.09-1-.2A.75.75,0,0,0,37.2,44a.32.32,0,0,0-.28.27c0,.11,0,.23,0,.34a.24.24,0,0,0-.13.22.28.28,0,0,0,.19.26H37a.24.24,0,0,0,.15,0,6.19,6.19,0,0,0,.86.15c.34,0,.76.08.94-.29A.47.47,0,0,0,38.93,44.47Z"/><path class="cls-11" d="M38.06,38.48a.28.28,0,0,0-.33-.19l-.2,0a.38.38,0,0,0-.22-.07,4,4,0,0,0-1.33.11,4.43,4.43,0,0,1-.59.18,2.73,2.73,0,0,0-.63.14c-.66.26-1.52.75-1.69,1.51a4.43,4.43,0,0,0-.29.42,1.14,1.14,0,0,0-.25.68.44.44,0,0,0,.11.24.26.26,0,0,0-.13.21,2.18,2.18,0,0,0,.06.62.26.26,0,0,0,.5,0c.11-.31.22-.61.32-.92,0-.11.08-.23.13-.34a.76.76,0,0,1,.09-.18s.07-.08.08-.11a.26.26,0,0,0,.22-.07,6.69,6.69,0,0,1,.72-.69,2.87,2.87,0,0,1,1-.4,5.06,5.06,0,0,1,2.15-.23.27.27,0,0,0,.34-.25A2.34,2.34,0,0,0,38.06,38.48Z"/><path class="cls-11" d="M62.63,59.55a2.53,2.53,0,0,0-.18-.37.35.35,0,0,0-.07-.12v0l-.12-.19a.27.27,0,0,0-.43-.05.62.62,0,0,1-.24.08,1.33,1.33,0,0,0-.34.1c-.1.06-.26,0-.32.12-1.2.64-2.32,1.41-3.52,2.06a.11.11,0,0,0,0,.17l-.07,0a.11.11,0,0,0-.11,0l-.3.12c-.16.07-.1.32.07.27,1.2-.33,2.36-.76,3.54-1.14l.87-.26c.23-.06.47-.1.69-.18a.71.71,0,0,0,.38,0A.45.45,0,0,0,62.63,59.55Z"/><path class="cls-12" d="M42.87,33.93a16.55,16.55,0,0,0,2.28.84"/><polyline class="cls-12" points="44.61 34.6 44.55 38.76 45.11 39.04"/><line class="cls-12" x1="44.55" y1="38.76" x2="41.71" y2="39.27"/><path class="cls-11" d="M63.45,43.77l-.9.4L62,44.4l-.41.1a.14.14,0,0,0-.08.07l-.29,0c-.17,0-.17.27,0,.28a4.22,4.22,0,0,0,1.33-.08,1.22,1.22,0,0,0,.5-.3l.55-.46C63.75,43.88,63.58,43.72,63.45,43.77Z"/><line class="cls-16" x1="56.33" y1="54.64" x2="51.61" y2="46.93"/><path class="cls-16" d="M53.43,44.84l10.23-5.15a2.32,2.32,0,0,0,1.17-3.52"/><line class="cls-16" x1="51.74" y1="52.53" x2="52.83" y2="60.97"/><path class="cls-12" d="M57.82,61.5a3.27,3.27,0,0,1,.53.17"/><path class="cls-12" d="M55.1,63a2.5,2.5,0,0,1,.37-.66"/><path class="cls-12" d="M59.26,62.41a2.41,2.41,0,1,1-4.33,1.44,2.35,2.35,0,0,1,0-.26"/><path class="cls-12" d="M75,63.21a1.22,1.22,0,0,1,.13.57,1.27,1.27,0,0,1-2.53,0,1.27,1.27,0,0,1,.05-.34"/><path class="cls-12" d="M73.05,62.79a1.27,1.27,0,0,1,.79-.28,1.24,1.24,0,0,1,.8.29"/><ellipse class="cls-14" cx="73.84" cy="63.78" rx="0.57" ry="0.56"/><ellipse class="cls-12" cx="103.17" cy="69.41" rx="3.72" ry="3.74"/><path class="cls-12" d="M103.76,69.41a.6.6,0,1,1-.59-.59A.59.59,0,0,1,103.76,69.41Z"/></g></svg>