<svg xmlns="http://www.w3.org/2000/svg" viewBox="0 0 73.86 78.32"><defs><style>.cls-1,.cls-8{fill:#f59da0;}.cls-2{fill:#f47951;}.cls-3{fill:#1c204d;}.cls-11,.cls-16,.cls-4,.cls-7{fill:none;}.cls-4{stroke:#1b1f4b;}.cls-11,.cls-13,.cls-16,.cls-4,.cls-7,.cls-8{stroke-linecap:round;stroke-linejoin:round;stroke-width:0.8px;}.cls-5{fill:#0776bd;}.cls-6{fill:#b1dceb;}.cls-13,.cls-7,.cls-8{stroke:#172349;}.cls-9{fill:#172349;}.cls-10{fill:#fff;}.cls-11{stroke:#1a224d;}.cls-12{fill:#1b1f4b;}.cls-13{fill:#0d773c;}.cls-14{fill:#89d3de;}.cls-15{fill:#f9b730;}.cls-16{stroke:#1c204d;}</style></defs><g id="Layer_2" data-name="Layer 2"><path class="cls-1" d="M43.15,21.05c-1.43-.49-3-1.05-4.4-1.6-1.12-.44-2.24-.87-3.35-1.35a.65.65,0,0,0-.75.23,13.79,13.79,0,0,0-1.91,5.75.59.59,0,0,0,.19.51,7.42,7.42,0,0,0,.11,2.1,12.74,12.74,0,0,1,.57,3.23,1,1,0,0,0,.09.47.61.61,0,0,0-.07.66l0,.09-.15.55-.26-.21a.56.56,0,0,0-.31-.12.5.5,0,0,0-.24,0,.41.41,0,0,0-.21.1.61.61,0,0,0-.19.26.43.43,0,0,0,0,.16.76.76,0,0,0,0,.16,1.12,1.12,0,0,0,0,.32,2,2,0,0,0-.17.66,2.93,2.93,0,0,0,.27,1.52,3.17,3.17,0,0,0,2,1.79,1.15,1.15,0,0,0,.52,0,1.86,1.86,0,0,0,.85.34q.42.08.84.12A10.52,10.52,0,0,0,38,37a2.83,2.83,0,0,0,1.53-.46l.1,0a2.25,2.25,0,0,0,.51-.31,3.47,3.47,0,0,0,.79-.69c.2-.25.34-.55.55-.79a.62.62,0,0,0-.6-1,4.16,4.16,0,0,1-.69.12H40a2.55,2.55,0,0,0,.17-.33,1.68,1.68,0,0,0,.09-.32c.29,0,.46-.32.57-.59.47-1.07.76-.47,1.07-1.09a2.7,2.7,0,0,0,.23-.94,37.17,37.17,0,0,0,.3-3.8.61.61,0,0,0,0-.14.67.67,0,0,0,.08-.17c.26-.9.33-1.91.67-2.78a.56.56,0,0,0,0-.55,12.12,12.12,0,0,1,.53-1.19C43.91,21.54,43.51,21.17,43.15,21.05ZM34.46,22a12.75,12.75,0,0,1,1-2.45l1.21.49a3.75,3.75,0,0,0-1.39,1,3.5,3.5,0,0,0-.56,1A1.15,1.15,0,0,0,34.46,22Z"/><path class="cls-2" d="M43.91,33.84,43.4,34a1.45,1.45,0,0,0-.36,0,1.48,1.48,0,0,1-.47,0,.82.82,0,0,0-1,.56c-.47,1.73-2.27,2.51-3.93,2.58a5.26,5.26,0,0,1-2.77-.48,13.92,13.92,0,0,1-2.36-1.69.8.8,0,0,0-.28-.16c0-.08,0-.15,0-.23a1.11,1.11,0,0,0,0-.19.77.77,0,0,0-.08-.41,4.59,4.59,0,0,1,0-.74,5.91,5.91,0,0,1,.16-.92,2.16,2.16,0,0,0,.11-.94,1,1,0,0,0-.47-.66,1,1,0,0,0-.48-.76,1,1,0,0,0-.4-.12.57.57,0,0,0-.62.14,1,1,0,0,0-.33.33A12.38,12.38,0,0,0,28.7,34a1,1,0,0,0,.69,1.22,1.14,1.14,0,0,0,.52,0l.2.15a2.4,2.4,0,0,0,.27.16,11.78,11.78,0,0,1-.54,1.21c-.41.81-.76,1.65-1.16,2.48s-1,1.68-1.48,2.53c-.24.42-.47.85-.7,1.28A4.08,4.08,0,0,0,26,44.16c-.14.85,1.1,1.45,1.71,1.79.82.47,1.72.77,2.54,1.24a20.2,20.2,0,0,0,5.32,2,.73.73,0,0,0,.53,0h0a3.63,3.63,0,0,0,2.07.29.87.87,0,0,0,.52.2.81.81,0,0,0,.79-.79c.33-3.09,1.4-6,2-9.08a.78.78,0,0,0,.2-.45h.24l.13,0h.06l.29.05a6.24,6.24,0,0,1,1,.33.42.42,0,0,0,.48-.06.39.39,0,0,0,.06-.48,1.09,1.09,0,0,0-.13-.17.52.52,0,0,0,.15-.39,7.85,7.85,0,0,1,.65-4A.61.61,0,0,0,43.91,33.84Z"/><path class="cls-3" d="M11.27,63h0a.74.74,0,0,0,.3-.16l.57-.52a.94.94,0,0,0,.18-.24.71.71,0,0,0,.18-.08c.59-.42,1.73-.88,1.57-1.74-.09-.52-.23-1-.29-1.54a3.3,3.3,0,0,0-.19-.85l-.15.09a.48.48,0,0,0-.43-.23h-.56a.51.51,0,0,0-.21,0c0-.23-.06-.45-.08-.68-.12-.49-.2-1-.31-1.48-.16-.66-.44-1.26-.66-1.9a.77.77,0,0,1-.07-.16,5.81,5.81,0,0,0-3-2.79l-.09,0a.41.41,0,0,0-.38-.12.47.47,0,0,0-.3.21.42.42,0,0,0,0,.48.48.48,0,0,0,.16.38l.06.05a.45.45,0,0,0,0,.11v0a.47.47,0,0,0,.06.15,1.39,1.39,0,0,0,.36.83,1.35,1.35,0,0,0,.06.48c.11.31.2.63.3,1a.49.49,0,0,0,0,.34,2.47,2.47,0,0,1,.1.29,1,1,0,0,0,0,.17,8.86,8.86,0,0,0,.45,1.28c0,.07,0,.14,0,.21a5.74,5.74,0,0,0,.4,2.66,23.5,23.5,0,0,1,.88,3.59A.57.57,0,0,0,11.27,63Z"/><path class="cls-4" d="M10.86,63.35,14.09,61"/><path class="cls-4" d="M10.9,63.32a.47.47,0,0,1-.43.08L7.25,50.55s3.56.09,4.86,6.14a4.16,4.16,0,0,1-.29,2.51"/><path class="cls-4" d="M13.36,57.68s-1,.35-1.24-.89"/><path class="cls-5" d="M31.76,53.5l1.48-1.12a1.2,1.2,0,0,0,.52-.42l0-.05a.53.53,0,0,0,.55,0,17.45,17.45,0,0,0,3.19-2.31c-3.13-.13-6.1-1.63-8.89-2.92a.83.83,0,0,1-.47-.49,5.31,5.31,0,0,1-1.12-.55,22.86,22.86,0,0,0-.84,4.32s-3.91,2.06-6,3.49A16.8,16.8,0,0,1,17.33,55a1.32,1.32,0,0,0-.77.57c-.58.34-1.17.63-1.77.93a4.66,4.66,0,0,0-1.49.85c-.57.71.24,2.21.61,3a.44.44,0,0,0-.06.53A9.2,9.2,0,0,1,14.29,62a10.06,10.06,0,0,0,.3,1.11.61.61,0,0,0,1.15.07A.83.83,0,0,0,16.1,63c2-1.08,3.74-2.27,5.59-3.49a31.4,31.4,0,0,1,2.85-1.69,4.24,4.24,0,0,0,1.44-1h0c.25.88.5,1.76.76,2.63a.93.93,0,0,0,0,.22l.14.42a.86.86,0,0,0,.25.37c.21.83.4,1.66.59,2.49a.66.66,0,0,0,0,.27l.23.85a.79.79,0,0,0,.23.38.52.52,0,0,0,0,.3.79.79,0,0,0,.65.49,2.09,2.09,0,0,0,1.23-.16.47.47,0,0,0,.17,0l1.43-.07a.51.51,0,0,0,.34-.14,5.06,5.06,0,0,0,2.64-.24c.41-.22.23-.79-.09-1l-.22-.13a.86.86,0,0,0-.22-.36,15.86,15.86,0,0,1-1.69-2.89c-.54-.92-1.1-1.85-1.66-2.76.15-.62.31-1.23.46-1.85A10.9,10.9,0,0,0,31.76,53.5Z"/><path class="cls-3" d="M36.21,68h0a.75.75,0,0,0-.12-.32L35.63,67a.52.52,0,0,1-.27-.4c-.34-.63-.65-1.82-1.52-1.78-.53,0-.9.38-1.44.37a3.57,3.57,0,0,0-.92,0s0-.06,0,0a.5.5,0,0,0-.29.39c0,.18-.05.37-.08.56s-.21,0-.2,0c-.22,0-.25.16-.48.16-.5.05-1,.07-1.51.12a18.42,18.42,0,0,0-2,.41l-.17.05a5.85,5.85,0,0,0-3.1,2.54,5.4,5.4,0,0,0,1.27,0,14.42,14.42,0,0,1,1.47,0c.54,0,1.08,0,1.63.06l.75.06.51-.13h.22a6.28,6.28,0,0,0,2.79.11,28.17,28.17,0,0,1,4.21,0C37,69.59,36.6,68.25,36.21,68Z"/><line class="cls-4" x1="30.75" y1="57.02" x2="32.1" y2="53.18"/><path class="cls-4" d="M26.08,57.45a2.7,2.7,0,0,1-.09-.36"/><path class="cls-4" d="M28.36,65.27a14.35,14.35,0,0,0,3.38-.07,10,10,0,0,0,3.39-.62"/><path class="cls-4" d="M29.27,48.36l-16.13,9a15.08,15.08,0,0,0,.69,3.32,9.94,9.94,0,0,0,1.23,3.21L36,50.7a16.54,16.54,0,0,0,1.53-1.16"/><line class="cls-4" x1="28.3" y1="65.22" x2="26.12" y2="57.56"/><path class="cls-4" d="M35.13,64.58,30.7,57.13a4.86,4.86,0,0,1-1,0"/><line class="cls-4" x1="26.85" y1="45.6" x2="26.3" y2="50.01"/><path class="cls-4" d="M31.23,65.25s.23,1-1,1.11c0,0-5.12-.16-6.56,3.22H36.54s.58-.1,0-1.13l-2-3.51"/><path class="cls-1" d="M51.4,26.15a8.52,8.52,0,0,0-1.35.68c-.4,1.14-1,2.14-1.49,3.25a.11.11,0,0,0,0,.05,1,1,0,0,0-.19.22,19.27,19.27,0,0,0-1.06,1.88,1,1,0,0,0-.1.35,1.07,1.07,0,0,0-.13.21c-.3.67-.62,1.32-1,2l-.68-.14a.86.86,0,0,0-1.14.92A21,21,0,0,1,44,38.16a.85.85,0,0,0,.75.93,10.64,10.64,0,0,1,2.39,0,.87.87,0,0,0,1.09-.48c.18-.44.32-.9.46-1.36a.71.71,0,0,0,.11-.17l.66-1.46a.82.82,0,0,0,0-.57c.4-.94.8-1.89,1.19-2.83a.77.77,0,0,0,0-.63c.25-.62.53-1.23.82-1.84a.75.75,0,0,0,.07-.12,1.42,1.42,0,0,1,.08-.18c0-.09.43-1,.48-1.1C51.55,27.5,51.75,27.09,51.4,26.15Z"/><path class="cls-1" d="M29.53,29.45a6.42,6.42,0,0,1-.6-.42A.19.19,0,0,0,29,29c.08-.36.15-.72.22-1.09a.21.21,0,0,1,0-.08c0-1.07.12-2.14.19-3.21,0-.44,0-.87.06-1.3a1,1,0,0,1-.29-.19,1.35,1.35,0,0,1-.39-.93c0-.83-.07-1.66-.14-2.49a2.22,2.22,0,0,0-.82.15,16.61,16.61,0,0,0-1.39,1c-.15.1.33,1.74.17,1.83,0,0,0,1.24,0,1.28-.16,1-.29,1.82-.45,2.8-.37,1.26-.56,2.58-.89,3.85a.73.73,0,0,0,.09.56,2.29,2.29,0,0,0,.07.28s0,.07,0,.1a.73.73,0,0,0,.45.72l.07,0a2,2,0,0,0,1.48.56,3.43,3.43,0,0,0,.7.44c.13.05.59.41.73.39.35,0,.4-.49.43-1,0-.16,0-.32,0-.47.1-.32.18-.65.28-1a.7.7,0,0,0,0-.35.53.53,0,0,0,.11-.15l0,0a.58.58,0,0,0,.36-.46A.83.83,0,0,0,29.53,29.45Z"/><path class="cls-4" d="M52,28.64l-3.52,9.73s-.3.86-1,.79S44,38.94,44,38.94"/><path class="cls-4" d="M44.47,34.59l1.57.17.62,1.05"/><line class="cls-4" x1="46.04" y1="34.76" x2="50.28" y2="26.72"/><path class="cls-4" d="M26.81,22.48l-1.65,8.75s-.16.9.45,1.17,3.32,1.34,3.32,1.34"/><path class="cls-4" d="M30.26,29.85a7.2,7.2,0,0,0-1.2-.55L28,29.91"/><line class="cls-4" x1="29.06" y1="29.3" x2="29.08" y2="21.07"/><path class="cls-4" d="M45.21,34.59c-.06-.41-.16-.66-.29-.67-.32,0-.72,1.3-.89,3S44,40,44.29,40s.36-.36.53-1"/><line class="cls-4" x1="44.92" y1="33.92" x2="40.15" y2="33.83"/><line class="cls-4" x1="41.94" y1="38.22" x2="39.12" y2="49.56"/><line class="cls-4" x1="44.29" y1="39.99" x2="41.64" y2="39.47"/><path class="cls-4" d="M30.83,29.54c-.37-.11-1,1-1.52,2.53s-.56,2.84-.19,3"/><line class="cls-4" x1="30.83" y1="29.54" x2="33.29" y2="31.65"/><line class="cls-4" x1="29.12" y1="35.02" x2="30.21" y2="35.49"/><path class="cls-4" d="M37.52,49.54a9.84,9.84,0,0,0,1.6,0"/><path class="cls-4" d="M30.53,35.17,25.72,44.6S27,46,31.38,47.92a18.89,18.89,0,0,0,6.14,1.62"/><path class="cls-4" d="M41.74,34s-.93,4.34-6.34,2.7c-5.19-1.57-2.79-5.63-2.79-5.63"/><path class="cls-4" d="M33.72,32.67a12.54,12.54,0,0,0,1.79,1.16"/><path class="cls-4" d="M39.48,34.88A23.4,23.4,0,0,1,37,34.45"/><path class="cls-6" d="M37.8,21.08a1.7,1.7,0,0,0-.91-.86h0a1.65,1.65,0,0,0-2.11.94,1.64,1.64,0,0,0,1,2.11h0a1.69,1.69,0,0,0,1.25,0,1.63,1.63,0,0,0,.86-.91A1.62,1.62,0,0,0,37.8,21.08Z"/><path class="cls-6" d="M41.71,22.44a1.67,1.67,0,0,0-.91-.86h0a1.69,1.69,0,0,0-1.25,0,1.64,1.64,0,0,0-.82,2.15,1.74,1.74,0,0,0,.91.86h0a1.66,1.66,0,0,0,1.24,0,1.7,1.7,0,0,0,.86-.91A1.64,1.64,0,0,0,41.71,22.44Z"/><path class="cls-3" d="M33.54,29.19a17,17,0,0,1-.83-4.8.35.35,0,0,0-.09-.24l.21-.88c0-.21-.26-.32-.31-.12l-.21.89v0a.31.31,0,0,0-.25.27l-.39,1.92a3.77,3.77,0,0,0-.15,1.28.48.48,0,0,0-.09.53,3,3,0,0,0,.9,1.19.52.52,0,0,0,.41.07l.29.18C33.24,29.64,33.63,29.48,33.54,29.19Z"/><path class="cls-3" d="M45.67,29.4a.57.57,0,0,0,0-.18.91.91,0,0,0,.12-.22,17.63,17.63,0,0,0,1-5.57c.48-.83.15-2.21-.07-3a.78.78,0,0,0-.34-.49c-.46-1.82-2.47-3.2-4.13-3.75a.32.32,0,0,0-.14,0l-.05,0c-2.26-1-4.39-.41-6.43.78a.52.52,0,0,0-.26.39,2.41,2.41,0,0,0-.37.13.33.33,0,0,0,.1.63,23,23,0,0,1,5.06,1.82,10.89,10.89,0,0,0,1.62.52l.1.07c.57.19,1.1.5,1.66.73l.24.1a25.2,25.2,0,0,0-1.38,6.39,1.23,1.23,0,0,0,0,.2.65.65,0,0,0,0,.21c0,.48,0,1,0,1.44a10.39,10.39,0,0,1-.24,1.55c0,.12-.06.24-.09.37v0a.44.44,0,0,0-.15.1l-.27.19a.49.49,0,0,0,.16.93,3.26,3.26,0,0,0,.93.06.43.43,0,0,0,.36.07C44.72,32.43,45.19,30.84,45.67,29.4Z"/><path class="cls-7" d="M41,32.45a14.84,14.84,0,0,0-.83,1.38"/><path class="cls-7" d="M42.08,31.25a9.22,9.22,0,0,0-1.1,1.2"/><path class="cls-7" d="M42.24,16.09a9.52,9.52,0,0,1,1.33.59,6.6,6.6,0,0,1,3.35,7.06"/><path class="cls-7" d="M33.37,31.65c.7-2.35-.48-3.79-.6-6.69a10.58,10.58,0,0,1,1.39-6,7,7,0,0,1,.73-1"/><circle class="cls-7" cx="36.25" cy="21.59" r="1.78"/><line class="cls-7" x1="38.03" y1="21.69" x2="38.75" y2="21.97"/><polyline class="cls-8" points="38.39 21.83 35.31 24.05 37.7 24.95"/><circle class="cls-7" cx="40.15" cy="23.07" r="1.78"/><path class="cls-9" d="M40.35,22.82h0a.33.33,0,0,0-.23.61h0A.33.33,0,0,0,40.35,22.82Z"/><path class="cls-9" d="M35.82,21.39v0a.33.33,0,0,0,.61.23v0A.33.33,0,0,0,35.82,21.39Z"/><path class="cls-7" d="M44.09,21.39l-9.43-3.58s2.5-3.65,7.84-1.62"/><path class="cls-7" d="M43.79,21.27a31.08,31.08,0,0,0-1.64,10.19"/><path class="cls-7" d="M41.12,32.41a2.3,2.3,0,0,0,.58.31c1.36.52,3,0,3.78-2.51A26.83,26.83,0,0,0,47,22.9"/><path class="cls-7" d="M33.52,29.66c0-.13-1.93-.22-2.16-1.8S33.25,21,33.25,21"/><path class="cls-10" d="M40.14,26.27a11.67,11.67,0,0,1-1.87-.11,16.67,16.67,0,0,1-2-.26,8.21,8.21,0,0,1-1.47-.59.78.78,0,0,1,0,.16A3.27,3.27,0,0,0,37,28.8a.53.53,0,0,1,.46.06h.07l.17,0,.24.05h0l.13,0h.14a3.74,3.74,0,0,0,.68,0,2.8,2.8,0,0,0,1.5-.73,2.73,2.73,0,0,0,.78-1.4,2.55,2.55,0,0,0,.08-.61A10.27,10.27,0,0,1,40.14,26.27Z"/><path class="cls-11" d="M41.28,26.16a2.81,2.81,0,0,1-3,2.73c-3.14,0-3.54-2.36-3.42-3.53"/><path class="cls-11" d="M41.7,25.91s-.74.55-3.53.31A7.3,7.3,0,0,1,34.26,25"/><path class="cls-11" d="M41,27.36a10.13,10.13,0,0,1-6-.74"/><path class="cls-4" d="M28.43,47.8s1.11.48,2.19.83"/><path class="cls-12" d="M45.1,34.31l0,0A.12.12,0,0,0,45,34.2l0,0h-.11l-.06,0h-.08a.15.15,0,0,0-.07,0l0,.06,0,0a.17.17,0,0,0,0,.1l0,.05.07.07h0l.06,0,.09,0H45l.06,0a.12.12,0,0,0,0-.05.13.13,0,0,0,0-.08A.25.25,0,0,0,45.1,34.31Z"/><path class="cls-12" d="M44.67,39.32a.2.2,0,0,0-.17-.18.29.29,0,0,0-.13,0h0a.17.17,0,0,0-.09-.11.16.16,0,0,0-.15,0,.18.18,0,0,0-.12.09.19.19,0,0,0,0,.15l0,.13s0,0,0,0a.22.22,0,0,0,.06.14h0l0,.11a.18.18,0,0,0,.09.12.19.19,0,0,0,.15,0,.46.46,0,0,0,.15-.09.39.39,0,0,0,.08-.1.61.61,0,0,0,.05-.12A.54.54,0,0,0,44.67,39.32Z"/><path class="cls-13" d="M45.7,18.33a20.65,20.65,0,0,1-7.11-2.87l7.3-8.09Z"/><path class="cls-14" d="M65.68,29A73.79,73.79,0,0,1,57,25.52a86.06,86.06,0,0,1-8.51-4.33c-.75-.47-1.62.55-.88,1.11,1.54,1.16,2.73,2.6,4.39,3.61a.73.73,0,0,0,1.14-.66l.15.07a.79.79,0,0,0,.33,1,18,18,0,0,0,2.89,1.17l.19.11a25.61,25.61,0,0,0,2.79,1.35l.38.13.58.28a.61.61,0,0,0,.23.39,2.25,2.25,0,0,0,1.42.41.59.59,0,0,0,.48-.23,18.42,18.42,0,0,0,2.77.47C66.07,30.45,66.48,29.27,65.68,29Z"/><path class="cls-15" d="M68.75,24.08c-1.37-1-2.15-2.64-3.4-3.81a22.76,22.76,0,0,0-4.54-3A13.15,13.15,0,0,0,56,15.59a11.47,11.47,0,0,0-2.62,0c-.79.11-1.85.6-2.51,0s-1.52.48-.88,1.11l.5.45c.2.06.22.2.07.41a5.66,5.66,0,0,1-.33,1.27,21.91,21.91,0,0,1-.84,2.35.68.68,0,0,0,.36.89.82.82,0,0,0,.19.18l.16.09c.25.33.62.32,1,.39a24.29,24.29,0,0,0,3.82,1.61C56.75,25,58.72,26,60.5,26.8l2.61,1.26c.57.28,1.14.65,1.72.21a9.49,9.49,0,0,0,1.52-2,2.29,2.29,0,0,1,2.05-.92A.71.71,0,0,0,68.75,24.08Z"/><path class="cls-1" d="M61.45,30.54c0-.45-.12-.57-.49-.77-.87-.47-1.22-1.38-2-1.92A7,7,0,0,0,56,27c-.82-.12-1.24-.8-1.83-1.1a4.57,4.57,0,0,1-1.33-.81l-2,1.1a10.66,10.66,0,0,1,.6.89,8.31,8.31,0,0,1,.48.94,4.55,4.55,0,0,1,.26.89,2.93,2.93,0,0,1,.29-.05,6.18,6.18,0,0,1,2.85.94c1,.56,2,1.08,3.09,1.55a2.63,2.63,0,0,0,1.45.4,2.94,2.94,0,0,0,1.09-.47C61.31,31.1,61.44,31,61.45,30.54Z"/><line class="cls-16" x1="64.74" y1="28.74" x2="67.41" y2="25.14"/><line class="cls-16" x1="49.26" y1="21.88" x2="50.56" y2="17.39"/><path class="cls-16" d="M51.41,16c-.23.51,3.26,2.59,7.8,4.65S67.62,24,67.85,23.5s-2.52-4.31-7.06-6.37S51.64,15.53,51.41,16Z"/><path class="cls-16" d="M67.8,23.19a1.1,1.1,0,0,1,.45.48,1.15,1.15,0,0,1,.58.4c.26.31.32.63.14.73h0a.09.09,0,0,1,0,.06c0,.2-.34.35-.83.33A1.84,1.84,0,0,1,67.4,25a1.47,1.47,0,0,1-.81,0,2,2,0,0,1-.67-.3,1.69,1.69,0,0,1-.73-.09,1.75,1.75,0,0,1-.67-.34,1.92,1.92,0,0,1-.75-.12,1.82,1.82,0,0,1-.66-.4,1.81,1.81,0,0,1-.76-.14,1.67,1.67,0,0,1-.66-.43,1.52,1.52,0,0,1-.77-.16,1.62,1.62,0,0,1-.62-.4,1.93,1.93,0,0,1-.73-.18,2.12,2.12,0,0,1-.37-.21"/><path class="cls-16" d="M51.67,15.88a1.07,1.07,0,0,0-.66,0,1.06,1.06,0,0,0-.68-.18c-.4,0-.69.18-.64.38v0l-.06,0c-.18.11,0,.49.3.85a1.78,1.78,0,0,0,.62.44,1.36,1.36,0,0,0,.54.6,1.94,1.94,0,0,0,.66.31,1.69,1.69,0,0,0,.55.49,1.67,1.67,0,0,0,.7.27,1.64,1.64,0,0,0,.58.49,1.86,1.86,0,0,0,.74.24,1.9,1.9,0,0,0,.61.48,1.86,1.86,0,0,0,.75.22,1.77,1.77,0,0,0,.63.47,1.88,1.88,0,0,0,.71.2,2,2,0,0,0,.61.43,2.43,2.43,0,0,0,.39.12"/><path class="cls-16" d="M59.19,22.24a1.73,1.73,0,0,1-.6-.17,1.93,1.93,0,0,1-.56-.36"/><path class="cls-16" d="M55.32,27a2.77,2.77,0,0,0-1.51-1.15c-2.53-.87-3.53.87-3.53.87"/><path class="cls-16" d="M57.77,27.55,55.32,27"/><path class="cls-16" d="M54.5,28.84s2.41.32,3.44.49"/><path class="cls-16" d="M57.77,27.55c.81.16,2.27.74,2.23,1.45s-1,.51-1,.51l-1-.18"/><path class="cls-16" d="M57.72,27.54h.05"/><path class="cls-16" d="M58.36,30.29l1.91.72s.88.37,1-.34a.87.87,0,0,0-.42-.77"/><path class="cls-16" d="M54.5,28.84l3.86,1.45"/><path class="cls-16" d="M57.62,30.87l1.91.72s.88.36,1-.34"/><path class="cls-16" d="M57.62,30.87c-1.31-.49-5.39-2.11-5.69-2.22a4,4,0,0,0-.34-.61"/><path class="cls-16" d="M63.94,28.54,62.78,28,47.07,20.89a3.72,3.72,0,0,0,2,2.55"/><path class="cls-16" d="M64.51,30.27a3.81,3.81,0,0,0,2.28-.44l-3.9-1.77"/><path class="cls-16" d="M51.38,25.55a4.55,4.55,0,0,1-2.24-2.09L55,26.13,63.54,30a3.41,3.41,0,0,0,1,.28"/><path class="cls-16" d="M51.65,25.68l-.27-.13"/><path class="cls-16" d="M63.47,30a4.71,4.71,0,0,1-3.31-.44l-.3-.13"/><path class="cls-14" d="M13.92,17.52a71.76,71.76,0,0,0,9.39,0,81.58,81.58,0,0,0,9.51-.88c.88-.16,1.31,1.11.41,1.36-1.86.51-3.49,1.41-5.41,1.74a.74.74,0,0,1-.82-1h-.16a.78.78,0,0,1-.67.77,16.26,16.26,0,0,1-3.12,0l-.21,0a24.73,24.73,0,0,1-3.1.23l-.39,0-.65.05a.58.58,0,0,1-.36.27,2.22,2.22,0,0,1-1.46-.14.61.61,0,0,1-.37-.39,19.76,19.76,0,0,1-2.75-.58C13,18.7,13.08,17.46,13.92,17.52Z"/><path class="cls-15" d="M12.88,11.8c1.66-.46,3-1.66,4.58-2.29a22.26,22.26,0,0,1,5.31-1.08,12.9,12.9,0,0,1,5.14.2,10.65,10.65,0,0,1,2.42,1c.69.39,1.5,1.23,2.34.89s1.24,1,.41,1.36l-.63.24c-.2,0-.27.09-.21.35a5.56,5.56,0,0,0-.17,1.29,23.12,23.12,0,0,0-.08,2.5.67.67,0,0,1-.67.69.58.58,0,0,1-.24.1l-.18,0c-.35.22-.7.06-1.1,0a25,25,0,0,1-4.15.09c-2,0-4.14.09-6.1.22l-2.89.21c-.63.05-1.3.18-1.68-.44a9.93,9.93,0,0,1-.67-2.43,2.26,2.26,0,0,0-1.57-1.61A.72.72,0,0,1,12.88,11.8Z"/><path class="cls-1" d="M17.29,20.49c.15-.41.32-.47.73-.53,1-.12,1.65-.83,2.6-1a7,7,0,0,1,3,.29c.8.19,1.44-.29,2.1-.35a4.53,4.53,0,0,0,1.54-.26l1.48,1.78a8.54,8.54,0,0,0-.88.6,8.8,8.8,0,0,0-.8.69,5.73,5.73,0,0,0-.57.73,2.07,2.07,0,0,0-.25-.15,6,6,0,0,0-3-.17c-1.15.14-2.29.24-3.44.29a2.64,2.64,0,0,1-1.5-.16,2.92,2.92,0,0,1-.84-.84A.7.7,0,0,1,17.29,20.49Z"/><line class="cls-16" x1="14.89" y1="17.61" x2="13.74" y2="13.28"/><line class="cls-16" x1="31.81" y1="16.95" x2="32.27" y2="12.29"/><path class="cls-16" d="M32,10.73c0,.55-4,1.2-9,1.44s-9,0-9.07-.58,3.94-3.08,8.92-3.32S32,10.17,32,10.73Z"/><path class="cls-16" d="M14.1,11.32a1.12,1.12,0,0,0-.6.28,1.21,1.21,0,0,0-.69.16c-.35.19-.53.47-.39.63h0l0,0c-.1.18.19.45.65.62a1.79,1.79,0,0,0,.75.11,1.43,1.43,0,0,0,.76.29,1.86,1.86,0,0,0,.73,0,1.72,1.72,0,0,0,.71.2,1.85,1.85,0,0,0,.75-.08,1.59,1.59,0,0,0,.74.16,1.86,1.86,0,0,0,.77-.12,1.67,1.67,0,0,0,.76.15,1.81,1.81,0,0,0,.77-.15,1.6,1.6,0,0,0,.77.14,2,2,0,0,0,.73-.15,1.91,1.91,0,0,0,.74.1,2.49,2.49,0,0,0,.42-.06"/><path class="cls-16" d="M31.79,10.48a1.08,1.08,0,0,1,.62.22,1.13,1.13,0,0,1,.7.09c.37.15.57.42.45.59h0l.05,0c.12.16-.14.47-.59.68a1.67,1.67,0,0,1-.73.17,1.31,1.31,0,0,1-.73.36,1.7,1.7,0,0,1-.73,0,1.66,1.66,0,0,1-.69.26,1.88,1.88,0,0,1-.75,0,1.79,1.79,0,0,1-.72.23,1.74,1.74,0,0,1-.78,0,1.58,1.58,0,0,1-.74.22,1.84,1.84,0,0,1-.78-.07,1.87,1.87,0,0,1-.76.21,2,2,0,0,1-.73-.08,1.91,1.91,0,0,1-.73.17,1.67,1.67,0,0,1-.4,0"/><path class="cls-16" d="M22.45,13.61a1.6,1.6,0,0,0,.62.07,1.83,1.83,0,0,0,.66-.13"/><path class="cls-16" d="M24.29,19.47A2.77,2.77,0,0,1,26.12,19c2.67.12,3,2.11,3,2.11"/><path class="cls-16" d="M21.81,19.07l2.48.4"/><path class="cls-16" d="M24.37,21.48S22,20.88,21,20.66"/><path class="cls-16" d="M21.81,19.07c-.81-.15-2.38-.14-2.61.53s.77.85.77.85l1,.21"/><path class="cls-16" d="M21.87,19.08h-.06"/><path class="cls-16" d="M20.25,21.41l-2,0s-.95,0-.8-.68c.06-.28.33-.45.69-.57"/><path class="cls-16" d="M24.37,21.48l-4.12-.07"/><path class="cls-16" d="M20.73,22.22l-2,0s-1,0-.8-.69"/><path class="cls-16" d="M20.73,22.22c1.39,0,5.78,0,6.1,0a5.19,5.19,0,0,1,.54-.44"/><path class="cls-16" d="M15.71,17.72,17,17.66l17.22-.83a3.7,3.7,0,0,1-2.81,1.63"/><path class="cls-16" d="M14.55,19.12a3.82,3.82,0,0,1-2-1.25l4.28-.21"/><path class="cls-16" d="M28.49,19.58a4.55,4.55,0,0,0,2.85-1.12l-6.45.31-9.34.44a3.51,3.51,0,0,1-1-.09"/><path class="cls-16" d="M28.18,19.6l.31,0"/><path class="cls-16" d="M15.62,19.23a4.65,4.65,0,0,0,3.23.81h.33"/></g></svg>