<svg xmlns="http://www.w3.org/2000/svg" viewBox="0 0 340.27 174.29"><defs><style>.cls-1{fill:#0d773c;}.cls-2{fill:#f47951;}.cls-3,.cls-8{fill:#89d3de;}.cls-4{fill:#ea4827;}.cls-5{fill:#0077bf;}.cls-6{fill:#60c5b9;}.cls-13,.cls-7{fill:#1c204d;}.cls-13,.cls-14,.cls-8,.cls-9{stroke:#1c204d;}.cls-10,.cls-13,.cls-14,.cls-8,.cls-9{stroke-linecap:round;stroke-linejoin:round;stroke-width:0.8px;}.cls-10,.cls-9{fill:none;}.cls-10{stroke:#f8c6dc;}.cls-11{fill:#fff;}.cls-12{fill:#875b4a;}.cls-14{fill:#f9b730;}</style></defs><g id="Layer_1" data-name="Layer 1"><polygon class="cls-1" points="237.55 123.57 15.83 124.91 15.83 26.6 237.55 26.46 237.55 123.57"/><polygon class="cls-1" points="62.7 123.57 16.32 124.91 16.32 26.6 62.7 26.46 62.7 123.57"/><path class="cls-2" d="M294.78,112c0-3.56.17-7.11-1.16-10.49a19.16,19.16,0,0,0-1.23-2.63,2.12,2.12,0,0,0-.43-1.12,20.57,20.57,0,0,0-13.34-8.12,44.1,44.1,0,0,0-1.44-4.57s-.27-.29-.27-.3c-1.08-3.36-2.24-6.48-3.38-9.8-.87-2.53-1.74-5.4-3.9-7.15-2.45-2-6-1.57-9-1.62a.22.22,0,0,0,0-.08,20.67,20.67,0,0,0-.93-2.64,4,4,0,0,0-1.82-2.41l-.06,0a3.4,3.4,0,0,0-.34-.4,4.4,4.4,0,0,0-.93-.67,4.52,4.52,0,0,0-1.08-.4,1.55,1.55,0,0,0-.8,0,1.29,1.29,0,0,0-.46.14c-.5-.07-1-.11-1.5-.13-4.17-.19-8.37-.11-12.54,0a1.88,1.88,0,0,0-.6.13,1,1,0,0,0-1.82.55l0,2.24s0,.08,0,.12a2.55,2.55,0,0,0-.18,1.1,93.19,93.19,0,0,1,.21,10.3c-.17,3.4-.58,6.79-.43,10.21a3,3,0,0,0,.47,1.48,4.28,4.28,0,0,0-.17,1.06q-.21,9.1-.14,18.22c0,5.87.49,11.8,0,17.66-.28,3.56,4,4.86,6.45,3.12a3,3,0,0,0,1.48.41c2.82,0,6.14.19,8.88-.58,3.07-.87,2.11-3.94,3.22-6.17,2.16-4.36,5.53-8.57,10.92-7.92,4.89.59,6.9,5.09,8.47,9.15.94,2.42,1.57,4.84,4.48,5.23a15.17,15.17,0,0,0,7.71-1.09,2.9,2.9,0,0,0,3.05,1.63,3,3,0,0,0,2.61-3C294.79,119.64,294.79,115.84,294.78,112Z"/><path class="cls-3" d="M275.7,90.06H256.34l-.07-20.24,10.62-.21s1.49-.25,2.36,2.11S275.7,90.06,275.7,90.06Z"/><rect class="cls-4" x="237.63" y="66.2" width="7.52" height="57.6"/><path class="cls-5" d="M274.46,121.36c-.62-2.89-2.35-7.81-6-7.74a3.78,3.78,0,0,0-3.17,1.77,4.57,4.57,0,0,0-.48,1.34,1.37,1.37,0,0,1-.07.29,12.07,12.07,0,0,0-2,4.18,24.59,24.59,0,0,0,.07,10,2.46,2.46,0,0,0,.73,1.29,11,11,0,0,0,.55,1.91,2.93,2.93,0,0,0,.21.39,3.22,3.22,0,0,0-.12.78,3,3,0,0,0,3,3,3.23,3.23,0,0,0,1.57-.53l.08,0h.05l-.08.06.1-.06.25,0a3.14,3.14,0,0,0,1.62-.69h0a4,4,0,0,0,.57-.24,3.1,3.1,0,0,0,1.08-1.08v0a2.25,2.25,0,0,0,.34-1c.2-.62.41-1.24.58-1.87.19-.41.36-.83.51-1.24a1.72,1.72,0,0,0,.07-.21c.08-.23.16-.46.23-.69a2.59,2.59,0,0,0,.1-.61c0-.19.06-.38.07-.42.08-.4.17-.8.25-1.2a19.24,19.24,0,0,0,.35-2.61A18.41,18.41,0,0,0,274.46,121.36Z"/><path class="cls-5" d="M243.59,128a4.53,4.53,0,0,0-3.42,2l0,0a1.2,1.2,0,0,1-.11.1l-.07,0h0l-.05,0c-.19.11-.08,0,0,0l-.24.07-.15.05c-.2,0-.45,0-.56,0s-.42,0-.63-.06a2.64,2.64,0,0,0-1.22-1.74,4,4,0,0,0-2.59-.16,2,2,0,0,0-1.4,2.47c.2.51.41,1,.62,1.53a2.75,2.75,0,0,0,.55.86,1.74,1.74,0,0,0,0,1,6.71,6.71,0,0,0,2.52,3.82,4.21,4.21,0,0,0,4.64.07,7.67,7.67,0,0,0,2.58-3.56A14.88,14.88,0,0,0,245.6,130,2,2,0,0,0,243.59,128Z"/><path class="cls-6" d="M240,130.18h0Z"/><polyline class="cls-3" points="278.07 123.85 296.43 123.85 296.43 128.62 277.94 128.62"/><path class="cls-3" d="M254.3,123.85H130.53c-.21-.35-.43-.7-.65-1s-.31-.49-.46-.74c-.34-.67-.69-1.33-1-2,0,0,0,0,0,0a2.46,2.46,0,0,1-.09-.29,1,1,0,0,0-1.15-.7c-.91-.48-2.25-.19-3.19-.14l-5.31.28c-1.64.09-3.25.09-4.89,0s-3.29.22-4.94.12c-.31-.48-.86-.3-1.61-.3s-1.39-.05-1.67.56a1,1,0,0,0-.39,1.08s0,0,0,.07a18.74,18.74,0,0,0-1.9,2.92c-.08.13-.18.24-.27.36a1.73,1.73,0,0,0-1.38-.58c-1,.07-2,.15-3,.21q-1,.06-1.92,0l-.16-.07a2.38,2.38,0,0,0-2.08.42c-.47,0-30.9-.55-30.9,0a33.8,33.8,0,0,0,0,4.27c.18.86,31,.65,31.86.45a12.22,12.22,0,0,1,2.24-.55,19.61,19.61,0,0,1,2.54,0,22.28,22.28,0,0,0,2.45.08A1.85,1.85,0,0,0,104,128a3.46,3.46,0,0,0,.62-1.09q1-2.22,2-4.45a2.1,2.1,0,0,0,.64.1,1.77,1.77,0,0,0,1.63-1q1.45.11,2.91.12c3.33.47,6.65,0,10,.12,1.53,0,3.21.43,4.72.15a2.11,2.11,0,0,0,.43-.12,14,14,0,0,0,.77,1.36,40.59,40.59,0,0,0,2,3.57v2.07H238.43a.53.53,0,0,0-.1.06l-.16.21a1,1,0,0,0-.13.5l0,.27a1,1,0,0,0,.26.44l.24.19.06,0,.22.1a.92.92,0,0,0,.23.09,2.32,2.32,0,0,0,.38.06h.18l.32,0,.12,0a1.69,1.69,0,0,0,.28-.12l.06,0a.8.8,0,0,0,.29-.26.92.92,0,0,0,.18-.34.77.77,0,0,0,0-.4.63.63,0,0,0-.12-.37l-.15-.21a1.43,1.43,0,0,0-.27-.15H254.3Z"/><path class="cls-7" d="M116.59,137a5.42,5.42,0,0,1-2-2.75,10.53,10.53,0,0,1-1.13-3.29,34,34,0,0,1,0-7.88,1,1,0,0,0-1-1.27l-2.28.16a3.51,3.51,0,0,0-1.61.26,1.3,1.3,0,0,0-.42.51,1,1,0,0,0-.52-.5,1,1,0,0,0-1.25.41,20.33,20.33,0,0,0-1.1,2.48.85.85,0,0,0,0,.5l-.13,0,0,0a1.57,1.57,0,0,0-.77.69c-.23.44-.69.92-.28,1.24a1.85,1.85,0,0,0,1.86,0l0,0,.07,0,0,0c.06,0,.23.15,0,0a1.92,1.92,0,0,0,1.55.24c.36-.15.18-.55.17-1,0-.63-.07-1.26,0-1.88a.41.41,0,0,0,0-.11c0-.11,0-.09,0,.06,0,0,0-.17,0-.2l.12-.42a.49.49,0,0,1,0-.11,9.12,9.12,0,0,0,.19,1.28,2.64,2.64,0,0,0-.07.3,15.87,15.87,0,0,0,.79,5.85,25.59,25.59,0,0,0,2.37,5.22,3.24,3.24,0,0,0,1.84,1.55,10.41,10.41,0,0,0,3.82.19C117.78,138.44,117.55,137.5,116.59,137Z"/><path class="cls-7" d="M129.09,126.53,128,124.28l-.06-.12,0-.07v0a.65.65,0,0,1,0-.13s0-.13,0,0h0a1.48,1.48,0,0,1,0-.21,2.59,2.59,0,0,0-.1-.62,1.61,1.61,0,0,0-.63-.8,1,1,0,0,0-1.28,1.48c0,.1,0,.2,0,.3a4.29,4.29,0,0,0,.46,1.36,1,1,0,0,0-.35,1h0c-.05-.25,0-.06,0,0v0a1,1,0,0,0,.71,1.21,4.44,4.44,0,0,0,.89.06h0a1,1,0,0,0,1.2.17A1,1,0,0,0,129.09,126.53Z"/><path class="cls-7" d="M87.52,136.82a4.21,4.21,0,0,1-1.14-1.36,14.38,14.38,0,0,1-1-1.82,6.35,6.35,0,0,1-.85-3.84,1,1,0,0,0-1-1.27l-3.63.08a1,1,0,0,0-1,1.27A6.84,6.84,0,0,0,80,132v0a5.09,5.09,0,0,0,.57,1.89A27.11,27.11,0,0,0,82,136.34a4.85,4.85,0,0,0,.47.71,1.14,1.14,0,0,0,.92.49,4.23,4.23,0,0,0,.33.53,1.9,1.9,0,0,0,1.56.61c.56,0,1.91-.1,2.47-.12C88.76,138.53,88.4,137.33,87.52,136.82Z"/><path class="cls-5" d="M96.58,128.84a7.54,7.54,0,0,0-2.89-.31c-.93.18-3.4,0-4.35.1a20.25,20.25,0,0,1-4.92-.11c.11.29.68,2.86.79,3.15a3.12,3.12,0,0,0,.15.39c.43,1.06.47,2.25,1,3.27a5.13,5.13,0,0,0,4.44,2.93c1.8-.09,3.22-1.69,3.94-3.22s1.21-3.53,1.85-5.27c0,0,0-.07,0-.11C96.43,130.12,97.19,129,96.58,128.84Z"/><path class="cls-6" d="M53.05,128.72l.27,0h.37l-.08,0a27.26,27.26,0,0,0,6,0c1.32-.08,2.67-.35,4-.48v-4.51H14.86v4.91H52.34A1.29,1.29,0,0,1,53.05,128.72Z"/><path class="cls-5" d="M123.49,121.72a13,13,0,0,1-4.61.22c-1.74-.13-5-.79-5.41,1.6a11.94,11.94,0,0,0,0,2.8c0,.84.07,1.68.15,2.52a14.31,14.31,0,0,0,1.29,4.78c0,.05,0,.09,0,.13a6.45,6.45,0,0,0,2.46,3.82,4.87,4.87,0,0,0,1.85,1,3.15,3.15,0,0,0,2.83-1,8.64,8.64,0,0,0,2.17-3.72,29.27,29.27,0,0,0,1.14-4.79c.15-.91.28-1.82.4-2.74a11.92,11.92,0,0,0,.2-2.73A2,2,0,0,0,123.49,121.72Z"/><path class="cls-3" d="M121.24,122.76a1,1,0,0,0-1.23-.7l-1.2.21a1.74,1.74,0,0,0-1.18.5,2.31,2.31,0,0,0-.32,1.37c0,.39,0,.78-.06,1.18,0,.77,0,1.54,0,2.3a2.14,2.14,0,0,0,.73,1.67,1.92,1.92,0,0,0,.47,1.07,1.47,1.47,0,0,0,1.75.28c.81-.44,1.07-1.56,1.26-2.4A10.21,10.21,0,0,0,121.24,122.76Z"/><path class="cls-3" d="M91.84,129l-.15-.2a1.13,1.13,0,0,0-.45-.26l-.26,0a1,1,0,0,0-.43.11h0l.12,0a.67.67,0,0,1-.19,0h-.1a.78.78,0,0,0-.34,0,.81.81,0,0,0-.37.12,1.15,1.15,0,0,0-.46.6l0,.27a1,1,0,0,0,.14.5l.16.21a.92.92,0,0,0,.44.25,2.65,2.65,0,0,0,.48.07h.21a2.32,2.32,0,0,0,.46-.07,2.89,2.89,0,0,0,.44-.18.81.81,0,0,0,.29-.26,1,1,0,0,0,.18-.34.78.78,0,0,0,0-.4A.66.66,0,0,0,91.84,129Z"/><ellipse class="cls-8" cx="268.63" cy="125.8" rx="2.49" ry="4.93"/><ellipse class="cls-9" cx="268.61" cy="126.04" rx="6.33" ry="12.52"/><path class="cls-9" d="M268.61,113.52h-5.32c-3.49,0-6.32,5.61-6.32,12.52s2.83,12.52,6.32,12.52h5.11"/><path class="cls-9" d="M241.56,128.84c-.46,1.15-1.17,1.9-2,1.9s-1.51-.75-2-1.9"/><path class="cls-9" d="M245.75,128.84c-.64,5.57-3.16,9.72-6.17,9.72s-5.52-4.14-6.17-9.7"/><path class="cls-9" d="M228.09,128.84c.65,5.57,3.17,9.72,6.17,9.72h5.11"/><path class="cls-9" d="M254.3,128.62l.31-4.65c.52-7.8,5.5-13.91,11.58-13.91s11.1,6.18,11.58,14l.17,4.53"/><path class="cls-9" d="M121.58,128.87c-.45,1.14-1.16,1.87-2,1.87s-1.54-.78-2-2"/><path class="cls-9" d="M121.22,122a7.6,7.6,0,0,1,.9,3.81,8.34,8.34,0,0,1-.54,3.07"/><path class="cls-9" d="M117.64,128.76a8.34,8.34,0,0,1-.5-3A7.61,7.61,0,0,1,118,122"/><path class="cls-9" d="M125.77,129c-.66,5.51-3.17,9.6-6.16,9.6s-5.51-4.14-6.16-9.69"/><path class="cls-9" d="M125.64,122.2a23.63,23.63,0,0,1,.3,3.84,25.06,25.06,0,0,1-.17,2.92"/><path class="cls-9" d="M113.45,128.87a24.89,24.89,0,0,1,.14-6.67"/><path class="cls-9" d="M108.13,128.87c.65,5.55,3.17,9.69,6.17,9.69h5.11"/><path class="cls-9" d="M108.13,128.87A26,26,0,0,1,108,126a24.81,24.81,0,0,1,.3-3.84"/><path class="cls-9" d="M92.56,128.84c-.45,1.15-1.16,1.9-2,1.9s-1.51-.75-2-1.9"/><path class="cls-9" d="M96.76,128.84c-.65,5.57-3.17,9.72-6.17,9.72s-5.52-4.14-6.17-9.7"/><path class="cls-9" d="M79.1,128.84c.64,5.57,3.16,9.72,6.17,9.72h5.11"/><rect class="cls-9" x="15.83" y="26.46" width="46.87" height="97.17"/><rect class="cls-9" x="24.73" y="36.02" width="29.39" height="87.6"/><line class="cls-9" x1="254.3" y1="128.62" x2="130.14" y2="128.62"/><line class="cls-9" x1="256.85" y1="128" x2="254.31" y2="128"/><line class="cls-9" x1="277.82" y1="128" x2="275.03" y2="128"/><polyline class="cls-9" points="278.07 123.85 296.43 123.85 296.43 128.62 277.94 128.62"/><line class="cls-9" x1="130.69" y1="123.85" x2="254.31" y2="123.85"/><polyline class="cls-9" points="103.12 128.62 14.86 128.62 14.86 123.85 103.04 123.85"/><path class="cls-9" d="M277.94,123.8h16.94V106.55s.13-14-15.9-16.7l-7.42-19.59a6.3,6.3,0,0,0-5.89-4.06H245.16v57.6h9.31"/><line class="cls-9" x1="245.16" y1="66.2" x2="238.35" y2="66.2"/><path class="cls-9" d="M260.83,66.2s-1.06-6.78-6.4-6.78H238.35"/><path class="cls-9" d="M275.7,90.06H256.34l-.13-20.45h10.68s1.49-.25,2.36,2.11S275.7,90.06,275.7,90.06Z"/><line class="cls-9" x1="252.6" y1="69.6" x2="252.6" y2="107.99"/><line class="cls-9" x1="63.61" y1="123.85" x2="63.61" y2="128.62"/><polyline class="cls-9" points="130.14 128.63 126.91 121.93 106.66 121.93 103.29 128.62"/><polyline class="cls-9" points="103.05 123.85 105.8 119.04 128.32 119.04 130.69 123.85"/><line class="cls-9" x1="103.65" y1="127.91" x2="107.97" y2="127.91"/><line class="cls-9" x1="125.94" y1="127.91" x2="129.78" y2="127.91"/><polyline class="cls-9" points="62.7 26.46 237.55 26.46 237.55 123.57"/><path class="cls-7" d="M278.21,126.92a.7.7,0,0,0-.18-.34s0,0,0,0-.05-.14-.07-.21a.7.7,0,0,0-.18-.34.59.59,0,0,0-.18-.17c0-.78-.22-1.58-.28-2.11-.37-3.2-1-6.53-2.92-9.21a6.3,6.3,0,0,0-2.51-2,.9.9,0,0,0-.46-.67,17.73,17.73,0,0,0-4.19-1.43,6.52,6.52,0,0,0-3.56,0l-.08,0-.56.27a1.2,1.2,0,0,0-.46.67,5.1,5.1,0,0,0-1.88.74,11.38,11.38,0,0,0-3.16,3.36c-2,3.14-2.43,6.86-2.76,10.48a1,1,0,0,0-.11.51l0,.41a1,1,0,0,0,2,0,36,36,0,0,1,1.05-6.93c-.22,1.31-.43,2.62-.65,3.92a2.53,2.53,0,0,0,.19,1.44s0,0-.06.07A5.81,5.81,0,0,0,257,129a12.19,12.19,0,0,0,.73,2.66c.38,1,.82,2,1.27,2.9a5.34,5.34,0,0,0,1.59,2.33,1,1,0,0,0,.2.31c1,1.15,2.76,1.25,4.19,1.5a1,1,0,0,0,1.13-.46,1,1,0,0,0-.15-1.21,12.67,12.67,0,0,1-1.08-1c-.16-.18-.32-.35-.47-.53l-.11-.13-.07-.09-.06-.07-.12-.17c-.15-.21-.28-.44-.42-.67-.26-.66-.53-1.32-.79-2h0a1.26,1.26,0,0,0,0-.33q-.29-3.27-.63-6.52a2.49,2.49,0,0,0-.35-1,11.28,11.28,0,0,1,.67-2.75,19.22,19.22,0,0,1,1.05-2.73c.87-1.8,1.94-3.48,2.65-5.35a.8.8,0,0,0,0-.4h0a16.51,16.51,0,0,1,4.95,1.09c1.35.58,2.1,2.08,2.64,3.37a18.65,18.65,0,0,1,1.18,4.33c.13.77.22,1.54.3,2.32l.05.29a.89.89,0,0,0-.46.82c0,.72-.28,1.29.2,1.93a1.35,1.35,0,0,0,1.32.56.73.73,0,0,0,.22.24.75.75,0,0,0,.34.18l.27,0a.71.71,0,0,0,.38-.09.45.45,0,0,0,.23-.13.76.76,0,0,0,.25-.28l.11-.24a1.19,1.19,0,0,0,0-.53Z"/><path class="cls-7" d="M236.68,136.91a4.72,4.72,0,0,0-.92-.75c0-.06,0-.11,0-.16l-.07-.54a2,2,0,0,0-.52-.88l-.42-.52.06-.45a2,2,0,0,0-.27-1,7.17,7.17,0,0,0-.69-1.2c-.1-.14-.23-.25-.34-.39a3,3,0,0,0-.52-1.95c-.58-.55-1.32-.19-2-.21a2.88,2.88,0,0,1-1.46-.45,1,1,0,0,0-1.48,1.13,17.87,17.87,0,0,0,3.28,7.39,1.11,1.11,0,0,0,1,.48v0a1.94,1.94,0,0,0,.24.15,2,2,0,0,0,1.19.79c.72.14,1.46.18,2.19.27a1,1,0,0,0,.91-.62A1,1,0,0,0,236.68,136.91Z"/><line class="cls-9" x1="24.73" y1="40.35" x2="54.13" y2="40.35"/><line class="cls-9" x1="24.73" y1="45.11" x2="54.13" y2="45.11"/><line class="cls-9" x1="24.73" y1="49.87" x2="54.13" y2="49.87"/><line class="cls-9" x1="24.73" y1="54.78" x2="54.13" y2="54.78"/><line class="cls-9" x1="24.73" y1="59.54" x2="54.13" y2="59.54"/><line class="cls-9" x1="24.73" y1="64.3" x2="54.13" y2="64.3"/><line class="cls-9" x1="24.73" y1="69.06" x2="54.13" y2="69.06"/><line class="cls-9" x1="24.73" y1="73.97" x2="54.13" y2="73.97"/><line class="cls-9" x1="24.73" y1="78.73" x2="54.13" y2="78.73"/><path class="cls-4" d="M107,40.81H99.63a3.3,3.3,0,0,0-3.06,2.49l-6.7,22.18L83.13,43.3a3.3,3.3,0,0,0-3.06-2.49H72.78a3.49,3.49,0,0,0-3.24,3.7V105a3.5,3.5,0,0,0,3.24,3.71h7.58A3.5,3.5,0,0,0,83.6,105V91l1.27,4.43A3.31,3.31,0,0,0,88,97.93h3.79a3.3,3.3,0,0,0,3.08-2.54l1.34-4.65V105a3.5,3.5,0,0,0,3.24,3.71H107a3.5,3.5,0,0,0,3.24-3.71V44.51A3.49,3.49,0,0,0,107,40.81Z"/><path class="cls-4" d="M143.21,40.81h-8a3.33,3.33,0,0,0-3.11,2.67L129,55.55l-3.06-12.07a3.35,3.35,0,0,0-3.11-2.67h-8a3.16,3.16,0,0,0-2.64,1.55,4.17,4.17,0,0,0-.43,3.35L122,80.05v25a3.5,3.5,0,0,0,3.24,3.71h7.59A3.5,3.5,0,0,0,136,105v-25l10.24-34.34a4.21,4.21,0,0,0-.43-3.35A3.16,3.16,0,0,0,143.21,40.81Z"/><path class="cls-4" d="M178,53.37a17.47,17.47,0,0,0-3.43-7.13A13.8,13.8,0,0,0,169,42a17.76,17.76,0,0,0-6.56-1.14H151a3.49,3.49,0,0,0-3.24,3.7V105a3.5,3.5,0,0,0,3.24,3.71h7.58a3.5,3.5,0,0,0,3.24-3.71V85.1h.63A15.47,15.47,0,0,0,170.88,83a15.28,15.28,0,0,0,5.35-5.92,19.81,19.81,0,0,0,2.19-6.61,53.41,53.41,0,0,0,.45-7.5A43.6,43.6,0,0,0,178,53.37Zm-12.85,11a10.51,10.51,0,0,1-.22,1.46c0,.19,0,.37,0,.55a1.63,1.63,0,0,1,.09.49,3,3,0,0,1-.62,2.06,2.5,2.5,0,0,1-1.75.83c-.57.07-1-.44-1.15-1a1.06,1.06,0,0,1,0-.19,1.74,1.74,0,0,1,0-.22,68.79,68.79,0,0,1-.05-7.18,9.25,9.25,0,0,1,0-2.83v-.08s0-.08,0-.12a1.47,1.47,0,0,1,.87-1.75,1.69,1.69,0,0,1,.89,0,1.2,1.2,0,0,1,.87.4,2.64,2.64,0,0,1,.64.72,6.21,6.21,0,0,1,.62,2.38,20.34,20.34,0,0,1,.09,2.34C165.3,62.93,165.25,63.66,165.17,64.39Z"/><path class="cls-4" d="M191.1,40.81h-7.59a3.5,3.5,0,0,0-3.24,3.7V105a3.5,3.5,0,0,0,3.24,3.71h7.59a3.5,3.5,0,0,0,3.24-3.71V44.51A3.49,3.49,0,0,0,191.1,40.81Z"/><path class="cls-4" d="M223.08,56.38a3.5,3.5,0,0,0,3.24-3.71V44.51a3.49,3.49,0,0,0-3.24-3.7H200.47a3.49,3.49,0,0,0-3.24,3.7V105a3.5,3.5,0,0,0,3.24,3.71h22.61a3.5,3.5,0,0,0,3.24-3.71V96.36a3.5,3.5,0,0,0-3.24-3.71H211.3V82.29h9.85a3.5,3.5,0,0,0,3.24-3.7V70.43a3.5,3.5,0,0,0-3.24-3.7H211.3V56.38Z"/><path class="cls-9" d="M107,40.81H99.63a3.3,3.3,0,0,0-3.06,2.49l-6.7,22.18L83.13,43.3a3.3,3.3,0,0,0-3.06-2.49H72.78a3.49,3.49,0,0,0-3.24,3.7V105a3.5,3.5,0,0,0,3.24,3.71h7.58A3.5,3.5,0,0,0,83.6,105V91l1.27,4.43A3.31,3.31,0,0,0,88,97.93h3.79a3.3,3.3,0,0,0,3.08-2.54l1.34-4.65V105a3.5,3.5,0,0,0,3.24,3.71H107a3.5,3.5,0,0,0,3.24-3.71V44.51A3.49,3.49,0,0,0,107,40.81Z"/><path class="cls-9" d="M143.21,40.81h-8a3.33,3.33,0,0,0-3.11,2.67L129,55.55l-3.06-12.07a3.35,3.35,0,0,0-3.11-2.67h-8a3.16,3.16,0,0,0-2.64,1.55,4.17,4.17,0,0,0-.43,3.35L122,80.05v25a3.5,3.5,0,0,0,3.24,3.71h7.59A3.5,3.5,0,0,0,136,105v-25l10.24-34.34a4.21,4.21,0,0,0-.43-3.35A3.16,3.16,0,0,0,143.21,40.81Z"/><path class="cls-9" d="M174.59,46.24A13.8,13.8,0,0,0,169,42a17.76,17.76,0,0,0-6.56-1.14H151a3.49,3.49,0,0,0-3.24,3.7V105a3.5,3.5,0,0,0,3.24,3.71h7.58a3.5,3.5,0,0,0,3.24-3.71V85.1h.63a14.34,14.34,0,0,0,13.76-8,19.81,19.81,0,0,0,2.19-6.61,53.41,53.41,0,0,0,.45-7.5,43.6,43.6,0,0,0-.85-9.58A17.47,17.47,0,0,0,174.59,46.24Z"/><path class="cls-9" d="M191.1,40.81h-7.59a3.5,3.5,0,0,0-3.24,3.7V105a3.5,3.5,0,0,0,3.24,3.71h7.59a3.5,3.5,0,0,0,3.24-3.71V44.51A3.49,3.49,0,0,0,191.1,40.81Z"/><path class="cls-9" d="M223.08,56.38a3.5,3.5,0,0,0,3.24-3.71V44.51a3.49,3.49,0,0,0-3.24-3.7H200.47a3.49,3.49,0,0,0-3.24,3.7V105a3.5,3.5,0,0,0,3.24,3.71h22.61a3.5,3.5,0,0,0,3.24-3.71V96.36a3.5,3.5,0,0,0-3.24-3.71H211.3V82.29h9.85a3.5,3.5,0,0,0,3.24-3.7V70.43a3.5,3.5,0,0,0-3.24-3.7H211.3V56.38Z"/><path class="cls-2" d="M107,107H99.4a1.62,1.62,0,0,1-1.5-1.72V78.62L93.17,95a1.54,1.54,0,0,1-1.43,1.18H88A1.54,1.54,0,0,1,86.52,95L81.87,78.71v26.54A1.63,1.63,0,0,1,80.36,107H72.78a1.63,1.63,0,0,1-1.51-1.72V44.73A1.62,1.62,0,0,1,72.78,43h7.29a1.53,1.53,0,0,1,1.42,1.15l8.39,27.6,8.33-27.6A1.53,1.53,0,0,1,99.63,43H107a1.62,1.62,0,0,1,1.51,1.71v60.52A1.63,1.63,0,0,1,107,107Zm-6.08-3.44h4.58V46.45H100.7L91.38,77.34A1.54,1.54,0,0,1,90,78.5a1.72,1.72,0,0,1-1.57-1.16L79,46.45H74.28v57.08h4.58V68.44a1.61,1.61,0,0,1,1.5-1.71,1.7,1.7,0,0,1,1.58,1.18L89,92.73h1.62L97.83,67.9a1.53,1.53,0,0,1,1.43-1.17,1.73,1.73,0,0,1,1.65,1.71Z"/><path class="cls-2" d="M132.8,107h-7.59a1.62,1.62,0,0,1-1.5-1.72V80L113.37,45.29a1.93,1.93,0,0,1,.21-1.56A1.44,1.44,0,0,1,114.8,43h8a1.53,1.53,0,0,1,1.44,1.24L129,62.9l4.73-18.64A1.55,1.55,0,0,1,135.18,43h8a1.44,1.44,0,0,1,1.22.71,1.93,1.93,0,0,1,.2,1.56L134.3,80v25.3A1.62,1.62,0,0,1,132.8,107Zm-6.09-3.44h4.58V79.66a2,2,0,0,1,.08-.55l9.74-32.66h-4.8l-5.79,22.81a1.54,1.54,0,0,1-1.44,1.24,1.72,1.72,0,0,1-1.6-1.24L121.7,46.45h-4.8l9.73,32.66a2,2,0,0,1,.08.55Z"/><path class="cls-2" d="M158.6,107H151a1.63,1.63,0,0,1-1.51-1.72V44.73A1.62,1.62,0,0,1,151,43h11.37a16.44,16.44,0,0,1,6,1,12.08,12.08,0,0,1,4.92,3.77,15.34,15.34,0,0,1,3,6.3,41.38,41.38,0,0,1,.8,9.06,50.36,50.36,0,0,1-.43,7.18,17.86,17.86,0,0,1-2,5.89A13.51,13.51,0,0,1,170,81.46a13.88,13.88,0,0,1-7.57,1.88H160.1v21.91A1.62,1.62,0,0,1,158.6,107Zm-6.08-3.44h4.58V81.62a1.62,1.62,0,0,1,1.5-1.72h3.87a11.3,11.3,0,0,0,6.11-1.44,10.42,10.42,0,0,0,3.61-4,14.13,14.13,0,0,0,1.55-4.67,46.84,46.84,0,0,0,.39-6.61,38,38,0,0,0-.69-8.18,11.86,11.86,0,0,0-2.33-4.84,9.06,9.06,0,0,0-3.7-2.85,13.71,13.71,0,0,0-5-.85h-9.87Zm9.73-28.35H158.6a1.62,1.62,0,0,1-1.5-1.72V52.9a1.62,1.62,0,0,1,1.5-1.72h3.94a7.53,7.53,0,0,1,4.16,1,6.29,6.29,0,0,1,2.41,3,11.76,11.76,0,0,1,.81,4c.05,1.29.08,2.67.08,4.11s0,3-.12,4.29a10.48,10.48,0,0,1-.88,3.83,6.17,6.17,0,0,1-2.48,2.84A8.26,8.26,0,0,1,162.25,75.18Zm-2.15-3.44h2.15a5.72,5.72,0,0,0,2.87-.56,3,3,0,0,0,1.21-1.38,6.89,6.89,0,0,0,.55-2.49c.07-1.21.11-2.56.11-4.05s0-2.71-.07-4a8,8,0,0,0-.53-2.7,3,3,0,0,0-1.17-1.45,5,5,0,0,0-2.68-.54H160.1Z"/><path class="cls-9" d="M161.4,70h1.24a2.52,2.52,0,0,0,1.66-.45,2.29,2.29,0,0,0,.7-1.12,6.87,6.87,0,0,0,.32-2c.05-1,.07-2.07.07-3.27s0-2.2,0-3.21a8.5,8.5,0,0,0-.3-2.18,2.35,2.35,0,0,0-.68-1.17,2.18,2.18,0,0,0-1.55-.44H161.4Z"/><path class="cls-2" d="M191.1,107h-7.59a1.62,1.62,0,0,1-1.5-1.72V44.73a1.62,1.62,0,0,1,1.5-1.71h7.59a1.62,1.62,0,0,1,1.5,1.71v60.52A1.62,1.62,0,0,1,191.1,107ZM185,103.53h4.58V46.45H185Z"/><path class="cls-2" d="M223.08,107H200.47a1.62,1.62,0,0,1-1.5-1.72V44.73a1.62,1.62,0,0,1,1.5-1.71h22.61a1.62,1.62,0,0,1,1.5,1.71V52.9a1.62,1.62,0,0,1-1.5,1.71H209.56V68.94h11.59a1.62,1.62,0,0,1,1.5,1.72v8.15a1.62,1.62,0,0,1-1.5,1.72H209.56V94.86h13.52a1.62,1.62,0,0,1,1.5,1.72v8.67A1.62,1.62,0,0,1,223.08,107ZM202,103.53h19.61V98.3H208.06a1.62,1.62,0,0,1-1.51-1.72V78.81a1.62,1.62,0,0,1,1.51-1.72h11.58V72.38H208.06a1.62,1.62,0,0,1-1.51-1.72V52.9a1.62,1.62,0,0,1,1.51-1.72h13.52V46.45H202Z"/><path class="cls-10" d="M91.31,94H87.74L80.5,69.7v35.5H72.81V44.91c.25-.06,7.37,0,7.37,0l9.71,30.87"/><path class="cls-10" d="M88.43,94H92L99.24,69.7v35.5h7.69V44.91c-.25-.06-7.36,0-7.36,0L89.86,75.77"/><polyline class="cls-10" points="128.89 67.32 122.89 44.88 114.8 44.88 125.19 79.56 125.19 105.19 129 105.19"/><polyline class="cls-10" points="128.9 67.32 134.9 44.88 142.99 44.88 132.59 79.56 132.59 105.19 128.78 105.19"/><path class="cls-10" d="M150.8,44.88l14,0s10.88-.45,10.88,18.87c0,18.49-11.2,18-11.2,18h-5.84l-.06,23.49h-7.44Z"/><path class="cls-10" d="M158.68,64.71V52.93H163c3.75,0,5.37,1.93,5.55,9.31V64c-.18,7.37-1.8,9.31-5.55,9.31h-4.32v-8.7"/><polygon class="cls-10" points="183.65 44.88 190.93 44.88 191.43 105.19 183.65 105.19 183.65 44.88"/><polygon class="cls-10" points="200.33 44.84 222.83 44.84 222.83 52.93 208.33 52.93 208.33 70.74 220.97 70.74 220.97 78.5 208.4 78.5 208.4 96.46 222.83 96.46 222.83 105.19 200.33 105.19 200.33 44.84"/><path class="cls-6" d="M256.29,85.16a8.64,8.64,0,0,1,.6-2.35,4.69,4.69,0,0,1,1.17-1.65,2.85,2.85,0,0,1,1.84-.87,1.35,1.35,0,0,1,.74.42,7.34,7.34,0,0,0,1,.71,16.33,16.33,0,0,0,2.24,1s0,0,.06,0a4.13,4.13,0,0,0,1.75,0,1.72,1.72,0,0,1,1.67.22,3.44,3.44,0,0,1,.83,1.42l.92,2.18c.18.44-.35.83-.75.72l.07.21a.46.46,0,0,1,.12.34v0l.14.44a.57.57,0,0,1-.34.69.59.59,0,0,1-.73-.24l0-.07a.78.78,0,0,1-.22,0c-.89-.07-1.78-.16-2.66-.2a8.78,8.78,0,0,0-2.46.22.89.89,0,0,1-.86-1.47l.05-.05a12.9,12.9,0,0,0-2.24-.06,6.12,6.12,0,0,1-2.45,0C256,86.61,256.21,85.81,256.29,85.16Z"/><path class="cls-2" d="M256.72,87.31a.6.6,0,0,1,.86-.35c.39.17,1.06-.08,1.46-.12a4.14,4.14,0,0,1,1.61.18.59.59,0,0,1,.35.86c0,.05.47.55.43.64.42.44,1.75-.42,2.32-.3.83.18,3.1.2,3.94.26a5.67,5.67,0,0,1,1.54.8,1.36,1.36,0,0,1-.23-.34,2.81,2.81,0,0,1-.1-.31,1,1,0,0,1,0-.17s0-.08,0-.11v0h0a2.85,2.85,0,0,1-.07-.71.3.3,0,0,1,.37-.29.87.87,0,0,1,.26.16.21.21,0,0,1,.08.17,4.71,4.71,0,0,1,.7,1.7.29.29,0,0,1-.08.28.29.29,0,0,1-.29.08l-.12-.06c.2.18.27.3.08.28A10.33,10.33,0,0,0,264,91.36l-.13.09a.82.82,0,0,1-.59.6l-.28.06-.3.2c-.84.52-2,1.11-3,.74s-1.45-1.45-1.87-2.42l-.7-1.64C256.93,88.5,256.5,87.86,256.72,87.31Z"/><line class="cls-9" x1="257.22" y1="89.92" x2="256.79" y2="89.92"/><path class="cls-9" d="M268.07,83.38c1.13,3,2.44,6.54,2.44,6.54h-2.75"/><path class="cls-2" d="M263.4,73.14c0-.07,0-.07,0,0v0Z"/><path class="cls-2" d="M257.12,70.26a.24.24,0,0,0,0,.08,3.09,3.09,0,0,0,.14.32,2.26,2.26,0,0,0,.23.31l.05,0a2.19,2.19,0,0,0,.35.27,3.43,3.43,0,0,0,.44.19l.16,0a.76.76,0,0,0,.16,0,.9.9,0,0,0,0,.54.89.89,0,0,0,.85.65,8,8,0,0,1,1.29-.07l.32,0h.12c.24,0,.48.07.73.09s.78,0,1.17.07l.26,0c-.16,0,.06,0,.1,0a1.21,1.21,0,0,0-.05.18v0s0,0,0,.05v0s0,0,0,0a.41.41,0,0,0-.05.09,2.52,2.52,0,0,1-.15.24.36.36,0,0,1-.07.1c-.06.07-.11.14-.18.21l-.2.19-.09.08-.08.07h0l-.11.08-.25.15-.25.14h0l-.09,0-.2,0c-.07,0-.06,0,0,0s-.23,0-.29,0l-.71,0a1,1,0,0,0-.64.3c-.59-.08-1.3-.08-1.25.71,0,.45.48.83.71,1.18a3.55,3.55,0,0,1,.57,1.54,6.84,6.84,0,0,0,.12,1.57c.14.34.58.56.88.75a12,12,0,0,0,4.39,1.84,2.35,2.35,0,0,0,1.23.09c.41-.16.56-.62.75-1a6.91,6.91,0,0,0,.64-1.31c.28-1-.44-2-.53-3S267.75,75,269,75a.59.59,0,0,0,.41-1c-.29-.38-.77-.4-1.12-.7a3,3,0,0,1-.74-1.16,7.55,7.55,0,0,1-.67-3.53.57.57,0,0,0-.3-.51,11.7,11.7,0,0,0-2-.62s0,0-.08-.06a6,6,0,0,0-1.56-.74.58.58,0,0,0-.41,0,3.73,3.73,0,0,1-.57-.41.58.58,0,0,0-.83,0,1.36,1.36,0,0,0-.26,1.39.58.58,0,0,0,.05.16s0,0,0,.08a2.08,2.08,0,0,1-.24.47l-.38.77a1.13,1.13,0,0,1-.1-.13,3.26,3.26,0,0,0-.36-.29l-.17-.1a3.43,3.43,0,0,0-.44-.19,3.11,3.11,0,0,0-.44-.07h-.15a1.61,1.61,0,0,0-.43.07,1.44,1.44,0,0,0-.49.26,1.09,1.09,0,0,0-.17.13,1.86,1.86,0,0,0-.21.28,1.55,1.55,0,0,0-.18.55A1.47,1.47,0,0,0,257.12,70.26Z"/><path class="cls-11" d="M261,69.73l-.06-.76a3.09,3.09,0,0,1,.12-.74c.2-.07.38-.15.57-.23l.09,0a.52.52,0,0,0,.22-.14l.08-.1a.35.35,0,0,0,.05-.13l.39,0a1.26,1.26,0,0,1,.91.3,1.66,1.66,0,0,1,.1,1.78,5.13,5.13,0,0,1-.49.81,1.91,1.91,0,0,1-.31.34l-.09,0,0,0,0,0-.22-.18a1.41,1.41,0,0,0-.59-.32,4,4,0,0,0-.69-.12,1.41,1.41,0,0,1-.22-.06A.42.42,0,0,0,261,69.73Z"/><path class="cls-9" d="M260.4,89.05s4.9-2.27,9.39.72"/><path class="cls-9" d="M258.15,91.81a2.46,2.46,0,0,0,2,1.37,3.85,3.85,0,0,0,2.69-.8c1.35-1,2.74-2.46,4.8-2.46"/><path class="cls-9" d="M261.43,88.52a4.67,4.67,0,0,1-.35-1.42"/><path class="cls-9" d="M257.85,91.21a13.4,13.4,0,0,1-1.27-4.11"/><path class="cls-9" d="M258.15,91.81q-.15-.28-.3-.6"/><path class="cls-9" d="M267.14,82.32c.08,0,.24.39.93,1.06"/><path class="cls-12" d="M262.19,64.23a1,1,0,0,0,.32-.87c.69.3,1.37.61,2.05.93,1.26.58,2.6,1,3.84,1.63s2.32,1.45,3.58,2a6.82,6.82,0,0,0,2.95.92c0,.14,0,.28,0,.42s0,.15-.05.22a1.09,1.09,0,0,0,.07.79c-.06.35-.13.69-.22,1a30.31,30.31,0,0,1-1.21,3.47,26.44,26.44,0,0,1-1.45,3.53,15.85,15.85,0,0,1-.9,1.4c-.26.37-.6.67-.87,1-.6-.11-1.54.39-2.13.22a1.05,1.05,0,0,1-.15-.3.7.7,0,0,0-.21-1.24c0-.22,0-.43-.07-.59a8.12,8.12,0,0,1,.3-3.53.54.54,0,0,0,0-.42l0,0a2.23,2.23,0,0,0,.63,0c.2,0,.4-.06.6-.11a.49.49,0,0,0,.3-.23.72.72,0,0,0,.07-.25.53.53,0,0,0-.37-.49l-.44-.12a.63.63,0,0,0-.09-.25A26,26,0,0,1,267,70.6a4.52,4.52,0,0,1-.36-1.4l.15-.12s-.06-.16-.19-.33a1,1,0,0,0-.3-.61,3.59,3.59,0,0,0-1.4-.65c-.58-.2-1.13-.45-1.69-.7-.85-.4-1.7-.82-2.56-1.2C261.14,65.13,261.66,64.67,262.19,64.23Z"/><path class="cls-9" d="M260.92,66.78s-.3.54,0,.69"/><path class="cls-9" d="M260.94,66.73a5.16,5.16,0,0,1,.36-.64"/><path class="cls-9" d="M258.67,74.79a2.57,2.57,0,0,0,.17,1.49c.49,1.17,1.46,2.09,1.29,3.9a4,4,0,0,0-3.25,2.42"/><path class="cls-9" d="M259.07,71.59a.83.83,0,0,0-.43.53.52.52,0,0,0,.29.53"/><path class="cls-9" d="M260.8,69.87A3.87,3.87,0,0,1,263.06,71"/><path class="cls-13" d="M261.44,68.3a.32.32,0,0,0,.23.39.32.32,0,1,0,.17-.62A.32.32,0,0,0,261.44,68.3Z"/><path class="cls-9" d="M268.38,80.26l-.18.24a4.43,4.43,0,0,0-1.06,1.82"/><path class="cls-9" d="M259.07,71.58a1.59,1.59,0,0,1-.75,0,1.64,1.64,0,0,1,.84-3.18,1.83,1.83,0,0,1,1.07.92l.72-1.83"/><path class="cls-9" d="M267.87,74.63a1.4,1.4,0,0,1-.34-1.11"/><path class="cls-9" d="M270,74.22a1.58,1.58,0,0,1-1.69.64,1,1,0,0,1-.41-.23"/><path class="cls-9" d="M268.64,73.57a2,2,0,0,1-.22.27"/><path class="cls-9" d="M273,65.1c1.3,1.52,2.72,4.48.92,8.68"/><path class="cls-9" d="M261.18,69.92a1.36,1.36,0,0,1,1.7-2,1.35,1.35,0,0,1-.36,2.56"/><path class="cls-9" d="M258.7,74.76s3.89.87,4.84-1.78l-4.61-.33"/><line class="cls-9" x1="259.35" y1="72.9" x2="259.15" y2="73.8"/><path class="cls-9" d="M262.48,74.32s-3.33-.52-3.33-.52"/><path class="cls-9" d="M268.28,74.86s-1.84,3.73.53,5.5"/><path class="cls-9" d="M267.94,80.86s2.1,1.53,4.57-3.74c.56-1.19,1.23-2.88,1.57-3.72"/><path class="cls-9" d="M270.37,74.22s-3.48-.11-3.72-6.14"/><path class="cls-9" d="M266.87,68.19l-6.07-2.44s2.3-4.35,8.08-2.86"/><path class="cls-14" d="M258.35,62.23l16.42,8.21s1.66-5.67-3.25-8.21c-5.29-2.74-9.23,1.82-9.23,1.82"/><path class="cls-9" d="M260.13,80.18s3.95,3.07,7,2.14"/><path class="cls-9" d="M267.47,84.29a20.09,20.09,0,0,1,1.39,4.93"/><path class="cls-9" d="M256.82,82.75a14.41,14.41,0,0,0-.53,2.41"/><path class="cls-9" d="M261.13,86.94a15.11,15.11,0,0,0-2.31-.15,12.7,12.7,0,0,0-2.58.21"/><path class="cls-9" d="M261.23,87.4c.32-.06.5-.14.5-.22s-.23-.17-.6-.24"/><line class="cls-9" x1="261.67" y1="86.32" x2="261.59" y2="84.97"/><line class="cls-9" x1="261.73" y1="87.18" x2="261.67" y2="86.32"/><path class="cls-9" d="M268.43,87.1s.68.08,1,.08"/><path class="cls-7" d="M256.3,88.27a.29.29,0,0,1,.18-.13.25.25,0,0,1,.22,0,.26.26,0,0,1,.14.17c.05.37.1.75.16,1.12a.37.37,0,0,1,0,.23.29.29,0,0,1-.18.13.25.25,0,0,1-.22,0,.29.29,0,0,1-.14-.17l-.16-1.12A.37.37,0,0,1,256.3,88.27Z"/><line class="cls-9" x1="256.25" y1="77.16" x2="256.25" y2="89.79"/><rect class="cls-7" x="34.52" y="78.73" width="19.61" height="44.84"/></g></svg>