<svg xmlns="http://www.w3.org/2000/svg" viewBox="0 0 62 38"><defs><style>.cls-1,.cls-4{fill:#f9b730;}.cls-2{fill:none;}.cls-2,.cls-4{stroke:#1c204d;stroke-linecap:round;stroke-linejoin:round;stroke-width:0.4px;}.cls-3{fill:#fff;}.cls-5{fill:#1d1c4c;}.cls-6{fill:#af6e30;}</style></defs><g id="Layer_1" data-name="Layer 1"><path class="cls-1" d="M19.4,19a4.3,4.3,0,0,1-.62,0,9,9,0,0,0-1.26.23L15,19.67q-2.94.61-5.9,1.15a.26.26,0,0,0-.13.06,1,1,0,0,0-.8-.69c-.36-.07-.56-.06-.75-.38a1.22,1.22,0,0,0-.4-.52.74.74,0,0,0-.94.3,1,1,0,0,0,0,1.05l0,0a11.16,11.16,0,0,1-1.8.41c-.29.08-.75.18-.87.5a.34.34,0,0,0,.1.37c.24.22.13.23-.08.4a.56.56,0,0,0-.24.43c0,.6.68.33,1,.53a.57.57,0,0,0-.19.45.29.29,0,0,0,.18.25l.07,0s0,0,0,0,.12,0,.26,0c1.06-.14,2.12-.15,3.17-.33a2,2,0,0,0,1.61-1.14h0a44.26,44.26,0,0,0,6.54-1.3c1.07-.23,2.22-.35,3.26-.64.64-.17.66-.68.68-1.31C19.74,19.14,19.62,18.93,19.4,19Z"/><path class="cls-2" d="M9,21.21a1,1,0,0,0-.95-1s-.51,0-.66-.3-.2-.7-.68-.69-.84.39-.84,1,.77.78.77.78"/><path class="cls-2" d="M6.55,21.3a2.28,2.28,0,0,0,.31,1.52"/><path class="cls-2" d="M7.32,21.21a1.09,1.09,0,0,0,.58.22"/><path class="cls-2" d="M8.43,21.73a1.09,1.09,0,0,0-1,1"/><path class="cls-2" d="M6.52,21.73l-2.72.39c-.91.13-.77.74-.77.74s.13.53.84.38l2.89-.59"/><path class="cls-2" d="M6.13,20.74l-2,.31s-.9.09-.83.69.84.33.84.33"/><path class="cls-2" d="M4.32,23.15s-.5.19-.44.56.54.38,1.22.29c0,0,1.94-.22,2.54-.33s1.59-.43,1.56-1.5"/><path class="cls-2" d="M9,20.84c.06,0,9.41-1.89,9.41-1.89"/><line class="cls-2" x1="9.13" y1="22.67" x2="19.36" y2="20.56"/><path class="cls-1" d="M15.34,16s.37-.51.59-.57"/><path class="cls-1" d="M12.89,14.41a4.32,4.32,0,0,1,.75-.17"/><path class="cls-1" d="M14.59,12.57s.38.2.41.37"/><path class="cls-1" d="M49,10.56a.43.43,0,0,0-.09-.1s0,0,0,0c.18-.38-.21-.95-.87-1.26A1.62,1.62,0,0,0,46.82,9a1.68,1.68,0,0,0-1.09-.43,2,2,0,0,0-.86.13,23.26,23.26,0,0,0-14.7-3.43,23.74,23.74,0,0,0-13.73,6.55,1.81,1.81,0,0,0-.88.06,1.67,1.67,0,0,0-1,.65,1.63,1.63,0,0,0-1.15.39c-.58.45-.84,1.08-.58,1.42l0,0a.36.36,0,0,0-.07.1c-.15.4.39,1,1.21,1.3a2.48,2.48,0,0,0,1.31.18,1.93,1.93,0,0,0,.93.49l2.46,7c.64,1.06,6.09,1.43,13.05.71l.19,0,.2,0h.06c7.24-.79,12.73-2.38,13.15-3.57l.91-7.49-.38.3s0-.08,0-.11a2,2,0,0,0,1-.75,2.44,2.44,0,0,0,1.24-.46C48.8,11.59,49.21,10.91,49,10.56Z"/><path class="cls-1" d="M47,12.52s-.48-.41-.71-.42"/><path class="cls-1" d="M49,10.45a4.55,4.55,0,0,0-.76,0"/><path class="cls-1" d="M47,9s-.33.27-.32.45"/><path class="cls-1" d="M35.34,31.22a.23.23,0,0,0-.06-.12,1.67,1.67,0,0,0-.69-.38,2,2,0,0,0-.41-.09h-.07l-.25-.07c-.46-.1-.94-.12-1.4-.18a3.32,3.32,0,0,0-.63,0l.24-1.09c.12-.59.18-1.2.32-1.79s.39-1.09.54-1.66a11,11,0,0,0,.32-1.71.53.53,0,0,0-.65-.52.56.56,0,0,0-.87,0,.61.61,0,0,0-.53-.15h0a.44.44,0,0,0-.31.24,1.81,1.81,0,0,1-1,0,.55.55,0,0,0-.82.47c.06,1.05.09,2.11.07,3.16,0,.52-.05,1-.06,1.56s.09.78.1,1.17c0,.15,0,.31,0,.46A4.12,4.12,0,0,0,28,30.38a3.78,3.78,0,0,0-1.71.47.55.55,0,0,0-.16.18l-.37.12a.53.53,0,0,0-.37.55.37.37,0,0,0-.17.25.26.26,0,0,0,.26.34l2.38,0,1.19,0a6.63,6.63,0,0,0,1.09,0,.23.23,0,0,0,.12-.06.25.25,0,0,0,.13.09,1.1,1.1,0,0,0,.44,0,.17.17,0,0,0,.1,0c1.58,0,3.16,0,4.73.06a.27.27,0,0,0,.27-.27A.94.94,0,0,0,35.34,31.22Z"/><path class="cls-1" d="M55.76,18l-.09,0a1.94,1.94,0,0,0,.13-.3,1,1,0,0,0,.09-.53c0-.36-.35-.57-.64-.74a.27.27,0,0,0-.4.31h0a.13.13,0,0,0,0,.06s0,.06,0,.1h0s0,0,0,0v0l0,0a.08.08,0,0,1,0,0h0l0,0h0a1.57,1.57,0,0,0-.43-.38l-.19-.09a.29.29,0,0,0-.18-.07h0a1.13,1.13,0,0,0-.36-.06h-.08a.44.44,0,0,0-.16,0,.35.35,0,0,0-.15.07.29.29,0,0,0-.11.11.94.94,0,0,0-.18.25,2.07,2.07,0,0,0-.21.45l-3.2-.11c-.38,0-.76,0-1.14,0l-.18,0h0l-.36,0a1.2,1.2,0,0,0-.86,0h-.05L46.27,17a1.58,1.58,0,0,0-.48-.06.91.91,0,0,0-.23,0,.86.86,0,0,0-.88.18.85.85,0,0,0,0,1.15,1,1,0,0,0,.73.32,1.33,1.33,0,0,0,.4-.05h0l.43.11a6.09,6.09,0,0,0,.73.1,10.84,10.84,0,0,0,1.14,0,.52.52,0,0,0,.21,0,.3.3,0,0,0,.17.08l2,.15c.33,0,.66.06,1,.06a3.1,3.1,0,0,1,.43,0,1.29,1.29,0,0,1,.38.08,1.05,1.05,0,0,0,.06.24.55.55,0,0,0,.24.35.77.77,0,0,0,.19.08l.15.06a1,1,0,0,0,.35.06,1.18,1.18,0,0,0,.4.4,1.51,1.51,0,0,0,.91.15,1.53,1.53,0,0,0,.47-.11,1,1,0,0,0,.46-1.18,1,1,0,0,0,.46-.67A.5.5,0,0,0,55.76,18Z"/><path class="cls-2" d="M32.23,24.16c-7.18.79-12.84.42-13.5-.66l-2.49-7.11"/><path class="cls-2" d="M32.17,24.17c7.27-.8,12.79-2.39,13.21-3.58l.91-7.49"/><path class="cls-2" d="M46.19,10.12c.14,1.24-6.64,3-15.13,3.94s-15.49.67-15.63-.58,6.24-7.23,14.74-8.17S46.06,8.87,46.19,10.12Z"/><path class="cls-2" d="M16.46,11.86a1.88,1.88,0,0,0-.9.06,1.67,1.67,0,0,0-1,.65,1.63,1.63,0,0,0-1.15.39c-.58.45-.84,1.08-.58,1.42l0,0a.36.36,0,0,0-.07.1c-.15.4.39,1,1.21,1.3a2.48,2.48,0,0,0,1.31.18,2.2,2.2,0,0,0,1.34.56,2.44,2.44,0,0,0,1.25-.13,2.47,2.47,0,0,0,1.25.37,2.58,2.58,0,0,0,1.26-.23,2.56,2.56,0,0,0,1.29.3,2.45,2.45,0,0,0,1.3-.34,2.47,2.47,0,0,0,1.32.27,2.5,2.5,0,0,0,1.3-.39,2.4,2.4,0,0,0,1.34.23,2.59,2.59,0,0,0,1.22-.38,2.66,2.66,0,0,0,1.29.16,3,3,0,0,0,.72-.17"/><path class="cls-2" d="M44.85,8.75a1.88,1.88,0,0,1,.88-.14A1.68,1.68,0,0,1,46.82,9,1.62,1.62,0,0,1,48,9.17c.66.31,1,.88.87,1.26,0,0,0,0,0,0a.43.43,0,0,1,.09.1c.24.35-.17,1-.9,1.52a2.44,2.44,0,0,1-1.24.46,2.19,2.19,0,0,1-1.19.84,2.46,2.46,0,0,1-1.24.15A2.84,2.84,0,0,1,42,14.2a2.78,2.78,0,0,1-2.53.52,2.35,2.35,0,0,1-1.24.55,2.38,2.38,0,0,1-1.34-.1,2.45,2.45,0,0,1-1.27.52,2.53,2.53,0,0,1-1.27-.11A2.44,2.44,0,0,1,33.1,16a2.56,2.56,0,0,1-.69,0"/><path class="cls-2" d="M30.25,15.62v.61a2.34,2.34,0,0,0,1.07.09,2.6,2.6,0,0,0,1.1-.34l-.22-.57"/><path class="cls-2" d="M25.65,16.4a1.76,1.76,0,0,1,.2-.58"/><path class="cls-2" d="M28.21,16.25s.06-.57.1-.51"/><path class="cls-2" d="M23,16.52a2.06,2.06,0,0,1,.31-.55"/><path class="cls-2" d="M20.44,16.56s.16-.43.4-.51"/><path class="cls-2" d="M17.93,16.42a3.84,3.84,0,0,1,.73-.69"/><path class="cls-2" d="M15.34,16s.37-.51.59-.57"/><path class="cls-2" d="M12.89,14.41a4.32,4.32,0,0,1,.75-.17"/><path class="cls-2" d="M14.59,12.57s.38.2.41.37"/><path class="cls-2" d="M37,15.16a1.87,1.87,0,0,0-.32-.52"/><path class="cls-2" d="M34.45,15.56s-.18-.54-.21-.47"/><path class="cls-2" d="M39.57,14.71a2.07,2.07,0,0,0-.43-.47"/><path class="cls-2" d="M42.1,14.18s-.25-.37-.5-.4"/><path class="cls-2" d="M44.53,13.51a3.77,3.77,0,0,0-.87-.51"/><path class="cls-2" d="M47,12.52s-.48-.41-.71-.42"/><path class="cls-2" d="M49,10.45a4.55,4.55,0,0,0-.76,0"/><path class="cls-2" d="M47,9s-.33.27-.32.45"/><path class="cls-2" d="M29.08,24.44v6a1.42,1.42,0,0,0,.34.17"/><path class="cls-2" d="M29.36,32.29H25.6s-.49,0-.42-.4.93-1.67,3.91-1.46"/><path class="cls-2" d="M30.21,32s0,.26-.22.26H29.2"/><path class="cls-2" d="M33.3,24l-1.53,6.42a1.25,1.25,0,0,1-.39.11"/><path class="cls-2" d="M30.21,32s0,.28.22.29l5.14,0s.49,0,.42-.4-1-1.75-4.22-1.44"/><line class="cls-2" x1="31.11" y1="24.32" x2="30.21" y2="32.01"/><path class="cls-3" d="M31,6a2.37,2.37,0,1,0-4.14,1.5c.14.2.37-.11.49-.29A5.1,5.1,0,0,1,29,6.5a14.78,14.78,0,0,0,1.9-.13C31,6.33,30.93,6.08,31,6Z"/><path class="cls-3" d="M35.51,4.17l-.07-.06a.49.49,0,0,0-.27-.38l-.1,0-.64-.46c-.12-.08-.25-.23-.35-.21s-.35,0-.54-.06a1.89,1.89,0,0,0-1.34.42c-.68.45-1.61,1.59-1.07,2.4.19.28.71.05.89-.18.49-.13,1-.19,1.49-.34A7,7,0,0,1,35,4.81C35.35,5,35.81,4.49,35.51,4.17Z"/><path class="cls-2" d="M27.25,7.84a2.39,2.39,0,1,1,2.15.24"/><path class="cls-2" d="M31.11,5.89a2.34,2.34,0,0,1,0-1.23,2.39,2.39,0,0,1,4.59,0"/><polyline class="cls-4" points="30.95 5.96 38.39 4.05 33.01 9.37"/><path class="cls-2" d="M30.88,6.44a6.42,6.42,0,0,0-4,1.14"/><ellipse class="cls-5" cx="28.31" cy="5.51" rx="0.57" ry="0.46" transform="translate(13.22 30.08) rotate(-69.45)"/><path class="cls-5" d="M32.42,5.59A.6.6,0,0,1,32.37,5a.47.47,0,1,1,.86.32"/><path class="cls-3" d="M31.48,10.6a1.83,1.83,0,0,1-.79-.13.4.4,0,0,1-.26.08,6.91,6.91,0,0,1-1.95-.5,6.37,6.37,0,0,1-1.74-.94L26.66,9l-.29-.12c-.06-.05-.09-.06-.13-.13s-.19-.09-.2-.12A2.14,2.14,0,0,1,25.58,8l-.11,0s-2,3.46,1.35,4.77a3.4,3.4,0,0,0,4.75-2.1Z"/><path class="cls-2" d="M25.23,7.45A5.66,5.66,0,0,0,28.17,10a7.85,7.85,0,0,0,3.85.55"/><path class="cls-2" d="M31.57,10.64s-1.2,3.76-4.75,2.1C23.57,11.22,25.47,8,25.47,8"/><path class="cls-2" d="M25,9.17a5.06,5.06,0,0,0,2.57,2.09,6.19,6.19,0,0,0,3.42.42"/><path class="cls-6" d="M54.22,25.28c.2-1.37.2-2.79.29-4.17a.3.3,0,0,0,0-.16s0-.06,0-.08a.17.17,0,0,0,.06-.14c0-.1-.1-.22-.21-.2s-.25,0-.37,0h0l-.06-.05c-.05,0-.1,0-.13-.09s-.39,0-.35.2a1.52,1.52,0,0,1,0,.52.26.26,0,0,0,0,.15c-.18,1-.19,2-.27,3.05,0,.51-.25,1.2.5,1.19a.24.24,0,0,0,.15,0A.3.3,0,0,0,54.22,25.28Z"/><path class="cls-6" d="M57.3,13.87c0-1.08.41-2.76-.39-3.65s-1.84-.57-2.47.34c-.09.12-.23.42-.18.53a4.28,4.28,0,0,0-.18,1.24l-.17,1.73a.36.36,0,0,0,.07.27v.06a1.48,1.48,0,0,1,0,.21.08.08,0,0,1,0,0c0,.43-.14.87-.17,1.31a.41.41,0,0,0-.08.13.38.38,0,0,0,.26.46.28.28,0,0,0,.18,0l.18.12a1.33,1.33,0,0,0,0,.19c.06.17.36.22.4,0a2.83,2.83,0,0,0,0-.41s0,0,0,0v0c0-.17,0-.33,0-.49A3.64,3.64,0,0,0,55,14.58a.52.52,0,0,0,0-.14v0a6.21,6.21,0,0,0,0-.75.19.19,0,0,0,0-.08,1.09,1.09,0,0,1,0-.18A5.89,5.89,0,0,0,55.17,12v0a.36.36,0,0,0,0-.11c0-.24.19-.75.47-.84.57-.21.51.5.56.82a5,5,0,0,1-.1,1.92.41.41,0,0,0,.4.52h.16A.42.42,0,0,0,57.3,13.87Z"/><path class="cls-2" d="M52.57,17.59c.06-.46.29-1.36,1.1-1.23,1.07.17.93,1.17.74,1.76,0,0-.18.78-.83.59s-.46-.87-.4-1.08a2,2,0,0,0,.13-.6"/><path class="cls-2" d="M54.9,16.29s1,.14,1,.93a1.25,1.25,0,0,1-1.64,1.17"/><path class="cls-2" d="M53.5,18.69a.72.72,0,0,0,.62.8c.68.08,2-.24,1.88-1.12a1,1,0,0,0-.19-.53"/><path class="cls-2" d="M55.44,19.24a.77.77,0,0,1,.13.59c-.06.36-.47.72-1.31.69s-1-.52-.95-.82a.61.61,0,0,1,.31-.43"/><line class="cls-2" x1="52.62" y1="17.31" x2="45.81" y2="17.01"/><line class="cls-2" x1="52.27" y1="19.15" x2="45.61" y2="18.65"/><path class="cls-2" d="M54.56,17s.17.06.4-.16"/><path class="cls-2" d="M53.3,19.92a.9.9,0,0,1-1-1"/><path class="cls-2" d="M54.21,25.33c0,.14-.26.23-.56.21s-.53-.15-.52-.28"/><path class="cls-2" d="M57.24,14.09c0,.13-.26.23-.56.21s-.53-.15-.52-.29"/><path class="cls-2" d="M53.77,16.38l.3-4.12s.1-2.71,1.81-2.59,1.52,2.23,1.49,2.6-.13,1.82-.13,1.82"/><line class="cls-2" x1="53.13" y1="25.26" x2="53.49" y2="20.31"/><path class="cls-2" d="M54.82,16.93l.32-4.45s.09-1.6.72-1.56.42,1.47.4,1.75-.1,1.34-.1,1.34"/><line class="cls-2" x1="54.21" y1="25.33" x2="54.56" y2="20.55"/></g></svg>