<svg xmlns="http://www.w3.org/2000/svg" viewBox="0 0 106.36 76.03"><defs><style>.cls-1{fill:#0d773c;}.cls-2,.cls-8{fill:#f59da0;}.cls-3{fill:#b0dceb;}.cls-4{fill:#f9b730;}.cls-5{fill:none;}.cls-5,.cls-7,.cls-8{stroke:#1c204d;stroke-linecap:round;stroke-linejoin:round;stroke-width:0.8px;}.cls-6{fill:#1c204d;}.cls-7{fill:#fff;}</style></defs><g id="Layer_1" data-name="Layer 1"><polyline class="cls-1" points="46.91 51.99 43.02 64.64 46.66 66.78 54.5 50.89"/><path class="cls-2" d="M33.74,38.68c-.47-.87-1.6-1.1-1.32-2.3a1.59,1.59,0,0,0-.11-1.44,14.75,14.75,0,0,0-1.21-1.41c-.83-1-1.63-2-2.39-3-.42-.57-.82-1.15-1.22-1.74a11,11,0,0,0-1.15-1.64,2.91,2.91,0,0,0-3.6-.4.81.81,0,0,0-.18.19c-.35,0-.71,0-.93,0-.92,0-1.84,0-2.75,0a1,1,0,0,0-.31.09l-.17,0h0l-.31,0-.09,0a2.33,2.33,0,0,0-.33.14.77.77,0,0,0-.28.26.94.94,0,0,0-.12.22l-.22,0a1,1,0,0,0,.53,1.94,11.64,11.64,0,0,1,2.55-.38.94.94,0,0,0,.74-.37h1l.05.07.2.16a1,1,0,0,0,.51.13c.56.08,1.12.17,1.68.2a2,2,0,0,0,.84-.12,34.16,34.16,0,0,1,3.59,6.48A20.75,20.75,0,0,0,30.27,39c.53.83,1.31,2.13,2.46,2A1.52,1.52,0,0,0,33.74,38.68Z"/><path class="cls-3" d="M28.29,25.67c.22-.14.44-.3.65-.45a5.36,5.36,0,0,1,1.21-.57l.16-.08a1.43,1.43,0,0,1,.27-.09.89.89,0,0,0-1.2-.89,10.1,10.1,0,0,1-1.92.14,17.65,17.65,0,0,0-1.9.49,26.34,26.34,0,0,1-4,.58c-2.76.28-5.4,1.29-8.21,1-1.12-.13-1.25,1.41-.4,1.88a1.32,1.32,0,0,1,.56-.34,1.52,1.52,0,0,1,1,.13c-.35-.15-.08,0,0,0l.26.07.23.05a.38.38,0,0,1,.11,0c.14,0,.31,0,.42,0a4.34,4.34,0,0,0,.51,0,5.25,5.25,0,0,0,.56,0h0a1.35,1.35,0,0,1,.88-.36h.81l.13,0,.16-.05a4.08,4.08,0,0,1,2-.46,1.09,1.09,0,0,1,.66.19l.61-.08,1.33-.14s0-.1.08-.14l.27-.21a1.36,1.36,0,0,1,.68-.18l.35.05a1,1,0,0,1,.41.21c.34-.06.68-.1,1-.18a16,16,0,0,1,1.93-.49A3,3,0,0,1,28.29,25.67Z"/><path class="cls-4" d="M29,17.62c-1.65,0-2.82-1-4.37-1.33s-3.18.36-4.71.62a21.34,21.34,0,0,0-4.63.92A5.61,5.61,0,0,0,13.5,19,2.51,2.51,0,0,0,12.8,20c-.33.08-.79.11-1,.16-1.15.24-.83,1.93.26,2h.41c.05.25.19.68.2.73L13.15,25a1,1,0,0,0,1.14.69.85.85,0,0,0,.77.39c2.18-.28,4.22-1.2,6.42-1.32,1.05-.06,2.09-.05,3.13-.21A22.6,22.6,0,0,1,28.06,24a1,1,0,0,0,1-1c.05-.91-.63-3,.45-3.48A1,1,0,0,0,29,17.62Z"/><path class="cls-2" d="M69.26,44.38c.72-.69,1.87-.56,2-1.79,0-.57,0-1,.54-1.34a14.7,14.7,0,0,1,1.57-1c1.09-.68,2.16-1.39,3.2-2.15.57-.41,1.13-.84,1.69-1.28a10.27,10.27,0,0,1,1.59-1.21,2.93,2.93,0,0,1,3.56.7,1.28,1.28,0,0,1,.11.24c.33.11.68.19.9.26.86.3,1.73.58,2.61.85a.86.86,0,0,1,.26.18l.17,0,0,0a2,2,0,0,1,.29.13l.08.05a1.86,1.86,0,0,1,.26.23.61.61,0,0,1,.19.33.74.74,0,0,1,0,.25l.2.11a1,1,0,0,1-1.1,1.68,11.85,11.85,0,0,0-2.32-1.13,1,1,0,0,1-.59-.58l-1-.32s0,0-.07,0l-.24.09a1.06,1.06,0,0,1-.53,0c-.55-.1-1.12-.18-1.66-.33a2,2,0,0,1-.76-.37,34.62,34.62,0,0,0-5.39,5.09,21.34,21.34,0,0,1-2.42,2.52c-.75.63-1.9,1.63-2.95,1.15A1.53,1.53,0,0,1,69.26,44.38Z"/><path class="cls-3" d="M78.41,33.64c-.17-.2-.32-.41-.48-.62a6,6,0,0,0-1-.92L76.82,32a2,2,0,0,0-.23-.17A.89.89,0,0,1,78,31.33a10.35,10.35,0,0,0,1.78.72,17.15,17.15,0,0,1,1.67,1,26.42,26.42,0,0,0,3.67,1.78c2.55,1.11,4.76,2.88,7.52,3.44,1.12.22.77,1.73-.19,1.91a1.35,1.35,0,0,0-.42-.49,1.52,1.52,0,0,0-1-.19c.37,0,.09,0,0,0h-.27l-.23,0a.24.24,0,0,0-.11,0L90,39.38l-.49-.16L89,39h0a1.39,1.39,0,0,0-.73-.6l-.77-.26-.12-.07L87.23,38a4,4,0,0,0-1.74-1,1.06,1.06,0,0,0-.68,0l-.56-.26L83,36.13c0-.05,0-.11,0-.16l-.2-.28a1.4,1.4,0,0,0-.58-.38l-.36-.06a1,1,0,0,0-.45.08c-.3-.16-.62-.3-.91-.48a14.71,14.71,0,0,0-1.68-1.05A3.33,3.33,0,0,0,78.41,33.64Z"/><path class="cls-4" d="M80.17,25.75c1.57.5,3-.11,4.57.06s2.92,1.31,4.29,2a21.32,21.32,0,0,1,4.14,2.27,5.61,5.61,0,0,1,1.37,1.62A2.59,2.59,0,0,1,94.89,33c.29.19.72.36.93.48,1,.57.2,2.08-.85,1.79l-.39-.1c-.13.22-.39.58-.42.63L93,37.61a1,1,0,0,1-1.3.31.83.83,0,0,1-.85.14c-2-.93-3.65-2.43-5.72-3.21-1-.37-2-.68-2.92-1.14a21.81,21.81,0,0,0-3.11-1.61,1,1,0,0,1-.65-1.26c.22-.89,1.5-2.64.63-3.46S79.27,25.46,80.17,25.75Z"/><line class="cls-5" x1="92.54" y1="38.27" x2="95.1" y2="34.99"/><line class="cls-5" x1="78.32" y1="31.53" x2="79.63" y2="27.39"/><path class="cls-5" d="M80.45,26.15c-.23.47,3,2.49,7.14,4.51s7.74,3.28,8,2.82-2.24-4.07-6.41-6.09S80.68,25.69,80.45,26.15Z"/><path class="cls-5" d="M95.51,33.19a1,1,0,0,1,.41.46,1.06,1.06,0,0,1,.53.38c.23.29.28.6.11.68h0s0,0,0,.06c0,.19-.33.32-.79.29a1.77,1.77,0,0,1-.68-.18,1.39,1.39,0,0,1-.75,0,1.73,1.73,0,0,1-.61-.3,1.46,1.46,0,0,1-.68-.09,1.81,1.81,0,0,1-.61-.34,1.5,1.5,0,0,1-.69-.13,1.65,1.65,0,0,1-.61-.39,1.48,1.48,0,0,1-.71-.15,1.52,1.52,0,0,1-.6-.4,1.68,1.68,0,0,1-.71-.17,1.77,1.77,0,0,1-.57-.39,1.72,1.72,0,0,1-.67-.19,2.18,2.18,0,0,1-.34-.2"/><path class="cls-5" d="M80.7,26a1,1,0,0,0-.61,0,1.12,1.12,0,0,0-.63-.18c-.37,0-.64.15-.6.34,0,0,0,0,0,0l-.06,0c-.17.1,0,.45.25.79a1.61,1.61,0,0,0,.57.43,1.21,1.21,0,0,0,.49.57,1.64,1.64,0,0,0,.61.3,1.48,1.48,0,0,0,.49.47,1.64,1.64,0,0,0,.65.27,1.57,1.57,0,0,0,.53.47,1.7,1.7,0,0,0,.68.23,1.57,1.57,0,0,0,.55.47,1.75,1.75,0,0,0,.69.22,1.6,1.6,0,0,0,.58.45,1.49,1.49,0,0,0,.65.2,1.77,1.77,0,0,0,.56.42,1.9,1.9,0,0,0,.36.12"/><path class="cls-5" d="M87.53,32.1a1.68,1.68,0,0,1-.55-.17,1.93,1.93,0,0,1-.51-.35"/><path class="cls-5" d="M83.82,36.43a2.57,2.57,0,0,0-1.37-1.1c-2.33-.87-3.31.72-3.31.72l-8,5.35"/><path class="cls-5" d="M86.09,37l-2.27-.57"/><path class="cls-5" d="M83,38.12s2.23.35,3.19.53"/><path class="cls-5" d="M86.09,37c.75.17,2.09.74,2,1.4s-1,.45-1,.45l-1-.2"/><path class="cls-5" d="M86,37l0,0"/><path class="cls-5" d="M86.57,39.56l1.76.72s.8.36.93-.3c0-.25-.12-.5-.38-.73"/><path class="cls-5" d="M83,38.12l3.55,1.44"/><path class="cls-5" d="M85.87,40.08l1.76.71s.8.36.93-.29"/><path class="cls-5" d="M80.36,37.74c.27.11,4.31,1.85,5.51,2.34"/><path class="cls-5" d="M91.8,38.07l-1.07-.52-14.42-7A3.43,3.43,0,0,0,78.12,33"/><path class="cls-5" d="M92.28,39.69a3.58,3.58,0,0,0,2.13-.36L90.83,37.6"/><path class="cls-5" d="M80.2,35a4.24,4.24,0,0,1-2-2l5.4,2.61,7.82,3.8a3.78,3.78,0,0,0,.89.28"/><path class="cls-5" d="M80.45,35.12,80.2,35"/><path class="cls-5" d="M91.32,39.4a4.39,4.39,0,0,1-3.06-.49L88,38.77"/><path class="cls-5" d="M80.36,37.74l-8.6,8.66a2.46,2.46,0,0,1-3.38-.24"/><path class="cls-1" d="M57.44,59.12a.71.71,0,0,1,0-.29c.53-1.46,1.08-2.93,1.48-4.44a13.18,13.18,0,0,1,1.14-3.64.73.73,0,0,1,.19-.2l0,0-.28-.1a.81.81,0,0,0-.74-.07,6.6,6.6,0,0,1-.77,0,6,6,0,0,0-.85-.1,4.28,4.28,0,0,1-.72,0,.53.53,0,0,0-.36-.14l-2.49,0a4.87,4.87,0,0,0-.54,0l0,0h0l0,0-.05,0h-.22l-.09,0a.36.36,0,0,0-.11.1.22.22,0,0,0-.05.08.36.36,0,0,0,0,.11.67.67,0,0,1-.6.06h0a4.45,4.45,0,0,1,1.12,1.32,1.3,1.3,0,0,1,.07.33l.26,0,.09,0h0l.1.13.21.25.36.44a1.13,1.13,0,0,1,.1.13,3.15,3.15,0,0,0-.14.39c-.13.45-.85.58-1,1s-.14.87-.26,1.17-.75,4.08-1,5a.39.39,0,0,0,0,.24l-.31.73a.42.42,0,0,0,0,.35c-.46,1-.87,2-1.27,3,0,0,0,0,0,0v0h0v0h0a.36.36,0,0,0,0,.09h0v.22l0,.09a.24.24,0,0,0,.09.11l.09.05.09,0a.17.17,0,0,0,.1,0h0l0,0a.78.78,0,0,0,.58-.06.93.93,0,0,1,.27-.05c.32,0,.64-.07,1-.08.63,0,1.25,0,1.88-.13a.6.6,0,0,0,.55-.41l.58-1.64a.52.52,0,0,0,0-.35c.42-.92.85-1.83,1.26-2.76C57.16,59.84,57.3,59.48,57.44,59.12Z"/><path class="cls-6" d="M59,66.6l-.13-.1a8.85,8.85,0,0,0-2.69-1.09,4.26,4.26,0,0,0-1.51,0,4,4,0,0,0-1.32.4l-.72,0-.53-.05H51.9l-.3-.06a.58.58,0,0,0-.72.55h0v0a.85.85,0,0,0-.2.22c-.21.32-.3.71-.53,1,0,0,0,0,0,0h0a.54.54,0,0,0-.05.11.57.57,0,0,0-.07.29.77.77,0,0,0,.22.53.79.79,0,0,0,.54.22.81.81,0,0,0,.49-.19h0a4.19,4.19,0,0,1,.5,0l.58.05a11.42,11.42,0,0,0,1.17,0,19.8,19.8,0,0,1,2.31,0A6.24,6.24,0,0,0,58,68.45c.73.12,1.61.22,1.89-.47S59.55,66.83,59,66.6Z"/><path class="cls-6" d="M38.47,62.91a.61.61,0,0,1,.44-.22,4.65,4.65,0,0,1,2.34.56A6.38,6.38,0,0,1,43,64.74a6.69,6.69,0,0,1,1.18.63c.19.13.37.3.57.44l.07,0h0l0,0,.07,0,0,0c.05,0,.25,0,.07,0a.59.59,0,0,1,.52.21.57.57,0,0,1,.08.56,2.92,2.92,0,0,1-.14.31.76.76,0,0,1,0,.3,10.63,10.63,0,0,1-.68,1.4,5.49,5.49,0,0,0-.24.68,2.49,2.49,0,0,1-.19.71c-.27.49-.62.69-1.06.37A5.89,5.89,0,0,1,42.2,69.1c-.49-.74-1.19-1.53-1.65-2.28a.53.53,0,0,1-.28-.2A33.32,33.32,0,0,0,38,63.84.58.58,0,0,1,38.47,62.91Z"/><line class="cls-5" x1="44.26" y1="70.35" x2="45.82" y2="66.29"/><path class="cls-5" d="M44.25,66.81a9.71,9.71,0,0,0-1.75-2.66c-1-1-2.84-2.31-4.38-1.16,0,0-.47.32-.18.72s5.21,6.57,5.21,6.57.6.83,1.11.07"/><path class="cls-5" d="M50.11,67.84s-.32.73.74.73H59a.88.88,0,0,0,.9-1c-.07-1-2.22-2.25-4.66-2.14a6.36,6.36,0,0,0-2.74.69"/><polyline class="cls-5" points="46.91 51.99 43.02 64.64 46.66 66.78 54.5 50.89"/><path class="cls-5" d="M54,65.6c-.53.05-3.66.06-3.66.06L53.86,53"/><line class="cls-5" x1="54.98" y1="65.46" x2="59.7" y2="52.68"/><path class="cls-5" d="M59.89,67.84c-.14,0-9.78,0-9.78,0l.8-2"/><line class="cls-5" x1="38.29" y1="62.87" x2="44.16" y2="70.48"/><ellipse class="cls-4" cx="53.16" cy="32.06" rx="18.51" ry="20.44" transform="translate(-4.28 8.51) rotate(-8.8)"/><path class="cls-4" d="M73.43,25.74a2.37,2.37,0,0,0-1.52-1,2.42,2.42,0,0,0-.06-2.62,2.31,2.31,0,0,0-1.5-1,2.38,2.38,0,0,0-2.47-3.6,2.38,2.38,0,0,0-1-2.4,2.35,2.35,0,0,0-1.73-.36,2.37,2.37,0,0,0-3.59-2.32,2.38,2.38,0,0,0-1.79-1.9,2.34,2.34,0,0,0-1.76.29,2.36,2.36,0,0,0-4.23-1,2.34,2.34,0,0,0-4,.08,2.31,2.31,0,0,0-2-.6,2.35,2.35,0,0,0-1.92,1.74,2.36,2.36,0,0,0-3.73,2.21,2.35,2.35,0,0,0-2.9,2.61,2.36,2.36,0,0,0-2.72,3.3,2.37,2.37,0,0,0-1.54.86,2.42,2.42,0,0,0-.24,2.6,2.35,2.35,0,0,0-1.58.88,2.39,2.39,0,0,0,.31,3.29,2.4,2.4,0,0,0-.39,3.92,2.36,2.36,0,0,0-1.14,1.4A2.41,2.41,0,0,0,33.07,35a2.4,2.4,0,0,0,1.28,4,2.4,2.4,0,0,0,.06,2.61,2.36,2.36,0,0,0,1.5,1,2.38,2.38,0,0,0,.69,3.23,2.31,2.31,0,0,0,1.77.36,2.43,2.43,0,0,0,1,2.41,2.34,2.34,0,0,0,1.73.35,2.39,2.39,0,0,0,1.8,2.62,2.36,2.36,0,0,0,1.79-.3,2.36,2.36,0,0,0,1.79,1.9,2.33,2.33,0,0,0,1.76-.28,2.38,2.38,0,0,0,2.68,1.92,2.34,2.34,0,0,0,1.54-1,2.34,2.34,0,0,0,4-.08,2.34,2.34,0,0,0,3.87-1.14,2.33,2.33,0,0,0,1.75.43,2.37,2.37,0,0,0,2-2.64,2.37,2.37,0,0,0,1.77-.26A2.4,2.4,0,0,0,67,47.78a2.32,2.32,0,0,0,1.79-.26,2.39,2.39,0,0,0,.93-3,2.32,2.32,0,0,0,1.54-.86,2.42,2.42,0,0,0,.24-2.6,2.34,2.34,0,0,0,1.58-.88,2.38,2.38,0,0,0-.32-3.29,2.34,2.34,0,0,0,1.13-1.4,2.41,2.41,0,0,0-.73-2.51,2.38,2.38,0,0,0,1.14-1.41,2.41,2.41,0,0,0-1.13-2.79A2.41,2.41,0,0,0,73.43,25.74Z"/><ellipse class="cls-5" cx="53.16" cy="32.06" rx="18.51" ry="20.44" transform="translate(-4.28 8.51) rotate(-8.8)"/><path class="cls-5" d="M73.43,25.74a2.37,2.37,0,0,0-1.52-1,2.42,2.42,0,0,0-.06-2.62,2.31,2.31,0,0,0-1.5-1,2.38,2.38,0,0,0-2.47-3.6,2.38,2.38,0,0,0-1-2.4,2.35,2.35,0,0,0-1.73-.36,2.37,2.37,0,0,0-3.59-2.32,2.38,2.38,0,0,0-1.79-1.9,2.34,2.34,0,0,0-1.76.29,2.36,2.36,0,0,0-4.23-1,2.34,2.34,0,0,0-4,.08,2.31,2.31,0,0,0-2-.6,2.35,2.35,0,0,0-1.92,1.74,2.36,2.36,0,0,0-3.73,2.21,2.35,2.35,0,0,0-2.9,2.61,2.36,2.36,0,0,0-2.72,3.3,2.37,2.37,0,0,0-1.54.86,2.42,2.42,0,0,0-.24,2.6,2.35,2.35,0,0,0-1.58.88,2.39,2.39,0,0,0,.31,3.29,2.4,2.4,0,0,0-.39,3.92,2.36,2.36,0,0,0-1.14,1.4A2.41,2.41,0,0,0,33.07,35a2.4,2.4,0,0,0,1.28,4,2.4,2.4,0,0,0,.06,2.61,2.36,2.36,0,0,0,1.5,1,2.38,2.38,0,0,0,.69,3.23,2.31,2.31,0,0,0,1.77.36,2.43,2.43,0,0,0,1,2.41,2.34,2.34,0,0,0,1.73.35,2.39,2.39,0,0,0,1.8,2.62,2.36,2.36,0,0,0,1.79-.3,2.36,2.36,0,0,0,1.79,1.9,2.33,2.33,0,0,0,1.76-.28,2.38,2.38,0,0,0,2.68,1.92,2.34,2.34,0,0,0,1.54-1,2.34,2.34,0,0,0,4-.08,2.34,2.34,0,0,0,3.87-1.14,2.33,2.33,0,0,0,1.75.43,2.37,2.37,0,0,0,2-2.64,2.37,2.37,0,0,0,1.77-.26A2.4,2.4,0,0,0,67,47.78a2.32,2.32,0,0,0,1.79-.26,2.39,2.39,0,0,0,.93-3,2.32,2.32,0,0,0,1.54-.86,2.42,2.42,0,0,0,.24-2.6,2.34,2.34,0,0,0,1.58-.88,2.38,2.38,0,0,0-.32-3.29,2.34,2.34,0,0,0,1.13-1.4,2.41,2.41,0,0,0-.73-2.51,2.38,2.38,0,0,0,1.14-1.41,2.41,2.41,0,0,0-1.13-2.79A2.41,2.41,0,0,0,73.43,25.74Z"/><line class="cls-5" x1="13.43" y1="25.79" x2="11.98" y2="21.89"/><line class="cls-5" x1="29.02" y1="23.69" x2="29.03" y2="19.34"/><path class="cls-5" d="M28.62,17.92c.08.51-3.58,1.46-8.17,2.12s-8.37.78-8.44.27,3.37-3.2,8-3.86S28.55,17.41,28.62,17.92Z"/><path class="cls-5" d="M12.13,20.05a1,1,0,0,0-.52.31,1,1,0,0,0-.62.2c-.31.21-.45.48-.31.62h0a.1.1,0,0,0,0,0c-.08.17.21.4.66.51a1.56,1.56,0,0,0,.7,0,1.36,1.36,0,0,0,.73.2,1.66,1.66,0,0,0,.67-.1,1.54,1.54,0,0,0,.67.12,1.83,1.83,0,0,0,.69-.14,1.56,1.56,0,0,0,.7.09,1.64,1.64,0,0,0,.69-.18,1.57,1.57,0,0,0,.72.07,1.66,1.66,0,0,0,.7-.21,1.47,1.47,0,0,0,.73.06,1.72,1.72,0,0,0,.66-.2,1.68,1.68,0,0,0,.69,0,2,2,0,0,0,.39-.1"/><path class="cls-5" d="M28.43,17.7a1,1,0,0,1,.59.15,1.15,1.15,0,0,1,.66,0c.35.11.56.34.47.51l0,0,.05,0c.13.15-.08.45-.48.68a1.57,1.57,0,0,1-.67.23,1.26,1.26,0,0,1-.64.4,1.94,1.94,0,0,1-.67.1,1.63,1.63,0,0,1-.62.3,1.73,1.73,0,0,1-.69.06,1.52,1.52,0,0,1-.65.28,1.62,1.62,0,0,1-.72,0,1.51,1.51,0,0,1-.66.27,1.48,1.48,0,0,1-.73,0A1.6,1.6,0,0,1,23,21a1.52,1.52,0,0,1-.68,0,1.69,1.69,0,0,1-.66.23,2.47,2.47,0,0,1-.38,0"/><path class="cls-5" d="M20.07,21.43a1.81,1.81,0,0,0,.58,0,2,2,0,0,0,.59-.18"/><path class="cls-5" d="M22.29,26.68a2.6,2.6,0,0,1,1.64-.63c2.49-.12,2.93,1.69,2.93,1.69l6,7.52"/><path class="cls-5" d="M20,26.53l2.33.15"/><path class="cls-5" d="M22.54,28.54s-2.24-.35-3.2-.46"/><path class="cls-5" d="M20,26.53c-.77-.06-2.22.08-2.37.72s.78.72.78.72l1,.11"/><path class="cls-5" d="M20,26.54H20"/><path class="cls-5" d="M18.72,28.83,16.83,29s-.88.1-.8-.57c0-.25.26-.44.58-.58"/><path class="cls-5" d="M22.54,28.54l-3.82.29"/><path class="cls-5" d="M19.23,29.54l-1.89.14s-.88.1-.8-.56"/><path class="cls-5" d="M25.19,29c-.3,0-4.67.46-6,.56"/><path class="cls-5" d="M14.19,25.82l1.18-.17,15.86-2.28a3.43,3.43,0,0,1-2.46,1.75"/><path class="cls-5" d="M13.24,27.21a3.52,3.52,0,0,1-1.92-1l3.94-.56"/><path class="cls-5" d="M26.18,26.41a4.23,4.23,0,0,0,2.54-1.28L22.78,26l-8.61,1.24a2.88,2.88,0,0,1-.93,0"/><path class="cls-5" d="M25.9,26.46l.28-.05"/><path class="cls-5" d="M14.24,27.23a4.34,4.34,0,0,0,3.07.46l.3,0"/><path class="cls-5" d="M25.19,29l5.56,10.87a2.45,2.45,0,0,0,3.29.79"/><ellipse class="cls-2" cx="53.55" cy="28.83" rx="7.41" ry="6.71" transform="translate(24.44 82.23) rotate(-89.7)"/><ellipse class="cls-5" cx="53.55" cy="28.83" rx="7.41" ry="6.71" transform="translate(24.44 82.23) rotate(-89.7)"/><path class="cls-5" d="M57.2,30a4.72,4.72,0,0,1-7.63.13"/><circle class="cls-7" cx="51.26" cy="27.37" r="2.11"/><circle class="cls-7" cx="55.49" cy="27.32" r="2.11"/><path class="cls-8" d="M53.39,30.37a1.6,1.6,0,0,1-.7-.16"/><path class="cls-8" d="M52.69,30.21a1.52,1.52,0,1,1,1.6-.16"/><circle class="cls-6" cx="51.26" cy="27.43" r="0.56"/><circle class="cls-6" cx="55.53" cy="27.37" r="0.56"/></g></svg>