<svg xmlns="http://www.w3.org/2000/svg" viewBox="0 0 123.24 79.34"><defs><style>.cls-1,.cls-4{fill:#f9b730;}.cls-2{fill:none;}.cls-2,.cls-4{stroke:#1c204d;stroke-linecap:round;stroke-linejoin:round;stroke-width:0.8px;}.cls-3{fill:#fff;}.cls-5{fill:#1d1c4c;}.cls-6{fill:#af6e30;}</style></defs><g id="Layer_1" data-name="Layer 1"><path class="cls-1" d="M39.68,43.4a10.82,10.82,0,0,1-1.25-.09,19.9,19.9,0,0,0-2.52.46l-5,1Q25,46,19,47.11a.61.61,0,0,0-.28.13,1.9,1.9,0,0,0-1.59-1.4c-.73-.12-1.13-.11-1.51-.77a2.49,2.49,0,0,0-.81-1,1.48,1.48,0,0,0-1.89.61,2.05,2.05,0,0,0-.07,2.11l-.11,0a24.67,24.67,0,0,1-3.62.83c-.57.16-1.51.36-1.73,1a.64.64,0,0,0,.19.73c.48.45.26.46-.17.81A1.19,1.19,0,0,0,7,51c0,1.2,1.36.66,2.06,1.05a1.14,1.14,0,0,0-.38.91.59.59,0,0,0,.38.5l.12,0h0c.11.17.26.07.52,0,2.14-.27,4.26-.3,6.37-.66a3.92,3.92,0,0,0,3.24-2.29h0c4.38-.27,8.89-1.7,13.15-2.62,2.13-.46,4.44-.71,6.54-1.28,1.27-.36,1.33-1.38,1.36-2.63C40.38,43.74,40.12,43.32,39.68,43.4Z"/><path class="cls-2" d="M18.87,47.9s0-2-1.89-2.08c0,0-1,.06-1.33-.61s-.41-1.4-1.37-1.39-1.68.78-1.68,2.1,1.54,1.56,1.54,1.56"/><path class="cls-2" d="M13.87,48.08a4.6,4.6,0,0,0,.64,3.05"/><path class="cls-2" d="M15.42,47.9a2.19,2.19,0,0,0,1.16.45"/><path class="cls-2" d="M17.65,48.94a2.18,2.18,0,0,0-2,2"/><path class="cls-2" d="M13.82,49l-5.47.77c-1.82.26-1.54,1.49-1.54,1.49s.25,1.06,1.69.77l5.8-1.19"/><path class="cls-2" d="M13,46.94l-4,.64S7.24,47.76,7.39,49c.12,1,1.69.67,1.69.67"/><path class="cls-2" d="M9.41,51.79s-1,.39-.9,1.13,1.08.77,2.46.58c0,0,3.88-.43,5.09-.66s3.2-.86,3.15-3"/><path class="cls-2" d="M18.87,47.15c.14,0,18.92-3.78,18.92-3.78"/><line class="cls-2" x1="19.06" y1="50.84" x2="39.62" y2="46.58"/><path class="cls-1" d="M31.53,37.41s.75-1,1.2-1.14"/><path class="cls-1" d="M26.62,34.23a8.68,8.68,0,0,1,1.5-.33"/><path class="cls-1" d="M30,30.55s.77.39.84.74"/><path class="cls-1" d="M99.07,26.5a1.07,1.07,0,0,0-.18-.19l0-.07c.36-.77-.42-1.9-1.74-2.52a3.25,3.25,0,0,0-2.44-.26,3.33,3.33,0,0,0-2.19-.87,4,4,0,0,0-1.72.26c-5-3.5-16.66-8.29-29.54-6.88S38,24.59,33.74,29.11a3.86,3.86,0,0,0-1.76.12,3.37,3.37,0,0,0-2,1.32,3.25,3.25,0,0,0-2.31.78c-1.16.89-1.68,2.17-1.16,2.84l.07.06a.74.74,0,0,0-.14.22c-.31.79.78,2,2.43,2.6a4.94,4.94,0,0,0,2.62.36,3.75,3.75,0,0,0,1.86,1l5,14.11c1.3,2.13,12.23,2.87,26.21,1.42l.37,0,.41,0h.12C80,52.23,91,49,91.86,46.64l1.84-15-.77.61L92.84,32a4,4,0,0,0,1.94-1.5,5.05,5.05,0,0,0,2.48-.91C98.74,28.58,99.55,27.21,99.07,26.5Z"/><path class="cls-1" d="M95,30.45s-1-.83-1.42-.85"/><path class="cls-1" d="M99.14,26.29a8.3,8.3,0,0,0-1.54,0"/><path class="cls-1" d="M95,23.43s-.67.55-.65.9"/><path class="cls-1" d="M71.71,68a.5.5,0,0,0-.13-.25A3.32,3.32,0,0,0,70.19,67a3.9,3.9,0,0,0-.82-.19h-.14l-.51-.14a26.33,26.33,0,0,0-2.81-.37,5.32,5.32,0,0,0-1.26,0c.16-.73.33-1.46.48-2.19.24-1.19.35-2.42.64-3.59s.8-2.21,1.1-3.34a22.16,22.16,0,0,0,.63-3.44,1.05,1.05,0,0,0-1.3-1,1.12,1.12,0,0,0-1.76-.09,1.19,1.19,0,0,0-1-.29h0a.93.93,0,0,0-.63.48,3.58,3.58,0,0,1-2,0,1.1,1.1,0,0,0-1.65.94q.19,3.16.14,6.35c0,1-.1,2.09-.1,3.14,0,.76.18,1.56.19,2.33,0,.32-.07.63-.08.94a7.92,7.92,0,0,0-2.32-.23,7.61,7.61,0,0,0-3.44,1,1.09,1.09,0,0,0-.33.35l-.73.25a1.08,1.08,0,0,0-.76,1.1.86.86,0,0,0-.34.51.54.54,0,0,0,.52.69l4.78-.1L59,70a13.34,13.34,0,0,0,2.19-.1.58.58,0,0,0,.25-.12.51.51,0,0,0,.25.17,2.24,2.24,0,0,0,.89.1.73.73,0,0,0,.21-.06c3.16,0,6.33-.1,9.5.11a.56.56,0,0,0,.54-.55A1.9,1.9,0,0,0,71.71,68Z"/><path class="cls-1" d="M112.7,41.42a.49.49,0,0,0-.17-.06c.09-.21.19-.41.27-.62a2.13,2.13,0,0,0,.18-1.05,2.16,2.16,0,0,0-1.3-1.49.55.55,0,0,0-.6,0,.56.56,0,0,0-.2.58h0V39a1.47,1.47,0,0,1,0,.21h0s0,.06,0,.09a.41.41,0,0,1,0,.07l0,.05a.43.43,0,0,1,0,.07h0l-.07.07h0a2.85,2.85,0,0,0-.87-.75,2.64,2.64,0,0,0-.38-.18.45.45,0,0,0-.37-.15H109a2.58,2.58,0,0,0-.72-.12l-.16,0a1,1,0,0,0-.33,0,.88.88,0,0,0-.3.13.8.8,0,0,0-.22.23,2.28,2.28,0,0,0-.36.5,4.43,4.43,0,0,0-.41.91l-6.43-.23c-.76,0-1.53,0-2.3-.07a1.47,1.47,0,0,0-.36,0h-.07c-.25,0-.49,0-.73-.09a2.47,2.47,0,0,0-1.72,0h-.1c-.38-.07-.75-.17-1.14-.26a4.34,4.34,0,0,0-1-.12,3.4,3.4,0,0,0-.46.07,1.64,1.64,0,0,0-1.76,2.68,2,2,0,0,0,1.46.64,3,3,0,0,0,.8-.1h.06l.87.21a12,12,0,0,0,1.45.2,21.87,21.87,0,0,0,2.29,0,1.55,1.55,0,0,0,.43-.07.62.62,0,0,0,.34.14l4,.31c.65,0,1.31.12,2,.11.28,0,.57-.05.86,0a2.71,2.71,0,0,1,.75.16l.12.49a1.17,1.17,0,0,0,.5.71,2.54,2.54,0,0,0,.38.16l.3.12a2.7,2.7,0,0,0,.7.12,2.45,2.45,0,0,0,.81.79,3,3,0,0,0,1.82.3,2.59,2.59,0,0,0,1-.22,2,2,0,0,0,.69-.68,2.09,2.09,0,0,0,.24-1.68,2,2,0,0,0,.91-1.35A1,1,0,0,0,112.7,41.42Z"/><path class="cls-2" d="M65.45,53.83C51,55.41,39.66,54.67,38.34,52.5l-5-14.29"/><path class="cls-2" d="M65.33,53.84c14.6-1.6,25.69-4.79,26.53-7.2l1.84-15"/><path class="cls-2" d="M93.5,25.61c.27,2.51-13.33,6.06-30.39,7.93S32,34.89,31.72,32.38,44.25,17.84,61.31,16,93.22,23.1,93.5,25.61Z"/><path class="cls-2" d="M33.78,29.11a3.9,3.9,0,0,0-1.8.12,3.37,3.37,0,0,0-2,1.32,3.25,3.25,0,0,0-2.31.78c-1.16.89-1.68,2.17-1.16,2.84l.07.06a.74.74,0,0,0-.14.22c-.31.79.78,2,2.43,2.6a4.94,4.94,0,0,0,2.62.36,4.47,4.47,0,0,0,2.7,1.14,5.11,5.11,0,0,0,2.5-.27,5,5,0,0,0,2.51.74,4.94,4.94,0,0,0,2.53-.47,5.64,5.64,0,0,0,5.2-.07,5.61,5.61,0,0,0,5.26-.25,4.81,4.81,0,0,0,2.71.47,5,5,0,0,0,2.44-.78,5,5,0,0,0,2.59.33,6.49,6.49,0,0,0,1.44-.33"/><path class="cls-2" d="M90.79,22.87a4,4,0,0,1,1.78-.28,3.33,3.33,0,0,1,2.19.87,3.25,3.25,0,0,1,2.44.26c1.32.62,2.1,1.75,1.74,2.52a.35.35,0,0,0,0,.08.77.77,0,0,1,.18.18c.48.71-.33,2.08-1.81,3.07a5.05,5.05,0,0,1-2.48.91,4.5,4.5,0,0,1-2.39,1.7,5.17,5.17,0,0,1-2.49.28A5.63,5.63,0,0,1,85,33.81a5.57,5.57,0,0,1-5.08,1A4.85,4.85,0,0,1,77.45,36a4.92,4.92,0,0,1-2.7-.2,5.62,5.62,0,0,1-5.1.81,5,5,0,0,1-2.45.88,5.2,5.2,0,0,1-1.39-.07"/><path class="cls-2" d="M61.48,36.66l0,1.23a4.84,4.84,0,0,0,2.15.19,5.19,5.19,0,0,0,2.21-.69l-.44-1.15"/><path class="cls-2" d="M52.23,38.23a3.75,3.75,0,0,1,.4-1.15"/><path class="cls-2" d="M57.38,37.92s.12-1.14.21-1"/><path class="cls-2" d="M47,38.48a4.1,4.1,0,0,1,.64-1.11"/><path class="cls-2" d="M41.77,38.55s.33-.85.81-1"/><path class="cls-2" d="M36.73,38.28a7.69,7.69,0,0,1,1.46-1.38"/><path class="cls-2" d="M31.53,37.41s.75-1,1.2-1.14"/><path class="cls-2" d="M26.62,34.23a8.68,8.68,0,0,1,1.5-.33"/><path class="cls-2" d="M30,30.55s.77.39.84.74"/><path class="cls-2" d="M75,35.74a3.73,3.73,0,0,0-.64-1"/><path class="cls-2" d="M69.9,36.55s-.36-1.09-.41-.94"/><path class="cls-2" d="M80.19,34.84a4.17,4.17,0,0,0-.86-.94"/><path class="cls-2" d="M85.28,33.78s-.51-.76-1-.81"/><path class="cls-2" d="M90.15,32.43a8,8,0,0,0-1.73-1"/><path class="cls-2" d="M95,30.45s-1-.83-1.42-.85"/><path class="cls-2" d="M99.14,26.29a8.3,8.3,0,0,0-1.54,0"/><path class="cls-2" d="M95,23.43s-.67.55-.65.9"/><path class="cls-2" d="M59.13,54.39l0,12a2.47,2.47,0,0,0,.69.35"/><path class="cls-2" d="M59.69,70.14c-2.9,0-7.55,0-7.55,0s-1,0-.84-.81,1.86-3.34,7.85-2.94"/><path class="cls-2" d="M61.4,69.58s0,.53-.45.53l-1.59,0"/><path class="cls-2" d="M67.59,53.58l-3,12.9a3.13,3.13,0,0,1-.8.22"/><path class="cls-2" d="M61.4,69.53s0,.55.45.58,10.31.06,10.31.06,1,0,.84-.81-2-3.51-8.46-2.88"/><line class="cls-2" x1="63.2" y1="54.13" x2="61.4" y2="69.58"/><path class="cls-3" d="M62.88,17.28A4.66,4.66,0,0,0,57,12.48c-4.25,1.49-4.25,5.27-2.43,7.81.29.4.75-.22,1-.6a10.89,10.89,0,0,1,3.38-1.35c1.09-.21,2.78.12,3.81-.25C63,18,62.84,17.52,62.88,17.28Z"/><path class="cls-3" d="M72,13.68a.53.53,0,0,0-.14-.12,1,1,0,0,0-.54-.77l-.19-.1-1.31-.93c-.22-.16-.49-.46-.69-.41-.37-.17-.71,0-1.08-.12a3.74,3.74,0,0,0-2.7.84c-1.35.9-3.24,3.2-2.15,4.81.39.57,1.43.12,1.79-.35,1-.26,2-.39,3-.69A13.52,13.52,0,0,1,71,15C71.73,15.37,72.65,14.33,72,13.68Z"/><path class="cls-2" d="M55.46,21.05a4.79,4.79,0,1,1,4.32.48"/><path class="cls-2" d="M63.2,17.12a4.89,4.89,0,0,1,0-2.46,4.8,4.8,0,0,1,9.22-.06"/><polyline class="cls-4" points="62.88 17.28 77.83 13.44 67.02 24.12"/><path class="cls-2" d="M62.74,18.24s-4.67-.33-8,2.28"/><ellipse class="cls-5" cx="57.59" cy="16.36" rx="1.14" ry="0.92" transform="translate(22.06 64.54) rotate(-69.45)"/><path class="cls-5" d="M65.84,16.52a1.22,1.22,0,0,1-.11-1.13.94.94,0,1,1,1.73.65"/><path class="cls-3" d="M63.94,26.59a3.81,3.81,0,0,1-1.57-.26.8.8,0,0,1-.53.15,13.77,13.77,0,0,1-3.93-1,12.63,12.63,0,0,1-3.48-1.89.86.86,0,0,1-.16-.18l-.59-.24c-.12-.11-.18-.11-.25-.27s-.38-.16-.4-.23a4.29,4.29,0,0,1-.94-1.28l-.21-.09s-4,7,2.71,9.58c7.33,2.88,9.53-4.21,9.53-4.21Z"/><path class="cls-2" d="M51.39,20.25a11.35,11.35,0,0,0,5.91,5A15.54,15.54,0,0,0,65,26.41"/><path class="cls-2" d="M64.12,26.67s-2.4,7.55-9.53,4.21c-6.53-3.05-2.71-9.58-2.71-9.58"/><path class="cls-2" d="M51,23.72a10,10,0,0,0,5.15,4.19,12.45,12.45,0,0,0,6.87.85"/><path class="cls-6" d="M109.61,56.07c.41-2.74.41-5.61.59-8.38a.6.6,0,0,0,0-.32.61.61,0,0,0,0-.15.41.41,0,0,0,.12-.29.43.43,0,0,0-.42-.41,6.39,6.39,0,0,1-.75.09h0l-.12-.09a1.41,1.41,0,0,1-.27-.18c-.29-.34-.78,0-.7.4a2.8,2.8,0,0,1,.06,1,.57.57,0,0,0,0,.29,59.86,59.86,0,0,0-.53,6.13c-.08,1-.5,2.42,1,2.4a2,2,0,0,0,1-.53Z"/><path class="cls-6" d="M115.8,33.15c.07-2.16.84-5.53-.78-7.33s-3.69-1.14-5,.68c-.18.25-.45.86-.35,1.06a8.81,8.81,0,0,0-.36,2.51c-.12,1.16-.23,2.31-.35,3.47a.65.65,0,0,0,.16.54.53.53,0,0,0,0,.13c0,.14,0,.28,0,.42s0,0,0,.06c-.11.87-.29,1.76-.34,2.64a.61.61,0,0,0-.16.27.77.77,0,0,0,.52.92.52.52,0,0,0,.35,0l.37.24a1.86,1.86,0,0,0,.1.39c.13.35.72.44.8,0a5.67,5.67,0,0,0,.07-.82s0,0,0-.08a.43.43,0,0,0,0-.05c0-.33,0-.65,0-1a7.14,7.14,0,0,0,.29-2.64.87.87,0,0,0-.05-.28v0a11,11,0,0,0,.05-1.52.78.78,0,0,0,0-.16c0-.12,0-.24,0-.35a12.57,12.57,0,0,0,.39-2.91s0,0,0-.07a.73.73,0,0,0,.09-.22c.1-.49.38-1.5.94-1.7,1.14-.41,1,1,1.13,1.66a10,10,0,0,1-.21,3.86.84.84,0,0,0,.81,1h.33A.83.83,0,0,0,115.8,33.15Z"/><path class="cls-2" d="M106.31,40.62c.12-.92.57-2.72,2.2-2.46,2.16.34,1.87,2.35,1.5,3.52,0,0-.36,1.57-1.67,1.2-1.15-.32-.93-1.75-.81-2.18a3.31,3.31,0,0,0,.25-1.19"/><path class="cls-2" d="M111,38s2.05.28,2.07,1.88a2.51,2.51,0,0,1-3.28,2.35"/><path class="cls-2" d="M108.18,42.83a1.47,1.47,0,0,0,1.24,1.62c1.37.16,3.93-.5,3.77-2.26a2,2,0,0,0-.38-1.06"/><path class="cls-2" d="M112.06,44a1.49,1.49,0,0,1,.27,1.17c-.13.72-1,1.44-2.62,1.38s-2-1-1.92-1.64a1.17,1.17,0,0,1,.63-.85"/><line class="cls-2" x1="106.4" y1="40.07" x2="92.74" y2="39.46"/><line class="cls-2" x1="105.7" y1="43.75" x2="92.33" y2="42.75"/><path class="cls-2" d="M110.31,39.47s.34.12.8-.32"/><path class="cls-2" d="M107.77,45.3a1.81,1.81,0,0,1-2.1-2"/><path class="cls-2" d="M109.6,56.18c0,.27-.52.46-1.12.42s-1.07-.3-1-.58"/><path class="cls-2" d="M115.68,33.59c0,.28-.52.46-1.12.42s-1.07-.3-1-.58"/><path class="cls-2" d="M108.72,38.2l.6-8.28s.19-5.44,3.63-5.19,3,4.48,3,5.2-.27,3.66-.27,3.66"/><line class="cls-2" x1="107.43" y1="56.02" x2="108.15" y2="46.08"/><path class="cls-2" d="M110.82,39.3l.65-8.94s.17-3.22,1.45-3.13.83,2.95.79,3.51-.2,2.69-.2,2.69"/><line class="cls-2" x1="109.6" y1="56.18" x2="110.3" y2="46.58"/></g></svg>