<svg xmlns="http://www.w3.org/2000/svg" viewBox="0 0 53.64 33.44"><defs><style>.cls-1,.cls-9{fill:#af6e30;}.cls-11,.cls-2{fill:#fff;}.cls-13,.cls-3{fill:#1c204d;}.cls-4{fill:#0077bf;}.cls-5{fill:#1f4686;}.cls-6{fill:#f9e398;}.cls-7{fill:#f47951;}.cls-8{fill:none;}.cls-11,.cls-12,.cls-13,.cls-8,.cls-9{stroke:#1c204d;stroke-linecap:round;stroke-linejoin:round;stroke-width:0.4px;}.cls-10,.cls-12{fill:#f9b730;}.cls-14{fill:#1d1c4c;}</style></defs><g id="Layer_1" data-name="Layer 1"><path class="cls-1" d="M14.6,9.83a.72.72,0,0,0-.29-.59.38.38,0,0,0,0-.15,5.23,5.23,0,0,0-1-1.94A.31.31,0,0,0,13,7.06a2.53,2.53,0,0,0-.62-.43,3.92,3.92,0,0,0-1-.36,3.19,3.19,0,0,0-1.07.05,6,6,0,0,0-1,.2,2.26,2.26,0,0,0-.78.55.35.35,0,0,0,.18.59.76.76,0,0,0,.47,0c.09,0,.28-.14.39-.09s.16.23.2.32a1.45,1.45,0,0,1,.11.29l-.7.8a3.34,3.34,0,0,1-.32.33l0,0-.11.06,0,0h0a1.46,1.46,0,0,0-.16-.19.89.89,0,0,0-.43-.29A.5.5,0,0,0,7.75,9a.2.2,0,0,0-.15.1l-.09.07a.21.21,0,0,0-.07.15l-.06.08a1,1,0,0,0,0,.94,1.34,1.34,0,0,0,.36.4l.06.11c.1.22,0,.49.12.7h0a.28.28,0,0,0-.18.33,2.21,2.21,0,0,0,.18.34A.25.25,0,0,0,8,12.4l.07.07H8v0c.12.27.22.55.33.83s.21.56.34.83.57.25.85.17h0l.51.08a.7.7,0,0,0,.43,0c.12,0,.25.1.39.14a.94.94,0,0,0,.5,0h0l.06.14c.09.22.18.44.26.67a.28.28,0,0,0,.34.18.28.28,0,0,0,.17-.34v0h0l0-.08a.33.33,0,0,0,.11-.27,1.09,1.09,0,0,1,0-.18h0v0a.29.29,0,0,1,0-.09,1.05,1.05,0,0,1,.05-.19h0l0-.09c.1-.25.23-.49.32-.74a6,6,0,0,0,1.12-1.56,2.65,2.65,0,0,0,.31-.91,2.26,2.26,0,0,0,0-.26.37.37,0,0,0,.15-.13A1.29,1.29,0,0,0,14.6,9.83Z"/><path class="cls-1" d="M20.55,16.26a1.53,1.53,0,0,0-1.34-.55l-.27,0a.55.55,0,0,0-.28.12h-.05a.29.29,0,0,0-.26.28h0c-.1.11-.2.22-.29.34h0a4.77,4.77,0,0,1-.83.28,3,3,0,0,1-.9,0l-1.42-.17c.26-.17.52-.35.79-.5.51-.28,1.05-.49,1.53-.81a.2.2,0,0,0,.09-.09.76.76,0,0,0,.3,0A1.24,1.24,0,0,0,18.2,15l.25-.21a.81.81,0,0,0,.21-.24s0,0,0-.07l.35.12a1.49,1.49,0,0,0,.55.14.28.28,0,0,0,.11-.51l0,0h0l-.07-.06a.76.76,0,0,0-.23-.13l-.09,0-.07,0a1.4,1.4,0,0,1-.17-.09,1.51,1.51,0,0,0-.58-.18.18.18,0,0,0-.09,0l.07,0a1.19,1.19,0,0,0,.23-.16,2.59,2.59,0,0,1,.4.09.33.33,0,0,0,.24,0l.21,0a.24.24,0,0,0,.2,0,.23.23,0,0,0,.07-.07.19.19,0,0,0,.05-.1.29.29,0,0,0,0-.2.28.28,0,0,0-.16-.12l-.2,0a.37.37,0,0,0-.21-.15,3.09,3.09,0,0,0-.62-.11,1.2,1.2,0,0,0-.61.15h0a.3.3,0,0,0-.06-.18.62.62,0,0,1,.29-.38l.1,0,.18-.08a1.07,1.07,0,0,0,.28-.19.76.76,0,0,0,.16-.06.41.41,0,0,0,.19-.22.32.32,0,0,0-.14-.41.29.29,0,0,0-.24,0l-.08,0-.07,0h-.16a.76.76,0,0,0-.28.09.78.78,0,0,0-.26.22l-.13.07a1.34,1.34,0,0,0-.5.69,6.22,6.22,0,0,1-.73,1.43s0,0,0,0c-.25.18-.56.28-.81.46l-.55.4-.52.3a.31.31,0,0,0-.14.18l-.31.16c-.21.12-.41.25-.62.39a.86.86,0,0,0-.31.26.45.45,0,0,0,0,.28,29.46,29.46,0,0,0-3-.49.28.28,0,0,0-.31.23.26.26,0,0,0,0,.12,7.58,7.58,0,0,1-.24,1.15.36.36,0,0,0,.54.38h0c.46,0,.93.06,1.39.1s1,.06,1.55.08,1,.22,1.49.28a5.84,5.84,0,0,1,1.45.1.27.27,0,0,0,.3-.06,1.67,1.67,0,0,0,1,.37,1.24,1.24,0,0,0,.71-.19.47.47,0,0,0,.1-.1,5.77,5.77,0,0,0,.27.56.75.75,0,0,0,.2.33.27.27,0,0,0,.41-.34L19,18.63l0-.08-.09-.48a.68.68,0,0,0-.21-.4l-.05,0h0l.16-.05a3.8,3.8,0,0,0,.67.66.27.27,0,0,0,.35,0,.29.29,0,0,0,.06-.35,6.07,6.07,0,0,0-.48-.82.51.51,0,0,0-.26-.22,1.07,1.07,0,0,0-.25,0h-.11a1.44,1.44,0,0,0,.18-.25.22.22,0,0,0,0-.18,3.39,3.39,0,0,1,.55.13l.44.14a1,1,0,0,0,.45,0A.27.27,0,0,0,20.55,16.26Z"/><path class="cls-2" d="M11.92,8.65a.81.81,0,0,0-.36,1.57A.81.81,0,0,0,11.92,8.65Z"/><path class="cls-2" d="M13.62,8.75a.71.71,0,0,0-.32,1.39A.71.71,0,0,0,13.62,8.75Z"/><path class="cls-2" d="M10.53,12a1.66,1.66,0,0,0,.74.6,2.7,2.7,0,0,0,.41.08l.47.07a.19.19,0,0,0,.21-.13.18.18,0,0,0-.09-.2v0a.82.82,0,0,0-.36-.24L11.52,12a5.74,5.74,0,0,0-.8-.26C10.59,11.66,10.43,11.84,10.53,12Z"/><path class="cls-3" d="M10.38,11.31c-.16.19,0,.53.27.44h.11l0,0a.26.26,0,0,0,.32,0l.18.06.08.05a1,1,0,0,0,.41.11.28.28,0,0,0,.27.23h.06l.07,0s0,0,0,0l0,0h0a.23.23,0,0,0,.12.18.26.26,0,0,0,.32-.05.67.67,0,0,0,.09-.74.26.26,0,0,0-.3-.11l-.15-.06a1.27,1.27,0,0,0-.43-.05.52.52,0,0,1-.29-.05.76.76,0,0,1-.2-.2.71.71,0,0,0-.34-.3.38.38,0,0,0-.47.09C10.53,11.06,10.48,11.2,10.38,11.31Z"/><path class="cls-3" d="M8,11.87a.19.19,0,0,0,0-.08,0,0,0,0,0,0,0v0a.08.08,0,0,1,0,0,.72.72,0,0,0-.09-.2.18.18,0,0,0-.07-.08h0a.81.81,0,0,0,0-.16v0a.5.5,0,0,0-.07-.36l-.06-.11h0a.69.69,0,0,0,0-.1.17.17,0,0,0-.2-.12.16.16,0,0,0-.14.18.09.09,0,0,0,0,0h0v0a.19.19,0,0,1,0,.07,1.61,1.61,0,0,1,.09.29.3.3,0,0,1,0,.1h0a.19.19,0,0,0,0,.08.37.37,0,0,0,0,.15.36.36,0,0,0,0,.09v.07a.2.2,0,0,0,0,.11.88.88,0,0,1,0,.15v0a.17.17,0,0,0,0,.1.18.18,0,0,0,.06.09l.05,0a.23.23,0,0,0,.11,0h.07l.09,0,0,0A.24.24,0,0,0,8,12,.37.37,0,0,0,8,11.87Z"/><path class="cls-3" d="M9.5,10.33h0v0l0-.07a1,1,0,0,0,0-.16c0-.1,0-.2,0-.3s-.05-.37-.07-.55a2.74,2.74,0,0,0,.4-.5,1.35,1.35,0,0,0,.11-1,.6.6,0,0,0-.27-.39,1.36,1.36,0,0,0-.43-.14,1.29,1.29,0,0,0-.48,0l-.2,0a.19.19,0,0,0,0-.1.18.18,0,0,0-.2-.07.28.28,0,0,0-.18.17A.24.24,0,0,0,8,7.37a3.3,3.3,0,0,0-.61,1.5.18.18,0,0,0,.3.17.74.74,0,0,1,.52-.12,1,1,0,0,1,.23,0l.21.31a.36.36,0,0,0,.14.11v.27a.2.2,0,0,0,0,.13l.08.08a.13.13,0,0,0,0,.09l0,.18a.63.63,0,0,0,0,.23.31.31,0,0,0,.24.28l.18.05a.24.24,0,0,0,.25-.08A.27.27,0,0,0,9.5,10.33Z"/><path class="cls-4" d="M16.62,25.91a.28.28,0,0,0,0-.13.47.47,0,0,0-.1-.1l-.11-.05c-.38-.51-.68-1.07-1-1.6s-.85-1.26-1.23-1.93h0a.33.33,0,0,0,0-.17v-.06s0-.06,0-.09l.06-.1c0-.09.07-.18.1-.27a.25.25,0,0,0,0-.2.33.33,0,0,0-.16-.12.27.27,0,0,0-.2,0,.26.26,0,0,0-.1.11l-.08,0a.26.26,0,0,0-.11.16l0,.06-.11-.07a1,1,0,0,0-.53-.1,1.64,1.64,0,0,0-.44.09.75.75,0,0,0-.18.08h-.18l-.09.05-.1.06a2,2,0,0,0-.39.18l-.06.05a.31.31,0,0,0-.17,0,6.62,6.62,0,0,1-2.21-.24,6.17,6.17,0,0,1-2.07-.81c-.23-.15-.52.08-.52.33a3.89,3.89,0,0,0,.37,1.58,3.09,3.09,0,0,0,.34.56.29.29,0,0,0,.06.19,2,2,0,0,0,.69.62.51.51,0,0,0,.2,0,3.27,3.27,0,0,0,.5.32l-.18.33-.06.13,0,0-.29-.15-.28-.17-.13-.08-.07-.05h0a.24.24,0,0,0-.11-.06.33.33,0,0,0-.13-.19.29.29,0,0,0-.37.11,2.77,2.77,0,0,0-.43.94c0,.17,0,.34-.1.51a1,1,0,0,1-.22.36c-.17.2,0,.54.28.44h0a1.75,1.75,0,0,0,.6.4l.06,0c.22.15.43.31.64.47A3,3,0,0,0,9,28.07a.55.55,0,0,0,.18,0,.34.34,0,0,0,.3-.2A3.46,3.46,0,0,0,11,27c.29-.27.55-.56.85-.82a4.68,4.68,0,0,0,.8-.74,0,0,0,0,0,0,0l.54.72c.18.25.37.51.54.77s.35.54.65.59l0,0c0-.06,0,0,0,0l.09.12.17.25a3.51,3.51,0,0,0,.4.53.27.27,0,0,0,.44-.14h0l.08,0a.27.27,0,0,0,.15-.4,1.92,1.92,0,0,1-.27-.46.52.52,0,0,0-.11-.1l.15-.14a.37.37,0,0,0,.07-.12s0,0,0-.05,0,0,.05,0a4.58,4.58,0,0,0,.76-.7.28.28,0,0,0,.09-.06.32.32,0,0,0,.09-.17v0A.33.33,0,0,0,16.62,25.91Z"/><path class="cls-5" d="M4.53,26.51a.42.42,0,0,0,0-.16.36.36,0,0,0-.1-.14l-.09-.07a.39.39,0,0,0-.23-.05l-.12,0a.39.39,0,0,0-.19.12,1.77,1.77,0,0,0-.21.32s0,0,0,.06h0l-.07.09v0s0,.07,0,.11v0a.33.33,0,0,0,0,.14.26.26,0,0,0,.05.12l.06.08a.3.3,0,0,0,.16.08h0a.33.33,0,0,0,.14,0A.21.21,0,0,0,4,27.24l.06,0h0l.1-.05A.41.41,0,0,0,4.34,27l.09-.16a.37.37,0,0,0,.07-.12A.52.52,0,0,0,4.53,26.51Z"/><path class="cls-5" d="M18.9,25.11a.34.34,0,0,0,0-.2.2.2,0,0,0-.26-.16.39.39,0,0,0-.11.06h-.11a2.38,2.38,0,0,0-1.64,1,3.27,3.27,0,0,0-.43.95,1.15,1.15,0,0,1-.46.73.35.35,0,0,0-.1.49v0a2.26,2.26,0,0,0,.32.54,1.07,1.07,0,0,0,.18.19c.09.06.2,0,.31.06a.17.17,0,0,0,.24-.07c.33-.6.75-1.15,1.1-1.73a7.58,7.58,0,0,1,1.07-1.62A.17.17,0,0,0,18.9,25.11Z"/><path class="cls-6" d="M14.54,19.47c0-.27-.1-.54-.17-.81A1.19,1.19,0,0,0,14,18a.27.27,0,0,0-.37,0,3.94,3.94,0,0,0-.84-.1.26.26,0,0,0-.14,0h0a1.75,1.75,0,0,0-.51,0,1.06,1.06,0,0,0-.25,0l-.39,0h-.08a2,2,0,0,0-.73-.05l-.09,0-.1,0h0a.29.29,0,0,0-.17-.06l-.39,0-.31,0a4.57,4.57,0,0,1,.09-.82,3.46,3.46,0,0,1,.19-.68c0-.1.08-.2.1-.3a.28.28,0,0,0,0-.09h.18l.42,0a7.63,7.63,0,0,1,.83.17h.14a3,3,0,0,0,.67.06,3.9,3.9,0,0,1,.76.13c.09,0,.13-.09.08-.16L13,16h0a.38.38,0,0,0,0-.15.16.16,0,0,0-.07-.09l-.18-.3a.93.93,0,0,0-.05-.1v0l0-.06s0,0,0-.05v0a.48.48,0,0,1,0-.12.19.19,0,0,0-.17-.17.18.18,0,0,0-.19.14l0,.05v0h0a1,1,0,0,1,0,.1.89.89,0,0,1-.08.17,1.92,1.92,0,0,1-.18.31l0,0a7.13,7.13,0,0,1-.66-1,.29.29,0,0,0-.31-.11,1.73,1.73,0,0,1-.75,0,6.53,6.53,0,0,0-.76-.08h-.4a3.38,3.38,0,0,0-.34-.08c-.32,0-.43.28-.55.51a.26.26,0,0,0,.17.39l.08,0-.25.11a3.59,3.59,0,0,0-.54.4.35.35,0,0,0-.07.12A.45.45,0,0,0,7.3,16a.6.6,0,0,0-.08.29c0,.13,0,.25,0,.38a2,2,0,0,0,.06.42.7.7,0,0,0,.14.27,10.07,10.07,0,0,0-.71,1.29.19.19,0,0,0,0,.1c0,.08-.09.17-.14.26a7.19,7.19,0,0,0-.39.9c-.09.26-.27.65,0,.88a.35.35,0,0,0,.14.06.31.31,0,0,0,.15.1c.19.06.39.07.58.15s.35.15.53.2c.39.11.75.27,1.15.36a7.26,7.26,0,0,0,1.22.22,5.42,5.42,0,0,1,.57,0,2.5,2.5,0,0,0,.61.09.23.23,0,0,0,.23-.17,6.14,6.14,0,0,1,.59-.25l.33-.11a.26.26,0,0,0,.1-.07,4.83,4.83,0,0,1,.76,0c.25,0,.4.24.67.12a2.61,2.61,0,0,0,.65-.45C14.82,20.62,14.63,20,14.54,19.47Z"/><path class="cls-7" d="M6.76,24.09A.3.3,0,0,0,6.59,24a1.09,1.09,0,0,1-.13-.17.33.33,0,0,0-.59.14,4.25,4.25,0,0,1-.21.49,1.36,1.36,0,0,0,0,.53.3.3,0,0,0,.31.29l0,.07a.32.32,0,0,0,.27.19l0,0a.16.16,0,0,0,.26,0h0a.19.19,0,0,0,0-.14.3.3,0,0,0,0-.32c-.05-.11,0-.16,0-.26s.07-.22.13-.25A.33.33,0,0,0,6.76,24.09Z"/><path class="cls-7" d="M16.23,26.54l-.11.22a.31.31,0,0,0-.19,0,.2.2,0,0,0-.12.15,2.27,2.27,0,0,0-.3.32c-.16.27.25.53.41.26s.26-.23.35-.38a.24.24,0,0,0,0-.28l.12-.23C16.42,26.53,16.28,26.44,16.23,26.54Z"/><path class="cls-5" d="M5.91,23.44c-.07-.06-.13-.08-.18-.05h0a.24.24,0,0,0-.26-.18h0l-.07,0a.23.23,0,0,0-.4.05c-.48,1.22-1,2.42-1.53,3.62a.24.24,0,0,0,.12.32.35.35,0,0,1,.15.17.23.23,0,0,0,.22.1c.93,0,1.66-.94,2-1.76a.27.27,0,0,0,.09-.12.32.32,0,0,0-.16-.43l0,0h0l0,0s0,0,0,0l0,0a.35.35,0,0,0,0-.11v-.06a.29.29,0,0,0,0-.16,1.31,1.31,0,0,1,.08-.36c0-.11,0-.31.12-.39a.39.39,0,0,0,.08-.1A.24.24,0,0,0,5.91,23.44Z"/><path class="cls-8" d="M16.22,27.65A3.64,3.64,0,0,1,16.68,26a2.47,2.47,0,0,1,2.11-1.27s.36,0,.1.38-2.27,3.56-2.27,3.56-.21.35-.47,0-.71-1.3-.71-1.3"/><path class="cls-8" d="M15.81,28.16c-.24.26-.57.54-.78.31s.22-1,.47-1.22a13.84,13.84,0,0,0,1.09-1.09"/><line class="cls-8" x1="15.03" y1="28.47" x2="11.51" y2="24.04"/><path class="cls-8" d="M6.11,26.33a2.93,2.93,0,0,0,.47-1.08A1.65,1.65,0,0,1,7.21,24l1.11.81"/><path class="cls-8" d="M9.29,28.08a.91.91,0,0,1-.79-.2c-1-.67-2.39-1.55-2.39-1.55"/><path class="cls-8" d="M7,24.26l-1.33-1s-.36-.31-.54.24-1.52,3.62-1.52,3.62a.25.25,0,0,0,.21.37c.36,0,1.54-.13,2.18-2.09"/><line class="cls-8" x1="5.59" y1="25.03" x2="6.44" y2="25.72"/><path class="cls-8" d="M3.54,27.2s-.31.1-.19-.19l1.58-3.74a.19.19,0,0,1,.31-.09"/><path class="cls-8" d="M18.91,25.1s.33-.05.16.22l-2.16,3.43a.2.2,0,0,1-.33,0"/><path class="cls-8" d="M6.12,23.62a2.12,2.12,0,0,0-.48,1.45"/><path class="cls-8" d="M15.64,27.73a1.29,1.29,0,0,0,.64-.6"/><path class="cls-8" d="M13.23,16.26a15.9,15.9,0,0,1-.76-1.56"/><path class="cls-8" d="M13.66,21.53a2,2,0,0,0,1-.8,6.86,6.86,0,0,0-.44-2.61"/><path class="cls-8" d="M6,20.72A13.83,13.83,0,0,0,11,22"/><path class="cls-8" d="M8.67,14.06c-.14,0-.18.12-.05.18a14.56,14.56,0,0,0,2.66.19"/><path class="cls-8" d="M8.54,14.13l-.43.94a11.73,11.73,0,0,0,2.8.3l.37-.94L12,15.65l.57-1.17.33,1.11"/><line class="cls-8" x1="9.28" y1="18.24" x2="9.74" y2="18.35"/><path class="cls-8" d="M8.78,15.27a1.47,1.47,0,0,0-1.56,1.24c-.08.77.49,1.37,1.39,1.57"/><line class="cls-8" x1="10.29" y1="15.35" x2="9.62" y2="15.32"/><path class="cls-8" d="M12.56,25.37a8.57,8.57,0,0,1-3.23,2.69"/><path class="cls-8" d="M14.35,21.1a8.11,8.11,0,0,1-.23.92"/><path class="cls-8" d="M8.65,24.47a2.74,2.74,0,0,1-.7.86"/><path class="cls-8" d="M14.08,22.05a1.3,1.3,0,0,0-1.41-.69,27.24,27.24,0,0,0-2.81,1.12"/><path class="cls-8" d="M16.64,26l-2.46-3.74a1.43,1.43,0,0,0-.1-.16"/><path class="cls-8" d="M6.49,21s-.1,4.62,5.17,3.38"/><path class="cls-8" d="M16.35,18a1.22,1.22,0,0,0,1.82.41"/><path class="cls-8" d="M18.9,18.1l.22.74s.08.25-.06.35-.61,0-.74-.53l-.11-.36"/><path class="cls-8" d="M18.9,18.1l-.07-.25a.79.79,0,0,0-.51-.36l-.36.05"/><path class="cls-8" d="M18.62,17.62l.28,0c.21.47.66.82.86.75s.1-.29.1-.29a8.07,8.07,0,0,0-.41-.89.67.67,0,0,0-.69-.37l-.45.12"/><line class="cls-8" x1="18.97" y1="17.49" x2="18.9" y2="17.6"/><path class="cls-8" d="M18.81,16.78l.23-.35.59.12c.43.27.86.2,1,0s-.12-.39-.12-.39l-.37-.27a1.19,1.19,0,0,0-.37-.16,7.63,7.63,0,0,0-1,0,.77.77,0,0,0-.32.21l-.43.61-1.11.26-6.73-1"/><path class="cls-8" d="M18.86,16.31s.13.14.19.14"/><path class="cls-8" d="M17.27,15.05c.23.25,1,.19,1.38-.56"/><path class="cls-8" d="M19,13.8l.66.38s.24.13.2.3-.46.4-.9.12l-.33-.18"/><path class="cls-8" d="M19,13.8l-.23-.13-.17,0-.2,0"/><path class="cls-8" d="M18.29,13.78l.37-.35c.47.2,1.05.15,1.14,0s-.13-.29-.13-.29a8.42,8.42,0,0,0-.91-.37.84.84,0,0,0-.77.12"/><line class="cls-8" x1="18.63" y1="13.31" x2="18.66" y2="13.43"/><path class="cls-8" d="M17.22,12.26l0-.06a9.26,9.26,0,0,1,.74-.72,1.06,1.06,0,0,1,.38-.14l.45-.06s.31,0,.36.21-.22.58-.71.68l-.51.32v.84"/><line class="cls-8" x1="13.15" y1="16.04" x2="16.29" y2="13.98"/><path class="cls-8" d="M17.75,12.53s.18,0,.23,0"/><path class="cls-8" d="M10.07,17.77c-.11.37-.22.6-.3.59s-.12-.72,0-1.55.37-1.48.5-1.46.1.19.1.47"/><line class="cls-8" x1="16.54" y1="18.23" x2="9.68" y2="17.68"/><path class="cls-8" d="M6,20.72a7.6,7.6,0,0,1,1.43-3.35"/><line class="cls-8" x1="8.29" y1="15.12" x2="8.23" y2="15.3"/><path class="cls-8" d="M12.39,14.86a4,4,0,0,1,.88-1.95,9.49,9.49,0,0,0,.55-.9"/><path class="cls-8" d="M14,11.71a2.1,2.1,0,0,1-.15.3l0,.05"/><path class="cls-8" d="M14.27,9.27a5,5,0,0,1,0,1.44,5.3,5.3,0,0,1-.27,1"/><path class="cls-8" d="M11,6.22a4.72,4.72,0,0,1,.71.11,3.28,3.28,0,0,1,2.52,2.94"/><path class="cls-8" d="M8.36,7.19a3.16,3.16,0,0,1,2-.94,4.43,4.43,0,0,1,.72,0"/><path class="cls-8" d="M8.75,14.24a17.09,17.09,0,0,0-.92-2.07"/><circle class="cls-8" cx="13.47" cy="9.5" r="0.74"/><path class="cls-8" d="M8.78,9.67a.77.77,0,0,0-.28-.59.83.83,0,0,0-.56-.16s-.61,0-.73.77.62,1,.63,1.52a.68.68,0,0,1,0,.12c0,.05-.06.33.23.37a.4.4,0,0,0,.23,0s.18-.07.21-.39"/><path class="cls-8" d="M8,9.79a1,1,0,0,0,.13.25,1.3,1.3,0,0,1,.18.35"/><path class="cls-8" d="M7.71,10.06a.72.72,0,0,0,.44,0"/><path class="cls-8" d="M14.34,9.21a.83.83,0,0,1,.31.75,1,1,0,0,1-.38.78"/><path class="cls-8" d="M8.3,7.21c.2,0,.31,0,1,0s.92,1.44-.16,2"/><path class="cls-8" d="M8.6,7a.78.78,0,0,0-.77.42A3.94,3.94,0,0,0,7.34,9.3"/><path class="cls-9" d="M12.74,8.45c0,.06.46,2.55.46,2.55l-1-.45"/><circle class="cls-8" cx="11.75" cy="9.44" r="0.79"/><path class="cls-3" d="M12.22,9.1a.35.35,0,0,0-.12.69A.35.35,0,0,0,12.22,9.1Z"/><path class="cls-3" d="M13.85,9.16a.34.34,0,0,0-.11.68A.34.34,0,0,0,13.85,9.16Z"/><path class="cls-8" d="M9.35,9.21c.07.47.22,1.44.22,1.44l-.78,0v-1"/><path class="cls-8" d="M7.94,12.42c-.05,0-.35-.13-.49-.59a5.7,5.7,0,0,1-.18-1.62"/><path class="cls-8" d="M8,11.69s.06.39-.21.45"/><path class="cls-8" d="M11.14,10.84h0a.7.7,0,0,1,.33.29c.13.18.16.2.27.24a.47.47,0,0,0,.37,0,.76.76,0,0,1,.43,0,.54.54,0,0,1,.32.36.65.65,0,0,1,0,.42.82.82,0,0,1-.51.42h0a1.78,1.78,0,0,1-.95,0h0l-.07,0h0l-.06,0h0a1.71,1.71,0,0,1-.69-.66h0a.86.86,0,0,1,0-.66.66.66,0,0,1,.28-.31A.54.54,0,0,1,11.14,10.84Z"/><path class="cls-8" d="M10.41,11.73a1.93,1.93,0,0,1,1.11.2,2.41,2.41,0,0,1,1,.63"/><path class="cls-8" d="M16.74,14.05a1.12,1.12,0,0,1,1-.22s.59.11.53.46c0,0,0,.28-.5.29a.72.72,0,0,0-.55.23.54.54,0,0,1-.79.06"/><line class="cls-8" x1="17.43" y1="15.15" x2="14.97" y2="16.54"/><path class="cls-8" d="M17.21,12.3s-.44,1.36-.9,1.67"/><path class="cls-10" d="M45.25,13.27a1,1,0,0,0-.5-.45,1.24,1.24,0,0,0-.83,0l-.1,0c-.2.05-.4.05-.59.08a1,1,0,0,0-.7-.42c-.8-.13-1.38-.78-2.14-1a14.57,14.57,0,0,0-2.69-.54,10.38,10.38,0,0,0-2.83.13,11.47,11.47,0,0,0-2.75.47A24.57,24.57,0,0,0,27.81,14c-.47.31-.72.28-.88.82-.21,0-.77.44-1,.43-1.36-.09-1.57,2-.2,2.08.21,0,1,.42,1.24.35a2.61,2.61,0,0,0,.11.68c.28.95.95,1.64,1.09,2.67a1.26,1.26,0,0,0,1.45,1c.51,0,1.33.26,2,.31s1.4-.42,2.11-.44a36.8,36.8,0,0,0,4.43-.48A9.77,9.77,0,0,0,40.09,21c.31-.11.69-.09,1-.21a4.87,4.87,0,0,1,1-.43c1.93-.32,1.77-1.57,1.59-3,0-.06.13-.06.11-.11.13-.15.08-.35.1-.55s.12-.85.12-.85-.31-.26-.31-.39A5.51,5.51,0,0,0,45,14.65a1.18,1.18,0,0,0,.41-.7A1.16,1.16,0,0,0,45.25,13.27Z"/><path class="cls-8" d="M36.1,21.81c-4.13.56-7.4.43-7.8-.19l-1.46-3.84"/><path class="cls-8" d="M36.06,21.82c4.18-.56,7.34-1.56,7.57-2.26l.42-4.33"/><path class="cls-8" d="M33.41,16.22c-4,.42-7.07.3-7.15-.33s3.49-4.26,8.38-4.92,9.21,1.82,9.31,2.54c.07.53-2,1.28-5.09,1.9"/><path class="cls-8" d="M26.83,14.94a1.06,1.06,0,0,0-.52.05,1,1,0,0,0-.55.39.9.9,0,0,0-.66.24c-.33.27-.47.63-.31.82l0,0a.21.21,0,0,0,0,.06c-.09.23.23.56.71.74a1.51,1.51,0,0,0,.76.08,1.32,1.32,0,0,0,.78.31,1.57,1.57,0,0,0,.72-.1,1.4,1.4,0,0,0,.72.2,1.49,1.49,0,0,0,.73-.16,1.35,1.35,0,0,0,.75.16,1.45,1.45,0,0,0,.74-.21,1.64,1.64,0,0,0,1.51-.11,1.32,1.32,0,0,0,.78.11,1.45,1.45,0,0,0,.7-.24,1.42,1.42,0,0,0,.74.08,1.64,1.64,0,0,0,.41-.11"/><path class="cls-8" d="M43.15,12.74a1.16,1.16,0,0,1,.51-.09,1,1,0,0,1,.64.23,1,1,0,0,1,.7.06c.38.17.61.49.52.71l0,0,.06.05c.14.2-.09.6-.5.89a1.4,1.4,0,0,1-.71.28,1.18,1.18,0,0,1-.67.5,1.49,1.49,0,0,1-.72.1,1.35,1.35,0,0,1-.65.38,1.38,1.38,0,0,1-.74,0,1.4,1.4,0,0,1-.68.34,1.32,1.32,0,0,1-.77,0,1.35,1.35,0,0,1-.7.34,1.4,1.4,0,0,1-.78,0,1.6,1.6,0,0,1-1.46.27l-.1.07"/><path class="cls-8" d="M34.83,17.26a1.23,1.23,0,0,0,.62,0,1.33,1.33,0,0,0,.63-.21"/><path class="cls-10" d="M40.07,20.7a.45.45,0,0,0-.66-.28.76.76,0,0,0-.3.42.44.44,0,0,0-.18-.09.41.41,0,0,0-.18-.05.46.46,0,0,0-.46.44h-.11a.45.45,0,0,0-.32.55,5.46,5.46,0,0,1,0,1.51l-.15-.1-.32-.23a.94.94,0,0,0-.35-.2c-.69-.11-.42,1-.38,1.37s.05.44.06.67a.32.32,0,0,0,0,.14l0,.63a.38.38,0,0,0,.36.37.36.36,0,0,0,.36-.36,4.17,4.17,0,0,0,0-.5h0a.83.83,0,0,0,.18-.66l.14,0,.09,0a.78.78,0,0,0,.57.43,1.38,1.38,0,0,0,1.38-.61,3.17,3.17,0,0,0,.42-1.53A5.83,5.83,0,0,0,40.07,20.7Z"/><path class="cls-8" d="M38.56,20.68a2.07,2.07,0,0,1,.34-1.44c.49-.67.86-.72.81-.18s-.29,2.28-.39,2.73-.42.6-.75,0l-1.43-2.52"/><path class="cls-8" d="M38.65,19.75s-.52-1.49-.68-1.83-.58-1.24-1.42-1-1.17,1.21-1.5,2.9"/><path class="cls-8" d="M37.58,20.09a4.69,4.69,0,0,1-.23.64"/><path class="cls-8" d="M37.77,21.76a4.47,4.47,0,0,1,0,1.64"/><path class="cls-8" d="M37.84,23.05l-.48-.27c-.1-.06-.44-.21-.63,0s-.22.59-.16,1.18a16.05,16.05,0,0,0,.32,1.83c.19.77.78-.41.74-1.47"/><path class="cls-8" d="M37.12,23.71l.41.43c.14.15,1,1.17,1.95.47.64-.49.88-1.92.7-3.55"/><path class="cls-11" d="M36.54,12a1.67,1.67,0,0,1,1.84-1.87,1.39,1.39,0,0,1,1.23,1.36"/><path class="cls-12" d="M37.37,12s3.28-.65,3.28-.65L38,14.06"/><path class="cls-11" d="M36.16,13.23a1.39,1.39,0,0,0,0-2.76,1.35,1.35,0,0,0-1.29.58,1.61,1.61,0,0,0-.25.78,1.38,1.38,0,0,0,1.54,1.4Z"/><line class="cls-8" x1="36.9" y1="20.97" x2="37.97" y2="20.78"/><path class="cls-13" d="M35.11,14.27a1.16,1.16,0,0,0-.57.32.6.6,0,0,0-.12.61.78.78,0,0,0,.76.37,2.2,2.2,0,0,1,.89.08c.26.12.43.37.69.49a.67.67,0,0,0,.68-.1c.52-.48-.09-1.15-.49-1.43A2.27,2.27,0,0,0,35.11,14.27Z"/><path class="cls-14" d="M35.47,11.42a.5.5,0,0,0,0,1A.5.5,0,0,0,35.47,11.42Z"/><path class="cls-14" d="M37.79,11a.5.5,0,0,0,0,1A.5.5,0,0,0,37.79,11Z"/></g></svg>