<svg xmlns="http://www.w3.org/2000/svg" viewBox="0 0 115.97 70.8"><defs><style>.cls-1,.cls-16,.cls-5{fill:#1c204d;}.cls-1,.cls-13,.cls-16,.cls-17,.cls-2,.cls-3,.cls-4,.cls-6{stroke:#1c204d;stroke-linecap:round;stroke-linejoin:round;}.cls-1,.cls-13,.cls-17,.cls-2,.cls-3,.cls-4,.cls-6{stroke-width:0.4px;}.cls-2{fill:none;}.cls-3,.cls-8{fill:#1f4686;}.cls-10,.cls-4{fill:#89d3de;}.cls-6{fill:#90c2da;}.cls-13,.cls-7{fill:#ea4827;}.cls-9{fill:#f47951;}.cls-11{fill:#fff;}.cls-12{fill:#f9b730;}.cls-14{fill:#af6f30;}.cls-15{fill:#0d773c;}.cls-17{fill:#af6e30;}</style></defs><g id="Layer_1" data-name="Layer 1"><path class="cls-1" d="M90.24,40.72a3.53,3.53,0,0,1,1.5.11c3.37.83,5.72,5.31,5.25,10-.37,3.68-2.5,6.5-5,7.11"/><line class="cls-2" x1="92.03" y1="57.95" x2="89.09" y2="58.58"/><line class="cls-2" x1="90.24" y1="40.72" x2="86.18" y2="41.65"/><ellipse class="cls-3" cx="87.57" cy="50.14" rx="6.16" ry="8.65" transform="translate(-2.35 4.34) rotate(-2.8)"/><ellipse class="cls-4" cx="87.46" cy="50.21" rx="2.87" ry="3.94" transform="translate(-3.1 5.84) rotate(-3.76)"/><ellipse class="cls-1" cx="87.46" cy="50.21" rx="0.91" ry="1.25" transform="translate(-3.1 5.84) rotate(-3.76)"/><path class="cls-1" d="M61.69,40.72a3.53,3.53,0,0,1,1.5.11c3.37.83,5.72,5.31,5.24,10-.37,3.68-2.49,6.5-5,7.11"/><line class="cls-2" x1="63.48" y1="57.95" x2="60.54" y2="58.58"/><line class="cls-2" x1="61.69" y1="40.72" x2="57.62" y2="41.65"/><ellipse class="cls-3" cx="59.02" cy="50.14" rx="6.16" ry="8.65" transform="translate(-2.38 2.94) rotate(-2.8)"/><ellipse class="cls-4" cx="58.91" cy="50.21" rx="2.87" ry="3.94" transform="translate(-3.17 3.97) rotate(-3.76)"/><ellipse class="cls-1" cx="58.91" cy="50.21" rx="0.91" ry="1.25" transform="translate(-3.17 3.97) rotate(-3.76)"/><path class="cls-1" d="M44.26,40.72a3.53,3.53,0,0,1,1.5.11c3.37.83,5.72,5.31,5.25,10-.37,3.68-2.5,6.5-5,7.11"/><line class="cls-2" x1="46.05" y1="57.95" x2="43.11" y2="58.58"/><line class="cls-2" x1="44.26" y1="40.72" x2="40.2" y2="41.65"/><ellipse class="cls-3" cx="41.59" cy="50.14" rx="6.16" ry="8.65" transform="translate(-2.4 2.09) rotate(-2.8)"/><ellipse class="cls-4" cx="41.48" cy="50.21" rx="2.87" ry="3.94" transform="translate(-3.2 2.83) rotate(-3.76)"/><ellipse class="cls-1" cx="41.48" cy="50.21" rx="0.91" ry="1.25" transform="translate(-3.2 2.83) rotate(-3.76)"/><path class="cls-5" d="M46.53,56.77a.47.47,0,0,0-.2-.26.42.42,0,0,0-.33,0l-.1,0a.54.54,0,0,0-.15.15l0,0a3.65,3.65,0,0,1-.68.68l-.06.05s0,.06-.08.09-.2.25-.26.26c-.22.05-.31.1-.24.31a.43.43,0,0,0,.52.3l.74-.18.14,0h.06L46,58a.46.46,0,0,0,.19-.26.42.42,0,0,0,0-.27l0,0c.1-.12.21-.23.3-.36A.4.4,0,0,0,46.53,56.77Z"/><path class="cls-5" d="M63.89,56.75a.46.46,0,0,0-.26-.19.4.4,0,0,0-.32,0,.44.44,0,0,0-.2.25.56.56,0,0,1,0,.12l0,.05L63,57.1l-.24.16h0a.54.54,0,0,0-.22.13.52.52,0,0,0-.17.27l0,.11c-.52.42-.7.46-.69.5s.79-.22.86-.16a.44.44,0,0,0,.2.08.42.42,0,0,0,.27,0l.43-.3a.46.46,0,0,0,.23-.05.63.63,0,0,0,.21-.22,1.19,1.19,0,0,0,.08-.2,2.54,2.54,0,0,0,0-.29.33.33,0,0,0,0-.17A.3.3,0,0,0,63.89,56.75Z"/><path class="cls-5" d="M92.35,56.83a.46.46,0,0,0-.26-.2.47.47,0,0,0-.33,0,.46.46,0,0,0-.19.26v0a1.18,1.18,0,0,1-.11.19l0,0h0a.43.43,0,0,0-.3.13l-.08.08a.45.45,0,0,0-.11.19l0,.11c0,.06-.25,0-.22.06s-.38.34-.36.37.72-.12.75-.1a.21.21,0,0,0,.1.06.29.29,0,0,0,.16,0,.62.62,0,0,0,.23,0l.15-.07.06,0s0,0,.06-.06h0a.52.52,0,0,0,.19-.11,2.11,2.11,0,0,0,.21-.31,2.2,2.2,0,0,0,.13-.36A.5.5,0,0,0,92.35,56.83Z"/><path class="cls-6" d="M74.74,30.34c0-.53,0-13.65,0-18,0-1.75,0-3.2,0-3.91a3.56,3.56,0,0,0-1.49-3.2,3.18,3.18,0,0,0-1.64-.52H70.55c-.2,0-.36.47-.36,1s.16,1,.36,1h1.07s.95,0,.95,1.63c0,.7,0,2.15,0,3.9,0,2.45,0,15.55,0,18"/><polygon class="cls-7" points="76.27 17.41 95.95 17.41 83.03 22.54 63.6 22.04 76.27 17.41"/><polygon class="cls-7" points="71.88 19.07 71.88 9.3 59.21 13.94 59.21 35.27 70.66 29.84 71.88 19.07"/><rect class="cls-8" x="18.35" y="34.94" width="65.37" height="17.84"/><path class="cls-5" d="M63.6,33.29c-.11-.1-.17.09-.32.13s-.5-.05-.69.08a2.2,2.2,0,0,1-.25.17l-.07,0s0,0,0,0l-.19,0a22.14,22.14,0,0,0-2.2.91c-.2.09.12,0,.24.17s.7.25.92.15l.26-.1a.48.48,0,0,0,.33.17,1.14,1.14,0,0,0,.44-.14h1.17a.43.43,0,0,0,.42-.43c0-.14,0-.28,0-.43a2.23,2.23,0,0,1,.05-.36A.48.48,0,0,0,63.6,33.29Z"/><path class="cls-9" d="M63.6,22V49h2.62a8.48,8.48,0,0,1,3.37-3,9.08,9.08,0,0,1,5-1.26,8.92,8.92,0,0,1,4.88,1.37,10.81,10.81,0,0,1,2.08,1.8A6.81,6.81,0,0,1,82.31,49h6.22V22Z"/><path class="cls-9" d="M82.93,22l13-4.63s6.33,11.58,6.33,11.65V44.64L88.11,49.55,82.93,22"/><polyline class="cls-9" points="59.21 44.64 59.21 13.85 51.2 13.98 48.08 21.9 11.27 22.31 11.27 38.32 18.35 44.64"/><path class="cls-7" d="M86.12,49a6.89,6.89,0,0,1-2.93,0,.43.43,0,0,0-.41.71,4,4,0,0,1,.74,1.58,4.81,4.81,0,0,1,.24,2,.42.42,0,0,0,.36.41.41.41,0,0,0,.45.17,3,3,0,0,1,1.4,0,.43.43,0,0,0,.54-.41l-.09-2.08a4.45,4.45,0,0,1,.22-1.88C86.77,49.16,86.4,48.9,86.12,49Z"/><polygon class="cls-7" points="51.2 13.98 63.93 9.35 71.54 9.25 59.21 13.94 51.2 13.98"/><polygon class="cls-7" points="49.66 17.55 23.94 17.65 11.27 22.29 48.08 21.9 49.66 17.55"/><path class="cls-10" d="M84.79,23.08c0,.15,4,9.58,4,9.58L101,28.15,96,18.79Z"/><path class="cls-11" d="M95.63,30.05l.66-10.89-.07-.09c0-.07-.11-.13-.16-.19L96,18.81l0,0s0,0,0,0,0,0,0,0H95.9l-.08,0a5.18,5.18,0,0,1-.65.26l-.7,11.53A3.89,3.89,0,0,1,95.63,30.05Z"/><path class="cls-11" d="M90.41,32.17h0l.26-.13a4.57,4.57,0,0,1,.63-.19l.16-.05h0l.07,0,.25-.13.35-.16.7-11.53a11.61,11.61,0,0,1-1.62.59H91.1l-.71,11.64Z"/><line class="cls-2" x1="102.28" y1="29.06" x2="88.53" y2="34.09"/><line class="cls-2" x1="95.95" y1="17.41" x2="83.29" y2="22.04"/><polyline class="cls-2" points="63.6 22.04 76.27 17.41 95.95 17.41 102.28 29.06 102.28 48.76 88.53 53.79"/><polyline class="cls-2" points="59.21 13.88 71.88 9.25 71.88 19.01"/><line class="cls-2" x1="59.21" y1="34.91" x2="63.51" y2="33.34"/><polygon class="cls-10" points="75.19 32.66 84.29 32.66 81.36 24.71 74.97 24.71 75.19 32.66"/><path class="cls-11" d="M78.36,32.58a.85.85,0,0,1,.46.12h0c.15,0,.07,0,0,0h0l.06,0h0a.78.78,0,0,1,.47-.13l.49,0-3-8c-.49,0-1,0-1.48,0l3,8Z"/><path class="cls-11" d="M80.76,32.74a3.18,3.18,0,0,1,.91-.1l-2.94-7.89a6.77,6.77,0,0,1-1-.05l3,8.05Z"/><path class="cls-12" d="M49.94,15.31v.55a1.4,1.4,0,0,0,.13.68c.05-.15.09-.29.15-.43A9.15,9.15,0,0,1,51,14.44a2,2,0,0,1,.63-.65,3.39,3.39,0,0,1,1-.31,5.56,5.56,0,0,0,.9-.29,7,7,0,0,1,.77-.26,6.79,6.79,0,0,0-2.11,0c-.4,0-.8.11-1.2.2-.19,0-.38.08-.57.14l-.29.1-.07,0a.43.43,0,0,0-.58.08l-.08.1a.49.49,0,0,0,.15.75,1.09,1.09,0,0,0,.39.06.43.43,0,0,0,0,.11C49.87,14.73,49.9,15,49.94,15.31Z"/><path class="cls-2" d="M50.34,13.3a6.24,6.24,0,0,1,3.81-.5l.11,0"/><polyline class="cls-2" points="83.78 53.79 88.53 53.79 88.53 34.19 83.34 22.04 63.6 22.04 63.6 49.07 66.18 49.07"/><polyline class="cls-2" points="83.25 25.12 86.84 34.09 86.84 49.03 82.39 49.03"/><polyline class="cls-2" points="80.38 23.08 82.44 23.08 83.25 25.12"/><polyline class="cls-2" points="51.26 13.98 63.93 9.35 71.88 9.25"/><polyline class="cls-2" points="73.54 44.54 73.04 23.08 80.38 23.08"/><path class="cls-2" d="M66.18,49.07a9.53,9.53,0,0,1,8.12-4.43,9.32,9.32,0,0,1,9.48,9.15"/><polyline class="cls-2" points="83.72 52.77 18.35 52.77 18.35 44.64"/><polyline class="cls-2" points="59.21 44.64 59.21 34.94 63.6 34.94 63.6 48.88"/><line class="cls-2" x1="18.35" y1="44.64" x2="59.21" y2="44.64"/><polygon class="cls-2" points="75.19 32.66 84.29 32.66 81.36 24.71 74.97 24.71 75.19 32.66"/><path class="cls-6" d="M62.81,34.54c0-.54,0-13.66,0-18,0-1.75,0-3.2,0-3.91a3.53,3.53,0,0,0-1.49-3.19A3.07,3.07,0,0,0,59.69,9H58.62c-.2,0-.36.47-.36,1s.16,1,.36,1h1.07s.94,0,.94,1.63c0,.71,0,2.16,0,3.91,0,2.44,0,15.54,0,18"/><rect class="cls-5" x="76.08" y="33.65" width="3.11" height="1.51" rx="0.74"/><path class="cls-1" d="M76.13,46.26a3.53,3.53,0,0,1,1.5.11c3.37.82,5.72,5.3,5.24,10-.37,3.68-2.49,6.5-5,7.11"/><line class="cls-2" x1="77.92" y1="63.49" x2="74.98" y2="64.11"/><line class="cls-2" x1="76.13" y1="46.26" x2="72.06" y2="47.19"/><ellipse class="cls-3" cx="73.46" cy="55.68" rx="6.16" ry="8.65" transform="translate(-2.63 3.66) rotate(-2.8)"/><ellipse class="cls-4" cx="73.35" cy="55.75" rx="2.87" ry="3.94" transform="translate(-3.5 4.93) rotate(-3.76)"/><ellipse class="cls-1" cx="73.35" cy="55.75" rx="0.91" ry="1.25" transform="translate(-3.5 4.93) rotate(-3.76)"/><path class="cls-1" d="M47.58,46.26a3.54,3.54,0,0,1,1.5.11c3.37.82,5.71,5.3,5.24,10-.37,3.68-2.49,6.5-5,7.11"/><line class="cls-2" x1="49.36" y1="63.49" x2="46.42" y2="64.11"/><line class="cls-2" x1="47.58" y1="46.26" x2="43.51" y2="47.19"/><ellipse class="cls-3" cx="44.9" cy="55.68" rx="6.16" ry="8.65" transform="translate(-2.67 2.26) rotate(-2.8)"/><ellipse class="cls-4" cx="44.8" cy="55.75" rx="2.87" ry="3.94" transform="translate(-3.56 3.06) rotate(-3.76)"/><ellipse class="cls-1" cx="44.8" cy="55.75" rx="0.91" ry="1.25" transform="translate(-3.56 3.06) rotate(-3.76)"/><path class="cls-1" d="M30.15,46.26a3.53,3.53,0,0,1,1.5.11c3.37.82,5.72,5.3,5.24,10-.37,3.68-2.49,6.5-4.95,7.11"/><line class="cls-2" x1="31.94" y1="63.49" x2="29" y2="64.11"/><line class="cls-2" x1="30.15" y1="46.26" x2="26.08" y2="47.19"/><ellipse class="cls-3" cx="27.48" cy="55.68" rx="6.16" ry="8.65" transform="translate(-2.69 1.41) rotate(-2.8)"/><ellipse class="cls-4" cx="27.37" cy="55.75" rx="2.87" ry="3.94" transform="translate(-3.6 1.91) rotate(-3.76)"/><ellipse class="cls-1" cx="27.37" cy="55.75" rx="0.91" ry="1.25" transform="translate(-3.6 1.91) rotate(-3.76)"/><path class="cls-12" d="M34,19.28c0,.29,0,.58.07.87s0,.36,0,.55a1.36,1.36,0,0,0,.12.67.42.42,0,0,1,.16,0c1.21,0,2.42-.13,3.62-.06a25.34,25.34,0,0,0,3.26.06h.07a.69.69,0,0,0,0-.13c0-.05.08.07.09,0s0-.06,0-.08.12-.13.14-.13L42,21a.48.48,0,0,0,.43-.63c-.1-.31-.3-.33-.56-.45a9.11,9.11,0,0,1-.95-.68A8.24,8.24,0,0,0,38.78,18a6,6,0,0,0-2.45-.17,9.87,9.87,0,0,0-1.2.16,4,4,0,0,0-.58.13,1.52,1.52,0,0,0-.28.09l-.08,0a.41.41,0,0,0-.58.07l-.08.08a.49.49,0,0,0,.12.76,1,1,0,0,0,.39.07S34,19.24,34,19.28Z"/><path class="cls-2" d="M39.37,20.27c-.47-.08-1-.18-1.52-.3-2.17-.48-3.87-1.14-3.8-1.46s2.15-1.25,4.32-.77S42,20,41.91,20.28c0,.14-.44.19-1.08.16"/><path class="cls-2" d="M34.44,18.2a.51.51,0,0,0-.22-.06.45.45,0,0,0-.3.08.41.41,0,0,0-.31,0c-.18.06-.3.19-.27.3h0l0,0c-.07.08,0,.27.19.42a.63.63,0,0,0,.31.15.55.55,0,0,0,.28.26.84.84,0,0,0,.32.07.62.62,0,0,0,.28.19.58.58,0,0,0,.33.05.66.66,0,0,0,.29.19.61.61,0,0,0,.35,0,.57.57,0,0,0,.3.18.6.6,0,0,0,.35,0,.61.61,0,0,0,.31.17.57.57,0,0,0,.34,0,.65.65,0,0,0,.3.15l.19,0"/><path class="cls-2" d="M39.34,20.83a.44.44,0,0,1-.15-.1.69.69,0,0,1-.36,0,.65.65,0,0,1-.3-.14.76.76,0,0,1-.34,0L38,20.56"/><path class="cls-2" d="M41.69,19.83a.39.39,0,0,1,.23,0,.36.36,0,0,1,.23.2.38.38,0,0,1,.29.13c.14.13.19.3.11.38h0l0,0c0,.11-.13.24-.36.3a.79.79,0,0,1-.34,0,.57.57,0,0,1-.36.1.61.61,0,0,1-.32-.06.66.66,0,0,1-.33.05.64.64,0,0,1-.32-.09"/><path class="cls-2" d="M37.47,20.44a.58.58,0,0,0,.25.11.62.62,0,0,0,.3,0"/><path class="cls-12" d="M32.8,19.29c0-.34-.17-.42-.37-.62a7.26,7.26,0,0,1-.67-1,8.31,8.31,0,0,0-1.62-1.93,6.15,6.15,0,0,0-2.25-1,11.78,11.78,0,0,0-1.18-.25,5.77,5.77,0,0,0-.58-.08h-.38a.44.44,0,0,0-.58-.13l-.1.06a.48.48,0,0,0-.14.75,1.11,1.11,0,0,0,.34.2s0,.06-.05.09c-.09.28-.16.56-.23.84s-.13.35-.2.52a1,1,0,0,0,.09,1.13,5.52,5.52,0,0,0,1.14.9c.47.31.95.6,1.44.88s.94.51,1.42.75l.7.32a1.66,1.66,0,0,0,.63.23c.46,0,.82-.61,1-.95.07-.11.13-.22.19-.33l.08-.14s0,0,0,0a1.33,1.33,0,0,0,.24.08l.41.13A.48.48,0,0,0,32.8,19.29Z"/><path class="cls-2" d="M27.18,19.6c-1.59-1-2.68-2-2.64-2.33l.62-1.75"/><path class="cls-2" d="M27.17,19.59c1.6,1,3,1.59,3.26,1.42l1.41-1.37"/><path class="cls-2" d="M32.3,19c-.18.28-1.84-.46-3.71-1.65S25.33,15,25.51,14.7s2.44-.46,4.32.73S32.48,18.74,32.3,19Z"/><path class="cls-2" d="M26,14.53a.53.53,0,0,0-.19-.13.5.5,0,0,0-.31,0,.49.49,0,0,0-.3-.11c-.19,0-.34.09-.34.2h0c-.1.06-.08.26,0,.46a.64.64,0,0,0,.24.25.55.55,0,0,0,.18.33.79.79,0,0,0,.27.18.77.77,0,0,0,.2.28.62.62,0,0,0,.29.15.68.68,0,0,0,.22.28.7.7,0,0,0,.31.14.67.67,0,0,0,.23.27.6.6,0,0,0,.33.13.57.57,0,0,0,.23.27.76.76,0,0,0,.31.12.61.61,0,0,0,.24.24l.17.08"/><path class="cls-2" d="M32.25,18.52a.66.66,0,0,1,.2.11.44.44,0,0,1,.15.27.48.48,0,0,1,.23.22c.08.17.07.35,0,.4h0v0c0,.11-.2.18-.43.16a.55.55,0,0,1-.32-.11.56.56,0,0,1-.38,0,.74.74,0,0,1-.28-.17.7.7,0,0,1-.33-.06.76.76,0,0,1-.27-.2.69.69,0,0,1-.34-.08.6.6,0,0,1-.26-.23.6.6,0,0,1-.34-.09.68.68,0,0,1-.26-.24.55.55,0,0,1-.34-.1.59.59,0,0,1-.24-.23.65.65,0,0,1-.32-.11.37.37,0,0,1-.13-.12"/><path class="cls-2" d="M28.07,17.66a.75.75,0,0,0,.48.3"/><path class="cls-12" d="M39.92,11.28c-.06-.32-.26-.36-.5-.52a6.47,6.47,0,0,1-.86-.8,8.5,8.5,0,0,0-2-1.53A6.24,6.24,0,0,0,34.15,8a9.77,9.77,0,0,0-1.21,0,5.87,5.87,0,0,0-.59,0l-.29.05-.08,0a.42.42,0,0,0-.59,0l-.09.08a.48.48,0,0,0,0,.76A1,1,0,0,0,31.7,9a.54.54,0,0,1,0,.1c0,.28,0,.58,0,.87s-.05.36-.08.54c-.06.47-.06.79.33,1.09a5.25,5.25,0,0,0,1.31.62c.53.21,1.06.39,1.6.56s1,.29,1.55.42l.75.16a1.72,1.72,0,0,0,.67.09c.45-.1.66-.78.8-1.15a2.65,2.65,0,0,0,.12-.37l0-.15a.06.06,0,0,0,0,0l.25,0,.43,0A.49.49,0,0,0,39.92,11.28Z"/><path class="cls-2" d="M34.5,12.81c-1.77-.64-3.05-1.38-3.08-1.71l.22-1.84"/><path class="cls-2" d="M34.48,12.8c1.79.65,3.26.91,3.5.68l1.07-1.65"/><path class="cls-2" d="M35,10.16c-1.88-.72-3.27-1.49-3.17-1.78s2.29-1,4.38-.21,3.3,2.65,3.19,3-1.43,0-3.13-.52"/><path class="cls-2" d="M33.63,10.22a.58.58,0,0,0,.22,0,.78.78,0,0,0,.29.21.66.66,0,0,0,.33,0,.55.55,0,0,0,.28.19.65.65,0,0,0,.19,0"/><path class="cls-2" d="M32.23,8.12A.63.63,0,0,0,32,8a.47.47,0,0,0-.3,0,.52.52,0,0,0-.32,0c-.18,0-.31.16-.29.27h0l0,0c-.08.07,0,.27.14.44a.66.66,0,0,0,.28.19.59.59,0,0,0,.25.28.76.76,0,0,0,.31.12.63.63,0,0,0,.25.23l.06,0"/><path class="cls-2" d="M39.21,10.65a.75.75,0,0,1,.23.07.43.43,0,0,1,.2.23.43.43,0,0,1,.27.17c.12.15.14.32.06.39h0s0,0,0,0-.16.22-.39.25a.72.72,0,0,1-.34,0,.59.59,0,0,1-.37.06.75.75,0,0,1-.31-.11.63.63,0,0,1-.34,0,.56.56,0,0,1-.3-.13.6.6,0,0,1-.35,0,.57.57,0,0,1-.3-.16.65.65,0,0,1-.36,0,.66.66,0,0,1-.3-.17.67.67,0,0,1-.36,0A.64.64,0,0,1,36,11a.57.57,0,0,1-.33,0,.42.42,0,0,1-.16-.09"/><path class="cls-2" d="M34.94,10.72a.62.62,0,0,0,.24.15.57.57,0,0,0,.3,0"/><path class="cls-12" d="M36.19,15.38c0-.33-.2-.39-.42-.58a7.17,7.17,0,0,1-.74-.91,8.36,8.36,0,0,0-1.7-1.9,6.37,6.37,0,0,0-2.39-.71c-.4-.07-.8-.13-1.2-.16a5.83,5.83,0,0,0-.59,0h-.38a.42.42,0,0,0-.58-.08l-.1.06a.49.49,0,0,0-.08.76,1,1,0,0,0,.36.18.41.41,0,0,0-.05.09c-.06.28-.12.57-.16.86L28,13.5a1,1,0,0,0,.17,1.12,5.4,5.4,0,0,0,1.21.8c.49.27,1,.53,1.5.77s1,.44,1.48.63l.73.27a1.62,1.62,0,0,0,.64.18c.46,0,.77-.68,1-1a3.78,3.78,0,0,0,.17-.35l.06-.14a.06.06,0,0,0,0,0,1.42,1.42,0,0,0,.25.07l.42.09A.48.48,0,0,0,36.19,15.38Z"/><path class="cls-2" d="M30.61,16.14C29,15.26,27.78,14.35,27.8,14l.47-1.79"/><path class="cls-2" d="M30.59,16.13c1.69.89,3.11,1.35,3.37,1.16l1.29-1.48"/><path class="cls-2" d="M33.8,12.36c1.36,1.08,2,2.55,1.87,2.79s-1.87-.32-3.84-1.36-3.43-2.12-3.28-2.4,2.13-.61,4,.21"/><path class="cls-2" d="M29,11.18a.55.55,0,0,0-.2-.11.41.41,0,0,0-.31,0,.39.39,0,0,0-.3-.09c-.19,0-.34.11-.33.22h0l0,0c-.09.06-.06.26.07.45a.61.61,0,0,0,.26.23.55.55,0,0,0,.2.32.62.62,0,0,0,.29.15.58.58,0,0,0,.22.26.62.62,0,0,0,.3.14.63.63,0,0,0,.24.25.58.58,0,0,0,.32.12.66.66,0,0,0,.25.25.6.6,0,0,0,.34.1.54.54,0,0,0,.25.25.65.65,0,0,0,.32.1.79.79,0,0,0,.25.22l.18.07"/><path class="cls-2" d="M35.58,14.66a.57.57,0,0,1,.21.1A.42.42,0,0,1,36,15a.43.43,0,0,1,.24.21c.1.16.1.34,0,.4h0a0,0,0,0,1,0,0c0,.11-.19.2-.42.2a.64.64,0,0,1-.33-.08.59.59,0,0,1-.38,0,.73.73,0,0,1-.29-.16.49.49,0,0,1-.33,0,.72.72,0,0,1-.29-.17.64.64,0,0,1-.34-.06.63.63,0,0,1-.28-.2.8.8,0,0,1-.35-.06.68.68,0,0,1-.27-.22.63.63,0,0,1-.35-.08.56.56,0,0,1-.26-.21.6.6,0,0,1-.32-.08.83.83,0,0,1-.15-.11"/><path class="cls-2" d="M31.34,14.14a.71.71,0,0,0,.5.26"/><path class="cls-12" d="M41.79,16.78c.05-.32-.11-.43-.28-.66A6.45,6.45,0,0,1,41,15.07a8.45,8.45,0,0,0-1.35-2.13,6.06,6.06,0,0,0-2.08-1.29q-.57-.24-1.14-.42c-.19-.05-.38-.11-.57-.15l-.3-.05-.07,0a.43.43,0,0,0-.55-.21l-.12,0a.49.49,0,0,0-.23.73.82.82,0,0,0,.3.24.47.47,0,0,1-.06.09c-.12.26-.24.53-.34.8l-.27.48a1,1,0,0,0-.07,1.14,5.24,5.24,0,0,0,1,1c.42.37.86.73,1.31,1.07s.86.64,1.3.94c.22.14.33.42.55.55a2,2,0,0,0,.69.18c.46.07.9-.5,1.16-.8.08-.1.19-.07.26-.18s.09-.08.12-.12,0-.15,0-.16l.23.12.38.18A.49.49,0,0,0,41.79,16.78Z"/><path class="cls-2" d="M36.18,16.32c-1.43-1.21-2.38-2.35-2.29-2.67L34.74,12"/><path class="cls-2" d="M38.89,18.14a.64.64,0,0,0,.32,0L40.78,17"/><path class="cls-2" d="M36.17,16.31a14,14,0,0,0,2,1.47"/><path class="cls-2" d="M35.94,12.45c-.57-.62-.86-1.08-.75-1.21s2.48-.12,4.18,1.32,2.17,3.64,2,3.89-1.76-.72-3.45-2.16c-.34-.28-.66-.57-1-.84"/><path class="cls-2" d="M36.53,13.83a.93.93,0,0,0,.13.15.71.71,0,0,0,.3.17.61.61,0,0,0,.19.27,1,1,0,0,0,.16.1"/><path class="cls-2" d="M35.68,11.14a.44.44,0,0,0-.17-.16.52.52,0,0,0-.3-.07.42.42,0,0,0-.28-.14c-.18,0-.35,0-.37.14h0c-.1,0-.12.25,0,.46a.7.7,0,0,0,.2.28.57.57,0,0,0,.13.35.58.58,0,0,0,.25.21.77.77,0,0,0,.16.31.59.59,0,0,0,.27.19.3.3,0,0,0,.05.15"/><path class="cls-2" d="M41.35,16a.39.39,0,0,1,.18.14.48.48,0,0,1,.12.28.45.45,0,0,1,.19.26c.06.18,0,.35-.09.38h0a0,0,0,0,1,0,0c0,.11-.22.15-.45.1A.57.57,0,0,1,41,17a.63.63,0,0,1-.38-.07.77.77,0,0,1-.25-.21.68.68,0,0,1-.32-.11.67.67,0,0,1-.24-.23.58.58,0,0,1-.32-.12.77.77,0,0,1-.23-.26.73.73,0,0,1-.32-.14.62.62,0,0,1-.23-.27.66.66,0,0,1-.32-.15.8.8,0,0,1-.21-.26.76.76,0,0,1-.3-.15.67.67,0,0,1-.11-.14"/><path class="cls-12" d="M37.34,17.06c0-.33-.21-.39-.43-.57a8.19,8.19,0,0,1-.77-.89,8.34,8.34,0,0,0-1.81-1.75A6.24,6.24,0,0,0,32,13.1c-.4-.06-.8-.1-1.21-.13a5.76,5.76,0,0,0-.59,0l-.3,0h-.07a.43.43,0,0,0-.59-.07l-.1.07a.49.49,0,0,0-.05.76.84.84,0,0,0,.35.16,1,1,0,0,1,0,.1c-.05.29-.1.57-.14.86s-.09.36-.14.54a1,1,0,0,0,.21,1.11,4.9,4.9,0,0,0,1.23.77c.5.26,1,.5,1.52.73s1,.41,1.5.59l.73.25A1.65,1.65,0,0,0,35,19c.46-.05.75-.7.93-1.06,0-.11.11-.23.16-.35l.05-.15,0,0,.24.06.42.08A.48.48,0,0,0,37.34,17.06Z"/><path class="cls-2" d="M29,16.15a.41.41,0,0,1-.11-.22l.43-1.81"/><path class="cls-2" d="M31.78,18c-.61-.31-1.16-.62-1.61-.91"/><line class="cls-2" x1="36.02" y1="18" x2="36.42" y2="17.52"/><path class="cls-2" d="M31.77,18c1.7.84,3.14,1.27,3.4,1.07l.17-.21"/><path class="cls-2" d="M30.68,14.3c-.73-.48-1.16-.87-1.08-1a2,2,0,0,1,1.25-.33"/><path class="cls-2" d="M32.24,13a6,6,0,0,1,1.74.55c2,1,3,3,2.84,3.3s-1.88-.27-3.87-1.26q-.53-.25-1-.51"/><path class="cls-2" d="M30.06,13.06a.53.53,0,0,0-.21-.12.43.43,0,0,0-.3,0,.42.42,0,0,0-.31-.08c-.19,0-.33.12-.32.23h0l0,0c-.09.06-.05.27.08.45a.64.64,0,0,0,.26.22.56.56,0,0,0,.22.32.6.6,0,0,0,.29.14.58.58,0,0,0,.22.26.64.64,0,0,0,.31.12.57.57,0,0,0,.24.25.61.61,0,0,0,.33.11.74.74,0,0,0,.59.34.68.68,0,0,0,.26.24.78.78,0,0,0,.33.09.6.6,0,0,0,.25.21.89.89,0,0,0,.19.07"/><path class="cls-2" d="M36.71,16.36a.51.51,0,0,1,.22.09.47.47,0,0,1,.17.25.42.42,0,0,1,.25.2c.1.16.11.34,0,.4h0a0,0,0,0,1,0,0c0,.12-.18.21-.41.21a.52.52,0,0,1-.33-.07.67.67,0,0,1-.38,0,.7.7,0,0,1-.3-.15.55.55,0,0,1-.33,0,.62.62,0,0,1-.29-.17.6.6,0,0,1-.34,0,.67.67,0,0,1-.29-.2.66.66,0,0,1-.35-.05.73.73,0,0,1-.28-.21.55.55,0,0,1-.27,0"/><path class="cls-2" d="M32.46,16a.7.7,0,0,0,.22.17.8.8,0,0,0,.29.08"/><path class="cls-5" d="M33.44,18.93a.53.53,0,0,0,0-.25l-.07-.1a.43.43,0,0,0-.21-.14L33,18.39l.1,0a.56.56,0,0,0-.18-.07.31.31,0,0,0-.19,0,.36.36,0,0,0-.17.07.37.37,0,0,0-.13.12l-.06.12a.42.42,0,0,0,0,.25l0,.11a.47.47,0,0,0,.15.19l.15.08,0,0,.08,0a.4.4,0,0,0,.19,0,.41.41,0,0,0,.18-.05.36.36,0,0,0,.14-.11.29.29,0,0,0,.1-.16Z"/><path class="cls-12" d="M48.37,21.25a11.07,11.07,0,0,0,.49-1.17c.19-.57.35-1.15.54-1.72a.51.51,0,0,1,.33-.34.88.88,0,0,1,.05-.15,11.37,11.37,0,0,1,.54-1.11h0A6,6,0,0,0,48.14,18c-.32.25-.63.52-.92.79s-.28.28-.41.43l-.19.23,0,.06a.42.42,0,0,0-.45.38l0,.12a.49.49,0,0,0,.52.56,1.25,1.25,0,0,0,.37-.15.36.36,0,0,0,0,.09c.17.24.34.46.53.69a.3.3,0,0,1,.21,0A1.55,1.55,0,0,0,48.37,21.25Z"/><line class="cls-2" x1="47.44" y1="21.13" x2="47.08" y2="20.6"/><path class="cls-2" d="M48.87,19.55c-1.25.37-2.15.5-2.23.28s1.1-2.23,3.18-3l.21-.08"/><path class="cls-2" d="M46.79,19.36a.38.38,0,0,0-.22.07.46.46,0,0,0-.21.23.39.39,0,0,0-.26.17c-.12.15-.14.33-.05.39h0l0,0c0,.11.17.22.39.25a.69.69,0,0,0,.34,0,.55.55,0,0,0,.38.05.59.59,0,0,0,.3-.11.64.64,0,0,0,.34,0,.74.74,0,0,0,.31-.14.57.57,0,0,0,.34,0,.82.82,0,0,0,.25-.11"/><path class="cls-12" d="M35.1,21.33a21.66,21.66,0,0,0,2.79.05c.92-.06,1.85-.15,2.77-.22a4.52,4.52,0,0,1,1.23,0,.85.85,0,0,0-.47-.16,6.21,6.21,0,0,1-.93-.37A7.17,7.17,0,0,0,38.42,20a5.08,5.08,0,0,0-2.07.35c-.33.11-.65.23-1,.37l-.45.22-.22.13-.06,0a.35.35,0,0,0-.47.17l0,0C34.47,21.31,34.79,21.31,35.1,21.33Z"/><path class="cls-2" d="M34.68,21.22A5.12,5.12,0,0,1,38,19.88a4.75,4.75,0,0,1,3.42,1.32"/><path class="cls-2" d="M34.86,21.05a.43.43,0,0,0-.2,0,.37.37,0,0,0-.23.13.33.33,0,0,0-.26.06l-.05,0"/><path class="cls-2" d="M41.22,21a.43.43,0,0,1,.2,0,.32.32,0,0,1,.23.12.35.35,0,0,1,.27.05.36.36,0,0,1,.15.15"/><path class="cls-12" d="M47.56,10.56c-.23-.23-.41-.16-.7-.16a7.79,7.79,0,0,1-1.16-.19A8.17,8.17,0,0,0,43.19,10a6.23,6.23,0,0,0-2.28.92c-.35.21-.68.43-1,.67l-.46.37-.22.21s0,0,0,.05a.43.43,0,0,0-.5.32l0,.11a.48.48,0,0,0,.44.62.85.85,0,0,0,.38-.1.54.54,0,0,1,0,.1q.21.39.45.75c.07.17.15.34.23.5.2.43.37.69.88.73a5,5,0,0,0,1.43-.2c.55-.12,1.1-.26,1.64-.41s1-.32,1.52-.51c.25-.08.49-.18.73-.27a1.86,1.86,0,0,0,.6-.29c.32-.33.13-1,0-1.41,0-.12-.07-.25-.11-.37l0-.15s0,0,0,0l.23-.12.38-.2A.49.49,0,0,0,47.56,10.56Z"/><path class="cls-2" d="M43.87,14.82c-1.83.43-3.3.52-3.51.27l-.83-1.67"/><path class="cls-2" d="M43.85,14.82c1.85-.44,3.23-1,3.3-1.35v-2"/><path class="cls-2" d="M42.81,12.35c-2,.43-3.55.55-3.62.26s1.37-2.08,3.53-2.59,4.22.4,4.3.72-1.18.81-2.9,1.28"/><path class="cls-2" d="M41.73,13.14a.68.68,0,0,0,.19-.11.66.66,0,0,0,.35,0,.56.56,0,0,0,.3-.14.65.65,0,0,0,.34,0,.76.76,0,0,0,.18-.06"/><path class="cls-2" d="M39.4,12.15a.5.5,0,0,0-.23,0,.36.36,0,0,0-.23.2.4.4,0,0,0-.29.14c-.13.13-.18.3-.1.38h0l0,0c0,.1.14.24.36.29a.56.56,0,0,0,.34,0,.66.66,0,0,0,.68,0,.58.58,0,0,0,.34.06h.07"/><path class="cls-2" d="M46.62,10.43a.52.52,0,0,1,.23-.07.48.48,0,0,1,.29.08.43.43,0,0,1,.32,0c.18.06.3.19.27.3h0l0,0c.07.08,0,.27-.19.42a.59.59,0,0,1-.3.16.55.55,0,0,1-.28.26.66.66,0,0,1-.32.07.58.58,0,0,1-.27.2.7.7,0,0,1-.33.06.58.58,0,0,1-.29.18.55.55,0,0,1-.35,0,.52.52,0,0,1-.3.19.6.6,0,0,1-.35,0,.58.58,0,0,1-.31.18.62.62,0,0,1-.33,0,.57.57,0,0,1-.3.15.58.58,0,0,1-.18,0"/><path class="cls-2" d="M43.1,12.83a.54.54,0,0,0,.28,0,.57.57,0,0,0,.27-.12"/><path class="cls-12" d="M46.7,16c-.2-.27-.39-.22-.67-.26a7.27,7.27,0,0,1-1.12-.35,8.61,8.61,0,0,0-2.46-.65,6.19,6.19,0,0,0-2.39.72c-.37.16-.74.33-1.09.52l-.51.3-.24.18-.07,0a.41.41,0,0,0-.53.25l0,.11a.49.49,0,0,0,.35.68,1.15,1.15,0,0,0,.39,0s0,.07,0,.1q.15.4.33.81c.06.17.11.35.17.52.14.45.27.74.76.85a5.42,5.42,0,0,0,1.45,0c.56,0,1.12-.1,1.68-.19s1.06-.17,1.58-.28l.75-.17a1.79,1.79,0,0,0,.64-.21c.37-.28.27-1,.24-1.38,0-.13,0-.26-.06-.39l0-.15a.06.06,0,0,1,0,0,1.33,1.33,0,0,0,.24-.08l.4-.15A.48.48,0,0,0,46.7,16Z"/><path class="cls-2" d="M42.45,19.74c-1.87.18-3.34.06-3.51-.22l-.59-1.76"/><path class="cls-2" d="M42.44,19.74c1.89-.18,3.33-.57,3.45-.88l.26-1.95"/><path class="cls-2" d="M43,14.83c1.73.15,3.07,1,3.1,1.3s-1.74.76-4,1-4,.11-4.06-.21,1.45-1.68,3.46-2"/><path class="cls-2" d="M38.39,16.48a.51.51,0,0,0-.49.18.43.43,0,0,0-.3.09c-.15.12-.22.28-.15.37h0s0,0,0,0,.1.25.31.34a.61.61,0,0,0,.34.05.57.57,0,0,0,.35.15.65.65,0,0,0,.32,0,.67.67,0,0,0,.32.1.66.66,0,0,0,.33-.05.76.76,0,0,0,.68,0,.75.75,0,0,0,.34.07.57.57,0,0,0,.34-.1.59.59,0,0,0,.35.07.71.71,0,0,0,.32-.1.66.66,0,0,0,.33.05l.19,0"/><path class="cls-2" d="M45.79,15.77a.54.54,0,0,1,.23,0,.43.43,0,0,1,.28.12.42.42,0,0,1,.32,0c.17.08.27.23.22.33h0l0,0c.06.09,0,.27-.24.39a.64.64,0,0,1-.33.12A.55.55,0,0,1,46,17a.78.78,0,0,1-.32,0,.65.65,0,0,1-.3.15.57.57,0,0,1-.34,0,.64.64,0,0,1-.31.15.78.78,0,0,1-.35,0,.68.68,0,0,1-.32.14.75.75,0,0,1-.35,0,.7.7,0,0,1-.66.09.58.58,0,0,1-.32.11.53.53,0,0,1-.18,0"/><path class="cls-2" d="M42,17.67a.62.62,0,0,0,.28,0,.67.67,0,0,0,.29-.08"/><path class="cls-12" d="M50.07,16.92s0-.08,0-.12h0c.08-.22.18-.44.28-.66a4.45,4.45,0,0,0,.24-.62c.19-.52.43-1,.65-1.53a.47.47,0,0,1,.14-.14c-.32-.15-.61-.52-.91-.69a8.22,8.22,0,0,0-2.3-1,6.13,6.13,0,0,0-2.45.06c-.4.08-.79.17-1.18.28l-.56.19-.28.12-.07,0a.43.43,0,0,0-.57.13l-.07.1a.49.49,0,0,0,.2.74,1.06,1.06,0,0,0,.39,0s0,.07,0,.11c0,.28.09.57.15.85s0,.37,0,.55c0,.47.11.78.57,1a5.16,5.16,0,0,0,1.41.32q.84.12,1.68.18c.53,0,1.07.06,1.61.06.25,0,.5.17.76.16a1,1,0,0,0,.21-.05Z"/><path class="cls-2" d="M47.2,16.83c-1.86-.23-3.27-.66-3.38-1L43.63,14"/><path class="cls-2" d="M47.19,16.83a15.38,15.38,0,0,0,2.48.13"/><path class="cls-2" d="M51,14.34a16.83,16.83,0,0,1-3.45-.14c-.44,0-.86-.11-1.25-.18"/><path class="cls-2" d="M44.88,13.73c-.82-.21-1.31-.43-1.29-.6,0-.33,2-1.47,4.21-1.2a6,6,0,0,1,3.63,1.87"/><path class="cls-2" d="M46.13,14.56l.2,0a.69.69,0,0,0,.33,0,.63.63,0,0,0,.31.11.67.67,0,0,0,.2,0"/><path class="cls-2" d="M43.94,12.77a.54.54,0,0,0-.23,0,.38.38,0,0,0-.28.1.46.46,0,0,0-.32,0c-.17.08-.27.23-.23.33h0l0,0c-.06.09,0,.27.23.4a.61.61,0,0,0,.32.12.6.6,0,0,0,.31.23A.78.78,0,0,0,44,14a.66.66,0,0,0,.3.17.62.62,0,0,0,.33,0l.13.09"/><path class="cls-2" d="M50.74,14.93l-.15,0a.59.59,0,0,1-.32-.06.78.78,0,0,1-.34.07.65.65,0,0,1-.34-.09.56.56,0,0,1-.34.06.62.62,0,0,1-.34-.1.62.62,0,0,1-.35.05.63.63,0,0,1-.31-.1.73.73,0,0,1-.34,0,.69.69,0,0,1-.17-.05"/><path class="cls-12" d="M48.59,16.81c-.21-.26-.4-.21-.68-.24a7.62,7.62,0,0,1-1.13-.32,8.11,8.11,0,0,0-2.48-.46,6.17,6.17,0,0,0-2.37.65c-.36.17-.72.36-1.07.56-.17.1-.34.2-.5.31l-.24.18-.06.05a.42.42,0,0,0-.53.26l-.05.11a.49.49,0,0,0,.37.67,1.1,1.1,0,0,0,.39-.06s0,.07,0,.1c.11.27.23.54.36.8s.11.35.17.52c.15.44.3.73.79.82a5.42,5.42,0,0,0,1.45,0c.56-.06,1.12-.14,1.67-.23s1.06-.2,1.58-.33L47,20a1.8,1.8,0,0,0,.64-.22c.36-.29.24-1,.19-1.39a2.63,2.63,0,0,0-.06-.39l0-.15a.06.06,0,0,0,0,0,1.33,1.33,0,0,0,.24-.08l.4-.16A.49.49,0,0,0,48.59,16.81Z"/><path class="cls-2" d="M41.14,20.62a.44.44,0,0,1-.22-.13l-.63-1.74"/><path class="cls-2" d="M44.44,20.62a16.65,16.65,0,0,1-1.85.13"/><line class="cls-2" x1="47.99" y1="18.32" x2="48.06" y2="17.7"/><path class="cls-2" d="M44.42,20.62c1.89-.23,3.32-.66,3.43-1l0-.27"/><path class="cls-2" d="M41.5,18.17c-.88,0-1.44-.1-1.47-.28s.31-.54.86-1"/><path class="cls-2" d="M42.09,16.23a6,6,0,0,1,1.75-.51c2.21-.27,4.15.88,4.19,1.2s-1.72.81-3.93,1.07l-1.1.12"/><path class="cls-2" d="M40.3,17.47a.48.48,0,0,0-.49.19.43.43,0,0,0-.3.1c-.15.12-.21.29-.14.37h0s0,0,0,0,.1.25.32.33a.61.61,0,0,0,.34,0,.57.57,0,0,0,.35.15.63.63,0,0,0,.32,0,.62.62,0,0,0,.33.09.65.65,0,0,0,.33-.06.74.74,0,0,0,.33.07.63.63,0,0,0,.34-.09.6.6,0,0,0,.35.06.52.52,0,0,0,.33-.1.61.61,0,0,0,.35.06.8.8,0,0,0,.32-.11.57.57,0,0,0,.33,0,.59.59,0,0,0,.19-.05"/><path class="cls-2" d="M47.67,16.57a.56.56,0,0,1,.23,0,.46.46,0,0,1,.29.11.43.43,0,0,1,.31,0c.18.08.28.22.23.32h0l0,0c.06.09,0,.27-.23.4a.67.67,0,0,1-.32.12.55.55,0,0,1-.31.22.54.54,0,0,1-.32,0,.62.62,0,0,1-.29.17.68.68,0,0,1-.34,0,.64.64,0,0,1-.31.15.68.68,0,0,1-.35,0,.68.68,0,0,1-.32.15.79.79,0,0,1-.35,0,.6.6,0,0,1-.24.12"/><path class="cls-2" d="M43.89,18.56a.5.5,0,0,0,.28,0,.66.66,0,0,0,.29-.09"/><path class="cls-5" d="M42.26,20.68a.4.4,0,0,0-.14-.15l-.1-.05a.38.38,0,0,0-.21,0l-.11,0h.09a.41.41,0,0,0-.16,0,.32.32,0,0,0-.14.08.38.38,0,0,0-.09.13.42.42,0,0,0,0,.16V21a.52.52,0,0,0,.11.19l.08.06a.36.36,0,0,0,.2.06H42a.51.51,0,0,0,.15-.07.29.29,0,0,0,.1-.12.35.35,0,0,0,.06-.14.33.33,0,0,0,0-.17Z"/><path class="cls-12" d="M26.38,21a.78.78,0,0,0,.39-.06s0,.07,0,.11l.12.26c1.33-.12,2.69,0,4,0,.75,0,1.51,0,2.26,0a7.37,7.37,0,0,1,1.24,0c0-.17,0-.33,0-.46a2.63,2.63,0,0,0-.06-.39c0-.05.1,0,.09,0s0-.08,0-.1.07-.16.09-.17l.4-.16a.49.49,0,0,0,.19-.74c-.2-.26-.39-.21-.68-.24a7.62,7.62,0,0,1-1.13-.32,8.36,8.36,0,0,0-2.48-.45,6.13,6.13,0,0,0-2.36.66c-.37.18-.73.36-1.08.56a5.14,5.14,0,0,0-.49.32l-.24.18-.07,0a.44.44,0,0,0-.53.27l0,.11A.48.48,0,0,0,26.38,21Z"/><line class="cls-2" x1="34.48" y1="21.21" x2="34.59" y2="20.14"/><path class="cls-2" d="M32.16,20.21q-.7.13-1.53.24c-2.2.27-4,.24-4.07-.09s1.6-1.91,3.8-2.18,4.15.86,4.19,1.18c0,.15-.34.33-1,.52"/><path class="cls-2" d="M26.82,19.93a.63.63,0,0,0-.23,0,.45.45,0,0,0-.25.18.43.43,0,0,0-.3.1c-.15.12-.21.29-.14.37h0s0,0,0,0,.1.25.32.33a.61.61,0,0,0,.34,0,.52.52,0,0,0,.35.14.64.64,0,0,0,.32,0,.76.76,0,0,0,.33.09.77.77,0,0,0,.33-.07.57.57,0,0,0,.34.07.62.62,0,0,0,.33-.09.61.61,0,0,0,.35.06.59.59,0,0,0,.33-.1.62.62,0,0,0,.35.05.67.67,0,0,0,.32-.1.58.58,0,0,0,.33,0,.53.53,0,0,0,.19,0"/><path class="cls-2" d="M32.32,20.75a.48.48,0,0,1-.18,0,.53.53,0,0,1-.32.14.69.69,0,0,1-.33,0,.67.67,0,0,1-.32.12.53.53,0,0,1-.18,0"/><path class="cls-2" d="M34.2,19a.53.53,0,0,1,.23,0,.45.45,0,0,1,.28.11.41.41,0,0,1,.32,0c.17.08.27.22.23.32h0l0,0c.06.09,0,.27-.23.41a.8.8,0,0,1-.32.12.59.59,0,0,1-.31.22.54.54,0,0,1-.32,0,.72.72,0,0,1-.63.19"/><path class="cls-2" d="M30.43,21a.54.54,0,0,0,.27,0,.81.81,0,0,0,.29-.1"/><path class="cls-12" d="M16.83,20.24a.93.93,0,0,0,.38.08s0,.07,0,.1q0,.43.06.87v.09c2.81,0,5.57.32,8.37.09-.11-.27-.3-.3-.54-.42a7,7,0,0,1-1-.68A8,8,0,0,0,22,19.11a6.13,6.13,0,0,0-2.45-.18c-.4,0-.8.09-1.2.16l-.57.13-.29.09-.07,0a.43.43,0,0,0-.59.07l-.08.09A.48.48,0,0,0,16.83,20.24Z"/><line class="cls-2" x1="17.19" y1="21.45" x2="17.18" y2="20.55"/><path class="cls-2" d="M22.55,21.42c-.47-.08-1-.18-1.52-.3-2.17-.49-3.87-1.14-3.8-1.46s2.14-1.26,4.31-.77A5.75,5.75,0,0,1,25,21.21"/><path class="cls-2" d="M17.62,19.35a.52.52,0,0,0-.23-.07.48.48,0,0,0-.29.08.44.44,0,0,0-.32,0c-.18.06-.3.2-.26.3h0s0,0,0,0,0,.28.19.42a.59.59,0,0,0,.3.16.62.62,0,0,0,.29.25.55.55,0,0,0,.31.07.61.61,0,0,0,.28.2.68.68,0,0,0,.33.05.63.63,0,0,0,.29.18.74.74,0,0,0,.35,0,.67.67,0,0,0,.3.18.74.74,0,0,0,.36,0,.6.6,0,0,0,.31.17.75.75,0,0,0,.33,0l0,0"/><path class="cls-12" d="M29.64,11.57c-.17-.29-.37-.26-.65-.32a8.54,8.54,0,0,1-1.08-.46,8.52,8.52,0,0,0-2.4-.77,6.47,6.47,0,0,0-2.43.36c-.38.13-.77.26-1.14.42l-.53.25-.26.15-.07,0a.43.43,0,0,0-.56.19l-.05.11a.48.48,0,0,0,.28.71,1.31,1.31,0,0,0,.4,0,.33.33,0,0,0,0,.1c.08.28.16.56.25.83l.12.54c.09.46.2.76.68.92a5.3,5.3,0,0,0,1.44.14c.56,0,1.12,0,1.69,0s1.07-.07,1.6-.13l.77-.1a1.8,1.8,0,0,0,.65-.14c.39-.24.36-1,.37-1.36,0-.13,0-.25,0-.38v-.2c.07,0,.22,0,.25,0l.41-.11A.5.5,0,0,0,29.64,11.57Z"/><path class="cls-2" d="M25.05,14.84c-1.88,0-3.33-.27-3.47-.56l-.42-1.81"/><path class="cls-2" d="M25,14.84c1.91,0,3.38-.25,3.52-.55L29,12.38"/><path class="cls-2" d="M24.6,12.19c-2,0-3.59-.29-3.58-.6s1.82-1.69,4-1.69,4,1.38,4,1.71-1.34.51-3.12.57"/><path class="cls-2" d="M23.36,12.7a.53.53,0,0,0,.21-.06.72.72,0,0,0,.34.1.62.62,0,0,0,.33-.07.62.62,0,0,0,.33.08l.19,0"/><path class="cls-2" d="M21.33,11.2a.48.48,0,0,0-.24,0,.41.41,0,0,0-.27.14.42.42,0,0,0-.31.07c-.16.1-.24.25-.19.35h0l0,0c0,.1.07.26.28.37a.64.64,0,0,0,.33.08.68.68,0,0,0,.65.19.63.63,0,0,0,.32.13H22"/><path class="cls-2" d="M28.76,11.22a.43.43,0,0,1,.23,0,.41.41,0,0,1,.27.14.42.42,0,0,1,.31.07c.16.1.25.25.19.35h0a0,0,0,0,1,0,0c.05.1-.07.27-.28.37a.55.55,0,0,1-.33.08.58.58,0,0,1-.33.19.73.73,0,0,1-.33,0,.59.59,0,0,1-.31.13.58.58,0,0,1-.33,0,.67.67,0,0,1-.33.12.58.58,0,0,1-.34-.06.62.62,0,0,1-.34.11.65.65,0,0,1-.34-.06.66.66,0,0,1-.35.09.61.61,0,0,1-.32-.06.65.65,0,0,1-.33.07l-.18,0"/><path class="cls-2" d="M24.76,12.73a.74.74,0,0,0,.28,0,.76.76,0,0,0,.29,0"/><path class="cls-12" d="M27.52,16.69c-.13-.3-.33-.31-.6-.41a7.9,7.9,0,0,1-1-.6,8.19,8.19,0,0,0-2.23-1.21,6.35,6.35,0,0,0-2.49.14c-.4.07-.8.15-1.19.25a5.22,5.22,0,0,0-.56.18l-.28.11-.07,0a.43.43,0,0,0-.58.12l-.07.09a.49.49,0,0,0,.18.75,1.1,1.1,0,0,0,.39,0,.41.41,0,0,0,0,.11c0,.28.07.57.13.86s0,.36,0,.55c0,.46.09.78.54,1a5.59,5.59,0,0,0,1.41.34c.55.09,1.11.16,1.67.21s1.07.08,1.61.1h.77a1.67,1.67,0,0,0,.67-.05c.42-.18.49-.89.55-1.29,0-.13,0-.25,0-.38v-.2a1,1,0,0,0,.26,0l.42,0A.49.49,0,0,0,27.52,16.69Z"/><path class="cls-2" d="M22.52,19.29c-1.86-.27-3.27-.72-3.36-1L19,16.4"/><path class="cls-2" d="M22.5,19.29c1.89.27,3.38.22,3.56-.05l.72-1.83"/><path class="cls-2" d="M24.24,14.65c1.65.56,2.74,1.73,2.7,2s-1.86.33-4.06,0-3.95-.83-3.91-1.16,1.8-1.28,3.84-1.15"/><path class="cls-2" d="M19.34,15.17a.41.41,0,0,0-.23,0,.42.42,0,0,0-.29.1.45.45,0,0,0-.32,0c-.17.08-.28.22-.23.32h0l0,0c-.06.09,0,.28.22.41a.7.7,0,0,0,.32.13.58.58,0,0,0,.3.23.81.81,0,0,0,.32.05.79.79,0,0,0,.29.17.68.68,0,0,0,.34,0,.57.57,0,0,0,.3.16.68.68,0,0,0,.35,0,.73.73,0,0,0,.32.15.66.66,0,0,0,.35,0,.6.6,0,0,0,.33.14A.52.52,0,0,0,22,17a.63.63,0,0,0,.31.13.6.6,0,0,0,.19,0"/><path class="cls-2" d="M26.69,16.22a.51.51,0,0,1,.24,0,.46.46,0,0,1,.24.18.43.43,0,0,1,.3.11c.15.12.21.29.14.37h0l0,0c0,.1-.11.25-.33.33a.69.69,0,0,1-.34,0,.57.57,0,0,1-.36.14.64.64,0,0,1-.32-.05.59.59,0,0,1-.33.09.69.69,0,0,1-.32-.07.67.67,0,0,1-.34.06.59.59,0,0,1-.33-.09.62.62,0,0,1-.35.05.59.59,0,0,1-.33-.11.56.56,0,0,1-.36.05.63.63,0,0,1-.31-.11.6.6,0,0,1-.34,0,.84.84,0,0,1-.17-.05"/><path class="cls-2" d="M22.53,17.16a.53.53,0,0,0,.26.09.71.71,0,0,0,.3,0"/><path class="cls-12" d="M33.26,16.11c-.06-.32-.25-.36-.49-.52a8.18,8.18,0,0,1-.86-.81,8,8,0,0,0-2-1.55,6,6,0,0,0-2.4-.51c-.41,0-.81,0-1.21,0a5.63,5.63,0,0,0-.59,0l-.3.05h-.07a.43.43,0,0,0-.6,0l-.09.08a.49.49,0,0,0,0,.76,1,1,0,0,0,.37.13.29.29,0,0,0,0,.1q0,.43-.06.87c0,.18-.05.36-.08.54-.07.47-.08.78.32,1.1a5,5,0,0,0,1.3.63q.78.32,1.59.57c.51.17,1,.31,1.55.44.25.06.45.28.7.34a2.15,2.15,0,0,0,.71-.07c.46-.09.68-.77.82-1.14.05-.12.15-.14.19-.26s.05-.11.06-.16-.08-.12-.07-.14.22,0,.25,0l.42,0A.49.49,0,0,0,33.26,16.11Z"/><path class="cls-2" d="M27.82,17.58c-1.76-.66-3-1.41-3.06-1.74L25,14"/><path class="cls-2" d="M31,18.37a.49.49,0,0,0,.3-.08l1.09-1.63"/><path class="cls-2" d="M27.81,17.57a14.82,14.82,0,0,0,2.38.71"/><path class="cls-2" d="M26.28,14c-.74-.4-1.17-.73-1.11-.89.12-.31,2.3-1,4.38-.17s3.28,2.69,3.16,3-1.89-.08-4-.86c-.41-.15-.81-.31-1.17-.47"/><path class="cls-2" d="M27.31,15.12a.76.76,0,0,0,.18.09.7.7,0,0,0,.33.06.62.62,0,0,0,.28.19.58.58,0,0,0,.18,0"/><path class="cls-2" d="M25.6,12.87a.45.45,0,0,0-.21-.09.43.43,0,0,0-.31,0,.43.43,0,0,0-.31-.05c-.19,0-.32.15-.3.26h0l0,0c-.08.07,0,.27.13.44a.63.63,0,0,0,.29.2.56.56,0,0,0,.24.29.61.61,0,0,0,.31.11.59.59,0,0,0,.24.23.65.65,0,0,0,.32.1.6.6,0,0,0,.11.12"/><path class="cls-2" d="M32.56,15.48a.4.4,0,0,1,.22.07.39.39,0,0,1,.2.23.43.43,0,0,1,.27.17c.12.15.14.33,0,.39h0a0,0,0,0,1,0,0c0,.11-.16.22-.38.25a.59.59,0,0,1-.34,0,.61.61,0,0,1-.38.06.63.63,0,0,1-.31-.12.58.58,0,0,1-.33,0,.74.74,0,0,1-.31-.14.79.79,0,0,1-.34,0,.65.65,0,0,1-.31-.17.62.62,0,0,1-.35,0A.67.67,0,0,1,30,16a.58.58,0,0,1-.36,0,.64.64,0,0,1-.28-.17.66.66,0,0,1-.33,0l-.16-.09"/><path class="cls-12" d="M29.17,17.88c-.14-.3-.33-.29-.61-.39a7.41,7.41,0,0,1-1-.58,8.49,8.49,0,0,0-2.3-1,6,6,0,0,0-2.45.09,11.9,11.9,0,0,0-1.18.28l-.56.19-.27.12-.07,0a.43.43,0,0,0-.58.13l-.07.1a.48.48,0,0,0,.2.73,1.16,1.16,0,0,0,.4,0s0,.06,0,.1c.05.29.1.57.16.86s0,.36.05.55c0,.46.11.77.57,1a5.3,5.3,0,0,0,1.42.31c.55.07,1.11.13,1.68.17s1.07.05,1.6.05h.78a1.84,1.84,0,0,0,.66-.07c.42-.2.47-.91.52-1.31a2.34,2.34,0,0,0,0-.38v-.2a1.47,1.47,0,0,0,.25,0l.42-.07A.48.48,0,0,0,29.17,17.88Z"/><path class="cls-2" d="M21,19.84a.4.4,0,0,1-.17-.18l-.21-1.84"/><path class="cls-2" d="M24.24,20.61a17.49,17.49,0,0,1-1.83-.3"/><line class="cls-2" x1="28.24" y1="19.22" x2="28.45" y2="18.62"/><path class="cls-2" d="M24.23,20.61c1.89.22,3.38.14,3.55-.14l.1-.26"/><path class="cls-2" d="M22,17.54c-.85-.21-1.38-.43-1.36-.61s.42-.46,1.06-.73"/><path class="cls-2" d="M23,15.79a6.06,6.06,0,0,1,1.82-.08c2.21.26,3.83,1.82,3.79,2.15s-1.86.38-4.07.12c-.38,0-.75-.09-1.1-.15"/><path class="cls-2" d="M21,16.58a.47.47,0,0,0-.24,0,.45.45,0,0,0-.28.11.46.46,0,0,0-.32,0c-.17.08-.27.23-.22.33h0l0,0c-.06.09,0,.27.23.4a.58.58,0,0,0,.32.12.59.59,0,0,0,.31.22.64.64,0,0,0,.32,0,.57.57,0,0,0,.3.16.64.64,0,0,0,.33,0,.75.75,0,0,0,.31.15.66.66,0,0,0,.35,0,.63.63,0,0,0,.32.14.56.56,0,0,0,.35,0,.71.71,0,0,0,.66.11.67.67,0,0,0,.32.12h.19"/><path class="cls-2" d="M28.34,17.43a.47.47,0,0,1,.23,0,.4.4,0,0,1,.25.17.45.45,0,0,1,.3.11c.15.11.22.28.15.36h0l0,0c0,.1-.11.25-.32.34a.71.71,0,0,1-.34,0,.52.52,0,0,1-.35.14.64.64,0,0,1-.32,0,.62.62,0,0,1-.33.09.65.65,0,0,1-.33-.06.54.54,0,0,1-.33.07.63.63,0,0,1-.34-.08.69.69,0,0,1-.35.06.59.59,0,0,1-.33-.1.54.54,0,0,1-.27.06"/><path class="cls-2" d="M24.2,18.48a.53.53,0,0,0,.26.09.88.88,0,0,0,.3,0"/><path class="cls-5" d="M25.63,21.3l.07.08a.42.42,0,0,0,.18.11l.14,0h.1a.26.26,0,0,0,.15,0,.25.25,0,0,0,.14-.08.26.26,0,0,0,.08-.13.32.32,0,0,0,0-.16l0-.11a.4.4,0,0,0-.1-.18l-.09-.07a.35.35,0,0,0-.2,0h0a.42.42,0,0,0-.16,0,.44.44,0,0,0-.15.05.32.32,0,0,0-.12.11.37.37,0,0,0-.07.14v.11a.41.41,0,0,0,.05.21"/><line class="cls-2" x1="11.27" y1="22.29" x2="16.7" y2="20.3"/><path class="cls-5" d="M30.75,47.48a2.16,2.16,0,0,1-.17-.34,2,2,0,0,1-.08-.22.93.93,0,0,0,0-.13.52.52,0,0,0-.25-.44.64.64,0,0,0-.45-.05l-.16,0a2.57,2.57,0,0,1-.48,0,.45.45,0,0,0-.25.09l-.11,0c-.17,0-1,.33-1,.52s.69,0,.73.11a.44.44,0,0,0,.25.19l0,0c.23.1.47.21.7.33l.31.17.07,0,.06.06h0a.43.43,0,0,0,.58.15A.42.42,0,0,0,30.75,47.48Z"/><path class="cls-5" d="M32.41,62.3a.4.4,0,0,0-.19-.25.42.42,0,0,0-.33,0l-.1,0a.54.54,0,0,0-.15.15l0-.05a4.37,4.37,0,0,1-.68.68l-.06,0a.35.35,0,0,0-.08.1c-.07,0-.2.24-.27.26s-.3.1-.24.31a.42.42,0,0,0,.52.29q.38-.07.75-.18l.14,0h.06l.1,0a.41.41,0,0,0,.2-.25.53.53,0,0,0,0-.28l0-.05c.11-.11.21-.23.31-.35A.42.42,0,0,0,32.41,62.3Z"/><path class="cls-5" d="M47.28,47.78h0S47.24,47.77,47.28,47.78Z"/><path class="cls-5" d="M48.33,47.69a2.64,2.64,0,0,0-.2-.37L48,47.2l0-.05h0c0,.05,0,0,0,0V47a1.09,1.09,0,0,0,0-.18.63.63,0,0,0-.28-.58.8.8,0,0,0-.57,0,2.07,2.07,0,0,0-.33.1l-.35.11-.16,0h-.11c-.22,0-.9.22-.89.45s.65.39.89.4a1.86,1.86,0,0,0,.33,0,.31.31,0,0,0,.15.15,2.75,2.75,0,0,1,.52.31l.06,0h0l.11.1.23.22a.42.42,0,0,0,.51.07.43.43,0,0,0,.15-.15A.39.39,0,0,0,48.33,47.69Z"/><path class="cls-5" d="M49.77,62.29a.4.4,0,0,0-.25-.19.42.42,0,0,0-.33,0,.44.44,0,0,0-.19.25s0,.08,0,.11l0,0-.09.09-.23.16h0a.61.61,0,0,0-.22.13.69.69,0,0,0-.17.27v.11c-.52.42-.7.45-.7.49s.79-.21.87-.16a.37.37,0,0,0,.2.09.42.42,0,0,0,.27,0l.43-.31a.32.32,0,0,0,.23,0,.6.6,0,0,0,.21-.21.68.68,0,0,0,.07-.2c0-.1,0-.2,0-.29a.33.33,0,0,0,0-.17A.3.3,0,0,0,49.77,62.29Z"/><path class="cls-5" d="M76.77,47.51a2.2,2.2,0,0,1-.15-.26l0-.06,0-.15,0-.15v-.06a.63.63,0,0,0-.27-.51c-.27-.17-.56,0-.84,0l-.66.2c-.2.06-1.09.13-1.06.34s1,.47,1.18.49h.18l.13,0a.38.38,0,0,0,.14.11l.44.26.2.14c-.11-.07,0,0,0,0l.1.09a.44.44,0,0,0,.56,0A.43.43,0,0,0,76.77,47.51Z"/><path class="cls-5" d="M78.23,62.36a.4.4,0,0,0-.25-.19.42.42,0,0,0-.33,0,.44.44,0,0,0-.19.25v0l-.11.19,0,0h0a.39.39,0,0,0-.3.12l-.08.09a.38.38,0,0,0-.11.18l0,.12c0,.06-.25,0-.22.05s-.39.35-.36.37.72-.11.75-.09a.16.16,0,0,0,.09,0,.33.33,0,0,0,.17,0,.42.42,0,0,0,.22,0,.52.52,0,0,0,.15-.06l.06,0,.07-.06h0a.42.42,0,0,0,.18-.11,1.54,1.54,0,0,0,.21-.31,1.3,1.3,0,0,0,.13-.36A.42.42,0,0,0,78.23,62.36Z"/><path class="cls-6" d="M88.89,54.48l14.3-5.39a.12.12,0,0,0,.08-.11V44.86a.89.89,0,0,0-1.18-.84l-13.2,4.81-1.45.05a.93.93,0,0,0-.93.93v4.67Z"/><line class="cls-6" x1="88.89" y1="54.48" x2="88.89" y2="52.15"/><path class="cls-2" d="M84.79,23.08c0,.15,4,9.58,4,9.58L101,28.15,96,18.79Z"/><path class="cls-3" d="M100.82,42.73,90.66,46.26V41.9a3.25,3.25,0,0,1,2.2-3.07l5-1.71a2.27,2.27,0,0,1,3,2.14Z"/><ellipse class="cls-6" cx="90.93" cy="36.6" rx="1.28" ry="1.83"/><ellipse class="cls-6" cx="100.3" cy="33.76" rx="1.28" ry="1.83"/><ellipse class="cls-1" cx="61.68" cy="28.26" rx="1.42" ry="0.2"/><ellipse class="cls-1" cx="61.68" cy="34.4" rx="1.42" ry="0.2"/><polyline class="cls-1" points="63.1 28.26 63.1 34.4 60.26 34.4 60.26 28.26"/><polyline class="cls-2" points="34.69 22.05 11.27 22.31 11.27 38.32 18.35 44.64"/><polyline class="cls-2" points="59.21 44.64 59.21 13.85 51.2 13.98 48.08 21.9 34.69 22.05"/><polyline class="cls-2" points="48.34 21.23 15.46 21.54 17.25 20.89"/><polygon class="cls-13" points="28.01 40.72 22.35 40.72 17.08 25.42 22.75 25.42 28.01 40.72"/><polygon class="cls-13" points="38.52 40.72 32.85 40.72 27.59 25.42 33.25 25.42 38.52 40.72"/><polygon class="cls-13" points="49.19 40.72 43.53 40.72 38.26 25.42 43.93 25.42 49.19 40.72"/><ellipse class="cls-5" cx="48.21" cy="21.03" rx="0.18" ry="0.15"/><ellipse class="cls-5" cx="42.53" cy="20.99" rx="0.48" ry="0.29"/><ellipse class="cls-5" cx="25.41" cy="20.97" rx="0.39" ry="0.36"/><path class="cls-5" d="M17.34,21.29c0,.15,0,.25-.3.25s-.75,0-.75-.19S16.77,21,17,21,17.34,21.15,17.34,21.29Z"/><path class="cls-5" d="M47.09,20.58a.53.53,0,0,0-.31-.21h0a1.15,1.15,0,0,1-.17-.06,1,1,0,0,0-.3,0,1.21,1.21,0,0,1-.38,0h0a.51.51,0,0,0-.36.05c-.1.06-2.91.42-2.93.54s-.08.22,0,.33,2.93,0,3,0a1.39,1.39,0,0,0,.41,0h.23l.12,0a.52.52,0,0,0,.48-.08.5.5,0,0,0,.18-.27A.48.48,0,0,0,47.09,20.58Z"/><path class="cls-14" d="M80.64,32.18A1.32,1.32,0,0,0,80,31.7a.24.24,0,0,0-.25.05h0a.25.25,0,0,0-.27.17.29.29,0,0,0,0,.22l-.15,0a.25.25,0,0,0,.21.46h.15a.6.6,0,0,0,.35,0,.3.3,0,0,0,.14-.1l.08,0a.25.25,0,0,0,.33-.37Z"/><path class="cls-14" d="M80.32,23.25a.5.5,0,0,0-.67-.23,11.72,11.72,0,0,0-1.78.87c-.5.31-1,.45-1.53.73a.52.52,0,0,0-.28.55,2.06,2.06,0,0,1,.12.67.54.54,0,0,0-.24.38.53.53,0,0,0-.21.64c.17.49,0,1.1.27,1.54s.61.8.86,1.26a.83.83,0,0,0,.07.13l.07.1a.43.43,0,0,0,.63.09h.12a8.32,8.32,0,0,0,1.12-.07s.14,0,.18,0c.41,0,.77-.16,1.18-.2a.51.51,0,0,0,.4-.59c-.33-1,.57-1.88.63-2.86A7.94,7.94,0,0,0,80.32,23.25Z"/><path class="cls-11" d="M80.11,24.11l0-.06,0,0v0a.56.56,0,0,0-.22-.21.48.48,0,0,0-.29-.1.77.77,0,0,0-.29.07.71.71,0,0,0-.33.31.94.94,0,0,0-.06.15.27.27,0,0,0,.11.33.36.36,0,0,0,.32,0,.32.32,0,0,0,.17,0l.22-.05.17-.06h.06a.23.23,0,0,0,.11,0,.23.23,0,0,0,.07-.07.16.16,0,0,0,.06-.08v-.07A.32.32,0,0,0,80.11,24.11Z"/><path class="cls-15" d="M83,30.69a1.09,1.09,0,0,1-.21-.45l-.17-.08a1.25,1.25,0,0,0-.4-.2A.25.25,0,0,0,82,30l-.08,0a.18.18,0,0,0-.1,0,.19.19,0,0,0-.1,0l0,0s0,0,0,0a.27.27,0,0,0-.34-.12.43.43,0,0,1-.55-.16.26.26,0,0,0-.34-.11,10.91,10.91,0,0,1-1.28.33h-.1c-.27,0-.53,0-.79.07a3.23,3.23,0,0,1-.53.08h-.14a.29.29,0,0,0-.16,0c-.11,0-.21,0-.32,0a.4.4,0,0,0-.34.23.66.66,0,0,1-.44.28.27.27,0,0,0-.21.23c0,.15-.11.24-.23.32a.78.78,0,0,1-.2.11h-.18a.41.41,0,0,0-.19-.05.25.25,0,0,0-.25.05l-.08.08a.24.24,0,0,0-.06.11c-.11.14-.22.28-.34.41a.26.26,0,0,0,0,.19s0,0,0,0a.25.25,0,0,0-.16.06,0,0,0,0,1,0,0l0,0a.29.29,0,0,0-.13.14.43.43,0,0,0,0,.16.26.26,0,0,0,.29.17h.31l.38,0a.27.27,0,0,0,.15-.09h.06a8.4,8.4,0,0,0,.93-.4c.33-.13.66-.24,1-.34A9.73,9.73,0,0,1,79,31.4l.06,0a.34.34,0,0,0,.24.06h0a1.75,1.75,0,0,1,.46,0,2.06,2.06,0,0,1,.35.12.31.31,0,0,0,.11.08l.06,0,0,0,.12.09,0,0,0,.05,0,.06v0c.09.14.24.65.42.61s3-.15,3-.15S83.2,31,83.28,31h0Z"/><path class="cls-12" d="M80.82,22.06a1.71,1.71,0,0,0-.48-.21,1.12,1.12,0,0,0-.26-.08l-.12,0a4.11,4.11,0,0,0-.24-.39,1.52,1.52,0,0,0-.47-.44c-.16-.11-.34-.21-.52-.31a1.92,1.92,0,0,0-.66-.27H78L77.66,20c-.19-.19-.38-.43-.68-.36a7.3,7.3,0,0,0-.79.26,2.24,2.24,0,0,0-.71.35,2.4,2.4,0,0,0-.65.69c-.13,0-.23.16-.3.28a7,7,0,0,0-.68,1.34,2.47,2.47,0,0,0,0,1.52,7.25,7.25,0,0,0,.16,1,.36.36,0,0,0,.61.18c1.78-.77,3.55-1.57,5.29-2.42h0a.64.64,0,0,1,.76.4c.06.17.33.14.29-.05v0a.24.24,0,0,0,.14-.18A1.05,1.05,0,0,0,80.82,22.06Z"/><path class="cls-12" d="M75.54,20.25l-.31.28c-.13.1-.28.18-.42.28a2.17,2.17,0,0,0-.45.55,4.44,4.44,0,0,0-.37.76,5.24,5.24,0,0,0-.24.86,4.59,4.59,0,0,0,0,.91,4.51,4.51,0,0,0,.37,1.53h0l.06-.07.18-.25a.45.45,0,0,1,.13-.11A4.61,4.61,0,0,1,76,20.36l-.15-.31A2.43,2.43,0,0,0,75.54,20.25Z"/><path class="cls-12" d="M76.54,19.81l-.18,0-.16.08a2,2,0,0,1-.34.12,22.34,22.34,0,0,1,1.21,2.69l.36-.14A5.27,5.27,0,0,1,76.54,19.81Z"/><path class="cls-12" d="M80,21.76l-.27-.38a3,3,0,0,0-.62-.61,2.86,2.86,0,0,0-.72-.36l-.2-.06H78l0,.13s.76-.12,1.61,1.34A1.18,1.18,0,0,1,80,21.76Z"/><path class="cls-2" d="M81.11,26.15a1.66,1.66,0,0,1,0,.32c-.29,1.5-.72,2.12-.46,3A6.57,6.57,0,0,1,77,30"/><path class="cls-2" d="M80.61,23.8A4.6,4.6,0,0,1,81,25.13a4.65,4.65,0,0,1,.07,1"/><path class="cls-2" d="M80,22.92a5,5,0,0,1,.62.88"/><line class="cls-2" x1="79.99" y1="22.92" x2="74.21" y2="25.57"/><path class="cls-2" d="M76.22,24.74s.55,1.11-.4,1.57"/><path class="cls-2" d="M75.78,28.29a.75.75,0,0,1,.58.69"/><path class="cls-2" d="M74.59,29.69a.64.64,0,0,1-.72-.45.66.66,0,0,1,.17-.66"/><path class="cls-2" d="M75.76,28.3a.74.74,0,0,0,.31-.75A.73.73,0,0,0,75.7,27a.76.76,0,0,0,.28-.73s0,0,0,0"/><path class="cls-2" d="M74.26,25.56a.77.77,0,0,0-.6.9.76.76,0,0,0,.16.39.65.65,0,0,0-.46.7.68.68,0,0,0,.31.47h0a.65.65,0,0,0,.41.53"/><path class="cls-2" d="M82,25.51a.53.53,0,0,0,0-.25.67.67,0,0,0-.5-.53.7.7,0,0,0-.63-1.18.49.49,0,0,0-.17.06.61.61,0,0,0,0-.19A.58.58,0,0,0,80,23"/><path class="cls-2" d="M74.16,25.57l0-.05c.21-.84,2.77-3,4.66-3.54s2.76.06,1.93,1.63"/><path class="cls-2" d="M74.21,25.57c.46-.6,3.21-3.11,5.45-3.4.81-.11,1.38.06,1.4.69"/><path class="cls-2" d="M74.18,25.52a4,4,0,0,1,1.66-5.44l1.25-.5a6.25,6.25,0,0,1,2,2.3"/><path class="cls-2" d="M77.12,22.78a13.32,13.32,0,0,0-1.28-2.7"/><path class="cls-2" d="M78,20.34c.2,0,1.09.09,2,1.45"/><path class="cls-2" d="M78,20.35h0"/><path class="cls-14" d="M80,31.69a2.16,2.16,0,0,0-1.56-.12,12.52,12.52,0,0,0-1.82.38,6.26,6.26,0,0,0-.82.31,4.49,4.49,0,0,1-.78.34c-.1,0-.11,0-.2,0a.37.37,0,0,0-.39,0,.88.88,0,0,0-.35.76.37.37,0,0,0,0,.15,2.23,2.23,0,0,0,.25.87c.13.27.25.49.57.54a3.45,3.45,0,0,0,1.86-.48,8.76,8.76,0,0,0,1.57-1.08l.1-.09,0,0a1.83,1.83,0,0,0,.36-.32l.27-.24a2.57,2.57,0,0,1,.81-.36.27.27,0,0,0,.14-.16A.31.31,0,0,0,80,31.69Z"/><path class="cls-2" d="M82.4,29.49a.54.54,0,0,0,.31,0,.58.58,0,0,0,.46-.68.6.6,0,0,0-.43-.46.65.65,0,0,0,.14-.51.61.61,0,0,0-.22-.36.51.51,0,0,0-.18-1,.57.57,0,0,0,.19-.56.59.59,0,0,0-.65-.47"/><path class="cls-2" d="M80.61,29.45a.5.5,0,0,0,.54.44.43.43,0,0,0,.36-.23A.45.45,0,0,0,82,30a.47.47,0,0,0,.27-.16"/><path class="cls-2" d="M82.8,29.51a.85.85,0,0,1,.09.22.66.66,0,0,1,0,.37"/><path class="cls-2" d="M75.09,30.84a.48.48,0,0,0,.19.21"/><path class="cls-2" d="M74.5,29.71a.57.57,0,0,0,0,.29.56.56,0,0,0,.44.42.57.57,0,0,0-.24.57.57.57,0,0,0,.24.37"/><path class="cls-2" d="M75.28,31.05a.35.35,0,0,0,.15.07.56.56,0,0,0,.71-.37.57.57,0,0,0,0-.18"/><line class="cls-2" x1="75.13" y1="32.63" x2="74.69" y2="32.91"/><path class="cls-2" d="M78.58,31.52a11.18,11.18,0,0,0-3.51,1.15"/><path class="cls-2" d="M80.75,32.33a2,2,0,0,0-2.17-.81"/><path class="cls-2" d="M74.34,32.61a2,2,0,0,0-.06,1.69c.82,1.88,4.39-1,5.17-1.92"/><path class="cls-2" d="M82,30.84a10.51,10.51,0,0,1,1,1.82"/><path class="cls-2" d="M74.25,32.73c-.12,0-.19-.08-.18-.1s.52-.1,1.1,0"/><path class="cls-2" d="M75.23,31.07a7.62,7.62,0,0,0-1.16,1.56"/><path class="cls-2" d="M82.22,29.87c.62.23,1.19,1.45,1.91,2.51"/><path class="cls-2" d="M76.56,29.91a.4.4,0,0,1-.25.63.33.33,0,0,1-.14,0"/><circle class="cls-2" cx="76.21" cy="29.53" r="0.51"/><path class="cls-5" d="M75.86,24.84l0,0h0a.2.2,0,0,0-.11,0l-.37.13a2,2,0,0,0-.31.19l-.06,0h0a.38.38,0,0,0-.18.09.49.49,0,0,0-.24.08,1.36,1.36,0,0,1-.28.11l-.14.07a.78.78,0,0,0-.26.22,1,1,0,0,0-.12.23.8.8,0,0,0,0,.31,1.45,1.45,0,0,0,.1.41.75.75,0,0,0-.42.45.63.63,0,0,0,.12.59l.07.06V28a.89.89,0,0,0,.2.37.88.88,0,0,0,.25.22.67.67,0,0,0-.16.25.56.56,0,0,0,0,.34.69.69,0,0,0,.4.49.75.75,0,0,0,.26,0s0,0,0,0a.44.44,0,0,0,0,.2,1,1,0,0,0,.14.29.91.91,0,0,0,.17.17l.11.1a.24.24,0,0,0-.16.15l-.1.35a.25.25,0,0,0,.13.3.25.25,0,0,0,.32-.08l.06-.1,0,0,0,0h0l.16,0a.74.74,0,0,0,.44,0,.59.59,0,0,0,.35-.29.46.46,0,0,0,0-.2h0a.42.42,0,0,0,.31-.27.69.69,0,0,0,0-.35.36.36,0,0,0,0-.1.18.18,0,0,0,0-.07s0-.05,0-.07h0a.22.22,0,0,0,0-.14s0-.07,0-.1a.52.52,0,0,0-.3-.37.61.61,0,0,0,0-.3,1,1,0,0,0-.41-.41.8.8,0,0,0,.22-.78,1,1,0,0,0-.36-.56l0,0a.18.18,0,0,0,.05-.07.75.75,0,0,0,.07-.12c0-.09,0-.18.07-.26a1,1,0,0,0,0-.17s0-.06,0-.09v0a.49.49,0,0,0,0-.12.73.73,0,0,0,.37-.79.14.14,0,0,0,0-.06,2.46,2.46,0,0,0,0-.26A.26.26,0,0,0,75.86,24.84Z"/><path class="cls-5" d="M82.84,26.71a.46.46,0,0,0-.25-.1l-.15-.07a.57.57,0,0,0,.11-.11.53.53,0,0,0,0-.58.88.88,0,0,0-.46-.34l-.12,0a1,1,0,0,0,0-.25.66.66,0,0,0-.21-.35,1.48,1.48,0,0,0-.21-.13h0l0,0a.82.82,0,0,0,.12-.2.75.75,0,0,0-.05-.55.74.74,0,0,0-.38-.38.72.72,0,0,0-.52,0h0a.08.08,0,0,0,0-.1,1.22,1.22,0,0,0-.48-.5.09.09,0,0,0-.11,0,.12.12,0,0,0,0,.1,2.6,2.6,0,0,0,.25.33l.22.28a.24.24,0,0,0,0,.23,1.51,1.51,0,0,0,.22.28h0v0c.06.2.13.41.21.61h0a.52.52,0,0,0,0,.37,1.31,1.31,0,0,1,.06.27s0,.1,0,.15v.09a.83.83,0,0,0,0,.15.29.29,0,0,0,0,.09,1,1,0,0,0,0,.17,2.37,2.37,0,0,1,0,.46l0,.11a.54.54,0,0,0-.1.2l-.09.34-.14.52,0,.09,0,.07h0a.43.43,0,0,1,0,.11.36.36,0,0,0,0,.2,1.78,1.78,0,0,0-.12.92.26.26,0,0,0,.09.16.6.6,0,0,0,.06.23.54.54,0,0,0,.36.28.49.49,0,0,0,.43-.14l.1.07a.7.7,0,0,0,.44.12.4.4,0,0,0,.21-.09.47.47,0,0,0,.1.1l.1.07h0l0,0,.09,0a.25.25,0,0,0,.17,0,.25.25,0,0,0,.13-.27.49.49,0,0,1,0-.12.88.88,0,0,1,0-.28.33.33,0,0,0,.13-.13l0,0,0-.08v0a.36.36,0,0,0,0-.1.41.41,0,0,0,0-.11v0a.69.69,0,0,0,0-.13L83,28.63l0,0a.53.53,0,0,0-.14-.12l-.08,0h0a.54.54,0,0,0,.11-.27,1.61,1.61,0,0,0,0-.31.75.75,0,0,0-.09-.29,0,0,0,0,0,0,0l.19-.26A.42.42,0,0,0,82.84,26.71Z"/><path class="cls-2" d="M77,30a2.71,2.71,0,0,0-.82-1.44"/><path class="cls-5" d="M76.28,28.83a.26.26,0,0,0,.1.5A.26.26,0,0,0,76.28,28.83Z"/><circle class="cls-16" cx="76.6" cy="29.9" r="0.36"/><path class="cls-2" d="M79.91,24.84a.66.66,0,0,1-.22.12.65.65,0,0,1-.41-1.24.66.66,0,0,1,.83.41.63.63,0,0,1,0,.43"/><path class="cls-2" d="M79.47,24.63a1.28,1.28,0,0,1,.66-.16"/><polyline class="cls-2" points="80.16 23.82 80.07 24.04 80.31 24.09"/><path class="cls-5" d="M79.85,24.54a.25.25,0,0,1-.08-.14.22.22,0,0,1,.18-.26.23.23,0,0,1,.26.18.21.21,0,0,1,0,.11"/><path class="cls-2" d="M79.92,26.21a1.71,1.71,0,0,1-1.82-.16"/><path class="cls-14" d="M79.05,24.59a.19.19,0,0,0,.06-.22c-.06-.14-.13-.29-.2-.43a.17.17,0,0,0-.21-.08.16.16,0,0,0-.15,0,.17.17,0,0,0-.06.21l.35.92a.18.18,0,0,0,.2.08.17.17,0,0,0,.12-.19l-.07-.24A.16.16,0,0,0,79.05,24.59Z"/><path class="cls-17" d="M78.83,23.83l1,1.61-.85.12"/><path class="cls-11" d="M78.66,24.58s0,0,0-.06a.19.19,0,0,0-.09-.05s0-.08,0-.09l-.21-.09-.09-.05h0l-.11,0H78a.63.63,0,0,0-.3.16l-.08.08-.07.1a.83.83,0,0,0-.07.13.42.42,0,0,0,0,.15v0a.32.32,0,0,0,0,.14.19.19,0,0,0,.07.12l.07.06a.21.21,0,0,0,.13.05h.09a.24.24,0,0,0,.14,0l.07-.06h0a.24.24,0,0,0,.12-.07h0l.15,0a2.29,2.29,0,0,0,.28-.09l.06,0,0-.06a.19.19,0,0,0,0-.16A.2.2,0,0,0,78.66,24.58Z"/><path class="cls-2" d="M77.77,25.43a.66.66,0,1,1,.5,0l-.1,0"/><path class="cls-2" d="M77.66,25.37a2,2,0,0,1,1-.41"/><polyline class="cls-2" points="77.12 24.95 77.43 25.03 77.28 25.33"/><path class="cls-5" d="M78.4,25a.23.23,0,0,1-.06-.12.24.24,0,0,1,.18-.27.24.24,0,0,1,.27.18.26.26,0,0,1,0,.15"/></g></svg>